<?xml version="1.0" encoding="UTF-8" standalone="no"?>
<svg
   xmlns:dc="http://purl.org/dc/elements/1.1/"
   xmlns:cc="http://creativecommons.org/ns#"
   xmlns:rdf="http://www.w3.org/1999/02/22-rdf-syntax-ns#"
   xmlns:svg="http://www.w3.org/2000/svg"
   xmlns="http://www.w3.org/2000/svg"
   xmlns:sodipodi="http://sodipodi.sourceforge.net/DTD/sodipodi-0.dtd"
   xmlns:inkscape="http://www.inkscape.org/namespaces/inkscape"
   viewBox="0 0 504.37143 330.94678"
   height="330.94678"
   width="504.37143"
   xml:space="preserve"
   id="svg2"
   version="1.1"
   sodipodi:docname="reco_example_mean_100_sigma_30.svg"
   inkscape:version="0.92.3 (2405546, 2018-03-11)"><sodipodi:namedview
     pagecolor="#ffffff"
     bordercolor="#666666"
     borderopacity="1"
     objecttolerance="10"
     gridtolerance="10"
     guidetolerance="10"
     inkscape:pageopacity="0"
     inkscape:pageshadow="2"
     inkscape:window-width="1366"
     inkscape:window-height="728"
     id="namedview89"
     showgrid="false"
     fit-margin-top="0"
     fit-margin-left="0"
     fit-margin-right="0"
     fit-margin-bottom="0"
     inkscape:zoom="0.87152778"
     inkscape:cx="383.19837"
     inkscape:cy="104.65274"
     inkscape:window-x="0"
     inkscape:window-y="0"
     inkscape:window-maximized="1"
     inkscape:current-layer="svg2" /><metadata
     id="metadata8"><rdf:RDF><cc:Work
         rdf:about=""><dc:format>image/svg+xml</dc:format><dc:type
           rdf:resource="http://purl.org/dc/dcmitype/StillImage" /><dc:title></dc:title></cc:Work></rdf:RDF></metadata><defs
     id="defs6"><clipPath
   id="clipPath24"
   clipPathUnits="userSpaceOnUse"><path
     id="path22"
     d="M 540,360 H 3888 V 2534 H 540 Z"
     inkscape:connector-curvature="0" /></clipPath>












</defs><path
     id="path16"
     style="fill:#ffffff;fill-opacity:1;fill-rule:nonzero;stroke:none;stroke-width:0.13333333"
     d="M 46.946615,290.45333 H 493.34661 V 0.5333333 H 46.946615 Z"
     inkscape:connector-curvature="0" /><g
     id="g20"
     clip-path="url(#clipPath24)"
     transform="matrix(0.13333333,0,0,-0.13333333,-25.053383,338.45333)"><path
       inkscape:connector-curvature="0"
       d="m 540.125,360 v 458.676 h 37.285 v 73.172 h 37.281 v 7.14 h 37.282 v -10.707 h 37.285 v 85.664 h 37.281 v 60.685 h 37.281 v 14.28 h 37.285 v 57.11 h 37.282 v 78.52 h 37.281 v 176.69 h 37.285 v 71.39 h 37.281 v 116.01 h 37.282 v 132.07 h 37.284 v 103.51 h 37.28 v 96.38 h 37.28 v 153.48 h 37.28 v 21.42 h 37.29 v 162.41 h 37.28 v -85.67 h 37.28 v 24.99 h 37.29 v -14.27 h 37.28 v -17.85 h 37.28 v 135.63 h 37.29 v -283.77 h 37.28 v 130.29 h 37.28 v 82.1 h 37.28 v 1.78 h 37.28 v -137.42 h 37.29 v -30.34 h 37.28 v 121.36 h 37.28 v -60.68 h 37.28 v 14.27 h 37.28 v 101.73 h 37.29 v -67.82 h 37.28 v -12.49 h 37.28 v 51.76 h 37.29 v -28.55 h 37.28 v 123.14 h 37.28 v -55.33 h 37.28 v -1.78 h 37.29 v -8.93 h 37.28 v -83.88 h 37.28 v 73.18 h 37.28 v -48.19 h 37.28 v -19.63 h 37.29 v 110.65 h 37.28 v -33.91 h 37.28 v -96.38 h 37.28 v 58.9 h 37.29 v -87.45 h 37.28 v -87.45 h 37.28 v -33.91 h 37.28 v -80.32 h 37.29 v -76.74 h 37.28 v 7.14 h 37.28 v -87.45 h 37.29 v -28.56 h 37.28 v -74.96 h 37.28 v -80.31 h 37.28 v -110.65 h 37.28 v 1.78 h 37.29 v -85.66 h 37.28 v 10.7 h 37.28 v -60.68 h 37.28 v -76.74 h 37.28 v -55.33 h 37.29 v -57.11 h 37.28 v -12.49 h 37.28 v -26.77 h 37.29 v -35.7 h 37.28 v -82.095 h 37.28 v 5.356 h 37.28 v -73.172 h 37.29 v 14.277 h 74.56 v -17.848 h 37.28 v -33.91 h 37.29 v -44.617 h 37.28 v 78.527 h 37.28 v -78.527 h 37.28 v -1.785 H 3560 v -3.57 h 37.29 v 30.339 h 37.28 V 779.41 h 37.28 v 53.543 h 37.29 v -76.742 h 37.28 v -1.785 h 37.28 v -28.555 h 37.28 v 44.617 h 37.29 v -53.543 h 37.28 V 360 h 37.28 v 5.355 h 37.28 V 360 h 37.28 v 3.57 h 37.29 V 360 h 37.28 v 3.57 h 37.28 v -1.785 h 37.28 V 360 h 74.57 v 3.57 h 37.28 v -3.57 0"
       style="fill:none;stroke:#1f77b4;stroke-width:15;stroke-linecap:butt;stroke-linejoin:miter;stroke-miterlimit:10;stroke-dasharray:55.5, 24;stroke-dashoffset:0;stroke-opacity:1"
       id="path26" /><path
       inkscape:connector-curvature="0"
       d="m 540,360 v 508.77 h 106.852 v 41.722 h 53.425 v 93.228 h 62.328 v 179.94 h 160.278 v 493.9 h 169.177 v 427.85 h 186.99 v 32.81 h 231.51 v -31.34 h 267.13 v 75.02 h 276.03 v -13.5 h 284.94 v -289.22 h 329.46 v -526.24 h 356.17 V 942.352 h 382.88 V 782.684 h 489.74 V 361.051 H 4330"
       style="fill:none;stroke:#1f77b4;stroke-width:15;stroke-linecap:butt;stroke-linejoin:miter;stroke-miterlimit:10;stroke-dasharray:none;stroke-opacity:1"
       id="path28" /><path
       inkscape:connector-curvature="0"
       d="m 540.07,360 v 466.086 h 36.278 v -27.523 h 36.273 v 144.964 h 36.274 v -36.699 h 36.273 v 115.602 h 36.277 v 14.68 h 36.274 v 44.04 h 36.273 v 88.08 h 36.278 v 95.42 h 36.273 v 55.05 h 36.273 v 58.72 h 36.274 v 18.35 h 36.277 v 135.79 h 36.273 v 154.14 h 36.27 v 113.77 h 36.28 v 159.64 h 36.27 v 25.69 h 36.28 v 77.07 h 36.27 v 88.08 h 36.28 v -34.86 h 36.27 v 99.09 h 36.28 v 77.07 h 36.27 v -42.21 h 36.28 v -66.06 h 36.27 v -5.5 h 36.27 v -99.09 h 72.55 v -22.02 h 36.28 v -16.52 h 36.28 v 5.51 h 36.27 v 14.68 h 36.27 v 58.72 h 36.28 V 1985.8 h 36.27 v 128.45 h 36.28 v 69.73 h 36.27 v -53.21 h 36.28 v 69.73 h 36.27 v -40.37 h 36.27 v -22.02 h 36.28 v 45.87 h 36.27 v 47.71 h 36.28 v 29.36 h 36.27 v -38.53 h 36.28 v 53.21 h 36.27 v -62.39 h 36.28 v 20.19 h 36.27 v -88.08 h 36.28 v 64.22 h 36.27 V 2095.9 h 36.27 v 51.38 h 36.28 v -88.08 h 36.27 v 36.7 h 36.28 v -80.74 h 36.27 v -113.77 h 36.28 v 27.53 h 36.27 v -157.81 h 36.28 v 23.85 h 36.27 v -89.91 H 2644 v -91.75 h 36.27 v 3.67 h 36.27 v -146.8 h 36.28 v -27.53 h 36.27 v -14.68 h 36.28 v -117.43 h 36.27 v 5.5 h 36.28 v -104.59 h 36.27 v -62.39 h 36.27 v -56.89 h 36.28 v 86.25 h 36.28 v -71.57 h 36.27 v -100.92 h 36.28 v -36.701 h 36.27 v -53.215 h 36.27 v -34.867 h 36.28 v 66.058 h 36.27 v -69.726 h 36.28 v 20.183 h 36.27 v -67.894 h 36.28 v 7.34 h 36.27 v -31.196 h 36.28 v 44.039 h 36.27 v -55.046 h 36.28 v 27.523 h 36.27 V 710.484 h 36.27 v 73.399 h 36.28 v 11.012 h 36.27 v 9.171 h 36.28 v 36.704 h 36.27 v -5.508 h 36.28 v -89.914 h 36.27 v 20.183 h 36.27 v 9.176 h 36.28 V 488.449 h 36.28 V 361.836 h 108.82 V 360 h 36.27 v 3.672 h 72.55 v -1.836 h 36.28 V 360 v 0"
       style="fill:none;stroke:#ff7f0e;stroke-width:15;stroke-linecap:butt;stroke-linejoin:miter;stroke-miterlimit:10;stroke-dasharray:55.5, 24;stroke-dashoffset:0;stroke-opacity:1"
       id="path30" /><path
       inkscape:connector-curvature="0"
       d="m 540,360 v 474.691 h 89.043 v 241.889 h 249.32 v 393.53 h 160.277 v 391.1 h 97.95 v 230.86 h 89.04 v 116.24 h 178.08 v -77.62 h 133.57 v -31.51 h 409.59 v 133.91 h 204.8 v -253.73 h 543.16 v -621.38 h 267.13 v -336.15 h 267.13 V 822.801 h 587.68 V 429.77 h 427.4 V 360 H 4330"
       style="fill:none;stroke:#ff7f0e;stroke-width:15;stroke-linecap:butt;stroke-linejoin:miter;stroke-miterlimit:10;stroke-dasharray:none;stroke-opacity:1"
       id="path32" /><path
       inkscape:connector-curvature="0"
       d="m 540.082,360 v 482.898 h 36.801 v 65.11 h 36.801 V 853.75 h 36.8 v 18.086 h 36.801 v 90.43 h 36.801 v 18.086 h 36.805 v 45.218 h 36.8 v 63.3 h 36.801 v 249.59 h 36.801 v -23.51 h 36.801 v 139.26 h 36.801 v 106.71 h 36.8 v 79.58 h 36.805 v 141.07 h 36.8 v 70.53 h 36.8 v 115.75 h 73.6 v 180.86 h 36.8 v -28.93 h 36.8 v 23.51 h 36.81 v 85 h 36.8 v -66.91 h 36.8 v -59.69 h 36.8 v 90.43 h 36.8 v -90.43 h 36.8 v -3.62 h 36.8 v -12.66 h 36.8 v 88.63 h 36.81 v -128.41 h 36.8 v 14.46 h 36.8 v 72.35 h 36.8 v -99.48 h 36.8 v 50.65 h 36.8 v 23.51 h 36.8 v -122.99 h 36.81 v 57.88 h 36.8 v 75.96 h 36.8 v 92.24 h 36.8 v -25.32 h 36.8 v 119.36 h 36.8 v -122.98 h 36.8 v 101.28 h 36.8 v 148.31 h 36.81 v -132.03 h 36.8 v -37.98 h 36.8 v -36.17 h 36.8 v -32.56 h 36.8 v -90.43 h 36.8 v 66.92 h 36.8 v -79.58 h 36.8 v -57.87 h 36.81 v -25.32 h 36.8 v -75.97 h 36.8 v -52.45 h 36.8 V 1872 h 36.8 v -200.76 h 36.8 v -34.36 h 36.8 v 43.41 h 36.8 v -88.63 h 36.81 v -75.96 h 36.8 v -83.2 h 36.8 v -54.25 h 36.8 v -3.62 h 36.8 v 50.64 h 36.8 V 1242.6 h 36.8 v -101.28 h 36.8 v 18.09 h 36.81 v -70.54 h 36.8 v -1.81 h 36.8 v -63.3 h 36.8 v -39.791 h 36.8 v -28.938 h 36.8 v 10.852 h 36.8 v -79.578 h 36.8 v -27.129 h 36.81 v 5.426 h 36.8 V 828.43 h 36.8 v 50.64 h 36.8 v -23.511 h 36.8 v -95.856 h 36.8 v 18.086 h 36.8 v 34.363 h 36.8 v -5.425 h 36.8 v -10.852 h 36.81 v 34.363 h 36.8 v -95.855 h 36.8 v 66.918 h 36.8 v -70.535 h 36.8 V 738 h 36.8 v 41.598 h 36.8 v -32.555 h 36.8 V 365.426 h 73.61 v 1.808 h 36.8 v -5.425 h 36.8 V 360 h 36.8 v 1.809 h 73.6 V 360 h 36.8 v 1.809 h 36.8 V 360 v 0"
       style="fill:none;stroke:#2ca02c;stroke-width:15;stroke-linecap:butt;stroke-linejoin:miter;stroke-miterlimit:10;stroke-dasharray:55.5, 24;stroke-dashoffset:0;stroke-opacity:1"
       id="path34" /><path
       inkscape:connector-curvature="0"
       d="m 896.172,360 v 1184.73 h 89.039 v 391.21 H 1163.3 v 335.7 h 186.99 v -49.02 h 195.89 v -30.96 h 204.8 v 20.01 h 204.8 v 191.49 h 222.6 v -143.59 h 231.51 v -342.85 h 249.32 v -398.18 h 249.32 v -418.63 h 329.46 V 862.895 h 356.17 V 661.703 h 427.4 V 360.586 H 4330"
       style="fill:none;stroke:#2ca02c;stroke-width:15;stroke-linecap:butt;stroke-linejoin:miter;stroke-miterlimit:10;stroke-dasharray:none;stroke-opacity:1"
       id="path36" /></g><path
     id="path38"
     style="fill:#000000;fill-opacity:1;fill-rule:nonzero;stroke:none;stroke-width:0.13333333"
     d="M 77.814877,290.45333 V 295.12"
     inkscape:connector-curvature="0" /><path
     id="path40"
     style="fill:none;stroke:#000000;stroke-width:1.0666666;stroke-linecap:butt;stroke-linejoin:round;stroke-miterlimit:10;stroke-dasharray:none;stroke-opacity:1"
     d="M 77.814877,290.45333 V 295.12"
     inkscape:connector-curvature="0" /><text
     style="font-variant:normal;font-weight:normal;font-size:13.33333302px;font-family:Arial;-inkscape-font-specification:Arial;writing-mode:lr-tb;fill:#000000;fill-opacity:1;fill-rule:nonzero;stroke:none;stroke-width:1.33333325"
     id="text46"
     x="69.335678"
     y="309.91162"><tspan
       x="69.335678 77.818497"
       y="309.91162"
       id="tspan44"
       style="stroke-width:1.33333325">25</tspan></text>
<path
     id="path48"
     style="fill:#000000;fill-opacity:1;fill-rule:nonzero;stroke:none;stroke-width:0.13333333"
     d="M 137.17595,290.45333 V 295.12"
     inkscape:connector-curvature="0" /><path
     id="path50"
     style="fill:none;stroke:#000000;stroke-width:1.0666666;stroke-linecap:butt;stroke-linejoin:round;stroke-miterlimit:10;stroke-dasharray:none;stroke-opacity:1"
     d="M 137.17595,290.45333 V 295.12"
     inkscape:connector-curvature="0" /><text
     style="font-variant:normal;font-weight:normal;font-size:13.33333302px;font-family:Arial;-inkscape-font-specification:Arial;writing-mode:lr-tb;fill:#000000;fill-opacity:1;fill-rule:nonzero;stroke:none;stroke-width:1.33333325"
     id="text56"
     x="128.69727"
     y="309.91162"><tspan
       x="128.69727 137.1806"
       y="309.91162"
       id="tspan54"
       style="stroke-width:1.33333325">50</tspan></text>
<path
     id="path58"
     style="fill:#000000;fill-opacity:1;fill-rule:nonzero;stroke:none;stroke-width:0.13333333"
     d="M 196.53861,290.45333 V 295.12"
     inkscape:connector-curvature="0" /><path
     id="path60"
     style="fill:none;stroke:#000000;stroke-width:1.0666666;stroke-linecap:butt;stroke-linejoin:round;stroke-miterlimit:10;stroke-dasharray:none;stroke-opacity:1"
     d="M 196.53861,290.45333 V 295.12"
     inkscape:connector-curvature="0" /><text
     style="font-variant:normal;font-weight:normal;font-size:13.33333302px;font-family:Arial;-inkscape-font-specification:Arial;writing-mode:lr-tb;fill:#000000;fill-opacity:1;fill-rule:nonzero;stroke:none;stroke-width:1.33333325"
     id="text66"
     x="188.05859"
     y="309.91162"><tspan
       x="188.05859 196.54141"
       y="309.91162"
       id="tspan64"
       style="stroke-width:1.33333325">75</tspan></text>
<path
     id="path68"
     style="fill:#000000;fill-opacity:1;fill-rule:nonzero;stroke:none;stroke-width:0.13333333"
     d="M 255.89995,290.45333 V 295.12"
     inkscape:connector-curvature="0" /><path
     id="path70"
     style="fill:none;stroke:#000000;stroke-width:1.0666666;stroke-linecap:butt;stroke-linejoin:round;stroke-miterlimit:10;stroke-dasharray:none;stroke-opacity:1"
     d="M 255.89995,290.45333 V 295.12"
     inkscape:connector-curvature="0" /><text
     style="font-variant:normal;font-weight:normal;font-size:13.33333302px;font-family:Arial;-inkscape-font-specification:Arial;writing-mode:lr-tb;fill:#000000;fill-opacity:1;fill-rule:nonzero;stroke:none;stroke-width:1.33333325"
     id="text76"
     x="243.18126"
     y="309.91162"><tspan
       x="243.18126 251.6646 260.1474"
       y="309.91162"
       id="tspan74"
       style="stroke-width:1.33333325">100</tspan></text>
<path
     id="path78"
     style="fill:#000000;fill-opacity:1;fill-rule:nonzero;stroke:none;stroke-width:0.13333333"
     d="M 315.26128,290.45333 V 295.12"
     inkscape:connector-curvature="0" /><path
     id="path80"
     style="fill:none;stroke:#000000;stroke-width:1.0666666;stroke-linecap:butt;stroke-linejoin:round;stroke-miterlimit:10;stroke-dasharray:none;stroke-opacity:1"
     d="M 315.26128,290.45333 V 295.12"
     inkscape:connector-curvature="0" /><text
     style="font-variant:normal;font-weight:normal;font-size:13.33333302px;font-family:Arial;-inkscape-font-specification:Arial;writing-mode:lr-tb;fill:#000000;fill-opacity:1;fill-rule:nonzero;stroke:none;stroke-width:1.33333325"
     id="text86"
     x="302.5426"
     y="309.91162"><tspan
       x="302.5426 311.02542 319.50873"
       y="309.91162"
       id="tspan84"
       style="stroke-width:1.33333325">125</tspan></text>
<path
     id="path88"
     style="fill:#000000;fill-opacity:1;fill-rule:nonzero;stroke:none;stroke-width:0.13333333"
     d="M 374.62261,290.45333 V 295.12"
     inkscape:connector-curvature="0" /><path
     id="path90"
     style="fill:none;stroke:#000000;stroke-width:1.0666666;stroke-linecap:butt;stroke-linejoin:round;stroke-miterlimit:10;stroke-dasharray:none;stroke-opacity:1"
     d="M 374.62261,290.45333 V 295.12"
     inkscape:connector-curvature="0" /><text
     style="font-variant:normal;font-weight:normal;font-size:13.33333302px;font-family:Arial;-inkscape-font-specification:Arial;writing-mode:lr-tb;fill:#000000;fill-opacity:1;fill-rule:nonzero;stroke:none;stroke-width:1.33333325"
     id="text96"
     x="361.90393"
     y="309.91162"><tspan
       x="361.90393 370.38727 378.87006"
       y="309.91162"
       id="tspan94"
       style="stroke-width:1.33333325">150</tspan></text>
<path
     id="path98"
     style="fill:#000000;fill-opacity:1;fill-rule:nonzero;stroke:none;stroke-width:0.13333333"
     d="M 433.98528,290.45333 V 295.12"
     inkscape:connector-curvature="0" /><path
     id="path100"
     style="fill:none;stroke:#000000;stroke-width:1.0666666;stroke-linecap:butt;stroke-linejoin:round;stroke-miterlimit:10;stroke-dasharray:none;stroke-opacity:1"
     d="M 433.98528,290.45333 V 295.12"
     inkscape:connector-curvature="0" /><text
     style="font-variant:normal;font-weight:normal;font-size:13.33333302px;font-family:Arial;-inkscape-font-specification:Arial;writing-mode:lr-tb;fill:#000000;fill-opacity:1;fill-rule:nonzero;stroke:none;stroke-width:1.33333325"
     id="text106"
     x="421.2666"
     y="309.91162"><tspan
       x="421.2666 429.74942 438.23273"
       y="309.91162"
       id="tspan104"
       style="stroke-width:1.33333325">175</tspan></text>
<path
     id="path108"
     style="fill:#000000;fill-opacity:1;fill-rule:nonzero;stroke:none;stroke-width:0.13333333"
     d="M 493.34661,290.45333 V 295.12"
     inkscape:connector-curvature="0" /><path
     id="path110"
     style="fill:none;stroke:#000000;stroke-width:1.0666666;stroke-linecap:butt;stroke-linejoin:round;stroke-miterlimit:10;stroke-dasharray:none;stroke-opacity:1"
     d="M 493.34661,290.45333 V 295.12"
     inkscape:connector-curvature="0" /><text
     style="font-variant:normal;font-weight:normal;font-size:13.33333302px;font-family:Arial;-inkscape-font-specification:Arial;writing-mode:lr-tb;fill:#000000;fill-opacity:1;fill-rule:nonzero;stroke:none;stroke-width:1.33333325"
     id="text118"
     x="480.62793"
     y="309.91162"><tspan
       x="480.62793 489.11124 497.59409"
       y="309.91162"
       id="tspan114"
       style="stroke-width:1.33333325">200</tspan><tspan
       x="226.82394 235.24843 243.69893 251.90205 257.38382 265.84738 273.73801 277.97653 283.1781 290.89948 299.1026 308.22397"
       y="328.14081"
       id="tspan116"
       style="stroke-width:1.33333325">Energy (keV)</tspan></text>
<path
     id="path120"
     style="fill:#000000;fill-opacity:1;fill-rule:nonzero;stroke:none;stroke-width:0.13333333"
     d="M 46.946615,290.45333 H 42.279949"
     inkscape:connector-curvature="0" /><path
     id="path122"
     style="fill:none;stroke:#000000;stroke-width:1.0666666;stroke-linecap:butt;stroke-linejoin:round;stroke-miterlimit:10;stroke-dasharray:none;stroke-opacity:1"
     d="M 46.946615,290.45333 H 42.279949"
     inkscape:connector-curvature="0" /><text
     style="font-variant:normal;font-weight:normal;font-size:13.33333302px;font-family:Arial;-inkscape-font-specification:Arial;writing-mode:lr-tb;fill:#000000;fill-opacity:1;fill-rule:nonzero;stroke:none;stroke-width:1.33333325"
     id="text128"
     x="-0.55338538"
     y="295.51587"><tspan
       x="-0.55338538 7.9299464 12.167972 20.651302 29.134117"
       y="295.51587"
       id="tspan126"
       style="stroke-width:1.33333325">0.000</tspan></text>
<path
     id="path130"
     style="fill:#000000;fill-opacity:1;fill-rule:nonzero;stroke:none;stroke-width:0.13333333"
     d="M 46.946615,230.75907 H 42.279949"
     inkscape:connector-curvature="0" /><path
     id="path132"
     style="fill:none;stroke:#000000;stroke-width:1.0666666;stroke-linecap:butt;stroke-linejoin:round;stroke-miterlimit:10;stroke-dasharray:none;stroke-opacity:1"
     d="M 46.946615,230.75907 H 42.279949"
     inkscape:connector-curvature="0" /><text
     style="font-variant:normal;font-weight:normal;font-size:13.33333302px;font-family:Arial;-inkscape-font-specification:Arial;writing-mode:lr-tb;fill:#000000;fill-opacity:1;fill-rule:nonzero;stroke:none;stroke-width:1.33333325"
     id="text138"
     x="-0.55338538"
     y="235.82158"><tspan
       x="-0.55338538 7.9299464 12.167972 20.651302 29.134117"
       y="235.82158"
       id="tspan136"
       style="stroke-width:1.33333325">0.002</tspan></text>
<path
     id="path140"
     style="fill:#000000;fill-opacity:1;fill-rule:nonzero;stroke:none;stroke-width:0.13333333"
     d="M 46.946615,171.06533 H 42.279949"
     inkscape:connector-curvature="0" /><path
     id="path142"
     style="fill:none;stroke:#000000;stroke-width:1.0666666;stroke-linecap:butt;stroke-linejoin:round;stroke-miterlimit:10;stroke-dasharray:none;stroke-opacity:1"
     d="M 46.946615,171.06533 H 42.279949"
     inkscape:connector-curvature="0" /><text
     style="font-variant:normal;font-weight:normal;font-size:13.33333302px;font-family:Arial;-inkscape-font-specification:Arial;writing-mode:lr-tb;fill:#000000;fill-opacity:1;fill-rule:nonzero;stroke:none;stroke-width:1.33333325"
     id="text148"
     x="-0.55338538"
     y="176.12799"><tspan
       x="-0.55338538 7.9299464 12.167972 20.651302 29.134117"
       y="176.12799"
       id="tspan146"
       style="stroke-width:1.33333325">0.004</tspan></text>
<path
     id="path150"
     style="fill:#000000;fill-opacity:1;fill-rule:nonzero;stroke:none;stroke-width:0.13333333"
     d="M 46.946615,111.37067 H 42.279949"
     inkscape:connector-curvature="0" /><path
     id="path152"
     style="fill:none;stroke:#000000;stroke-width:1.0666666;stroke-linecap:butt;stroke-linejoin:round;stroke-miterlimit:10;stroke-dasharray:none;stroke-opacity:1"
     d="M 46.946615,111.37067 H 42.279949"
     inkscape:connector-curvature="0" /><text
     style="font-variant:normal;font-weight:normal;font-size:13.33333302px;font-family:Arial;-inkscape-font-specification:Arial;writing-mode:lr-tb;fill:#000000;fill-opacity:1;fill-rule:nonzero;stroke:none;stroke-width:1.33333325"
     id="text158"
     x="-0.55338538"
     y="116.43333"><tspan
       x="-0.55338538 7.9299464 12.167972 20.651302 29.134117"
       y="116.43333"
       id="tspan156"
       style="stroke-width:1.33333325">0.006</tspan></text>
<path
     id="path160"
     style="fill:#000000;fill-opacity:1;fill-rule:nonzero;stroke:none;stroke-width:0.13333333"
     d="M 46.946615,51.677332 H 42.279949"
     inkscape:connector-curvature="0" /><path
     id="path162"
     style="fill:none;stroke:#000000;stroke-width:1.0666666;stroke-linecap:butt;stroke-linejoin:round;stroke-miterlimit:10;stroke-dasharray:none;stroke-opacity:1"
     d="M 46.946615,51.677332 H 42.279949"
     inkscape:connector-curvature="0" /><text
     style="font-variant:normal;font-weight:normal;font-size:13.33333302px;font-family:Arial;-inkscape-font-specification:Arial;writing-mode:lr-tb;fill:#000000;fill-opacity:1;fill-rule:nonzero;stroke:none;stroke-width:1.33333325"
     id="text168"
     x="-0.55338538"
     y="56.738667"><tspan
       x="-0.55338538 7.9299464 12.167972 20.651302 29.134117"
       y="56.738667"
       id="tspan166"
       style="stroke-width:1.33333325">0.008</tspan></text>
<path
     id="path170"
     style="fill:none;stroke:#000000;stroke-width:1.0666666;stroke-linecap:square;stroke-linejoin:miter;stroke-miterlimit:10;stroke-dasharray:none;stroke-opacity:1"
     d="M 46.946615,290.45333 V 0.5333333"
     inkscape:connector-curvature="0" /><path
     id="path172"
     style="fill:none;stroke:#000000;stroke-width:1.0666666;stroke-linecap:square;stroke-linejoin:miter;stroke-miterlimit:10;stroke-dasharray:none;stroke-opacity:1"
     d="M 493.34661,290.45333 V 0.5333333"
     inkscape:connector-curvature="0" /><path
     id="path174"
     style="fill:none;stroke:#000000;stroke-width:1.0666666;stroke-linecap:square;stroke-linejoin:miter;stroke-miterlimit:10;stroke-dasharray:none;stroke-opacity:1"
     d="M 46.946615,290.45333 H 493.34661"
     inkscape:connector-curvature="0" /><path
     id="path176"
     style="fill:none;stroke:#000000;stroke-width:1.0666666;stroke-linecap:square;stroke-linejoin:miter;stroke-miterlimit:10;stroke-dasharray:none;stroke-opacity:1"
     d="M 46.946615,0.5333333 H 493.34661"
     inkscape:connector-curvature="0" /></svg>