<?xml version="1.0" encoding="UTF-8" standalone="no"?>
<svg
   xmlns:dc="http://purl.org/dc/elements/1.1/"
   xmlns:cc="http://creativecommons.org/ns#"
   xmlns:rdf="http://www.w3.org/1999/02/22-rdf-syntax-ns#"
   xmlns:svg="http://www.w3.org/2000/svg"
   xmlns="http://www.w3.org/2000/svg"
   xmlns:sodipodi="http://sodipodi.sourceforge.net/DTD/sodipodi-0.dtd"
   xmlns:inkscape="http://www.inkscape.org/namespaces/inkscape"
   viewBox="0 0 504.37143 330.94678"
   height="330.94678"
   width="504.37143"
   xml:space="preserve"
   id="svg2"
   version="1.1"
   sodipodi:docname="reco_example_mean_100_sigma_5.svg"
   inkscape:version="0.92.3 (2405546, 2018-03-11)"><sodipodi:namedview
     pagecolor="#ffffff"
     bordercolor="#666666"
     borderopacity="1"
     objecttolerance="10"
     gridtolerance="10"
     guidetolerance="10"
     inkscape:pageopacity="0"
     inkscape:pageshadow="2"
     inkscape:window-width="1366"
     inkscape:window-height="728"
     id="namedview109"
     showgrid="false"
     fit-margin-top="0"
     fit-margin-left="0"
     fit-margin-right="0"
     fit-margin-bottom="0"
     inkscape:zoom="0.87152778"
     inkscape:cx="233.89899"
     inkscape:cy="119.416"
     inkscape:window-x="0"
     inkscape:window-y="0"
     inkscape:window-maximized="1"
     inkscape:current-layer="svg2" /><metadata
     id="metadata8"><rdf:RDF><cc:Work
         rdf:about=""><dc:format>image/svg+xml</dc:format><dc:type
           rdf:resource="http://purl.org/dc/dcmitype/StillImage" /><dc:title></dc:title></cc:Work></rdf:RDF></metadata><defs
     id="defs6"><clipPath
   id="clipPath24"
   clipPathUnits="userSpaceOnUse"><path
     id="path22"
     d="M 540,360 H 3888 V 2534 H 540 Z"
     inkscape:connector-curvature="0" /></clipPath>
















</defs><path
     id="path16"
     style="fill:#ffffff;fill-opacity:1;fill-rule:nonzero;stroke:none;stroke-width:0.13333333"
     d="M 46.946615,290.45333 H 493.34661 V 0.5333333 H 46.946615 Z"
     inkscape:connector-curvature="0" /><path
     id="path26"
     style="fill:none;stroke:#1f77b4;stroke-width:2;stroke-linecap:butt;stroke-linejoin:miter;stroke-miterlimit:10;stroke-dasharray:7.39999982, 3.19999992;stroke-dashoffset:0;stroke-opacity:1"
     d="M 46.987282,290.45333 V 278.6216 h 4.463466 v 0.58586 h 4.4636 v -0.6448 h 4.463467 v 0.87867 h 4.4636 v -1.8156 h 4.4636 v 1.23027 h 4.463466 v -1.34747 h 4.463596 v -0.17547 h 4.46347 v 1.99107 l 8.92707,0.0589 v -1.28853 h 4.4636 v 1.28853 h 4.463463 v -0.2344 h 4.46414 v -0.87866 h 4.46346 v -0.64427 h 4.464 v 1.05413 h 4.46267 v -3.2796 h 4.464 v -19.68079 h 4.464 v -57.16747 h 4.46267 v -67.184 h 4.464 v -20.73466 h 4.464 v 57.57733 h 4.46266 v 69.93693 h 4.464 v 28.93493 h 4.464 v 9.84053 h 4.46267 v 4.0412 h 4.464 v -2.1672 h 4.464 v 0.87867 h 4.464 v -0.99587 h 4.46266 v -0.81973 h 4.464 v 0.81973 h 4.464 v 0.2932 h 4.46267 v 2.1084 h 4.464 v -1.8156 h 4.464 v -0.81986 h 4.46267 v 0.1756 h 4.464 v -0.93707 h 4.464 v 0.46827 h 4.46266 v -1.75734 h 4.464 v -2.05 h 4.464 v -12.18279 h 4.46267 v -18.50931 h 4.464 V 210.208 h 4.46267 v -53.184 h 4.46533 V 96.869335 h 4.46267 V 47.607999 h 4.464 V 14.338666 h 4.46266 v 10.074667 h 4.464 v 38.658662 h 4.464 V 120.884 h 4.46267 v 54.12133 h 4.464 v 48.20587 h 4.464 v 26.53373 h 4.46267 v 17.1032 h 4.464 v 7.55627 h 4.464 v 2.57706 h 4.46266 v 1.05414 h 4.464 v 1.52293 h 4.464 v 0.4688 h 4.464 v -0.52707 h 4.46267 v 0.29267 h 4.464 v -2.1084 h 4.464 v 0.46827 l 8.92666,-0.0583 v 0.81973 h 4.464 v 0.586 h 4.46267 v -0.8204 h 4.464 v 0.4688 h 8.92667 v -0.40986 h 4.464 v -0.87867 h 4.464 v 0.17547 h 4.46266 v 2.2844 h 4.464 v -2.22547 h 4.464 v 1.05413 h 4.464 v -2.1672 h 4.46267 v 3.57294 h 4.464 v -2.1672 h 4.464 v -1.05414 h 4.46267 v 2.57707 h 4.464 v -0.93707 h 4.464 v 0.70267 h 4.46266 v -0.29267 h 4.464 v -0.99586 h 4.464 v 0.99586 h 4.46267 v -0.2928 h 4.464 v -1.93333 h 4.464 v 1.93333 h 4.46267 v 0.76147 h 4.46399 v -1.46453 h 4.46267 v 1.23013 h 4.46533 v -2.28427 h 4.46267 v 2.98694 h 4.464 v -2.57707 h 4.464 v -0.2344 h 4.46267 v 2.636 l 8.92666,0.0583 V 278.27 h 4.464 v -1.22974 h 4.464 v 1.58134 h 4.46267 v 11.83173 0"
     inkscape:connector-curvature="0" /><path
     id="path28"
     style="fill:none;stroke:#1f77b4;stroke-width:2;stroke-linecap:butt;stroke-linejoin:miter;stroke-miterlimit:10;stroke-dasharray:none;stroke-opacity:1"
     d="M 46.946615,290.45333 V 278.8184 h 14.246933 v 0 h 7.123333 v -0.2568 h 8.310396 v -0.0489 h 21.3704 v -0.2984 h 22.556943 v -95.25697 h 24.932 v 88.94707 h 30.86799 v 6.9068 h 35.61734 v -57.81773 h 36.804 v -92.18413 h 37.992 v 149.24039 h 43.92799 v 0.74893 h 47.48934 v 0.0959 h 51.05066 v -5.3e-4"
     inkscape:connector-curvature="0"
     sodipodi:nodetypes="cccccccccccccccccccccccccccc" /><path
     id="path30"
     style="fill:none;stroke:#ff7f0e;stroke-width:2;stroke-linecap:butt;stroke-linejoin:miter;stroke-miterlimit:10;stroke-dasharray:7.39999982, 3.19999992;stroke-dashoffset:0;stroke-opacity:1"
     d="M 46.948215,290.45333 V 279.032 l 8.9276,0.1172 v -0.2932 h 4.463467 v 0.176 l 13.391199,0.0583 v 0.2344 h 4.463466 v -0.40986 h 4.4636 v 0.58546 h 4.4636 v -1.40573 h 4.464 v -0.2344 l 8.927073,-0.0584 v 0.64427 h 4.4636 v 0.41 h 4.46413 v -0.93707 h 4.464 v 0.586 h 4.46267 v -3.39747 h 4.464 v -15.63857 h 4.464 v -60.0956 h 4.464 V 129.556 h 4.46266 v -17.45466 h 4.464 v 57.40133 h 4.464 v 64.3116 h 4.464 v 35.2604 h 4.46267 v 7.43853 h 4.464 v 1.87453 h 4.464 v 0.81973 h 4.464 v -0.99586 h 4.46267 v -0.29267 h 4.46399 v 0.29267 h 4.464 v 0.17613 h 4.464 v -0.17613 h 4.46267 v 1.17146 h 4.464 v -0.87813 h 4.464 v 0.17547 h 4.464 v -0.29267 h 4.46267 v 0.64427 l 8.928,-0.0589 v -2.22546 h 4.464 v -4.92031 h 4.46266 v -10.89426 h 4.464 v -16.7516 h 4.464 V 208.5112 h 4.464 v -55.29253 h 4.46267 v -49.376 h 4.464 V 39.881332 h 4.464 V 19.030666 h 4.464 v -0.528 h 4.46267 v 49.610669 h 4.464 v 54.297335 h 4.464 V 177.116 h 4.464 v 43.98787 h 4.46266 v 32.03906 h 4.464 v 14.526 h 4.464 v 7.9656 h 4.464 v 3.51467 h 4.46267 v -1.99174 h 4.464 v 1.23027 h 4.464 v 0.87813 h 4.464 v -0.2928 h 4.46266 v 0.4688 h 4.464 v -1.58173 h 4.464 v 0.6448 h 4.464 v 1.6396 h 4.46267 v -2.1672 h 4.464 v 0.64427 h 4.464 v 1.05466 h 4.464 v -0.87866 h 4.46267 v -2.226 h 4.464 v 1.81613 l 8.928,-0.1172 v -0.87867 h 4.46266 v 3.16307 h 4.464 v -2.7532 h 4.464 v 0.93707 h 4.46267 v 0.2932 h 4.464 v -1.40574 h 4.464 v 2.45987 h 4.464 v -1.8156 h 4.46267 v 1.28853 h 4.464 v -1.9328 h 4.464 v 0.52707 h 4.464 v 1.28853 h 4.46266 V 278.856 h 4.46534 v 0.23426 h 4.46266 v -0.29266 h 13.392 v -0.176 h 4.46267 v 0.64426 h 4.464 v -1.22973 h 4.46266 v 0.58547 h 4.46534 v 0.82026 l 8.92666,-0.0588 V 278.856 h 4.464 v 1.11293 l 8.92667,-0.0583 v -0.3516 h 4.464 v -1.69893 h 4.464 v 0.5276 h 4.464 v 12.06563 0"
     inkscape:connector-curvature="0" /><path
     id="path32"
     style="fill:none;stroke:#ff7f0e;stroke-width:2;stroke-linecap:butt;stroke-linejoin:miter;stroke-miterlimit:10;stroke-dasharray:none;stroke-opacity:1"
     d="m 46.946615,290.45333 v -11.56147 h 11.8724 v 0.17347 H 92.061677 V 278.158 h 21.370273 v -5.16147 h 13.06 V 159.86667 h 11.872 v 71.45906 h 23.744 v 47.13333 h 17.80933 v -4.84266 h 54.612 V 88.918665 h 27.30667 V 245.8872 h 72.42133 v 32.4104 h 35.61733 v 0.4552 h 35.61733 v 0.26253 h 78.35733 v 9.40107"
     inkscape:connector-curvature="0"
     sodipodi:nodetypes="cccccccccccccccccccccccccccc" /><path
     id="path34"
     style="fill:none;stroke:#2ca02c;stroke-width:2;stroke-linecap:butt;stroke-linejoin:miter;stroke-miterlimit:10;stroke-dasharray:7.39999982, 3.19999992;stroke-dashoffset:0;stroke-opacity:1"
     d="m 46.955949,290.45333 v -11.36307 h 4.463599 V 278.446 h 8.927067 v -0.40987 h 4.464 v 0.40987 h 4.4636 v -0.40987 h 4.4636 v 0.29267 h 4.463462 v -1.05414 h 4.46414 v 1.87454 h 4.46346 v -0.4104 h 4.4636 v 0.87853 h 4.46347 v -1.28853 h 4.464133 v 0.586 h 4.46347 v 0.52706 h 4.46307 v -0.29266 h 4.464 v -0.4688 h 4.464 v -2.98694 h 4.464 v -22.66773 h 4.46266 V 199.96 h 4.464 v -67.65066 h 4.464 v -20.676 h 4.464 v 54.58933 h 4.46267 v 72.21866 h 4.464 v 30.45734 h 4.464 v 7.90733 h 4.464 v 2.69426 h 4.46267 v -1.64013 h 4.464 v 0.87867 h 4.464 v 0.23426 h 4.46399 v 0.3516 h 4.46267 v -0.70306 h 4.464 v 1.58173 h 4.464 v -2.3432 h 4.464 v 1.17187 h 4.46267 v -1.58174 h 4.464 v 2.81134 h 4.464 v -1.5812 h 4.464 v -1.8744 h 4.46266 v 0.176 h 4.464 v -3.69014 h 4.464 v -10.30879 h 4.464 V 244.884 h 4.464 v -38.48173 h 4.46267 v -51.0156 h 4.464 V 95.115995 h 4.464 v -40.23866 h 4.464 V 14.989333 h 4.46267 v 13.12 h 4.464 v 33.913332 h 4.464 v 59.742675 h 4.464 V 178.932 h 4.46266 v 43.05053 h 4.464 v 27.1192 h 4.464 v 18.97707 h 4.464 v 5.27146 h 4.46267 v 4.45147 h 4.464 v 0.76147 h 4.464 v 0.1756 h 4.464 v 0.2932 h 4.46266 v 0.29266 h 4.464 v -1.05413 h 4.464 v 0.58547 l 8.92667,-0.0584 v 0.76146 h 4.464 v 0.2344 h 4.464 v -2.10893 h 4.464 v 1.64013 h 4.46267 v 0.29267 h 4.464 v -1.28853 h 4.464 v -0.81974 h 4.464 v 0.99587 h 4.46266 v 0.76093 l 8.928,-0.0584 v -1.40573 h 4.464 v 1.05427 h 4.46267 v 0.52706 h 4.464 v -0.1756 h 4.464 v -0.70253 l 8.92667,0.0583 v 1.34746 h 4.464 v -2.5188 h 4.464 v 1.11307 h 4.464 v 0.87813 h 4.46266 v -2.28386 h 4.464 v 2.40106 h 4.464 v -0.64426 h 4.464 v -0.76147 h 4.46267 v -0.1756 h 4.464 v 0.81987 h 4.464 v -1.46414 h 4.464 v 2.92864 h 4.46266 v -1.23027 h 4.464 v -0.76146 h 4.464 v -0.17547 h 4.464 v 1.46413 h 4.46267 V 278.446 h 4.464 v -0.64427 h 4.464 v -0.35147 h 4.464 v 1.69894 h 4.46267 v -1.75734 h 4.464 v 13.06147 0"
     inkscape:connector-curvature="0" /><path
     id="path36"
     style="fill:none;stroke:#2ca02c;stroke-width:2;stroke-linecap:butt;stroke-linejoin:miter;stroke-miterlimit:10;stroke-dasharray:none;stroke-opacity:1"
     d="M 94.436217,290.45333 V 278.6632 h 11.871863 v -13.82293 h 23.7452 v -82.24294 h 24.932 v 95.53827 h 26.11867 v 0.28746 h 27.30666 v -12.87439 h 27.30667 V 74.607995 h 29.68 V 222.54027 h 30.868 v 55.87666 h 33.24266 v -0.2204 h 33.24267 v 0.21507 h 43.928 v -0.29054 h 47.48933 v 3.65934"
     inkscape:connector-curvature="0"
     sodipodi:nodetypes="cccccccccccccccccccccccccc" /><path
     id="path38"
     style="fill:#000000;fill-opacity:1;fill-rule:nonzero;stroke:none;stroke-width:0.13333333"
     d="M 77.814877,290.45333 V 295.12"
     inkscape:connector-curvature="0" /><path
     id="path40"
     style="fill:none;stroke:#000000;stroke-width:1.0666666;stroke-linecap:butt;stroke-linejoin:round;stroke-miterlimit:10;stroke-dasharray:none;stroke-opacity:1"
     d="M 77.814877,290.45333 V 295.12"
     inkscape:connector-curvature="0" /><text
     style="font-variant:normal;font-weight:normal;font-size:13.33333302px;font-family:Arial;-inkscape-font-specification:Arial;writing-mode:lr-tb;fill:#000000;fill-opacity:1;fill-rule:nonzero;stroke:none;stroke-width:1.33333325"
     id="text46"
     x="69.335678"
     y="309.91162"><tspan
       x="69.335678 77.818497"
       y="309.91162"
       id="tspan44"
       style="stroke-width:1.33333325">25</tspan></text>
<path
     id="path48"
     style="fill:#000000;fill-opacity:1;fill-rule:nonzero;stroke:none;stroke-width:0.13333333"
     d="M 137.17595,290.45333 V 295.12"
     inkscape:connector-curvature="0" /><path
     id="path50"
     style="fill:none;stroke:#000000;stroke-width:1.0666666;stroke-linecap:butt;stroke-linejoin:round;stroke-miterlimit:10;stroke-dasharray:none;stroke-opacity:1"
     d="M 137.17595,290.45333 V 295.12"
     inkscape:connector-curvature="0" /><text
     style="font-variant:normal;font-weight:normal;font-size:13.33333302px;font-family:Arial;-inkscape-font-specification:Arial;writing-mode:lr-tb;fill:#000000;fill-opacity:1;fill-rule:nonzero;stroke:none;stroke-width:1.33333325"
     id="text56"
     x="128.69727"
     y="309.91162"><tspan
       x="128.69727 137.1806"
       y="309.91162"
       id="tspan54"
       style="stroke-width:1.33333325">50</tspan></text>
<path
     id="path58"
     style="fill:#000000;fill-opacity:1;fill-rule:nonzero;stroke:none;stroke-width:0.13333333"
     d="M 196.53861,290.45333 V 295.12"
     inkscape:connector-curvature="0" /><path
     id="path60"
     style="fill:none;stroke:#000000;stroke-width:1.0666666;stroke-linecap:butt;stroke-linejoin:round;stroke-miterlimit:10;stroke-dasharray:none;stroke-opacity:1"
     d="M 196.53861,290.45333 V 295.12"
     inkscape:connector-curvature="0" /><text
     style="font-variant:normal;font-weight:normal;font-size:13.33333302px;font-family:Arial;-inkscape-font-specification:Arial;writing-mode:lr-tb;fill:#000000;fill-opacity:1;fill-rule:nonzero;stroke:none;stroke-width:1.33333325"
     id="text66"
     x="188.05859"
     y="309.91162"><tspan
       x="188.05859 196.54141"
       y="309.91162"
       id="tspan64"
       style="stroke-width:1.33333325">75</tspan></text>
<path
     id="path68"
     style="fill:#000000;fill-opacity:1;fill-rule:nonzero;stroke:none;stroke-width:0.13333333"
     d="M 255.89995,290.45333 V 295.12"
     inkscape:connector-curvature="0" /><path
     id="path70"
     style="fill:none;stroke:#000000;stroke-width:1.0666666;stroke-linecap:butt;stroke-linejoin:round;stroke-miterlimit:10;stroke-dasharray:none;stroke-opacity:1"
     d="M 255.89995,290.45333 V 295.12"
     inkscape:connector-curvature="0" /><text
     style="font-variant:normal;font-weight:normal;font-size:13.33333302px;font-family:Arial;-inkscape-font-specification:Arial;writing-mode:lr-tb;fill:#000000;fill-opacity:1;fill-rule:nonzero;stroke:none;stroke-width:1.33333325"
     id="text76"
     x="243.18126"
     y="309.91162"><tspan
       x="243.18126 251.6646 260.1474"
       y="309.91162"
       id="tspan74"
       style="stroke-width:1.33333325">100</tspan></text>
<path
     id="path78"
     style="fill:#000000;fill-opacity:1;fill-rule:nonzero;stroke:none;stroke-width:0.13333333"
     d="M 315.26128,290.45333 V 295.12"
     inkscape:connector-curvature="0" /><path
     id="path80"
     style="fill:none;stroke:#000000;stroke-width:1.0666666;stroke-linecap:butt;stroke-linejoin:round;stroke-miterlimit:10;stroke-dasharray:none;stroke-opacity:1"
     d="M 315.26128,290.45333 V 295.12"
     inkscape:connector-curvature="0" /><text
     style="font-variant:normal;font-weight:normal;font-size:13.33333302px;font-family:Arial;-inkscape-font-specification:Arial;writing-mode:lr-tb;fill:#000000;fill-opacity:1;fill-rule:nonzero;stroke:none;stroke-width:1.33333325"
     id="text86"
     x="302.5426"
     y="309.91162"><tspan
       x="302.5426 311.02542 319.50873"
       y="309.91162"
       id="tspan84"
       style="stroke-width:1.33333325">125</tspan></text>
<path
     id="path88"
     style="fill:#000000;fill-opacity:1;fill-rule:nonzero;stroke:none;stroke-width:0.13333333"
     d="M 374.62261,290.45333 V 295.12"
     inkscape:connector-curvature="0" /><path
     id="path90"
     style="fill:none;stroke:#000000;stroke-width:1.0666666;stroke-linecap:butt;stroke-linejoin:round;stroke-miterlimit:10;stroke-dasharray:none;stroke-opacity:1"
     d="M 374.62261,290.45333 V 295.12"
     inkscape:connector-curvature="0" /><text
     style="font-variant:normal;font-weight:normal;font-size:13.33333302px;font-family:Arial;-inkscape-font-specification:Arial;writing-mode:lr-tb;fill:#000000;fill-opacity:1;fill-rule:nonzero;stroke:none;stroke-width:1.33333325"
     id="text96"
     x="361.90393"
     y="309.91162"><tspan
       x="361.90393 370.38727 378.87006"
       y="309.91162"
       id="tspan94"
       style="stroke-width:1.33333325">150</tspan></text>
<path
     id="path98"
     style="fill:#000000;fill-opacity:1;fill-rule:nonzero;stroke:none;stroke-width:0.13333333"
     d="M 433.98528,290.45333 V 295.12"
     inkscape:connector-curvature="0" /><path
     id="path100"
     style="fill:none;stroke:#000000;stroke-width:1.0666666;stroke-linecap:butt;stroke-linejoin:round;stroke-miterlimit:10;stroke-dasharray:none;stroke-opacity:1"
     d="M 433.98528,290.45333 V 295.12"
     inkscape:connector-curvature="0" /><text
     style="font-variant:normal;font-weight:normal;font-size:13.33333302px;font-family:Arial;-inkscape-font-specification:Arial;writing-mode:lr-tb;fill:#000000;fill-opacity:1;fill-rule:nonzero;stroke:none;stroke-width:1.33333325"
     id="text106"
     x="421.2666"
     y="309.91162"><tspan
       x="421.2666 429.74942 438.23273"
       y="309.91162"
       id="tspan104"
       style="stroke-width:1.33333325">175</tspan></text>
<path
     id="path108"
     style="fill:#000000;fill-opacity:1;fill-rule:nonzero;stroke:none;stroke-width:0.13333333"
     d="M 493.34661,290.45333 V 295.12"
     inkscape:connector-curvature="0" /><path
     id="path110"
     style="fill:none;stroke:#000000;stroke-width:1.0666666;stroke-linecap:butt;stroke-linejoin:round;stroke-miterlimit:10;stroke-dasharray:none;stroke-opacity:1"
     d="M 493.34661,290.45333 V 295.12"
     inkscape:connector-curvature="0" /><text
     style="font-variant:normal;font-weight:normal;font-size:13.33333302px;font-family:Arial;-inkscape-font-specification:Arial;writing-mode:lr-tb;fill:#000000;fill-opacity:1;fill-rule:nonzero;stroke:none;stroke-width:1.33333325"
     id="text118"
     x="480.62793"
     y="309.91162"><tspan
       x="480.62793 489.11124 497.59409"
       y="309.91162"
       id="tspan114"
       style="stroke-width:1.33333325">200</tspan><tspan
       x="226.82394 235.24843 243.69893 251.90205 257.38382 265.84738 273.73801 277.97653 283.1781 290.89948 299.1026 308.22397"
       y="328.14081"
       id="tspan116"
       style="stroke-width:1.33333325">Energy (keV)</tspan></text>
<path
     id="path120"
     style="fill:#000000;fill-opacity:1;fill-rule:nonzero;stroke:none;stroke-width:0.13333333"
     d="M 46.946615,290.45333 H 42.279949"
     inkscape:connector-curvature="0" /><path
     id="path122"
     style="fill:none;stroke:#000000;stroke-width:1.0666666;stroke-linecap:butt;stroke-linejoin:round;stroke-miterlimit:10;stroke-dasharray:none;stroke-opacity:1"
     d="M 46.946615,290.45333 H 42.279949"
     inkscape:connector-curvature="0" /><text
     style="font-variant:normal;font-weight:normal;font-size:13.33333302px;font-family:Arial;-inkscape-font-specification:Arial;writing-mode:lr-tb;fill:#000000;fill-opacity:1;fill-rule:nonzero;stroke:none;stroke-width:1.33333325"
     id="text128"
     x="-0.55338538"
     y="295.51587"><tspan
       x="-0.55338538 7.9299464 12.167972 20.651302 29.134117"
       y="295.51587"
       id="tspan126"
       style="stroke-width:1.33333325">0.000</tspan></text>
<path
     id="path130"
     style="fill:#000000;fill-opacity:1;fill-rule:nonzero;stroke:none;stroke-width:0.13333333"
     d="M 46.946615,257.42107 H 42.279949"
     inkscape:connector-curvature="0" /><path
     id="path132"
     style="fill:none;stroke:#000000;stroke-width:1.0666666;stroke-linecap:butt;stroke-linejoin:round;stroke-miterlimit:10;stroke-dasharray:none;stroke-opacity:1"
     d="M 46.946615,257.42107 H 42.279949"
     inkscape:connector-curvature="0" /><text
     style="font-variant:normal;font-weight:normal;font-size:13.33333302px;font-family:Arial;-inkscape-font-specification:Arial;writing-mode:lr-tb;fill:#000000;fill-opacity:1;fill-rule:nonzero;stroke:none;stroke-width:1.33333325"
     id="text138"
     x="-0.55338538"
     y="262.48361"><tspan
       x="-0.55338538 7.9299464 12.167972 20.651302 29.134117"
       y="262.48361"
       id="tspan136"
       style="stroke-width:1.33333325">0.005</tspan></text>
<path
     id="path140"
     style="fill:#000000;fill-opacity:1;fill-rule:nonzero;stroke:none;stroke-width:0.13333333"
     d="M 46.946615,224.38933 H 42.279949"
     inkscape:connector-curvature="0" /><path
     id="path142"
     style="fill:none;stroke:#000000;stroke-width:1.0666666;stroke-linecap:butt;stroke-linejoin:round;stroke-miterlimit:10;stroke-dasharray:none;stroke-opacity:1"
     d="M 46.946615,224.38933 H 42.279949"
     inkscape:connector-curvature="0" /><text
     style="font-variant:normal;font-weight:normal;font-size:13.33333302px;font-family:Arial;-inkscape-font-specification:Arial;writing-mode:lr-tb;fill:#000000;fill-opacity:1;fill-rule:nonzero;stroke:none;stroke-width:1.33333325"
     id="text148"
     x="-0.55338538"
     y="229.45119"><tspan
       x="-0.55338538 7.9299464 12.167972 20.651302 29.134117"
       y="229.45119"
       id="tspan146"
       style="stroke-width:1.33333325">0.010</tspan></text>
<path
     id="path150"
     style="fill:#000000;fill-opacity:1;fill-rule:nonzero;stroke:none;stroke-width:0.13333333"
     d="M 46.946615,191.35733 H 42.279949"
     inkscape:connector-curvature="0" /><path
     id="path152"
     style="fill:none;stroke:#000000;stroke-width:1.0666666;stroke-linecap:butt;stroke-linejoin:round;stroke-miterlimit:10;stroke-dasharray:none;stroke-opacity:1"
     d="M 46.946615,191.35733 H 42.279949"
     inkscape:connector-curvature="0" /><text
     style="font-variant:normal;font-weight:normal;font-size:13.33333302px;font-family:Arial;-inkscape-font-specification:Arial;writing-mode:lr-tb;fill:#000000;fill-opacity:1;fill-rule:nonzero;stroke:none;stroke-width:1.33333325"
     id="text158"
     x="-0.55338538"
     y="196.42"><tspan
       x="-0.55338538 7.9299464 12.167972 20.651302 29.134117"
       y="196.42"
       id="tspan156"
       style="stroke-width:1.33333325">0.015</tspan></text>
<path
     id="path160"
     style="fill:#000000;fill-opacity:1;fill-rule:nonzero;stroke:none;stroke-width:0.13333333"
     d="M 46.946615,158.32533 H 42.279949"
     inkscape:connector-curvature="0" /><path
     id="path162"
     style="fill:none;stroke:#000000;stroke-width:1.0666666;stroke-linecap:butt;stroke-linejoin:round;stroke-miterlimit:10;stroke-dasharray:none;stroke-opacity:1"
     d="M 46.946615,158.32533 H 42.279949"
     inkscape:connector-curvature="0" /><text
     style="font-variant:normal;font-weight:normal;font-size:13.33333302px;font-family:Arial;-inkscape-font-specification:Arial;writing-mode:lr-tb;fill:#000000;fill-opacity:1;fill-rule:nonzero;stroke:none;stroke-width:1.33333325"
     id="text168"
     x="-0.55338538"
     y="163.38666"><tspan
       x="-0.55338538 7.9299464 12.167972 20.651302 29.134117"
       y="163.38666"
       id="tspan166"
       style="stroke-width:1.33333325">0.020</tspan></text>
<path
     id="path170"
     style="fill:#000000;fill-opacity:1;fill-rule:nonzero;stroke:none;stroke-width:0.13333333"
     d="M 46.946615,125.292 H 42.279949"
     inkscape:connector-curvature="0" /><path
     id="path172"
     style="fill:none;stroke:#000000;stroke-width:1.0666666;stroke-linecap:butt;stroke-linejoin:round;stroke-miterlimit:10;stroke-dasharray:none;stroke-opacity:1"
     d="M 46.946615,125.292 H 42.279949"
     inkscape:connector-curvature="0" /><text
     style="font-variant:normal;font-weight:normal;font-size:13.33333302px;font-family:Arial;-inkscape-font-specification:Arial;writing-mode:lr-tb;fill:#000000;fill-opacity:1;fill-rule:nonzero;stroke:none;stroke-width:1.33333325"
     id="text178"
     x="-0.55338538"
     y="130.35466"><tspan
       x="-0.55338538 7.9299464 12.167972 20.651302 29.134117"
       y="130.35466"
       id="tspan176"
       style="stroke-width:1.33333325">0.025</tspan></text>
<path
     id="path180"
     style="fill:#000000;fill-opacity:1;fill-rule:nonzero;stroke:none;stroke-width:0.13333333"
     d="M 46.946615,92.259995 H 42.279949"
     inkscape:connector-curvature="0" /><path
     id="path182"
     style="fill:none;stroke:#000000;stroke-width:1.0666666;stroke-linecap:butt;stroke-linejoin:round;stroke-miterlimit:10;stroke-dasharray:none;stroke-opacity:1"
     d="M 46.946615,92.259995 H 42.279949"
     inkscape:connector-curvature="0" /><text
     style="font-variant:normal;font-weight:normal;font-size:13.33333302px;font-family:Arial;-inkscape-font-specification:Arial;writing-mode:lr-tb;fill:#000000;fill-opacity:1;fill-rule:nonzero;stroke:none;stroke-width:1.33333325"
     id="text188"
     x="-0.55338538"
     y="97.322662"><tspan
       x="-0.55338538 7.9299464 12.167972 20.651302 29.134117"
       y="97.322662"
       id="tspan186"
       style="stroke-width:1.33333325">0.030</tspan></text>
<path
     id="path190"
     style="fill:#000000;fill-opacity:1;fill-rule:nonzero;stroke:none;stroke-width:0.13333333"
     d="M 46.946615,59.227995 H 42.279949"
     inkscape:connector-curvature="0" /><path
     id="path192"
     style="fill:none;stroke:#000000;stroke-width:1.0666666;stroke-linecap:butt;stroke-linejoin:round;stroke-miterlimit:10;stroke-dasharray:none;stroke-opacity:1"
     d="M 46.946615,59.227995 H 42.279949"
     inkscape:connector-curvature="0" /><text
     style="font-variant:normal;font-weight:normal;font-size:13.33333302px;font-family:Arial;-inkscape-font-specification:Arial;writing-mode:lr-tb;fill:#000000;fill-opacity:1;fill-rule:nonzero;stroke:none;stroke-width:1.33333325"
     id="text198"
     x="-0.55338538"
     y="64.290665"><tspan
       x="-0.55338538 7.9299464 12.167972 20.651302 29.134117"
       y="64.290665"
       id="tspan196"
       style="stroke-width:1.33333325">0.035</tspan></text>
<path
     id="path200"
     style="fill:#000000;fill-opacity:1;fill-rule:nonzero;stroke:none;stroke-width:0.13333333"
     d="M 46.946615,26.195999 H 42.279949"
     inkscape:connector-curvature="0" /><path
     id="path202"
     style="fill:none;stroke:#000000;stroke-width:1.0666666;stroke-linecap:butt;stroke-linejoin:round;stroke-miterlimit:10;stroke-dasharray:none;stroke-opacity:1"
     d="M 46.946615,26.195999 H 42.279949"
     inkscape:connector-curvature="0" /><text
     style="font-variant:normal;font-weight:normal;font-size:13.33333302px;font-family:Arial;-inkscape-font-specification:Arial;writing-mode:lr-tb;fill:#000000;fill-opacity:1;fill-rule:nonzero;stroke:none;stroke-width:1.33333325"
     id="text208"
     x="-0.55338538"
     y="31.258669"><tspan
       x="-0.55338538 7.9299464 12.167972 20.651302 29.134117"
       y="31.258669"
       id="tspan206"
       style="stroke-width:1.33333325">0.040</tspan></text>
<path
     id="path210"
     style="fill:none;stroke:#000000;stroke-width:1.0666666;stroke-linecap:square;stroke-linejoin:miter;stroke-miterlimit:10;stroke-dasharray:none;stroke-opacity:1"
     d="M 46.946615,290.45333 V 0.5333333"
     inkscape:connector-curvature="0" /><path
     id="path212"
     style="fill:none;stroke:#000000;stroke-width:1.0666666;stroke-linecap:square;stroke-linejoin:miter;stroke-miterlimit:10;stroke-dasharray:none;stroke-opacity:1"
     d="M 493.34661,290.45333 V 0.5333333"
     inkscape:connector-curvature="0" /><path
     id="path214"
     style="fill:none;stroke:#000000;stroke-width:1.0666666;stroke-linecap:square;stroke-linejoin:miter;stroke-miterlimit:10;stroke-dasharray:none;stroke-opacity:1"
     d="M 46.946615,290.45333 H 493.34661"
     inkscape:connector-curvature="0" /><path
     id="path216"
     style="fill:none;stroke:#000000;stroke-width:1.0666666;stroke-linecap:square;stroke-linejoin:miter;stroke-miterlimit:10;stroke-dasharray:none;stroke-opacity:1"
     d="M 46.946615,0.5333333 H 493.34661"
     inkscape:connector-curvature="0" /></svg>