<?xml version="1.0" encoding="UTF-8" standalone="no"?>
<svg
   xmlns:dc="http://purl.org/dc/elements/1.1/"
   xmlns:cc="http://creativecommons.org/ns#"
   xmlns:rdf="http://www.w3.org/1999/02/22-rdf-syntax-ns#"
   xmlns:svg="http://www.w3.org/2000/svg"
   xmlns="http://www.w3.org/2000/svg"
   viewBox="0 0 480 480"
   height="480"
   width="480"
   xml:space="preserve"
   id="svg2"
   version="1.1"><metadata
     id="metadata8"><rdf:RDF><cc:Work
         rdf:about=""><dc:format>image/svg+xml</dc:format><dc:type
           rdf:resource="http://purl.org/dc/dcmitype/StillImage" /></cc:Work></rdf:RDF></metadata><defs
     id="defs6"><clipPath
       id="clipPath88"
       clipPathUnits="userSpaceOnUse"><path
         id="path86"
         d="M -1016,-351 H 1660 V 1068 H -1016 Z" /></clipPath><clipPath
       id="clipPath98"
       clipPathUnits="userSpaceOnUse"><path
         id="path96"
         d="M 54.308,139.87532 H 345.39835 V 333.12 H 54.308 Z" /></clipPath><clipPath
       id="clipPath110"
       clipPathUnits="userSpaceOnUse"><path
         id="path108"
         d="m -3.5,-3.5 h 7 v 7 h -7 z" /></clipPath><clipPath
       id="clipPath122"
       clipPathUnits="userSpaceOnUse"><path
         id="path120"
         d="m -3.5,-3.5 h 7 v 7 h -7 z" /></clipPath><clipPath
       id="clipPath134"
       clipPathUnits="userSpaceOnUse"><path
         id="path132"
         d="m -3.5,-3.5 h 7 v 7 h -7 z" /></clipPath><clipPath
       id="clipPath146"
       clipPathUnits="userSpaceOnUse"><path
         id="path144"
         d="m -3.5,-3.5 h 7 v 7 h -7 z" /></clipPath><clipPath
       id="clipPath158"
       clipPathUnits="userSpaceOnUse"><path
         id="path156"
         d="m -3.5,-3.5 h 7 v 7 h -7 z" /></clipPath><clipPath
       id="clipPath168"
       clipPathUnits="userSpaceOnUse"><path
         id="path166"
         d="M 54.308,139.87532 H 345.39835 V 333.12 H 54.308 Z" /></clipPath><clipPath
       id="clipPath180"
       clipPathUnits="userSpaceOnUse"><path
         id="path178"
         d="m -3.5,-3.5 h 7 v 7 h -7 z" /></clipPath><clipPath
       id="clipPath192"
       clipPathUnits="userSpaceOnUse"><path
         id="path190"
         d="m -3.5,-3.5 h 7 v 7 h -7 z" /></clipPath><clipPath
       id="clipPath204"
       clipPathUnits="userSpaceOnUse"><path
         id="path202"
         d="m -3.5,-3.5 h 7 v 7 h -7 z" /></clipPath><clipPath
       id="clipPath216"
       clipPathUnits="userSpaceOnUse"><path
         id="path214"
         d="m -3.5,-3.5 h 7 v 7 h -7 z" /></clipPath><clipPath
       id="clipPath228"
       clipPathUnits="userSpaceOnUse"><path
         id="path226"
         d="m -3.5,-3.5 h 7 v 7 h -7 z" /></clipPath><clipPath
       id="clipPath344"
       clipPathUnits="userSpaceOnUse"><path
         id="path342"
         d="M -1016,-351 H 1660 V 1068 H -1016 Z" /></clipPath><clipPath
       id="clipPath356"
       clipPathUnits="userSpaceOnUse"><path
         id="path354"
         d="M -1021,-463 H 1794 V 1233 H -1021 Z" /></clipPath><clipPath
       id="clipPath368"
       clipPathUnits="userSpaceOnUse"><path
         id="path366"
         d="M -1016,-351 H 1660 V 1068 H -1016 Z" /></clipPath><clipPath
       id="clipPath380"
       clipPathUnits="userSpaceOnUse"><path
         id="path378"
         d="M -1016,-351 H 1660 V 1068 H -1016 Z" /></clipPath><clipPath
       id="clipPath390"
       clipPathUnits="userSpaceOnUse"><path
         id="path388"
         d="m 54.308,43.688 h 291.09035 v 64.41489 H 54.308 Z" /></clipPath><clipPath
       id="clipPath402"
       clipPathUnits="userSpaceOnUse"><path
         id="path400"
         d="m -3.5,-3.5 h 7 v 7 h -7 z" /></clipPath><clipPath
       id="clipPath414"
       clipPathUnits="userSpaceOnUse"><path
         id="path412"
         d="m -3.5,-3.5 h 7 v 7 h -7 z" /></clipPath><clipPath
       id="clipPath426"
       clipPathUnits="userSpaceOnUse"><path
         id="path424"
         d="m -3.5,-3.5 h 7 v 7 h -7 z" /></clipPath><clipPath
       id="clipPath438"
       clipPathUnits="userSpaceOnUse"><path
         id="path436"
         d="m -3.5,-3.5 h 7 v 7 h -7 z" /></clipPath><clipPath
       id="clipPath450"
       clipPathUnits="userSpaceOnUse"><path
         id="path448"
         d="m -3.5,-3.5 h 7 v 7 h -7 z" /></clipPath><clipPath
       id="clipPath460"
       clipPathUnits="userSpaceOnUse"><path
         id="path458"
         d="m 54.308,43.688 h 291.09035 v 64.41489 H 54.308 Z" /></clipPath></defs><g
     transform="matrix(1.3333333,0,0,-1.3333333,0,480)"
     id="g10"><path
       id="path12"
       style="fill:#ffffff;fill-opacity:1;fill-rule:nonzero;stroke:none"
       d="M 0,0 H 360 V 360 H 0 Z" /><path
       id="path14"
       style="fill:#ffffff;fill-opacity:1;fill-rule:nonzero;stroke:none"
       d="M 54.308,139.87532 H 345.39835 V 333.12 H 54.308 Z" /><path
       id="path16"
       style="fill:#000000;fill-opacity:1;fill-rule:nonzero;stroke:#000000;stroke-width:0.80000001;stroke-linecap:butt;stroke-linejoin:round;stroke-miterlimit:10;stroke-dasharray:none;stroke-opacity:1"
       d="m 80.8651,139.87532 v -3.5" /><path
       id="path18"
       style="fill:#000000;fill-opacity:1;fill-rule:nonzero;stroke:#000000;stroke-width:0.80000001;stroke-linecap:butt;stroke-linejoin:round;stroke-miterlimit:10;stroke-dasharray:none;stroke-opacity:1"
       d="m 117.81369,139.87532 v -3.5" /><path
       id="path20"
       style="fill:#000000;fill-opacity:1;fill-rule:nonzero;stroke:#000000;stroke-width:0.80000001;stroke-linecap:butt;stroke-linejoin:round;stroke-miterlimit:10;stroke-dasharray:none;stroke-opacity:1"
       d="m 154.76228,139.87532 v -3.5" /><path
       id="path22"
       style="fill:#000000;fill-opacity:1;fill-rule:nonzero;stroke:#000000;stroke-width:0.80000001;stroke-linecap:butt;stroke-linejoin:round;stroke-miterlimit:10;stroke-dasharray:none;stroke-opacity:1"
       d="m 191.71087,139.87532 v -3.5" /><path
       id="path24"
       style="fill:#000000;fill-opacity:1;fill-rule:nonzero;stroke:#000000;stroke-width:0.80000001;stroke-linecap:butt;stroke-linejoin:round;stroke-miterlimit:10;stroke-dasharray:none;stroke-opacity:1"
       d="m 228.65946,139.87532 v -3.5" /><path
       id="path26"
       style="fill:#000000;fill-opacity:1;fill-rule:nonzero;stroke:#000000;stroke-width:0.80000001;stroke-linecap:butt;stroke-linejoin:round;stroke-miterlimit:10;stroke-dasharray:none;stroke-opacity:1"
       d="m 265.60805,139.87532 v -3.5" /><path
       id="path28"
       style="fill:#000000;fill-opacity:1;fill-rule:nonzero;stroke:#000000;stroke-width:0.80000001;stroke-linecap:butt;stroke-linejoin:round;stroke-miterlimit:10;stroke-dasharray:none;stroke-opacity:1"
       d="m 302.55664,139.87532 v -3.5" /><path
       id="path30"
       style="fill:#000000;fill-opacity:1;fill-rule:nonzero;stroke:#000000;stroke-width:0.80000001;stroke-linecap:butt;stroke-linejoin:round;stroke-miterlimit:10;stroke-dasharray:none;stroke-opacity:1"
       d="m 339.50523,139.87532 v -3.5" /><path
       id="path32"
       style="fill:#000000;fill-opacity:1;fill-rule:nonzero;stroke:#000000;stroke-width:0.80000001;stroke-linecap:butt;stroke-linejoin:round;stroke-miterlimit:10;stroke-dasharray:none;stroke-opacity:1"
       d="m 54.308,163.38022 h -3.5" /><text
       id="text36"
       style="font-variant:normal;font-weight:normal;font-size:10px;font-family:'DejaVu Sans';-inkscape-font-specification:DejaVuSans;writing-mode:lr-tb;fill:#000000;fill-opacity:1;fill-rule:nonzero;stroke:none"
       transform="matrix(1,0,0,-1,25.042375,159.58335)"><tspan
         id="tspan34"
         y="0"
         x="0 6.3600001 9.54 15.9">0.40</tspan></text>
<path
       id="path38"
       style="fill:#000000;fill-opacity:1;fill-rule:nonzero;stroke:#000000;stroke-width:0.80000001;stroke-linecap:butt;stroke-linejoin:round;stroke-miterlimit:10;stroke-dasharray:none;stroke-opacity:1"
       d="m 54.308,188.94252 h -3.5" /><text
       id="text42"
       style="font-variant:normal;font-weight:normal;font-size:10px;font-family:'DejaVu Sans';-inkscape-font-specification:DejaVuSans;writing-mode:lr-tb;fill:#000000;fill-opacity:1;fill-rule:nonzero;stroke:none"
       transform="matrix(1,0,0,-1,25.042375,185.14564)"><tspan
         id="tspan40"
         y="0"
         x="0 6.3600001 9.54 15.9">0.45</tspan></text>
<path
       id="path44"
       style="fill:#000000;fill-opacity:1;fill-rule:nonzero;stroke:#000000;stroke-width:0.80000001;stroke-linecap:butt;stroke-linejoin:round;stroke-miterlimit:10;stroke-dasharray:none;stroke-opacity:1"
       d="m 54.308,214.50481 h -3.5" /><text
       id="text48"
       style="font-variant:normal;font-weight:normal;font-size:10px;font-family:'DejaVu Sans';-inkscape-font-specification:DejaVuSans;writing-mode:lr-tb;fill:#000000;fill-opacity:1;fill-rule:nonzero;stroke:none"
       transform="matrix(1,0,0,-1,25.042375,210.70793)"><tspan
         id="tspan46"
         y="0"
         x="0 6.3600001 9.54 15.9">0.50</tspan></text>
<path
       id="path50"
       style="fill:#000000;fill-opacity:1;fill-rule:nonzero;stroke:#000000;stroke-width:0.80000001;stroke-linecap:butt;stroke-linejoin:round;stroke-miterlimit:10;stroke-dasharray:none;stroke-opacity:1"
       d="m 54.308,240.0671 h -3.5" /><text
       id="text54"
       style="font-variant:normal;font-weight:normal;font-size:10px;font-family:'DejaVu Sans';-inkscape-font-specification:DejaVuSans;writing-mode:lr-tb;fill:#000000;fill-opacity:1;fill-rule:nonzero;stroke:none"
       transform="matrix(1,0,0,-1,25.042375,236.27023)"><tspan
         id="tspan52"
         y="0"
         x="0 6.3600001 9.54 15.9">0.55</tspan></text>
<path
       id="path56"
       style="fill:#000000;fill-opacity:1;fill-rule:nonzero;stroke:#000000;stroke-width:0.80000001;stroke-linecap:butt;stroke-linejoin:round;stroke-miterlimit:10;stroke-dasharray:none;stroke-opacity:1"
       d="m 54.308,265.6294 h -3.5" /><text
       id="text60"
       style="font-variant:normal;font-weight:normal;font-size:10px;font-family:'DejaVu Sans';-inkscape-font-specification:DejaVuSans;writing-mode:lr-tb;fill:#000000;fill-opacity:1;fill-rule:nonzero;stroke:none"
       transform="matrix(1,0,0,-1,25.042375,261.83252)"><tspan
         id="tspan58"
         y="0"
         x="0 6.3600001 9.54 15.9">0.60</tspan></text>
<path
       id="path62"
       style="fill:#000000;fill-opacity:1;fill-rule:nonzero;stroke:#000000;stroke-width:0.80000001;stroke-linecap:butt;stroke-linejoin:round;stroke-miterlimit:10;stroke-dasharray:none;stroke-opacity:1"
       d="m 54.308,291.19169 h -3.5" /><text
       id="text66"
       style="font-variant:normal;font-weight:normal;font-size:10px;font-family:'DejaVu Sans';-inkscape-font-specification:DejaVuSans;writing-mode:lr-tb;fill:#000000;fill-opacity:1;fill-rule:nonzero;stroke:none"
       transform="matrix(1,0,0,-1,25.042375,287.39482)"><tspan
         id="tspan64"
         y="0"
         x="0 6.3600001 9.54 15.9">0.65</tspan></text>
<path
       id="path68"
       style="fill:#000000;fill-opacity:1;fill-rule:nonzero;stroke:#000000;stroke-width:0.80000001;stroke-linecap:butt;stroke-linejoin:round;stroke-miterlimit:10;stroke-dasharray:none;stroke-opacity:1"
       d="m 54.308,316.75399 h -3.5" /><text
       id="text72"
       style="font-variant:normal;font-weight:normal;font-size:10px;font-family:'DejaVu Sans';-inkscape-font-specification:DejaVuSans;writing-mode:lr-tb;fill:#000000;fill-opacity:1;fill-rule:nonzero;stroke:none"
       transform="matrix(1,0,0,-1,25.042375,312.95711)"><tspan
         id="tspan70"
         y="0"
         x="0 6.3600001 9.54 15.9">0.70</tspan></text>
<g
       transform="rotate(90,-103.7667,122.73095)"
       id="g74"><text
         id="text78"
         style="font-variant:normal;font-weight:normal;font-size:7px;font-family:'DejaVu Sans';-inkscape-font-specification:DejaVuSans;writing-mode:lr-tb;fill:#000000;fill-opacity:1;fill-rule:nonzero;stroke:none"
         transform="matrix(1,0,0,-1,6.3378906,-1.109375)"><tspan
           id="tspan76"
           y="0"
           x="0 4.2758789 8.5585938">ToT</tspan></text>
<g
         transform="matrix(0.01,0,0,0.01,0,0.53125)"
         id="g80"><g
           id="g82"><g
             clip-path="url(#clipPath88)"
             id="g84"><path
               id="path90"
               style="fill:#000000;fill-opacity:1;fill-rule:nonzero;stroke:none"
               d="m 347,476 c -50,0 -92,-18 -125,-54 -36,-38 -59,-87 -71,-149 -13,-66 -9,-117 12,-155 20,-38 55,-56 104,-56 47,0 88,19 124,57 35,37 59,88 72,154 11,59 7,109 -13,149 -19,36 -53,54 -103,54 m 14,71 H 659 L 642,457 H 541 C 566,406 572,345 559,273 541,183 505,113 451,63 396,12 329,-13 251,-13 173,-13 116,12 82,63 47,113 39,183 57,273 c 17,90 53,160 107,211 45,42 111,63 197,63" /></g></g></g></g><g
       id="g92"><g
         clip-path="url(#clipPath98)"
         id="g94"><path
           id="path100"
           style="fill:none;stroke:#1f77b4;stroke-width:1.5;stroke-linecap:square;stroke-linejoin:round;stroke-miterlimit:10;stroke-dasharray:none;stroke-opacity:1"
           d="m 67.539379,162.03409 64.323161,56.73135 67.46602,8.258 66.20036,33.28755 66.63805,-65.66018" /><g
           transform="translate(67.539379,162.03409)"
           id="g102"><g
             id="g104"><g
               clip-path="url(#clipPath110)"
               id="g106"><path
                 id="path112"
                 style="fill:#1f77b4;fill-opacity:1;fill-rule:nonzero;stroke:#1f77b4;stroke-width:1;stroke-linecap:butt;stroke-linejoin:round;stroke-miterlimit:10;stroke-dasharray:none;stroke-opacity:1"
                 d="M -3,-3 3,3 M -3,3 3,-3" /></g></g><g
             transform="translate(64.323158,56.731344)"
             id="g114"><g
               id="g116"><g
                 clip-path="url(#clipPath122)"
                 id="g118"><path
                   id="path124"
                   style="fill:#1f77b4;fill-opacity:1;fill-rule:nonzero;stroke:#1f77b4;stroke-width:1;stroke-linecap:butt;stroke-linejoin:round;stroke-miterlimit:10;stroke-dasharray:none;stroke-opacity:1"
                   d="M -3,-3 3,3 M -3,3 3,-3" /></g></g><g
               transform="translate(67.466021,8.2580068)"
               id="g126"><g
                 id="g128"><g
                   clip-path="url(#clipPath134)"
                   id="g130"><path
                     id="path136"
                     style="fill:#1f77b4;fill-opacity:1;fill-rule:nonzero;stroke:#1f77b4;stroke-width:1;stroke-linecap:butt;stroke-linejoin:round;stroke-miterlimit:10;stroke-dasharray:none;stroke-opacity:1"
                     d="M -3,-3 3,3 M -3,3 3,-3" /></g></g><g
                 transform="translate(66.20036,33.287542)"
                 id="g138"><g
                   id="g140"><g
                     clip-path="url(#clipPath146)"
                     id="g142"><path
                       id="path148"
                       style="fill:#1f77b4;fill-opacity:1;fill-rule:nonzero;stroke:#1f77b4;stroke-width:1;stroke-linecap:butt;stroke-linejoin:round;stroke-miterlimit:10;stroke-dasharray:none;stroke-opacity:1"
                       d="M -3,-3 3,3 M -3,3 3,-3" /></g></g><g
                   transform="translate(66.638049,-65.660176)"
                   id="g150"><g
                     id="g152"><g
                       clip-path="url(#clipPath158)"
                       id="g154"><path
                         id="path160"
                         style="fill:#1f77b4;fill-opacity:1;fill-rule:nonzero;stroke:#1f77b4;stroke-width:1;stroke-linecap:butt;stroke-linejoin:round;stroke-miterlimit:10;stroke-dasharray:none;stroke-opacity:1"
                         d="M -3,-3 3,3 M -3,3 3,-3" /></g></g></g></g></g></g></g></g></g><g
       id="g162"><g
         clip-path="url(#clipPath168)"
         id="g164"><path
           id="path170"
           style="fill:none;stroke:#ff7f0e;stroke-width:1.5;stroke-linecap:square;stroke-linejoin:round;stroke-miterlimit:10;stroke-dasharray:none;stroke-opacity:1"
           d="m 67.539379,148.65916 64.323161,79.77949 67.46602,85.57145 66.20036,10.32605 66.63805,-157.63189" /><g
           transform="translate(67.539379,148.65917)"
           id="g172"><g
             id="g174"><g
               clip-path="url(#clipPath180)"
               id="g176"><path
                 id="path182"
                 style="fill:#ff7f0e;fill-opacity:1;fill-rule:nonzero;stroke:#ff7f0e;stroke-width:1;stroke-linecap:butt;stroke-linejoin:round;stroke-miterlimit:10;stroke-dasharray:none;stroke-opacity:1"
                 d="M -3,-3 3,3 M -3,3 3,-3" /></g></g><g
             transform="translate(64.323158,79.779489)"
             id="g184"><g
               id="g186"><g
                 clip-path="url(#clipPath192)"
                 id="g188"><path
                   id="path194"
                   style="fill:#ff7f0e;fill-opacity:1;fill-rule:nonzero;stroke:#ff7f0e;stroke-width:1;stroke-linecap:butt;stroke-linejoin:round;stroke-miterlimit:10;stroke-dasharray:none;stroke-opacity:1"
                   d="M -3,-3 3,3 M -3,3 3,-3" /></g></g><g
               transform="translate(67.466021,85.571441)"
               id="g196"><g
                 id="g198"><g
                   clip-path="url(#clipPath204)"
                   id="g200"><path
                     id="path206"
                     style="fill:#ff7f0e;fill-opacity:1;fill-rule:nonzero;stroke:#ff7f0e;stroke-width:1;stroke-linecap:butt;stroke-linejoin:round;stroke-miterlimit:10;stroke-dasharray:none;stroke-opacity:1"
                     d="M -3,-3 3,3 M -3,3 3,-3" /></g></g><g
                 transform="translate(66.20036,10.326055)"
                 id="g208"><g
                   id="g210"><g
                     clip-path="url(#clipPath216)"
                     id="g212"><path
                       id="path218"
                       style="fill:#ff7f0e;fill-opacity:1;fill-rule:nonzero;stroke:#ff7f0e;stroke-width:1;stroke-linecap:butt;stroke-linejoin:round;stroke-miterlimit:10;stroke-dasharray:none;stroke-opacity:1"
                       d="M -3,-3 3,3 M -3,3 3,-3" /></g></g><g
                   transform="translate(66.638049,-157.63189)"
                   id="g220"><g
                     id="g222"><g
                       clip-path="url(#clipPath228)"
                       id="g224"><path
                         id="path230"
                         style="fill:#ff7f0e;fill-opacity:1;fill-rule:nonzero;stroke:#ff7f0e;stroke-width:1;stroke-linecap:butt;stroke-linejoin:round;stroke-miterlimit:10;stroke-dasharray:none;stroke-opacity:1"
                         d="M -3,-3 3,3 M -3,3 3,-3" /></g></g></g></g></g></g></g></g></g><g
       id="g232"><path
         id="path234"
         style="fill:none;stroke:#000000;stroke-width:0.80000001;stroke-linecap:square;stroke-linejoin:miter;stroke-miterlimit:10;stroke-dasharray:none;stroke-opacity:1"
         d="M 54.308,139.87532 V 333.12" /><path
         id="path236"
         style="fill:none;stroke:#000000;stroke-width:0.80000001;stroke-linecap:square;stroke-linejoin:miter;stroke-miterlimit:10;stroke-dasharray:none;stroke-opacity:1"
         d="M 345.39835,139.87532 V 333.12" /><path
         id="path238"
         style="fill:none;stroke:#000000;stroke-width:0.80000001;stroke-linecap:square;stroke-linejoin:miter;stroke-miterlimit:10;stroke-dasharray:none;stroke-opacity:1"
         d="M 54.308,139.87532 H 345.39835" /><path
         id="path240"
         style="fill:none;stroke:#000000;stroke-width:0.80000001;stroke-linecap:square;stroke-linejoin:miter;stroke-miterlimit:10;stroke-dasharray:none;stroke-opacity:1"
         d="M 54.308,333.12 H 345.39835" /><text
         id="text244"
         style="font-variant:normal;font-weight:normal;font-size:12px;font-family:'DejaVu Sans';-inkscape-font-specification:DejaVuSans;writing-mode:lr-tb;fill:#000000;fill-opacity:1;fill-rule:nonzero;stroke:none"
         transform="matrix(1,0,0,-1,174.90005,339.12)"><tspan
           id="tspan242"
           y="0"
           x="0 7.2360001 10.572 17.676001 25.056 28.392 32.208 42.264">Pixel #8</tspan></text>
<path
         id="path246"
         style="fill:#ffffff;fill-opacity:1;fill-rule:nonzero;stroke:none"
         d="m 54.308,43.688 h 291.09035 v 64.41489 H 54.308 Z" /><path
         id="path248"
         style="fill:#000000;fill-opacity:1;fill-rule:nonzero;stroke:#000000;stroke-width:0.80000001;stroke-linecap:butt;stroke-linejoin:round;stroke-miterlimit:10;stroke-dasharray:none;stroke-opacity:1"
         d="m 80.8651,43.688 v -3.5" /><text
         id="text252"
         style="font-variant:normal;font-weight:normal;font-size:10px;font-family:'DejaVu Sans';-inkscape-font-specification:DejaVuSans;writing-mode:lr-tb;fill:#000000;fill-opacity:1;fill-rule:nonzero;stroke:none"
         transform="matrix(1,0,0,-1,71.326038,29.09425)"><tspan
           id="tspan250"
           y="0"
           x="0 6.3600001 12.72">200</tspan></text>
<path
         id="path254"
         style="fill:#000000;fill-opacity:1;fill-rule:nonzero;stroke:#000000;stroke-width:0.80000001;stroke-linecap:butt;stroke-linejoin:round;stroke-miterlimit:10;stroke-dasharray:none;stroke-opacity:1"
         d="m 117.81369,43.688 v -3.5" /><text
         id="text258"
         style="font-variant:normal;font-weight:normal;font-size:10px;font-family:'DejaVu Sans';-inkscape-font-specification:DejaVuSans;writing-mode:lr-tb;fill:#000000;fill-opacity:1;fill-rule:nonzero;stroke:none"
         transform="matrix(1,0,0,-1,108.27463,29.09425)"><tspan
           id="tspan256"
           y="0"
           x="0 6.3600001 12.72">250</tspan></text>
<path
         id="path260"
         style="fill:#000000;fill-opacity:1;fill-rule:nonzero;stroke:#000000;stroke-width:0.80000001;stroke-linecap:butt;stroke-linejoin:round;stroke-miterlimit:10;stroke-dasharray:none;stroke-opacity:1"
         d="m 154.76228,43.688 v -3.5" /><text
         id="text264"
         style="font-variant:normal;font-weight:normal;font-size:10px;font-family:'DejaVu Sans';-inkscape-font-specification:DejaVuSans;writing-mode:lr-tb;fill:#000000;fill-opacity:1;fill-rule:nonzero;stroke:none"
         transform="matrix(1,0,0,-1,145.22322,29.09425)"><tspan
           id="tspan262"
           y="0"
           x="0 6.3600001 12.72">300</tspan></text>
<path
         id="path266"
         style="fill:#000000;fill-opacity:1;fill-rule:nonzero;stroke:#000000;stroke-width:0.80000001;stroke-linecap:butt;stroke-linejoin:round;stroke-miterlimit:10;stroke-dasharray:none;stroke-opacity:1"
         d="m 191.71087,43.688 v -3.5" /><text
         id="text270"
         style="font-variant:normal;font-weight:normal;font-size:10px;font-family:'DejaVu Sans';-inkscape-font-specification:DejaVuSans;writing-mode:lr-tb;fill:#000000;fill-opacity:1;fill-rule:nonzero;stroke:none"
         transform="matrix(1,0,0,-1,182.17181,29.09425)"><tspan
           id="tspan268"
           y="0"
           x="0 6.3600001 12.72">350</tspan></text>
<path
         id="path272"
         style="fill:#000000;fill-opacity:1;fill-rule:nonzero;stroke:#000000;stroke-width:0.80000001;stroke-linecap:butt;stroke-linejoin:round;stroke-miterlimit:10;stroke-dasharray:none;stroke-opacity:1"
         d="m 228.65946,43.688 v -3.5" /><text
         id="text276"
         style="font-variant:normal;font-weight:normal;font-size:10px;font-family:'DejaVu Sans';-inkscape-font-specification:DejaVuSans;writing-mode:lr-tb;fill:#000000;fill-opacity:1;fill-rule:nonzero;stroke:none"
         transform="matrix(1,0,0,-1,219.1204,29.09425)"><tspan
           id="tspan274"
           y="0"
           x="0 6.3600001 12.72">400</tspan></text>
<path
         id="path278"
         style="fill:#000000;fill-opacity:1;fill-rule:nonzero;stroke:#000000;stroke-width:0.80000001;stroke-linecap:butt;stroke-linejoin:round;stroke-miterlimit:10;stroke-dasharray:none;stroke-opacity:1"
         d="m 265.60805,43.688 v -3.5" /><text
         id="text282"
         style="font-variant:normal;font-weight:normal;font-size:10px;font-family:'DejaVu Sans';-inkscape-font-specification:DejaVuSans;writing-mode:lr-tb;fill:#000000;fill-opacity:1;fill-rule:nonzero;stroke:none"
         transform="matrix(1,0,0,-1,256.06899,29.09425)"><tspan
           id="tspan280"
           y="0"
           x="0 6.3600001 12.72">450</tspan></text>
<path
         id="path284"
         style="fill:#000000;fill-opacity:1;fill-rule:nonzero;stroke:#000000;stroke-width:0.80000001;stroke-linecap:butt;stroke-linejoin:round;stroke-miterlimit:10;stroke-dasharray:none;stroke-opacity:1"
         d="m 302.55664,43.688 v -3.5" /><text
         id="text288"
         style="font-variant:normal;font-weight:normal;font-size:10px;font-family:'DejaVu Sans';-inkscape-font-specification:DejaVuSans;writing-mode:lr-tb;fill:#000000;fill-opacity:1;fill-rule:nonzero;stroke:none"
         transform="matrix(1,0,0,-1,293.01758,29.09425)"><tspan
           id="tspan286"
           y="0"
           x="0 6.3600001 12.72">500</tspan></text>
<path
         id="path290"
         style="fill:#000000;fill-opacity:1;fill-rule:nonzero;stroke:#000000;stroke-width:0.80000001;stroke-linecap:butt;stroke-linejoin:round;stroke-miterlimit:10;stroke-dasharray:none;stroke-opacity:1"
         d="m 339.50523,43.688 v -3.5" /><text
         id="text294"
         style="font-variant:normal;font-weight:normal;font-size:10px;font-family:'DejaVu Sans';-inkscape-font-specification:DejaVuSans;writing-mode:lr-tb;fill:#000000;fill-opacity:1;fill-rule:nonzero;stroke:none"
         transform="matrix(1,0,0,-1,329.96617,29.09425)"><tspan
           id="tspan292"
           y="0"
           x="0 6.3600001 12.72">550</tspan></text>
<g
         transform="translate(180.35317,15.09425)"
         id="g296"><text
           id="text300"
           style="font-variant:normal;font-weight:normal;font-size:10px;font-family:'DejaVu Sans';-inkscape-font-specification:DejaVuSans;writing-mode:lr-tb;fill:#000000;fill-opacity:1;fill-rule:nonzero;stroke:none"
           transform="matrix(1,0,0,-1,0,0.703125)"><tspan
             id="tspan298"
             y="0"
             x="0 6.1083984 12.226562">ToT</tspan></text>
<text
           id="text304"
           style="font-variant:normal;font-weight:normal;font-size:7px;font-family:'DejaVu Sans';-inkscape-font-specification:DejaVuSans;writing-mode:lr-tb;fill:#000000;fill-opacity:1;fill-rule:nonzero;stroke:none"
           transform="matrix(1,0,0,-1,18.430664,-0.9375)"><tspan
             id="tspan302"
             y="0"
             x="0 4.2827148 6.7470703 9.2114258 12.858398 17.165039">offset</tspan></text>
</g><path
         id="path306"
         style="fill:#000000;fill-opacity:1;fill-rule:nonzero;stroke:#000000;stroke-width:0.80000001;stroke-linecap:butt;stroke-linejoin:round;stroke-miterlimit:10;stroke-dasharray:none;stroke-opacity:1"
         d="m 54.308,67.370436 h -3.5" /><text
         id="text310"
         style="font-variant:normal;font-weight:normal;font-size:10px;font-family:'DejaVu Sans';-inkscape-font-specification:DejaVuSans;writing-mode:lr-tb;fill:#000000;fill-opacity:1;fill-rule:nonzero;stroke:none"
         transform="matrix(1,0,0,-1,31.40175,63.573561)"><tspan
           id="tspan308"
           y="0"
           x="0 6.3600001 9.54">0.0</tspan></text>
<path
         id="path312"
         style="fill:#000000;fill-opacity:1;fill-rule:nonzero;stroke:#000000;stroke-width:0.80000001;stroke-linecap:butt;stroke-linejoin:round;stroke-miterlimit:10;stroke-dasharray:none;stroke-opacity:1"
         d="m 54.308,98.238271 h -3.5" /><text
         id="text316"
         style="font-variant:normal;font-weight:normal;font-size:10px;font-family:'DejaVu Sans';-inkscape-font-specification:DejaVuSans;writing-mode:lr-tb;fill:#000000;fill-opacity:1;fill-rule:nonzero;stroke:none"
         transform="matrix(1,0,0,-1,31.40175,94.441396)"><tspan
           id="tspan314"
           y="0"
           x="0 6.3600001 9.54">0.2</tspan></text>
<g
         transform="rotate(90,-0.99684866,25.398599)"
         id="g318"><text
           id="text322"
           style="font-variant:normal;font-weight:normal;font-size:10px;font-family:'DejaVu Sans';-inkscape-font-specification:DejaVuSans;writing-mode:lr-tb;fill:#000000;fill-opacity:1;fill-rule:nonzero;stroke:none"
           transform="matrix(1,0,0,-1,0,0.40625)"><tspan
             id="tspan320"
             y="0"
             x="0">(</tspan></text>
<text
           id="text326"
           style="font-variant:normal;font-weight:normal;font-size:7px;font-family:'DejaVu Sans';-inkscape-font-specification:DejaVuSans;writing-mode:lr-tb;fill:#000000;fill-opacity:1;fill-rule:nonzero;stroke:none"
           transform="matrix(1,0,0,-1,10.239258,-1.234375)"><tspan
             id="tspan324"
             y="0"
             x="0 4.2758789 8.5585938 31.721191 35.99707 40.279785 44.555664 48.144531 51.022461 55.329102 59.618652">ToTToT,real</tspan></text>
<text
           id="text330"
           style="font-variant:normal;font-weight:normal;font-size:10px;font-family:'DejaVu Sans';-inkscape-font-specification:DejaVuSans;writing-mode:lr-tb;fill:#000000;fill-opacity:1;fill-rule:nonzero;stroke:none"
           transform="matrix(1,0,0,-1,72.076172,0.40625)"><tspan
             id="tspan328"
             y="0"
             x="0 3.9013672">)/</tspan></text>
<text
           id="text334"
           style="font-variant:normal;font-weight:normal;font-size:7px;font-family:'DejaVu Sans';-inkscape-font-specification:DejaVuSans;writing-mode:lr-tb;fill:#000000;fill-opacity:1;fill-rule:nonzero;stroke:none"
           transform="matrix(1,0,0,-1,85.68457,-1.234375)"><tspan
             id="tspan332"
             y="0"
             x="0 4.2758789 8.5585938">ToT</tspan></text>
<g
           transform="matrix(0.01,0,0,0.01,3.9013672,0.40625)"
           id="g336"><g
             id="g338"><g
               clip-path="url(#clipPath344)"
               id="g340"><path
                 id="path346"
                 style="fill:#000000;fill-opacity:1;fill-rule:nonzero;stroke:none"
                 d="m 347,476 c -50,0 -92,-18 -125,-54 -36,-38 -59,-87 -71,-149 -13,-66 -9,-117 12,-155 20,-38 55,-56 104,-56 47,0 88,19 124,57 35,37 59,88 72,154 11,59 7,109 -13,149 -19,36 -53,54 -103,54 m 14,71 H 659 L 642,457 H 541 C 566,406 572,345 559,273 541,183 505,113 451,63 396,12 329,-13 251,-13 173,-13 116,12 82,63 47,113 39,183 57,273 c 17,90 53,160 107,211 45,42 111,63 197,63" /></g></g></g><g
           transform="matrix(0.01,0,0,0.01,25.29541,0.40625)"
           id="g348"><g
             id="g350"><g
               clip-path="url(#clipPath356)"
               id="g352"><path
                 id="path358"
                 style="fill:#000000;fill-opacity:1;fill-rule:nonzero;stroke:none"
                 d="M 106,355 H 732 V 272 H 106 v 83" /></g></g></g><g
           transform="matrix(0.01,0,0,0.01,35.622559,0.40625)"
           id="g360"><g
             id="g362"><g
               clip-path="url(#clipPath368)"
               id="g364"><path
                 id="path370"
                 style="fill:#000000;fill-opacity:1;fill-rule:nonzero;stroke:none"
                 d="m 347,476 c -50,0 -92,-18 -125,-54 -36,-38 -59,-87 -71,-149 -13,-66 -9,-117 12,-155 20,-38 55,-56 104,-56 47,0 88,19 124,57 35,37 59,88 72,154 11,59 7,109 -13,149 -19,36 -53,54 -103,54 m 14,71 H 659 L 642,457 H 541 C 566,406 572,345 559,273 541,183 505,113 451,63 396,12 329,-13 251,-13 173,-13 116,12 82,63 47,113 39,183 57,273 c 17,90 53,160 107,211 45,42 111,63 197,63" /></g></g></g><g
           transform="matrix(0.01,0,0,0.01,79.34668,0.40625)"
           id="g372"><g
             id="g374"><g
               clip-path="url(#clipPath380)"
               id="g376"><path
                 id="path382"
                 style="fill:#000000;fill-opacity:1;fill-rule:nonzero;stroke:none"
                 d="m 347,476 c -50,0 -92,-18 -125,-54 -36,-38 -59,-87 -71,-149 -13,-66 -9,-117 12,-155 20,-38 55,-56 104,-56 47,0 88,19 124,57 35,37 59,88 72,154 11,59 7,109 -13,149 -19,36 -53,54 -103,54 m 14,71 H 659 L 642,457 H 541 C 566,406 572,345 559,273 541,183 505,113 451,63 396,12 329,-13 251,-13 173,-13 116,12 82,63 47,113 39,183 57,273 c 17,90 53,160 107,211 45,42 111,63 197,63" /></g></g></g></g></g><g
       id="g384"><g
         clip-path="url(#clipPath390)"
         id="g386"><path
           id="path392"
           style="fill:none;stroke:#1f77b4;stroke-width:1.5;stroke-linecap:square;stroke-linejoin:round;stroke-miterlimit:10;stroke-dasharray:none;stroke-opacity:1"
           d="M 67.539379,56.493079 131.86254,72.908996 199.32856,105.17494 265.52892,94.409636 332.16697,46.61595" /><g
           transform="translate(67.539379,56.493079)"
           id="g394"><g
             id="g396"><g
               clip-path="url(#clipPath402)"
               id="g398"><path
                 id="path404"
                 style="fill:#1f77b4;fill-opacity:1;fill-rule:nonzero;stroke:#1f77b4;stroke-width:1;stroke-linecap:butt;stroke-linejoin:round;stroke-miterlimit:10;stroke-dasharray:none;stroke-opacity:1"
                 d="M -3,-3 3,3 M -3,3 3,-3" /></g></g><g
             transform="translate(64.323158,16.415916)"
             id="g406"><g
               id="g408"><g
                 clip-path="url(#clipPath414)"
                 id="g410"><path
                   id="path416"
                   style="fill:#1f77b4;fill-opacity:1;fill-rule:nonzero;stroke:#1f77b4;stroke-width:1;stroke-linecap:butt;stroke-linejoin:round;stroke-miterlimit:10;stroke-dasharray:none;stroke-opacity:1"
                   d="M -3,-3 3,3 M -3,3 3,-3" /></g></g><g
               transform="translate(67.466021,32.265949)"
               id="g418"><g
                 id="g420"><g
                   clip-path="url(#clipPath426)"
                   id="g422"><path
                     id="path428"
                     style="fill:#1f77b4;fill-opacity:1;fill-rule:nonzero;stroke:#1f77b4;stroke-width:1;stroke-linecap:butt;stroke-linejoin:round;stroke-miterlimit:10;stroke-dasharray:none;stroke-opacity:1"
                     d="M -3,-3 3,3 M -3,3 3,-3" /></g></g><g
                 transform="translate(66.20036,-10.765309)"
                 id="g430"><g
                   id="g432"><g
                     clip-path="url(#clipPath438)"
                     id="g434"><path
                       id="path440"
                       style="fill:#1f77b4;fill-opacity:1;fill-rule:nonzero;stroke:#1f77b4;stroke-width:1;stroke-linecap:butt;stroke-linejoin:round;stroke-miterlimit:10;stroke-dasharray:none;stroke-opacity:1"
                       d="M -3,-3 3,3 M -3,3 3,-3" /></g></g><g
                   transform="translate(66.638049,-47.793686)"
                   id="g442"><g
                     id="g444"><g
                       clip-path="url(#clipPath450)"
                       id="g446"><path
                         id="path452"
                         style="fill:#1f77b4;fill-opacity:1;fill-rule:nonzero;stroke:#1f77b4;stroke-width:1;stroke-linecap:butt;stroke-linejoin:round;stroke-miterlimit:10;stroke-dasharray:none;stroke-opacity:1"
                         d="M -3,-3 3,3 M -3,3 3,-3" /></g></g></g></g></g></g></g></g></g><g
       id="g454"><g
         clip-path="url(#clipPath460)"
         id="g456"><path
           id="path462"
           style="fill:none;stroke:#000000;stroke-width:0.89999998;stroke-linecap:butt;stroke-linejoin:round;stroke-miterlimit:10;stroke-dasharray:3.33, 1.44;stroke-dashoffset:0;stroke-opacity:0.5"
           d="M 54.308,67.370436 H 345.39835" /></g></g><g
       id="g464"><path
         id="path466"
         style="fill:none;stroke:#000000;stroke-width:0.80000001;stroke-linecap:square;stroke-linejoin:miter;stroke-miterlimit:10;stroke-dasharray:none;stroke-opacity:1"
         d="m 54.308,43.688 v 64.41489" /><path
         id="path468"
         style="fill:none;stroke:#000000;stroke-width:0.80000001;stroke-linecap:square;stroke-linejoin:miter;stroke-miterlimit:10;stroke-dasharray:none;stroke-opacity:1"
         d="m 345.39835,43.688 v 64.41489" /><path
         id="path470"
         style="fill:none;stroke:#000000;stroke-width:0.80000001;stroke-linecap:square;stroke-linejoin:miter;stroke-miterlimit:10;stroke-dasharray:none;stroke-opacity:1"
         d="M 54.308,43.688 H 345.39835" /><path
         id="path472"
         style="fill:none;stroke:#000000;stroke-width:0.80000001;stroke-linecap:square;stroke-linejoin:miter;stroke-miterlimit:10;stroke-dasharray:none;stroke-opacity:1"
         d="M 54.308,108.10289 H 345.39835" /></g></g></svg>