<?xml version="1.0" encoding="UTF-8" standalone="no"?>
<svg
   xmlns:dc="http://purl.org/dc/elements/1.1/"
   xmlns:cc="http://creativecommons.org/ns#"
   xmlns:rdf="http://www.w3.org/1999/02/22-rdf-syntax-ns#"
   xmlns:svg="http://www.w3.org/2000/svg"
   xmlns="http://www.w3.org/2000/svg"
   viewBox="0 0 480 480"
   height="480"
   width="480"
   xml:space="preserve"
   id="svg2"
   version="1.1"><metadata
     id="metadata8"><rdf:RDF><cc:Work
         rdf:about=""><dc:format>image/svg+xml</dc:format><dc:type
           rdf:resource="http://purl.org/dc/dcmitype/StillImage" /></cc:Work></rdf:RDF></metadata><defs
     id="defs6"><clipPath
       id="clipPath82"
       clipPathUnits="userSpaceOnUse"><path
         id="path80"
         d="M -1016,-351 H 1660 V 1068 H -1016 Z" /></clipPath><clipPath
       id="clipPath92"
       clipPathUnits="userSpaceOnUse"><path
         id="path90"
         d="M 50.51,139.87532 H 346.68 V 333.12 H 50.51 Z" /></clipPath><clipPath
       id="clipPath104"
       clipPathUnits="userSpaceOnUse"><path
         id="path102"
         d="m -3.5,-3.5 h 7 v 7 h -7 z" /></clipPath><clipPath
       id="clipPath116"
       clipPathUnits="userSpaceOnUse"><path
         id="path114"
         d="m -3.5,-3.5 h 7 v 7 h -7 z" /></clipPath><clipPath
       id="clipPath128"
       clipPathUnits="userSpaceOnUse"><path
         id="path126"
         d="m -3.5,-3.5 h 7 v 7 h -7 z" /></clipPath><clipPath
       id="clipPath140"
       clipPathUnits="userSpaceOnUse"><path
         id="path138"
         d="m -3.5,-3.5 h 7 v 7 h -7 z" /></clipPath><clipPath
       id="clipPath152"
       clipPathUnits="userSpaceOnUse"><path
         id="path150"
         d="m -3.5,-3.5 h 7 v 7 h -7 z" /></clipPath><clipPath
       id="clipPath162"
       clipPathUnits="userSpaceOnUse"><path
         id="path160"
         d="M 50.51,139.87532 H 346.68 V 333.12 H 50.51 Z" /></clipPath><clipPath
       id="clipPath174"
       clipPathUnits="userSpaceOnUse"><path
         id="path172"
         d="m -3.5,-3.5 h 7 v 7 h -7 z" /></clipPath><clipPath
       id="clipPath186"
       clipPathUnits="userSpaceOnUse"><path
         id="path184"
         d="m -3.5,-3.5 h 7 v 7 h -7 z" /></clipPath><clipPath
       id="clipPath198"
       clipPathUnits="userSpaceOnUse"><path
         id="path196"
         d="m -3.5,-3.5 h 7 v 7 h -7 z" /></clipPath><clipPath
       id="clipPath210"
       clipPathUnits="userSpaceOnUse"><path
         id="path208"
         d="m -3.5,-3.5 h 7 v 7 h -7 z" /></clipPath><clipPath
       id="clipPath222"
       clipPathUnits="userSpaceOnUse"><path
         id="path220"
         d="m -3.5,-3.5 h 7 v 7 h -7 z" /></clipPath><clipPath
       id="clipPath344"
       clipPathUnits="userSpaceOnUse"><path
         id="path342"
         d="M -1016,-351 H 1660 V 1068 H -1016 Z" /></clipPath><clipPath
       id="clipPath356"
       clipPathUnits="userSpaceOnUse"><path
         id="path354"
         d="M -1021,-463 H 1794 V 1233 H -1021 Z" /></clipPath><clipPath
       id="clipPath368"
       clipPathUnits="userSpaceOnUse"><path
         id="path366"
         d="M -1016,-351 H 1660 V 1068 H -1016 Z" /></clipPath><clipPath
       id="clipPath380"
       clipPathUnits="userSpaceOnUse"><path
         id="path378"
         d="M -1016,-351 H 1660 V 1068 H -1016 Z" /></clipPath><clipPath
       id="clipPath390"
       clipPathUnits="userSpaceOnUse"><path
         id="path388"
         d="m 50.51,43.688 h 296.17 v 64.41489 H 50.51 Z" /></clipPath><clipPath
       id="clipPath402"
       clipPathUnits="userSpaceOnUse"><path
         id="path400"
         d="m -3.5,-3.5 h 7 v 7 h -7 z" /></clipPath><clipPath
       id="clipPath414"
       clipPathUnits="userSpaceOnUse"><path
         id="path412"
         d="m -3.5,-3.5 h 7 v 7 h -7 z" /></clipPath><clipPath
       id="clipPath426"
       clipPathUnits="userSpaceOnUse"><path
         id="path424"
         d="m -3.5,-3.5 h 7 v 7 h -7 z" /></clipPath><clipPath
       id="clipPath438"
       clipPathUnits="userSpaceOnUse"><path
         id="path436"
         d="m -3.5,-3.5 h 7 v 7 h -7 z" /></clipPath><clipPath
       id="clipPath450"
       clipPathUnits="userSpaceOnUse"><path
         id="path448"
         d="m -3.5,-3.5 h 7 v 7 h -7 z" /></clipPath><clipPath
       id="clipPath460"
       clipPathUnits="userSpaceOnUse"><path
         id="path458"
         d="m 50.51,43.688 h 296.17 v 64.41489 H 50.51 Z" /></clipPath></defs><g
     transform="matrix(1.3333333,0,0,-1.3333333,0,480)"
     id="g10"><path
       id="path12"
       style="fill:#ffffff;fill-opacity:1;fill-rule:nonzero;stroke:none"
       d="M 0,0 H 360 V 360 H 0 Z" /><path
       id="path14"
       style="fill:#ffffff;fill-opacity:1;fill-rule:nonzero;stroke:none"
       d="M 50.51,139.87532 H 346.68 V 333.12 H 50.51 Z" /><path
       id="path16"
       style="fill:#000000;fill-opacity:1;fill-rule:nonzero;stroke:#000000;stroke-width:0.80000001;stroke-linecap:butt;stroke-linejoin:round;stroke-miterlimit:10;stroke-dasharray:none;stroke-opacity:1"
       d="m 63.855105,139.87532 v -3.5" /><path
       id="path18"
       style="fill:#000000;fill-opacity:1;fill-rule:nonzero;stroke:#000000;stroke-width:0.80000001;stroke-linecap:butt;stroke-linejoin:round;stroke-miterlimit:10;stroke-dasharray:none;stroke-opacity:1"
       d="m 102.93454,139.87532 v -3.5" /><path
       id="path20"
       style="fill:#000000;fill-opacity:1;fill-rule:nonzero;stroke:#000000;stroke-width:0.80000001;stroke-linecap:butt;stroke-linejoin:round;stroke-miterlimit:10;stroke-dasharray:none;stroke-opacity:1"
       d="m 142.01398,139.87532 v -3.5" /><path
       id="path22"
       style="fill:#000000;fill-opacity:1;fill-rule:nonzero;stroke:#000000;stroke-width:0.80000001;stroke-linecap:butt;stroke-linejoin:round;stroke-miterlimit:10;stroke-dasharray:none;stroke-opacity:1"
       d="m 181.09342,139.87532 v -3.5" /><path
       id="path24"
       style="fill:#000000;fill-opacity:1;fill-rule:nonzero;stroke:#000000;stroke-width:0.80000001;stroke-linecap:butt;stroke-linejoin:round;stroke-miterlimit:10;stroke-dasharray:none;stroke-opacity:1"
       d="m 220.17286,139.87532 v -3.5" /><path
       id="path26"
       style="fill:#000000;fill-opacity:1;fill-rule:nonzero;stroke:#000000;stroke-width:0.80000001;stroke-linecap:butt;stroke-linejoin:round;stroke-miterlimit:10;stroke-dasharray:none;stroke-opacity:1"
       d="m 259.2523,139.87532 v -3.5" /><path
       id="path28"
       style="fill:#000000;fill-opacity:1;fill-rule:nonzero;stroke:#000000;stroke-width:0.80000001;stroke-linecap:butt;stroke-linejoin:round;stroke-miterlimit:10;stroke-dasharray:none;stroke-opacity:1"
       d="m 298.33174,139.87532 v -3.5" /><path
       id="path30"
       style="fill:#000000;fill-opacity:1;fill-rule:nonzero;stroke:#000000;stroke-width:0.80000001;stroke-linecap:butt;stroke-linejoin:round;stroke-miterlimit:10;stroke-dasharray:none;stroke-opacity:1"
       d="m 337.41117,139.87532 v -3.5" /><path
       id="path32"
       style="fill:#000000;fill-opacity:1;fill-rule:nonzero;stroke:#000000;stroke-width:0.80000001;stroke-linecap:butt;stroke-linejoin:round;stroke-miterlimit:10;stroke-dasharray:none;stroke-opacity:1"
       d="m 50.51,162.12662 h -3.5" /><text
       id="text36"
       style="font-variant:normal;font-weight:normal;font-size:10px;font-family:'DejaVu Sans';-inkscape-font-specification:DejaVuSans;writing-mode:lr-tb;fill:#000000;fill-opacity:1;fill-rule:nonzero;stroke:none"
       transform="matrix(1,0,0,-1,27.60375,158.32974)"><tspan
         id="tspan34"
         y="0"
         x="0 6.3600001 9.54">0.3</tspan></text>
<path
       id="path38"
       style="fill:#000000;fill-opacity:1;fill-rule:nonzero;stroke:#000000;stroke-width:0.80000001;stroke-linecap:butt;stroke-linejoin:round;stroke-miterlimit:10;stroke-dasharray:none;stroke-opacity:1"
       d="m 50.51,195.78788 h -3.5" /><text
       id="text42"
       style="font-variant:normal;font-weight:normal;font-size:10px;font-family:'DejaVu Sans';-inkscape-font-specification:DejaVuSans;writing-mode:lr-tb;fill:#000000;fill-opacity:1;fill-rule:nonzero;stroke:none"
       transform="matrix(1,0,0,-1,27.60375,191.991)"><tspan
         id="tspan40"
         y="0"
         x="0 6.3600001 9.54">0.4</tspan></text>
<path
       id="path44"
       style="fill:#000000;fill-opacity:1;fill-rule:nonzero;stroke:#000000;stroke-width:0.80000001;stroke-linecap:butt;stroke-linejoin:round;stroke-miterlimit:10;stroke-dasharray:none;stroke-opacity:1"
       d="m 50.51,229.44914 h -3.5" /><text
       id="text48"
       style="font-variant:normal;font-weight:normal;font-size:10px;font-family:'DejaVu Sans';-inkscape-font-specification:DejaVuSans;writing-mode:lr-tb;fill:#000000;fill-opacity:1;fill-rule:nonzero;stroke:none"
       transform="matrix(1,0,0,-1,27.60375,225.65226)"><tspan
         id="tspan46"
         y="0"
         x="0 6.3600001 9.54">0.5</tspan></text>
<path
       id="path50"
       style="fill:#000000;fill-opacity:1;fill-rule:nonzero;stroke:#000000;stroke-width:0.80000001;stroke-linecap:butt;stroke-linejoin:round;stroke-miterlimit:10;stroke-dasharray:none;stroke-opacity:1"
       d="m 50.51,263.1104 h -3.5" /><text
       id="text54"
       style="font-variant:normal;font-weight:normal;font-size:10px;font-family:'DejaVu Sans';-inkscape-font-specification:DejaVuSans;writing-mode:lr-tb;fill:#000000;fill-opacity:1;fill-rule:nonzero;stroke:none"
       transform="matrix(1,0,0,-1,27.60375,259.31353)"><tspan
         id="tspan52"
         y="0"
         x="0 6.3600001 9.54">0.6</tspan></text>
<path
       id="path56"
       style="fill:#000000;fill-opacity:1;fill-rule:nonzero;stroke:#000000;stroke-width:0.80000001;stroke-linecap:butt;stroke-linejoin:round;stroke-miterlimit:10;stroke-dasharray:none;stroke-opacity:1"
       d="m 50.51,296.77166 h -3.5" /><text
       id="text60"
       style="font-variant:normal;font-weight:normal;font-size:10px;font-family:'DejaVu Sans';-inkscape-font-specification:DejaVuSans;writing-mode:lr-tb;fill:#000000;fill-opacity:1;fill-rule:nonzero;stroke:none"
       transform="matrix(1,0,0,-1,27.60375,292.97479)"><tspan
         id="tspan58"
         y="0"
         x="0 6.3600001 9.54">0.7</tspan></text>
<path
       id="path62"
       style="fill:#000000;fill-opacity:1;fill-rule:nonzero;stroke:#000000;stroke-width:0.80000001;stroke-linecap:butt;stroke-linejoin:round;stroke-miterlimit:10;stroke-dasharray:none;stroke-opacity:1"
       d="m 50.51,330.43292 h -3.5" /><text
       id="text66"
       style="font-variant:normal;font-weight:normal;font-size:10px;font-family:'DejaVu Sans';-inkscape-font-specification:DejaVuSans;writing-mode:lr-tb;fill:#000000;fill-opacity:1;fill-rule:nonzero;stroke:none"
       transform="matrix(1,0,0,-1,27.60375,326.63605)"><tspan
         id="tspan64"
         y="0"
         x="0 6.3600001 9.54">0.8</tspan></text>
<g
       transform="rotate(90,-102.48602,124.01164)"
       id="g68"><text
         id="text72"
         style="font-variant:normal;font-weight:normal;font-size:7px;font-family:'DejaVu Sans';-inkscape-font-specification:DejaVuSans;writing-mode:lr-tb;fill:#000000;fill-opacity:1;fill-rule:nonzero;stroke:none"
         transform="matrix(1,0,0,-1,6.3378906,-1.109375)"><tspan
           id="tspan70"
           y="0"
           x="0 4.2758789 8.5585938">ToT</tspan></text>
<g
         transform="matrix(0.01,0,0,0.01,0,0.53125)"
         id="g74"><g
           id="g76"><g
             clip-path="url(#clipPath82)"
             id="g78"><path
               id="path84"
               style="fill:#000000;fill-opacity:1;fill-rule:nonzero;stroke:none"
               d="m 347,476 c -50,0 -92,-18 -125,-54 -36,-38 -59,-87 -71,-149 -13,-66 -9,-117 12,-155 20,-38 55,-56 104,-56 47,0 88,19 124,57 35,37 59,88 72,154 11,59 7,109 -13,149 -19,36 -53,54 -103,54 m 14,71 H 659 L 642,457 H 541 C 566,406 572,345 559,273 541,183 505,113 451,63 396,12 329,-13 251,-13 173,-13 116,12 82,63 47,113 39,183 57,273 c 17,90 53,160 107,211 45,42 111,63 197,63" /></g></g></g></g><g
       id="g86"><g
         clip-path="url(#clipPath92)"
         id="g88"><path
           id="path94"
           style="fill:none;stroke:#1f77b4;stroke-width:1.5;stroke-linecap:square;stroke-linejoin:round;stroke-miterlimit:10;stroke-dasharray:none;stroke-opacity:1"
           d="m 63.972273,148.65916 67.405777,34.31412 69.38258,-0.40535 66.12056,3.41657 66.33654,34.3804" /><g
           transform="translate(63.972273,148.65917)"
           id="g96"><g
             id="g98"><g
               clip-path="url(#clipPath104)"
               id="g100"><path
                 id="path106"
                 style="fill:#1f77b4;fill-opacity:1;fill-rule:nonzero;stroke:#1f77b4;stroke-width:1;stroke-linecap:butt;stroke-linejoin:round;stroke-miterlimit:10;stroke-dasharray:none;stroke-opacity:1"
                 d="M -3,-3 3,3 M -3,3 3,-3" /></g></g><g
             transform="translate(67.405774,34.314116)"
             id="g108"><g
               id="g110"><g
                 clip-path="url(#clipPath116)"
                 id="g112"><path
                   id="path118"
                   style="fill:#1f77b4;fill-opacity:1;fill-rule:nonzero;stroke:#1f77b4;stroke-width:1;stroke-linecap:butt;stroke-linejoin:round;stroke-miterlimit:10;stroke-dasharray:none;stroke-opacity:1"
                   d="M -3,-3 3,3 M -3,3 3,-3" /></g></g><g
               transform="translate(69.382581,-0.40535544)"
               id="g120"><g
                 id="g122"><g
                   clip-path="url(#clipPath128)"
                   id="g124"><path
                     id="path130"
                     style="fill:#1f77b4;fill-opacity:1;fill-rule:nonzero;stroke:#1f77b4;stroke-width:1;stroke-linecap:butt;stroke-linejoin:round;stroke-miterlimit:10;stroke-dasharray:none;stroke-opacity:1"
                     d="M -3,-3 3,3 M -3,3 3,-3" /></g></g><g
                 transform="translate(66.120559,3.4165732)"
                 id="g132"><g
                   id="g134"><g
                     clip-path="url(#clipPath140)"
                     id="g136"><path
                       id="path142"
                       style="fill:#1f77b4;fill-opacity:1;fill-rule:nonzero;stroke:#1f77b4;stroke-width:1;stroke-linecap:butt;stroke-linejoin:round;stroke-miterlimit:10;stroke-dasharray:none;stroke-opacity:1"
                       d="M -3,-3 3,3 M -3,3 3,-3" /></g></g><g
                   transform="translate(66.336541,34.380399)"
                   id="g144"><g
                     id="g146"><g
                       clip-path="url(#clipPath152)"
                       id="g148"><path
                         id="path154"
                         style="fill:#1f77b4;fill-opacity:1;fill-rule:nonzero;stroke:#1f77b4;stroke-width:1;stroke-linecap:butt;stroke-linejoin:round;stroke-miterlimit:10;stroke-dasharray:none;stroke-opacity:1"
                         d="M -3,-3 3,3 M -3,3 3,-3" /></g></g></g></g></g></g></g></g></g><g
       id="g156"><g
         clip-path="url(#clipPath162)"
         id="g158"><path
           id="path164"
           style="fill:none;stroke:#ff7f0e;stroke-width:1.5;stroke-linecap:square;stroke-linejoin:round;stroke-miterlimit:10;stroke-dasharray:none;stroke-opacity:1"
           d="m 63.972273,237.63949 67.405777,8.44537 69.38258,78.25129 66.12056,-42.73741 66.33654,-49.00179" /><g
           transform="translate(63.972273,237.63949)"
           id="g166"><g
             id="g168"><g
               clip-path="url(#clipPath174)"
               id="g170"><path
                 id="path176"
                 style="fill:#ff7f0e;fill-opacity:1;fill-rule:nonzero;stroke:#ff7f0e;stroke-width:1;stroke-linecap:butt;stroke-linejoin:round;stroke-miterlimit:10;stroke-dasharray:none;stroke-opacity:1"
                 d="M -3,-3 3,3 M -3,3 3,-3" /></g></g><g
             transform="translate(67.405774,8.4453685)"
             id="g178"><g
               id="g180"><g
                 clip-path="url(#clipPath186)"
                 id="g182"><path
                   id="path188"
                   style="fill:#ff7f0e;fill-opacity:1;fill-rule:nonzero;stroke:#ff7f0e;stroke-width:1;stroke-linecap:butt;stroke-linejoin:round;stroke-miterlimit:10;stroke-dasharray:none;stroke-opacity:1"
                   d="M -3,-3 3,3 M -3,3 3,-3" /></g></g><g
               transform="translate(69.382581,78.251292)"
               id="g190"><g
                 id="g192"><g
                   clip-path="url(#clipPath198)"
                   id="g194"><path
                     id="path200"
                     style="fill:#ff7f0e;fill-opacity:1;fill-rule:nonzero;stroke:#ff7f0e;stroke-width:1;stroke-linecap:butt;stroke-linejoin:round;stroke-miterlimit:10;stroke-dasharray:none;stroke-opacity:1"
                     d="M -3,-3 3,3 M -3,3 3,-3" /></g></g><g
                 transform="translate(66.120559,-42.737414)"
                 id="g202"><g
                   id="g204"><g
                     clip-path="url(#clipPath210)"
                     id="g206"><path
                       id="path212"
                       style="fill:#ff7f0e;fill-opacity:1;fill-rule:nonzero;stroke:#ff7f0e;stroke-width:1;stroke-linecap:butt;stroke-linejoin:round;stroke-miterlimit:10;stroke-dasharray:none;stroke-opacity:1"
                       d="M -3,-3 3,3 M -3,3 3,-3" /></g></g><g
                   transform="translate(66.336541,-49.001784)"
                   id="g214"><g
                     id="g216"><g
                       clip-path="url(#clipPath222)"
                       id="g218"><path
                         id="path224"
                         style="fill:#ff7f0e;fill-opacity:1;fill-rule:nonzero;stroke:#ff7f0e;stroke-width:1;stroke-linecap:butt;stroke-linejoin:round;stroke-miterlimit:10;stroke-dasharray:none;stroke-opacity:1"
                         d="M -3,-3 3,3 M -3,3 3,-3" /></g></g></g></g></g></g></g></g></g><g
       id="g226"><path
         id="path228"
         style="fill:none;stroke:#000000;stroke-width:0.80000001;stroke-linecap:square;stroke-linejoin:miter;stroke-miterlimit:10;stroke-dasharray:none;stroke-opacity:1"
         d="M 50.51,139.87532 V 333.12" /><path
         id="path230"
         style="fill:none;stroke:#000000;stroke-width:0.80000001;stroke-linecap:square;stroke-linejoin:miter;stroke-miterlimit:10;stroke-dasharray:none;stroke-opacity:1"
         d="M 346.68,139.87532 V 333.12" /><path
         id="path232"
         style="fill:none;stroke:#000000;stroke-width:0.80000001;stroke-linecap:square;stroke-linejoin:miter;stroke-miterlimit:10;stroke-dasharray:none;stroke-opacity:1"
         d="M 50.51,139.87532 H 346.68" /><path
         id="path234"
         style="fill:none;stroke:#000000;stroke-width:0.80000001;stroke-linecap:square;stroke-linejoin:miter;stroke-miterlimit:10;stroke-dasharray:none;stroke-opacity:1"
         d="M 50.51,333.12 H 346.68" /><text
         id="text238"
         style="font-variant:normal;font-weight:normal;font-size:12px;font-family:'DejaVu Sans';-inkscape-font-specification:DejaVuSans;writing-mode:lr-tb;fill:#000000;fill-opacity:1;fill-rule:nonzero;stroke:none"
         transform="matrix(1,0,0,-1,173.64187,339.12)"><tspan
           id="tspan236"
           y="0"
           x="0 7.2360001 10.572 17.676001 25.056 28.392 32.208 42.264">Pixel #1</tspan></text>
<path
         id="path240"
         style="fill:#ffffff;fill-opacity:1;fill-rule:nonzero;stroke:none"
         d="m 50.51,43.688 h 296.17 v 64.41489 H 50.51 Z" /><path
         id="path242"
         style="fill:#000000;fill-opacity:1;fill-rule:nonzero;stroke:#000000;stroke-width:0.80000001;stroke-linecap:butt;stroke-linejoin:round;stroke-miterlimit:10;stroke-dasharray:none;stroke-opacity:1"
         d="m 63.855105,43.688 v -3.5" /><text
         id="text246"
         style="font-variant:normal;font-weight:normal;font-size:10px;font-family:'DejaVu Sans';-inkscape-font-specification:DejaVuSans;writing-mode:lr-tb;fill:#000000;fill-opacity:1;fill-rule:nonzero;stroke:none"
         transform="matrix(1,0,0,-1,54.316043,29.09425)"><tspan
           id="tspan244"
           y="0"
           x="0 6.3600001 12.72">150</tspan></text>
<path
         id="path248"
         style="fill:#000000;fill-opacity:1;fill-rule:nonzero;stroke:#000000;stroke-width:0.80000001;stroke-linecap:butt;stroke-linejoin:round;stroke-miterlimit:10;stroke-dasharray:none;stroke-opacity:1"
         d="m 102.93454,43.688 v -3.5" /><text
         id="text252"
         style="font-variant:normal;font-weight:normal;font-size:10px;font-family:'DejaVu Sans';-inkscape-font-specification:DejaVuSans;writing-mode:lr-tb;fill:#000000;fill-opacity:1;fill-rule:nonzero;stroke:none"
         transform="matrix(1,0,0,-1,93.395481,29.09425)"><tspan
           id="tspan250"
           y="0"
           x="0 6.3600001 12.72">200</tspan></text>
<path
         id="path254"
         style="fill:#000000;fill-opacity:1;fill-rule:nonzero;stroke:#000000;stroke-width:0.80000001;stroke-linecap:butt;stroke-linejoin:round;stroke-miterlimit:10;stroke-dasharray:none;stroke-opacity:1"
         d="m 142.01398,43.688 v -3.5" /><text
         id="text258"
         style="font-variant:normal;font-weight:normal;font-size:10px;font-family:'DejaVu Sans';-inkscape-font-specification:DejaVuSans;writing-mode:lr-tb;fill:#000000;fill-opacity:1;fill-rule:nonzero;stroke:none"
         transform="matrix(1,0,0,-1,132.47492,29.09425)"><tspan
           id="tspan256"
           y="0"
           x="0 6.3600001 12.72">250</tspan></text>
<path
         id="path260"
         style="fill:#000000;fill-opacity:1;fill-rule:nonzero;stroke:#000000;stroke-width:0.80000001;stroke-linecap:butt;stroke-linejoin:round;stroke-miterlimit:10;stroke-dasharray:none;stroke-opacity:1"
         d="m 181.09342,43.688 v -3.5" /><text
         id="text264"
         style="font-variant:normal;font-weight:normal;font-size:10px;font-family:'DejaVu Sans';-inkscape-font-specification:DejaVuSans;writing-mode:lr-tb;fill:#000000;fill-opacity:1;fill-rule:nonzero;stroke:none"
         transform="matrix(1,0,0,-1,171.55436,29.09425)"><tspan
           id="tspan262"
           y="0"
           x="0 6.3600001 12.72">300</tspan></text>
<path
         id="path266"
         style="fill:#000000;fill-opacity:1;fill-rule:nonzero;stroke:#000000;stroke-width:0.80000001;stroke-linecap:butt;stroke-linejoin:round;stroke-miterlimit:10;stroke-dasharray:none;stroke-opacity:1"
         d="m 220.17286,43.688 v -3.5" /><text
         id="text270"
         style="font-variant:normal;font-weight:normal;font-size:10px;font-family:'DejaVu Sans';-inkscape-font-specification:DejaVuSans;writing-mode:lr-tb;fill:#000000;fill-opacity:1;fill-rule:nonzero;stroke:none"
         transform="matrix(1,0,0,-1,210.6338,29.09425)"><tspan
           id="tspan268"
           y="0"
           x="0 6.3600001 12.72">350</tspan></text>
<path
         id="path272"
         style="fill:#000000;fill-opacity:1;fill-rule:nonzero;stroke:#000000;stroke-width:0.80000001;stroke-linecap:butt;stroke-linejoin:round;stroke-miterlimit:10;stroke-dasharray:none;stroke-opacity:1"
         d="m 259.2523,43.688 v -3.5" /><text
         id="text276"
         style="font-variant:normal;font-weight:normal;font-size:10px;font-family:'DejaVu Sans';-inkscape-font-specification:DejaVuSans;writing-mode:lr-tb;fill:#000000;fill-opacity:1;fill-rule:nonzero;stroke:none"
         transform="matrix(1,0,0,-1,249.71324,29.09425)"><tspan
           id="tspan274"
           y="0"
           x="0 6.3600001 12.72">400</tspan></text>
<path
         id="path278"
         style="fill:#000000;fill-opacity:1;fill-rule:nonzero;stroke:#000000;stroke-width:0.80000001;stroke-linecap:butt;stroke-linejoin:round;stroke-miterlimit:10;stroke-dasharray:none;stroke-opacity:1"
         d="m 298.33174,43.688 v -3.5" /><text
         id="text282"
         style="font-variant:normal;font-weight:normal;font-size:10px;font-family:'DejaVu Sans';-inkscape-font-specification:DejaVuSans;writing-mode:lr-tb;fill:#000000;fill-opacity:1;fill-rule:nonzero;stroke:none"
         transform="matrix(1,0,0,-1,288.79267,29.09425)"><tspan
           id="tspan280"
           y="0"
           x="0 6.3600001 12.72">450</tspan></text>
<path
         id="path284"
         style="fill:#000000;fill-opacity:1;fill-rule:nonzero;stroke:#000000;stroke-width:0.80000001;stroke-linecap:butt;stroke-linejoin:round;stroke-miterlimit:10;stroke-dasharray:none;stroke-opacity:1"
         d="m 337.41117,43.688 v -3.5" /><text
         id="text288"
         style="font-variant:normal;font-weight:normal;font-size:10px;font-family:'DejaVu Sans';-inkscape-font-specification:DejaVuSans;writing-mode:lr-tb;fill:#000000;fill-opacity:1;fill-rule:nonzero;stroke:none"
         transform="matrix(1,0,0,-1,327.87211,29.09425)"><tspan
           id="tspan286"
           y="0"
           x="0 6.3600001 12.72">500</tspan></text>
<g
         transform="translate(179.095,15.09425)"
         id="g290"><text
           id="text294"
           style="font-variant:normal;font-weight:normal;font-size:10px;font-family:'DejaVu Sans';-inkscape-font-specification:DejaVuSans;writing-mode:lr-tb;fill:#000000;fill-opacity:1;fill-rule:nonzero;stroke:none"
           transform="matrix(1,0,0,-1,0,0.703125)"><tspan
             id="tspan292"
             y="0"
             x="0 6.1083984 12.226562">ToT</tspan></text>
<text
           id="text298"
           style="font-variant:normal;font-weight:normal;font-size:7px;font-family:'DejaVu Sans';-inkscape-font-specification:DejaVuSans;writing-mode:lr-tb;fill:#000000;fill-opacity:1;fill-rule:nonzero;stroke:none"
           transform="matrix(1,0,0,-1,18.430664,-0.9375)"><tspan
             id="tspan296"
             y="0"
             x="0 4.2827148 6.7470703 9.2114258 12.858398 17.165039">offset</tspan></text>
</g><path
         id="path300"
         style="fill:#000000;fill-opacity:1;fill-rule:nonzero;stroke:#000000;stroke-width:0.80000001;stroke-linecap:butt;stroke-linejoin:round;stroke-miterlimit:10;stroke-dasharray:none;stroke-opacity:1"
         d="m 50.51,46.61595 h -3.5" /><text
         id="text304"
         style="font-variant:normal;font-weight:normal;font-size:10px;font-family:'DejaVu Sans';-inkscape-font-specification:DejaVuSans;writing-mode:lr-tb;fill:#000000;fill-opacity:1;fill-rule:nonzero;stroke:none"
         transform="matrix(1,0,0,-1,27.60375,42.819075)"><tspan
           id="tspan302"
           y="0"
           x="0 6.3600001 9.54">0.0</tspan></text>
<path
         id="path306"
         style="fill:#000000;fill-opacity:1;fill-rule:nonzero;stroke:#000000;stroke-width:0.80000001;stroke-linecap:butt;stroke-linejoin:round;stroke-miterlimit:10;stroke-dasharray:none;stroke-opacity:1"
         d="m 50.51,68.358955 h -3.5" /><text
         id="text310"
         style="font-variant:normal;font-weight:normal;font-size:10px;font-family:'DejaVu Sans';-inkscape-font-specification:DejaVuSans;writing-mode:lr-tb;fill:#000000;fill-opacity:1;fill-rule:nonzero;stroke:none"
         transform="matrix(1,0,0,-1,27.60375,64.56208)"><tspan
           id="tspan308"
           y="0"
           x="0 6.3600001 9.54">0.2</tspan></text>
<path
         id="path312"
         style="fill:#000000;fill-opacity:1;fill-rule:nonzero;stroke:#000000;stroke-width:0.80000001;stroke-linecap:butt;stroke-linejoin:round;stroke-miterlimit:10;stroke-dasharray:none;stroke-opacity:1"
         d="m 50.51,90.10196 h -3.5" /><text
         id="text316"
         style="font-variant:normal;font-weight:normal;font-size:10px;font-family:'DejaVu Sans';-inkscape-font-specification:DejaVuSans;writing-mode:lr-tb;fill:#000000;fill-opacity:1;fill-rule:nonzero;stroke:none"
         transform="matrix(1,0,0,-1,27.60375,86.305085)"><tspan
           id="tspan314"
           y="0"
           x="0 6.3600001 9.54">0.4</tspan></text>
<g
         transform="rotate(90,-2.8958487,23.499599)"
         id="g318"><text
           id="text322"
           style="font-variant:normal;font-weight:normal;font-size:10px;font-family:'DejaVu Sans';-inkscape-font-specification:DejaVuSans;writing-mode:lr-tb;fill:#000000;fill-opacity:1;fill-rule:nonzero;stroke:none"
           transform="matrix(1,0,0,-1,0,0.40625)"><tspan
             id="tspan320"
             y="0"
             x="0">(</tspan></text>
<text
           id="text326"
           style="font-variant:normal;font-weight:normal;font-size:7px;font-family:'DejaVu Sans';-inkscape-font-specification:DejaVuSans;writing-mode:lr-tb;fill:#000000;fill-opacity:1;fill-rule:nonzero;stroke:none"
           transform="matrix(1,0,0,-1,10.239258,-1.234375)"><tspan
             id="tspan324"
             y="0"
             x="0 4.2758789 8.5585938 31.721191 35.99707 40.279785 44.555664 48.144531 51.022461 55.329102 59.618652">ToTToT,real</tspan></text>
<text
           id="text330"
           style="font-variant:normal;font-weight:normal;font-size:10px;font-family:'DejaVu Sans';-inkscape-font-specification:DejaVuSans;writing-mode:lr-tb;fill:#000000;fill-opacity:1;fill-rule:nonzero;stroke:none"
           transform="matrix(1,0,0,-1,72.076172,0.40625)"><tspan
             id="tspan328"
             y="0"
             x="0 3.9013672">)/</tspan></text>
<text
           id="text334"
           style="font-variant:normal;font-weight:normal;font-size:7px;font-family:'DejaVu Sans';-inkscape-font-specification:DejaVuSans;writing-mode:lr-tb;fill:#000000;fill-opacity:1;fill-rule:nonzero;stroke:none"
           transform="matrix(1,0,0,-1,85.68457,-1.234375)"><tspan
             id="tspan332"
             y="0"
             x="0 4.2758789 8.5585938">ToT</tspan></text>
<g
           transform="matrix(0.01,0,0,0.01,3.9013672,0.40625)"
           id="g336"><g
             id="g338"><g
               clip-path="url(#clipPath344)"
               id="g340"><path
                 id="path346"
                 style="fill:#000000;fill-opacity:1;fill-rule:nonzero;stroke:none"
                 d="m 347,476 c -50,0 -92,-18 -125,-54 -36,-38 -59,-87 -71,-149 -13,-66 -9,-117 12,-155 20,-38 55,-56 104,-56 47,0 88,19 124,57 35,37 59,88 72,154 11,59 7,109 -13,149 -19,36 -53,54 -103,54 m 14,71 H 659 L 642,457 H 541 C 566,406 572,345 559,273 541,183 505,113 451,63 396,12 329,-13 251,-13 173,-13 116,12 82,63 47,113 39,183 57,273 c 17,90 53,160 107,211 45,42 111,63 197,63" /></g></g></g><g
           transform="matrix(0.01,0,0,0.01,25.29541,0.40625)"
           id="g348"><g
             id="g350"><g
               clip-path="url(#clipPath356)"
               id="g352"><path
                 id="path358"
                 style="fill:#000000;fill-opacity:1;fill-rule:nonzero;stroke:none"
                 d="M 106,355 H 732 V 272 H 106 v 83" /></g></g></g><g
           transform="matrix(0.01,0,0,0.01,35.622559,0.40625)"
           id="g360"><g
             id="g362"><g
               clip-path="url(#clipPath368)"
               id="g364"><path
                 id="path370"
                 style="fill:#000000;fill-opacity:1;fill-rule:nonzero;stroke:none"
                 d="m 347,476 c -50,0 -92,-18 -125,-54 -36,-38 -59,-87 -71,-149 -13,-66 -9,-117 12,-155 20,-38 55,-56 104,-56 47,0 88,19 124,57 35,37 59,88 72,154 11,59 7,109 -13,149 -19,36 -53,54 -103,54 m 14,71 H 659 L 642,457 H 541 C 566,406 572,345 559,273 541,183 505,113 451,63 396,12 329,-13 251,-13 173,-13 116,12 82,63 47,113 39,183 57,273 c 17,90 53,160 107,211 45,42 111,63 197,63" /></g></g></g><g
           transform="matrix(0.01,0,0,0.01,79.34668,0.40625)"
           id="g372"><g
             id="g374"><g
               clip-path="url(#clipPath380)"
               id="g376"><path
                 id="path382"
                 style="fill:#000000;fill-opacity:1;fill-rule:nonzero;stroke:none"
                 d="m 347,476 c -50,0 -92,-18 -125,-54 -36,-38 -59,-87 -71,-149 -13,-66 -9,-117 12,-155 20,-38 55,-56 104,-56 47,0 88,19 124,57 35,37 59,88 72,154 11,59 7,109 -13,149 -19,36 -53,54 -103,54 m 14,71 H 659 L 642,457 H 541 C 566,406 572,345 559,273 541,183 505,113 451,63 396,12 329,-13 251,-13 173,-13 116,12 82,63 47,113 39,183 57,273 c 17,90 53,160 107,211 45,42 111,63 197,63" /></g></g></g></g></g><g
       id="g384"><g
         clip-path="url(#clipPath390)"
         id="g386"><path
           id="path392"
           style="fill:none;stroke:#1f77b4;stroke-width:1.5;stroke-linecap:square;stroke-linejoin:round;stroke-miterlimit:10;stroke-dasharray:none;stroke-opacity:1"
           d="M 63.972273,101.42434 131.37805,83.715017 200.76063,105.17494 266.88119,93.766895 333.21773,54.372007" /><g
           transform="translate(63.972273,101.42434)"
           id="g394"><g
             id="g396"><g
               clip-path="url(#clipPath402)"
               id="g398"><path
                 id="path404"
                 style="fill:#1f77b4;fill-opacity:1;fill-rule:nonzero;stroke:#1f77b4;stroke-width:1;stroke-linecap:butt;stroke-linejoin:round;stroke-miterlimit:10;stroke-dasharray:none;stroke-opacity:1"
                 d="M -3,-3 3,3 M -3,3 3,-3" /></g></g><g
             transform="translate(67.405774,-17.709326)"
             id="g406"><g
               id="g408"><g
                 clip-path="url(#clipPath414)"
                 id="g410"><path
                   id="path416"
                   style="fill:#1f77b4;fill-opacity:1;fill-rule:nonzero;stroke:#1f77b4;stroke-width:1;stroke-linecap:butt;stroke-linejoin:round;stroke-miterlimit:10;stroke-dasharray:none;stroke-opacity:1"
                   d="M -3,-3 3,3 M -3,3 3,-3" /></g></g><g
               transform="translate(69.382581,21.459928)"
               id="g418"><g
                 id="g420"><g
                   clip-path="url(#clipPath426)"
                   id="g422"><path
                     id="path428"
                     style="fill:#1f77b4;fill-opacity:1;fill-rule:nonzero;stroke:#1f77b4;stroke-width:1;stroke-linecap:butt;stroke-linejoin:round;stroke-miterlimit:10;stroke-dasharray:none;stroke-opacity:1"
                     d="M -3,-3 3,3 M -3,3 3,-3" /></g></g><g
                 transform="translate(66.120559,-11.40805)"
                 id="g430"><g
                   id="g432"><g
                     clip-path="url(#clipPath438)"
                     id="g434"><path
                       id="path440"
                       style="fill:#1f77b4;fill-opacity:1;fill-rule:nonzero;stroke:#1f77b4;stroke-width:1;stroke-linecap:butt;stroke-linejoin:round;stroke-miterlimit:10;stroke-dasharray:none;stroke-opacity:1"
                       d="M -3,-3 3,3 M -3,3 3,-3" /></g></g><g
                   transform="translate(66.336541,-39.394888)"
                   id="g442"><g
                     id="g444"><g
                       clip-path="url(#clipPath450)"
                       id="g446"><path
                         id="path452"
                         style="fill:#1f77b4;fill-opacity:1;fill-rule:nonzero;stroke:#1f77b4;stroke-width:1;stroke-linecap:butt;stroke-linejoin:round;stroke-miterlimit:10;stroke-dasharray:none;stroke-opacity:1"
                         d="M -3,-3 3,3 M -3,3 3,-3" /></g></g></g></g></g></g></g></g></g><g
       id="g454"><g
         clip-path="url(#clipPath460)"
         id="g456"><path
           id="path462"
           style="fill:none;stroke:#000000;stroke-width:0.89999998;stroke-linecap:butt;stroke-linejoin:round;stroke-miterlimit:10;stroke-dasharray:3.33, 1.44;stroke-dashoffset:0;stroke-opacity:0.5"
           d="M 50.51,46.61595 H 346.68" /></g></g><g
       id="g464"><path
         id="path466"
         style="fill:none;stroke:#000000;stroke-width:0.80000001;stroke-linecap:square;stroke-linejoin:miter;stroke-miterlimit:10;stroke-dasharray:none;stroke-opacity:1"
         d="m 50.51,43.688 v 64.41489" /><path
         id="path468"
         style="fill:none;stroke:#000000;stroke-width:0.80000001;stroke-linecap:square;stroke-linejoin:miter;stroke-miterlimit:10;stroke-dasharray:none;stroke-opacity:1"
         d="m 346.68,43.688 v 64.41489" /><path
         id="path470"
         style="fill:none;stroke:#000000;stroke-width:0.80000001;stroke-linecap:square;stroke-linejoin:miter;stroke-miterlimit:10;stroke-dasharray:none;stroke-opacity:1"
         d="M 50.51,43.688 H 346.68" /><path
         id="path472"
         style="fill:none;stroke:#000000;stroke-width:0.80000001;stroke-linecap:square;stroke-linejoin:miter;stroke-miterlimit:10;stroke-dasharray:none;stroke-opacity:1"
         d="M 50.51,108.10289 H 346.68" /></g></g></svg>