<?xml version="1.0" encoding="UTF-8" standalone="no"?>
<svg
   xmlns:dc="http://purl.org/dc/elements/1.1/"
   xmlns:cc="http://creativecommons.org/ns#"
   xmlns:rdf="http://www.w3.org/1999/02/22-rdf-syntax-ns#"
   xmlns:svg="http://www.w3.org/2000/svg"
   xmlns="http://www.w3.org/2000/svg"
   viewBox="0 0 576 384"
   height="384"
   width="576"
   xml:space="preserve"
   id="svg2"
   version="1.1"><metadata
     id="metadata8"><rdf:RDF><cc:Work
         rdf:about=""><dc:format>image/svg+xml</dc:format><dc:type
           rdf:resource="http://purl.org/dc/dcmitype/StillImage" /></cc:Work></rdf:RDF></metadata><defs
     id="defs6"><clipPath
       id="clipPath196"
       clipPathUnits="userSpaceOnUse"><path
         id="path194"
         d="M 540,360 H 3888 V 2534 H 540 Z" /></clipPath></defs><g
     transform="matrix(1.3333333,0,0,-1.3333333,0,384)"
     id="g10"><g
       transform="scale(0.1)"
       id="g12"><path
         id="path14"
         style="fill:#ffffff;fill-opacity:1;fill-rule:nonzero;stroke:none"
         d="M 0,0 H 4320 V 2880 H 0 Z" /><path
         id="path16"
         style="fill:#ffffff;fill-opacity:1;fill-rule:nonzero;stroke:none"
         d="M 540,360 H 3888 V 2534.4 H 540 Z" /><path
         id="path18"
         style="fill:#000000;fill-opacity:1;fill-rule:nonzero;stroke:none"
         d="M 570.938,360 V 325" /><path
         id="path20"
         style="fill:none;stroke:#000000;stroke-width:8;stroke-linecap:butt;stroke-linejoin:round;stroke-miterlimit:10;stroke-dasharray:none;stroke-opacity:1"
         d="M 570.938,360 V 325" /><g
         transform="scale(10)"
         id="g22"><text
           id="text26"
           style="font-variant:normal;font-weight:normal;font-size:10px;font-family:Arial;-inkscape-font-specification:Arial;writing-mode:lr-tb;fill:#000000;fill-opacity:1;fill-rule:nonzero;stroke:none"
           transform="matrix(1,0,0,-1,44.375,21.4063)"><tspan
             id="tspan24"
             y="0"
             x="0 6.3621087 12.724611 19.086723">1520</tspan></text>
</g><path
         id="path28"
         style="fill:#000000;fill-opacity:1;fill-rule:nonzero;stroke:none"
         d="M 1105.85,360 V 325" /><path
         id="path30"
         style="fill:none;stroke:#000000;stroke-width:8;stroke-linecap:butt;stroke-linejoin:round;stroke-miterlimit:10;stroke-dasharray:none;stroke-opacity:1"
         d="M 1105.85,360 V 325" /><g
         transform="scale(10)"
         id="g32"><text
           id="text36"
           style="font-variant:normal;font-weight:normal;font-size:10px;font-family:Arial;-inkscape-font-specification:Arial;writing-mode:lr-tb;fill:#000000;fill-opacity:1;fill-rule:nonzero;stroke:none"
           transform="matrix(1,0,0,-1,97.8656,21.4063)"><tspan
             id="tspan34"
             y="0"
             x="0 6.3625026 12.724614 19.087116">1540</tspan></text>
</g><path
         id="path38"
         style="fill:#000000;fill-opacity:1;fill-rule:nonzero;stroke:none"
         d="M 1640.76,360 V 325" /><path
         id="path40"
         style="fill:none;stroke:#000000;stroke-width:8;stroke-linecap:butt;stroke-linejoin:round;stroke-miterlimit:10;stroke-dasharray:none;stroke-opacity:1"
         d="M 1640.76,360 V 325" /><g
         transform="scale(10)"
         id="g42"><text
           id="text46"
           style="font-variant:normal;font-weight:normal;font-size:10px;font-family:Arial;-inkscape-font-specification:Arial;writing-mode:lr-tb;fill:#000000;fill-opacity:1;fill-rule:nonzero;stroke:none"
           transform="matrix(1,0,0,-1,151.357,21.4063)"><tspan
             id="tspan44"
             y="0"
             x="0 6.3625026 12.724614 19.087116">1560</tspan></text>
</g><path
         id="path48"
         style="fill:#000000;fill-opacity:1;fill-rule:nonzero;stroke:none"
         d="M 2175.66,360 V 325" /><path
         id="path50"
         style="fill:none;stroke:#000000;stroke-width:8;stroke-linecap:butt;stroke-linejoin:round;stroke-miterlimit:10;stroke-dasharray:none;stroke-opacity:1"
         d="M 2175.66,360 V 325" /><g
         transform="scale(10)"
         id="g52"><text
           id="text56"
           style="font-variant:normal;font-weight:normal;font-size:10px;font-family:Arial;-inkscape-font-specification:Arial;writing-mode:lr-tb;fill:#000000;fill-opacity:1;fill-rule:nonzero;stroke:none"
           transform="matrix(1,0,0,-1,204.848,21.4063)"><tspan
             id="tspan54"
             y="0"
             x="0 6.3624902 12.72459 19.08708">1580</tspan></text>
</g><path
         id="path58"
         style="fill:#000000;fill-opacity:1;fill-rule:nonzero;stroke:none"
         d="M 2710.57,360 V 325" /><path
         id="path60"
         style="fill:none;stroke:#000000;stroke-width:8;stroke-linecap:butt;stroke-linejoin:round;stroke-miterlimit:10;stroke-dasharray:none;stroke-opacity:1"
         d="M 2710.57,360 V 325" /><g
         transform="scale(10)"
         id="g62"><text
           id="text66"
           style="font-variant:normal;font-weight:normal;font-size:10px;font-family:Arial;-inkscape-font-specification:Arial;writing-mode:lr-tb;fill:#000000;fill-opacity:1;fill-rule:nonzero;stroke:none"
           transform="matrix(1,0,0,-1,258.339,21.4063)"><tspan
             id="tspan64"
             y="0"
             x="0 6.3624902 12.72459 19.08708">1600</tspan></text>
</g><path
         id="path68"
         style="fill:#000000;fill-opacity:1;fill-rule:nonzero;stroke:none"
         d="M 3245.48,360 V 325" /><path
         id="path70"
         style="fill:none;stroke:#000000;stroke-width:8;stroke-linecap:butt;stroke-linejoin:round;stroke-miterlimit:10;stroke-dasharray:none;stroke-opacity:1"
         d="M 3245.48,360 V 325" /><g
         transform="scale(10)"
         id="g72"><text
           id="text76"
           style="font-variant:normal;font-weight:normal;font-size:10px;font-family:Arial;-inkscape-font-specification:Arial;writing-mode:lr-tb;fill:#000000;fill-opacity:1;fill-rule:nonzero;stroke:none"
           transform="matrix(1,0,0,-1,311.83,21.4063)"><tspan
             id="tspan74"
             y="0"
             x="0 6.3624902 12.72459 19.08708">1620</tspan></text>
</g><path
         id="path78"
         style="fill:#000000;fill-opacity:1;fill-rule:nonzero;stroke:none"
         d="M 3780.39,360 V 325" /><path
         id="path80"
         style="fill:none;stroke:#000000;stroke-width:8;stroke-linecap:butt;stroke-linejoin:round;stroke-miterlimit:10;stroke-dasharray:none;stroke-opacity:1"
         d="M 3780.39,360 V 325" /><g
         transform="scale(10)"
         id="g82"><text
           id="text88"
           style="font-variant:normal;font-weight:normal;font-size:10px;font-family:Arial;-inkscape-font-specification:Arial;writing-mode:lr-tb;fill:#000000;fill-opacity:1;fill-rule:nonzero;stroke:none"
           transform="matrix(1,0,0,-1,365.321,21.4063)"><tspan
             id="tspan84"
             y="0"
             x="0 6.3620996 12.72459 19.086689">1640</tspan><tspan
             id="tspan86"
             y="13.6719"
             x="-192.819 -186.72603 -180.57368 -170.83267 -164.48502 -158.33267 -154.22136 -148.09323 -144.17253 -137.83463 -133.72331 -127.57096 -124.39206 -120.49089 -113.64986 -105.94987 -98.967445">Temperature (ADC)</tspan></text>
</g><path
         id="path90"
         style="fill:#000000;fill-opacity:1;fill-rule:nonzero;stroke:none"
         d="M 540,430.879 H 505" /><path
         id="path92"
         style="fill:none;stroke:#000000;stroke-width:8;stroke-linecap:butt;stroke-linejoin:round;stroke-miterlimit:10;stroke-dasharray:none;stroke-opacity:1"
         d="M 540,430.879 H 505" /><g
         transform="scale(10)"
         id="g94"><text
           id="text98"
           style="font-variant:normal;font-weight:normal;font-size:10px;font-family:Arial;-inkscape-font-specification:Arial;writing-mode:lr-tb;fill:#000000;fill-opacity:1;fill-rule:nonzero;stroke:none"
           transform="matrix(1,0,0,-1,31.0938,39.291)"><tspan
             id="tspan96"
             y="0"
             x="0 6.3624992 9.5410166">0.4</tspan></text>
</g><path
         id="path100"
         style="fill:#000000;fill-opacity:1;fill-rule:nonzero;stroke:none"
         d="M 540,714.254 H 505" /><path
         id="path102"
         style="fill:none;stroke:#000000;stroke-width:8;stroke-linecap:butt;stroke-linejoin:round;stroke-miterlimit:10;stroke-dasharray:none;stroke-opacity:1"
         d="M 540,714.254 H 505" /><g
         transform="scale(10)"
         id="g104"><text
           id="text108"
           style="font-variant:normal;font-weight:normal;font-size:10px;font-family:Arial;-inkscape-font-specification:Arial;writing-mode:lr-tb;fill:#000000;fill-opacity:1;fill-rule:nonzero;stroke:none"
           transform="matrix(1,0,0,-1,31.0938,67.6285)"><tspan
             id="tspan106"
             y="0"
             x="0 6.3624992 9.5410166">0.5</tspan></text>
</g><path
         id="path110"
         style="fill:#000000;fill-opacity:1;fill-rule:nonzero;stroke:none"
         d="M 540,997.633 H 505" /><path
         id="path112"
         style="fill:none;stroke:#000000;stroke-width:8;stroke-linecap:butt;stroke-linejoin:round;stroke-miterlimit:10;stroke-dasharray:none;stroke-opacity:1"
         d="M 540,997.633 H 505" /><g
         transform="scale(10)"
         id="g114"><text
           id="text118"
           style="font-variant:normal;font-weight:normal;font-size:10px;font-family:Arial;-inkscape-font-specification:Arial;writing-mode:lr-tb;fill:#000000;fill-opacity:1;fill-rule:nonzero;stroke:none"
           transform="matrix(1,0,0,-1,31.0938,95.966)"><tspan
             id="tspan116"
             y="0"
             x="0 6.3624992 9.5410166">0.6</tspan></text>
</g><path
         id="path120"
         style="fill:#000000;fill-opacity:1;fill-rule:nonzero;stroke:none"
         d="M 540,1281.01 H 505" /><path
         id="path122"
         style="fill:none;stroke:#000000;stroke-width:8;stroke-linecap:butt;stroke-linejoin:round;stroke-miterlimit:10;stroke-dasharray:none;stroke-opacity:1"
         d="M 540,1281.01 H 505" /><g
         transform="scale(10)"
         id="g124"><text
           id="text128"
           style="font-variant:normal;font-weight:normal;font-size:10px;font-family:Arial;-inkscape-font-specification:Arial;writing-mode:lr-tb;fill:#000000;fill-opacity:1;fill-rule:nonzero;stroke:none"
           transform="matrix(1,0,0,-1,31.0938,124.304)"><tspan
             id="tspan126"
             y="0"
             x="0 6.3624992 9.5410166">0.7</tspan></text>
</g><path
         id="path130"
         style="fill:#000000;fill-opacity:1;fill-rule:nonzero;stroke:none"
         d="M 540,1564.38 H 505" /><path
         id="path132"
         style="fill:none;stroke:#000000;stroke-width:8;stroke-linecap:butt;stroke-linejoin:round;stroke-miterlimit:10;stroke-dasharray:none;stroke-opacity:1"
         d="M 540,1564.38 H 505" /><g
         transform="scale(10)"
         id="g134"><text
           id="text138"
           style="font-variant:normal;font-weight:normal;font-size:10px;font-family:Arial;-inkscape-font-specification:Arial;writing-mode:lr-tb;fill:#000000;fill-opacity:1;fill-rule:nonzero;stroke:none"
           transform="matrix(1,0,0,-1,31.0938,152.641)"><tspan
             id="tspan136"
             y="0"
             x="0 6.3624992 9.5410166">0.8</tspan></text>
</g><path
         id="path140"
         style="fill:#000000;fill-opacity:1;fill-rule:nonzero;stroke:none"
         d="M 540,1847.76 H 505" /><path
         id="path142"
         style="fill:none;stroke:#000000;stroke-width:8;stroke-linecap:butt;stroke-linejoin:round;stroke-miterlimit:10;stroke-dasharray:none;stroke-opacity:1"
         d="M 540,1847.76 H 505" /><g
         transform="scale(10)"
         id="g144"><text
           id="text148"
           style="font-variant:normal;font-weight:normal;font-size:10px;font-family:Arial;-inkscape-font-specification:Arial;writing-mode:lr-tb;fill:#000000;fill-opacity:1;fill-rule:nonzero;stroke:none"
           transform="matrix(1,0,0,-1,31.0938,180.979)"><tspan
             id="tspan146"
             y="0"
             x="0 6.3624992 9.5410166">0.9</tspan></text>
</g><path
         id="path150"
         style="fill:#000000;fill-opacity:1;fill-rule:nonzero;stroke:none"
         d="M 540,2131.14 H 505" /><path
         id="path152"
         style="fill:none;stroke:#000000;stroke-width:8;stroke-linecap:butt;stroke-linejoin:round;stroke-miterlimit:10;stroke-dasharray:none;stroke-opacity:1"
         d="M 540,2131.14 H 505" /><g
         transform="scale(10)"
         id="g154"><text
           id="text158"
           style="font-variant:normal;font-weight:normal;font-size:10px;font-family:Arial;-inkscape-font-specification:Arial;writing-mode:lr-tb;fill:#000000;fill-opacity:1;fill-rule:nonzero;stroke:none"
           transform="matrix(1,0,0,-1,31.0938,209.317)"><tspan
             id="tspan156"
             y="0"
             x="0 6.3624992 9.5410166">1.0</tspan></text>
</g><path
         id="path160"
         style="fill:#000000;fill-opacity:1;fill-rule:nonzero;stroke:none"
         d="M 540,2414.51 H 505" /><path
         id="path162"
         style="fill:none;stroke:#000000;stroke-width:8;stroke-linecap:butt;stroke-linejoin:round;stroke-miterlimit:10;stroke-dasharray:none;stroke-opacity:1"
         d="M 540,2414.51 H 505" /><g
         transform="scale(10)"
         id="g164"><text
           id="text168"
           style="font-variant:normal;font-weight:normal;font-size:10px;font-family:Arial;-inkscape-font-specification:Arial;writing-mode:lr-tb;fill:#000000;fill-opacity:1;fill-rule:nonzero;stroke:none"
           transform="matrix(1,0,0,-1,31.0938,237.654)"><tspan
             id="tspan166"
             y="0"
             x="0 6.3624992 9.5410166">1.1</tspan></text>
<text
           id="text172"
           style="font-variant:normal;font-weight:normal;font-size:10px;font-family:Arial;-inkscape-font-specification:Arial;writing-mode:lr-tb;fill:#000000;fill-opacity:1;fill-rule:nonzero;stroke:none"
           transform="matrix(0,1,1,0,24.7875,124.72)"><tspan
             id="tspan170"
             y="0"
             x="0">D</tspan></text>
<text
           id="text176"
           style="font-variant:normal;font-weight:normal;font-size:10px;font-family:Arial;-inkscape-font-specification:Arial;writing-mode:lr-tb;fill:#000000;fill-opacity:1;fill-rule:nonzero;stroke:none"
           transform="matrix(0,1,1,0,24.7875,135.5989)"><tspan
             id="tspan174"
             y="0"
             x="0 3.3691454">/ </tspan></text>
</g><path
         id="path178"
         style="fill:#000000;fill-opacity:1;fill-rule:nonzero;stroke:none"
         d="m 156.406,1421.46 h 6.25 v 218.609 h -6.25 z" /><g
         transform="scale(10)"
         id="g180"><text
           id="text184"
           style="font-variant:normal;font-weight:normal;font-size:10px;font-family:Arial;-inkscape-font-specification:Arial;writing-mode:lr-tb;fill:#000000;fill-opacity:1;fill-rule:nonzero;stroke:none"
           transform="matrix(0,1,1,0,24.9375,142.147)"><tspan
             id="tspan182"
             y="0"
             x="0">D</tspan></text>
<text
           id="text188"
           style="font-variant:normal;font-weight:normal;font-size:7px;font-family:Arial;-inkscape-font-specification:Arial;writing-mode:lr-tb;fill:#000000;fill-opacity:1;fill-rule:nonzero;stroke:none"
           transform="matrix(0,1,1,0,26.57813,149.847)"><tspan
             id="tspan186"
             y="0"
             x="0 3.8488281 8.1312532 11.009377">corr</tspan></text>
</g><g
         id="g190"><g
           clip-path="url(#clipPath196)"
           id="g192"><path
             id="path198"
             style="fill:none;stroke:#1f77b4;stroke-width:15;stroke-linecap:square;stroke-linejoin:round;stroke-miterlimit:10;stroke-dasharray:none;stroke-opacity:1"
             d="m 3735.82,2099.79 -298.66,77.03 -215.75,38.24 -378,-50.08 -277.26,-11.66 -214.86,-100.34 -197.91,-393.09 -170.28,-225.92 -207.72,21.23 -90.05,-67.05 -179.19,-23.06 -111.44,-93.66 -120.36,-109.22 -25.85,-175.331 -131.95,-175.027 -57.05,-136.504 11.59,7.847 -78.459,-36.761 -54.379,-13.797 -67.758,-12.336 -23.179,-62.645 -63.297,12.282 -34.77,-111.102 1.785,29.363 -58.839,64.735 17.828,-26.039" /><path
             id="path200"
             style="fill:#1f77b4;fill-opacity:1;fill-rule:nonzero;stroke:none"
             d="m 3705.82,2069.79 60,60 m -60,0 60,-60" /><path
             id="path202"
             style="fill:none;stroke:#1f77b4;stroke-width:10;stroke-linecap:butt;stroke-linejoin:round;stroke-miterlimit:10;stroke-dasharray:none;stroke-opacity:1"
             d="m 3705.82,2069.79 60,60 m -60,0 60,-60" /><path
             id="path204"
             style="fill:#1f77b4;fill-opacity:1;fill-rule:nonzero;stroke:none"
             d="m 3407.16,2146.82 60,60 m -60,0 60,-60" /><path
             id="path206"
             style="fill:none;stroke:#1f77b4;stroke-width:10;stroke-linecap:butt;stroke-linejoin:round;stroke-miterlimit:10;stroke-dasharray:none;stroke-opacity:1"
             d="m 3407.16,2146.82 60,60 m -60,0 60,-60" /><path
             id="path208"
             style="fill:#1f77b4;fill-opacity:1;fill-rule:nonzero;stroke:none"
             d="m 3191.41,2185.06 60,60 m -60,0 60,-60" /><path
             id="path210"
             style="fill:none;stroke:#1f77b4;stroke-width:10;stroke-linecap:butt;stroke-linejoin:round;stroke-miterlimit:10;stroke-dasharray:none;stroke-opacity:1"
             d="m 3191.41,2185.06 60,60 m -60,0 60,-60" /><path
             id="path212"
             style="fill:#1f77b4;fill-opacity:1;fill-rule:nonzero;stroke:none"
             d="m 2813.41,2134.98 60,60 m -60,0 60,-60" /><path
             id="path214"
             style="fill:none;stroke:#1f77b4;stroke-width:10;stroke-linecap:butt;stroke-linejoin:round;stroke-miterlimit:10;stroke-dasharray:none;stroke-opacity:1"
             d="m 2813.41,2134.98 60,60 m -60,0 60,-60" /><path
             id="path216"
             style="fill:#1f77b4;fill-opacity:1;fill-rule:nonzero;stroke:none"
             d="m 2536.15,2123.32 60,60 m -60,0 60,-60" /><path
             id="path218"
             style="fill:none;stroke:#1f77b4;stroke-width:10;stroke-linecap:butt;stroke-linejoin:round;stroke-miterlimit:10;stroke-dasharray:none;stroke-opacity:1"
             d="m 2536.15,2123.32 60,60 m -60,0 60,-60" /><path
             id="path220"
             style="fill:#1f77b4;fill-opacity:1;fill-rule:nonzero;stroke:none"
             d="m 2321.29,2022.98 60,60 m -60,0 60,-60" /><path
             id="path222"
             style="fill:none;stroke:#1f77b4;stroke-width:10;stroke-linecap:butt;stroke-linejoin:round;stroke-miterlimit:10;stroke-dasharray:none;stroke-opacity:1"
             d="m 2321.29,2022.98 60,60 m -60,0 60,-60" /><path
             id="path224"
             style="fill:#1f77b4;fill-opacity:1;fill-rule:nonzero;stroke:none"
             d="m 2123.38,1629.89 60,60 m -60,0 60,-60" /><path
             id="path226"
             style="fill:none;stroke:#1f77b4;stroke-width:10;stroke-linecap:butt;stroke-linejoin:round;stroke-miterlimit:10;stroke-dasharray:none;stroke-opacity:1"
             d="m 2123.38,1629.89 60,60 m -60,0 60,-60" /><path
             id="path228"
             style="fill:#1f77b4;fill-opacity:1;fill-rule:nonzero;stroke:none"
             d="m 1953.1,1403.97 60,60 m -60,0 60,-60" /><path
             id="path230"
             style="fill:none;stroke:#1f77b4;stroke-width:10;stroke-linecap:butt;stroke-linejoin:round;stroke-miterlimit:10;stroke-dasharray:none;stroke-opacity:1"
             d="m 1953.1,1403.97 60,60 m -60,0 60,-60" /><path
             id="path232"
             style="fill:#1f77b4;fill-opacity:1;fill-rule:nonzero;stroke:none"
             d="m 1745.37,1425.19 60,60 m -60,0 60,-60" /><path
             id="path234"
             style="fill:none;stroke:#1f77b4;stroke-width:10;stroke-linecap:butt;stroke-linejoin:round;stroke-miterlimit:10;stroke-dasharray:none;stroke-opacity:1"
             d="m 1745.37,1425.19 60,60 m -60,0 60,-60" /><path
             id="path236"
             style="fill:#1f77b4;fill-opacity:1;fill-rule:nonzero;stroke:none"
             d="m 1655.33,1358.15 60,60 m -60,0 60,-60" /><path
             id="path238"
             style="fill:none;stroke:#1f77b4;stroke-width:10;stroke-linecap:butt;stroke-linejoin:round;stroke-miterlimit:10;stroke-dasharray:none;stroke-opacity:1"
             d="m 1655.33,1358.15 60,60 m -60,0 60,-60" /><path
             id="path240"
             style="fill:#1f77b4;fill-opacity:1;fill-rule:nonzero;stroke:none"
             d="m 1476.14,1335.09 60,60 m -60,0 60,-60" /><path
             id="path242"
             style="fill:none;stroke:#1f77b4;stroke-width:10;stroke-linecap:butt;stroke-linejoin:round;stroke-miterlimit:10;stroke-dasharray:none;stroke-opacity:1"
             d="m 1476.14,1335.09 60,60 m -60,0 60,-60" /><path
             id="path244"
             style="fill:#1f77b4;fill-opacity:1;fill-rule:nonzero;stroke:none"
             d="m 1364.7,1241.43 60,60 m -60,0 60,-60" /><path
             id="path246"
             style="fill:none;stroke:#1f77b4;stroke-width:10;stroke-linecap:butt;stroke-linejoin:round;stroke-miterlimit:10;stroke-dasharray:none;stroke-opacity:1"
             d="m 1364.7,1241.43 60,60 m -60,0 60,-60" /><path
             id="path248"
             style="fill:#1f77b4;fill-opacity:1;fill-rule:nonzero;stroke:none"
             d="m 1244.34,1132.21 60,60 m -60,0 60,-60" /><path
             id="path250"
             style="fill:none;stroke:#1f77b4;stroke-width:10;stroke-linecap:butt;stroke-linejoin:round;stroke-miterlimit:10;stroke-dasharray:none;stroke-opacity:1"
             d="m 1244.34,1132.21 60,60 m -60,0 60,-60" /><path
             id="path252"
             style="fill:#1f77b4;fill-opacity:1;fill-rule:nonzero;stroke:none"
             d="m 1218.49,956.879 60,60.001 m -60,0 60,-60.001" /><path
             id="path254"
             style="fill:none;stroke:#1f77b4;stroke-width:10;stroke-linecap:butt;stroke-linejoin:round;stroke-miterlimit:10;stroke-dasharray:none;stroke-opacity:1"
             d="m 1218.49,956.879 60,60.001 m -60,0 60,-60.001" /><path
             id="path256"
             style="fill:#1f77b4;fill-opacity:1;fill-rule:nonzero;stroke:none"
             d="m 1086.54,781.852 60,60 m -60,0 60,-60" /><path
             id="path258"
             style="fill:none;stroke:#1f77b4;stroke-width:10;stroke-linecap:butt;stroke-linejoin:round;stroke-miterlimit:10;stroke-dasharray:none;stroke-opacity:1"
             d="m 1086.54,781.852 60,60 m -60,0 60,-60" /><path
             id="path260"
             style="fill:#1f77b4;fill-opacity:1;fill-rule:nonzero;stroke:none"
             d="m 1029.49,645.348 60,60 m -60,0 60,-60" /><path
             id="path262"
             style="fill:none;stroke:#1f77b4;stroke-width:10;stroke-linecap:butt;stroke-linejoin:round;stroke-miterlimit:10;stroke-dasharray:none;stroke-opacity:1"
             d="m 1029.49,645.348 60,60 m -60,0 60,-60" /><path
             id="path264"
             style="fill:#1f77b4;fill-opacity:1;fill-rule:nonzero;stroke:none"
             d="m 1041.08,653.191 60,60 m -60,0 60,-60" /><path
             id="path266"
             style="fill:none;stroke:#1f77b4;stroke-width:10;stroke-linecap:butt;stroke-linejoin:round;stroke-miterlimit:10;stroke-dasharray:none;stroke-opacity:1"
             d="m 1041.08,653.191 60,60 m -60,0 60,-60" /><path
             id="path268"
             style="fill:#1f77b4;fill-opacity:1;fill-rule:nonzero;stroke:none"
             d="m 962.621,616.434 59.999,60 m -59.999,0 59.999,-60" /><path
             id="path270"
             style="fill:none;stroke:#1f77b4;stroke-width:10;stroke-linecap:butt;stroke-linejoin:round;stroke-miterlimit:10;stroke-dasharray:none;stroke-opacity:1"
             d="m 962.621,616.434 59.999,60 m -59.999,0 59.999,-60" /><path
             id="path272"
             style="fill:#1f77b4;fill-opacity:1;fill-rule:nonzero;stroke:none"
             d="m 908.238,602.637 60,60 m -60,0 60,-60" /><path
             id="path274"
             style="fill:none;stroke:#1f77b4;stroke-width:10;stroke-linecap:butt;stroke-linejoin:round;stroke-miterlimit:10;stroke-dasharray:none;stroke-opacity:1"
             d="m 908.238,602.637 60,60 m -60,0 60,-60" /><path
             id="path276"
             style="fill:#1f77b4;fill-opacity:1;fill-rule:nonzero;stroke:none"
             d="m 840.484,590.301 60,60 m -60,0 60,-60" /><path
             id="path278"
             style="fill:none;stroke:#1f77b4;stroke-width:10;stroke-linecap:butt;stroke-linejoin:round;stroke-miterlimit:10;stroke-dasharray:none;stroke-opacity:1"
             d="m 840.484,590.301 60,60 m -60,0 60,-60" /><path
             id="path280"
             style="fill:#1f77b4;fill-opacity:1;fill-rule:nonzero;stroke:none"
             d="m 817.305,527.656 60,60 m -60,0 60,-60" /><path
             id="path282"
             style="fill:none;stroke:#1f77b4;stroke-width:10;stroke-linecap:butt;stroke-linejoin:round;stroke-miterlimit:10;stroke-dasharray:none;stroke-opacity:1"
             d="m 817.305,527.656 60,60 m -60,0 60,-60" /><path
             id="path284"
             style="fill:#1f77b4;fill-opacity:1;fill-rule:nonzero;stroke:none"
             d="m 754.008,539.938 60,60 m -60,0 60,-60" /><path
             id="path286"
             style="fill:none;stroke:#1f77b4;stroke-width:10;stroke-linecap:butt;stroke-linejoin:round;stroke-miterlimit:10;stroke-dasharray:none;stroke-opacity:1"
             d="m 754.008,539.938 60,60 m -60,0 60,-60" /><path
             id="path288"
             style="fill:#1f77b4;fill-opacity:1;fill-rule:nonzero;stroke:none"
             d="m 719.238,428.836 60,60 m -60,0 60,-60" /><path
             id="path290"
             style="fill:none;stroke:#1f77b4;stroke-width:10;stroke-linecap:butt;stroke-linejoin:round;stroke-miterlimit:10;stroke-dasharray:none;stroke-opacity:1"
             d="m 719.238,428.836 60,60 m -60,0 60,-60" /><path
             id="path292"
             style="fill:#1f77b4;fill-opacity:1;fill-rule:nonzero;stroke:none"
             d="m 721.023,458.199 60,60 m -60,0 60,-60" /><path
             id="path294"
             style="fill:none;stroke:#1f77b4;stroke-width:10;stroke-linecap:butt;stroke-linejoin:round;stroke-miterlimit:10;stroke-dasharray:none;stroke-opacity:1"
             d="m 721.023,458.199 60,60 m -60,0 60,-60" /><path
             id="path296"
             style="fill:#1f77b4;fill-opacity:1;fill-rule:nonzero;stroke:none"
             d="m 662.184,522.934 60,60 m -60,0 60,-60" /><path
             id="path298"
             style="fill:none;stroke:#1f77b4;stroke-width:10;stroke-linecap:butt;stroke-linejoin:round;stroke-miterlimit:10;stroke-dasharray:none;stroke-opacity:1"
             d="m 662.184,522.934 60,60 m -60,0 60,-60" /><path
             id="path300"
             style="fill:#1f77b4;fill-opacity:1;fill-rule:nonzero;stroke:none"
             d="m 680.012,496.895 60,60 m -60,0 60,-60" /><path
             id="path302"
             style="fill:none;stroke:#1f77b4;stroke-width:10;stroke-linecap:butt;stroke-linejoin:round;stroke-miterlimit:10;stroke-dasharray:none;stroke-opacity:1"
             d="m 680.012,496.895 60,60 m -60,0 60,-60" /><path
             id="path304"
             style="fill:none;stroke:#2ca02c;stroke-width:15;stroke-linecap:square;stroke-linejoin:round;stroke-miterlimit:10;stroke-dasharray:none;stroke-opacity:1"
             d="m 3735.82,2314.82 -298.66,-219.48 -215.75,-119.42 -378,31.21 -277.26,181.78 -214.86,93.69 -197.91,-323.48 -170.28,-132.34 -207.72,142.95 -90.05,156.66 -179.19,309.17 -111.44,-31.26 -120.36,-4.94 -25.85,-163.81 -131.95,-56.59 -57.05,-359.94 11.59,109.44 -78.459,-66.18 -54.379,202.62 -67.758,63.81 -23.179,-17.28 -63.297,106.62 -34.77,-111.32 1.785,27.46 -58.839,169.65 17.828,27.63" /><path
             id="path306"
             style="fill:#2ca02c;fill-opacity:1;fill-rule:nonzero;stroke:none"
             d="m 3705.82,2284.82 60,60 m -60,0 60,-60" /><path
             id="path308"
             style="fill:none;stroke:#2ca02c;stroke-width:10;stroke-linecap:butt;stroke-linejoin:round;stroke-miterlimit:10;stroke-dasharray:none;stroke-opacity:1"
             d="m 3705.82,2284.82 60,60 m -60,0 60,-60" /><path
             id="path310"
             style="fill:#2ca02c;fill-opacity:1;fill-rule:nonzero;stroke:none"
             d="m 3407.16,2065.35 60,60 m -60,0 60,-60" /><path
             id="path312"
             style="fill:none;stroke:#2ca02c;stroke-width:10;stroke-linecap:butt;stroke-linejoin:round;stroke-miterlimit:10;stroke-dasharray:none;stroke-opacity:1"
             d="m 3407.16,2065.35 60,60 m -60,0 60,-60" /><path
             id="path314"
             style="fill:#2ca02c;fill-opacity:1;fill-rule:nonzero;stroke:none"
             d="m 3191.41,1945.92 60,60 m -60,0 60,-60" /><path
             id="path316"
             style="fill:none;stroke:#2ca02c;stroke-width:10;stroke-linecap:butt;stroke-linejoin:round;stroke-miterlimit:10;stroke-dasharray:none;stroke-opacity:1"
             d="m 3191.41,1945.92 60,60 m -60,0 60,-60" /><path
             id="path318"
             style="fill:#2ca02c;fill-opacity:1;fill-rule:nonzero;stroke:none"
             d="m 2813.41,1977.13 60,60 m -60,0 60,-60" /><path
             id="path320"
             style="fill:none;stroke:#2ca02c;stroke-width:10;stroke-linecap:butt;stroke-linejoin:round;stroke-miterlimit:10;stroke-dasharray:none;stroke-opacity:1"
             d="m 2813.41,1977.13 60,60 m -60,0 60,-60" /><path
             id="path322"
             style="fill:#2ca02c;fill-opacity:1;fill-rule:nonzero;stroke:none"
             d="m 2536.15,2158.91 60,60 m -60,0 60,-60" /><path
             id="path324"
             style="fill:none;stroke:#2ca02c;stroke-width:10;stroke-linecap:butt;stroke-linejoin:round;stroke-miterlimit:10;stroke-dasharray:none;stroke-opacity:1"
             d="m 2536.15,2158.91 60,60 m -60,0 60,-60" /><path
             id="path326"
             style="fill:#2ca02c;fill-opacity:1;fill-rule:nonzero;stroke:none"
             d="m 2321.29,2252.6 60,60 m -60,0 60,-60" /><path
             id="path328"
             style="fill:none;stroke:#2ca02c;stroke-width:10;stroke-linecap:butt;stroke-linejoin:round;stroke-miterlimit:10;stroke-dasharray:none;stroke-opacity:1"
             d="m 2321.29,2252.6 60,60 m -60,0 60,-60" /><path
             id="path330"
             style="fill:#2ca02c;fill-opacity:1;fill-rule:nonzero;stroke:none"
             d="m 2123.38,1929.12 60,60 m -60,0 60,-60" /><path
             id="path332"
             style="fill:none;stroke:#2ca02c;stroke-width:10;stroke-linecap:butt;stroke-linejoin:round;stroke-miterlimit:10;stroke-dasharray:none;stroke-opacity:1"
             d="m 2123.38,1929.12 60,60 m -60,0 60,-60" /><path
             id="path334"
             style="fill:#2ca02c;fill-opacity:1;fill-rule:nonzero;stroke:none"
             d="m 1953.1,1796.78 60,60 m -60,0 60,-60" /><path
             id="path336"
             style="fill:none;stroke:#2ca02c;stroke-width:10;stroke-linecap:butt;stroke-linejoin:round;stroke-miterlimit:10;stroke-dasharray:none;stroke-opacity:1"
             d="m 1953.1,1796.78 60,60 m -60,0 60,-60" /><path
             id="path338"
             style="fill:#2ca02c;fill-opacity:1;fill-rule:nonzero;stroke:none"
             d="m 1745.37,1939.72 60,60 m -60,0 60,-60" /><path
             id="path340"
             style="fill:none;stroke:#2ca02c;stroke-width:10;stroke-linecap:butt;stroke-linejoin:round;stroke-miterlimit:10;stroke-dasharray:none;stroke-opacity:1"
             d="m 1745.37,1939.72 60,60 m -60,0 60,-60" /><path
             id="path342"
             style="fill:#2ca02c;fill-opacity:1;fill-rule:nonzero;stroke:none"
             d="m 1655.33,2096.39 60,60 m -60,0 60,-60" /><path
             id="path344"
             style="fill:none;stroke:#2ca02c;stroke-width:10;stroke-linecap:butt;stroke-linejoin:round;stroke-miterlimit:10;stroke-dasharray:none;stroke-opacity:1"
             d="m 1655.33,2096.39 60,60 m -60,0 60,-60" /><path
             id="path346"
             style="fill:#2ca02c;fill-opacity:1;fill-rule:nonzero;stroke:none"
             d="m 1476.14,2405.56 60,60 m -60,0 60,-60" /><path
             id="path348"
             style="fill:none;stroke:#2ca02c;stroke-width:10;stroke-linecap:butt;stroke-linejoin:round;stroke-miterlimit:10;stroke-dasharray:none;stroke-opacity:1"
             d="m 1476.14,2405.56 60,60 m -60,0 60,-60" /><path
             id="path350"
             style="fill:#2ca02c;fill-opacity:1;fill-rule:nonzero;stroke:none"
             d="m 1364.7,2374.3 60,60 m -60,0 60,-60" /><path
             id="path352"
             style="fill:none;stroke:#2ca02c;stroke-width:10;stroke-linecap:butt;stroke-linejoin:round;stroke-miterlimit:10;stroke-dasharray:none;stroke-opacity:1"
             d="m 1364.7,2374.3 60,60 m -60,0 60,-60" /><path
             id="path354"
             style="fill:#2ca02c;fill-opacity:1;fill-rule:nonzero;stroke:none"
             d="m 1244.34,2369.36 60,60 m -60,0 60,-60" /><path
             id="path356"
             style="fill:none;stroke:#2ca02c;stroke-width:10;stroke-linecap:butt;stroke-linejoin:round;stroke-miterlimit:10;stroke-dasharray:none;stroke-opacity:1"
             d="m 1244.34,2369.36 60,60 m -60,0 60,-60" /><path
             id="path358"
             style="fill:#2ca02c;fill-opacity:1;fill-rule:nonzero;stroke:none"
             d="m 1218.49,2205.55 60,60 m -60,0 60,-60" /><path
             id="path360"
             style="fill:none;stroke:#2ca02c;stroke-width:10;stroke-linecap:butt;stroke-linejoin:round;stroke-miterlimit:10;stroke-dasharray:none;stroke-opacity:1"
             d="m 1218.49,2205.55 60,60 m -60,0 60,-60" /><path
             id="path362"
             style="fill:#2ca02c;fill-opacity:1;fill-rule:nonzero;stroke:none"
             d="m 1086.54,2148.96 60,60 m -60,0 60,-60" /><path
             id="path364"
             style="fill:none;stroke:#2ca02c;stroke-width:10;stroke-linecap:butt;stroke-linejoin:round;stroke-miterlimit:10;stroke-dasharray:none;stroke-opacity:1"
             d="m 1086.54,2148.96 60,60 m -60,0 60,-60" /><path
             id="path366"
             style="fill:#2ca02c;fill-opacity:1;fill-rule:nonzero;stroke:none"
             d="m 1029.49,1789.02 60,60 m -60,0 60,-60" /><path
             id="path368"
             style="fill:none;stroke:#2ca02c;stroke-width:10;stroke-linecap:butt;stroke-linejoin:round;stroke-miterlimit:10;stroke-dasharray:none;stroke-opacity:1"
             d="m 1029.49,1789.02 60,60 m -60,0 60,-60" /><path
             id="path370"
             style="fill:#2ca02c;fill-opacity:1;fill-rule:nonzero;stroke:none"
             d="m 1041.08,1898.46 60,60 m -60,0 60,-60" /><path
             id="path372"
             style="fill:none;stroke:#2ca02c;stroke-width:10;stroke-linecap:butt;stroke-linejoin:round;stroke-miterlimit:10;stroke-dasharray:none;stroke-opacity:1"
             d="m 1041.08,1898.46 60,60 m -60,0 60,-60" /><path
             id="path374"
             style="fill:#2ca02c;fill-opacity:1;fill-rule:nonzero;stroke:none"
             d="m 962.621,1832.28 59.999,60 m -59.999,0 59.999,-60" /><path
             id="path376"
             style="fill:none;stroke:#2ca02c;stroke-width:10;stroke-linecap:butt;stroke-linejoin:round;stroke-miterlimit:10;stroke-dasharray:none;stroke-opacity:1"
             d="m 962.621,1832.28 59.999,60 m -59.999,0 59.999,-60" /><path
             id="path378"
             style="fill:#2ca02c;fill-opacity:1;fill-rule:nonzero;stroke:none"
             d="m 908.238,2034.9 60,60 m -60,0 60,-60" /><path
             id="path380"
             style="fill:none;stroke:#2ca02c;stroke-width:10;stroke-linecap:butt;stroke-linejoin:round;stroke-miterlimit:10;stroke-dasharray:none;stroke-opacity:1"
             d="m 908.238,2034.9 60,60 m -60,0 60,-60" /><path
             id="path382"
             style="fill:#2ca02c;fill-opacity:1;fill-rule:nonzero;stroke:none"
             d="m 840.484,2098.71 60,60 m -60,0 60,-60" /><path
             id="path384"
             style="fill:none;stroke:#2ca02c;stroke-width:10;stroke-linecap:butt;stroke-linejoin:round;stroke-miterlimit:10;stroke-dasharray:none;stroke-opacity:1"
             d="m 840.484,2098.71 60,60 m -60,0 60,-60" /><path
             id="path386"
             style="fill:#2ca02c;fill-opacity:1;fill-rule:nonzero;stroke:none"
             d="m 817.305,2081.43 60,60 m -60,0 60,-60" /><path
             id="path388"
             style="fill:none;stroke:#2ca02c;stroke-width:10;stroke-linecap:butt;stroke-linejoin:round;stroke-miterlimit:10;stroke-dasharray:none;stroke-opacity:1"
             d="m 817.305,2081.43 60,60 m -60,0 60,-60" /><path
             id="path390"
             style="fill:#2ca02c;fill-opacity:1;fill-rule:nonzero;stroke:none"
             d="m 754.008,2188.05 60,60 m -60,0 60,-60" /><path
             id="path392"
             style="fill:none;stroke:#2ca02c;stroke-width:10;stroke-linecap:butt;stroke-linejoin:round;stroke-miterlimit:10;stroke-dasharray:none;stroke-opacity:1"
             d="m 754.008,2188.05 60,60 m -60,0 60,-60" /><path
             id="path394"
             style="fill:#2ca02c;fill-opacity:1;fill-rule:nonzero;stroke:none"
             d="m 719.238,2076.73 60,60 m -60,0 60,-60" /><path
             id="path396"
             style="fill:none;stroke:#2ca02c;stroke-width:10;stroke-linecap:butt;stroke-linejoin:round;stroke-miterlimit:10;stroke-dasharray:none;stroke-opacity:1"
             d="m 719.238,2076.73 60,60 m -60,0 60,-60" /><path
             id="path398"
             style="fill:#2ca02c;fill-opacity:1;fill-rule:nonzero;stroke:none"
             d="m 721.023,2104.19 60,60 m -60,0 60,-60" /><path
             id="path400"
             style="fill:none;stroke:#2ca02c;stroke-width:10;stroke-linecap:butt;stroke-linejoin:round;stroke-miterlimit:10;stroke-dasharray:none;stroke-opacity:1"
             d="m 721.023,2104.19 60,60 m -60,0 60,-60" /><path
             id="path402"
             style="fill:#2ca02c;fill-opacity:1;fill-rule:nonzero;stroke:none"
             d="m 662.184,2273.84 60,60 m -60,0 60,-60" /><path
             id="path404"
             style="fill:none;stroke:#2ca02c;stroke-width:10;stroke-linecap:butt;stroke-linejoin:round;stroke-miterlimit:10;stroke-dasharray:none;stroke-opacity:1"
             d="m 662.184,2273.84 60,60 m -60,0 60,-60" /><path
             id="path406"
             style="fill:#2ca02c;fill-opacity:1;fill-rule:nonzero;stroke:none"
             d="m 680.012,2301.47 60,60 m -60,0 60,-60" /><path
             id="path408"
             style="fill:none;stroke:#2ca02c;stroke-width:10;stroke-linecap:butt;stroke-linejoin:round;stroke-miterlimit:10;stroke-dasharray:none;stroke-opacity:1"
             d="m 680.012,2301.47 60,60 m -60,0 60,-60" /><path
             id="path410"
             style="fill:none;stroke:#000000;stroke-width:15;stroke-linecap:butt;stroke-linejoin:round;stroke-miterlimit:10;stroke-dasharray:55.5, 24;stroke-dashoffset:0;stroke-opacity:1"
             d="M 540,2131.14 H 3888" /></g></g><path
         id="path412"
         style="fill:none;stroke:#000000;stroke-width:8;stroke-linecap:square;stroke-linejoin:miter;stroke-miterlimit:10;stroke-dasharray:none;stroke-opacity:1"
         d="M 540,360 V 2534.4" /><path
         id="path414"
         style="fill:none;stroke:#000000;stroke-width:8;stroke-linecap:square;stroke-linejoin:miter;stroke-miterlimit:10;stroke-dasharray:none;stroke-opacity:1"
         d="M 3888,360 V 2534.4" /><path
         id="path416"
         style="fill:none;stroke:#000000;stroke-width:8;stroke-linecap:square;stroke-linejoin:miter;stroke-miterlimit:10;stroke-dasharray:none;stroke-opacity:1"
         d="M 540,360 H 3888" /><path
         id="path418"
         style="fill:none;stroke:#000000;stroke-width:8;stroke-linecap:square;stroke-linejoin:miter;stroke-miterlimit:10;stroke-dasharray:none;stroke-opacity:1"
         d="M 540,2534.4 H 3888" /><path
         id="path420"
         style="fill:#ffffff;fill-opacity:1;fill-rule:nonzero;stroke:none"
         d="M 2598.16,410 H 3818 c 13.33,0 20,6.668 20,20 v 283.438 c 0,13.332 -6.67,20 -20,20 H 2598.16 c -13.34,0 -20,-6.668 -20,-20 V 430 c 0,-13.332 6.66,-20 20,-20" /><path
         id="path422"
         style="fill:none;stroke:#cccccc;stroke-width:10;stroke-linecap:butt;stroke-linejoin:miter;stroke-miterlimit:10;stroke-dasharray:none;stroke-opacity:1"
         d="M 2598.16,410 H 3818 c 13.33,0 20,6.668 20,20 v 283.438 c 0,13.332 -6.67,20 -20,20 H 2598.16 c -13.34,0 -20,-6.668 -20,-20 V 430 c 0,-13.332 6.66,-20 20,-20 z" /><path
         id="path424"
         style="fill:none;stroke:#1f77b4;stroke-width:15;stroke-linecap:square;stroke-linejoin:round;stroke-miterlimit:10;stroke-dasharray:none;stroke-opacity:1"
         d="m 2618.16,652.5 h 200" /><path
         id="path426"
         style="fill:#1f77b4;fill-opacity:1;fill-rule:nonzero;stroke:none"
         d="m 2688.16,622.5 60,60 m -60,0 60,-60" /><path
         id="path428"
         style="fill:none;stroke:#1f77b4;stroke-width:10;stroke-linecap:butt;stroke-linejoin:round;stroke-miterlimit:10;stroke-dasharray:none;stroke-opacity:1"
         d="m 2688.16,622.5 60,60 m -60,0 60,-60" /><g
         transform="scale(10)"
         id="g430"><text
           id="text434"
           style="font-variant:normal;font-weight:normal;font-size:10px;font-family:Arial;-inkscape-font-specification:Arial;writing-mode:lr-tb;fill:#000000;fill-opacity:1;fill-rule:nonzero;stroke:none"
           transform="matrix(1,0,0,-1,289.816,61.75)"><tspan
             id="tspan432"
             y="0"
             x="0 7.3200002 13.657901 19.155947 25.27392 29.385239 33.496559 39.648903 45.14695 49.068047 55.22039 61.568047 64.746559 72.446556 78.564529 83.774529">Uncorrected Dose</tspan></text>
</g><path
         id="path436"
         style="fill:none;stroke:#2ca02c;stroke-width:15;stroke-linecap:square;stroke-linejoin:round;stroke-miterlimit:10;stroke-dasharray:none;stroke-opacity:1"
         d="m 2618.16,505.781 h 200" /><path
         id="path438"
         style="fill:#2ca02c;fill-opacity:1;fill-rule:nonzero;stroke:none"
         d="m 2688.16,475.781 60,60 m -60,0 60,-60" /><path
         id="path440"
         style="fill:none;stroke:#2ca02c;stroke-width:10;stroke-linecap:butt;stroke-linejoin:round;stroke-miterlimit:10;stroke-dasharray:none;stroke-opacity:1"
         d="m 2688.16,475.781 60,60 m -60,0 60,-60" /><g
         transform="scale(10)"
         id="g442"><text
           id="text446"
           style="font-variant:normal;font-weight:normal;font-size:10px;font-family:Arial;-inkscape-font-specification:Arial;writing-mode:lr-tb;fill:#000000;fill-opacity:1;fill-rule:nonzero;stroke:none"
           transform="matrix(1,0,0,-1,289.816,47.0781)"><tspan
             id="tspan444"
             y="0"
             x="0 6.9824171 13.100781 17.212099 21.323418 27.475761 32.973808 36.894516 43.04686 49.394516 52.573418 60.273418 66.391785 71.601784">Corrected Dose</tspan></text>
</g></g></g></svg>