<?xml version="1.0" encoding="UTF-8" standalone="no"?>
<svg
   xmlns:dc="http://purl.org/dc/elements/1.1/"
   xmlns:cc="http://creativecommons.org/ns#"
   xmlns:rdf="http://www.w3.org/1999/02/22-rdf-syntax-ns#"
   xmlns:svg="http://www.w3.org/2000/svg"
   xmlns="http://www.w3.org/2000/svg"
   viewBox="0 0 576 384"
   height="384"
   width="576"
   xml:space="preserve"
   id="svg2"
   version="1.1"><metadata
     id="metadata8"><rdf:RDF><cc:Work
         rdf:about=""><dc:format>image/svg+xml</dc:format><dc:type
           rdf:resource="http://purl.org/dc/dcmitype/StillImage" /></cc:Work></rdf:RDF></metadata><defs
     id="defs6"><clipPath
       id="clipPath160"
       clipPathUnits="userSpaceOnUse"><path
         id="path158"
         d="M 540,360 H 3888 V 2534 H 540 Z" /></clipPath></defs><g
     transform="matrix(1.3333333,0,0,-1.3333333,0,384)"
     id="g10"><g
       transform="scale(0.1)"
       id="g12"><path
         id="path14"
         style="fill:#ffffff;fill-opacity:1;fill-rule:nonzero;stroke:none"
         d="M 0,0 H 4320 V 2880 H 0 Z" /><path
         id="path16"
         style="fill:#ffffff;fill-opacity:1;fill-rule:nonzero;stroke:none"
         d="M 540,360 H 3888 V 2534.4 H 540 Z" /><path
         id="path18"
         style="fill:#000000;fill-opacity:1;fill-rule:nonzero;stroke:none"
         d="M 691.723,360 V 325" /><path
         id="path20"
         style="fill:none;stroke:#000000;stroke-width:8;stroke-linecap:butt;stroke-linejoin:round;stroke-miterlimit:10;stroke-dasharray:none;stroke-opacity:1"
         d="M 691.723,360 V 325" /><g
         transform="scale(10)"
         id="g22"><text
           id="text26"
           style="font-variant:normal;font-weight:normal;font-size:10px;font-family:Arial;-inkscape-font-specification:Arial;writing-mode:lr-tb;fill:#000000;fill-opacity:1;fill-rule:nonzero;stroke:none"
           transform="matrix(1,0,0,-1,65.9926,21.4063)"><tspan
             id="tspan24"
             y="0"
             x="0">0</tspan></text>
</g><path
         id="path28"
         style="fill:#000000;fill-opacity:1;fill-rule:nonzero;stroke:none"
         d="M 1269.33,360 V 325" /><path
         id="path30"
         style="fill:none;stroke:#000000;stroke-width:8;stroke-linecap:butt;stroke-linejoin:round;stroke-miterlimit:10;stroke-dasharray:none;stroke-opacity:1"
         d="M 1269.33,360 V 325" /><g
         transform="scale(10)"
         id="g32"><text
           id="text36"
           style="font-variant:normal;font-weight:normal;font-size:10px;font-family:Arial;-inkscape-font-specification:Arial;writing-mode:lr-tb;fill:#000000;fill-opacity:1;fill-rule:nonzero;stroke:none"
           transform="matrix(1,0,0,-1,120.573,21.4063)"><tspan
             id="tspan34"
             y="0"
             x="0 6.3625026">10</tspan></text>
</g><path
         id="path38"
         style="fill:#000000;fill-opacity:1;fill-rule:nonzero;stroke:none"
         d="M 1846.93,360 V 325" /><path
         id="path40"
         style="fill:none;stroke:#000000;stroke-width:8;stroke-linecap:butt;stroke-linejoin:round;stroke-miterlimit:10;stroke-dasharray:none;stroke-opacity:1"
         d="M 1846.93,360 V 325" /><g
         transform="scale(10)"
         id="g42"><text
           id="text46"
           style="font-variant:normal;font-weight:normal;font-size:10px;font-family:Arial;-inkscape-font-specification:Arial;writing-mode:lr-tb;fill:#000000;fill-opacity:1;fill-rule:nonzero;stroke:none"
           transform="matrix(1,0,0,-1,178.334,21.4063)"><tspan
             id="tspan44"
             y="0"
             x="0 6.3625026">20</tspan></text>
</g><path
         id="path48"
         style="fill:#000000;fill-opacity:1;fill-rule:nonzero;stroke:none"
         d="M 2424.54,360 V 325" /><path
         id="path50"
         style="fill:none;stroke:#000000;stroke-width:8;stroke-linecap:butt;stroke-linejoin:round;stroke-miterlimit:10;stroke-dasharray:none;stroke-opacity:1"
         d="M 2424.54,360 V 325" /><g
         transform="scale(10)"
         id="g52"><text
           id="text56"
           style="font-variant:normal;font-weight:normal;font-size:10px;font-family:Arial;-inkscape-font-specification:Arial;writing-mode:lr-tb;fill:#000000;fill-opacity:1;fill-rule:nonzero;stroke:none"
           transform="matrix(1,0,0,-1,236.095,21.4063)"><tspan
             id="tspan54"
             y="0"
             x="0 6.3624902">30</tspan></text>
</g><path
         id="path58"
         style="fill:#000000;fill-opacity:1;fill-rule:nonzero;stroke:none"
         d="M 3002.15,360 V 325" /><path
         id="path60"
         style="fill:none;stroke:#000000;stroke-width:8;stroke-linecap:butt;stroke-linejoin:round;stroke-miterlimit:10;stroke-dasharray:none;stroke-opacity:1"
         d="M 3002.15,360 V 325" /><g
         transform="scale(10)"
         id="g62"><text
           id="text66"
           style="font-variant:normal;font-weight:normal;font-size:10px;font-family:Arial;-inkscape-font-specification:Arial;writing-mode:lr-tb;fill:#000000;fill-opacity:1;fill-rule:nonzero;stroke:none"
           transform="matrix(1,0,0,-1,293.855,21.4063)"><tspan
             id="tspan64"
             y="0"
             x="0 6.3620996">40</tspan></text>
</g><path
         id="path68"
         style="fill:#000000;fill-opacity:1;fill-rule:nonzero;stroke:none"
         d="M 3579.75,360 V 325" /><path
         id="path70"
         style="fill:none;stroke:#000000;stroke-width:8;stroke-linecap:butt;stroke-linejoin:round;stroke-miterlimit:10;stroke-dasharray:none;stroke-opacity:1"
         d="M 3579.75,360 V 325" /><g
         transform="scale(10)"
         id="g72"><text
           id="text78"
           style="font-variant:normal;font-weight:normal;font-size:10px;font-family:Arial;-inkscape-font-specification:Arial;writing-mode:lr-tb;fill:#000000;fill-opacity:1;fill-rule:nonzero;stroke:none"
           transform="matrix(1,0,0,-1,351.616,21.4063)"><tspan
             id="tspan74"
             y="0"
             x="0 6.3620996">50</tspan><tspan
             id="tspan76"
             y="13.6719"
             x="-157.552 -151.44341 -148.66528 -138.92387 -132.77153 -129.59302 -125.69145 -115.95042 -113.17191 -106.83401">Time (min)</tspan></text>
</g><path
         id="path80"
         style="fill:#000000;fill-opacity:1;fill-rule:nonzero;stroke:none"
         d="M 540,382.156 H 505" /><path
         id="path82"
         style="fill:none;stroke:#000000;stroke-width:8;stroke-linecap:butt;stroke-linejoin:round;stroke-miterlimit:10;stroke-dasharray:none;stroke-opacity:1"
         d="M 540,382.156 H 505" /><g
         transform="scale(10)"
         id="g84"><text
           id="text88"
           style="font-variant:normal;font-weight:normal;font-size:10px;font-family:Arial;-inkscape-font-specification:Arial;writing-mode:lr-tb;fill:#000000;fill-opacity:1;fill-rule:nonzero;stroke:none"
           transform="matrix(1,0,0,-1,21.5625,34.4188)"><tspan
             id="tspan86"
             y="0"
             x="0 6.3624992 12.724608 19.087107">1520</tspan></text>
</g><path
         id="path90"
         style="fill:#000000;fill-opacity:1;fill-rule:nonzero;stroke:none"
         d="M 540,720.445 H 505" /><path
         id="path92"
         style="fill:none;stroke:#000000;stroke-width:8;stroke-linecap:butt;stroke-linejoin:round;stroke-miterlimit:10;stroke-dasharray:none;stroke-opacity:1"
         d="M 540,720.445 H 505" /><g
         transform="scale(10)"
         id="g94"><text
           id="text98"
           style="font-variant:normal;font-weight:normal;font-size:10px;font-family:Arial;-inkscape-font-specification:Arial;writing-mode:lr-tb;fill:#000000;fill-opacity:1;fill-rule:nonzero;stroke:none"
           transform="matrix(1,0,0,-1,21.5625,68.2477)"><tspan
             id="tspan96"
             y="0"
             x="0 6.3624992 12.724608 19.087107">1540</tspan></text>
</g><path
         id="path100"
         style="fill:#000000;fill-opacity:1;fill-rule:nonzero;stroke:none"
         d="M 540,1058.73 H 505" /><path
         id="path102"
         style="fill:none;stroke:#000000;stroke-width:8;stroke-linecap:butt;stroke-linejoin:round;stroke-miterlimit:10;stroke-dasharray:none;stroke-opacity:1"
         d="M 540,1058.73 H 505" /><g
         transform="scale(10)"
         id="g104"><text
           id="text108"
           style="font-variant:normal;font-weight:normal;font-size:10px;font-family:Arial;-inkscape-font-specification:Arial;writing-mode:lr-tb;fill:#000000;fill-opacity:1;fill-rule:nonzero;stroke:none"
           transform="matrix(1,0,0,-1,21.5625,102.077)"><tspan
             id="tspan106"
             y="0"
             x="0 6.3624992 12.724608 19.087107">1560</tspan></text>
</g><path
         id="path110"
         style="fill:#000000;fill-opacity:1;fill-rule:nonzero;stroke:none"
         d="M 540,1397.02 H 505" /><path
         id="path112"
         style="fill:none;stroke:#000000;stroke-width:8;stroke-linecap:butt;stroke-linejoin:round;stroke-miterlimit:10;stroke-dasharray:none;stroke-opacity:1"
         d="M 540,1397.02 H 505" /><g
         transform="scale(10)"
         id="g114"><text
           id="text118"
           style="font-variant:normal;font-weight:normal;font-size:10px;font-family:Arial;-inkscape-font-specification:Arial;writing-mode:lr-tb;fill:#000000;fill-opacity:1;fill-rule:nonzero;stroke:none"
           transform="matrix(1,0,0,-1,21.5625,135.905)"><tspan
             id="tspan116"
             y="0"
             x="0 6.3624992 12.724608 19.087107">1580</tspan></text>
</g><path
         id="path120"
         style="fill:#000000;fill-opacity:1;fill-rule:nonzero;stroke:none"
         d="M 540,1735.31 H 505" /><path
         id="path122"
         style="fill:none;stroke:#000000;stroke-width:8;stroke-linecap:butt;stroke-linejoin:round;stroke-miterlimit:10;stroke-dasharray:none;stroke-opacity:1"
         d="M 540,1735.31 H 505" /><g
         transform="scale(10)"
         id="g124"><text
           id="text128"
           style="font-variant:normal;font-weight:normal;font-size:10px;font-family:Arial;-inkscape-font-specification:Arial;writing-mode:lr-tb;fill:#000000;fill-opacity:1;fill-rule:nonzero;stroke:none"
           transform="matrix(1,0,0,-1,21.5625,169.734)"><tspan
             id="tspan126"
             y="0"
             x="0 6.3624992 12.724608 19.087107">1600</tspan></text>
</g><path
         id="path130"
         style="fill:#000000;fill-opacity:1;fill-rule:nonzero;stroke:none"
         d="M 540,2073.6 H 505" /><path
         id="path132"
         style="fill:none;stroke:#000000;stroke-width:8;stroke-linecap:butt;stroke-linejoin:round;stroke-miterlimit:10;stroke-dasharray:none;stroke-opacity:1"
         d="M 540,2073.6 H 505" /><g
         transform="scale(10)"
         id="g134"><text
           id="text138"
           style="font-variant:normal;font-weight:normal;font-size:10px;font-family:Arial;-inkscape-font-specification:Arial;writing-mode:lr-tb;fill:#000000;fill-opacity:1;fill-rule:nonzero;stroke:none"
           transform="matrix(1,0,0,-1,21.5625,203.563)"><tspan
             id="tspan136"
             y="0"
             x="0 6.3624992 12.724608 19.087107">1620</tspan></text>
</g><path
         id="path140"
         style="fill:#000000;fill-opacity:1;fill-rule:nonzero;stroke:none"
         d="M 540,2411.88 H 505" /><path
         id="path142"
         style="fill:none;stroke:#000000;stroke-width:8;stroke-linecap:butt;stroke-linejoin:round;stroke-miterlimit:10;stroke-dasharray:none;stroke-opacity:1"
         d="M 540,2411.88 H 505" /><g
         transform="scale(10)"
         id="g144"><text
           id="text148"
           style="font-variant:normal;font-weight:normal;font-size:10px;font-family:Arial;-inkscape-font-specification:Arial;writing-mode:lr-tb;fill:#000000;fill-opacity:1;fill-rule:nonzero;stroke:none"
           transform="matrix(1,0,0,-1,21.5625,237.391)"><tspan
             id="tspan146"
             y="0"
             x="0 6.3624992 12.724608 19.087107">1640</tspan></text>
<text
           id="text152"
           style="font-variant:normal;font-weight:normal;font-size:10px;font-family:Arial;-inkscape-font-specification:Arial;writing-mode:lr-tb;fill:#000000;fill-opacity:1;fill-rule:nonzero;stroke:none"
           transform="matrix(0,1,1,0,15.4844,95.8215)"><tspan
             id="tspan150"
             y="0"
             x="0 6.0929713 12.245315 21.986328 28.333984 34.486328 38.59766 44.72578 48.646488 54.984375 59.095707 65.248047 68.426949 72.328125 80.028122 86.868744 93.851166">Temperature (DAC)</tspan></text>
</g><g
         id="g154"><g
           clip-path="url(#clipPath160)"
           id="g156"><path
             id="path162"
             style="fill:none;stroke:#1f77b4;stroke-width:15;stroke-linecap:square;stroke-linejoin:round;stroke-miterlimit:10;stroke-dasharray:none;stroke-opacity:1"
             d="m 692.184,2435.56 117.093,-51.87 117.039,-188.87 117.084,-136.44 117.08,-239.06 117.1,-175.35 117.09,-135.88 117.06,-125.16 117.08,-107.69 117.08,-131.37 117.07,-56.95 117.08,-113.322 117.08,-70.477 117.08,-76.113 117.01,-16.352 117.08,-83.445 117.04,-36.082 117.05,7.328 117,-49.617 117.01,-34.391 117.07,-42.851 117.07,-14.657 117.07,-40.031 117.07,-21.988 117.06,1.125 117.04,-37.211 117.05,11.277" /><path
             id="path164"
             style="fill:#1f77b4;fill-opacity:1;fill-rule:nonzero;stroke:none"
             d="m 662.184,2405.56 60,60 m -60,0 60,-60" /><path
             id="path166"
             style="fill:none;stroke:#1f77b4;stroke-width:10;stroke-linecap:butt;stroke-linejoin:round;stroke-miterlimit:10;stroke-dasharray:none;stroke-opacity:1"
             d="m 662.184,2405.56 60,60 m -60,0 60,-60" /><path
             id="path168"
             style="fill:#1f77b4;fill-opacity:1;fill-rule:nonzero;stroke:none"
             d="m 779.277,2353.69 60,60 m -60,0 60,-60" /><path
             id="path170"
             style="fill:none;stroke:#1f77b4;stroke-width:10;stroke-linecap:butt;stroke-linejoin:round;stroke-miterlimit:10;stroke-dasharray:none;stroke-opacity:1"
             d="m 779.277,2353.69 60,60 m -60,0 60,-60" /><path
             id="path172"
             style="fill:#1f77b4;fill-opacity:1;fill-rule:nonzero;stroke:none"
             d="m 896.316,2164.82 60,60 m -60,0 60,-60" /><path
             id="path174"
             style="fill:none;stroke:#1f77b4;stroke-width:10;stroke-linecap:butt;stroke-linejoin:round;stroke-miterlimit:10;stroke-dasharray:none;stroke-opacity:1"
             d="m 896.316,2164.82 60,60 m -60,0 60,-60" /><path
             id="path176"
             style="fill:#1f77b4;fill-opacity:1;fill-rule:nonzero;stroke:none"
             d="m 1013.4,2028.37 60,60 m -60,0 60,-60" /><path
             id="path178"
             style="fill:none;stroke:#1f77b4;stroke-width:10;stroke-linecap:butt;stroke-linejoin:round;stroke-miterlimit:10;stroke-dasharray:none;stroke-opacity:1"
             d="m 1013.4,2028.37 60,60 m -60,0 60,-60" /><path
             id="path180"
             style="fill:#1f77b4;fill-opacity:1;fill-rule:nonzero;stroke:none"
             d="m 1130.49,1789.32 60,60 m -60,0 60,-60" /><path
             id="path182"
             style="fill:none;stroke:#1f77b4;stroke-width:10;stroke-linecap:butt;stroke-linejoin:round;stroke-miterlimit:10;stroke-dasharray:none;stroke-opacity:1"
             d="m 1130.49,1789.32 60,60 m -60,0 60,-60" /><path
             id="path184"
             style="fill:#1f77b4;fill-opacity:1;fill-rule:nonzero;stroke:none"
             d="m 1247.58,1613.97 60,60 m -60,0 60,-60" /><path
             id="path186"
             style="fill:none;stroke:#1f77b4;stroke-width:10;stroke-linecap:butt;stroke-linejoin:round;stroke-miterlimit:10;stroke-dasharray:none;stroke-opacity:1"
             d="m 1247.58,1613.97 60,60 m -60,0 60,-60" /><path
             id="path188"
             style="fill:#1f77b4;fill-opacity:1;fill-rule:nonzero;stroke:none"
             d="m 1364.67,1478.09 60,60 m -60,0 60,-60" /><path
             id="path190"
             style="fill:none;stroke:#1f77b4;stroke-width:10;stroke-linecap:butt;stroke-linejoin:round;stroke-miterlimit:10;stroke-dasharray:none;stroke-opacity:1"
             d="m 1364.67,1478.09 60,60 m -60,0 60,-60" /><path
             id="path192"
             style="fill:#1f77b4;fill-opacity:1;fill-rule:nonzero;stroke:none"
             d="m 1481.73,1352.93 60,60 m -60,0 60,-60" /><path
             id="path194"
             style="fill:none;stroke:#1f77b4;stroke-width:10;stroke-linecap:butt;stroke-linejoin:round;stroke-miterlimit:10;stroke-dasharray:none;stroke-opacity:1"
             d="m 1481.73,1352.93 60,60 m -60,0 60,-60" /><path
             id="path196"
             style="fill:#1f77b4;fill-opacity:1;fill-rule:nonzero;stroke:none"
             d="m 1598.81,1245.24 60,60 m -60,0 60,-60" /><path
             id="path198"
             style="fill:none;stroke:#1f77b4;stroke-width:10;stroke-linecap:butt;stroke-linejoin:round;stroke-miterlimit:10;stroke-dasharray:none;stroke-opacity:1"
             d="m 1598.81,1245.24 60,60 m -60,0 60,-60" /><path
             id="path200"
             style="fill:#1f77b4;fill-opacity:1;fill-rule:nonzero;stroke:none"
             d="m 1715.89,1113.87 60,60 m -60,0 60,-60" /><path
             id="path202"
             style="fill:none;stroke:#1f77b4;stroke-width:10;stroke-linecap:butt;stroke-linejoin:round;stroke-miterlimit:10;stroke-dasharray:none;stroke-opacity:1"
             d="m 1715.89,1113.87 60,60 m -60,0 60,-60" /><path
             id="path204"
             style="fill:#1f77b4;fill-opacity:1;fill-rule:nonzero;stroke:none"
             d="m 1832.97,1056.92 60,60 m -60,0 60,-60" /><path
             id="path206"
             style="fill:none;stroke:#1f77b4;stroke-width:10;stroke-linecap:butt;stroke-linejoin:round;stroke-miterlimit:10;stroke-dasharray:none;stroke-opacity:1"
             d="m 1832.97,1056.92 60,60 m -60,0 60,-60" /><path
             id="path208"
             style="fill:#1f77b4;fill-opacity:1;fill-rule:nonzero;stroke:none"
             d="m 1950.04,943.598 60,60.002 m -60,0 60,-60.002" /><path
             id="path210"
             style="fill:none;stroke:#1f77b4;stroke-width:10;stroke-linecap:butt;stroke-linejoin:round;stroke-miterlimit:10;stroke-dasharray:none;stroke-opacity:1"
             d="m 1950.04,943.598 60,60.002 m -60,0 60,-60.002" /><path
             id="path212"
             style="fill:#1f77b4;fill-opacity:1;fill-rule:nonzero;stroke:none"
             d="m 2067.12,873.121 60,60 m -60,0 60,-60" /><path
             id="path214"
             style="fill:none;stroke:#1f77b4;stroke-width:10;stroke-linecap:butt;stroke-linejoin:round;stroke-miterlimit:10;stroke-dasharray:none;stroke-opacity:1"
             d="m 2067.12,873.121 60,60 m -60,0 60,-60" /><path
             id="path216"
             style="fill:#1f77b4;fill-opacity:1;fill-rule:nonzero;stroke:none"
             d="m 2184.19,797.008 60,60 m -60,0 60,-60" /><path
             id="path218"
             style="fill:none;stroke:#1f77b4;stroke-width:10;stroke-linecap:butt;stroke-linejoin:round;stroke-miterlimit:10;stroke-dasharray:none;stroke-opacity:1"
             d="m 2184.19,797.008 60,60 m -60,0 60,-60" /><path
             id="path220"
             style="fill:#1f77b4;fill-opacity:1;fill-rule:nonzero;stroke:none"
             d="m 2301.21,780.656 60,60 m -60,0 60,-60" /><path
             id="path222"
             style="fill:none;stroke:#1f77b4;stroke-width:10;stroke-linecap:butt;stroke-linejoin:round;stroke-miterlimit:10;stroke-dasharray:none;stroke-opacity:1"
             d="m 2301.21,780.656 60,60 m -60,0 60,-60" /><path
             id="path224"
             style="fill:#1f77b4;fill-opacity:1;fill-rule:nonzero;stroke:none"
             d="m 2418.29,697.211 60,60 m -60,0 60,-60" /><path
             id="path226"
             style="fill:none;stroke:#1f77b4;stroke-width:10;stroke-linecap:butt;stroke-linejoin:round;stroke-miterlimit:10;stroke-dasharray:none;stroke-opacity:1"
             d="m 2418.29,697.211 60,60 m -60,0 60,-60" /><path
             id="path228"
             style="fill:#1f77b4;fill-opacity:1;fill-rule:nonzero;stroke:none"
             d="m 2535.33,661.129 60,60 m -60,0 60,-60" /><path
             id="path230"
             style="fill:none;stroke:#1f77b4;stroke-width:10;stroke-linecap:butt;stroke-linejoin:round;stroke-miterlimit:10;stroke-dasharray:none;stroke-opacity:1"
             d="m 2535.33,661.129 60,60 m -60,0 60,-60" /><path
             id="path232"
             style="fill:#1f77b4;fill-opacity:1;fill-rule:nonzero;stroke:none"
             d="m 2652.38,668.457 60,60 m -60,0 60,-60" /><path
             id="path234"
             style="fill:none;stroke:#1f77b4;stroke-width:10;stroke-linecap:butt;stroke-linejoin:round;stroke-miterlimit:10;stroke-dasharray:none;stroke-opacity:1"
             d="m 2652.38,668.457 60,60 m -60,0 60,-60" /><path
             id="path236"
             style="fill:#1f77b4;fill-opacity:1;fill-rule:nonzero;stroke:none"
             d="m 2769.37,618.84 60,60 m -60,0 60,-60" /><path
             id="path238"
             style="fill:none;stroke:#1f77b4;stroke-width:10;stroke-linecap:butt;stroke-linejoin:round;stroke-miterlimit:10;stroke-dasharray:none;stroke-opacity:1"
             d="m 2769.37,618.84 60,60 m -60,0 60,-60" /><path
             id="path240"
             style="fill:#1f77b4;fill-opacity:1;fill-rule:nonzero;stroke:none"
             d="m 2886.39,584.449 60,60 m -60,0 60,-60" /><path
             id="path242"
             style="fill:none;stroke:#1f77b4;stroke-width:10;stroke-linecap:butt;stroke-linejoin:round;stroke-miterlimit:10;stroke-dasharray:none;stroke-opacity:1"
             d="m 2886.39,584.449 60,60 m -60,0 60,-60" /><path
             id="path244"
             style="fill:#1f77b4;fill-opacity:1;fill-rule:nonzero;stroke:none"
             d="m 3003.46,541.598 60,60 m -60,0 60,-60" /><path
             id="path246"
             style="fill:none;stroke:#1f77b4;stroke-width:10;stroke-linecap:butt;stroke-linejoin:round;stroke-miterlimit:10;stroke-dasharray:none;stroke-opacity:1"
             d="m 3003.46,541.598 60,60 m -60,0 60,-60" /><path
             id="path248"
             style="fill:#1f77b4;fill-opacity:1;fill-rule:nonzero;stroke:none"
             d="m 3120.53,526.941 60,60 m -60,0 60,-60" /><path
             id="path250"
             style="fill:none;stroke:#1f77b4;stroke-width:10;stroke-linecap:butt;stroke-linejoin:round;stroke-miterlimit:10;stroke-dasharray:none;stroke-opacity:1"
             d="m 3120.53,526.941 60,60 m -60,0 60,-60" /><path
             id="path252"
             style="fill:#1f77b4;fill-opacity:1;fill-rule:nonzero;stroke:none"
             d="m 3237.6,486.91 60,60 m -60,0 60,-60" /><path
             id="path254"
             style="fill:none;stroke:#1f77b4;stroke-width:10;stroke-linecap:butt;stroke-linejoin:round;stroke-miterlimit:10;stroke-dasharray:none;stroke-opacity:1"
             d="m 3237.6,486.91 60,60 m -60,0 60,-60" /><path
             id="path256"
             style="fill:#1f77b4;fill-opacity:1;fill-rule:nonzero;stroke:none"
             d="m 3354.67,464.922 60,60 m -60,0 60,-60" /><path
             id="path258"
             style="fill:none;stroke:#1f77b4;stroke-width:10;stroke-linecap:butt;stroke-linejoin:round;stroke-miterlimit:10;stroke-dasharray:none;stroke-opacity:1"
             d="m 3354.67,464.922 60,60 m -60,0 60,-60" /><path
             id="path260"
             style="fill:#1f77b4;fill-opacity:1;fill-rule:nonzero;stroke:none"
             d="m 3471.73,466.047 60,60 m -60,0 60,-60" /><path
             id="path262"
             style="fill:none;stroke:#1f77b4;stroke-width:10;stroke-linecap:butt;stroke-linejoin:round;stroke-miterlimit:10;stroke-dasharray:none;stroke-opacity:1"
             d="m 3471.73,466.047 60,60 m -60,0 60,-60" /><path
             id="path264"
             style="fill:#1f77b4;fill-opacity:1;fill-rule:nonzero;stroke:none"
             d="m 3588.77,428.836 60,60 m -60,0 60,-60" /><path
             id="path266"
             style="fill:none;stroke:#1f77b4;stroke-width:10;stroke-linecap:butt;stroke-linejoin:round;stroke-miterlimit:10;stroke-dasharray:none;stroke-opacity:1"
             d="m 3588.77,428.836 60,60 m -60,0 60,-60" /><path
             id="path268"
             style="fill:#1f77b4;fill-opacity:1;fill-rule:nonzero;stroke:none"
             d="m 3705.82,440.113 60,60 m -60,0 60,-60" /><path
             id="path270"
             style="fill:none;stroke:#1f77b4;stroke-width:10;stroke-linecap:butt;stroke-linejoin:round;stroke-miterlimit:10;stroke-dasharray:none;stroke-opacity:1"
             d="m 3705.82,440.113 60,60 m -60,0 60,-60" /></g></g><path
         id="path272"
         style="fill:none;stroke:#000000;stroke-width:8;stroke-linecap:square;stroke-linejoin:miter;stroke-miterlimit:10;stroke-dasharray:none;stroke-opacity:1"
         d="M 540,360 V 2534.4" /><path
         id="path274"
         style="fill:none;stroke:#000000;stroke-width:8;stroke-linecap:square;stroke-linejoin:miter;stroke-miterlimit:10;stroke-dasharray:none;stroke-opacity:1"
         d="M 3888,360 V 2534.4" /><path
         id="path276"
         style="fill:none;stroke:#000000;stroke-width:8;stroke-linecap:square;stroke-linejoin:miter;stroke-miterlimit:10;stroke-dasharray:none;stroke-opacity:1"
         d="M 540,360 H 3888" /><path
         id="path278"
         style="fill:none;stroke:#000000;stroke-width:8;stroke-linecap:square;stroke-linejoin:miter;stroke-miterlimit:10;stroke-dasharray:none;stroke-opacity:1"
         d="M 540,2534.4 H 3888" /></g></g></svg>