<?xml version="1.0" encoding="utf-8" standalone="no"?>
<!DOCTYPE svg PUBLIC "-//W3C//DTD SVG 1.1//EN"
  "http://www.w3.org/Graphics/SVG/1.1/DTD/svg11.dtd">
<!-- Created with matplotlib (http://matplotlib.org/) -->
<svg height="288pt" version="1.1" viewBox="0 0 432 288" width="432pt" xmlns="http://www.w3.org/2000/svg" xmlns:xlink="http://www.w3.org/1999/xlink">
 <defs>
  <style type="text/css">
*{stroke-linecap:butt;stroke-linejoin:round;}
  </style>
 </defs>
 <g id="figure_1">
  <g id="patch_1">
   <path d="M 0 288 
L 432 288 
L 432 0 
L 0 0 
z
" style="fill:#ffffff;"/>
  </g>
  <g id="axes_1">
   <g id="patch_2">
    <path d="M 54 252 
L 388.8 252 
L 388.8 34.56 
L 54 34.56 
z
" style="fill:#ffffff;"/>
   </g>
   <g id="matplotlib.axis_1">
    <g id="xtick_1">
     <g id="line2d_1">
      <defs>
       <path d="M 0 0 
L 0 3.5 
" id="m741a3c322e" style="stroke:#000000;stroke-width:0.8;"/>
      </defs>
      <g>
       <use style="stroke:#000000;stroke-width:0.8;" x="82.865179" xlink:href="#m741a3c322e" y="252"/>
      </g>
     </g>
     <g id="text_1">
      <!-- 20 -->
      <defs>
       <path d="M 19.1875 8.296875 
L 53.609375 8.296875 
L 53.609375 0 
L 7.328125 0 
L 7.328125 8.296875 
Q 12.9375 14.109375 22.625 23.890625 
Q 32.328125 33.6875 34.8125 36.53125 
Q 39.546875 41.84375 41.421875 45.53125 
Q 43.3125 49.21875 43.3125 52.78125 
Q 43.3125 58.59375 39.234375 62.25 
Q 35.15625 65.921875 28.609375 65.921875 
Q 23.96875 65.921875 18.8125 64.3125 
Q 13.671875 62.703125 7.8125 59.421875 
L 7.8125 69.390625 
Q 13.765625 71.78125 18.9375 73 
Q 24.125 74.21875 28.421875 74.21875 
Q 39.75 74.21875 46.484375 68.546875 
Q 53.21875 62.890625 53.21875 53.421875 
Q 53.21875 48.921875 51.53125 44.890625 
Q 49.859375 40.875 45.40625 35.40625 
Q 44.1875 33.984375 37.640625 27.21875 
Q 31.109375 20.453125 19.1875 8.296875 
z
" id="DejaVuSans-32"/>
       <path d="M 31.78125 66.40625 
Q 24.171875 66.40625 20.328125 58.90625 
Q 16.5 51.421875 16.5 36.375 
Q 16.5 21.390625 20.328125 13.890625 
Q 24.171875 6.390625 31.78125 6.390625 
Q 39.453125 6.390625 43.28125 13.890625 
Q 47.125 21.390625 47.125 36.375 
Q 47.125 51.421875 43.28125 58.90625 
Q 39.453125 66.40625 31.78125 66.40625 
z
M 31.78125 74.21875 
Q 44.046875 74.21875 50.515625 64.515625 
Q 56.984375 54.828125 56.984375 36.375 
Q 56.984375 17.96875 50.515625 8.265625 
Q 44.046875 -1.421875 31.78125 -1.421875 
Q 19.53125 -1.421875 13.0625 8.265625 
Q 6.59375 17.96875 6.59375 36.375 
Q 6.59375 54.828125 13.0625 64.515625 
Q 19.53125 74.21875 31.78125 74.21875 
z
" id="DejaVuSans-30"/>
      </defs>
      <g transform="translate(76.502679 266.598437)scale(0.1 -0.1)">
       <use xlink:href="#DejaVuSans-32"/>
       <use x="63.623047" xlink:href="#DejaVuSans-30"/>
      </g>
     </g>
    </g>
    <g id="xtick_2">
     <g id="line2d_2">
      <g>
       <use style="stroke:#000000;stroke-width:0.8;" x="155.028128" xlink:href="#m741a3c322e" y="252"/>
      </g>
     </g>
     <g id="text_2">
      <!-- 40 -->
      <defs>
       <path d="M 37.796875 64.3125 
L 12.890625 25.390625 
L 37.796875 25.390625 
z
M 35.203125 72.90625 
L 47.609375 72.90625 
L 47.609375 25.390625 
L 58.015625 25.390625 
L 58.015625 17.1875 
L 47.609375 17.1875 
L 47.609375 0 
L 37.796875 0 
L 37.796875 17.1875 
L 4.890625 17.1875 
L 4.890625 26.703125 
z
" id="DejaVuSans-34"/>
      </defs>
      <g transform="translate(148.665628 266.598437)scale(0.1 -0.1)">
       <use xlink:href="#DejaVuSans-34"/>
       <use x="63.623047" xlink:href="#DejaVuSans-30"/>
      </g>
     </g>
    </g>
    <g id="xtick_3">
     <g id="line2d_3">
      <g>
       <use style="stroke:#000000;stroke-width:0.8;" x="227.191077" xlink:href="#m741a3c322e" y="252"/>
      </g>
     </g>
     <g id="text_3">
      <!-- 60 -->
      <defs>
       <path d="M 33.015625 40.375 
Q 26.375 40.375 22.484375 35.828125 
Q 18.609375 31.296875 18.609375 23.390625 
Q 18.609375 15.53125 22.484375 10.953125 
Q 26.375 6.390625 33.015625 6.390625 
Q 39.65625 6.390625 43.53125 10.953125 
Q 47.40625 15.53125 47.40625 23.390625 
Q 47.40625 31.296875 43.53125 35.828125 
Q 39.65625 40.375 33.015625 40.375 
z
M 52.59375 71.296875 
L 52.59375 62.3125 
Q 48.875 64.0625 45.09375 64.984375 
Q 41.3125 65.921875 37.59375 65.921875 
Q 27.828125 65.921875 22.671875 59.328125 
Q 17.53125 52.734375 16.796875 39.40625 
Q 19.671875 43.65625 24.015625 45.921875 
Q 28.375 48.1875 33.59375 48.1875 
Q 44.578125 48.1875 50.953125 41.515625 
Q 57.328125 34.859375 57.328125 23.390625 
Q 57.328125 12.15625 50.6875 5.359375 
Q 44.046875 -1.421875 33.015625 -1.421875 
Q 20.359375 -1.421875 13.671875 8.265625 
Q 6.984375 17.96875 6.984375 36.375 
Q 6.984375 53.65625 15.1875 63.9375 
Q 23.390625 74.21875 37.203125 74.21875 
Q 40.921875 74.21875 44.703125 73.484375 
Q 48.484375 72.75 52.59375 71.296875 
z
" id="DejaVuSans-36"/>
      </defs>
      <g transform="translate(220.828577 266.598437)scale(0.1 -0.1)">
       <use xlink:href="#DejaVuSans-36"/>
       <use x="63.623047" xlink:href="#DejaVuSans-30"/>
      </g>
     </g>
    </g>
    <g id="xtick_4">
     <g id="line2d_4">
      <g>
       <use style="stroke:#000000;stroke-width:0.8;" x="299.354025" xlink:href="#m741a3c322e" y="252"/>
      </g>
     </g>
     <g id="text_4">
      <!-- 80 -->
      <defs>
       <path d="M 31.78125 34.625 
Q 24.75 34.625 20.71875 30.859375 
Q 16.703125 27.09375 16.703125 20.515625 
Q 16.703125 13.921875 20.71875 10.15625 
Q 24.75 6.390625 31.78125 6.390625 
Q 38.8125 6.390625 42.859375 10.171875 
Q 46.921875 13.96875 46.921875 20.515625 
Q 46.921875 27.09375 42.890625 30.859375 
Q 38.875 34.625 31.78125 34.625 
z
M 21.921875 38.8125 
Q 15.578125 40.375 12.03125 44.71875 
Q 8.5 49.078125 8.5 55.328125 
Q 8.5 64.0625 14.71875 69.140625 
Q 20.953125 74.21875 31.78125 74.21875 
Q 42.671875 74.21875 48.875 69.140625 
Q 55.078125 64.0625 55.078125 55.328125 
Q 55.078125 49.078125 51.53125 44.71875 
Q 48 40.375 41.703125 38.8125 
Q 48.828125 37.15625 52.796875 32.3125 
Q 56.78125 27.484375 56.78125 20.515625 
Q 56.78125 9.90625 50.3125 4.234375 
Q 43.84375 -1.421875 31.78125 -1.421875 
Q 19.734375 -1.421875 13.25 4.234375 
Q 6.78125 9.90625 6.78125 20.515625 
Q 6.78125 27.484375 10.78125 32.3125 
Q 14.796875 37.15625 21.921875 38.8125 
z
M 18.3125 54.390625 
Q 18.3125 48.734375 21.84375 45.5625 
Q 25.390625 42.390625 31.78125 42.390625 
Q 38.140625 42.390625 41.71875 45.5625 
Q 45.3125 48.734375 45.3125 54.390625 
Q 45.3125 60.0625 41.71875 63.234375 
Q 38.140625 66.40625 31.78125 66.40625 
Q 25.390625 66.40625 21.84375 63.234375 
Q 18.3125 60.0625 18.3125 54.390625 
z
" id="DejaVuSans-38"/>
      </defs>
      <g transform="translate(292.991525 266.598437)scale(0.1 -0.1)">
       <use xlink:href="#DejaVuSans-38"/>
       <use x="63.623047" xlink:href="#DejaVuSans-30"/>
      </g>
     </g>
    </g>
    <g id="xtick_5">
     <g id="line2d_5">
      <g>
       <use style="stroke:#000000;stroke-width:0.8;" x="371.516974" xlink:href="#m741a3c322e" y="252"/>
      </g>
     </g>
     <g id="text_5">
      <!-- 100 -->
      <defs>
       <path d="M 12.40625 8.296875 
L 28.515625 8.296875 
L 28.515625 63.921875 
L 10.984375 60.40625 
L 10.984375 69.390625 
L 28.421875 72.90625 
L 38.28125 72.90625 
L 38.28125 8.296875 
L 54.390625 8.296875 
L 54.390625 0 
L 12.40625 0 
z
" id="DejaVuSans-31"/>
      </defs>
      <g transform="translate(361.973224 266.598437)scale(0.1 -0.1)">
       <use xlink:href="#DejaVuSans-31"/>
       <use x="63.623047" xlink:href="#DejaVuSans-30"/>
       <use x="127.246094" xlink:href="#DejaVuSans-30"/>
      </g>
     </g>
    </g>
    <g id="text_6">
     <!-- Deposited energy (keV) -->
     <defs>
      <path d="M 19.671875 64.796875 
L 19.671875 8.109375 
L 31.59375 8.109375 
Q 46.6875 8.109375 53.6875 14.9375 
Q 60.6875 21.78125 60.6875 36.53125 
Q 60.6875 51.171875 53.6875 57.984375 
Q 46.6875 64.796875 31.59375 64.796875 
z
M 9.8125 72.90625 
L 30.078125 72.90625 
Q 51.265625 72.90625 61.171875 64.09375 
Q 71.09375 55.28125 71.09375 36.53125 
Q 71.09375 17.671875 61.125 8.828125 
Q 51.171875 0 30.078125 0 
L 9.8125 0 
z
" id="DejaVuSans-44"/>
      <path d="M 56.203125 29.59375 
L 56.203125 25.203125 
L 14.890625 25.203125 
Q 15.484375 15.921875 20.484375 11.0625 
Q 25.484375 6.203125 34.421875 6.203125 
Q 39.59375 6.203125 44.453125 7.46875 
Q 49.3125 8.734375 54.109375 11.28125 
L 54.109375 2.78125 
Q 49.265625 0.734375 44.1875 -0.34375 
Q 39.109375 -1.421875 33.890625 -1.421875 
Q 20.796875 -1.421875 13.15625 6.1875 
Q 5.515625 13.8125 5.515625 26.8125 
Q 5.515625 40.234375 12.765625 48.109375 
Q 20.015625 56 32.328125 56 
Q 43.359375 56 49.78125 48.890625 
Q 56.203125 41.796875 56.203125 29.59375 
z
M 47.21875 32.234375 
Q 47.125 39.59375 43.09375 43.984375 
Q 39.0625 48.390625 32.421875 48.390625 
Q 24.90625 48.390625 20.390625 44.140625 
Q 15.875 39.890625 15.1875 32.171875 
z
" id="DejaVuSans-65"/>
      <path d="M 18.109375 8.203125 
L 18.109375 -20.796875 
L 9.078125 -20.796875 
L 9.078125 54.6875 
L 18.109375 54.6875 
L 18.109375 46.390625 
Q 20.953125 51.265625 25.265625 53.625 
Q 29.59375 56 35.59375 56 
Q 45.5625 56 51.78125 48.09375 
Q 58.015625 40.1875 58.015625 27.296875 
Q 58.015625 14.40625 51.78125 6.484375 
Q 45.5625 -1.421875 35.59375 -1.421875 
Q 29.59375 -1.421875 25.265625 0.953125 
Q 20.953125 3.328125 18.109375 8.203125 
z
M 48.6875 27.296875 
Q 48.6875 37.203125 44.609375 42.84375 
Q 40.53125 48.484375 33.40625 48.484375 
Q 26.265625 48.484375 22.1875 42.84375 
Q 18.109375 37.203125 18.109375 27.296875 
Q 18.109375 17.390625 22.1875 11.75 
Q 26.265625 6.109375 33.40625 6.109375 
Q 40.53125 6.109375 44.609375 11.75 
Q 48.6875 17.390625 48.6875 27.296875 
z
" id="DejaVuSans-70"/>
      <path d="M 30.609375 48.390625 
Q 23.390625 48.390625 19.1875 42.75 
Q 14.984375 37.109375 14.984375 27.296875 
Q 14.984375 17.484375 19.15625 11.84375 
Q 23.34375 6.203125 30.609375 6.203125 
Q 37.796875 6.203125 41.984375 11.859375 
Q 46.1875 17.53125 46.1875 27.296875 
Q 46.1875 37.015625 41.984375 42.703125 
Q 37.796875 48.390625 30.609375 48.390625 
z
M 30.609375 56 
Q 42.328125 56 49.015625 48.375 
Q 55.71875 40.765625 55.71875 27.296875 
Q 55.71875 13.875 49.015625 6.21875 
Q 42.328125 -1.421875 30.609375 -1.421875 
Q 18.84375 -1.421875 12.171875 6.21875 
Q 5.515625 13.875 5.515625 27.296875 
Q 5.515625 40.765625 12.171875 48.375 
Q 18.84375 56 30.609375 56 
z
" id="DejaVuSans-6f"/>
      <path d="M 44.28125 53.078125 
L 44.28125 44.578125 
Q 40.484375 46.53125 36.375 47.5 
Q 32.28125 48.484375 27.875 48.484375 
Q 21.1875 48.484375 17.84375 46.4375 
Q 14.5 44.390625 14.5 40.28125 
Q 14.5 37.15625 16.890625 35.375 
Q 19.28125 33.59375 26.515625 31.984375 
L 29.59375 31.296875 
Q 39.15625 29.25 43.1875 25.515625 
Q 47.21875 21.78125 47.21875 15.09375 
Q 47.21875 7.46875 41.1875 3.015625 
Q 35.15625 -1.421875 24.609375 -1.421875 
Q 20.21875 -1.421875 15.453125 -0.5625 
Q 10.6875 0.296875 5.421875 2 
L 5.421875 11.28125 
Q 10.40625 8.6875 15.234375 7.390625 
Q 20.0625 6.109375 24.8125 6.109375 
Q 31.15625 6.109375 34.5625 8.28125 
Q 37.984375 10.453125 37.984375 14.40625 
Q 37.984375 18.0625 35.515625 20.015625 
Q 33.0625 21.96875 24.703125 23.78125 
L 21.578125 24.515625 
Q 13.234375 26.265625 9.515625 29.90625 
Q 5.8125 33.546875 5.8125 39.890625 
Q 5.8125 47.609375 11.28125 51.796875 
Q 16.75 56 26.8125 56 
Q 31.78125 56 36.171875 55.265625 
Q 40.578125 54.546875 44.28125 53.078125 
z
" id="DejaVuSans-73"/>
      <path d="M 9.421875 54.6875 
L 18.40625 54.6875 
L 18.40625 0 
L 9.421875 0 
z
M 9.421875 75.984375 
L 18.40625 75.984375 
L 18.40625 64.59375 
L 9.421875 64.59375 
z
" id="DejaVuSans-69"/>
      <path d="M 18.3125 70.21875 
L 18.3125 54.6875 
L 36.8125 54.6875 
L 36.8125 47.703125 
L 18.3125 47.703125 
L 18.3125 18.015625 
Q 18.3125 11.328125 20.140625 9.421875 
Q 21.96875 7.515625 27.59375 7.515625 
L 36.8125 7.515625 
L 36.8125 0 
L 27.59375 0 
Q 17.1875 0 13.234375 3.875 
Q 9.28125 7.765625 9.28125 18.015625 
L 9.28125 47.703125 
L 2.6875 47.703125 
L 2.6875 54.6875 
L 9.28125 54.6875 
L 9.28125 70.21875 
z
" id="DejaVuSans-74"/>
      <path d="M 45.40625 46.390625 
L 45.40625 75.984375 
L 54.390625 75.984375 
L 54.390625 0 
L 45.40625 0 
L 45.40625 8.203125 
Q 42.578125 3.328125 38.25 0.953125 
Q 33.9375 -1.421875 27.875 -1.421875 
Q 17.96875 -1.421875 11.734375 6.484375 
Q 5.515625 14.40625 5.515625 27.296875 
Q 5.515625 40.1875 11.734375 48.09375 
Q 17.96875 56 27.875 56 
Q 33.9375 56 38.25 53.625 
Q 42.578125 51.265625 45.40625 46.390625 
z
M 14.796875 27.296875 
Q 14.796875 17.390625 18.875 11.75 
Q 22.953125 6.109375 30.078125 6.109375 
Q 37.203125 6.109375 41.296875 11.75 
Q 45.40625 17.390625 45.40625 27.296875 
Q 45.40625 37.203125 41.296875 42.84375 
Q 37.203125 48.484375 30.078125 48.484375 
Q 22.953125 48.484375 18.875 42.84375 
Q 14.796875 37.203125 14.796875 27.296875 
z
" id="DejaVuSans-64"/>
      <path id="DejaVuSans-20"/>
      <path d="M 54.890625 33.015625 
L 54.890625 0 
L 45.90625 0 
L 45.90625 32.71875 
Q 45.90625 40.484375 42.875 44.328125 
Q 39.84375 48.1875 33.796875 48.1875 
Q 26.515625 48.1875 22.3125 43.546875 
Q 18.109375 38.921875 18.109375 30.90625 
L 18.109375 0 
L 9.078125 0 
L 9.078125 54.6875 
L 18.109375 54.6875 
L 18.109375 46.1875 
Q 21.34375 51.125 25.703125 53.5625 
Q 30.078125 56 35.796875 56 
Q 45.21875 56 50.046875 50.171875 
Q 54.890625 44.34375 54.890625 33.015625 
z
" id="DejaVuSans-6e"/>
      <path d="M 41.109375 46.296875 
Q 39.59375 47.171875 37.8125 47.578125 
Q 36.03125 48 33.890625 48 
Q 26.265625 48 22.1875 43.046875 
Q 18.109375 38.09375 18.109375 28.8125 
L 18.109375 0 
L 9.078125 0 
L 9.078125 54.6875 
L 18.109375 54.6875 
L 18.109375 46.1875 
Q 20.953125 51.171875 25.484375 53.578125 
Q 30.03125 56 36.53125 56 
Q 37.453125 56 38.578125 55.875 
Q 39.703125 55.765625 41.0625 55.515625 
z
" id="DejaVuSans-72"/>
      <path d="M 45.40625 27.984375 
Q 45.40625 37.75 41.375 43.109375 
Q 37.359375 48.484375 30.078125 48.484375 
Q 22.859375 48.484375 18.828125 43.109375 
Q 14.796875 37.75 14.796875 27.984375 
Q 14.796875 18.265625 18.828125 12.890625 
Q 22.859375 7.515625 30.078125 7.515625 
Q 37.359375 7.515625 41.375 12.890625 
Q 45.40625 18.265625 45.40625 27.984375 
z
M 54.390625 6.78125 
Q 54.390625 -7.171875 48.1875 -13.984375 
Q 42 -20.796875 29.203125 -20.796875 
Q 24.46875 -20.796875 20.265625 -20.09375 
Q 16.0625 -19.390625 12.109375 -17.921875 
L 12.109375 -9.1875 
Q 16.0625 -11.328125 19.921875 -12.34375 
Q 23.78125 -13.375 27.78125 -13.375 
Q 36.625 -13.375 41.015625 -8.765625 
Q 45.40625 -4.15625 45.40625 5.171875 
L 45.40625 9.625 
Q 42.625 4.78125 38.28125 2.390625 
Q 33.9375 0 27.875 0 
Q 17.828125 0 11.671875 7.65625 
Q 5.515625 15.328125 5.515625 27.984375 
Q 5.515625 40.671875 11.671875 48.328125 
Q 17.828125 56 27.875 56 
Q 33.9375 56 38.28125 53.609375 
Q 42.625 51.21875 45.40625 46.390625 
L 45.40625 54.6875 
L 54.390625 54.6875 
z
" id="DejaVuSans-67"/>
      <path d="M 32.171875 -5.078125 
Q 28.375 -14.84375 24.75 -17.8125 
Q 21.140625 -20.796875 15.09375 -20.796875 
L 7.90625 -20.796875 
L 7.90625 -13.28125 
L 13.1875 -13.28125 
Q 16.890625 -13.28125 18.9375 -11.515625 
Q 21 -9.765625 23.484375 -3.21875 
L 25.09375 0.875 
L 2.984375 54.6875 
L 12.5 54.6875 
L 29.59375 11.921875 
L 46.6875 54.6875 
L 56.203125 54.6875 
z
" id="DejaVuSans-79"/>
      <path d="M 31 75.875 
Q 24.46875 64.65625 21.28125 53.65625 
Q 18.109375 42.671875 18.109375 31.390625 
Q 18.109375 20.125 21.3125 9.0625 
Q 24.515625 -2 31 -13.1875 
L 23.1875 -13.1875 
Q 15.875 -1.703125 12.234375 9.375 
Q 8.59375 20.453125 8.59375 31.390625 
Q 8.59375 42.28125 12.203125 53.3125 
Q 15.828125 64.359375 23.1875 75.875 
z
" id="DejaVuSans-28"/>
      <path d="M 9.078125 75.984375 
L 18.109375 75.984375 
L 18.109375 31.109375 
L 44.921875 54.6875 
L 56.390625 54.6875 
L 27.390625 29.109375 
L 57.625 0 
L 45.90625 0 
L 18.109375 26.703125 
L 18.109375 0 
L 9.078125 0 
z
" id="DejaVuSans-6b"/>
      <path d="M 28.609375 0 
L 0.78125 72.90625 
L 11.078125 72.90625 
L 34.1875 11.53125 
L 57.328125 72.90625 
L 67.578125 72.90625 
L 39.796875 0 
z
" id="DejaVuSans-56"/>
      <path d="M 8.015625 75.875 
L 15.828125 75.875 
Q 23.140625 64.359375 26.78125 53.3125 
Q 30.421875 42.28125 30.421875 31.390625 
Q 30.421875 20.453125 26.78125 9.375 
Q 23.140625 -1.703125 15.828125 -13.1875 
L 8.015625 -13.1875 
Q 14.5 -2 17.703125 9.0625 
Q 20.90625 20.125 20.90625 31.390625 
Q 20.90625 42.671875 17.703125 53.65625 
Q 14.5 64.65625 8.015625 75.875 
z
" id="DejaVuSans-29"/>
     </defs>
     <g transform="translate(162.055469 280.276563)scale(0.1 -0.1)">
      <use xlink:href="#DejaVuSans-44"/>
      <use x="77.001953" xlink:href="#DejaVuSans-65"/>
      <use x="138.525391" xlink:href="#DejaVuSans-70"/>
      <use x="202.001953" xlink:href="#DejaVuSans-6f"/>
      <use x="263.183594" xlink:href="#DejaVuSans-73"/>
      <use x="315.283203" xlink:href="#DejaVuSans-69"/>
      <use x="343.066406" xlink:href="#DejaVuSans-74"/>
      <use x="382.275391" xlink:href="#DejaVuSans-65"/>
      <use x="443.798828" xlink:href="#DejaVuSans-64"/>
      <use x="507.275391" xlink:href="#DejaVuSans-20"/>
      <use x="539.0625" xlink:href="#DejaVuSans-65"/>
      <use x="600.585938" xlink:href="#DejaVuSans-6e"/>
      <use x="663.964844" xlink:href="#DejaVuSans-65"/>
      <use x="725.488281" xlink:href="#DejaVuSans-72"/>
      <use x="766.585938" xlink:href="#DejaVuSans-67"/>
      <use x="830.0625" xlink:href="#DejaVuSans-79"/>
      <use x="889.242188" xlink:href="#DejaVuSans-20"/>
      <use x="921.029297" xlink:href="#DejaVuSans-28"/>
      <use x="960.042969" xlink:href="#DejaVuSans-6b"/>
      <use x="1017.90625" xlink:href="#DejaVuSans-65"/>
      <use x="1079.429688" xlink:href="#DejaVuSans-56"/>
      <use x="1147.837891" xlink:href="#DejaVuSans-29"/>
     </g>
    </g>
   </g>
   <g id="matplotlib.axis_2">
    <g id="ytick_1">
     <g id="line2d_6">
      <defs>
       <path d="M 0 0 
L -3.5 0 
" id="mc3dae52a67" style="stroke:#000000;stroke-width:0.8;"/>
      </defs>
      <g>
       <use style="stroke:#000000;stroke-width:0.8;" x="54" xlink:href="#mc3dae52a67" y="241.659678"/>
      </g>
     </g>
     <g id="text_7">
      <!-- 0.0000 -->
      <defs>
       <path d="M 10.6875 12.40625 
L 21 12.40625 
L 21 0 
L 10.6875 0 
z
" id="DejaVuSans-2e"/>
      </defs>
      <g transform="translate(12.009375 245.458897)scale(0.1 -0.1)">
       <use xlink:href="#DejaVuSans-30"/>
       <use x="63.623047" xlink:href="#DejaVuSans-2e"/>
       <use x="95.410156" xlink:href="#DejaVuSans-30"/>
       <use x="159.033203" xlink:href="#DejaVuSans-30"/>
       <use x="222.65625" xlink:href="#DejaVuSans-30"/>
       <use x="286.279297" xlink:href="#DejaVuSans-30"/>
      </g>
     </g>
    </g>
    <g id="ytick_2">
     <g id="line2d_7">
      <g>
       <use style="stroke:#000000;stroke-width:0.8;" x="54" xlink:href="#mc3dae52a67" y="212.272929"/>
      </g>
     </g>
     <g id="text_8">
      <!-- 0.0001 -->
      <g transform="translate(12.009375 216.072147)scale(0.1 -0.1)">
       <use xlink:href="#DejaVuSans-30"/>
       <use x="63.623047" xlink:href="#DejaVuSans-2e"/>
       <use x="95.410156" xlink:href="#DejaVuSans-30"/>
       <use x="159.033203" xlink:href="#DejaVuSans-30"/>
       <use x="222.65625" xlink:href="#DejaVuSans-30"/>
       <use x="286.279297" xlink:href="#DejaVuSans-31"/>
      </g>
     </g>
    </g>
    <g id="ytick_3">
     <g id="line2d_8">
      <g>
       <use style="stroke:#000000;stroke-width:0.8;" x="54" xlink:href="#mc3dae52a67" y="182.886179"/>
      </g>
     </g>
     <g id="text_9">
      <!-- 0.0002 -->
      <g transform="translate(12.009375 186.685398)scale(0.1 -0.1)">
       <use xlink:href="#DejaVuSans-30"/>
       <use x="63.623047" xlink:href="#DejaVuSans-2e"/>
       <use x="95.410156" xlink:href="#DejaVuSans-30"/>
       <use x="159.033203" xlink:href="#DejaVuSans-30"/>
       <use x="222.65625" xlink:href="#DejaVuSans-30"/>
       <use x="286.279297" xlink:href="#DejaVuSans-32"/>
      </g>
     </g>
    </g>
    <g id="ytick_4">
     <g id="line2d_9">
      <g>
       <use style="stroke:#000000;stroke-width:0.8;" x="54" xlink:href="#mc3dae52a67" y="153.499429"/>
      </g>
     </g>
     <g id="text_10">
      <!-- 0.0003 -->
      <defs>
       <path d="M 40.578125 39.3125 
Q 47.65625 37.796875 51.625 33 
Q 55.609375 28.21875 55.609375 21.1875 
Q 55.609375 10.40625 48.1875 4.484375 
Q 40.765625 -1.421875 27.09375 -1.421875 
Q 22.515625 -1.421875 17.65625 -0.515625 
Q 12.796875 0.390625 7.625 2.203125 
L 7.625 11.71875 
Q 11.71875 9.328125 16.59375 8.109375 
Q 21.484375 6.890625 26.8125 6.890625 
Q 36.078125 6.890625 40.9375 10.546875 
Q 45.796875 14.203125 45.796875 21.1875 
Q 45.796875 27.640625 41.28125 31.265625 
Q 36.765625 34.90625 28.71875 34.90625 
L 20.21875 34.90625 
L 20.21875 43.015625 
L 29.109375 43.015625 
Q 36.375 43.015625 40.234375 45.921875 
Q 44.09375 48.828125 44.09375 54.296875 
Q 44.09375 59.90625 40.109375 62.90625 
Q 36.140625 65.921875 28.71875 65.921875 
Q 24.65625 65.921875 20.015625 65.03125 
Q 15.375 64.15625 9.8125 62.3125 
L 9.8125 71.09375 
Q 15.4375 72.65625 20.34375 73.4375 
Q 25.25 74.21875 29.59375 74.21875 
Q 40.828125 74.21875 47.359375 69.109375 
Q 53.90625 64.015625 53.90625 55.328125 
Q 53.90625 49.265625 50.4375 45.09375 
Q 46.96875 40.921875 40.578125 39.3125 
z
" id="DejaVuSans-33"/>
      </defs>
      <g transform="translate(12.009375 157.298648)scale(0.1 -0.1)">
       <use xlink:href="#DejaVuSans-30"/>
       <use x="63.623047" xlink:href="#DejaVuSans-2e"/>
       <use x="95.410156" xlink:href="#DejaVuSans-30"/>
       <use x="159.033203" xlink:href="#DejaVuSans-30"/>
       <use x="222.65625" xlink:href="#DejaVuSans-30"/>
       <use x="286.279297" xlink:href="#DejaVuSans-33"/>
      </g>
     </g>
    </g>
    <g id="ytick_5">
     <g id="line2d_10">
      <g>
       <use style="stroke:#000000;stroke-width:0.8;" x="54" xlink:href="#mc3dae52a67" y="124.11268"/>
      </g>
     </g>
     <g id="text_11">
      <!-- 0.0004 -->
      <g transform="translate(12.009375 127.911898)scale(0.1 -0.1)">
       <use xlink:href="#DejaVuSans-30"/>
       <use x="63.623047" xlink:href="#DejaVuSans-2e"/>
       <use x="95.410156" xlink:href="#DejaVuSans-30"/>
       <use x="159.033203" xlink:href="#DejaVuSans-30"/>
       <use x="222.65625" xlink:href="#DejaVuSans-30"/>
       <use x="286.279297" xlink:href="#DejaVuSans-34"/>
      </g>
     </g>
    </g>
    <g id="ytick_6">
     <g id="line2d_11">
      <g>
       <use style="stroke:#000000;stroke-width:0.8;" x="54" xlink:href="#mc3dae52a67" y="94.72593"/>
      </g>
     </g>
     <g id="text_12">
      <!-- 0.0005 -->
      <defs>
       <path d="M 10.796875 72.90625 
L 49.515625 72.90625 
L 49.515625 64.59375 
L 19.828125 64.59375 
L 19.828125 46.734375 
Q 21.96875 47.46875 24.109375 47.828125 
Q 26.265625 48.1875 28.421875 48.1875 
Q 40.625 48.1875 47.75 41.5 
Q 54.890625 34.8125 54.890625 23.390625 
Q 54.890625 11.625 47.5625 5.09375 
Q 40.234375 -1.421875 26.90625 -1.421875 
Q 22.3125 -1.421875 17.546875 -0.640625 
Q 12.796875 0.140625 7.71875 1.703125 
L 7.71875 11.625 
Q 12.109375 9.234375 16.796875 8.0625 
Q 21.484375 6.890625 26.703125 6.890625 
Q 35.15625 6.890625 40.078125 11.328125 
Q 45.015625 15.765625 45.015625 23.390625 
Q 45.015625 31 40.078125 35.4375 
Q 35.15625 39.890625 26.703125 39.890625 
Q 22.75 39.890625 18.8125 39.015625 
Q 14.890625 38.140625 10.796875 36.28125 
z
" id="DejaVuSans-35"/>
      </defs>
      <g transform="translate(12.009375 98.525149)scale(0.1 -0.1)">
       <use xlink:href="#DejaVuSans-30"/>
       <use x="63.623047" xlink:href="#DejaVuSans-2e"/>
       <use x="95.410156" xlink:href="#DejaVuSans-30"/>
       <use x="159.033203" xlink:href="#DejaVuSans-30"/>
       <use x="222.65625" xlink:href="#DejaVuSans-30"/>
       <use x="286.279297" xlink:href="#DejaVuSans-35"/>
      </g>
     </g>
    </g>
    <g id="ytick_7">
     <g id="line2d_12">
      <g>
       <use style="stroke:#000000;stroke-width:0.8;" x="54" xlink:href="#mc3dae52a67" y="65.33918"/>
      </g>
     </g>
     <g id="text_13">
      <!-- 0.0006 -->
      <g transform="translate(12.009375 69.138399)scale(0.1 -0.1)">
       <use xlink:href="#DejaVuSans-30"/>
       <use x="63.623047" xlink:href="#DejaVuSans-2e"/>
       <use x="95.410156" xlink:href="#DejaVuSans-30"/>
       <use x="159.033203" xlink:href="#DejaVuSans-30"/>
       <use x="222.65625" xlink:href="#DejaVuSans-30"/>
       <use x="286.279297" xlink:href="#DejaVuSans-36"/>
      </g>
     </g>
    </g>
    <g id="ytick_8">
     <g id="line2d_13">
      <g>
       <use style="stroke:#000000;stroke-width:0.8;" x="54" xlink:href="#mc3dae52a67" y="35.952431"/>
      </g>
     </g>
     <g id="text_14">
      <!-- 0.0007 -->
      <defs>
       <path d="M 8.203125 72.90625 
L 55.078125 72.90625 
L 55.078125 68.703125 
L 28.609375 0 
L 18.3125 0 
L 43.21875 64.59375 
L 8.203125 64.59375 
z
" id="DejaVuSans-37"/>
      </defs>
      <g transform="translate(12.009375 39.751649)scale(0.1 -0.1)">
       <use xlink:href="#DejaVuSans-30"/>
       <use x="63.623047" xlink:href="#DejaVuSans-2e"/>
       <use x="95.410156" xlink:href="#DejaVuSans-30"/>
       <use x="159.033203" xlink:href="#DejaVuSans-30"/>
       <use x="222.65625" xlink:href="#DejaVuSans-30"/>
       <use x="286.279297" xlink:href="#DejaVuSans-37"/>
      </g>
     </g>
    </g>
   </g>
   <g id="line2d_14">
    <path clip-path="url(#p9579afbc3a)" d="M 10.702231 241.635886 
L 11.42386 241.695078 
L 12.867119 241.694967 
L 14.310378 241.706555 
L 15.032008 241.360814 
L 15.753637 241.560531 
L 17.196896 240.925313 
L 17.918526 240.971211 
L 18.640155 239.673978 
L 19.361785 238.781956 
L 20.083414 238.49548 
L 21.526673 230.481978 
L 22.248303 228.191078 
L 22.969932 227.459543 
L 23.691562 218.303919 
L 24.413191 211.942705 
L 25.134821 210.464282 
L 25.85645 200.419035 
L 26.57808 185.135333 
L 27.299709 184.169995 
L 28.021339 169.007236 
L 28.742968 163.186456 
L 30.186227 143.945864 
L 30.907856 144.674925 
L 31.629486 133.836401 
L 32.351115 116.599464 
L 33.072745 116.816278 
L 33.794374 110.481015 
L 34.516004 115.376829 
L 35.237633 107.224626 
L 35.959263 115.369523 
L 36.680892 107.055611 
L 37.402522 101.817722 
L 38.124151 112.666422 
L 38.845781 104.024845 
L 39.56741 111.373224 
L 40.28904 114.565272 
L 41.010669 108.837667 
L 41.732299 122.356784 
L 42.453928 120.247691 
L 43.175558 124.327124 
L 43.897187 120.188058 
L 44.618817 120.658437 
L 45.340446 133.235817 
L 46.062076 134.303351 
L 46.783705 141.063858 
L 47.505335 151.926525 
L 48.226964 152.939323 
L 48.948594 151.296993 
L 49.670223 160.953814 
L 50.391853 157.721184 
L 51.113482 171.825535 
L 51.835112 177.618098 
L 52.556741 178.431368 
L 53.278371 182.63131 
L 54 187.564648 
L 54.721629 200.596579 
L 55.443259 200.204226 
L 56.164888 198.036723 
L 56.886518 206.745975 
L 57.608147 203.468797 
L 59.051406 217.819131 
L 59.773036 218.859425 
L 60.494665 216.889743 
L 61.216295 220.070538 
L 61.937924 224.69806 
L 62.659554 222.67694 
L 63.381183 223.141339 
L 64.102813 228.729226 
L 64.824442 220.607005 
L 65.546072 221.499476 
L 66.267701 222.776107 
L 66.989331 227.830371 
L 67.71096 224.92138 
L 68.43259 223.397617 
L 69.154219 231.124816 
L 69.875849 227.884508 
L 70.597478 226.094947 
L 71.319108 224.776927 
L 72.040737 226.914177 
L 72.762367 225.087731 
L 73.483996 228.979143 
L 74.205626 225.168847 
L 74.927255 229.071031 
L 75.648885 227.258145 
L 76.370514 226.642977 
L 77.092144 227.294764 
L 77.813773 233.212493 
L 78.535403 224.773122 
L 79.257032 226.136652 
L 79.978661 226.186218 
L 80.700291 226.684723 
L 81.42192 225.783878 
L 82.14355 227.327219 
L 82.865179 228.044766 
L 83.586809 226.667168 
L 84.308438 226.253777 
L 85.030068 226.737038 
L 85.751697 223.620117 
L 86.473327 227.60989 
L 87.194956 226.093238 
L 87.916586 228.077395 
L 90.081474 222.700382 
L 90.803104 223.741498 
L 91.524733 221.21548 
L 92.246363 217.800744 
L 92.967992 219.217217 
L 93.689622 225.30507 
L 94.411251 220.306745 
L 95.132881 218.86654 
L 95.85451 219.097254 
L 96.57614 217.883881 
L 97.297769 219.000845 
L 98.019399 218.360314 
L 98.741028 213.390445 
L 99.462658 213.865859 
L 100.184287 209.475807 
L 100.905917 209.157444 
L 101.627546 206.28495 
L 102.349176 206.303942 
L 103.070805 201.276984 
L 103.792435 208.175593 
L 104.514064 205.976769 
L 105.235694 207.827117 
L 105.957323 205.955547 
L 106.678952 210.386811 
L 107.400582 211.025519 
L 108.122211 210.948898 
L 108.843841 215.549516 
L 109.56547 215.420165 
L 110.2871 219.42303 
L 111.008729 215.740258 
L 111.730359 225.920295 
L 112.451988 221.065997 
L 113.173618 221.986066 
L 114.616877 229.924874 
L 115.338506 229.93218 
L 116.060136 230.504744 
L 116.781765 226.963859 
L 117.503395 231.279426 
L 118.225024 230.647227 
L 118.946654 228.924701 
L 119.668283 228.633672 
L 120.389913 233.745087 
L 121.833172 228.016192 
L 122.554801 230.595571 
L 123.276431 227.780504 
L 123.99806 228.89021 
L 124.71969 230.438025 
L 125.441319 229.812433 
L 126.162949 228.280335 
L 126.884578 229.641168 
L 127.606208 229.078842 
L 128.327837 224.900999 
L 129.049467 228.218451 
L 129.771096 232.318326 
L 130.492726 228.72655 
L 131.214355 229.598814 
L 131.935984 227.934447 
L 132.657614 232.937423 
L 133.379243 231.700123 
L 134.100873 230.067628 
L 134.822502 233.865274 
L 135.544132 234.367811 
L 136.265761 231.588295 
L 136.987391 229.825391 
L 137.70902 229.579069 
L 138.43065 233.496294 
L 139.152279 228.030509 
L 139.873909 232.074504 
L 140.595538 229.108211 
L 141.317168 226.712356 
L 142.038797 233.341097 
L 142.760427 226.952671 
L 143.482056 231.105814 
L 144.203686 230.293756 
L 144.925315 226.315921 
L 145.646945 229.357976 
L 146.368574 229.874592 
L 147.811833 225.337882 
L 148.533463 228.136508 
L 149.255092 225.086677 
L 149.976722 229.056702 
L 150.698351 228.925444 
L 151.419981 226.90689 
L 152.14161 227.599004 
L 152.86324 229.931095 
L 153.584869 223.861967 
L 155.028128 228.341335 
L 155.749758 225.887643 
L 156.471387 221.596241 
L 157.193016 224.353589 
L 157.914646 224.087395 
L 158.636275 225.780231 
L 159.357905 222.458565 
L 160.079534 223.025337 
L 160.801164 222.403897 
L 161.522793 225.962729 
L 162.966052 224.241397 
L 163.687682 220.080327 
L 165.130941 226.831156 
L 165.85257 219.891229 
L 166.5742 219.717079 
L 167.295829 218.163659 
L 168.017459 220.586609 
L 168.739088 216.681207 
L 169.460718 223.571369 
L 170.182347 216.161683 
L 171.625606 214.22715 
L 172.347236 216.343864 
L 173.068865 217.183303 
L 173.790495 217.158627 
L 174.512124 214.660061 
L 175.233754 214.24791 
L 175.955383 216.985344 
L 176.677013 216.174773 
L 177.398642 210.424538 
L 178.120272 211.249292 
L 178.841901 209.014394 
L 179.563531 208.693756 
L 180.28516 200.955904 
L 181.00679 206.919821 
L 181.728419 204.422212 
L 182.450048 199.709861 
L 183.171678 201.267079 
L 183.893307 201.725931 
L 184.614937 203.18728 
L 185.336566 204.134934 
L 186.058196 197.978837 
L 186.779825 199.52762 
L 187.501455 205.896101 
L 188.223084 202.869494 
L 188.944714 207.879138 
L 189.666343 205.928366 
L 190.387973 209.361282 
L 191.831232 213.637793 
L 192.552861 209.843853 
L 193.274491 210.419926 
L 193.99612 210.19131 
L 194.71775 210.937004 
L 196.161009 216.5614 
L 196.882638 213.761913 
L 197.604268 218.222016 
L 198.325897 218.255814 
L 199.047527 215.951658 
L 199.769156 219.758011 
L 200.490786 219.765821 
L 201.212415 220.978989 
L 201.934045 222.483434 
L 202.655674 220.950215 
L 203.377304 215.952209 
L 204.098933 222.446739 
L 204.820563 223.791391 
L 205.542192 218.969737 
L 206.263822 224.048083 
L 206.985451 217.919106 
L 207.707081 213.583461 
L 208.42871 216.372221 
L 209.150339 213.462934 
L 209.871969 214.822954 
L 210.593598 211.874916 
L 211.315228 214.603096 
L 212.036857 209.196941 
L 213.480116 196.544046 
L 214.201746 195.163721 
L 214.923375 181.64203 
L 215.645005 175.400122 
L 216.366634 173.687263 
L 217.088264 153.813012 
L 217.809893 148.369889 
L 219.253152 123.962684 
L 219.974782 114.550251 
L 220.696411 78.54064 
L 221.418041 78.269514 
L 222.8613 53.592705 
L 223.582929 59.60647 
L 224.304559 53.189713 
L 225.026188 53.190585 
L 225.747818 44.443636 
L 226.469447 67.154977 
L 227.191077 64.077599 
L 227.912706 110.025235 
L 229.355965 130.476106 
L 230.077595 152.188256 
L 230.799224 167.959359 
L 231.520854 187.181832 
L 233.685742 220.710651 
L 234.407371 225.211333 
L 235.129001 231.518683 
L 235.85063 236.248117 
L 236.57226 238.871077 
L 237.293889 241.043037 
L 238.015519 240.994671 
L 238.737148 241.310538 
L 239.458778 241.403401 
L 240.180407 241.663288 
L 245.231814 241.679958 
L 245.953443 241.782076 
L 246.675073 241.563368 
L 248.118332 241.709304 
L 248.839961 241.556541 
L 249.561591 241.742586 
L 251.00485 241.608576 
L 251.726479 241.665719 
L 252.448109 241.57745 
L 253.169738 241.696857 
L 255.334627 241.641624 
L 256.056256 241.739022 
L 256.777886 241.621297 
L 263.272551 241.6969 
L 263.99418 241.596852 
L 266.159069 241.711609 
L 271.932105 241.602144 
L 274.818623 241.611142 
L 276.261882 241.631338 
L 278.42677 241.654715 
L 279.1484 241.573835 
L 280.591659 241.608598 
L 283.478177 241.613954 
L 284.199806 241.680369 
L 284.921435 241.555301 
L 285.643065 241.691248 
L 287.807953 241.647615 
L 295.024248 241.637222 
L 297.189137 241.635162 
L 297.910766 241.621935 
L 298.632396 241.723466 
L 299.354025 241.610937 
L 301.518914 241.609728 
L 303.683802 241.671493 
L 304.405432 241.572716 
L 305.848691 241.698134 
L 308.013579 241.653752 
L 309.456838 241.653118 
L 311.621726 241.681103 
L 313.064985 241.64548 
L 318.116392 241.66228 
L 321.00291 241.592953 
L 322.446169 241.697027 
L 323.167798 241.609585 
L 325.332687 241.669108 
L 326.775946 241.645375 
L 328.219205 241.658143 
L 331.827352 241.653156 
L 333.270611 241.660654 
L 343.373424 241.628666 
L 345.538312 241.704668 
L 346.981571 241.624938 
L 347.703201 241.602474 
L 348.42483 241.697823 
L 349.868089 241.598296 
L 350.589719 241.696716 
L 352.032978 241.674257 
L 352.754607 241.630789 
L 353.476237 241.710241 
L 354.197866 241.650759 
L 354.919496 241.735069 
L 355.641125 241.653283 
L 356.362755 241.725699 
L 357.084384 241.579131 
L 358.527643 241.602831 
L 359.249273 241.573833 
L 359.970902 241.74205 
L 362.85742 241.532192 
L 363.579049 241.732433 
L 365.022308 241.6823 
L 366.465567 241.81821 
L 367.187197 241.604567 
L 367.908826 241.594663 
L 368.630456 241.720412 
L 370.795344 241.561751 
L 370.795344 241.561751 
" style="fill:none;stroke:#1f77b4;stroke-dasharray:5.55,2.4;stroke-dashoffset:0;stroke-width:1.5;"/>
   </g>
   <g id="line2d_15">
    <path clip-path="url(#p9579afbc3a)" d="M 54 180.79996 
L 54.721629 180.79996 
L 54.721629 183.79855 
L 55.443259 183.79855 
L 55.443259 187.328655 
L 56.164888 187.328655 
L 56.164888 189.952484 
L 56.886518 189.952484 
L 56.886518 191.799977 
L 57.608147 191.799977 
L 57.608147 194.808865 
L 58.329777 194.808865 
L 58.329777 196.989033 
L 59.051406 196.989033 
L 59.051406 200.170154 
L 59.773036 200.170154 
L 59.773036 202.523262 
L 60.494665 202.523262 
L 60.494665 204.579942 
L 61.216295 204.579942 
L 61.216295 206.37815 
L 61.937924 206.37815 
L 61.937924 208.198152 
L 62.659554 208.198152 
L 62.659554 210.458701 
L 63.381183 210.458701 
L 63.381183 212.340688 
L 64.102813 212.340688 
L 64.102813 213.367818 
L 64.824442 213.367818 
L 64.824442 214.872785 
L 65.546072 214.872785 
L 65.546072 216.094394 
L 66.267701 216.094394 
L 66.267701 217.402427 
L 66.989331 217.402427 
L 66.989331 218.753772 
L 67.71096 218.753772 
L 67.71096 220.315967 
L 68.43259 220.315967 
L 68.43259 220.809351 
L 69.154219 220.809351 
L 69.154219 220.994469 
L 69.875849 220.994469 
L 69.875849 222.031312 
L 70.597478 222.031312 
L 70.597478 223.010424 
L 71.319108 223.010424 
L 71.319108 223.468145 
L 72.040737 223.468145 
L 72.040737 223.719272 
L 72.762367 223.719272 
L 72.762367 224.188747 
L 73.483996 224.188747 
L 73.483996 224.76799 
L 74.205626 224.76799 
L 74.205626 225.033144 
L 75.648885 225.088045 
L 75.648885 225.581795 
L 76.370514 225.581795 
L 76.370514 225.812064 
L 77.092144 225.812064 
L 77.092144 225.574507 
L 77.813773 225.574507 
L 77.813773 225.797038 
L 78.535403 225.797038 
L 78.535403 226.223184 
L 79.257032 226.223184 
L 79.257032 225.588801 
L 79.978661 225.588801 
L 79.978661 225.709809 
L 80.700291 225.709809 
L 80.700291 225.562397 
L 81.42192 225.562397 
L 81.42192 225.841239 
L 82.14355 225.841239 
L 82.14355 225.512292 
L 82.865179 225.512292 
L 82.865179 225.178886 
L 83.586809 225.178886 
L 83.586809 224.783089 
L 85.030068 224.793298 
L 85.030068 224.26349 
L 86.473327 224.186062 
L 86.473327 223.701226 
L 87.916586 223.66975 
L 87.916586 222.830143 
L 88.638215 222.830143 
L 88.638215 222.615437 
L 89.359845 222.615437 
L 89.359845 222.22487 
L 90.081474 222.22487 
L 90.081474 221.644728 
L 90.803104 221.644728 
L 90.803104 221.276245 
L 91.524733 221.276245 
L 91.524733 221.041018 
L 92.246363 221.041018 
L 92.246363 220.269821 
L 92.967992 220.269821 
L 92.967992 219.45052 
L 93.689622 219.45052 
L 93.689622 219.020786 
L 94.411251 219.020786 
L 94.411251 218.885818 
L 95.132881 218.885818 
L 95.132881 218.292749 
L 95.85451 218.292749 
L 95.85451 217.657728 
L 96.57614 217.657728 
L 96.57614 217.19651 
L 98.019399 217.113267 
L 98.019399 216.840278 
L 98.741028 216.840278 
L 98.741028 216.367297 
L 99.462658 216.367297 
L 99.462658 215.877553 
L 100.184287 215.877553 
L 100.184287 216.167112 
L 100.905917 216.167112 
L 100.905917 215.752706 
L 101.627546 215.752706 
L 101.627546 216.118227 
L 103.792435 216.026553 
L 103.792435 215.897039 
L 104.514064 215.897039 
L 104.514064 216.320958 
L 105.235694 216.320958 
L 105.235694 216.589487 
L 105.957323 216.589487 
L 105.957323 216.948678 
L 107.400582 216.906136 
L 107.400582 217.472213 
L 108.122211 217.472213 
L 108.122211 218.010356 
L 108.843841 218.010356 
L 108.843841 218.33128 
L 109.56547 218.33128 
L 109.56547 218.680611 
L 110.2871 218.680611 
L 110.2871 219.397572 
L 111.008729 219.397572 
L 111.008729 219.842648 
L 111.730359 219.842648 
L 111.730359 220.312531 
L 112.451988 220.312531 
L 112.451988 221.222783 
L 113.173618 221.222783 
L 113.173618 221.751045 
L 113.895247 221.751045 
L 113.895247 221.980838 
L 114.616877 221.980838 
L 114.616877 222.758265 
L 115.338506 222.758265 
L 115.338506 223.251133 
L 116.060136 223.251133 
L 116.060136 223.892411 
L 116.781765 223.892411 
L 116.781765 224.240219 
L 117.503395 224.240219 
L 117.503395 224.416296 
L 118.225024 224.416296 
L 118.225024 225.494565 
L 118.946654 225.494565 
L 118.946654 225.790247 
L 119.668283 225.790247 
L 119.668283 226.128212 
L 120.389913 226.128212 
L 120.389913 226.262527 
L 121.111542 226.262527 
L 121.111542 227.057152 
L 121.833172 227.057152 
L 121.833172 226.940585 
L 122.554801 226.940585 
L 122.554801 227.609587 
L 123.276431 227.609587 
L 123.276431 227.971447 
L 123.99806 227.971447 
L 123.99806 228.120757 
L 124.71969 228.120757 
L 124.71969 228.516814 
L 125.441319 228.516814 
L 125.441319 228.688112 
L 126.884578 228.645116 
L 126.884578 229.090669 
L 127.606208 229.090669 
L 127.606208 229.271329 
L 128.327837 229.271329 
L 128.327837 229.529837 
L 129.771096 229.483797 
L 129.771096 229.648925 
L 131.935984 229.676534 
L 131.935984 229.888115 
L 132.657614 229.888115 
L 132.657614 229.425218 
L 133.379243 229.425218 
L 133.379243 230.196157 
L 134.822502 230.185285 
L 134.822502 229.532947 
L 135.544132 229.532947 
L 135.544132 229.820474 
L 136.265761 229.820474 
L 136.265761 229.950282 
L 136.987391 229.950282 
L 136.987391 229.696149 
L 138.43065 229.699234 
L 138.43065 229.573118 
L 139.152279 229.573118 
L 139.152279 229.733372 
L 139.873909 229.733372 
L 139.873909 229.515237 
L 141.317168 229.420126 
L 141.317168 228.965717 
L 142.760427 229.069565 
L 142.760427 229.36223 
L 143.482056 229.36223 
L 143.482056 228.768802 
L 144.925315 228.79036 
L 144.925315 228.62747 
L 145.646945 228.62747 
L 145.646945 227.969632 
L 146.368574 227.969632 
L 146.368574 228.364044 
L 147.090204 228.364044 
L 147.090204 228.097405 
L 147.811833 228.097405 
L 147.811833 227.819497 
L 148.533463 227.819497 
L 148.533463 227.686054 
L 149.255092 227.686054 
L 149.255092 227.308853 
L 149.976722 227.308853 
L 149.976722 227.108725 
L 150.698351 227.108725 
L 150.698351 227.231059 
L 151.419981 227.231059 
L 151.419981 226.835757 
L 152.14161 226.835757 
L 152.14161 226.315585 
L 152.86324 226.315585 
L 152.86324 226.426704 
L 153.584869 226.426704 
L 153.584869 226.003717 
L 154.306499 226.003717 
L 154.306499 225.704165 
L 155.749758 225.814958 
L 155.749758 225.346785 
L 156.471387 225.346785 
L 156.471387 224.961967 
L 157.193016 224.961967 
L 157.193016 224.554717 
L 157.914646 224.554717 
L 157.914646 224.410055 
L 158.636275 224.410055 
L 158.636275 224.136068 
L 159.357905 224.136068 
L 159.357905 224.297828 
L 160.079534 224.297828 
L 160.079534 223.185227 
L 160.801164 223.185227 
L 160.801164 222.794648 
L 161.522793 222.794648 
L 161.522793 222.663475 
L 162.244423 222.663475 
L 162.244423 222.431295 
L 162.966052 222.431295 
L 162.966052 221.988676 
L 163.687682 221.988676 
L 163.687682 221.508512 
L 164.409311 221.508512 
L 164.409311 220.654681 
L 165.130941 220.654681 
L 165.130941 220.458687 
L 166.5742 220.55788 
L 166.5742 219.908752 
L 167.295829 219.908752 
L 167.295829 219.117724 
L 168.017459 219.117724 
L 168.017459 218.636859 
L 168.739088 218.636859 
L 168.739088 218.277785 
L 169.460718 218.277785 
L 169.460718 217.957056 
L 170.182347 217.957056 
L 170.182347 217.278232 
L 170.903977 217.278232 
L 170.903977 216.45973 
L 171.625606 216.45973 
L 171.625606 215.821835 
L 172.347236 215.821835 
L 172.347236 215.226741 
L 173.068865 215.226741 
L 173.068865 214.872413 
L 173.790495 214.872413 
L 173.790495 214.436707 
L 174.512124 214.436707 
L 174.512124 213.734514 
L 175.233754 213.734514 
L 175.233754 212.7074 
L 175.955383 212.7074 
L 175.955383 212.336373 
L 176.677013 212.336373 
L 176.677013 212.094392 
L 178.120272 212.006666 
L 178.120272 210.902119 
L 178.841901 210.902119 
L 178.841901 210.713746 
L 179.563531 210.713746 
L 179.563531 210.029002 
L 180.28516 210.029002 
L 180.28516 210.174164 
L 181.00679 210.174164 
L 181.00679 209.773335 
L 182.450048 209.79011 
L 182.450048 209.598684 
L 183.171678 209.598684 
L 183.171678 209.226421 
L 183.893307 209.226421 
L 183.893307 208.996091 
L 185.336566 208.952299 
L 185.336566 209.337234 
L 186.779825 209.275159 
L 186.779825 208.577169 
L 187.501455 208.577169 
L 187.501455 209.207288 
L 188.223084 209.207288 
L 188.223084 209.668702 
L 188.944714 209.668702 
L 188.944714 209.808009 
L 189.666343 209.808009 
L 189.666343 210.241051 
L 190.387973 210.241051 
L 190.387973 210.09944 
L 191.109602 210.09944 
L 191.109602 210.405067 
L 191.831232 210.405067 
L 191.831232 211.32589 
L 192.552861 211.32589 
L 192.552861 211.45527 
L 193.99612 211.503311 
L 193.99612 212.132741 
L 194.71775 212.132741 
L 194.71775 212.31865 
L 195.439379 212.31865 
L 195.439379 212.630032 
L 196.161009 212.630032 
L 196.161009 213.179135 
L 197.604268 213.222463 
L 197.604268 212.904105 
L 198.325897 212.904105 
L 198.325897 213.379712 
L 199.047527 213.379712 
L 199.047527 212.998314 
L 199.769156 212.998314 
L 199.769156 212.873989 
L 200.490786 212.873989 
L 200.490786 212.486634 
L 201.212415 212.486634 
L 201.212415 211.796242 
L 201.934045 211.796242 
L 201.934045 211.170643 
L 202.655674 211.170643 
L 202.655674 210.607454 
L 203.377304 210.607454 
L 203.377304 209.234585 
L 204.098933 209.234585 
L 204.098933 208.285529 
L 204.820563 208.285529 
L 204.820563 207.029846 
L 205.542192 207.029846 
L 205.542192 204.869377 
L 206.263822 204.869377 
L 206.263822 202.741177 
L 206.985451 202.741177 
L 206.985451 200.51617 
L 207.707081 200.51617 
L 207.707081 197.88964 
L 208.42871 197.88964 
L 208.42871 195.173191 
L 209.150339 195.173191 
L 209.150339 192.781205 
L 209.871969 192.781205 
L 209.871969 189.463225 
L 210.593598 189.463225 
L 210.593598 185.426277 
L 211.315228 185.426277 
L 211.315228 181.836188 
L 212.036857 181.836188 
L 212.036857 177.913664 
L 212.758487 177.913664 
L 212.758487 174.224585 
L 213.480116 174.224585 
L 213.480116 170.52403 
L 214.201746 170.52403 
L 214.201746 166.109352 
L 214.923375 166.109352 
L 214.923375 162.427314 
L 215.645005 162.427314 
L 215.645005 158.499685 
L 216.366634 158.499685 
L 216.366634 155.084021 
L 217.088264 155.084021 
L 217.088264 151.728788 
L 217.809893 151.728788 
L 217.809893 149.09123 
L 218.531523 149.09123 
L 218.531523 146.406902 
L 219.253152 146.406902 
L 219.253152 143.861501 
L 219.974782 143.861501 
L 219.974782 142.768092 
L 220.696411 142.768092 
L 220.696411 141.892802 
L 221.418041 141.892802 
L 221.418041 140.058011 
L 222.13967 140.058011 
L 222.13967 140.53808 
L 223.582929 140.571194 
L 223.582929 140.699503 
L 224.304559 140.699503 
L 224.304559 142.166917 
L 225.026188 142.166917 
L 225.026188 142.791569 
L 225.747818 142.791569 
L 225.747818 144.913229 
L 226.469447 144.913229 
L 226.469447 146.841527 
L 227.191077 146.841527 
L 227.191077 149.425458 
L 227.912706 149.425458 
L 227.912706 151.866139 
L 228.634336 151.866139 
L 228.634336 155.858513 
L 229.355965 155.858513 
L 229.355965 158.289056 
L 230.077595 158.289056 
L 230.077595 160.967881 
L 230.799224 160.967881 
L 230.799224 165.832081 
L 231.520854 165.832081 
L 231.520854 170.029396 
L 232.242483 170.029396 
L 232.242483 174.990919 
L 232.964113 174.990919 
L 232.964113 179.228854 
L 233.685742 179.228854 
L 233.685742 181.809738 
L 234.407371 181.809738 
L 234.407371 187.092428 
L 235.129001 187.092428 
L 235.129001 191.203839 
L 235.85063 191.203839 
L 235.85063 196.105499 
L 236.57226 196.105499 
L 236.57226 199.826821 
L 237.293889 199.826821 
L 237.293889 204.159413 
L 238.015519 204.159413 
L 238.015519 206.833385 
L 238.737148 206.833385 
L 238.737148 210.256214 
L 239.458778 210.256214 
L 239.458778 213.389539 
L 240.180407 213.389539 
L 240.180407 216.509694 
L 240.902037 216.509694 
L 240.902037 219.413411 
L 241.623666 219.413411 
L 241.623666 221.827507 
L 242.345296 221.827507 
L 242.345296 224.164661 
L 243.066925 224.164661 
L 243.066925 226.285453 
L 243.788555 226.285453 
L 243.788555 228.577597 
L 244.510184 228.577597 
L 244.510184 230.279976 
L 245.231814 230.279976 
L 245.231814 232.020287 
L 245.953443 232.020287 
L 245.953443 233.516675 
L 246.675073 233.516675 
L 246.675073 234.875672 
L 247.396702 234.875672 
L 247.396702 236.169191 
L 248.118332 236.169191 
L 248.118332 237.204834 
L 248.839961 237.204834 
L 248.839961 238.115338 
L 249.561591 238.115338 
L 249.561591 238.929419 
L 250.28322 238.929419 
L 250.28322 239.566786 
L 251.00485 239.566786 
L 251.00485 240.092107 
L 251.726479 240.092107 
L 251.726479 240.480704 
L 252.448109 240.480704 
L 252.448109 240.822948 
L 253.169738 240.822948 
L 253.169738 241.071659 
L 253.891368 241.071659 
L 253.891368 241.255605 
L 254.612997 241.255605 
L 254.612997 241.391021 
L 256.056256 241.476265 
L 256.056256 241.547223 
L 364.300679 241.647115 
L 364.300679 241.667382 
L 370.795344 241.656478 
L 370.795344 241.654819 
" style="fill:none;stroke:#1f77b4;stroke-linecap:square;stroke-width:1.5;"/>
   </g>
   <g id="line2d_16">
    <path clip-path="url(#p9579afbc3a)" d="M 10.702231 241.657165 
L 13.588749 241.65616 
L 15.753637 241.439212 
L 16.475267 241.598434 
L 17.196896 240.87332 
L 17.918526 240.945262 
L 19.361785 239.041949 
L 20.083414 239.21795 
L 20.805044 234.592509 
L 21.526673 232.77721 
L 22.248303 232.669235 
L 22.969932 227.499928 
L 24.413191 211.890653 
L 25.85645 201.722353 
L 26.57808 191.957527 
L 27.299709 184.605776 
L 28.021339 171.536724 
L 28.742968 165.677056 
L 29.464597 148.56945 
L 30.186227 155.023632 
L 30.907856 141.681484 
L 31.629486 138.162707 
L 32.351115 138.444875 
L 33.072745 134.867938 
L 34.516004 124.397063 
L 35.237633 117.230336 
L 35.959263 125.050618 
L 36.680892 112.628817 
L 37.402522 125.000724 
L 38.124151 127.285144 
L 38.845781 126.800721 
L 39.56741 131.789406 
L 40.28904 126.437371 
L 41.010669 137.718312 
L 41.732299 143.410697 
L 42.453928 135.946772 
L 43.175558 131.139997 
L 43.897187 143.902625 
L 44.618817 142.882902 
L 45.340446 141.366508 
L 46.783705 149.840221 
L 47.505335 160.754927 
L 48.226964 164.021169 
L 48.948594 170.132864 
L 49.670223 171.397482 
L 50.391853 175.132028 
L 51.113482 185.392907 
L 51.835112 182.83515 
L 52.556741 192.619439 
L 53.278371 195.565063 
L 54 200.549967 
L 54.721629 201.737258 
L 55.443259 203.907292 
L 56.886518 212.357493 
L 57.608147 215.603038 
L 58.329777 212.540188 
L 59.051406 219.709412 
L 59.773036 219.477113 
L 60.494665 221.895045 
L 61.216295 225.228169 
L 61.937924 224.167744 
L 62.659554 225.478204 
L 63.381183 223.160454 
L 64.102813 226.23034 
L 64.824442 223.96395 
L 65.546072 227.097805 
L 66.267701 222.24647 
L 66.989331 225.62268 
L 67.71096 225.721218 
L 68.43259 225.301098 
L 69.875849 224.777459 
L 70.597478 225.711773 
L 71.319108 227.460899 
L 72.040737 227.486264 
L 72.762367 229.861037 
L 73.483996 227.724514 
L 74.205626 228.117532 
L 74.927255 229.346515 
L 75.648885 224.895696 
L 77.092144 227.252847 
L 77.813773 229.517017 
L 78.535403 230.976439 
L 79.257032 228.552859 
L 79.978661 228.563371 
L 80.700291 229.043323 
L 81.42192 232.597869 
L 82.14355 230.561405 
L 82.865179 228.074293 
L 83.586809 229.031664 
L 84.308438 232.057677 
L 85.030068 227.800555 
L 85.751697 230.084401 
L 86.473327 223.093874 
L 87.194956 226.703516 
L 87.916586 226.21846 
L 88.638215 224.234396 
L 89.359845 225.68702 
L 90.081474 226.655816 
L 91.524733 219.495707 
L 92.246363 224.461574 
L 92.967992 224.936925 
L 93.689622 223.382407 
L 94.411251 222.761031 
L 95.132881 218.864276 
L 95.85451 221.316765 
L 96.57614 221.184509 
L 97.297769 216.733318 
L 98.019399 222.002896 
L 98.741028 216.673038 
L 99.462658 216.142084 
L 100.184287 219.557984 
L 100.905917 216.675184 
L 101.627546 217.727516 
L 102.349176 211.175346 
L 103.070805 218.840903 
L 103.792435 212.937977 
L 104.514064 217.45238 
L 105.235694 213.21996 
L 106.678952 218.703118 
L 107.400582 219.940937 
L 108.122211 218.113495 
L 108.843841 221.785285 
L 109.56547 226.982749 
L 110.2871 225.493196 
L 111.008729 229.198907 
L 112.451988 226.535744 
L 113.173618 228.878275 
L 113.895247 229.942556 
L 114.616877 230.722622 
L 115.338506 230.854156 
L 116.060136 233.977348 
L 116.781765 232.338103 
L 117.503395 231.197994 
L 118.225024 230.786793 
L 118.946654 230.190341 
L 119.668283 232.214833 
L 120.389913 233.774729 
L 121.111542 229.427912 
L 121.833172 230.375536 
L 122.554801 232.133564 
L 123.276431 230.898598 
L 123.99806 233.877326 
L 124.71969 231.959696 
L 125.441319 229.217338 
L 126.162949 230.0423 
L 126.884578 227.769607 
L 127.606208 229.914371 
L 128.327837 232.410446 
L 129.049467 233.159503 
L 130.492726 227.419163 
L 131.214355 231.87487 
L 131.935984 228.064192 
L 132.657614 230.694252 
L 133.379243 229.511299 
L 134.100873 228.867012 
L 134.822502 227.909077 
L 135.544132 231.570694 
L 136.265761 229.598305 
L 136.987391 232.23689 
L 137.70902 230.769788 
L 138.43065 229.60377 
L 139.152279 231.534499 
L 139.873909 230.320401 
L 140.595538 224.804242 
L 141.317168 229.248165 
L 142.038797 230.392565 
L 142.760427 230.05164 
L 143.482056 227.621361 
L 144.203686 227.50418 
L 144.925315 227.574853 
L 145.646945 228.732689 
L 146.368574 230.864457 
L 147.090204 230.111013 
L 147.811833 226.067364 
L 148.533463 226.473276 
L 149.255092 226.223764 
L 149.976722 226.664365 
L 150.698351 227.493987 
L 151.419981 225.892721 
L 152.14161 222.967302 
L 152.86324 230.592495 
L 153.584869 226.605978 
L 154.306499 225.5011 
L 155.028128 226.898692 
L 155.749758 223.684169 
L 156.471387 226.516794 
L 157.914646 220.188582 
L 158.636275 223.24357 
L 159.357905 221.794555 
L 160.079534 221.286394 
L 160.801164 217.429461 
L 161.522793 224.816226 
L 162.244423 223.859031 
L 162.966052 219.233559 
L 164.409311 220.841304 
L 165.130941 223.922383 
L 165.85257 217.954982 
L 166.5742 222.64585 
L 167.295829 222.588037 
L 168.017459 218.635199 
L 168.739088 221.058073 
L 169.460718 220.232516 
L 170.182347 221.705771 
L 170.903977 220.241514 
L 171.625606 221.026163 
L 173.068865 213.07506 
L 173.790495 222.608416 
L 174.512124 214.794886 
L 175.233754 218.59194 
L 175.955383 213.815192 
L 176.677013 211.604932 
L 178.120272 208.241804 
L 178.841901 214.761737 
L 179.563531 207.854726 
L 180.28516 209.858102 
L 181.00679 209.037343 
L 181.728419 209.882802 
L 182.450048 210.1747 
L 183.171678 206.497944 
L 183.893307 210.15003 
L 184.614937 203.950805 
L 185.336566 209.268578 
L 186.058196 206.2326 
L 186.779825 205.817331 
L 187.501455 205.685305 
L 188.223084 203.144206 
L 188.944714 210.317541 
L 189.666343 208.417477 
L 190.387973 207.353736 
L 191.831232 212.885843 
L 192.552861 212.939971 
L 193.274491 213.299185 
L 193.99612 213.302629 
L 194.71775 217.468687 
L 195.439379 216.639258 
L 196.161009 217.412338 
L 196.882638 219.156209 
L 197.604268 214.303611 
L 198.325897 223.13942 
L 199.047527 220.484805 
L 199.769156 222.564165 
L 200.490786 216.698329 
L 201.212415 224.381509 
L 201.934045 220.807614 
L 202.655674 222.024459 
L 203.377304 221.765281 
L 204.098933 225.612617 
L 205.542192 219.931969 
L 206.263822 222.302106 
L 206.985451 219.140467 
L 207.707081 217.404874 
L 208.42871 222.389405 
L 209.150339 216.567486 
L 209.871969 216.262824 
L 210.593598 216.248189 
L 211.315228 213.992408 
L 212.036857 213.08465 
L 212.758487 202.88084 
L 213.480116 197.262674 
L 214.201746 195.274158 
L 214.923375 201.436838 
L 215.645005 187.3298 
L 218.531523 143.359415 
L 219.253152 136.670987 
L 219.974782 119.716866 
L 220.696411 121.472087 
L 221.418041 105.091945 
L 222.13967 103.079504 
L 223.582929 60.487795 
L 224.304559 87.285247 
L 225.026188 80.055073 
L 226.469447 91.412678 
L 227.191077 109.734569 
L 227.912706 125.118616 
L 228.634336 134.82647 
L 230.077595 169.158947 
L 230.799224 177.834302 
L 231.520854 189.308903 
L 232.242483 202.859396 
L 233.685742 222.324618 
L 234.407371 230.011956 
L 235.129001 231.241858 
L 235.85063 234.818819 
L 236.57226 237.780192 
L 237.293889 238.927061 
L 238.015519 241.0609 
L 238.737148 240.756182 
L 239.458778 241.455406 
L 240.180407 241.567437 
L 240.902037 241.531458 
L 242.345296 241.706925 
L 243.066925 241.538566 
L 243.788555 241.934313 
L 244.510184 241.614441 
L 245.953443 241.709622 
L 247.396702 241.67756 
L 253.891368 241.620717 
L 254.612997 241.686049 
L 255.334627 241.594294 
L 259.664403 241.715435 
L 260.386033 241.622966 
L 261.829292 241.71495 
L 262.550921 241.636321 
L 264.71581 241.728122 
L 265.437439 241.528856 
L 266.159069 241.712683 
L 266.880698 241.635203 
L 267.602328 241.724601 
L 268.323957 241.580948 
L 269.045587 241.616591 
L 269.767216 241.439413 
L 270.488846 241.657355 
L 272.653734 241.659573 
L 273.375364 241.78191 
L 274.096993 241.635076 
L 274.818623 241.746218 
L 275.540252 241.660964 
L 276.261882 241.797339 
L 276.983511 241.572131 
L 278.42677 241.653132 
L 279.1484 241.536639 
L 281.313288 241.68841 
L 282.034918 241.57048 
L 283.478177 241.641043 
L 284.199806 241.574988 
L 285.643065 241.694746 
L 292.13773 241.645504 
L 294.302619 241.656499 
L 300.075655 241.681958 
L 300.797284 241.589862 
L 302.962173 241.708005 
L 303.683802 241.642571 
L 304.405432 241.719846 
L 306.57032 241.57018 
L 308.013579 241.64823 
L 309.456838 241.680024 
L 349.14646 241.639568 
L 349.868089 241.718861 
L 351.311348 241.658688 
L 353.476237 241.610742 
L 354.197866 241.731482 
L 355.641125 241.660302 
L 360.692532 241.696094 
L 361.414161 241.739606 
L 362.13579 241.608275 
L 364.300679 241.713926 
L 365.743938 241.571643 
L 367.187197 241.681811 
L 367.908826 241.820517 
L 368.630456 241.526436 
L 370.795344 241.669116 
L 370.795344 241.669116 
" style="fill:none;stroke:#ff7f0e;stroke-dasharray:5.55,2.4;stroke-dashoffset:0;stroke-width:1.5;"/>
   </g>
   <g id="line2d_17">
    <path clip-path="url(#p9579afbc3a)" d="M 54 185.872776 
L 54.721629 185.872776 
L 54.721629 187.569813 
L 55.443259 187.569813 
L 55.443259 190.272405 
L 56.164888 190.272405 
L 56.164888 192.796424 
L 56.886518 192.796424 
L 56.886518 195.099243 
L 57.608147 195.099243 
L 57.608147 197.680483 
L 58.329777 197.680483 
L 58.329777 200.069623 
L 59.051406 200.069623 
L 59.051406 202.418245 
L 59.773036 202.418245 
L 59.773036 204.306881 
L 60.494665 204.306881 
L 60.494665 206.361688 
L 61.216295 206.361688 
L 61.216295 208.201165 
L 61.937924 208.201165 
L 61.937924 210.296625 
L 62.659554 210.296625 
L 62.659554 211.931951 
L 63.381183 211.931951 
L 63.381183 213.393579 
L 64.102813 213.393579 
L 64.102813 215.12 
L 64.824442 215.12 
L 64.824442 216.168983 
L 65.546072 216.168983 
L 65.546072 217.517027 
L 66.267701 217.517027 
L 66.267701 218.647166 
L 66.989331 218.647166 
L 66.989331 219.862979 
L 67.71096 219.862979 
L 67.71096 220.690847 
L 68.43259 220.690847 
L 68.43259 221.638977 
L 69.154219 221.638977 
L 69.154219 222.470786 
L 69.875849 222.470786 
L 69.875849 223.121921 
L 70.597478 223.121921 
L 70.597478 223.907982 
L 71.319108 223.907982 
L 71.319108 224.348576 
L 72.040737 224.348576 
L 72.040737 224.809321 
L 72.762367 224.809321 
L 72.762367 225.237487 
L 73.483996 225.237487 
L 73.483996 225.582195 
L 74.205626 225.582195 
L 74.205626 226.092774 
L 75.648885 226.149344 
L 75.648885 226.523219 
L 76.370514 226.523219 
L 76.370514 226.396401 
L 77.092144 226.396401 
L 77.092144 226.651744 
L 77.813773 226.651744 
L 77.813773 226.79765 
L 79.257032 226.764605 
L 79.257032 226.931091 
L 79.978661 226.931091 
L 79.978661 226.811301 
L 80.700291 226.811301 
L 80.700291 226.630957 
L 82.14355 226.736942 
L 82.14355 226.820478 
L 83.586809 226.749641 
L 83.586809 226.495401 
L 84.308438 226.495401 
L 84.308438 226.380511 
L 85.030068 226.380511 
L 85.030068 226.242034 
L 85.751697 226.242034 
L 85.751697 225.903924 
L 87.194956 225.830596 
L 87.194956 225.529378 
L 87.916586 225.529378 
L 87.916586 224.99666 
L 89.359845 225.059869 
L 89.359845 224.711416 
L 90.803104 224.616102 
L 90.803104 224.205635 
L 91.524733 224.205635 
L 91.524733 223.846977 
L 92.246363 223.846977 
L 92.246363 223.569206 
L 92.967992 223.569206 
L 92.967992 223.411687 
L 93.689622 223.411687 
L 93.689622 223.012026 
L 94.411251 223.012026 
L 94.411251 222.850443 
L 95.132881 222.850443 
L 95.132881 222.736027 
L 95.85451 222.736027 
L 95.85451 222.385132 
L 96.57614 222.385132 
L 96.57614 222.004084 
L 98.019399 222.102253 
L 98.019399 221.817745 
L 100.184287 221.878521 
L 100.184287 221.612104 
L 100.905917 221.612104 
L 100.905917 221.803448 
L 101.627546 221.803448 
L 101.627546 221.546143 
L 102.349176 221.546143 
L 102.349176 221.660179 
L 103.070805 221.660179 
L 103.070805 221.896954 
L 104.514064 221.829817 
L 104.514064 222.013255 
L 105.957323 222.101813 
L 105.957323 222.538977 
L 106.678952 222.538977 
L 106.678952 222.344096 
L 107.400582 222.344096 
L 107.400582 222.774338 
L 108.122211 222.774338 
L 108.122211 223.102667 
L 109.56547 223.166337 
L 109.56547 223.486046 
L 110.2871 223.486046 
L 110.2871 223.86838 
L 111.008729 223.86838 
L 111.008729 224.198493 
L 111.730359 224.198493 
L 111.730359 224.666707 
L 112.451988 224.666707 
L 112.451988 225.110287 
L 113.173618 225.110287 
L 113.173618 225.430875 
L 113.895247 225.430875 
L 113.895247 225.749788 
L 114.616877 225.749788 
L 114.616877 226.289237 
L 116.060136 226.268547 
L 116.060136 226.950197 
L 116.781765 226.950197 
L 116.781765 227.191344 
L 117.503395 227.191344 
L 117.503395 227.564041 
L 118.225024 227.564041 
L 118.225024 227.884598 
L 118.946654 227.884598 
L 118.946654 228.254795 
L 119.668283 228.254795 
L 119.668283 228.57751 
L 120.389913 228.57751 
L 120.389913 228.897654 
L 121.111542 228.897654 
L 121.111542 229.462543 
L 121.833172 229.462543 
L 121.833172 229.332388 
L 123.276431 229.418387 
L 123.276431 229.536852 
L 124.71969 229.623418 
L 124.71969 229.98187 
L 125.441319 229.98187 
L 125.441319 230.263545 
L 131.214355 230.190167 
L 131.214355 230.127834 
L 132.657614 230.068659 
L 132.657614 229.973922 
L 134.100873 229.997797 
L 134.100873 230.209694 
L 134.822502 230.209694 
L 134.822502 229.82151 
L 136.987391 229.712796 
L 136.987391 229.345483 
L 138.43065 229.31737 
L 138.43065 229.527422 
L 139.152279 229.527422 
L 139.152279 229.263814 
L 140.595538 229.157584 
L 140.595538 228.965425 
L 141.317168 228.965425 
L 141.317168 228.728325 
L 143.482056 228.764693 
L 143.482056 228.417212 
L 144.925315 228.361887 
L 144.925315 227.960402 
L 145.646945 227.960402 
L 145.646945 227.753756 
L 146.368574 227.753756 
L 146.368574 227.630861 
L 147.811833 227.686141 
L 147.811833 227.374484 
L 148.533463 227.374484 
L 148.533463 227.141233 
L 149.255092 227.141233 
L 149.255092 226.925479 
L 149.976722 226.925479 
L 149.976722 226.628059 
L 150.698351 226.628059 
L 150.698351 226.400199 
L 152.14161 226.436942 
L 152.14161 226.054198 
L 152.86324 226.054198 
L 152.86324 225.606595 
L 154.306499 225.616796 
L 154.306499 225.314297 
L 155.028128 225.314297 
L 155.028128 224.812077 
L 155.749758 224.812077 
L 155.749758 225.018839 
L 156.471387 225.018839 
L 156.471387 224.627973 
L 157.193016 224.627973 
L 157.193016 224.269998 
L 158.636275 224.215942 
L 158.636275 223.79885 
L 159.357905 223.79885 
L 159.357905 223.492816 
L 160.079534 223.492816 
L 160.079534 223.182432 
L 160.801164 223.182432 
L 160.801164 222.865175 
L 161.522793 222.865175 
L 161.522793 222.48427 
L 162.244423 222.48427 
L 162.244423 222.03429 
L 163.687682 221.983256 
L 163.687682 221.579646 
L 164.409311 221.579646 
L 164.409311 221.331813 
L 165.130941 221.331813 
L 165.130941 220.851895 
L 165.85257 220.851895 
L 165.85257 220.478291 
L 166.5742 220.478291 
L 166.5742 220.21979 
L 167.295829 220.21979 
L 167.295829 219.798678 
L 168.017459 219.798678 
L 168.017459 219.432551 
L 168.739088 219.432551 
L 168.739088 218.768092 
L 169.460718 218.768092 
L 169.460718 218.439414 
L 170.182347 218.439414 
L 170.182347 218.13534 
L 170.903977 218.13534 
L 170.903977 217.720627 
L 172.347236 217.669163 
L 172.347236 217.151918 
L 173.068865 217.151918 
L 173.068865 216.600061 
L 173.790495 216.600061 
L 173.790495 216.088229 
L 174.512124 216.088229 
L 174.512124 215.900956 
L 175.233754 215.900956 
L 175.233754 215.557491 
L 175.955383 215.557491 
L 175.955383 215.015226 
L 177.398642 215.07802 
L 177.398642 214.135939 
L 178.120272 214.135939 
L 178.120272 214.017829 
L 178.841901 214.017829 
L 178.841901 213.784809 
L 179.563531 213.784809 
L 179.563531 213.446984 
L 180.28516 213.446984 
L 180.28516 213.315704 
L 181.00679 213.315704 
L 181.00679 212.944056 
L 182.450048 212.962669 
L 182.450048 212.287309 
L 183.171678 212.287309 
L 183.171678 212.41709 
L 184.614937 212.493545 
L 184.614937 212.13748 
L 185.336566 212.13748 
L 185.336566 212.435602 
L 186.058196 212.435602 
L 186.058196 212.129804 
L 186.779825 212.129804 
L 186.779825 212.352345 
L 187.501455 212.352345 
L 187.501455 211.931377 
L 188.223084 211.931377 
L 188.223084 212.45852 
L 189.666343 212.405808 
L 189.666343 212.339194 
L 190.387973 212.339194 
L 190.387973 212.86308 
L 191.831232 212.767428 
L 191.831232 213.168483 
L 193.274491 213.220239 
L 193.274491 213.627563 
L 193.99612 213.627563 
L 193.99612 213.900625 
L 195.439379 213.901792 
L 195.439379 214.308238 
L 196.882638 214.385769 
L 196.882638 214.47568 
L 198.325897 214.455881 
L 198.325897 214.332007 
L 200.490786 214.349811 
L 200.490786 214.097804 
L 201.212415 214.097804 
L 201.212415 213.771105 
L 201.934045 213.771105 
L 201.934045 212.997286 
L 202.655674 212.997286 
L 202.655674 212.067501 
L 203.377304 212.067501 
L 203.377304 211.31223 
L 204.098933 211.31223 
L 204.098933 210.605796 
L 204.820563 210.605796 
L 204.820563 209.165053 
L 205.542192 209.165053 
L 205.542192 207.721989 
L 206.263822 207.721989 
L 206.263822 206.232085 
L 206.985451 206.232085 
L 206.985451 204.418538 
L 207.707081 204.418538 
L 207.707081 202.19421 
L 208.42871 202.19421 
L 208.42871 200.059065 
L 209.150339 200.059065 
L 209.150339 198.016799 
L 209.871969 198.016799 
L 209.871969 195.438857 
L 210.593598 195.438857 
L 210.593598 192.837427 
L 211.315228 192.837427 
L 211.315228 191.249696 
L 212.036857 191.249696 
L 212.036857 187.753906 
L 212.758487 187.753906 
L 212.758487 185.252924 
L 213.480116 185.252924 
L 213.480116 182.801037 
L 214.201746 182.801037 
L 214.201746 180.166887 
L 214.923375 180.166887 
L 214.923375 177.283252 
L 215.645005 177.283252 
L 215.645005 175.083171 
L 216.366634 175.083171 
L 216.366634 173.49622 
L 217.088264 173.49622 
L 217.088264 171.261227 
L 217.809893 171.261227 
L 217.809893 169.479378 
L 218.531523 169.479378 
L 218.531523 167.711974 
L 219.253152 167.711974 
L 219.253152 166.155647 
L 219.974782 166.155647 
L 219.974782 164.569498 
L 220.696411 164.569498 
L 220.696411 163.137731 
L 221.418041 163.137731 
L 221.418041 162.428327 
L 222.13967 162.428327 
L 222.13967 161.795356 
L 222.8613 161.795356 
L 222.8613 160.596966 
L 224.304559 160.695393 
L 224.304559 160.026893 
L 225.026188 160.026893 
L 225.026188 160.643364 
L 225.747818 160.643364 
L 225.747818 161.165503 
L 226.469447 161.165503 
L 226.469447 161.436599 
L 227.191077 161.436599 
L 227.191077 162.910486 
L 228.634336 162.967151 
L 228.634336 164.497961 
L 229.355965 164.497961 
L 229.355965 167.154883 
L 230.077595 167.154883 
L 230.077595 169.30118 
L 230.799224 169.30118 
L 230.799224 171.977983 
L 231.520854 171.977983 
L 231.520854 174.673463 
L 232.242483 174.673463 
L 232.242483 177.952887 
L 232.964113 177.952887 
L 232.964113 180.611553 
L 233.685742 180.611553 
L 233.685742 183.496608 
L 234.407371 183.496608 
L 234.407371 187.456384 
L 235.129001 187.456384 
L 235.129001 190.864278 
L 235.85063 190.864278 
L 235.85063 194.393999 
L 236.57226 194.393999 
L 236.57226 197.879493 
L 237.293889 197.879493 
L 237.293889 201.973646 
L 238.015519 201.973646 
L 238.015519 205.065367 
L 238.737148 205.065367 
L 238.737148 208.964896 
L 239.458778 208.964896 
L 239.458778 212.534035 
L 240.180407 212.534035 
L 240.180407 215.596564 
L 240.902037 215.596564 
L 240.902037 218.470929 
L 241.623666 218.470929 
L 241.623666 221.12821 
L 242.345296 221.12821 
L 242.345296 223.929214 
L 243.066925 223.929214 
L 243.066925 226.111108 
L 243.788555 226.111108 
L 243.788555 228.296075 
L 244.510184 228.296075 
L 244.510184 230.352236 
L 245.231814 230.352236 
L 245.231814 232.048505 
L 245.953443 232.048505 
L 245.953443 233.532252 
L 246.675073 233.532252 
L 246.675073 234.872464 
L 247.396702 234.872464 
L 247.396702 236.085255 
L 248.118332 236.085255 
L 248.118332 237.157064 
L 248.839961 237.157064 
L 248.839961 238.020469 
L 249.561591 238.020469 
L 249.561591 238.755278 
L 250.28322 238.755278 
L 250.28322 239.368305 
L 251.00485 239.368305 
L 251.00485 239.896113 
L 251.726479 239.896113 
L 251.726479 240.311234 
L 252.448109 240.311234 
L 252.448109 240.684539 
L 253.169738 240.684539 
L 253.169738 240.94877 
L 253.891368 240.94877 
L 253.891368 241.166566 
L 254.612997 241.166566 
L 254.612997 241.322931 
L 256.056256 241.423385 
L 256.056256 241.508112 
L 258.221145 241.598643 
L 258.221145 241.621582 
L 370.795344 241.647034 
L 370.795344 241.655125 
" style="fill:none;stroke:#ff7f0e;stroke-linecap:square;stroke-width:1.5;"/>
   </g>
   <g id="line2d_18">
    <path clip-path="url(#p9579afbc3a)" d="M 10.702231 241.685746 
L 11.42386 241.291844 
L 12.14549 241.462209 
L 12.867119 240.790232 
L 13.588749 241.561958 
L 15.032008 241.5668 
L 16.475267 241.677785 
L 17.196896 241.521623 
L 17.918526 241.680879 
L 18.640155 241.705993 
L 19.361785 240.548183 
L 20.083414 240.848926 
L 20.805044 239.266057 
L 21.526673 240.269035 
L 22.248303 238.310303 
L 22.969932 238.483942 
L 23.691562 238.315427 
L 24.413191 238.498076 
L 25.134821 237.784542 
L 25.85645 233.90273 
L 26.57808 236.954871 
L 27.299709 233.168191 
L 28.021339 231.636218 
L 28.742968 230.797033 
L 29.464597 224.343023 
L 30.186227 226.988043 
L 30.907856 226.335298 
L 31.629486 229.344327 
L 32.351115 224.455817 
L 33.072745 229.088333 
L 33.794374 226.342281 
L 34.516004 225.428694 
L 35.237633 225.870951 
L 35.959263 228.18791 
L 36.680892 228.380502 
L 37.402522 225.415578 
L 38.124151 231.169412 
L 38.845781 226.30139 
L 39.56741 228.081601 
L 40.28904 228.330361 
L 41.010669 232.040865 
L 41.732299 228.581361 
L 42.453928 230.329517 
L 43.175558 227.963561 
L 43.897187 231.963244 
L 44.618817 231.452625 
L 45.340446 231.412959 
L 46.783705 235.1887 
L 48.226964 232.836505 
L 48.948594 235.073046 
L 49.670223 234.582779 
L 50.391853 236.733635 
L 51.113482 233.163067 
L 51.835112 236.120531 
L 52.556741 236.935279 
L 53.278371 236.648507 
L 54 236.533821 
L 54.721629 236.035543 
L 55.443259 234.726164 
L 56.164888 235.517008 
L 56.886518 237.422379 
L 58.329777 237.471371 
L 59.051406 239.141971 
L 59.773036 236.722245 
L 60.494665 238.875965 
L 61.216295 237.926702 
L 61.937924 238.350718 
L 62.659554 235.60245 
L 63.381183 238.411339 
L 64.102813 237.991848 
L 64.824442 236.63116 
L 65.546072 237.821063 
L 66.267701 238.360158 
L 67.71096 237.09067 
L 68.43259 238.315851 
L 69.154219 236.336234 
L 69.875849 238.570966 
L 70.597478 237.231211 
L 71.319108 238.356294 
L 72.040737 237.907956 
L 72.762367 239.000446 
L 73.483996 236.583496 
L 74.205626 236.184738 
L 74.927255 238.742357 
L 75.648885 235.136675 
L 76.370514 236.416781 
L 77.092144 238.886643 
L 77.813773 236.759885 
L 78.535403 236.204546 
L 79.257032 235.898355 
L 79.978661 235.255653 
L 80.700291 238.492876 
L 81.42192 234.253297 
L 82.14355 235.94019 
L 82.865179 234.807095 
L 83.586809 234.895037 
L 84.308438 232.819064 
L 85.030068 233.364113 
L 85.751697 230.300966 
L 86.473327 229.699193 
L 87.194956 230.67864 
L 87.916586 227.914689 
L 88.638215 228.527759 
L 89.359845 225.017936 
L 90.081474 225.720534 
L 90.803104 222.130525 
L 91.524733 221.266458 
L 92.246363 219.728589 
L 92.967992 217.107795 
L 93.689622 220.165141 
L 94.411251 213.98153 
L 95.132881 214.981834 
L 95.85451 218.045309 
L 97.297769 219.563677 
L 98.741028 226.054241 
L 99.462658 227.625595 
L 100.184287 226.738145 
L 100.905917 231.15245 
L 101.627546 230.762257 
L 102.349176 226.74444 
L 103.070805 233.546246 
L 103.792435 234.370142 
L 104.514064 234.942335 
L 105.235694 233.663217 
L 105.957323 235.243182 
L 106.678952 235.425683 
L 107.400582 237.450565 
L 108.122211 237.097617 
L 108.843841 237.52995 
L 109.56547 234.786462 
L 111.008729 238.33401 
L 111.730359 239.553504 
L 112.451988 238.034134 
L 113.895247 238.112444 
L 114.616877 239.000253 
L 115.338506 238.939179 
L 116.060136 238.566441 
L 116.781765 239.946483 
L 117.503395 239.449863 
L 118.225024 237.707391 
L 118.946654 238.451106 
L 120.389913 238.929118 
L 121.111542 237.584335 
L 121.833172 240.86884 
L 122.554801 239.40014 
L 123.276431 238.640055 
L 123.99806 237.31467 
L 124.71969 239.011668 
L 125.441319 238.504553 
L 126.162949 240.046914 
L 126.884578 238.461178 
L 127.606208 238.63937 
L 129.049467 238.211095 
L 129.771096 239.19811 
L 130.492726 238.163966 
L 131.214355 238.26811 
L 131.935984 239.160221 
L 132.657614 238.903287 
L 133.379243 238.270111 
L 134.100873 237.439293 
L 134.822502 237.937994 
L 135.544132 237.338642 
L 136.265761 237.22693 
L 136.987391 238.017806 
L 137.70902 237.372589 
L 138.43065 238.369149 
L 139.152279 236.725921 
L 139.873909 236.788742 
L 140.595538 235.597123 
L 141.317168 237.217231 
L 142.038797 236.641159 
L 142.760427 236.456542 
L 143.482056 238.27325 
L 144.925315 237.001537 
L 145.646945 238.221601 
L 146.368574 238.172188 
L 147.090204 235.650584 
L 147.811833 236.151115 
L 148.533463 235.760984 
L 149.255092 235.902444 
L 149.976722 236.246467 
L 150.698351 238.508334 
L 151.419981 236.006631 
L 152.14161 234.399733 
L 152.86324 236.881489 
L 153.584869 236.381942 
L 154.306499 238.709585 
L 155.028128 237.830328 
L 155.749758 236.64452 
L 156.471387 237.265736 
L 157.193016 237.330435 
L 157.914646 238.49501 
L 158.636275 235.64139 
L 159.357905 235.262813 
L 160.079534 236.721452 
L 160.801164 236.361657 
L 161.522793 234.957723 
L 162.244423 238.198401 
L 162.966052 235.340209 
L 163.687682 235.116516 
L 164.409311 236.246352 
L 165.130941 236.050268 
L 165.85257 237.750097 
L 166.5742 234.507578 
L 167.295829 234.380019 
L 168.017459 233.034801 
L 168.739088 236.416929 
L 169.460718 234.454272 
L 170.182347 234.146279 
L 170.903977 234.892979 
L 171.625606 236.156328 
L 172.347236 233.950154 
L 173.068865 233.396534 
L 173.790495 233.845475 
L 174.512124 231.17444 
L 175.233754 231.94621 
L 175.955383 232.30042 
L 176.677013 230.562344 
L 177.398642 230.454344 
L 178.120272 230.746577 
L 178.841901 229.366924 
L 179.563531 228.293779 
L 180.28516 230.769086 
L 181.00679 228.937499 
L 181.728419 231.361317 
L 182.450048 229.841439 
L 183.171678 229.80404 
L 183.893307 225.905603 
L 184.614937 223.926428 
L 185.336566 225.832844 
L 186.058196 228.314204 
L 186.779825 231.87033 
L 187.501455 225.15748 
L 188.223084 227.365971 
L 188.944714 227.116 
L 189.666343 227.040772 
L 190.387973 226.802033 
L 191.109602 226.737306 
L 191.831232 226.915898 
L 192.552861 233.35397 
L 193.274491 230.092092 
L 193.99612 229.753432 
L 194.71775 232.834293 
L 195.439379 234.515001 
L 196.882638 235.805408 
L 197.604268 233.26422 
L 198.325897 238.300889 
L 199.047527 235.619341 
L 199.769156 238.613648 
L 200.490786 238.765279 
L 201.212415 239.068354 
L 201.934045 240.246332 
L 203.377304 240.171811 
L 204.098933 239.978459 
L 204.820563 241.378764 
L 205.542192 241.039351 
L 206.263822 240.481036 
L 206.985451 241.388679 
L 208.42871 241.875056 
L 209.150339 241.762161 
L 209.871969 241.773707 
L 210.593598 240.866099 
L 211.315228 241.519041 
L 212.036857 241.217542 
L 213.480116 241.206291 
L 214.923375 240.84624 
L 215.645005 240.540042 
L 216.366634 241.228114 
L 217.088264 241.476567 
L 217.809893 240.683354 
L 218.531523 241.751197 
L 219.253152 241.017316 
L 219.974782 241.192442 
L 220.696411 240.710687 
L 221.418041 239.973569 
L 222.13967 240.751532 
L 222.8613 240.331837 
L 223.582929 240.449606 
L 224.304559 240.106536 
L 225.026188 239.974863 
L 225.747818 238.76183 
L 226.469447 241.047166 
L 227.912706 240.83968 
L 228.634336 241.29928 
L 229.355965 241.113004 
L 230.077595 240.669524 
L 231.520854 241.069637 
L 232.242483 241.413875 
L 232.964113 242.116364 
L 233.685742 241.344242 
L 234.407371 241.841999 
L 235.129001 241.507512 
L 235.85063 241.678781 
L 237.293889 241.685513 
L 239.458778 241.665088 
L 240.180407 241.701939 
L 240.902037 241.604932 
L 241.623666 241.798519 
L 242.345296 241.622209 
L 246.675073 241.731637 
L 247.396702 241.6519 
L 248.118332 241.723461 
L 248.839961 241.608398 
L 250.28322 241.677342 
L 251.00485 241.576316 
L 251.726479 241.745412 
L 253.169738 241.658158 
L 258.942774 241.722789 
L 259.664403 241.520859 
L 260.386033 241.669213 
L 262.550921 241.60458 
L 263.272551 241.728994 
L 263.99418 241.583066 
L 265.437439 241.675879 
L 271.932105 241.589786 
L 274.096993 241.634887 
L 276.983511 241.587512 
L 277.705141 241.720579 
L 279.1484 241.56124 
L 279.870029 241.65612 
L 281.313288 241.662903 
L 282.034918 241.704453 
L 283.478177 241.656845 
L 285.643065 241.603098 
L 287.086324 241.68195 
L 290.694471 241.697029 
L 292.85936 241.655615 
L 295.024248 241.671871 
L 312.343356 241.658154 
L 317.394762 241.670538 
L 320.28128 241.665404 
L 322.446169 241.656137 
L 324.611057 241.681107 
L 325.332687 241.615286 
L 326.775946 241.699662 
L 330.384093 241.664051 
L 370.795344 241.637782 
L 370.795344 241.637782 
" style="fill:none;stroke:#2ca02c;stroke-dasharray:5.55,2.4;stroke-dashoffset:0;stroke-width:1.5;"/>
   </g>
   <g id="line2d_19">
    <path clip-path="url(#p9579afbc3a)" d="M 54 235.067214 
L 54.721629 235.067214 
L 54.721629 235.219096 
L 55.443259 235.219096 
L 55.443259 235.386725 
L 56.164888 235.386725 
L 56.164888 235.554866 
L 56.886518 235.554866 
L 56.886518 235.714261 
L 57.608147 235.714261 
L 57.608147 236.128118 
L 59.051406 236.194042 
L 59.051406 236.272208 
L 59.773036 236.272208 
L 59.773036 236.42895 
L 61.216295 236.448558 
L 61.216295 236.666539 
L 62.659554 236.664181 
L 62.659554 236.876808 
L 63.381183 236.876808 
L 63.381183 236.7255 
L 64.102813 236.7255 
L 64.102813 237.067397 
L 64.824442 237.067397 
L 64.824442 236.928791 
L 66.267701 237.000712 
L 66.267701 237.096023 
L 66.989331 237.096023 
L 66.989331 236.954766 
L 69.154219 236.91961 
L 69.154219 237.068302 
L 69.875849 237.068302 
L 69.875849 236.636794 
L 70.597478 236.636794 
L 70.597478 236.78677 
L 71.319108 236.78677 
L 71.319108 236.549219 
L 72.762367 236.474496 
L 72.762367 236.136381 
L 73.483996 236.136381 
L 73.483996 235.995718 
L 74.205626 235.995718 
L 74.205626 235.715821 
L 74.927255 235.715821 
L 74.927255 235.448068 
L 75.648885 235.448068 
L 75.648885 235.287506 
L 76.370514 235.287506 
L 76.370514 234.838074 
L 77.092144 234.838074 
L 77.092144 234.471047 
L 77.813773 234.471047 
L 77.813773 234.253771 
L 78.535403 234.253771 
L 78.535403 233.674169 
L 79.257032 233.674169 
L 79.257032 233.355224 
L 79.978661 233.355224 
L 79.978661 232.926358 
L 80.700291 232.926358 
L 80.700291 232.494011 
L 81.42192 232.494011 
L 81.42192 232.082988 
L 82.14355 232.082988 
L 82.14355 231.793961 
L 82.865179 231.793961 
L 82.865179 231.405584 
L 83.586809 231.405584 
L 83.586809 230.650505 
L 85.030068 230.722577 
L 85.030068 230.114545 
L 85.751697 230.114545 
L 85.751697 229.973281 
L 86.473327 229.973281 
L 86.473327 229.369428 
L 87.194956 229.369428 
L 87.194956 229.225665 
L 87.916586 229.225665 
L 87.916586 229.043722 
L 88.638215 229.043722 
L 88.638215 228.616918 
L 90.081474 228.639041 
L 90.081474 228.250481 
L 90.803104 228.250481 
L 90.803104 228.408825 
L 91.524733 228.408825 
L 91.524733 228.074461 
L 92.246363 228.074461 
L 92.246363 228.297494 
L 93.689622 228.256917 
L 93.689622 228.015525 
L 94.411251 228.015525 
L 94.411251 228.348691 
L 95.85451 228.281477 
L 95.85451 228.508903 
L 97.297769 228.576095 
L 97.297769 228.931772 
L 98.741028 229.005788 
L 98.741028 229.435346 
L 100.184287 229.492303 
L 100.184287 229.648543 
L 100.905917 229.648543 
L 100.905917 229.962472 
L 101.627546 229.962472 
L 101.627546 230.245344 
L 102.349176 230.245344 
L 102.349176 230.388809 
L 103.070805 230.388809 
L 103.070805 230.718078 
L 103.792435 230.718078 
L 103.792435 231.107769 
L 104.514064 231.107769 
L 104.514064 231.346898 
L 105.235694 231.346898 
L 105.235694 231.697111 
L 105.957323 231.697111 
L 105.957323 232.122934 
L 106.678952 232.122934 
L 106.678952 232.453698 
L 107.400582 232.453698 
L 107.400582 232.619469 
L 108.122211 232.619469 
L 108.122211 233.312257 
L 108.843841 233.312257 
L 108.843841 233.787021 
L 109.56547 233.787021 
L 109.56547 234.010072 
L 110.2871 234.010072 
L 110.2871 234.307062 
L 111.008729 234.307062 
L 111.008729 234.852129 
L 111.730359 234.852129 
L 111.730359 235.175397 
L 112.451988 235.175397 
L 112.451988 235.521689 
L 113.173618 235.521689 
L 113.173618 235.844235 
L 113.895247 235.844235 
L 113.895247 236.133083 
L 114.616877 236.133083 
L 114.616877 236.355309 
L 115.338506 236.355309 
L 115.338506 236.741314 
L 116.060136 236.741314 
L 116.060136 237.055838 
L 116.781765 237.055838 
L 116.781765 237.19597 
L 117.503395 237.19597 
L 117.503395 237.435378 
L 118.946654 237.479938 
L 118.946654 237.76996 
L 120.389913 237.85537 
L 120.389913 238.039302 
L 122.554801 238.078404 
L 122.554801 238.242907 
L 125.441319 238.259851 
L 125.441319 238.355646 
L 126.162949 238.355646 
L 126.162949 238.192829 
L 126.884578 238.192829 
L 126.884578 238.408733 
L 127.606208 238.408733 
L 127.606208 238.277266 
L 128.327837 238.277266 
L 128.327837 238.148168 
L 132.657614 238.091523 
L 132.657614 237.994287 
L 134.822502 237.891197 
L 134.822502 237.773195 
L 138.43065 237.700421 
L 138.43065 237.566259 
L 139.873909 237.566991 
L 139.873909 237.442479 
L 141.317168 237.451359 
L 141.317168 237.298125 
L 142.038797 237.298125 
L 142.038797 237.47005 
L 142.760427 237.47005 
L 142.760427 237.305314 
L 144.925315 237.225812 
L 144.925315 237.167339 
L 147.090204 237.082531 
L 147.090204 236.990879 
L 149.976722 236.913346 
L 149.976722 236.834835 
L 152.14161 236.879792 
L 152.14161 236.638236 
L 155.749758 236.537574 
L 155.749758 236.458658 
L 156.471387 236.458658 
L 156.471387 236.343687 
L 157.193016 236.343687 
L 157.193016 236.182888 
L 159.357905 236.077975 
L 159.357905 235.916139 
L 160.801164 235.912656 
L 160.801164 235.630359 
L 162.244423 235.625002 
L 162.244423 235.433142 
L 163.687682 235.54072 
L 163.687682 235.132966 
L 165.130941 235.080119 
L 165.130941 234.922343 
L 165.85257 234.922343 
L 165.85257 234.776712 
L 166.5742 234.776712 
L 166.5742 234.544051 
L 167.295829 234.544051 
L 167.295829 234.377995 
L 168.017459 234.377995 
L 168.017459 234.197785 
L 168.739088 234.197785 
L 168.739088 233.799298 
L 170.182347 233.896645 
L 170.182347 233.525442 
L 170.903977 233.525442 
L 170.903977 233.329678 
L 171.625606 233.329678 
L 171.625606 232.958139 
L 173.068865 232.867262 
L 173.068865 232.541672 
L 174.512124 232.505714 
L 174.512124 232.3326 
L 175.233754 232.3326 
L 175.233754 231.886124 
L 176.677013 231.790169 
L 176.677013 231.569012 
L 177.398642 231.569012 
L 177.398642 231.399258 
L 178.120272 231.399258 
L 178.120272 231.211177 
L 179.563531 231.113378 
L 179.563531 230.942192 
L 181.00679 230.929372 
L 181.00679 231.159889 
L 181.728419 231.159889 
L 181.728419 230.723162 
L 183.171678 230.782843 
L 183.171678 230.579368 
L 183.893307 230.579368 
L 183.893307 230.941292 
L 184.614937 230.941292 
L 184.614937 230.639439 
L 185.336566 230.639439 
L 185.336566 230.848878 
L 186.779825 230.931675 
L 186.779825 231.156264 
L 187.501455 231.156264 
L 187.501455 231.484378 
L 188.223084 231.484378 
L 188.223084 231.311935 
L 188.944714 231.311935 
L 188.944714 231.510091 
L 189.666343 231.510091 
L 189.666343 231.655193 
L 190.387973 231.655193 
L 190.387973 232.17111 
L 191.109602 232.17111 
L 191.109602 232.316264 
L 191.831232 232.316264 
L 191.831232 232.619252 
L 193.274491 232.720246 
L 193.274491 233.113327 
L 193.99612 233.113327 
L 193.99612 233.662718 
L 195.439379 233.664518 
L 195.439379 233.984941 
L 196.161009 233.984941 
L 196.161009 234.33976 
L 196.882638 234.33976 
L 196.882638 234.636926 
L 197.604268 234.636926 
L 197.604268 235.142663 
L 199.047527 235.221895 
L 199.047527 235.617997 
L 199.769156 235.617997 
L 199.769156 235.88705 
L 200.490786 235.88705 
L 200.490786 236.494939 
L 201.934045 236.489168 
L 201.934045 236.881623 
L 202.655674 236.881623 
L 202.655674 237.206868 
L 203.377304 237.206868 
L 203.377304 237.491414 
L 204.098933 237.491414 
L 204.098933 237.876411 
L 204.820563 237.876411 
L 204.820563 237.988968 
L 205.542192 237.988968 
L 205.542192 238.43007 
L 206.263822 238.43007 
L 206.263822 238.583736 
L 206.985451 238.583736 
L 206.985451 238.889855 
L 207.707081 238.889855 
L 207.707081 239.069302 
L 208.42871 239.069302 
L 208.42871 239.299133 
L 209.150339 239.299133 
L 209.150339 239.476044 
L 209.871969 239.476044 
L 209.871969 239.635262 
L 210.593598 239.635262 
L 210.593598 239.908085 
L 212.036857 239.892998 
L 212.036857 240.176519 
L 212.758487 240.176519 
L 212.758487 240.302108 
L 214.201746 240.330902 
L 214.201746 240.517432 
L 215.645005 240.530636 
L 215.645005 240.646985 
L 217.809893 240.750925 
L 217.809893 240.808737 
L 220.696411 240.850865 
L 220.696411 240.964955 
L 225.747818 240.981007 
L 225.747818 241.081592 
L 231.520854 241.150786 
L 231.520854 241.206805 
L 236.57226 241.294285 
L 236.57226 241.360794 
L 240.902037 241.471259 
L 240.902037 241.491578 
L 246.675073 241.601889 
L 246.675073 241.61881 
L 370.795344 241.65981 
L 370.795344 241.65508 
" style="fill:none;stroke:#2ca02c;stroke-linecap:square;stroke-width:1.5;"/>
   </g>
   <g id="patch_3">
    <path d="M 54 252 
L 54 34.56 
" style="fill:none;stroke:#000000;stroke-linecap:square;stroke-linejoin:miter;stroke-width:0.8;"/>
   </g>
   <g id="patch_4">
    <path d="M 388.8 252 
L 388.8 34.56 
" style="fill:none;stroke:#000000;stroke-linecap:square;stroke-linejoin:miter;stroke-width:0.8;"/>
   </g>
   <g id="patch_5">
    <path d="M 54 252 
L 388.8 252 
" style="fill:none;stroke:#000000;stroke-linecap:square;stroke-linejoin:miter;stroke-width:0.8;"/>
   </g>
   <g id="patch_6">
    <path d="M 54 34.56 
L 388.8 34.56 
" style="fill:none;stroke:#000000;stroke-linecap:square;stroke-linejoin:miter;stroke-width:0.8;"/>
   </g>
   <g id="legend_1">
    <g id="patch_7">
     <path d="M 332.254688 86.594375 
L 381.8 86.594375 
Q 383.8 86.594375 383.8 84.594375 
L 383.8 41.56 
Q 383.8 39.56 381.8 39.56 
L 332.254688 39.56 
Q 330.254688 39.56 330.254688 41.56 
L 330.254688 84.594375 
Q 330.254688 86.594375 332.254688 86.594375 
z
" style="fill:#ffffff;opacity:0.8;stroke:#cccccc;stroke-linejoin:miter;"/>
    </g>
    <g id="line2d_20">
     <path d="M 334.254688 47.658438 
L 354.254688 47.658438 
" style="fill:none;stroke:#1f77b4;stroke-linecap:square;stroke-width:1.5;"/>
    </g>
    <g id="line2d_21"/>
    <g id="text_15">
     <!-- vac -->
     <defs>
      <path d="M 2.984375 54.6875 
L 12.5 54.6875 
L 29.59375 8.796875 
L 46.6875 54.6875 
L 56.203125 54.6875 
L 35.6875 0 
L 23.484375 0 
z
" id="DejaVuSans-76"/>
      <path d="M 34.28125 27.484375 
Q 23.390625 27.484375 19.1875 25 
Q 14.984375 22.515625 14.984375 16.5 
Q 14.984375 11.71875 18.140625 8.90625 
Q 21.296875 6.109375 26.703125 6.109375 
Q 34.1875 6.109375 38.703125 11.40625 
Q 43.21875 16.703125 43.21875 25.484375 
L 43.21875 27.484375 
z
M 52.203125 31.203125 
L 52.203125 0 
L 43.21875 0 
L 43.21875 8.296875 
Q 40.140625 3.328125 35.546875 0.953125 
Q 30.953125 -1.421875 24.3125 -1.421875 
Q 15.921875 -1.421875 10.953125 3.296875 
Q 6 8.015625 6 15.921875 
Q 6 25.140625 12.171875 29.828125 
Q 18.359375 34.515625 30.609375 34.515625 
L 43.21875 34.515625 
L 43.21875 35.40625 
Q 43.21875 41.609375 39.140625 45 
Q 35.0625 48.390625 27.6875 48.390625 
Q 23 48.390625 18.546875 47.265625 
Q 14.109375 46.140625 10.015625 43.890625 
L 10.015625 52.203125 
Q 14.9375 54.109375 19.578125 55.046875 
Q 24.21875 56 28.609375 56 
Q 40.484375 56 46.34375 49.84375 
Q 52.203125 43.703125 52.203125 31.203125 
z
" id="DejaVuSans-61"/>
      <path d="M 48.78125 52.59375 
L 48.78125 44.1875 
Q 44.96875 46.296875 41.140625 47.34375 
Q 37.3125 48.390625 33.40625 48.390625 
Q 24.65625 48.390625 19.8125 42.84375 
Q 14.984375 37.3125 14.984375 27.296875 
Q 14.984375 17.28125 19.8125 11.734375 
Q 24.65625 6.203125 33.40625 6.203125 
Q 37.3125 6.203125 41.140625 7.25 
Q 44.96875 8.296875 48.78125 10.40625 
L 48.78125 2.09375 
Q 45.015625 0.34375 40.984375 -0.53125 
Q 36.96875 -1.421875 32.421875 -1.421875 
Q 20.0625 -1.421875 12.78125 6.34375 
Q 5.515625 14.109375 5.515625 27.296875 
Q 5.515625 40.671875 12.859375 48.328125 
Q 20.21875 56 33.015625 56 
Q 37.15625 56 41.109375 55.140625 
Q 45.0625 54.296875 48.78125 52.59375 
z
" id="DejaVuSans-63"/>
     </defs>
     <g transform="translate(362.254688 51.158438)scale(0.1 -0.1)">
      <use xlink:href="#DejaVuSans-76"/>
      <use x="59.179688" xlink:href="#DejaVuSans-61"/>
      <use x="120.458984" xlink:href="#DejaVuSans-63"/>
     </g>
    </g>
    <g id="line2d_22">
     <path d="M 334.254688 62.336563 
L 354.254688 62.336563 
" style="fill:none;stroke:#ff7f0e;stroke-linecap:square;stroke-width:1.5;"/>
    </g>
    <g id="line2d_23"/>
    <g id="text_16">
     <!-- al -->
     <defs>
      <path d="M 9.421875 75.984375 
L 18.40625 75.984375 
L 18.40625 0 
L 9.421875 0 
z
" id="DejaVuSans-6c"/>
     </defs>
     <g transform="translate(362.254688 65.836563)scale(0.1 -0.1)">
      <use xlink:href="#DejaVuSans-61"/>
      <use x="61.279297" xlink:href="#DejaVuSans-6c"/>
     </g>
    </g>
    <g id="line2d_24">
     <path d="M 334.254688 77.014688 
L 354.254688 77.014688 
" style="fill:none;stroke:#2ca02c;stroke-linecap:square;stroke-width:1.5;"/>
    </g>
    <g id="line2d_25"/>
    <g id="text_17">
     <!-- sn -->
     <g transform="translate(362.254688 80.514688)scale(0.1 -0.1)">
      <use xlink:href="#DejaVuSans-73"/>
      <use x="52.099609" xlink:href="#DejaVuSans-6e"/>
     </g>
    </g>
   </g>
  </g>
 </g>
 <defs>
  <clipPath id="p9579afbc3a">
   <rect height="217.44" width="334.8" x="54" y="34.56"/>
  </clipPath>
 </defs>
</svg>
