<?xml version="1.0" encoding="utf-8" standalone="no"?>
<!DOCTYPE svg PUBLIC "-//W3C//DTD SVG 1.1//EN"
  "http://www.w3.org/Graphics/SVG/1.1/DTD/svg11.dtd">
<!-- Created with matplotlib (http://matplotlib.org/) -->
<svg height="288pt" version="1.1" viewBox="0 0 432 288" width="432pt" xmlns="http://www.w3.org/2000/svg" xmlns:xlink="http://www.w3.org/1999/xlink">
 <defs>
  <style type="text/css">
*{stroke-linecap:butt;stroke-linejoin:round;}
  </style>
 </defs>
 <g id="figure_1">
  <g id="patch_1">
   <path d="M 0 288 
L 432 288 
L 432 0 
L 0 0 
z
" style="fill:#ffffff;"/>
  </g>
  <g id="axes_1">
   <g id="patch_2">
    <path d="M 54 252 
L 388.8 252 
L 388.8 34.56 
L 54 34.56 
z
" style="fill:#ffffff;"/>
   </g>
   <g id="matplotlib.axis_1">
    <g id="xtick_1">
     <g id="line2d_1">
      <defs>
       <path d="M 0 0 
L 0 3.5 
" id="ma1ecf16d51" style="stroke:#000000;stroke-width:0.8;"/>
      </defs>
      <g>
       <use style="stroke:#000000;stroke-width:0.8;" x="82.865179" xlink:href="#ma1ecf16d51" y="252"/>
      </g>
     </g>
     <g id="text_1">
      <!-- 20 -->
      <defs>
       <path d="M 19.1875 8.296875 
L 53.609375 8.296875 
L 53.609375 0 
L 7.328125 0 
L 7.328125 8.296875 
Q 12.9375 14.109375 22.625 23.890625 
Q 32.328125 33.6875 34.8125 36.53125 
Q 39.546875 41.84375 41.421875 45.53125 
Q 43.3125 49.21875 43.3125 52.78125 
Q 43.3125 58.59375 39.234375 62.25 
Q 35.15625 65.921875 28.609375 65.921875 
Q 23.96875 65.921875 18.8125 64.3125 
Q 13.671875 62.703125 7.8125 59.421875 
L 7.8125 69.390625 
Q 13.765625 71.78125 18.9375 73 
Q 24.125 74.21875 28.421875 74.21875 
Q 39.75 74.21875 46.484375 68.546875 
Q 53.21875 62.890625 53.21875 53.421875 
Q 53.21875 48.921875 51.53125 44.890625 
Q 49.859375 40.875 45.40625 35.40625 
Q 44.1875 33.984375 37.640625 27.21875 
Q 31.109375 20.453125 19.1875 8.296875 
z
" id="DejaVuSans-32"/>
       <path d="M 31.78125 66.40625 
Q 24.171875 66.40625 20.328125 58.90625 
Q 16.5 51.421875 16.5 36.375 
Q 16.5 21.390625 20.328125 13.890625 
Q 24.171875 6.390625 31.78125 6.390625 
Q 39.453125 6.390625 43.28125 13.890625 
Q 47.125 21.390625 47.125 36.375 
Q 47.125 51.421875 43.28125 58.90625 
Q 39.453125 66.40625 31.78125 66.40625 
z
M 31.78125 74.21875 
Q 44.046875 74.21875 50.515625 64.515625 
Q 56.984375 54.828125 56.984375 36.375 
Q 56.984375 17.96875 50.515625 8.265625 
Q 44.046875 -1.421875 31.78125 -1.421875 
Q 19.53125 -1.421875 13.0625 8.265625 
Q 6.59375 17.96875 6.59375 36.375 
Q 6.59375 54.828125 13.0625 64.515625 
Q 19.53125 74.21875 31.78125 74.21875 
z
" id="DejaVuSans-30"/>
      </defs>
      <g transform="translate(76.502679 266.598437)scale(0.1 -0.1)">
       <use xlink:href="#DejaVuSans-32"/>
       <use x="63.623047" xlink:href="#DejaVuSans-30"/>
      </g>
     </g>
    </g>
    <g id="xtick_2">
     <g id="line2d_2">
      <g>
       <use style="stroke:#000000;stroke-width:0.8;" x="155.028128" xlink:href="#ma1ecf16d51" y="252"/>
      </g>
     </g>
     <g id="text_2">
      <!-- 40 -->
      <defs>
       <path d="M 37.796875 64.3125 
L 12.890625 25.390625 
L 37.796875 25.390625 
z
M 35.203125 72.90625 
L 47.609375 72.90625 
L 47.609375 25.390625 
L 58.015625 25.390625 
L 58.015625 17.1875 
L 47.609375 17.1875 
L 47.609375 0 
L 37.796875 0 
L 37.796875 17.1875 
L 4.890625 17.1875 
L 4.890625 26.703125 
z
" id="DejaVuSans-34"/>
      </defs>
      <g transform="translate(148.665628 266.598437)scale(0.1 -0.1)">
       <use xlink:href="#DejaVuSans-34"/>
       <use x="63.623047" xlink:href="#DejaVuSans-30"/>
      </g>
     </g>
    </g>
    <g id="xtick_3">
     <g id="line2d_3">
      <g>
       <use style="stroke:#000000;stroke-width:0.8;" x="227.191077" xlink:href="#ma1ecf16d51" y="252"/>
      </g>
     </g>
     <g id="text_3">
      <!-- 60 -->
      <defs>
       <path d="M 33.015625 40.375 
Q 26.375 40.375 22.484375 35.828125 
Q 18.609375 31.296875 18.609375 23.390625 
Q 18.609375 15.53125 22.484375 10.953125 
Q 26.375 6.390625 33.015625 6.390625 
Q 39.65625 6.390625 43.53125 10.953125 
Q 47.40625 15.53125 47.40625 23.390625 
Q 47.40625 31.296875 43.53125 35.828125 
Q 39.65625 40.375 33.015625 40.375 
z
M 52.59375 71.296875 
L 52.59375 62.3125 
Q 48.875 64.0625 45.09375 64.984375 
Q 41.3125 65.921875 37.59375 65.921875 
Q 27.828125 65.921875 22.671875 59.328125 
Q 17.53125 52.734375 16.796875 39.40625 
Q 19.671875 43.65625 24.015625 45.921875 
Q 28.375 48.1875 33.59375 48.1875 
Q 44.578125 48.1875 50.953125 41.515625 
Q 57.328125 34.859375 57.328125 23.390625 
Q 57.328125 12.15625 50.6875 5.359375 
Q 44.046875 -1.421875 33.015625 -1.421875 
Q 20.359375 -1.421875 13.671875 8.265625 
Q 6.984375 17.96875 6.984375 36.375 
Q 6.984375 53.65625 15.1875 63.9375 
Q 23.390625 74.21875 37.203125 74.21875 
Q 40.921875 74.21875 44.703125 73.484375 
Q 48.484375 72.75 52.59375 71.296875 
z
" id="DejaVuSans-36"/>
      </defs>
      <g transform="translate(220.828577 266.598437)scale(0.1 -0.1)">
       <use xlink:href="#DejaVuSans-36"/>
       <use x="63.623047" xlink:href="#DejaVuSans-30"/>
      </g>
     </g>
    </g>
    <g id="xtick_4">
     <g id="line2d_4">
      <g>
       <use style="stroke:#000000;stroke-width:0.8;" x="299.354025" xlink:href="#ma1ecf16d51" y="252"/>
      </g>
     </g>
     <g id="text_4">
      <!-- 80 -->
      <defs>
       <path d="M 31.78125 34.625 
Q 24.75 34.625 20.71875 30.859375 
Q 16.703125 27.09375 16.703125 20.515625 
Q 16.703125 13.921875 20.71875 10.15625 
Q 24.75 6.390625 31.78125 6.390625 
Q 38.8125 6.390625 42.859375 10.171875 
Q 46.921875 13.96875 46.921875 20.515625 
Q 46.921875 27.09375 42.890625 30.859375 
Q 38.875 34.625 31.78125 34.625 
z
M 21.921875 38.8125 
Q 15.578125 40.375 12.03125 44.71875 
Q 8.5 49.078125 8.5 55.328125 
Q 8.5 64.0625 14.71875 69.140625 
Q 20.953125 74.21875 31.78125 74.21875 
Q 42.671875 74.21875 48.875 69.140625 
Q 55.078125 64.0625 55.078125 55.328125 
Q 55.078125 49.078125 51.53125 44.71875 
Q 48 40.375 41.703125 38.8125 
Q 48.828125 37.15625 52.796875 32.3125 
Q 56.78125 27.484375 56.78125 20.515625 
Q 56.78125 9.90625 50.3125 4.234375 
Q 43.84375 -1.421875 31.78125 -1.421875 
Q 19.734375 -1.421875 13.25 4.234375 
Q 6.78125 9.90625 6.78125 20.515625 
Q 6.78125 27.484375 10.78125 32.3125 
Q 14.796875 37.15625 21.921875 38.8125 
z
M 18.3125 54.390625 
Q 18.3125 48.734375 21.84375 45.5625 
Q 25.390625 42.390625 31.78125 42.390625 
Q 38.140625 42.390625 41.71875 45.5625 
Q 45.3125 48.734375 45.3125 54.390625 
Q 45.3125 60.0625 41.71875 63.234375 
Q 38.140625 66.40625 31.78125 66.40625 
Q 25.390625 66.40625 21.84375 63.234375 
Q 18.3125 60.0625 18.3125 54.390625 
z
" id="DejaVuSans-38"/>
      </defs>
      <g transform="translate(292.991525 266.598437)scale(0.1 -0.1)">
       <use xlink:href="#DejaVuSans-38"/>
       <use x="63.623047" xlink:href="#DejaVuSans-30"/>
      </g>
     </g>
    </g>
    <g id="xtick_5">
     <g id="line2d_5">
      <g>
       <use style="stroke:#000000;stroke-width:0.8;" x="371.516974" xlink:href="#ma1ecf16d51" y="252"/>
      </g>
     </g>
     <g id="text_5">
      <!-- 100 -->
      <defs>
       <path d="M 12.40625 8.296875 
L 28.515625 8.296875 
L 28.515625 63.921875 
L 10.984375 60.40625 
L 10.984375 69.390625 
L 28.421875 72.90625 
L 38.28125 72.90625 
L 38.28125 8.296875 
L 54.390625 8.296875 
L 54.390625 0 
L 12.40625 0 
z
" id="DejaVuSans-31"/>
      </defs>
      <g transform="translate(361.973224 266.598437)scale(0.1 -0.1)">
       <use xlink:href="#DejaVuSans-31"/>
       <use x="63.623047" xlink:href="#DejaVuSans-30"/>
       <use x="127.246094" xlink:href="#DejaVuSans-30"/>
      </g>
     </g>
    </g>
    <g id="text_6">
     <!-- Deposited energy (keV) -->
     <defs>
      <path d="M 19.671875 64.796875 
L 19.671875 8.109375 
L 31.59375 8.109375 
Q 46.6875 8.109375 53.6875 14.9375 
Q 60.6875 21.78125 60.6875 36.53125 
Q 60.6875 51.171875 53.6875 57.984375 
Q 46.6875 64.796875 31.59375 64.796875 
z
M 9.8125 72.90625 
L 30.078125 72.90625 
Q 51.265625 72.90625 61.171875 64.09375 
Q 71.09375 55.28125 71.09375 36.53125 
Q 71.09375 17.671875 61.125 8.828125 
Q 51.171875 0 30.078125 0 
L 9.8125 0 
z
" id="DejaVuSans-44"/>
      <path d="M 56.203125 29.59375 
L 56.203125 25.203125 
L 14.890625 25.203125 
Q 15.484375 15.921875 20.484375 11.0625 
Q 25.484375 6.203125 34.421875 6.203125 
Q 39.59375 6.203125 44.453125 7.46875 
Q 49.3125 8.734375 54.109375 11.28125 
L 54.109375 2.78125 
Q 49.265625 0.734375 44.1875 -0.34375 
Q 39.109375 -1.421875 33.890625 -1.421875 
Q 20.796875 -1.421875 13.15625 6.1875 
Q 5.515625 13.8125 5.515625 26.8125 
Q 5.515625 40.234375 12.765625 48.109375 
Q 20.015625 56 32.328125 56 
Q 43.359375 56 49.78125 48.890625 
Q 56.203125 41.796875 56.203125 29.59375 
z
M 47.21875 32.234375 
Q 47.125 39.59375 43.09375 43.984375 
Q 39.0625 48.390625 32.421875 48.390625 
Q 24.90625 48.390625 20.390625 44.140625 
Q 15.875 39.890625 15.1875 32.171875 
z
" id="DejaVuSans-65"/>
      <path d="M 18.109375 8.203125 
L 18.109375 -20.796875 
L 9.078125 -20.796875 
L 9.078125 54.6875 
L 18.109375 54.6875 
L 18.109375 46.390625 
Q 20.953125 51.265625 25.265625 53.625 
Q 29.59375 56 35.59375 56 
Q 45.5625 56 51.78125 48.09375 
Q 58.015625 40.1875 58.015625 27.296875 
Q 58.015625 14.40625 51.78125 6.484375 
Q 45.5625 -1.421875 35.59375 -1.421875 
Q 29.59375 -1.421875 25.265625 0.953125 
Q 20.953125 3.328125 18.109375 8.203125 
z
M 48.6875 27.296875 
Q 48.6875 37.203125 44.609375 42.84375 
Q 40.53125 48.484375 33.40625 48.484375 
Q 26.265625 48.484375 22.1875 42.84375 
Q 18.109375 37.203125 18.109375 27.296875 
Q 18.109375 17.390625 22.1875 11.75 
Q 26.265625 6.109375 33.40625 6.109375 
Q 40.53125 6.109375 44.609375 11.75 
Q 48.6875 17.390625 48.6875 27.296875 
z
" id="DejaVuSans-70"/>
      <path d="M 30.609375 48.390625 
Q 23.390625 48.390625 19.1875 42.75 
Q 14.984375 37.109375 14.984375 27.296875 
Q 14.984375 17.484375 19.15625 11.84375 
Q 23.34375 6.203125 30.609375 6.203125 
Q 37.796875 6.203125 41.984375 11.859375 
Q 46.1875 17.53125 46.1875 27.296875 
Q 46.1875 37.015625 41.984375 42.703125 
Q 37.796875 48.390625 30.609375 48.390625 
z
M 30.609375 56 
Q 42.328125 56 49.015625 48.375 
Q 55.71875 40.765625 55.71875 27.296875 
Q 55.71875 13.875 49.015625 6.21875 
Q 42.328125 -1.421875 30.609375 -1.421875 
Q 18.84375 -1.421875 12.171875 6.21875 
Q 5.515625 13.875 5.515625 27.296875 
Q 5.515625 40.765625 12.171875 48.375 
Q 18.84375 56 30.609375 56 
z
" id="DejaVuSans-6f"/>
      <path d="M 44.28125 53.078125 
L 44.28125 44.578125 
Q 40.484375 46.53125 36.375 47.5 
Q 32.28125 48.484375 27.875 48.484375 
Q 21.1875 48.484375 17.84375 46.4375 
Q 14.5 44.390625 14.5 40.28125 
Q 14.5 37.15625 16.890625 35.375 
Q 19.28125 33.59375 26.515625 31.984375 
L 29.59375 31.296875 
Q 39.15625 29.25 43.1875 25.515625 
Q 47.21875 21.78125 47.21875 15.09375 
Q 47.21875 7.46875 41.1875 3.015625 
Q 35.15625 -1.421875 24.609375 -1.421875 
Q 20.21875 -1.421875 15.453125 -0.5625 
Q 10.6875 0.296875 5.421875 2 
L 5.421875 11.28125 
Q 10.40625 8.6875 15.234375 7.390625 
Q 20.0625 6.109375 24.8125 6.109375 
Q 31.15625 6.109375 34.5625 8.28125 
Q 37.984375 10.453125 37.984375 14.40625 
Q 37.984375 18.0625 35.515625 20.015625 
Q 33.0625 21.96875 24.703125 23.78125 
L 21.578125 24.515625 
Q 13.234375 26.265625 9.515625 29.90625 
Q 5.8125 33.546875 5.8125 39.890625 
Q 5.8125 47.609375 11.28125 51.796875 
Q 16.75 56 26.8125 56 
Q 31.78125 56 36.171875 55.265625 
Q 40.578125 54.546875 44.28125 53.078125 
z
" id="DejaVuSans-73"/>
      <path d="M 9.421875 54.6875 
L 18.40625 54.6875 
L 18.40625 0 
L 9.421875 0 
z
M 9.421875 75.984375 
L 18.40625 75.984375 
L 18.40625 64.59375 
L 9.421875 64.59375 
z
" id="DejaVuSans-69"/>
      <path d="M 18.3125 70.21875 
L 18.3125 54.6875 
L 36.8125 54.6875 
L 36.8125 47.703125 
L 18.3125 47.703125 
L 18.3125 18.015625 
Q 18.3125 11.328125 20.140625 9.421875 
Q 21.96875 7.515625 27.59375 7.515625 
L 36.8125 7.515625 
L 36.8125 0 
L 27.59375 0 
Q 17.1875 0 13.234375 3.875 
Q 9.28125 7.765625 9.28125 18.015625 
L 9.28125 47.703125 
L 2.6875 47.703125 
L 2.6875 54.6875 
L 9.28125 54.6875 
L 9.28125 70.21875 
z
" id="DejaVuSans-74"/>
      <path d="M 45.40625 46.390625 
L 45.40625 75.984375 
L 54.390625 75.984375 
L 54.390625 0 
L 45.40625 0 
L 45.40625 8.203125 
Q 42.578125 3.328125 38.25 0.953125 
Q 33.9375 -1.421875 27.875 -1.421875 
Q 17.96875 -1.421875 11.734375 6.484375 
Q 5.515625 14.40625 5.515625 27.296875 
Q 5.515625 40.1875 11.734375 48.09375 
Q 17.96875 56 27.875 56 
Q 33.9375 56 38.25 53.625 
Q 42.578125 51.265625 45.40625 46.390625 
z
M 14.796875 27.296875 
Q 14.796875 17.390625 18.875 11.75 
Q 22.953125 6.109375 30.078125 6.109375 
Q 37.203125 6.109375 41.296875 11.75 
Q 45.40625 17.390625 45.40625 27.296875 
Q 45.40625 37.203125 41.296875 42.84375 
Q 37.203125 48.484375 30.078125 48.484375 
Q 22.953125 48.484375 18.875 42.84375 
Q 14.796875 37.203125 14.796875 27.296875 
z
" id="DejaVuSans-64"/>
      <path id="DejaVuSans-20"/>
      <path d="M 54.890625 33.015625 
L 54.890625 0 
L 45.90625 0 
L 45.90625 32.71875 
Q 45.90625 40.484375 42.875 44.328125 
Q 39.84375 48.1875 33.796875 48.1875 
Q 26.515625 48.1875 22.3125 43.546875 
Q 18.109375 38.921875 18.109375 30.90625 
L 18.109375 0 
L 9.078125 0 
L 9.078125 54.6875 
L 18.109375 54.6875 
L 18.109375 46.1875 
Q 21.34375 51.125 25.703125 53.5625 
Q 30.078125 56 35.796875 56 
Q 45.21875 56 50.046875 50.171875 
Q 54.890625 44.34375 54.890625 33.015625 
z
" id="DejaVuSans-6e"/>
      <path d="M 41.109375 46.296875 
Q 39.59375 47.171875 37.8125 47.578125 
Q 36.03125 48 33.890625 48 
Q 26.265625 48 22.1875 43.046875 
Q 18.109375 38.09375 18.109375 28.8125 
L 18.109375 0 
L 9.078125 0 
L 9.078125 54.6875 
L 18.109375 54.6875 
L 18.109375 46.1875 
Q 20.953125 51.171875 25.484375 53.578125 
Q 30.03125 56 36.53125 56 
Q 37.453125 56 38.578125 55.875 
Q 39.703125 55.765625 41.0625 55.515625 
z
" id="DejaVuSans-72"/>
      <path d="M 45.40625 27.984375 
Q 45.40625 37.75 41.375 43.109375 
Q 37.359375 48.484375 30.078125 48.484375 
Q 22.859375 48.484375 18.828125 43.109375 
Q 14.796875 37.75 14.796875 27.984375 
Q 14.796875 18.265625 18.828125 12.890625 
Q 22.859375 7.515625 30.078125 7.515625 
Q 37.359375 7.515625 41.375 12.890625 
Q 45.40625 18.265625 45.40625 27.984375 
z
M 54.390625 6.78125 
Q 54.390625 -7.171875 48.1875 -13.984375 
Q 42 -20.796875 29.203125 -20.796875 
Q 24.46875 -20.796875 20.265625 -20.09375 
Q 16.0625 -19.390625 12.109375 -17.921875 
L 12.109375 -9.1875 
Q 16.0625 -11.328125 19.921875 -12.34375 
Q 23.78125 -13.375 27.78125 -13.375 
Q 36.625 -13.375 41.015625 -8.765625 
Q 45.40625 -4.15625 45.40625 5.171875 
L 45.40625 9.625 
Q 42.625 4.78125 38.28125 2.390625 
Q 33.9375 0 27.875 0 
Q 17.828125 0 11.671875 7.65625 
Q 5.515625 15.328125 5.515625 27.984375 
Q 5.515625 40.671875 11.671875 48.328125 
Q 17.828125 56 27.875 56 
Q 33.9375 56 38.28125 53.609375 
Q 42.625 51.21875 45.40625 46.390625 
L 45.40625 54.6875 
L 54.390625 54.6875 
z
" id="DejaVuSans-67"/>
      <path d="M 32.171875 -5.078125 
Q 28.375 -14.84375 24.75 -17.8125 
Q 21.140625 -20.796875 15.09375 -20.796875 
L 7.90625 -20.796875 
L 7.90625 -13.28125 
L 13.1875 -13.28125 
Q 16.890625 -13.28125 18.9375 -11.515625 
Q 21 -9.765625 23.484375 -3.21875 
L 25.09375 0.875 
L 2.984375 54.6875 
L 12.5 54.6875 
L 29.59375 11.921875 
L 46.6875 54.6875 
L 56.203125 54.6875 
z
" id="DejaVuSans-79"/>
      <path d="M 31 75.875 
Q 24.46875 64.65625 21.28125 53.65625 
Q 18.109375 42.671875 18.109375 31.390625 
Q 18.109375 20.125 21.3125 9.0625 
Q 24.515625 -2 31 -13.1875 
L 23.1875 -13.1875 
Q 15.875 -1.703125 12.234375 9.375 
Q 8.59375 20.453125 8.59375 31.390625 
Q 8.59375 42.28125 12.203125 53.3125 
Q 15.828125 64.359375 23.1875 75.875 
z
" id="DejaVuSans-28"/>
      <path d="M 9.078125 75.984375 
L 18.109375 75.984375 
L 18.109375 31.109375 
L 44.921875 54.6875 
L 56.390625 54.6875 
L 27.390625 29.109375 
L 57.625 0 
L 45.90625 0 
L 18.109375 26.703125 
L 18.109375 0 
L 9.078125 0 
z
" id="DejaVuSans-6b"/>
      <path d="M 28.609375 0 
L 0.78125 72.90625 
L 11.078125 72.90625 
L 34.1875 11.53125 
L 57.328125 72.90625 
L 67.578125 72.90625 
L 39.796875 0 
z
" id="DejaVuSans-56"/>
      <path d="M 8.015625 75.875 
L 15.828125 75.875 
Q 23.140625 64.359375 26.78125 53.3125 
Q 30.421875 42.28125 30.421875 31.390625 
Q 30.421875 20.453125 26.78125 9.375 
Q 23.140625 -1.703125 15.828125 -13.1875 
L 8.015625 -13.1875 
Q 14.5 -2 17.703125 9.0625 
Q 20.90625 20.125 20.90625 31.390625 
Q 20.90625 42.671875 17.703125 53.65625 
Q 14.5 64.65625 8.015625 75.875 
z
" id="DejaVuSans-29"/>
     </defs>
     <g transform="translate(162.055469 280.276563)scale(0.1 -0.1)">
      <use xlink:href="#DejaVuSans-44"/>
      <use x="77.001953" xlink:href="#DejaVuSans-65"/>
      <use x="138.525391" xlink:href="#DejaVuSans-70"/>
      <use x="202.001953" xlink:href="#DejaVuSans-6f"/>
      <use x="263.183594" xlink:href="#DejaVuSans-73"/>
      <use x="315.283203" xlink:href="#DejaVuSans-69"/>
      <use x="343.066406" xlink:href="#DejaVuSans-74"/>
      <use x="382.275391" xlink:href="#DejaVuSans-65"/>
      <use x="443.798828" xlink:href="#DejaVuSans-64"/>
      <use x="507.275391" xlink:href="#DejaVuSans-20"/>
      <use x="539.0625" xlink:href="#DejaVuSans-65"/>
      <use x="600.585938" xlink:href="#DejaVuSans-6e"/>
      <use x="663.964844" xlink:href="#DejaVuSans-65"/>
      <use x="725.488281" xlink:href="#DejaVuSans-72"/>
      <use x="766.585938" xlink:href="#DejaVuSans-67"/>
      <use x="830.0625" xlink:href="#DejaVuSans-79"/>
      <use x="889.242188" xlink:href="#DejaVuSans-20"/>
      <use x="921.029297" xlink:href="#DejaVuSans-28"/>
      <use x="960.042969" xlink:href="#DejaVuSans-6b"/>
      <use x="1017.90625" xlink:href="#DejaVuSans-65"/>
      <use x="1079.429688" xlink:href="#DejaVuSans-56"/>
      <use x="1147.837891" xlink:href="#DejaVuSans-29"/>
     </g>
    </g>
   </g>
   <g id="matplotlib.axis_2">
    <g id="ytick_1">
     <g id="line2d_6">
      <defs>
       <path d="M 0 0 
L -3.5 0 
" id="m9e685fcefa" style="stroke:#000000;stroke-width:0.8;"/>
      </defs>
      <g>
       <use style="stroke:#000000;stroke-width:0.8;" x="54" xlink:href="#m9e685fcefa" y="241.690508"/>
      </g>
     </g>
     <g id="text_7">
      <!-- 0.0000 -->
      <defs>
       <path d="M 10.6875 12.40625 
L 21 12.40625 
L 21 0 
L 10.6875 0 
z
" id="DejaVuSans-2e"/>
      </defs>
      <g transform="translate(12.009375 245.489727)scale(0.1 -0.1)">
       <use xlink:href="#DejaVuSans-30"/>
       <use x="63.623047" xlink:href="#DejaVuSans-2e"/>
       <use x="95.410156" xlink:href="#DejaVuSans-30"/>
       <use x="159.033203" xlink:href="#DejaVuSans-30"/>
       <use x="222.65625" xlink:href="#DejaVuSans-30"/>
       <use x="286.279297" xlink:href="#DejaVuSans-30"/>
      </g>
     </g>
    </g>
    <g id="ytick_2">
     <g id="line2d_7">
      <g>
       <use style="stroke:#000000;stroke-width:0.8;" x="54" xlink:href="#m9e685fcefa" y="210.800537"/>
      </g>
     </g>
     <g id="text_8">
      <!-- 0.0001 -->
      <g transform="translate(12.009375 214.599756)scale(0.1 -0.1)">
       <use xlink:href="#DejaVuSans-30"/>
       <use x="63.623047" xlink:href="#DejaVuSans-2e"/>
       <use x="95.410156" xlink:href="#DejaVuSans-30"/>
       <use x="159.033203" xlink:href="#DejaVuSans-30"/>
       <use x="222.65625" xlink:href="#DejaVuSans-30"/>
       <use x="286.279297" xlink:href="#DejaVuSans-31"/>
      </g>
     </g>
    </g>
    <g id="ytick_3">
     <g id="line2d_8">
      <g>
       <use style="stroke:#000000;stroke-width:0.8;" x="54" xlink:href="#m9e685fcefa" y="179.910566"/>
      </g>
     </g>
     <g id="text_9">
      <!-- 0.0002 -->
      <g transform="translate(12.009375 183.709784)scale(0.1 -0.1)">
       <use xlink:href="#DejaVuSans-30"/>
       <use x="63.623047" xlink:href="#DejaVuSans-2e"/>
       <use x="95.410156" xlink:href="#DejaVuSans-30"/>
       <use x="159.033203" xlink:href="#DejaVuSans-30"/>
       <use x="222.65625" xlink:href="#DejaVuSans-30"/>
       <use x="286.279297" xlink:href="#DejaVuSans-32"/>
      </g>
     </g>
    </g>
    <g id="ytick_4">
     <g id="line2d_9">
      <g>
       <use style="stroke:#000000;stroke-width:0.8;" x="54" xlink:href="#m9e685fcefa" y="149.020594"/>
      </g>
     </g>
     <g id="text_10">
      <!-- 0.0003 -->
      <defs>
       <path d="M 40.578125 39.3125 
Q 47.65625 37.796875 51.625 33 
Q 55.609375 28.21875 55.609375 21.1875 
Q 55.609375 10.40625 48.1875 4.484375 
Q 40.765625 -1.421875 27.09375 -1.421875 
Q 22.515625 -1.421875 17.65625 -0.515625 
Q 12.796875 0.390625 7.625 2.203125 
L 7.625 11.71875 
Q 11.71875 9.328125 16.59375 8.109375 
Q 21.484375 6.890625 26.8125 6.890625 
Q 36.078125 6.890625 40.9375 10.546875 
Q 45.796875 14.203125 45.796875 21.1875 
Q 45.796875 27.640625 41.28125 31.265625 
Q 36.765625 34.90625 28.71875 34.90625 
L 20.21875 34.90625 
L 20.21875 43.015625 
L 29.109375 43.015625 
Q 36.375 43.015625 40.234375 45.921875 
Q 44.09375 48.828125 44.09375 54.296875 
Q 44.09375 59.90625 40.109375 62.90625 
Q 36.140625 65.921875 28.71875 65.921875 
Q 24.65625 65.921875 20.015625 65.03125 
Q 15.375 64.15625 9.8125 62.3125 
L 9.8125 71.09375 
Q 15.4375 72.65625 20.34375 73.4375 
Q 25.25 74.21875 29.59375 74.21875 
Q 40.828125 74.21875 47.359375 69.109375 
Q 53.90625 64.015625 53.90625 55.328125 
Q 53.90625 49.265625 50.4375 45.09375 
Q 46.96875 40.921875 40.578125 39.3125 
z
" id="DejaVuSans-33"/>
      </defs>
      <g transform="translate(12.009375 152.819813)scale(0.1 -0.1)">
       <use xlink:href="#DejaVuSans-30"/>
       <use x="63.623047" xlink:href="#DejaVuSans-2e"/>
       <use x="95.410156" xlink:href="#DejaVuSans-30"/>
       <use x="159.033203" xlink:href="#DejaVuSans-30"/>
       <use x="222.65625" xlink:href="#DejaVuSans-30"/>
       <use x="286.279297" xlink:href="#DejaVuSans-33"/>
      </g>
     </g>
    </g>
    <g id="ytick_5">
     <g id="line2d_10">
      <g>
       <use style="stroke:#000000;stroke-width:0.8;" x="54" xlink:href="#m9e685fcefa" y="118.130623"/>
      </g>
     </g>
     <g id="text_11">
      <!-- 0.0004 -->
      <g transform="translate(12.009375 121.929842)scale(0.1 -0.1)">
       <use xlink:href="#DejaVuSans-30"/>
       <use x="63.623047" xlink:href="#DejaVuSans-2e"/>
       <use x="95.410156" xlink:href="#DejaVuSans-30"/>
       <use x="159.033203" xlink:href="#DejaVuSans-30"/>
       <use x="222.65625" xlink:href="#DejaVuSans-30"/>
       <use x="286.279297" xlink:href="#DejaVuSans-34"/>
      </g>
     </g>
    </g>
    <g id="ytick_6">
     <g id="line2d_11">
      <g>
       <use style="stroke:#000000;stroke-width:0.8;" x="54" xlink:href="#m9e685fcefa" y="87.240652"/>
      </g>
     </g>
     <g id="text_12">
      <!-- 0.0005 -->
      <defs>
       <path d="M 10.796875 72.90625 
L 49.515625 72.90625 
L 49.515625 64.59375 
L 19.828125 64.59375 
L 19.828125 46.734375 
Q 21.96875 47.46875 24.109375 47.828125 
Q 26.265625 48.1875 28.421875 48.1875 
Q 40.625 48.1875 47.75 41.5 
Q 54.890625 34.8125 54.890625 23.390625 
Q 54.890625 11.625 47.5625 5.09375 
Q 40.234375 -1.421875 26.90625 -1.421875 
Q 22.3125 -1.421875 17.546875 -0.640625 
Q 12.796875 0.140625 7.71875 1.703125 
L 7.71875 11.625 
Q 12.109375 9.234375 16.796875 8.0625 
Q 21.484375 6.890625 26.703125 6.890625 
Q 35.15625 6.890625 40.078125 11.328125 
Q 45.015625 15.765625 45.015625 23.390625 
Q 45.015625 31 40.078125 35.4375 
Q 35.15625 39.890625 26.703125 39.890625 
Q 22.75 39.890625 18.8125 39.015625 
Q 14.890625 38.140625 10.796875 36.28125 
z
" id="DejaVuSans-35"/>
      </defs>
      <g transform="translate(12.009375 91.039871)scale(0.1 -0.1)">
       <use xlink:href="#DejaVuSans-30"/>
       <use x="63.623047" xlink:href="#DejaVuSans-2e"/>
       <use x="95.410156" xlink:href="#DejaVuSans-30"/>
       <use x="159.033203" xlink:href="#DejaVuSans-30"/>
       <use x="222.65625" xlink:href="#DejaVuSans-30"/>
       <use x="286.279297" xlink:href="#DejaVuSans-35"/>
      </g>
     </g>
    </g>
    <g id="ytick_7">
     <g id="line2d_12">
      <g>
       <use style="stroke:#000000;stroke-width:0.8;" x="54" xlink:href="#m9e685fcefa" y="56.35068"/>
      </g>
     </g>
     <g id="text_13">
      <!-- 0.0006 -->
      <g transform="translate(12.009375 60.149899)scale(0.1 -0.1)">
       <use xlink:href="#DejaVuSans-30"/>
       <use x="63.623047" xlink:href="#DejaVuSans-2e"/>
       <use x="95.410156" xlink:href="#DejaVuSans-30"/>
       <use x="159.033203" xlink:href="#DejaVuSans-30"/>
       <use x="222.65625" xlink:href="#DejaVuSans-30"/>
       <use x="286.279297" xlink:href="#DejaVuSans-36"/>
      </g>
     </g>
    </g>
   </g>
   <g id="line2d_13">
    <path clip-path="url(#p61e5edd75c)" d="M 10.702231 241.673688 
L 12.14549 241.676299 
L 12.867119 241.627304 
L 13.588749 241.756852 
L 14.310378 241.663899 
L 15.032008 241.740039 
L 15.753637 241.329386 
L 16.475267 240.281917 
L 17.196896 241.576963 
L 17.918526 240.068005 
L 18.640155 241.415374 
L 19.361785 238.440343 
L 20.083414 237.331597 
L 20.805044 232.508405 
L 21.526673 232.50555 
L 22.248303 227.702101 
L 22.969932 220.914077 
L 23.691562 217.137263 
L 24.413191 209.716713 
L 25.134821 207.401243 
L 25.85645 193.530736 
L 27.299709 180.359961 
L 28.742968 159.469777 
L 29.464597 143.529674 
L 30.186227 133.983775 
L 30.907856 132.918654 
L 31.629486 120.815746 
L 32.351115 119.446922 
L 33.072745 102.366466 
L 33.794374 102.030311 
L 34.516004 102.197006 
L 35.237633 101.134236 
L 35.959263 107.004088 
L 36.680892 96.101938 
L 37.402522 106.554496 
L 38.124151 95.848477 
L 38.845781 103.189978 
L 39.56741 105.865824 
L 40.28904 104.102373 
L 41.010669 118.684923 
L 41.732299 110.494367 
L 42.453928 124.133501 
L 43.175558 105.461041 
L 43.897187 116.834573 
L 44.618817 119.508161 
L 46.062076 121.019864 
L 47.505335 132.426952 
L 48.948594 145.960418 
L 49.670223 158.146666 
L 50.391853 157.822872 
L 51.113482 162.327917 
L 51.835112 161.365241 
L 52.556741 176.342242 
L 53.278371 172.964567 
L 54 183.627303 
L 54.721629 187.36021 
L 55.443259 193.378971 
L 56.164888 190.387068 
L 56.886518 195.789263 
L 57.608147 194.267651 
L 58.329777 205.745505 
L 59.051406 202.210011 
L 59.773036 206.519017 
L 60.494665 212.484444 
L 61.216295 212.480054 
L 61.937924 216.541176 
L 62.659554 211.611821 
L 63.381183 214.13 
L 64.102813 218.66723 
L 64.824442 211.162012 
L 65.546072 215.416939 
L 66.267701 218.571811 
L 66.989331 221.087953 
L 67.71096 219.80817 
L 68.43259 219.62117 
L 69.154219 217.25582 
L 69.875849 219.822193 
L 70.597478 219.668135 
L 71.319108 220.86415 
L 72.040737 217.477262 
L 72.762367 216.036337 
L 73.483996 220.957511 
L 74.927255 218.85518 
L 75.648885 220.276972 
L 76.370514 216.610079 
L 77.092144 218.956939 
L 77.813773 214.905323 
L 78.535403 216.833477 
L 79.257032 217.048086 
L 79.978661 211.123585 
L 80.700291 218.570818 
L 81.42192 211.457043 
L 82.14355 215.958274 
L 82.865179 205.183916 
L 83.586809 211.762481 
L 84.308438 208.455786 
L 85.030068 215.47391 
L 85.751697 211.418759 
L 86.473327 209.275576 
L 87.194956 209.03461 
L 87.916586 206.137353 
L 88.638215 209.07046 
L 89.359845 204.025389 
L 90.081474 203.502999 
L 90.803104 198.39373 
L 91.524733 194.89946 
L 92.967992 194.59557 
L 93.689622 179.970401 
L 94.411251 182.80259 
L 95.132881 178.262045 
L 95.85451 170.99379 
L 96.57614 167.069006 
L 97.297769 152.934052 
L 98.019399 160.520852 
L 98.741028 151.413648 
L 99.462658 138.093538 
L 100.184287 130.265431 
L 100.905917 101.431855 
L 101.627546 106.280998 
L 102.349176 95.209247 
L 103.070805 81.104204 
L 103.792435 94.52887 
L 104.514064 77.834743 
L 105.235694 72.686203 
L 105.957323 81.623614 
L 106.678952 98.345242 
L 107.400582 101.47241 
L 109.56547 144.798164 
L 110.2871 152.511511 
L 111.008729 168.869212 
L 112.451988 190.633203 
L 113.173618 208.065878 
L 113.895247 213.145065 
L 114.616877 217.215806 
L 115.338506 217.363384 
L 116.060136 226.747835 
L 117.503395 224.083268 
L 118.225024 228.632989 
L 118.946654 228.088345 
L 119.668283 228.389089 
L 120.389913 227.261046 
L 121.111542 228.415623 
L 121.833172 231.962862 
L 122.554801 226.340836 
L 123.276431 228.364 
L 123.99806 225.635882 
L 124.71969 227.706809 
L 125.441319 225.847075 
L 126.162949 226.595561 
L 126.884578 224.996157 
L 127.606208 226.886224 
L 128.327837 219.946704 
L 129.049467 225.742966 
L 129.771096 227.969214 
L 130.492726 228.173111 
L 131.214355 224.998078 
L 131.935984 228.575043 
L 132.657614 227.382564 
L 133.379243 226.7443 
L 134.100873 230.514934 
L 134.822502 230.071775 
L 135.544132 226.669959 
L 136.265761 228.523143 
L 136.987391 227.880964 
L 137.70902 232.040581 
L 138.43065 231.459148 
L 139.152279 231.296223 
L 139.873909 227.782138 
L 140.595538 228.309543 
L 141.317168 226.477222 
L 142.038797 228.586969 
L 142.760427 231.467305 
L 143.482056 229.457265 
L 144.203686 228.313633 
L 144.925315 227.979569 
L 145.646945 229.267002 
L 146.368574 229.705051 
L 147.090204 232.087445 
L 147.811833 226.509788 
L 148.533463 231.636294 
L 149.255092 228.039012 
L 149.976722 227.95854 
L 150.698351 224.117097 
L 151.419981 222.462757 
L 152.14161 226.69218 
L 152.86324 223.095948 
L 153.584869 225.846699 
L 154.306499 226.647249 
L 155.028128 224.136901 
L 155.749758 229.119152 
L 156.471387 227.173681 
L 157.193016 221.714304 
L 157.914646 224.760549 
L 158.636275 221.855431 
L 159.357905 222.814425 
L 160.079534 224.504617 
L 160.801164 221.417188 
L 161.522793 225.224392 
L 162.244423 224.664721 
L 163.687682 219.942836 
L 164.409311 219.351251 
L 165.130941 218.016067 
L 165.85257 223.600773 
L 166.5742 219.165125 
L 167.295829 224.027019 
L 168.017459 217.301974 
L 168.739088 222.978758 
L 169.460718 215.015618 
L 170.182347 220.917539 
L 170.903977 218.721992 
L 171.625606 218.966255 
L 172.347236 219.740417 
L 173.068865 215.352418 
L 173.790495 216.996978 
L 174.512124 211.061664 
L 175.233754 214.444655 
L 175.955383 213.039734 
L 176.677013 209.741018 
L 177.398642 211.051327 
L 178.120272 203.711254 
L 179.563531 209.881272 
L 180.28516 205.651427 
L 181.00679 204.134252 
L 181.728419 206.473681 
L 182.450048 205.997604 
L 183.171678 202.692151 
L 183.893307 200.646146 
L 184.614937 201.854659 
L 185.336566 199.687712 
L 186.058196 201.252738 
L 186.779825 203.793579 
L 187.501455 207.800506 
L 188.223084 205.87183 
L 188.944714 198.814967 
L 189.666343 207.809457 
L 190.387973 208.946861 
L 191.109602 213.762702 
L 191.831232 212.78495 
L 192.552861 210.034963 
L 193.274491 210.91161 
L 193.99612 209.796532 
L 194.71775 214.260073 
L 196.161009 218.718241 
L 196.882638 217.883127 
L 197.604268 216.33226 
L 198.325897 219.437954 
L 199.047527 219.291619 
L 199.769156 219.767419 
L 200.490786 223.429629 
L 201.212415 218.397877 
L 201.934045 219.567853 
L 202.655674 219.693645 
L 203.377304 220.395492 
L 204.098933 217.195325 
L 204.820563 219.46962 
L 205.542192 218.667924 
L 206.263822 216.867101 
L 206.985451 224.383985 
L 207.707081 215.269426 
L 208.42871 214.68225 
L 209.150339 223.389692 
L 209.871969 215.183558 
L 210.593598 216.623126 
L 212.036857 201.426988 
L 213.480116 198.70313 
L 214.201746 188.137551 
L 214.923375 183.611682 
L 215.645005 181.649916 
L 216.366634 166.518994 
L 217.088264 157.969684 
L 217.809893 137.796959 
L 218.531523 141.098656 
L 219.253152 109.283848 
L 219.974782 107.851501 
L 220.696411 101.530922 
L 221.418041 73.991758 
L 222.13967 67.980019 
L 222.8613 67.729087 
L 223.582929 44.443636 
L 224.304559 49.817726 
L 225.026188 47.523534 
L 225.747818 67.995543 
L 226.469447 68.872564 
L 227.191077 79.540679 
L 228.634336 115.197099 
L 229.355965 137.036249 
L 230.077595 143.558539 
L 231.520854 184.571758 
L 232.242483 195.025269 
L 232.964113 202.153638 
L 233.685742 217.704711 
L 234.407371 224.839768 
L 235.129001 230.716357 
L 235.85063 234.180568 
L 236.57226 238.489942 
L 237.293889 240.406644 
L 238.015519 240.886206 
L 238.737148 241.732224 
L 239.458778 241.604757 
L 240.180407 241.711449 
L 240.902037 241.615707 
L 242.345296 241.689195 
L 248.839961 241.676746 
L 249.561591 241.796627 
L 250.28322 241.588347 
L 261.829292 241.627772 
L 262.550921 241.62081 
L 263.272551 241.734283 
L 263.99418 241.673445 
L 265.437439 241.711859 
L 267.602328 241.604096 
L 269.045587 241.697886 
L 269.767216 241.609101 
L 272.653734 241.668367 
L 292.13773 241.69886 
L 292.85936 241.627464 
L 294.302619 241.677118 
L 299.354025 241.695226 
L 300.797284 241.72853 
L 359.249273 241.641871 
L 359.970902 241.780711 
L 362.13579 241.561809 
L 362.85742 241.703933 
L 364.300679 241.589881 
L 365.022308 241.623501 
L 365.743938 241.796013 
L 370.795344 241.748479 
L 370.795344 241.748479 
" style="fill:none;stroke:#1f77b4;stroke-dasharray:5.55,2.4;stroke-dashoffset:0;stroke-width:1.5;"/>
   </g>
   <g id="line2d_14">
    <path clip-path="url(#p61e5edd75c)" d="M 54 159.971177 
L 54.721629 159.971177 
L 54.721629 164.258041 
L 55.443259 164.258041 
L 55.443259 166.778691 
L 56.164888 166.778691 
L 56.164888 169.880822 
L 56.886518 169.880822 
L 56.886518 172.490603 
L 57.608147 172.490603 
L 57.608147 175.567895 
L 58.329777 175.567895 
L 58.329777 178.192702 
L 59.051406 178.192702 
L 59.051406 181.343263 
L 59.773036 181.343263 
L 59.773036 183.406129 
L 60.494665 183.406129 
L 60.494665 186.440726 
L 61.216295 186.440726 
L 61.216295 189.17372 
L 61.937924 189.17372 
L 61.937924 191.406578 
L 62.659554 191.406578 
L 62.659554 194.012979 
L 63.381183 194.012979 
L 63.381183 196.376822 
L 64.102813 196.376822 
L 64.102813 198.456114 
L 64.824442 198.456114 
L 64.824442 200.432618 
L 65.546072 200.432618 
L 65.546072 201.586902 
L 66.267701 201.586902 
L 66.267701 204.029769 
L 66.989331 204.029769 
L 66.989331 205.348437 
L 67.71096 205.348437 
L 67.71096 206.604265 
L 68.43259 206.604265 
L 68.43259 208.163534 
L 69.154219 208.163534 
L 69.154219 209.253556 
L 69.875849 209.253556 
L 69.875849 210.298587 
L 70.597478 210.298587 
L 70.597478 211.269607 
L 71.319108 211.269607 
L 71.319108 212.106136 
L 72.040737 212.106136 
L 72.040737 212.57675 
L 72.762367 212.57675 
L 72.762367 213.346879 
L 74.205626 213.425297 
L 74.205626 214.472094 
L 74.927255 214.472094 
L 74.927255 213.865263 
L 75.648885 213.865263 
L 75.648885 214.773088 
L 76.370514 214.773088 
L 76.370514 214.110575 
L 77.813773 214.187941 
L 77.813773 213.695831 
L 78.535403 213.695831 
L 78.535403 213.455022 
L 79.257032 213.455022 
L 79.257032 212.361415 
L 80.700291 212.379904 
L 80.700291 211.555516 
L 81.42192 211.555516 
L 81.42192 211.146066 
L 82.14355 211.146066 
L 82.14355 209.760786 
L 82.865179 209.760786 
L 82.865179 208.982919 
L 83.586809 208.982919 
L 83.586809 207.431158 
L 84.308438 207.431158 
L 84.308438 206.470154 
L 85.030068 206.470154 
L 85.030068 204.784244 
L 85.751697 204.784244 
L 85.751697 203.779167 
L 86.473327 203.779167 
L 86.473327 202.091993 
L 87.194956 202.091993 
L 87.194956 200.191896 
L 87.916586 200.191896 
L 87.916586 198.822191 
L 88.638215 198.822191 
L 88.638215 195.615783 
L 89.359845 195.615783 
L 89.359845 194.472887 
L 90.081474 194.472887 
L 90.081474 192.186059 
L 90.803104 192.186059 
L 90.803104 189.615712 
L 91.524733 189.615712 
L 91.524733 188.384744 
L 92.246363 188.384744 
L 92.246363 185.997689 
L 92.967992 185.997689 
L 92.967992 184.029183 
L 93.689622 184.029183 
L 93.689622 182.219329 
L 94.411251 182.219329 
L 94.411251 180.5272 
L 95.132881 180.5272 
L 95.132881 179.379594 
L 95.85451 179.379594 
L 95.85451 176.716929 
L 96.57614 176.716929 
L 96.57614 174.549149 
L 97.297769 174.549149 
L 97.297769 172.626966 
L 98.019399 172.626966 
L 98.019399 169.579002 
L 98.741028 169.579002 
L 98.741028 168.863471 
L 99.462658 168.863471 
L 99.462658 165.656897 
L 100.184287 165.656897 
L 100.184287 163.301499 
L 100.905917 163.301499 
L 100.905917 161.241295 
L 101.627546 161.241295 
L 101.627546 158.045415 
L 102.349176 158.045415 
L 102.349176 156.64865 
L 103.070805 156.64865 
L 103.070805 154.695367 
L 103.792435 154.695367 
L 103.792435 153.448428 
L 104.514064 153.448428 
L 104.514064 153.171639 
L 105.235694 153.171639 
L 105.235694 150.543829 
L 105.957323 150.543829 
L 105.957323 150.893003 
L 107.400582 150.939017 
L 107.400582 151.296602 
L 108.122211 151.296602 
L 108.122211 152.355336 
L 108.843841 152.355336 
L 108.843841 154.305723 
L 109.56547 154.305723 
L 109.56547 155.8747 
L 110.2871 155.8747 
L 110.2871 156.962141 
L 111.008729 156.962141 
L 111.008729 159.22122 
L 111.730359 159.22122 
L 111.730359 161.548076 
L 112.451988 161.548076 
L 112.451988 163.751396 
L 113.173618 163.751396 
L 113.173618 166.337849 
L 113.895247 166.337849 
L 113.895247 169.325495 
L 114.616877 169.325495 
L 114.616877 171.139827 
L 115.338506 171.139827 
L 115.338506 174.455889 
L 116.060136 174.455889 
L 116.060136 176.916297 
L 116.781765 176.916297 
L 116.781765 179.738246 
L 117.503395 179.738246 
L 117.503395 182.711262 
L 118.225024 182.711262 
L 118.225024 186.481207 
L 118.946654 186.481207 
L 118.946654 189.277748 
L 119.668283 189.277748 
L 119.668283 192.375995 
L 120.389913 192.375995 
L 120.389913 195.377577 
L 121.111542 195.377577 
L 121.111542 198.581068 
L 121.833172 198.581068 
L 121.833172 201.368263 
L 122.554801 201.368263 
L 122.554801 205.123506 
L 123.276431 205.123506 
L 123.276431 207.204373 
L 123.99806 207.204373 
L 123.99806 210.449573 
L 124.71969 210.449573 
L 124.71969 212.049821 
L 125.441319 212.049821 
L 125.441319 214.980531 
L 126.162949 214.980531 
L 126.162949 216.930649 
L 126.884578 216.930649 
L 126.884578 219.257481 
L 127.606208 219.257481 
L 127.606208 220.370739 
L 128.327837 220.370739 
L 128.327837 221.87779 
L 129.049467 221.87779 
L 129.049467 222.691585 
L 129.771096 222.691585 
L 129.771096 224.26731 
L 130.492726 224.26731 
L 130.492726 224.928231 
L 131.214355 224.928231 
L 131.214355 225.646612 
L 131.935984 225.646612 
L 131.935984 226.050875 
L 132.657614 226.050875 
L 132.657614 226.762455 
L 134.100873 226.792916 
L 134.100873 227.453733 
L 134.822502 227.453733 
L 134.822502 227.871047 
L 136.265761 227.798989 
L 136.265761 227.606195 
L 136.987391 227.606195 
L 136.987391 227.740148 
L 138.43065 227.678618 
L 138.43065 227.855619 
L 139.152279 227.855619 
L 139.152279 227.969025 
L 140.595538 227.874508 
L 140.595538 227.622693 
L 142.038797 227.618133 
L 142.038797 227.976552 
L 142.760427 227.976552 
L 142.760427 227.738058 
L 143.482056 227.738058 
L 143.482056 228.500033 
L 144.203686 228.500033 
L 144.203686 227.986042 
L 144.925315 227.986042 
L 144.925315 227.867143 
L 146.368574 227.837777 
L 146.368574 227.674598 
L 147.090204 227.674598 
L 147.090204 227.446578 
L 147.811833 227.446578 
L 147.811833 227.576547 
L 148.533463 227.576547 
L 148.533463 227.217982 
L 149.255092 227.217982 
L 149.255092 227.564788 
L 149.976722 227.564788 
L 149.976722 227.133492 
L 151.419981 227.151876 
L 151.419981 226.944399 
L 152.14161 226.944399 
L 152.14161 226.627718 
L 152.86324 226.627718 
L 152.86324 226.502077 
L 153.584869 226.502077 
L 153.584869 226.04205 
L 155.749758 225.952839 
L 155.749758 225.328109 
L 156.471387 225.328109 
L 156.471387 225.80361 
L 157.193016 225.80361 
L 157.193016 224.887283 
L 158.636275 224.991048 
L 158.636275 224.666288 
L 159.357905 224.666288 
L 159.357905 224.389898 
L 160.079534 224.389898 
L 160.079534 223.566388 
L 160.801164 223.566388 
L 160.801164 223.828168 
L 161.522793 223.828168 
L 161.522793 222.798277 
L 162.244423 222.798277 
L 162.244423 223.244975 
L 162.966052 223.244975 
L 162.966052 222.315106 
L 164.409311 222.266921 
L 164.409311 221.274389 
L 165.85257 221.319091 
L 165.85257 220.608131 
L 166.5742 220.608131 
L 166.5742 220.442628 
L 167.295829 220.442628 
L 167.295829 220.112143 
L 168.017459 220.112143 
L 168.017459 219.97973 
L 168.739088 219.97973 
L 168.739088 219.110008 
L 170.182347 219.065613 
L 170.182347 218.190967 
L 170.903977 218.190967 
L 170.903977 218.074216 
L 171.625606 218.074216 
L 171.625606 217.432123 
L 172.347236 217.432123 
L 172.347236 217.139187 
L 173.068865 217.139187 
L 173.068865 216.494922 
L 173.790495 216.494922 
L 173.790495 215.718311 
L 174.512124 215.718311 
L 174.512124 215.4528 
L 175.233754 215.4528 
L 175.233754 215.036977 
L 176.677013 215.030396 
L 176.677013 214.312747 
L 177.398642 214.312747 
L 177.398642 213.61169 
L 178.120272 213.61169 
L 178.120272 213.474428 
L 178.841901 213.474428 
L 178.841901 212.578025 
L 179.563531 212.578025 
L 179.563531 212.734493 
L 180.28516 212.734493 
L 180.28516 211.980533 
L 181.00679 211.980533 
L 181.00679 211.399049 
L 182.450048 211.31714 
L 182.450048 210.888611 
L 183.171678 210.888611 
L 183.171678 210.749351 
L 183.893307 210.749351 
L 183.893307 210.240899 
L 184.614937 210.240899 
L 184.614937 210.446011 
L 185.336566 210.446011 
L 185.336566 209.619819 
L 186.779825 209.705719 
L 186.779825 209.920734 
L 188.944714 209.933779 
L 188.944714 209.5093 
L 189.666343 209.5093 
L 189.666343 209.255546 
L 190.387973 209.255546 
L 190.387973 209.765045 
L 191.831232 209.86157 
L 191.831232 210.317384 
L 192.552861 210.317384 
L 192.552861 210.702788 
L 193.274491 210.702788 
L 193.274491 210.426405 
L 194.71775 210.477539 
L 194.71775 210.720056 
L 195.439379 210.720056 
L 195.439379 211.432613 
L 196.882638 211.386456 
L 196.882638 211.982794 
L 197.604268 211.982794 
L 197.604268 211.460213 
L 199.047527 211.395078 
L 199.047527 211.572954 
L 199.769156 211.572954 
L 199.769156 211.02353 
L 201.212415 210.971644 
L 201.212415 210.686283 
L 201.934045 210.686283 
L 201.934045 209.906637 
L 202.655674 209.906637 
L 202.655674 209.298368 
L 203.377304 209.298368 
L 203.377304 208.564564 
L 204.098933 208.564564 
L 204.098933 207.987121 
L 204.820563 207.987121 
L 204.820563 206.222769 
L 205.542192 206.222769 
L 205.542192 205.313301 
L 206.263822 205.313301 
L 206.263822 204.201412 
L 206.985451 204.201412 
L 206.985451 201.779234 
L 207.707081 201.779234 
L 207.707081 200.50954 
L 208.42871 200.50954 
L 208.42871 198.350207 
L 209.150339 198.350207 
L 209.150339 196.479017 
L 209.871969 196.479017 
L 209.871969 194.731387 
L 210.593598 194.731387 
L 210.593598 193.165435 
L 211.315228 193.165435 
L 211.315228 190.43635 
L 212.036857 190.43635 
L 212.036857 188.898873 
L 212.758487 188.898873 
L 212.758487 185.756373 
L 213.480116 185.756373 
L 213.480116 184.585209 
L 214.201746 184.585209 
L 214.201746 181.541601 
L 214.923375 181.541601 
L 214.923375 179.994182 
L 215.645005 179.994182 
L 215.645005 177.384637 
L 216.366634 177.384637 
L 216.366634 175.264702 
L 217.088264 175.264702 
L 217.088264 171.702691 
L 217.809893 171.702691 
L 217.809893 169.787228 
L 218.531523 169.787228 
L 218.531523 165.182964 
L 219.253152 165.182964 
L 219.253152 163.816254 
L 219.974782 163.816254 
L 219.974782 158.831577 
L 220.696411 158.831577 
L 220.696411 157.22184 
L 221.418041 157.22184 
L 221.418041 153.890568 
L 222.13967 153.890568 
L 222.13967 150.753391 
L 222.8613 150.753391 
L 222.8613 149.67364 
L 223.582929 149.67364 
L 223.582929 146.889786 
L 224.304559 146.889786 
L 224.304559 144.664098 
L 225.747818 144.768277 
L 225.747818 143.88429 
L 226.469447 143.88429 
L 226.469447 144.139411 
L 227.912706 144.078956 
L 227.912706 145.463671 
L 228.634336 145.463671 
L 228.634336 146.891444 
L 229.355965 146.891444 
L 229.355965 148.449064 
L 230.077595 148.449064 
L 230.077595 151.229818 
L 230.799224 151.229818 
L 230.799224 153.193026 
L 231.520854 153.193026 
L 231.520854 156.367456 
L 232.242483 156.367456 
L 232.242483 159.220916 
L 232.964113 159.220916 
L 232.964113 161.884399 
L 233.685742 161.884399 
L 233.685742 165.210643 
L 234.407371 165.210643 
L 234.407371 169.143035 
L 235.129001 169.143035 
L 235.129001 172.137737 
L 235.85063 172.137737 
L 235.85063 175.837569 
L 236.57226 175.837569 
L 236.57226 179.882524 
L 237.293889 179.882524 
L 237.293889 183.463732 
L 238.015519 183.463732 
L 238.015519 187.288622 
L 238.737148 187.288622 
L 238.737148 191.557196 
L 239.458778 191.557196 
L 239.458778 195.580563 
L 240.180407 195.580563 
L 240.180407 199.722567 
L 240.902037 199.722567 
L 240.902037 203.627978 
L 241.623666 203.627978 
L 241.623666 207.903521 
L 242.345296 207.903521 
L 242.345296 211.593094 
L 243.066925 211.593094 
L 243.066925 215.433045 
L 243.788555 215.433045 
L 243.788555 218.574074 
L 244.510184 218.574074 
L 244.510184 221.937242 
L 245.231814 221.937242 
L 245.231814 225.098933 
L 245.953443 225.098933 
L 245.953443 227.762626 
L 246.675073 227.762626 
L 246.675073 230.00592 
L 247.396702 230.00592 
L 247.396702 232.207394 
L 248.118332 232.207394 
L 248.118332 234.200016 
L 248.839961 234.200016 
L 248.839961 235.654278 
L 249.561591 235.654278 
L 249.561591 236.972107 
L 250.28322 236.972107 
L 250.28322 238.050834 
L 251.00485 238.050834 
L 251.00485 239.026478 
L 251.726479 239.026478 
L 251.726479 239.672703 
L 252.448109 239.672703 
L 252.448109 240.20472 
L 253.169738 240.20472 
L 253.169738 240.619861 
L 253.891368 240.619861 
L 253.891368 240.982557 
L 254.612997 240.982557 
L 254.612997 241.206521 
L 255.334627 241.206521 
L 255.334627 241.361245 
L 256.056256 241.361245 
L 256.056256 241.481086 
L 257.499515 241.566957 
L 257.499515 241.613168 
L 370.795344 241.683557 
L 370.795344 241.686307 
" style="fill:none;stroke:#1f77b4;stroke-linecap:square;stroke-width:1.5;"/>
   </g>
   <g id="line2d_15">
    <path clip-path="url(#p61e5edd75c)" d="M 10.702231 241.686496 
L 12.14549 241.715275 
L 14.310378 241.634753 
L 16.475267 240.770393 
L 17.196896 240.984233 
L 17.918526 240.723466 
L 18.640155 239.853028 
L 19.361785 240.234502 
L 20.083414 237.284097 
L 20.805044 234.892393 
L 21.526673 231.671144 
L 22.248303 230.568156 
L 22.969932 229.833138 
L 23.691562 226.742876 
L 24.413191 215.400036 
L 25.134821 208.11541 
L 27.299709 176.609298 
L 28.021339 172.94851 
L 28.742968 165.376493 
L 29.464597 152.231854 
L 30.186227 158.433345 
L 30.907856 145.758683 
L 31.629486 137.604679 
L 32.351115 134.242079 
L 33.072745 128.821338 
L 33.794374 120.85147 
L 34.516004 133.254969 
L 35.237633 120.093974 
L 35.959263 131.658472 
L 36.680892 121.750314 
L 37.402522 122.478329 
L 38.124151 118.861792 
L 38.845781 111.376211 
L 39.56741 128.460519 
L 40.28904 128.77554 
L 41.010669 127.629931 
L 41.732299 133.20462 
L 42.453928 133.496591 
L 43.175558 143.283636 
L 43.897187 125.094486 
L 44.618817 137.544401 
L 45.340446 143.726818 
L 46.062076 141.544159 
L 46.783705 151.759477 
L 47.505335 153.596928 
L 48.226964 159.041713 
L 48.948594 162.687894 
L 49.670223 167.520415 
L 50.391853 175.289814 
L 51.113482 171.172195 
L 51.835112 192.768387 
L 52.556741 187.022051 
L 53.278371 191.551663 
L 54 191.677576 
L 54.721629 190.883961 
L 55.443259 202.272872 
L 56.164888 202.175195 
L 56.886518 208.79248 
L 57.608147 217.549607 
L 58.329777 210.590569 
L 59.051406 216.317323 
L 59.773036 220.183455 
L 60.494665 219.154099 
L 61.216295 217.15395 
L 61.937924 218.365589 
L 62.659554 218.550345 
L 63.381183 223.714002 
L 64.102813 217.975764 
L 64.824442 223.111054 
L 65.546072 225.362573 
L 66.267701 219.339368 
L 66.989331 223.802625 
L 68.43259 222.706087 
L 69.154219 226.570232 
L 69.875849 224.904986 
L 70.597478 225.479303 
L 71.319108 220.299213 
L 72.040737 221.19427 
L 72.762367 221.891148 
L 73.483996 225.785785 
L 74.205626 225.391766 
L 74.927255 226.185075 
L 75.648885 221.657708 
L 77.092144 226.562161 
L 77.813773 225.909815 
L 78.535403 224.331733 
L 79.257032 221.995682 
L 79.978661 223.620906 
L 80.700291 226.080899 
L 81.42192 226.279636 
L 82.14355 226.134526 
L 82.865179 221.522886 
L 83.586809 221.569795 
L 84.308438 221.273546 
L 85.030068 222.11978 
L 85.751697 219.70932 
L 86.473327 219.132574 
L 87.194956 218.265821 
L 87.916586 213.18013 
L 88.638215 213.688153 
L 89.359845 213.611311 
L 90.081474 213.01292 
L 90.803104 210.742986 
L 91.524733 211.798721 
L 92.246363 214.846998 
L 92.967992 200.96779 
L 93.689622 200.222541 
L 94.411251 203.811614 
L 95.132881 199.432921 
L 95.85451 198.807017 
L 97.297769 185.169198 
L 98.019399 187.141678 
L 98.741028 176.508498 
L 99.462658 180.711653 
L 100.184287 171.159037 
L 100.905917 167.251133 
L 101.627546 153.454705 
L 102.349176 157.078949 
L 103.070805 147.900539 
L 103.792435 148.496258 
L 104.514064 150.586564 
L 105.235694 158.003868 
L 105.957323 158.640603 
L 106.678952 161.409905 
L 107.400582 171.121534 
L 108.122211 170.464066 
L 108.843841 174.331667 
L 109.56547 184.784146 
L 110.2871 198.230037 
L 111.008729 202.91666 
L 111.730359 201.397075 
L 112.451988 212.531584 
L 113.173618 219.701629 
L 113.895247 222.315631 
L 115.338506 231.139218 
L 116.060136 232.200863 
L 116.781765 230.417126 
L 117.503395 230.973774 
L 118.225024 230.573387 
L 118.946654 233.362068 
L 119.668283 230.299691 
L 120.389913 229.715132 
L 121.111542 231.472564 
L 121.833172 231.244501 
L 122.554801 231.494737 
L 123.276431 228.350689 
L 123.99806 228.887881 
L 124.71969 227.17856 
L 125.441319 229.540401 
L 126.162949 228.725815 
L 126.884578 230.345527 
L 127.606208 228.339627 
L 128.327837 230.789986 
L 129.049467 228.598573 
L 129.771096 228.168482 
L 130.492726 227.878394 
L 131.214355 230.585442 
L 131.935984 224.721007 
L 132.657614 229.122765 
L 133.379243 225.940322 
L 134.100873 232.145131 
L 134.822502 232.383546 
L 135.544132 226.837819 
L 136.265761 228.030554 
L 136.987391 230.23158 
L 137.70902 230.366275 
L 138.43065 229.375608 
L 139.152279 223.269027 
L 139.873909 228.348033 
L 140.595538 226.702471 
L 141.317168 227.000317 
L 142.038797 230.143632 
L 142.760427 225.649133 
L 143.482056 228.510171 
L 144.203686 230.364039 
L 144.925315 230.365642 
L 145.646945 229.088544 
L 146.368574 227.52496 
L 147.811833 231.910058 
L 148.533463 231.644401 
L 149.255092 222.260401 
L 149.976722 226.440143 
L 150.698351 227.921406 
L 151.419981 224.007801 
L 152.14161 226.008964 
L 152.86324 227.561958 
L 153.584869 226.249325 
L 154.306499 228.716105 
L 155.028128 224.369601 
L 155.749758 223.981576 
L 156.471387 226.513422 
L 157.193016 220.618124 
L 157.914646 223.024657 
L 158.636275 221.143816 
L 160.079534 223.106854 
L 160.801164 225.826279 
L 161.522793 222.286959 
L 162.244423 217.928805 
L 162.966052 219.638087 
L 163.687682 215.291739 
L 164.409311 219.802162 
L 165.130941 220.397202 
L 165.85257 219.188022 
L 166.5742 218.644507 
L 167.295829 221.594389 
L 168.017459 219.784635 
L 168.739088 216.613851 
L 169.460718 222.58529 
L 170.182347 222.656256 
L 170.903977 216.333116 
L 172.347236 222.149699 
L 173.068865 217.399236 
L 173.790495 219.072755 
L 174.512124 217.655263 
L 175.233754 215.410749 
L 175.955383 212.751865 
L 176.677013 219.580175 
L 177.398642 212.24044 
L 178.120272 208.640392 
L 178.841901 209.322314 
L 179.563531 214.013671 
L 180.28516 205.300173 
L 181.00679 205.328241 
L 181.728419 209.309773 
L 182.450048 199.773295 
L 183.171678 205.871933 
L 183.893307 202.160809 
L 184.614937 200.471843 
L 185.336566 201.526247 
L 186.058196 201.810668 
L 186.779825 204.74222 
L 187.501455 203.894848 
L 188.223084 210.121728 
L 188.944714 207.80246 
L 189.666343 209.756072 
L 190.387973 216.97402 
L 191.109602 213.137025 
L 191.831232 212.594095 
L 192.552861 213.596885 
L 193.274491 212.489547 
L 193.99612 211.895322 
L 194.71775 220.178437 
L 195.439379 214.05572 
L 196.161009 219.571501 
L 196.882638 215.872956 
L 197.604268 220.417337 
L 198.325897 220.012706 
L 199.047527 218.535626 
L 199.769156 219.557724 
L 200.490786 221.071847 
L 201.212415 225.217652 
L 201.934045 221.396215 
L 202.655674 219.689333 
L 203.377304 220.123484 
L 204.098933 220.372892 
L 204.820563 224.090041 
L 205.542192 223.564761 
L 206.263822 222.575663 
L 206.985451 221.823508 
L 207.707081 223.979334 
L 208.42871 218.583669 
L 209.150339 221.612541 
L 209.871969 217.755414 
L 210.593598 219.915255 
L 211.315228 209.003386 
L 212.036857 208.545477 
L 212.758487 198.085689 
L 213.480116 198.628937 
L 214.201746 200.842712 
L 214.923375 193.962275 
L 215.645005 177.185087 
L 216.366634 168.864408 
L 217.088264 165.896632 
L 217.809893 151.298477 
L 218.531523 145.233877 
L 219.253152 144.184985 
L 219.974782 129.778252 
L 220.696411 112.518765 
L 221.418041 90.892688 
L 222.13967 78.221588 
L 222.8613 82.606593 
L 223.582929 82.495595 
L 224.304559 94.583884 
L 225.026188 86.132326 
L 225.747818 82.177636 
L 226.469447 89.178452 
L 227.191077 105.280846 
L 227.912706 116.982225 
L 228.634336 132.432274 
L 230.077595 157.628866 
L 231.520854 196.34471 
L 232.242483 201.82481 
L 232.964113 219.078712 
L 233.685742 222.757951 
L 235.129001 235.422478 
L 235.85063 234.102132 
L 236.57226 238.037161 
L 237.293889 240.372932 
L 238.015519 240.131495 
L 238.737148 240.78852 
L 239.458778 241.709392 
L 240.180407 241.753652 
L 240.902037 241.629985 
L 241.623666 241.750037 
L 243.788555 241.525393 
L 244.510184 241.972106 
L 245.231814 241.689411 
L 267.602328 241.653245 
L 268.323957 241.807815 
L 271.210475 241.680539 
L 271.932105 241.731552 
L 272.653734 241.6071 
L 273.375364 241.710568 
L 274.096993 241.648236 
L 274.818623 241.715998 
L 275.540252 241.6703 
L 276.261882 241.785969 
L 277.705141 241.696284 
L 306.57032 241.640612 
L 307.29195 241.743388 
L 308.735209 241.613214 
L 310.178468 241.679769 
L 314.508244 241.646354 
L 315.951503 241.677786 
L 318.838021 241.697181 
L 334.71387 241.705226 
L 336.878758 241.689525 
L 339.765276 241.694224 
L 340.486906 241.638681 
L 341.208535 241.731243 
L 342.651794 241.700771 
L 348.42483 241.701865 
L 350.589719 241.68485 
L 353.476237 241.757118 
L 354.197866 241.769129 
L 354.919496 241.633941 
L 357.084384 241.687821 
L 359.249273 241.737369 
L 361.414161 241.575838 
L 362.13579 241.693635 
L 362.85742 241.670263 
L 363.579049 241.777475 
L 365.022308 241.637633 
L 366.465567 241.688961 
L 370.795344 241.594085 
L 370.795344 241.594085 
" style="fill:none;stroke:#ff7f0e;stroke-dasharray:5.55,2.4;stroke-dashoffset:0;stroke-width:1.5;"/>
   </g>
   <g id="line2d_16">
    <path clip-path="url(#p61e5edd75c)" d="M 54 179.255646 
L 54.721629 179.255646 
L 54.721629 182.048334 
L 55.443259 182.048334 
L 55.443259 184.712836 
L 56.164888 184.712836 
L 56.164888 187.438315 
L 56.886518 187.438315 
L 56.886518 190.234362 
L 57.608147 190.234362 
L 57.608147 192.096238 
L 58.329777 192.096238 
L 58.329777 194.64596 
L 59.051406 194.64596 
L 59.051406 197.25965 
L 59.773036 197.25965 
L 59.773036 199.151117 
L 60.494665 199.151117 
L 60.494665 201.333127 
L 61.216295 201.333127 
L 61.216295 203.333469 
L 61.937924 203.333469 
L 61.937924 204.814651 
L 62.659554 204.814651 
L 62.659554 206.885418 
L 63.381183 206.885418 
L 63.381183 208.411712 
L 64.102813 208.411712 
L 64.102813 210.458241 
L 64.824442 210.458241 
L 64.824442 212.091836 
L 65.546072 212.091836 
L 65.546072 212.976945 
L 66.267701 212.976945 
L 66.267701 214.615221 
L 66.989331 214.615221 
L 66.989331 215.516032 
L 67.71096 215.516032 
L 67.71096 216.335415 
L 68.43259 216.335415 
L 68.43259 217.671765 
L 69.154219 217.671765 
L 69.154219 218.330674 
L 69.875849 218.330674 
L 69.875849 219.214343 
L 70.597478 219.214343 
L 70.597478 219.542241 
L 71.319108 219.542241 
L 71.319108 219.715385 
L 72.040737 219.715385 
L 72.040737 220.515014 
L 72.762367 220.515014 
L 72.762367 220.704038 
L 73.483996 220.704038 
L 73.483996 221.15858 
L 74.205626 221.15858 
L 74.205626 221.492928 
L 74.927255 221.492928 
L 74.927255 221.200382 
L 77.092144 221.299373 
L 77.092144 221.348307 
L 78.535403 221.263043 
L 78.535403 220.637109 
L 79.257032 220.637109 
L 79.257032 220.14794 
L 79.978661 220.14794 
L 79.978661 219.834462 
L 80.700291 219.834462 
L 80.700291 219.382731 
L 81.42192 219.382731 
L 81.42192 219.259746 
L 82.14355 219.259746 
L 82.14355 218.568811 
L 82.865179 218.568811 
L 82.865179 217.487854 
L 83.586809 217.487854 
L 83.586809 216.463729 
L 84.308438 216.463729 
L 84.308438 215.68713 
L 85.030068 215.68713 
L 85.030068 214.822419 
L 85.751697 214.822419 
L 85.751697 213.95306 
L 86.473327 213.95306 
L 86.473327 212.716852 
L 87.194956 212.716852 
L 87.194956 211.337919 
L 87.916586 211.337919 
L 87.916586 210.392325 
L 88.638215 210.392325 
L 88.638215 208.902115 
L 89.359845 208.902115 
L 89.359845 207.666858 
L 90.081474 207.666858 
L 90.081474 206.908593 
L 90.803104 206.908593 
L 90.803104 205.560341 
L 91.524733 205.560341 
L 91.524733 204.655229 
L 92.246363 204.655229 
L 92.246363 203.192164 
L 92.967992 203.192164 
L 92.967992 202.098403 
L 93.689622 202.098403 
L 93.689622 201.207427 
L 94.411251 201.207427 
L 94.411251 199.563989 
L 95.132881 199.563989 
L 95.132881 199.117003 
L 95.85451 199.117003 
L 95.85451 197.947469 
L 96.57614 197.947469 
L 96.57614 197.068486 
L 97.297769 197.068486 
L 97.297769 195.844716 
L 98.019399 195.844716 
L 98.019399 195.303876 
L 98.741028 195.303876 
L 98.741028 194.542932 
L 99.462658 194.542932 
L 99.462658 193.855951 
L 100.184287 193.855951 
L 100.184287 192.531976 
L 100.905917 192.531976 
L 100.905917 191.975379 
L 101.627546 191.975379 
L 101.627546 190.533501 
L 102.349176 190.533501 
L 102.349176 190.043886 
L 103.070805 190.043886 
L 103.070805 189.906035 
L 103.792435 189.906035 
L 103.792435 189.649705 
L 105.957323 189.551818 
L 105.957323 189.82064 
L 106.678952 189.82064 
L 106.678952 190.312497 
L 107.400582 190.312497 
L 107.400582 190.521683 
L 108.122211 190.521683 
L 108.122211 190.916088 
L 108.843841 190.916088 
L 108.843841 192.113947 
L 109.56547 192.113947 
L 109.56547 192.626916 
L 110.2871 192.626916 
L 110.2871 193.905249 
L 111.008729 193.905249 
L 111.008729 195.084319 
L 111.730359 195.084319 
L 111.730359 196.838217 
L 112.451988 196.838217 
L 112.451988 197.999446 
L 113.173618 197.999446 
L 113.173618 199.497764 
L 113.895247 199.497764 
L 113.895247 201.423379 
L 114.616877 201.423379 
L 114.616877 203.277541 
L 115.338506 203.277541 
L 115.338506 204.423295 
L 116.060136 204.423295 
L 116.060136 206.030338 
L 116.781765 206.030338 
L 116.781765 207.77909 
L 117.503395 207.77909 
L 117.503395 209.590519 
L 118.225024 209.590519 
L 118.225024 211.269397 
L 118.946654 211.269397 
L 118.946654 213.148516 
L 119.668283 213.148516 
L 119.668283 214.794826 
L 120.389913 214.794826 
L 120.389913 216.243043 
L 121.111542 216.243043 
L 121.111542 217.6762 
L 121.833172 217.6762 
L 121.833172 219.267784 
L 122.554801 219.267784 
L 122.554801 220.745247 
L 123.276431 220.745247 
L 123.276431 221.8015 
L 123.99806 221.8015 
L 123.99806 222.966929 
L 124.71969 222.966929 
L 124.71969 223.748242 
L 125.441319 223.748242 
L 125.441319 224.751485 
L 126.162949 224.751485 
L 126.162949 225.620694 
L 126.884578 225.620694 
L 126.884578 226.726374 
L 127.606208 226.726374 
L 127.606208 227.03038 
L 128.327837 227.03038 
L 128.327837 227.598346 
L 129.771096 227.673347 
L 129.771096 228.35957 
L 130.492726 228.35957 
L 130.492726 228.534794 
L 131.214355 228.534794 
L 131.214355 228.386854 
L 131.935984 228.386854 
L 131.935984 228.524089 
L 132.657614 228.524089 
L 132.657614 228.683872 
L 133.379243 228.683872 
L 133.379243 228.88912 
L 134.100873 228.88912 
L 134.100873 229.241107 
L 134.822502 229.241107 
L 134.822502 228.809361 
L 135.544132 228.809361 
L 135.544132 229.006267 
L 136.265761 229.006267 
L 136.265761 228.656452 
L 136.987391 228.656452 
L 136.987391 228.403675 
L 137.70902 228.403675 
L 137.70902 228.740036 
L 138.43065 228.740036 
L 138.43065 228.248457 
L 139.873909 228.288759 
L 139.873909 228.077458 
L 142.760427 227.985411 
L 142.760427 227.799351 
L 144.203686 227.834796 
L 144.203686 227.634289 
L 144.925315 227.634289 
L 144.925315 227.462895 
L 147.090204 227.562317 
L 147.090204 227.273963 
L 147.811833 227.273963 
L 147.811833 226.994861 
L 148.533463 226.994861 
L 148.533463 226.857158 
L 149.255092 226.857158 
L 149.255092 226.408757 
L 149.976722 226.408757 
L 149.976722 226.258153 
L 150.698351 226.258153 
L 150.698351 226.018918 
L 152.86324 225.989986 
L 152.86324 225.814241 
L 153.584869 225.814241 
L 153.584869 225.677904 
L 154.306499 225.677904 
L 154.306499 225.259081 
L 155.749758 225.221609 
L 155.749758 224.634468 
L 156.471387 224.634468 
L 156.471387 224.37092 
L 157.914646 224.28303 
L 157.914646 223.838873 
L 158.636275 223.838873 
L 158.636275 223.452325 
L 160.801164 223.374951 
L 160.801164 222.960662 
L 161.522793 222.960662 
L 161.522793 222.419228 
L 162.244423 222.419228 
L 162.244423 221.956149 
L 162.966052 221.956149 
L 162.966052 221.371971 
L 163.687682 221.371971 
L 163.687682 220.869839 
L 165.130941 220.806346 
L 165.130941 220.50568 
L 165.85257 220.50568 
L 165.85257 220.142944 
L 166.5742 220.142944 
L 166.5742 219.576915 
L 167.295829 219.576915 
L 167.295829 219.376672 
L 168.017459 219.376672 
L 168.017459 218.731639 
L 168.739088 218.731639 
L 168.739088 218.487504 
L 169.460718 218.487504 
L 169.460718 218.302333 
L 170.182347 218.302333 
L 170.182347 217.401112 
L 170.903977 217.401112 
L 170.903977 217.120098 
L 171.625606 217.120098 
L 171.625606 216.811998 
L 172.347236 216.811998 
L 172.347236 216.655525 
L 173.068865 216.655525 
L 173.068865 216.267326 
L 174.512124 216.179614 
L 174.512124 215.39679 
L 175.233754 215.39679 
L 175.233754 215.206258 
L 175.955383 215.206258 
L 175.955383 214.82529 
L 176.677013 214.82529 
L 176.677013 214.713206 
L 177.398642 214.713206 
L 177.398642 214.295019 
L 178.120272 214.295019 
L 178.120272 213.830029 
L 179.563531 213.80357 
L 179.563531 213.161034 
L 181.728419 213.081425 
L 181.728419 212.424479 
L 182.450048 212.424479 
L 182.450048 212.273071 
L 183.171678 212.273071 
L 183.171678 212.160318 
L 183.893307 212.160318 
L 183.893307 211.911177 
L 184.614937 211.911177 
L 184.614937 211.697405 
L 185.336566 211.697405 
L 185.336566 211.251967 
L 186.058196 211.251967 
L 186.058196 211.814726 
L 186.779825 211.814726 
L 186.779825 211.572406 
L 188.223084 211.629816 
L 188.223084 212.121607 
L 188.944714 212.121607 
L 188.944714 211.861688 
L 189.666343 211.861688 
L 189.666343 212.015756 
L 190.387973 212.015756 
L 190.387973 212.484619 
L 191.109602 212.484619 
L 191.109602 212.226096 
L 191.831232 212.226096 
L 191.831232 212.550391 
L 192.552861 212.550391 
L 192.552861 212.328981 
L 193.274491 212.328981 
L 193.274491 212.811896 
L 194.71775 212.888945 
L 194.71775 213.258673 
L 195.439379 213.258673 
L 195.439379 213.472741 
L 196.882638 213.545841 
L 196.882638 213.600011 
L 197.604268 213.600011 
L 197.604268 213.713835 
L 198.325897 213.713835 
L 198.325897 213.164552 
L 200.490786 213.152275 
L 200.490786 212.620599 
L 201.212415 212.620599 
L 201.212415 212.250235 
L 201.934045 212.250235 
L 201.934045 211.33233 
L 202.655674 211.33233 
L 202.655674 210.524307 
L 203.377304 210.524307 
L 203.377304 209.227734 
L 204.098933 209.227734 
L 204.098933 208.193398 
L 204.820563 208.193398 
L 204.820563 207.302135 
L 205.542192 207.302135 
L 205.542192 205.781531 
L 206.263822 205.781531 
L 206.263822 204.485665 
L 206.985451 204.485665 
L 206.985451 202.556768 
L 207.707081 202.556768 
L 207.707081 200.545958 
L 208.42871 200.545958 
L 208.42871 198.316897 
L 209.150339 198.316897 
L 209.150339 196.860566 
L 209.871969 196.860566 
L 209.871969 195.148266 
L 210.593598 195.148266 
L 210.593598 193.247313 
L 211.315228 193.247313 
L 211.315228 190.74798 
L 212.036857 190.74798 
L 212.036857 188.790871 
L 212.758487 188.790871 
L 212.758487 186.928013 
L 213.480116 186.928013 
L 213.480116 185.099032 
L 214.201746 185.099032 
L 214.201746 183.325164 
L 214.923375 183.325164 
L 214.923375 181.444186 
L 215.645005 181.444186 
L 215.645005 179.224525 
L 216.366634 179.224525 
L 216.366634 177.505325 
L 217.088264 177.505325 
L 217.088264 175.739718 
L 217.809893 175.739718 
L 217.809893 173.837518 
L 218.531523 173.837518 
L 218.531523 172.844846 
L 219.253152 172.844846 
L 219.253152 170.559639 
L 219.974782 170.559639 
L 219.974782 168.73507 
L 220.696411 168.73507 
L 220.696411 166.190617 
L 221.418041 166.190617 
L 221.418041 164.223827 
L 222.13967 164.223827 
L 222.13967 162.426197 
L 222.8613 162.426197 
L 222.8613 161.960563 
L 223.582929 161.960563 
L 223.582929 161.83214 
L 224.304559 161.83214 
L 224.304559 161.21545 
L 225.026188 161.21545 
L 225.026188 160.040015 
L 225.747818 160.040015 
L 225.747818 159.920386 
L 227.191077 159.903601 
L 227.191077 161.291577 
L 227.912706 161.291577 
L 227.912706 162.185098 
L 228.634336 162.185098 
L 228.634336 163.6644 
L 229.355965 163.6644 
L 229.355965 164.683498 
L 230.077595 164.683498 
L 230.077595 166.581861 
L 230.799224 166.581861 
L 230.799224 169.640044 
L 231.520854 169.640044 
L 231.520854 172.715919 
L 232.242483 172.715919 
L 232.242483 175.737165 
L 232.964113 175.737165 
L 232.964113 178.35708 
L 233.685742 178.35708 
L 233.685742 180.835631 
L 234.407371 180.835631 
L 234.407371 183.539694 
L 235.129001 183.539694 
L 235.129001 186.886069 
L 235.85063 186.886069 
L 235.85063 190.866537 
L 236.57226 190.866537 
L 236.57226 194.58321 
L 237.293889 194.58321 
L 237.293889 197.899965 
L 238.015519 197.899965 
L 238.015519 201.536539 
L 238.737148 201.536539 
L 238.737148 204.695508 
L 239.458778 204.695508 
L 239.458778 208.441337 
L 240.180407 208.441337 
L 240.180407 211.902491 
L 240.902037 211.902491 
L 240.902037 215.177937 
L 241.623666 215.177937 
L 241.623666 218.138845 
L 242.345296 218.138845 
L 242.345296 221.015564 
L 243.066925 221.015564 
L 243.066925 223.687631 
L 243.788555 223.687631 
L 243.788555 226.487985 
L 244.510184 226.487985 
L 244.510184 228.751188 
L 245.231814 228.751188 
L 245.231814 230.829052 
L 245.953443 230.829052 
L 245.953443 232.708028 
L 246.675073 232.708028 
L 246.675073 234.295746 
L 247.396702 234.295746 
L 247.396702 235.759676 
L 248.118332 235.759676 
L 248.118332 236.98477 
L 248.839961 236.98477 
L 248.839961 237.955893 
L 249.561591 237.955893 
L 249.561591 238.870151 
L 250.28322 238.870151 
L 250.28322 239.528191 
L 251.00485 239.528191 
L 251.00485 240.147911 
L 251.726479 240.147911 
L 251.726479 240.595089 
L 252.448109 240.595089 
L 252.448109 240.886951 
L 253.169738 240.886951 
L 253.169738 241.160361 
L 253.891368 241.160361 
L 253.891368 241.342275 
L 255.334627 241.439564 
L 255.334627 241.526989 
L 257.499515 241.624825 
L 257.499515 241.650563 
L 370.795344 241.685225 
L 370.795344 241.688412 
" style="fill:none;stroke:#ff7f0e;stroke-linecap:square;stroke-width:1.5;"/>
   </g>
   <g id="line2d_17">
    <path clip-path="url(#p61e5edd75c)" d="M 10.702231 240.319184 
L 11.42386 240.860072 
L 12.14549 240.948385 
L 13.588749 242.116364 
L 14.310378 241.553102 
L 15.032008 241.713928 
L 18.640155 241.578655 
L 19.361785 240.918691 
L 20.083414 241.266279 
L 20.805044 240.13691 
L 21.526673 239.878307 
L 22.248303 240.218351 
L 22.969932 239.706379 
L 23.691562 237.914994 
L 24.413191 239.875235 
L 25.134821 235.477178 
L 25.85645 239.870925 
L 26.57808 234.474331 
L 27.299709 233.761868 
L 28.742968 229.209911 
L 29.464597 229.202434 
L 30.186227 231.999033 
L 30.907856 227.516749 
L 31.629486 226.38589 
L 32.351115 224.933148 
L 33.072745 225.939542 
L 33.794374 226.012167 
L 34.516004 225.718026 
L 35.237633 226.956902 
L 35.959263 227.677548 
L 36.680892 224.278421 
L 37.402522 229.828374 
L 38.124151 223.104049 
L 38.845781 229.178953 
L 39.56741 229.288284 
L 40.28904 231.469626 
L 41.732299 232.991309 
L 42.453928 227.761295 
L 43.175558 234.438448 
L 43.897187 231.50296 
L 44.618817 234.8014 
L 45.340446 227.337274 
L 46.062076 231.063693 
L 46.783705 231.974001 
L 47.505335 234.928377 
L 48.226964 234.584064 
L 48.948594 237.410455 
L 50.391853 232.950433 
L 51.113482 233.729166 
L 51.835112 235.81738 
L 52.556741 234.316505 
L 53.278371 234.175191 
L 54.721629 238.81006 
L 55.443259 236.209124 
L 56.164888 235.954426 
L 56.886518 235.110556 
L 57.608147 239.111609 
L 58.329777 238.367706 
L 59.051406 237.012982 
L 59.773036 237.07051 
L 60.494665 238.611898 
L 61.216295 236.803434 
L 61.937924 237.087391 
L 62.659554 237.591265 
L 63.381183 237.305782 
L 64.102813 235.449331 
L 64.824442 238.255942 
L 65.546072 236.40409 
L 66.267701 236.191536 
L 66.989331 237.732536 
L 67.71096 238.159164 
L 68.43259 236.715895 
L 69.154219 238.49157 
L 69.875849 237.417431 
L 70.597478 237.329745 
L 71.319108 239.452001 
L 72.040737 236.252822 
L 72.762367 236.878655 
L 73.483996 238.010073 
L 74.205626 238.296254 
L 74.927255 237.952707 
L 75.648885 235.608179 
L 76.370514 239.326454 
L 77.813773 236.029542 
L 78.535403 236.89603 
L 79.257032 236.265742 
L 79.978661 236.950937 
L 80.700291 234.677658 
L 81.42192 237.659395 
L 82.14355 234.460649 
L 82.865179 234.233237 
L 83.586809 234.752154 
L 84.308438 233.994679 
L 85.030068 232.595266 
L 85.751697 232.82851 
L 86.473327 230.994643 
L 87.194956 233.284085 
L 87.916586 227.189725 
L 88.638215 224.984059 
L 89.359845 227.669544 
L 90.081474 222.296018 
L 90.803104 219.816093 
L 91.524733 219.729471 
L 92.246363 219.986966 
L 92.967992 218.255604 
L 93.689622 220.168519 
L 94.411251 220.099699 
L 95.132881 218.79877 
L 95.85451 219.545924 
L 96.57614 221.498679 
L 97.297769 221.50892 
L 98.019399 222.760174 
L 98.741028 226.306327 
L 99.462658 225.075569 
L 100.184287 225.644836 
L 100.905917 226.060643 
L 101.627546 229.966017 
L 102.349176 229.368305 
L 103.070805 233.907211 
L 103.792435 232.004375 
L 104.514064 232.718803 
L 105.235694 235.392608 
L 105.957323 237.436118 
L 106.678952 235.351749 
L 107.400582 236.449734 
L 108.122211 236.490492 
L 108.843841 238.692287 
L 109.56547 235.782053 
L 110.2871 234.977122 
L 111.008729 234.595404 
L 111.730359 238.336448 
L 112.451988 237.55445 
L 113.895247 238.699357 
L 114.616877 240.013009 
L 115.338506 237.65561 
L 116.060136 239.073093 
L 116.781765 239.901922 
L 117.503395 239.658786 
L 118.225024 240.186256 
L 118.946654 240.427649 
L 120.389913 239.167511 
L 121.111542 240.145002 
L 121.833172 239.754534 
L 122.554801 236.881723 
L 123.276431 240.110759 
L 123.99806 240.644594 
L 124.71969 240.167856 
L 125.441319 238.892848 
L 126.162949 236.450095 
L 126.884578 238.722663 
L 127.606208 238.094837 
L 128.327837 238.757156 
L 129.049467 237.447129 
L 129.771096 239.303074 
L 130.492726 239.1151 
L 131.214355 237.865937 
L 131.935984 238.726725 
L 132.657614 238.390365 
L 133.379243 236.481975 
L 134.100873 237.862315 
L 134.822502 238.877793 
L 135.544132 238.155605 
L 136.265761 236.672685 
L 136.987391 238.704065 
L 137.70902 239.510012 
L 138.43065 236.467489 
L 139.152279 236.935673 
L 139.873909 235.527699 
L 140.595538 238.626586 
L 141.317168 236.596086 
L 142.038797 237.759061 
L 142.760427 236.27747 
L 143.482056 239.55627 
L 144.203686 236.82455 
L 144.925315 236.403671 
L 145.646945 237.537735 
L 146.368574 237.476847 
L 147.090204 236.596062 
L 147.811833 236.207044 
L 148.533463 237.401017 
L 149.255092 235.83817 
L 149.976722 234.56547 
L 150.698351 235.698139 
L 151.419981 238.464385 
L 152.14161 237.624031 
L 152.86324 235.173857 
L 153.584869 237.889636 
L 154.306499 239.361449 
L 155.028128 236.111402 
L 155.749758 234.46977 
L 156.471387 234.668864 
L 157.193016 237.135496 
L 157.914646 233.342018 
L 158.636275 238.481412 
L 159.357905 236.41611 
L 160.801164 236.389445 
L 161.522793 234.075666 
L 162.244423 236.695058 
L 162.966052 235.61192 
L 163.687682 236.218735 
L 164.409311 234.987644 
L 165.130941 236.353482 
L 165.85257 235.361226 
L 166.5742 236.05761 
L 167.295829 234.408892 
L 168.017459 233.862978 
L 168.739088 233.981446 
L 169.460718 235.54757 
L 170.182347 232.351583 
L 170.903977 231.607889 
L 171.625606 232.912801 
L 172.347236 231.383078 
L 173.068865 232.476209 
L 173.790495 231.607563 
L 174.512124 232.028045 
L 175.233754 229.62503 
L 175.955383 232.502361 
L 176.677013 231.73782 
L 177.398642 233.322033 
L 178.120272 231.772498 
L 178.841901 229.131674 
L 179.563531 228.42676 
L 180.28516 229.326788 
L 181.00679 230.763967 
L 181.728419 222.327913 
L 182.450048 228.095355 
L 183.171678 227.485647 
L 183.893307 227.212052 
L 184.614937 230.039059 
L 185.336566 228.290385 
L 186.058196 227.058438 
L 186.779825 224.006029 
L 187.501455 228.380867 
L 188.223084 231.514303 
L 188.944714 224.877194 
L 189.666343 222.506807 
L 191.109602 230.573304 
L 191.831232 229.318607 
L 192.552861 232.834524 
L 193.274491 230.081616 
L 193.99612 231.588535 
L 194.71775 235.495559 
L 195.439379 233.879181 
L 196.161009 234.322045 
L 196.882638 236.093074 
L 198.325897 238.206956 
L 199.047527 237.63718 
L 199.769156 239.960309 
L 200.490786 238.422172 
L 201.212415 240.175642 
L 201.934045 239.880583 
L 202.655674 240.059579 
L 203.377304 239.446406 
L 204.098933 240.395152 
L 204.820563 241.073106 
L 205.542192 240.419845 
L 206.263822 240.588386 
L 206.985451 241.525304 
L 207.707081 240.935708 
L 208.42871 242.066373 
L 209.150339 240.514442 
L 209.871969 241.836542 
L 210.593598 241.552532 
L 211.315228 241.017215 
L 212.036857 241.231552 
L 212.758487 240.723628 
L 213.480116 241.543829 
L 214.201746 240.977249 
L 214.923375 241.853507 
L 215.645005 241.568369 
L 216.366634 241.11534 
L 217.809893 240.766143 
L 218.531523 240.236083 
L 219.253152 239.931823 
L 219.974782 241.740727 
L 220.696411 240.665733 
L 221.418041 240.129687 
L 222.13967 240.793299 
L 222.8613 240.380117 
L 224.304559 240.824303 
L 225.026188 240.05933 
L 225.747818 241.510211 
L 226.469447 241.717572 
L 227.191077 241.365547 
L 227.912706 239.857665 
L 228.634336 241.100089 
L 229.355965 240.705359 
L 230.077595 242.04938 
L 230.799224 241.13721 
L 231.520854 241.476686 
L 232.242483 241.366227 
L 232.964113 241.450578 
L 233.685742 241.968627 
L 234.407371 241.53945 
L 235.129001 241.754558 
L 235.85063 241.566264 
L 236.57226 241.689275 
L 237.293889 241.611393 
L 238.015519 241.730998 
L 239.458778 241.635493 
L 248.118332 241.722256 
L 249.561591 241.675155 
L 256.056256 241.727911 
L 256.777886 241.623635 
L 261.107662 241.742737 
L 261.829292 241.59615 
L 263.272551 241.625945 
L 264.71581 241.736509 
L 267.602328 241.700766 
L 269.045587 241.666254 
L 269.767216 241.765101 
L 271.210475 241.632154 
L 271.932105 241.772427 
L 272.653734 241.627723 
L 281.313288 241.662364 
L 282.034918 241.601422 
L 282.756547 241.71376 
L 283.478177 241.648859 
L 285.643065 241.768801 
L 288.529583 241.6151 
L 289.972842 241.70594 
L 296.467507 241.683611 
L 300.075655 241.704954 
L 301.518914 241.679183 
L 305.848691 241.708444 
L 307.29195 241.695508 
L 310.900097 241.724333 
L 312.343356 241.67604 
L 315.951503 241.729271 
L 318.838021 241.709067 
L 324.611057 241.689212 
L 331.105723 241.707326 
L 334.71387 241.673884 
L 339.043647 241.714516 
L 340.486906 241.677874 
L 341.930165 241.678501 
L 349.868089 241.687779 
L 370.795344 241.659965 
L 370.795344 241.659965 
" style="fill:none;stroke:#2ca02c;stroke-dasharray:5.55,2.4;stroke-dashoffset:0;stroke-width:1.5;"/>
   </g>
   <g id="line2d_18">
    <path clip-path="url(#p61e5edd75c)" d="M 54 234.630103 
L 54.721629 234.630103 
L 54.721629 234.762557 
L 55.443259 234.762557 
L 55.443259 235.087241 
L 56.886518 235.068852 
L 56.886518 235.359639 
L 57.608147 235.359639 
L 57.608147 235.656272 
L 58.329777 235.656272 
L 58.329777 235.810953 
L 59.051406 235.810953 
L 59.051406 236.165348 
L 59.773036 236.165348 
L 59.773036 236.045995 
L 60.494665 236.045995 
L 60.494665 236.321445 
L 62.659554 236.385376 
L 62.659554 236.526167 
L 63.381183 236.526167 
L 63.381183 236.785175 
L 64.102813 236.785175 
L 64.102813 236.660068 
L 65.546072 236.673391 
L 65.546072 236.941938 
L 67.71096 236.903994 
L 67.71096 236.682666 
L 68.43259 236.682666 
L 68.43259 237.015554 
L 69.875849 237.010631 
L 69.875849 236.74668 
L 70.597478 236.74668 
L 70.597478 236.923914 
L 71.319108 236.923914 
L 71.319108 236.509791 
L 72.040737 236.509791 
L 72.040737 236.719392 
L 72.762367 236.719392 
L 72.762367 236.504338 
L 73.483996 236.504338 
L 73.483996 236.232033 
L 74.927255 236.272177 
L 74.927255 235.781876 
L 75.648885 235.781876 
L 75.648885 235.935566 
L 76.370514 235.935566 
L 76.370514 235.470884 
L 77.092144 235.470884 
L 77.092144 235.318242 
L 77.813773 235.318242 
L 77.813773 235.024065 
L 78.535403 235.024065 
L 78.535403 234.719429 
L 79.978661 234.642127 
L 79.978661 234.128449 
L 80.700291 234.128449 
L 80.700291 233.872376 
L 81.42192 233.872376 
L 81.42192 233.737247 
L 82.14355 233.737247 
L 82.14355 233.194926 
L 82.865179 233.194926 
L 82.865179 233.034654 
L 83.586809 233.034654 
L 83.586809 232.440672 
L 84.308438 232.440672 
L 84.308438 232.068923 
L 85.030068 232.068923 
L 85.030068 231.951573 
L 85.751697 231.951573 
L 85.751697 231.474433 
L 86.473327 231.474433 
L 86.473327 231.140784 
L 87.194956 231.140784 
L 87.194956 230.649711 
L 87.916586 230.649711 
L 87.916586 230.379622 
L 88.638215 230.379622 
L 88.638215 230.186892 
L 89.359845 230.186892 
L 89.359845 229.544664 
L 90.081474 229.544664 
L 90.081474 229.312601 
L 90.803104 229.312601 
L 90.803104 229.164433 
L 91.524733 229.164433 
L 91.524733 228.580499 
L 92.246363 228.580499 
L 92.246363 228.459694 
L 92.967992 228.459694 
L 92.967992 228.316939 
L 93.689622 228.316939 
L 93.689622 227.997262 
L 94.411251 227.997262 
L 94.411251 227.842992 
L 95.85451 227.737326 
L 95.85451 227.622266 
L 96.57614 227.622266 
L 96.57614 227.458519 
L 97.297769 227.458519 
L 97.297769 227.757747 
L 100.184287 227.825495 
L 100.184287 228.092502 
L 100.905917 228.092502 
L 100.905917 228.504974 
L 101.627546 228.504974 
L 101.627546 228.807259 
L 103.070805 228.892666 
L 103.070805 229.373407 
L 103.792435 229.373407 
L 103.792435 229.75488 
L 104.514064 229.75488 
L 104.514064 230.363554 
L 105.235694 230.363554 
L 105.235694 230.531676 
L 105.957323 230.531676 
L 105.957323 231.098935 
L 106.678952 231.098935 
L 106.678952 231.49054 
L 107.400582 231.49054 
L 107.400582 232.072266 
L 108.122211 232.072266 
L 108.122211 232.567926 
L 108.843841 232.567926 
L 108.843841 233.0359 
L 109.56547 233.0359 
L 109.56547 233.281219 
L 110.2871 233.281219 
L 110.2871 233.877969 
L 111.008729 233.877969 
L 111.008729 234.294812 
L 111.730359 234.294812 
L 111.730359 234.68434 
L 112.451988 234.68434 
L 112.451988 235.145611 
L 113.173618 235.145611 
L 113.173618 235.624837 
L 113.895247 235.624837 
L 113.895247 235.959536 
L 114.616877 235.959536 
L 114.616877 236.168267 
L 115.338506 236.168267 
L 115.338506 236.511606 
L 116.060136 236.511606 
L 116.060136 236.90693 
L 116.781765 236.90693 
L 116.781765 237.159342 
L 117.503395 237.159342 
L 117.503395 237.545103 
L 118.225024 237.545103 
L 118.225024 237.407011 
L 118.946654 237.407011 
L 118.946654 237.800559 
L 119.668283 237.800559 
L 119.668283 238.087516 
L 122.554801 238.018255 
L 122.554801 238.535935 
L 126.162949 238.495075 
L 126.162949 238.668041 
L 126.884578 238.668041 
L 126.884578 238.535658 
L 130.492726 238.57543 
L 130.492726 238.388284 
L 131.935984 238.436135 
L 131.935984 238.241196 
L 134.100873 238.300532 
L 134.100873 238.005506 
L 136.265761 238.095417 
L 136.265761 238.156951 
L 136.987391 238.156951 
L 136.987391 237.723044 
L 137.70902 237.723044 
L 137.70902 237.857831 
L 139.873909 237.768201 
L 139.873909 237.623819 
L 142.038797 237.58742 
L 142.038797 237.448697 
L 144.203686 237.361337 
L 144.203686 237.16352 
L 146.368574 237.077338 
L 146.368574 237.303701 
L 147.090204 237.303701 
L 147.090204 237.078866 
L 148.533463 237.000738 
L 148.533463 236.916737 
L 149.976722 236.90407 
L 149.976722 236.791824 
L 150.698351 236.791824 
L 150.698351 236.641633 
L 152.14161 236.731189 
L 152.14161 236.439434 
L 152.86324 236.439434 
L 152.86324 236.77004 
L 153.584869 236.77004 
L 153.584869 236.35268 
L 154.306499 236.35268 
L 154.306499 236.566046 
L 155.028128 236.566046 
L 155.028128 236.371614 
L 155.749758 236.371614 
L 155.749758 236.110765 
L 157.193016 236.195324 
L 157.193016 235.897773 
L 157.914646 235.897773 
L 157.914646 236.200248 
L 158.636275 236.200248 
L 158.636275 235.810948 
L 160.801164 235.751331 
L 160.801164 235.433092 
L 162.966052 235.372387 
L 162.966052 235.248766 
L 163.687682 235.248766 
L 163.687682 235.073497 
L 164.409311 235.073497 
L 164.409311 234.877838 
L 165.85257 234.931808 
L 165.85257 234.650531 
L 166.5742 234.650531 
L 166.5742 234.286861 
L 167.295829 234.286861 
L 167.295829 234.04561 
L 169.460718 233.982303 
L 169.460718 233.664681 
L 170.182347 233.664681 
L 170.182347 233.504875 
L 170.903977 233.504875 
L 170.903977 233.173608 
L 172.347236 233.127962 
L 172.347236 233.000406 
L 173.068865 233.000406 
L 173.068865 232.785612 
L 173.790495 232.785612 
L 173.790495 232.209909 
L 175.233754 232.105564 
L 175.233754 232.096859 
L 175.955383 232.096859 
L 175.955383 231.704101 
L 176.677013 231.704101 
L 176.677013 231.929213 
L 177.398642 231.929213 
L 177.398642 231.303984 
L 178.120272 231.303984 
L 178.120272 231.176344 
L 179.563531 231.131669 
L 179.563531 231.0435 
L 180.28516 231.0435 
L 180.28516 231.281488 
L 181.00679 231.281488 
L 181.00679 230.428951 
L 181.728419 230.428951 
L 181.728419 230.591202 
L 182.450048 230.591202 
L 182.450048 230.462155 
L 183.893307 230.451541 
L 183.893307 230.840521 
L 184.614937 230.840521 
L 184.614937 230.159663 
L 185.336566 230.159663 
L 185.336566 230.275666 
L 186.779825 230.308849 
L 186.779825 230.775255 
L 190.387973 230.82392 
L 190.387973 231.172836 
L 191.831232 231.214516 
L 191.831232 231.765662 
L 193.274491 231.678067 
L 193.274491 231.991609 
L 193.99612 231.991609 
L 193.99612 232.635521 
L 195.439379 232.598181 
L 195.439379 233.297687 
L 196.161009 233.297687 
L 196.161009 233.467554 
L 196.882638 233.467554 
L 196.882638 233.948501 
L 197.604268 233.948501 
L 197.604268 234.140719 
L 198.325897 234.140719 
L 198.325897 234.471605 
L 199.047527 234.471605 
L 199.047527 235.119016 
L 199.769156 235.119016 
L 199.769156 235.410182 
L 200.490786 235.410182 
L 200.490786 235.719952 
L 201.212415 235.719952 
L 201.212415 235.93205 
L 201.934045 235.93205 
L 201.934045 236.582826 
L 202.655674 236.582826 
L 202.655674 237.174289 
L 204.098933 237.252091 
L 204.098933 237.677982 
L 204.820563 237.677982 
L 204.820563 237.865654 
L 205.542192 237.865654 
L 205.542192 238.369754 
L 206.263822 238.369754 
L 206.263822 238.595729 
L 206.985451 238.595729 
L 206.985451 238.794736 
L 207.707081 238.794736 
L 207.707081 239.091281 
L 208.42871 239.091281 
L 208.42871 239.269239 
L 209.150339 239.269239 
L 209.150339 239.702137 
L 210.593598 239.781103 
L 210.593598 239.959607 
L 211.315228 239.959607 
L 211.315228 240.138728 
L 212.036857 240.138728 
L 212.036857 240.257502 
L 212.758487 240.257502 
L 212.758487 240.402744 
L 214.201746 240.454672 
L 214.201746 240.638973 
L 215.645005 240.640548 
L 215.645005 240.800552 
L 217.809893 240.770543 
L 217.809893 240.917169 
L 219.253152 240.931342 
L 219.253152 241.035849 
L 225.747818 241.078894 
L 225.747818 241.17284 
L 234.407371 241.269086 
L 234.407371 241.365561 
L 238.015519 241.442217 
L 238.015519 241.497734 
L 244.510184 241.60811 
L 244.510184 241.640777 
L 370.795344 241.679808 
L 370.795344 241.6784 
" style="fill:none;stroke:#2ca02c;stroke-linecap:square;stroke-width:1.5;"/>
   </g>
   <g id="patch_3">
    <path d="M 54 252 
L 54 34.56 
" style="fill:none;stroke:#000000;stroke-linecap:square;stroke-linejoin:miter;stroke-width:0.8;"/>
   </g>
   <g id="patch_4">
    <path d="M 388.8 252 
L 388.8 34.56 
" style="fill:none;stroke:#000000;stroke-linecap:square;stroke-linejoin:miter;stroke-width:0.8;"/>
   </g>
   <g id="patch_5">
    <path d="M 54 252 
L 388.8 252 
" style="fill:none;stroke:#000000;stroke-linecap:square;stroke-linejoin:miter;stroke-width:0.8;"/>
   </g>
   <g id="patch_6">
    <path d="M 54 34.56 
L 388.8 34.56 
" style="fill:none;stroke:#000000;stroke-linecap:square;stroke-linejoin:miter;stroke-width:0.8;"/>
   </g>
   <g id="legend_1">
    <g id="patch_7">
     <path d="M 332.254688 86.594375 
L 381.8 86.594375 
Q 383.8 86.594375 383.8 84.594375 
L 383.8 41.56 
Q 383.8 39.56 381.8 39.56 
L 332.254688 39.56 
Q 330.254688 39.56 330.254688 41.56 
L 330.254688 84.594375 
Q 330.254688 86.594375 332.254688 86.594375 
z
" style="fill:#ffffff;opacity:0.8;stroke:#cccccc;stroke-linejoin:miter;"/>
    </g>
    <g id="line2d_19">
     <path d="M 334.254688 47.658438 
L 354.254688 47.658438 
" style="fill:none;stroke:#1f77b4;stroke-linecap:square;stroke-width:1.5;"/>
    </g>
    <g id="line2d_20"/>
    <g id="text_14">
     <!-- vac -->
     <defs>
      <path d="M 2.984375 54.6875 
L 12.5 54.6875 
L 29.59375 8.796875 
L 46.6875 54.6875 
L 56.203125 54.6875 
L 35.6875 0 
L 23.484375 0 
z
" id="DejaVuSans-76"/>
      <path d="M 34.28125 27.484375 
Q 23.390625 27.484375 19.1875 25 
Q 14.984375 22.515625 14.984375 16.5 
Q 14.984375 11.71875 18.140625 8.90625 
Q 21.296875 6.109375 26.703125 6.109375 
Q 34.1875 6.109375 38.703125 11.40625 
Q 43.21875 16.703125 43.21875 25.484375 
L 43.21875 27.484375 
z
M 52.203125 31.203125 
L 52.203125 0 
L 43.21875 0 
L 43.21875 8.296875 
Q 40.140625 3.328125 35.546875 0.953125 
Q 30.953125 -1.421875 24.3125 -1.421875 
Q 15.921875 -1.421875 10.953125 3.296875 
Q 6 8.015625 6 15.921875 
Q 6 25.140625 12.171875 29.828125 
Q 18.359375 34.515625 30.609375 34.515625 
L 43.21875 34.515625 
L 43.21875 35.40625 
Q 43.21875 41.609375 39.140625 45 
Q 35.0625 48.390625 27.6875 48.390625 
Q 23 48.390625 18.546875 47.265625 
Q 14.109375 46.140625 10.015625 43.890625 
L 10.015625 52.203125 
Q 14.9375 54.109375 19.578125 55.046875 
Q 24.21875 56 28.609375 56 
Q 40.484375 56 46.34375 49.84375 
Q 52.203125 43.703125 52.203125 31.203125 
z
" id="DejaVuSans-61"/>
      <path d="M 48.78125 52.59375 
L 48.78125 44.1875 
Q 44.96875 46.296875 41.140625 47.34375 
Q 37.3125 48.390625 33.40625 48.390625 
Q 24.65625 48.390625 19.8125 42.84375 
Q 14.984375 37.3125 14.984375 27.296875 
Q 14.984375 17.28125 19.8125 11.734375 
Q 24.65625 6.203125 33.40625 6.203125 
Q 37.3125 6.203125 41.140625 7.25 
Q 44.96875 8.296875 48.78125 10.40625 
L 48.78125 2.09375 
Q 45.015625 0.34375 40.984375 -0.53125 
Q 36.96875 -1.421875 32.421875 -1.421875 
Q 20.0625 -1.421875 12.78125 6.34375 
Q 5.515625 14.109375 5.515625 27.296875 
Q 5.515625 40.671875 12.859375 48.328125 
Q 20.21875 56 33.015625 56 
Q 37.15625 56 41.109375 55.140625 
Q 45.0625 54.296875 48.78125 52.59375 
z
" id="DejaVuSans-63"/>
     </defs>
     <g transform="translate(362.254688 51.158438)scale(0.1 -0.1)">
      <use xlink:href="#DejaVuSans-76"/>
      <use x="59.179688" xlink:href="#DejaVuSans-61"/>
      <use x="120.458984" xlink:href="#DejaVuSans-63"/>
     </g>
    </g>
    <g id="line2d_21">
     <path d="M 334.254688 62.336563 
L 354.254688 62.336563 
" style="fill:none;stroke:#ff7f0e;stroke-linecap:square;stroke-width:1.5;"/>
    </g>
    <g id="line2d_22"/>
    <g id="text_15">
     <!-- al -->
     <defs>
      <path d="M 9.421875 75.984375 
L 18.40625 75.984375 
L 18.40625 0 
L 9.421875 0 
z
" id="DejaVuSans-6c"/>
     </defs>
     <g transform="translate(362.254688 65.836563)scale(0.1 -0.1)">
      <use xlink:href="#DejaVuSans-61"/>
      <use x="61.279297" xlink:href="#DejaVuSans-6c"/>
     </g>
    </g>
    <g id="line2d_23">
     <path d="M 334.254688 77.014688 
L 354.254688 77.014688 
" style="fill:none;stroke:#2ca02c;stroke-linecap:square;stroke-width:1.5;"/>
    </g>
    <g id="line2d_24"/>
    <g id="text_16">
     <!-- sn -->
     <g transform="translate(362.254688 80.514688)scale(0.1 -0.1)">
      <use xlink:href="#DejaVuSans-73"/>
      <use x="52.099609" xlink:href="#DejaVuSans-6e"/>
     </g>
    </g>
   </g>
  </g>
 </g>
 <defs>
  <clipPath id="p61e5edd75c">
   <rect height="217.44" width="334.8" x="54" y="34.56"/>
  </clipPath>
 </defs>
</svg>
