<?xml version="1.0" encoding="utf-8" standalone="no"?>
<!DOCTYPE svg PUBLIC "-//W3C//DTD SVG 1.1//EN"
  "http://www.w3.org/Graphics/SVG/1.1/DTD/svg11.dtd">
<!-- Created with matplotlib (http://matplotlib.org/) -->
<svg height="288pt" version="1.1" viewBox="0 0 432 288" width="432pt" xmlns="http://www.w3.org/2000/svg" xmlns:xlink="http://www.w3.org/1999/xlink">
 <defs>
  <style type="text/css">
*{stroke-linecap:butt;stroke-linejoin:round;}
  </style>
 </defs>
 <g id="figure_1">
  <g id="patch_1">
   <path d="M 0 288 
L 432 288 
L 432 0 
L 0 0 
z
" style="fill:#ffffff;"/>
  </g>
  <g id="axes_1">
   <g id="patch_2">
    <path d="M 54 252 
L 388.8 252 
L 388.8 34.56 
L 54 34.56 
z
" style="fill:#ffffff;"/>
   </g>
   <g id="matplotlib.axis_1">
    <g id="xtick_1">
     <g id="line2d_1">
      <defs>
       <path d="M 0 0 
L 0 3.5 
" id="me9ac30369a" style="stroke:#000000;stroke-width:0.8;"/>
      </defs>
      <g>
       <use style="stroke:#000000;stroke-width:0.8;" x="82.865179" xlink:href="#me9ac30369a" y="252"/>
      </g>
     </g>
     <g id="text_1">
      <!-- 20 -->
      <defs>
       <path d="M 19.1875 8.296875 
L 53.609375 8.296875 
L 53.609375 0 
L 7.328125 0 
L 7.328125 8.296875 
Q 12.9375 14.109375 22.625 23.890625 
Q 32.328125 33.6875 34.8125 36.53125 
Q 39.546875 41.84375 41.421875 45.53125 
Q 43.3125 49.21875 43.3125 52.78125 
Q 43.3125 58.59375 39.234375 62.25 
Q 35.15625 65.921875 28.609375 65.921875 
Q 23.96875 65.921875 18.8125 64.3125 
Q 13.671875 62.703125 7.8125 59.421875 
L 7.8125 69.390625 
Q 13.765625 71.78125 18.9375 73 
Q 24.125 74.21875 28.421875 74.21875 
Q 39.75 74.21875 46.484375 68.546875 
Q 53.21875 62.890625 53.21875 53.421875 
Q 53.21875 48.921875 51.53125 44.890625 
Q 49.859375 40.875 45.40625 35.40625 
Q 44.1875 33.984375 37.640625 27.21875 
Q 31.109375 20.453125 19.1875 8.296875 
z
" id="DejaVuSans-32"/>
       <path d="M 31.78125 66.40625 
Q 24.171875 66.40625 20.328125 58.90625 
Q 16.5 51.421875 16.5 36.375 
Q 16.5 21.390625 20.328125 13.890625 
Q 24.171875 6.390625 31.78125 6.390625 
Q 39.453125 6.390625 43.28125 13.890625 
Q 47.125 21.390625 47.125 36.375 
Q 47.125 51.421875 43.28125 58.90625 
Q 39.453125 66.40625 31.78125 66.40625 
z
M 31.78125 74.21875 
Q 44.046875 74.21875 50.515625 64.515625 
Q 56.984375 54.828125 56.984375 36.375 
Q 56.984375 17.96875 50.515625 8.265625 
Q 44.046875 -1.421875 31.78125 -1.421875 
Q 19.53125 -1.421875 13.0625 8.265625 
Q 6.59375 17.96875 6.59375 36.375 
Q 6.59375 54.828125 13.0625 64.515625 
Q 19.53125 74.21875 31.78125 74.21875 
z
" id="DejaVuSans-30"/>
      </defs>
      <g transform="translate(76.502679 266.598437)scale(0.1 -0.1)">
       <use xlink:href="#DejaVuSans-32"/>
       <use x="63.623047" xlink:href="#DejaVuSans-30"/>
      </g>
     </g>
    </g>
    <g id="xtick_2">
     <g id="line2d_2">
      <g>
       <use style="stroke:#000000;stroke-width:0.8;" x="155.028128" xlink:href="#me9ac30369a" y="252"/>
      </g>
     </g>
     <g id="text_2">
      <!-- 40 -->
      <defs>
       <path d="M 37.796875 64.3125 
L 12.890625 25.390625 
L 37.796875 25.390625 
z
M 35.203125 72.90625 
L 47.609375 72.90625 
L 47.609375 25.390625 
L 58.015625 25.390625 
L 58.015625 17.1875 
L 47.609375 17.1875 
L 47.609375 0 
L 37.796875 0 
L 37.796875 17.1875 
L 4.890625 17.1875 
L 4.890625 26.703125 
z
" id="DejaVuSans-34"/>
      </defs>
      <g transform="translate(148.665628 266.598437)scale(0.1 -0.1)">
       <use xlink:href="#DejaVuSans-34"/>
       <use x="63.623047" xlink:href="#DejaVuSans-30"/>
      </g>
     </g>
    </g>
    <g id="xtick_3">
     <g id="line2d_3">
      <g>
       <use style="stroke:#000000;stroke-width:0.8;" x="227.191077" xlink:href="#me9ac30369a" y="252"/>
      </g>
     </g>
     <g id="text_3">
      <!-- 60 -->
      <defs>
       <path d="M 33.015625 40.375 
Q 26.375 40.375 22.484375 35.828125 
Q 18.609375 31.296875 18.609375 23.390625 
Q 18.609375 15.53125 22.484375 10.953125 
Q 26.375 6.390625 33.015625 6.390625 
Q 39.65625 6.390625 43.53125 10.953125 
Q 47.40625 15.53125 47.40625 23.390625 
Q 47.40625 31.296875 43.53125 35.828125 
Q 39.65625 40.375 33.015625 40.375 
z
M 52.59375 71.296875 
L 52.59375 62.3125 
Q 48.875 64.0625 45.09375 64.984375 
Q 41.3125 65.921875 37.59375 65.921875 
Q 27.828125 65.921875 22.671875 59.328125 
Q 17.53125 52.734375 16.796875 39.40625 
Q 19.671875 43.65625 24.015625 45.921875 
Q 28.375 48.1875 33.59375 48.1875 
Q 44.578125 48.1875 50.953125 41.515625 
Q 57.328125 34.859375 57.328125 23.390625 
Q 57.328125 12.15625 50.6875 5.359375 
Q 44.046875 -1.421875 33.015625 -1.421875 
Q 20.359375 -1.421875 13.671875 8.265625 
Q 6.984375 17.96875 6.984375 36.375 
Q 6.984375 53.65625 15.1875 63.9375 
Q 23.390625 74.21875 37.203125 74.21875 
Q 40.921875 74.21875 44.703125 73.484375 
Q 48.484375 72.75 52.59375 71.296875 
z
" id="DejaVuSans-36"/>
      </defs>
      <g transform="translate(220.828577 266.598437)scale(0.1 -0.1)">
       <use xlink:href="#DejaVuSans-36"/>
       <use x="63.623047" xlink:href="#DejaVuSans-30"/>
      </g>
     </g>
    </g>
    <g id="xtick_4">
     <g id="line2d_4">
      <g>
       <use style="stroke:#000000;stroke-width:0.8;" x="299.354025" xlink:href="#me9ac30369a" y="252"/>
      </g>
     </g>
     <g id="text_4">
      <!-- 80 -->
      <defs>
       <path d="M 31.78125 34.625 
Q 24.75 34.625 20.71875 30.859375 
Q 16.703125 27.09375 16.703125 20.515625 
Q 16.703125 13.921875 20.71875 10.15625 
Q 24.75 6.390625 31.78125 6.390625 
Q 38.8125 6.390625 42.859375 10.171875 
Q 46.921875 13.96875 46.921875 20.515625 
Q 46.921875 27.09375 42.890625 30.859375 
Q 38.875 34.625 31.78125 34.625 
z
M 21.921875 38.8125 
Q 15.578125 40.375 12.03125 44.71875 
Q 8.5 49.078125 8.5 55.328125 
Q 8.5 64.0625 14.71875 69.140625 
Q 20.953125 74.21875 31.78125 74.21875 
Q 42.671875 74.21875 48.875 69.140625 
Q 55.078125 64.0625 55.078125 55.328125 
Q 55.078125 49.078125 51.53125 44.71875 
Q 48 40.375 41.703125 38.8125 
Q 48.828125 37.15625 52.796875 32.3125 
Q 56.78125 27.484375 56.78125 20.515625 
Q 56.78125 9.90625 50.3125 4.234375 
Q 43.84375 -1.421875 31.78125 -1.421875 
Q 19.734375 -1.421875 13.25 4.234375 
Q 6.78125 9.90625 6.78125 20.515625 
Q 6.78125 27.484375 10.78125 32.3125 
Q 14.796875 37.15625 21.921875 38.8125 
z
M 18.3125 54.390625 
Q 18.3125 48.734375 21.84375 45.5625 
Q 25.390625 42.390625 31.78125 42.390625 
Q 38.140625 42.390625 41.71875 45.5625 
Q 45.3125 48.734375 45.3125 54.390625 
Q 45.3125 60.0625 41.71875 63.234375 
Q 38.140625 66.40625 31.78125 66.40625 
Q 25.390625 66.40625 21.84375 63.234375 
Q 18.3125 60.0625 18.3125 54.390625 
z
" id="DejaVuSans-38"/>
      </defs>
      <g transform="translate(292.991525 266.598437)scale(0.1 -0.1)">
       <use xlink:href="#DejaVuSans-38"/>
       <use x="63.623047" xlink:href="#DejaVuSans-30"/>
      </g>
     </g>
    </g>
    <g id="xtick_5">
     <g id="line2d_5">
      <g>
       <use style="stroke:#000000;stroke-width:0.8;" x="371.516974" xlink:href="#me9ac30369a" y="252"/>
      </g>
     </g>
     <g id="text_5">
      <!-- 100 -->
      <defs>
       <path d="M 12.40625 8.296875 
L 28.515625 8.296875 
L 28.515625 63.921875 
L 10.984375 60.40625 
L 10.984375 69.390625 
L 28.421875 72.90625 
L 38.28125 72.90625 
L 38.28125 8.296875 
L 54.390625 8.296875 
L 54.390625 0 
L 12.40625 0 
z
" id="DejaVuSans-31"/>
      </defs>
      <g transform="translate(361.973224 266.598437)scale(0.1 -0.1)">
       <use xlink:href="#DejaVuSans-31"/>
       <use x="63.623047" xlink:href="#DejaVuSans-30"/>
       <use x="127.246094" xlink:href="#DejaVuSans-30"/>
      </g>
     </g>
    </g>
    <g id="text_6">
     <!-- Deposited energy (keV) -->
     <defs>
      <path d="M 19.671875 64.796875 
L 19.671875 8.109375 
L 31.59375 8.109375 
Q 46.6875 8.109375 53.6875 14.9375 
Q 60.6875 21.78125 60.6875 36.53125 
Q 60.6875 51.171875 53.6875 57.984375 
Q 46.6875 64.796875 31.59375 64.796875 
z
M 9.8125 72.90625 
L 30.078125 72.90625 
Q 51.265625 72.90625 61.171875 64.09375 
Q 71.09375 55.28125 71.09375 36.53125 
Q 71.09375 17.671875 61.125 8.828125 
Q 51.171875 0 30.078125 0 
L 9.8125 0 
z
" id="DejaVuSans-44"/>
      <path d="M 56.203125 29.59375 
L 56.203125 25.203125 
L 14.890625 25.203125 
Q 15.484375 15.921875 20.484375 11.0625 
Q 25.484375 6.203125 34.421875 6.203125 
Q 39.59375 6.203125 44.453125 7.46875 
Q 49.3125 8.734375 54.109375 11.28125 
L 54.109375 2.78125 
Q 49.265625 0.734375 44.1875 -0.34375 
Q 39.109375 -1.421875 33.890625 -1.421875 
Q 20.796875 -1.421875 13.15625 6.1875 
Q 5.515625 13.8125 5.515625 26.8125 
Q 5.515625 40.234375 12.765625 48.109375 
Q 20.015625 56 32.328125 56 
Q 43.359375 56 49.78125 48.890625 
Q 56.203125 41.796875 56.203125 29.59375 
z
M 47.21875 32.234375 
Q 47.125 39.59375 43.09375 43.984375 
Q 39.0625 48.390625 32.421875 48.390625 
Q 24.90625 48.390625 20.390625 44.140625 
Q 15.875 39.890625 15.1875 32.171875 
z
" id="DejaVuSans-65"/>
      <path d="M 18.109375 8.203125 
L 18.109375 -20.796875 
L 9.078125 -20.796875 
L 9.078125 54.6875 
L 18.109375 54.6875 
L 18.109375 46.390625 
Q 20.953125 51.265625 25.265625 53.625 
Q 29.59375 56 35.59375 56 
Q 45.5625 56 51.78125 48.09375 
Q 58.015625 40.1875 58.015625 27.296875 
Q 58.015625 14.40625 51.78125 6.484375 
Q 45.5625 -1.421875 35.59375 -1.421875 
Q 29.59375 -1.421875 25.265625 0.953125 
Q 20.953125 3.328125 18.109375 8.203125 
z
M 48.6875 27.296875 
Q 48.6875 37.203125 44.609375 42.84375 
Q 40.53125 48.484375 33.40625 48.484375 
Q 26.265625 48.484375 22.1875 42.84375 
Q 18.109375 37.203125 18.109375 27.296875 
Q 18.109375 17.390625 22.1875 11.75 
Q 26.265625 6.109375 33.40625 6.109375 
Q 40.53125 6.109375 44.609375 11.75 
Q 48.6875 17.390625 48.6875 27.296875 
z
" id="DejaVuSans-70"/>
      <path d="M 30.609375 48.390625 
Q 23.390625 48.390625 19.1875 42.75 
Q 14.984375 37.109375 14.984375 27.296875 
Q 14.984375 17.484375 19.15625 11.84375 
Q 23.34375 6.203125 30.609375 6.203125 
Q 37.796875 6.203125 41.984375 11.859375 
Q 46.1875 17.53125 46.1875 27.296875 
Q 46.1875 37.015625 41.984375 42.703125 
Q 37.796875 48.390625 30.609375 48.390625 
z
M 30.609375 56 
Q 42.328125 56 49.015625 48.375 
Q 55.71875 40.765625 55.71875 27.296875 
Q 55.71875 13.875 49.015625 6.21875 
Q 42.328125 -1.421875 30.609375 -1.421875 
Q 18.84375 -1.421875 12.171875 6.21875 
Q 5.515625 13.875 5.515625 27.296875 
Q 5.515625 40.765625 12.171875 48.375 
Q 18.84375 56 30.609375 56 
z
" id="DejaVuSans-6f"/>
      <path d="M 44.28125 53.078125 
L 44.28125 44.578125 
Q 40.484375 46.53125 36.375 47.5 
Q 32.28125 48.484375 27.875 48.484375 
Q 21.1875 48.484375 17.84375 46.4375 
Q 14.5 44.390625 14.5 40.28125 
Q 14.5 37.15625 16.890625 35.375 
Q 19.28125 33.59375 26.515625 31.984375 
L 29.59375 31.296875 
Q 39.15625 29.25 43.1875 25.515625 
Q 47.21875 21.78125 47.21875 15.09375 
Q 47.21875 7.46875 41.1875 3.015625 
Q 35.15625 -1.421875 24.609375 -1.421875 
Q 20.21875 -1.421875 15.453125 -0.5625 
Q 10.6875 0.296875 5.421875 2 
L 5.421875 11.28125 
Q 10.40625 8.6875 15.234375 7.390625 
Q 20.0625 6.109375 24.8125 6.109375 
Q 31.15625 6.109375 34.5625 8.28125 
Q 37.984375 10.453125 37.984375 14.40625 
Q 37.984375 18.0625 35.515625 20.015625 
Q 33.0625 21.96875 24.703125 23.78125 
L 21.578125 24.515625 
Q 13.234375 26.265625 9.515625 29.90625 
Q 5.8125 33.546875 5.8125 39.890625 
Q 5.8125 47.609375 11.28125 51.796875 
Q 16.75 56 26.8125 56 
Q 31.78125 56 36.171875 55.265625 
Q 40.578125 54.546875 44.28125 53.078125 
z
" id="DejaVuSans-73"/>
      <path d="M 9.421875 54.6875 
L 18.40625 54.6875 
L 18.40625 0 
L 9.421875 0 
z
M 9.421875 75.984375 
L 18.40625 75.984375 
L 18.40625 64.59375 
L 9.421875 64.59375 
z
" id="DejaVuSans-69"/>
      <path d="M 18.3125 70.21875 
L 18.3125 54.6875 
L 36.8125 54.6875 
L 36.8125 47.703125 
L 18.3125 47.703125 
L 18.3125 18.015625 
Q 18.3125 11.328125 20.140625 9.421875 
Q 21.96875 7.515625 27.59375 7.515625 
L 36.8125 7.515625 
L 36.8125 0 
L 27.59375 0 
Q 17.1875 0 13.234375 3.875 
Q 9.28125 7.765625 9.28125 18.015625 
L 9.28125 47.703125 
L 2.6875 47.703125 
L 2.6875 54.6875 
L 9.28125 54.6875 
L 9.28125 70.21875 
z
" id="DejaVuSans-74"/>
      <path d="M 45.40625 46.390625 
L 45.40625 75.984375 
L 54.390625 75.984375 
L 54.390625 0 
L 45.40625 0 
L 45.40625 8.203125 
Q 42.578125 3.328125 38.25 0.953125 
Q 33.9375 -1.421875 27.875 -1.421875 
Q 17.96875 -1.421875 11.734375 6.484375 
Q 5.515625 14.40625 5.515625 27.296875 
Q 5.515625 40.1875 11.734375 48.09375 
Q 17.96875 56 27.875 56 
Q 33.9375 56 38.25 53.625 
Q 42.578125 51.265625 45.40625 46.390625 
z
M 14.796875 27.296875 
Q 14.796875 17.390625 18.875 11.75 
Q 22.953125 6.109375 30.078125 6.109375 
Q 37.203125 6.109375 41.296875 11.75 
Q 45.40625 17.390625 45.40625 27.296875 
Q 45.40625 37.203125 41.296875 42.84375 
Q 37.203125 48.484375 30.078125 48.484375 
Q 22.953125 48.484375 18.875 42.84375 
Q 14.796875 37.203125 14.796875 27.296875 
z
" id="DejaVuSans-64"/>
      <path id="DejaVuSans-20"/>
      <path d="M 54.890625 33.015625 
L 54.890625 0 
L 45.90625 0 
L 45.90625 32.71875 
Q 45.90625 40.484375 42.875 44.328125 
Q 39.84375 48.1875 33.796875 48.1875 
Q 26.515625 48.1875 22.3125 43.546875 
Q 18.109375 38.921875 18.109375 30.90625 
L 18.109375 0 
L 9.078125 0 
L 9.078125 54.6875 
L 18.109375 54.6875 
L 18.109375 46.1875 
Q 21.34375 51.125 25.703125 53.5625 
Q 30.078125 56 35.796875 56 
Q 45.21875 56 50.046875 50.171875 
Q 54.890625 44.34375 54.890625 33.015625 
z
" id="DejaVuSans-6e"/>
      <path d="M 41.109375 46.296875 
Q 39.59375 47.171875 37.8125 47.578125 
Q 36.03125 48 33.890625 48 
Q 26.265625 48 22.1875 43.046875 
Q 18.109375 38.09375 18.109375 28.8125 
L 18.109375 0 
L 9.078125 0 
L 9.078125 54.6875 
L 18.109375 54.6875 
L 18.109375 46.1875 
Q 20.953125 51.171875 25.484375 53.578125 
Q 30.03125 56 36.53125 56 
Q 37.453125 56 38.578125 55.875 
Q 39.703125 55.765625 41.0625 55.515625 
z
" id="DejaVuSans-72"/>
      <path d="M 45.40625 27.984375 
Q 45.40625 37.75 41.375 43.109375 
Q 37.359375 48.484375 30.078125 48.484375 
Q 22.859375 48.484375 18.828125 43.109375 
Q 14.796875 37.75 14.796875 27.984375 
Q 14.796875 18.265625 18.828125 12.890625 
Q 22.859375 7.515625 30.078125 7.515625 
Q 37.359375 7.515625 41.375 12.890625 
Q 45.40625 18.265625 45.40625 27.984375 
z
M 54.390625 6.78125 
Q 54.390625 -7.171875 48.1875 -13.984375 
Q 42 -20.796875 29.203125 -20.796875 
Q 24.46875 -20.796875 20.265625 -20.09375 
Q 16.0625 -19.390625 12.109375 -17.921875 
L 12.109375 -9.1875 
Q 16.0625 -11.328125 19.921875 -12.34375 
Q 23.78125 -13.375 27.78125 -13.375 
Q 36.625 -13.375 41.015625 -8.765625 
Q 45.40625 -4.15625 45.40625 5.171875 
L 45.40625 9.625 
Q 42.625 4.78125 38.28125 2.390625 
Q 33.9375 0 27.875 0 
Q 17.828125 0 11.671875 7.65625 
Q 5.515625 15.328125 5.515625 27.984375 
Q 5.515625 40.671875 11.671875 48.328125 
Q 17.828125 56 27.875 56 
Q 33.9375 56 38.28125 53.609375 
Q 42.625 51.21875 45.40625 46.390625 
L 45.40625 54.6875 
L 54.390625 54.6875 
z
" id="DejaVuSans-67"/>
      <path d="M 32.171875 -5.078125 
Q 28.375 -14.84375 24.75 -17.8125 
Q 21.140625 -20.796875 15.09375 -20.796875 
L 7.90625 -20.796875 
L 7.90625 -13.28125 
L 13.1875 -13.28125 
Q 16.890625 -13.28125 18.9375 -11.515625 
Q 21 -9.765625 23.484375 -3.21875 
L 25.09375 0.875 
L 2.984375 54.6875 
L 12.5 54.6875 
L 29.59375 11.921875 
L 46.6875 54.6875 
L 56.203125 54.6875 
z
" id="DejaVuSans-79"/>
      <path d="M 31 75.875 
Q 24.46875 64.65625 21.28125 53.65625 
Q 18.109375 42.671875 18.109375 31.390625 
Q 18.109375 20.125 21.3125 9.0625 
Q 24.515625 -2 31 -13.1875 
L 23.1875 -13.1875 
Q 15.875 -1.703125 12.234375 9.375 
Q 8.59375 20.453125 8.59375 31.390625 
Q 8.59375 42.28125 12.203125 53.3125 
Q 15.828125 64.359375 23.1875 75.875 
z
" id="DejaVuSans-28"/>
      <path d="M 9.078125 75.984375 
L 18.109375 75.984375 
L 18.109375 31.109375 
L 44.921875 54.6875 
L 56.390625 54.6875 
L 27.390625 29.109375 
L 57.625 0 
L 45.90625 0 
L 18.109375 26.703125 
L 18.109375 0 
L 9.078125 0 
z
" id="DejaVuSans-6b"/>
      <path d="M 28.609375 0 
L 0.78125 72.90625 
L 11.078125 72.90625 
L 34.1875 11.53125 
L 57.328125 72.90625 
L 67.578125 72.90625 
L 39.796875 0 
z
" id="DejaVuSans-56"/>
      <path d="M 8.015625 75.875 
L 15.828125 75.875 
Q 23.140625 64.359375 26.78125 53.3125 
Q 30.421875 42.28125 30.421875 31.390625 
Q 30.421875 20.453125 26.78125 9.375 
Q 23.140625 -1.703125 15.828125 -13.1875 
L 8.015625 -13.1875 
Q 14.5 -2 17.703125 9.0625 
Q 20.90625 20.125 20.90625 31.390625 
Q 20.90625 42.671875 17.703125 53.65625 
Q 14.5 64.65625 8.015625 75.875 
z
" id="DejaVuSans-29"/>
     </defs>
     <g transform="translate(162.055469 280.276563)scale(0.1 -0.1)">
      <use xlink:href="#DejaVuSans-44"/>
      <use x="77.001953" xlink:href="#DejaVuSans-65"/>
      <use x="138.525391" xlink:href="#DejaVuSans-70"/>
      <use x="202.001953" xlink:href="#DejaVuSans-6f"/>
      <use x="263.183594" xlink:href="#DejaVuSans-73"/>
      <use x="315.283203" xlink:href="#DejaVuSans-69"/>
      <use x="343.066406" xlink:href="#DejaVuSans-74"/>
      <use x="382.275391" xlink:href="#DejaVuSans-65"/>
      <use x="443.798828" xlink:href="#DejaVuSans-64"/>
      <use x="507.275391" xlink:href="#DejaVuSans-20"/>
      <use x="539.0625" xlink:href="#DejaVuSans-65"/>
      <use x="600.585938" xlink:href="#DejaVuSans-6e"/>
      <use x="663.964844" xlink:href="#DejaVuSans-65"/>
      <use x="725.488281" xlink:href="#DejaVuSans-72"/>
      <use x="766.585938" xlink:href="#DejaVuSans-67"/>
      <use x="830.0625" xlink:href="#DejaVuSans-79"/>
      <use x="889.242188" xlink:href="#DejaVuSans-20"/>
      <use x="921.029297" xlink:href="#DejaVuSans-28"/>
      <use x="960.042969" xlink:href="#DejaVuSans-6b"/>
      <use x="1017.90625" xlink:href="#DejaVuSans-65"/>
      <use x="1079.429688" xlink:href="#DejaVuSans-56"/>
      <use x="1147.837891" xlink:href="#DejaVuSans-29"/>
     </g>
    </g>
   </g>
   <g id="matplotlib.axis_2">
    <g id="ytick_1">
     <g id="line2d_6">
      <defs>
       <path d="M 0 0 
L -3.5 0 
" id="me156c06349" style="stroke:#000000;stroke-width:0.8;"/>
      </defs>
      <g>
       <use style="stroke:#000000;stroke-width:0.8;" x="54" xlink:href="#me156c06349" y="241.796708"/>
      </g>
     </g>
     <g id="text_7">
      <!-- 0.0000 -->
      <defs>
       <path d="M 10.6875 12.40625 
L 21 12.40625 
L 21 0 
L 10.6875 0 
z
" id="DejaVuSans-2e"/>
      </defs>
      <g transform="translate(12.009375 245.595927)scale(0.1 -0.1)">
       <use xlink:href="#DejaVuSans-30"/>
       <use x="63.623047" xlink:href="#DejaVuSans-2e"/>
       <use x="95.410156" xlink:href="#DejaVuSans-30"/>
       <use x="159.033203" xlink:href="#DejaVuSans-30"/>
       <use x="222.65625" xlink:href="#DejaVuSans-30"/>
       <use x="286.279297" xlink:href="#DejaVuSans-30"/>
      </g>
     </g>
    </g>
    <g id="ytick_2">
     <g id="line2d_7">
      <g>
       <use style="stroke:#000000;stroke-width:0.8;" x="54" xlink:href="#me156c06349" y="211.25929"/>
      </g>
     </g>
     <g id="text_8">
      <!-- 0.0001 -->
      <g transform="translate(12.009375 215.058508)scale(0.1 -0.1)">
       <use xlink:href="#DejaVuSans-30"/>
       <use x="63.623047" xlink:href="#DejaVuSans-2e"/>
       <use x="95.410156" xlink:href="#DejaVuSans-30"/>
       <use x="159.033203" xlink:href="#DejaVuSans-30"/>
       <use x="222.65625" xlink:href="#DejaVuSans-30"/>
       <use x="286.279297" xlink:href="#DejaVuSans-31"/>
      </g>
     </g>
    </g>
    <g id="ytick_3">
     <g id="line2d_8">
      <g>
       <use style="stroke:#000000;stroke-width:0.8;" x="54" xlink:href="#me156c06349" y="180.721871"/>
      </g>
     </g>
     <g id="text_9">
      <!-- 0.0002 -->
      <g transform="translate(12.009375 184.52109)scale(0.1 -0.1)">
       <use xlink:href="#DejaVuSans-30"/>
       <use x="63.623047" xlink:href="#DejaVuSans-2e"/>
       <use x="95.410156" xlink:href="#DejaVuSans-30"/>
       <use x="159.033203" xlink:href="#DejaVuSans-30"/>
       <use x="222.65625" xlink:href="#DejaVuSans-30"/>
       <use x="286.279297" xlink:href="#DejaVuSans-32"/>
      </g>
     </g>
    </g>
    <g id="ytick_4">
     <g id="line2d_9">
      <g>
       <use style="stroke:#000000;stroke-width:0.8;" x="54" xlink:href="#me156c06349" y="150.184452"/>
      </g>
     </g>
     <g id="text_10">
      <!-- 0.0003 -->
      <defs>
       <path d="M 40.578125 39.3125 
Q 47.65625 37.796875 51.625 33 
Q 55.609375 28.21875 55.609375 21.1875 
Q 55.609375 10.40625 48.1875 4.484375 
Q 40.765625 -1.421875 27.09375 -1.421875 
Q 22.515625 -1.421875 17.65625 -0.515625 
Q 12.796875 0.390625 7.625 2.203125 
L 7.625 11.71875 
Q 11.71875 9.328125 16.59375 8.109375 
Q 21.484375 6.890625 26.8125 6.890625 
Q 36.078125 6.890625 40.9375 10.546875 
Q 45.796875 14.203125 45.796875 21.1875 
Q 45.796875 27.640625 41.28125 31.265625 
Q 36.765625 34.90625 28.71875 34.90625 
L 20.21875 34.90625 
L 20.21875 43.015625 
L 29.109375 43.015625 
Q 36.375 43.015625 40.234375 45.921875 
Q 44.09375 48.828125 44.09375 54.296875 
Q 44.09375 59.90625 40.109375 62.90625 
Q 36.140625 65.921875 28.71875 65.921875 
Q 24.65625 65.921875 20.015625 65.03125 
Q 15.375 64.15625 9.8125 62.3125 
L 9.8125 71.09375 
Q 15.4375 72.65625 20.34375 73.4375 
Q 25.25 74.21875 29.59375 74.21875 
Q 40.828125 74.21875 47.359375 69.109375 
Q 53.90625 64.015625 53.90625 55.328125 
Q 53.90625 49.265625 50.4375 45.09375 
Q 46.96875 40.921875 40.578125 39.3125 
z
" id="DejaVuSans-33"/>
      </defs>
      <g transform="translate(12.009375 153.983671)scale(0.1 -0.1)">
       <use xlink:href="#DejaVuSans-30"/>
       <use x="63.623047" xlink:href="#DejaVuSans-2e"/>
       <use x="95.410156" xlink:href="#DejaVuSans-30"/>
       <use x="159.033203" xlink:href="#DejaVuSans-30"/>
       <use x="222.65625" xlink:href="#DejaVuSans-30"/>
       <use x="286.279297" xlink:href="#DejaVuSans-33"/>
      </g>
     </g>
    </g>
    <g id="ytick_5">
     <g id="line2d_10">
      <g>
       <use style="stroke:#000000;stroke-width:0.8;" x="54" xlink:href="#me156c06349" y="119.647034"/>
      </g>
     </g>
     <g id="text_11">
      <!-- 0.0004 -->
      <g transform="translate(12.009375 123.446252)scale(0.1 -0.1)">
       <use xlink:href="#DejaVuSans-30"/>
       <use x="63.623047" xlink:href="#DejaVuSans-2e"/>
       <use x="95.410156" xlink:href="#DejaVuSans-30"/>
       <use x="159.033203" xlink:href="#DejaVuSans-30"/>
       <use x="222.65625" xlink:href="#DejaVuSans-30"/>
       <use x="286.279297" xlink:href="#DejaVuSans-34"/>
      </g>
     </g>
    </g>
    <g id="ytick_6">
     <g id="line2d_11">
      <g>
       <use style="stroke:#000000;stroke-width:0.8;" x="54" xlink:href="#me156c06349" y="89.109615"/>
      </g>
     </g>
     <g id="text_12">
      <!-- 0.0005 -->
      <defs>
       <path d="M 10.796875 72.90625 
L 49.515625 72.90625 
L 49.515625 64.59375 
L 19.828125 64.59375 
L 19.828125 46.734375 
Q 21.96875 47.46875 24.109375 47.828125 
Q 26.265625 48.1875 28.421875 48.1875 
Q 40.625 48.1875 47.75 41.5 
Q 54.890625 34.8125 54.890625 23.390625 
Q 54.890625 11.625 47.5625 5.09375 
Q 40.234375 -1.421875 26.90625 -1.421875 
Q 22.3125 -1.421875 17.546875 -0.640625 
Q 12.796875 0.140625 7.71875 1.703125 
L 7.71875 11.625 
Q 12.109375 9.234375 16.796875 8.0625 
Q 21.484375 6.890625 26.703125 6.890625 
Q 35.15625 6.890625 40.078125 11.328125 
Q 45.015625 15.765625 45.015625 23.390625 
Q 45.015625 31 40.078125 35.4375 
Q 35.15625 39.890625 26.703125 39.890625 
Q 22.75 39.890625 18.8125 39.015625 
Q 14.890625 38.140625 10.796875 36.28125 
z
" id="DejaVuSans-35"/>
      </defs>
      <g transform="translate(12.009375 92.908834)scale(0.1 -0.1)">
       <use xlink:href="#DejaVuSans-30"/>
       <use x="63.623047" xlink:href="#DejaVuSans-2e"/>
       <use x="95.410156" xlink:href="#DejaVuSans-30"/>
       <use x="159.033203" xlink:href="#DejaVuSans-30"/>
       <use x="222.65625" xlink:href="#DejaVuSans-30"/>
       <use x="286.279297" xlink:href="#DejaVuSans-35"/>
      </g>
     </g>
    </g>
    <g id="ytick_7">
     <g id="line2d_12">
      <g>
       <use style="stroke:#000000;stroke-width:0.8;" x="54" xlink:href="#me156c06349" y="58.572196"/>
      </g>
     </g>
     <g id="text_13">
      <!-- 0.0006 -->
      <g transform="translate(12.009375 62.371415)scale(0.1 -0.1)">
       <use xlink:href="#DejaVuSans-30"/>
       <use x="63.623047" xlink:href="#DejaVuSans-2e"/>
       <use x="95.410156" xlink:href="#DejaVuSans-30"/>
       <use x="159.033203" xlink:href="#DejaVuSans-30"/>
       <use x="222.65625" xlink:href="#DejaVuSans-30"/>
       <use x="286.279297" xlink:href="#DejaVuSans-36"/>
      </g>
     </g>
    </g>
   </g>
   <g id="line2d_13">
    <path clip-path="url(#p8e1564b2b0)" d="M 10.702231 241.839183 
L 11.42386 241.778475 
L 12.14549 241.84505 
L 12.867119 241.74478 
L 13.588749 241.839119 
L 14.310378 241.580489 
L 15.032008 241.666209 
L 15.753637 240.825388 
L 16.475267 241.102869 
L 17.196896 240.942016 
L 17.918526 240.266292 
L 18.640155 238.640253 
L 19.361785 238.32574 
L 20.083414 235.28524 
L 20.805044 231.284126 
L 21.526673 231.593552 
L 22.248303 225.02174 
L 22.969932 227.48347 
L 23.691562 219.244746 
L 24.413191 206.733071 
L 25.134821 201.506997 
L 25.85645 189.291626 
L 26.57808 181.905498 
L 27.299709 163.508672 
L 28.021339 162.342553 
L 28.742968 147.594855 
L 29.464597 140.78947 
L 30.186227 124.306178 
L 30.907856 124.997158 
L 31.629486 117.878706 
L 32.351115 101.864334 
L 33.072745 100.470703 
L 33.794374 96.711641 
L 34.516004 84.3204 
L 35.237633 86.471973 
L 35.959263 74.865697 
L 36.680892 87.87985 
L 37.402522 90.542451 
L 38.124151 79.128688 
L 38.845781 83.932606 
L 39.56741 87.380915 
L 40.28904 93.518638 
L 41.010669 98.559275 
L 41.732299 92.015949 
L 42.453928 95.870126 
L 43.175558 96.505973 
L 43.897187 105.68449 
L 44.618817 97.078883 
L 45.340446 112.773237 
L 46.062076 117.917797 
L 46.783705 106.726008 
L 47.505335 117.648375 
L 48.226964 132.527594 
L 48.948594 138.723558 
L 49.670223 132.834208 
L 50.391853 136.311671 
L 51.113482 138.540816 
L 52.556741 168.189213 
L 53.278371 161.749146 
L 54 166.146485 
L 54.721629 163.86021 
L 55.443259 175.443393 
L 56.164888 169.640342 
L 56.886518 187.630511 
L 57.608147 176.463825 
L 58.329777 177.601975 
L 59.051406 185.705746 
L 59.773036 184.373152 
L 60.494665 177.631696 
L 61.216295 185.586343 
L 61.937924 187.756532 
L 62.659554 179.735313 
L 63.381183 179.89628 
L 64.102813 175.48002 
L 64.824442 173.060454 
L 65.546072 166.685615 
L 66.267701 163.837383 
L 66.989331 157.244837 
L 67.71096 155.236108 
L 68.43259 146.534845 
L 69.154219 135.7565 
L 69.875849 129.969459 
L 70.597478 128.264253 
L 71.319108 101.487391 
L 72.040737 105.16437 
L 72.762367 116.71965 
L 73.483996 90.960692 
L 74.205626 90.460747 
L 74.927255 55.621507 
L 75.648885 60.448635 
L 76.370514 54.75765 
L 77.092144 56.03257 
L 77.813773 54.765313 
L 78.535403 60.29387 
L 79.257032 46.902271 
L 79.978661 68.120604 
L 80.700291 70.87031 
L 81.42192 74.398836 
L 82.14355 67.974599 
L 82.865179 96.877341 
L 83.586809 76.820274 
L 84.308438 68.1312 
L 85.030068 63.713494 
L 85.751697 73.75806 
L 86.473327 65.981598 
L 87.194956 67.343867 
L 87.916586 44.443636 
L 88.638215 58.31131 
L 89.359845 61.150122 
L 90.081474 47.511791 
L 91.524733 83.809765 
L 92.246363 70.71952 
L 93.689622 107.692915 
L 94.411251 108.831243 
L 95.132881 121.098516 
L 95.85451 148.074924 
L 96.57614 153.345868 
L 97.297769 173.376594 
L 98.019399 173.81722 
L 98.741028 190.298548 
L 101.627546 218.564941 
L 102.349176 221.876593 
L 103.070805 222.302237 
L 103.792435 227.933837 
L 104.514064 223.355037 
L 105.235694 221.859688 
L 105.957323 226.706801 
L 106.678952 228.121892 
L 107.400582 229.169576 
L 108.122211 228.589285 
L 108.843841 224.956171 
L 109.56547 231.510462 
L 110.2871 229.303022 
L 111.008729 229.105569 
L 111.730359 230.907038 
L 112.451988 228.759764 
L 113.173618 231.071029 
L 113.895247 231.848336 
L 114.616877 232.385937 
L 115.338506 231.795508 
L 116.060136 230.826128 
L 116.781765 229.1101 
L 117.503395 229.901338 
L 118.225024 231.822967 
L 118.946654 233.364691 
L 119.668283 230.155129 
L 120.389913 227.479304 
L 121.111542 232.112455 
L 121.833172 231.921464 
L 122.554801 234.0774 
L 123.276431 230.313591 
L 123.99806 228.875466 
L 124.71969 230.433829 
L 125.441319 227.086031 
L 126.162949 229.756897 
L 126.884578 232.871275 
L 127.606208 227.663513 
L 128.327837 228.362917 
L 129.049467 229.478094 
L 129.771096 228.820448 
L 130.492726 229.530188 
L 131.214355 231.098053 
L 131.935984 229.812489 
L 132.657614 233.365493 
L 133.379243 233.155373 
L 134.100873 232.142228 
L 134.822502 230.690127 
L 135.544132 228.586811 
L 136.265761 231.731911 
L 136.987391 227.44706 
L 137.70902 229.556675 
L 138.43065 229.209012 
L 139.152279 227.347168 
L 139.873909 230.076204 
L 140.595538 230.193042 
L 141.317168 229.694233 
L 142.038797 230.574303 
L 142.760427 227.503282 
L 143.482056 227.016576 
L 144.203686 229.168118 
L 144.925315 227.955443 
L 145.646945 232.951439 
L 146.368574 228.241377 
L 147.090204 230.564567 
L 147.811833 227.754232 
L 148.533463 227.923558 
L 149.255092 232.482332 
L 149.976722 225.923353 
L 150.698351 230.133925 
L 152.14161 226.029861 
L 152.86324 228.357548 
L 153.584869 224.021228 
L 154.306499 222.973637 
L 155.028128 220.892617 
L 155.749758 227.145704 
L 156.471387 222.031502 
L 157.193016 226.967482 
L 157.914646 224.635868 
L 158.636275 224.527036 
L 159.357905 228.778692 
L 160.079534 225.858254 
L 160.801164 227.906328 
L 161.522793 224.470417 
L 162.244423 225.909331 
L 162.966052 222.938585 
L 163.687682 223.381348 
L 164.409311 221.192175 
L 165.130941 223.249122 
L 165.85257 222.643353 
L 166.5742 220.489832 
L 167.295829 220.119315 
L 168.017459 220.191214 
L 168.739088 218.975336 
L 169.460718 219.6713 
L 170.182347 222.224741 
L 170.903977 219.306336 
L 171.625606 219.485729 
L 172.347236 219.293283 
L 173.068865 218.863935 
L 173.790495 213.79005 
L 174.512124 216.685214 
L 175.233754 211.979652 
L 175.955383 217.89266 
L 176.677013 209.354038 
L 177.398642 216.021202 
L 178.120272 205.225753 
L 178.841901 209.958821 
L 179.563531 206.936947 
L 180.28516 205.765258 
L 181.00679 209.114683 
L 181.728419 204.609189 
L 182.450048 206.966088 
L 183.171678 207.514701 
L 183.893307 202.454337 
L 184.614937 199.37042 
L 185.336566 202.202966 
L 186.058196 199.938137 
L 186.779825 205.04709 
L 187.501455 200.91903 
L 188.223084 211.577236 
L 188.944714 208.792085 
L 189.666343 210.884437 
L 190.387973 209.512935 
L 191.109602 206.108946 
L 191.831232 210.719492 
L 192.552861 209.901182 
L 193.274491 214.293314 
L 193.99612 212.561742 
L 194.71775 215.252757 
L 195.439379 208.34999 
L 196.882638 215.995939 
L 197.604268 224.331133 
L 198.325897 218.037917 
L 199.047527 218.674338 
L 199.769156 225.365119 
L 200.490786 220.416916 
L 201.212415 219.318079 
L 201.934045 222.011104 
L 202.655674 219.31121 
L 203.377304 218.757568 
L 204.098933 220.603821 
L 204.820563 221.696656 
L 205.542192 217.687489 
L 206.263822 216.772981 
L 206.985451 223.346308 
L 207.707081 216.269405 
L 208.42871 220.533399 
L 209.150339 217.342686 
L 209.871969 218.166326 
L 210.593598 209.979284 
L 211.315228 205.770309 
L 212.036857 210.070945 
L 214.201746 191.818177 
L 214.923375 186.21422 
L 215.645005 189.881494 
L 216.366634 163.643814 
L 217.088264 163.890328 
L 217.809893 145.560945 
L 218.531523 130.104477 
L 219.253152 132.400038 
L 220.696411 82.045575 
L 221.418041 96.383322 
L 222.13967 76.439658 
L 222.8613 70.455895 
L 223.582929 59.466896 
L 224.304559 60.1005 
L 225.026188 63.08329 
L 225.747818 69.008571 
L 226.469447 72.729463 
L 227.191077 85.588959 
L 228.634336 122.18025 
L 229.355965 127.587276 
L 230.077595 152.234422 
L 230.799224 172.427861 
L 231.520854 181.636391 
L 233.685742 216.333226 
L 234.407371 226.728709 
L 235.129001 231.966633 
L 235.85063 235.027654 
L 236.57226 239.153573 
L 237.293889 240.163355 
L 238.015519 240.281542 
L 238.737148 241.991662 
L 239.458778 241.61864 
L 242.345296 241.85577 
L 243.066925 241.667346 
L 243.788555 241.829702 
L 244.510184 241.742502 
L 245.231814 241.471445 
L 245.953443 241.68341 
L 246.675073 241.730001 
L 247.396702 241.905965 
L 248.118332 241.664404 
L 248.839961 241.671012 
L 249.561591 241.93994 
L 250.28322 241.683244 
L 252.448109 241.679859 
L 253.169738 241.816114 
L 253.891368 241.655455 
L 256.777886 241.750475 
L 257.499515 241.918781 
L 258.221145 241.969031 
L 258.942774 241.542543 
L 259.664403 241.887899 
L 261.107662 241.855679 
L 264.71581 241.660797 
L 265.437439 241.770589 
L 266.159069 242.010123 
L 266.880698 241.795068 
L 267.602328 241.866032 
L 268.323957 241.541286 
L 269.767216 241.705271 
L 270.488846 241.587509 
L 271.210475 241.874212 
L 271.932105 241.686906 
L 272.653734 241.644115 
L 273.375364 241.910781 
L 274.096993 241.820591 
L 274.818623 241.612177 
L 275.540252 241.619919 
L 276.261882 241.87831 
L 279.1484 241.768205 
L 279.870029 241.620738 
L 280.591659 241.849242 
L 281.313288 241.636991 
L 282.034918 241.906164 
L 284.921435 241.859769 
L 285.643065 241.720128 
L 291.416101 241.908696 
L 292.13773 241.713688 
L 293.580989 241.782799 
L 300.075655 241.738946 
L 300.797284 241.915135 
L 301.518914 241.699792 
L 302.962173 241.83276 
L 304.405432 241.758023 
L 305.127061 241.824422 
L 307.29195 241.746816 
L 308.735209 241.848828 
L 309.456838 241.942662 
L 310.900097 241.719048 
L 318.838021 241.81039 
L 319.559651 241.727322 
L 320.28128 241.858494 
L 321.00291 241.865285 
L 321.724539 241.756972 
L 322.446169 241.890714 
L 323.167798 241.646338 
L 323.889428 241.772509 
L 325.332687 241.710929 
L 326.054316 241.682779 
L 326.775946 241.89101 
L 329.662464 241.81384 
L 336.157129 241.727147 
L 336.878758 241.839321 
L 337.600388 241.727365 
L 338.322017 241.770916 
L 339.043647 241.702482 
L 340.486906 241.891926 
L 341.208535 241.700408 
L 341.930165 241.825513 
L 342.651794 241.699624 
L 344.095053 241.842966 
L 344.816683 241.867898 
L 345.538312 241.712462 
L 346.259942 241.747706 
L 346.981571 241.909144 
L 349.14646 241.739884 
L 349.868089 241.815153 
L 350.589719 241.731711 
L 352.032978 241.902255 
L 352.754607 241.686899 
L 353.476237 241.829142 
L 354.919496 241.687596 
L 356.362755 241.801892 
L 357.084384 241.880161 
L 357.806014 241.665787 
L 361.414161 241.815924 
L 362.13579 241.63403 
L 362.85742 241.961273 
L 365.743938 241.521879 
L 366.465567 241.465683 
L 367.187197 241.764658 
L 367.908826 241.720832 
L 368.630456 241.814176 
L 369.352085 241.475737 
L 370.073715 241.784075 
L 370.795344 241.927342 
L 370.795344 241.927342 
" style="fill:none;stroke:#1f77b4;stroke-dasharray:5.55,2.4;stroke-dashoffset:0;stroke-width:1.5;"/>
   </g>
   <g id="line2d_14">
    <path clip-path="url(#p8e1564b2b0)" d="M 54 142.799644 
L 54.721629 142.799644 
L 54.721629 145.49613 
L 55.443259 145.49613 
L 55.443259 147.209196 
L 56.164888 147.209196 
L 56.164888 149.365447 
L 56.886518 149.365447 
L 56.886518 149.958606 
L 57.608147 149.958606 
L 57.608147 150.540171 
L 58.329777 150.540171 
L 58.329777 150.880466 
L 59.051406 150.880466 
L 59.051406 151.65545 
L 59.773036 151.65545 
L 59.773036 152.381163 
L 60.494665 152.381163 
L 60.494665 151.761043 
L 61.216295 151.761043 
L 61.216295 152.139614 
L 61.937924 152.139614 
L 61.937924 151.086413 
L 62.659554 151.086413 
L 62.659554 150.903515 
L 63.381183 150.903515 
L 63.381183 149.412962 
L 64.102813 149.412962 
L 64.102813 148.557167 
L 64.824442 148.557167 
L 64.824442 146.332964 
L 65.546072 146.332964 
L 65.546072 144.576096 
L 66.267701 144.576096 
L 66.267701 142.478702 
L 66.989331 142.478702 
L 66.989331 140.588038 
L 67.71096 140.588038 
L 67.71096 138.650452 
L 68.43259 138.650452 
L 68.43259 136.165081 
L 69.154219 136.165081 
L 69.154219 133.29916 
L 69.875849 133.29916 
L 69.875849 130.25458 
L 70.597478 130.25458 
L 70.597478 127.483079 
L 71.319108 127.483079 
L 71.319108 124.01964 
L 72.040737 124.01964 
L 72.040737 120.396959 
L 72.762367 120.396959 
L 72.762367 116.79504 
L 73.483996 116.79504 
L 73.483996 113.685104 
L 74.205626 113.685104 
L 74.205626 109.148124 
L 74.927255 109.148124 
L 74.927255 106.276564 
L 75.648885 106.276564 
L 75.648885 102.573895 
L 76.370514 102.573895 
L 76.370514 101.199353 
L 77.092144 101.199353 
L 77.092144 98.519999 
L 77.813773 98.519999 
L 77.813773 95.191455 
L 78.535403 95.191455 
L 78.535403 92.920935 
L 79.257032 92.920935 
L 79.257032 90.632739 
L 79.978661 90.632739 
L 79.978661 90.848725 
L 80.700291 90.848725 
L 80.700291 90.670087 
L 81.42192 90.670087 
L 81.42192 89.21956 
L 82.14355 89.21956 
L 82.14355 88.78841 
L 82.865179 88.78841 
L 82.865179 88.60071 
L 84.308438 88.498645 
L 84.308438 88.456241 
L 85.030068 88.456241 
L 85.030068 88.917739 
L 85.751697 88.917739 
L 85.751697 90.243032 
L 86.473327 90.243032 
L 86.473327 91.043502 
L 87.194956 91.043502 
L 87.194956 92.727219 
L 87.916586 92.727219 
L 87.916586 93.110127 
L 88.638215 93.110127 
L 88.638215 95.072861 
L 89.359845 95.072861 
L 89.359845 98.059311 
L 90.081474 98.059311 
L 90.081474 100.942296 
L 90.803104 100.942296 
L 90.803104 103.667752 
L 91.524733 103.667752 
L 91.524733 107.527114 
L 92.246363 107.527114 
L 92.246363 110.049505 
L 92.967992 110.049505 
L 92.967992 114.599518 
L 93.689622 114.599518 
L 93.689622 119.457982 
L 94.411251 119.457982 
L 94.411251 123.352104 
L 95.132881 123.352104 
L 95.132881 128.416858 
L 95.85451 128.416858 
L 95.85451 133.548806 
L 96.57614 133.548806 
L 96.57614 138.501236 
L 97.297769 138.501236 
L 97.297769 143.512744 
L 98.019399 143.512744 
L 98.019399 148.966517 
L 98.741028 148.966517 
L 98.741028 153.724157 
L 99.462658 153.724157 
L 99.462658 159.097974 
L 100.184287 159.097974 
L 100.184287 164.279899 
L 100.905917 164.279899 
L 100.905917 168.646583 
L 101.627546 168.646583 
L 101.627546 173.522187 
L 102.349176 173.522187 
L 102.349176 177.055863 
L 103.070805 177.055863 
L 103.070805 182.21727 
L 103.792435 182.21727 
L 103.792435 186.142793 
L 104.514064 186.142793 
L 104.514064 190.057599 
L 105.235694 190.057599 
L 105.235694 193.744617 
L 105.957323 193.744617 
L 105.957323 197.597043 
L 106.678952 197.597043 
L 106.678952 200.684123 
L 107.400582 200.684123 
L 107.400582 203.62302 
L 108.122211 203.62302 
L 108.122211 206.81579 
L 108.843841 206.81579 
L 108.843841 209.506337 
L 109.56547 209.506337 
L 109.56547 212.330568 
L 110.2871 212.330568 
L 110.2871 215.145743 
L 111.008729 215.145743 
L 111.008729 217.113156 
L 111.730359 217.113156 
L 111.730359 218.764903 
L 112.451988 218.764903 
L 112.451988 220.747921 
L 113.173618 220.747921 
L 113.173618 222.230681 
L 113.895247 222.230681 
L 113.895247 223.891712 
L 114.616877 223.891712 
L 114.616877 224.812177 
L 115.338506 224.812177 
L 115.338506 225.808298 
L 116.060136 225.808298 
L 116.060136 226.877348 
L 116.781765 226.877348 
L 116.781765 227.611368 
L 117.503395 227.611368 
L 117.503395 228.432042 
L 118.225024 228.432042 
L 118.225024 228.818136 
L 118.946654 228.818136 
L 118.946654 229.139761 
L 120.389913 229.229368 
L 120.389913 229.532014 
L 121.111542 229.532014 
L 121.111542 229.955321 
L 121.833172 229.955321 
L 121.833172 230.244389 
L 123.99806 230.178918 
L 123.99806 230.082855 
L 125.441319 230.18201 
L 125.441319 230.219517 
L 127.606208 230.203914 
L 127.606208 229.92367 
L 129.049467 230.027616 
L 129.049467 230.349141 
L 129.771096 230.349141 
L 129.771096 230.231092 
L 131.935984 230.231416 
L 131.935984 230.057733 
L 134.822502 229.972568 
L 134.822502 229.804115 
L 135.544132 229.804115 
L 135.544132 230.067578 
L 136.265761 230.067578 
L 136.265761 229.944975 
L 137.70902 229.917882 
L 137.70902 229.479691 
L 138.43065 229.479691 
L 138.43065 229.357335 
L 140.595538 229.246565 
L 140.595538 229.507001 
L 141.317168 229.507001 
L 141.317168 229.129454 
L 142.760427 229.086118 
L 142.760427 228.879922 
L 144.925315 228.801138 
L 144.925315 228.587924 
L 145.646945 228.587924 
L 145.646945 228.450444 
L 147.090204 228.436968 
L 147.090204 228.247016 
L 149.255092 228.24393 
L 149.255092 227.914308 
L 150.698351 227.924473 
L 150.698351 227.264734 
L 152.14161 227.278916 
L 152.14161 226.883845 
L 152.86324 226.883845 
L 152.86324 226.662259 
L 153.584869 226.662259 
L 153.584869 226.777009 
L 154.306499 226.777009 
L 154.306499 225.989536 
L 155.028128 225.989536 
L 155.028128 226.303846 
L 155.749758 226.303846 
L 155.749758 225.856263 
L 156.471387 225.856263 
L 156.471387 225.716727 
L 157.193016 225.716727 
L 157.193016 225.336913 
L 157.914646 225.336913 
L 157.914646 224.983258 
L 159.357905 224.934044 
L 159.357905 224.648468 
L 160.079534 224.648468 
L 160.079534 224.787918 
L 160.801164 224.787918 
L 160.801164 224.028225 
L 161.522793 224.028225 
L 161.522793 223.898585 
L 162.244423 223.898585 
L 162.244423 223.220341 
L 162.966052 223.220341 
L 162.966052 223.080552 
L 163.687682 223.080552 
L 163.687682 222.58822 
L 164.409311 222.58822 
L 164.409311 222.11188 
L 165.130941 222.11188 
L 165.130941 221.730138 
L 165.85257 221.730138 
L 165.85257 221.368865 
L 166.5742 221.368865 
L 166.5742 220.893971 
L 167.295829 220.893971 
L 167.295829 220.455409 
L 168.017459 220.455409 
L 168.017459 220.081507 
L 168.739088 220.081507 
L 168.739088 219.362735 
L 169.460718 219.362735 
L 169.460718 219.138634 
L 170.182347 219.138634 
L 170.182347 218.571781 
L 170.903977 218.571781 
L 170.903977 218.207838 
L 171.625606 218.207838 
L 171.625606 217.543502 
L 172.347236 217.543502 
L 172.347236 217.294103 
L 173.068865 217.294103 
L 173.068865 216.68901 
L 173.790495 216.68901 
L 173.790495 216.1789 
L 174.512124 216.1789 
L 174.512124 215.47762 
L 175.233754 215.47762 
L 175.233754 215.077458 
L 175.955383 215.077458 
L 175.955383 214.351299 
L 177.398642 214.384939 
L 177.398642 213.677313 
L 178.120272 213.677313 
L 178.120272 213.459503 
L 178.841901 213.459503 
L 178.841901 212.99417 
L 179.563531 212.99417 
L 179.563531 212.564251 
L 180.28516 212.564251 
L 180.28516 212.349357 
L 181.00679 212.349357 
L 181.00679 211.235412 
L 181.728419 211.235412 
L 181.728419 211.379517 
L 182.450048 211.379517 
L 182.450048 210.564006 
L 183.171678 210.564006 
L 183.171678 211.029273 
L 183.893307 211.029273 
L 183.893307 210.535834 
L 185.336566 210.573219 
L 185.336566 210.404927 
L 186.779825 210.325909 
L 186.779825 210.115618 
L 187.501455 210.115618 
L 187.501455 210.441741 
L 188.944714 210.419411 
L 188.944714 210.667466 
L 189.666343 210.667466 
L 189.666343 210.80476 
L 191.109602 210.732402 
L 191.109602 211.324573 
L 191.831232 211.324573 
L 191.831232 211.060974 
L 192.552861 211.060974 
L 192.552861 211.888979 
L 193.274491 211.888979 
L 193.274491 211.438668 
L 193.99612 211.438668 
L 193.99612 211.829145 
L 194.71775 211.829145 
L 194.71775 211.988536 
L 195.439379 211.988536 
L 195.439379 212.303902 
L 196.161009 212.303902 
L 196.161009 212.616839 
L 196.882638 212.616839 
L 196.882638 213.010032 
L 197.604268 213.010032 
L 197.604268 213.160374 
L 198.325897 213.160374 
L 198.325897 212.716311 
L 199.047527 212.716311 
L 199.047527 212.450849 
L 201.212415 212.419279 
L 201.212415 211.31839 
L 201.934045 211.31839 
L 201.934045 211.174737 
L 202.655674 211.174737 
L 202.655674 209.913617 
L 203.377304 209.913617 
L 203.377304 208.981838 
L 204.098933 208.981838 
L 204.098933 208.14025 
L 204.820563 208.14025 
L 204.820563 206.358646 
L 205.542192 206.358646 
L 205.542192 204.888629 
L 206.263822 204.888629 
L 206.263822 203.285586 
L 206.985451 203.285586 
L 206.985451 201.518076 
L 207.707081 201.518076 
L 207.707081 199.43441 
L 208.42871 199.43441 
L 208.42871 196.494852 
L 209.150339 196.494852 
L 209.150339 194.718784 
L 209.871969 194.718784 
L 209.871969 192.426887 
L 210.593598 192.426887 
L 210.593598 189.599967 
L 211.315228 189.599967 
L 211.315228 187.334806 
L 212.036857 187.334806 
L 212.036857 184.617372 
L 212.758487 184.617372 
L 212.758487 182.441385 
L 213.480116 182.441385 
L 213.480116 179.280779 
L 214.201746 179.280779 
L 214.201746 176.335675 
L 214.923375 176.335675 
L 214.923375 173.859298 
L 215.645005 173.859298 
L 215.645005 171.010969 
L 216.366634 171.010969 
L 216.366634 168.957121 
L 217.088264 168.957121 
L 217.088264 165.711991 
L 217.809893 165.711991 
L 217.809893 163.074025 
L 218.531523 163.074025 
L 218.531523 160.617437 
L 219.253152 160.617437 
L 219.253152 158.353158 
L 219.974782 158.353158 
L 219.974782 155.673156 
L 220.696411 155.673156 
L 220.696411 152.11308 
L 221.418041 152.11308 
L 221.418041 150.974271 
L 222.13967 150.974271 
L 222.13967 149.701213 
L 222.8613 149.701213 
L 222.8613 147.237931 
L 223.582929 147.237931 
L 223.582929 146.72649 
L 224.304559 146.72649 
L 224.304559 145.817143 
L 225.026188 145.817143 
L 225.026188 145.9844 
L 225.747818 145.9844 
L 225.747818 147.255338 
L 227.191077 147.161276 
L 227.191077 148.637953 
L 227.912706 148.637953 
L 227.912706 150.192792 
L 228.634336 150.192792 
L 228.634336 153.02046 
L 229.355965 153.02046 
L 229.355965 155.784819 
L 230.077595 155.784819 
L 230.077595 158.458779 
L 230.799224 158.458779 
L 230.799224 162.177023 
L 231.520854 162.177023 
L 231.520854 165.75046 
L 232.242483 165.75046 
L 232.242483 169.176489 
L 232.964113 169.176489 
L 232.964113 173.208356 
L 233.685742 173.208356 
L 233.685742 176.666808 
L 234.407371 176.666808 
L 234.407371 180.958262 
L 235.129001 180.958262 
L 235.129001 184.668864 
L 235.85063 184.668864 
L 235.85063 188.411653 
L 236.57226 188.411653 
L 236.57226 192.363088 
L 237.293889 192.363088 
L 237.293889 196.000233 
L 238.015519 196.000233 
L 238.015519 200.100359 
L 238.737148 200.100359 
L 238.737148 203.731297 
L 239.458778 203.731297 
L 239.458778 206.922704 
L 240.180407 206.922704 
L 240.180407 210.363871 
L 240.902037 210.363871 
L 240.902037 213.60942 
L 241.623666 213.60942 
L 241.623666 216.726375 
L 242.345296 216.726375 
L 242.345296 219.721997 
L 243.066925 219.721997 
L 243.066925 222.467748 
L 243.788555 222.467748 
L 243.788555 225.046163 
L 244.510184 225.046163 
L 244.510184 227.549872 
L 245.231814 227.549872 
L 245.231814 229.743228 
L 245.953443 229.743228 
L 245.953443 231.624536 
L 246.675073 231.624536 
L 246.675073 233.353094 
L 247.396702 233.353094 
L 247.396702 235.013192 
L 248.118332 235.013192 
L 248.118332 236.331196 
L 248.839961 236.331196 
L 248.839961 237.465958 
L 249.561591 237.465958 
L 249.561591 238.455145 
L 250.28322 238.455145 
L 250.28322 239.255724 
L 251.00485 239.255724 
L 251.00485 239.901628 
L 251.726479 239.901628 
L 251.726479 240.419518 
L 252.448109 240.419518 
L 252.448109 240.801186 
L 253.169738 240.801186 
L 253.169738 241.113927 
L 253.891368 241.113927 
L 253.891368 241.346974 
L 255.334627 241.458034 
L 255.334627 241.581205 
L 256.777886 241.671225 
L 256.777886 241.702814 
L 370.795344 241.751229 
L 370.795344 241.773963 
" style="fill:none;stroke:#1f77b4;stroke-linecap:square;stroke-width:1.5;"/>
   </g>
   <g id="line2d_15">
    <path clip-path="url(#p8e1564b2b0)" d="M 10.702231 241.82767 
L 12.14549 241.747701 
L 12.867119 241.883408 
L 14.310378 241.675388 
L 15.032008 241.281124 
L 15.753637 241.017191 
L 16.475267 241.793598 
L 17.196896 241.616228 
L 17.918526 241.071189 
L 18.640155 238.715419 
L 19.361785 239.760327 
L 20.083414 236.884781 
L 21.526673 233.264094 
L 22.248303 234.18914 
L 22.969932 223.343086 
L 23.691562 223.535863 
L 24.413191 211.388118 
L 25.85645 199.458822 
L 26.57808 185.546169 
L 27.299709 187.369734 
L 28.021339 182.453907 
L 28.742968 166.267424 
L 29.464597 166.993232 
L 30.907856 138.015047 
L 31.629486 149.737642 
L 32.351115 130.534583 
L 33.794374 132.098072 
L 34.516004 127.664554 
L 35.237633 131.326874 
L 36.680892 114.74635 
L 38.124151 123.800597 
L 38.845781 125.377199 
L 39.56741 135.446917 
L 40.28904 120.124951 
L 41.010669 133.540255 
L 41.732299 122.247326 
L 42.453928 131.226668 
L 43.175558 130.003664 
L 43.897187 129.096286 
L 45.340446 147.208841 
L 46.062076 147.760992 
L 47.505335 157.586201 
L 48.226964 159.849304 
L 48.948594 165.020437 
L 49.670223 160.715135 
L 51.113482 175.613628 
L 51.835112 179.473305 
L 53.278371 195.326294 
L 54.721629 196.644002 
L 55.443259 199.074752 
L 56.164888 200.473188 
L 56.886518 203.881727 
L 57.608147 202.8941 
L 58.329777 210.421449 
L 59.051406 214.38947 
L 59.773036 210.392614 
L 60.494665 211.745313 
L 61.216295 217.273696 
L 61.937924 218.164926 
L 62.659554 217.562238 
L 63.381183 217.452609 
L 64.102813 217.985523 
L 64.824442 216.692064 
L 65.546072 217.614262 
L 66.267701 211.858341 
L 66.989331 213.672074 
L 67.71096 214.959033 
L 68.43259 214.81826 
L 69.154219 209.597068 
L 69.875849 214.486713 
L 70.597478 211.18146 
L 71.319108 200.781429 
L 72.040737 209.971799 
L 72.762367 206.610549 
L 73.483996 204.858981 
L 74.205626 206.395429 
L 74.927255 205.32734 
L 75.648885 198.276886 
L 76.370514 196.735893 
L 77.092144 194.850864 
L 77.813773 191.415926 
L 78.535403 196.710262 
L 79.257032 203.384073 
L 79.978661 196.334763 
L 80.700291 192.887389 
L 81.42192 196.938059 
L 82.14355 191.712957 
L 82.865179 190.51021 
L 83.586809 194.431158 
L 84.308438 187.18174 
L 85.030068 184.292376 
L 85.751697 183.830635 
L 86.473327 169.221143 
L 87.194956 185.155076 
L 87.916586 166.850349 
L 88.638215 176.250916 
L 89.359845 167.460304 
L 90.081474 172.345913 
L 90.803104 175.292711 
L 91.524733 172.417987 
L 92.246363 180.899769 
L 92.967992 181.615319 
L 93.689622 181.29941 
L 94.411251 184.952794 
L 95.132881 191.32034 
L 95.85451 188.223731 
L 96.57614 202.509995 
L 97.297769 200.009009 
L 98.019399 208.535202 
L 98.741028 212.817539 
L 99.462658 220.814393 
L 100.184287 219.53365 
L 100.905917 219.75939 
L 101.627546 225.685805 
L 102.349176 229.969875 
L 103.070805 225.319274 
L 103.792435 225.816676 
L 104.514064 230.117765 
L 105.235694 226.283294 
L 105.957323 224.227697 
L 107.400582 229.616459 
L 108.122211 229.67637 
L 108.843841 228.842882 
L 110.2871 227.997412 
L 111.008729 228.199031 
L 111.730359 232.887228 
L 112.451988 232.46217 
L 113.173618 230.490136 
L 113.895247 230.703333 
L 114.616877 228.616449 
L 115.338506 234.984314 
L 116.060136 231.805254 
L 116.781765 231.252447 
L 117.503395 232.899309 
L 118.225024 231.347018 
L 118.946654 235.618903 
L 119.668283 233.939399 
L 120.389913 231.930129 
L 121.111542 234.107075 
L 121.833172 232.194803 
L 122.554801 229.022592 
L 123.276431 232.356994 
L 123.99806 231.164604 
L 124.71969 232.905503 
L 125.441319 231.457343 
L 126.162949 231.417128 
L 126.884578 231.891451 
L 127.606208 231.964469 
L 128.327837 234.081975 
L 129.049467 233.172342 
L 129.771096 233.905578 
L 130.492726 230.105629 
L 131.935984 232.983754 
L 132.657614 232.643689 
L 133.379243 233.844238 
L 134.100873 231.893853 
L 134.822502 230.40758 
L 135.544132 231.19203 
L 136.987391 229.68268 
L 137.70902 230.230579 
L 138.43065 226.791709 
L 139.152279 226.980372 
L 139.873909 231.437596 
L 140.595538 228.282877 
L 141.317168 229.386667 
L 142.038797 226.558141 
L 142.760427 229.72276 
L 143.482056 234.68449 
L 144.203686 229.477423 
L 144.925315 225.208168 
L 145.646945 230.534612 
L 146.368574 228.711757 
L 147.090204 228.413695 
L 147.811833 224.276004 
L 148.533463 227.547857 
L 149.255092 228.860958 
L 149.976722 226.378794 
L 150.698351 227.28674 
L 151.419981 226.163248 
L 152.14161 230.447834 
L 152.86324 227.560594 
L 153.584869 228.859989 
L 154.306499 227.190187 
L 155.028128 225.183092 
L 155.749758 227.162615 
L 156.471387 227.898873 
L 157.193016 226.492581 
L 157.914646 227.589977 
L 159.357905 222.964025 
L 160.079534 223.504904 
L 160.801164 221.481847 
L 161.522793 224.881985 
L 162.244423 220.633231 
L 162.966052 219.866028 
L 163.687682 225.10998 
L 164.409311 218.598668 
L 165.130941 222.538119 
L 165.85257 216.005417 
L 166.5742 224.30131 
L 168.017459 220.307776 
L 168.739088 217.000448 
L 169.460718 221.227502 
L 170.182347 219.830474 
L 170.903977 216.794819 
L 172.347236 222.277763 
L 173.068865 215.844434 
L 173.790495 216.605749 
L 174.512124 217.65454 
L 175.233754 219.581551 
L 175.955383 214.300779 
L 176.677013 214.28344 
L 177.398642 211.596131 
L 178.120272 207.430985 
L 178.841901 215.50208 
L 179.563531 212.615974 
L 180.28516 212.355165 
L 181.00679 210.977162 
L 181.728419 206.080443 
L 182.450048 205.892612 
L 183.171678 203.512959 
L 184.614937 205.67667 
L 185.336566 205.256957 
L 186.058196 202.843923 
L 186.779825 201.547747 
L 188.223084 207.092601 
L 188.944714 206.144934 
L 189.666343 211.903983 
L 190.387973 212.507758 
L 191.109602 209.755603 
L 191.831232 212.937826 
L 192.552861 210.63254 
L 193.274491 216.104158 
L 193.99612 212.941598 
L 194.71775 213.80731 
L 195.439379 219.283399 
L 196.161009 217.263525 
L 196.882638 216.782392 
L 197.604268 216.105638 
L 198.325897 218.544328 
L 199.047527 222.753443 
L 199.769156 221.807807 
L 200.490786 222.411039 
L 201.212415 221.193008 
L 201.934045 220.356695 
L 202.655674 222.366125 
L 203.377304 223.009317 
L 204.098933 222.186 
L 204.820563 225.630435 
L 205.542192 222.713302 
L 206.263822 225.779638 
L 206.985451 224.31041 
L 207.707081 220.432552 
L 208.42871 222.122929 
L 209.150339 216.610595 
L 209.871969 215.590834 
L 210.593598 221.827664 
L 211.315228 209.169871 
L 212.036857 207.73063 
L 212.758487 209.886938 
L 213.480116 202.260565 
L 214.201746 197.208731 
L 214.923375 191.327886 
L 215.645005 187.248955 
L 216.366634 175.296882 
L 217.088264 168.285728 
L 217.809893 151.859311 
L 218.531523 142.763058 
L 219.253152 139.529533 
L 219.974782 118.692915 
L 220.696411 110.45255 
L 221.418041 87.189299 
L 222.13967 91.269074 
L 222.8613 92.977997 
L 223.582929 82.847031 
L 224.304559 83.619184 
L 225.026188 90.943599 
L 225.747818 103.874183 
L 226.469447 94.537391 
L 227.191077 98.723119 
L 229.355965 155.109532 
L 230.077595 160.201389 
L 230.799224 186.104359 
L 231.520854 192.434938 
L 232.242483 205.104865 
L 232.964113 212.5598 
L 233.685742 218.364203 
L 235.129001 235.998676 
L 235.85063 238.00527 
L 236.57226 237.815089 
L 238.015519 240.960134 
L 238.737148 241.832411 
L 239.458778 241.809985 
L 240.180407 241.513592 
L 240.902037 241.652511 
L 241.623666 241.629972 
L 242.345296 241.847023 
L 243.066925 241.629871 
L 243.788555 241.903296 
L 244.510184 241.552939 
L 245.231814 241.80559 
L 245.953443 241.934294 
L 246.675073 241.571251 
L 247.396702 241.839515 
L 248.839961 241.775736 
L 250.28322 241.857316 
L 252.448109 241.631713 
L 253.169738 242.010473 
L 254.612997 241.750861 
L 256.777886 241.804596 
L 257.499515 241.589406 
L 258.942774 241.70582 
L 259.664403 241.85212 
L 261.107662 241.814468 
L 261.829292 241.515152 
L 262.550921 241.831839 
L 263.272551 241.723973 
L 263.99418 242.032621 
L 264.71581 241.794243 
L 265.437439 242.021285 
L 266.880698 241.817716 
L 267.602328 241.715054 
L 269.045587 241.841935 
L 269.767216 241.622631 
L 270.488846 241.706028 
L 271.210475 241.626638 
L 271.932105 241.854004 
L 272.653734 241.645616 
L 273.375364 241.599355 
L 274.096993 241.818272 
L 274.818623 241.709063 
L 275.540252 241.740654 
L 276.261882 241.540936 
L 276.983511 241.519582 
L 279.1484 241.996482 
L 281.313288 241.623841 
L 282.034918 241.774225 
L 282.756547 241.580927 
L 284.921435 241.859092 
L 285.643065 241.913009 
L 287.086324 241.687514 
L 287.807953 241.874521 
L 289.251212 241.729051 
L 289.972842 241.952361 
L 290.694471 241.763093 
L 292.85936 241.666689 
L 295.024248 241.795961 
L 295.745878 241.630942 
L 296.467507 241.715429 
L 297.189137 241.662141 
L 298.632396 241.769031 
L 299.354025 241.722186 
L 300.075655 241.903096 
L 300.797284 241.677119 
L 302.240543 241.885405 
L 302.962173 241.73734 
L 303.683802 241.889485 
L 304.405432 241.751565 
L 305.127061 241.799991 
L 306.57032 241.707823 
L 308.013579 241.783533 
L 310.900097 241.777565 
L 312.343356 241.887963 
L 313.064985 241.761706 
L 317.394762 241.854184 
L 319.559651 241.703216 
L 320.28128 241.897612 
L 321.00291 241.719439 
L 321.724539 241.832912 
L 325.332687 241.793216 
L 326.054316 241.871647 
L 327.497575 241.797485 
L 333.992241 241.819516 
L 334.71387 241.863406 
L 336.157129 241.788795 
L 336.878758 241.793643 
L 337.600388 241.664262 
L 338.322017 241.800437 
L 341.930165 241.774888 
L 342.651794 241.891338 
L 344.095053 241.834466 
L 348.42483 241.79029 
L 349.14646 241.873707 
L 349.868089 241.757969 
L 350.589719 241.875228 
L 352.754607 241.646323 
L 354.197866 241.837603 
L 354.919496 241.65207 
L 356.362755 241.826558 
L 357.084384 241.735262 
L 357.806014 241.810426 
L 358.527643 241.717457 
L 359.249273 241.85539 
L 359.970902 241.653202 
L 360.692532 241.623223 
L 361.414161 241.792566 
L 362.13579 241.80682 
L 364.300679 241.384953 
L 365.022308 241.661571 
L 366.465567 241.836138 
L 367.187197 241.801344 
L 367.908826 241.564065 
L 368.630456 241.673156 
L 369.352085 241.628128 
L 370.795344 242.004992 
L 370.795344 242.004992 
" style="fill:none;stroke:#ff7f0e;stroke-dasharray:5.55,2.4;stroke-dashoffset:0;stroke-width:1.5;"/>
   </g>
   <g id="line2d_16">
    <path clip-path="url(#p8e1564b2b0)" d="M 54 183.283924 
L 54.721629 183.283924 
L 54.721629 185.897193 
L 55.443259 185.897193 
L 55.443259 187.875688 
L 56.164888 187.875688 
L 56.164888 189.868472 
L 56.886518 189.868472 
L 56.886518 191.952467 
L 57.608147 191.952467 
L 57.608147 193.574342 
L 58.329777 193.574342 
L 58.329777 195.673765 
L 59.051406 195.673765 
L 59.051406 197.569076 
L 59.773036 197.569076 
L 59.773036 198.650247 
L 60.494665 198.650247 
L 60.494665 200.414589 
L 61.216295 200.414589 
L 61.216295 201.996276 
L 61.937924 201.996276 
L 61.937924 202.651984 
L 62.659554 202.651984 
L 62.659554 203.188014 
L 63.381183 203.188014 
L 63.381183 204.099808 
L 64.102813 204.099808 
L 64.102813 204.779433 
L 64.824442 204.779433 
L 64.824442 204.962144 
L 65.546072 204.962144 
L 65.546072 205.649235 
L 66.267701 205.649235 
L 66.267701 206.02924 
L 66.989331 206.02924 
L 66.989331 206.161373 
L 68.43259 206.141245 
L 68.43259 205.967517 
L 69.154219 205.967517 
L 69.154219 205.431985 
L 70.597478 205.36146 
L 70.597478 204.756416 
L 71.319108 204.756416 
L 71.319108 203.949564 
L 72.040737 203.949564 
L 72.040737 204.268855 
L 72.762367 204.268855 
L 72.762367 203.155339 
L 73.483996 203.155339 
L 73.483996 202.26861 
L 74.205626 202.26861 
L 74.205626 201.709027 
L 74.927255 201.709027 
L 74.927255 200.735965 
L 75.648885 200.735965 
L 75.648885 199.636032 
L 76.370514 199.636032 
L 76.370514 199.244918 
L 77.092144 199.244918 
L 77.092144 198.384091 
L 77.813773 198.384091 
L 77.813773 197.658171 
L 78.535403 197.658171 
L 78.535403 196.651789 
L 79.257032 196.651789 
L 79.257032 196.069339 
L 79.978661 196.069339 
L 79.978661 194.830259 
L 80.700291 194.830259 
L 80.700291 194.682042 
L 81.42192 194.682042 
L 81.42192 194.153567 
L 82.14355 194.153567 
L 82.14355 193.323081 
L 82.865179 193.323081 
L 82.865179 192.318761 
L 83.586809 192.318761 
L 83.586809 191.963666 
L 84.308438 191.963666 
L 84.308438 191.177747 
L 85.030068 191.177747 
L 85.030068 190.76774 
L 86.473327 190.855695 
L 86.473327 190.332043 
L 87.194956 190.332043 
L 87.194956 190.961703 
L 87.916586 190.961703 
L 87.916586 190.046659 
L 88.638215 190.046659 
L 88.638215 190.944019 
L 90.081474 190.837443 
L 90.081474 191.099884 
L 90.803104 191.099884 
L 90.803104 192.017911 
L 91.524733 192.017911 
L 91.524733 192.512349 
L 92.246363 192.512349 
L 92.246363 193.964317 
L 92.967992 193.964317 
L 92.967992 194.510324 
L 93.689622 194.510324 
L 93.689622 195.72281 
L 94.411251 195.72281 
L 94.411251 196.83555 
L 95.132881 196.83555 
L 95.132881 198.567068 
L 95.85451 198.567068 
L 95.85451 199.601445 
L 96.57614 199.601445 
L 96.57614 202.008889 
L 97.297769 202.008889 
L 97.297769 203.287885 
L 98.019399 203.287885 
L 98.019399 205.166389 
L 98.741028 205.166389 
L 98.741028 207.012926 
L 99.462658 207.012926 
L 99.462658 208.343901 
L 100.184287 208.343901 
L 100.184287 210.096032 
L 100.905917 210.096032 
L 100.905917 211.711678 
L 101.627546 211.711678 
L 101.627546 213.534313 
L 102.349176 213.534313 
L 102.349176 214.656693 
L 103.070805 214.656693 
L 103.070805 215.543232 
L 103.792435 215.543232 
L 103.792435 216.948807 
L 104.514064 216.948807 
L 104.514064 218.766758 
L 105.235694 218.766758 
L 105.235694 219.33544 
L 105.957323 219.33544 
L 105.957323 220.7679 
L 106.678952 220.7679 
L 106.678952 221.715414 
L 107.400582 221.715414 
L 107.400582 222.489554 
L 108.122211 222.489554 
L 108.122211 223.192961 
L 108.843841 223.192961 
L 108.843841 224.045003 
L 109.56547 224.045003 
L 109.56547 224.831835 
L 110.2871 224.831835 
L 110.2871 225.616743 
L 111.008729 225.616743 
L 111.008729 226.10519 
L 111.730359 226.10519 
L 111.730359 226.798701 
L 112.451988 226.798701 
L 112.451988 227.403959 
L 113.173618 227.403959 
L 113.173618 227.804648 
L 113.895247 227.804648 
L 113.895247 228.474876 
L 114.616877 228.474876 
L 114.616877 229.009211 
L 115.338506 229.009211 
L 115.338506 229.605823 
L 116.781765 229.671566 
L 116.781765 230.223893 
L 117.503395 230.223893 
L 117.503395 230.716857 
L 118.225024 230.716857 
L 118.225024 230.838703 
L 118.946654 230.838703 
L 118.946654 231.094987 
L 120.389913 231.034181 
L 120.389913 231.394211 
L 121.111542 231.394211 
L 121.111542 231.610771 
L 123.276431 231.523225 
L 123.276431 231.726085 
L 123.99806 231.726085 
L 123.99806 231.463786 
L 124.71969 231.463786 
L 124.71969 231.627669 
L 126.884578 231.714636 
L 126.884578 231.833777 
L 127.606208 231.833777 
L 127.606208 231.446357 
L 130.492726 231.411167 
L 130.492726 231.32054 
L 131.935984 231.268034 
L 131.935984 231.137049 
L 134.100873 231.198471 
L 134.100873 230.78843 
L 135.544132 230.819772 
L 135.544132 230.582271 
L 136.265761 230.582271 
L 136.265761 230.458215 
L 136.987391 230.458215 
L 136.987391 230.335382 
L 137.70902 230.335382 
L 137.70902 230.209348 
L 138.43065 230.209348 
L 138.43065 229.867815 
L 139.873909 229.925871 
L 139.873909 229.753048 
L 140.595538 229.753048 
L 140.595538 229.449151 
L 142.038797 229.472926 
L 142.038797 229.248418 
L 143.482056 229.290494 
L 143.482056 229.000742 
L 144.203686 229.000742 
L 144.203686 228.397068 
L 144.925315 228.397068 
L 144.925315 228.549669 
L 145.646945 228.549669 
L 145.646945 228.788079 
L 146.368574 228.788079 
L 146.368574 228.230328 
L 147.090204 228.230328 
L 147.090204 228.017643 
L 147.811833 228.017643 
L 147.811833 227.904008 
L 149.255092 227.854488 
L 149.255092 227.684263 
L 149.976722 227.684263 
L 149.976722 227.263895 
L 150.698351 227.263895 
L 150.698351 227.40714 
L 151.419981 227.40714 
L 151.419981 227.101833 
L 152.14161 227.101833 
L 152.14161 226.823334 
L 152.86324 226.823334 
L 152.86324 226.426634 
L 154.306499 226.371598 
L 154.306499 226.03618 
L 155.028128 226.03618 
L 155.028128 225.675999 
L 156.471387 225.688064 
L 156.471387 225.328575 
L 157.193016 225.328575 
L 157.193016 225.127615 
L 157.914646 225.127615 
L 157.914646 224.539396 
L 159.357905 224.543423 
L 159.357905 223.985526 
L 160.079534 223.985526 
L 160.079534 223.762535 
L 160.801164 223.762535 
L 160.801164 223.323109 
L 162.244423 223.383295 
L 162.244423 222.559529 
L 162.966052 222.559529 
L 162.966052 222.221118 
L 163.687682 222.221118 
L 163.687682 222.059577 
L 164.409311 222.059577 
L 164.409311 221.349515 
L 165.130941 221.349515 
L 165.130941 221.198203 
L 165.85257 221.198203 
L 165.85257 220.904454 
L 166.5742 220.904454 
L 166.5742 220.455148 
L 167.295829 220.455148 
L 167.295829 219.776604 
L 168.017459 219.776604 
L 168.017459 219.269131 
L 169.460718 219.218645 
L 169.460718 218.924916 
L 170.182347 218.924916 
L 170.182347 218.313415 
L 170.903977 218.313415 
L 170.903977 217.593469 
L 172.347236 217.634049 
L 172.347236 217.041869 
L 173.068865 217.041869 
L 173.068865 216.473206 
L 173.790495 216.473206 
L 173.790495 216.134678 
L 174.512124 216.134678 
L 174.512124 215.953392 
L 175.233754 215.953392 
L 175.233754 215.047182 
L 175.955383 215.047182 
L 175.955383 214.451704 
L 176.677013 214.451704 
L 176.677013 214.288281 
L 177.398642 214.288281 
L 177.398642 213.969003 
L 178.120272 213.969003 
L 178.120272 213.309941 
L 179.563531 213.360388 
L 179.563531 212.580718 
L 180.28516 212.580718 
L 180.28516 212.360957 
L 181.00679 212.360957 
L 181.00679 211.963847 
L 181.728419 211.963847 
L 181.728419 211.686889 
L 183.171678 211.692476 
L 183.171678 211.226393 
L 183.893307 211.226393 
L 183.893307 211.086667 
L 186.058196 211.075923 
L 186.058196 210.957335 
L 186.779825 210.957335 
L 186.779825 211.255349 
L 187.501455 211.255349 
L 187.501455 211.550486 
L 188.223084 211.550486 
L 188.223084 211.756191 
L 188.944714 211.756191 
L 188.944714 211.947632 
L 189.666343 211.947632 
L 189.666343 212.239741 
L 191.109602 212.301163 
L 191.109602 212.424852 
L 191.831232 212.424852 
L 191.831232 213.113754 
L 192.552861 213.113754 
L 192.552861 213.634946 
L 193.274491 213.634946 
L 193.274491 214.205546 
L 194.71775 214.205361 
L 194.71775 214.446795 
L 195.439379 214.446795 
L 195.439379 215.058211 
L 196.161009 215.058211 
L 196.161009 214.902675 
L 196.882638 214.902675 
L 196.882638 215.365714 
L 197.604268 215.365714 
L 197.604268 215.758943 
L 198.325897 215.758943 
L 198.325897 215.59629 
L 199.047527 215.59629 
L 199.047527 215.308679 
L 200.490786 215.233463 
L 200.490786 214.62821 
L 201.212415 214.62821 
L 201.212415 214.275036 
L 201.934045 214.275036 
L 201.934045 213.812733 
L 202.655674 213.812733 
L 202.655674 212.991093 
L 203.377304 212.991093 
L 203.377304 212.086961 
L 204.098933 212.086961 
L 204.098933 211.025288 
L 204.820563 211.025288 
L 204.820563 209.780039 
L 205.542192 209.780039 
L 205.542192 208.465337 
L 206.263822 208.465337 
L 206.263822 207.018666 
L 206.985451 207.018666 
L 206.985451 204.935121 
L 207.707081 204.935121 
L 207.707081 202.992422 
L 208.42871 202.992422 
L 208.42871 201.210142 
L 209.150339 201.210142 
L 209.150339 198.614436 
L 209.871969 198.614436 
L 209.871969 196.244772 
L 210.593598 196.244772 
L 210.593598 193.438044 
L 211.315228 193.438044 
L 211.315228 190.524666 
L 212.036857 190.524666 
L 212.036857 188.678662 
L 212.758487 188.678662 
L 212.758487 186.087879 
L 213.480116 186.087879 
L 213.480116 182.04162 
L 214.201746 182.04162 
L 214.201746 179.350899 
L 214.923375 179.350899 
L 214.923375 176.221596 
L 215.645005 176.221596 
L 215.645005 173.214654 
L 216.366634 173.214654 
L 216.366634 169.973838 
L 217.088264 169.973838 
L 217.088264 167.007859 
L 217.809893 167.007859 
L 217.809893 164.454596 
L 218.531523 164.454596 
L 218.531523 162.139492 
L 219.253152 162.139492 
L 219.253152 159.495536 
L 219.974782 159.495536 
L 219.974782 156.857907 
L 220.696411 156.857907 
L 220.696411 155.095987 
L 221.418041 155.095987 
L 221.418041 153.509588 
L 222.13967 153.509588 
L 222.13967 153.281139 
L 222.8613 153.281139 
L 222.8613 152.665866 
L 223.582929 152.665866 
L 223.582929 151.691885 
L 224.304559 151.691885 
L 224.304559 153.115828 
L 225.026188 153.115828 
L 225.026188 153.877286 
L 225.747818 153.877286 
L 225.747818 155.144229 
L 226.469447 155.144229 
L 226.469447 156.202853 
L 227.191077 156.202853 
L 227.191077 159.31735 
L 227.912706 159.31735 
L 227.912706 162.73083 
L 228.634336 162.73083 
L 228.634336 165.80346 
L 229.355965 165.80346 
L 229.355965 169.00711 
L 230.077595 169.00711 
L 230.077595 172.887618 
L 230.799224 172.887618 
L 230.799224 177.859112 
L 231.520854 177.859112 
L 231.520854 181.487694 
L 232.242483 181.487694 
L 232.242483 185.825584 
L 232.964113 185.825584 
L 232.964113 190.123508 
L 233.685742 190.123508 
L 233.685742 193.737785 
L 234.407371 193.737785 
L 234.407371 197.784464 
L 235.129001 197.784464 
L 235.129001 201.204994 
L 235.85063 201.204994 
L 235.85063 204.950747 
L 236.57226 204.950747 
L 236.57226 208.231074 
L 237.293889 208.231074 
L 237.293889 211.817823 
L 238.015519 211.817823 
L 238.015519 214.620757 
L 238.737148 214.620757 
L 238.737148 217.241129 
L 239.458778 217.241129 
L 239.458778 219.078724 
L 240.180407 219.078724 
L 240.180407 221.085758 
L 240.902037 221.085758 
L 240.902037 223.179297 
L 241.623666 223.179297 
L 241.623666 225.003409 
L 242.345296 225.003409 
L 242.345296 226.751153 
L 243.066925 226.751153 
L 243.066925 228.504806 
L 243.788555 228.504806 
L 243.788555 230.016053 
L 244.510184 230.016053 
L 244.510184 231.448074 
L 245.231814 231.448074 
L 245.231814 232.544914 
L 245.953443 232.544914 
L 245.953443 233.731366 
L 246.675073 233.731366 
L 246.675073 234.921657 
L 247.396702 234.921657 
L 247.396702 236.076075 
L 248.118332 236.076075 
L 248.118332 237.125112 
L 248.839961 237.125112 
L 248.839961 238.011843 
L 249.561591 238.011843 
L 249.561591 238.739803 
L 250.28322 238.739803 
L 250.28322 239.380821 
L 251.00485 239.380821 
L 251.00485 239.94409 
L 251.726479 239.94409 
L 251.726479 240.405296 
L 252.448109 240.405296 
L 252.448109 240.764162 
L 253.169738 240.764162 
L 253.169738 241.099187 
L 253.891368 241.099187 
L 253.891368 241.288267 
L 254.612997 241.288267 
L 254.612997 241.438469 
L 255.334627 241.438469 
L 255.334627 241.559789 
L 256.777886 241.640083 
L 256.777886 241.686555 
L 315.229874 241.787374 
L 315.229874 241.798136 
L 370.795344 241.757239 
L 370.795344 241.759836 
" style="fill:none;stroke:#ff7f0e;stroke-linecap:square;stroke-width:1.5;"/>
   </g>
   <g id="line2d_17">
    <path clip-path="url(#p8e1564b2b0)" d="M 10.702231 241.118892 
L 11.42386 240.814562 
L 12.14549 241.448604 
L 12.867119 241.277464 
L 13.588749 241.368747 
L 14.310378 242.116364 
L 15.032008 241.747755 
L 17.196896 241.788803 
L 17.918526 241.274671 
L 19.361785 241.743398 
L 20.083414 240.445192 
L 21.526673 239.613925 
L 22.248303 239.81094 
L 22.969932 239.230491 
L 23.691562 237.732581 
L 24.413191 239.091394 
L 25.134821 237.614595 
L 25.85645 236.429007 
L 26.57808 234.226632 
L 27.299709 235.72455 
L 28.742968 227.317155 
L 29.464597 228.54003 
L 30.186227 231.434626 
L 30.907856 225.179277 
L 31.629486 223.294562 
L 32.351115 227.867692 
L 33.072745 224.105035 
L 33.794374 222.326766 
L 34.516004 225.411871 
L 35.237633 225.976068 
L 35.959263 226.119134 
L 36.680892 225.64378 
L 37.402522 228.818472 
L 38.124151 231.410789 
L 38.845781 227.657835 
L 39.56741 226.208573 
L 40.28904 232.306344 
L 41.010669 228.630133 
L 41.732299 229.767964 
L 42.453928 229.830931 
L 43.175558 232.773074 
L 43.897187 232.937238 
L 44.618817 230.580808 
L 45.340446 235.111279 
L 46.062076 232.42433 
L 46.783705 235.185257 
L 47.505335 233.82727 
L 48.226964 234.354143 
L 48.948594 236.192187 
L 49.670223 235.100656 
L 50.391853 235.182273 
L 51.113482 234.193597 
L 51.835112 238.734781 
L 52.556741 234.7854 
L 53.278371 235.588923 
L 54 234.838232 
L 54.721629 236.414124 
L 55.443259 235.284071 
L 56.164888 238.837123 
L 56.886518 235.687943 
L 57.608147 236.730982 
L 58.329777 237.340186 
L 59.051406 237.565502 
L 59.773036 234.153426 
L 60.494665 237.699052 
L 61.216295 238.254094 
L 61.937924 237.871891 
L 62.659554 239.631483 
L 63.381183 237.017736 
L 64.824442 236.896677 
L 65.546072 238.797439 
L 66.267701 239.151917 
L 67.71096 237.609474 
L 68.43259 237.471273 
L 69.154219 238.462635 
L 69.875849 236.98654 
L 70.597478 237.672183 
L 71.319108 238.187511 
L 72.040737 235.711048 
L 72.762367 237.469213 
L 73.483996 235.586707 
L 74.205626 236.577658 
L 74.927255 236.408103 
L 75.648885 236.813753 
L 76.370514 238.791138 
L 77.092144 237.488481 
L 77.813773 237.457093 
L 78.535403 236.969897 
L 79.257032 235.568606 
L 79.978661 238.151937 
L 80.700291 236.300999 
L 81.42192 236.666422 
L 82.14355 236.593548 
L 82.865179 234.789986 
L 83.586809 234.1212 
L 84.308438 234.932327 
L 85.030068 232.650497 
L 85.751697 236.243782 
L 86.473327 230.346054 
L 87.194956 229.673556 
L 87.916586 231.358695 
L 88.638215 227.156581 
L 89.359845 225.814458 
L 90.081474 222.410705 
L 90.803104 221.10096 
L 91.524733 218.823091 
L 92.246363 224.510862 
L 92.967992 218.599991 
L 93.689622 218.135398 
L 94.411251 217.998241 
L 95.132881 219.944465 
L 95.85451 221.535259 
L 96.57614 215.650397 
L 97.297769 220.428239 
L 98.019399 227.581222 
L 98.741028 224.352221 
L 99.462658 223.638516 
L 100.184287 226.402651 
L 100.905917 227.153087 
L 101.627546 234.977921 
L 102.349176 228.265086 
L 103.070805 231.742417 
L 103.792435 233.479828 
L 104.514064 232.191279 
L 105.957323 236.219816 
L 106.678952 235.763958 
L 107.400582 237.998679 
L 108.122211 235.101968 
L 108.843841 236.848341 
L 109.56547 236.22072 
L 110.2871 237.345236 
L 111.008729 239.185619 
L 111.730359 236.923474 
L 112.451988 239.224226 
L 113.173618 238.156869 
L 113.895247 240.281657 
L 114.616877 239.504311 
L 115.338506 237.98941 
L 116.060136 237.25818 
L 116.781765 237.612979 
L 117.503395 239.161451 
L 118.225024 237.870669 
L 119.668283 239.704482 
L 120.389913 239.10649 
L 121.111542 240.176427 
L 121.833172 238.101585 
L 122.554801 238.053235 
L 123.276431 240.917914 
L 123.99806 238.885455 
L 124.71969 238.615421 
L 126.162949 241.171006 
L 126.884578 238.92032 
L 127.606208 239.229216 
L 128.327837 238.349394 
L 129.049467 239.413189 
L 130.492726 238.776889 
L 131.214355 239.125695 
L 131.935984 238.048233 
L 132.657614 237.494461 
L 133.379243 237.38422 
L 134.100873 238.138121 
L 134.822502 238.075447 
L 135.544132 238.875473 
L 136.265761 236.658617 
L 136.987391 237.15767 
L 137.70902 238.037199 
L 138.43065 238.404783 
L 139.152279 235.432393 
L 139.873909 237.468694 
L 140.595538 239.037756 
L 141.317168 237.550411 
L 142.038797 237.016644 
L 142.760427 238.065109 
L 143.482056 236.541079 
L 144.203686 238.387995 
L 144.925315 239.116574 
L 145.646945 236.741844 
L 146.368574 235.578915 
L 147.090204 237.216374 
L 147.811833 236.940648 
L 148.533463 235.66104 
L 149.255092 237.807303 
L 149.976722 239.077447 
L 150.698351 237.70428 
L 151.419981 235.834171 
L 152.14161 237.07795 
L 152.86324 237.346589 
L 153.584869 238.076154 
L 154.306499 236.664618 
L 155.028128 237.813407 
L 155.749758 237.604377 
L 156.471387 236.733687 
L 157.193016 238.214174 
L 157.914646 237.003812 
L 158.636275 235.542619 
L 159.357905 235.669694 
L 160.079534 235.376973 
L 161.522793 236.49073 
L 162.244423 235.578459 
L 162.966052 234.210381 
L 163.687682 237.104708 
L 164.409311 238.784365 
L 165.130941 234.119966 
L 165.85257 235.721919 
L 166.5742 235.668684 
L 167.295829 233.658995 
L 168.017459 232.332619 
L 168.739088 236.302643 
L 169.460718 234.046881 
L 170.182347 232.654267 
L 170.903977 233.504989 
L 171.625606 231.764533 
L 172.347236 232.74724 
L 173.068865 230.264325 
L 173.790495 230.527312 
L 174.512124 232.705798 
L 175.233754 230.68266 
L 175.955383 234.402998 
L 177.398642 232.395016 
L 178.120272 228.043408 
L 178.841901 229.064039 
L 179.563531 229.554999 
L 180.28516 227.907958 
L 181.00679 228.21413 
L 181.728419 225.847201 
L 182.450048 230.38279 
L 183.171678 225.328231 
L 183.893307 225.19244 
L 184.614937 227.50307 
L 185.336566 227.996544 
L 186.058196 229.001913 
L 186.779825 225.031079 
L 187.501455 226.329677 
L 188.223084 229.561009 
L 188.944714 227.893542 
L 189.666343 227.14866 
L 190.387973 229.043855 
L 191.831232 228.500396 
L 192.552861 233.344319 
L 193.274491 230.962588 
L 193.99612 231.842605 
L 194.71775 233.166679 
L 196.161009 238.118699 
L 196.882638 236.477667 
L 197.604268 238.048633 
L 198.325897 238.260263 
L 199.047527 238.912121 
L 199.769156 239.093587 
L 200.490786 238.568378 
L 201.212415 240.060681 
L 201.934045 239.695975 
L 202.655674 240.26415 
L 203.377304 241.563181 
L 204.098933 240.320337 
L 204.820563 241.682301 
L 205.542192 240.620215 
L 206.263822 241.185945 
L 206.985451 240.836202 
L 207.707081 241.352607 
L 208.42871 241.005633 
L 209.150339 241.184979 
L 209.871969 240.969954 
L 210.593598 241.109253 
L 211.315228 241.659751 
L 212.036857 241.857464 
L 212.758487 241.551379 
L 213.480116 241.703713 
L 214.201746 241.36257 
L 214.923375 241.537054 
L 215.645005 240.582882 
L 216.366634 240.58379 
L 217.088264 241.71839 
L 217.809893 241.151367 
L 218.531523 240.162237 
L 219.974782 241.400535 
L 220.696411 241.301902 
L 221.418041 241.77297 
L 222.13967 241.231131 
L 222.8613 241.238559 
L 223.582929 240.337558 
L 224.304559 240.875597 
L 225.026188 241.148125 
L 225.747818 239.420977 
L 227.191077 241.3408 
L 227.912706 240.391834 
L 228.634336 241.309055 
L 230.799224 241.566405 
L 231.520854 241.056339 
L 232.242483 241.198861 
L 232.964113 241.771242 
L 233.685742 241.80721 
L 234.407371 241.439104 
L 235.129001 241.707863 
L 235.85063 241.642042 
L 236.57226 241.866527 
L 237.293889 241.570099 
L 238.015519 241.772853 
L 238.737148 241.698817 
L 239.458778 241.789793 
L 240.180407 241.705261 
L 240.902037 241.752076 
L 241.623666 241.936402 
L 243.066925 241.644388 
L 243.788555 241.868066 
L 244.510184 241.695062 
L 245.953443 241.710492 
L 246.675073 241.873947 
L 247.396702 241.733942 
L 249.561591 241.779113 
L 250.28322 241.894109 
L 251.00485 241.644804 
L 251.726479 241.823411 
L 252.448109 241.606675 
L 253.169738 241.78089 
L 253.891368 241.835706 
L 255.334627 241.705274 
L 258.942774 241.752364 
L 259.664403 242.043598 
L 260.386033 241.78252 
L 262.550921 241.78071 
L 263.272551 241.847209 
L 263.99418 241.642365 
L 265.437439 241.886121 
L 266.159069 241.704436 
L 271.932105 241.672083 
L 272.653734 241.590954 
L 274.096993 241.832927 
L 274.818623 241.540464 
L 275.540252 241.580797 
L 276.261882 241.785237 
L 277.705141 241.644273 
L 278.42677 241.820029 
L 279.1484 241.614601 
L 279.870029 241.901722 
L 282.034918 241.936586 
L 282.756547 241.635088 
L 283.478177 241.856026 
L 284.199806 241.703033 
L 284.921435 241.695401 
L 285.643065 241.809274 
L 286.364694 241.598651 
L 287.086324 241.562414 
L 287.807953 241.75728 
L 288.529583 241.58924 
L 289.251212 241.828746 
L 290.694471 241.71174 
L 292.13773 241.789652 
L 292.85936 241.833701 
L 293.580989 241.666797 
L 294.302619 241.928798 
L 295.024248 241.788245 
L 295.745878 241.924618 
L 297.910766 241.800815 
L 298.632396 241.839848 
L 299.354025 241.72369 
L 300.075655 241.830138 
L 301.518914 241.750054 
L 302.240543 241.775704 
L 302.962173 241.917305 
L 304.405432 241.703468 
L 309.456838 241.811562 
L 310.178468 241.769559 
L 311.621726 241.827465 
L 315.229874 241.772184 
L 318.116392 241.789902 
L 320.28128 241.773432 
L 324.611057 241.819107 
L 326.054316 241.789339 
L 333.270611 241.791467 
L 335.4355 241.735085 
L 336.878758 241.826253 
L 339.765276 241.850151 
L 340.486906 241.760236 
L 341.930165 241.807892 
L 348.42483 241.798444 
L 349.14646 241.846953 
L 349.868089 241.725806 
L 357.084384 241.66154 
L 357.806014 241.882124 
L 359.249273 241.761876 
L 360.692532 241.825533 
L 361.414161 241.668352 
L 364.300679 241.836526 
L 365.022308 241.658059 
L 365.743938 241.77154 
L 366.465567 241.584582 
L 367.187197 241.968731 
L 367.908826 241.639772 
L 370.795344 241.708579 
L 370.795344 241.708579 
" style="fill:none;stroke:#2ca02c;stroke-dasharray:5.55,2.4;stroke-dashoffset:0;stroke-width:1.5;"/>
   </g>
   <g id="line2d_18">
    <path clip-path="url(#p8e1564b2b0)" d="M 54 234.97314 
L 54.721629 234.97314 
L 54.721629 235.140151 
L 55.443259 235.140151 
L 55.443259 235.558999 
L 56.886518 235.646857 
L 56.886518 235.791786 
L 57.608147 235.791786 
L 57.608147 236.010117 
L 58.329777 236.010117 
L 58.329777 236.278159 
L 59.051406 236.278159 
L 59.051406 236.089187 
L 59.773036 236.089187 
L 59.773036 236.50945 
L 61.937924 236.527121 
L 61.937924 236.776499 
L 62.659554 236.776499 
L 62.659554 236.979123 
L 63.381183 236.979123 
L 63.381183 236.826775 
L 64.824442 236.821155 
L 64.824442 237.04249 
L 65.546072 237.04249 
L 65.546072 236.8834 
L 66.267701 236.8834 
L 66.267701 237.011659 
L 69.154219 236.952909 
L 69.154219 236.850024 
L 70.597478 236.80343 
L 70.597478 236.653631 
L 71.319108 236.653631 
L 71.319108 236.539977 
L 72.040737 236.539977 
L 72.040737 236.687323 
L 72.762367 236.687323 
L 72.762367 236.2803 
L 73.483996 236.2803 
L 73.483996 236.156525 
L 74.205626 236.156525 
L 74.205626 235.874943 
L 74.927255 235.874943 
L 74.927255 235.636449 
L 76.370514 235.635963 
L 76.370514 235.166944 
L 77.813773 235.117975 
L 77.813773 234.707868 
L 78.535403 234.707868 
L 78.535403 234.367015 
L 79.257032 234.367015 
L 79.257032 234.054325 
L 79.978661 234.054325 
L 79.978661 233.708586 
L 80.700291 233.708586 
L 80.700291 233.286438 
L 82.14355 233.18858 
L 82.14355 232.702706 
L 82.865179 232.702706 
L 82.865179 232.307709 
L 83.586809 232.307709 
L 83.586809 231.864791 
L 84.308438 231.864791 
L 84.308438 231.421901 
L 85.030068 231.421901 
L 85.030068 231.306223 
L 85.751697 231.306223 
L 85.751697 230.742711 
L 86.473327 230.742711 
L 86.473327 230.575235 
L 87.194956 230.575235 
L 87.194956 230.243486 
L 87.916586 230.243486 
L 87.916586 229.943323 
L 88.638215 229.943323 
L 88.638215 229.307 
L 89.359845 229.307 
L 89.359845 229.439644 
L 90.081474 229.439644 
L 90.081474 228.71733 
L 90.803104 228.71733 
L 90.803104 228.54189 
L 91.524733 228.54189 
L 91.524733 228.748957 
L 92.246363 228.748957 
L 92.246363 228.323941 
L 93.689622 228.295042 
L 93.689622 228.174014 
L 94.411251 228.174014 
L 94.411251 228.330324 
L 97.297769 228.377488 
L 97.297769 228.820831 
L 98.019399 228.820831 
L 98.019399 228.439458 
L 98.741028 228.439458 
L 98.741028 229.317483 
L 99.462658 229.317483 
L 99.462658 229.166788 
L 100.905917 229.253015 
L 100.905917 229.754399 
L 102.349176 229.844359 
L 102.349176 230.375517 
L 103.070805 230.375517 
L 103.070805 230.576498 
L 103.792435 230.576498 
L 103.792435 230.851384 
L 104.514064 230.851384 
L 104.514064 231.33878 
L 105.235694 231.33878 
L 105.235694 231.704089 
L 105.957323 231.704089 
L 105.957323 231.859458 
L 106.678952 231.859458 
L 106.678952 232.487579 
L 107.400582 232.487579 
L 107.400582 232.79781 
L 108.122211 232.79781 
L 108.122211 233.499349 
L 108.843841 233.499349 
L 108.843841 233.656261 
L 109.56547 233.656261 
L 109.56547 233.986074 
L 110.2871 233.986074 
L 110.2871 234.326432 
L 111.008729 234.326432 
L 111.008729 234.789979 
L 111.730359 234.789979 
L 111.730359 235.267916 
L 112.451988 235.267916 
L 112.451988 235.609564 
L 113.173618 235.609564 
L 113.173618 235.93989 
L 113.895247 235.93989 
L 113.895247 236.209138 
L 114.616877 236.209138 
L 114.616877 236.565739 
L 116.060136 236.640666 
L 116.060136 237.008378 
L 116.781765 237.008378 
L 116.781765 237.259658 
L 117.503395 237.259658 
L 117.503395 237.466841 
L 118.225024 237.466841 
L 118.225024 237.603063 
L 118.946654 237.603063 
L 118.946654 237.80903 
L 120.389913 237.894473 
L 120.389913 238.240923 
L 122.554801 238.273522 
L 122.554801 238.37562 
L 124.71969 238.465332 
L 124.71969 238.607433 
L 126.162949 238.569312 
L 126.162949 238.443283 
L 133.379243 238.349736 
L 133.379243 238.126144 
L 137.70902 238.135124 
L 137.70902 238.009573 
L 138.43065 238.009573 
L 138.43065 237.793742 
L 139.152279 237.793742 
L 139.152279 237.922961 
L 140.595538 237.898232 
L 140.595538 237.681517 
L 142.038797 237.765194 
L 142.038797 237.813196 
L 142.760427 237.813196 
L 142.760427 237.453018 
L 144.203686 237.539975 
L 144.203686 237.661409 
L 144.925315 237.661409 
L 144.925315 237.4723 
L 145.646945 237.4723 
L 145.646945 237.309459 
L 146.368574 237.309459 
L 146.368574 237.456262 
L 147.811833 237.348914 
L 147.811833 237.091606 
L 149.255092 237.180164 
L 149.255092 237.219167 
L 149.976722 237.219167 
L 149.976722 237.011419 
L 150.698351 237.011419 
L 150.698351 237.128882 
L 152.14161 237.167875 
L 152.14161 236.861804 
L 152.86324 236.861804 
L 152.86324 236.689287 
L 155.028128 236.746801 
L 155.028128 236.522272 
L 157.193016 236.479201 
L 157.193016 236.214797 
L 157.914646 236.214797 
L 157.914646 236.07199 
L 159.357905 236.146203 
L 159.357905 235.857358 
L 160.801164 235.763612 
L 160.801164 235.727321 
L 161.522793 235.727321 
L 161.522793 235.462203 
L 162.244423 235.462203 
L 162.244423 235.215876 
L 164.409311 235.190354 
L 164.409311 234.732836 
L 166.5742 234.645733 
L 166.5742 234.103371 
L 167.295829 234.103371 
L 167.295829 233.882595 
L 168.739088 233.943715 
L 168.739088 233.48463 
L 169.460718 233.48463 
L 169.460718 233.214832 
L 170.903977 233.308371 
L 170.903977 232.974911 
L 171.625606 232.974911 
L 171.625606 232.645341 
L 172.347236 232.645341 
L 172.347236 232.422528 
L 173.068865 232.422528 
L 173.068865 232.285717 
L 173.790495 232.285717 
L 173.790495 231.979729 
L 174.512124 231.979729 
L 174.512124 231.822569 
L 175.955383 231.826382 
L 175.955383 231.636495 
L 176.677013 231.636495 
L 176.677013 231.365166 
L 177.398642 231.365166 
L 177.398642 231.155494 
L 178.841901 231.113642 
L 178.841901 230.79443 
L 180.28516 230.783942 
L 180.28516 230.648543 
L 181.00679 230.648543 
L 181.00679 230.498649 
L 181.728419 230.498649 
L 181.728419 230.683017 
L 183.171678 230.594339 
L 183.171678 230.551723 
L 185.336566 230.564955 
L 185.336566 230.827307 
L 186.058196 230.827307 
L 186.058196 230.979739 
L 186.779825 230.979739 
L 186.779825 231.092031 
L 187.501455 231.092031 
L 187.501455 231.341429 
L 188.223084 231.341429 
L 188.223084 231.226041 
L 188.944714 231.226041 
L 188.944714 231.490405 
L 189.666343 231.490405 
L 189.666343 231.91069 
L 191.109602 231.884853 
L 191.109602 232.247818 
L 191.831232 232.247818 
L 191.831232 232.745913 
L 192.552861 232.745913 
L 192.552861 232.922805 
L 193.274491 232.922805 
L 193.274491 233.148676 
L 193.99612 233.148676 
L 193.99612 233.523403 
L 194.71775 233.523403 
L 194.71775 233.958631 
L 195.439379 233.958631 
L 195.439379 234.344381 
L 196.161009 234.344381 
L 196.161009 234.656087 
L 196.882638 234.656087 
L 196.882638 235.115 
L 197.604268 235.115 
L 197.604268 235.33009 
L 198.325897 235.33009 
L 198.325897 235.680204 
L 199.047527 235.680204 
L 199.047527 236.16784 
L 199.769156 236.16784 
L 199.769156 236.297514 
L 200.490786 236.297514 
L 200.490786 236.638744 
L 201.212415 236.638744 
L 201.212415 236.981444 
L 201.934045 236.981444 
L 201.934045 237.381113 
L 202.655674 237.381113 
L 202.655674 237.690889 
L 203.377304 237.690889 
L 203.377304 237.960966 
L 204.098933 237.960966 
L 204.098933 238.286018 
L 204.820563 238.286018 
L 204.820563 238.532377 
L 205.542192 238.532377 
L 205.542192 238.844678 
L 206.263822 238.844678 
L 206.263822 239.114005 
L 206.985451 239.114005 
L 206.985451 239.366407 
L 207.707081 239.366407 
L 207.707081 239.513767 
L 208.42871 239.513767 
L 208.42871 239.735175 
L 209.150339 239.735175 
L 209.150339 239.925886 
L 210.593598 240.03529 
L 210.593598 240.19473 
L 211.315228 240.19473 
L 211.315228 240.34569 
L 212.036857 240.34569 
L 212.036857 240.459079 
L 212.758487 240.459079 
L 212.758487 240.579729 
L 214.201746 240.673669 
L 214.201746 240.818955 
L 216.366634 240.846558 
L 216.366634 240.978721 
L 220.696411 241.029407 
L 220.696411 241.123853 
L 223.582929 241.151683 
L 223.582929 241.238562 
L 225.026188 241.218766 
L 225.026188 241.079591 
L 225.747818 241.079591 
L 225.747818 241.195499 
L 230.077595 241.252025 
L 230.077595 241.324972 
L 235.129001 241.403088 
L 235.129001 241.441089 
L 239.458778 241.526802 
L 239.458778 241.576332 
L 245.953443 241.684372 
L 245.953443 241.698197 
L 370.795344 241.755073 
L 370.795344 241.770338 
" style="fill:none;stroke:#2ca02c;stroke-linecap:square;stroke-width:1.5;"/>
   </g>
   <g id="patch_3">
    <path d="M 54 252 
L 54 34.56 
" style="fill:none;stroke:#000000;stroke-linecap:square;stroke-linejoin:miter;stroke-width:0.8;"/>
   </g>
   <g id="patch_4">
    <path d="M 388.8 252 
L 388.8 34.56 
" style="fill:none;stroke:#000000;stroke-linecap:square;stroke-linejoin:miter;stroke-width:0.8;"/>
   </g>
   <g id="patch_5">
    <path d="M 54 252 
L 388.8 252 
" style="fill:none;stroke:#000000;stroke-linecap:square;stroke-linejoin:miter;stroke-width:0.8;"/>
   </g>
   <g id="patch_6">
    <path d="M 54 34.56 
L 388.8 34.56 
" style="fill:none;stroke:#000000;stroke-linecap:square;stroke-linejoin:miter;stroke-width:0.8;"/>
   </g>
   <g id="legend_1">
    <g id="patch_7">
     <path d="M 332.254688 86.594375 
L 381.8 86.594375 
Q 383.8 86.594375 383.8 84.594375 
L 383.8 41.56 
Q 383.8 39.56 381.8 39.56 
L 332.254688 39.56 
Q 330.254688 39.56 330.254688 41.56 
L 330.254688 84.594375 
Q 330.254688 86.594375 332.254688 86.594375 
z
" style="fill:#ffffff;opacity:0.8;stroke:#cccccc;stroke-linejoin:miter;"/>
    </g>
    <g id="line2d_19">
     <path d="M 334.254688 47.658438 
L 354.254688 47.658438 
" style="fill:none;stroke:#1f77b4;stroke-linecap:square;stroke-width:1.5;"/>
    </g>
    <g id="line2d_20"/>
    <g id="text_14">
     <!-- vac -->
     <defs>
      <path d="M 2.984375 54.6875 
L 12.5 54.6875 
L 29.59375 8.796875 
L 46.6875 54.6875 
L 56.203125 54.6875 
L 35.6875 0 
L 23.484375 0 
z
" id="DejaVuSans-76"/>
      <path d="M 34.28125 27.484375 
Q 23.390625 27.484375 19.1875 25 
Q 14.984375 22.515625 14.984375 16.5 
Q 14.984375 11.71875 18.140625 8.90625 
Q 21.296875 6.109375 26.703125 6.109375 
Q 34.1875 6.109375 38.703125 11.40625 
Q 43.21875 16.703125 43.21875 25.484375 
L 43.21875 27.484375 
z
M 52.203125 31.203125 
L 52.203125 0 
L 43.21875 0 
L 43.21875 8.296875 
Q 40.140625 3.328125 35.546875 0.953125 
Q 30.953125 -1.421875 24.3125 -1.421875 
Q 15.921875 -1.421875 10.953125 3.296875 
Q 6 8.015625 6 15.921875 
Q 6 25.140625 12.171875 29.828125 
Q 18.359375 34.515625 30.609375 34.515625 
L 43.21875 34.515625 
L 43.21875 35.40625 
Q 43.21875 41.609375 39.140625 45 
Q 35.0625 48.390625 27.6875 48.390625 
Q 23 48.390625 18.546875 47.265625 
Q 14.109375 46.140625 10.015625 43.890625 
L 10.015625 52.203125 
Q 14.9375 54.109375 19.578125 55.046875 
Q 24.21875 56 28.609375 56 
Q 40.484375 56 46.34375 49.84375 
Q 52.203125 43.703125 52.203125 31.203125 
z
" id="DejaVuSans-61"/>
      <path d="M 48.78125 52.59375 
L 48.78125 44.1875 
Q 44.96875 46.296875 41.140625 47.34375 
Q 37.3125 48.390625 33.40625 48.390625 
Q 24.65625 48.390625 19.8125 42.84375 
Q 14.984375 37.3125 14.984375 27.296875 
Q 14.984375 17.28125 19.8125 11.734375 
Q 24.65625 6.203125 33.40625 6.203125 
Q 37.3125 6.203125 41.140625 7.25 
Q 44.96875 8.296875 48.78125 10.40625 
L 48.78125 2.09375 
Q 45.015625 0.34375 40.984375 -0.53125 
Q 36.96875 -1.421875 32.421875 -1.421875 
Q 20.0625 -1.421875 12.78125 6.34375 
Q 5.515625 14.109375 5.515625 27.296875 
Q 5.515625 40.671875 12.859375 48.328125 
Q 20.21875 56 33.015625 56 
Q 37.15625 56 41.109375 55.140625 
Q 45.0625 54.296875 48.78125 52.59375 
z
" id="DejaVuSans-63"/>
     </defs>
     <g transform="translate(362.254688 51.158438)scale(0.1 -0.1)">
      <use xlink:href="#DejaVuSans-76"/>
      <use x="59.179688" xlink:href="#DejaVuSans-61"/>
      <use x="120.458984" xlink:href="#DejaVuSans-63"/>
     </g>
    </g>
    <g id="line2d_21">
     <path d="M 334.254688 62.336563 
L 354.254688 62.336563 
" style="fill:none;stroke:#ff7f0e;stroke-linecap:square;stroke-width:1.5;"/>
    </g>
    <g id="line2d_22"/>
    <g id="text_15">
     <!-- al -->
     <defs>
      <path d="M 9.421875 75.984375 
L 18.40625 75.984375 
L 18.40625 0 
L 9.421875 0 
z
" id="DejaVuSans-6c"/>
     </defs>
     <g transform="translate(362.254688 65.836563)scale(0.1 -0.1)">
      <use xlink:href="#DejaVuSans-61"/>
      <use x="61.279297" xlink:href="#DejaVuSans-6c"/>
     </g>
    </g>
    <g id="line2d_23">
     <path d="M 334.254688 77.014688 
L 354.254688 77.014688 
" style="fill:none;stroke:#2ca02c;stroke-linecap:square;stroke-width:1.5;"/>
    </g>
    <g id="line2d_24"/>
    <g id="text_16">
     <!-- sn -->
     <g transform="translate(362.254688 80.514688)scale(0.1 -0.1)">
      <use xlink:href="#DejaVuSans-73"/>
      <use x="52.099609" xlink:href="#DejaVuSans-6e"/>
     </g>
    </g>
   </g>
  </g>
 </g>
 <defs>
  <clipPath id="p8e1564b2b0">
   <rect height="217.44" width="334.8" x="54" y="34.56"/>
  </clipPath>
 </defs>
</svg>
