<?xml version="1.0" encoding="utf-8" standalone="no"?>
<!DOCTYPE svg PUBLIC "-//W3C//DTD SVG 1.1//EN"
  "http://www.w3.org/Graphics/SVG/1.1/DTD/svg11.dtd">
<!-- Created with matplotlib (http://matplotlib.org/) -->
<svg height="288pt" version="1.1" viewBox="0 0 432 288" width="432pt" xmlns="http://www.w3.org/2000/svg" xmlns:xlink="http://www.w3.org/1999/xlink">
 <defs>
  <style type="text/css">
*{stroke-linecap:butt;stroke-linejoin:round;}
  </style>
 </defs>
 <g id="figure_1">
  <g id="patch_1">
   <path d="M 0 288 
L 432 288 
L 432 0 
L 0 0 
z
" style="fill:#ffffff;"/>
  </g>
  <g id="axes_1">
   <g id="patch_2">
    <path d="M 54 252 
L 388.8 252 
L 388.8 34.56 
L 54 34.56 
z
" style="fill:#eaeaf2;"/>
   </g>
   <g id="matplotlib.axis_1">
    <g id="xtick_1">
     <g id="line2d_1">
      <path clip-path="url(#p3126e8a4bc)" d="M 54 252 
L 54 34.56 
" style="fill:none;stroke:#ffffff;stroke-linecap:round;"/>
     </g>
     <g id="line2d_2"/>
     <g id="text_1">
      <!-- 10 -->
      <defs>
       <path d="M 7.625 0 
L 7.625 7.46875 
L 25.140625 7.46875 
L 25.140625 60.40625 
L 9.625 49.3125 
L 9.625 57.625 
L 25.875 68.796875 
L 33.984375 68.796875 
L 33.984375 7.46875 
L 50.734375 7.46875 
L 50.734375 0 
z
" id="LiberationSans-31"/>
       <path d="M 51.703125 34.421875 
Q 51.703125 24.515625 49.828125 17.75 
Q 47.953125 10.984375 44.703125 6.8125 
Q 41.453125 2.640625 37.0625 0.828125 
Q 32.671875 -0.984375 27.6875 -0.984375 
Q 22.65625 -0.984375 18.3125 0.828125 
Q 13.96875 2.640625 10.765625 6.78125 
Q 7.5625 10.9375 5.734375 17.703125 
Q 3.90625 24.46875 3.90625 34.421875 
Q 3.90625 44.828125 5.734375 51.640625 
Q 7.5625 58.453125 10.78125 62.5 
Q 14.015625 66.546875 18.40625 68.1875 
Q 22.796875 69.828125 27.984375 69.828125 
Q 32.90625 69.828125 37.21875 68.1875 
Q 41.546875 66.546875 44.765625 62.5 
Q 48 58.453125 49.84375 51.640625 
Q 51.703125 44.828125 51.703125 34.421875 
z
M 42.78125 34.421875 
Q 42.78125 42.625 41.796875 48.0625 
Q 40.828125 53.515625 38.921875 56.765625 
Q 37.015625 60.015625 34.25 61.359375 
Q 31.5 62.703125 27.984375 62.703125 
Q 24.265625 62.703125 21.4375 61.328125 
Q 18.609375 59.96875 16.671875 56.71875 
Q 14.75 53.46875 13.765625 48.015625 
Q 12.796875 42.578125 12.796875 34.421875 
Q 12.796875 26.515625 13.796875 21.09375 
Q 14.796875 15.671875 16.71875 12.375 
Q 18.65625 9.078125 21.4375 7.640625 
Q 24.21875 6.203125 27.78125 6.203125 
Q 31.25 6.203125 34.03125 7.640625 
Q 36.8125 9.078125 38.734375 12.375 
Q 40.671875 15.671875 41.71875 21.09375 
Q 42.78125 26.515625 42.78125 34.421875 
z
" id="LiberationSans-30"/>
      </defs>
      <g style="fill:#262626;" transform="translate(48.439062 266.246875)scale(0.1 -0.1)">
       <use xlink:href="#LiberationSans-31"/>
       <use x="55.615234" xlink:href="#LiberationSans-30"/>
      </g>
     </g>
    </g>
    <g id="xtick_2">
     <g id="line2d_3">
      <path clip-path="url(#p3126e8a4bc)" d="M 91.2 252 
L 91.2 34.56 
" style="fill:none;stroke:#ffffff;stroke-linecap:round;"/>
     </g>
     <g id="line2d_4"/>
     <g id="text_2">
      <!-- 20 -->
      <defs>
       <path d="M 5.03125 0 
L 5.03125 6.203125 
Q 7.515625 11.921875 11.109375 16.28125 
Q 14.703125 20.65625 18.65625 24.1875 
Q 22.609375 27.734375 26.484375 30.765625 
Q 30.375 33.796875 33.5 36.8125 
Q 36.625 39.84375 38.546875 43.15625 
Q 40.484375 46.484375 40.484375 50.6875 
Q 40.484375 53.609375 39.59375 55.828125 
Q 38.71875 58.0625 37.0625 59.5625 
Q 35.40625 61.078125 33.078125 61.828125 
Q 30.765625 62.59375 27.9375 62.59375 
Q 25.296875 62.59375 22.96875 61.859375 
Q 20.65625 61.140625 18.84375 59.671875 
Q 17.046875 58.203125 15.890625 56.03125 
Q 14.75 53.859375 14.40625 50.984375 
L 5.421875 51.8125 
Q 5.859375 55.515625 7.46875 58.78125 
Q 9.078125 62.0625 11.90625 64.53125 
Q 14.75 67 18.71875 68.40625 
Q 22.703125 69.828125 27.9375 69.828125 
Q 33.0625 69.828125 37.0625 68.609375 
Q 41.0625 67.390625 43.8125 64.984375 
Q 46.578125 62.59375 48.046875 59.078125 
Q 49.515625 55.5625 49.515625 50.984375 
Q 49.515625 47.515625 48.265625 44.390625 
Q 47.015625 41.265625 44.9375 38.421875 
Q 42.875 35.59375 40.140625 32.953125 
Q 37.40625 30.328125 34.421875 27.8125 
Q 31.453125 25.296875 28.421875 22.828125 
Q 25.390625 20.359375 22.71875 17.859375 
Q 20.0625 15.375 17.96875 12.8125 
Q 15.875 10.25 14.703125 7.46875 
L 50.59375 7.46875 
L 50.59375 0 
z
" id="LiberationSans-32"/>
      </defs>
      <g style="fill:#262626;" transform="translate(85.639063 266.246875)scale(0.1 -0.1)">
       <use xlink:href="#LiberationSans-32"/>
       <use x="55.615234" xlink:href="#LiberationSans-30"/>
      </g>
     </g>
    </g>
    <g id="xtick_3">
     <g id="line2d_5">
      <path clip-path="url(#p3126e8a4bc)" d="M 128.4 252 
L 128.4 34.56 
" style="fill:none;stroke:#ffffff;stroke-linecap:round;"/>
     </g>
     <g id="line2d_6"/>
     <g id="text_3">
      <!-- 30 -->
      <defs>
       <path d="M 51.21875 19 
Q 51.21875 14.265625 49.671875 10.546875 
Q 48.140625 6.84375 45.1875 4.265625 
Q 42.234375 1.703125 37.859375 0.359375 
Q 33.5 -0.984375 27.875 -0.984375 
Q 21.484375 -0.984375 17.109375 0.609375 
Q 12.75 2.203125 9.90625 4.8125 
Q 7.078125 7.421875 5.65625 10.765625 
Q 4.25 14.109375 3.8125 17.671875 
L 12.890625 18.5 
Q 13.28125 15.765625 14.328125 13.515625 
Q 15.375 11.28125 17.1875 9.671875 
Q 19 8.0625 21.625 7.171875 
Q 24.265625 6.296875 27.875 6.296875 
Q 34.515625 6.296875 38.296875 9.5625 
Q 42.09375 12.84375 42.09375 19.28125 
Q 42.09375 23.09375 40.40625 25.40625 
Q 38.71875 27.734375 36.203125 29.03125 
Q 33.6875 30.328125 30.734375 30.765625 
Q 27.78125 31.203125 25.296875 31.203125 
L 20.3125 31.203125 
L 20.3125 38.8125 
L 25.09375 38.8125 
Q 27.59375 38.8125 30.265625 39.328125 
Q 32.953125 39.84375 35.171875 41.1875 
Q 37.40625 42.53125 38.84375 44.828125 
Q 40.28125 47.125 40.28125 50.6875 
Q 40.28125 56.203125 37.03125 59.390625 
Q 33.796875 62.59375 27.390625 62.59375 
Q 21.578125 62.59375 17.984375 59.609375 
Q 14.40625 56.640625 13.8125 51.21875 
L 4.984375 51.90625 
Q 5.515625 56.453125 7.46875 59.8125 
Q 9.421875 63.1875 12.421875 65.40625 
Q 15.4375 67.625 19.28125 68.71875 
Q 23.140625 69.828125 27.484375 69.828125 
Q 33.25 69.828125 37.390625 68.375 
Q 41.546875 66.9375 44.1875 64.46875 
Q 46.828125 62.015625 48.0625 58.6875 
Q 49.3125 55.375 49.3125 51.609375 
Q 49.3125 48.578125 48.484375 45.9375 
Q 47.65625 43.3125 45.890625 41.203125 
Q 44.140625 39.109375 41.421875 37.59375 
Q 38.71875 36.078125 34.90625 35.296875 
L 34.90625 35.109375 
Q 39.0625 34.671875 42.140625 33.21875 
Q 45.21875 31.78125 47.21875 29.625 
Q 49.21875 27.484375 50.21875 24.75 
Q 51.21875 22.015625 51.21875 19 
z
" id="LiberationSans-33"/>
      </defs>
      <g style="fill:#262626;" transform="translate(122.839063 266.246875)scale(0.1 -0.1)">
       <use xlink:href="#LiberationSans-33"/>
       <use x="55.615234" xlink:href="#LiberationSans-30"/>
      </g>
     </g>
    </g>
    <g id="xtick_4">
     <g id="line2d_7">
      <path clip-path="url(#p3126e8a4bc)" d="M 165.6 252 
L 165.6 34.56 
" style="fill:none;stroke:#ffffff;stroke-linecap:round;"/>
     </g>
     <g id="line2d_8"/>
     <g id="text_4">
      <!-- 40 -->
      <defs>
       <path d="M 43.015625 15.578125 
L 43.015625 0 
L 34.71875 0 
L 34.71875 15.578125 
L 2.296875 15.578125 
L 2.296875 22.40625 
L 33.796875 68.796875 
L 43.015625 68.796875 
L 43.015625 22.515625 
L 52.6875 22.515625 
L 52.6875 15.578125 
z
M 34.71875 58.890625 
Q 34.625 58.640625 34.234375 57.9375 
Q 33.84375 57.234375 33.34375 56.34375 
Q 32.859375 55.46875 32.34375 54.5625 
Q 31.84375 53.65625 31.453125 53.078125 
L 13.8125 27.09375 
Q 13.578125 26.703125 13.109375 26.0625 
Q 12.640625 25.4375 12.15625 24.78125 
Q 11.671875 24.125 11.171875 23.484375 
Q 10.6875 22.859375 10.40625 22.515625 
L 34.71875 22.515625 
z
" id="LiberationSans-34"/>
      </defs>
      <g style="fill:#262626;" transform="translate(160.039063 266.246875)scale(0.1 -0.1)">
       <use xlink:href="#LiberationSans-34"/>
       <use x="55.615234" xlink:href="#LiberationSans-30"/>
      </g>
     </g>
    </g>
    <g id="xtick_5">
     <g id="line2d_9">
      <path clip-path="url(#p3126e8a4bc)" d="M 202.8 252 
L 202.8 34.56 
" style="fill:none;stroke:#ffffff;stroke-linecap:round;"/>
     </g>
     <g id="line2d_10"/>
     <g id="text_5">
      <!-- 50 -->
      <defs>
       <path d="M 51.421875 22.40625 
Q 51.421875 17.234375 49.859375 12.9375 
Q 48.296875 8.640625 45.21875 5.53125 
Q 42.140625 2.4375 37.578125 0.71875 
Q 33.015625 -0.984375 27 -0.984375 
Q 21.578125 -0.984375 17.546875 0.28125 
Q 13.53125 1.5625 10.734375 3.78125 
Q 7.953125 6 6.3125 8.984375 
Q 4.6875 11.96875 4 15.375 
L 12.890625 16.40625 
Q 13.421875 14.453125 14.390625 12.625 
Q 15.375 10.796875 17.0625 9.34375 
Q 18.75 7.90625 21.21875 7.046875 
Q 23.6875 6.203125 27.203125 6.203125 
Q 30.609375 6.203125 33.390625 7.25 
Q 36.1875 8.296875 38.15625 10.34375 
Q 40.140625 12.40625 41.203125 15.375 
Q 42.28125 18.359375 42.28125 22.21875 
Q 42.28125 25.390625 41.25 28.046875 
Q 40.234375 30.71875 38.328125 32.640625 
Q 36.421875 34.578125 33.65625 35.640625 
Q 30.90625 36.71875 27.390625 36.71875 
Q 25.203125 36.71875 23.34375 36.328125 
Q 21.484375 35.9375 19.890625 35.25 
Q 18.3125 34.578125 17.015625 33.671875 
Q 15.71875 32.765625 14.59375 31.78125 
L 6 31.78125 
L 8.296875 68.796875 
L 47.40625 68.796875 
L 47.40625 61.328125 
L 16.3125 61.328125 
L 14.984375 39.5 
Q 17.328125 41.3125 20.84375 42.59375 
Q 24.359375 43.890625 29.203125 43.890625 
Q 34.328125 43.890625 38.421875 42.328125 
Q 42.53125 40.765625 45.40625 37.90625 
Q 48.296875 35.0625 49.859375 31.109375 
Q 51.421875 27.15625 51.421875 22.40625 
z
" id="LiberationSans-35"/>
      </defs>
      <g style="fill:#262626;" transform="translate(197.239063 266.246875)scale(0.1 -0.1)">
       <use xlink:href="#LiberationSans-35"/>
       <use x="55.615234" xlink:href="#LiberationSans-30"/>
      </g>
     </g>
    </g>
    <g id="xtick_6">
     <g id="line2d_11">
      <path clip-path="url(#p3126e8a4bc)" d="M 240 252 
L 240 34.56 
" style="fill:none;stroke:#ffffff;stroke-linecap:round;"/>
     </g>
     <g id="line2d_12"/>
     <g id="text_6">
      <!-- 60 -->
      <defs>
       <path d="M 51.21875 22.515625 
Q 51.21875 17.328125 49.78125 13 
Q 48.34375 8.6875 45.53125 5.578125 
Q 42.71875 2.484375 38.5625 0.75 
Q 34.421875 -0.984375 29 -0.984375 
Q 23 -0.984375 18.5 1.3125 
Q 14.015625 3.609375 11.03125 7.921875 
Q 8.0625 12.25 6.5625 18.53125 
Q 5.078125 24.8125 5.078125 32.8125 
Q 5.078125 42 6.765625 48.921875 
Q 8.453125 55.859375 11.625 60.5 
Q 14.796875 65.140625 19.359375 67.484375 
Q 23.921875 69.828125 29.6875 69.828125 
Q 33.203125 69.828125 36.28125 69.09375 
Q 39.359375 68.359375 41.875 66.71875 
Q 44.390625 65.09375 46.28125 62.40625 
Q 48.1875 59.71875 49.3125 55.8125 
L 40.921875 54.296875 
Q 39.546875 58.734375 36.546875 60.71875 
Q 33.546875 62.703125 29.59375 62.703125 
Q 25.984375 62.703125 23.046875 60.984375 
Q 20.125 59.28125 18.0625 55.875 
Q 16.015625 52.484375 14.90625 47.359375 
Q 13.8125 42.234375 13.8125 35.40625 
Q 16.21875 39.84375 20.5625 42.15625 
Q 24.90625 44.484375 30.515625 44.484375 
Q 35.203125 44.484375 39.015625 42.96875 
Q 42.828125 41.453125 45.53125 38.59375 
Q 48.25 35.75 49.734375 31.671875 
Q 51.21875 27.59375 51.21875 22.515625 
z
M 42.28125 22.125 
Q 42.28125 25.6875 41.40625 28.5625 
Q 40.53125 31.453125 38.765625 33.46875 
Q 37.015625 35.5 34.421875 36.59375 
Q 31.84375 37.703125 28.421875 37.703125 
Q 26.03125 37.703125 23.578125 36.984375 
Q 21.140625 36.28125 19.15625 34.6875 
Q 17.1875 33.109375 15.9375 30.515625 
Q 14.703125 27.9375 14.703125 24.21875 
Q 14.703125 20.40625 15.671875 17.109375 
Q 16.65625 13.8125 18.484375 11.375 
Q 20.3125 8.9375 22.890625 7.515625 
Q 25.484375 6.109375 28.71875 6.109375 
Q 31.890625 6.109375 34.40625 7.203125 
Q 36.921875 8.296875 38.671875 10.375 
Q 40.4375 12.453125 41.359375 15.421875 
Q 42.28125 18.40625 42.28125 22.125 
z
" id="LiberationSans-36"/>
      </defs>
      <g style="fill:#262626;" transform="translate(234.439063 266.246875)scale(0.1 -0.1)">
       <use xlink:href="#LiberationSans-36"/>
       <use x="55.615234" xlink:href="#LiberationSans-30"/>
      </g>
     </g>
    </g>
    <g id="xtick_7">
     <g id="line2d_13">
      <path clip-path="url(#p3126e8a4bc)" d="M 277.2 252 
L 277.2 34.56 
" style="fill:none;stroke:#ffffff;stroke-linecap:round;"/>
     </g>
     <g id="line2d_14"/>
     <g id="text_7">
      <!-- 70 -->
      <defs>
       <path d="M 50.59375 61.671875 
Q 45.40625 53.765625 41.0625 46.453125 
Q 36.71875 39.15625 33.59375 31.75 
Q 30.46875 24.359375 28.734375 16.578125 
Q 27 8.796875 27 0 
L 17.828125 0 
Q 17.828125 8.25 19.78125 16.1875 
Q 21.734375 24.125 25.046875 31.765625 
Q 28.375 39.40625 32.765625 46.78125 
Q 37.15625 54.15625 42.09375 61.328125 
L 5.125 61.328125 
L 5.125 68.796875 
L 50.59375 68.796875 
z
" id="LiberationSans-37"/>
      </defs>
      <g style="fill:#262626;" transform="translate(271.639063 266.246875)scale(0.1 -0.1)">
       <use xlink:href="#LiberationSans-37"/>
       <use x="55.615234" xlink:href="#LiberationSans-30"/>
      </g>
     </g>
    </g>
    <g id="xtick_8">
     <g id="line2d_15">
      <path clip-path="url(#p3126e8a4bc)" d="M 314.4 252 
L 314.4 34.56 
" style="fill:none;stroke:#ffffff;stroke-linecap:round;"/>
     </g>
     <g id="line2d_16"/>
     <g id="text_8">
      <!-- 80 -->
      <defs>
       <path d="M 51.265625 19.1875 
Q 51.265625 14.796875 49.875 11.109375 
Q 48.484375 7.421875 45.625 4.734375 
Q 42.78125 2.046875 38.328125 0.53125 
Q 33.890625 -0.984375 27.828125 -0.984375 
Q 21.78125 -0.984375 17.359375 0.53125 
Q 12.9375 2.046875 10.03125 4.703125 
Q 7.125 7.375 5.734375 11.0625 
Q 4.34375 14.75 4.34375 19.09375 
Q 4.34375 22.859375 5.484375 25.78125 
Q 6.640625 28.71875 8.5625 30.828125 
Q 10.5 32.953125 12.96875 34.25 
Q 15.4375 35.546875 18.0625 35.984375 
L 18.0625 36.1875 
Q 15.1875 36.859375 12.90625 38.375 
Q 10.640625 39.890625 9.09375 42.015625 
Q 7.5625 44.140625 6.75 46.71875 
Q 5.953125 49.3125 5.953125 52.203125 
Q 5.953125 55.8125 7.34375 59 
Q 8.734375 62.203125 11.46875 64.625 
Q 14.203125 67.046875 18.25 68.4375 
Q 22.3125 69.828125 27.640625 69.828125 
Q 33.25 69.828125 37.375 68.40625 
Q 41.5 67 44.203125 64.578125 
Q 46.921875 62.15625 48.234375 58.9375 
Q 49.5625 55.71875 49.5625 52.09375 
Q 49.5625 49.265625 48.75 46.671875 
Q 47.953125 44.09375 46.40625 41.96875 
Q 44.875 39.84375 42.59375 38.34375 
Q 40.328125 36.859375 37.359375 36.28125 
L 37.359375 36.078125 
Q 40.328125 35.59375 42.859375 34.296875 
Q 45.40625 33.015625 47.265625 30.890625 
Q 49.125 28.765625 50.1875 25.828125 
Q 51.265625 22.90625 51.265625 19.1875 
z
M 40.4375 51.609375 
Q 40.4375 54.203125 39.765625 56.34375 
Q 39.109375 58.5 37.59375 60.03125 
Q 36.078125 61.578125 33.640625 62.421875 
Q 31.203125 63.28125 27.640625 63.28125 
Q 24.171875 63.28125 21.78125 62.421875 
Q 19.390625 61.578125 17.84375 60.03125 
Q 16.3125 58.5 15.625 56.34375 
Q 14.9375 54.203125 14.9375 51.609375 
Q 14.9375 49.5625 15.46875 47.40625 
Q 16.015625 45.265625 17.421875 43.5 
Q 18.84375 41.75 21.328125 40.625 
Q 23.828125 39.5 27.734375 39.5 
Q 31.890625 39.5 34.40625 40.625 
Q 36.921875 41.75 38.25 43.5 
Q 39.59375 45.265625 40.015625 47.40625 
Q 40.4375 49.5625 40.4375 51.609375 
z
M 42.140625 20.015625 
Q 42.140625 22.515625 41.453125 24.828125 
Q 40.765625 27.15625 39.109375 28.9375 
Q 37.453125 30.71875 34.640625 31.8125 
Q 31.84375 32.90625 27.640625 32.90625 
Q 23.78125 32.90625 21.0625 31.8125 
Q 18.359375 30.71875 16.671875 28.90625 
Q 14.984375 27.09375 14.203125 24.71875 
Q 13.421875 22.359375 13.421875 19.828125 
Q 13.421875 16.65625 14.203125 14.03125 
Q 14.984375 11.421875 16.6875 9.546875 
Q 18.40625 7.671875 21.1875 6.640625 
Q 23.96875 5.609375 27.9375 5.609375 
Q 31.9375 5.609375 34.671875 6.640625 
Q 37.40625 7.671875 39.0625 9.546875 
Q 40.71875 11.421875 41.421875 14.078125 
Q 42.140625 16.75 42.140625 20.015625 
z
" id="LiberationSans-38"/>
      </defs>
      <g style="fill:#262626;" transform="translate(308.839063 266.246875)scale(0.1 -0.1)">
       <use xlink:href="#LiberationSans-38"/>
       <use x="55.615234" xlink:href="#LiberationSans-30"/>
      </g>
     </g>
    </g>
    <g id="xtick_9">
     <g id="line2d_17">
      <path clip-path="url(#p3126e8a4bc)" d="M 351.6 252 
L 351.6 34.56 
" style="fill:none;stroke:#ffffff;stroke-linecap:round;"/>
     </g>
     <g id="line2d_18"/>
     <g id="text_9">
      <!-- 90 -->
      <defs>
       <path d="M 50.875 35.796875 
Q 50.875 26.609375 49.140625 19.703125 
Q 47.40625 12.796875 44.1875 8.203125 
Q 40.96875 3.609375 36.34375 1.3125 
Q 31.734375 -0.984375 25.984375 -0.984375 
Q 22.015625 -0.984375 18.84375 -0.171875 
Q 15.671875 0.640625 13.171875 2.34375 
Q 10.6875 4.046875 8.921875 6.78125 
Q 7.171875 9.515625 6.109375 13.375 
L 14.5 14.703125 
Q 15.875 10.25 18.78125 8.171875 
Q 21.6875 6.109375 26.125 6.109375 
Q 29.6875 6.109375 32.640625 7.78125 
Q 35.59375 9.46875 37.671875 12.84375 
Q 39.75 16.21875 40.921875 21.296875 
Q 42.09375 26.375 42.1875 33.203125 
Q 41.15625 30.90625 39.375 29.09375 
Q 37.59375 27.296875 35.328125 26.046875 
Q 33.0625 24.8125 30.421875 24.140625 
Q 27.78125 23.484375 25.09375 23.484375 
Q 20.40625 23.484375 16.625 25.171875 
Q 12.84375 26.859375 10.203125 29.875 
Q 7.5625 32.90625 6.125 37.171875 
Q 4.6875 41.453125 4.6875 46.6875 
Q 4.6875 52 6.21875 56.296875 
Q 7.765625 60.59375 10.6875 63.59375 
Q 13.625 66.609375 17.890625 68.21875 
Q 22.171875 69.828125 27.59375 69.828125 
Q 39.0625 69.828125 44.96875 61.328125 
Q 50.875 52.828125 50.875 35.796875 
z
M 41.3125 44.28125 
Q 41.3125 48.09375 40.40625 51.453125 
Q 39.5 54.828125 37.71875 57.3125 
Q 35.9375 59.8125 33.328125 61.25 
Q 30.71875 62.703125 27.296875 62.703125 
Q 24.125 62.703125 21.578125 61.578125 
Q 19.046875 60.453125 17.28125 58.375 
Q 15.53125 56.296875 14.578125 53.3125 
Q 13.625 50.34375 13.625 46.6875 
Q 13.625 43.21875 14.46875 40.234375 
Q 15.328125 37.25 17.03125 35.078125 
Q 18.75 32.90625 21.28125 31.65625 
Q 23.828125 30.421875 27.203125 30.421875 
Q 29.640625 30.421875 32.15625 31.25 
Q 34.671875 32.078125 36.6875 33.78125 
Q 38.71875 35.5 40.015625 38.109375 
Q 41.3125 40.71875 41.3125 44.28125 
z
" id="LiberationSans-39"/>
      </defs>
      <g style="fill:#262626;" transform="translate(346.039062 266.246875)scale(0.1 -0.1)">
       <use xlink:href="#LiberationSans-39"/>
       <use x="55.615234" xlink:href="#LiberationSans-30"/>
      </g>
     </g>
    </g>
    <g id="xtick_10">
     <g id="line2d_19">
      <path clip-path="url(#p3126e8a4bc)" d="M 388.8 252 
L 388.8 34.56 
" style="fill:none;stroke:#ffffff;stroke-linecap:round;"/>
     </g>
     <g id="line2d_20"/>
     <g id="text_10">
      <!-- 100 -->
      <g style="fill:#262626;" transform="translate(380.458594 266.246875)scale(0.1 -0.1)">
       <use xlink:href="#LiberationSans-31"/>
       <use x="55.615234" xlink:href="#LiberationSans-30"/>
       <use x="111.230469" xlink:href="#LiberationSans-30"/>
      </g>
     </g>
    </g>
    <g id="text_11">
     <!-- Energy (keV) -->
     <defs>
      <path d="M 8.203125 0 
L 8.203125 68.796875 
L 60.40625 68.796875 
L 60.40625 61.1875 
L 17.53125 61.1875 
L 17.53125 39.109375 
L 57.46875 39.109375 
L 57.46875 31.59375 
L 17.53125 31.59375 
L 17.53125 7.625 
L 62.40625 7.625 
L 62.40625 0 
z
" id="LiberationSans-45"/>
      <path d="M 40.28125 0 
L 40.28125 33.5 
Q 40.28125 37.359375 39.71875 39.9375 
Q 39.15625 42.53125 37.890625 44.109375 
Q 36.625 45.703125 34.546875 46.359375 
Q 32.46875 47.015625 29.390625 47.015625 
Q 26.265625 47.015625 23.75 45.921875 
Q 21.234375 44.828125 19.453125 42.75 
Q 17.671875 40.671875 16.6875 37.625 
Q 15.71875 34.578125 15.71875 30.609375 
L 15.71875 0 
L 6.9375 0 
L 6.9375 41.546875 
Q 6.9375 43.21875 6.90625 45.046875 
Q 6.890625 46.875 6.828125 48.5 
Q 6.78125 50.140625 6.734375 51.3125 
Q 6.6875 52.484375 6.640625 52.828125 
L 14.9375 52.828125 
Q 14.984375 52.59375 15.03125 51.515625 
Q 15.09375 50.4375 15.15625 49.046875 
Q 15.234375 47.65625 15.28125 46.21875 
Q 15.328125 44.78125 15.328125 43.796875 
L 15.484375 43.796875 
Q 16.75 46.09375 18.265625 47.953125 
Q 19.78125 49.8125 21.78125 51.09375 
Q 23.78125 52.390625 26.359375 53.09375 
Q 28.953125 53.8125 32.375 53.8125 
Q 36.765625 53.8125 39.9375 52.734375 
Q 43.109375 51.65625 45.15625 49.40625 
Q 47.21875 47.171875 48.171875 43.625 
Q 49.125 40.09375 49.125 35.203125 
L 49.125 0 
z
" id="LiberationSans-6e"/>
      <path d="M 13.484375 24.5625 
Q 13.484375 20.40625 14.328125 16.90625 
Q 15.1875 13.421875 16.96875 10.90625 
Q 18.75 8.40625 21.53125 7 
Q 24.3125 5.609375 28.21875 5.609375 
Q 33.9375 5.609375 37.375 7.90625 
Q 40.828125 10.203125 42.046875 13.71875 
L 49.75 11.53125 
Q 48.921875 9.328125 47.4375 7.109375 
Q 45.953125 4.890625 43.453125 3.09375 
Q 40.96875 1.3125 37.234375 0.15625 
Q 33.5 -0.984375 28.21875 -0.984375 
Q 16.5 -0.984375 10.375 6 
Q 4.25 12.984375 4.25 26.765625 
Q 4.25 34.1875 6.09375 39.328125 
Q 7.953125 44.484375 11.171875 47.703125 
Q 14.40625 50.921875 18.703125 52.359375 
Q 23 53.8125 27.875 53.8125 
Q 34.515625 53.8125 38.984375 51.65625 
Q 43.453125 49.515625 46.15625 45.71875 
Q 48.875 41.9375 50.015625 36.8125 
Q 51.171875 31.6875 51.171875 25.734375 
L 51.171875 24.5625 
z
M 42.09375 31.296875 
Q 41.359375 39.65625 37.84375 43.484375 
Q 34.328125 47.3125 27.734375 47.3125 
Q 25.53125 47.3125 23.109375 46.609375 
Q 20.703125 45.90625 18.65625 44.09375 
Q 16.609375 42.28125 15.1875 39.171875 
Q 13.765625 36.078125 13.578125 31.296875 
z
" id="LiberationSans-65"/>
      <path d="M 6.9375 0 
L 6.9375 40.53125 
Q 6.9375 42.1875 6.90625 43.921875 
Q 6.890625 45.65625 6.828125 47.265625 
Q 6.78125 48.875 6.734375 50.28125 
Q 6.6875 51.703125 6.640625 52.828125 
L 14.9375 52.828125 
Q 14.984375 51.703125 15.0625 50.265625 
Q 15.140625 48.828125 15.203125 47.3125 
Q 15.28125 45.796875 15.296875 44.40625 
Q 15.328125 43.015625 15.328125 42.046875 
L 15.53125 42.046875 
Q 16.453125 45.0625 17.5 47.28125 
Q 18.5625 49.515625 19.96875 50.953125 
Q 21.390625 52.390625 23.34375 53.09375 
Q 25.296875 53.8125 28.078125 53.8125 
Q 29.15625 53.8125 30.125 53.640625 
Q 31.109375 53.46875 31.640625 53.328125 
L 31.640625 45.265625 
Q 30.765625 45.515625 29.59375 45.625 
Q 28.421875 45.75 26.953125 45.75 
Q 23.921875 45.75 21.796875 44.375 
Q 19.671875 43.015625 18.328125 40.59375 
Q 17 38.1875 16.359375 34.84375 
Q 15.71875 31.5 15.71875 27.546875 
L 15.71875 0 
z
" id="LiberationSans-72"/>
      <path d="M 26.765625 -20.75 
Q 22.21875 -20.75 18.703125 -19.8125 
Q 15.1875 -18.890625 12.6875 -17.15625 
Q 10.203125 -15.4375 8.640625 -13.03125 
Q 7.078125 -10.640625 6.390625 -7.71875 
L 15.234375 -6.453125 
Q 16.109375 -10.109375 19.109375 -12.078125 
Q 22.125 -14.0625 27 -14.0625 
Q 29.984375 -14.0625 32.421875 -13.234375 
Q 34.859375 -12.40625 36.5625 -10.5625 
Q 38.28125 -8.734375 39.203125 -5.796875 
Q 40.140625 -2.875 40.140625 1.3125 
L 40.140625 9.8125 
L 40.046875 9.8125 
Q 39.0625 7.8125 37.625 5.984375 
Q 36.1875 4.15625 34.109375 2.734375 
Q 32.03125 1.3125 29.296875 0.453125 
Q 26.5625 -0.390625 23.046875 -0.390625 
Q 18.015625 -0.390625 14.421875 1.296875 
Q 10.84375 2.984375 8.5625 6.34375 
Q 6.296875 9.71875 5.25 14.71875 
Q 4.203125 19.734375 4.203125 26.3125 
Q 4.203125 32.671875 5.25 37.75 
Q 6.296875 42.828125 8.65625 46.359375 
Q 11.03125 49.90625 14.8125 51.78125 
Q 18.609375 53.65625 24.03125 53.65625 
Q 29.640625 53.65625 33.765625 51.09375 
Q 37.890625 48.53125 40.140625 43.796875 
L 40.234375 43.796875 
Q 40.234375 45.015625 40.296875 46.53125 
Q 40.375 48.046875 40.453125 49.390625 
Q 40.53125 50.734375 40.625 51.703125 
Q 40.71875 52.6875 40.828125 52.828125 
L 49.171875 52.828125 
Q 49.125 52.390625 49.078125 51.34375 
Q 49.03125 50.296875 48.96875 48.828125 
Q 48.921875 47.359375 48.890625 45.578125 
Q 48.875 43.796875 48.875 41.890625 
L 48.875 1.515625 
Q 48.875 -9.578125 43.421875 -15.15625 
Q 37.984375 -20.75 26.765625 -20.75 
z
M 40.140625 26.421875 
Q 40.140625 31.9375 38.9375 35.859375 
Q 37.75 39.796875 35.796875 42.28125 
Q 33.84375 44.78125 31.328125 45.953125 
Q 28.8125 47.125 26.171875 47.125 
Q 22.796875 47.125 20.375 45.953125 
Q 17.96875 44.78125 16.375 42.265625 
Q 14.796875 39.75 14.03125 35.8125 
Q 13.28125 31.890625 13.28125 26.421875 
Q 13.28125 20.703125 14.03125 16.8125 
Q 14.796875 12.9375 16.359375 10.546875 
Q 17.921875 8.15625 20.3125 7.125 
Q 22.703125 6.109375 26.03125 6.109375 
Q 28.65625 6.109375 31.171875 7.21875 
Q 33.6875 8.34375 35.6875 10.78125 
Q 37.703125 13.234375 38.921875 17.09375 
Q 40.140625 20.953125 40.140625 26.421875 
z
" id="LiberationSans-67"/>
      <path d="M 29.5 0 
Q 27.640625 -4.78125 25.703125 -8.609375 
Q 23.78125 -12.453125 21.390625 -15.15625 
Q 19 -17.875 16.0625 -19.3125 
Q 13.140625 -20.75 9.328125 -20.75 
Q 7.671875 -20.75 6.25 -20.65625 
Q 4.828125 -20.5625 3.265625 -20.21875 
L 3.265625 -13.625 
Q 4.203125 -13.765625 5.375 -13.84375 
Q 6.546875 -13.921875 7.375 -13.921875 
Q 11.234375 -13.921875 14.546875 -11.03125 
Q 17.875 -8.15625 20.359375 -1.859375 
L 21.1875 0.25 
L 0.25 52.828125 
L 9.625 52.828125 
L 20.75 23.640625 
Q 21.234375 22.3125 21.984375 20.109375 
Q 22.75 17.921875 23.5 15.71875 
Q 24.265625 13.53125 24.84375 11.765625 
Q 25.4375 10.015625 25.53125 9.578125 
Q 25.6875 10.109375 26.25 11.6875 
Q 26.8125 13.28125 27.515625 15.234375 
Q 28.21875 17.1875 28.953125 19.1875 
Q 29.6875 21.1875 30.171875 22.65625 
L 40.53125 52.828125 
L 49.8125 52.828125 
z
" id="LiberationSans-79"/>
      <path id="LiberationSans-20"/>
      <path d="M 6.203125 25.984375 
Q 6.203125 32.765625 7.21875 38.96875 
Q 8.25 45.171875 10.4375 50.875 
Q 12.640625 56.59375 16.0625 61.953125 
Q 19.484375 67.328125 24.21875 72.46875 
L 32.71875 72.46875 
Q 28.125 67.328125 24.78125 61.9375 
Q 21.4375 56.546875 19.28125 50.796875 
Q 17.140625 45.0625 16.09375 38.859375 
Q 15.046875 32.671875 15.046875 25.875 
Q 15.046875 19.09375 16.09375 12.890625 
Q 17.140625 6.6875 19.28125 0.921875 
Q 21.4375 -4.828125 24.78125 -10.203125 
Q 28.125 -15.578125 32.71875 -20.703125 
L 24.21875 -20.703125 
Q 19.484375 -15.578125 16.0625 -10.203125 
Q 12.640625 -4.828125 10.4375 0.875 
Q 8.25 6.59375 7.21875 12.765625 
Q 6.203125 18.953125 6.203125 25.78125 
z
" id="LiberationSans-28"/>
      <path d="M 39.84375 0 
L 21.96875 24.125 
L 15.53125 18.796875 
L 15.53125 0 
L 6.734375 0 
L 6.734375 72.46875 
L 15.53125 72.46875 
L 15.53125 27.203125 
L 38.71875 52.828125 
L 49.03125 52.828125 
L 27.59375 30.125 
L 50.140625 0 
z
" id="LiberationSans-6b"/>
      <path d="M 38.1875 0 
L 28.515625 0 
L 0.4375 68.796875 
L 10.25 68.796875 
L 29.296875 20.359375 
Q 30.03125 18.171875 30.765625 15.984375 
Q 31.5 13.8125 32.078125 12.109375 
Q 32.765625 10.109375 33.40625 8.203125 
Q 33.984375 10.015625 34.671875 12.015625 
Q 35.25 13.71875 35.953125 15.859375 
Q 36.671875 18.015625 37.5 20.359375 
L 56.453125 68.796875 
L 66.265625 68.796875 
z
" id="LiberationSans-56"/>
      <path d="M 27.09375 25.78125 
Q 27.09375 18.953125 26.0625 12.765625 
Q 25.046875 6.59375 22.84375 0.875 
Q 20.65625 -4.828125 17.234375 -10.203125 
Q 13.8125 -15.578125 9.078125 -20.703125 
L 0.59375 -20.703125 
Q 5.171875 -15.578125 8.515625 -10.203125 
Q 11.859375 -4.828125 14 0.921875 
Q 16.15625 6.6875 17.203125 12.890625 
Q 18.265625 19.09375 18.265625 25.875 
Q 18.265625 32.671875 17.203125 38.859375 
Q 16.15625 45.0625 14 50.796875 
Q 11.859375 56.546875 8.515625 61.9375 
Q 5.171875 67.328125 0.59375 72.46875 
L 9.078125 72.46875 
Q 13.8125 67.328125 17.234375 61.953125 
Q 20.65625 56.59375 22.84375 50.875 
Q 25.046875 45.171875 26.0625 38.96875 
Q 27.09375 32.765625 27.09375 25.984375 
z
" id="LiberationSans-29"/>
     </defs>
     <g style="fill:#262626;" transform="translate(189.306641 280.293437)scale(0.11 -0.11)">
      <use xlink:href="#LiberationSans-45"/>
      <use x="66.699219" xlink:href="#LiberationSans-6e"/>
      <use x="122.314453" xlink:href="#LiberationSans-65"/>
      <use x="177.929688" xlink:href="#LiberationSans-72"/>
      <use x="211.230469" xlink:href="#LiberationSans-67"/>
      <use x="266.845703" xlink:href="#LiberationSans-79"/>
      <use x="316.845703" xlink:href="#LiberationSans-20"/>
      <use x="344.628906" xlink:href="#LiberationSans-28"/>
      <use x="377.929688" xlink:href="#LiberationSans-6b"/>
      <use x="427.929688" xlink:href="#LiberationSans-65"/>
      <use x="483.544922" xlink:href="#LiberationSans-56"/>
      <use x="550.244141" xlink:href="#LiberationSans-29"/>
     </g>
    </g>
   </g>
   <g id="matplotlib.axis_2">
    <g id="ytick_1">
     <g id="line2d_21">
      <path clip-path="url(#p3126e8a4bc)" d="M 54 242.116364 
L 388.8 242.116364 
" style="fill:none;stroke:#ffffff;stroke-linecap:round;"/>
     </g>
     <g id="line2d_22"/>
     <g id="text_12">
      <!-- 0.0 -->
      <defs>
       <path d="M 9.125 0 
L 9.125 10.6875 
L 18.65625 10.6875 
L 18.65625 0 
z
" id="LiberationSans-2e"/>
      </defs>
      <g style="fill:#262626;" transform="translate(33.1 245.739801)scale(0.1 -0.1)">
       <use xlink:href="#LiberationSans-30"/>
       <use x="55.615234" xlink:href="#LiberationSans-2e"/>
       <use x="83.398438" xlink:href="#LiberationSans-30"/>
      </g>
     </g>
    </g>
    <g id="ytick_2">
     <g id="line2d_23">
      <path clip-path="url(#p3126e8a4bc)" d="M 54 202.581818 
L 388.8 202.581818 
" style="fill:none;stroke:#ffffff;stroke-linecap:round;"/>
     </g>
     <g id="line2d_24"/>
     <g id="text_13">
      <!-- 0.2 -->
      <g style="fill:#262626;" transform="translate(33.1 206.205256)scale(0.1 -0.1)">
       <use xlink:href="#LiberationSans-30"/>
       <use x="55.615234" xlink:href="#LiberationSans-2e"/>
       <use x="83.398438" xlink:href="#LiberationSans-32"/>
      </g>
     </g>
    </g>
    <g id="ytick_3">
     <g id="line2d_25">
      <path clip-path="url(#p3126e8a4bc)" d="M 54 163.047273 
L 388.8 163.047273 
" style="fill:none;stroke:#ffffff;stroke-linecap:round;"/>
     </g>
     <g id="line2d_26"/>
     <g id="text_14">
      <!-- 0.4 -->
      <g style="fill:#262626;" transform="translate(33.1 166.67071)scale(0.1 -0.1)">
       <use xlink:href="#LiberationSans-30"/>
       <use x="55.615234" xlink:href="#LiberationSans-2e"/>
       <use x="83.398438" xlink:href="#LiberationSans-34"/>
      </g>
     </g>
    </g>
    <g id="ytick_4">
     <g id="line2d_27">
      <path clip-path="url(#p3126e8a4bc)" d="M 54 123.512727 
L 388.8 123.512727 
" style="fill:none;stroke:#ffffff;stroke-linecap:round;"/>
     </g>
     <g id="line2d_28"/>
     <g id="text_15">
      <!-- 0.6 -->
      <g style="fill:#262626;" transform="translate(33.1 127.136165)scale(0.1 -0.1)">
       <use xlink:href="#LiberationSans-30"/>
       <use x="55.615234" xlink:href="#LiberationSans-2e"/>
       <use x="83.398438" xlink:href="#LiberationSans-36"/>
      </g>
     </g>
    </g>
    <g id="ytick_5">
     <g id="line2d_29">
      <path clip-path="url(#p3126e8a4bc)" d="M 54 83.978182 
L 388.8 83.978182 
" style="fill:none;stroke:#ffffff;stroke-linecap:round;"/>
     </g>
     <g id="line2d_30"/>
     <g id="text_16">
      <!-- 0.8 -->
      <g style="fill:#262626;" transform="translate(33.1 87.601619)scale(0.1 -0.1)">
       <use xlink:href="#LiberationSans-30"/>
       <use x="55.615234" xlink:href="#LiberationSans-2e"/>
       <use x="83.398438" xlink:href="#LiberationSans-38"/>
      </g>
     </g>
    </g>
    <g id="ytick_6">
     <g id="line2d_31">
      <path clip-path="url(#p3126e8a4bc)" d="M 54 44.443636 
L 388.8 44.443636 
" style="fill:none;stroke:#ffffff;stroke-linecap:round;"/>
     </g>
     <g id="line2d_32"/>
     <g id="text_17">
      <!-- 1.0 -->
      <g style="fill:#262626;" transform="translate(33.1 48.067074)scale(0.1 -0.1)">
       <use xlink:href="#LiberationSans-31"/>
       <use x="55.615234" xlink:href="#LiberationSans-2e"/>
       <use x="83.398438" xlink:href="#LiberationSans-30"/>
      </g>
     </g>
    </g>
   </g>
   <g id="line2d_33">
    <path clip-path="url(#p3126e8a4bc)" d="M 62.049667 156.05465 
L 62.049667 159.749716 
L 62.793667 159.749716 
L 62.793667 163.162995 
L 63.537667 163.162995 
L 63.537667 166.240212 
L 64.281667 166.240212 
L 64.281667 169.252049 
L 65.025667 169.252049 
L 65.025667 171.961011 
L 65.769667 171.961011 
L 65.769667 174.560945 
L 66.513667 174.560945 
L 66.513667 177.314799 
L 67.257667 177.314799 
L 67.257667 179.979719 
L 68.001667 179.979719 
L 68.001667 182.147306 
L 68.745667 182.147306 
L 68.745667 184.222044 
L 69.489667 184.222044 
L 69.489667 186.304599 
L 70.233667 186.304599 
L 70.233667 188.206014 
L 70.977667 188.206014 
L 70.977667 189.996322 
L 71.721667 189.996322 
L 71.721667 192.004365 
L 72.465667 192.004365 
L 72.465667 193.673987 
L 73.209667 193.673987 
L 73.209667 195.464312 
L 73.953667 195.464312 
L 73.953667 196.571211 
L 74.697667 196.571211 
L 74.697667 197.707505 
L 75.441667 197.707505 
L 75.441667 198.692647 
L 76.185667 198.692647 
L 76.185667 199.557604 
L 76.929667 199.557604 
L 76.929667 200.415428 
L 77.673667 200.415428 
L 77.673667 201.497191 
L 78.417667 201.497191 
L 78.417667 202.274313 
L 79.161667 202.274313 
L 79.161667 202.790598 
L 79.905667 202.790598 
L 79.905667 203.482467 
L 80.649667 203.482467 
L 80.649667 204.373999 
L 81.393667 204.373999 
L 81.393667 207.617568 
L 82.137667 207.617568 
L 82.137667 211.591982 
L 82.881667 211.591982 
L 82.881667 212.92856 
L 83.625667 212.92856 
L 83.625667 213.37658 
L 84.369667 213.37658 
L 84.369667 213.691671 
L 85.113667 213.691671 
L 85.113667 213.923291 
L 85.857667 213.923291 
L 85.857667 214.331558 
L 88.833667 214.360765 
L 88.833667 214.469713 
L 90.321667 214.447048 
L 90.321667 214.317664 
L 91.065667 214.317664 
L 91.065667 213.983869 
L 91.809667 213.983869 
L 91.809667 213.814834 
L 92.553667 213.814834 
L 92.553667 213.618517 
L 93.297667 213.618517 
L 93.297667 213.306404 
L 94.041667 213.306404 
L 94.041667 213.013381 
L 94.785667 213.013381 
L 94.785667 212.718104 
L 95.529667 212.718104 
L 95.529667 212.259247 
L 96.273667 212.259247 
L 96.273667 211.71038 
L 97.017667 211.71038 
L 97.017667 211.190222 
L 97.761667 211.190222 
L 97.761667 210.581339 
L 98.505667 210.581339 
L 98.505667 209.944867 
L 99.249667 209.944867 
L 99.249667 209.367334 
L 99.993667 209.367334 
L 99.993667 208.804701 
L 100.737667 208.804701 
L 100.737667 208.137631 
L 101.481667 208.137631 
L 101.481667 207.495816 
L 102.225667 207.495816 
L 102.225667 206.863488 
L 102.969667 206.863488 
L 102.969667 206.628151 
L 103.713667 206.628151 
L 103.713667 207.147053 
L 105.201667 207.083903 
L 105.201667 206.498064 
L 105.945667 206.498064 
L 105.945667 206.00594 
L 106.689667 206.00594 
L 106.689667 205.512074 
L 107.433667 205.512074 
L 107.433667 205.071481 
L 108.177667 205.071481 
L 108.177667 204.704968 
L 108.921667 204.704968 
L 108.921667 204.393921 
L 109.665667 204.393921 
L 109.665667 204.006333 
L 110.409667 204.006333 
L 110.409667 203.554316 
L 111.153667 203.554316 
L 111.153667 203.229654 
L 111.897667 203.229654 
L 111.897667 202.975893 
L 114.129667 202.86653 
L 114.129667 202.772118 
L 117.849667 202.76592 
L 117.849667 203.156582 
L 118.593667 203.156582 
L 118.593667 203.458351 
L 119.337667 203.458351 
L 119.337667 203.849232 
L 120.081667 203.849232 
L 120.081667 204.380527 
L 120.825667 204.380527 
L 120.825667 204.859573 
L 121.569667 204.859573 
L 121.569667 205.240535 
L 122.313667 205.240535 
L 122.313667 205.835867 
L 123.057667 205.835867 
L 123.057667 206.456954 
L 123.801667 206.456954 
L 123.801667 207.030658 
L 124.545667 207.030658 
L 124.545667 207.42259 
L 125.289667 207.42259 
L 125.289667 207.016123 
L 126.033667 207.016123 
L 126.033667 206.729784 
L 126.777667 206.729784 
L 126.777667 207.296301 
L 127.521667 207.296301 
L 127.521667 207.892113 
L 128.265667 207.892113 
L 128.265667 208.484652 
L 129.009667 208.484652 
L 129.009667 209.062499 
L 129.753667 209.062499 
L 129.753667 209.649228 
L 130.497667 209.649228 
L 130.497667 210.229104 
L 131.241667 210.229104 
L 131.241667 210.815293 
L 131.985667 210.815293 
L 131.985667 211.454659 
L 132.729667 211.454659 
L 132.729667 212.063753 
L 133.473667 212.063753 
L 133.473667 212.623813 
L 134.217667 212.623813 
L 134.217667 213.159044 
L 134.961667 213.159044 
L 134.961667 213.669866 
L 135.705667 213.669866 
L 135.705667 214.169313 
L 136.449667 214.169313 
L 136.449667 214.679589 
L 137.193667 214.679589 
L 137.193667 215.215277 
L 137.937667 215.215277 
L 137.937667 215.705612 
L 138.681667 215.705612 
L 138.681667 216.216271 
L 139.425667 216.216271 
L 139.425667 216.559951 
L 140.169667 216.559951 
L 140.169667 216.929369 
L 140.913667 216.929369 
L 140.913667 217.274859 
L 141.657667 217.274859 
L 141.657667 217.561206 
L 142.401667 217.561206 
L 142.401667 217.81797 
L 143.145667 217.81797 
L 143.145667 218.155953 
L 143.889667 218.155953 
L 143.889667 218.434443 
L 144.633667 218.434443 
L 144.633667 218.640381 
L 145.377667 218.640381 
L 145.377667 218.869629 
L 146.121667 218.869629 
L 146.121667 219.139976 
L 146.865667 219.139976 
L 146.865667 219.61821 
L 147.609667 219.61821 
L 147.609667 220.166324 
L 148.353667 220.166324 
L 148.353667 220.434848 
L 149.097667 220.434848 
L 149.097667 220.598731 
L 149.841667 220.598731 
L 149.841667 220.755561 
L 150.585667 220.755561 
L 150.585667 220.884072 
L 151.329667 220.884072 
L 151.329667 221.020313 
L 153.561667 221.112176 
L 153.561667 221.188034 
L 155.049667 221.264998 
L 155.049667 221.310014 
L 159.513667 221.219793 
L 159.513667 221.192702 
L 161.001667 221.156415 
L 161.001667 221.062537 
L 161.745667 221.062537 
L 161.745667 220.931308 
L 162.489667 220.931308 
L 162.489667 220.816786 
L 163.233667 220.816786 
L 163.233667 220.661628 
L 163.977667 220.661628 
L 163.977667 220.469424 
L 164.721667 220.469424 
L 164.721667 220.317893 
L 165.465667 220.317893 
L 165.465667 220.145978 
L 166.209667 220.145978 
L 166.209667 219.885615 
L 166.953667 219.885615 
L 166.953667 219.658703 
L 167.697667 219.658703 
L 167.697667 219.446538 
L 169.185667 219.417985 
L 169.185667 219.609112 
L 170.673667 219.570049 
L 170.673667 219.325697 
L 171.417667 219.325697 
L 171.417667 219.013805 
L 172.161667 219.013805 
L 172.161667 218.754343 
L 172.905667 218.754343 
L 172.905667 218.483608 
L 173.649667 218.483608 
L 173.649667 218.123221 
L 174.393667 218.123221 
L 174.393667 217.723989 
L 175.137667 217.723989 
L 175.137667 217.365133 
L 175.881667 217.365133 
L 175.881667 217.008873 
L 176.625667 217.008873 
L 176.625667 216.629505 
L 177.369667 216.629505 
L 177.369667 216.193873 
L 178.113667 216.193873 
L 178.113667 215.642637 
L 178.857667 215.642637 
L 178.857667 215.132916 
L 179.601667 215.132916 
L 179.601667 214.619036 
L 180.345667 214.619036 
L 180.345667 214.032503 
L 181.089667 214.032503 
L 181.089667 213.439674 
L 181.833667 213.439674 
L 181.833667 212.875681 
L 182.577667 212.875681 
L 182.577667 212.261951 
L 183.321667 212.261951 
L 183.321667 211.566249 
L 184.065667 211.566249 
L 184.065667 210.910115 
L 184.809667 210.910115 
L 184.809667 210.19341 
L 185.553667 210.19341 
L 185.553667 209.477068 
L 186.297667 209.477068 
L 186.297667 208.76027 
L 187.041667 208.76027 
L 187.041667 208.047885 
L 187.785667 208.047885 
L 187.785667 207.282961 
L 188.529667 207.282961 
L 188.529667 206.514102 
L 189.273667 206.514102 
L 189.273667 205.761483 
L 190.017667 205.761483 
L 190.017667 205.07452 
L 190.761667 205.07452 
L 190.761667 204.762514 
L 191.505667 204.762514 
L 191.505667 204.447556 
L 192.249667 204.447556 
L 192.249667 203.839828 
L 192.993667 203.839828 
L 192.993667 203.281363 
L 193.737667 203.281363 
L 193.737667 202.658683 
L 194.481667 202.658683 
L 194.481667 202.03415 
L 195.225667 202.03415 
L 195.225667 201.430328 
L 195.969667 201.430328 
L 195.969667 200.849915 
L 196.713667 200.849915 
L 196.713667 200.2582 
L 197.457667 200.2582 
L 197.457667 199.640634 
L 198.201667 199.640634 
L 198.201667 199.055013 
L 198.945667 199.055013 
L 198.945667 198.428124 
L 199.689667 198.428124 
L 199.689667 197.862869 
L 200.433667 197.862869 
L 200.433667 197.338739 
L 201.177667 197.338739 
L 201.177667 196.768631 
L 201.921667 196.768631 
L 201.921667 196.277289 
L 202.665667 196.277289 
L 202.665667 195.81927 
L 203.409667 195.81927 
L 203.409667 195.371736 
L 204.153667 195.371736 
L 204.153667 194.853389 
L 204.897667 194.853389 
L 204.897667 193.709765 
L 205.641667 193.709765 
L 205.641667 192.835628 
L 206.385667 192.835628 
L 206.385667 191.836052 
L 207.129667 191.836052 
L 207.129667 190.391071 
L 207.873667 190.391071 
L 207.873667 188.363305 
L 208.617667 188.363305 
L 208.617667 186.909991 
L 209.361667 186.909991 
L 209.361667 184.802896 
L 210.105667 184.802896 
L 210.105667 181.710265 
L 210.849667 181.710265 
L 210.849667 178.73992 
L 211.593667 178.73992 
L 211.593667 176.801327 
L 212.337667 176.801327 
L 212.337667 175.755542 
L 213.081667 175.755542 
L 213.081667 174.945281 
L 213.825667 174.945281 
L 213.825667 172.438739 
L 214.569667 172.438739 
L 214.569667 168.825132 
L 215.313667 168.825132 
L 215.313667 165.062728 
L 216.057667 165.062728 
L 216.057667 161.563341 
L 216.801667 161.563341 
L 216.801667 158.155825 
L 217.545667 158.155825 
L 217.545667 153.084929 
L 218.289667 153.084929 
L 218.289667 147.741486 
L 219.033667 147.741486 
L 219.033667 142.960615 
L 219.777667 142.960615 
L 219.777667 137.788699 
L 220.521667 137.788699 
L 220.521667 132.500009 
L 221.265667 132.500009 
L 221.265667 126.763307 
L 222.009667 126.763307 
L 222.009667 120.42337 
L 222.753667 120.42337 
L 222.753667 114.160545 
L 223.497667 114.160545 
L 223.497667 108.148926 
L 224.241667 108.148926 
L 224.241667 101.425795 
L 224.985667 101.425795 
L 224.985667 94.804016 
L 225.729667 94.804016 
L 225.729667 88.106366 
L 226.473667 88.106366 
L 226.473667 82.346888 
L 227.217667 82.346888 
L 227.217667 77.290483 
L 227.961667 77.290483 
L 227.961667 71.63696 
L 228.705667 71.63696 
L 228.705667 67.131922 
L 229.449667 67.131922 
L 229.449667 63.884072 
L 230.193667 63.884072 
L 230.193667 60.185881 
L 230.937667 60.185881 
L 230.937667 56.209137 
L 231.681667 56.209137 
L 231.681667 55.759234 
L 232.425667 55.759234 
L 232.425667 54.543731 
L 233.169667 54.543731 
L 233.169667 52.345572 
L 233.913667 52.345572 
L 233.913667 49.15777 
L 234.657667 49.15777 
L 234.657667 45.950516 
L 235.401667 45.950516 
L 235.401667 44.443636 
L 236.145667 44.443636 
L 236.145667 44.597449 
L 236.889667 44.597449 
L 236.889667 46.469909 
L 237.633667 46.469909 
L 237.633667 47.355563 
L 238.377667 47.355563 
L 238.377667 47.529329 
L 239.121667 47.529329 
L 239.121667 50.946642 
L 239.865667 50.946642 
L 239.865667 56.144691 
L 240.609667 56.144691 
L 240.609667 59.90292 
L 241.353667 59.90292 
L 241.353667 64.294652 
L 242.097667 64.294652 
L 242.097667 68.795482 
L 242.841667 68.795482 
L 242.841667 74.239893 
L 243.585667 74.239893 
L 243.585667 81.710424 
L 244.329667 81.710424 
L 244.329667 89.176176 
L 245.073667 89.176176 
L 245.073667 95.749716 
L 245.817667 95.749716 
L 245.817667 103.760738 
L 246.561667 103.760738 
L 246.561667 111.920422 
L 247.305667 111.920422 
L 247.305667 119.88125 
L 248.049667 119.88125 
L 248.049667 128.156176 
L 248.793667 128.156176 
L 248.793667 135.492953 
L 249.537667 135.492953 
L 249.537667 143.541462 
L 250.281667 143.541462 
L 250.281667 150.809977 
L 251.025667 150.809977 
L 251.025667 157.956386 
L 251.769667 157.956386 
L 251.769667 164.428429 
L 252.513667 164.428429 
L 252.513667 171.725851 
L 253.257667 171.725851 
L 253.257667 177.60145 
L 254.001667 177.60145 
L 254.001667 183.14797 
L 254.745667 183.14797 
L 254.745667 189.087971 
L 255.489667 189.087971 
L 255.489667 194.502051 
L 256.233667 194.502051 
L 256.233667 195.694294 
L 256.977667 195.694294 
L 256.977667 196.256454 
L 257.721667 196.256454 
L 257.721667 200.989738 
L 258.465667 200.989738 
L 258.465667 204.532936 
L 259.209667 204.532936 
L 259.209667 208.819613 
L 259.953667 208.819613 
L 259.953667 213.175345 
L 260.697667 213.175345 
L 260.697667 216.82703 
L 261.441667 216.82703 
L 261.441667 218.79122 
L 262.185667 218.79122 
L 262.185667 221.146051 
L 262.929667 221.146051 
L 262.929667 223.704102 
L 263.673667 223.704102 
L 263.673667 226.162997 
L 264.417667 226.162997 
L 264.417667 228.14276 
L 265.161667 228.14276 
L 265.161667 229.16632 
L 265.905667 229.16632 
L 265.905667 229.706619 
L 266.649667 229.706619 
L 266.649667 230.788339 
L 267.393667 230.788339 
L 267.393667 231.464501 
L 268.137667 231.464501 
L 268.137667 231.7385 
L 268.881667 231.7385 
L 268.881667 232.197239 
L 269.625667 232.197239 
L 269.625667 232.484389 
L 271.113667 232.570744 
L 271.113667 232.669622 
L 271.857667 232.669622 
L 271.857667 232.864192 
L 273.345667 232.925885 
L 273.345667 232.980009 
L 274.833667 233.081429 
L 274.833667 233.131777 
L 277.065667 233.141022 
L 277.065667 233.342285 
L 277.809667 233.342285 
L 277.809667 236.606096 
L 278.553667 236.606096 
L 278.553667 241.178765 
L 279.297667 241.178765 
L 279.297667 242.077402 
L 373.785667 242.101378 
L 373.785667 241.94852 
L 387.921667 241.850189 
L 387.921667 242.080514 
L 388.665667 242.080514 
L 388.665667 242.080514 
" style="fill:none;stroke:#4c72b0;stroke-linecap:round;stroke-width:1.75;"/>
   </g>
   <g id="line2d_34">
    <path clip-path="url(#p3126e8a4bc)" d="M 62.049667 129.400739 
L 62.049667 133.716282 
L 62.793667 133.716282 
L 62.793667 137.793396 
L 63.537667 137.793396 
L 63.537667 141.742093 
L 64.281667 141.742093 
L 64.281667 145.764567 
L 65.025667 145.764567 
L 65.025667 149.680095 
L 65.769667 149.680095 
L 65.769667 153.51051 
L 66.513667 153.51051 
L 66.513667 157.103818 
L 67.257667 157.103818 
L 67.257667 160.516757 
L 68.001667 160.516757 
L 68.001667 163.825826 
L 68.745667 163.825826 
L 68.745667 167.13335 
L 69.489667 167.13335 
L 69.489667 170.245814 
L 70.233667 170.245814 
L 70.233667 173.228955 
L 70.977667 173.228955 
L 70.977667 176.247733 
L 71.721667 176.247733 
L 71.721667 178.977614 
L 72.465667 178.977614 
L 72.465667 181.418497 
L 73.209667 181.418497 
L 73.209667 183.947599 
L 73.953667 183.947599 
L 73.953667 186.309712 
L 74.697667 186.309712 
L 74.697667 188.64126 
L 75.441667 188.64126 
L 75.441667 190.840526 
L 76.185667 190.840526 
L 76.185667 192.738767 
L 76.929667 192.738767 
L 76.929667 194.404997 
L 77.673667 194.404997 
L 77.673667 196.057972 
L 78.417667 196.057972 
L 78.417667 197.677138 
L 79.161667 197.677138 
L 79.161667 199.163372 
L 79.905667 199.163372 
L 79.905667 200.516962 
L 80.649667 200.516962 
L 80.649667 201.928173 
L 81.393667 201.928173 
L 81.393667 205.55182 
L 82.137667 205.55182 
L 82.137667 209.396164 
L 82.881667 209.396164 
L 82.881667 210.606552 
L 83.625667 210.606552 
L 83.625667 211.07823 
L 84.369667 211.07823 
L 84.369667 211.50723 
L 85.113667 211.50723 
L 85.113667 212.042121 
L 85.857667 212.042121 
L 85.857667 212.504958 
L 86.601667 212.504958 
L 86.601667 212.872106 
L 87.345667 212.872106 
L 87.345667 213.150654 
L 88.089667 213.150654 
L 88.089667 213.281876 
L 88.833667 213.281876 
L 88.833667 213.415946 
L 89.577667 213.415946 
L 89.577667 213.61505 
L 93.297667 213.562795 
L 93.297667 213.457744 
L 94.041667 213.457744 
L 94.041667 213.155139 
L 94.785667 213.155139 
L 94.785667 212.790385 
L 95.529667 212.790385 
L 95.529667 212.437668 
L 96.273667 212.437668 
L 96.273667 211.956787 
L 97.017667 211.956787 
L 97.017667 211.618197 
L 97.761667 211.618197 
L 97.761667 211.011428 
L 98.505667 211.011428 
L 98.505667 210.401415 
L 99.249667 210.401415 
L 99.249667 209.695275 
L 99.993667 209.695275 
L 99.993667 209.032531 
L 100.737667 209.032531 
L 100.737667 208.242787 
L 101.481667 208.242787 
L 101.481667 207.453085 
L 102.225667 207.453085 
L 102.225667 206.631235 
L 103.713667 206.644322 
L 103.713667 207.661316 
L 105.201667 207.768713 
L 105.201667 207.03593 
L 105.945667 207.03593 
L 105.945667 206.336126 
L 106.689667 206.336126 
L 106.689667 205.71936 
L 107.433667 205.71936 
L 107.433667 204.980139 
L 108.177667 204.980139 
L 108.177667 204.30428 
L 108.921667 204.30428 
L 108.921667 203.621036 
L 109.665667 203.621036 
L 109.665667 202.973009 
L 110.409667 202.973009 
L 110.409667 202.444558 
L 111.153667 202.444558 
L 111.153667 201.845786 
L 111.897667 201.845786 
L 111.897667 201.283985 
L 112.641667 201.283985 
L 112.641667 200.759057 
L 113.385667 200.759057 
L 113.385667 200.385176 
L 114.129667 200.385176 
L 114.129667 199.946045 
L 114.873667 199.946045 
L 114.873667 199.452992 
L 115.617667 199.452992 
L 115.617667 199.289233 
L 116.361667 199.289233 
L 116.361667 199.151302 
L 119.337667 199.119009 
L 119.337667 199.31593 
L 120.081667 199.31593 
L 120.081667 199.638026 
L 120.825667 199.638026 
L 120.825667 200.118352 
L 121.569667 200.118352 
L 121.569667 200.491703 
L 122.313667 200.491703 
L 122.313667 201.087659 
L 123.057667 201.087659 
L 123.057667 201.680456 
L 123.801667 201.680456 
L 123.801667 202.368176 
L 124.545667 202.368176 
L 124.545667 202.721677 
L 125.289667 202.721677 
L 125.289667 202.029023 
L 126.033667 202.029023 
L 126.033667 201.686616 
L 126.777667 201.686616 
L 126.777667 202.380133 
L 127.521667 202.380133 
L 127.521667 203.120869 
L 128.265667 203.120869 
L 128.265667 203.808316 
L 129.009667 203.808316 
L 129.009667 204.585012 
L 129.753667 204.585012 
L 129.753667 205.359648 
L 130.497667 205.359648 
L 130.497667 206.150825 
L 131.241667 206.150825 
L 131.241667 206.958097 
L 131.985667 206.958097 
L 131.985667 207.715028 
L 132.729667 207.715028 
L 132.729667 208.476286 
L 133.473667 208.476286 
L 133.473667 209.26346 
L 134.217667 209.26346 
L 134.217667 210.050155 
L 134.961667 210.050155 
L 134.961667 210.794447 
L 135.705667 210.794447 
L 135.705667 211.521139 
L 136.449667 211.521139 
L 136.449667 212.307252 
L 137.193667 212.307252 
L 137.193667 213.01445 
L 137.937667 213.01445 
L 137.937667 213.65529 
L 138.681667 213.65529 
L 138.681667 214.263924 
L 139.425667 214.263924 
L 139.425667 214.83298 
L 140.169667 214.83298 
L 140.169667 215.434438 
L 140.913667 215.434438 
L 140.913667 216.01185 
L 141.657667 216.01185 
L 141.657667 216.469935 
L 142.401667 216.469935 
L 142.401667 216.885587 
L 143.145667 216.885587 
L 143.145667 217.296409 
L 143.889667 217.296409 
L 143.889667 217.690834 
L 144.633667 217.690834 
L 144.633667 218.038618 
L 145.377667 218.038618 
L 145.377667 218.377923 
L 146.121667 218.377923 
L 146.121667 218.742226 
L 146.865667 218.742226 
L 146.865667 219.356572 
L 147.609667 219.356572 
L 147.609667 219.961211 
L 148.353667 219.961211 
L 148.353667 220.221619 
L 149.097667 220.221619 
L 149.097667 220.373955 
L 149.841667 220.373955 
L 149.841667 220.517739 
L 150.585667 220.517739 
L 150.585667 220.657786 
L 151.329667 220.657786 
L 151.329667 220.782638 
L 152.817667 220.884695 
L 152.817667 220.95915 
L 154.305667 221.020004 
L 154.305667 221.073332 
L 156.537667 221.174384 
L 156.537667 221.203788 
L 161.001667 221.122999 
L 161.001667 221.067165 
L 163.233667 220.973614 
L 163.233667 220.87899 
L 164.721667 220.773765 
L 164.721667 220.641297 
L 166.209667 220.533127 
L 166.209667 220.378557 
L 166.953667 220.378557 
L 166.953667 220.235622 
L 167.697667 220.235622 
L 167.697667 220.055401 
L 169.185667 220.063333 
L 169.185667 220.308102 
L 170.673667 220.313145 
L 170.673667 220.101851 
L 171.417667 220.101851 
L 171.417667 219.851354 
L 172.161667 219.851354 
L 172.161667 219.6128 
L 172.905667 219.6128 
L 172.905667 219.358783 
L 173.649667 219.358783 
L 173.649667 219.059573 
L 174.393667 219.059573 
L 174.393667 218.757869 
L 175.137667 218.757869 
L 175.137667 218.441599 
L 175.881667 218.441599 
L 175.881667 218.078415 
L 176.625667 218.078415 
L 176.625667 217.713984 
L 177.369667 217.713984 
L 177.369667 217.34602 
L 178.113667 217.34602 
L 178.113667 216.949148 
L 178.857667 216.949148 
L 178.857667 216.55101 
L 179.601667 216.55101 
L 179.601667 216.151149 
L 180.345667 216.151149 
L 180.345667 215.740621 
L 181.089667 215.740621 
L 181.089667 215.245783 
L 181.833667 215.245783 
L 181.833667 214.73449 
L 182.577667 214.73449 
L 182.577667 214.179172 
L 183.321667 214.179172 
L 183.321667 213.602089 
L 184.065667 213.602089 
L 184.065667 213.066479 
L 184.809667 213.066479 
L 184.809667 212.428199 
L 185.553667 212.428199 
L 185.553667 211.775406 
L 186.297667 211.775406 
L 186.297667 211.0647 
L 187.041667 211.0647 
L 187.041667 210.400225 
L 187.785667 210.400225 
L 187.785667 209.693598 
L 188.529667 209.693598 
L 188.529667 208.970307 
L 189.273667 208.970307 
L 189.273667 208.216318 
L 190.017667 208.216318 
L 190.017667 207.561902 
L 190.761667 207.561902 
L 190.761667 207.345 
L 191.505667 207.345 
L 191.505667 207.071471 
L 192.249667 207.071471 
L 192.249667 206.459616 
L 192.993667 206.459616 
L 192.993667 205.824422 
L 193.737667 205.824422 
L 193.737667 205.198329 
L 194.481667 205.198329 
L 194.481667 204.553062 
L 195.225667 204.553062 
L 195.225667 203.916039 
L 195.969667 203.916039 
L 195.969667 203.267851 
L 196.713667 203.267851 
L 196.713667 202.616894 
L 197.457667 202.616894 
L 197.457667 202.004013 
L 198.201667 202.004013 
L 198.201667 201.406402 
L 198.945667 201.406402 
L 198.945667 200.789377 
L 199.689667 200.789377 
L 199.689667 200.173609 
L 200.433667 200.173609 
L 200.433667 199.573275 
L 201.177667 199.573275 
L 201.177667 198.982822 
L 201.921667 198.982822 
L 201.921667 198.353673 
L 202.665667 198.353673 
L 202.665667 197.791149 
L 203.409667 197.791149 
L 203.409667 197.29126 
L 204.153667 197.29126 
L 204.153667 196.804243 
L 204.897667 196.804243 
L 204.897667 196.332854 
L 205.641667 196.332854 
L 205.641667 195.814091 
L 206.385667 195.814091 
L 206.385667 195.252982 
L 207.129667 195.252982 
L 207.129667 194.684393 
L 207.873667 194.684393 
L 207.873667 194.166057 
L 208.617667 194.166057 
L 208.617667 193.555965 
L 209.361667 193.555965 
L 209.361667 192.935269 
L 210.105667 192.935269 
L 210.105667 192.357701 
L 210.849667 192.357701 
L 210.849667 191.777686 
L 211.593667 191.777686 
L 211.593667 190.798644 
L 212.337667 190.798644 
L 212.337667 190.132711 
L 213.081667 190.132711 
L 213.081667 189.414546 
L 213.825667 189.414546 
L 213.825667 187.862212 
L 214.569667 187.862212 
L 214.569667 185.661599 
L 215.313667 185.661599 
L 215.313667 183.088854 
L 216.057667 183.088854 
L 216.057667 180.837146 
L 216.801667 180.837146 
L 216.801667 177.800884 
L 217.545667 177.800884 
L 217.545667 174.056461 
L 218.289667 174.056461 
L 218.289667 170.434992 
L 219.033667 170.434992 
L 219.033667 166.065029 
L 219.777667 166.065029 
L 219.777667 161.437214 
L 220.521667 161.437214 
L 220.521667 156.7511 
L 221.265667 156.7511 
L 221.265667 151.708628 
L 222.009667 151.708628 
L 222.009667 146.471862 
L 222.753667 146.471862 
L 222.753667 141.178134 
L 223.497667 141.178134 
L 223.497667 135.798824 
L 224.241667 135.798824 
L 224.241667 130.175372 
L 224.985667 130.175372 
L 224.985667 124.123097 
L 225.729667 124.123097 
L 225.729667 117.807316 
L 226.473667 117.807316 
L 226.473667 111.363716 
L 227.217667 111.363716 
L 227.217667 104.935567 
L 227.961667 104.935567 
L 227.961667 98.707042 
L 228.705667 98.707042 
L 228.705667 92.649078 
L 229.449667 92.649078 
L 229.449667 86.152278 
L 230.193667 86.152278 
L 230.193667 80.201749 
L 230.937667 80.201749 
L 230.937667 73.783024 
L 231.681667 73.783024 
L 231.681667 67.87375 
L 232.425667 67.87375 
L 232.425667 61.447443 
L 233.169667 61.447443 
L 233.169667 56.015871 
L 233.913667 56.015871 
L 233.913667 52.127417 
L 234.657667 52.127417 
L 234.657667 50.88862 
L 235.401667 50.88862 
L 235.401667 49.221787 
L 236.145667 49.221787 
L 236.145667 47.162645 
L 236.889667 47.162645 
L 236.889667 46.12767 
L 237.633667 46.12767 
L 237.633667 45.161845 
L 238.377667 45.161845 
L 238.377667 44.443636 
L 239.121667 44.443636 
L 239.121667 46.036734 
L 239.865667 46.036734 
L 239.865667 47.895951 
L 240.609667 47.895951 
L 240.609667 50.056307 
L 241.353667 50.056307 
L 241.353667 53.898383 
L 242.097667 53.898383 
L 242.097667 57.461372 
L 242.841667 57.461372 
L 242.841667 61.798785 
L 243.585667 61.798785 
L 243.585667 66.834272 
L 244.329667 66.834272 
L 244.329667 71.854398 
L 245.073667 71.854398 
L 245.073667 77.24434 
L 245.817667 77.24434 
L 245.817667 82.498261 
L 246.561667 82.498261 
L 246.561667 89.47898 
L 247.305667 89.47898 
L 247.305667 96.376618 
L 248.049667 96.376618 
L 248.049667 104.246321 
L 248.793667 104.246321 
L 248.793667 111.954292 
L 249.537667 111.954292 
L 249.537667 119.338143 
L 250.281667 119.338143 
L 250.281667 127.082397 
L 251.025667 127.082397 
L 251.025667 135.239395 
L 251.769667 135.239395 
L 251.769667 143.381467 
L 252.513667 143.381467 
L 252.513667 151.673628 
L 253.257667 151.673628 
L 253.257667 159.770098 
L 254.001667 159.770098 
L 254.001667 168.198743 
L 254.745667 168.198743 
L 254.745667 176.327583 
L 255.489667 176.327583 
L 255.489667 182.284706 
L 256.233667 182.284706 
L 256.233667 179.782838 
L 256.977667 179.782838 
L 256.977667 177.890952 
L 257.721667 177.890952 
L 257.721667 183.160875 
L 258.465667 183.160875 
L 258.465667 188.376082 
L 259.209667 188.376082 
L 259.209667 193.051394 
L 259.953667 193.051394 
L 259.953667 198.244251 
L 260.697667 198.244251 
L 260.697667 202.195281 
L 261.441667 202.195281 
L 261.441667 205.62106 
L 262.185667 205.62106 
L 262.185667 209.251074 
L 262.929667 209.251074 
L 262.929667 211.916412 
L 263.673667 211.916412 
L 263.673667 214.549718 
L 264.417667 214.549718 
L 264.417667 216.963372 
L 265.161667 216.963372 
L 265.161667 218.976244 
L 265.905667 218.976244 
L 265.905667 220.958473 
L 266.649667 220.958473 
L 266.649667 222.684041 
L 267.393667 222.684041 
L 267.393667 224.698081 
L 268.137667 224.698081 
L 268.137667 225.783854 
L 268.881667 225.783854 
L 268.881667 226.846552 
L 269.625667 226.846552 
L 269.625667 227.331847 
L 270.369667 227.331847 
L 270.369667 227.885352 
L 271.113667 227.885352 
L 271.113667 228.490627 
L 271.857667 228.490627 
L 271.857667 229.150191 
L 272.601667 229.150191 
L 272.601667 229.320147 
L 273.345667 229.320147 
L 273.345667 229.475692 
L 274.833667 229.575002 
L 274.833667 229.691271 
L 276.321667 229.7431 
L 276.321667 229.808811 
L 277.065667 229.808811 
L 277.065667 230.070576 
L 277.809667 230.070576 
L 277.809667 234.611348 
L 278.553667 234.611348 
L 278.553667 240.80902 
L 279.297667 240.80902 
L 279.297667 242.05137 
L 388.665667 242.116364 
L 388.665667 242.116364 
" style="fill:none;stroke:#55a868;stroke-linecap:round;stroke-width:1.75;"/>
   </g>
   <g id="patch_3">
    <path d="M 54 252 
L 54 34.56 
" style="fill:none;"/>
   </g>
   <g id="patch_4">
    <path d="M 388.8 252 
L 388.8 34.56 
" style="fill:none;"/>
   </g>
   <g id="patch_5">
    <path d="M 54 252 
L 388.8 252 
" style="fill:none;"/>
   </g>
   <g id="patch_6">
    <path d="M 54 34.56 
L 388.8 34.56 
" style="fill:none;"/>
   </g>
   <g id="text_18">
    <!-- Am241 -->
    <defs>
     <path d="M 56.984375 0 
L 49.125 20.125 
L 17.78125 20.125 
L 9.859375 0 
L 0.203125 0 
L 28.265625 68.796875 
L 38.875 68.796875 
L 66.5 0 
z
M 37.5 50.09375 
Q 36.71875 52.046875 36 54.046875 
Q 35.296875 56.0625 34.765625 57.6875 
Q 34.234375 59.328125 33.859375 60.421875 
Q 33.5 61.53125 33.453125 61.765625 
Q 33.34375 61.53125 33 60.40625 
Q 32.671875 59.28125 32.109375 57.609375 
Q 31.546875 55.953125 30.828125 53.953125 
Q 30.125 51.953125 29.390625 50 
L 20.609375 27.390625 
L 46.34375 27.390625 
z
" id="LiberationSans-41"/>
     <path d="M 37.5 0 
L 37.5 33.5 
Q 37.5 37.359375 37.015625 39.9375 
Q 36.53125 42.53125 35.375 44.109375 
Q 34.234375 45.703125 32.375 46.359375 
Q 30.515625 47.015625 27.828125 47.015625 
Q 25.046875 47.015625 22.796875 45.921875 
Q 20.5625 44.828125 18.96875 42.75 
Q 17.390625 40.671875 16.53125 37.625 
Q 15.671875 34.578125 15.671875 30.609375 
L 15.671875 0 
L 6.9375 0 
L 6.9375 41.546875 
Q 6.9375 43.21875 6.90625 45.046875 
Q 6.890625 46.875 6.828125 48.5 
Q 6.78125 50.140625 6.734375 51.3125 
Q 6.6875 52.484375 6.640625 52.828125 
L 14.9375 52.828125 
Q 14.984375 52.59375 15.03125 51.515625 
Q 15.09375 50.4375 15.15625 49.046875 
Q 15.234375 47.65625 15.28125 46.21875 
Q 15.328125 44.78125 15.328125 43.796875 
L 15.484375 43.796875 
Q 16.65625 46.09375 18.015625 47.953125 
Q 19.390625 49.8125 21.21875 51.09375 
Q 23.046875 52.390625 25.40625 53.09375 
Q 27.78125 53.8125 30.90625 53.8125 
Q 36.921875 53.8125 40.40625 51.421875 
Q 43.890625 49.03125 45.265625 43.796875 
L 45.40625 43.796875 
Q 46.578125 46.09375 48.046875 47.953125 
Q 49.515625 49.8125 51.46875 51.09375 
Q 53.421875 52.390625 55.859375 53.09375 
Q 58.296875 53.8125 61.421875 53.8125 
Q 65.4375 53.8125 68.328125 52.734375 
Q 71.234375 51.65625 73.09375 49.40625 
Q 74.953125 47.171875 75.828125 43.625 
Q 76.703125 40.09375 76.703125 35.203125 
L 76.703125 0 
L 68.015625 0 
L 68.015625 33.5 
Q 68.015625 37.359375 67.53125 39.9375 
Q 67.046875 42.53125 65.890625 44.109375 
Q 64.75 45.703125 62.890625 46.359375 
Q 61.03125 47.015625 58.34375 47.015625 
Q 55.5625 47.015625 53.3125 45.96875 
Q 51.078125 44.921875 49.484375 42.875 
Q 47.90625 40.828125 47.046875 37.75 
Q 46.1875 34.671875 46.1875 30.609375 
L 46.1875 0 
z
" id="LiberationSans-6d"/>
    </defs>
    <g style="fill:#262626;" transform="translate(202.390312 28.56)scale(0.12 -0.12)">
     <use xlink:href="#LiberationSans-41"/>
     <use x="66.699219" xlink:href="#LiberationSans-6d"/>
     <use x="150" xlink:href="#LiberationSans-32"/>
     <use x="205.615234" xlink:href="#LiberationSans-34"/>
     <use x="261.230469" xlink:href="#LiberationSans-31"/>
    </g>
   </g>
   <g id="legend_1">
    <g id="line2d_35">
     <path d="M 336.239062 47.306875 
L 356.239062 47.306875 
" style="fill:none;stroke:#4c72b0;stroke-linecap:round;stroke-width:1.75;"/>
    </g>
    <g id="line2d_36"/>
    <g id="text_19">
     <!-- vac -->
     <defs>
      <path d="M 29.9375 0 
L 19.53125 0 
L 0.34375 52.828125 
L 9.71875 52.828125 
L 21.34375 18.453125 
Q 21.6875 17.390625 22.140625 15.84375 
Q 22.609375 14.3125 23.09375 12.640625 
Q 23.578125 10.984375 24 9.4375 
Q 24.421875 7.90625 24.703125 6.890625 
Q 25 7.90625 25.453125 9.4375 
Q 25.921875 10.984375 26.40625 12.59375 
Q 26.90625 14.203125 27.421875 15.734375 
Q 27.9375 17.28125 28.328125 18.359375 
L 40.328125 52.828125 
L 49.65625 52.828125 
z
" id="LiberationSans-76"/>
      <path d="M 20.21875 -0.984375 
Q 12.25 -0.984375 8.25 3.21875 
Q 4.25 7.421875 4.25 14.75 
Q 4.25 19.96875 6.21875 23.3125 
Q 8.203125 26.65625 11.390625 28.5625 
Q 14.59375 30.46875 18.6875 31.203125 
Q 22.796875 31.9375 27.046875 32.03125 
L 38.921875 32.234375 
L 38.921875 35.109375 
Q 38.921875 38.375 38.234375 40.671875 
Q 37.546875 42.96875 36.125 44.375 
Q 34.71875 45.796875 32.59375 46.453125 
Q 30.46875 47.125 27.59375 47.125 
Q 25.046875 47.125 23 46.75 
Q 20.953125 46.390625 19.4375 45.4375 
Q 17.921875 44.484375 16.984375 42.84375 
Q 16.0625 41.21875 15.765625 38.71875 
L 6.59375 39.546875 
Q 7.078125 42.671875 8.4375 45.28125 
Q 9.8125 47.90625 12.328125 49.796875 
Q 14.84375 51.703125 18.625 52.75 
Q 22.40625 53.8125 27.78125 53.8125 
Q 37.75 53.8125 42.765625 49.234375 
Q 47.796875 44.671875 47.796875 36.03125 
L 47.796875 13.28125 
Q 47.796875 9.375 48.828125 7.390625 
Q 49.859375 5.421875 52.734375 5.421875 
Q 53.46875 5.421875 54.203125 5.515625 
Q 54.9375 5.609375 55.609375 5.765625 
L 55.609375 0.296875 
Q 53.953125 -0.09375 52.3125 -0.28125 
Q 50.6875 -0.484375 48.828125 -0.484375 
Q 46.34375 -0.484375 44.5625 0.171875 
Q 42.78125 0.828125 41.65625 2.171875 
Q 40.53125 3.515625 39.9375 5.484375 
Q 39.359375 7.46875 39.203125 10.109375 
L 38.921875 10.109375 
Q 37.5 7.5625 35.8125 5.515625 
Q 34.125 3.46875 31.875 2.03125 
Q 29.640625 0.59375 26.78125 -0.1875 
Q 23.921875 -0.984375 20.21875 -0.984375 
z
M 22.21875 5.609375 
Q 26.421875 5.609375 29.5625 7.140625 
Q 32.71875 8.6875 34.78125 11.078125 
Q 36.859375 13.484375 37.890625 16.3125 
Q 38.921875 19.140625 38.921875 21.734375 
L 38.921875 26.078125 
L 29.296875 25.875 
Q 26.078125 25.828125 23.171875 25.40625 
Q 20.265625 25 18.0625 23.78125 
Q 15.875 22.5625 14.578125 20.359375 
Q 13.28125 18.171875 13.28125 14.59375 
Q 13.28125 10.296875 15.59375 7.953125 
Q 17.921875 5.609375 22.21875 5.609375 
z
" id="LiberationSans-61"/>
      <path d="M 13.421875 26.65625 
Q 13.421875 22.125 14.078125 18.3125 
Q 14.75 14.5 16.3125 11.734375 
Q 17.875 8.984375 20.4375 7.46875 
Q 23 5.953125 26.765625 5.953125 
Q 31.453125 5.953125 34.59375 8.484375 
Q 37.75 11.03125 38.484375 16.3125 
L 47.359375 15.71875 
Q 46.921875 12.453125 45.453125 9.421875 
Q 44 6.390625 41.484375 4.09375 
Q 38.96875 1.8125 35.34375 0.40625 
Q 31.734375 -0.984375 27 -0.984375 
Q 20.796875 -0.984375 16.453125 1.109375 
Q 12.109375 3.21875 9.390625 6.90625 
Q 6.6875 10.59375 5.46875 15.59375 
Q 4.25 20.609375 4.25 26.46875 
Q 4.25 31.78125 5.125 35.859375 
Q 6 39.9375 7.59375 42.984375 
Q 9.1875 46.046875 11.328125 48.125 
Q 13.484375 50.203125 15.984375 51.4375 
Q 18.5 52.6875 21.28125 53.25 
Q 24.078125 53.8125 26.90625 53.8125 
Q 31.34375 53.8125 34.8125 52.59375 
Q 38.28125 51.375 40.796875 49.25 
Q 43.3125 47.125 44.875 44.234375 
Q 46.4375 41.359375 47.078125 38.03125 
L 38.03125 37.359375 
Q 37.359375 41.75 34.5625 44.328125 
Q 31.78125 46.921875 26.65625 46.921875 
Q 22.90625 46.921875 20.390625 45.671875 
Q 17.875 44.4375 16.3125 41.921875 
Q 14.75 39.40625 14.078125 35.59375 
Q 13.421875 31.78125 13.421875 26.65625 
z
" id="LiberationSans-63"/>
     </defs>
     <g style="fill:#262626;" transform="translate(364.239062 50.806875)scale(0.1 -0.1)">
      <use xlink:href="#LiberationSans-76"/>
      <use x="50" xlink:href="#LiberationSans-61"/>
      <use x="105.615234" xlink:href="#LiberationSans-63"/>
     </g>
    </g>
    <g id="line2d_37">
     <path d="M 336.239062 61.62875 
L 356.239062 61.62875 
" style="fill:none;stroke:#55a868;stroke-linecap:round;stroke-width:1.75;"/>
    </g>
    <g id="line2d_38"/>
    <g id="text_20">
     <!-- al -->
     <defs>
      <path d="M 6.734375 0 
L 6.734375 72.46875 
L 15.53125 72.46875 
L 15.53125 0 
z
" id="LiberationSans-6c"/>
     </defs>
     <g style="fill:#262626;" transform="translate(364.239062 65.12875)scale(0.1 -0.1)">
      <use xlink:href="#LiberationSans-61"/>
      <use x="55.615234" xlink:href="#LiberationSans-6c"/>
     </g>
    </g>
   </g>
  </g>
 </g>
 <defs>
  <clipPath id="p3126e8a4bc">
   <rect height="217.44" width="334.8" x="54" y="34.56"/>
  </clipPath>
 </defs>
</svg>
