<?xml version="1.0" encoding="utf-8" standalone="no"?>
<!DOCTYPE svg PUBLIC "-//W3C//DTD SVG 1.1//EN"
  "http://www.w3.org/Graphics/SVG/1.1/DTD/svg11.dtd">
<!-- Created with matplotlib (http://matplotlib.org/) -->
<svg height="288pt" version="1.1" viewBox="0 0 432 288" width="432pt" xmlns="http://www.w3.org/2000/svg" xmlns:xlink="http://www.w3.org/1999/xlink">
 <defs>
  <style type="text/css">
*{stroke-linecap:butt;stroke-linejoin:round;}
  </style>
 </defs>
 <g id="figure_1">
  <g id="patch_1">
   <path d="M 0 288 
L 432 288 
L 432 0 
L 0 0 
z
" style="fill:#ffffff;"/>
  </g>
  <g id="axes_1">
   <g id="patch_2">
    <path d="M 54 252 
L 388.8 252 
L 388.8 34.56 
L 54 34.56 
z
" style="fill:#eaeaf2;"/>
   </g>
   <g id="matplotlib.axis_1">
    <g id="xtick_1">
     <g id="line2d_1">
      <path clip-path="url(#pee0e1554b4)" d="M 54 252 
L 54 34.56 
" style="fill:none;stroke:#ffffff;stroke-linecap:round;"/>
     </g>
     <g id="line2d_2"/>
     <g id="text_1">
      <!-- 10 -->
      <defs>
       <path d="M 7.625 0 
L 7.625 7.46875 
L 25.140625 7.46875 
L 25.140625 60.40625 
L 9.625 49.3125 
L 9.625 57.625 
L 25.875 68.796875 
L 33.984375 68.796875 
L 33.984375 7.46875 
L 50.734375 7.46875 
L 50.734375 0 
z
" id="LiberationSans-31"/>
       <path d="M 51.703125 34.421875 
Q 51.703125 24.515625 49.828125 17.75 
Q 47.953125 10.984375 44.703125 6.8125 
Q 41.453125 2.640625 37.0625 0.828125 
Q 32.671875 -0.984375 27.6875 -0.984375 
Q 22.65625 -0.984375 18.3125 0.828125 
Q 13.96875 2.640625 10.765625 6.78125 
Q 7.5625 10.9375 5.734375 17.703125 
Q 3.90625 24.46875 3.90625 34.421875 
Q 3.90625 44.828125 5.734375 51.640625 
Q 7.5625 58.453125 10.78125 62.5 
Q 14.015625 66.546875 18.40625 68.1875 
Q 22.796875 69.828125 27.984375 69.828125 
Q 32.90625 69.828125 37.21875 68.1875 
Q 41.546875 66.546875 44.765625 62.5 
Q 48 58.453125 49.84375 51.640625 
Q 51.703125 44.828125 51.703125 34.421875 
z
M 42.78125 34.421875 
Q 42.78125 42.625 41.796875 48.0625 
Q 40.828125 53.515625 38.921875 56.765625 
Q 37.015625 60.015625 34.25 61.359375 
Q 31.5 62.703125 27.984375 62.703125 
Q 24.265625 62.703125 21.4375 61.328125 
Q 18.609375 59.96875 16.671875 56.71875 
Q 14.75 53.46875 13.765625 48.015625 
Q 12.796875 42.578125 12.796875 34.421875 
Q 12.796875 26.515625 13.796875 21.09375 
Q 14.796875 15.671875 16.71875 12.375 
Q 18.65625 9.078125 21.4375 7.640625 
Q 24.21875 6.203125 27.78125 6.203125 
Q 31.25 6.203125 34.03125 7.640625 
Q 36.8125 9.078125 38.734375 12.375 
Q 40.671875 15.671875 41.71875 21.09375 
Q 42.78125 26.515625 42.78125 34.421875 
z
" id="LiberationSans-30"/>
      </defs>
      <g style="fill:#262626;" transform="translate(48.439062 266.246875)scale(0.1 -0.1)">
       <use xlink:href="#LiberationSans-31"/>
       <use x="55.615234" xlink:href="#LiberationSans-30"/>
      </g>
     </g>
    </g>
    <g id="xtick_2">
     <g id="line2d_3">
      <path clip-path="url(#pee0e1554b4)" d="M 91.2 252 
L 91.2 34.56 
" style="fill:none;stroke:#ffffff;stroke-linecap:round;"/>
     </g>
     <g id="line2d_4"/>
     <g id="text_2">
      <!-- 20 -->
      <defs>
       <path d="M 5.03125 0 
L 5.03125 6.203125 
Q 7.515625 11.921875 11.109375 16.28125 
Q 14.703125 20.65625 18.65625 24.1875 
Q 22.609375 27.734375 26.484375 30.765625 
Q 30.375 33.796875 33.5 36.8125 
Q 36.625 39.84375 38.546875 43.15625 
Q 40.484375 46.484375 40.484375 50.6875 
Q 40.484375 53.609375 39.59375 55.828125 
Q 38.71875 58.0625 37.0625 59.5625 
Q 35.40625 61.078125 33.078125 61.828125 
Q 30.765625 62.59375 27.9375 62.59375 
Q 25.296875 62.59375 22.96875 61.859375 
Q 20.65625 61.140625 18.84375 59.671875 
Q 17.046875 58.203125 15.890625 56.03125 
Q 14.75 53.859375 14.40625 50.984375 
L 5.421875 51.8125 
Q 5.859375 55.515625 7.46875 58.78125 
Q 9.078125 62.0625 11.90625 64.53125 
Q 14.75 67 18.71875 68.40625 
Q 22.703125 69.828125 27.9375 69.828125 
Q 33.0625 69.828125 37.0625 68.609375 
Q 41.0625 67.390625 43.8125 64.984375 
Q 46.578125 62.59375 48.046875 59.078125 
Q 49.515625 55.5625 49.515625 50.984375 
Q 49.515625 47.515625 48.265625 44.390625 
Q 47.015625 41.265625 44.9375 38.421875 
Q 42.875 35.59375 40.140625 32.953125 
Q 37.40625 30.328125 34.421875 27.8125 
Q 31.453125 25.296875 28.421875 22.828125 
Q 25.390625 20.359375 22.71875 17.859375 
Q 20.0625 15.375 17.96875 12.8125 
Q 15.875 10.25 14.703125 7.46875 
L 50.59375 7.46875 
L 50.59375 0 
z
" id="LiberationSans-32"/>
      </defs>
      <g style="fill:#262626;" transform="translate(85.639063 266.246875)scale(0.1 -0.1)">
       <use xlink:href="#LiberationSans-32"/>
       <use x="55.615234" xlink:href="#LiberationSans-30"/>
      </g>
     </g>
    </g>
    <g id="xtick_3">
     <g id="line2d_5">
      <path clip-path="url(#pee0e1554b4)" d="M 128.4 252 
L 128.4 34.56 
" style="fill:none;stroke:#ffffff;stroke-linecap:round;"/>
     </g>
     <g id="line2d_6"/>
     <g id="text_3">
      <!-- 30 -->
      <defs>
       <path d="M 51.21875 19 
Q 51.21875 14.265625 49.671875 10.546875 
Q 48.140625 6.84375 45.1875 4.265625 
Q 42.234375 1.703125 37.859375 0.359375 
Q 33.5 -0.984375 27.875 -0.984375 
Q 21.484375 -0.984375 17.109375 0.609375 
Q 12.75 2.203125 9.90625 4.8125 
Q 7.078125 7.421875 5.65625 10.765625 
Q 4.25 14.109375 3.8125 17.671875 
L 12.890625 18.5 
Q 13.28125 15.765625 14.328125 13.515625 
Q 15.375 11.28125 17.1875 9.671875 
Q 19 8.0625 21.625 7.171875 
Q 24.265625 6.296875 27.875 6.296875 
Q 34.515625 6.296875 38.296875 9.5625 
Q 42.09375 12.84375 42.09375 19.28125 
Q 42.09375 23.09375 40.40625 25.40625 
Q 38.71875 27.734375 36.203125 29.03125 
Q 33.6875 30.328125 30.734375 30.765625 
Q 27.78125 31.203125 25.296875 31.203125 
L 20.3125 31.203125 
L 20.3125 38.8125 
L 25.09375 38.8125 
Q 27.59375 38.8125 30.265625 39.328125 
Q 32.953125 39.84375 35.171875 41.1875 
Q 37.40625 42.53125 38.84375 44.828125 
Q 40.28125 47.125 40.28125 50.6875 
Q 40.28125 56.203125 37.03125 59.390625 
Q 33.796875 62.59375 27.390625 62.59375 
Q 21.578125 62.59375 17.984375 59.609375 
Q 14.40625 56.640625 13.8125 51.21875 
L 4.984375 51.90625 
Q 5.515625 56.453125 7.46875 59.8125 
Q 9.421875 63.1875 12.421875 65.40625 
Q 15.4375 67.625 19.28125 68.71875 
Q 23.140625 69.828125 27.484375 69.828125 
Q 33.25 69.828125 37.390625 68.375 
Q 41.546875 66.9375 44.1875 64.46875 
Q 46.828125 62.015625 48.0625 58.6875 
Q 49.3125 55.375 49.3125 51.609375 
Q 49.3125 48.578125 48.484375 45.9375 
Q 47.65625 43.3125 45.890625 41.203125 
Q 44.140625 39.109375 41.421875 37.59375 
Q 38.71875 36.078125 34.90625 35.296875 
L 34.90625 35.109375 
Q 39.0625 34.671875 42.140625 33.21875 
Q 45.21875 31.78125 47.21875 29.625 
Q 49.21875 27.484375 50.21875 24.75 
Q 51.21875 22.015625 51.21875 19 
z
" id="LiberationSans-33"/>
      </defs>
      <g style="fill:#262626;" transform="translate(122.839063 266.246875)scale(0.1 -0.1)">
       <use xlink:href="#LiberationSans-33"/>
       <use x="55.615234" xlink:href="#LiberationSans-30"/>
      </g>
     </g>
    </g>
    <g id="xtick_4">
     <g id="line2d_7">
      <path clip-path="url(#pee0e1554b4)" d="M 165.6 252 
L 165.6 34.56 
" style="fill:none;stroke:#ffffff;stroke-linecap:round;"/>
     </g>
     <g id="line2d_8"/>
     <g id="text_4">
      <!-- 40 -->
      <defs>
       <path d="M 43.015625 15.578125 
L 43.015625 0 
L 34.71875 0 
L 34.71875 15.578125 
L 2.296875 15.578125 
L 2.296875 22.40625 
L 33.796875 68.796875 
L 43.015625 68.796875 
L 43.015625 22.515625 
L 52.6875 22.515625 
L 52.6875 15.578125 
z
M 34.71875 58.890625 
Q 34.625 58.640625 34.234375 57.9375 
Q 33.84375 57.234375 33.34375 56.34375 
Q 32.859375 55.46875 32.34375 54.5625 
Q 31.84375 53.65625 31.453125 53.078125 
L 13.8125 27.09375 
Q 13.578125 26.703125 13.109375 26.0625 
Q 12.640625 25.4375 12.15625 24.78125 
Q 11.671875 24.125 11.171875 23.484375 
Q 10.6875 22.859375 10.40625 22.515625 
L 34.71875 22.515625 
z
" id="LiberationSans-34"/>
      </defs>
      <g style="fill:#262626;" transform="translate(160.039063 266.246875)scale(0.1 -0.1)">
       <use xlink:href="#LiberationSans-34"/>
       <use x="55.615234" xlink:href="#LiberationSans-30"/>
      </g>
     </g>
    </g>
    <g id="xtick_5">
     <g id="line2d_9">
      <path clip-path="url(#pee0e1554b4)" d="M 202.8 252 
L 202.8 34.56 
" style="fill:none;stroke:#ffffff;stroke-linecap:round;"/>
     </g>
     <g id="line2d_10"/>
     <g id="text_5">
      <!-- 50 -->
      <defs>
       <path d="M 51.421875 22.40625 
Q 51.421875 17.234375 49.859375 12.9375 
Q 48.296875 8.640625 45.21875 5.53125 
Q 42.140625 2.4375 37.578125 0.71875 
Q 33.015625 -0.984375 27 -0.984375 
Q 21.578125 -0.984375 17.546875 0.28125 
Q 13.53125 1.5625 10.734375 3.78125 
Q 7.953125 6 6.3125 8.984375 
Q 4.6875 11.96875 4 15.375 
L 12.890625 16.40625 
Q 13.421875 14.453125 14.390625 12.625 
Q 15.375 10.796875 17.0625 9.34375 
Q 18.75 7.90625 21.21875 7.046875 
Q 23.6875 6.203125 27.203125 6.203125 
Q 30.609375 6.203125 33.390625 7.25 
Q 36.1875 8.296875 38.15625 10.34375 
Q 40.140625 12.40625 41.203125 15.375 
Q 42.28125 18.359375 42.28125 22.21875 
Q 42.28125 25.390625 41.25 28.046875 
Q 40.234375 30.71875 38.328125 32.640625 
Q 36.421875 34.578125 33.65625 35.640625 
Q 30.90625 36.71875 27.390625 36.71875 
Q 25.203125 36.71875 23.34375 36.328125 
Q 21.484375 35.9375 19.890625 35.25 
Q 18.3125 34.578125 17.015625 33.671875 
Q 15.71875 32.765625 14.59375 31.78125 
L 6 31.78125 
L 8.296875 68.796875 
L 47.40625 68.796875 
L 47.40625 61.328125 
L 16.3125 61.328125 
L 14.984375 39.5 
Q 17.328125 41.3125 20.84375 42.59375 
Q 24.359375 43.890625 29.203125 43.890625 
Q 34.328125 43.890625 38.421875 42.328125 
Q 42.53125 40.765625 45.40625 37.90625 
Q 48.296875 35.0625 49.859375 31.109375 
Q 51.421875 27.15625 51.421875 22.40625 
z
" id="LiberationSans-35"/>
      </defs>
      <g style="fill:#262626;" transform="translate(197.239063 266.246875)scale(0.1 -0.1)">
       <use xlink:href="#LiberationSans-35"/>
       <use x="55.615234" xlink:href="#LiberationSans-30"/>
      </g>
     </g>
    </g>
    <g id="xtick_6">
     <g id="line2d_11">
      <path clip-path="url(#pee0e1554b4)" d="M 240 252 
L 240 34.56 
" style="fill:none;stroke:#ffffff;stroke-linecap:round;"/>
     </g>
     <g id="line2d_12"/>
     <g id="text_6">
      <!-- 60 -->
      <defs>
       <path d="M 51.21875 22.515625 
Q 51.21875 17.328125 49.78125 13 
Q 48.34375 8.6875 45.53125 5.578125 
Q 42.71875 2.484375 38.5625 0.75 
Q 34.421875 -0.984375 29 -0.984375 
Q 23 -0.984375 18.5 1.3125 
Q 14.015625 3.609375 11.03125 7.921875 
Q 8.0625 12.25 6.5625 18.53125 
Q 5.078125 24.8125 5.078125 32.8125 
Q 5.078125 42 6.765625 48.921875 
Q 8.453125 55.859375 11.625 60.5 
Q 14.796875 65.140625 19.359375 67.484375 
Q 23.921875 69.828125 29.6875 69.828125 
Q 33.203125 69.828125 36.28125 69.09375 
Q 39.359375 68.359375 41.875 66.71875 
Q 44.390625 65.09375 46.28125 62.40625 
Q 48.1875 59.71875 49.3125 55.8125 
L 40.921875 54.296875 
Q 39.546875 58.734375 36.546875 60.71875 
Q 33.546875 62.703125 29.59375 62.703125 
Q 25.984375 62.703125 23.046875 60.984375 
Q 20.125 59.28125 18.0625 55.875 
Q 16.015625 52.484375 14.90625 47.359375 
Q 13.8125 42.234375 13.8125 35.40625 
Q 16.21875 39.84375 20.5625 42.15625 
Q 24.90625 44.484375 30.515625 44.484375 
Q 35.203125 44.484375 39.015625 42.96875 
Q 42.828125 41.453125 45.53125 38.59375 
Q 48.25 35.75 49.734375 31.671875 
Q 51.21875 27.59375 51.21875 22.515625 
z
M 42.28125 22.125 
Q 42.28125 25.6875 41.40625 28.5625 
Q 40.53125 31.453125 38.765625 33.46875 
Q 37.015625 35.5 34.421875 36.59375 
Q 31.84375 37.703125 28.421875 37.703125 
Q 26.03125 37.703125 23.578125 36.984375 
Q 21.140625 36.28125 19.15625 34.6875 
Q 17.1875 33.109375 15.9375 30.515625 
Q 14.703125 27.9375 14.703125 24.21875 
Q 14.703125 20.40625 15.671875 17.109375 
Q 16.65625 13.8125 18.484375 11.375 
Q 20.3125 8.9375 22.890625 7.515625 
Q 25.484375 6.109375 28.71875 6.109375 
Q 31.890625 6.109375 34.40625 7.203125 
Q 36.921875 8.296875 38.671875 10.375 
Q 40.4375 12.453125 41.359375 15.421875 
Q 42.28125 18.40625 42.28125 22.125 
z
" id="LiberationSans-36"/>
      </defs>
      <g style="fill:#262626;" transform="translate(234.439063 266.246875)scale(0.1 -0.1)">
       <use xlink:href="#LiberationSans-36"/>
       <use x="55.615234" xlink:href="#LiberationSans-30"/>
      </g>
     </g>
    </g>
    <g id="xtick_7">
     <g id="line2d_13">
      <path clip-path="url(#pee0e1554b4)" d="M 277.2 252 
L 277.2 34.56 
" style="fill:none;stroke:#ffffff;stroke-linecap:round;"/>
     </g>
     <g id="line2d_14"/>
     <g id="text_7">
      <!-- 70 -->
      <defs>
       <path d="M 50.59375 61.671875 
Q 45.40625 53.765625 41.0625 46.453125 
Q 36.71875 39.15625 33.59375 31.75 
Q 30.46875 24.359375 28.734375 16.578125 
Q 27 8.796875 27 0 
L 17.828125 0 
Q 17.828125 8.25 19.78125 16.1875 
Q 21.734375 24.125 25.046875 31.765625 
Q 28.375 39.40625 32.765625 46.78125 
Q 37.15625 54.15625 42.09375 61.328125 
L 5.125 61.328125 
L 5.125 68.796875 
L 50.59375 68.796875 
z
" id="LiberationSans-37"/>
      </defs>
      <g style="fill:#262626;" transform="translate(271.639063 266.246875)scale(0.1 -0.1)">
       <use xlink:href="#LiberationSans-37"/>
       <use x="55.615234" xlink:href="#LiberationSans-30"/>
      </g>
     </g>
    </g>
    <g id="xtick_8">
     <g id="line2d_15">
      <path clip-path="url(#pee0e1554b4)" d="M 314.4 252 
L 314.4 34.56 
" style="fill:none;stroke:#ffffff;stroke-linecap:round;"/>
     </g>
     <g id="line2d_16"/>
     <g id="text_8">
      <!-- 80 -->
      <defs>
       <path d="M 51.265625 19.1875 
Q 51.265625 14.796875 49.875 11.109375 
Q 48.484375 7.421875 45.625 4.734375 
Q 42.78125 2.046875 38.328125 0.53125 
Q 33.890625 -0.984375 27.828125 -0.984375 
Q 21.78125 -0.984375 17.359375 0.53125 
Q 12.9375 2.046875 10.03125 4.703125 
Q 7.125 7.375 5.734375 11.0625 
Q 4.34375 14.75 4.34375 19.09375 
Q 4.34375 22.859375 5.484375 25.78125 
Q 6.640625 28.71875 8.5625 30.828125 
Q 10.5 32.953125 12.96875 34.25 
Q 15.4375 35.546875 18.0625 35.984375 
L 18.0625 36.1875 
Q 15.1875 36.859375 12.90625 38.375 
Q 10.640625 39.890625 9.09375 42.015625 
Q 7.5625 44.140625 6.75 46.71875 
Q 5.953125 49.3125 5.953125 52.203125 
Q 5.953125 55.8125 7.34375 59 
Q 8.734375 62.203125 11.46875 64.625 
Q 14.203125 67.046875 18.25 68.4375 
Q 22.3125 69.828125 27.640625 69.828125 
Q 33.25 69.828125 37.375 68.40625 
Q 41.5 67 44.203125 64.578125 
Q 46.921875 62.15625 48.234375 58.9375 
Q 49.5625 55.71875 49.5625 52.09375 
Q 49.5625 49.265625 48.75 46.671875 
Q 47.953125 44.09375 46.40625 41.96875 
Q 44.875 39.84375 42.59375 38.34375 
Q 40.328125 36.859375 37.359375 36.28125 
L 37.359375 36.078125 
Q 40.328125 35.59375 42.859375 34.296875 
Q 45.40625 33.015625 47.265625 30.890625 
Q 49.125 28.765625 50.1875 25.828125 
Q 51.265625 22.90625 51.265625 19.1875 
z
M 40.4375 51.609375 
Q 40.4375 54.203125 39.765625 56.34375 
Q 39.109375 58.5 37.59375 60.03125 
Q 36.078125 61.578125 33.640625 62.421875 
Q 31.203125 63.28125 27.640625 63.28125 
Q 24.171875 63.28125 21.78125 62.421875 
Q 19.390625 61.578125 17.84375 60.03125 
Q 16.3125 58.5 15.625 56.34375 
Q 14.9375 54.203125 14.9375 51.609375 
Q 14.9375 49.5625 15.46875 47.40625 
Q 16.015625 45.265625 17.421875 43.5 
Q 18.84375 41.75 21.328125 40.625 
Q 23.828125 39.5 27.734375 39.5 
Q 31.890625 39.5 34.40625 40.625 
Q 36.921875 41.75 38.25 43.5 
Q 39.59375 45.265625 40.015625 47.40625 
Q 40.4375 49.5625 40.4375 51.609375 
z
M 42.140625 20.015625 
Q 42.140625 22.515625 41.453125 24.828125 
Q 40.765625 27.15625 39.109375 28.9375 
Q 37.453125 30.71875 34.640625 31.8125 
Q 31.84375 32.90625 27.640625 32.90625 
Q 23.78125 32.90625 21.0625 31.8125 
Q 18.359375 30.71875 16.671875 28.90625 
Q 14.984375 27.09375 14.203125 24.71875 
Q 13.421875 22.359375 13.421875 19.828125 
Q 13.421875 16.65625 14.203125 14.03125 
Q 14.984375 11.421875 16.6875 9.546875 
Q 18.40625 7.671875 21.1875 6.640625 
Q 23.96875 5.609375 27.9375 5.609375 
Q 31.9375 5.609375 34.671875 6.640625 
Q 37.40625 7.671875 39.0625 9.546875 
Q 40.71875 11.421875 41.421875 14.078125 
Q 42.140625 16.75 42.140625 20.015625 
z
" id="LiberationSans-38"/>
      </defs>
      <g style="fill:#262626;" transform="translate(308.839063 266.246875)scale(0.1 -0.1)">
       <use xlink:href="#LiberationSans-38"/>
       <use x="55.615234" xlink:href="#LiberationSans-30"/>
      </g>
     </g>
    </g>
    <g id="xtick_9">
     <g id="line2d_17">
      <path clip-path="url(#pee0e1554b4)" d="M 351.6 252 
L 351.6 34.56 
" style="fill:none;stroke:#ffffff;stroke-linecap:round;"/>
     </g>
     <g id="line2d_18"/>
     <g id="text_9">
      <!-- 90 -->
      <defs>
       <path d="M 50.875 35.796875 
Q 50.875 26.609375 49.140625 19.703125 
Q 47.40625 12.796875 44.1875 8.203125 
Q 40.96875 3.609375 36.34375 1.3125 
Q 31.734375 -0.984375 25.984375 -0.984375 
Q 22.015625 -0.984375 18.84375 -0.171875 
Q 15.671875 0.640625 13.171875 2.34375 
Q 10.6875 4.046875 8.921875 6.78125 
Q 7.171875 9.515625 6.109375 13.375 
L 14.5 14.703125 
Q 15.875 10.25 18.78125 8.171875 
Q 21.6875 6.109375 26.125 6.109375 
Q 29.6875 6.109375 32.640625 7.78125 
Q 35.59375 9.46875 37.671875 12.84375 
Q 39.75 16.21875 40.921875 21.296875 
Q 42.09375 26.375 42.1875 33.203125 
Q 41.15625 30.90625 39.375 29.09375 
Q 37.59375 27.296875 35.328125 26.046875 
Q 33.0625 24.8125 30.421875 24.140625 
Q 27.78125 23.484375 25.09375 23.484375 
Q 20.40625 23.484375 16.625 25.171875 
Q 12.84375 26.859375 10.203125 29.875 
Q 7.5625 32.90625 6.125 37.171875 
Q 4.6875 41.453125 4.6875 46.6875 
Q 4.6875 52 6.21875 56.296875 
Q 7.765625 60.59375 10.6875 63.59375 
Q 13.625 66.609375 17.890625 68.21875 
Q 22.171875 69.828125 27.59375 69.828125 
Q 39.0625 69.828125 44.96875 61.328125 
Q 50.875 52.828125 50.875 35.796875 
z
M 41.3125 44.28125 
Q 41.3125 48.09375 40.40625 51.453125 
Q 39.5 54.828125 37.71875 57.3125 
Q 35.9375 59.8125 33.328125 61.25 
Q 30.71875 62.703125 27.296875 62.703125 
Q 24.125 62.703125 21.578125 61.578125 
Q 19.046875 60.453125 17.28125 58.375 
Q 15.53125 56.296875 14.578125 53.3125 
Q 13.625 50.34375 13.625 46.6875 
Q 13.625 43.21875 14.46875 40.234375 
Q 15.328125 37.25 17.03125 35.078125 
Q 18.75 32.90625 21.28125 31.65625 
Q 23.828125 30.421875 27.203125 30.421875 
Q 29.640625 30.421875 32.15625 31.25 
Q 34.671875 32.078125 36.6875 33.78125 
Q 38.71875 35.5 40.015625 38.109375 
Q 41.3125 40.71875 41.3125 44.28125 
z
" id="LiberationSans-39"/>
      </defs>
      <g style="fill:#262626;" transform="translate(346.039062 266.246875)scale(0.1 -0.1)">
       <use xlink:href="#LiberationSans-39"/>
       <use x="55.615234" xlink:href="#LiberationSans-30"/>
      </g>
     </g>
    </g>
    <g id="xtick_10">
     <g id="line2d_19">
      <path clip-path="url(#pee0e1554b4)" d="M 388.8 252 
L 388.8 34.56 
" style="fill:none;stroke:#ffffff;stroke-linecap:round;"/>
     </g>
     <g id="line2d_20"/>
     <g id="text_10">
      <!-- 100 -->
      <g style="fill:#262626;" transform="translate(380.458594 266.246875)scale(0.1 -0.1)">
       <use xlink:href="#LiberationSans-31"/>
       <use x="55.615234" xlink:href="#LiberationSans-30"/>
       <use x="111.230469" xlink:href="#LiberationSans-30"/>
      </g>
     </g>
    </g>
    <g id="text_11">
     <!-- Energy (keV) -->
     <defs>
      <path d="M 8.203125 0 
L 8.203125 68.796875 
L 60.40625 68.796875 
L 60.40625 61.1875 
L 17.53125 61.1875 
L 17.53125 39.109375 
L 57.46875 39.109375 
L 57.46875 31.59375 
L 17.53125 31.59375 
L 17.53125 7.625 
L 62.40625 7.625 
L 62.40625 0 
z
" id="LiberationSans-45"/>
      <path d="M 40.28125 0 
L 40.28125 33.5 
Q 40.28125 37.359375 39.71875 39.9375 
Q 39.15625 42.53125 37.890625 44.109375 
Q 36.625 45.703125 34.546875 46.359375 
Q 32.46875 47.015625 29.390625 47.015625 
Q 26.265625 47.015625 23.75 45.921875 
Q 21.234375 44.828125 19.453125 42.75 
Q 17.671875 40.671875 16.6875 37.625 
Q 15.71875 34.578125 15.71875 30.609375 
L 15.71875 0 
L 6.9375 0 
L 6.9375 41.546875 
Q 6.9375 43.21875 6.90625 45.046875 
Q 6.890625 46.875 6.828125 48.5 
Q 6.78125 50.140625 6.734375 51.3125 
Q 6.6875 52.484375 6.640625 52.828125 
L 14.9375 52.828125 
Q 14.984375 52.59375 15.03125 51.515625 
Q 15.09375 50.4375 15.15625 49.046875 
Q 15.234375 47.65625 15.28125 46.21875 
Q 15.328125 44.78125 15.328125 43.796875 
L 15.484375 43.796875 
Q 16.75 46.09375 18.265625 47.953125 
Q 19.78125 49.8125 21.78125 51.09375 
Q 23.78125 52.390625 26.359375 53.09375 
Q 28.953125 53.8125 32.375 53.8125 
Q 36.765625 53.8125 39.9375 52.734375 
Q 43.109375 51.65625 45.15625 49.40625 
Q 47.21875 47.171875 48.171875 43.625 
Q 49.125 40.09375 49.125 35.203125 
L 49.125 0 
z
" id="LiberationSans-6e"/>
      <path d="M 13.484375 24.5625 
Q 13.484375 20.40625 14.328125 16.90625 
Q 15.1875 13.421875 16.96875 10.90625 
Q 18.75 8.40625 21.53125 7 
Q 24.3125 5.609375 28.21875 5.609375 
Q 33.9375 5.609375 37.375 7.90625 
Q 40.828125 10.203125 42.046875 13.71875 
L 49.75 11.53125 
Q 48.921875 9.328125 47.4375 7.109375 
Q 45.953125 4.890625 43.453125 3.09375 
Q 40.96875 1.3125 37.234375 0.15625 
Q 33.5 -0.984375 28.21875 -0.984375 
Q 16.5 -0.984375 10.375 6 
Q 4.25 12.984375 4.25 26.765625 
Q 4.25 34.1875 6.09375 39.328125 
Q 7.953125 44.484375 11.171875 47.703125 
Q 14.40625 50.921875 18.703125 52.359375 
Q 23 53.8125 27.875 53.8125 
Q 34.515625 53.8125 38.984375 51.65625 
Q 43.453125 49.515625 46.15625 45.71875 
Q 48.875 41.9375 50.015625 36.8125 
Q 51.171875 31.6875 51.171875 25.734375 
L 51.171875 24.5625 
z
M 42.09375 31.296875 
Q 41.359375 39.65625 37.84375 43.484375 
Q 34.328125 47.3125 27.734375 47.3125 
Q 25.53125 47.3125 23.109375 46.609375 
Q 20.703125 45.90625 18.65625 44.09375 
Q 16.609375 42.28125 15.1875 39.171875 
Q 13.765625 36.078125 13.578125 31.296875 
z
" id="LiberationSans-65"/>
      <path d="M 6.9375 0 
L 6.9375 40.53125 
Q 6.9375 42.1875 6.90625 43.921875 
Q 6.890625 45.65625 6.828125 47.265625 
Q 6.78125 48.875 6.734375 50.28125 
Q 6.6875 51.703125 6.640625 52.828125 
L 14.9375 52.828125 
Q 14.984375 51.703125 15.0625 50.265625 
Q 15.140625 48.828125 15.203125 47.3125 
Q 15.28125 45.796875 15.296875 44.40625 
Q 15.328125 43.015625 15.328125 42.046875 
L 15.53125 42.046875 
Q 16.453125 45.0625 17.5 47.28125 
Q 18.5625 49.515625 19.96875 50.953125 
Q 21.390625 52.390625 23.34375 53.09375 
Q 25.296875 53.8125 28.078125 53.8125 
Q 29.15625 53.8125 30.125 53.640625 
Q 31.109375 53.46875 31.640625 53.328125 
L 31.640625 45.265625 
Q 30.765625 45.515625 29.59375 45.625 
Q 28.421875 45.75 26.953125 45.75 
Q 23.921875 45.75 21.796875 44.375 
Q 19.671875 43.015625 18.328125 40.59375 
Q 17 38.1875 16.359375 34.84375 
Q 15.71875 31.5 15.71875 27.546875 
L 15.71875 0 
z
" id="LiberationSans-72"/>
      <path d="M 26.765625 -20.75 
Q 22.21875 -20.75 18.703125 -19.8125 
Q 15.1875 -18.890625 12.6875 -17.15625 
Q 10.203125 -15.4375 8.640625 -13.03125 
Q 7.078125 -10.640625 6.390625 -7.71875 
L 15.234375 -6.453125 
Q 16.109375 -10.109375 19.109375 -12.078125 
Q 22.125 -14.0625 27 -14.0625 
Q 29.984375 -14.0625 32.421875 -13.234375 
Q 34.859375 -12.40625 36.5625 -10.5625 
Q 38.28125 -8.734375 39.203125 -5.796875 
Q 40.140625 -2.875 40.140625 1.3125 
L 40.140625 9.8125 
L 40.046875 9.8125 
Q 39.0625 7.8125 37.625 5.984375 
Q 36.1875 4.15625 34.109375 2.734375 
Q 32.03125 1.3125 29.296875 0.453125 
Q 26.5625 -0.390625 23.046875 -0.390625 
Q 18.015625 -0.390625 14.421875 1.296875 
Q 10.84375 2.984375 8.5625 6.34375 
Q 6.296875 9.71875 5.25 14.71875 
Q 4.203125 19.734375 4.203125 26.3125 
Q 4.203125 32.671875 5.25 37.75 
Q 6.296875 42.828125 8.65625 46.359375 
Q 11.03125 49.90625 14.8125 51.78125 
Q 18.609375 53.65625 24.03125 53.65625 
Q 29.640625 53.65625 33.765625 51.09375 
Q 37.890625 48.53125 40.140625 43.796875 
L 40.234375 43.796875 
Q 40.234375 45.015625 40.296875 46.53125 
Q 40.375 48.046875 40.453125 49.390625 
Q 40.53125 50.734375 40.625 51.703125 
Q 40.71875 52.6875 40.828125 52.828125 
L 49.171875 52.828125 
Q 49.125 52.390625 49.078125 51.34375 
Q 49.03125 50.296875 48.96875 48.828125 
Q 48.921875 47.359375 48.890625 45.578125 
Q 48.875 43.796875 48.875 41.890625 
L 48.875 1.515625 
Q 48.875 -9.578125 43.421875 -15.15625 
Q 37.984375 -20.75 26.765625 -20.75 
z
M 40.140625 26.421875 
Q 40.140625 31.9375 38.9375 35.859375 
Q 37.75 39.796875 35.796875 42.28125 
Q 33.84375 44.78125 31.328125 45.953125 
Q 28.8125 47.125 26.171875 47.125 
Q 22.796875 47.125 20.375 45.953125 
Q 17.96875 44.78125 16.375 42.265625 
Q 14.796875 39.75 14.03125 35.8125 
Q 13.28125 31.890625 13.28125 26.421875 
Q 13.28125 20.703125 14.03125 16.8125 
Q 14.796875 12.9375 16.359375 10.546875 
Q 17.921875 8.15625 20.3125 7.125 
Q 22.703125 6.109375 26.03125 6.109375 
Q 28.65625 6.109375 31.171875 7.21875 
Q 33.6875 8.34375 35.6875 10.78125 
Q 37.703125 13.234375 38.921875 17.09375 
Q 40.140625 20.953125 40.140625 26.421875 
z
" id="LiberationSans-67"/>
      <path d="M 29.5 0 
Q 27.640625 -4.78125 25.703125 -8.609375 
Q 23.78125 -12.453125 21.390625 -15.15625 
Q 19 -17.875 16.0625 -19.3125 
Q 13.140625 -20.75 9.328125 -20.75 
Q 7.671875 -20.75 6.25 -20.65625 
Q 4.828125 -20.5625 3.265625 -20.21875 
L 3.265625 -13.625 
Q 4.203125 -13.765625 5.375 -13.84375 
Q 6.546875 -13.921875 7.375 -13.921875 
Q 11.234375 -13.921875 14.546875 -11.03125 
Q 17.875 -8.15625 20.359375 -1.859375 
L 21.1875 0.25 
L 0.25 52.828125 
L 9.625 52.828125 
L 20.75 23.640625 
Q 21.234375 22.3125 21.984375 20.109375 
Q 22.75 17.921875 23.5 15.71875 
Q 24.265625 13.53125 24.84375 11.765625 
Q 25.4375 10.015625 25.53125 9.578125 
Q 25.6875 10.109375 26.25 11.6875 
Q 26.8125 13.28125 27.515625 15.234375 
Q 28.21875 17.1875 28.953125 19.1875 
Q 29.6875 21.1875 30.171875 22.65625 
L 40.53125 52.828125 
L 49.8125 52.828125 
z
" id="LiberationSans-79"/>
      <path id="LiberationSans-20"/>
      <path d="M 6.203125 25.984375 
Q 6.203125 32.765625 7.21875 38.96875 
Q 8.25 45.171875 10.4375 50.875 
Q 12.640625 56.59375 16.0625 61.953125 
Q 19.484375 67.328125 24.21875 72.46875 
L 32.71875 72.46875 
Q 28.125 67.328125 24.78125 61.9375 
Q 21.4375 56.546875 19.28125 50.796875 
Q 17.140625 45.0625 16.09375 38.859375 
Q 15.046875 32.671875 15.046875 25.875 
Q 15.046875 19.09375 16.09375 12.890625 
Q 17.140625 6.6875 19.28125 0.921875 
Q 21.4375 -4.828125 24.78125 -10.203125 
Q 28.125 -15.578125 32.71875 -20.703125 
L 24.21875 -20.703125 
Q 19.484375 -15.578125 16.0625 -10.203125 
Q 12.640625 -4.828125 10.4375 0.875 
Q 8.25 6.59375 7.21875 12.765625 
Q 6.203125 18.953125 6.203125 25.78125 
z
" id="LiberationSans-28"/>
      <path d="M 39.84375 0 
L 21.96875 24.125 
L 15.53125 18.796875 
L 15.53125 0 
L 6.734375 0 
L 6.734375 72.46875 
L 15.53125 72.46875 
L 15.53125 27.203125 
L 38.71875 52.828125 
L 49.03125 52.828125 
L 27.59375 30.125 
L 50.140625 0 
z
" id="LiberationSans-6b"/>
      <path d="M 38.1875 0 
L 28.515625 0 
L 0.4375 68.796875 
L 10.25 68.796875 
L 29.296875 20.359375 
Q 30.03125 18.171875 30.765625 15.984375 
Q 31.5 13.8125 32.078125 12.109375 
Q 32.765625 10.109375 33.40625 8.203125 
Q 33.984375 10.015625 34.671875 12.015625 
Q 35.25 13.71875 35.953125 15.859375 
Q 36.671875 18.015625 37.5 20.359375 
L 56.453125 68.796875 
L 66.265625 68.796875 
z
" id="LiberationSans-56"/>
      <path d="M 27.09375 25.78125 
Q 27.09375 18.953125 26.0625 12.765625 
Q 25.046875 6.59375 22.84375 0.875 
Q 20.65625 -4.828125 17.234375 -10.203125 
Q 13.8125 -15.578125 9.078125 -20.703125 
L 0.59375 -20.703125 
Q 5.171875 -15.578125 8.515625 -10.203125 
Q 11.859375 -4.828125 14 0.921875 
Q 16.15625 6.6875 17.203125 12.890625 
Q 18.265625 19.09375 18.265625 25.875 
Q 18.265625 32.671875 17.203125 38.859375 
Q 16.15625 45.0625 14 50.796875 
Q 11.859375 56.546875 8.515625 61.9375 
Q 5.171875 67.328125 0.59375 72.46875 
L 9.078125 72.46875 
Q 13.8125 67.328125 17.234375 61.953125 
Q 20.65625 56.59375 22.84375 50.875 
Q 25.046875 45.171875 26.0625 38.96875 
Q 27.09375 32.765625 27.09375 25.984375 
z
" id="LiberationSans-29"/>
     </defs>
     <g style="fill:#262626;" transform="translate(189.306641 280.293437)scale(0.11 -0.11)">
      <use xlink:href="#LiberationSans-45"/>
      <use x="66.699219" xlink:href="#LiberationSans-6e"/>
      <use x="122.314453" xlink:href="#LiberationSans-65"/>
      <use x="177.929688" xlink:href="#LiberationSans-72"/>
      <use x="211.230469" xlink:href="#LiberationSans-67"/>
      <use x="266.845703" xlink:href="#LiberationSans-79"/>
      <use x="316.845703" xlink:href="#LiberationSans-20"/>
      <use x="344.628906" xlink:href="#LiberationSans-28"/>
      <use x="377.929688" xlink:href="#LiberationSans-6b"/>
      <use x="427.929688" xlink:href="#LiberationSans-65"/>
      <use x="483.544922" xlink:href="#LiberationSans-56"/>
      <use x="550.244141" xlink:href="#LiberationSans-29"/>
     </g>
    </g>
   </g>
   <g id="matplotlib.axis_2">
    <g id="ytick_1">
     <g id="line2d_21">
      <path clip-path="url(#pee0e1554b4)" d="M 54 242.116364 
L 388.8 242.116364 
" style="fill:none;stroke:#ffffff;stroke-linecap:round;"/>
     </g>
     <g id="line2d_22"/>
     <g id="text_12">
      <!-- 0.0 -->
      <defs>
       <path d="M 9.125 0 
L 9.125 10.6875 
L 18.65625 10.6875 
L 18.65625 0 
z
" id="LiberationSans-2e"/>
      </defs>
      <g style="fill:#262626;" transform="translate(33.1 245.739801)scale(0.1 -0.1)">
       <use xlink:href="#LiberationSans-30"/>
       <use x="55.615234" xlink:href="#LiberationSans-2e"/>
       <use x="83.398438" xlink:href="#LiberationSans-30"/>
      </g>
     </g>
    </g>
    <g id="ytick_2">
     <g id="line2d_23">
      <path clip-path="url(#pee0e1554b4)" d="M 54 202.581818 
L 388.8 202.581818 
" style="fill:none;stroke:#ffffff;stroke-linecap:round;"/>
     </g>
     <g id="line2d_24"/>
     <g id="text_13">
      <!-- 0.2 -->
      <g style="fill:#262626;" transform="translate(33.1 206.205256)scale(0.1 -0.1)">
       <use xlink:href="#LiberationSans-30"/>
       <use x="55.615234" xlink:href="#LiberationSans-2e"/>
       <use x="83.398438" xlink:href="#LiberationSans-32"/>
      </g>
     </g>
    </g>
    <g id="ytick_3">
     <g id="line2d_25">
      <path clip-path="url(#pee0e1554b4)" d="M 54 163.047273 
L 388.8 163.047273 
" style="fill:none;stroke:#ffffff;stroke-linecap:round;"/>
     </g>
     <g id="line2d_26"/>
     <g id="text_14">
      <!-- 0.4 -->
      <g style="fill:#262626;" transform="translate(33.1 166.67071)scale(0.1 -0.1)">
       <use xlink:href="#LiberationSans-30"/>
       <use x="55.615234" xlink:href="#LiberationSans-2e"/>
       <use x="83.398438" xlink:href="#LiberationSans-34"/>
      </g>
     </g>
    </g>
    <g id="ytick_4">
     <g id="line2d_27">
      <path clip-path="url(#pee0e1554b4)" d="M 54 123.512727 
L 388.8 123.512727 
" style="fill:none;stroke:#ffffff;stroke-linecap:round;"/>
     </g>
     <g id="line2d_28"/>
     <g id="text_15">
      <!-- 0.6 -->
      <g style="fill:#262626;" transform="translate(33.1 127.136165)scale(0.1 -0.1)">
       <use xlink:href="#LiberationSans-30"/>
       <use x="55.615234" xlink:href="#LiberationSans-2e"/>
       <use x="83.398438" xlink:href="#LiberationSans-36"/>
      </g>
     </g>
    </g>
    <g id="ytick_5">
     <g id="line2d_29">
      <path clip-path="url(#pee0e1554b4)" d="M 54 83.978182 
L 388.8 83.978182 
" style="fill:none;stroke:#ffffff;stroke-linecap:round;"/>
     </g>
     <g id="line2d_30"/>
     <g id="text_16">
      <!-- 0.8 -->
      <g style="fill:#262626;" transform="translate(33.1 87.601619)scale(0.1 -0.1)">
       <use xlink:href="#LiberationSans-30"/>
       <use x="55.615234" xlink:href="#LiberationSans-2e"/>
       <use x="83.398438" xlink:href="#LiberationSans-38"/>
      </g>
     </g>
    </g>
    <g id="ytick_6">
     <g id="line2d_31">
      <path clip-path="url(#pee0e1554b4)" d="M 54 44.443636 
L 388.8 44.443636 
" style="fill:none;stroke:#ffffff;stroke-linecap:round;"/>
     </g>
     <g id="line2d_32"/>
     <g id="text_17">
      <!-- 1.0 -->
      <g style="fill:#262626;" transform="translate(33.1 48.067074)scale(0.1 -0.1)">
       <use xlink:href="#LiberationSans-31"/>
       <use x="55.615234" xlink:href="#LiberationSans-2e"/>
       <use x="83.398438" xlink:href="#LiberationSans-30"/>
      </g>
     </g>
    </g>
   </g>
   <g id="line2d_33">
    <path clip-path="url(#pee0e1554b4)" d="M 62.049667 172.143082 
L 62.049667 172.574247 
L 62.793667 172.574247 
L 62.793667 172.901339 
L 63.537667 172.901339 
L 63.537667 175.547805 
L 65.025667 175.547805 
L 65.025667 177.33194 
L 65.769667 177.33194 
L 65.769667 180.528515 
L 66.513667 180.528515 
L 66.513667 179.814861 
L 67.257667 179.814861 
L 67.257667 178.298346 
L 68.001667 178.298346 
L 68.001667 177.168394 
L 68.745667 177.168394 
L 68.745667 175.562673 
L 70.233667 175.51807 
L 70.233667 176.291195 
L 70.977667 176.291195 
L 70.977667 174.462457 
L 72.465667 174.536796 
L 72.465667 172.232288 
L 73.209667 172.232288 
L 73.209667 171.444295 
L 73.953667 171.444295 
L 73.953667 173.064884 
L 74.697667 173.064884 
L 74.697667 176.231724 
L 75.441667 176.231724 
L 75.441667 179.859464 
L 76.185667 179.859464 
L 76.185667 179.116075 
L 76.929667 179.116075 
L 76.929667 180.364969 
L 77.673667 180.364969 
L 77.673667 178.491628 
L 78.417667 178.491628 
L 78.417667 176.350666 
L 79.161667 176.350666 
L 79.161667 176.529079 
L 79.905667 176.529079 
L 79.905667 176.781832 
L 80.649667 176.781832 
L 80.649667 176.425005 
L 81.393667 176.425005 
L 81.393667 177.73337 
L 82.137667 177.73337 
L 82.137667 179.458034 
L 82.881667 179.458034 
L 82.881667 177.317072 
L 83.625667 177.317072 
L 83.625667 175.904632 
L 84.369667 175.904632 
L 84.369667 174.298911 
L 85.113667 174.298911 
L 85.113667 173.258166 
L 85.857667 173.258166 
L 85.857667 173.525786 
L 86.601667 173.525786 
L 86.601667 174.462457 
L 87.345667 174.462457 
L 87.345667 176.603418 
L 88.089667 176.603418 
L 88.089667 176.439873 
L 88.833667 176.439873 
L 88.833667 176.960245 
L 89.577667 176.960245 
L 89.577667 177.659031 
L 90.321667 177.659031 
L 90.321667 174.284043 
L 91.065667 174.284043 
L 91.065667 173.302769 
L 91.809667 173.302769 
L 91.809667 173.481183 
L 92.553667 173.481183 
L 92.553667 175.726219 
L 93.297667 175.726219 
L 93.297667 177.242733 
L 94.041667 177.242733 
L 94.041667 180.662325 
L 94.785667 180.662325 
L 94.785667 180.811003 
L 95.529667 180.811003 
L 95.529667 178.194272 
L 96.273667 178.194272 
L 96.273667 175.205846 
L 97.017667 175.205846 
L 97.017667 173.882613 
L 97.761667 173.882613 
L 97.761667 175.38426 
L 98.505667 175.38426 
L 98.505667 174.685474 
L 99.249667 174.685474 
L 99.249667 174.536796 
L 99.993667 174.536796 
L 99.993667 178.580834 
L 100.737667 178.580834 
L 100.737667 178.387553 
L 101.481667 178.387553 
L 101.481667 175.949236 
L 102.225667 175.949236 
L 102.225667 175.473466 
L 102.969667 175.473466 
L 102.969667 174.626002 
L 103.713667 174.626002 
L 103.713667 175.622144 
L 104.457667 175.622144 
L 104.457667 178.179404 
L 105.201667 178.179404 
L 105.201667 178.491628 
L 105.945667 178.491628 
L 105.945667 179.071471 
L 106.689667 179.071471 
L 106.689667 177.763106 
L 107.433667 177.763106 
L 107.433667 177.436015 
L 108.177667 177.436015 
L 108.177667 177.763106 
L 108.921667 177.763106 
L 108.921667 176.18712 
L 109.665667 176.18712 
L 109.665667 175.027433 
L 110.409667 175.027433 
L 110.409667 174.759812 
L 111.153667 174.759812 
L 111.153667 173.421711 
L 111.897667 173.421711 
L 111.897667 175.027433 
L 112.641667 175.027433 
L 112.641667 176.603418 
L 113.385667 176.603418 
L 113.385667 173.942084 
L 114.129667 173.942084 
L 114.129667 171.771387 
L 114.873667 171.771387 
L 114.873667 167.340785 
L 115.617667 167.340785 
L 115.617667 163.118333 
L 116.361667 163.118333 
L 116.361667 161.007107 
L 117.105667 161.007107 
L 117.105667 162.776374 
L 117.849667 162.776374 
L 117.849667 165.63099 
L 118.593667 165.63099 
L 118.593667 167.058297 
L 119.337667 167.058297 
L 119.337667 168.441002 
L 120.081667 168.441002 
L 120.081667 168.292324 
L 120.825667 168.292324 
L 120.825667 166.894752 
L 121.569667 166.894752 
L 121.569667 167.028562 
L 122.313667 167.028562 
L 122.313667 165.303898 
L 123.057667 165.303898 
L 123.057667 165.541783 
L 123.801667 165.541783 
L 123.801667 164.605112 
L 124.545667 164.605112 
L 124.545667 166.597396 
L 125.289667 166.597396 
L 125.289667 168.797829 
L 126.033667 168.797829 
L 126.033667 169.853442 
L 126.777667 169.853442 
L 126.777667 167.920629 
L 127.521667 167.920629 
L 127.521667 167.31105 
L 128.265667 167.31105 
L 128.265667 169.095185 
L 129.009667 169.095185 
L 129.009667 170.358947 
L 129.753667 170.358947 
L 129.753667 169.660161 
L 130.497667 169.660161 
L 130.497667 170.076459 
L 131.241667 170.076459 
L 131.241667 172.321495 
L 132.729667 172.395834 
L 132.729667 175.577541 
L 133.473667 175.577541 
L 133.473667 177.480618 
L 134.217667 177.480618 
L 134.217667 177.986123 
L 134.961667 177.986123 
L 134.961667 179.963539 
L 135.705667 179.963539 
L 135.705667 179.413431 
L 136.449667 179.413431 
L 136.449667 181.212433 
L 137.193667 181.212433 
L 137.193667 180.573118 
L 137.937667 180.573118 
L 137.937667 179.666183 
L 138.681667 179.666183 
L 138.681667 174.269175 
L 139.425667 174.269175 
L 139.425667 173.614993 
L 140.169667 173.614993 
L 140.169667 172.009271 
L 140.913667 172.009271 
L 140.913667 166.939355 
L 141.657667 166.939355 
L 141.657667 163.504896 
L 142.401667 163.504896 
L 142.401667 162.122191 
L 143.145667 162.122191 
L 143.145667 158.286302 
L 143.889667 158.286302 
L 143.889667 157.007672 
L 144.633667 157.007672 
L 144.633667 155.208669 
L 145.377667 155.208669 
L 145.377667 151.655267 
L 146.121667 151.655267 
L 146.121667 150.480712 
L 146.865667 150.480712 
L 146.865667 146.540748 
L 147.609667 146.540748 
L 147.609667 140.965327 
L 148.353667 140.965327 
L 148.353667 140.504425 
L 149.097667 140.504425 
L 149.097667 136.475254 
L 149.841667 136.475254 
L 149.841667 133.799052 
L 150.585667 133.799052 
L 150.585667 121.23577 
L 151.329667 121.23577 
L 151.329667 113.742404 
L 152.073667 113.742404 
L 152.073667 108.850901 
L 152.817667 108.850901 
L 152.817667 99.736946 
L 153.561667 99.736946 
L 153.561667 99.350383 
L 154.305667 99.350383 
L 154.305667 95.217138 
L 155.049667 95.217138 
L 155.049667 91.738075 
L 155.793667 91.738075 
L 155.793667 88.199541 
L 156.537667 88.199541 
L 156.537667 79.516752 
L 157.281667 79.516752 
L 157.281667 69.852689 
L 158.025667 69.852689 
L 158.025667 64.753037 
L 158.769667 64.753037 
L 158.769667 60.456246 
L 159.513667 60.456246 
L 159.513667 61.749743 
L 160.257667 61.749743 
L 160.257667 61.065825 
L 161.001667 61.065825 
L 161.001667 62.552604 
L 161.745667 62.552604 
L 161.745667 59.906138 
L 162.489667 59.906138 
L 162.489667 56.620356 
L 163.233667 56.620356 
L 163.233667 54.523998 
L 163.977667 54.523998 
L 163.977667 55.074106 
L 164.721667 55.074106 
L 164.721667 51.788324 
L 165.465667 51.788324 
L 165.465667 52.918276 
L 166.209667 52.918276 
L 166.209667 49.632495 
L 166.953667 49.632495 
L 166.953667 47.774021 
L 167.697667 47.774021 
L 167.697667 48.234923 
L 168.441667 48.234923 
L 168.441667 47.759153 
L 169.185667 47.759153 
L 169.185667 45.112687 
L 169.929667 45.112687 
L 169.929667 44.443636 
L 170.673667 44.443636 
L 170.673667 47.952435 
L 171.417667 47.952435 
L 171.417667 48.755295 
L 172.161667 48.755295 
L 172.161667 55.936438 
L 172.905667 55.936438 
L 172.905667 63.132448 
L 173.649667 63.132448 
L 173.649667 64.381342 
L 174.393667 64.381342 
L 174.393667 72.751908 
L 175.137667 72.751908 
L 175.137667 77.464997 
L 175.881667 77.464997 
L 175.881667 79.368074 
L 176.625667 79.368074 
L 176.625667 82.951212 
L 177.369667 82.951212 
L 177.369667 86.920911 
L 178.113667 86.920911 
L 178.113667 92.24358 
L 178.857667 92.24358 
L 178.857667 104.851466 
L 179.601667 104.851466 
L 179.601667 110.694507 
L 180.345667 110.694507 
L 180.345667 115.139976 
L 181.089667 115.139976 
L 181.089667 115.422464 
L 181.833667 115.422464 
L 181.833667 116.25506 
L 182.577667 116.25506 
L 182.577667 118.485229 
L 183.321667 118.485229 
L 183.321667 119.674652 
L 184.065667 119.674652 
L 184.065667 124.581022 
L 184.809667 124.581022 
L 184.809667 133.144869 
L 185.553667 133.144869 
L 185.553667 134.364028 
L 186.297667 134.364028 
L 186.297667 140.563896 
L 187.041667 140.563896 
L 187.041667 145.51487 
L 187.785667 145.51487 
L 187.785667 151.6404 
L 188.529667 151.6404 
L 188.529667 158.925617 
L 189.273667 158.925617 
L 189.273667 163.713045 
L 190.017667 163.713045 
L 190.017667 165.616122 
L 190.761667 165.616122 
L 190.761667 168.277456 
L 191.505667 168.277456 
L 191.505667 168.411266 
L 192.249667 168.411266 
L 192.249667 169.362805 
L 192.993667 169.362805 
L 192.993667 171.9498 
L 193.737667 171.9498 
L 193.737667 174.953094 
L 194.481667 174.953094 
L 194.481667 178.447024 
L 195.225667 178.447024 
L 195.225667 184.230594 
L 195.969667 184.230594 
L 195.969667 187.412301 
L 196.713667 187.412301 
L 196.713667 187.560979 
L 197.457667 187.560979 
L 197.457667 188.334104 
L 198.945667 188.259765 
L 198.945667 187.858335 
L 199.689667 187.858335 
L 199.689667 190.608876 
L 200.433667 190.608876 
L 200.433667 190.727819 
L 201.921667 190.817025 
L 201.921667 195.619321 
L 202.665667 195.619321 
L 202.665667 197.031761 
L 203.409667 197.031761 
L 203.409667 201.046065 
L 204.153667 201.046065 
L 204.153667 204.971161 
L 204.897667 204.971161 
L 204.897667 207.587892 
L 205.641667 207.587892 
L 205.641667 206.829635 
L 206.385667 206.829635 
L 206.385667 207.691967 
L 207.129667 207.691967 
L 207.129667 209.312556 
L 207.873667 209.312556 
L 207.873667 210.42764 
L 208.617667 210.42764 
L 208.617667 209.996474 
L 209.361667 209.996474 
L 209.361667 209.372027 
L 210.105667 209.372027 
L 210.105667 209.223349 
L 210.849667 209.223349 
L 210.849667 209.059803 
L 211.593667 209.059803 
L 211.593667 211.052087 
L 212.337667 211.052087 
L 212.337667 212.226642 
L 213.081667 212.226642 
L 213.081667 216.240946 
L 213.825667 216.240946 
L 213.825667 218.485982 
L 215.313667 218.560321 
L 215.313667 218.307568 
L 216.057667 218.307568 
L 216.057667 217.147881 
L 216.801667 217.147881 
L 216.801667 215.661102 
L 217.545667 215.661102 
L 217.545667 214.992051 
L 218.289667 214.992051 
L 218.289667 214.323001 
L 219.777667 214.248662 
L 219.777667 214.070248 
L 220.521667 214.070248 
L 220.521667 211.512988 
L 221.265667 211.512988 
L 221.265667 208.777315 
L 222.009667 208.777315 
L 222.009667 208.465092 
L 222.753667 208.465092 
L 222.753667 210.368169 
L 223.497667 210.368169 
L 223.497667 210.041077 
L 224.241667 210.041077 
L 224.241667 210.204623 
L 224.985667 210.204623 
L 224.985667 209.877532 
L 225.729667 209.877532 
L 225.729667 210.041077 
L 226.473667 210.041077 
L 226.473667 208.896257 
L 227.217667 208.896257 
L 227.217667 209.386895 
L 227.961667 209.386895 
L 227.961667 209.535572 
L 228.705667 209.535572 
L 228.705667 208.970596 
L 229.449667 208.970596 
L 229.449667 208.479959 
L 230.193667 208.479959 
L 230.193667 208.970596 
L 230.937667 208.970596 
L 230.937667 209.832928 
L 231.681667 209.832928 
L 231.681667 210.472243 
L 232.425667 210.472243 
L 232.425667 212.182039 
L 233.913667 212.182039 
L 233.913667 211.200765 
L 234.657667 211.200765 
L 234.657667 214.144587 
L 235.401667 214.144587 
L 235.401667 214.323001 
L 236.145667 214.323001 
L 236.145667 215.155597 
L 237.633667 215.229936 
L 237.633667 216.434227 
L 238.377667 216.434227 
L 238.377667 217.980477 
L 239.121667 217.980477 
L 239.121667 218.649527 
L 240.609667 218.590056 
L 240.609667 217.474972 
L 241.353667 217.474972 
L 241.353667 218.069684 
L 242.097667 218.069684 
L 242.097667 220.775621 
L 242.841667 220.775621 
L 242.841667 224.938602 
L 243.585667 224.938602 
L 243.585667 225.845538 
L 244.329667 225.845538 
L 244.329667 225.206223 
L 245.073667 225.206223 
L 245.073667 226.09829 
L 245.817667 226.09829 
L 245.817667 226.811944 
L 246.561667 226.811944 
L 246.561667 228.848831 
L 247.305667 228.848831 
L 247.305667 228.283855 
L 248.049667 228.283855 
L 248.049667 228.075706 
L 248.793667 228.075706 
L 248.793667 229.443543 
L 249.537667 229.443543 
L 249.537667 227.555333 
L 250.281667 227.555333 
L 250.281667 226.09829 
L 251.025667 226.09829 
L 251.025667 226.425381 
L 251.769667 226.425381 
L 251.769667 227.168771 
L 255.489667 227.168771 
L 255.489667 228.075706 
L 256.233667 228.075706 
L 256.233667 228.685285 
L 256.977667 228.685285 
L 256.977667 228.016235 
L 257.721667 228.016235 
L 257.721667 227.168771 
L 258.465667 227.168771 
L 258.465667 225.949612 
L 259.209667 225.949612 
L 259.209667 226.09829 
L 261.441667 226.09829 
L 261.441667 225.176487 
L 262.185667 225.176487 
L 262.185667 225.875273 
L 262.929667 225.875273 
L 262.929667 226.871415 
L 263.673667 226.871415 
L 263.673667 227.168771 
L 265.161667 227.168771 
L 265.161667 225.577917 
L 265.905667 225.577917 
L 265.905667 225.83067 
L 266.649667 225.83067 
L 266.649667 224.641247 
L 267.393667 224.641247 
L 267.393667 223.1396 
L 268.137667 223.1396 
L 268.137667 222.797641 
L 268.881667 222.797641 
L 268.881667 222.485417 
L 269.625667 222.485417 
L 269.625667 223.154468 
L 270.369667 223.154468 
L 270.369667 224.477701 
L 271.113667 224.477701 
L 271.113667 225.919877 
L 271.857667 225.919877 
L 271.857667 228.031103 
L 272.601667 228.031103 
L 272.601667 227.614805 
L 273.345667 227.614805 
L 273.345667 225.905009 
L 275.577667 225.860405 
L 275.577667 224.373626 
L 276.321667 224.373626 
L 276.321667 223.050393 
L 277.065667 223.050393 
L 277.065667 221.890706 
L 277.809667 221.890706 
L 277.809667 221.489275 
L 278.553667 221.489275 
L 278.553667 221.816367 
L 279.297667 221.816367 
L 279.297667 222.753037 
L 280.041667 222.753037 
L 280.041667 223.585634 
L 280.785667 223.585634 
L 280.785667 223.957328 
L 282.273667 223.897857 
L 282.273667 222.411078 
L 283.761667 222.381343 
L 283.761667 222.069119 
L 284.505667 222.069119 
L 284.505667 220.745886 
L 285.249667 220.745886 
L 285.249667 220.240381 
L 285.993667 220.240381 
L 285.993667 218.753602 
L 287.481667 218.798205 
L 287.481667 219.229371 
L 288.969667 219.30371 
L 288.969667 220.002496 
L 289.713667 220.002496 
L 289.713667 219.392917 
L 290.457667 219.392917 
L 290.457667 218.337304 
L 291.201667 218.337304 
L 291.201667 218.604924 
L 291.945667 218.604924 
L 291.945667 218.277833 
L 292.689667 218.277833 
L 292.689667 217.534443 
L 293.433667 217.534443 
L 293.433667 218.039948 
L 294.177667 218.039948 
L 294.177667 218.76847 
L 295.665667 218.798205 
L 295.665667 219.675405 
L 297.153667 219.675405 
L 297.153667 220.924299 
L 297.897667 220.924299 
L 297.897667 222.366475 
L 298.641667 222.366475 
L 298.641667 223.526162 
L 299.385667 223.526162 
L 299.385667 224.195213 
L 300.129667 224.195213 
L 300.129667 225.027809 
L 302.361667 225.027809 
L 302.361667 225.786066 
L 303.105667 225.786066 
L 303.105667 226.09829 
L 303.849667 226.09829 
L 303.849667 226.217232 
L 304.593667 226.217232 
L 304.593667 227.168771 
L 305.337667 227.168771 
L 305.337667 228.25412 
L 306.081667 228.25412 
L 306.081667 229.086716 
L 306.825667 229.086716 
L 306.825667 228.239252 
L 307.569667 228.239252 
L 307.569667 228.804228 
L 308.313667 228.804228 
L 308.313667 229.146187 
L 309.057667 229.146187 
L 309.057667 229.398939 
L 309.801667 229.398939 
L 309.801667 230.365346 
L 310.545667 230.365346 
L 310.545667 230.06799 
L 311.289667 230.06799 
L 311.289667 229.339468 
L 312.033667 229.339468 
L 312.033667 229.101584 
L 312.777667 229.101584 
L 312.777667 227.168771 
L 313.521667 227.168771 
L 313.521667 227.034961 
L 314.265667 227.034961 
L 314.265667 226.261836 
L 315.009667 226.261836 
L 315.009667 226.09829 
L 316.497667 226.09829 
L 316.497667 226.425381 
L 317.241667 226.425381 
L 317.241667 227.168771 
L 317.985667 227.168771 
L 317.985667 226.663266 
L 318.729667 226.663266 
L 318.729667 223.823518 
L 319.473667 223.823518 
L 319.473667 222.886848 
L 320.961667 222.886848 
L 320.961667 222.678698 
L 321.705667 222.678698 
L 321.705667 221.816367 
L 323.193667 221.816367 
L 323.193667 220.84996 
L 325.425667 220.745886 
L 325.425667 220.58234 
L 326.169667 220.58234 
L 326.169667 219.57133 
L 326.913667 219.57133 
L 326.913667 218.604924 
L 327.657667 218.604924 
L 327.657667 218.411643 
L 329.145667 218.471114 
L 329.145667 219.467256 
L 329.889667 219.467256 
L 329.889667 219.809215 
L 331.377667 219.868686 
L 331.377667 219.675405 
L 332.121667 219.675405 
L 332.121667 220.403927 
L 332.865667 220.403927 
L 332.865667 221.72716 
L 333.609667 221.72716 
L 333.609667 223.303146 
L 334.353667 223.303146 
L 334.353667 225.786066 
L 335.097667 225.786066 
L 335.097667 225.340033 
L 335.841667 225.340033 
L 335.841667 226.395646 
L 336.585667 226.395646 
L 336.585667 226.2321 
L 337.329667 226.2321 
L 337.329667 225.072413 
L 338.817667 225.161619 
L 338.817667 225.325165 
L 339.561667 225.325165 
L 339.561667 224.106006 
L 340.305667 224.106006 
L 340.305667 226.157761 
L 341.049667 226.157761 
L 341.049667 227.168771 
L 341.793667 227.168771 
L 341.793667 226.663266 
L 342.537667 226.663266 
L 342.537667 225.027809 
L 343.281667 225.027809 
L 343.281667 225.845538 
L 344.025667 225.845538 
L 344.025667 224.0168 
L 344.769667 224.0168 
L 344.769667 224.566908 
L 345.513667 224.566908 
L 345.513667 225.027809 
L 347.001667 225.027809 
L 347.001667 225.250826 
L 347.745667 225.250826 
L 347.745667 226.574059 
L 348.489667 226.574059 
L 348.489667 227.91216 
L 349.233667 227.91216 
L 349.233667 225.444107 
L 349.977667 225.444107 
L 349.977667 227.005225 
L 350.721667 227.005225 
L 350.721667 225.667124 
L 351.465667 225.667124 
L 351.465667 224.760189 
L 352.209667 224.760189 
L 352.209667 223.793783 
L 352.953667 223.793783 
L 352.953667 223.347749 
L 353.697667 223.347749 
L 353.697667 222.886848 
L 355.185667 222.886848 
L 355.185667 223.109864 
L 355.929667 223.109864 
L 355.929667 222.515153 
L 356.673667 222.515153 
L 356.673667 222.217797 
L 357.417667 222.217797 
L 357.417667 222.886848 
L 358.161667 222.886848 
L 358.161667 223.466691 
L 358.905667 223.466691 
L 358.905667 224.28442 
L 359.649667 224.28442 
L 359.649667 223.362617 
L 360.393667 223.362617 
L 360.393667 223.080129 
L 361.137667 223.080129 
L 361.137667 224.893999 
L 361.881667 224.893999 
L 361.881667 225.027809 
L 362.625667 225.027809 
L 362.625667 225.681992 
L 363.369667 225.681992 
L 363.369667 225.08728 
L 364.113667 225.08728 
L 364.113667 226.901151 
L 364.857667 226.901151 
L 364.857667 227.168771 
L 365.601667 227.168771 
L 365.601667 228.477136 
L 366.345667 228.477136 
L 366.345667 228.239252 
L 370.809667 228.239252 
L 370.809667 229.739368 
L 371.553667 229.739368 
L 371.553667 230.277155 
L 372.297667 230.277155 
L 372.297667 230.777454 
L 373.041667 230.777454 
L 373.041667 231.636462 
L 373.785667 231.636462 
L 373.785667 232.467441 
L 374.529667 232.467441 
L 374.529667 233.156875 
L 375.273667 233.156875 
L 375.273667 233.67641 
L 377.505667 233.67641 
L 377.505667 234.139659 
L 378.249667 234.139659 
L 378.249667 235.0378 
L 381.225667 235.0378 
L 381.225667 235.861108 
L 381.969667 235.861108 
L 381.969667 236.400588 
L 384.945667 236.400588 
L 384.945667 236.940586 
L 385.689667 236.940586 
L 385.689667 237.08269 
L 387.921667 237.08269 
L 387.921667 242.116364 
L 388.665667 242.116364 
L 388.665667 242.116364 
" style="fill:none;stroke:#4c72b0;stroke-linecap:round;stroke-width:1.75;"/>
   </g>
   <g id="line2d_34">
    <path clip-path="url(#pee0e1554b4)" d="M 62.049667 186.855713 
L 62.049667 187.655247 
L 62.793667 187.655247 
L 62.793667 187.916481 
L 63.537667 187.916481 
L 63.537667 186.641976 
L 64.281667 186.641976 
L 64.281667 186.127424 
L 66.513667 186.056178 
L 66.513667 183.665492 
L 67.257667 183.665492 
L 67.257667 184.322535 
L 68.001667 184.322535 
L 68.001667 184.916248 
L 68.745667 184.916248 
L 68.745667 187.60775 
L 69.489667 187.60775 
L 69.489667 187.449426 
L 70.233667 187.449426 
L 70.233667 186.079927 
L 71.721667 185.984933 
L 71.721667 185.335806 
L 72.465667 185.335806 
L 72.465667 186.127424 
L 73.209667 186.127424 
L 73.209667 186.776551 
L 73.953667 186.776551 
L 73.953667 185.945352 
L 74.697667 185.945352 
L 74.697667 185.066656 
L 76.185667 185.019159 
L 76.185667 183.75257 
L 76.929667 183.75257 
L 76.929667 183.31718 
L 77.673667 183.31718 
L 77.673667 183.158857 
L 78.417667 183.158857 
L 78.417667 183.736738 
L 79.161667 183.736738 
L 79.161667 185.581208 
L 79.905667 185.581208 
L 79.905667 187.481091 
L 80.649667 187.481091 
L 80.649667 188.985165 
L 81.393667 188.985165 
L 81.393667 190.457574 
L 82.137667 190.457574 
L 82.137667 192.460368 
L 82.881667 192.460368 
L 82.881667 191.985397 
L 83.625667 191.985397 
L 83.625667 191.858738 
L 84.369667 191.858738 
L 84.369667 191.193779 
L 85.113667 191.193779 
L 85.113667 190.813803 
L 85.857667 190.813803 
L 85.857667 193.014501 
L 86.601667 193.014501 
L 86.601667 193.529052 
L 87.345667 193.529052 
L 87.345667 193.703208 
L 88.089667 193.703208 
L 88.089667 195.064791 
L 88.833667 195.064791 
L 88.833667 194.249425 
L 89.577667 194.249425 
L 89.577667 192.959087 
L 91.065667 192.959087 
L 91.065667 193.133243 
L 91.809667 193.133243 
L 91.809667 192.53953 
L 92.553667 192.53953 
L 92.553667 191.423348 
L 94.041667 191.367935 
L 94.041667 192.769099 
L 94.785667 192.769099 
L 94.785667 191.621253 
L 95.529667 191.621253 
L 95.529667 190.283418 
L 96.273667 190.283418 
L 96.273667 188.138134 
L 97.017667 188.138134 
L 97.017667 186.974455 
L 97.761667 186.974455 
L 97.761667 185.723699 
L 98.505667 185.723699 
L 98.505667 184.813338 
L 99.249667 184.813338 
L 99.249667 185.296225 
L 100.737667 185.32789 
L 100.737667 183.610079 
L 101.481667 183.610079 
L 101.481667 180.973991 
L 102.225667 180.973991 
L 102.225667 179.69157 
L 102.969667 179.69157 
L 102.969667 178.187496 
L 103.713667 178.187496 
L 103.713667 178.709963 
L 104.457667 178.709963 
L 104.457667 179.588659 
L 105.945667 179.564911 
L 105.945667 178.076669 
L 106.689667 178.076669 
L 106.689667 179.596576 
L 107.433667 179.596576 
L 107.433667 175.955133 
L 108.177667 175.955133 
L 108.177667 173.801932 
L 108.921667 173.801932 
L 108.921667 174.395645 
L 109.665667 174.395645 
L 109.665667 173.485285 
L 110.409667 173.485285 
L 110.409667 173.18447 
L 111.153667 173.18447 
L 111.153667 175.488078 
L 111.897667 175.488078 
L 111.897667 174.371897 
L 112.641667 174.371897 
L 112.641667 172.970733 
L 113.385667 172.970733 
L 113.385667 173.778183 
L 114.129667 173.778183 
L 114.129667 176.129289 
L 114.873667 176.129289 
L 114.873667 175.408916 
L 116.361667 175.440581 
L 116.361667 175.931384 
L 117.105667 175.931384 
L 117.105667 177.324632 
L 117.849667 177.324632 
L 117.849667 178.345819 
L 118.593667 178.345819 
L 118.593667 179.778648 
L 119.337667 179.778648 
L 119.337667 182.359322 
L 120.081667 182.359322 
L 120.081667 185.367471 
L 120.825667 185.367471 
L 120.825667 185.850358 
L 121.569667 185.850358 
L 121.569667 184.987494 
L 122.313667 184.987494 
L 122.313667 184.02172 
L 123.801667 183.958391 
L 123.801667 186.333245 
L 124.545667 186.333245 
L 124.545667 185.771196 
L 125.289667 185.771196 
L 125.289667 183.388426 
L 126.033667 183.388426 
L 126.033667 182.699718 
L 126.777667 182.699718 
L 126.777667 183.032198 
L 127.521667 183.032198 
L 127.521667 184.528356 
L 128.265667 184.528356 
L 128.265667 184.718344 
L 129.009667 184.718344 
L 129.009667 185.992849 
L 129.753667 185.992849 
L 129.753667 187.655247 
L 130.497667 187.655247 
L 130.497667 186.713221 
L 131.241667 186.713221 
L 131.241667 185.771196 
L 131.985667 185.771196 
L 131.985667 187.077366 
L 132.729667 187.077366 
L 132.729667 184.694595 
L 133.473667 184.694595 
L 133.473667 182.937204 
L 134.961667 182.992617 
L 134.961667 182.50973 
L 135.705667 182.50973 
L 135.705667 181.559788 
L 136.449667 181.559788 
L 136.449667 179.644073 
L 137.193667 179.644073 
L 137.193667 177.07923 
L 137.937667 177.07923 
L 137.937667 175.947217 
L 138.681667 175.947217 
L 138.681667 176.493433 
L 139.425667 176.493433 
L 139.425667 175.013107 
L 140.169667 175.013107 
L 140.169667 169.218464 
L 140.913667 169.218464 
L 140.913667 168.141863 
L 141.657667 168.141863 
L 141.657667 164.951643 
L 142.401667 164.951643 
L 142.401667 161.096463 
L 143.145667 161.096463 
L 143.145667 159.228245 
L 143.889667 159.228245 
L 143.889667 156.030108 
L 144.633667 156.030108 
L 144.633667 152.341168 
L 145.377667 152.341168 
L 145.377667 144.662474 
L 146.121667 144.662474 
L 146.121667 140.047341 
L 146.865667 140.047341 
L 146.865667 140.854791 
L 147.609667 140.854791 
L 147.609667 140.7123 
L 148.353667 140.7123 
L 148.353667 135.123477 
L 149.097667 135.123477 
L 149.097667 129.123013 
L 149.841667 129.123013 
L 149.841667 122.877147 
L 150.585667 122.877147 
L 150.585667 120.138148 
L 151.329667 120.138148 
L 151.329667 116.132561 
L 152.073667 116.132561 
L 152.073667 111.572842 
L 152.817667 111.572842 
L 152.817667 109.008 
L 153.561667 109.008 
L 153.561667 103.941644 
L 154.305667 103.941644 
L 154.305667 100.331866 
L 155.049667 100.331866 
L 155.049667 96.761669 
L 155.793667 96.761669 
L 155.793667 93.373544 
L 156.537667 93.373544 
L 156.537667 90.365396 
L 157.281667 90.365396 
L 157.281667 82.17215 
L 158.025667 82.17215 
L 158.025667 77.936993 
L 158.769667 77.936993 
L 158.769667 72.276925 
L 159.513667 72.276925 
L 159.513667 66.102305 
L 160.257667 66.102305 
L 160.257667 61.257602 
L 161.001667 61.257602 
L 161.001667 57.893226 
L 161.745667 57.893226 
L 161.745667 59.223144 
L 162.489667 59.223144 
L 162.489667 55.961678 
L 163.233667 55.961678 
L 163.233667 53.048524 
L 163.977667 53.048524 
L 163.977667 50.863658 
L 164.721667 50.863658 
L 164.721667 46.303939 
L 165.465667 46.303939 
L 165.465667 44.443636 
L 166.209667 44.443636 
L 166.209667 47.269713 
L 166.953667 47.269713 
L 166.953667 51.75027 
L 167.697667 51.75027 
L 167.697667 54.687173 
L 168.441667 54.687173 
L 168.441667 51.837348 
L 169.185667 51.837348 
L 169.185667 47.158886 
L 169.929667 47.158886 
L 169.929667 49.525824 
L 170.673667 49.525824 
L 170.673667 53.381003 
L 171.417667 53.381003 
L 171.417667 57.853645 
L 172.161667 57.853645 
L 172.161667 62.421281 
L 172.905667 62.421281 
L 172.905667 68.429661 
L 173.649667 68.429661 
L 173.649667 72.474829 
L 174.393667 72.474829 
L 174.393667 75.538391 
L 175.137667 75.538391 
L 175.137667 81.459694 
L 175.881667 81.459694 
L 175.881667 87.246421 
L 176.625667 87.246421 
L 176.625667 90.832451 
L 177.369667 90.832451 
L 177.369667 97.014987 
L 178.113667 97.014987 
L 178.113667 99.017781 
L 178.857667 99.017781 
L 178.857667 105.762366 
L 179.601667 105.762366 
L 179.601667 111.86574 
L 180.345667 111.86574 
L 180.345667 116.670862 
L 181.089667 116.670862 
L 181.089667 125.180755 
L 181.833667 125.180755 
L 181.833667 130.698332 
L 182.577667 130.698332 
L 182.577667 134.031044 
L 183.321667 134.031044 
L 183.321667 139.722778 
L 184.065667 139.722778 
L 184.065667 144.923708 
L 184.809667 144.923708 
L 184.809667 148.79472 
L 185.553667 148.79472 
L 185.553667 155.848036 
L 186.297667 155.848036 
L 186.297667 162.165147 
L 187.041667 162.165147 
L 187.041667 169.376787 
L 187.785667 169.376787 
L 187.785667 171.783306 
L 188.529667 171.783306 
L 188.529667 175.543491 
L 189.273667 175.543491 
L 189.273667 177.000069 
L 190.017667 177.000069 
L 190.017667 179.549079 
L 190.761667 179.549079 
L 190.761667 184.172128 
L 191.505667 184.172128 
L 191.505667 186.174921 
L 192.249667 186.174921 
L 192.249667 186.982371 
L 192.993667 186.982371 
L 192.993667 190.782138 
L 193.737667 190.782138 
L 193.737667 191.33627 
L 194.481667 191.33627 
L 194.481667 190.544652 
L 195.225667 190.544652 
L 195.225667 190.916713 
L 195.969667 190.916713 
L 195.969667 193.228237 
L 196.713667 193.228237 
L 196.713667 194.391916 
L 197.457667 194.391916 
L 197.457667 194.835222 
L 198.201667 194.835222 
L 198.201667 197.210076 
L 198.945667 197.210076 
L 198.945667 199.482019 
L 199.689667 199.482019 
L 199.689667 201.59564 
L 200.433667 201.59564 
L 200.433667 202.23685 
L 201.177667 202.23685 
L 201.177667 203.859667 
L 201.921667 203.859667 
L 201.921667 205.450819 
L 202.665667 205.450819 
L 202.665667 207.477361 
L 203.409667 207.477361 
L 203.409667 209.590981 
L 204.153667 209.590981 
L 204.153667 210.430096 
L 204.897667 210.430096 
L 204.897667 211.823344 
L 205.641667 211.823344 
L 205.641667 212.068746 
L 206.385667 212.068746 
L 206.385667 213.849886 
L 207.129667 213.849886 
L 207.129667 214.807744 
L 207.873667 214.807744 
L 207.873667 214.601923 
L 208.617667 214.601923 
L 208.617667 215.385625 
L 209.361667 215.385625 
L 209.361667 215.971422 
L 210.105667 215.971422 
L 210.105667 216.76304 
L 210.849667 216.76304 
L 210.849667 218.393773 
L 211.593667 218.393773 
L 211.593667 220.602387 
L 212.337667 220.602387 
L 212.337667 223.246392 
L 213.081667 223.246392 
L 213.081667 224.726717 
L 213.825667 224.726717 
L 213.825667 225.462922 
L 214.569667 225.462922 
L 214.569667 225.993306 
L 215.313667 225.993306 
L 215.313667 226.436612 
L 216.057667 226.436612 
L 216.057667 227.576542 
L 216.801667 227.576542 
L 216.801667 228.011932 
L 217.545667 228.011932 
L 217.545667 228.257333 
L 218.289667 228.257333 
L 218.289667 227.988183 
L 219.033667 227.988183 
L 219.033667 228.383992 
L 219.777667 228.383992 
L 219.777667 228.03568 
L 220.521667 228.03568 
L 220.521667 228.383992 
L 222.009667 228.281082 
L 222.009667 227.901105 
L 222.753667 227.901105 
L 222.753667 228.09901 
L 223.497667 228.09901 
L 223.497667 228.700639 
L 224.241667 228.700639 
L 224.241667 229.523922 
L 224.985667 229.523922 
L 224.985667 229.278521 
L 225.729667 229.278521 
L 225.729667 228.122758 
L 226.473667 228.122758 
L 226.473667 227.861524 
L 227.217667 227.861524 
L 227.217667 227.156984 
L 227.961667 227.156984 
L 227.961667 226.800756 
L 228.705667 226.800756 
L 228.705667 226.412863 
L 229.449667 226.412863 
L 229.449667 227.418218 
L 230.193667 227.418218 
L 230.193667 228.146507 
L 230.937667 228.146507 
L 230.937667 227.244062 
L 231.681667 227.244062 
L 231.681667 225.660826 
L 232.425667 225.660826 
L 232.425667 224.362573 
L 233.169667 224.362573 
L 233.169667 223.333469 
L 234.657667 223.262224 
L 234.657667 223.863854 
L 235.401667 223.863854 
L 235.401667 223.998429 
L 236.889667 223.990512 
L 236.889667 223.254308 
L 238.377667 223.254308 
L 238.377667 223.903434 
L 239.121667 223.903434 
L 239.121667 224.766298 
L 239.865667 224.766298 
L 239.865667 225.138358 
L 240.609667 225.138358 
L 240.609667 224.964203 
L 241.353667 224.964203 
L 241.353667 224.790047 
L 242.097667 224.790047 
L 242.097667 224.663388 
L 242.841667 224.663388 
L 242.841667 224.220082 
L 243.585667 224.220082 
L 243.585667 223.824273 
L 244.329667 223.824273 
L 244.329667 224.172585 
L 245.073667 224.172585 
L 245.073667 223.278056 
L 245.817667 223.278056 
L 245.817667 222.684343 
L 246.561667 222.684343 
L 246.561667 222.185623 
L 247.305667 222.185623 
L 247.305667 222.858499 
L 249.537667 222.890163 
L 249.537667 223.507625 
L 250.281667 223.507625 
L 250.281667 223.388883 
L 251.025667 223.388883 
L 251.025667 223.563039 
L 251.769667 223.563039 
L 251.769667 223.119733 
L 252.513667 223.119733 
L 252.513667 223.491793 
L 253.257667 223.491793 
L 253.257667 224.536729 
L 254.001667 224.536729 
L 254.001667 225.154191 
L 254.745667 225.154191 
L 254.745667 226.531606 
L 255.489667 226.531606 
L 255.489667 226.761175 
L 256.233667 226.761175 
L 256.233667 226.935331 
L 256.977667 226.935331 
L 256.977667 227.085739 
L 257.721667 227.085739 
L 257.721667 227.220314 
L 258.465667 227.220314 
L 258.465667 227.758614 
L 259.209667 227.758614 
L 259.209667 227.244062 
L 259.953667 227.244062 
L 259.953667 227.948602 
L 261.441667 227.924854 
L 261.441667 226.729511 
L 262.185667 226.729511 
L 262.185667 225.613329 
L 262.929667 225.613329 
L 262.929667 225.138358 
L 264.417667 225.075029 
L 264.417667 224.885041 
L 265.161667 224.885041 
L 265.161667 224.552561 
L 265.905667 224.552561 
L 265.905667 224.053842 
L 266.649667 224.053842 
L 266.649667 224.299243 
L 267.393667 224.299243 
L 267.393667 224.829627 
L 268.881667 224.74255 
L 268.881667 224.481316 
L 269.625667 224.481316 
L 269.625667 224.30716 
L 270.369667 224.30716 
L 270.369667 225.209604 
L 271.857667 225.233353 
L 271.857667 224.766298 
L 272.601667 224.766298 
L 272.601667 224.196333 
L 273.345667 224.196333 
L 273.345667 224.362573 
L 274.089667 224.362573 
L 274.089667 224.497148 
L 274.833667 224.497148 
L 274.833667 225.834982 
L 275.577667 225.834982 
L 275.577667 225.320431 
L 276.321667 225.320431 
L 276.321667 224.916705 
L 277.065667 224.916705 
L 277.065667 224.489232 
L 278.553667 224.560477 
L 278.553667 224.94837 
L 279.297667 224.94837 
L 279.297667 225.272934 
L 280.041667 225.272934 
L 280.041667 225.969557 
L 282.273667 225.898312 
L 282.273667 225.019616 
L 283.017667 225.019616 
L 283.017667 225.914144 
L 283.761667 225.914144 
L 283.761667 226.6266 
L 284.505667 226.6266 
L 284.505667 227.814027 
L 285.249667 227.814027 
L 285.249667 228.257333 
L 285.993667 228.257333 
L 285.993667 228.494819 
L 286.737667 228.494819 
L 286.737667 229.421012 
L 288.969667 229.523922 
L 288.969667 228.03568 
L 289.713667 228.03568 
L 289.713667 226.966996 
L 290.457667 226.966996 
L 290.457667 227.418218 
L 291.201667 227.418218 
L 291.201667 226.634516 
L 291.945667 226.634516 
L 291.945667 226.982828 
L 292.689667 226.982828 
L 292.689667 226.325785 
L 293.433667 226.325785 
L 293.433667 226.674097 
L 294.177667 226.674097 
L 294.177667 227.133236 
L 294.921667 227.133236 
L 294.921667 227.434051 
L 295.665667 227.434051 
L 295.665667 227.085739 
L 296.409667 227.085739 
L 296.409667 227.220314 
L 297.153667 227.220314 
L 297.153667 226.222875 
L 297.897667 226.222875 
L 297.897667 227.093655 
L 298.641667 227.093655 
L 298.641667 226.531606 
L 299.385667 226.531606 
L 299.385667 226.072468 
L 300.129667 226.072468 
L 300.129667 225.44709 
L 300.873667 225.44709 
L 300.873667 224.964203 
L 301.617667 224.964203 
L 301.617667 223.444296 
L 302.361667 223.444296 
L 302.361667 221.916473 
L 303.105667 221.916473 
L 303.105667 220.99028 
L 303.849667 220.99028 
L 303.849667 221.868976 
L 304.593667 221.868976 
L 304.593667 222.573516 
L 305.337667 222.573516 
L 305.337667 222.336031 
L 306.081667 222.336031 
L 306.081667 222.13021 
L 308.313667 222.114378 
L 308.313667 222.375612 
L 309.057667 222.375612 
L 309.057667 222.771421 
L 309.801667 222.771421 
L 309.801667 223.119733 
L 310.545667 223.119733 
L 310.545667 223.37305 
L 311.289667 223.37305 
L 311.289667 224.829627 
L 312.033667 224.829627 
L 312.033667 224.394238 
L 312.777667 224.394238 
L 312.777667 224.568394 
L 314.265667 224.465483 
L 314.265667 224.378405 
L 315.009667 224.378405 
L 315.009667 224.07759 
L 315.753667 224.07759 
L 315.753667 223.919267 
L 317.241667 223.824273 
L 317.241667 224.74255 
L 317.985667 224.74255 
L 317.985667 223.768859 
L 318.729667 223.768859 
L 318.729667 224.061758 
L 319.473667 224.061758 
L 319.473667 223.650117 
L 320.217667 223.650117 
L 320.217667 223.444296 
L 320.961667 223.444296 
L 320.961667 223.016822 
L 321.705667 223.016822 
L 321.705667 223.491793 
L 322.449667 223.491793 
L 322.449667 223.222643 
L 323.193667 223.222643 
L 323.193667 223.349302 
L 323.937667 223.349302 
L 323.937667 225.526251 
L 324.681667 225.526251 
L 324.681667 225.882479 
L 325.425667 225.882479 
L 325.425667 224.956286 
L 326.169667 224.956286 
L 326.169667 223.634284 
L 326.913667 223.634284 
L 326.913667 222.510187 
L 327.657667 222.510187 
L 327.657667 223.048487 
L 328.401667 223.048487 
L 328.401667 223.254308 
L 329.145667 223.254308 
L 329.145667 222.858499 
L 329.889667 222.858499 
L 329.889667 221.623575 
L 330.633667 221.623575 
L 330.633667 221.267347 
L 332.121667 221.204017 
L 332.121667 221.536497 
L 332.865667 221.536497 
L 332.865667 222.066881 
L 333.609667 222.066881 
L 333.609667 222.510187 
L 334.353667 222.510187 
L 334.353667 222.866415 
L 335.097667 222.866415 
L 335.097667 223.254308 
L 335.841667 223.254308 
L 335.841667 222.905996 
L 336.585667 222.905996 
L 336.585667 223.190978 
L 337.329667 223.190978 
L 337.329667 222.051048 
L 339.561667 222.146042 
L 339.561667 222.929744 
L 340.305667 222.929744 
L 340.305667 223.610536 
L 341.793667 223.515542 
L 341.793667 224.30716 
L 342.537667 224.30716 
L 342.537667 225.272934 
L 343.281667 225.272934 
L 343.281667 224.932538 
L 344.025667 224.932538 
L 344.025667 225.11461 
L 344.769667 225.11461 
L 344.769667 226.602852 
L 345.513667 226.602852 
L 345.513667 226.040803 
L 346.257667 226.040803 
L 346.257667 225.827066 
L 347.001667 225.827066 
L 347.001667 226.79284 
L 347.745667 226.79284 
L 347.745667 227.93277 
L 348.489667 227.93277 
L 348.489667 229.064784 
L 349.233667 229.064784 
L 349.233667 228.74022 
L 349.977667 228.74022 
L 349.977667 227.814027 
L 350.721667 227.814027 
L 350.721667 227.996099 
L 351.465667 227.996099 
L 351.465667 228.930209 
L 352.209667 228.930209 
L 352.209667 230.062222 
L 352.953667 230.062222 
L 352.953667 230.244295 
L 353.697667 230.244295 
L 353.697667 230.553026 
L 354.441667 230.553026 
L 354.441667 230.093887 
L 355.185667 230.093887 
L 355.185667 229.563503 
L 355.929667 229.563503 
L 355.929667 227.948602 
L 356.673667 227.948602 
L 356.673667 228.257333 
L 358.161667 228.162339 
L 358.161667 228.653142 
L 358.905667 228.653142 
L 358.905667 229.436844 
L 360.393667 229.523922 
L 360.393667 228.5344 
L 361.137667 228.5344 
L 361.137667 227.821943 
L 361.881667 227.821943 
L 361.881667 227.267811 
L 363.369667 227.378637 
L 363.369667 227.576542 
L 364.113667 227.576542 
L 364.113667 226.674097 
L 367.089667 226.674097 
L 367.089667 226.899908 
L 367.833667 226.899908 
L 367.833667 227.547333 
L 368.577667 227.547333 
L 368.577667 227.758136 
L 370.065667 227.853549 
L 370.065667 228.119701 
L 370.809667 228.119701 
L 370.809667 228.375916 
L 371.553667 228.375916 
L 371.553667 229.084314 
L 372.297667 229.084314 
L 372.297667 229.204904 
L 376.017667 229.204904 
L 376.017667 229.662736 
L 376.761667 229.662736 
L 376.761667 229.994826 
L 377.505667 229.994826 
L 377.505667 231.132309 
L 378.249667 231.132309 
L 378.249667 231.575303 
L 378.993667 231.575303 
L 378.993667 232.103968 
L 379.737667 232.103968 
L 379.737667 232.23493 
L 380.481667 232.23493 
L 380.481667 232.683256 
L 381.225667 232.683256 
L 381.225667 233.131672 
L 381.969667 233.131672 
L 381.969667 233.580219 
L 382.713667 233.580219 
L 382.713667 234.033859 
L 383.457667 234.033859 
L 383.457667 234.643888 
L 384.201667 234.643888 
L 384.201667 234.845619 
L 384.945667 234.845619 
L 384.945667 235.193658 
L 385.689667 235.193658 
L 385.689667 236.051285 
L 386.433667 236.051285 
L 386.433667 236.349027 
L 387.177667 236.349027 
L 387.177667 236.979908 
L 387.921667 236.979908 
L 387.921667 242.116364 
L 388.665667 242.116364 
L 388.665667 242.116364 
" style="fill:none;stroke:#55a868;stroke-linecap:round;stroke-width:1.75;"/>
   </g>
   <g id="patch_3">
    <path d="M 54 252 
L 54 34.56 
" style="fill:none;"/>
   </g>
   <g id="patch_4">
    <path d="M 388.8 252 
L 388.8 34.56 
" style="fill:none;"/>
   </g>
   <g id="patch_5">
    <path d="M 54 252 
L 388.8 252 
" style="fill:none;"/>
   </g>
   <g id="patch_6">
    <path d="M 54 34.56 
L 388.8 34.56 
" style="fill:none;"/>
   </g>
   <g id="text_18">
    <!-- Eu150 -->
    <defs>
     <path d="M 15.328125 52.828125 
L 15.328125 19.34375 
Q 15.328125 15.484375 15.890625 12.890625 
Q 16.453125 10.296875 17.71875 8.703125 
Q 19 7.125 21.0625 6.46875 
Q 23.140625 5.8125 26.21875 5.8125 
Q 29.34375 5.8125 31.859375 6.90625 
Q 34.375 8.015625 36.15625 10.078125 
Q 37.9375 12.15625 38.90625 15.203125 
Q 39.890625 18.265625 39.890625 22.21875 
L 39.890625 52.828125 
L 48.6875 52.828125 
L 48.6875 11.28125 
Q 48.6875 9.625 48.703125 7.78125 
Q 48.734375 5.953125 48.78125 4.3125 
Q 48.828125 2.6875 48.875 1.515625 
Q 48.921875 0.34375 48.96875 0 
L 40.671875 0 
Q 40.625 0.25 40.578125 1.3125 
Q 40.53125 2.390625 40.453125 3.78125 
Q 40.375 5.171875 40.328125 6.609375 
Q 40.28125 8.0625 40.28125 9.03125 
L 40.140625 9.03125 
Q 38.875 6.734375 37.359375 4.875 
Q 35.84375 3.03125 33.84375 1.734375 
Q 31.84375 0.4375 29.25 -0.265625 
Q 26.65625 -0.984375 23.25 -0.984375 
Q 18.84375 -0.984375 15.671875 0.09375 
Q 12.5 1.171875 10.453125 3.421875 
Q 8.40625 5.671875 7.453125 9.1875 
Q 6.5 12.703125 6.5 17.625 
L 6.5 52.828125 
z
" id="LiberationSans-75"/>
    </defs>
    <g style="fill:#262626;" transform="translate(204.051563 28.56)scale(0.12 -0.12)">
     <use xlink:href="#LiberationSans-45"/>
     <use x="66.699219" xlink:href="#LiberationSans-75"/>
     <use x="122.314453" xlink:href="#LiberationSans-31"/>
     <use x="177.929688" xlink:href="#LiberationSans-35"/>
     <use x="233.544922" xlink:href="#LiberationSans-30"/>
    </g>
   </g>
   <g id="legend_1">
    <g id="line2d_35">
     <path d="M 336.239062 47.306875 
L 356.239062 47.306875 
" style="fill:none;stroke:#4c72b0;stroke-linecap:round;stroke-width:1.75;"/>
    </g>
    <g id="line2d_36"/>
    <g id="text_19">
     <!-- vac -->
     <defs>
      <path d="M 29.9375 0 
L 19.53125 0 
L 0.34375 52.828125 
L 9.71875 52.828125 
L 21.34375 18.453125 
Q 21.6875 17.390625 22.140625 15.84375 
Q 22.609375 14.3125 23.09375 12.640625 
Q 23.578125 10.984375 24 9.4375 
Q 24.421875 7.90625 24.703125 6.890625 
Q 25 7.90625 25.453125 9.4375 
Q 25.921875 10.984375 26.40625 12.59375 
Q 26.90625 14.203125 27.421875 15.734375 
Q 27.9375 17.28125 28.328125 18.359375 
L 40.328125 52.828125 
L 49.65625 52.828125 
z
" id="LiberationSans-76"/>
      <path d="M 20.21875 -0.984375 
Q 12.25 -0.984375 8.25 3.21875 
Q 4.25 7.421875 4.25 14.75 
Q 4.25 19.96875 6.21875 23.3125 
Q 8.203125 26.65625 11.390625 28.5625 
Q 14.59375 30.46875 18.6875 31.203125 
Q 22.796875 31.9375 27.046875 32.03125 
L 38.921875 32.234375 
L 38.921875 35.109375 
Q 38.921875 38.375 38.234375 40.671875 
Q 37.546875 42.96875 36.125 44.375 
Q 34.71875 45.796875 32.59375 46.453125 
Q 30.46875 47.125 27.59375 47.125 
Q 25.046875 47.125 23 46.75 
Q 20.953125 46.390625 19.4375 45.4375 
Q 17.921875 44.484375 16.984375 42.84375 
Q 16.0625 41.21875 15.765625 38.71875 
L 6.59375 39.546875 
Q 7.078125 42.671875 8.4375 45.28125 
Q 9.8125 47.90625 12.328125 49.796875 
Q 14.84375 51.703125 18.625 52.75 
Q 22.40625 53.8125 27.78125 53.8125 
Q 37.75 53.8125 42.765625 49.234375 
Q 47.796875 44.671875 47.796875 36.03125 
L 47.796875 13.28125 
Q 47.796875 9.375 48.828125 7.390625 
Q 49.859375 5.421875 52.734375 5.421875 
Q 53.46875 5.421875 54.203125 5.515625 
Q 54.9375 5.609375 55.609375 5.765625 
L 55.609375 0.296875 
Q 53.953125 -0.09375 52.3125 -0.28125 
Q 50.6875 -0.484375 48.828125 -0.484375 
Q 46.34375 -0.484375 44.5625 0.171875 
Q 42.78125 0.828125 41.65625 2.171875 
Q 40.53125 3.515625 39.9375 5.484375 
Q 39.359375 7.46875 39.203125 10.109375 
L 38.921875 10.109375 
Q 37.5 7.5625 35.8125 5.515625 
Q 34.125 3.46875 31.875 2.03125 
Q 29.640625 0.59375 26.78125 -0.1875 
Q 23.921875 -0.984375 20.21875 -0.984375 
z
M 22.21875 5.609375 
Q 26.421875 5.609375 29.5625 7.140625 
Q 32.71875 8.6875 34.78125 11.078125 
Q 36.859375 13.484375 37.890625 16.3125 
Q 38.921875 19.140625 38.921875 21.734375 
L 38.921875 26.078125 
L 29.296875 25.875 
Q 26.078125 25.828125 23.171875 25.40625 
Q 20.265625 25 18.0625 23.78125 
Q 15.875 22.5625 14.578125 20.359375 
Q 13.28125 18.171875 13.28125 14.59375 
Q 13.28125 10.296875 15.59375 7.953125 
Q 17.921875 5.609375 22.21875 5.609375 
z
" id="LiberationSans-61"/>
      <path d="M 13.421875 26.65625 
Q 13.421875 22.125 14.078125 18.3125 
Q 14.75 14.5 16.3125 11.734375 
Q 17.875 8.984375 20.4375 7.46875 
Q 23 5.953125 26.765625 5.953125 
Q 31.453125 5.953125 34.59375 8.484375 
Q 37.75 11.03125 38.484375 16.3125 
L 47.359375 15.71875 
Q 46.921875 12.453125 45.453125 9.421875 
Q 44 6.390625 41.484375 4.09375 
Q 38.96875 1.8125 35.34375 0.40625 
Q 31.734375 -0.984375 27 -0.984375 
Q 20.796875 -0.984375 16.453125 1.109375 
Q 12.109375 3.21875 9.390625 6.90625 
Q 6.6875 10.59375 5.46875 15.59375 
Q 4.25 20.609375 4.25 26.46875 
Q 4.25 31.78125 5.125 35.859375 
Q 6 39.9375 7.59375 42.984375 
Q 9.1875 46.046875 11.328125 48.125 
Q 13.484375 50.203125 15.984375 51.4375 
Q 18.5 52.6875 21.28125 53.25 
Q 24.078125 53.8125 26.90625 53.8125 
Q 31.34375 53.8125 34.8125 52.59375 
Q 38.28125 51.375 40.796875 49.25 
Q 43.3125 47.125 44.875 44.234375 
Q 46.4375 41.359375 47.078125 38.03125 
L 38.03125 37.359375 
Q 37.359375 41.75 34.5625 44.328125 
Q 31.78125 46.921875 26.65625 46.921875 
Q 22.90625 46.921875 20.390625 45.671875 
Q 17.875 44.4375 16.3125 41.921875 
Q 14.75 39.40625 14.078125 35.59375 
Q 13.421875 31.78125 13.421875 26.65625 
z
" id="LiberationSans-63"/>
     </defs>
     <g style="fill:#262626;" transform="translate(364.239062 50.806875)scale(0.1 -0.1)">
      <use xlink:href="#LiberationSans-76"/>
      <use x="50" xlink:href="#LiberationSans-61"/>
      <use x="105.615234" xlink:href="#LiberationSans-63"/>
     </g>
    </g>
    <g id="line2d_37">
     <path d="M 336.239062 61.62875 
L 356.239062 61.62875 
" style="fill:none;stroke:#55a868;stroke-linecap:round;stroke-width:1.75;"/>
    </g>
    <g id="line2d_38"/>
    <g id="text_20">
     <!-- al -->
     <defs>
      <path d="M 6.734375 0 
L 6.734375 72.46875 
L 15.53125 72.46875 
L 15.53125 0 
z
" id="LiberationSans-6c"/>
     </defs>
     <g style="fill:#262626;" transform="translate(364.239062 65.12875)scale(0.1 -0.1)">
      <use xlink:href="#LiberationSans-61"/>
      <use x="55.615234" xlink:href="#LiberationSans-6c"/>
     </g>
    </g>
   </g>
  </g>
 </g>
 <defs>
  <clipPath id="pee0e1554b4">
   <rect height="217.44" width="334.8" x="54" y="34.56"/>
  </clipPath>
 </defs>
</svg>
