<?xml version="1.0" encoding="utf-8" standalone="no"?>
<!DOCTYPE svg PUBLIC "-//W3C//DTD SVG 1.1//EN"
  "http://www.w3.org/Graphics/SVG/1.1/DTD/svg11.dtd">
<!-- Created with matplotlib (http://matplotlib.org/) -->
<svg height="288pt" version="1.1" viewBox="0 0 432 288" width="432pt" xmlns="http://www.w3.org/2000/svg" xmlns:xlink="http://www.w3.org/1999/xlink">
 <defs>
  <style type="text/css">
*{stroke-linecap:butt;stroke-linejoin:round;}
  </style>
 </defs>
 <g id="figure_1">
  <g id="patch_1">
   <path d="M 0 288 
L 432 288 
L 432 0 
L 0 0 
z
" style="fill:#ffffff;"/>
  </g>
  <g id="axes_1">
   <g id="patch_2">
    <path d="M 54 252 
L 388.8 252 
L 388.8 34.56 
L 54 34.56 
z
" style="fill:#eaeaf2;"/>
   </g>
   <g id="matplotlib.axis_1">
    <g id="xtick_1">
     <g id="line2d_1">
      <path clip-path="url(#p5e2d79b78e)" d="M 54 252 
L 54 34.56 
" style="fill:none;stroke:#ffffff;stroke-linecap:round;"/>
     </g>
     <g id="line2d_2"/>
     <g id="text_1">
      <!-- 10 -->
      <defs>
       <path d="M 7.625 0 
L 7.625 7.46875 
L 25.140625 7.46875 
L 25.140625 60.40625 
L 9.625 49.3125 
L 9.625 57.625 
L 25.875 68.796875 
L 33.984375 68.796875 
L 33.984375 7.46875 
L 50.734375 7.46875 
L 50.734375 0 
z
" id="LiberationSans-31"/>
       <path d="M 51.703125 34.421875 
Q 51.703125 24.515625 49.828125 17.75 
Q 47.953125 10.984375 44.703125 6.8125 
Q 41.453125 2.640625 37.0625 0.828125 
Q 32.671875 -0.984375 27.6875 -0.984375 
Q 22.65625 -0.984375 18.3125 0.828125 
Q 13.96875 2.640625 10.765625 6.78125 
Q 7.5625 10.9375 5.734375 17.703125 
Q 3.90625 24.46875 3.90625 34.421875 
Q 3.90625 44.828125 5.734375 51.640625 
Q 7.5625 58.453125 10.78125 62.5 
Q 14.015625 66.546875 18.40625 68.1875 
Q 22.796875 69.828125 27.984375 69.828125 
Q 32.90625 69.828125 37.21875 68.1875 
Q 41.546875 66.546875 44.765625 62.5 
Q 48 58.453125 49.84375 51.640625 
Q 51.703125 44.828125 51.703125 34.421875 
z
M 42.78125 34.421875 
Q 42.78125 42.625 41.796875 48.0625 
Q 40.828125 53.515625 38.921875 56.765625 
Q 37.015625 60.015625 34.25 61.359375 
Q 31.5 62.703125 27.984375 62.703125 
Q 24.265625 62.703125 21.4375 61.328125 
Q 18.609375 59.96875 16.671875 56.71875 
Q 14.75 53.46875 13.765625 48.015625 
Q 12.796875 42.578125 12.796875 34.421875 
Q 12.796875 26.515625 13.796875 21.09375 
Q 14.796875 15.671875 16.71875 12.375 
Q 18.65625 9.078125 21.4375 7.640625 
Q 24.21875 6.203125 27.78125 6.203125 
Q 31.25 6.203125 34.03125 7.640625 
Q 36.8125 9.078125 38.734375 12.375 
Q 40.671875 15.671875 41.71875 21.09375 
Q 42.78125 26.515625 42.78125 34.421875 
z
" id="LiberationSans-30"/>
      </defs>
      <g style="fill:#262626;" transform="translate(48.439062 266.246875)scale(0.1 -0.1)">
       <use xlink:href="#LiberationSans-31"/>
       <use x="55.615234" xlink:href="#LiberationSans-30"/>
      </g>
     </g>
    </g>
    <g id="xtick_2">
     <g id="line2d_3">
      <path clip-path="url(#p5e2d79b78e)" d="M 91.2 252 
L 91.2 34.56 
" style="fill:none;stroke:#ffffff;stroke-linecap:round;"/>
     </g>
     <g id="line2d_4"/>
     <g id="text_2">
      <!-- 20 -->
      <defs>
       <path d="M 5.03125 0 
L 5.03125 6.203125 
Q 7.515625 11.921875 11.109375 16.28125 
Q 14.703125 20.65625 18.65625 24.1875 
Q 22.609375 27.734375 26.484375 30.765625 
Q 30.375 33.796875 33.5 36.8125 
Q 36.625 39.84375 38.546875 43.15625 
Q 40.484375 46.484375 40.484375 50.6875 
Q 40.484375 53.609375 39.59375 55.828125 
Q 38.71875 58.0625 37.0625 59.5625 
Q 35.40625 61.078125 33.078125 61.828125 
Q 30.765625 62.59375 27.9375 62.59375 
Q 25.296875 62.59375 22.96875 61.859375 
Q 20.65625 61.140625 18.84375 59.671875 
Q 17.046875 58.203125 15.890625 56.03125 
Q 14.75 53.859375 14.40625 50.984375 
L 5.421875 51.8125 
Q 5.859375 55.515625 7.46875 58.78125 
Q 9.078125 62.0625 11.90625 64.53125 
Q 14.75 67 18.71875 68.40625 
Q 22.703125 69.828125 27.9375 69.828125 
Q 33.0625 69.828125 37.0625 68.609375 
Q 41.0625 67.390625 43.8125 64.984375 
Q 46.578125 62.59375 48.046875 59.078125 
Q 49.515625 55.5625 49.515625 50.984375 
Q 49.515625 47.515625 48.265625 44.390625 
Q 47.015625 41.265625 44.9375 38.421875 
Q 42.875 35.59375 40.140625 32.953125 
Q 37.40625 30.328125 34.421875 27.8125 
Q 31.453125 25.296875 28.421875 22.828125 
Q 25.390625 20.359375 22.71875 17.859375 
Q 20.0625 15.375 17.96875 12.8125 
Q 15.875 10.25 14.703125 7.46875 
L 50.59375 7.46875 
L 50.59375 0 
z
" id="LiberationSans-32"/>
      </defs>
      <g style="fill:#262626;" transform="translate(85.639063 266.246875)scale(0.1 -0.1)">
       <use xlink:href="#LiberationSans-32"/>
       <use x="55.615234" xlink:href="#LiberationSans-30"/>
      </g>
     </g>
    </g>
    <g id="xtick_3">
     <g id="line2d_5">
      <path clip-path="url(#p5e2d79b78e)" d="M 128.4 252 
L 128.4 34.56 
" style="fill:none;stroke:#ffffff;stroke-linecap:round;"/>
     </g>
     <g id="line2d_6"/>
     <g id="text_3">
      <!-- 30 -->
      <defs>
       <path d="M 51.21875 19 
Q 51.21875 14.265625 49.671875 10.546875 
Q 48.140625 6.84375 45.1875 4.265625 
Q 42.234375 1.703125 37.859375 0.359375 
Q 33.5 -0.984375 27.875 -0.984375 
Q 21.484375 -0.984375 17.109375 0.609375 
Q 12.75 2.203125 9.90625 4.8125 
Q 7.078125 7.421875 5.65625 10.765625 
Q 4.25 14.109375 3.8125 17.671875 
L 12.890625 18.5 
Q 13.28125 15.765625 14.328125 13.515625 
Q 15.375 11.28125 17.1875 9.671875 
Q 19 8.0625 21.625 7.171875 
Q 24.265625 6.296875 27.875 6.296875 
Q 34.515625 6.296875 38.296875 9.5625 
Q 42.09375 12.84375 42.09375 19.28125 
Q 42.09375 23.09375 40.40625 25.40625 
Q 38.71875 27.734375 36.203125 29.03125 
Q 33.6875 30.328125 30.734375 30.765625 
Q 27.78125 31.203125 25.296875 31.203125 
L 20.3125 31.203125 
L 20.3125 38.8125 
L 25.09375 38.8125 
Q 27.59375 38.8125 30.265625 39.328125 
Q 32.953125 39.84375 35.171875 41.1875 
Q 37.40625 42.53125 38.84375 44.828125 
Q 40.28125 47.125 40.28125 50.6875 
Q 40.28125 56.203125 37.03125 59.390625 
Q 33.796875 62.59375 27.390625 62.59375 
Q 21.578125 62.59375 17.984375 59.609375 
Q 14.40625 56.640625 13.8125 51.21875 
L 4.984375 51.90625 
Q 5.515625 56.453125 7.46875 59.8125 
Q 9.421875 63.1875 12.421875 65.40625 
Q 15.4375 67.625 19.28125 68.71875 
Q 23.140625 69.828125 27.484375 69.828125 
Q 33.25 69.828125 37.390625 68.375 
Q 41.546875 66.9375 44.1875 64.46875 
Q 46.828125 62.015625 48.0625 58.6875 
Q 49.3125 55.375 49.3125 51.609375 
Q 49.3125 48.578125 48.484375 45.9375 
Q 47.65625 43.3125 45.890625 41.203125 
Q 44.140625 39.109375 41.421875 37.59375 
Q 38.71875 36.078125 34.90625 35.296875 
L 34.90625 35.109375 
Q 39.0625 34.671875 42.140625 33.21875 
Q 45.21875 31.78125 47.21875 29.625 
Q 49.21875 27.484375 50.21875 24.75 
Q 51.21875 22.015625 51.21875 19 
z
" id="LiberationSans-33"/>
      </defs>
      <g style="fill:#262626;" transform="translate(122.839063 266.246875)scale(0.1 -0.1)">
       <use xlink:href="#LiberationSans-33"/>
       <use x="55.615234" xlink:href="#LiberationSans-30"/>
      </g>
     </g>
    </g>
    <g id="xtick_4">
     <g id="line2d_7">
      <path clip-path="url(#p5e2d79b78e)" d="M 165.6 252 
L 165.6 34.56 
" style="fill:none;stroke:#ffffff;stroke-linecap:round;"/>
     </g>
     <g id="line2d_8"/>
     <g id="text_4">
      <!-- 40 -->
      <defs>
       <path d="M 43.015625 15.578125 
L 43.015625 0 
L 34.71875 0 
L 34.71875 15.578125 
L 2.296875 15.578125 
L 2.296875 22.40625 
L 33.796875 68.796875 
L 43.015625 68.796875 
L 43.015625 22.515625 
L 52.6875 22.515625 
L 52.6875 15.578125 
z
M 34.71875 58.890625 
Q 34.625 58.640625 34.234375 57.9375 
Q 33.84375 57.234375 33.34375 56.34375 
Q 32.859375 55.46875 32.34375 54.5625 
Q 31.84375 53.65625 31.453125 53.078125 
L 13.8125 27.09375 
Q 13.578125 26.703125 13.109375 26.0625 
Q 12.640625 25.4375 12.15625 24.78125 
Q 11.671875 24.125 11.171875 23.484375 
Q 10.6875 22.859375 10.40625 22.515625 
L 34.71875 22.515625 
z
" id="LiberationSans-34"/>
      </defs>
      <g style="fill:#262626;" transform="translate(160.039063 266.246875)scale(0.1 -0.1)">
       <use xlink:href="#LiberationSans-34"/>
       <use x="55.615234" xlink:href="#LiberationSans-30"/>
      </g>
     </g>
    </g>
    <g id="xtick_5">
     <g id="line2d_9">
      <path clip-path="url(#p5e2d79b78e)" d="M 202.8 252 
L 202.8 34.56 
" style="fill:none;stroke:#ffffff;stroke-linecap:round;"/>
     </g>
     <g id="line2d_10"/>
     <g id="text_5">
      <!-- 50 -->
      <defs>
       <path d="M 51.421875 22.40625 
Q 51.421875 17.234375 49.859375 12.9375 
Q 48.296875 8.640625 45.21875 5.53125 
Q 42.140625 2.4375 37.578125 0.71875 
Q 33.015625 -0.984375 27 -0.984375 
Q 21.578125 -0.984375 17.546875 0.28125 
Q 13.53125 1.5625 10.734375 3.78125 
Q 7.953125 6 6.3125 8.984375 
Q 4.6875 11.96875 4 15.375 
L 12.890625 16.40625 
Q 13.421875 14.453125 14.390625 12.625 
Q 15.375 10.796875 17.0625 9.34375 
Q 18.75 7.90625 21.21875 7.046875 
Q 23.6875 6.203125 27.203125 6.203125 
Q 30.609375 6.203125 33.390625 7.25 
Q 36.1875 8.296875 38.15625 10.34375 
Q 40.140625 12.40625 41.203125 15.375 
Q 42.28125 18.359375 42.28125 22.21875 
Q 42.28125 25.390625 41.25 28.046875 
Q 40.234375 30.71875 38.328125 32.640625 
Q 36.421875 34.578125 33.65625 35.640625 
Q 30.90625 36.71875 27.390625 36.71875 
Q 25.203125 36.71875 23.34375 36.328125 
Q 21.484375 35.9375 19.890625 35.25 
Q 18.3125 34.578125 17.015625 33.671875 
Q 15.71875 32.765625 14.59375 31.78125 
L 6 31.78125 
L 8.296875 68.796875 
L 47.40625 68.796875 
L 47.40625 61.328125 
L 16.3125 61.328125 
L 14.984375 39.5 
Q 17.328125 41.3125 20.84375 42.59375 
Q 24.359375 43.890625 29.203125 43.890625 
Q 34.328125 43.890625 38.421875 42.328125 
Q 42.53125 40.765625 45.40625 37.90625 
Q 48.296875 35.0625 49.859375 31.109375 
Q 51.421875 27.15625 51.421875 22.40625 
z
" id="LiberationSans-35"/>
      </defs>
      <g style="fill:#262626;" transform="translate(197.239063 266.246875)scale(0.1 -0.1)">
       <use xlink:href="#LiberationSans-35"/>
       <use x="55.615234" xlink:href="#LiberationSans-30"/>
      </g>
     </g>
    </g>
    <g id="xtick_6">
     <g id="line2d_11">
      <path clip-path="url(#p5e2d79b78e)" d="M 240 252 
L 240 34.56 
" style="fill:none;stroke:#ffffff;stroke-linecap:round;"/>
     </g>
     <g id="line2d_12"/>
     <g id="text_6">
      <!-- 60 -->
      <defs>
       <path d="M 51.21875 22.515625 
Q 51.21875 17.328125 49.78125 13 
Q 48.34375 8.6875 45.53125 5.578125 
Q 42.71875 2.484375 38.5625 0.75 
Q 34.421875 -0.984375 29 -0.984375 
Q 23 -0.984375 18.5 1.3125 
Q 14.015625 3.609375 11.03125 7.921875 
Q 8.0625 12.25 6.5625 18.53125 
Q 5.078125 24.8125 5.078125 32.8125 
Q 5.078125 42 6.765625 48.921875 
Q 8.453125 55.859375 11.625 60.5 
Q 14.796875 65.140625 19.359375 67.484375 
Q 23.921875 69.828125 29.6875 69.828125 
Q 33.203125 69.828125 36.28125 69.09375 
Q 39.359375 68.359375 41.875 66.71875 
Q 44.390625 65.09375 46.28125 62.40625 
Q 48.1875 59.71875 49.3125 55.8125 
L 40.921875 54.296875 
Q 39.546875 58.734375 36.546875 60.71875 
Q 33.546875 62.703125 29.59375 62.703125 
Q 25.984375 62.703125 23.046875 60.984375 
Q 20.125 59.28125 18.0625 55.875 
Q 16.015625 52.484375 14.90625 47.359375 
Q 13.8125 42.234375 13.8125 35.40625 
Q 16.21875 39.84375 20.5625 42.15625 
Q 24.90625 44.484375 30.515625 44.484375 
Q 35.203125 44.484375 39.015625 42.96875 
Q 42.828125 41.453125 45.53125 38.59375 
Q 48.25 35.75 49.734375 31.671875 
Q 51.21875 27.59375 51.21875 22.515625 
z
M 42.28125 22.125 
Q 42.28125 25.6875 41.40625 28.5625 
Q 40.53125 31.453125 38.765625 33.46875 
Q 37.015625 35.5 34.421875 36.59375 
Q 31.84375 37.703125 28.421875 37.703125 
Q 26.03125 37.703125 23.578125 36.984375 
Q 21.140625 36.28125 19.15625 34.6875 
Q 17.1875 33.109375 15.9375 30.515625 
Q 14.703125 27.9375 14.703125 24.21875 
Q 14.703125 20.40625 15.671875 17.109375 
Q 16.65625 13.8125 18.484375 11.375 
Q 20.3125 8.9375 22.890625 7.515625 
Q 25.484375 6.109375 28.71875 6.109375 
Q 31.890625 6.109375 34.40625 7.203125 
Q 36.921875 8.296875 38.671875 10.375 
Q 40.4375 12.453125 41.359375 15.421875 
Q 42.28125 18.40625 42.28125 22.125 
z
" id="LiberationSans-36"/>
      </defs>
      <g style="fill:#262626;" transform="translate(234.439063 266.246875)scale(0.1 -0.1)">
       <use xlink:href="#LiberationSans-36"/>
       <use x="55.615234" xlink:href="#LiberationSans-30"/>
      </g>
     </g>
    </g>
    <g id="xtick_7">
     <g id="line2d_13">
      <path clip-path="url(#p5e2d79b78e)" d="M 277.2 252 
L 277.2 34.56 
" style="fill:none;stroke:#ffffff;stroke-linecap:round;"/>
     </g>
     <g id="line2d_14"/>
     <g id="text_7">
      <!-- 70 -->
      <defs>
       <path d="M 50.59375 61.671875 
Q 45.40625 53.765625 41.0625 46.453125 
Q 36.71875 39.15625 33.59375 31.75 
Q 30.46875 24.359375 28.734375 16.578125 
Q 27 8.796875 27 0 
L 17.828125 0 
Q 17.828125 8.25 19.78125 16.1875 
Q 21.734375 24.125 25.046875 31.765625 
Q 28.375 39.40625 32.765625 46.78125 
Q 37.15625 54.15625 42.09375 61.328125 
L 5.125 61.328125 
L 5.125 68.796875 
L 50.59375 68.796875 
z
" id="LiberationSans-37"/>
      </defs>
      <g style="fill:#262626;" transform="translate(271.639063 266.246875)scale(0.1 -0.1)">
       <use xlink:href="#LiberationSans-37"/>
       <use x="55.615234" xlink:href="#LiberationSans-30"/>
      </g>
     </g>
    </g>
    <g id="xtick_8">
     <g id="line2d_15">
      <path clip-path="url(#p5e2d79b78e)" d="M 314.4 252 
L 314.4 34.56 
" style="fill:none;stroke:#ffffff;stroke-linecap:round;"/>
     </g>
     <g id="line2d_16"/>
     <g id="text_8">
      <!-- 80 -->
      <defs>
       <path d="M 51.265625 19.1875 
Q 51.265625 14.796875 49.875 11.109375 
Q 48.484375 7.421875 45.625 4.734375 
Q 42.78125 2.046875 38.328125 0.53125 
Q 33.890625 -0.984375 27.828125 -0.984375 
Q 21.78125 -0.984375 17.359375 0.53125 
Q 12.9375 2.046875 10.03125 4.703125 
Q 7.125 7.375 5.734375 11.0625 
Q 4.34375 14.75 4.34375 19.09375 
Q 4.34375 22.859375 5.484375 25.78125 
Q 6.640625 28.71875 8.5625 30.828125 
Q 10.5 32.953125 12.96875 34.25 
Q 15.4375 35.546875 18.0625 35.984375 
L 18.0625 36.1875 
Q 15.1875 36.859375 12.90625 38.375 
Q 10.640625 39.890625 9.09375 42.015625 
Q 7.5625 44.140625 6.75 46.71875 
Q 5.953125 49.3125 5.953125 52.203125 
Q 5.953125 55.8125 7.34375 59 
Q 8.734375 62.203125 11.46875 64.625 
Q 14.203125 67.046875 18.25 68.4375 
Q 22.3125 69.828125 27.640625 69.828125 
Q 33.25 69.828125 37.375 68.40625 
Q 41.5 67 44.203125 64.578125 
Q 46.921875 62.15625 48.234375 58.9375 
Q 49.5625 55.71875 49.5625 52.09375 
Q 49.5625 49.265625 48.75 46.671875 
Q 47.953125 44.09375 46.40625 41.96875 
Q 44.875 39.84375 42.59375 38.34375 
Q 40.328125 36.859375 37.359375 36.28125 
L 37.359375 36.078125 
Q 40.328125 35.59375 42.859375 34.296875 
Q 45.40625 33.015625 47.265625 30.890625 
Q 49.125 28.765625 50.1875 25.828125 
Q 51.265625 22.90625 51.265625 19.1875 
z
M 40.4375 51.609375 
Q 40.4375 54.203125 39.765625 56.34375 
Q 39.109375 58.5 37.59375 60.03125 
Q 36.078125 61.578125 33.640625 62.421875 
Q 31.203125 63.28125 27.640625 63.28125 
Q 24.171875 63.28125 21.78125 62.421875 
Q 19.390625 61.578125 17.84375 60.03125 
Q 16.3125 58.5 15.625 56.34375 
Q 14.9375 54.203125 14.9375 51.609375 
Q 14.9375 49.5625 15.46875 47.40625 
Q 16.015625 45.265625 17.421875 43.5 
Q 18.84375 41.75 21.328125 40.625 
Q 23.828125 39.5 27.734375 39.5 
Q 31.890625 39.5 34.40625 40.625 
Q 36.921875 41.75 38.25 43.5 
Q 39.59375 45.265625 40.015625 47.40625 
Q 40.4375 49.5625 40.4375 51.609375 
z
M 42.140625 20.015625 
Q 42.140625 22.515625 41.453125 24.828125 
Q 40.765625 27.15625 39.109375 28.9375 
Q 37.453125 30.71875 34.640625 31.8125 
Q 31.84375 32.90625 27.640625 32.90625 
Q 23.78125 32.90625 21.0625 31.8125 
Q 18.359375 30.71875 16.671875 28.90625 
Q 14.984375 27.09375 14.203125 24.71875 
Q 13.421875 22.359375 13.421875 19.828125 
Q 13.421875 16.65625 14.203125 14.03125 
Q 14.984375 11.421875 16.6875 9.546875 
Q 18.40625 7.671875 21.1875 6.640625 
Q 23.96875 5.609375 27.9375 5.609375 
Q 31.9375 5.609375 34.671875 6.640625 
Q 37.40625 7.671875 39.0625 9.546875 
Q 40.71875 11.421875 41.421875 14.078125 
Q 42.140625 16.75 42.140625 20.015625 
z
" id="LiberationSans-38"/>
      </defs>
      <g style="fill:#262626;" transform="translate(308.839063 266.246875)scale(0.1 -0.1)">
       <use xlink:href="#LiberationSans-38"/>
       <use x="55.615234" xlink:href="#LiberationSans-30"/>
      </g>
     </g>
    </g>
    <g id="xtick_9">
     <g id="line2d_17">
      <path clip-path="url(#p5e2d79b78e)" d="M 351.6 252 
L 351.6 34.56 
" style="fill:none;stroke:#ffffff;stroke-linecap:round;"/>
     </g>
     <g id="line2d_18"/>
     <g id="text_9">
      <!-- 90 -->
      <defs>
       <path d="M 50.875 35.796875 
Q 50.875 26.609375 49.140625 19.703125 
Q 47.40625 12.796875 44.1875 8.203125 
Q 40.96875 3.609375 36.34375 1.3125 
Q 31.734375 -0.984375 25.984375 -0.984375 
Q 22.015625 -0.984375 18.84375 -0.171875 
Q 15.671875 0.640625 13.171875 2.34375 
Q 10.6875 4.046875 8.921875 6.78125 
Q 7.171875 9.515625 6.109375 13.375 
L 14.5 14.703125 
Q 15.875 10.25 18.78125 8.171875 
Q 21.6875 6.109375 26.125 6.109375 
Q 29.6875 6.109375 32.640625 7.78125 
Q 35.59375 9.46875 37.671875 12.84375 
Q 39.75 16.21875 40.921875 21.296875 
Q 42.09375 26.375 42.1875 33.203125 
Q 41.15625 30.90625 39.375 29.09375 
Q 37.59375 27.296875 35.328125 26.046875 
Q 33.0625 24.8125 30.421875 24.140625 
Q 27.78125 23.484375 25.09375 23.484375 
Q 20.40625 23.484375 16.625 25.171875 
Q 12.84375 26.859375 10.203125 29.875 
Q 7.5625 32.90625 6.125 37.171875 
Q 4.6875 41.453125 4.6875 46.6875 
Q 4.6875 52 6.21875 56.296875 
Q 7.765625 60.59375 10.6875 63.59375 
Q 13.625 66.609375 17.890625 68.21875 
Q 22.171875 69.828125 27.59375 69.828125 
Q 39.0625 69.828125 44.96875 61.328125 
Q 50.875 52.828125 50.875 35.796875 
z
M 41.3125 44.28125 
Q 41.3125 48.09375 40.40625 51.453125 
Q 39.5 54.828125 37.71875 57.3125 
Q 35.9375 59.8125 33.328125 61.25 
Q 30.71875 62.703125 27.296875 62.703125 
Q 24.125 62.703125 21.578125 61.578125 
Q 19.046875 60.453125 17.28125 58.375 
Q 15.53125 56.296875 14.578125 53.3125 
Q 13.625 50.34375 13.625 46.6875 
Q 13.625 43.21875 14.46875 40.234375 
Q 15.328125 37.25 17.03125 35.078125 
Q 18.75 32.90625 21.28125 31.65625 
Q 23.828125 30.421875 27.203125 30.421875 
Q 29.640625 30.421875 32.15625 31.25 
Q 34.671875 32.078125 36.6875 33.78125 
Q 38.71875 35.5 40.015625 38.109375 
Q 41.3125 40.71875 41.3125 44.28125 
z
" id="LiberationSans-39"/>
      </defs>
      <g style="fill:#262626;" transform="translate(346.039062 266.246875)scale(0.1 -0.1)">
       <use xlink:href="#LiberationSans-39"/>
       <use x="55.615234" xlink:href="#LiberationSans-30"/>
      </g>
     </g>
    </g>
    <g id="xtick_10">
     <g id="line2d_19">
      <path clip-path="url(#p5e2d79b78e)" d="M 388.8 252 
L 388.8 34.56 
" style="fill:none;stroke:#ffffff;stroke-linecap:round;"/>
     </g>
     <g id="line2d_20"/>
     <g id="text_10">
      <!-- 100 -->
      <g style="fill:#262626;" transform="translate(380.458594 266.246875)scale(0.1 -0.1)">
       <use xlink:href="#LiberationSans-31"/>
       <use x="55.615234" xlink:href="#LiberationSans-30"/>
       <use x="111.230469" xlink:href="#LiberationSans-30"/>
      </g>
     </g>
    </g>
    <g id="text_11">
     <!-- Energy (keV) -->
     <defs>
      <path d="M 8.203125 0 
L 8.203125 68.796875 
L 60.40625 68.796875 
L 60.40625 61.1875 
L 17.53125 61.1875 
L 17.53125 39.109375 
L 57.46875 39.109375 
L 57.46875 31.59375 
L 17.53125 31.59375 
L 17.53125 7.625 
L 62.40625 7.625 
L 62.40625 0 
z
" id="LiberationSans-45"/>
      <path d="M 40.28125 0 
L 40.28125 33.5 
Q 40.28125 37.359375 39.71875 39.9375 
Q 39.15625 42.53125 37.890625 44.109375 
Q 36.625 45.703125 34.546875 46.359375 
Q 32.46875 47.015625 29.390625 47.015625 
Q 26.265625 47.015625 23.75 45.921875 
Q 21.234375 44.828125 19.453125 42.75 
Q 17.671875 40.671875 16.6875 37.625 
Q 15.71875 34.578125 15.71875 30.609375 
L 15.71875 0 
L 6.9375 0 
L 6.9375 41.546875 
Q 6.9375 43.21875 6.90625 45.046875 
Q 6.890625 46.875 6.828125 48.5 
Q 6.78125 50.140625 6.734375 51.3125 
Q 6.6875 52.484375 6.640625 52.828125 
L 14.9375 52.828125 
Q 14.984375 52.59375 15.03125 51.515625 
Q 15.09375 50.4375 15.15625 49.046875 
Q 15.234375 47.65625 15.28125 46.21875 
Q 15.328125 44.78125 15.328125 43.796875 
L 15.484375 43.796875 
Q 16.75 46.09375 18.265625 47.953125 
Q 19.78125 49.8125 21.78125 51.09375 
Q 23.78125 52.390625 26.359375 53.09375 
Q 28.953125 53.8125 32.375 53.8125 
Q 36.765625 53.8125 39.9375 52.734375 
Q 43.109375 51.65625 45.15625 49.40625 
Q 47.21875 47.171875 48.171875 43.625 
Q 49.125 40.09375 49.125 35.203125 
L 49.125 0 
z
" id="LiberationSans-6e"/>
      <path d="M 13.484375 24.5625 
Q 13.484375 20.40625 14.328125 16.90625 
Q 15.1875 13.421875 16.96875 10.90625 
Q 18.75 8.40625 21.53125 7 
Q 24.3125 5.609375 28.21875 5.609375 
Q 33.9375 5.609375 37.375 7.90625 
Q 40.828125 10.203125 42.046875 13.71875 
L 49.75 11.53125 
Q 48.921875 9.328125 47.4375 7.109375 
Q 45.953125 4.890625 43.453125 3.09375 
Q 40.96875 1.3125 37.234375 0.15625 
Q 33.5 -0.984375 28.21875 -0.984375 
Q 16.5 -0.984375 10.375 6 
Q 4.25 12.984375 4.25 26.765625 
Q 4.25 34.1875 6.09375 39.328125 
Q 7.953125 44.484375 11.171875 47.703125 
Q 14.40625 50.921875 18.703125 52.359375 
Q 23 53.8125 27.875 53.8125 
Q 34.515625 53.8125 38.984375 51.65625 
Q 43.453125 49.515625 46.15625 45.71875 
Q 48.875 41.9375 50.015625 36.8125 
Q 51.171875 31.6875 51.171875 25.734375 
L 51.171875 24.5625 
z
M 42.09375 31.296875 
Q 41.359375 39.65625 37.84375 43.484375 
Q 34.328125 47.3125 27.734375 47.3125 
Q 25.53125 47.3125 23.109375 46.609375 
Q 20.703125 45.90625 18.65625 44.09375 
Q 16.609375 42.28125 15.1875 39.171875 
Q 13.765625 36.078125 13.578125 31.296875 
z
" id="LiberationSans-65"/>
      <path d="M 6.9375 0 
L 6.9375 40.53125 
Q 6.9375 42.1875 6.90625 43.921875 
Q 6.890625 45.65625 6.828125 47.265625 
Q 6.78125 48.875 6.734375 50.28125 
Q 6.6875 51.703125 6.640625 52.828125 
L 14.9375 52.828125 
Q 14.984375 51.703125 15.0625 50.265625 
Q 15.140625 48.828125 15.203125 47.3125 
Q 15.28125 45.796875 15.296875 44.40625 
Q 15.328125 43.015625 15.328125 42.046875 
L 15.53125 42.046875 
Q 16.453125 45.0625 17.5 47.28125 
Q 18.5625 49.515625 19.96875 50.953125 
Q 21.390625 52.390625 23.34375 53.09375 
Q 25.296875 53.8125 28.078125 53.8125 
Q 29.15625 53.8125 30.125 53.640625 
Q 31.109375 53.46875 31.640625 53.328125 
L 31.640625 45.265625 
Q 30.765625 45.515625 29.59375 45.625 
Q 28.421875 45.75 26.953125 45.75 
Q 23.921875 45.75 21.796875 44.375 
Q 19.671875 43.015625 18.328125 40.59375 
Q 17 38.1875 16.359375 34.84375 
Q 15.71875 31.5 15.71875 27.546875 
L 15.71875 0 
z
" id="LiberationSans-72"/>
      <path d="M 26.765625 -20.75 
Q 22.21875 -20.75 18.703125 -19.8125 
Q 15.1875 -18.890625 12.6875 -17.15625 
Q 10.203125 -15.4375 8.640625 -13.03125 
Q 7.078125 -10.640625 6.390625 -7.71875 
L 15.234375 -6.453125 
Q 16.109375 -10.109375 19.109375 -12.078125 
Q 22.125 -14.0625 27 -14.0625 
Q 29.984375 -14.0625 32.421875 -13.234375 
Q 34.859375 -12.40625 36.5625 -10.5625 
Q 38.28125 -8.734375 39.203125 -5.796875 
Q 40.140625 -2.875 40.140625 1.3125 
L 40.140625 9.8125 
L 40.046875 9.8125 
Q 39.0625 7.8125 37.625 5.984375 
Q 36.1875 4.15625 34.109375 2.734375 
Q 32.03125 1.3125 29.296875 0.453125 
Q 26.5625 -0.390625 23.046875 -0.390625 
Q 18.015625 -0.390625 14.421875 1.296875 
Q 10.84375 2.984375 8.5625 6.34375 
Q 6.296875 9.71875 5.25 14.71875 
Q 4.203125 19.734375 4.203125 26.3125 
Q 4.203125 32.671875 5.25 37.75 
Q 6.296875 42.828125 8.65625 46.359375 
Q 11.03125 49.90625 14.8125 51.78125 
Q 18.609375 53.65625 24.03125 53.65625 
Q 29.640625 53.65625 33.765625 51.09375 
Q 37.890625 48.53125 40.140625 43.796875 
L 40.234375 43.796875 
Q 40.234375 45.015625 40.296875 46.53125 
Q 40.375 48.046875 40.453125 49.390625 
Q 40.53125 50.734375 40.625 51.703125 
Q 40.71875 52.6875 40.828125 52.828125 
L 49.171875 52.828125 
Q 49.125 52.390625 49.078125 51.34375 
Q 49.03125 50.296875 48.96875 48.828125 
Q 48.921875 47.359375 48.890625 45.578125 
Q 48.875 43.796875 48.875 41.890625 
L 48.875 1.515625 
Q 48.875 -9.578125 43.421875 -15.15625 
Q 37.984375 -20.75 26.765625 -20.75 
z
M 40.140625 26.421875 
Q 40.140625 31.9375 38.9375 35.859375 
Q 37.75 39.796875 35.796875 42.28125 
Q 33.84375 44.78125 31.328125 45.953125 
Q 28.8125 47.125 26.171875 47.125 
Q 22.796875 47.125 20.375 45.953125 
Q 17.96875 44.78125 16.375 42.265625 
Q 14.796875 39.75 14.03125 35.8125 
Q 13.28125 31.890625 13.28125 26.421875 
Q 13.28125 20.703125 14.03125 16.8125 
Q 14.796875 12.9375 16.359375 10.546875 
Q 17.921875 8.15625 20.3125 7.125 
Q 22.703125 6.109375 26.03125 6.109375 
Q 28.65625 6.109375 31.171875 7.21875 
Q 33.6875 8.34375 35.6875 10.78125 
Q 37.703125 13.234375 38.921875 17.09375 
Q 40.140625 20.953125 40.140625 26.421875 
z
" id="LiberationSans-67"/>
      <path d="M 29.5 0 
Q 27.640625 -4.78125 25.703125 -8.609375 
Q 23.78125 -12.453125 21.390625 -15.15625 
Q 19 -17.875 16.0625 -19.3125 
Q 13.140625 -20.75 9.328125 -20.75 
Q 7.671875 -20.75 6.25 -20.65625 
Q 4.828125 -20.5625 3.265625 -20.21875 
L 3.265625 -13.625 
Q 4.203125 -13.765625 5.375 -13.84375 
Q 6.546875 -13.921875 7.375 -13.921875 
Q 11.234375 -13.921875 14.546875 -11.03125 
Q 17.875 -8.15625 20.359375 -1.859375 
L 21.1875 0.25 
L 0.25 52.828125 
L 9.625 52.828125 
L 20.75 23.640625 
Q 21.234375 22.3125 21.984375 20.109375 
Q 22.75 17.921875 23.5 15.71875 
Q 24.265625 13.53125 24.84375 11.765625 
Q 25.4375 10.015625 25.53125 9.578125 
Q 25.6875 10.109375 26.25 11.6875 
Q 26.8125 13.28125 27.515625 15.234375 
Q 28.21875 17.1875 28.953125 19.1875 
Q 29.6875 21.1875 30.171875 22.65625 
L 40.53125 52.828125 
L 49.8125 52.828125 
z
" id="LiberationSans-79"/>
      <path id="LiberationSans-20"/>
      <path d="M 6.203125 25.984375 
Q 6.203125 32.765625 7.21875 38.96875 
Q 8.25 45.171875 10.4375 50.875 
Q 12.640625 56.59375 16.0625 61.953125 
Q 19.484375 67.328125 24.21875 72.46875 
L 32.71875 72.46875 
Q 28.125 67.328125 24.78125 61.9375 
Q 21.4375 56.546875 19.28125 50.796875 
Q 17.140625 45.0625 16.09375 38.859375 
Q 15.046875 32.671875 15.046875 25.875 
Q 15.046875 19.09375 16.09375 12.890625 
Q 17.140625 6.6875 19.28125 0.921875 
Q 21.4375 -4.828125 24.78125 -10.203125 
Q 28.125 -15.578125 32.71875 -20.703125 
L 24.21875 -20.703125 
Q 19.484375 -15.578125 16.0625 -10.203125 
Q 12.640625 -4.828125 10.4375 0.875 
Q 8.25 6.59375 7.21875 12.765625 
Q 6.203125 18.953125 6.203125 25.78125 
z
" id="LiberationSans-28"/>
      <path d="M 39.84375 0 
L 21.96875 24.125 
L 15.53125 18.796875 
L 15.53125 0 
L 6.734375 0 
L 6.734375 72.46875 
L 15.53125 72.46875 
L 15.53125 27.203125 
L 38.71875 52.828125 
L 49.03125 52.828125 
L 27.59375 30.125 
L 50.140625 0 
z
" id="LiberationSans-6b"/>
      <path d="M 38.1875 0 
L 28.515625 0 
L 0.4375 68.796875 
L 10.25 68.796875 
L 29.296875 20.359375 
Q 30.03125 18.171875 30.765625 15.984375 
Q 31.5 13.8125 32.078125 12.109375 
Q 32.765625 10.109375 33.40625 8.203125 
Q 33.984375 10.015625 34.671875 12.015625 
Q 35.25 13.71875 35.953125 15.859375 
Q 36.671875 18.015625 37.5 20.359375 
L 56.453125 68.796875 
L 66.265625 68.796875 
z
" id="LiberationSans-56"/>
      <path d="M 27.09375 25.78125 
Q 27.09375 18.953125 26.0625 12.765625 
Q 25.046875 6.59375 22.84375 0.875 
Q 20.65625 -4.828125 17.234375 -10.203125 
Q 13.8125 -15.578125 9.078125 -20.703125 
L 0.59375 -20.703125 
Q 5.171875 -15.578125 8.515625 -10.203125 
Q 11.859375 -4.828125 14 0.921875 
Q 16.15625 6.6875 17.203125 12.890625 
Q 18.265625 19.09375 18.265625 25.875 
Q 18.265625 32.671875 17.203125 38.859375 
Q 16.15625 45.0625 14 50.796875 
Q 11.859375 56.546875 8.515625 61.9375 
Q 5.171875 67.328125 0.59375 72.46875 
L 9.078125 72.46875 
Q 13.8125 67.328125 17.234375 61.953125 
Q 20.65625 56.59375 22.84375 50.875 
Q 25.046875 45.171875 26.0625 38.96875 
Q 27.09375 32.765625 27.09375 25.984375 
z
" id="LiberationSans-29"/>
     </defs>
     <g style="fill:#262626;" transform="translate(189.306641 280.293437)scale(0.11 -0.11)">
      <use xlink:href="#LiberationSans-45"/>
      <use x="66.699219" xlink:href="#LiberationSans-6e"/>
      <use x="122.314453" xlink:href="#LiberationSans-65"/>
      <use x="177.929688" xlink:href="#LiberationSans-72"/>
      <use x="211.230469" xlink:href="#LiberationSans-67"/>
      <use x="266.845703" xlink:href="#LiberationSans-79"/>
      <use x="316.845703" xlink:href="#LiberationSans-20"/>
      <use x="344.628906" xlink:href="#LiberationSans-28"/>
      <use x="377.929688" xlink:href="#LiberationSans-6b"/>
      <use x="427.929688" xlink:href="#LiberationSans-65"/>
      <use x="483.544922" xlink:href="#LiberationSans-56"/>
      <use x="550.244141" xlink:href="#LiberationSans-29"/>
     </g>
    </g>
   </g>
   <g id="matplotlib.axis_2">
    <g id="ytick_1">
     <g id="line2d_21">
      <path clip-path="url(#p5e2d79b78e)" d="M 54 242.116364 
L 388.8 242.116364 
" style="fill:none;stroke:#ffffff;stroke-linecap:round;"/>
     </g>
     <g id="line2d_22"/>
     <g id="text_12">
      <!-- 0.0 -->
      <defs>
       <path d="M 9.125 0 
L 9.125 10.6875 
L 18.65625 10.6875 
L 18.65625 0 
z
" id="LiberationSans-2e"/>
      </defs>
      <g style="fill:#262626;" transform="translate(33.1 245.739801)scale(0.1 -0.1)">
       <use xlink:href="#LiberationSans-30"/>
       <use x="55.615234" xlink:href="#LiberationSans-2e"/>
       <use x="83.398438" xlink:href="#LiberationSans-30"/>
      </g>
     </g>
    </g>
    <g id="ytick_2">
     <g id="line2d_23">
      <path clip-path="url(#p5e2d79b78e)" d="M 54 202.581818 
L 388.8 202.581818 
" style="fill:none;stroke:#ffffff;stroke-linecap:round;"/>
     </g>
     <g id="line2d_24"/>
     <g id="text_13">
      <!-- 0.2 -->
      <g style="fill:#262626;" transform="translate(33.1 206.205256)scale(0.1 -0.1)">
       <use xlink:href="#LiberationSans-30"/>
       <use x="55.615234" xlink:href="#LiberationSans-2e"/>
       <use x="83.398438" xlink:href="#LiberationSans-32"/>
      </g>
     </g>
    </g>
    <g id="ytick_3">
     <g id="line2d_25">
      <path clip-path="url(#p5e2d79b78e)" d="M 54 163.047273 
L 388.8 163.047273 
" style="fill:none;stroke:#ffffff;stroke-linecap:round;"/>
     </g>
     <g id="line2d_26"/>
     <g id="text_14">
      <!-- 0.4 -->
      <g style="fill:#262626;" transform="translate(33.1 166.67071)scale(0.1 -0.1)">
       <use xlink:href="#LiberationSans-30"/>
       <use x="55.615234" xlink:href="#LiberationSans-2e"/>
       <use x="83.398438" xlink:href="#LiberationSans-34"/>
      </g>
     </g>
    </g>
    <g id="ytick_4">
     <g id="line2d_27">
      <path clip-path="url(#p5e2d79b78e)" d="M 54 123.512727 
L 388.8 123.512727 
" style="fill:none;stroke:#ffffff;stroke-linecap:round;"/>
     </g>
     <g id="line2d_28"/>
     <g id="text_15">
      <!-- 0.6 -->
      <g style="fill:#262626;" transform="translate(33.1 127.136165)scale(0.1 -0.1)">
       <use xlink:href="#LiberationSans-30"/>
       <use x="55.615234" xlink:href="#LiberationSans-2e"/>
       <use x="83.398438" xlink:href="#LiberationSans-36"/>
      </g>
     </g>
    </g>
    <g id="ytick_5">
     <g id="line2d_29">
      <path clip-path="url(#p5e2d79b78e)" d="M 54 83.978182 
L 388.8 83.978182 
" style="fill:none;stroke:#ffffff;stroke-linecap:round;"/>
     </g>
     <g id="line2d_30"/>
     <g id="text_16">
      <!-- 0.8 -->
      <g style="fill:#262626;" transform="translate(33.1 87.601619)scale(0.1 -0.1)">
       <use xlink:href="#LiberationSans-30"/>
       <use x="55.615234" xlink:href="#LiberationSans-2e"/>
       <use x="83.398438" xlink:href="#LiberationSans-38"/>
      </g>
     </g>
    </g>
    <g id="ytick_6">
     <g id="line2d_31">
      <path clip-path="url(#p5e2d79b78e)" d="M 54 44.443636 
L 388.8 44.443636 
" style="fill:none;stroke:#ffffff;stroke-linecap:round;"/>
     </g>
     <g id="line2d_32"/>
     <g id="text_17">
      <!-- 1.0 -->
      <g style="fill:#262626;" transform="translate(33.1 48.067074)scale(0.1 -0.1)">
       <use xlink:href="#LiberationSans-31"/>
       <use x="55.615234" xlink:href="#LiberationSans-2e"/>
       <use x="83.398438" xlink:href="#LiberationSans-30"/>
      </g>
     </g>
    </g>
   </g>
   <g id="line2d_33">
    <path clip-path="url(#p5e2d79b78e)" d="M 61.44 125.18256 
L 61.44 131.822712 
L 62.184 131.822712 
L 62.184 123.057564 
L 62.928 123.057564 
L 62.928 136.624052 
L 63.672 136.624052 
L 63.672 133.121205 
L 64.416 133.121205 
L 64.416 133.637805 
L 65.16 133.637805 
L 65.16 123.71142 
L 65.904 123.71142 
L 65.904 146.289184 
L 66.648 146.289184 
L 66.648 147.20557 
L 67.392 147.20557 
L 67.392 166.127427 
L 68.136 166.127427 
L 68.136 166.43951 
L 68.88 166.43951 
L 68.88 160.430535 
L 69.624 160.430535 
L 69.624 167.755281 
L 70.368 167.755281 
L 70.368 186.735236 
L 71.112 186.735236 
L 71.112 179.073427 
L 71.856 179.073427 
L 71.856 174.254157 
L 72.6 174.254157 
L 72.6 177.946849 
L 73.344 177.946849 
L 73.344 187.621766 
L 74.088 187.621766 
L 74.088 189.7978 
L 74.832 189.7978 
L 74.832 177.690473 
L 75.576 177.690473 
L 75.576 188.068301 
L 76.32 188.068301 
L 76.32 194.917602 
L 77.064 194.917602 
L 77.064 198.553816 
L 77.808 198.553816 
L 77.808 189.223362 
L 78.552 189.223362 
L 78.552 195.513675 
L 79.296 195.513675 
L 79.296 192.785135 
L 80.04 192.785135 
L 80.04 199.170339 
L 81.528 199.166371 
L 81.528 199.868374 
L 82.272 199.868374 
L 82.272 198.399793 
L 83.016 198.399793 
L 83.016 194.674131 
L 83.76 194.674131 
L 83.76 201.827343 
L 84.504 201.827343 
L 84.504 195.02977 
L 85.248 195.02977 
L 85.248 194.345088 
L 85.992 194.345088 
L 85.992 198.364203 
L 86.736 198.364203 
L 86.736 201.825748 
L 87.48 201.825748 
L 87.48 201.69671 
L 88.224 201.69671 
L 88.224 197.850209 
L 89.712 197.74933 
L 89.712 192.870535 
L 90.456 192.870535 
L 90.456 191.070363 
L 91.2 191.070363 
L 91.2 201.605976 
L 91.944 201.605976 
L 91.944 197.285368 
L 92.688 197.285368 
L 92.688 194.00837 
L 93.432 194.00837 
L 93.432 201.376436 
L 94.176 201.376436 
L 94.176 205.175992 
L 94.92 205.175992 
L 94.92 197.815546 
L 95.664 197.815546 
L 95.664 197.47798 
L 96.408 197.47798 
L 96.408 198.60144 
L 97.152 198.60144 
L 97.152 209.469138 
L 97.896 209.469138 
L 97.896 205.040145 
L 98.64 205.040145 
L 98.64 199.943139 
L 99.384 199.943139 
L 99.384 196.718523 
L 100.128 196.718523 
L 100.128 203.868297 
L 100.872 203.868297 
L 100.872 205.550109 
L 101.616 205.550109 
L 101.616 201.576823 
L 102.36 201.576823 
L 102.36 206.331799 
L 103.104 206.331799 
L 103.104 202.250636 
L 103.848 202.250636 
L 103.848 212.374398 
L 104.592 212.374398 
L 104.592 201.480769 
L 105.336 201.480769 
L 105.336 201.002679 
L 106.08 201.002679 
L 106.08 201.232181 
L 106.824 201.232181 
L 106.824 204.314286 
L 107.568 204.314286 
L 107.568 203.102944 
L 108.312 203.102944 
L 108.312 210.893483 
L 109.056 210.893483 
L 109.056 209.773243 
L 109.8 209.773243 
L 109.8 210.801261 
L 110.544 210.801261 
L 110.544 209.496038 
L 111.288 209.496038 
L 111.288 204.982791 
L 112.032 204.982791 
L 112.032 211.533258 
L 112.776 211.533258 
L 112.776 210.498013 
L 113.52 210.498013 
L 113.52 211.471723 
L 114.264 211.471723 
L 114.264 206.103457 
L 115.008 206.103457 
L 115.008 216.787952 
L 115.752 216.787952 
L 115.752 214.424322 
L 116.496 214.424322 
L 116.496 212.293314 
L 117.24 212.293314 
L 117.24 210.376373 
L 117.984 210.376373 
L 117.984 218.866753 
L 118.728 218.866753 
L 118.728 212.824354 
L 119.472 212.824354 
L 119.472 217.952893 
L 120.216 217.952893 
L 120.216 218.770279 
L 120.96 218.770279 
L 120.96 218.194325 
L 121.704 218.194325 
L 121.704 219.369977 
L 122.448 219.369977 
L 122.448 212.982778 
L 123.192 212.982778 
L 123.192 217.203474 
L 123.936 217.203474 
L 123.936 219.186273 
L 124.68 219.186273 
L 124.68 220.138064 
L 126.168 220.109734 
L 126.168 215.197002 
L 126.912 215.197002 
L 126.912 224.451682 
L 127.656 224.451682 
L 127.656 218.264831 
L 128.4 218.264831 
L 128.4 219.23668 
L 129.144 219.23668 
L 129.144 219.908033 
L 129.888 219.908033 
L 129.888 220.965273 
L 130.632 220.965273 
L 130.632 220.178424 
L 131.376 220.178424 
L 131.376 219.483273 
L 132.12 219.483273 
L 132.12 219.965038 
L 132.864 219.965038 
L 132.864 225.596873 
L 133.608 225.596873 
L 133.608 218.563863 
L 134.352 218.563863 
L 134.352 222.882109 
L 135.096 222.882109 
L 135.096 221.483544 
L 135.84 221.483544 
L 135.84 220.038098 
L 136.584 220.038098 
L 136.584 221.093156 
L 137.328 221.093156 
L 137.328 219.500239 
L 138.072 219.500239 
L 138.072 221.459027 
L 138.816 221.459027 
L 138.816 219.484251 
L 139.56 219.484251 
L 139.56 218.740881 
L 140.304 218.740881 
L 140.304 221.404543 
L 141.048 221.404543 
L 141.048 220.503644 
L 141.792 220.503644 
L 141.792 222.450808 
L 142.536 222.450808 
L 142.536 219.85971 
L 143.28 219.85971 
L 143.28 218.488533 
L 144.024 218.488533 
L 144.024 220.671609 
L 144.768 220.671609 
L 144.768 224.083337 
L 145.512 224.083337 
L 145.512 220.820673 
L 146.256 220.820673 
L 146.256 219.919815 
L 147 219.919815 
L 147 218.127372 
L 147.744 218.127372 
L 147.744 221.747326 
L 148.488 221.747326 
L 148.488 219.615579 
L 149.232 219.615579 
L 149.232 218.608164 
L 149.976 218.608164 
L 149.976 216.301161 
L 150.72 216.301161 
L 150.72 215.288062 
L 152.208 215.259041 
L 152.208 221.811568 
L 152.952 221.811568 
L 152.952 217.884351 
L 154.44 217.824429 
L 154.44 215.740682 
L 155.184 215.740682 
L 155.184 216.929885 
L 155.928 216.929885 
L 155.928 216.792215 
L 156.672 216.792215 
L 156.672 217.325046 
L 157.416 217.325046 
L 157.416 213.953178 
L 158.16 213.953178 
L 158.16 212.957441 
L 158.904 212.957441 
L 158.904 216.978252 
L 159.648 216.978252 
L 159.648 211.238768 
L 160.392 211.238768 
L 160.392 209.997593 
L 161.136 209.997593 
L 161.136 216.120727 
L 161.88 216.120727 
L 161.88 210.819659 
L 162.624 210.819659 
L 162.624 213.847078 
L 163.368 213.847078 
L 163.368 211.521981 
L 164.112 211.521981 
L 164.112 213.029392 
L 164.856 213.029392 
L 164.856 207.840878 
L 165.6 207.840878 
L 165.6 208.249322 
L 166.344 208.249322 
L 166.344 209.358619 
L 167.088 209.358619 
L 167.088 207.397649 
L 167.832 207.397649 
L 167.832 210.825015 
L 168.576 210.825015 
L 168.576 213.853323 
L 169.32 213.853323 
L 169.32 211.07614 
L 170.064 211.07614 
L 170.064 202.838171 
L 170.808 202.838171 
L 170.808 204.743985 
L 171.552 204.743985 
L 171.552 206.361112 
L 172.296 206.361112 
L 172.296 209.013929 
L 173.04 209.013929 
L 173.04 206.406085 
L 173.784 206.406085 
L 173.784 205.493998 
L 174.528 205.493998 
L 174.528 203.30527 
L 175.272 203.30527 
L 175.272 201.654121 
L 176.016 201.654121 
L 176.016 201.10035 
L 176.76 201.10035 
L 176.76 210.141058 
L 177.504 210.141058 
L 177.504 198.620815 
L 178.248 198.620815 
L 178.248 191.800131 
L 178.992 191.800131 
L 178.992 197.539681 
L 179.736 197.539681 
L 179.736 195.349251 
L 180.48 195.349251 
L 180.48 190.757051 
L 181.224 190.757051 
L 181.224 199.358229 
L 181.968 199.358229 
L 181.968 188.618596 
L 182.712 188.618596 
L 182.712 188.191237 
L 183.456 188.191237 
L 183.456 193.014554 
L 184.944 193.073386 
L 184.944 185.737511 
L 185.688 185.737511 
L 185.688 195.064483 
L 186.432 195.064483 
L 186.432 186.063707 
L 187.176 186.063707 
L 187.176 188.018062 
L 187.92 188.018062 
L 187.92 186.312364 
L 188.664 186.312364 
L 188.664 183.798868 
L 189.408 183.798868 
L 189.408 188.410503 
L 190.152 188.410503 
L 190.152 195.604451 
L 190.896 195.604451 
L 190.896 186.510355 
L 191.64 186.510355 
L 191.64 183.649771 
L 192.384 183.649771 
L 192.384 196.405351 
L 193.128 196.405351 
L 193.128 180.50623 
L 193.872 180.50623 
L 193.872 197.321789 
L 194.616 197.321789 
L 194.616 184.090726 
L 195.36 184.090726 
L 195.36 169.749748 
L 196.104 169.749748 
L 196.104 176.38886 
L 196.848 176.38886 
L 196.848 185.32532 
L 197.592 185.32532 
L 197.592 189.708333 
L 198.336 189.708333 
L 198.336 190.203444 
L 199.08 190.203444 
L 199.08 182.977245 
L 199.824 182.977245 
L 199.824 177.620156 
L 200.568 177.620156 
L 200.568 184.065707 
L 201.312 184.065707 
L 201.312 174.949741 
L 202.056 174.949741 
L 202.056 188.058407 
L 202.8 188.058407 
L 202.8 185.884339 
L 203.544 185.884339 
L 203.544 188.068358 
L 204.288 188.068358 
L 204.288 177.285368 
L 205.032 177.285368 
L 205.032 176.906565 
L 205.776 176.906565 
L 205.776 182.720324 
L 206.52 182.720324 
L 206.52 187.635168 
L 207.264 187.635168 
L 207.264 178.275933 
L 208.008 178.275933 
L 208.008 181.030242 
L 208.752 181.030242 
L 208.752 184.3723 
L 209.496 184.3723 
L 209.496 188.908118 
L 210.24 188.908118 
L 210.24 175.41095 
L 210.984 175.41095 
L 210.984 173.302383 
L 211.728 173.302383 
L 211.728 170.330953 
L 212.472 170.330953 
L 212.472 179.38778 
L 213.216 179.38778 
L 213.216 189.146144 
L 213.96 189.146144 
L 213.96 165.736687 
L 214.704 165.736687 
L 214.704 172.147593 
L 215.448 172.147593 
L 215.448 165.954604 
L 216.192 165.954604 
L 216.192 154.595398 
L 216.936 154.595398 
L 216.936 150.868528 
L 217.68 150.868528 
L 217.68 171.674682 
L 218.424 171.674682 
L 218.424 138.910185 
L 219.168 138.910185 
L 219.168 132.585518 
L 219.912 132.585518 
L 219.912 155.295542 
L 220.656 155.295542 
L 220.656 139.73732 
L 221.4 139.73732 
L 221.4 120.766609 
L 222.144 120.766609 
L 222.144 124.879501 
L 222.888 124.879501 
L 222.888 113.597615 
L 223.632 113.597615 
L 223.632 126.719558 
L 225.12 126.689979 
L 225.12 108.054307 
L 225.864 108.054307 
L 225.864 130.571624 
L 226.608 130.571624 
L 226.608 90.440968 
L 227.352 90.440968 
L 227.352 104.656793 
L 228.096 104.656793 
L 228.096 86.304284 
L 228.84 86.304284 
L 228.84 82.676271 
L 229.584 82.676271 
L 229.584 94.492712 
L 230.328 94.492712 
L 230.328 82.712501 
L 231.072 82.712501 
L 231.072 44.443636 
L 231.816 44.443636 
L 231.816 75.146786 
L 232.56 75.146786 
L 232.56 52.802108 
L 233.304 52.802108 
L 233.304 69.84253 
L 234.048 69.84253 
L 234.048 93.507204 
L 234.792 93.507204 
L 234.792 75.583751 
L 235.536 75.583751 
L 235.536 45.362661 
L 236.28 45.362661 
L 236.28 59.442525 
L 237.024 59.442525 
L 237.024 74.176151 
L 237.768 74.176151 
L 237.768 85.633582 
L 238.512 85.633582 
L 238.512 67.441217 
L 239.256 67.441217 
L 239.256 116.889213 
L 240 116.889213 
L 240 92.549503 
L 240.744 92.549503 
L 240.744 93.49426 
L 241.488 93.49426 
L 241.488 75.730407 
L 242.232 75.730407 
L 242.232 107.35418 
L 242.976 107.35418 
L 242.976 111.866815 
L 243.72 111.866815 
L 243.72 111.209196 
L 244.464 111.209196 
L 244.464 118.815415 
L 245.208 118.815415 
L 245.208 141.44578 
L 245.952 141.44578 
L 245.952 137.547644 
L 246.696 137.547644 
L 246.696 140.22146 
L 247.44 140.22146 
L 247.44 133.66202 
L 248.184 133.66202 
L 248.184 143.420856 
L 248.928 143.420856 
L 248.928 149.050388 
L 249.672 149.050388 
L 249.672 153.883404 
L 250.416 153.883404 
L 250.416 153.245465 
L 251.16 153.245465 
L 251.16 167.014709 
L 251.904 167.014709 
L 251.904 168.255255 
L 252.648 168.255255 
L 252.648 162.049542 
L 253.392 162.049542 
L 253.392 176.863933 
L 254.136 176.863933 
L 254.136 182.299573 
L 254.88 182.299573 
L 254.88 185.569954 
L 255.624 185.569954 
L 255.624 196.794703 
L 256.368 196.794703 
L 256.368 202.219705 
L 257.112 202.219705 
L 257.112 208.342821 
L 257.856 208.342821 
L 257.856 211.201539 
L 258.6 211.201539 
L 258.6 215.31247 
L 259.344 215.31247 
L 259.344 213.5554 
L 260.088 213.5554 
L 260.088 222.898995 
L 260.832 222.898995 
L 260.832 228.919272 
L 261.576 228.919272 
L 261.576 224.002488 
L 262.32 224.002488 
L 262.32 229.318296 
L 263.064 229.318296 
L 263.064 231.119086 
L 263.808 231.119086 
L 263.808 233.257806 
L 264.552 233.257806 
L 264.552 234.598915 
L 265.296 234.598915 
L 265.296 236.656298 
L 266.04 236.656298 
L 266.04 236.524928 
L 266.784 236.524928 
L 266.784 237.356948 
L 267.528 237.356948 
L 267.528 238.447216 
L 268.272 238.447216 
L 268.272 238.80482 
L 269.016 238.80482 
L 269.016 239.558202 
L 269.76 239.558202 
L 269.76 240.239683 
L 270.504 240.239683 
L 270.504 240.398006 
L 271.248 240.398006 
L 271.248 240.913668 
L 271.992 240.913668 
L 271.992 241.091475 
L 272.736 241.091475 
L 272.736 241.428203 
L 274.224 241.46964 
L 274.224 241.564723 
L 274.968 241.564723 
L 274.968 241.769271 
L 277.2 241.851125 
L 277.2 241.933829 
L 285.384 242.039563 
L 285.384 242.050629 
L 388.056 242.064893 
L 388.056 242.064893 
" style="fill:none;stroke:#4c72b0;stroke-linecap:round;stroke-width:1.75;"/>
   </g>
   <g id="line2d_34">
    <path clip-path="url(#p5e2d79b78e)" d="M 61.44 88.895309 
L 61.44 126.417625 
L 62.184 126.417625 
L 62.184 129.693539 
L 62.928 129.693539 
L 62.928 139.748768 
L 63.672 139.748768 
L 63.672 147.644672 
L 64.416 147.644672 
L 64.416 119.138287 
L 65.16 119.138287 
L 65.16 147.362965 
L 65.904 147.362965 
L 65.904 144.345428 
L 66.648 144.345428 
L 66.648 160.65302 
L 67.392 160.65302 
L 67.392 170.141979 
L 68.136 170.141979 
L 68.136 148.922498 
L 68.88 148.922498 
L 68.88 157.826824 
L 69.624 157.826824 
L 69.624 165.356969 
L 70.368 165.356969 
L 70.368 166.978061 
L 71.112 166.978061 
L 71.112 181.240365 
L 71.856 181.240365 
L 71.856 178.49044 
L 72.6 178.49044 
L 72.6 184.006596 
L 73.344 184.006596 
L 73.344 168.869783 
L 74.088 168.869783 
L 74.088 180.405401 
L 74.832 180.405401 
L 74.832 179.920538 
L 75.576 179.920538 
L 75.576 187.27746 
L 76.32 187.27746 
L 76.32 191.336958 
L 77.064 191.336958 
L 77.064 195.786034 
L 77.808 195.786034 
L 77.808 190.534606 
L 78.552 190.534606 
L 78.552 193.833817 
L 79.296 193.833817 
L 79.296 196.099379 
L 80.04 196.099379 
L 80.04 196.430194 
L 80.784 196.430194 
L 80.784 197.20609 
L 81.528 197.20609 
L 81.528 190.741658 
L 82.272 190.741658 
L 82.272 202.447161 
L 83.76 202.389318 
L 83.76 199.245288 
L 84.504 199.245288 
L 84.504 199.710613 
L 85.248 199.710613 
L 85.248 205.487795 
L 85.992 205.487795 
L 85.992 205.28854 
L 86.736 205.28854 
L 86.736 208.783836 
L 87.48 208.783836 
L 87.48 196.893423 
L 88.224 196.893423 
L 88.224 197.931637 
L 88.968 197.931637 
L 88.968 205.389169 
L 89.712 205.389169 
L 89.712 196.929115 
L 90.456 196.929115 
L 90.456 201.4568 
L 91.2 201.4568 
L 91.2 197.164954 
L 91.944 197.164954 
L 91.944 202.09977 
L 92.688 202.09977 
L 92.688 200.02784 
L 93.432 200.02784 
L 93.432 204.643471 
L 94.92 204.541043 
L 94.92 207.797671 
L 95.664 207.797671 
L 95.664 202.181866 
L 96.408 202.181866 
L 96.408 201.181526 
L 97.152 201.181526 
L 97.152 206.520234 
L 97.896 206.520234 
L 97.896 205.463039 
L 98.64 205.463039 
L 98.64 201.457682 
L 99.384 201.457682 
L 99.384 200.177979 
L 100.128 200.177979 
L 100.128 194.717987 
L 100.872 194.717987 
L 100.872 200.589858 
L 101.616 200.589858 
L 101.616 204.809799 
L 102.36 204.809799 
L 102.36 204.46294 
L 103.848 204.532094 
L 103.848 202.956048 
L 104.592 202.956048 
L 104.592 201.889388 
L 105.336 201.889388 
L 105.336 203.978372 
L 106.08 203.978372 
L 106.08 208.120534 
L 106.824 208.120534 
L 106.824 203.210571 
L 107.568 203.210571 
L 107.568 204.052858 
L 108.312 204.052858 
L 108.312 203.014687 
L 109.056 203.014687 
L 109.056 206.930598 
L 109.8 206.930598 
L 109.8 212.040382 
L 110.544 212.040382 
L 110.544 205.942043 
L 111.288 205.942043 
L 111.288 208.882227 
L 112.032 208.882227 
L 112.032 202.871375 
L 112.776 202.871375 
L 112.776 205.200793 
L 113.52 205.200793 
L 113.52 212.27597 
L 114.264 212.27597 
L 114.264 210.003639 
L 115.008 210.003639 
L 115.008 207.948777 
L 115.752 207.948777 
L 115.752 211.184932 
L 116.496 211.184932 
L 116.496 209.500884 
L 117.24 209.500884 
L 117.24 215.108756 
L 117.984 215.108756 
L 117.984 212.109363 
L 119.472 212.006008 
L 119.472 214.579088 
L 120.216 214.579088 
L 120.216 212.0238 
L 120.96 212.0238 
L 120.96 208.816366 
L 121.704 208.816366 
L 121.704 215.018966 
L 122.448 215.018966 
L 122.448 217.634089 
L 123.192 217.634089 
L 123.192 217.013084 
L 123.936 217.013084 
L 123.936 212.534931 
L 124.68 212.534931 
L 124.68 216.839294 
L 125.424 216.839294 
L 125.424 208.235891 
L 126.168 208.235891 
L 126.168 212.034225 
L 126.912 212.034225 
L 126.912 216.4247 
L 127.656 216.4247 
L 127.656 214.969032 
L 128.4 214.969032 
L 128.4 223.626503 
L 129.144 223.626503 
L 129.144 213.98131 
L 129.888 213.98131 
L 129.888 211.239564 
L 130.632 211.239564 
L 130.632 220.445414 
L 131.376 220.445414 
L 131.376 215.665932 
L 132.12 215.665932 
L 132.12 212.891482 
L 132.864 212.891482 
L 132.864 214.922999 
L 133.608 214.922999 
L 133.608 216.362456 
L 134.352 216.362456 
L 134.352 217.780228 
L 135.096 217.780228 
L 135.096 213.352374 
L 135.84 213.352374 
L 135.84 214.986083 
L 136.584 214.986083 
L 136.584 219.028301 
L 137.328 219.028301 
L 137.328 213.361118 
L 138.072 213.361118 
L 138.072 219.176719 
L 138.816 219.176719 
L 138.816 213.106694 
L 139.56 213.106694 
L 139.56 213.649597 
L 140.304 213.649597 
L 140.304 215.462114 
L 141.048 215.462114 
L 141.048 216.027116 
L 141.792 216.027116 
L 141.792 215.892271 
L 143.28 215.876022 
L 143.28 212.459222 
L 144.024 212.459222 
L 144.024 217.154267 
L 144.768 217.154267 
L 144.768 216.748757 
L 145.512 216.748757 
L 145.512 214.798061 
L 146.256 214.798061 
L 146.256 212.387423 
L 147 212.387423 
L 147 213.535168 
L 147.744 213.535168 
L 147.744 216.265987 
L 148.488 216.265987 
L 148.488 212.408949 
L 149.232 212.408949 
L 149.232 216.68107 
L 149.976 216.68107 
L 149.976 207.51285 
L 150.72 207.51285 
L 150.72 210.044256 
L 151.464 210.044256 
L 151.464 214.772813 
L 152.208 214.772813 
L 152.208 202.396507 
L 152.952 202.396507 
L 152.952 209.648803 
L 153.696 209.648803 
L 153.696 211.784053 
L 154.44 211.784053 
L 154.44 213.5785 
L 155.184 213.5785 
L 155.184 204.490509 
L 155.928 204.490509 
L 155.928 211.887861 
L 156.672 211.887861 
L 156.672 214.033455 
L 157.416 214.033455 
L 157.416 206.221048 
L 158.16 206.221048 
L 158.16 207.770596 
L 158.904 207.770596 
L 158.904 209.233724 
L 159.648 209.233724 
L 159.648 213.982924 
L 160.392 213.982924 
L 160.392 203.092954 
L 161.136 203.092954 
L 161.136 203.972876 
L 161.88 203.972876 
L 161.88 207.924214 
L 162.624 207.924214 
L 162.624 206.876825 
L 163.368 206.876825 
L 163.368 207.793133 
L 164.112 207.793133 
L 164.112 205.81468 
L 164.856 205.81468 
L 164.856 206.730067 
L 165.6 206.730067 
L 165.6 205.674758 
L 166.344 205.674758 
L 166.344 206.815816 
L 167.088 206.815816 
L 167.088 200.272668 
L 167.832 200.272668 
L 167.832 209.175051 
L 168.576 209.175051 
L 168.576 202.27829 
L 169.32 202.27829 
L 169.32 194.962491 
L 170.064 194.962491 
L 170.064 202.371602 
L 170.808 202.371602 
L 170.808 195.90097 
L 171.552 195.90097 
L 171.552 190.902575 
L 172.296 190.902575 
L 172.296 201.328906 
L 173.04 201.328906 
L 173.04 196.815792 
L 173.784 196.815792 
L 173.784 194.757151 
L 174.528 194.757151 
L 174.528 186.812447 
L 175.272 186.812447 
L 175.272 195.861166 
L 176.016 195.861166 
L 176.016 190.008517 
L 176.76 190.008517 
L 176.76 199.35439 
L 177.504 199.35439 
L 177.504 200.026127 
L 178.248 200.026127 
L 178.248 185.002614 
L 178.992 185.002614 
L 178.992 187.075973 
L 179.736 187.075973 
L 179.736 189.511716 
L 180.48 189.511716 
L 180.48 179.765816 
L 181.224 179.765816 
L 181.224 171.76113 
L 181.968 171.76113 
L 181.968 187.261551 
L 182.712 187.261551 
L 182.712 181.830265 
L 183.456 181.830265 
L 183.456 169.074731 
L 184.2 169.074731 
L 184.2 181.905006 
L 184.944 181.905006 
L 184.944 174.395778 
L 185.688 174.395778 
L 185.688 179.006468 
L 186.432 179.006468 
L 186.432 178.762183 
L 187.176 178.762183 
L 187.176 170.847196 
L 187.92 170.847196 
L 187.92 172.112439 
L 188.664 172.112439 
L 188.664 175.333829 
L 189.408 175.333829 
L 189.408 167.345515 
L 190.152 167.345515 
L 190.152 168.793351 
L 190.896 168.793351 
L 190.896 176.608467 
L 191.64 176.608467 
L 191.64 167.407985 
L 192.384 167.407985 
L 192.384 166.304009 
L 193.128 166.304009 
L 193.128 173.758691 
L 193.872 173.758691 
L 193.872 169.350305 
L 194.616 169.350305 
L 194.616 168.83404 
L 195.36 168.83404 
L 195.36 163.074236 
L 196.104 163.074236 
L 196.104 170.643326 
L 196.848 170.643326 
L 196.848 164.917889 
L 197.592 164.917889 
L 197.592 158.756671 
L 198.336 158.756671 
L 198.336 159.040033 
L 199.08 159.040033 
L 199.08 175.016109 
L 199.824 175.016109 
L 199.824 180.392627 
L 200.568 180.392627 
L 200.568 171.80575 
L 201.312 171.80575 
L 201.312 171.421295 
L 202.056 171.421295 
L 202.056 162.588445 
L 202.8 162.588445 
L 202.8 175.948314 
L 203.544 175.948314 
L 203.544 161.426626 
L 204.288 161.426626 
L 204.288 174.708255 
L 205.032 174.708255 
L 205.032 162.159521 
L 205.776 162.159521 
L 205.776 166.685602 
L 206.52 166.685602 
L 206.52 173.961128 
L 207.264 173.961128 
L 207.264 171.913466 
L 208.008 171.913466 
L 208.008 158.294644 
L 208.752 158.294644 
L 208.752 166.294134 
L 209.496 166.294134 
L 209.496 159.180327 
L 210.24 159.180327 
L 210.24 170.000507 
L 210.984 170.000507 
L 210.984 165.302103 
L 211.728 165.302103 
L 211.728 169.813287 
L 212.472 169.813287 
L 212.472 172.347222 
L 213.216 172.347222 
L 213.216 169.905328 
L 213.96 169.905328 
L 213.96 160.32494 
L 214.704 160.32494 
L 214.704 138.298046 
L 215.448 138.298046 
L 215.448 127.553524 
L 216.192 127.553524 
L 216.192 145.098058 
L 216.936 145.098058 
L 216.936 144.279032 
L 217.68 144.279032 
L 217.68 139.902995 
L 218.424 139.902995 
L 218.424 142.785846 
L 219.168 142.785846 
L 219.168 148.648381 
L 219.912 148.648381 
L 219.912 142.193965 
L 220.656 142.193965 
L 220.656 108.605248 
L 221.4 108.605248 
L 221.4 115.658001 
L 222.144 115.658001 
L 222.144 99.183777 
L 222.888 99.183777 
L 222.888 139.970139 
L 223.632 139.970139 
L 223.632 88.55774 
L 224.376 88.55774 
L 224.376 99.819577 
L 225.12 99.819577 
L 225.12 111.331074 
L 225.864 111.331074 
L 225.864 88.567143 
L 226.608 88.567143 
L 226.608 100.420673 
L 227.352 100.420673 
L 227.352 77.772774 
L 228.096 77.772774 
L 228.096 102.60968 
L 228.84 102.60968 
L 228.84 75.074905 
L 229.584 75.074905 
L 229.584 82.092905 
L 230.328 82.092905 
L 230.328 69.539984 
L 231.072 69.539984 
L 231.072 64.654603 
L 231.816 64.654603 
L 231.816 52.905641 
L 232.56 52.905641 
L 232.56 75.358501 
L 233.304 75.358501 
L 233.304 44.443636 
L 234.048 44.443636 
L 234.048 69.984631 
L 234.792 69.984631 
L 234.792 66.25534 
L 235.536 66.25534 
L 235.536 63.446737 
L 236.28 63.446737 
L 236.28 48.975202 
L 237.024 48.975202 
L 237.024 53.686386 
L 237.768 53.686386 
L 237.768 75.074592 
L 238.512 75.074592 
L 238.512 46.356873 
L 239.256 46.356873 
L 239.256 78.579285 
L 240 78.579285 
L 240 54.680311 
L 240.744 54.680311 
L 240.744 96.061228 
L 241.488 96.061228 
L 241.488 86.578086 
L 242.232 86.578086 
L 242.232 88.428864 
L 242.976 88.428864 
L 242.976 94.477382 
L 243.72 94.477382 
L 243.72 108.677919 
L 244.464 108.677919 
L 244.464 115.069279 
L 245.208 115.069279 
L 245.208 103.45709 
L 245.952 103.45709 
L 245.952 118.872731 
L 246.696 118.872731 
L 246.696 112.206154 
L 247.44 112.206154 
L 247.44 132.5724 
L 248.184 132.5724 
L 248.184 117.691939 
L 248.928 117.691939 
L 248.928 135.086218 
L 249.672 135.086218 
L 249.672 126.336997 
L 250.416 126.336997 
L 250.416 146.704885 
L 251.16 146.704885 
L 251.16 154.391834 
L 251.904 154.391834 
L 251.904 159.295094 
L 252.648 159.295094 
L 252.648 165.387162 
L 253.392 165.387162 
L 253.392 182.705504 
L 254.136 182.705504 
L 254.136 185.390171 
L 254.88 185.390171 
L 254.88 192.628172 
L 255.624 192.628172 
L 255.624 191.507546 
L 256.368 191.507546 
L 256.368 202.096493 
L 257.112 202.096493 
L 257.112 201.465199 
L 257.856 201.465199 
L 257.856 207.797496 
L 258.6 207.797496 
L 258.6 216.044283 
L 259.344 216.044283 
L 259.344 212.400564 
L 260.088 212.400564 
L 260.088 219.10312 
L 260.832 219.10312 
L 260.832 219.233959 
L 261.576 219.233959 
L 261.576 223.205577 
L 262.32 223.205577 
L 262.32 228.727759 
L 263.064 228.727759 
L 263.064 229.494245 
L 263.808 229.494245 
L 263.808 230.587067 
L 264.552 230.587067 
L 264.552 232.240893 
L 265.296 232.240893 
L 265.296 234.216833 
L 266.04 234.216833 
L 266.04 236.107574 
L 266.784 236.107574 
L 266.784 237.130984 
L 267.528 237.130984 
L 267.528 238.112669 
L 268.272 238.112669 
L 268.272 239.265035 
L 269.016 239.265035 
L 269.016 239.444394 
L 269.76 239.444394 
L 269.76 239.793861 
L 270.504 239.793861 
L 270.504 240.409537 
L 271.992 240.479822 
L 271.992 241.259331 
L 273.48 241.204039 
L 273.48 241.47145 
L 274.224 241.47145 
L 274.224 241.589545 
L 275.712 241.669876 
L 275.712 241.787279 
L 277.944 241.886628 
L 277.944 241.939069 
L 306.96 242.031525 
L 306.96 242.056926 
L 388.056 242.05459 
L 388.056 242.05459 
" style="fill:none;stroke:#55a868;stroke-linecap:round;stroke-width:1.75;"/>
   </g>
   <g id="patch_3">
    <path d="M 54 252 
L 54 34.56 
" style="fill:none;"/>
   </g>
   <g id="patch_4">
    <path d="M 388.8 252 
L 388.8 34.56 
" style="fill:none;"/>
   </g>
   <g id="patch_5">
    <path d="M 54 252 
L 388.8 252 
" style="fill:none;"/>
   </g>
   <g id="patch_6">
    <path d="M 54 34.56 
L 388.8 34.56 
" style="fill:none;"/>
   </g>
   <g id="text_18">
    <!-- Am241 -->
    <defs>
     <path d="M 56.984375 0 
L 49.125 20.125 
L 17.78125 20.125 
L 9.859375 0 
L 0.203125 0 
L 28.265625 68.796875 
L 38.875 68.796875 
L 66.5 0 
z
M 37.5 50.09375 
Q 36.71875 52.046875 36 54.046875 
Q 35.296875 56.0625 34.765625 57.6875 
Q 34.234375 59.328125 33.859375 60.421875 
Q 33.5 61.53125 33.453125 61.765625 
Q 33.34375 61.53125 33 60.40625 
Q 32.671875 59.28125 32.109375 57.609375 
Q 31.546875 55.953125 30.828125 53.953125 
Q 30.125 51.953125 29.390625 50 
L 20.609375 27.390625 
L 46.34375 27.390625 
z
" id="LiberationSans-41"/>
     <path d="M 37.5 0 
L 37.5 33.5 
Q 37.5 37.359375 37.015625 39.9375 
Q 36.53125 42.53125 35.375 44.109375 
Q 34.234375 45.703125 32.375 46.359375 
Q 30.515625 47.015625 27.828125 47.015625 
Q 25.046875 47.015625 22.796875 45.921875 
Q 20.5625 44.828125 18.96875 42.75 
Q 17.390625 40.671875 16.53125 37.625 
Q 15.671875 34.578125 15.671875 30.609375 
L 15.671875 0 
L 6.9375 0 
L 6.9375 41.546875 
Q 6.9375 43.21875 6.90625 45.046875 
Q 6.890625 46.875 6.828125 48.5 
Q 6.78125 50.140625 6.734375 51.3125 
Q 6.6875 52.484375 6.640625 52.828125 
L 14.9375 52.828125 
Q 14.984375 52.59375 15.03125 51.515625 
Q 15.09375 50.4375 15.15625 49.046875 
Q 15.234375 47.65625 15.28125 46.21875 
Q 15.328125 44.78125 15.328125 43.796875 
L 15.484375 43.796875 
Q 16.65625 46.09375 18.015625 47.953125 
Q 19.390625 49.8125 21.21875 51.09375 
Q 23.046875 52.390625 25.40625 53.09375 
Q 27.78125 53.8125 30.90625 53.8125 
Q 36.921875 53.8125 40.40625 51.421875 
Q 43.890625 49.03125 45.265625 43.796875 
L 45.40625 43.796875 
Q 46.578125 46.09375 48.046875 47.953125 
Q 49.515625 49.8125 51.46875 51.09375 
Q 53.421875 52.390625 55.859375 53.09375 
Q 58.296875 53.8125 61.421875 53.8125 
Q 65.4375 53.8125 68.328125 52.734375 
Q 71.234375 51.65625 73.09375 49.40625 
Q 74.953125 47.171875 75.828125 43.625 
Q 76.703125 40.09375 76.703125 35.203125 
L 76.703125 0 
L 68.015625 0 
L 68.015625 33.5 
Q 68.015625 37.359375 67.53125 39.9375 
Q 67.046875 42.53125 65.890625 44.109375 
Q 64.75 45.703125 62.890625 46.359375 
Q 61.03125 47.015625 58.34375 47.015625 
Q 55.5625 47.015625 53.3125 45.96875 
Q 51.078125 44.921875 49.484375 42.875 
Q 47.90625 40.828125 47.046875 37.75 
Q 46.1875 34.671875 46.1875 30.609375 
L 46.1875 0 
z
" id="LiberationSans-6d"/>
    </defs>
    <g style="fill:#262626;" transform="translate(202.390312 28.56)scale(0.12 -0.12)">
     <use xlink:href="#LiberationSans-41"/>
     <use x="66.699219" xlink:href="#LiberationSans-6d"/>
     <use x="150" xlink:href="#LiberationSans-32"/>
     <use x="205.615234" xlink:href="#LiberationSans-34"/>
     <use x="261.230469" xlink:href="#LiberationSans-31"/>
    </g>
   </g>
   <g id="legend_1">
    <g id="line2d_35">
     <path d="M 336.239062 47.306875 
L 356.239062 47.306875 
" style="fill:none;stroke:#4c72b0;stroke-linecap:round;stroke-width:1.75;"/>
    </g>
    <g id="line2d_36"/>
    <g id="text_19">
     <!-- vac -->
     <defs>
      <path d="M 29.9375 0 
L 19.53125 0 
L 0.34375 52.828125 
L 9.71875 52.828125 
L 21.34375 18.453125 
Q 21.6875 17.390625 22.140625 15.84375 
Q 22.609375 14.3125 23.09375 12.640625 
Q 23.578125 10.984375 24 9.4375 
Q 24.421875 7.90625 24.703125 6.890625 
Q 25 7.90625 25.453125 9.4375 
Q 25.921875 10.984375 26.40625 12.59375 
Q 26.90625 14.203125 27.421875 15.734375 
Q 27.9375 17.28125 28.328125 18.359375 
L 40.328125 52.828125 
L 49.65625 52.828125 
z
" id="LiberationSans-76"/>
      <path d="M 20.21875 -0.984375 
Q 12.25 -0.984375 8.25 3.21875 
Q 4.25 7.421875 4.25 14.75 
Q 4.25 19.96875 6.21875 23.3125 
Q 8.203125 26.65625 11.390625 28.5625 
Q 14.59375 30.46875 18.6875 31.203125 
Q 22.796875 31.9375 27.046875 32.03125 
L 38.921875 32.234375 
L 38.921875 35.109375 
Q 38.921875 38.375 38.234375 40.671875 
Q 37.546875 42.96875 36.125 44.375 
Q 34.71875 45.796875 32.59375 46.453125 
Q 30.46875 47.125 27.59375 47.125 
Q 25.046875 47.125 23 46.75 
Q 20.953125 46.390625 19.4375 45.4375 
Q 17.921875 44.484375 16.984375 42.84375 
Q 16.0625 41.21875 15.765625 38.71875 
L 6.59375 39.546875 
Q 7.078125 42.671875 8.4375 45.28125 
Q 9.8125 47.90625 12.328125 49.796875 
Q 14.84375 51.703125 18.625 52.75 
Q 22.40625 53.8125 27.78125 53.8125 
Q 37.75 53.8125 42.765625 49.234375 
Q 47.796875 44.671875 47.796875 36.03125 
L 47.796875 13.28125 
Q 47.796875 9.375 48.828125 7.390625 
Q 49.859375 5.421875 52.734375 5.421875 
Q 53.46875 5.421875 54.203125 5.515625 
Q 54.9375 5.609375 55.609375 5.765625 
L 55.609375 0.296875 
Q 53.953125 -0.09375 52.3125 -0.28125 
Q 50.6875 -0.484375 48.828125 -0.484375 
Q 46.34375 -0.484375 44.5625 0.171875 
Q 42.78125 0.828125 41.65625 2.171875 
Q 40.53125 3.515625 39.9375 5.484375 
Q 39.359375 7.46875 39.203125 10.109375 
L 38.921875 10.109375 
Q 37.5 7.5625 35.8125 5.515625 
Q 34.125 3.46875 31.875 2.03125 
Q 29.640625 0.59375 26.78125 -0.1875 
Q 23.921875 -0.984375 20.21875 -0.984375 
z
M 22.21875 5.609375 
Q 26.421875 5.609375 29.5625 7.140625 
Q 32.71875 8.6875 34.78125 11.078125 
Q 36.859375 13.484375 37.890625 16.3125 
Q 38.921875 19.140625 38.921875 21.734375 
L 38.921875 26.078125 
L 29.296875 25.875 
Q 26.078125 25.828125 23.171875 25.40625 
Q 20.265625 25 18.0625 23.78125 
Q 15.875 22.5625 14.578125 20.359375 
Q 13.28125 18.171875 13.28125 14.59375 
Q 13.28125 10.296875 15.59375 7.953125 
Q 17.921875 5.609375 22.21875 5.609375 
z
" id="LiberationSans-61"/>
      <path d="M 13.421875 26.65625 
Q 13.421875 22.125 14.078125 18.3125 
Q 14.75 14.5 16.3125 11.734375 
Q 17.875 8.984375 20.4375 7.46875 
Q 23 5.953125 26.765625 5.953125 
Q 31.453125 5.953125 34.59375 8.484375 
Q 37.75 11.03125 38.484375 16.3125 
L 47.359375 15.71875 
Q 46.921875 12.453125 45.453125 9.421875 
Q 44 6.390625 41.484375 4.09375 
Q 38.96875 1.8125 35.34375 0.40625 
Q 31.734375 -0.984375 27 -0.984375 
Q 20.796875 -0.984375 16.453125 1.109375 
Q 12.109375 3.21875 9.390625 6.90625 
Q 6.6875 10.59375 5.46875 15.59375 
Q 4.25 20.609375 4.25 26.46875 
Q 4.25 31.78125 5.125 35.859375 
Q 6 39.9375 7.59375 42.984375 
Q 9.1875 46.046875 11.328125 48.125 
Q 13.484375 50.203125 15.984375 51.4375 
Q 18.5 52.6875 21.28125 53.25 
Q 24.078125 53.8125 26.90625 53.8125 
Q 31.34375 53.8125 34.8125 52.59375 
Q 38.28125 51.375 40.796875 49.25 
Q 43.3125 47.125 44.875 44.234375 
Q 46.4375 41.359375 47.078125 38.03125 
L 38.03125 37.359375 
Q 37.359375 41.75 34.5625 44.328125 
Q 31.78125 46.921875 26.65625 46.921875 
Q 22.90625 46.921875 20.390625 45.671875 
Q 17.875 44.4375 16.3125 41.921875 
Q 14.75 39.40625 14.078125 35.59375 
Q 13.421875 31.78125 13.421875 26.65625 
z
" id="LiberationSans-63"/>
     </defs>
     <g style="fill:#262626;" transform="translate(364.239062 50.806875)scale(0.1 -0.1)">
      <use xlink:href="#LiberationSans-76"/>
      <use x="50" xlink:href="#LiberationSans-61"/>
      <use x="105.615234" xlink:href="#LiberationSans-63"/>
     </g>
    </g>
    <g id="line2d_37">
     <path d="M 336.239062 61.62875 
L 356.239062 61.62875 
" style="fill:none;stroke:#55a868;stroke-linecap:round;stroke-width:1.75;"/>
    </g>
    <g id="line2d_38"/>
    <g id="text_20">
     <!-- al -->
     <defs>
      <path d="M 6.734375 0 
L 6.734375 72.46875 
L 15.53125 72.46875 
L 15.53125 0 
z
" id="LiberationSans-6c"/>
     </defs>
     <g style="fill:#262626;" transform="translate(364.239062 65.12875)scale(0.1 -0.1)">
      <use xlink:href="#LiberationSans-61"/>
      <use x="55.615234" xlink:href="#LiberationSans-6c"/>
     </g>
    </g>
   </g>
  </g>
 </g>
 <defs>
  <clipPath id="p5e2d79b78e">
   <rect height="217.44" width="334.8" x="54" y="34.56"/>
  </clipPath>
 </defs>
</svg>
