<?xml version="1.0" encoding="utf-8" standalone="no"?>
<!DOCTYPE svg PUBLIC "-//W3C//DTD SVG 1.1//EN"
  "http://www.w3.org/Graphics/SVG/1.1/DTD/svg11.dtd">
<!-- Created with matplotlib (http://matplotlib.org/) -->
<svg height="288pt" version="1.1" viewBox="0 0 432 288" width="432pt" xmlns="http://www.w3.org/2000/svg" xmlns:xlink="http://www.w3.org/1999/xlink">
 <defs>
  <style type="text/css">
*{stroke-linecap:butt;stroke-linejoin:round;}
  </style>
 </defs>
 <g id="figure_1">
  <g id="patch_1">
   <path d="M 0 288 
L 432 288 
L 432 0 
L 0 0 
z
" style="fill:#ffffff;"/>
  </g>
  <g id="axes_1">
   <g id="patch_2">
    <path d="M 54 252 
L 388.8 252 
L 388.8 34.56 
L 54 34.56 
z
" style="fill:#eaeaf2;"/>
   </g>
   <g id="matplotlib.axis_1">
    <g id="xtick_1">
     <g id="line2d_1">
      <path clip-path="url(#pc7dafef2a7)" d="M 54 252 
L 54 34.56 
" style="fill:none;stroke:#ffffff;stroke-linecap:round;"/>
     </g>
     <g id="line2d_2"/>
     <g id="text_1">
      <!-- 10 -->
      <defs>
       <path d="M 7.625 0 
L 7.625 7.46875 
L 25.140625 7.46875 
L 25.140625 60.40625 
L 9.625 49.3125 
L 9.625 57.625 
L 25.875 68.796875 
L 33.984375 68.796875 
L 33.984375 7.46875 
L 50.734375 7.46875 
L 50.734375 0 
z
" id="LiberationSans-31"/>
       <path d="M 51.703125 34.421875 
Q 51.703125 24.515625 49.828125 17.75 
Q 47.953125 10.984375 44.703125 6.8125 
Q 41.453125 2.640625 37.0625 0.828125 
Q 32.671875 -0.984375 27.6875 -0.984375 
Q 22.65625 -0.984375 18.3125 0.828125 
Q 13.96875 2.640625 10.765625 6.78125 
Q 7.5625 10.9375 5.734375 17.703125 
Q 3.90625 24.46875 3.90625 34.421875 
Q 3.90625 44.828125 5.734375 51.640625 
Q 7.5625 58.453125 10.78125 62.5 
Q 14.015625 66.546875 18.40625 68.1875 
Q 22.796875 69.828125 27.984375 69.828125 
Q 32.90625 69.828125 37.21875 68.1875 
Q 41.546875 66.546875 44.765625 62.5 
Q 48 58.453125 49.84375 51.640625 
Q 51.703125 44.828125 51.703125 34.421875 
z
M 42.78125 34.421875 
Q 42.78125 42.625 41.796875 48.0625 
Q 40.828125 53.515625 38.921875 56.765625 
Q 37.015625 60.015625 34.25 61.359375 
Q 31.5 62.703125 27.984375 62.703125 
Q 24.265625 62.703125 21.4375 61.328125 
Q 18.609375 59.96875 16.671875 56.71875 
Q 14.75 53.46875 13.765625 48.015625 
Q 12.796875 42.578125 12.796875 34.421875 
Q 12.796875 26.515625 13.796875 21.09375 
Q 14.796875 15.671875 16.71875 12.375 
Q 18.65625 9.078125 21.4375 7.640625 
Q 24.21875 6.203125 27.78125 6.203125 
Q 31.25 6.203125 34.03125 7.640625 
Q 36.8125 9.078125 38.734375 12.375 
Q 40.671875 15.671875 41.71875 21.09375 
Q 42.78125 26.515625 42.78125 34.421875 
z
" id="LiberationSans-30"/>
      </defs>
      <g style="fill:#262626;" transform="translate(48.439062 266.246875)scale(0.1 -0.1)">
       <use xlink:href="#LiberationSans-31"/>
       <use x="55.615234" xlink:href="#LiberationSans-30"/>
      </g>
     </g>
    </g>
    <g id="xtick_2">
     <g id="line2d_3">
      <path clip-path="url(#pc7dafef2a7)" d="M 91.2 252 
L 91.2 34.56 
" style="fill:none;stroke:#ffffff;stroke-linecap:round;"/>
     </g>
     <g id="line2d_4"/>
     <g id="text_2">
      <!-- 20 -->
      <defs>
       <path d="M 5.03125 0 
L 5.03125 6.203125 
Q 7.515625 11.921875 11.109375 16.28125 
Q 14.703125 20.65625 18.65625 24.1875 
Q 22.609375 27.734375 26.484375 30.765625 
Q 30.375 33.796875 33.5 36.8125 
Q 36.625 39.84375 38.546875 43.15625 
Q 40.484375 46.484375 40.484375 50.6875 
Q 40.484375 53.609375 39.59375 55.828125 
Q 38.71875 58.0625 37.0625 59.5625 
Q 35.40625 61.078125 33.078125 61.828125 
Q 30.765625 62.59375 27.9375 62.59375 
Q 25.296875 62.59375 22.96875 61.859375 
Q 20.65625 61.140625 18.84375 59.671875 
Q 17.046875 58.203125 15.890625 56.03125 
Q 14.75 53.859375 14.40625 50.984375 
L 5.421875 51.8125 
Q 5.859375 55.515625 7.46875 58.78125 
Q 9.078125 62.0625 11.90625 64.53125 
Q 14.75 67 18.71875 68.40625 
Q 22.703125 69.828125 27.9375 69.828125 
Q 33.0625 69.828125 37.0625 68.609375 
Q 41.0625 67.390625 43.8125 64.984375 
Q 46.578125 62.59375 48.046875 59.078125 
Q 49.515625 55.5625 49.515625 50.984375 
Q 49.515625 47.515625 48.265625 44.390625 
Q 47.015625 41.265625 44.9375 38.421875 
Q 42.875 35.59375 40.140625 32.953125 
Q 37.40625 30.328125 34.421875 27.8125 
Q 31.453125 25.296875 28.421875 22.828125 
Q 25.390625 20.359375 22.71875 17.859375 
Q 20.0625 15.375 17.96875 12.8125 
Q 15.875 10.25 14.703125 7.46875 
L 50.59375 7.46875 
L 50.59375 0 
z
" id="LiberationSans-32"/>
      </defs>
      <g style="fill:#262626;" transform="translate(85.639063 266.246875)scale(0.1 -0.1)">
       <use xlink:href="#LiberationSans-32"/>
       <use x="55.615234" xlink:href="#LiberationSans-30"/>
      </g>
     </g>
    </g>
    <g id="xtick_3">
     <g id="line2d_5">
      <path clip-path="url(#pc7dafef2a7)" d="M 128.4 252 
L 128.4 34.56 
" style="fill:none;stroke:#ffffff;stroke-linecap:round;"/>
     </g>
     <g id="line2d_6"/>
     <g id="text_3">
      <!-- 30 -->
      <defs>
       <path d="M 51.21875 19 
Q 51.21875 14.265625 49.671875 10.546875 
Q 48.140625 6.84375 45.1875 4.265625 
Q 42.234375 1.703125 37.859375 0.359375 
Q 33.5 -0.984375 27.875 -0.984375 
Q 21.484375 -0.984375 17.109375 0.609375 
Q 12.75 2.203125 9.90625 4.8125 
Q 7.078125 7.421875 5.65625 10.765625 
Q 4.25 14.109375 3.8125 17.671875 
L 12.890625 18.5 
Q 13.28125 15.765625 14.328125 13.515625 
Q 15.375 11.28125 17.1875 9.671875 
Q 19 8.0625 21.625 7.171875 
Q 24.265625 6.296875 27.875 6.296875 
Q 34.515625 6.296875 38.296875 9.5625 
Q 42.09375 12.84375 42.09375 19.28125 
Q 42.09375 23.09375 40.40625 25.40625 
Q 38.71875 27.734375 36.203125 29.03125 
Q 33.6875 30.328125 30.734375 30.765625 
Q 27.78125 31.203125 25.296875 31.203125 
L 20.3125 31.203125 
L 20.3125 38.8125 
L 25.09375 38.8125 
Q 27.59375 38.8125 30.265625 39.328125 
Q 32.953125 39.84375 35.171875 41.1875 
Q 37.40625 42.53125 38.84375 44.828125 
Q 40.28125 47.125 40.28125 50.6875 
Q 40.28125 56.203125 37.03125 59.390625 
Q 33.796875 62.59375 27.390625 62.59375 
Q 21.578125 62.59375 17.984375 59.609375 
Q 14.40625 56.640625 13.8125 51.21875 
L 4.984375 51.90625 
Q 5.515625 56.453125 7.46875 59.8125 
Q 9.421875 63.1875 12.421875 65.40625 
Q 15.4375 67.625 19.28125 68.71875 
Q 23.140625 69.828125 27.484375 69.828125 
Q 33.25 69.828125 37.390625 68.375 
Q 41.546875 66.9375 44.1875 64.46875 
Q 46.828125 62.015625 48.0625 58.6875 
Q 49.3125 55.375 49.3125 51.609375 
Q 49.3125 48.578125 48.484375 45.9375 
Q 47.65625 43.3125 45.890625 41.203125 
Q 44.140625 39.109375 41.421875 37.59375 
Q 38.71875 36.078125 34.90625 35.296875 
L 34.90625 35.109375 
Q 39.0625 34.671875 42.140625 33.21875 
Q 45.21875 31.78125 47.21875 29.625 
Q 49.21875 27.484375 50.21875 24.75 
Q 51.21875 22.015625 51.21875 19 
z
" id="LiberationSans-33"/>
      </defs>
      <g style="fill:#262626;" transform="translate(122.839063 266.246875)scale(0.1 -0.1)">
       <use xlink:href="#LiberationSans-33"/>
       <use x="55.615234" xlink:href="#LiberationSans-30"/>
      </g>
     </g>
    </g>
    <g id="xtick_4">
     <g id="line2d_7">
      <path clip-path="url(#pc7dafef2a7)" d="M 165.6 252 
L 165.6 34.56 
" style="fill:none;stroke:#ffffff;stroke-linecap:round;"/>
     </g>
     <g id="line2d_8"/>
     <g id="text_4">
      <!-- 40 -->
      <defs>
       <path d="M 43.015625 15.578125 
L 43.015625 0 
L 34.71875 0 
L 34.71875 15.578125 
L 2.296875 15.578125 
L 2.296875 22.40625 
L 33.796875 68.796875 
L 43.015625 68.796875 
L 43.015625 22.515625 
L 52.6875 22.515625 
L 52.6875 15.578125 
z
M 34.71875 58.890625 
Q 34.625 58.640625 34.234375 57.9375 
Q 33.84375 57.234375 33.34375 56.34375 
Q 32.859375 55.46875 32.34375 54.5625 
Q 31.84375 53.65625 31.453125 53.078125 
L 13.8125 27.09375 
Q 13.578125 26.703125 13.109375 26.0625 
Q 12.640625 25.4375 12.15625 24.78125 
Q 11.671875 24.125 11.171875 23.484375 
Q 10.6875 22.859375 10.40625 22.515625 
L 34.71875 22.515625 
z
" id="LiberationSans-34"/>
      </defs>
      <g style="fill:#262626;" transform="translate(160.039063 266.246875)scale(0.1 -0.1)">
       <use xlink:href="#LiberationSans-34"/>
       <use x="55.615234" xlink:href="#LiberationSans-30"/>
      </g>
     </g>
    </g>
    <g id="xtick_5">
     <g id="line2d_9">
      <path clip-path="url(#pc7dafef2a7)" d="M 202.8 252 
L 202.8 34.56 
" style="fill:none;stroke:#ffffff;stroke-linecap:round;"/>
     </g>
     <g id="line2d_10"/>
     <g id="text_5">
      <!-- 50 -->
      <defs>
       <path d="M 51.421875 22.40625 
Q 51.421875 17.234375 49.859375 12.9375 
Q 48.296875 8.640625 45.21875 5.53125 
Q 42.140625 2.4375 37.578125 0.71875 
Q 33.015625 -0.984375 27 -0.984375 
Q 21.578125 -0.984375 17.546875 0.28125 
Q 13.53125 1.5625 10.734375 3.78125 
Q 7.953125 6 6.3125 8.984375 
Q 4.6875 11.96875 4 15.375 
L 12.890625 16.40625 
Q 13.421875 14.453125 14.390625 12.625 
Q 15.375 10.796875 17.0625 9.34375 
Q 18.75 7.90625 21.21875 7.046875 
Q 23.6875 6.203125 27.203125 6.203125 
Q 30.609375 6.203125 33.390625 7.25 
Q 36.1875 8.296875 38.15625 10.34375 
Q 40.140625 12.40625 41.203125 15.375 
Q 42.28125 18.359375 42.28125 22.21875 
Q 42.28125 25.390625 41.25 28.046875 
Q 40.234375 30.71875 38.328125 32.640625 
Q 36.421875 34.578125 33.65625 35.640625 
Q 30.90625 36.71875 27.390625 36.71875 
Q 25.203125 36.71875 23.34375 36.328125 
Q 21.484375 35.9375 19.890625 35.25 
Q 18.3125 34.578125 17.015625 33.671875 
Q 15.71875 32.765625 14.59375 31.78125 
L 6 31.78125 
L 8.296875 68.796875 
L 47.40625 68.796875 
L 47.40625 61.328125 
L 16.3125 61.328125 
L 14.984375 39.5 
Q 17.328125 41.3125 20.84375 42.59375 
Q 24.359375 43.890625 29.203125 43.890625 
Q 34.328125 43.890625 38.421875 42.328125 
Q 42.53125 40.765625 45.40625 37.90625 
Q 48.296875 35.0625 49.859375 31.109375 
Q 51.421875 27.15625 51.421875 22.40625 
z
" id="LiberationSans-35"/>
      </defs>
      <g style="fill:#262626;" transform="translate(197.239063 266.246875)scale(0.1 -0.1)">
       <use xlink:href="#LiberationSans-35"/>
       <use x="55.615234" xlink:href="#LiberationSans-30"/>
      </g>
     </g>
    </g>
    <g id="xtick_6">
     <g id="line2d_11">
      <path clip-path="url(#pc7dafef2a7)" d="M 240 252 
L 240 34.56 
" style="fill:none;stroke:#ffffff;stroke-linecap:round;"/>
     </g>
     <g id="line2d_12"/>
     <g id="text_6">
      <!-- 60 -->
      <defs>
       <path d="M 51.21875 22.515625 
Q 51.21875 17.328125 49.78125 13 
Q 48.34375 8.6875 45.53125 5.578125 
Q 42.71875 2.484375 38.5625 0.75 
Q 34.421875 -0.984375 29 -0.984375 
Q 23 -0.984375 18.5 1.3125 
Q 14.015625 3.609375 11.03125 7.921875 
Q 8.0625 12.25 6.5625 18.53125 
Q 5.078125 24.8125 5.078125 32.8125 
Q 5.078125 42 6.765625 48.921875 
Q 8.453125 55.859375 11.625 60.5 
Q 14.796875 65.140625 19.359375 67.484375 
Q 23.921875 69.828125 29.6875 69.828125 
Q 33.203125 69.828125 36.28125 69.09375 
Q 39.359375 68.359375 41.875 66.71875 
Q 44.390625 65.09375 46.28125 62.40625 
Q 48.1875 59.71875 49.3125 55.8125 
L 40.921875 54.296875 
Q 39.546875 58.734375 36.546875 60.71875 
Q 33.546875 62.703125 29.59375 62.703125 
Q 25.984375 62.703125 23.046875 60.984375 
Q 20.125 59.28125 18.0625 55.875 
Q 16.015625 52.484375 14.90625 47.359375 
Q 13.8125 42.234375 13.8125 35.40625 
Q 16.21875 39.84375 20.5625 42.15625 
Q 24.90625 44.484375 30.515625 44.484375 
Q 35.203125 44.484375 39.015625 42.96875 
Q 42.828125 41.453125 45.53125 38.59375 
Q 48.25 35.75 49.734375 31.671875 
Q 51.21875 27.59375 51.21875 22.515625 
z
M 42.28125 22.125 
Q 42.28125 25.6875 41.40625 28.5625 
Q 40.53125 31.453125 38.765625 33.46875 
Q 37.015625 35.5 34.421875 36.59375 
Q 31.84375 37.703125 28.421875 37.703125 
Q 26.03125 37.703125 23.578125 36.984375 
Q 21.140625 36.28125 19.15625 34.6875 
Q 17.1875 33.109375 15.9375 30.515625 
Q 14.703125 27.9375 14.703125 24.21875 
Q 14.703125 20.40625 15.671875 17.109375 
Q 16.65625 13.8125 18.484375 11.375 
Q 20.3125 8.9375 22.890625 7.515625 
Q 25.484375 6.109375 28.71875 6.109375 
Q 31.890625 6.109375 34.40625 7.203125 
Q 36.921875 8.296875 38.671875 10.375 
Q 40.4375 12.453125 41.359375 15.421875 
Q 42.28125 18.40625 42.28125 22.125 
z
" id="LiberationSans-36"/>
      </defs>
      <g style="fill:#262626;" transform="translate(234.439063 266.246875)scale(0.1 -0.1)">
       <use xlink:href="#LiberationSans-36"/>
       <use x="55.615234" xlink:href="#LiberationSans-30"/>
      </g>
     </g>
    </g>
    <g id="xtick_7">
     <g id="line2d_13">
      <path clip-path="url(#pc7dafef2a7)" d="M 277.2 252 
L 277.2 34.56 
" style="fill:none;stroke:#ffffff;stroke-linecap:round;"/>
     </g>
     <g id="line2d_14"/>
     <g id="text_7">
      <!-- 70 -->
      <defs>
       <path d="M 50.59375 61.671875 
Q 45.40625 53.765625 41.0625 46.453125 
Q 36.71875 39.15625 33.59375 31.75 
Q 30.46875 24.359375 28.734375 16.578125 
Q 27 8.796875 27 0 
L 17.828125 0 
Q 17.828125 8.25 19.78125 16.1875 
Q 21.734375 24.125 25.046875 31.765625 
Q 28.375 39.40625 32.765625 46.78125 
Q 37.15625 54.15625 42.09375 61.328125 
L 5.125 61.328125 
L 5.125 68.796875 
L 50.59375 68.796875 
z
" id="LiberationSans-37"/>
      </defs>
      <g style="fill:#262626;" transform="translate(271.639063 266.246875)scale(0.1 -0.1)">
       <use xlink:href="#LiberationSans-37"/>
       <use x="55.615234" xlink:href="#LiberationSans-30"/>
      </g>
     </g>
    </g>
    <g id="xtick_8">
     <g id="line2d_15">
      <path clip-path="url(#pc7dafef2a7)" d="M 314.4 252 
L 314.4 34.56 
" style="fill:none;stroke:#ffffff;stroke-linecap:round;"/>
     </g>
     <g id="line2d_16"/>
     <g id="text_8">
      <!-- 80 -->
      <defs>
       <path d="M 51.265625 19.1875 
Q 51.265625 14.796875 49.875 11.109375 
Q 48.484375 7.421875 45.625 4.734375 
Q 42.78125 2.046875 38.328125 0.53125 
Q 33.890625 -0.984375 27.828125 -0.984375 
Q 21.78125 -0.984375 17.359375 0.53125 
Q 12.9375 2.046875 10.03125 4.703125 
Q 7.125 7.375 5.734375 11.0625 
Q 4.34375 14.75 4.34375 19.09375 
Q 4.34375 22.859375 5.484375 25.78125 
Q 6.640625 28.71875 8.5625 30.828125 
Q 10.5 32.953125 12.96875 34.25 
Q 15.4375 35.546875 18.0625 35.984375 
L 18.0625 36.1875 
Q 15.1875 36.859375 12.90625 38.375 
Q 10.640625 39.890625 9.09375 42.015625 
Q 7.5625 44.140625 6.75 46.71875 
Q 5.953125 49.3125 5.953125 52.203125 
Q 5.953125 55.8125 7.34375 59 
Q 8.734375 62.203125 11.46875 64.625 
Q 14.203125 67.046875 18.25 68.4375 
Q 22.3125 69.828125 27.640625 69.828125 
Q 33.25 69.828125 37.375 68.40625 
Q 41.5 67 44.203125 64.578125 
Q 46.921875 62.15625 48.234375 58.9375 
Q 49.5625 55.71875 49.5625 52.09375 
Q 49.5625 49.265625 48.75 46.671875 
Q 47.953125 44.09375 46.40625 41.96875 
Q 44.875 39.84375 42.59375 38.34375 
Q 40.328125 36.859375 37.359375 36.28125 
L 37.359375 36.078125 
Q 40.328125 35.59375 42.859375 34.296875 
Q 45.40625 33.015625 47.265625 30.890625 
Q 49.125 28.765625 50.1875 25.828125 
Q 51.265625 22.90625 51.265625 19.1875 
z
M 40.4375 51.609375 
Q 40.4375 54.203125 39.765625 56.34375 
Q 39.109375 58.5 37.59375 60.03125 
Q 36.078125 61.578125 33.640625 62.421875 
Q 31.203125 63.28125 27.640625 63.28125 
Q 24.171875 63.28125 21.78125 62.421875 
Q 19.390625 61.578125 17.84375 60.03125 
Q 16.3125 58.5 15.625 56.34375 
Q 14.9375 54.203125 14.9375 51.609375 
Q 14.9375 49.5625 15.46875 47.40625 
Q 16.015625 45.265625 17.421875 43.5 
Q 18.84375 41.75 21.328125 40.625 
Q 23.828125 39.5 27.734375 39.5 
Q 31.890625 39.5 34.40625 40.625 
Q 36.921875 41.75 38.25 43.5 
Q 39.59375 45.265625 40.015625 47.40625 
Q 40.4375 49.5625 40.4375 51.609375 
z
M 42.140625 20.015625 
Q 42.140625 22.515625 41.453125 24.828125 
Q 40.765625 27.15625 39.109375 28.9375 
Q 37.453125 30.71875 34.640625 31.8125 
Q 31.84375 32.90625 27.640625 32.90625 
Q 23.78125 32.90625 21.0625 31.8125 
Q 18.359375 30.71875 16.671875 28.90625 
Q 14.984375 27.09375 14.203125 24.71875 
Q 13.421875 22.359375 13.421875 19.828125 
Q 13.421875 16.65625 14.203125 14.03125 
Q 14.984375 11.421875 16.6875 9.546875 
Q 18.40625 7.671875 21.1875 6.640625 
Q 23.96875 5.609375 27.9375 5.609375 
Q 31.9375 5.609375 34.671875 6.640625 
Q 37.40625 7.671875 39.0625 9.546875 
Q 40.71875 11.421875 41.421875 14.078125 
Q 42.140625 16.75 42.140625 20.015625 
z
" id="LiberationSans-38"/>
      </defs>
      <g style="fill:#262626;" transform="translate(308.839063 266.246875)scale(0.1 -0.1)">
       <use xlink:href="#LiberationSans-38"/>
       <use x="55.615234" xlink:href="#LiberationSans-30"/>
      </g>
     </g>
    </g>
    <g id="xtick_9">
     <g id="line2d_17">
      <path clip-path="url(#pc7dafef2a7)" d="M 351.6 252 
L 351.6 34.56 
" style="fill:none;stroke:#ffffff;stroke-linecap:round;"/>
     </g>
     <g id="line2d_18"/>
     <g id="text_9">
      <!-- 90 -->
      <defs>
       <path d="M 50.875 35.796875 
Q 50.875 26.609375 49.140625 19.703125 
Q 47.40625 12.796875 44.1875 8.203125 
Q 40.96875 3.609375 36.34375 1.3125 
Q 31.734375 -0.984375 25.984375 -0.984375 
Q 22.015625 -0.984375 18.84375 -0.171875 
Q 15.671875 0.640625 13.171875 2.34375 
Q 10.6875 4.046875 8.921875 6.78125 
Q 7.171875 9.515625 6.109375 13.375 
L 14.5 14.703125 
Q 15.875 10.25 18.78125 8.171875 
Q 21.6875 6.109375 26.125 6.109375 
Q 29.6875 6.109375 32.640625 7.78125 
Q 35.59375 9.46875 37.671875 12.84375 
Q 39.75 16.21875 40.921875 21.296875 
Q 42.09375 26.375 42.1875 33.203125 
Q 41.15625 30.90625 39.375 29.09375 
Q 37.59375 27.296875 35.328125 26.046875 
Q 33.0625 24.8125 30.421875 24.140625 
Q 27.78125 23.484375 25.09375 23.484375 
Q 20.40625 23.484375 16.625 25.171875 
Q 12.84375 26.859375 10.203125 29.875 
Q 7.5625 32.90625 6.125 37.171875 
Q 4.6875 41.453125 4.6875 46.6875 
Q 4.6875 52 6.21875 56.296875 
Q 7.765625 60.59375 10.6875 63.59375 
Q 13.625 66.609375 17.890625 68.21875 
Q 22.171875 69.828125 27.59375 69.828125 
Q 39.0625 69.828125 44.96875 61.328125 
Q 50.875 52.828125 50.875 35.796875 
z
M 41.3125 44.28125 
Q 41.3125 48.09375 40.40625 51.453125 
Q 39.5 54.828125 37.71875 57.3125 
Q 35.9375 59.8125 33.328125 61.25 
Q 30.71875 62.703125 27.296875 62.703125 
Q 24.125 62.703125 21.578125 61.578125 
Q 19.046875 60.453125 17.28125 58.375 
Q 15.53125 56.296875 14.578125 53.3125 
Q 13.625 50.34375 13.625 46.6875 
Q 13.625 43.21875 14.46875 40.234375 
Q 15.328125 37.25 17.03125 35.078125 
Q 18.75 32.90625 21.28125 31.65625 
Q 23.828125 30.421875 27.203125 30.421875 
Q 29.640625 30.421875 32.15625 31.25 
Q 34.671875 32.078125 36.6875 33.78125 
Q 38.71875 35.5 40.015625 38.109375 
Q 41.3125 40.71875 41.3125 44.28125 
z
" id="LiberationSans-39"/>
      </defs>
      <g style="fill:#262626;" transform="translate(346.039062 266.246875)scale(0.1 -0.1)">
       <use xlink:href="#LiberationSans-39"/>
       <use x="55.615234" xlink:href="#LiberationSans-30"/>
      </g>
     </g>
    </g>
    <g id="xtick_10">
     <g id="line2d_19">
      <path clip-path="url(#pc7dafef2a7)" d="M 388.8 252 
L 388.8 34.56 
" style="fill:none;stroke:#ffffff;stroke-linecap:round;"/>
     </g>
     <g id="line2d_20"/>
     <g id="text_10">
      <!-- 100 -->
      <g style="fill:#262626;" transform="translate(380.458594 266.246875)scale(0.1 -0.1)">
       <use xlink:href="#LiberationSans-31"/>
       <use x="55.615234" xlink:href="#LiberationSans-30"/>
       <use x="111.230469" xlink:href="#LiberationSans-30"/>
      </g>
     </g>
    </g>
    <g id="text_11">
     <!-- Energy (keV) -->
     <defs>
      <path d="M 8.203125 0 
L 8.203125 68.796875 
L 60.40625 68.796875 
L 60.40625 61.1875 
L 17.53125 61.1875 
L 17.53125 39.109375 
L 57.46875 39.109375 
L 57.46875 31.59375 
L 17.53125 31.59375 
L 17.53125 7.625 
L 62.40625 7.625 
L 62.40625 0 
z
" id="LiberationSans-45"/>
      <path d="M 40.28125 0 
L 40.28125 33.5 
Q 40.28125 37.359375 39.71875 39.9375 
Q 39.15625 42.53125 37.890625 44.109375 
Q 36.625 45.703125 34.546875 46.359375 
Q 32.46875 47.015625 29.390625 47.015625 
Q 26.265625 47.015625 23.75 45.921875 
Q 21.234375 44.828125 19.453125 42.75 
Q 17.671875 40.671875 16.6875 37.625 
Q 15.71875 34.578125 15.71875 30.609375 
L 15.71875 0 
L 6.9375 0 
L 6.9375 41.546875 
Q 6.9375 43.21875 6.90625 45.046875 
Q 6.890625 46.875 6.828125 48.5 
Q 6.78125 50.140625 6.734375 51.3125 
Q 6.6875 52.484375 6.640625 52.828125 
L 14.9375 52.828125 
Q 14.984375 52.59375 15.03125 51.515625 
Q 15.09375 50.4375 15.15625 49.046875 
Q 15.234375 47.65625 15.28125 46.21875 
Q 15.328125 44.78125 15.328125 43.796875 
L 15.484375 43.796875 
Q 16.75 46.09375 18.265625 47.953125 
Q 19.78125 49.8125 21.78125 51.09375 
Q 23.78125 52.390625 26.359375 53.09375 
Q 28.953125 53.8125 32.375 53.8125 
Q 36.765625 53.8125 39.9375 52.734375 
Q 43.109375 51.65625 45.15625 49.40625 
Q 47.21875 47.171875 48.171875 43.625 
Q 49.125 40.09375 49.125 35.203125 
L 49.125 0 
z
" id="LiberationSans-6e"/>
      <path d="M 13.484375 24.5625 
Q 13.484375 20.40625 14.328125 16.90625 
Q 15.1875 13.421875 16.96875 10.90625 
Q 18.75 8.40625 21.53125 7 
Q 24.3125 5.609375 28.21875 5.609375 
Q 33.9375 5.609375 37.375 7.90625 
Q 40.828125 10.203125 42.046875 13.71875 
L 49.75 11.53125 
Q 48.921875 9.328125 47.4375 7.109375 
Q 45.953125 4.890625 43.453125 3.09375 
Q 40.96875 1.3125 37.234375 0.15625 
Q 33.5 -0.984375 28.21875 -0.984375 
Q 16.5 -0.984375 10.375 6 
Q 4.25 12.984375 4.25 26.765625 
Q 4.25 34.1875 6.09375 39.328125 
Q 7.953125 44.484375 11.171875 47.703125 
Q 14.40625 50.921875 18.703125 52.359375 
Q 23 53.8125 27.875 53.8125 
Q 34.515625 53.8125 38.984375 51.65625 
Q 43.453125 49.515625 46.15625 45.71875 
Q 48.875 41.9375 50.015625 36.8125 
Q 51.171875 31.6875 51.171875 25.734375 
L 51.171875 24.5625 
z
M 42.09375 31.296875 
Q 41.359375 39.65625 37.84375 43.484375 
Q 34.328125 47.3125 27.734375 47.3125 
Q 25.53125 47.3125 23.109375 46.609375 
Q 20.703125 45.90625 18.65625 44.09375 
Q 16.609375 42.28125 15.1875 39.171875 
Q 13.765625 36.078125 13.578125 31.296875 
z
" id="LiberationSans-65"/>
      <path d="M 6.9375 0 
L 6.9375 40.53125 
Q 6.9375 42.1875 6.90625 43.921875 
Q 6.890625 45.65625 6.828125 47.265625 
Q 6.78125 48.875 6.734375 50.28125 
Q 6.6875 51.703125 6.640625 52.828125 
L 14.9375 52.828125 
Q 14.984375 51.703125 15.0625 50.265625 
Q 15.140625 48.828125 15.203125 47.3125 
Q 15.28125 45.796875 15.296875 44.40625 
Q 15.328125 43.015625 15.328125 42.046875 
L 15.53125 42.046875 
Q 16.453125 45.0625 17.5 47.28125 
Q 18.5625 49.515625 19.96875 50.953125 
Q 21.390625 52.390625 23.34375 53.09375 
Q 25.296875 53.8125 28.078125 53.8125 
Q 29.15625 53.8125 30.125 53.640625 
Q 31.109375 53.46875 31.640625 53.328125 
L 31.640625 45.265625 
Q 30.765625 45.515625 29.59375 45.625 
Q 28.421875 45.75 26.953125 45.75 
Q 23.921875 45.75 21.796875 44.375 
Q 19.671875 43.015625 18.328125 40.59375 
Q 17 38.1875 16.359375 34.84375 
Q 15.71875 31.5 15.71875 27.546875 
L 15.71875 0 
z
" id="LiberationSans-72"/>
      <path d="M 26.765625 -20.75 
Q 22.21875 -20.75 18.703125 -19.8125 
Q 15.1875 -18.890625 12.6875 -17.15625 
Q 10.203125 -15.4375 8.640625 -13.03125 
Q 7.078125 -10.640625 6.390625 -7.71875 
L 15.234375 -6.453125 
Q 16.109375 -10.109375 19.109375 -12.078125 
Q 22.125 -14.0625 27 -14.0625 
Q 29.984375 -14.0625 32.421875 -13.234375 
Q 34.859375 -12.40625 36.5625 -10.5625 
Q 38.28125 -8.734375 39.203125 -5.796875 
Q 40.140625 -2.875 40.140625 1.3125 
L 40.140625 9.8125 
L 40.046875 9.8125 
Q 39.0625 7.8125 37.625 5.984375 
Q 36.1875 4.15625 34.109375 2.734375 
Q 32.03125 1.3125 29.296875 0.453125 
Q 26.5625 -0.390625 23.046875 -0.390625 
Q 18.015625 -0.390625 14.421875 1.296875 
Q 10.84375 2.984375 8.5625 6.34375 
Q 6.296875 9.71875 5.25 14.71875 
Q 4.203125 19.734375 4.203125 26.3125 
Q 4.203125 32.671875 5.25 37.75 
Q 6.296875 42.828125 8.65625 46.359375 
Q 11.03125 49.90625 14.8125 51.78125 
Q 18.609375 53.65625 24.03125 53.65625 
Q 29.640625 53.65625 33.765625 51.09375 
Q 37.890625 48.53125 40.140625 43.796875 
L 40.234375 43.796875 
Q 40.234375 45.015625 40.296875 46.53125 
Q 40.375 48.046875 40.453125 49.390625 
Q 40.53125 50.734375 40.625 51.703125 
Q 40.71875 52.6875 40.828125 52.828125 
L 49.171875 52.828125 
Q 49.125 52.390625 49.078125 51.34375 
Q 49.03125 50.296875 48.96875 48.828125 
Q 48.921875 47.359375 48.890625 45.578125 
Q 48.875 43.796875 48.875 41.890625 
L 48.875 1.515625 
Q 48.875 -9.578125 43.421875 -15.15625 
Q 37.984375 -20.75 26.765625 -20.75 
z
M 40.140625 26.421875 
Q 40.140625 31.9375 38.9375 35.859375 
Q 37.75 39.796875 35.796875 42.28125 
Q 33.84375 44.78125 31.328125 45.953125 
Q 28.8125 47.125 26.171875 47.125 
Q 22.796875 47.125 20.375 45.953125 
Q 17.96875 44.78125 16.375 42.265625 
Q 14.796875 39.75 14.03125 35.8125 
Q 13.28125 31.890625 13.28125 26.421875 
Q 13.28125 20.703125 14.03125 16.8125 
Q 14.796875 12.9375 16.359375 10.546875 
Q 17.921875 8.15625 20.3125 7.125 
Q 22.703125 6.109375 26.03125 6.109375 
Q 28.65625 6.109375 31.171875 7.21875 
Q 33.6875 8.34375 35.6875 10.78125 
Q 37.703125 13.234375 38.921875 17.09375 
Q 40.140625 20.953125 40.140625 26.421875 
z
" id="LiberationSans-67"/>
      <path d="M 29.5 0 
Q 27.640625 -4.78125 25.703125 -8.609375 
Q 23.78125 -12.453125 21.390625 -15.15625 
Q 19 -17.875 16.0625 -19.3125 
Q 13.140625 -20.75 9.328125 -20.75 
Q 7.671875 -20.75 6.25 -20.65625 
Q 4.828125 -20.5625 3.265625 -20.21875 
L 3.265625 -13.625 
Q 4.203125 -13.765625 5.375 -13.84375 
Q 6.546875 -13.921875 7.375 -13.921875 
Q 11.234375 -13.921875 14.546875 -11.03125 
Q 17.875 -8.15625 20.359375 -1.859375 
L 21.1875 0.25 
L 0.25 52.828125 
L 9.625 52.828125 
L 20.75 23.640625 
Q 21.234375 22.3125 21.984375 20.109375 
Q 22.75 17.921875 23.5 15.71875 
Q 24.265625 13.53125 24.84375 11.765625 
Q 25.4375 10.015625 25.53125 9.578125 
Q 25.6875 10.109375 26.25 11.6875 
Q 26.8125 13.28125 27.515625 15.234375 
Q 28.21875 17.1875 28.953125 19.1875 
Q 29.6875 21.1875 30.171875 22.65625 
L 40.53125 52.828125 
L 49.8125 52.828125 
z
" id="LiberationSans-79"/>
      <path id="LiberationSans-20"/>
      <path d="M 6.203125 25.984375 
Q 6.203125 32.765625 7.21875 38.96875 
Q 8.25 45.171875 10.4375 50.875 
Q 12.640625 56.59375 16.0625 61.953125 
Q 19.484375 67.328125 24.21875 72.46875 
L 32.71875 72.46875 
Q 28.125 67.328125 24.78125 61.9375 
Q 21.4375 56.546875 19.28125 50.796875 
Q 17.140625 45.0625 16.09375 38.859375 
Q 15.046875 32.671875 15.046875 25.875 
Q 15.046875 19.09375 16.09375 12.890625 
Q 17.140625 6.6875 19.28125 0.921875 
Q 21.4375 -4.828125 24.78125 -10.203125 
Q 28.125 -15.578125 32.71875 -20.703125 
L 24.21875 -20.703125 
Q 19.484375 -15.578125 16.0625 -10.203125 
Q 12.640625 -4.828125 10.4375 0.875 
Q 8.25 6.59375 7.21875 12.765625 
Q 6.203125 18.953125 6.203125 25.78125 
z
" id="LiberationSans-28"/>
      <path d="M 39.84375 0 
L 21.96875 24.125 
L 15.53125 18.796875 
L 15.53125 0 
L 6.734375 0 
L 6.734375 72.46875 
L 15.53125 72.46875 
L 15.53125 27.203125 
L 38.71875 52.828125 
L 49.03125 52.828125 
L 27.59375 30.125 
L 50.140625 0 
z
" id="LiberationSans-6b"/>
      <path d="M 38.1875 0 
L 28.515625 0 
L 0.4375 68.796875 
L 10.25 68.796875 
L 29.296875 20.359375 
Q 30.03125 18.171875 30.765625 15.984375 
Q 31.5 13.8125 32.078125 12.109375 
Q 32.765625 10.109375 33.40625 8.203125 
Q 33.984375 10.015625 34.671875 12.015625 
Q 35.25 13.71875 35.953125 15.859375 
Q 36.671875 18.015625 37.5 20.359375 
L 56.453125 68.796875 
L 66.265625 68.796875 
z
" id="LiberationSans-56"/>
      <path d="M 27.09375 25.78125 
Q 27.09375 18.953125 26.0625 12.765625 
Q 25.046875 6.59375 22.84375 0.875 
Q 20.65625 -4.828125 17.234375 -10.203125 
Q 13.8125 -15.578125 9.078125 -20.703125 
L 0.59375 -20.703125 
Q 5.171875 -15.578125 8.515625 -10.203125 
Q 11.859375 -4.828125 14 0.921875 
Q 16.15625 6.6875 17.203125 12.890625 
Q 18.265625 19.09375 18.265625 25.875 
Q 18.265625 32.671875 17.203125 38.859375 
Q 16.15625 45.0625 14 50.796875 
Q 11.859375 56.546875 8.515625 61.9375 
Q 5.171875 67.328125 0.59375 72.46875 
L 9.078125 72.46875 
Q 13.8125 67.328125 17.234375 61.953125 
Q 20.65625 56.59375 22.84375 50.875 
Q 25.046875 45.171875 26.0625 38.96875 
Q 27.09375 32.765625 27.09375 25.984375 
z
" id="LiberationSans-29"/>
     </defs>
     <g style="fill:#262626;" transform="translate(189.306641 280.293437)scale(0.11 -0.11)">
      <use xlink:href="#LiberationSans-45"/>
      <use x="66.699219" xlink:href="#LiberationSans-6e"/>
      <use x="122.314453" xlink:href="#LiberationSans-65"/>
      <use x="177.929688" xlink:href="#LiberationSans-72"/>
      <use x="211.230469" xlink:href="#LiberationSans-67"/>
      <use x="266.845703" xlink:href="#LiberationSans-79"/>
      <use x="316.845703" xlink:href="#LiberationSans-20"/>
      <use x="344.628906" xlink:href="#LiberationSans-28"/>
      <use x="377.929688" xlink:href="#LiberationSans-6b"/>
      <use x="427.929688" xlink:href="#LiberationSans-65"/>
      <use x="483.544922" xlink:href="#LiberationSans-56"/>
      <use x="550.244141" xlink:href="#LiberationSans-29"/>
     </g>
    </g>
   </g>
   <g id="matplotlib.axis_2">
    <g id="ytick_1">
     <g id="line2d_21">
      <path clip-path="url(#pc7dafef2a7)" d="M 54 242.116364 
L 388.8 242.116364 
" style="fill:none;stroke:#ffffff;stroke-linecap:round;"/>
     </g>
     <g id="line2d_22"/>
     <g id="text_12">
      <!-- 0.0 -->
      <defs>
       <path d="M 9.125 0 
L 9.125 10.6875 
L 18.65625 10.6875 
L 18.65625 0 
z
" id="LiberationSans-2e"/>
      </defs>
      <g style="fill:#262626;" transform="translate(33.1 245.739801)scale(0.1 -0.1)">
       <use xlink:href="#LiberationSans-30"/>
       <use x="55.615234" xlink:href="#LiberationSans-2e"/>
       <use x="83.398438" xlink:href="#LiberationSans-30"/>
      </g>
     </g>
    </g>
    <g id="ytick_2">
     <g id="line2d_23">
      <path clip-path="url(#pc7dafef2a7)" d="M 54 202.581818 
L 388.8 202.581818 
" style="fill:none;stroke:#ffffff;stroke-linecap:round;"/>
     </g>
     <g id="line2d_24"/>
     <g id="text_13">
      <!-- 0.2 -->
      <g style="fill:#262626;" transform="translate(33.1 206.205256)scale(0.1 -0.1)">
       <use xlink:href="#LiberationSans-30"/>
       <use x="55.615234" xlink:href="#LiberationSans-2e"/>
       <use x="83.398438" xlink:href="#LiberationSans-32"/>
      </g>
     </g>
    </g>
    <g id="ytick_3">
     <g id="line2d_25">
      <path clip-path="url(#pc7dafef2a7)" d="M 54 163.047273 
L 388.8 163.047273 
" style="fill:none;stroke:#ffffff;stroke-linecap:round;"/>
     </g>
     <g id="line2d_26"/>
     <g id="text_14">
      <!-- 0.4 -->
      <g style="fill:#262626;" transform="translate(33.1 166.67071)scale(0.1 -0.1)">
       <use xlink:href="#LiberationSans-30"/>
       <use x="55.615234" xlink:href="#LiberationSans-2e"/>
       <use x="83.398438" xlink:href="#LiberationSans-34"/>
      </g>
     </g>
    </g>
    <g id="ytick_4">
     <g id="line2d_27">
      <path clip-path="url(#pc7dafef2a7)" d="M 54 123.512727 
L 388.8 123.512727 
" style="fill:none;stroke:#ffffff;stroke-linecap:round;"/>
     </g>
     <g id="line2d_28"/>
     <g id="text_15">
      <!-- 0.6 -->
      <g style="fill:#262626;" transform="translate(33.1 127.136165)scale(0.1 -0.1)">
       <use xlink:href="#LiberationSans-30"/>
       <use x="55.615234" xlink:href="#LiberationSans-2e"/>
       <use x="83.398438" xlink:href="#LiberationSans-36"/>
      </g>
     </g>
    </g>
    <g id="ytick_5">
     <g id="line2d_29">
      <path clip-path="url(#pc7dafef2a7)" d="M 54 83.978182 
L 388.8 83.978182 
" style="fill:none;stroke:#ffffff;stroke-linecap:round;"/>
     </g>
     <g id="line2d_30"/>
     <g id="text_16">
      <!-- 0.8 -->
      <g style="fill:#262626;" transform="translate(33.1 87.601619)scale(0.1 -0.1)">
       <use xlink:href="#LiberationSans-30"/>
       <use x="55.615234" xlink:href="#LiberationSans-2e"/>
       <use x="83.398438" xlink:href="#LiberationSans-38"/>
      </g>
     </g>
    </g>
    <g id="ytick_6">
     <g id="line2d_31">
      <path clip-path="url(#pc7dafef2a7)" d="M 54 44.443636 
L 388.8 44.443636 
" style="fill:none;stroke:#ffffff;stroke-linecap:round;"/>
     </g>
     <g id="line2d_32"/>
     <g id="text_17">
      <!-- 1.0 -->
      <g style="fill:#262626;" transform="translate(33.1 48.067074)scale(0.1 -0.1)">
       <use xlink:href="#LiberationSans-31"/>
       <use x="55.615234" xlink:href="#LiberationSans-2e"/>
       <use x="83.398438" xlink:href="#LiberationSans-30"/>
      </g>
     </g>
    </g>
   </g>
   <g id="line2d_33">
    <path clip-path="url(#pc7dafef2a7)" d="M 62.077714 177.17738 
L 62.077714 177.648872 
L 62.821714 177.648872 
L 62.821714 177.447688 
L 63.565714 177.447688 
L 63.565714 177.837675 
L 64.309714 177.837675 
L 64.309714 179.174772 
L 65.053714 179.174772 
L 65.053714 182.380298 
L 65.797714 182.380298 
L 65.797714 183.59359 
L 66.541714 183.59359 
L 66.541714 182.671241 
L 67.285714 182.671241 
L 67.285714 179.987761 
L 68.029714 179.987761 
L 68.029714 180.32513 
L 68.773714 180.32513 
L 68.773714 180.622263 
L 69.517714 180.622263 
L 69.517714 177.652999 
L 70.261714 177.652999 
L 70.261714 177.159841 
L 71.005714 177.159841 
L 71.005714 177.734504 
L 71.749714 177.734504 
L 71.749714 179.069538 
L 72.493714 179.069538 
L 72.493714 178.851847 
L 73.237714 178.851847 
L 73.237714 178.002749 
L 73.981714 178.002749 
L 73.981714 179.188185 
L 74.725714 179.188185 
L 74.725714 177.730377 
L 75.469714 177.730377 
L 75.469714 177.45491 
L 76.213714 177.45491 
L 76.213714 176.836915 
L 76.957714 176.836915 
L 76.957714 172.427383 
L 77.701714 172.427383 
L 77.701714 169.026863 
L 78.445714 169.026863 
L 78.445714 170.330946 
L 79.189714 170.330946 
L 79.189714 171.035604 
L 79.933714 171.035604 
L 79.933714 168.657511 
L 80.677714 168.657511 
L 80.677714 167.878569 
L 81.421714 167.878569 
L 81.421714 167.499931 
L 82.165714 167.499931 
L 82.165714 166.554884 
L 82.909714 166.554884 
L 82.909714 167.096532 
L 83.653714 167.096532 
L 83.653714 164.766929 
L 84.397714 164.766929 
L 84.397714 163.183252 
L 85.141714 163.183252 
L 85.141714 163.331819 
L 85.885714 163.331819 
L 85.885714 161.417995 
L 87.373714 161.485056 
L 87.373714 160.589531 
L 88.117714 160.589531 
L 88.117714 159.192594 
L 88.861714 159.192594 
L 88.861714 155.882865 
L 89.605714 155.882865 
L 89.605714 153.231368 
L 90.349714 153.231368 
L 90.349714 150.588125 
L 91.093714 150.588125 
L 91.093714 151.823083 
L 91.837714 151.823083 
L 91.837714 148.828026 
L 92.581714 148.828026 
L 92.581714 146.312714 
L 93.325714 146.312714 
L 93.325714 145.119025 
L 94.813714 145.023076 
L 94.813714 143.226867 
L 95.557714 143.226867 
L 95.557714 137.592693 
L 96.301714 137.592693 
L 96.301714 136.663122 
L 97.045714 136.663122 
L 97.045714 136.551697 
L 97.789714 136.551697 
L 97.789714 131.865666 
L 98.533714 131.865666 
L 98.533714 128.474432 
L 99.277714 128.474432 
L 99.277714 125.979755 
L 100.021714 125.979755 
L 100.021714 122.866051 
L 100.765714 122.866051 
L 100.765714 124.289812 
L 101.509714 124.289812 
L 101.509714 125.649607 
L 102.253714 125.649607 
L 102.253714 126.569893 
L 102.997714 126.569893 
L 102.997714 125.710478 
L 103.741714 125.710478 
L 103.741714 123.048664 
L 104.485714 123.048664 
L 104.485714 118.257398 
L 105.229714 118.257398 
L 105.229714 112.628383 
L 105.973714 112.628383 
L 105.973714 109.543567 
L 106.717714 109.543567 
L 106.717714 108.557251 
L 107.461714 108.557251 
L 107.461714 106.014084 
L 108.205714 106.014084 
L 108.205714 103.124261 
L 108.949714 103.124261 
L 108.949714 98.795202 
L 109.693714 98.795202 
L 109.693714 95.442141 
L 110.437714 95.442141 
L 110.437714 88.634912 
L 111.181714 88.634912 
L 111.181714 86.439432 
L 111.925714 86.439432 
L 111.925714 84.818614 
L 112.669714 84.818614 
L 112.669714 79.134918 
L 113.413714 79.134918 
L 113.413714 76.982769 
L 114.157714 76.982769 
L 114.157714 74.556185 
L 114.901714 74.556185 
L 114.901714 67.493091 
L 115.645714 67.493091 
L 115.645714 64.459861 
L 116.389714 64.459861 
L 116.389714 59.960569 
L 117.133714 59.960569 
L 117.133714 58.692597 
L 117.877714 58.692597 
L 117.877714 55.768728 
L 118.621714 55.768728 
L 118.621714 51.24777 
L 119.365714 51.24777 
L 119.365714 51.731643 
L 120.109714 51.731643 
L 120.109714 49.600128 
L 120.853714 49.600128 
L 120.853714 45.803431 
L 121.597714 45.803431 
L 121.597714 45.03687 
L 122.341714 45.03687 
L 122.341714 44.443636 
L 123.085714 44.443636 
L 123.085714 44.624186 
L 123.829714 44.624186 
L 123.829714 45.443364 
L 124.573714 45.443364 
L 124.573714 45.070917 
L 125.317714 45.070917 
L 125.317714 49.362834 
L 126.061714 49.362834 
L 126.061714 53.21318 
L 126.805714 53.21318 
L 126.805714 53.018186 
L 127.549714 53.018186 
L 127.549714 54.063309 
L 128.293714 54.063309 
L 128.293714 56.938688 
L 129.037714 56.938688 
L 129.037714 64.432005 
L 129.781714 64.432005 
L 129.781714 67.332144 
L 130.525714 67.332144 
L 130.525714 67.139214 
L 131.269714 67.139214 
L 131.269714 69.555481 
L 132.013714 69.555481 
L 132.013714 74.504599 
L 132.757714 74.504599 
L 132.757714 79.258723 
L 133.501714 79.258723 
L 133.501714 84.374978 
L 134.245714 84.374978 
L 134.245714 91.538147 
L 134.989714 91.538147 
L 134.989714 95.083106 
L 135.733714 95.083106 
L 135.733714 96.786461 
L 136.477714 96.786461 
L 136.477714 102.959188 
L 137.221714 102.959188 
L 137.221714 107.650377 
L 137.965714 107.650377 
L 137.965714 112.28276 
L 138.709714 112.28276 
L 138.709714 120.178444 
L 139.453714 120.178444 
L 139.453714 126.003484 
L 140.197714 126.003484 
L 140.197714 132.07923 
L 140.941714 132.07923 
L 140.941714 136.670344 
L 141.685714 136.670344 
L 141.685714 140.265856 
L 142.429714 140.265856 
L 142.429714 146.616037 
L 143.173714 146.616037 
L 143.173714 153.551199 
L 143.917714 153.551199 
L 143.917714 158.891335 
L 144.661714 158.891335 
L 144.661714 165.26834 
L 145.405714 165.26834 
L 145.405714 170.364992 
L 146.149714 170.364992 
L 146.149714 175.381171 
L 146.893714 175.381171 
L 146.893714 179.013825 
L 147.637714 179.013825 
L 147.637714 181.512629 
L 148.381714 181.512629 
L 148.381714 184.952354 
L 149.125714 184.952354 
L 149.125714 185.157664 
L 150.613714 185.256708 
L 150.613714 187.499648 
L 151.357714 187.499648 
L 151.357714 188.653101 
L 152.101714 188.653101 
L 152.101714 190.274951 
L 152.845714 190.274951 
L 152.845714 191.620302 
L 153.589714 191.620302 
L 153.589714 193.030651 
L 154.333714 193.030651 
L 154.333714 193.762134 
L 155.077714 193.762134 
L 155.077714 193.98911 
L 155.821714 193.98911 
L 155.821714 196.292921 
L 156.565714 196.292921 
L 156.565714 197.655811 
L 157.309714 197.655811 
L 157.309714 199.755343 
L 158.053714 199.755343 
L 158.053714 200.548729 
L 159.541714 200.45897 
L 159.541714 201.774401 
L 160.285714 201.774401 
L 160.285714 201.121328 
L 161.029714 201.121328 
L 161.029714 201.421556 
L 161.773714 201.421556 
L 161.773714 202.618341 
L 163.261714 202.508979 
L 163.261714 201.588693 
L 164.005714 201.588693 
L 164.005714 200.989269 
L 164.749714 200.989269 
L 164.749714 201.417429 
L 165.493714 201.417429 
L 165.493714 203.578864 
L 166.237714 203.578864 
L 166.237714 204.232968 
L 166.981714 204.232968 
L 166.981714 203.701637 
L 167.725714 203.701637 
L 167.725714 203.928614 
L 168.469714 203.928614 
L 168.469714 203.313714 
L 169.213714 203.313714 
L 169.213714 202.154071 
L 169.957714 202.154071 
L 169.957714 203.088801 
L 171.445714 202.97944 
L 171.445714 204.383598 
L 172.189714 204.383598 
L 172.189714 204.789061 
L 172.933714 204.789061 
L 172.933714 203.568547 
L 173.677714 203.568547 
L 173.677714 203.267287 
L 174.421714 203.267287 
L 174.421714 203.694415 
L 175.165714 203.694415 
L 175.165714 205.570066 
L 175.909714 205.570066 
L 175.909714 206.662648 
L 177.397714 206.648204 
L 177.397714 207.065015 
L 178.141714 207.065015 
L 178.141714 208.363939 
L 178.885714 208.363939 
L 178.885714 212.07913 
L 179.629714 212.07913 
L 179.629714 212.355629 
L 180.373714 212.355629 
L 180.373714 212.68784 
L 181.117714 212.68784 
L 181.117714 212.81474 
L 181.861714 212.81474 
L 181.861714 212.403088 
L 182.605714 212.403088 
L 182.605714 212.827121 
L 183.349714 212.827121 
L 183.349714 213.674156 
L 184.093714 213.674156 
L 184.093714 215.227912 
L 184.837714 215.227912 
L 184.837714 216.905474 
L 185.581714 216.905474 
L 185.581714 216.737305 
L 187.069714 216.674371 
L 187.069714 217.923773 
L 187.813714 217.923773 
L 187.813714 219.64054 
L 188.557714 219.64054 
L 188.557714 221.428495 
L 189.301714 221.428495 
L 189.301714 221.56984 
L 190.045714 221.56984 
L 190.045714 221.370719 
L 190.789714 221.370719 
L 190.789714 221.740072 
L 191.533714 221.740072 
L 191.533714 220.37615 
L 192.277714 220.37615 
L 192.277714 219.258807 
L 193.021714 219.258807 
L 193.021714 219.653952 
L 193.765714 219.653952 
L 193.765714 219.4115 
L 194.509714 219.4115 
L 194.509714 218.930723 
L 195.253714 218.930723 
L 195.253714 217.324349 
L 195.997714 217.324349 
L 195.997714 216.021298 
L 196.741714 216.021298 
L 196.741714 216.261687 
L 197.485714 216.261687 
L 197.485714 215.557028 
L 198.229714 215.557028 
L 198.229714 216.167801 
L 198.973714 216.167801 
L 198.973714 216.786828 
L 199.717714 216.786828 
L 199.717714 216.591834 
L 200.461714 216.591834 
L 200.461714 215.418779 
L 201.205714 215.418779 
L 201.205714 215.752021 
L 201.949714 215.752021 
L 201.949714 216.717703 
L 202.693714 216.717703 
L 202.693714 215.748926 
L 203.437714 215.748926 
L 203.437714 216.371048 
L 204.181714 216.371048 
L 204.181714 216.189467 
L 204.925714 216.189467 
L 204.925714 215.311481 
L 205.669714 215.311481 
L 205.669714 215.947015 
L 206.413714 215.947015 
L 206.413714 214.895701 
L 207.157714 214.895701 
L 207.157714 215.379574 
L 207.901714 215.379574 
L 207.901714 215.651945 
L 208.645714 215.651945 
L 208.645714 216.656832 
L 209.389714 216.656832 
L 209.389714 217.714336 
L 210.133714 217.714336 
L 210.133714 217.875283 
L 210.877714 217.875283 
L 210.877714 218.099164 
L 211.621714 218.099164 
L 211.621714 218.617083 
L 212.365714 218.617083 
L 212.365714 217.30062 
L 213.109714 217.30062 
L 213.109714 217.674099 
L 214.597714 217.775207 
L 214.597714 219.056592 
L 215.341714 219.056592 
L 215.341714 221.004462 
L 216.085714 221.004462 
L 216.085714 222.156883 
L 216.829714 222.156883 
L 216.829714 222.379733 
L 217.573714 222.379733 
L 217.573714 221.090094 
L 218.317714 221.090094 
L 218.317714 221.558491 
L 219.061714 221.558491 
L 219.061714 222.635597 
L 219.805714 222.635597 
L 219.805714 222.994632 
L 220.549714 222.994632 
L 220.549714 223.573422 
L 222.037714 223.5662 
L 222.037714 223.333034 
L 222.781714 223.333034 
L 222.781714 221.248977 
L 223.525714 221.248977 
L 223.525714 221.73285 
L 224.269714 221.73285 
L 224.269714 223.264941 
L 225.013714 223.264941 
L 225.013714 223.803494 
L 225.757714 223.803494 
L 225.757714 223.416602 
L 226.501714 223.416602 
L 226.501714 224.499899 
L 227.245714 224.499899 
L 227.245714 222.070219 
L 227.989714 222.070219 
L 227.989714 222.441635 
L 228.733714 222.441635 
L 228.733714 222.168232 
L 229.477714 222.168232 
L 229.477714 221.863877 
L 230.221714 221.863877 
L 230.221714 223.217482 
L 232.453714 223.132882 
L 232.453714 221.922685 
L 233.197714 221.922685 
L 233.197714 221.131362 
L 234.685714 221.085967 
L 234.685714 220.724868 
L 235.429714 220.724868 
L 235.429714 219.983068 
L 236.173714 219.983068 
L 236.173714 219.75506 
L 236.917714 219.75506 
L 236.917714 219.021514 
L 237.661714 219.021514 
L 237.661714 218.721286 
L 238.405714 218.721286 
L 238.405714 218.182732 
L 239.149714 218.182732 
L 239.149714 217.10769 
L 239.893714 217.10769 
L 239.893714 217.447123 
L 240.637714 217.447123 
L 240.637714 217.78346 
L 241.381714 217.78346 
L 241.381714 219.360946 
L 242.125714 219.360946 
L 242.125714 221.059143 
L 242.869714 221.059143 
L 242.869714 222.060934 
L 243.613714 222.060934 
L 243.613714 222.188866 
L 244.357714 222.188866 
L 244.357714 222.405525 
L 245.101714 222.405525 
L 245.101714 223.708576 
L 246.589714 223.751908 
L 246.589714 224.160466 
L 249.565714 224.190385 
L 249.565714 224.809412 
L 250.309714 224.809412 
L 250.309714 223.648737 
L 251.053714 223.648737 
L 251.053714 225.829774 
L 251.797714 225.829774 
L 251.797714 227.193696 
L 252.541714 227.193696 
L 252.541714 227.731218 
L 253.285714 227.731218 
L 253.285714 228.285246 
L 254.029714 228.285246 
L 254.029714 226.886246 
L 254.773714 226.886246 
L 254.773714 225.974214 
L 255.517714 225.974214 
L 255.517714 226.560226 
L 256.261714 226.560226 
L 256.261714 226.291981 
L 257.005714 226.291981 
L 257.005714 225.18805 
L 257.749714 225.18805 
L 257.749714 225.558434 
L 258.493714 225.558434 
L 258.493714 225.95977 
L 259.237714 225.95977 
L 259.237714 225.805013 
L 259.981714 225.805013 
L 259.981714 227.329882 
L 261.469714 227.223616 
L 261.469714 227.504241 
L 262.213714 227.504241 
L 262.213714 226.346661 
L 262.957714 226.346661 
L 262.957714 227.182347 
L 264.445714 227.257662 
L 264.445714 226.843946 
L 265.189714 226.843946 
L 265.189714 225.879296 
L 265.933714 225.879296 
L 265.933714 225.34487 
L 266.677714 225.34487 
L 266.677714 224.80838 
L 267.421714 224.80838 
L 267.421714 224.986866 
L 268.165714 224.986866 
L 268.165714 225.169479 
L 268.909714 225.169479 
L 268.909714 224.884727 
L 269.653714 224.884727 
L 269.653714 224.2657 
L 271.141714 224.343079 
L 271.141714 223.37327 
L 271.885714 223.37327 
L 271.885714 222.47465 
L 272.629714 222.47465 
L 272.629714 221.12414 
L 273.373714 221.12414 
L 273.373714 220.415355 
L 274.861714 220.492733 
L 274.861714 220.001639 
L 275.605714 220.001639 
L 275.605714 219.657047 
L 276.349714 219.657047 
L 276.349714 220.58146 
L 277.837714 220.599 
L 277.837714 222.970903 
L 278.581714 222.970903 
L 278.581714 223.810716 
L 279.325714 223.810716 
L 279.325714 222.797576 
L 280.069714 222.797576 
L 280.069714 222.264181 
L 280.813714 222.264181 
L 280.813714 222.111488 
L 281.557714 222.111488 
L 281.557714 221.874194 
L 283.045714 221.96189 
L 283.045714 222.102202 
L 283.789714 222.102202 
L 283.789714 221.81126 
L 284.533714 221.81126 
L 284.533714 221.236597 
L 285.277714 221.236597 
L 285.277714 220.23171 
L 286.021714 220.23171 
L 286.021714 219.924261 
L 286.765714 219.924261 
L 286.765714 219.665301 
L 287.509714 219.665301 
L 287.509714 219.084448 
L 288.253714 219.084448 
L 288.253714 219.884024 
L 288.997714 219.884024 
L 288.997714 220.542255 
L 289.741714 220.542255 
L 289.741714 221.234534 
L 290.485714 221.234534 
L 290.485714 221.522381 
L 291.229714 221.522381 
L 291.229714 220.07489 
L 292.717714 220.085208 
L 292.717714 221.543015 
L 293.461714 221.543015 
L 293.461714 222.767656 
L 294.205714 222.767656 
L 294.205714 222.955427 
L 294.949714 222.955427 
L 294.949714 224.185227 
L 295.693714 224.185227 
L 295.693714 222.81821 
L 297.181714 222.912096 
L 297.181714 223.111216 
L 297.925714 223.111216 
L 297.925714 223.938648 
L 298.669714 223.938648 
L 298.669714 224.858934 
L 299.413714 224.858934 
L 299.413714 225.324236 
L 300.157714 225.324236 
L 300.157714 224.2657 
L 300.901714 224.2657 
L 300.901714 223.572391 
L 301.645714 223.572391 
L 301.645714 221.903082 
L 302.389714 221.903082 
L 302.389714 221.508969 
L 303.133714 221.508969 
L 303.133714 221.182948 
L 303.877714 221.182948 
L 303.877714 222.771783 
L 304.621714 222.771783 
L 304.621714 223.899443 
L 305.365714 223.899443 
L 305.365714 224.974486 
L 306.109714 224.974486 
L 306.109714 225.731762 
L 307.597714 225.656447 
L 307.597714 225.961833 
L 308.341714 225.961833 
L 308.341714 222.416874 
L 309.829714 222.502506 
L 309.829714 222.699563 
L 310.573714 222.699563 
L 310.573714 223.200975 
L 311.317714 223.200975 
L 311.317714 224.194512 
L 312.061714 224.194512 
L 312.061714 222.077441 
L 312.805714 222.077441 
L 312.805714 222.365289 
L 314.293714 222.447826 
L 314.293714 222.886303 
L 315.037714 222.886303 
L 315.037714 224.303874 
L 315.781714 224.303874 
L 315.781714 224.773302 
L 316.525714 224.773302 
L 316.525714 222.379733 
L 317.269714 222.379733 
L 317.269714 222.057839 
L 318.013714 222.057839 
L 318.013714 223.239148 
L 318.757714 223.239148 
L 318.757714 222.817178 
L 319.501714 222.817178 
L 319.501714 225.528515 
L 320.245714 225.528515 
L 320.245714 226.862517 
L 320.989714 226.862517 
L 320.989714 227.815818 
L 321.733714 227.815818 
L 321.733714 228.195487 
L 322.477714 228.195487 
L 322.477714 227.855023 
L 323.221714 227.855023 
L 323.221714 226.654111 
L 323.965714 226.654111 
L 323.965714 227.259726 
L 324.709714 227.259726 
L 324.709714 228.626743 
L 325.453714 228.626743 
L 325.453714 230.074233 
L 326.941714 230.147485 
L 326.941714 231.226654 
L 327.685714 231.226654 
L 327.685714 230.461125 
L 329.917714 230.54882 
L 329.917714 229.489253 
L 330.661714 229.489253 
L 330.661714 229.84313 
L 332.149714 229.857574 
L 332.149714 233.874025 
L 332.893714 233.874025 
L 332.893714 234.915021 
L 333.637714 234.915021 
L 333.637714 235.75277 
L 334.381714 235.75277 
L 334.381714 236.370765 
L 335.125714 236.370765 
L 335.125714 236.905192 
L 335.869714 236.905192 
L 335.869714 239.442169 
L 336.613714 239.442169 
L 336.613714 241.214648 
L 337.357714 241.214648 
L 337.357714 239.765094 
L 338.101714 239.765094 
L 338.101714 239.365822 
L 338.845714 239.365822 
L 338.845714 240.576019 
L 339.589714 240.576019 
L 339.589714 241.205363 
L 340.333714 241.205363 
L 340.333714 242.116364 
L 341.077714 242.116364 
L 341.077714 241.984305 
L 341.821714 241.984305 
L 341.821714 241.280678 
L 342.565714 241.280678 
L 342.565714 240.947435 
L 343.309714 240.947435 
L 343.309714 240.351106 
L 344.053714 240.351106 
L 344.053714 239.28019 
L 344.797714 239.28019 
L 344.797714 238.028725 
L 345.541714 238.028725 
L 345.541714 237.312717 
L 346.285714 237.312717 
L 346.285714 237.584057 
L 347.029714 237.584057 
L 347.029714 238.286653 
L 348.517714 238.199989 
L 348.517714 237.320971 
L 349.261714 237.320971 
L 349.261714 237.598501 
L 350.005714 237.598501 
L 350.005714 237.863651 
L 350.749714 237.863651 
L 350.749714 237.214705 
L 351.493714 237.214705 
L 351.493714 237.421047 
L 352.237714 237.421047 
L 352.237714 238.147372 
L 352.981714 238.147372 
L 352.981714 237.381842 
L 354.469714 237.292083 
L 354.469714 237.648023 
L 355.213714 237.648023 
L 355.213714 236.285133 
L 355.957714 236.285133 
L 355.957714 235.918876 
L 356.701714 235.918876 
L 356.701714 236.765911 
L 357.445714 236.765911 
L 357.445714 237.552074 
L 358.189714 237.552074 
L 358.189714 238.211338 
L 358.933714 238.211338 
L 358.933714 237.57993 
L 359.677714 237.57993 
L 359.677714 237.738814 
L 360.421714 237.738814 
L 360.421714 236.565759 
L 361.165714 236.565759 
L 361.165714 236.216009 
L 361.909714 236.216009 
L 361.909714 235.572221 
L 362.653714 235.572221 
L 362.653714 234.360992 
L 364.885714 234.283614 
L 364.885714 234.584874 
L 366.373714 234.524003 
L 366.373714 234.128857 
L 367.117714 234.128857 
L 367.117714 234.417736 
L 367.861714 234.417736 
L 367.861714 235.557777 
L 368.605714 235.557777 
L 368.605714 236.967094 
L 369.349714 236.967094 
L 369.349714 235.61968 
L 370.093714 235.61968 
L 370.093714 234.832484 
L 370.837714 234.832484 
L 370.837714 233.821407 
L 371.581714 233.821407 
L 371.581714 233.985449 
L 372.325714 233.985449 
L 372.325714 234.793279 
L 373.069714 234.793279 
L 373.069714 233.435548 
L 373.813714 233.435548 
L 373.813714 233.100241 
L 374.557714 233.100241 
L 374.557714 231.919964 
L 375.301714 231.919964 
L 375.301714 232.45439 
L 376.045714 232.45439 
L 376.045714 231.173005 
L 376.789714 231.173005 
L 376.789714 232.432724 
L 377.533714 232.432724 
L 377.533714 233.282854 
L 378.277714 233.282854 
L 378.277714 232.010755 
L 379.021714 232.010755 
L 379.021714 231.661005 
L 379.765714 231.661005 
L 379.765714 232.202653 
L 380.509714 232.202653 
L 380.509714 231.553707 
L 381.253714 231.553707 
L 381.253714 231.325699 
L 381.997714 231.325699 
L 381.997714 231.046105 
L 382.741714 231.046105 
L 382.741714 231.766239 
L 383.485714 231.766239 
L 383.485714 230.867619 
L 384.973714 230.929522 
L 384.973714 231.412362 
L 385.717714 231.412362 
L 385.717714 231.028566 
L 386.461714 231.028566 
L 386.461714 231.432997 
L 387.205714 231.432997 
L 387.205714 231.123483 
L 387.949714 231.123483 
L 387.949714 231.365894 
L 388.693714 231.365894 
L 388.693714 231.365894 
" style="fill:none;stroke:#4c72b0;stroke-linecap:round;stroke-width:1.75;"/>
   </g>
   <g id="line2d_34">
    <path clip-path="url(#pc7dafef2a7)" d="M 62.077714 176.074069 
L 62.077714 176.908925 
L 62.821714 176.908925 
L 62.821714 177.582291 
L 63.565714 177.582291 
L 63.565714 175.73826 
L 64.309714 175.73826 
L 64.309714 173.939704 
L 65.053714 173.939704 
L 65.053714 171.716723 
L 66.541714 171.744707 
L 66.541714 171.93185 
L 67.285714 171.93185 
L 67.285714 171.439215 
L 68.029714 171.439215 
L 68.029714 171.677662 
L 68.773714 171.677662 
L 68.773714 170.899939 
L 69.517714 170.899939 
L 69.517714 168.16625 
L 71.005714 168.130687 
L 71.005714 167.930718 
L 71.749714 167.930718 
L 71.749714 167.174566 
L 72.493714 167.174566 
L 72.493714 166.540262 
L 73.237714 166.540262 
L 73.237714 166.341459 
L 73.981714 166.341459 
L 73.981714 165.445387 
L 74.725714 165.445387 
L 74.725714 164.316115 
L 75.469714 164.316115 
L 75.469714 162.943732 
L 76.213714 162.943732 
L 76.213714 163.231734 
L 76.957714 163.231734 
L 76.957714 163.57104 
L 77.701714 163.57104 
L 77.701714 160.179727 
L 78.445714 160.179727 
L 78.445714 157.541066 
L 79.189714 157.541066 
L 79.189714 156.302773 
L 79.933714 156.302773 
L 79.933714 153.019898 
L 80.677714 153.019898 
L 80.677714 150.363164 
L 81.421714 150.363164 
L 81.421714 151.36884 
L 82.165714 151.36884 
L 82.165714 149.093389 
L 82.909714 149.093389 
L 82.909714 148.25212 
L 83.653714 148.25212 
L 83.653714 150.074579 
L 84.397714 150.074579 
L 84.397714 150.971817 
L 85.141714 150.971817 
L 85.141714 151.54374 
L 85.885714 151.54374 
L 85.885714 149.898513 
L 86.629714 149.898513 
L 86.629714 148.410696 
L 87.373714 148.410696 
L 87.373714 148.178079 
L 88.117714 148.178079 
L 88.117714 149.724196 
L 88.861714 149.724196 
L 88.861714 150.656414 
L 89.605714 150.656414 
L 89.605714 150.192345 
L 90.349714 150.192345 
L 90.349714 148.054482 
L 91.093714 148.054482 
L 91.093714 146.973017 
L 91.837714 146.973017 
L 91.837714 144.54482 
L 92.581714 144.54482 
L 92.581714 142.231474 
L 93.325714 142.231474 
L 93.325714 143.414382 
L 94.069714 143.414382 
L 94.069714 142.704287 
L 94.813714 142.704287 
L 94.813714 139.43482 
L 95.557714 139.43482 
L 95.557714 137.545316 
L 96.301714 137.545316 
L 96.301714 134.092787 
L 97.045714 134.092787 
L 97.045714 131.457042 
L 97.789714 131.457042 
L 97.789714 128.18466 
L 98.533714 128.18466 
L 98.533714 125.353027 
L 99.277714 125.353027 
L 99.277714 122.127285 
L 100.021714 122.127285 
L 100.021714 117.598537 
L 100.765714 117.598537 
L 100.765714 115.165093 
L 101.509714 115.165093 
L 101.509714 117.975155 
L 102.253714 117.975155 
L 102.253714 117.703477 
L 102.997714 117.703477 
L 102.997714 113.898233 
L 103.741714 113.898233 
L 103.741714 112.752637 
L 104.485714 112.752637 
L 104.485714 113.002744 
L 105.229714 113.002744 
L 105.229714 109.537389 
L 105.973714 109.537389 
L 105.973714 106.544265 
L 106.717714 106.544265 
L 106.717714 102.739604 
L 107.461714 102.739604 
L 107.461714 96.746359 
L 108.205714 96.746359 
L 108.205714 90.586376 
L 108.949714 90.586376 
L 108.949714 84.310958 
L 109.693714 84.310958 
L 109.693714 80.811207 
L 110.437714 80.811207 
L 110.437714 74.763743 
L 111.181714 74.763743 
L 111.181714 70.799339 
L 111.925714 70.799339 
L 111.925714 65.638619 
L 112.669714 65.638619 
L 112.669714 61.82463 
L 113.413714 61.82463 
L 113.413714 60.219629 
L 114.157714 60.219629 
L 114.157714 58.832088 
L 114.901714 58.832088 
L 114.901714 55.899013 
L 115.645714 55.899013 
L 115.645714 52.014481 
L 116.389714 52.014481 
L 116.389714 50.416476 
L 117.133714 50.416476 
L 117.133714 47.609329 
L 117.877714 47.609329 
L 117.877714 44.443636 
L 118.621714 44.443636 
L 118.621714 45.62188 
L 120.109714 45.564163 
L 120.109714 47.335902 
L 121.597714 47.308501 
L 121.597714 48.479166 
L 122.341714 48.479166 
L 122.341714 51.143478 
L 123.085714 51.143478 
L 123.085714 52.774713 
L 123.829714 52.774713 
L 123.829714 55.216902 
L 124.573714 55.216902 
L 124.573714 56.252894 
L 125.317714 56.252894 
L 125.317714 58.008892 
L 126.061714 58.008892 
L 126.061714 62.014688 
L 126.805714 62.014688 
L 126.805714 64.407905 
L 127.549714 64.407905 
L 127.549714 69.337757 
L 128.293714 69.337757 
L 128.293714 71.198695 
L 129.037714 71.198695 
L 129.037714 73.885161 
L 129.781714 73.885161 
L 129.781714 78.146311 
L 130.525714 78.146311 
L 130.525714 83.295372 
L 131.269714 83.295372 
L 131.269714 88.031668 
L 132.013714 88.031668 
L 132.013714 92.302146 
L 132.757714 92.302146 
L 132.757714 98.044701 
L 133.501714 98.044701 
L 133.501714 103.666575 
L 134.245714 103.666575 
L 134.245714 110.278966 
L 134.989714 110.278966 
L 134.989714 114.96046 
L 135.733714 114.96046 
L 135.733714 121.256282 
L 136.477714 121.256282 
L 136.477714 125.112247 
L 137.221714 125.112247 
L 137.221714 127.721175 
L 137.965714 127.721175 
L 137.965714 130.043265 
L 138.709714 130.043265 
L 138.709714 134.696192 
L 139.453714 134.696192 
L 139.453714 139.654028 
L 140.197714 139.654028 
L 140.197714 144.018953 
L 140.941714 144.018953 
L 140.941714 147.135674 
L 141.685714 147.135674 
L 141.685714 152.161138 
L 142.429714 152.161138 
L 142.429714 155.734931 
L 143.173714 155.734931 
L 143.173714 159.589147 
L 143.917714 159.589147 
L 143.917714 162.159013 
L 144.661714 162.159013 
L 144.661714 166.016144 
L 145.405714 166.016144 
L 145.405714 168.124274 
L 146.149714 168.124274 
L 146.149714 169.396964 
L 146.893714 169.396964 
L 146.893714 171.446211 
L 147.637714 171.446211 
L 147.637714 174.57809 
L 148.381714 174.57809 
L 148.381714 176.759094 
L 149.125714 176.759094 
L 149.125714 177.512914 
L 149.869714 177.512914 
L 149.869714 177.396314 
L 150.613714 177.396314 
L 150.613714 179.749304 
L 151.357714 179.749304 
L 151.357714 181.026658 
L 152.845714 181.11061 
L 152.845714 182.544208 
L 153.589714 182.544208 
L 153.589714 183.713707 
L 154.333714 183.713707 
L 154.333714 184.734541 
L 155.077714 184.734541 
L 155.077714 186.64037 
L 155.821714 186.64037 
L 155.821714 188.930978 
L 156.565714 188.930978 
L 156.565714 192.006889 
L 157.309714 192.006889 
L 157.309714 191.655923 
L 158.053714 191.655923 
L 158.053714 192.448803 
L 158.797714 192.448803 
L 158.797714 193.23119 
L 159.541714 193.23119 
L 159.541714 193.112258 
L 160.285714 193.112258 
L 160.285714 194.33481 
L 161.029714 194.33481 
L 161.029714 195.039075 
L 161.773714 195.039075 
L 161.773714 196.32051 
L 162.517714 196.32051 
L 162.517714 197.633427 
L 163.261714 197.633427 
L 163.261714 197.812408 
L 164.005714 197.812408 
L 164.005714 198.594211 
L 164.749714 198.594211 
L 164.749714 200.82069 
L 165.493714 200.82069 
L 165.493714 202.713693 
L 166.237714 202.713693 
L 166.237714 203.206328 
L 166.981714 203.206328 
L 166.981714 202.913662 
L 167.725714 202.913662 
L 167.725714 203.16785 
L 168.469714 203.16785 
L 168.469714 203.689636 
L 169.213714 203.689636 
L 169.213714 204.814827 
L 169.957714 204.814827 
L 169.957714 206.465301 
L 170.701714 206.465301 
L 170.701714 207.682023 
L 171.445714 207.682023 
L 171.445714 206.894389 
L 172.189714 206.894389 
L 172.189714 207.749651 
L 172.933714 207.749651 
L 172.933714 207.556678 
L 173.677714 207.556678 
L 173.677714 206.309057 
L 174.421714 206.309057 
L 174.421714 206.539925 
L 175.165714 206.539925 
L 175.165714 205.724307 
L 175.909714 205.724307 
L 175.909714 207.003993 
L 176.653714 207.003993 
L 176.653714 208.601998 
L 178.141714 208.70927 
L 178.141714 210.044341 
L 178.885714 210.044341 
L 178.885714 209.910251 
L 179.629714 209.910251 
L 179.629714 208.975118 
L 180.373714 208.975118 
L 180.373714 208.13618 
L 181.861714 208.098285 
L 181.861714 208.387454 
L 183.349714 208.302336 
L 183.349714 208.655051 
L 184.093714 208.655051 
L 184.093714 208.978033 
L 184.837714 208.978033 
L 184.837714 209.526637 
L 185.581714 209.526637 
L 185.581714 211.105402 
L 186.325714 211.105402 
L 186.325714 211.62777 
L 187.069714 211.62777 
L 187.069714 212.902209 
L 187.813714 212.902209 
L 187.813714 214.939796 
L 188.557714 214.939796 
L 188.557714 213.717244 
L 189.301714 213.717244 
L 189.301714 211.634183 
L 190.045714 211.634183 
L 190.045714 210.729367 
L 190.789714 210.729367 
L 190.789714 211.031361 
L 191.533714 211.031361 
L 191.533714 210.495583 
L 192.277714 210.495583 
L 192.277714 211.36542 
L 193.765714 211.438878 
L 193.765714 211.216755 
L 194.509714 211.216755 
L 194.509714 210.692055 
L 195.253714 210.692055 
L 195.253714 211.006292 
L 195.997714 211.006292 
L 195.997714 210.82906 
L 196.741714 210.82906 
L 196.741714 210.480425 
L 197.485714 210.480425 
L 197.485714 211.000462 
L 198.229714 211.000462 
L 198.229714 212.151888 
L 198.973714 212.151888 
L 198.973714 213.781374 
L 199.717714 213.781374 
L 199.717714 214.482141 
L 200.461714 214.482141 
L 200.461714 214.245442 
L 201.205714 214.245442 
L 201.205714 213.334213 
L 201.949714 213.334213 
L 201.949714 212.063855 
L 202.693714 212.063855 
L 202.693714 212.22418 
L 203.437714 212.22418 
L 203.437714 213.529518 
L 204.181714 213.529518 
L 204.181714 213.354618 
L 204.925714 213.354618 
L 204.925714 213.674685 
L 205.669714 213.674685 
L 205.669714 212.962258 
L 206.413714 212.962258 
L 206.413714 213.394262 
L 207.157714 213.394262 
L 207.157714 214.314237 
L 207.901714 214.314237 
L 207.901714 215.164251 
L 208.645714 215.164251 
L 208.645714 213.746394 
L 209.389714 213.746394 
L 209.389714 212.496441 
L 210.133714 212.496441 
L 210.133714 211.721633 
L 210.877714 211.721633 
L 210.877714 209.662476 
L 211.621714 209.662476 
L 211.621714 207.484386 
L 212.365714 207.484386 
L 212.365714 207.365454 
L 213.109714 207.365454 
L 213.109714 208.678954 
L 213.853714 208.678954 
L 213.853714 210.546887 
L 214.597714 210.546887 
L 214.597714 211.659835 
L 215.341714 211.659835 
L 215.341714 212.991408 
L 216.085714 212.991408 
L 216.085714 212.512765 
L 217.573714 212.548328 
L 217.573714 213.63679 
L 218.317714 213.63679 
L 218.317714 213.973181 
L 219.061714 213.973181 
L 219.061714 214.510708 
L 219.805714 214.510708 
L 219.805714 214.840686 
L 220.549714 214.840686 
L 220.549714 215.013254 
L 221.293714 215.013254 
L 221.293714 215.543785 
L 222.037714 215.543785 
L 222.037714 216.003189 
L 222.781714 216.003189 
L 222.781714 215.313499 
L 224.269714 215.220802 
L 224.269714 214.703098 
L 225.757714 214.792297 
L 225.757714 215.091959 
L 226.501714 215.091959 
L 226.501714 214.622644 
L 227.245714 214.622644 
L 227.245714 213.763301 
L 227.989714 213.763301 
L 227.989714 213.977262 
L 228.733714 213.977262 
L 228.733714 215.547283 
L 229.477714 215.547283 
L 229.477714 216.875941 
L 230.221714 216.875941 
L 230.221714 217.149951 
L 230.965714 217.149951 
L 230.965714 216.922581 
L 231.709714 216.922581 
L 231.709714 217.228656 
L 232.453714 217.228656 
L 232.453714 218.611533 
L 233.197714 218.611533 
L 233.197714 220.742983 
L 233.941714 220.742983 
L 233.941714 220.16348 
L 234.685714 220.16348 
L 234.685714 221.37204 
L 235.429714 221.37204 
L 235.429714 223.490081 
L 236.173714 223.490081 
L 236.173714 224.231658 
L 236.917714 224.231658 
L 236.917714 224.648503 
L 237.661714 224.648503 
L 237.661714 223.993211 
L 238.405714 223.993211 
L 238.405714 222.281521 
L 239.149714 222.281521 
L 239.149714 221.297416 
L 239.893714 221.297416 
L 239.893714 221.495053 
L 240.637714 221.495053 
L 240.637714 221.923559 
L 241.381714 221.923559 
L 241.381714 220.810028 
L 242.125714 220.810028 
L 242.125714 219.299474 
L 242.869714 219.299474 
L 242.869714 219.651606 
L 244.357714 219.748967 
L 244.357714 220.969187 
L 245.101714 220.969187 
L 245.101714 222.203399 
L 245.845714 222.203399 
L 245.845714 220.898644 
L 246.589714 220.898644 
L 246.589714 221.408186 
L 247.333714 221.408186 
L 247.333714 222.015673 
L 248.077714 222.015673 
L 248.077714 222.960717 
L 248.821714 222.960717 
L 248.821714 223.95998 
L 249.565714 223.95998 
L 249.565714 225.001218 
L 250.309714 225.001218 
L 250.309714 226.199867 
L 251.053714 226.199867 
L 251.053714 226.858075 
L 251.797714 226.858075 
L 251.797714 227.50229 
L 252.541714 227.50229 
L 252.541714 227.196215 
L 253.285714 227.196215 
L 253.285714 227.679523 
L 254.029714 227.679523 
L 254.029714 228.003671 
L 255.517714 227.965193 
L 255.517714 226.209195 
L 256.261714 226.209195 
L 256.261714 224.969153 
L 257.005714 224.969153 
L 257.005714 223.898181 
L 258.493714 223.793241 
L 258.493714 224.310946 
L 259.237714 224.310946 
L 259.237714 223.548381 
L 259.981714 223.548381 
L 259.981714 224.791338 
L 260.725714 224.791338 
L 260.725714 225.124815 
L 261.469714 225.124815 
L 261.469714 225.264735 
L 262.213714 225.264735 
L 262.213714 226.599806 
L 262.957714 226.599806 
L 262.957714 227.076117 
L 263.701714 227.076117 
L 263.701714 227.270839 
L 264.445714 227.270839 
L 264.445714 226.437732 
L 265.189714 226.437732 
L 265.189714 227.358872 
L 265.933714 227.358872 
L 265.933714 229.092716 
L 268.165714 229.069396 
L 268.165714 228.428678 
L 268.909714 228.428678 
L 268.909714 227.927298 
L 269.653714 227.927298 
L 269.653714 228.709684 
L 270.397714 228.709684 
L 270.397714 227.85967 
L 271.141714 227.85967 
L 271.141714 227.023647 
L 271.885714 227.023647 
L 271.885714 227.135583 
L 272.629714 227.135583 
L 272.629714 226.977007 
L 273.373714 226.977007 
L 273.373714 226.59864 
L 274.117714 226.59864 
L 274.117714 226.124077 
L 274.861714 226.124077 
L 274.861714 225.452461 
L 275.605714 225.452461 
L 275.605714 223.774002 
L 276.349714 223.774002 
L 276.349714 223.012021 
L 277.093714 223.012021 
L 277.093714 222.812052 
L 277.837714 222.812052 
L 277.837714 223.845711 
L 278.581714 223.845711 
L 278.581714 224.246233 
L 279.325714 224.246233 
L 279.325714 225.416315 
L 280.069714 225.416315 
L 280.069714 226.327545 
L 280.813714 226.327545 
L 280.813714 227.284248 
L 281.557714 227.284248 
L 281.557714 226.719321 
L 282.301714 226.719321 
L 282.301714 227.615393 
L 283.045714 227.615393 
L 283.045714 228.077712 
L 283.789714 228.077712 
L 283.789714 227.551263 
L 284.533714 227.551263 
L 284.533714 227.880658 
L 285.277714 227.880658 
L 285.277714 227.237608 
L 286.021714 227.237608 
L 286.021714 226.863905 
L 286.765714 226.863905 
L 286.765714 227.655037 
L 287.509714 227.655037 
L 287.509714 228.16283 
L 288.253714 228.16283 
L 288.253714 229.908333 
L 288.997714 229.908333 
L 288.997714 230.477342 
L 289.741714 230.477342 
L 289.741714 230.082651 
L 290.485714 230.082651 
L 290.485714 230.575869 
L 291.229714 230.575869 
L 291.229714 231.463196 
L 291.973714 231.463196 
L 291.973714 231.941256 
L 293.461714 231.891701 
L 293.461714 231.246903 
L 294.205714 231.246903 
L 294.205714 231.961078 
L 294.949714 231.961078 
L 294.949714 233.396425 
L 295.693714 233.396425 
L 295.693714 233.789368 
L 296.437714 233.789368 
L 296.437714 233.909466 
L 297.181714 233.909466 
L 297.181714 234.367704 
L 297.925714 234.367704 
L 297.925714 232.693327 
L 298.669714 232.693327 
L 298.669714 233.642452 
L 299.413714 233.642452 
L 299.413714 233.854081 
L 300.901714 233.952025 
L 300.901714 232.745214 
L 301.645714 232.745214 
L 301.645714 232.162796 
L 302.389714 232.162796 
L 302.389714 231.182773 
L 303.133714 231.182773 
L 303.133714 231.60195 
L 304.621714 231.707473 
L 304.621714 230.96473 
L 305.365714 230.96473 
L 305.365714 232.385503 
L 306.853714 232.274732 
L 306.853714 230.633003 
L 307.597714 230.633003 
L 307.597714 230.32926 
L 308.341714 230.32926 
L 308.341714 229.981792 
L 309.085714 229.981792 
L 309.085714 230.326928 
L 309.829714 230.326928 
L 309.829714 230.50416 
L 310.573714 230.50416 
L 310.573714 229.984124 
L 312.061714 229.992286 
L 312.061714 229.230887 
L 312.805714 229.230887 
L 312.805714 227.736657 
L 313.549714 227.736657 
L 313.549714 226.815516 
L 314.293714 226.815516 
L 314.293714 226.44706 
L 315.037714 226.44706 
L 315.037714 226.325213 
L 315.781714 226.325213 
L 315.781714 226.057615 
L 316.525714 226.057615 
L 316.525714 225.585385 
L 317.269714 225.585385 
L 317.269714 226.022635 
L 318.013714 226.022635 
L 318.013714 224.852553 
L 318.757714 224.852553 
L 318.757714 223.642244 
L 319.501714 223.642244 
L 319.501714 223.863201 
L 320.245714 223.863201 
L 320.245714 223.293027 
L 320.989714 223.293027 
L 320.989714 222.932733 
L 321.733714 222.932733 
L 321.733714 224.523158 
L 322.477714 224.523158 
L 322.477714 224.217083 
L 323.221714 224.217083 
L 323.221714 225.654762 
L 323.965714 225.654762 
L 323.965714 226.623709 
L 324.709714 226.623709 
L 324.709714 227.571085 
L 325.453714 227.571085 
L 325.453714 227.792625 
L 326.197714 227.792625 
L 326.197714 229.114287 
L 326.941714 229.114287 
L 326.941714 228.532452 
L 327.685714 228.532452 
L 327.685714 227.85967 
L 328.429714 227.85967 
L 328.429714 228.819289 
L 329.173714 228.819289 
L 329.173714 228.938221 
L 329.917714 228.938221 
L 329.917714 229.113121 
L 330.661714 229.113121 
L 330.661714 230.806737 
L 331.405714 230.806737 
L 331.405714 232.382005 
L 332.149714 232.382005 
L 332.149714 233.422077 
L 332.893714 233.422077 
L 332.893714 234.150245 
L 333.637714 234.150245 
L 333.637714 235.556442 
L 334.381714 235.556442 
L 334.381714 235.776816 
L 335.125714 235.776816 
L 335.125714 235.643309 
L 335.869714 235.643309 
L 335.869714 235.858436 
L 336.613714 235.858436 
L 336.613714 236.419866 
L 337.357714 236.419866 
L 337.357714 237.164941 
L 338.101714 237.164941 
L 338.101714 237.94791 
L 338.845714 237.94791 
L 338.845714 237.436619 
L 340.333714 237.465769 
L 340.333714 237.826646 
L 341.077714 237.826646 
L 341.077714 238.505842 
L 341.821714 238.505842 
L 341.821714 239.809431 
L 342.565714 239.809431 
L 342.565714 240.594149 
L 343.309714 240.594149 
L 343.309714 240.904889 
L 344.053714 240.904889 
L 344.053714 242.072639 
L 344.797714 242.072639 
L 344.797714 241.778806 
L 345.541714 241.778806 
L 345.541714 242.116364 
L 346.285714 242.116364 
L 346.285714 241.851681 
L 347.029714 241.851681 
L 347.029714 241.247693 
L 347.773714 241.247693 
L 347.773714 240.790621 
L 348.517714 240.790621 
L 348.517714 240.028056 
L 349.261714 240.028056 
L 349.261714 238.906946 
L 350.005714 238.906946 
L 350.005714 238.035943 
L 352.981714 238.122227 
L 352.981714 238.417226 
L 354.469714 238.43938 
L 354.469714 238.195685 
L 355.213714 238.195685 
L 355.213714 237.678564 
L 355.957714 237.678564 
L 355.957714 236.332416 
L 356.701714 236.332416 
L 356.701714 235.554693 
L 357.445714 235.554693 
L 357.445714 235.060892 
L 358.189714 235.060892 
L 358.189714 236.103297 
L 359.677714 236.017596 
L 359.677714 235.94064 
L 360.421714 235.94064 
L 360.421714 235.777399 
L 361.165714 235.777399 
L 361.165714 236.434441 
L 364.141714 236.467672 
L 364.141714 235.252699 
L 364.885714 235.252699 
L 364.885714 234.553098 
L 365.629714 234.553098 
L 365.629714 233.827263 
L 367.117714 233.723489 
L 367.117714 232.456046 
L 367.861714 232.456046 
L 367.861714 231.75353 
L 368.605714 231.75353 
L 368.605714 232.218764 
L 369.349714 232.218764 
L 369.349714 231.42705 
L 370.093714 231.42705 
L 370.093714 232.492775 
L 370.837714 232.492775 
L 370.837714 233.595229 
L 371.581714 233.595229 
L 371.581714 234.342052 
L 372.325714 234.342052 
L 372.325714 235.092374 
L 373.069714 235.092374 
L 373.069714 236.078228 
L 373.813714 236.078228 
L 373.813714 236.710783 
L 374.557714 236.710783 
L 374.557714 237.226156 
L 376.789714 237.166107 
L 376.789714 236.903756 
L 378.277714 236.92591 
L 378.277714 236.642572 
L 379.021714 236.642572 
L 379.021714 236.423947 
L 379.765714 236.423947 
L 379.765714 237.221492 
L 380.509714 237.221492 
L 380.509714 237.853464 
L 381.997714 237.845302 
L 381.997714 236.885683 
L 382.741714 236.885683 
L 382.741714 237.540393 
L 383.485714 237.540393 
L 383.485714 238.509923 
L 384.229714 238.509923 
L 384.229714 238.709892 
L 384.973714 238.709892 
L 384.973714 238.505842 
L 385.717714 238.505842 
L 385.717714 237.292618 
L 386.461714 237.292618 
L 386.461714 237.459939 
L 387.205714 237.459939 
L 387.205714 237.962485 
L 387.949714 237.962485 
L 387.949714 238.940753 
L 388.693714 238.940753 
L 388.693714 238.940753 
" style="fill:none;stroke:#55a868;stroke-linecap:round;stroke-width:1.75;"/>
   </g>
   <g id="patch_3">
    <path d="M 54 252 
L 54 34.56 
" style="fill:none;"/>
   </g>
   <g id="patch_4">
    <path d="M 388.8 252 
L 388.8 34.56 
" style="fill:none;"/>
   </g>
   <g id="patch_5">
    <path d="M 54 252 
L 388.8 252 
" style="fill:none;"/>
   </g>
   <g id="patch_6">
    <path d="M 54 34.56 
L 388.8 34.56 
" style="fill:none;"/>
   </g>
   <g id="text_18">
    <!-- Cs137 -->
    <defs>
     <path d="M 38.671875 62.203125 
Q 32.8125 62.203125 28.296875 60.25 
Q 23.78125 58.296875 20.71875 54.6875 
Q 17.671875 51.078125 16.109375 46 
Q 14.546875 40.921875 14.546875 34.71875 
Q 14.546875 28.515625 16.234375 23.359375 
Q 17.921875 18.21875 21.0625 14.5 
Q 24.21875 10.796875 28.78125 8.734375 
Q 33.34375 6.6875 39.0625 6.6875 
Q 43.0625 6.6875 46.359375 7.734375 
Q 49.65625 8.796875 52.3125 10.6875 
Q 54.984375 12.59375 57.078125 15.203125 
Q 59.1875 17.828125 60.796875 21 
L 68.40625 17.1875 
Q 66.546875 13.328125 63.8125 10 
Q 61.078125 6.6875 57.390625 4.25 
Q 53.71875 1.8125 49.046875 0.40625 
Q 44.390625 -0.984375 38.625 -0.984375 
Q 30.28125 -0.984375 24 1.671875 
Q 17.71875 4.34375 13.5 9.109375 
Q 9.28125 13.875 7.171875 20.40625 
Q 5.078125 26.953125 5.078125 34.71875 
Q 5.078125 42.78125 7.296875 49.265625 
Q 9.515625 55.765625 13.78125 60.328125 
Q 18.0625 64.890625 24.3125 67.359375 
Q 30.5625 69.828125 38.578125 69.828125 
Q 49.5625 69.828125 56.9375 65.53125 
Q 64.3125 61.234375 67.78125 52.78125 
L 58.9375 49.859375 
Q 57.953125 52.296875 56.296875 54.515625 
Q 54.640625 56.734375 52.140625 58.4375 
Q 49.65625 60.15625 46.3125 61.171875 
Q 42.96875 62.203125 38.671875 62.203125 
z
" id="LiberationSans-43"/>
     <path d="M 46.390625 14.59375 
Q 46.390625 10.890625 44.9375 7.984375 
Q 43.5 5.078125 40.765625 3.09375 
Q 38.03125 1.125 34.046875 0.0625 
Q 30.078125 -0.984375 24.953125 -0.984375 
Q 20.359375 -0.984375 16.671875 -0.265625 
Q 12.984375 0.4375 10.203125 2 
Q 7.421875 3.5625 5.53125 6.125 
Q 3.65625 8.6875 2.78125 12.40625 
L 10.546875 13.921875 
Q 11.671875 9.671875 15.1875 7.6875 
Q 18.703125 5.71875 24.953125 5.71875 
Q 27.78125 5.71875 30.140625 6.109375 
Q 32.515625 6.5 34.21875 7.453125 
Q 35.9375 8.40625 36.890625 9.984375 
Q 37.84375 11.578125 37.84375 13.921875 
Q 37.84375 16.3125 36.71875 17.84375 
Q 35.59375 19.390625 33.59375 20.40625 
Q 31.59375 21.4375 28.734375 22.1875 
Q 25.875 22.953125 22.46875 23.875 
Q 19.28125 24.703125 16.15625 25.734375 
Q 13.03125 26.765625 10.515625 28.4375 
Q 8.015625 30.125 6.453125 32.609375 
Q 4.890625 35.109375 4.890625 38.875 
Q 4.890625 46.09375 10.03125 49.875 
Q 15.1875 53.65625 25.046875 53.65625 
Q 33.796875 53.65625 38.9375 50.578125 
Q 44.09375 47.515625 45.453125 40.71875 
L 37.546875 39.75 
Q 37.109375 41.796875 35.9375 43.1875 
Q 34.765625 44.578125 33.109375 45.4375 
Q 31.453125 46.296875 29.375 46.65625 
Q 27.296875 47.015625 25.046875 47.015625 
Q 19.09375 47.015625 16.25 45.203125 
Q 13.421875 43.40625 13.421875 39.75 
Q 13.421875 37.59375 14.46875 36.203125 
Q 15.53125 34.8125 17.40625 33.859375 
Q 19.28125 32.90625 21.921875 32.203125 
Q 24.5625 31.5 27.734375 30.71875 
Q 29.828125 30.171875 32.03125 29.5625 
Q 34.234375 28.953125 36.296875 28.09375 
Q 38.375 27.25 40.203125 26.09375 
Q 42.046875 24.953125 43.40625 23.34375 
Q 44.78125 21.734375 45.578125 19.578125 
Q 46.390625 17.4375 46.390625 14.59375 
z
" id="LiberationSans-73"/>
    </defs>
    <g style="fill:#262626;" transform="translate(204.057187 28.56)scale(0.12 -0.12)">
     <use xlink:href="#LiberationSans-43"/>
     <use x="72.216797" xlink:href="#LiberationSans-73"/>
     <use x="122.216797" xlink:href="#LiberationSans-31"/>
     <use x="177.832031" xlink:href="#LiberationSans-33"/>
     <use x="233.447266" xlink:href="#LiberationSans-37"/>
    </g>
   </g>
   <g id="legend_1">
    <g id="line2d_35">
     <path d="M 336.239062 47.306875 
L 356.239062 47.306875 
" style="fill:none;stroke:#4c72b0;stroke-linecap:round;stroke-width:1.75;"/>
    </g>
    <g id="line2d_36"/>
    <g id="text_19">
     <!-- vac -->
     <defs>
      <path d="M 29.9375 0 
L 19.53125 0 
L 0.34375 52.828125 
L 9.71875 52.828125 
L 21.34375 18.453125 
Q 21.6875 17.390625 22.140625 15.84375 
Q 22.609375 14.3125 23.09375 12.640625 
Q 23.578125 10.984375 24 9.4375 
Q 24.421875 7.90625 24.703125 6.890625 
Q 25 7.90625 25.453125 9.4375 
Q 25.921875 10.984375 26.40625 12.59375 
Q 26.90625 14.203125 27.421875 15.734375 
Q 27.9375 17.28125 28.328125 18.359375 
L 40.328125 52.828125 
L 49.65625 52.828125 
z
" id="LiberationSans-76"/>
      <path d="M 20.21875 -0.984375 
Q 12.25 -0.984375 8.25 3.21875 
Q 4.25 7.421875 4.25 14.75 
Q 4.25 19.96875 6.21875 23.3125 
Q 8.203125 26.65625 11.390625 28.5625 
Q 14.59375 30.46875 18.6875 31.203125 
Q 22.796875 31.9375 27.046875 32.03125 
L 38.921875 32.234375 
L 38.921875 35.109375 
Q 38.921875 38.375 38.234375 40.671875 
Q 37.546875 42.96875 36.125 44.375 
Q 34.71875 45.796875 32.59375 46.453125 
Q 30.46875 47.125 27.59375 47.125 
Q 25.046875 47.125 23 46.75 
Q 20.953125 46.390625 19.4375 45.4375 
Q 17.921875 44.484375 16.984375 42.84375 
Q 16.0625 41.21875 15.765625 38.71875 
L 6.59375 39.546875 
Q 7.078125 42.671875 8.4375 45.28125 
Q 9.8125 47.90625 12.328125 49.796875 
Q 14.84375 51.703125 18.625 52.75 
Q 22.40625 53.8125 27.78125 53.8125 
Q 37.75 53.8125 42.765625 49.234375 
Q 47.796875 44.671875 47.796875 36.03125 
L 47.796875 13.28125 
Q 47.796875 9.375 48.828125 7.390625 
Q 49.859375 5.421875 52.734375 5.421875 
Q 53.46875 5.421875 54.203125 5.515625 
Q 54.9375 5.609375 55.609375 5.765625 
L 55.609375 0.296875 
Q 53.953125 -0.09375 52.3125 -0.28125 
Q 50.6875 -0.484375 48.828125 -0.484375 
Q 46.34375 -0.484375 44.5625 0.171875 
Q 42.78125 0.828125 41.65625 2.171875 
Q 40.53125 3.515625 39.9375 5.484375 
Q 39.359375 7.46875 39.203125 10.109375 
L 38.921875 10.109375 
Q 37.5 7.5625 35.8125 5.515625 
Q 34.125 3.46875 31.875 2.03125 
Q 29.640625 0.59375 26.78125 -0.1875 
Q 23.921875 -0.984375 20.21875 -0.984375 
z
M 22.21875 5.609375 
Q 26.421875 5.609375 29.5625 7.140625 
Q 32.71875 8.6875 34.78125 11.078125 
Q 36.859375 13.484375 37.890625 16.3125 
Q 38.921875 19.140625 38.921875 21.734375 
L 38.921875 26.078125 
L 29.296875 25.875 
Q 26.078125 25.828125 23.171875 25.40625 
Q 20.265625 25 18.0625 23.78125 
Q 15.875 22.5625 14.578125 20.359375 
Q 13.28125 18.171875 13.28125 14.59375 
Q 13.28125 10.296875 15.59375 7.953125 
Q 17.921875 5.609375 22.21875 5.609375 
z
" id="LiberationSans-61"/>
      <path d="M 13.421875 26.65625 
Q 13.421875 22.125 14.078125 18.3125 
Q 14.75 14.5 16.3125 11.734375 
Q 17.875 8.984375 20.4375 7.46875 
Q 23 5.953125 26.765625 5.953125 
Q 31.453125 5.953125 34.59375 8.484375 
Q 37.75 11.03125 38.484375 16.3125 
L 47.359375 15.71875 
Q 46.921875 12.453125 45.453125 9.421875 
Q 44 6.390625 41.484375 4.09375 
Q 38.96875 1.8125 35.34375 0.40625 
Q 31.734375 -0.984375 27 -0.984375 
Q 20.796875 -0.984375 16.453125 1.109375 
Q 12.109375 3.21875 9.390625 6.90625 
Q 6.6875 10.59375 5.46875 15.59375 
Q 4.25 20.609375 4.25 26.46875 
Q 4.25 31.78125 5.125 35.859375 
Q 6 39.9375 7.59375 42.984375 
Q 9.1875 46.046875 11.328125 48.125 
Q 13.484375 50.203125 15.984375 51.4375 
Q 18.5 52.6875 21.28125 53.25 
Q 24.078125 53.8125 26.90625 53.8125 
Q 31.34375 53.8125 34.8125 52.59375 
Q 38.28125 51.375 40.796875 49.25 
Q 43.3125 47.125 44.875 44.234375 
Q 46.4375 41.359375 47.078125 38.03125 
L 38.03125 37.359375 
Q 37.359375 41.75 34.5625 44.328125 
Q 31.78125 46.921875 26.65625 46.921875 
Q 22.90625 46.921875 20.390625 45.671875 
Q 17.875 44.4375 16.3125 41.921875 
Q 14.75 39.40625 14.078125 35.59375 
Q 13.421875 31.78125 13.421875 26.65625 
z
" id="LiberationSans-63"/>
     </defs>
     <g style="fill:#262626;" transform="translate(364.239062 50.806875)scale(0.1 -0.1)">
      <use xlink:href="#LiberationSans-76"/>
      <use x="50" xlink:href="#LiberationSans-61"/>
      <use x="105.615234" xlink:href="#LiberationSans-63"/>
     </g>
    </g>
    <g id="line2d_37">
     <path d="M 336.239062 61.62875 
L 356.239062 61.62875 
" style="fill:none;stroke:#55a868;stroke-linecap:round;stroke-width:1.75;"/>
    </g>
    <g id="line2d_38"/>
    <g id="text_20">
     <!-- al -->
     <defs>
      <path d="M 6.734375 0 
L 6.734375 72.46875 
L 15.53125 72.46875 
L 15.53125 0 
z
" id="LiberationSans-6c"/>
     </defs>
     <g style="fill:#262626;" transform="translate(364.239062 65.12875)scale(0.1 -0.1)">
      <use xlink:href="#LiberationSans-61"/>
      <use x="55.615234" xlink:href="#LiberationSans-6c"/>
     </g>
    </g>
   </g>
  </g>
 </g>
 <defs>
  <clipPath id="pc7dafef2a7">
   <rect height="217.44" width="334.8" x="54" y="34.56"/>
  </clipPath>
 </defs>
</svg>
