<?xml version="1.0" encoding="utf-8" standalone="no"?>
<!DOCTYPE svg PUBLIC "-//W3C//DTD SVG 1.1//EN"
  "http://www.w3.org/Graphics/SVG/1.1/DTD/svg11.dtd">
<!-- Created with matplotlib (http://matplotlib.org/) -->
<svg height="288pt" version="1.1" viewBox="0 0 432 288" width="432pt" xmlns="http://www.w3.org/2000/svg" xmlns:xlink="http://www.w3.org/1999/xlink">
 <defs>
  <style type="text/css">
*{stroke-linecap:butt;stroke-linejoin:round;}
  </style>
 </defs>
 <g id="figure_1">
  <g id="patch_1">
   <path d="M 0 288 
L 432 288 
L 432 0 
L 0 0 
z
" style="fill:#ffffff;"/>
  </g>
  <g id="axes_1">
   <g id="patch_2">
    <path d="M 54 252 
L 388.8 252 
L 388.8 34.56 
L 54 34.56 
z
" style="fill:#eaeaf2;"/>
   </g>
   <g id="matplotlib.axis_1">
    <g id="xtick_1">
     <g id="line2d_1">
      <path clip-path="url(#pc0c439506f)" d="M 54 252 
L 54 34.56 
" style="fill:none;stroke:#ffffff;stroke-linecap:round;"/>
     </g>
     <g id="line2d_2"/>
     <g id="text_1">
      <!-- 10 -->
      <defs>
       <path d="M 7.625 0 
L 7.625 7.46875 
L 25.140625 7.46875 
L 25.140625 60.40625 
L 9.625 49.3125 
L 9.625 57.625 
L 25.875 68.796875 
L 33.984375 68.796875 
L 33.984375 7.46875 
L 50.734375 7.46875 
L 50.734375 0 
z
" id="LiberationSans-31"/>
       <path d="M 51.703125 34.421875 
Q 51.703125 24.515625 49.828125 17.75 
Q 47.953125 10.984375 44.703125 6.8125 
Q 41.453125 2.640625 37.0625 0.828125 
Q 32.671875 -0.984375 27.6875 -0.984375 
Q 22.65625 -0.984375 18.3125 0.828125 
Q 13.96875 2.640625 10.765625 6.78125 
Q 7.5625 10.9375 5.734375 17.703125 
Q 3.90625 24.46875 3.90625 34.421875 
Q 3.90625 44.828125 5.734375 51.640625 
Q 7.5625 58.453125 10.78125 62.5 
Q 14.015625 66.546875 18.40625 68.1875 
Q 22.796875 69.828125 27.984375 69.828125 
Q 32.90625 69.828125 37.21875 68.1875 
Q 41.546875 66.546875 44.765625 62.5 
Q 48 58.453125 49.84375 51.640625 
Q 51.703125 44.828125 51.703125 34.421875 
z
M 42.78125 34.421875 
Q 42.78125 42.625 41.796875 48.0625 
Q 40.828125 53.515625 38.921875 56.765625 
Q 37.015625 60.015625 34.25 61.359375 
Q 31.5 62.703125 27.984375 62.703125 
Q 24.265625 62.703125 21.4375 61.328125 
Q 18.609375 59.96875 16.671875 56.71875 
Q 14.75 53.46875 13.765625 48.015625 
Q 12.796875 42.578125 12.796875 34.421875 
Q 12.796875 26.515625 13.796875 21.09375 
Q 14.796875 15.671875 16.71875 12.375 
Q 18.65625 9.078125 21.4375 7.640625 
Q 24.21875 6.203125 27.78125 6.203125 
Q 31.25 6.203125 34.03125 7.640625 
Q 36.8125 9.078125 38.734375 12.375 
Q 40.671875 15.671875 41.71875 21.09375 
Q 42.78125 26.515625 42.78125 34.421875 
z
" id="LiberationSans-30"/>
      </defs>
      <g style="fill:#262626;" transform="translate(48.439062 266.246875)scale(0.1 -0.1)">
       <use xlink:href="#LiberationSans-31"/>
       <use x="55.615234" xlink:href="#LiberationSans-30"/>
      </g>
     </g>
    </g>
    <g id="xtick_2">
     <g id="line2d_3">
      <path clip-path="url(#pc0c439506f)" d="M 91.2 252 
L 91.2 34.56 
" style="fill:none;stroke:#ffffff;stroke-linecap:round;"/>
     </g>
     <g id="line2d_4"/>
     <g id="text_2">
      <!-- 20 -->
      <defs>
       <path d="M 5.03125 0 
L 5.03125 6.203125 
Q 7.515625 11.921875 11.109375 16.28125 
Q 14.703125 20.65625 18.65625 24.1875 
Q 22.609375 27.734375 26.484375 30.765625 
Q 30.375 33.796875 33.5 36.8125 
Q 36.625 39.84375 38.546875 43.15625 
Q 40.484375 46.484375 40.484375 50.6875 
Q 40.484375 53.609375 39.59375 55.828125 
Q 38.71875 58.0625 37.0625 59.5625 
Q 35.40625 61.078125 33.078125 61.828125 
Q 30.765625 62.59375 27.9375 62.59375 
Q 25.296875 62.59375 22.96875 61.859375 
Q 20.65625 61.140625 18.84375 59.671875 
Q 17.046875 58.203125 15.890625 56.03125 
Q 14.75 53.859375 14.40625 50.984375 
L 5.421875 51.8125 
Q 5.859375 55.515625 7.46875 58.78125 
Q 9.078125 62.0625 11.90625 64.53125 
Q 14.75 67 18.71875 68.40625 
Q 22.703125 69.828125 27.9375 69.828125 
Q 33.0625 69.828125 37.0625 68.609375 
Q 41.0625 67.390625 43.8125 64.984375 
Q 46.578125 62.59375 48.046875 59.078125 
Q 49.515625 55.5625 49.515625 50.984375 
Q 49.515625 47.515625 48.265625 44.390625 
Q 47.015625 41.265625 44.9375 38.421875 
Q 42.875 35.59375 40.140625 32.953125 
Q 37.40625 30.328125 34.421875 27.8125 
Q 31.453125 25.296875 28.421875 22.828125 
Q 25.390625 20.359375 22.71875 17.859375 
Q 20.0625 15.375 17.96875 12.8125 
Q 15.875 10.25 14.703125 7.46875 
L 50.59375 7.46875 
L 50.59375 0 
z
" id="LiberationSans-32"/>
      </defs>
      <g style="fill:#262626;" transform="translate(85.639063 266.246875)scale(0.1 -0.1)">
       <use xlink:href="#LiberationSans-32"/>
       <use x="55.615234" xlink:href="#LiberationSans-30"/>
      </g>
     </g>
    </g>
    <g id="xtick_3">
     <g id="line2d_5">
      <path clip-path="url(#pc0c439506f)" d="M 128.4 252 
L 128.4 34.56 
" style="fill:none;stroke:#ffffff;stroke-linecap:round;"/>
     </g>
     <g id="line2d_6"/>
     <g id="text_3">
      <!-- 30 -->
      <defs>
       <path d="M 51.21875 19 
Q 51.21875 14.265625 49.671875 10.546875 
Q 48.140625 6.84375 45.1875 4.265625 
Q 42.234375 1.703125 37.859375 0.359375 
Q 33.5 -0.984375 27.875 -0.984375 
Q 21.484375 -0.984375 17.109375 0.609375 
Q 12.75 2.203125 9.90625 4.8125 
Q 7.078125 7.421875 5.65625 10.765625 
Q 4.25 14.109375 3.8125 17.671875 
L 12.890625 18.5 
Q 13.28125 15.765625 14.328125 13.515625 
Q 15.375 11.28125 17.1875 9.671875 
Q 19 8.0625 21.625 7.171875 
Q 24.265625 6.296875 27.875 6.296875 
Q 34.515625 6.296875 38.296875 9.5625 
Q 42.09375 12.84375 42.09375 19.28125 
Q 42.09375 23.09375 40.40625 25.40625 
Q 38.71875 27.734375 36.203125 29.03125 
Q 33.6875 30.328125 30.734375 30.765625 
Q 27.78125 31.203125 25.296875 31.203125 
L 20.3125 31.203125 
L 20.3125 38.8125 
L 25.09375 38.8125 
Q 27.59375 38.8125 30.265625 39.328125 
Q 32.953125 39.84375 35.171875 41.1875 
Q 37.40625 42.53125 38.84375 44.828125 
Q 40.28125 47.125 40.28125 50.6875 
Q 40.28125 56.203125 37.03125 59.390625 
Q 33.796875 62.59375 27.390625 62.59375 
Q 21.578125 62.59375 17.984375 59.609375 
Q 14.40625 56.640625 13.8125 51.21875 
L 4.984375 51.90625 
Q 5.515625 56.453125 7.46875 59.8125 
Q 9.421875 63.1875 12.421875 65.40625 
Q 15.4375 67.625 19.28125 68.71875 
Q 23.140625 69.828125 27.484375 69.828125 
Q 33.25 69.828125 37.390625 68.375 
Q 41.546875 66.9375 44.1875 64.46875 
Q 46.828125 62.015625 48.0625 58.6875 
Q 49.3125 55.375 49.3125 51.609375 
Q 49.3125 48.578125 48.484375 45.9375 
Q 47.65625 43.3125 45.890625 41.203125 
Q 44.140625 39.109375 41.421875 37.59375 
Q 38.71875 36.078125 34.90625 35.296875 
L 34.90625 35.109375 
Q 39.0625 34.671875 42.140625 33.21875 
Q 45.21875 31.78125 47.21875 29.625 
Q 49.21875 27.484375 50.21875 24.75 
Q 51.21875 22.015625 51.21875 19 
z
" id="LiberationSans-33"/>
      </defs>
      <g style="fill:#262626;" transform="translate(122.839063 266.246875)scale(0.1 -0.1)">
       <use xlink:href="#LiberationSans-33"/>
       <use x="55.615234" xlink:href="#LiberationSans-30"/>
      </g>
     </g>
    </g>
    <g id="xtick_4">
     <g id="line2d_7">
      <path clip-path="url(#pc0c439506f)" d="M 165.6 252 
L 165.6 34.56 
" style="fill:none;stroke:#ffffff;stroke-linecap:round;"/>
     </g>
     <g id="line2d_8"/>
     <g id="text_4">
      <!-- 40 -->
      <defs>
       <path d="M 43.015625 15.578125 
L 43.015625 0 
L 34.71875 0 
L 34.71875 15.578125 
L 2.296875 15.578125 
L 2.296875 22.40625 
L 33.796875 68.796875 
L 43.015625 68.796875 
L 43.015625 22.515625 
L 52.6875 22.515625 
L 52.6875 15.578125 
z
M 34.71875 58.890625 
Q 34.625 58.640625 34.234375 57.9375 
Q 33.84375 57.234375 33.34375 56.34375 
Q 32.859375 55.46875 32.34375 54.5625 
Q 31.84375 53.65625 31.453125 53.078125 
L 13.8125 27.09375 
Q 13.578125 26.703125 13.109375 26.0625 
Q 12.640625 25.4375 12.15625 24.78125 
Q 11.671875 24.125 11.171875 23.484375 
Q 10.6875 22.859375 10.40625 22.515625 
L 34.71875 22.515625 
z
" id="LiberationSans-34"/>
      </defs>
      <g style="fill:#262626;" transform="translate(160.039063 266.246875)scale(0.1 -0.1)">
       <use xlink:href="#LiberationSans-34"/>
       <use x="55.615234" xlink:href="#LiberationSans-30"/>
      </g>
     </g>
    </g>
    <g id="xtick_5">
     <g id="line2d_9">
      <path clip-path="url(#pc0c439506f)" d="M 202.8 252 
L 202.8 34.56 
" style="fill:none;stroke:#ffffff;stroke-linecap:round;"/>
     </g>
     <g id="line2d_10"/>
     <g id="text_5">
      <!-- 50 -->
      <defs>
       <path d="M 51.421875 22.40625 
Q 51.421875 17.234375 49.859375 12.9375 
Q 48.296875 8.640625 45.21875 5.53125 
Q 42.140625 2.4375 37.578125 0.71875 
Q 33.015625 -0.984375 27 -0.984375 
Q 21.578125 -0.984375 17.546875 0.28125 
Q 13.53125 1.5625 10.734375 3.78125 
Q 7.953125 6 6.3125 8.984375 
Q 4.6875 11.96875 4 15.375 
L 12.890625 16.40625 
Q 13.421875 14.453125 14.390625 12.625 
Q 15.375 10.796875 17.0625 9.34375 
Q 18.75 7.90625 21.21875 7.046875 
Q 23.6875 6.203125 27.203125 6.203125 
Q 30.609375 6.203125 33.390625 7.25 
Q 36.1875 8.296875 38.15625 10.34375 
Q 40.140625 12.40625 41.203125 15.375 
Q 42.28125 18.359375 42.28125 22.21875 
Q 42.28125 25.390625 41.25 28.046875 
Q 40.234375 30.71875 38.328125 32.640625 
Q 36.421875 34.578125 33.65625 35.640625 
Q 30.90625 36.71875 27.390625 36.71875 
Q 25.203125 36.71875 23.34375 36.328125 
Q 21.484375 35.9375 19.890625 35.25 
Q 18.3125 34.578125 17.015625 33.671875 
Q 15.71875 32.765625 14.59375 31.78125 
L 6 31.78125 
L 8.296875 68.796875 
L 47.40625 68.796875 
L 47.40625 61.328125 
L 16.3125 61.328125 
L 14.984375 39.5 
Q 17.328125 41.3125 20.84375 42.59375 
Q 24.359375 43.890625 29.203125 43.890625 
Q 34.328125 43.890625 38.421875 42.328125 
Q 42.53125 40.765625 45.40625 37.90625 
Q 48.296875 35.0625 49.859375 31.109375 
Q 51.421875 27.15625 51.421875 22.40625 
z
" id="LiberationSans-35"/>
      </defs>
      <g style="fill:#262626;" transform="translate(197.239063 266.246875)scale(0.1 -0.1)">
       <use xlink:href="#LiberationSans-35"/>
       <use x="55.615234" xlink:href="#LiberationSans-30"/>
      </g>
     </g>
    </g>
    <g id="xtick_6">
     <g id="line2d_11">
      <path clip-path="url(#pc0c439506f)" d="M 240 252 
L 240 34.56 
" style="fill:none;stroke:#ffffff;stroke-linecap:round;"/>
     </g>
     <g id="line2d_12"/>
     <g id="text_6">
      <!-- 60 -->
      <defs>
       <path d="M 51.21875 22.515625 
Q 51.21875 17.328125 49.78125 13 
Q 48.34375 8.6875 45.53125 5.578125 
Q 42.71875 2.484375 38.5625 0.75 
Q 34.421875 -0.984375 29 -0.984375 
Q 23 -0.984375 18.5 1.3125 
Q 14.015625 3.609375 11.03125 7.921875 
Q 8.0625 12.25 6.5625 18.53125 
Q 5.078125 24.8125 5.078125 32.8125 
Q 5.078125 42 6.765625 48.921875 
Q 8.453125 55.859375 11.625 60.5 
Q 14.796875 65.140625 19.359375 67.484375 
Q 23.921875 69.828125 29.6875 69.828125 
Q 33.203125 69.828125 36.28125 69.09375 
Q 39.359375 68.359375 41.875 66.71875 
Q 44.390625 65.09375 46.28125 62.40625 
Q 48.1875 59.71875 49.3125 55.8125 
L 40.921875 54.296875 
Q 39.546875 58.734375 36.546875 60.71875 
Q 33.546875 62.703125 29.59375 62.703125 
Q 25.984375 62.703125 23.046875 60.984375 
Q 20.125 59.28125 18.0625 55.875 
Q 16.015625 52.484375 14.90625 47.359375 
Q 13.8125 42.234375 13.8125 35.40625 
Q 16.21875 39.84375 20.5625 42.15625 
Q 24.90625 44.484375 30.515625 44.484375 
Q 35.203125 44.484375 39.015625 42.96875 
Q 42.828125 41.453125 45.53125 38.59375 
Q 48.25 35.75 49.734375 31.671875 
Q 51.21875 27.59375 51.21875 22.515625 
z
M 42.28125 22.125 
Q 42.28125 25.6875 41.40625 28.5625 
Q 40.53125 31.453125 38.765625 33.46875 
Q 37.015625 35.5 34.421875 36.59375 
Q 31.84375 37.703125 28.421875 37.703125 
Q 26.03125 37.703125 23.578125 36.984375 
Q 21.140625 36.28125 19.15625 34.6875 
Q 17.1875 33.109375 15.9375 30.515625 
Q 14.703125 27.9375 14.703125 24.21875 
Q 14.703125 20.40625 15.671875 17.109375 
Q 16.65625 13.8125 18.484375 11.375 
Q 20.3125 8.9375 22.890625 7.515625 
Q 25.484375 6.109375 28.71875 6.109375 
Q 31.890625 6.109375 34.40625 7.203125 
Q 36.921875 8.296875 38.671875 10.375 
Q 40.4375 12.453125 41.359375 15.421875 
Q 42.28125 18.40625 42.28125 22.125 
z
" id="LiberationSans-36"/>
      </defs>
      <g style="fill:#262626;" transform="translate(234.439063 266.246875)scale(0.1 -0.1)">
       <use xlink:href="#LiberationSans-36"/>
       <use x="55.615234" xlink:href="#LiberationSans-30"/>
      </g>
     </g>
    </g>
    <g id="xtick_7">
     <g id="line2d_13">
      <path clip-path="url(#pc0c439506f)" d="M 277.2 252 
L 277.2 34.56 
" style="fill:none;stroke:#ffffff;stroke-linecap:round;"/>
     </g>
     <g id="line2d_14"/>
     <g id="text_7">
      <!-- 70 -->
      <defs>
       <path d="M 50.59375 61.671875 
Q 45.40625 53.765625 41.0625 46.453125 
Q 36.71875 39.15625 33.59375 31.75 
Q 30.46875 24.359375 28.734375 16.578125 
Q 27 8.796875 27 0 
L 17.828125 0 
Q 17.828125 8.25 19.78125 16.1875 
Q 21.734375 24.125 25.046875 31.765625 
Q 28.375 39.40625 32.765625 46.78125 
Q 37.15625 54.15625 42.09375 61.328125 
L 5.125 61.328125 
L 5.125 68.796875 
L 50.59375 68.796875 
z
" id="LiberationSans-37"/>
      </defs>
      <g style="fill:#262626;" transform="translate(271.639063 266.246875)scale(0.1 -0.1)">
       <use xlink:href="#LiberationSans-37"/>
       <use x="55.615234" xlink:href="#LiberationSans-30"/>
      </g>
     </g>
    </g>
    <g id="xtick_8">
     <g id="line2d_15">
      <path clip-path="url(#pc0c439506f)" d="M 314.4 252 
L 314.4 34.56 
" style="fill:none;stroke:#ffffff;stroke-linecap:round;"/>
     </g>
     <g id="line2d_16"/>
     <g id="text_8">
      <!-- 80 -->
      <defs>
       <path d="M 51.265625 19.1875 
Q 51.265625 14.796875 49.875 11.109375 
Q 48.484375 7.421875 45.625 4.734375 
Q 42.78125 2.046875 38.328125 0.53125 
Q 33.890625 -0.984375 27.828125 -0.984375 
Q 21.78125 -0.984375 17.359375 0.53125 
Q 12.9375 2.046875 10.03125 4.703125 
Q 7.125 7.375 5.734375 11.0625 
Q 4.34375 14.75 4.34375 19.09375 
Q 4.34375 22.859375 5.484375 25.78125 
Q 6.640625 28.71875 8.5625 30.828125 
Q 10.5 32.953125 12.96875 34.25 
Q 15.4375 35.546875 18.0625 35.984375 
L 18.0625 36.1875 
Q 15.1875 36.859375 12.90625 38.375 
Q 10.640625 39.890625 9.09375 42.015625 
Q 7.5625 44.140625 6.75 46.71875 
Q 5.953125 49.3125 5.953125 52.203125 
Q 5.953125 55.8125 7.34375 59 
Q 8.734375 62.203125 11.46875 64.625 
Q 14.203125 67.046875 18.25 68.4375 
Q 22.3125 69.828125 27.640625 69.828125 
Q 33.25 69.828125 37.375 68.40625 
Q 41.5 67 44.203125 64.578125 
Q 46.921875 62.15625 48.234375 58.9375 
Q 49.5625 55.71875 49.5625 52.09375 
Q 49.5625 49.265625 48.75 46.671875 
Q 47.953125 44.09375 46.40625 41.96875 
Q 44.875 39.84375 42.59375 38.34375 
Q 40.328125 36.859375 37.359375 36.28125 
L 37.359375 36.078125 
Q 40.328125 35.59375 42.859375 34.296875 
Q 45.40625 33.015625 47.265625 30.890625 
Q 49.125 28.765625 50.1875 25.828125 
Q 51.265625 22.90625 51.265625 19.1875 
z
M 40.4375 51.609375 
Q 40.4375 54.203125 39.765625 56.34375 
Q 39.109375 58.5 37.59375 60.03125 
Q 36.078125 61.578125 33.640625 62.421875 
Q 31.203125 63.28125 27.640625 63.28125 
Q 24.171875 63.28125 21.78125 62.421875 
Q 19.390625 61.578125 17.84375 60.03125 
Q 16.3125 58.5 15.625 56.34375 
Q 14.9375 54.203125 14.9375 51.609375 
Q 14.9375 49.5625 15.46875 47.40625 
Q 16.015625 45.265625 17.421875 43.5 
Q 18.84375 41.75 21.328125 40.625 
Q 23.828125 39.5 27.734375 39.5 
Q 31.890625 39.5 34.40625 40.625 
Q 36.921875 41.75 38.25 43.5 
Q 39.59375 45.265625 40.015625 47.40625 
Q 40.4375 49.5625 40.4375 51.609375 
z
M 42.140625 20.015625 
Q 42.140625 22.515625 41.453125 24.828125 
Q 40.765625 27.15625 39.109375 28.9375 
Q 37.453125 30.71875 34.640625 31.8125 
Q 31.84375 32.90625 27.640625 32.90625 
Q 23.78125 32.90625 21.0625 31.8125 
Q 18.359375 30.71875 16.671875 28.90625 
Q 14.984375 27.09375 14.203125 24.71875 
Q 13.421875 22.359375 13.421875 19.828125 
Q 13.421875 16.65625 14.203125 14.03125 
Q 14.984375 11.421875 16.6875 9.546875 
Q 18.40625 7.671875 21.1875 6.640625 
Q 23.96875 5.609375 27.9375 5.609375 
Q 31.9375 5.609375 34.671875 6.640625 
Q 37.40625 7.671875 39.0625 9.546875 
Q 40.71875 11.421875 41.421875 14.078125 
Q 42.140625 16.75 42.140625 20.015625 
z
" id="LiberationSans-38"/>
      </defs>
      <g style="fill:#262626;" transform="translate(308.839063 266.246875)scale(0.1 -0.1)">
       <use xlink:href="#LiberationSans-38"/>
       <use x="55.615234" xlink:href="#LiberationSans-30"/>
      </g>
     </g>
    </g>
    <g id="xtick_9">
     <g id="line2d_17">
      <path clip-path="url(#pc0c439506f)" d="M 351.6 252 
L 351.6 34.56 
" style="fill:none;stroke:#ffffff;stroke-linecap:round;"/>
     </g>
     <g id="line2d_18"/>
     <g id="text_9">
      <!-- 90 -->
      <defs>
       <path d="M 50.875 35.796875 
Q 50.875 26.609375 49.140625 19.703125 
Q 47.40625 12.796875 44.1875 8.203125 
Q 40.96875 3.609375 36.34375 1.3125 
Q 31.734375 -0.984375 25.984375 -0.984375 
Q 22.015625 -0.984375 18.84375 -0.171875 
Q 15.671875 0.640625 13.171875 2.34375 
Q 10.6875 4.046875 8.921875 6.78125 
Q 7.171875 9.515625 6.109375 13.375 
L 14.5 14.703125 
Q 15.875 10.25 18.78125 8.171875 
Q 21.6875 6.109375 26.125 6.109375 
Q 29.6875 6.109375 32.640625 7.78125 
Q 35.59375 9.46875 37.671875 12.84375 
Q 39.75 16.21875 40.921875 21.296875 
Q 42.09375 26.375 42.1875 33.203125 
Q 41.15625 30.90625 39.375 29.09375 
Q 37.59375 27.296875 35.328125 26.046875 
Q 33.0625 24.8125 30.421875 24.140625 
Q 27.78125 23.484375 25.09375 23.484375 
Q 20.40625 23.484375 16.625 25.171875 
Q 12.84375 26.859375 10.203125 29.875 
Q 7.5625 32.90625 6.125 37.171875 
Q 4.6875 41.453125 4.6875 46.6875 
Q 4.6875 52 6.21875 56.296875 
Q 7.765625 60.59375 10.6875 63.59375 
Q 13.625 66.609375 17.890625 68.21875 
Q 22.171875 69.828125 27.59375 69.828125 
Q 39.0625 69.828125 44.96875 61.328125 
Q 50.875 52.828125 50.875 35.796875 
z
M 41.3125 44.28125 
Q 41.3125 48.09375 40.40625 51.453125 
Q 39.5 54.828125 37.71875 57.3125 
Q 35.9375 59.8125 33.328125 61.25 
Q 30.71875 62.703125 27.296875 62.703125 
Q 24.125 62.703125 21.578125 61.578125 
Q 19.046875 60.453125 17.28125 58.375 
Q 15.53125 56.296875 14.578125 53.3125 
Q 13.625 50.34375 13.625 46.6875 
Q 13.625 43.21875 14.46875 40.234375 
Q 15.328125 37.25 17.03125 35.078125 
Q 18.75 32.90625 21.28125 31.65625 
Q 23.828125 30.421875 27.203125 30.421875 
Q 29.640625 30.421875 32.15625 31.25 
Q 34.671875 32.078125 36.6875 33.78125 
Q 38.71875 35.5 40.015625 38.109375 
Q 41.3125 40.71875 41.3125 44.28125 
z
" id="LiberationSans-39"/>
      </defs>
      <g style="fill:#262626;" transform="translate(346.039062 266.246875)scale(0.1 -0.1)">
       <use xlink:href="#LiberationSans-39"/>
       <use x="55.615234" xlink:href="#LiberationSans-30"/>
      </g>
     </g>
    </g>
    <g id="xtick_10">
     <g id="line2d_19">
      <path clip-path="url(#pc0c439506f)" d="M 388.8 252 
L 388.8 34.56 
" style="fill:none;stroke:#ffffff;stroke-linecap:round;"/>
     </g>
     <g id="line2d_20"/>
     <g id="text_10">
      <!-- 100 -->
      <g style="fill:#262626;" transform="translate(380.458594 266.246875)scale(0.1 -0.1)">
       <use xlink:href="#LiberationSans-31"/>
       <use x="55.615234" xlink:href="#LiberationSans-30"/>
       <use x="111.230469" xlink:href="#LiberationSans-30"/>
      </g>
     </g>
    </g>
    <g id="text_11">
     <!-- Energy (keV) -->
     <defs>
      <path d="M 8.203125 0 
L 8.203125 68.796875 
L 60.40625 68.796875 
L 60.40625 61.1875 
L 17.53125 61.1875 
L 17.53125 39.109375 
L 57.46875 39.109375 
L 57.46875 31.59375 
L 17.53125 31.59375 
L 17.53125 7.625 
L 62.40625 7.625 
L 62.40625 0 
z
" id="LiberationSans-45"/>
      <path d="M 40.28125 0 
L 40.28125 33.5 
Q 40.28125 37.359375 39.71875 39.9375 
Q 39.15625 42.53125 37.890625 44.109375 
Q 36.625 45.703125 34.546875 46.359375 
Q 32.46875 47.015625 29.390625 47.015625 
Q 26.265625 47.015625 23.75 45.921875 
Q 21.234375 44.828125 19.453125 42.75 
Q 17.671875 40.671875 16.6875 37.625 
Q 15.71875 34.578125 15.71875 30.609375 
L 15.71875 0 
L 6.9375 0 
L 6.9375 41.546875 
Q 6.9375 43.21875 6.90625 45.046875 
Q 6.890625 46.875 6.828125 48.5 
Q 6.78125 50.140625 6.734375 51.3125 
Q 6.6875 52.484375 6.640625 52.828125 
L 14.9375 52.828125 
Q 14.984375 52.59375 15.03125 51.515625 
Q 15.09375 50.4375 15.15625 49.046875 
Q 15.234375 47.65625 15.28125 46.21875 
Q 15.328125 44.78125 15.328125 43.796875 
L 15.484375 43.796875 
Q 16.75 46.09375 18.265625 47.953125 
Q 19.78125 49.8125 21.78125 51.09375 
Q 23.78125 52.390625 26.359375 53.09375 
Q 28.953125 53.8125 32.375 53.8125 
Q 36.765625 53.8125 39.9375 52.734375 
Q 43.109375 51.65625 45.15625 49.40625 
Q 47.21875 47.171875 48.171875 43.625 
Q 49.125 40.09375 49.125 35.203125 
L 49.125 0 
z
" id="LiberationSans-6e"/>
      <path d="M 13.484375 24.5625 
Q 13.484375 20.40625 14.328125 16.90625 
Q 15.1875 13.421875 16.96875 10.90625 
Q 18.75 8.40625 21.53125 7 
Q 24.3125 5.609375 28.21875 5.609375 
Q 33.9375 5.609375 37.375 7.90625 
Q 40.828125 10.203125 42.046875 13.71875 
L 49.75 11.53125 
Q 48.921875 9.328125 47.4375 7.109375 
Q 45.953125 4.890625 43.453125 3.09375 
Q 40.96875 1.3125 37.234375 0.15625 
Q 33.5 -0.984375 28.21875 -0.984375 
Q 16.5 -0.984375 10.375 6 
Q 4.25 12.984375 4.25 26.765625 
Q 4.25 34.1875 6.09375 39.328125 
Q 7.953125 44.484375 11.171875 47.703125 
Q 14.40625 50.921875 18.703125 52.359375 
Q 23 53.8125 27.875 53.8125 
Q 34.515625 53.8125 38.984375 51.65625 
Q 43.453125 49.515625 46.15625 45.71875 
Q 48.875 41.9375 50.015625 36.8125 
Q 51.171875 31.6875 51.171875 25.734375 
L 51.171875 24.5625 
z
M 42.09375 31.296875 
Q 41.359375 39.65625 37.84375 43.484375 
Q 34.328125 47.3125 27.734375 47.3125 
Q 25.53125 47.3125 23.109375 46.609375 
Q 20.703125 45.90625 18.65625 44.09375 
Q 16.609375 42.28125 15.1875 39.171875 
Q 13.765625 36.078125 13.578125 31.296875 
z
" id="LiberationSans-65"/>
      <path d="M 6.9375 0 
L 6.9375 40.53125 
Q 6.9375 42.1875 6.90625 43.921875 
Q 6.890625 45.65625 6.828125 47.265625 
Q 6.78125 48.875 6.734375 50.28125 
Q 6.6875 51.703125 6.640625 52.828125 
L 14.9375 52.828125 
Q 14.984375 51.703125 15.0625 50.265625 
Q 15.140625 48.828125 15.203125 47.3125 
Q 15.28125 45.796875 15.296875 44.40625 
Q 15.328125 43.015625 15.328125 42.046875 
L 15.53125 42.046875 
Q 16.453125 45.0625 17.5 47.28125 
Q 18.5625 49.515625 19.96875 50.953125 
Q 21.390625 52.390625 23.34375 53.09375 
Q 25.296875 53.8125 28.078125 53.8125 
Q 29.15625 53.8125 30.125 53.640625 
Q 31.109375 53.46875 31.640625 53.328125 
L 31.640625 45.265625 
Q 30.765625 45.515625 29.59375 45.625 
Q 28.421875 45.75 26.953125 45.75 
Q 23.921875 45.75 21.796875 44.375 
Q 19.671875 43.015625 18.328125 40.59375 
Q 17 38.1875 16.359375 34.84375 
Q 15.71875 31.5 15.71875 27.546875 
L 15.71875 0 
z
" id="LiberationSans-72"/>
      <path d="M 26.765625 -20.75 
Q 22.21875 -20.75 18.703125 -19.8125 
Q 15.1875 -18.890625 12.6875 -17.15625 
Q 10.203125 -15.4375 8.640625 -13.03125 
Q 7.078125 -10.640625 6.390625 -7.71875 
L 15.234375 -6.453125 
Q 16.109375 -10.109375 19.109375 -12.078125 
Q 22.125 -14.0625 27 -14.0625 
Q 29.984375 -14.0625 32.421875 -13.234375 
Q 34.859375 -12.40625 36.5625 -10.5625 
Q 38.28125 -8.734375 39.203125 -5.796875 
Q 40.140625 -2.875 40.140625 1.3125 
L 40.140625 9.8125 
L 40.046875 9.8125 
Q 39.0625 7.8125 37.625 5.984375 
Q 36.1875 4.15625 34.109375 2.734375 
Q 32.03125 1.3125 29.296875 0.453125 
Q 26.5625 -0.390625 23.046875 -0.390625 
Q 18.015625 -0.390625 14.421875 1.296875 
Q 10.84375 2.984375 8.5625 6.34375 
Q 6.296875 9.71875 5.25 14.71875 
Q 4.203125 19.734375 4.203125 26.3125 
Q 4.203125 32.671875 5.25 37.75 
Q 6.296875 42.828125 8.65625 46.359375 
Q 11.03125 49.90625 14.8125 51.78125 
Q 18.609375 53.65625 24.03125 53.65625 
Q 29.640625 53.65625 33.765625 51.09375 
Q 37.890625 48.53125 40.140625 43.796875 
L 40.234375 43.796875 
Q 40.234375 45.015625 40.296875 46.53125 
Q 40.375 48.046875 40.453125 49.390625 
Q 40.53125 50.734375 40.625 51.703125 
Q 40.71875 52.6875 40.828125 52.828125 
L 49.171875 52.828125 
Q 49.125 52.390625 49.078125 51.34375 
Q 49.03125 50.296875 48.96875 48.828125 
Q 48.921875 47.359375 48.890625 45.578125 
Q 48.875 43.796875 48.875 41.890625 
L 48.875 1.515625 
Q 48.875 -9.578125 43.421875 -15.15625 
Q 37.984375 -20.75 26.765625 -20.75 
z
M 40.140625 26.421875 
Q 40.140625 31.9375 38.9375 35.859375 
Q 37.75 39.796875 35.796875 42.28125 
Q 33.84375 44.78125 31.328125 45.953125 
Q 28.8125 47.125 26.171875 47.125 
Q 22.796875 47.125 20.375 45.953125 
Q 17.96875 44.78125 16.375 42.265625 
Q 14.796875 39.75 14.03125 35.8125 
Q 13.28125 31.890625 13.28125 26.421875 
Q 13.28125 20.703125 14.03125 16.8125 
Q 14.796875 12.9375 16.359375 10.546875 
Q 17.921875 8.15625 20.3125 7.125 
Q 22.703125 6.109375 26.03125 6.109375 
Q 28.65625 6.109375 31.171875 7.21875 
Q 33.6875 8.34375 35.6875 10.78125 
Q 37.703125 13.234375 38.921875 17.09375 
Q 40.140625 20.953125 40.140625 26.421875 
z
" id="LiberationSans-67"/>
      <path d="M 29.5 0 
Q 27.640625 -4.78125 25.703125 -8.609375 
Q 23.78125 -12.453125 21.390625 -15.15625 
Q 19 -17.875 16.0625 -19.3125 
Q 13.140625 -20.75 9.328125 -20.75 
Q 7.671875 -20.75 6.25 -20.65625 
Q 4.828125 -20.5625 3.265625 -20.21875 
L 3.265625 -13.625 
Q 4.203125 -13.765625 5.375 -13.84375 
Q 6.546875 -13.921875 7.375 -13.921875 
Q 11.234375 -13.921875 14.546875 -11.03125 
Q 17.875 -8.15625 20.359375 -1.859375 
L 21.1875 0.25 
L 0.25 52.828125 
L 9.625 52.828125 
L 20.75 23.640625 
Q 21.234375 22.3125 21.984375 20.109375 
Q 22.75 17.921875 23.5 15.71875 
Q 24.265625 13.53125 24.84375 11.765625 
Q 25.4375 10.015625 25.53125 9.578125 
Q 25.6875 10.109375 26.25 11.6875 
Q 26.8125 13.28125 27.515625 15.234375 
Q 28.21875 17.1875 28.953125 19.1875 
Q 29.6875 21.1875 30.171875 22.65625 
L 40.53125 52.828125 
L 49.8125 52.828125 
z
" id="LiberationSans-79"/>
      <path id="LiberationSans-20"/>
      <path d="M 6.203125 25.984375 
Q 6.203125 32.765625 7.21875 38.96875 
Q 8.25 45.171875 10.4375 50.875 
Q 12.640625 56.59375 16.0625 61.953125 
Q 19.484375 67.328125 24.21875 72.46875 
L 32.71875 72.46875 
Q 28.125 67.328125 24.78125 61.9375 
Q 21.4375 56.546875 19.28125 50.796875 
Q 17.140625 45.0625 16.09375 38.859375 
Q 15.046875 32.671875 15.046875 25.875 
Q 15.046875 19.09375 16.09375 12.890625 
Q 17.140625 6.6875 19.28125 0.921875 
Q 21.4375 -4.828125 24.78125 -10.203125 
Q 28.125 -15.578125 32.71875 -20.703125 
L 24.21875 -20.703125 
Q 19.484375 -15.578125 16.0625 -10.203125 
Q 12.640625 -4.828125 10.4375 0.875 
Q 8.25 6.59375 7.21875 12.765625 
Q 6.203125 18.953125 6.203125 25.78125 
z
" id="LiberationSans-28"/>
      <path d="M 39.84375 0 
L 21.96875 24.125 
L 15.53125 18.796875 
L 15.53125 0 
L 6.734375 0 
L 6.734375 72.46875 
L 15.53125 72.46875 
L 15.53125 27.203125 
L 38.71875 52.828125 
L 49.03125 52.828125 
L 27.59375 30.125 
L 50.140625 0 
z
" id="LiberationSans-6b"/>
      <path d="M 38.1875 0 
L 28.515625 0 
L 0.4375 68.796875 
L 10.25 68.796875 
L 29.296875 20.359375 
Q 30.03125 18.171875 30.765625 15.984375 
Q 31.5 13.8125 32.078125 12.109375 
Q 32.765625 10.109375 33.40625 8.203125 
Q 33.984375 10.015625 34.671875 12.015625 
Q 35.25 13.71875 35.953125 15.859375 
Q 36.671875 18.015625 37.5 20.359375 
L 56.453125 68.796875 
L 66.265625 68.796875 
z
" id="LiberationSans-56"/>
      <path d="M 27.09375 25.78125 
Q 27.09375 18.953125 26.0625 12.765625 
Q 25.046875 6.59375 22.84375 0.875 
Q 20.65625 -4.828125 17.234375 -10.203125 
Q 13.8125 -15.578125 9.078125 -20.703125 
L 0.59375 -20.703125 
Q 5.171875 -15.578125 8.515625 -10.203125 
Q 11.859375 -4.828125 14 0.921875 
Q 16.15625 6.6875 17.203125 12.890625 
Q 18.265625 19.09375 18.265625 25.875 
Q 18.265625 32.671875 17.203125 38.859375 
Q 16.15625 45.0625 14 50.796875 
Q 11.859375 56.546875 8.515625 61.9375 
Q 5.171875 67.328125 0.59375 72.46875 
L 9.078125 72.46875 
Q 13.8125 67.328125 17.234375 61.953125 
Q 20.65625 56.59375 22.84375 50.875 
Q 25.046875 45.171875 26.0625 38.96875 
Q 27.09375 32.765625 27.09375 25.984375 
z
" id="LiberationSans-29"/>
     </defs>
     <g style="fill:#262626;" transform="translate(189.306641 280.293437)scale(0.11 -0.11)">
      <use xlink:href="#LiberationSans-45"/>
      <use x="66.699219" xlink:href="#LiberationSans-6e"/>
      <use x="122.314453" xlink:href="#LiberationSans-65"/>
      <use x="177.929688" xlink:href="#LiberationSans-72"/>
      <use x="211.230469" xlink:href="#LiberationSans-67"/>
      <use x="266.845703" xlink:href="#LiberationSans-79"/>
      <use x="316.845703" xlink:href="#LiberationSans-20"/>
      <use x="344.628906" xlink:href="#LiberationSans-28"/>
      <use x="377.929688" xlink:href="#LiberationSans-6b"/>
      <use x="427.929688" xlink:href="#LiberationSans-65"/>
      <use x="483.544922" xlink:href="#LiberationSans-56"/>
      <use x="550.244141" xlink:href="#LiberationSans-29"/>
     </g>
    </g>
   </g>
   <g id="matplotlib.axis_2">
    <g id="ytick_1">
     <g id="line2d_21">
      <path clip-path="url(#pc0c439506f)" d="M 54 242.116364 
L 388.8 242.116364 
" style="fill:none;stroke:#ffffff;stroke-linecap:round;"/>
     </g>
     <g id="line2d_22"/>
     <g id="text_12">
      <!-- 0.0 -->
      <defs>
       <path d="M 9.125 0 
L 9.125 10.6875 
L 18.65625 10.6875 
L 18.65625 0 
z
" id="LiberationSans-2e"/>
      </defs>
      <g style="fill:#262626;" transform="translate(33.1 245.739801)scale(0.1 -0.1)">
       <use xlink:href="#LiberationSans-30"/>
       <use x="55.615234" xlink:href="#LiberationSans-2e"/>
       <use x="83.398438" xlink:href="#LiberationSans-30"/>
      </g>
     </g>
    </g>
    <g id="ytick_2">
     <g id="line2d_23">
      <path clip-path="url(#pc0c439506f)" d="M 54 202.581818 
L 388.8 202.581818 
" style="fill:none;stroke:#ffffff;stroke-linecap:round;"/>
     </g>
     <g id="line2d_24"/>
     <g id="text_13">
      <!-- 0.2 -->
      <g style="fill:#262626;" transform="translate(33.1 206.205256)scale(0.1 -0.1)">
       <use xlink:href="#LiberationSans-30"/>
       <use x="55.615234" xlink:href="#LiberationSans-2e"/>
       <use x="83.398438" xlink:href="#LiberationSans-32"/>
      </g>
     </g>
    </g>
    <g id="ytick_3">
     <g id="line2d_25">
      <path clip-path="url(#pc0c439506f)" d="M 54 163.047273 
L 388.8 163.047273 
" style="fill:none;stroke:#ffffff;stroke-linecap:round;"/>
     </g>
     <g id="line2d_26"/>
     <g id="text_14">
      <!-- 0.4 -->
      <g style="fill:#262626;" transform="translate(33.1 166.67071)scale(0.1 -0.1)">
       <use xlink:href="#LiberationSans-30"/>
       <use x="55.615234" xlink:href="#LiberationSans-2e"/>
       <use x="83.398438" xlink:href="#LiberationSans-34"/>
      </g>
     </g>
    </g>
    <g id="ytick_4">
     <g id="line2d_27">
      <path clip-path="url(#pc0c439506f)" d="M 54 123.512727 
L 388.8 123.512727 
" style="fill:none;stroke:#ffffff;stroke-linecap:round;"/>
     </g>
     <g id="line2d_28"/>
     <g id="text_15">
      <!-- 0.6 -->
      <g style="fill:#262626;" transform="translate(33.1 127.136165)scale(0.1 -0.1)">
       <use xlink:href="#LiberationSans-30"/>
       <use x="55.615234" xlink:href="#LiberationSans-2e"/>
       <use x="83.398438" xlink:href="#LiberationSans-36"/>
      </g>
     </g>
    </g>
    <g id="ytick_5">
     <g id="line2d_29">
      <path clip-path="url(#pc0c439506f)" d="M 54 83.978182 
L 388.8 83.978182 
" style="fill:none;stroke:#ffffff;stroke-linecap:round;"/>
     </g>
     <g id="line2d_30"/>
     <g id="text_16">
      <!-- 0.8 -->
      <g style="fill:#262626;" transform="translate(33.1 87.601619)scale(0.1 -0.1)">
       <use xlink:href="#LiberationSans-30"/>
       <use x="55.615234" xlink:href="#LiberationSans-2e"/>
       <use x="83.398438" xlink:href="#LiberationSans-38"/>
      </g>
     </g>
    </g>
    <g id="ytick_6">
     <g id="line2d_31">
      <path clip-path="url(#pc0c439506f)" d="M 54 44.443636 
L 388.8 44.443636 
" style="fill:none;stroke:#ffffff;stroke-linecap:round;"/>
     </g>
     <g id="line2d_32"/>
     <g id="text_17">
      <!-- 1.0 -->
      <g style="fill:#262626;" transform="translate(33.1 48.067074)scale(0.1 -0.1)">
       <use xlink:href="#LiberationSans-31"/>
       <use x="55.615234" xlink:href="#LiberationSans-2e"/>
       <use x="83.398438" xlink:href="#LiberationSans-30"/>
      </g>
     </g>
    </g>
   </g>
   <g id="line2d_33">
    <path clip-path="url(#pc0c439506f)" d="M 62.049667 203.643567 
L 62.049667 204.930158 
L 62.793667 204.930158 
L 62.793667 208.814911 
L 63.537667 208.814911 
L 63.537667 211.05083 
L 64.281667 211.05083 
L 64.281667 212.025141 
L 65.025667 212.025141 
L 65.025667 213.136855 
L 66.513667 213.124364 
L 66.513667 212.512296 
L 67.257667 212.512296 
L 67.257667 212.737137 
L 68.001667 212.737137 
L 68.001667 213.599028 
L 68.745667 213.599028 
L 68.745667 213.461625 
L 69.489667 213.461625 
L 69.489667 213.998745 
L 70.233667 213.998745 
L 70.233667 212.724646 
L 70.977667 212.724646 
L 70.977667 212.01265 
L 71.721667 212.01265 
L 71.721667 211.038339 
L 72.465667 211.038339 
L 72.465667 209.651819 
L 73.209667 209.651819 
L 73.209667 209.314558 
L 73.953667 209.314558 
L 73.953667 208.739964 
L 74.697667 208.739964 
L 74.697667 208.415193 
L 75.441667 208.415193 
L 75.441667 209.214628 
L 76.185667 209.214628 
L 76.185667 210.476236 
L 76.929667 210.476236 
L 76.929667 208.527614 
L 77.673667 208.527614 
L 77.673667 207.116112 
L 78.417667 207.116112 
L 78.417667 206.279204 
L 79.161667 206.279204 
L 79.161667 205.717101 
L 80.649667 205.792048 
L 80.649667 207.903056 
L 81.393667 207.903056 
L 81.393667 211.662897 
L 82.137667 211.662897 
L 82.137667 214.385972 
L 82.881667 214.385972 
L 82.881667 214.198604 
L 83.625667 214.198604 
L 83.625667 213.636502 
L 84.369667 213.636502 
L 84.369667 213.324222 
L 85.113667 213.324222 
L 85.113667 212.12507 
L 85.857667 212.12507 
L 85.857667 211.238197 
L 86.601667 211.238197 
L 86.601667 210.788515 
L 88.089667 210.763533 
L 88.089667 211.113286 
L 88.833667 211.113286 
L 88.833667 210.676095 
L 89.577667 210.676095 
L 89.577667 209.364522 
L 90.321667 209.364522 
L 90.321667 209.102208 
L 91.065667 209.102208 
L 91.065667 208.827402 
L 91.809667 208.827402 
L 91.809667 209.76424 
L 92.553667 209.76424 
L 92.553667 211.138268 
L 93.297667 211.138268 
L 93.297667 208.877367 
L 94.041667 208.877367 
L 94.041667 209.489434 
L 94.785667 209.489434 
L 94.785667 208.652526 
L 95.529667 208.652526 
L 95.529667 208.202844 
L 96.273667 208.202844 
L 96.273667 207.715688 
L 97.017667 207.715688 
L 97.017667 205.754575 
L 97.761667 205.754575 
L 97.761667 203.556129 
L 98.505667 203.556129 
L 98.505667 204.055776 
L 99.249667 204.055776 
L 99.249667 204.692826 
L 99.993667 204.692826 
L 99.993667 203.955847 
L 100.737667 203.955847 
L 100.737667 203.493673 
L 101.481667 203.493673 
L 101.481667 202.044698 
L 102.225667 202.044698 
L 102.225667 198.447242 
L 102.969667 198.447242 
L 102.969667 196.311252 
L 103.713667 196.311252 
L 103.713667 196.723461 
L 104.457667 196.723461 
L 104.457667 198.459733 
L 105.201667 198.459733 
L 105.201667 198.846959 
L 105.945667 198.846959 
L 105.945667 196.898337 
L 106.689667 196.898337 
L 106.689667 194.649927 
L 107.433667 194.649927 
L 107.433667 192.963619 
L 108.177667 192.963619 
L 108.177667 188.042099 
L 108.921667 188.042099 
L 108.921667 183.495314 
L 109.665667 183.495314 
L 109.665667 177.012398 
L 110.409667 177.012398 
L 110.409667 175.313599 
L 111.153667 175.313599 
L 111.153667 171.741125 
L 111.897667 171.741125 
L 111.897667 168.093704 
L 112.641667 168.093704 
L 112.641667 162.260329 
L 113.385667 162.260329 
L 113.385667 160.311707 
L 114.129667 160.311707 
L 114.129667 159.312414 
L 114.873667 159.312414 
L 114.873667 158.725329 
L 115.617667 158.725329 
L 115.617667 157.863438 
L 116.361667 157.863438 
L 116.361667 150.06895 
L 117.105667 150.06895 
L 117.105667 145.597112 
L 117.849667 145.597112 
L 117.849667 137.965008 
L 118.593667 137.965008 
L 118.593667 132.20658 
L 119.337667 132.20658 
L 119.337667 125.561279 
L 120.081667 125.561279 
L 120.081667 119.940253 
L 120.825667 119.940253 
L 120.825667 114.319228 
L 121.569667 114.319228 
L 121.569667 110.372019 
L 122.313667 110.372019 
L 122.313667 103.614297 
L 123.057667 103.614297 
L 123.057667 98.767724 
L 123.801667 98.767724 
L 123.801667 90.985727 
L 124.545667 90.985727 
L 124.545667 86.039224 
L 125.289667 86.039224 
L 125.289667 84.540284 
L 126.033667 84.540284 
L 126.033667 80.64304 
L 126.777667 80.64304 
L 126.777667 71.836767 
L 127.521667 71.836767 
L 127.521667 64.991607 
L 128.265667 64.991607 
L 128.265667 62.306006 
L 129.009667 62.306006 
L 129.009667 54.561482 
L 129.753667 54.561482 
L 129.753667 47.341587 
L 130.497667 47.341587 
L 130.497667 50.077153 
L 131.241667 50.077153 
L 131.241667 52.787736 
L 131.985667 52.787736 
L 131.985667 47.191693 
L 132.729667 47.191693 
L 132.729667 45.218089 
L 133.473667 45.218089 
L 133.473667 45.730227 
L 134.217667 45.730227 
L 134.217667 47.928672 
L 134.961667 47.928672 
L 134.961667 47.566428 
L 135.705667 47.566428 
L 135.705667 45.867629 
L 136.449667 45.867629 
L 136.449667 45.55535 
L 137.193667 45.55535 
L 137.193667 44.443636 
L 137.937667 44.443636 
L 137.937667 45.605315 
L 138.681667 45.605315 
L 138.681667 47.741305 
L 139.425667 47.741305 
L 139.425667 54.5365 
L 140.169667 54.5365 
L 140.169667 60.669663 
L 140.913667 60.669663 
L 140.913667 66.777844 
L 141.657667 66.777844 
L 141.657667 75.159417 
L 142.401667 75.159417 
L 142.401667 77.907474 
L 143.145667 77.907474 
L 143.145667 83.603447 
L 143.889667 83.603447 
L 143.889667 89.561734 
L 144.633667 89.561734 
L 144.633667 94.733077 
L 145.377667 94.733077 
L 145.377667 104.063979 
L 146.121667 104.063979 
L 146.121667 113.17004 
L 146.865667 113.17004 
L 146.865667 112.220712 
L 147.609667 112.220712 
L 147.609667 105.438008 
L 148.353667 105.438008 
L 148.353667 112.820288 
L 149.097667 112.820288 
L 149.097667 121.61407 
L 149.841667 121.61407 
L 149.841667 127.959583 
L 150.585667 127.959583 
L 150.585667 134.942146 
L 151.329667 134.942146 
L 151.329667 149.956529 
L 152.073667 149.956529 
L 152.073667 154.078614 
L 152.817667 154.078614 
L 152.817667 156.589339 
L 153.561667 156.589339 
L 153.561667 165.632944 
L 154.305667 165.632944 
L 154.305667 173.402451 
L 155.049667 173.402451 
L 155.049667 176.375349 
L 155.793667 176.375349 
L 155.793667 181.9589 
L 156.537667 181.9589 
L 156.537667 185.531374 
L 157.281667 185.531374 
L 157.281667 189.491075 
L 158.025667 189.491075 
L 158.025667 192.239131 
L 158.769667 192.239131 
L 158.769667 194.987188 
L 159.513667 194.987188 
L 159.513667 201.020422 
L 160.257667 201.020422 
L 160.257667 205.667137 
L 161.001667 205.667137 
L 161.001667 207.515829 
L 161.745667 207.515829 
L 161.745667 208.565087 
L 162.489667 208.565087 
L 162.489667 210.913427 
L 163.233667 210.913427 
L 163.233667 212.249982 
L 163.977667 212.249982 
L 163.977667 214.660777 
L 164.721667 214.660777 
L 164.721667 215.997332 
L 165.465667 215.997332 
L 165.465667 216.921679 
L 166.209667 216.921679 
L 166.209667 218.208269 
L 167.697667 218.308198 
L 167.697667 218.707916 
L 168.441667 218.707916 
L 168.441667 221.85569 
L 169.185667 221.85569 
L 169.185667 229.337899 
L 169.929667 229.337899 
L 169.929667 233.73479 
L 171.417667 233.747281 
L 171.417667 234.496751 
L 172.161667 234.496751 
L 172.161667 235.071345 
L 172.905667 235.071345 
L 172.905667 235.396115 
L 173.649667 235.396115 
L 173.649667 236.258006 
L 177.369667 236.345444 
L 177.369667 237.194844 
L 178.113667 237.194844 
L 178.113667 236.982494 
L 178.857667 236.982494 
L 178.857667 236.445374 
L 179.601667 236.445374 
L 179.601667 237.194844 
L 182.577667 237.232317 
L 182.577667 238.094208 
L 183.321667 238.094208 
L 183.321667 237.632034 
L 184.065667 237.632034 
L 184.065667 237.194844 
L 186.297667 237.194844 
L 186.297667 237.407193 
L 187.041667 237.407193 
L 187.041667 238.094208 
L 190.761667 238.094208 
L 190.761667 238.344031 
L 191.505667 238.344031 
L 191.505667 239.455745 
L 192.249667 239.455745 
L 192.249667 239.892936 
L 197.457667 239.867953 
L 197.457667 238.993572 
L 198.201667 238.993572 
L 198.201667 239.718059 
L 198.945667 239.718059 
L 198.945667 239.892936 
L 200.433667 239.892936 
L 200.433667 240.704862 
L 204.153667 240.7923 
L 204.153667 240.017847 
L 206.385667 240.005356 
L 206.385667 239.892936 
L 210.105667 239.892936 
L 210.105667 239.480727 
L 210.849667 239.480727 
L 210.849667 238.231611 
L 211.593667 238.231611 
L 211.593667 237.806911 
L 212.337667 237.806911 
L 212.337667 237.194844 
L 213.081667 237.194844 
L 213.081667 236.482847 
L 213.825667 236.482847 
L 213.825667 236.29548 
L 219.033667 236.29548 
L 219.033667 236.920038 
L 219.777667 236.920038 
L 219.777667 237.194844 
L 222.009667 237.194844 
L 222.009667 236.4079 
L 222.753667 236.4079 
L 222.753667 235.570992 
L 223.497667 235.570992 
L 223.497667 235.396115 
L 225.729667 235.396115 
L 225.729667 235.87078 
L 226.473667 235.87078 
L 226.473667 236.29548 
L 227.217667 236.29548 
L 227.217667 236.782635 
L 227.961667 236.782635 
L 227.961667 237.194844 
L 231.681667 237.194844 
L 231.681667 237.307264 
L 232.425667 237.307264 
L 232.425667 238.556381 
L 233.169667 238.556381 
L 233.169667 238.993572 
L 233.913667 238.993572 
L 233.913667 239.880445 
L 234.657667 239.880445 
L 234.657667 240.305144 
L 235.401667 240.305144 
L 235.401667 240.7923 
L 243.585667 240.7923 
L 243.585667 241.279455 
L 244.329667 241.279455 
L 244.329667 242.116364 
L 245.073667 242.116364 
L 245.073667 241.816576 
L 245.817667 241.816576 
L 245.817667 241.691664 
L 254.745667 241.691664 
L 254.745667 241.179526 
L 255.489667 241.179526 
L 255.489667 240.7923 
L 258.465667 240.7923 
L 258.465667 240.455038 
L 259.209667 240.455038 
L 259.209667 239.892936 
L 262.185667 239.892936 
L 262.185667 239.043536 
L 264.417667 238.956098 
L 264.417667 238.094208 
L 266.649667 238.094208 
L 266.649667 238.568872 
L 267.393667 238.568872 
L 267.393667 238.993572 
L 271.113667 238.993572 
L 271.113667 238.618837 
L 271.857667 238.618837 
L 271.857667 238.094208 
L 274.833667 238.094208 
L 274.833667 237.48214 
L 275.577667 237.48214 
L 275.577667 237.194844 
L 276.321667 237.194844 
L 276.321667 237.407193 
L 277.065667 237.407193 
L 277.065667 238.094208 
L 280.785667 238.131681 
L 280.785667 238.993572 
L 283.761667 238.993572 
L 283.761667 239.543183 
L 284.505667 239.543183 
L 284.505667 239.130975 
L 285.249667 239.130975 
L 285.249667 238.993572 
L 285.993667 238.993572 
L 285.993667 239.130975 
L 286.737667 239.130975 
L 286.737667 238.831187 
L 287.481667 238.831187 
L 287.481667 237.444667 
L 288.225667 237.444667 
L 288.225667 237.194844 
L 289.713667 237.194844 
L 289.713667 236.457865 
L 290.457667 236.457865 
L 290.457667 236.29548 
L 293.433667 236.370427 
L 293.433667 237.194844 
L 296.409667 237.194844 
L 296.409667 237.507123 
L 297.153667 237.507123 
L 297.153667 238.094208 
L 300.873667 238.094208 
L 300.873667 237.469649 
L 301.617667 237.469649 
L 301.617667 236.770144 
L 302.361667 236.770144 
L 302.361667 236.29548 
L 303.849667 236.29548 
L 303.849667 235.546009 
L 304.593667 235.546009 
L 304.593667 234.496751 
L 306.081667 234.496751 
L 306.081667 234.958925 
L 306.825667 234.958925 
L 306.825667 234.58419 
L 309.057667 234.496751 
L 309.057667 235.608465 
L 309.801667 235.608465 
L 309.801667 235.733377 
L 310.545667 235.733377 
L 310.545667 235.396115 
L 311.289667 235.396115 
L 311.289667 235.833306 
L 312.033667 235.833306 
L 312.033667 236.29548 
L 312.777667 236.29548 
L 312.777667 235.708395 
L 313.521667 235.708395 
L 313.521667 235.396115 
L 322.449667 235.396115 
L 322.449667 234.846504 
L 323.193667 234.846504 
L 323.193667 235.521027 
L 324.681667 235.546009 
L 324.681667 235.396115 
L 325.425667 235.396115 
L 325.425667 235.608465 
L 326.169667 235.608465 
L 326.169667 237.132388 
L 328.401667 237.194844 
L 328.401667 237.706981 
L 329.145667 237.706981 
L 329.145667 238.094208 
L 329.889667 238.094208 
L 329.889667 238.893642 
L 331.377667 238.993572 
L 331.377667 239.255886 
L 332.121667 239.255886 
L 332.121667 239.892936 
L 333.609667 239.892936 
L 333.609667 239.268377 
L 335.097667 239.280869 
L 335.097667 239.892936 
L 344.025667 239.892936 
L 344.025667 240.46753 
L 344.769667 240.46753 
L 344.769667 240.7923 
L 345.513667 240.7923 
L 345.513667 241.241982 
L 346.257667 241.241982 
L 346.257667 241.691664 
L 348.489667 241.691664 
L 348.489667 241.217 
L 349.233667 241.217 
L 349.233667 240.7923 
L 350.721667 240.7923 
L 350.721667 240.505003 
L 351.465667 240.505003 
L 351.465667 239.892936 
L 355.185667 239.892936 
L 355.185667 240.217706 
L 355.929667 240.217706 
L 355.929667 240.7923 
L 369.321667 240.7923 
L 369.321667 240.605022 
L 370.065667 240.605022 
L 370.065667 240.373444 
L 370.809667 240.373444 
L 370.809667 240.842301 
L 371.553667 240.842301 
L 371.553667 240.687125 
L 372.297667 240.687125 
L 372.297667 240.135226 
L 373.785667 240.210416 
L 373.785667 239.963073 
L 375.273667 239.963073 
L 375.273667 239.657921 
L 378.249667 239.635148 
L 378.249667 239.307751 
L 378.993667 239.307751 
L 378.993667 238.839505 
L 379.737667 238.839505 
L 379.737667 238.653159 
L 381.969667 238.580527 
L 381.969667 238.226481 
L 382.713667 238.226481 
L 382.713667 237.672892 
L 384.201667 237.672892 
L 384.201667 237.441686 
L 384.945667 237.441686 
L 384.945667 237.287582 
L 385.689667 237.287582 
L 385.689667 237.020262 
L 387.177667 237.020262 
L 387.177667 236.739618 
L 387.921667 236.739618 
L 387.921667 241.467043 
L 388.665667 241.467043 
L 388.665667 241.467043 
" style="fill:none;stroke:#4c72b0;stroke-linecap:round;stroke-width:1.75;"/>
   </g>
   <g id="line2d_34">
    <path clip-path="url(#pc0c439506f)" d="M 62.049667 211.32724 
L 62.049667 211.868399 
L 62.793667 211.868399 
L 62.793667 212.260028 
L 63.537667 212.260028 
L 63.537667 212.858151 
L 64.281667 212.858151 
L 64.281667 213.641408 
L 65.025667 213.641408 
L 65.025667 213.897747 
L 65.769667 213.897747 
L 65.769667 214.930222 
L 66.513667 214.930222 
L 66.513667 215.670756 
L 67.257667 215.670756 
L 67.257667 215.457141 
L 68.001667 215.457141 
L 68.001667 214.787812 
L 68.745667 214.787812 
L 68.745667 214.965825 
L 69.489667 214.965825 
L 69.489667 212.608933 
L 70.977667 212.57333 
L 70.977667 213.442034 
L 72.465667 213.449154 
L 72.465667 213.997434 
L 73.953667 214.07576 
L 73.953667 214.495871 
L 74.697667 214.495871 
L 74.697667 215.763323 
L 75.441667 215.763323 
L 75.441667 216.40417 
L 76.185667 216.40417 
L 76.185667 217.073498 
L 77.673667 217.023655 
L 77.673667 217.279993 
L 78.417667 217.279993 
L 78.417667 216.966691 
L 79.161667 216.966691 
L 79.161667 215.770443 
L 80.649667 215.734841 
L 80.649667 216.354326 
L 81.393667 216.354326 
L 81.393667 215.798926 
L 82.881667 215.848769 
L 82.881667 216.582183 
L 83.625667 216.582183 
L 83.625667 215.891492 
L 85.113667 215.905733 
L 85.113667 215.642274 
L 85.857667 215.642274 
L 85.857667 215.279128 
L 86.601667 215.279128 
L 86.601667 214.673884 
L 87.345667 214.673884 
L 87.345667 214.823414 
L 88.089667 214.823414 
L 88.089667 213.990314 
L 88.833667 213.990314 
L 88.833667 213.712613 
L 89.577667 213.712613 
L 89.577667 215.741961 
L 90.321667 215.741961 
L 90.321667 215.001427 
L 91.065667 215.001427 
L 91.065667 216.112228 
L 91.809667 216.112228 
L 91.809667 217.64314 
L 92.553667 217.64314 
L 92.553667 217.443765 
L 93.297667 217.443765 
L 93.297667 216.439772 
L 94.041667 216.439772 
L 94.041667 215.30761 
L 94.785667 215.30761 
L 94.785667 214.481629 
L 95.529667 214.481629 
L 95.529667 213.997434 
L 96.273667 213.997434 
L 96.273667 213.014803 
L 97.017667 213.014803 
L 97.017667 213.563083 
L 97.761667 213.563083 
L 97.761667 213.406431 
L 98.505667 213.406431 
L 98.505667 213.79806 
L 99.249667 213.79806 
L 99.249667 213.541721 
L 99.993667 213.541721 
L 99.993667 213.776698 
L 100.737667 213.776698 
L 100.737667 214.125604 
L 101.481667 214.125604 
L 101.481667 212.644536 
L 102.225667 212.644536 
L 102.225667 211.028178 
L 103.713667 210.949852 
L 103.713667 212.687259 
L 104.457667 212.687259 
L 104.457667 210.209318 
L 105.201667 210.209318 
L 105.201667 209.632556 
L 105.945667 209.632556 
L 105.945667 205.203593 
L 106.689667 205.203593 
L 106.689667 202.504917 
L 107.433667 202.504917 
L 107.433667 199.913048 
L 108.177667 199.913048 
L 108.177667 198.481823 
L 108.921667 198.481823 
L 108.921667 193.127193 
L 109.665667 193.127193 
L 109.665667 188.14283 
L 110.409667 188.14283 
L 110.409667 186.63328 
L 111.153667 186.63328 
L 111.153667 184.16958 
L 111.897667 184.16958 
L 111.897667 178.416201 
L 112.641667 178.416201 
L 112.641667 175.446944 
L 113.385667 175.446944 
L 113.385667 168.789259 
L 114.129667 168.789259 
L 114.129667 163.826258 
L 114.873667 163.826258 
L 114.873667 159.988298 
L 115.617667 159.988298 
L 115.617667 155.715986 
L 116.361667 155.715986 
L 116.361667 150.226066 
L 117.105667 150.226066 
L 117.105667 145.433957 
L 117.849667 145.433957 
L 117.849667 141.439346 
L 118.593667 141.439346 
L 118.593667 133.905837 
L 119.337667 133.905837 
L 119.337667 124.428426 
L 120.081667 124.428426 
L 120.081667 115.036461 
L 120.825667 115.036461 
L 120.825667 107.730809 
L 121.569667 107.730809 
L 121.569667 99.78431 
L 122.313667 99.78431 
L 122.313667 94.30151 
L 123.057667 94.30151 
L 123.057667 90.392345 
L 123.801667 90.392345 
L 123.801667 87.800476 
L 124.545667 87.800476 
L 124.545667 80.886452 
L 125.289667 80.886452 
L 125.289667 76.841998 
L 126.033667 76.841998 
L 126.033667 74.492226 
L 126.777667 74.492226 
L 126.777667 70.091746 
L 127.521667 70.091746 
L 127.521667 68.375701 
L 128.265667 68.375701 
L 128.265667 64.509259 
L 129.009667 64.509259 
L 129.009667 60.058934 
L 129.753667 60.058934 
L 129.753667 52.432859 
L 130.497667 52.432859 
L 130.497667 48.851238 
L 131.241667 48.851238 
L 131.241667 46.480105 
L 131.985667 46.480105 
L 131.985667 46.786287 
L 132.729667 46.786287 
L 132.729667 44.443636 
L 133.473667 44.443636 
L 133.473667 45.746691 
L 134.217667 45.746691 
L 134.217667 47.697714 
L 134.961667 47.697714 
L 134.961667 51.977145 
L 135.705667 51.977145 
L 135.705667 54.725666 
L 136.449667 54.725666 
L 136.449667 56.648206 
L 137.193667 56.648206 
L 137.193667 57.787489 
L 137.937667 57.787489 
L 137.937667 60.692661 
L 138.681667 60.692661 
L 138.681667 65.49189 
L 139.425667 65.49189 
L 139.425667 67.94847 
L 140.169667 67.94847 
L 140.169667 72.199419 
L 140.913667 72.199419 
L 140.913667 79.975026 
L 141.657667 79.975026 
L 141.657667 88.640698 
L 142.401667 88.640698 
L 142.401667 96.337979 
L 143.145667 96.337979 
L 143.145667 103.195038 
L 143.889667 103.195038 
L 143.889667 109.518059 
L 144.633667 109.518059 
L 144.633667 113.498429 
L 145.377667 113.498429 
L 145.377667 117.478799 
L 146.121667 117.478799 
L 146.121667 123.360348 
L 146.865667 123.360348 
L 146.865667 124.748849 
L 147.609667 124.748849 
L 147.609667 120.875287 
L 148.353667 120.875287 
L 148.353667 125.888132 
L 149.097667 125.888132 
L 149.097667 129.733213 
L 149.841667 129.733213 
L 149.841667 136.96766 
L 150.585667 136.96766 
L 150.585667 145.291547 
L 151.329667 145.291547 
L 151.329667 153.010189 
L 152.073667 153.010189 
L 152.073667 161.882356 
L 152.817667 161.882356 
L 152.817667 169.522673 
L 153.561667 169.522673 
L 153.561667 174.884423 
L 154.305667 174.884423 
L 154.305667 178.651178 
L 155.049667 178.651178 
L 155.049667 182.695633 
L 155.793667 182.695633 
L 155.793667 186.583436 
L 156.537667 186.583436 
L 156.537667 188.14283 
L 157.281667 188.14283 
L 157.281667 189.823272 
L 158.025667 189.823272 
L 158.025667 193.077349 
L 158.769667 193.077349 
L 158.769667 196.495199 
L 159.513667 196.495199 
L 159.513667 201.508044 
L 160.257667 201.508044 
L 160.257667 203.10304 
L 161.001667 203.10304 
L 161.001667 205.310401 
L 161.745667 205.310401 
L 161.745667 207.973475 
L 162.489667 207.973475 
L 162.489667 210.109631 
L 163.233667 210.109631 
L 163.233667 211.355722 
L 163.977667 211.355722 
L 163.977667 213.456275 
L 164.721667 213.456275 
L 164.721667 213.911988 
L 165.465667 213.911988 
L 165.465667 215.243525 
L 166.209667 215.243525 
L 166.209667 217.657381 
L 166.953667 217.657381 
L 166.953667 218.405035 
L 167.697667 218.405035 
L 167.697667 219.117087 
L 168.441667 219.117087 
L 168.441667 222.371165 
L 169.185667 222.371165 
L 169.185667 230.374628 
L 169.929667 230.374628 
L 169.929667 233.600223 
L 170.673667 233.600223 
L 170.673667 234.639819 
L 171.417667 234.639819 
L 171.417667 235.451558 
L 173.649667 235.451558 
L 173.649667 236.220574 
L 174.393667 236.220574 
L 174.393667 237.509388 
L 175.137667 237.509388 
L 175.137667 238.043427 
L 175.881667 238.043427 
L 175.881667 238.527622 
L 176.625667 238.527622 
L 176.625667 238.64155 
L 177.369667 238.64155 
L 177.369667 239.040299 
L 178.113667 239.040299 
L 178.113667 239.239674 
L 178.857667 239.239674 
L 178.857667 240.193824 
L 179.601667 240.193824 
L 179.601667 240.343354 
L 180.345667 240.343354 
L 180.345667 240.578332 
L 184.065667 240.549849 
L 184.065667 240.065654 
L 185.553667 240.065654 
L 185.553667 240.222306 
L 186.297667 240.222306 
L 186.297667 240.42168 
L 187.041667 240.42168 
L 187.041667 240.578332 
L 188.529667 240.528488 
L 188.529667 240.222306 
L 189.273667 240.222306 
L 189.273667 240.065654 
L 192.993667 240.065654 
L 192.993667 239.951726 
L 193.737667 239.951726 
L 193.737667 239.552977 
L 195.969667 239.552977 
L 195.969667 239.061661 
L 196.713667 239.061661 
L 196.713667 238.527622 
L 198.201667 238.527622 
L 198.201667 238.09327 
L 198.945667 238.09327 
L 198.945667 237.502267 
L 200.433667 237.502267 
L 200.433667 237.352736 
L 201.177667 237.352736 
L 201.177667 236.98959 
L 203.409667 236.946867 
L 203.409667 236.313141 
L 204.153667 236.313141 
L 204.153667 235.964235 
L 204.897667 235.964235 
L 204.897667 235.793343 
L 205.641667 235.793343 
L 205.641667 236.113766 
L 206.385667 236.113766 
L 206.385667 236.476913 
L 207.129667 236.476913 
L 207.129667 236.334502 
L 207.873667 236.334502 
L 207.873667 236.071043 
L 208.617667 236.071043 
L 208.617667 236.476913 
L 209.361667 236.476913 
L 209.361667 235.779102 
L 210.105667 235.779102 
L 210.105667 235.451558 
L 210.849667 235.451558 
L 210.849667 235.964235 
L 215.313667 235.964235 
L 215.313667 236.419948 
L 216.801667 236.476913 
L 216.801667 235.629571 
L 217.545667 235.629571 
L 217.545667 235.216581 
L 218.289667 235.216581 
L 218.289667 235.686535 
L 219.033667 235.686535 
L 219.033667 235.095532 
L 220.521667 235.095532 
L 220.521667 235.330509 
L 221.265667 235.330509 
L 221.265667 234.938881 
L 222.753667 234.938881 
L 222.753667 235.529884 
L 223.497667 235.529884 
L 223.497667 235.964235 
L 224.241667 235.964235 
L 224.241667 235.700776 
L 224.985667 235.700776 
L 224.985667 235.836066 
L 225.729667 235.836066 
L 225.729667 236.469792 
L 227.217667 236.476913 
L 227.217667 236.98959 
L 228.705667 236.98959 
L 228.705667 236.783095 
L 229.449667 236.783095 
L 229.449667 236.961108 
L 230.937667 236.98959 
L 230.937667 237.345616 
L 231.681667 237.345616 
L 231.681667 238.235681 
L 232.425667 238.235681 
L 232.425667 238.029186 
L 237.633667 238.014945 
L 237.633667 237.687401 
L 238.377667 237.687401 
L 238.377667 237.559231 
L 239.121667 237.559231 
L 239.121667 238.271283 
L 239.865667 238.271283 
L 239.865667 238.527622 
L 240.609667 238.527622 
L 240.609667 238.712756 
L 241.353667 238.712756 
L 241.353667 239.040299 
L 242.841667 238.961974 
L 242.841667 239.275277 
L 243.585667 239.275277 
L 243.585667 238.527622 
L 244.329667 238.527622 
L 244.329667 238.192958 
L 245.073667 238.192958 
L 245.073667 236.861421 
L 245.817667 236.861421 
L 245.817667 236.569479 
L 246.561667 236.569479 
L 246.561667 236.98959 
L 251.025667 237.025193 
L 251.025667 237.502267 
L 254.745667 237.502267 
L 254.745667 236.99671 
L 255.489667 236.99671 
L 255.489667 236.142248 
L 256.233667 236.142248 
L 256.233667 235.821825 
L 256.977667 235.821825 
L 256.977667 235.031447 
L 259.209667 234.938881 
L 259.209667 234.860555 
L 259.953667 234.860555 
L 259.953667 235.216581 
L 260.697667 235.216581 
L 260.697667 235.451558 
L 262.185667 235.451558 
L 262.185667 235.857427 
L 263.673667 235.964235 
L 263.673667 236.220574 
L 264.417667 236.220574 
L 264.417667 235.266424 
L 265.161667 235.266424 
L 265.161667 234.938881 
L 265.905667 234.938881 
L 265.905667 235.088411 
L 266.649667 235.088411 
L 266.649667 236.149369 
L 267.393667 236.149369 
L 267.393667 236.71189 
L 268.137667 236.71189 
L 268.137667 236.476913 
L 271.113667 236.476913 
L 271.113667 235.836066 
L 271.857667 235.836066 
L 271.857667 234.938881 
L 274.089667 234.910398 
L 274.089667 234.426203 
L 274.833667 234.426203 
L 274.833667 234.233949 
L 275.577667 234.233949 
L 275.577667 233.8352 
L 276.321667 233.8352 
L 276.321667 234.077298 
L 277.065667 234.077298 
L 277.065667 234.703903 
L 277.809667 234.703903 
L 277.809667 234.938881 
L 278.553667 234.938881 
L 278.553667 235.672294 
L 279.297667 235.672294 
L 279.297667 235.031447 
L 280.041667 235.031447 
L 280.041667 233.657187 
L 280.785667 233.657187 
L 280.785667 233.464933 
L 281.529667 233.464933 
L 281.529667 233.913526 
L 282.273667 233.913526 
L 282.273667 233.607343 
L 283.017667 233.607343 
L 283.017667 233.400848 
L 285.993667 233.400848 
L 285.993667 234.098659 
L 286.737667 234.098659 
L 286.737667 235.437317 
L 287.481667 235.437317 
L 287.481667 235.964235 
L 288.225667 235.964235 
L 288.225667 235.707897 
L 288.969667 235.707897 
L 288.969667 235.515643 
L 289.713667 235.515643 
L 289.713667 235.964235 
L 292.689667 235.964235 
L 292.689667 236.16361 
L 293.433667 236.16361 
L 293.433667 237.431062 
L 295.665667 237.502267 
L 295.665667 237.872534 
L 296.409667 237.872534 
L 296.409667 238.036306 
L 297.153667 238.036306 
L 297.153667 238.591707 
L 297.897667 238.591707 
L 297.897667 239.040299 
L 298.641667 239.040299 
L 298.641667 238.49914 
L 300.873667 238.527622 
L 300.873667 238.812443 
L 301.617667 238.812443 
L 301.617667 240.628175 
L 302.361667 240.628175 
L 302.361667 240.806188 
L 303.105667 240.806188 
L 303.105667 240.578332 
L 305.337667 240.55697 
L 305.337667 240.065654 
L 306.081667 240.065654 
L 306.081667 239.880521 
L 306.825667 239.880521 
L 306.825667 239.552977 
L 309.057667 239.552977 
L 309.057667 239.232553 
L 309.801667 239.232553 
L 309.801667 238.613068 
L 311.289667 238.705635 
L 311.289667 238.014945 
L 313.521667 238.014945 
L 313.521667 237.637557 
L 314.265667 237.637557 
L 314.265667 237.502267 
L 315.009667 237.502267 
L 315.009667 237.12488 
L 315.753667 237.12488 
L 315.753667 236.476913 
L 319.473667 236.427069 
L 319.473667 235.964235 
L 320.217667 235.964235 
L 320.217667 236.177851 
L 320.961667 236.177851 
L 320.961667 236.476913 
L 323.937667 236.476913 
L 323.937667 236.590841 
L 324.681667 236.590841 
L 324.681667 236.98959 
L 325.425667 236.98959 
L 325.425667 236.71189 
L 326.169667 236.71189 
L 326.169667 236.313141 
L 327.657667 236.327382 
L 327.657667 236.491154 
L 328.401667 236.491154 
L 328.401667 236.98959 
L 329.889667 236.889903 
L 329.889667 236.476913 
L 331.377667 236.58372 
L 331.377667 237.374098 
L 332.121667 237.374098 
L 332.121667 237.616196 
L 332.865667 237.616196 
L 332.865667 238.406573 
L 333.609667 238.406573 
L 333.609667 238.527622 
L 335.097667 238.527622 
L 335.097667 238.734117 
L 335.841667 238.734117 
L 335.841667 239.040299 
L 337.329667 239.118625 
L 337.329667 239.45329 
L 338.817667 239.410566 
L 338.817667 239.040299 
L 341.049667 239.040299 
L 341.049667 239.431928 
L 341.793667 239.431928 
L 341.793667 239.5957 
L 342.537667 239.5957 
L 342.537667 240.065654 
L 343.281667 240.065654 
L 343.281667 239.496013 
L 344.025667 239.496013 
L 344.025667 239.040299 
L 347.745667 239.147107 
L 347.745667 239.780833 
L 348.489667 239.780833 
L 348.489667 240.571211 
L 351.465667 240.578332 
L 351.465667 241.019804 
L 358.905667 241.091009 
L 358.905667 241.489758 
L 359.649667 241.489758 
L 359.649667 241.603686 
L 360.393667 241.603686 
L 360.393667 242.087882 
L 362.625667 242.016676 
L 362.625667 241.38295 
L 363.369667 241.38295 
L 363.369667 241.091009 
L 364.857667 241.091009 
L 364.857667 241.318866 
L 365.601667 241.318866 
L 365.601667 242.116364 
L 367.089667 242.072037 
L 367.089667 241.811317 
L 367.833667 241.811317 
L 367.833667 241.37089 
L 368.577667 241.37089 
L 368.577667 240.761258 
L 369.321667 240.761258 
L 369.321667 240.315912 
L 370.065667 240.315912 
L 370.065667 240.06601 
L 370.809667 240.06601 
L 370.809667 239.352968 
L 371.553667 239.352968 
L 371.553667 239.207301 
L 372.297667 239.207301 
L 372.297667 238.921279 
L 373.041667 238.921279 
L 373.041667 238.331236 
L 373.785667 238.331236 
L 373.785667 237.951899 
L 374.529667 237.951899 
L 374.529667 237.331111 
L 375.273667 237.331111 
L 375.273667 237.154568 
L 376.017667 237.154568 
L 376.017667 236.778239 
L 376.761667 236.778239 
L 376.761667 236.435775 
L 377.505667 236.435775 
L 377.505667 236.311276 
L 378.993667 236.311276 
L 378.993667 235.818962 
L 379.737667 235.818962 
L 379.737667 235.554686 
L 380.481667 235.554686 
L 380.481667 235.184404 
L 381.225667 235.184404 
L 381.225667 234.922975 
L 381.969667 234.922975 
L 381.969667 234.462384 
L 383.457667 234.431346 
L 383.457667 234.053867 
L 384.945667 234.033433 
L 384.945667 234.422799 
L 386.433667 234.334981 
L 386.433667 234.076829 
L 387.177667 234.076829 
L 387.177667 233.818752 
L 387.921667 233.818752 
L 387.921667 241.453969 
L 388.665667 241.453969 
L 388.665667 241.453969 
" style="fill:none;stroke:#55a868;stroke-linecap:round;stroke-width:1.75;"/>
   </g>
   <g id="patch_3">
    <path d="M 54 252 
L 54 34.56 
" style="fill:none;"/>
   </g>
   <g id="patch_4">
    <path d="M 388.8 252 
L 388.8 34.56 
" style="fill:none;"/>
   </g>
   <g id="patch_5">
    <path d="M 54 252 
L 388.8 252 
" style="fill:none;"/>
   </g>
   <g id="patch_6">
    <path d="M 54 34.56 
L 388.8 34.56 
" style="fill:none;"/>
   </g>
   <g id="text_18">
    <!-- Ba133 -->
    <defs>
     <path d="M 61.421875 19.390625 
Q 61.421875 14.15625 59.375 10.46875 
Q 57.328125 6.78125 53.859375 4.46875 
Q 50.390625 2.15625 45.796875 1.078125 
Q 41.21875 0 36.140625 0 
L 8.203125 0 
L 8.203125 68.796875 
L 33.203125 68.796875 
Q 38.921875 68.796875 43.40625 67.84375 
Q 47.90625 66.890625 51.03125 64.84375 
Q 54.15625 62.796875 55.78125 59.640625 
Q 57.421875 56.5 57.421875 52.09375 
Q 57.421875 49.21875 56.609375 46.671875 
Q 55.8125 44.140625 54.171875 42.0625 
Q 52.546875 39.984375 50.078125 38.5 
Q 47.609375 37.015625 44.34375 36.28125 
Q 48.484375 35.796875 51.6875 34.375 
Q 54.890625 32.953125 57.03125 30.75 
Q 59.1875 28.5625 60.296875 25.65625 
Q 61.421875 22.75 61.421875 19.390625 
z
M 48.046875 50.984375 
Q 48.046875 56.546875 44.234375 58.9375 
Q 40.4375 61.328125 33.203125 61.328125 
L 17.53125 61.328125 
L 17.53125 39.546875 
L 33.203125 39.546875 
Q 37.3125 39.546875 40.140625 40.34375 
Q 42.96875 41.15625 44.71875 42.640625 
Q 46.484375 44.140625 47.265625 46.234375 
Q 48.046875 48.34375 48.046875 50.984375 
z
M 52 20.125 
Q 52 23.390625 50.796875 25.6875 
Q 49.609375 27.984375 47.359375 29.4375 
Q 45.125 30.90625 41.96875 31.59375 
Q 38.8125 32.28125 34.90625 32.28125 
L 17.53125 32.28125 
L 17.53125 7.46875 
L 35.640625 7.46875 
Q 39.203125 7.46875 42.203125 8.046875 
Q 45.21875 8.640625 47.390625 10.109375 
Q 49.5625 11.578125 50.78125 14.015625 
Q 52 16.453125 52 20.125 
z
" id="LiberationSans-42"/>
     <path d="M 20.21875 -0.984375 
Q 12.25 -0.984375 8.25 3.21875 
Q 4.25 7.421875 4.25 14.75 
Q 4.25 19.96875 6.21875 23.3125 
Q 8.203125 26.65625 11.390625 28.5625 
Q 14.59375 30.46875 18.6875 31.203125 
Q 22.796875 31.9375 27.046875 32.03125 
L 38.921875 32.234375 
L 38.921875 35.109375 
Q 38.921875 38.375 38.234375 40.671875 
Q 37.546875 42.96875 36.125 44.375 
Q 34.71875 45.796875 32.59375 46.453125 
Q 30.46875 47.125 27.59375 47.125 
Q 25.046875 47.125 23 46.75 
Q 20.953125 46.390625 19.4375 45.4375 
Q 17.921875 44.484375 16.984375 42.84375 
Q 16.0625 41.21875 15.765625 38.71875 
L 6.59375 39.546875 
Q 7.078125 42.671875 8.4375 45.28125 
Q 9.8125 47.90625 12.328125 49.796875 
Q 14.84375 51.703125 18.625 52.75 
Q 22.40625 53.8125 27.78125 53.8125 
Q 37.75 53.8125 42.765625 49.234375 
Q 47.796875 44.671875 47.796875 36.03125 
L 47.796875 13.28125 
Q 47.796875 9.375 48.828125 7.390625 
Q 49.859375 5.421875 52.734375 5.421875 
Q 53.46875 5.421875 54.203125 5.515625 
Q 54.9375 5.609375 55.609375 5.765625 
L 55.609375 0.296875 
Q 53.953125 -0.09375 52.3125 -0.28125 
Q 50.6875 -0.484375 48.828125 -0.484375 
Q 46.34375 -0.484375 44.5625 0.171875 
Q 42.78125 0.828125 41.65625 2.171875 
Q 40.53125 3.515625 39.9375 5.484375 
Q 39.359375 7.46875 39.203125 10.109375 
L 38.921875 10.109375 
Q 37.5 7.5625 35.8125 5.515625 
Q 34.125 3.46875 31.875 2.03125 
Q 29.640625 0.59375 26.78125 -0.1875 
Q 23.921875 -0.984375 20.21875 -0.984375 
z
M 22.21875 5.609375 
Q 26.421875 5.609375 29.5625 7.140625 
Q 32.71875 8.6875 34.78125 11.078125 
Q 36.859375 13.484375 37.890625 16.3125 
Q 38.921875 19.140625 38.921875 21.734375 
L 38.921875 26.078125 
L 29.296875 25.875 
Q 26.078125 25.828125 23.171875 25.40625 
Q 20.265625 25 18.0625 23.78125 
Q 15.875 22.5625 14.578125 20.359375 
Q 13.28125 18.171875 13.28125 14.59375 
Q 13.28125 10.296875 15.59375 7.953125 
Q 17.921875 5.609375 22.21875 5.609375 
z
" id="LiberationSans-61"/>
    </defs>
    <g style="fill:#262626;" transform="translate(204.051563 28.56)scale(0.12 -0.12)">
     <use xlink:href="#LiberationSans-42"/>
     <use x="66.699219" xlink:href="#LiberationSans-61"/>
     <use x="122.314453" xlink:href="#LiberationSans-31"/>
     <use x="177.929688" xlink:href="#LiberationSans-33"/>
     <use x="233.544922" xlink:href="#LiberationSans-33"/>
    </g>
   </g>
   <g id="legend_1">
    <g id="line2d_35">
     <path d="M 336.239062 47.306875 
L 356.239062 47.306875 
" style="fill:none;stroke:#4c72b0;stroke-linecap:round;stroke-width:1.75;"/>
    </g>
    <g id="line2d_36"/>
    <g id="text_19">
     <!-- vac -->
     <defs>
      <path d="M 29.9375 0 
L 19.53125 0 
L 0.34375 52.828125 
L 9.71875 52.828125 
L 21.34375 18.453125 
Q 21.6875 17.390625 22.140625 15.84375 
Q 22.609375 14.3125 23.09375 12.640625 
Q 23.578125 10.984375 24 9.4375 
Q 24.421875 7.90625 24.703125 6.890625 
Q 25 7.90625 25.453125 9.4375 
Q 25.921875 10.984375 26.40625 12.59375 
Q 26.90625 14.203125 27.421875 15.734375 
Q 27.9375 17.28125 28.328125 18.359375 
L 40.328125 52.828125 
L 49.65625 52.828125 
z
" id="LiberationSans-76"/>
      <path d="M 13.421875 26.65625 
Q 13.421875 22.125 14.078125 18.3125 
Q 14.75 14.5 16.3125 11.734375 
Q 17.875 8.984375 20.4375 7.46875 
Q 23 5.953125 26.765625 5.953125 
Q 31.453125 5.953125 34.59375 8.484375 
Q 37.75 11.03125 38.484375 16.3125 
L 47.359375 15.71875 
Q 46.921875 12.453125 45.453125 9.421875 
Q 44 6.390625 41.484375 4.09375 
Q 38.96875 1.8125 35.34375 0.40625 
Q 31.734375 -0.984375 27 -0.984375 
Q 20.796875 -0.984375 16.453125 1.109375 
Q 12.109375 3.21875 9.390625 6.90625 
Q 6.6875 10.59375 5.46875 15.59375 
Q 4.25 20.609375 4.25 26.46875 
Q 4.25 31.78125 5.125 35.859375 
Q 6 39.9375 7.59375 42.984375 
Q 9.1875 46.046875 11.328125 48.125 
Q 13.484375 50.203125 15.984375 51.4375 
Q 18.5 52.6875 21.28125 53.25 
Q 24.078125 53.8125 26.90625 53.8125 
Q 31.34375 53.8125 34.8125 52.59375 
Q 38.28125 51.375 40.796875 49.25 
Q 43.3125 47.125 44.875 44.234375 
Q 46.4375 41.359375 47.078125 38.03125 
L 38.03125 37.359375 
Q 37.359375 41.75 34.5625 44.328125 
Q 31.78125 46.921875 26.65625 46.921875 
Q 22.90625 46.921875 20.390625 45.671875 
Q 17.875 44.4375 16.3125 41.921875 
Q 14.75 39.40625 14.078125 35.59375 
Q 13.421875 31.78125 13.421875 26.65625 
z
" id="LiberationSans-63"/>
     </defs>
     <g style="fill:#262626;" transform="translate(364.239062 50.806875)scale(0.1 -0.1)">
      <use xlink:href="#LiberationSans-76"/>
      <use x="50" xlink:href="#LiberationSans-61"/>
      <use x="105.615234" xlink:href="#LiberationSans-63"/>
     </g>
    </g>
    <g id="line2d_37">
     <path d="M 336.239062 61.62875 
L 356.239062 61.62875 
" style="fill:none;stroke:#55a868;stroke-linecap:round;stroke-width:1.75;"/>
    </g>
    <g id="line2d_38"/>
    <g id="text_20">
     <!-- al -->
     <defs>
      <path d="M 6.734375 0 
L 6.734375 72.46875 
L 15.53125 72.46875 
L 15.53125 0 
z
" id="LiberationSans-6c"/>
     </defs>
     <g style="fill:#262626;" transform="translate(364.239062 65.12875)scale(0.1 -0.1)">
      <use xlink:href="#LiberationSans-61"/>
      <use x="55.615234" xlink:href="#LiberationSans-6c"/>
     </g>
    </g>
   </g>
  </g>
 </g>
 <defs>
  <clipPath id="pc0c439506f">
   <rect height="217.44" width="334.8" x="54" y="34.56"/>
  </clipPath>
 </defs>
</svg>
