<?xml version="1.0" encoding="UTF-8" standalone="no"?>
<!-- Created with matplotlib (http://matplotlib.org/) -->

<svg
   xmlns:dc="http://purl.org/dc/elements/1.1/"
   xmlns:cc="http://creativecommons.org/ns#"
   xmlns:rdf="http://www.w3.org/1999/02/22-rdf-syntax-ns#"
   xmlns:svg="http://www.w3.org/2000/svg"
   xmlns="http://www.w3.org/2000/svg"
   xmlns:xlink="http://www.w3.org/1999/xlink"
   xmlns:sodipodi="http://sodipodi.sourceforge.net/DTD/sodipodi-0.dtd"
   xmlns:inkscape="http://www.inkscape.org/namespaces/inkscape"
   height="262.39532pt"
   version="1.1"
   viewBox="0 0 363.26132 262.39532"
   width="363.26132pt"
   id="svg366"
   sodipodi:docname="predict_Cs137.svg"
   inkscape:version="0.92.3 (2405546, 2018-03-11)">
  <metadata
     id="metadata370">
    <rdf:RDF>
      <cc:Work
         rdf:about="">
        <dc:format>image/svg+xml</dc:format>
        <dc:type
           rdf:resource="http://purl.org/dc/dcmitype/StillImage" />
        <dc:title></dc:title>
      </cc:Work>
    </rdf:RDF>
  </metadata>
  <sodipodi:namedview
     pagecolor="#ffffff"
     bordercolor="#666666"
     borderopacity="1"
     objecttolerance="10"
     gridtolerance="10"
     guidetolerance="10"
     inkscape:pageopacity="0"
     inkscape:pageshadow="2"
     inkscape:window-width="1366"
     inkscape:window-height="728"
     id="namedview368"
     showgrid="false"
     fit-margin-top="0"
     fit-margin-left="0"
     fit-margin-right="0"
     fit-margin-bottom="0"
     inkscape:zoom="1.2325264"
     inkscape:cx="523.48138"
     inkscape:cy="147.09198"
     inkscape:window-x="0"
     inkscape:window-y="0"
     inkscape:window-maximized="1"
     inkscape:current-layer="svg366" />
  <defs
     id="defs4"
     style="stroke-linecap:butt;stroke-linejoin:round">
    <style
       type="text/css"
       id="style2">
*{stroke-linecap:butt;stroke-linejoin:round;}
  </style>
  </defs>
  <g
     style="stroke-linecap:butt;stroke-linejoin:round"
     id="axes_1"
     transform="translate(-33.490625,-20.180625)">
    <g
       style="stroke-linecap:butt;stroke-linejoin:round"
       id="patch_2">
      <path
         inkscape:connector-curvature="0"
         id="path9"
         style="fill:#eaeaf2;stroke-linecap:butt;stroke-linejoin:round"
         d="M 54,252 H 388.8 V 34.56 H 54 Z" />
    </g>
    <g
       style="stroke-linecap:butt;stroke-linejoin:round"
       id="matplotlib.axis_1">
      <g
         style="stroke-linecap:butt;stroke-linejoin:round"
         id="xtick_1">
        <g
           style="stroke-linecap:butt;stroke-linejoin:round"
           id="line2d_1">
          <path
             inkscape:connector-curvature="0"
             id="path12"
             style="fill:none;stroke:#ffffff;stroke-linecap:round;stroke-linejoin:round"
             d="M 54,252 V 34.56"
             clip-path="url(#p217e995fdf)" />
        </g>
        <g
           style="stroke-linecap:butt;stroke-linejoin:round"
           id="line2d_2" />
        <g
           style="stroke-linecap:butt;stroke-linejoin:round"
           id="text_1">
          <!-- 10 -->
          <defs
             id="defs18">
            <path
               style="stroke-linecap:butt;stroke-linejoin:round"
               inkscape:connector-curvature="0"
               id="LiberationSans-31"
               d="m 7.625,0 v 7.46875 h 17.515625 v 52.9375 L 9.625,49.3125 v 8.3125 l 16.25,11.171875 h 8.109375 V 7.46875 h 16.75 V 0 Z" />
            <path
               style="stroke-linecap:butt;stroke-linejoin:round"
               inkscape:connector-curvature="0"
               id="LiberationSans-30"
               d="m 51.703125,34.421875 q 0,-9.90625 -1.875,-16.671875 -1.875,-6.765625 -5.125,-10.9375 -3.25,-4.171875 -7.640625,-5.984375 -4.390625,-1.8125 -9.375,-1.8125 -5.03125,0 -9.375,1.8125 -4.34375,1.8125 -7.546875,5.953125 Q 7.5625,10.9375 5.734375,17.703125 3.90625,24.46875 3.90625,34.421875 q 0,10.40625 1.828125,17.21875 1.828125,6.8125 5.046875,10.859375 3.234375,4.046875 7.625,5.6875 4.390625,1.640625 9.578125,1.640625 4.921875,0 9.234375,-1.640625 Q 41.546875,66.546875 44.765625,62.5 48,58.453125 49.84375,51.640625 q 1.859375,-6.8125 1.859375,-17.21875 z m -8.921875,0 q 0,8.203125 -0.984375,13.640625 -0.96875,5.453125 -2.875,8.703125 -1.90625,3.25 -4.671875,4.59375 -2.75,1.34375 -6.265625,1.34375 -3.71875,0 -6.546875,-1.375 -2.828125,-1.359375 -4.765625,-4.609375 -1.921875,-3.25 -2.90625,-8.703125 -0.96875,-5.4375 -0.96875,-13.59375 0,-7.90625 1,-13.328125 1,-5.421875 2.921875,-8.71875 1.9375,-3.296875 4.71875,-4.734375 2.78125,-1.4375 6.34375,-1.4375 3.46875,0 6.25,1.4375 2.78125,1.4375 4.703125,4.734375 1.9375,3.296875 2.984375,8.71875 1.0625,5.421875 1.0625,13.328125 z" />
          </defs>
          <g
             id="g24"
             transform="matrix(0.1,0,0,-0.1,48.439062,266.24687)"
             style="fill:#262626;stroke-linecap:butt;stroke-linejoin:round">
            <use
               height="100%"
               width="100%"
               y="0"
               x="0"
               style="stroke-linecap:butt;stroke-linejoin:round"
               id="use20"
               xlink:href="#LiberationSans-31" />
            <use
               height="100%"
               width="100%"
               y="0"
               style="stroke-linecap:butt;stroke-linejoin:round"
               id="use22"
               xlink:href="#LiberationSans-30"
               x="55.615234" />
          </g>
        </g>
      </g>
      <g
         style="stroke-linecap:butt;stroke-linejoin:round"
         id="xtick_2">
        <g
           style="stroke-linecap:butt;stroke-linejoin:round"
           id="line2d_3">
          <path
             inkscape:connector-curvature="0"
             id="path28"
             style="fill:none;stroke:#ffffff;stroke-linecap:round;stroke-linejoin:round"
             d="M 91.2,252 V 34.56"
             clip-path="url(#p217e995fdf)" />
        </g>
        <g
           style="stroke-linecap:butt;stroke-linejoin:round"
           id="line2d_4" />
        <g
           style="stroke-linecap:butt;stroke-linejoin:round"
           id="text_2">
          <!-- 20 -->
          <defs
             id="defs33">
            <path
               style="stroke-linecap:butt;stroke-linejoin:round"
               inkscape:connector-curvature="0"
               id="LiberationSans-32"
               d="m 5.03125,0 v 6.203125 q 2.484375,5.71875 6.078125,10.078125 3.59375,4.375 7.546875,7.90625 3.953125,3.546875 7.828125,6.578125 Q 30.375,33.796875 33.5,36.8125 q 3.125,3.03125 5.046875,6.34375 1.9375,3.328125 1.9375,7.53125 0,2.921875 -0.890625,5.140625 -0.875,2.234375 -2.53125,3.734375 -1.65625,1.515625 -3.984375,2.265625 -2.3125,0.765625 -5.140625,0.765625 -2.640625,0 -4.96875,-0.734375 -2.3125,-0.71875 -4.125,-2.1875 Q 17.046875,58.203125 15.890625,56.03125 14.75,53.859375 14.40625,50.984375 L 5.421875,51.8125 q 0.4375,3.703125 2.046875,6.96875 1.609375,3.28125 4.4375,5.75 2.84375,2.46875 6.8125,3.875 3.984375,1.421875 9.21875,1.421875 5.125,0 9.125,-1.21875 4,-1.21875 6.75,-3.625 2.765625,-2.390625 4.234375,-5.90625 1.46875,-3.515625 1.46875,-8.09375 0,-3.46875 -1.25,-6.59375 -1.25,-3.125 -3.328125,-5.96875 -2.0625,-2.828125 -4.796875,-5.46875 -2.734375,-2.625 -5.71875,-5.140625 -2.96875,-2.515625 -6,-4.984375 -3.03125,-2.46875 -5.703125,-4.96875 Q 20.0625,15.375 17.96875,12.8125 15.875,10.25 14.703125,7.46875 H 50.59375 V 0 Z" />
          </defs>
          <g
             id="g39"
             transform="matrix(0.1,0,0,-0.1,85.639063,266.24687)"
             style="fill:#262626;stroke-linecap:butt;stroke-linejoin:round">
            <use
               height="100%"
               width="100%"
               y="0"
               x="0"
               style="stroke-linecap:butt;stroke-linejoin:round"
               id="use35"
               xlink:href="#LiberationSans-32" />
            <use
               height="100%"
               width="100%"
               y="0"
               style="stroke-linecap:butt;stroke-linejoin:round"
               id="use37"
               xlink:href="#LiberationSans-30"
               x="55.615234" />
          </g>
        </g>
      </g>
      <g
         style="stroke-linecap:butt;stroke-linejoin:round"
         id="xtick_3">
        <g
           style="stroke-linecap:butt;stroke-linejoin:round"
           id="line2d_5">
          <path
             inkscape:connector-curvature="0"
             id="path43"
             style="fill:none;stroke:#ffffff;stroke-linecap:round;stroke-linejoin:round"
             d="M 128.4,252 V 34.56"
             clip-path="url(#p217e995fdf)" />
        </g>
        <g
           style="stroke-linecap:butt;stroke-linejoin:round"
           id="line2d_6" />
        <g
           style="stroke-linecap:butt;stroke-linejoin:round"
           id="text_3">
          <!-- 30 -->
          <defs
             id="defs48">
            <path
               style="stroke-linecap:butt;stroke-linejoin:round"
               inkscape:connector-curvature="0"
               id="LiberationSans-33"
               d="m 51.21875,19 q 0,-4.734375 -1.546875,-8.453125 Q 48.140625,6.84375 45.1875,4.265625 42.234375,1.703125 37.859375,0.359375 33.5,-0.984375 27.875,-0.984375 q -6.390625,0 -10.765625,1.59375 Q 12.75,2.203125 9.90625,4.8125 7.078125,7.421875 5.65625,10.765625 4.25,14.109375 3.8125,17.671875 L 12.890625,18.5 q 0.390625,-2.734375 1.4375,-4.984375 Q 15.375,11.28125 17.1875,9.671875 19,8.0625 21.625,7.171875 q 2.640625,-0.875 6.25,-0.875 6.640625,0 10.421875,3.265625 3.796875,3.28125 3.796875,9.71875 0,3.8125 -1.6875,6.125 -1.6875,2.328125 -4.203125,3.625 -2.515625,1.296875 -5.46875,1.734375 -2.953125,0.4375 -5.4375,0.4375 H 20.3125 V 38.8125 h 4.78125 q 2.5,0 5.171875,0.515625 2.6875,0.515625 4.90625,1.859375 2.234375,1.34375 3.671875,3.640625 1.4375,2.296875 1.4375,5.859375 0,5.515625 -3.25,8.703125 -3.234375,3.203125 -9.640625,3.203125 -5.8125,0 -9.40625,-2.984375 Q 14.40625,56.640625 13.8125,51.21875 l -8.828125,0.6875 q 0.53125,4.546875 2.484375,7.90625 1.953125,3.375 4.953125,5.59375 3.015625,2.21875 6.859375,3.3125 3.859375,1.109375 8.203125,1.109375 5.765625,0 9.90625,-1.453125 4.15625,-1.4375 6.796875,-3.90625 2.640625,-2.453125 3.875,-5.78125 1.25,-3.3125 1.25,-7.078125 0,-3.03125 -0.828125,-5.671875 -0.828125,-2.625 -2.59375,-4.734375 -1.75,-2.09375 -4.46875,-3.609375 -2.703125,-1.515625 -6.515625,-2.296875 v -0.1875 q 4.15625,-0.4375 7.234375,-1.890625 3.078125,-1.4375 5.078125,-3.59375 2,-2.140625 3,-4.875 1,-2.734375 1,-5.75 z" />
          </defs>
          <g
             id="g54"
             transform="matrix(0.1,0,0,-0.1,122.83906,266.24687)"
             style="fill:#262626;stroke-linecap:butt;stroke-linejoin:round">
            <use
               height="100%"
               width="100%"
               y="0"
               x="0"
               style="stroke-linecap:butt;stroke-linejoin:round"
               id="use50"
               xlink:href="#LiberationSans-33" />
            <use
               height="100%"
               width="100%"
               y="0"
               style="stroke-linecap:butt;stroke-linejoin:round"
               id="use52"
               xlink:href="#LiberationSans-30"
               x="55.615234" />
          </g>
        </g>
      </g>
      <g
         style="stroke-linecap:butt;stroke-linejoin:round"
         id="xtick_4">
        <g
           style="stroke-linecap:butt;stroke-linejoin:round"
           id="line2d_7">
          <path
             inkscape:connector-curvature="0"
             id="path58"
             style="fill:none;stroke:#ffffff;stroke-linecap:round;stroke-linejoin:round"
             d="M 165.6,252 V 34.56"
             clip-path="url(#p217e995fdf)" />
        </g>
        <g
           style="stroke-linecap:butt;stroke-linejoin:round"
           id="line2d_8" />
        <g
           style="stroke-linecap:butt;stroke-linejoin:round"
           id="text_4">
          <!-- 40 -->
          <defs
             id="defs63">
            <path
               style="stroke-linecap:butt;stroke-linejoin:round"
               inkscape:connector-curvature="0"
               id="LiberationSans-34"
               d="M 43.015625,15.578125 V 0 H 34.71875 V 15.578125 H 2.296875 v 6.828125 l 31.5,46.390625 h 9.21875 V 22.515625 H 52.6875 v -6.9375 z m -8.296875,43.3125 q -0.09375,-0.25 -0.484375,-0.953125 -0.390625,-0.703125 -0.890625,-1.59375 -0.484375,-0.875 -1,-1.78125 -0.5,-0.90625 -0.890625,-1.484375 L 13.8125,27.09375 Q 13.578125,26.703125 13.109375,26.0625 12.640625,25.4375 12.15625,24.78125 11.671875,24.125 11.171875,23.484375 10.6875,22.859375 10.40625,22.515625 h 24.3125 z" />
          </defs>
          <g
             id="g69"
             transform="matrix(0.1,0,0,-0.1,160.03906,266.24687)"
             style="fill:#262626;stroke-linecap:butt;stroke-linejoin:round">
            <use
               height="100%"
               width="100%"
               y="0"
               x="0"
               style="stroke-linecap:butt;stroke-linejoin:round"
               id="use65"
               xlink:href="#LiberationSans-34" />
            <use
               height="100%"
               width="100%"
               y="0"
               style="stroke-linecap:butt;stroke-linejoin:round"
               id="use67"
               xlink:href="#LiberationSans-30"
               x="55.615234" />
          </g>
        </g>
      </g>
      <g
         style="stroke-linecap:butt;stroke-linejoin:round"
         id="xtick_5">
        <g
           style="stroke-linecap:butt;stroke-linejoin:round"
           id="line2d_9">
          <path
             inkscape:connector-curvature="0"
             id="path73"
             style="fill:none;stroke:#ffffff;stroke-linecap:round;stroke-linejoin:round"
             d="M 202.8,252 V 34.56"
             clip-path="url(#p217e995fdf)" />
        </g>
        <g
           style="stroke-linecap:butt;stroke-linejoin:round"
           id="line2d_10" />
        <g
           style="stroke-linecap:butt;stroke-linejoin:round"
           id="text_5">
          <!-- 50 -->
          <defs
             id="defs78">
            <path
               style="stroke-linecap:butt;stroke-linejoin:round"
               inkscape:connector-curvature="0"
               id="LiberationSans-35"
               d="m 51.421875,22.40625 q 0,-5.171875 -1.5625,-9.46875 Q 48.296875,8.640625 45.21875,5.53125 42.140625,2.4375 37.578125,0.71875 33.015625,-0.984375 27,-0.984375 q -5.421875,0 -9.453125,1.265625 -4.015625,1.28125 -6.8125,3.5 Q 7.953125,6 6.3125,8.984375 4.6875,11.96875 4,15.375 l 8.890625,1.03125 q 0.53125,-1.953125 1.5,-3.78125 Q 15.375,10.796875 17.0625,9.34375 18.75,7.90625 21.21875,7.046875 q 2.46875,-0.84375 5.984375,-0.84375 3.40625,0 6.1875,1.046875 2.796875,1.046875 4.765625,3.09375 1.984375,2.0625 3.046875,5.03125 1.078125,2.984375 1.078125,6.84375 0,3.171875 -1.03125,5.828125 -1.015625,2.671875 -2.921875,4.59375 -1.90625,1.9375 -4.671875,3 -2.75,1.078125 -6.265625,1.078125 -2.1875,0 -4.046875,-0.390625 Q 21.484375,35.9375 19.890625,35.25 18.3125,34.578125 17.015625,33.671875 15.71875,32.765625 14.59375,31.78125 H 6 L 8.296875,68.796875 H 47.40625 v -7.46875 H 16.3125 L 14.984375,39.5 q 2.34375,1.8125 5.859375,3.09375 3.515625,1.296875 8.359375,1.296875 5.125,0 9.21875,-1.5625 4.109375,-1.5625 6.984375,-4.421875 2.890625,-2.84375 4.453125,-6.796875 1.5625,-3.953125 1.5625,-8.703125 z" />
          </defs>
          <g
             id="g84"
             transform="matrix(0.1,0,0,-0.1,197.23906,266.24687)"
             style="fill:#262626;stroke-linecap:butt;stroke-linejoin:round">
            <use
               height="100%"
               width="100%"
               y="0"
               x="0"
               style="stroke-linecap:butt;stroke-linejoin:round"
               id="use80"
               xlink:href="#LiberationSans-35" />
            <use
               height="100%"
               width="100%"
               y="0"
               style="stroke-linecap:butt;stroke-linejoin:round"
               id="use82"
               xlink:href="#LiberationSans-30"
               x="55.615234" />
          </g>
        </g>
      </g>
      <g
         style="stroke-linecap:butt;stroke-linejoin:round"
         id="xtick_6">
        <g
           style="stroke-linecap:butt;stroke-linejoin:round"
           id="line2d_11">
          <path
             inkscape:connector-curvature="0"
             id="path88"
             style="fill:none;stroke:#ffffff;stroke-linecap:round;stroke-linejoin:round"
             d="M 240,252 V 34.56"
             clip-path="url(#p217e995fdf)" />
        </g>
        <g
           style="stroke-linecap:butt;stroke-linejoin:round"
           id="line2d_12" />
        <g
           style="stroke-linecap:butt;stroke-linejoin:round"
           id="text_6">
          <!-- 60 -->
          <defs
             id="defs93">
            <path
               style="stroke-linecap:butt;stroke-linejoin:round"
               inkscape:connector-curvature="0"
               id="LiberationSans-36"
               d="m 51.21875,22.515625 q 0,-5.1875 -1.4375,-9.515625 -1.4375,-4.3125 -4.25,-7.421875 Q 42.71875,2.484375 38.5625,0.75 34.421875,-0.984375 29,-0.984375 q -6,0 -10.5,2.296875 Q 14.015625,3.609375 11.03125,7.921875 8.0625,12.25 6.5625,18.53125 5.078125,24.8125 5.078125,32.8125 q 0,9.1875 1.6875,16.109375 1.6875,6.9375 4.859375,11.578125 3.171875,4.640625 7.734375,6.984375 4.5625,2.34375 10.328125,2.34375 3.515625,0 6.59375,-0.734375 3.078125,-0.734375 5.59375,-2.375 2.515625,-1.625 4.40625,-4.3125 1.90625,-2.6875 3.03125,-6.59375 l -8.390625,-1.515625 q -1.375,4.4375 -4.375,6.421875 -3,1.984375 -6.953125,1.984375 -3.609375,0 -6.546875,-1.71875 Q 20.125,59.28125 18.0625,55.875 16.015625,52.484375 14.90625,47.359375 13.8125,42.234375 13.8125,35.40625 q 2.40625,4.4375 6.75,6.75 4.34375,2.328125 9.953125,2.328125 4.6875,0 8.5,-1.515625 3.8125,-1.515625 6.515625,-4.375 Q 48.25,35.75 49.734375,31.671875 51.21875,27.59375 51.21875,22.515625 Z M 42.28125,22.125 q 0,3.5625 -0.875,6.4375 -0.875,2.890625 -2.640625,4.90625 -1.75,2.03125 -4.34375,3.125 -2.578125,1.109375 -6,1.109375 -2.390625,0 -4.84375,-0.71875 Q 21.140625,36.28125 19.15625,34.6875 17.1875,33.109375 15.9375,30.515625 14.703125,27.9375 14.703125,24.21875 q 0,-3.8125 0.96875,-7.109375 0.984375,-3.296875 2.8125,-5.734375 1.828125,-2.4375 4.40625,-3.859375 2.59375,-1.40625 5.828125,-1.40625 3.171875,0 5.6875,1.09375 2.515625,1.09375 4.265625,3.171875 1.765625,2.078125 2.6875,5.046875 0.921875,2.984375 0.921875,6.703125 z" />
          </defs>
          <g
             id="g99"
             transform="matrix(0.1,0,0,-0.1,234.43906,266.24687)"
             style="fill:#262626;stroke-linecap:butt;stroke-linejoin:round">
            <use
               height="100%"
               width="100%"
               y="0"
               x="0"
               style="stroke-linecap:butt;stroke-linejoin:round"
               id="use95"
               xlink:href="#LiberationSans-36" />
            <use
               height="100%"
               width="100%"
               y="0"
               style="stroke-linecap:butt;stroke-linejoin:round"
               id="use97"
               xlink:href="#LiberationSans-30"
               x="55.615234" />
          </g>
        </g>
      </g>
      <g
         style="stroke-linecap:butt;stroke-linejoin:round"
         id="xtick_7">
        <g
           style="stroke-linecap:butt;stroke-linejoin:round"
           id="line2d_13">
          <path
             inkscape:connector-curvature="0"
             id="path103"
             style="fill:none;stroke:#ffffff;stroke-linecap:round;stroke-linejoin:round"
             d="M 277.2,252 V 34.56"
             clip-path="url(#p217e995fdf)" />
        </g>
        <g
           style="stroke-linecap:butt;stroke-linejoin:round"
           id="line2d_14" />
        <g
           style="stroke-linecap:butt;stroke-linejoin:round"
           id="text_7">
          <!-- 70 -->
          <defs
             id="defs108">
            <path
               style="stroke-linecap:butt;stroke-linejoin:round"
               inkscape:connector-curvature="0"
               id="LiberationSans-37"
               d="M 50.59375,61.671875 Q 45.40625,53.765625 41.0625,46.453125 36.71875,39.15625 33.59375,31.75 30.46875,24.359375 28.734375,16.578125 27,8.796875 27,0 h -9.171875 q 0,8.25 1.953125,16.1875 1.953125,7.9375 5.265625,15.578125 3.328125,7.640625 7.71875,15.015625 4.390625,7.375 9.328125,14.546875 H 5.125 v 7.46875 h 45.46875 z" />
          </defs>
          <g
             id="g114"
             transform="matrix(0.1,0,0,-0.1,271.63906,266.24687)"
             style="fill:#262626;stroke-linecap:butt;stroke-linejoin:round">
            <use
               height="100%"
               width="100%"
               y="0"
               x="0"
               style="stroke-linecap:butt;stroke-linejoin:round"
               id="use110"
               xlink:href="#LiberationSans-37" />
            <use
               height="100%"
               width="100%"
               y="0"
               style="stroke-linecap:butt;stroke-linejoin:round"
               id="use112"
               xlink:href="#LiberationSans-30"
               x="55.615234" />
          </g>
        </g>
      </g>
      <g
         style="stroke-linecap:butt;stroke-linejoin:round"
         id="xtick_8">
        <g
           style="stroke-linecap:butt;stroke-linejoin:round"
           id="line2d_15">
          <path
             inkscape:connector-curvature="0"
             id="path118"
             style="fill:none;stroke:#ffffff;stroke-linecap:round;stroke-linejoin:round"
             d="M 314.4,252 V 34.56"
             clip-path="url(#p217e995fdf)" />
        </g>
        <g
           style="stroke-linecap:butt;stroke-linejoin:round"
           id="line2d_16" />
        <g
           style="stroke-linecap:butt;stroke-linejoin:round"
           id="text_8">
          <!-- 80 -->
          <defs
             id="defs123">
            <path
               style="stroke-linecap:butt;stroke-linejoin:round"
               inkscape:connector-curvature="0"
               id="LiberationSans-38"
               d="m 51.265625,19.1875 q 0,-4.390625 -1.390625,-8.078125 -1.390625,-3.6875 -4.25,-6.375 -2.84375,-2.6875 -7.296875,-4.203125 -4.4375,-1.515625 -10.5,-1.515625 -6.046875,0 -10.46875,1.515625 Q 12.9375,2.046875 10.03125,4.703125 7.125,7.375 5.734375,11.0625 4.34375,14.75 4.34375,19.09375 q 0,3.765625 1.140625,6.6875 1.15625,2.9375 3.078125,5.046875 1.9375,2.125 4.40625,3.421875 2.46875,1.296875 5.09375,1.734375 V 36.1875 q -2.875,0.671875 -5.15625,2.1875 -2.265625,1.515625 -3.8125,3.640625 -1.53125,2.125 -2.34375,4.703125 -0.796875,2.59375 -0.796875,5.484375 0,3.609375 1.390625,6.796875 1.390625,3.203125 4.125,5.625 2.734375,2.421875 6.78125,3.8125 4.0625,1.390625 9.390625,1.390625 5.609375,0 9.734375,-1.421875 Q 41.5,67 44.203125,64.578125 46.921875,62.15625 48.234375,58.9375 49.5625,55.71875 49.5625,52.09375 q 0,-2.828125 -0.8125,-5.421875 -0.796875,-2.578125 -2.34375,-4.703125 -1.53125,-2.125 -3.8125,-3.625 -2.265625,-1.484375 -5.234375,-2.0625 v -0.203125 q 2.96875,-0.484375 5.5,-1.78125 2.546875,-1.28125 4.40625,-3.40625 1.859375,-2.125 2.921875,-5.0625 1.078125,-2.921875 1.078125,-6.640625 z M 40.4375,51.609375 q 0,2.59375 -0.671875,4.734375 -0.65625,2.15625 -2.171875,3.6875 -1.515625,1.546875 -3.953125,2.390625 -2.4375,0.859375 -6,0.859375 -3.46875,0 -5.859375,-0.859375 -2.390625,-0.84375 -3.9375,-2.390625 Q 16.3125,58.5 15.625,56.34375 q -0.6875,-2.140625 -0.6875,-4.734375 0,-2.046875 0.53125,-4.203125 0.546875,-2.140625 1.953125,-3.90625 1.421875,-1.75 3.90625,-2.875 2.5,-1.125 6.40625,-1.125 4.15625,0 6.671875,1.125 2.515625,1.125 3.84375,2.875 1.34375,1.765625 1.765625,3.90625 0.421875,2.15625 0.421875,4.203125 z m 1.703125,-31.59375 q 0,2.5 -0.6875,4.8125 -0.6875,2.328125 -2.34375,4.109375 -1.65625,1.78125 -4.46875,2.875 -2.796875,1.09375 -7,1.09375 -3.859375,0 -6.578125,-1.09375 -2.703125,-1.09375 -4.390625,-2.90625 -1.6875,-1.8125 -2.46875,-4.1875 -0.78125,-2.359375 -0.78125,-4.890625 0,-3.171875 0.78125,-5.796875 0.78125,-2.609375 2.484375,-4.484375 1.71875,-1.875 4.5,-2.90625 2.78125,-1.03125 6.75,-1.03125 4,0 6.734375,1.03125 2.734375,1.03125 4.390625,2.90625 1.65625,1.875 2.359375,4.53125 0.71875,2.671875 0.71875,5.9375 z" />
          </defs>
          <g
             id="g129"
             transform="matrix(0.1,0,0,-0.1,308.83906,266.24687)"
             style="fill:#262626;stroke-linecap:butt;stroke-linejoin:round">
            <use
               height="100%"
               width="100%"
               y="0"
               x="0"
               style="stroke-linecap:butt;stroke-linejoin:round"
               id="use125"
               xlink:href="#LiberationSans-38" />
            <use
               height="100%"
               width="100%"
               y="0"
               style="stroke-linecap:butt;stroke-linejoin:round"
               id="use127"
               xlink:href="#LiberationSans-30"
               x="55.615234" />
          </g>
        </g>
      </g>
      <g
         style="stroke-linecap:butt;stroke-linejoin:round"
         id="xtick_9">
        <g
           style="stroke-linecap:butt;stroke-linejoin:round"
           id="line2d_17">
          <path
             inkscape:connector-curvature="0"
             id="path133"
             style="fill:none;stroke:#ffffff;stroke-linecap:round;stroke-linejoin:round"
             d="M 351.6,252 V 34.56"
             clip-path="url(#p217e995fdf)" />
        </g>
        <g
           style="stroke-linecap:butt;stroke-linejoin:round"
           id="line2d_18" />
        <g
           style="stroke-linecap:butt;stroke-linejoin:round"
           id="text_9">
          <!-- 90 -->
          <defs
             id="defs138">
            <path
               style="stroke-linecap:butt;stroke-linejoin:round"
               inkscape:connector-curvature="0"
               id="LiberationSans-39"
               d="m 50.875,35.796875 q 0,-9.1875 -1.734375,-16.09375 -1.734375,-6.90625 -4.953125,-11.5 -3.21875,-4.59375 -7.84375,-6.890625 -4.609375,-2.296875 -10.359375,-2.296875 -3.96875,0 -7.140625,0.8125 -3.171875,0.8125 -5.671875,2.515625 -2.484375,1.703125 -4.25,4.4375 -1.75,2.734375 -2.8125,6.59375 L 14.5,14.703125 q 1.375,-4.453125 4.28125,-6.53125 2.90625,-2.0625 7.34375,-2.0625 3.5625,0 6.515625,1.671875 2.953125,1.6875 5.03125,5.0625 2.078125,3.375 3.25,8.453125 Q 42.09375,26.375 42.1875,33.203125 41.15625,30.90625 39.375,29.09375 37.59375,27.296875 35.328125,26.046875 33.0625,24.8125 30.421875,24.140625 q -2.640625,-0.65625 -5.328125,-0.65625 -4.6875,0 -8.46875,1.6875 -3.78125,1.6875 -6.421875,4.703125 Q 7.5625,32.90625 6.125,37.171875 4.6875,41.453125 4.6875,46.6875 q 0,5.3125 1.53125,9.609375 1.546875,4.296875 4.46875,7.296875 2.9375,3.015625 7.203125,4.625 4.28125,1.609375 9.703125,1.609375 11.46875,0 17.375,-8.5 5.90625,-8.5 5.90625,-25.53125 z m -9.5625,8.484375 q 0,3.8125 -0.90625,7.171875 -0.90625,3.375 -2.6875,5.859375 -1.78125,2.5 -4.390625,3.9375 -2.609375,1.453125 -6.03125,1.453125 -3.171875,0 -5.71875,-1.125 -2.53125,-1.125 -4.296875,-3.203125 -1.75,-2.078125 -2.703125,-5.0625 Q 13.625,50.34375 13.625,46.6875 q 0,-3.46875 0.84375,-6.453125 0.859375,-2.984375 2.5625,-5.15625 1.71875,-2.171875 4.25,-3.421875 2.546875,-1.234375 5.921875,-1.234375 2.4375,0 4.953125,0.828125 2.515625,0.828125 4.53125,2.53125 2.03125,1.71875 3.328125,4.328125 1.296875,2.609375 1.296875,6.171875 z" />
          </defs>
          <g
             id="g144"
             transform="matrix(0.1,0,0,-0.1,346.03906,266.24687)"
             style="fill:#262626;stroke-linecap:butt;stroke-linejoin:round">
            <use
               height="100%"
               width="100%"
               y="0"
               x="0"
               style="stroke-linecap:butt;stroke-linejoin:round"
               id="use140"
               xlink:href="#LiberationSans-39" />
            <use
               height="100%"
               width="100%"
               y="0"
               style="stroke-linecap:butt;stroke-linejoin:round"
               id="use142"
               xlink:href="#LiberationSans-30"
               x="55.615234" />
          </g>
        </g>
      </g>
      <g
         style="stroke-linecap:butt;stroke-linejoin:round"
         id="xtick_10">
        <g
           style="stroke-linecap:butt;stroke-linejoin:round"
           id="line2d_19">
          <path
             inkscape:connector-curvature="0"
             id="path148"
             style="fill:none;stroke:#ffffff;stroke-linecap:round;stroke-linejoin:round"
             d="M 388.8,252 V 34.56"
             clip-path="url(#p217e995fdf)" />
        </g>
        <g
           style="stroke-linecap:butt;stroke-linejoin:round"
           id="line2d_20" />
        <g
           style="stroke-linecap:butt;stroke-linejoin:round"
           id="text_10">
          <!-- 100 -->
          <g
             id="g158"
             transform="matrix(0.1,0,0,-0.1,380.45859,266.24687)"
             style="fill:#262626;stroke-linecap:butt;stroke-linejoin:round">
            <use
               height="100%"
               width="100%"
               y="0"
               x="0"
               style="stroke-linecap:butt;stroke-linejoin:round"
               id="use152"
               xlink:href="#LiberationSans-31" />
            <use
               height="100%"
               width="100%"
               y="0"
               style="stroke-linecap:butt;stroke-linejoin:round"
               id="use154"
               xlink:href="#LiberationSans-30"
               x="55.615234" />
            <use
               height="100%"
               width="100%"
               y="0"
               style="stroke-linecap:butt;stroke-linejoin:round"
               id="use156"
               xlink:href="#LiberationSans-30"
               x="111.23047" />
          </g>
        </g>
      </g>
      <g
         style="stroke-linecap:butt;stroke-linejoin:round"
         id="text_11">
        <!-- Energy (keV) -->
        <defs
           id="defs173">
          <path
             style="stroke-linecap:butt;stroke-linejoin:round"
             inkscape:connector-curvature="0"
             id="LiberationSans-45"
             d="M 8.203125,0 V 68.796875 H 60.40625 V 61.1875 h -42.875 V 39.109375 h 39.9375 V 31.59375 H 17.53125 V 7.625 h 44.875 V 0 Z" />
          <path
             style="stroke-linecap:butt;stroke-linejoin:round"
             inkscape:connector-curvature="0"
             id="LiberationSans-6e"
             d="m 40.28125,0 v 33.5 q 0,3.859375 -0.5625,6.4375 -0.5625,2.59375 -1.828125,4.171875 -1.265625,1.59375 -3.34375,2.25 -2.078125,0.65625 -5.15625,0.65625 -3.125,0 -5.640625,-1.09375 Q 21.234375,44.828125 19.453125,42.75 17.671875,40.671875 16.6875,37.625 15.71875,34.578125 15.71875,30.609375 V 0 H 6.9375 v 41.546875 q 0,1.671875 -0.03125,3.5 Q 6.890625,46.875 6.828125,48.5 6.78125,50.140625 6.734375,51.3125 6.6875,52.484375 6.640625,52.828125 H 14.9375 q 0.04687,-0.234375 0.09375,-1.3125 0.0625,-1.078125 0.125,-2.46875 0.07813,-1.390625 0.125,-2.828125 0.04687,-1.4375 0.04687,-2.421875 h 0.15625 q 1.265625,2.296875 2.78125,4.15625 1.515625,1.859375 3.515625,3.140625 2,1.296875 4.578125,2 2.59375,0.71875 6.015625,0.71875 4.390625,0 7.5625,-1.078125 3.171875,-1.078125 5.21875,-3.328125 2.0625,-2.234375 3.015625,-5.78125 Q 49.125,40.09375 49.125,35.203125 V 0 Z" />
          <path
             style="stroke-linecap:butt;stroke-linejoin:round"
             inkscape:connector-curvature="0"
             id="LiberationSans-65"
             d="m 13.484375,24.5625 q 0,-4.15625 0.84375,-7.65625 0.859375,-3.484375 2.640625,-6 1.78125,-2.5 4.5625,-3.90625 2.78125,-1.390625 6.6875,-1.390625 5.71875,0 9.15625,2.296875 3.453125,2.296875 4.671875,5.8125 L 49.75,11.53125 Q 48.921875,9.328125 47.4375,7.109375 45.953125,4.890625 43.453125,3.09375 40.96875,1.3125 37.234375,0.15625 33.5,-0.984375 28.21875,-0.984375 16.5,-0.984375 10.375,6 4.25,12.984375 4.25,26.765625 q 0,7.421875 1.84375,12.5625 1.859375,5.15625 5.078125,8.375 3.234375,3.21875 7.53125,4.65625 Q 23,53.8125 27.875,53.8125 q 6.640625,0 11.109375,-2.15625 4.46875,-2.140625 7.171875,-5.9375 2.71875,-3.78125 3.859375,-8.90625 1.15625,-5.125 1.15625,-11.078125 V 24.5625 Z m 28.609375,6.734375 q -0.734375,8.359375 -4.25,12.1875 -3.515625,3.828125 -10.109375,3.828125 -2.203125,0 -4.625,-0.703125 -2.40625,-0.703125 -4.453125,-2.515625 -2.046875,-1.8125 -3.46875,-4.921875 -1.421875,-3.09375 -1.609375,-7.875 z" />
          <path
             style="stroke-linecap:butt;stroke-linejoin:round"
             inkscape:connector-curvature="0"
             id="LiberationSans-72"
             d="m 6.9375,0 v 40.53125 q 0,1.65625 -0.03125,3.390625 Q 6.890625,45.65625 6.828125,47.265625 6.78125,48.875 6.734375,50.28125 6.6875,51.703125 6.640625,52.828125 H 14.9375 q 0.04687,-1.125 0.125,-2.5625 0.07813,-1.4375 0.140625,-2.953125 0.07813,-1.515625 0.09375,-2.90625 0.03125,-1.390625 0.03125,-2.359375 H 15.53125 Q 16.453125,45.0625 17.5,47.28125 q 1.0625,2.234375 2.46875,3.671875 1.421875,1.4375 3.375,2.140625 1.953125,0.71875 4.734375,0.71875 1.078125,0 2.046875,-0.171875 0.984375,-0.171875 1.515625,-0.3125 v -8.0625 q -0.875,0.25 -2.046875,0.359375 -1.171875,0.125 -2.640625,0.125 -3.03125,0 -5.15625,-1.375 -2.125,-1.359375 -3.46875,-3.78125 Q 17,38.1875 16.359375,34.84375 15.71875,31.5 15.71875,27.546875 V 0 Z" />
          <path
             style="stroke-linecap:butt;stroke-linejoin:round"
             inkscape:connector-curvature="0"
             id="LiberationSans-67"
             d="m 26.765625,-20.75 q -4.546875,0 -8.0625,0.9375 -3.515625,0.921875 -6.015625,2.65625 -2.484375,1.71875 -4.046875,4.125 -1.5625,2.390625 -2.25,5.3125 l 8.84375,1.265625 q 0.875,-3.65625 3.875,-5.625 Q 22.125,-14.0625 27,-14.0625 q 2.984375,0 5.421875,0.828125 2.4375,0.828125 4.140625,2.671875 1.71875,1.828125 2.640625,4.765625 0.9375,2.921875 0.9375,7.109375 v 8.5 h -0.09375 Q 39.0625,7.8125 37.625,5.984375 36.1875,4.15625 34.109375,2.734375 32.03125,1.3125 29.296875,0.453125 q -2.734375,-0.84375 -6.25,-0.84375 -5.03125,0 -8.625,1.6875 -3.578125,1.6875 -5.859375,5.046875 -2.265625,3.375 -3.3125,8.375 -1.046875,5.015625 -1.046875,11.59375 0,6.359375 1.046875,11.4375 1.046875,5.078125 3.40625,8.609375 2.375,3.546875 6.15625,5.421875 3.796875,1.875 9.21875,1.875 5.609375,0 9.734375,-2.5625 4.125,-2.5625 6.375,-7.296875 h 0.09375 q 0,1.21875 0.0625,2.734375 0.07813,1.515625 0.15625,2.859375 0.07813,1.34375 0.171875,2.3125 0.09375,0.984375 0.203125,1.125 h 8.34375 q -0.04687,-0.4375 -0.09375,-1.484375 -0.04687,-1.046875 -0.109375,-2.515625 -0.04687,-1.46875 -0.07813,-3.25 -0.01563,-1.78125 -0.01563,-3.6875 v -40.375 q 0,-11.09375 -5.453125,-16.671875 -5.4375,-5.59375 -16.65625,-5.59375 z m 13.375,47.171875 q 0,5.515625 -1.203125,9.4375 -1.1875,3.9375 -3.140625,6.421875 -1.953125,2.5 -4.46875,3.671875 Q 28.8125,47.125 26.171875,47.125 q -3.375,0 -5.796875,-1.171875 -2.40625,-1.171875 -4,-3.6875 Q 14.796875,39.75 14.03125,35.8125 q -0.75,-3.921875 -0.75,-9.390625 0,-5.71875 0.75,-9.609375 0.765625,-3.875 2.328125,-6.265625 1.5625,-2.390625 3.953125,-3.421875 2.390625,-1.015625 5.71875,-1.015625 2.625,0 5.140625,1.109375 2.515625,1.125 4.515625,3.5625 2.015625,2.453125 3.234375,6.3125 1.21875,3.859375 1.21875,9.328125 z" />
          <path
             style="stroke-linecap:butt;stroke-linejoin:round"
             inkscape:connector-curvature="0"
             id="LiberationSans-79"
             d="m 29.5,0 q -1.859375,-4.78125 -3.796875,-8.609375 -1.921875,-3.84375 -4.3125,-6.546875 Q 19,-17.875 16.0625,-19.3125 13.140625,-20.75 9.328125,-20.75 q -1.65625,0 -3.078125,0.09375 -1.421875,0.09375 -2.984375,0.4375 v 6.59375 q 0.9375,-0.140625 2.109375,-0.21875 1.171875,-0.07813 2,-0.07813 3.859375,0 7.171875,2.890625 3.328125,2.875 5.8125,9.171875 L 21.1875,0.25 0.25,52.828125 H 9.625 L 20.75,23.640625 Q 21.234375,22.3125 21.984375,20.109375 22.75,17.921875 23.5,15.71875 q 0.765625,-2.1875 1.34375,-3.953125 0.59375,-1.75 0.6875,-2.1875 0.15625,0.53125 0.71875,2.109375 0.5625,1.59375 1.265625,3.546875 0.703125,1.953125 1.4375,3.953125 0.734375,2 1.21875,3.46875 L 40.53125,52.828125 h 9.28125 z" />
          <path
             style="stroke-linecap:butt;stroke-linejoin:round"
             inkscape:connector-curvature="0"
             d=""
             id="LiberationSans-20" />
          <path
             style="stroke-linecap:butt;stroke-linejoin:round"
             inkscape:connector-curvature="0"
             id="LiberationSans-28"
             d="m 6.203125,25.984375 q 0,6.78125 1.015625,12.984375 1.03125,6.203125 3.21875,11.90625 2.203125,5.71875 5.625,11.078125 3.421875,5.375 8.15625,10.515625 h 8.5 Q 28.125,67.328125 24.78125,61.9375 q -3.34375,-5.390625 -5.5,-11.140625 -2.140625,-5.734375 -3.1875,-11.9375 -1.046875,-6.1875 -1.046875,-12.984375 0,-6.78125 1.046875,-12.984375 1.046875,-6.203125 3.1875,-11.96875 2.15625,-5.75 5.5,-11.125 3.34375,-5.375 7.9375,-10.5 h -8.5 q -4.734375,5.125 -8.15625,10.5 -3.421875,5.375 -5.625,11.078125 Q 8.25,6.59375 7.21875,12.765625 6.203125,18.953125 6.203125,25.78125 Z" />
          <path
             style="stroke-linecap:butt;stroke-linejoin:round"
             inkscape:connector-curvature="0"
             id="LiberationSans-6b"
             d="m 39.84375,0 -17.875,24.125 -6.4375,-5.328125 V 0 H 6.734375 V 72.46875 H 15.53125 V 27.203125 l 23.1875,25.625 h 10.3125 L 27.59375,30.125 50.140625,0 Z" />
          <path
             style="stroke-linecap:butt;stroke-linejoin:round"
             inkscape:connector-curvature="0"
             id="LiberationSans-56"
             d="M 38.1875,0 H 28.515625 L 0.4375,68.796875 H 10.25 l 19.046875,-48.4375 q 0.734375,-2.1875 1.46875,-4.375 0.734375,-2.171875 1.3125,-3.875 0.6875,-2 1.328125,-3.90625 0.578125,1.8125 1.265625,3.8125 0.578125,1.703125 1.28125,3.84375 0.71875,2.15625 1.546875,4.5 l 18.953125,48.4375 h 9.8125 z" />
          <path
             style="stroke-linecap:butt;stroke-linejoin:round"
             inkscape:connector-curvature="0"
             id="LiberationSans-29"
             d="m 27.09375,25.78125 q 0,-6.828125 -1.03125,-13.015625 Q 25.046875,6.59375 22.84375,0.875 q -2.1875,-5.703125 -5.609375,-11.078125 -3.421875,-5.375 -8.15625,-10.5 H 0.59375 q 4.578125,5.125 7.921875,10.5 3.34375,5.375 5.484375,11.125 2.15625,5.765625 3.203125,11.96875 1.0625,6.203125 1.0625,12.984375 0,6.796875 -1.0625,12.984375 Q 16.15625,45.0625 14,50.796875 11.859375,56.546875 8.515625,61.9375 5.171875,67.328125 0.59375,72.46875 H 9.078125 Q 13.8125,67.328125 17.234375,61.953125 20.65625,56.59375 22.84375,50.875 25.046875,45.171875 26.0625,38.96875 27.09375,32.765625 27.09375,25.984375 Z" />
        </defs>
        <g
           id="g199"
           transform="matrix(0.11,0,0,-0.11,189.30664,280.29344)"
           style="fill:#262626;stroke-linecap:butt;stroke-linejoin:round">
          <use
             height="100%"
             width="100%"
             y="0"
             x="0"
             style="stroke-linecap:butt;stroke-linejoin:round"
             id="use175"
             xlink:href="#LiberationSans-45" />
          <use
             height="100%"
             width="100%"
             y="0"
             style="stroke-linecap:butt;stroke-linejoin:round"
             id="use177"
             xlink:href="#LiberationSans-6e"
             x="66.699219" />
          <use
             height="100%"
             width="100%"
             y="0"
             style="stroke-linecap:butt;stroke-linejoin:round"
             id="use179"
             xlink:href="#LiberationSans-65"
             x="122.31445" />
          <use
             height="100%"
             width="100%"
             y="0"
             style="stroke-linecap:butt;stroke-linejoin:round"
             id="use181"
             xlink:href="#LiberationSans-72"
             x="177.92969" />
          <use
             height="100%"
             width="100%"
             y="0"
             style="stroke-linecap:butt;stroke-linejoin:round"
             id="use183"
             xlink:href="#LiberationSans-67"
             x="211.23047" />
          <use
             height="100%"
             width="100%"
             y="0"
             style="stroke-linecap:butt;stroke-linejoin:round"
             id="use185"
             xlink:href="#LiberationSans-79"
             x="266.8457" />
          <use
             height="100%"
             width="100%"
             y="0"
             style="stroke-linecap:butt;stroke-linejoin:round"
             id="use187"
             xlink:href="#LiberationSans-20"
             x="316.8457" />
          <use
             height="100%"
             width="100%"
             y="0"
             style="stroke-linecap:butt;stroke-linejoin:round"
             id="use189"
             xlink:href="#LiberationSans-28"
             x="344.62891" />
          <use
             height="100%"
             width="100%"
             y="0"
             style="stroke-linecap:butt;stroke-linejoin:round"
             id="use191"
             xlink:href="#LiberationSans-6b"
             x="377.92969" />
          <use
             height="100%"
             width="100%"
             y="0"
             style="stroke-linecap:butt;stroke-linejoin:round"
             id="use193"
             xlink:href="#LiberationSans-65"
             x="427.92969" />
          <use
             height="100%"
             width="100%"
             y="0"
             style="stroke-linecap:butt;stroke-linejoin:round"
             id="use195"
             xlink:href="#LiberationSans-56"
             x="483.54492" />
          <use
             height="100%"
             width="100%"
             y="0"
             style="stroke-linecap:butt;stroke-linejoin:round"
             id="use197"
             xlink:href="#LiberationSans-29"
             x="550.24414" />
        </g>
      </g>
    </g>
    <g
       style="stroke-linecap:butt;stroke-linejoin:round"
       id="matplotlib.axis_2">
      <g
         style="stroke-linecap:butt;stroke-linejoin:round"
         id="ytick_1">
        <g
           style="stroke-linecap:butt;stroke-linejoin:round"
           id="line2d_21">
          <path
             inkscape:connector-curvature="0"
             id="path203"
             style="fill:none;stroke:#ffffff;stroke-linecap:round;stroke-linejoin:round"
             d="M 54,242.11636 H 388.8"
             clip-path="url(#p217e995fdf)" />
        </g>
        <g
           style="stroke-linecap:butt;stroke-linejoin:round"
           id="line2d_22" />
        <g
           style="stroke-linecap:butt;stroke-linejoin:round"
           id="text_12">
          <!-- 0.0 -->
          <defs
             id="defs208">
            <path
               style="stroke-linecap:butt;stroke-linejoin:round"
               inkscape:connector-curvature="0"
               id="LiberationSans-2e"
               d="m 9.125,0 v 10.6875 h 9.53125 V 0 Z" />
          </defs>
          <g
             id="g216"
             transform="matrix(0.1,0,0,-0.1,33.1,245.7398)"
             style="fill:#262626;stroke-linecap:butt;stroke-linejoin:round">
            <use
               height="100%"
               width="100%"
               y="0"
               x="0"
               style="stroke-linecap:butt;stroke-linejoin:round"
               id="use210"
               xlink:href="#LiberationSans-30" />
            <use
               height="100%"
               width="100%"
               y="0"
               style="stroke-linecap:butt;stroke-linejoin:round"
               id="use212"
               xlink:href="#LiberationSans-2e"
               x="55.615234" />
            <use
               height="100%"
               width="100%"
               y="0"
               style="stroke-linecap:butt;stroke-linejoin:round"
               id="use214"
               xlink:href="#LiberationSans-30"
               x="83.398438" />
          </g>
        </g>
      </g>
      <g
         style="stroke-linecap:butt;stroke-linejoin:round"
         id="ytick_2">
        <g
           style="stroke-linecap:butt;stroke-linejoin:round"
           id="line2d_23">
          <path
             inkscape:connector-curvature="0"
             id="path220"
             style="fill:none;stroke:#ffffff;stroke-linecap:round;stroke-linejoin:round"
             d="M 54,202.58182 H 388.8"
             clip-path="url(#p217e995fdf)" />
        </g>
        <g
           style="stroke-linecap:butt;stroke-linejoin:round"
           id="line2d_24" />
        <g
           style="stroke-linecap:butt;stroke-linejoin:round"
           id="text_13">
          <!-- 0.2 -->
          <g
             id="g230"
             transform="matrix(0.1,0,0,-0.1,33.1,206.20526)"
             style="fill:#262626;stroke-linecap:butt;stroke-linejoin:round">
            <use
               height="100%"
               width="100%"
               y="0"
               x="0"
               style="stroke-linecap:butt;stroke-linejoin:round"
               id="use224"
               xlink:href="#LiberationSans-30" />
            <use
               height="100%"
               width="100%"
               y="0"
               style="stroke-linecap:butt;stroke-linejoin:round"
               id="use226"
               xlink:href="#LiberationSans-2e"
               x="55.615234" />
            <use
               height="100%"
               width="100%"
               y="0"
               style="stroke-linecap:butt;stroke-linejoin:round"
               id="use228"
               xlink:href="#LiberationSans-32"
               x="83.398438" />
          </g>
        </g>
      </g>
      <g
         style="stroke-linecap:butt;stroke-linejoin:round"
         id="ytick_3">
        <g
           style="stroke-linecap:butt;stroke-linejoin:round"
           id="line2d_25">
          <path
             inkscape:connector-curvature="0"
             id="path234"
             style="fill:none;stroke:#ffffff;stroke-linecap:round;stroke-linejoin:round"
             d="M 54,163.04727 H 388.8"
             clip-path="url(#p217e995fdf)" />
        </g>
        <g
           style="stroke-linecap:butt;stroke-linejoin:round"
           id="line2d_26" />
        <g
           style="stroke-linecap:butt;stroke-linejoin:round"
           id="text_14">
          <!-- 0.4 -->
          <g
             id="g244"
             transform="matrix(0.1,0,0,-0.1,33.1,166.67071)"
             style="fill:#262626;stroke-linecap:butt;stroke-linejoin:round">
            <use
               height="100%"
               width="100%"
               y="0"
               x="0"
               style="stroke-linecap:butt;stroke-linejoin:round"
               id="use238"
               xlink:href="#LiberationSans-30" />
            <use
               height="100%"
               width="100%"
               y="0"
               style="stroke-linecap:butt;stroke-linejoin:round"
               id="use240"
               xlink:href="#LiberationSans-2e"
               x="55.615234" />
            <use
               height="100%"
               width="100%"
               y="0"
               style="stroke-linecap:butt;stroke-linejoin:round"
               id="use242"
               xlink:href="#LiberationSans-34"
               x="83.398438" />
          </g>
        </g>
      </g>
      <g
         style="stroke-linecap:butt;stroke-linejoin:round"
         id="ytick_4">
        <g
           style="stroke-linecap:butt;stroke-linejoin:round"
           id="line2d_27">
          <path
             inkscape:connector-curvature="0"
             id="path248"
             style="fill:none;stroke:#ffffff;stroke-linecap:round;stroke-linejoin:round"
             d="M 54,123.51273 H 388.8"
             clip-path="url(#p217e995fdf)" />
        </g>
        <g
           style="stroke-linecap:butt;stroke-linejoin:round"
           id="line2d_28" />
        <g
           style="stroke-linecap:butt;stroke-linejoin:round"
           id="text_15">
          <!-- 0.6 -->
          <g
             id="g258"
             transform="matrix(0.1,0,0,-0.1,33.1,127.13617)"
             style="fill:#262626;stroke-linecap:butt;stroke-linejoin:round">
            <use
               height="100%"
               width="100%"
               y="0"
               x="0"
               style="stroke-linecap:butt;stroke-linejoin:round"
               id="use252"
               xlink:href="#LiberationSans-30" />
            <use
               height="100%"
               width="100%"
               y="0"
               style="stroke-linecap:butt;stroke-linejoin:round"
               id="use254"
               xlink:href="#LiberationSans-2e"
               x="55.615234" />
            <use
               height="100%"
               width="100%"
               y="0"
               style="stroke-linecap:butt;stroke-linejoin:round"
               id="use256"
               xlink:href="#LiberationSans-36"
               x="83.398438" />
          </g>
        </g>
      </g>
      <g
         style="stroke-linecap:butt;stroke-linejoin:round"
         id="ytick_5">
        <g
           style="stroke-linecap:butt;stroke-linejoin:round"
           id="line2d_29">
          <path
             inkscape:connector-curvature="0"
             id="path262"
             style="fill:none;stroke:#ffffff;stroke-linecap:round;stroke-linejoin:round"
             d="M 54,83.978182 H 388.8"
             clip-path="url(#p217e995fdf)" />
        </g>
        <g
           style="stroke-linecap:butt;stroke-linejoin:round"
           id="line2d_30" />
        <g
           style="stroke-linecap:butt;stroke-linejoin:round"
           id="text_16">
          <!-- 0.8 -->
          <g
             id="g272"
             transform="matrix(0.1,0,0,-0.1,33.1,87.601619)"
             style="fill:#262626;stroke-linecap:butt;stroke-linejoin:round">
            <use
               height="100%"
               width="100%"
               y="0"
               x="0"
               style="stroke-linecap:butt;stroke-linejoin:round"
               id="use266"
               xlink:href="#LiberationSans-30" />
            <use
               height="100%"
               width="100%"
               y="0"
               style="stroke-linecap:butt;stroke-linejoin:round"
               id="use268"
               xlink:href="#LiberationSans-2e"
               x="55.615234" />
            <use
               height="100%"
               width="100%"
               y="0"
               style="stroke-linecap:butt;stroke-linejoin:round"
               id="use270"
               xlink:href="#LiberationSans-38"
               x="83.398438" />
          </g>
        </g>
      </g>
      <g
         style="stroke-linecap:butt;stroke-linejoin:round"
         id="ytick_6">
        <g
           style="stroke-linecap:butt;stroke-linejoin:round"
           id="line2d_31">
          <path
             inkscape:connector-curvature="0"
             id="path276"
             style="fill:none;stroke:#ffffff;stroke-linecap:round;stroke-linejoin:round"
             d="M 54,44.443636 H 388.8"
             clip-path="url(#p217e995fdf)" />
        </g>
        <g
           style="stroke-linecap:butt;stroke-linejoin:round"
           id="line2d_32" />
        <g
           style="stroke-linecap:butt;stroke-linejoin:round"
           id="text_17">
          <!-- 1.0 -->
          <g
             id="g286"
             transform="matrix(0.1,0,0,-0.1,33.1,48.067074)"
             style="fill:#262626;stroke-linecap:butt;stroke-linejoin:round">
            <use
               height="100%"
               width="100%"
               y="0"
               x="0"
               style="stroke-linecap:butt;stroke-linejoin:round"
               id="use280"
               xlink:href="#LiberationSans-31" />
            <use
               height="100%"
               width="100%"
               y="0"
               style="stroke-linecap:butt;stroke-linejoin:round"
               id="use282"
               xlink:href="#LiberationSans-2e"
               x="55.615234" />
            <use
               height="100%"
               width="100%"
               y="0"
               style="stroke-linecap:butt;stroke-linejoin:round"
               id="use284"
               xlink:href="#LiberationSans-30"
               x="83.398438" />
          </g>
        </g>
      </g>
    </g>
    <g
       style="stroke-linecap:butt;stroke-linejoin:round"
       id="line2d_33">
      <path
         inkscape:connector-curvature="0"
         id="path291"
         style="fill:none;stroke:#4c72b0;stroke-width:1.75;stroke-linecap:round;stroke-linejoin:round"
         d="m 62.077714,177.17738 v 0.47149 h 0.744 v -0.20118 h 0.744 v 0.38998 h 0.744 v 1.3371 h 0.744 v 3.20553 h 0.744 v 1.21329 h 0.744 v -0.92235 h 0.744 v -2.68348 h 0.744 v 0.33737 h 0.744 v 0.29713 h 0.744 V 177.653 h 0.744 v -0.49316 h 0.744 v 0.57466 h 0.744 v 1.33504 h 0.744 v -0.21769 h 0.744 v -0.8491 h 0.744 v 1.18543 h 0.744 v -1.4578 h 0.744 v -0.27547 h 0.744 v -0.618 h 0.744 v -4.40953 h 0.744 v -3.40052 h 0.744 v 1.30409 h 0.744 v 0.70465 h 0.744 v -2.37809 h 0.744 v -0.77894 h 0.744 v -0.37864 h 0.744 v -0.94505 h 0.744 v 0.54165 h 0.744 v -2.3296 h 0.744 v -1.58368 h 0.744 v 0.14857 h 0.744 v -1.91383 l 1.488,0.0671 v -0.89553 h 0.744 v -1.39694 h 0.744 v -3.30973 h 0.744 v -2.65149 h 0.744 v -2.64325 h 0.744 v 1.23496 h 0.744 v -2.99505 h 0.744 v -2.51532 h 0.744 v -1.19369 l 1.488,-0.0959 v -1.79621 h 0.744 v -5.63418 h 0.744 v -0.92957 h 0.744 v -0.11142 h 0.744 v -4.68603 h 0.744 v -3.39124 h 0.744 v -2.49468 h 0.743996 v -3.1137 h 0.744 v 1.42376 h 0.744 v 1.3598 h 0.744 v 0.92028 h 0.744 v -0.85941 h 0.744 v -2.66182 h 0.744 v -4.79126 h 0.744 v -5.62902 h 0.744 v -3.08481 h 0.744 v -0.98632 h 0.744 v -2.54317 h 0.744 v -2.88982 h 0.744 v -4.329058 h 0.744 v -3.353061 h 0.744 v -6.807229 h 0.744 v -2.19548 h 0.744 v -1.620818 h 0.744 v -5.683696 h 0.744 v -2.152149 h 0.744 v -2.426584 h 0.744 v -7.063094 h 0.744 v -3.03323 h 0.744 v -4.499292 h 0.744 v -1.267972 h 0.744 v -2.923869 h 0.744 V 51.24777 h 0.744 v 0.483873 h 0.744 v -2.131515 h 0.744 v -3.796697 h 0.744 V 45.03687 h 0.744 v -0.593234 h 0.744 v 0.18055 h 0.744 v 0.819178 h 0.744 v -0.372447 h 0.744 v 4.291917 h 0.744 v 3.850346 h 0.744 v -0.194994 h 0.744 v 1.045123 h 0.744 v 2.875379 h 0.744 v 7.493317 h 0.744 v 2.900139 h 0.744 v -0.19293 h 0.744 v 2.416267 h 0.744 v 4.949118 h 0.744 v 4.754124 h 0.744 v 5.116255 h 0.744 v 7.163169 h 0.744 v 3.544959 h 0.744 v 1.703355 h 0.744 v 6.172729 h 0.744 v 4.69119 h 0.744 v 4.63238 h 0.744 v 7.89568 h 0.744 v 5.82504 h 0.744 v 6.07575 h 0.744 v 4.59111 h 0.744 v 3.59552 h 0.744 v 6.35018 h 0.744 v 6.93516 h 0.744 v 5.34013 h 0.744 v 6.37701 h 0.744 v 5.09665 h 0.744 v 5.01618 h 0.744 v 3.63265 h 0.744 v 2.49881 h 0.744 v 3.43972 h 0.744 v 0.20531 l 1.488,0.0991 v 2.24294 h 0.744 v 1.15345 h 0.744 v 1.62185 h 0.744 v 1.34535 h 0.744 v 1.41035 h 0.744 v 0.73148 h 0.744 v 0.22698 h 0.744 v 2.30381 h 0.744 v 1.36289 h 0.744 v 2.09953 h 0.744 v 0.79339 l 1.488,-0.0898 v 1.31543 h 0.744 v -0.65307 h 0.744 v 0.30023 h 0.744 v 1.19678 l 1.488,-0.10936 v -0.92029 h 0.744 v -0.59942 h 0.744 v 0.42816 h 0.744 v 2.16143 h 0.744 v 0.65411 h 0.744 v -0.53133 h 0.744 v 0.22697 h 0.744 v -0.6149 h 0.744 v -1.15964 h 0.744 v 0.93473 l 1.488,-0.10936 v 1.40416 h 0.744 v 0.40546 h 0.744 v -1.22051 h 0.744 v -0.30126 h 0.744 v 0.42712 h 0.744 v 1.87566 h 0.744 v 1.09258 l 1.488,-0.0145 v 0.41681 h 0.744 v 1.29893 h 0.744 v 3.71519 h 0.744 v 0.2765 h 0.744 v 0.33221 h 0.744 v 0.1269 h 0.744 v -0.41165 h 0.744 v 0.42403 h 0.744 v 0.84704 h 0.744 v 1.55375 h 0.744 v 1.67756 h 0.744 v -0.16817 l 1.488,-0.0629 v 1.2494 h 0.744 v 1.71677 h 0.744 v 1.78795 h 0.744 v 0.14135 h 0.744 v -0.19912 h 0.744 v 0.36935 h 0.744 v -1.36392 h 0.744 v -1.11734 h 0.744 v 0.39514 h 0.744 v -0.24245 h 0.744 v -0.48078 h 0.744 v -1.60637 h 0.744 v -1.30305 h 0.744 v 0.24039 h 0.744 v -0.70466 h 0.744 v 0.61077 h 0.744 v 0.61903 h 0.744 v -0.195 h 0.744 v -1.17305 h 0.744 v 0.33324 h 0.744 v 0.96568 h 0.744 v -0.96877 h 0.744 v 0.62212 h 0.744 v -0.18158 h 0.744 v -0.87799 h 0.744 v 0.63553 h 0.744 v -1.05131 h 0.744 v 0.48387 h 0.744 v 0.27237 h 0.744 v 1.00489 h 0.744 v 1.05751 h 0.744 v 0.16094 h 0.744 v 0.22388 h 0.744 v 0.51792 h 0.744 v -1.31646 h 0.744 v 0.37348 l 1.488,0.10111 v 1.28138 h 0.744 v 1.94787 h 0.744 v 1.15242 h 0.744 v 0.22285 h 0.744 v -1.28964 h 0.744 v 0.4684 h 0.744 v 1.07711 h 0.744 v 0.35903 h 0.744 v 0.57879 l 1.488,-0.007 v -0.23317 h 0.744 v -2.08405 h 0.744 v 0.48387 h 0.744 v 1.53209 h 0.744 v 0.53855 h 0.744 v -0.38689 h 0.744 v 1.0833 h 0.744 v -2.42968 h 0.744 v 0.37141 h 0.744 v -0.2734 h 0.744 v -0.30435 h 0.744 v 1.3536 l 2.232,-0.0846 v -1.2102 h 0.744 v -0.79132 l 1.488,-0.0454 v -0.3611 h 0.744 v -0.7418 h 0.744 v -0.22801 h 0.744 v -0.73355 h 0.744 v -0.30022 h 0.744 v -0.53856 h 0.744 v -1.07504 h 0.744 v 0.33943 h 0.744 v 0.33634 h 0.744 v 1.57749 h 0.744 v 1.69819 h 0.744 v 1.00179 h 0.744 v 0.12794 h 0.744 v 0.21665 h 0.744 v 1.30306 l 1.488,0.0433 v 0.40856 l 2.976,0.0299 v 0.61903 h 0.744 v -1.16067 h 0.744 v 2.18103 h 0.744 v 1.36393 h 0.744 v 0.53752 h 0.744 v 0.55403 h 0.744 v -1.399 h 0.744 v -0.91204 h 0.744 v 0.58602 h 0.744 v -0.26825 h 0.744 v -1.10393 h 0.744 v 0.37038 h 0.744 v 0.40134 h 0.744 v -0.15476 h 0.744 v 1.52487 l 1.488,-0.10626 v 0.28062 h 0.744 v -1.15758 h 0.744 v 0.83569 l 1.488,0.0753 v -0.41371 h 0.744 v -0.96465 h 0.744 v -0.53443 h 0.744 v -0.53649 h 0.744 v 0.17849 h 0.744 v 0.18261 h 0.744 v -0.28475 h 0.744 v -0.61903 l 1.488,0.0774 v -0.96981 h 0.744 v -0.89862 h 0.744 v -1.35051 h 0.744 v -0.70879 l 1.488,0.0774 v -0.49109 h 0.744 v -0.34459 h 0.744 v 0.92441 l 1.488,0.0175 v 2.3719 h 0.744 v 0.83982 h 0.744 v -1.01314 h 0.744 v -0.5334 h 0.744 v -0.15269 h 0.744 v -0.2373 l 1.488,0.0877 v 0.14031 h 0.744 v -0.29094 h 0.744 v -0.57466 h 0.744 v -1.00489 h 0.744 v -0.30745 h 0.744 v -0.25896 h 0.744 v -0.58085 h 0.744 v 0.79957 h 0.744 v 0.65823 h 0.744 v 0.69228 h 0.744 v 0.28785 h 0.744 v -1.44749 l 1.488,0.0103 v 1.4578 h 0.744 v 1.22465 h 0.744 v 0.18777 h 0.744 v 1.2298 h 0.744 v -1.36702 l 1.488,0.0939 v 0.19912 h 0.744 v 0.82743 h 0.744 v 0.92028 h 0.744 v 0.46531 h 0.744 v -1.05854 h 0.744 v -0.69331 h 0.744 v -1.66931 h 0.744 v -0.39411 h 0.744 v -0.32602 h 0.744 v 1.58883 h 0.744 v 1.12766 h 0.744 v 1.07505 h 0.744 v 0.75727 l 1.488,-0.0753 v 0.30538 h 0.744 v -3.54496 l 1.488,0.0856 v 0.19705 h 0.744 v 0.50141 h 0.744 v 0.99354 h 0.744 v -2.11707 h 0.744 v 0.28785 l 1.488,0.0825 v 0.43847 h 0.744 v 1.41757 h 0.744 v 0.46943 h 0.744 v -2.39357 h 0.744 v -0.32189 h 0.744 v 1.18131 h 0.744 v -0.42197 h 0.744 v 2.71133 h 0.744 v 1.33401 h 0.744 v 0.9533 h 0.744 v 0.37967 h 0.744 v -0.34047 h 0.744 v -1.20091 h 0.744 v 0.60562 h 0.744 v 1.36701 h 0.744 v 1.44749 l 1.488,0.0733 v 1.07917 h 0.744 v -0.76553 l 2.232,0.0877 v -1.05957 h 0.744 v 0.35388 l 1.488,0.0144 v 4.01645 h 0.744 v 1.041 h 0.744 v 0.83775 h 0.744 v 0.61799 h 0.744 v 0.53443 h 0.744 v 2.53698 h 0.744 v 1.77248 h 0.744 v -1.44956 h 0.744 v -0.39927 h 0.744 v 1.2102 h 0.744 v 0.62934 h 0.744 v 0.911 h 0.744 v -0.13206 h 0.744 v -0.70362 h 0.744 v -0.33324 h 0.744 v -0.59633 h 0.744 v -1.07092 h 0.744 v -1.25147 h 0.744 v -0.716 h 0.744 v 0.27134 h 0.744 v 0.70259 l 1.488,-0.0867 v -0.87902 h 0.744 v 0.27753 h 0.744 v 0.26515 h 0.744 v -0.64895 h 0.744 v 0.20635 h 0.744 v 0.72632 h 0.744 v -0.76553 l 1.488,-0.0898 v 0.35594 h 0.744 v -1.36289 h 0.744 v -0.36625 h 0.744 v 0.84703 h 0.744 v 0.78616 h 0.744 v 0.65927 h 0.744 v -0.63141 h 0.744 v 0.15888 h 0.744 v -1.17305 h 0.744 v -0.34975 h 0.744 v -0.64379 h 0.744 v -1.21123 l 2.232,-0.0774 v 0.30126 l 1.488,-0.0609 v -0.39514 h 0.744 v 0.28888 h 0.744 v 1.14004 h 0.744 v 1.40931 h 0.744 v -1.34741 h 0.744 v -0.7872 h 0.744 v -1.01107 h 0.744 v 0.16404 h 0.744 v 0.80783 h 0.744 v -1.35773 h 0.744 v -0.33531 h 0.744 v -1.18028 h 0.744 v 0.53443 h 0.744 V 231.173 h 0.744 v 1.25972 h 0.744 v 0.85013 h 0.744 v -1.2721 h 0.744 V 231.661 h 0.744 v 0.54165 h 0.744 v -0.64894 h 0.744 v -0.22801 h 0.744 v -0.2796 h 0.744 v 0.72014 h 0.744 v -0.89862 l 1.488,0.0619 v 0.48284 h 0.744 v -0.38379 h 0.744 v 0.40443 h 0.744 v -0.30952 h 0.744 v 0.24241 h 0.744 v 0"
         clip-path="url(#p217e995fdf)" />
    </g>
    <g
       style="stroke-linecap:butt;stroke-linejoin:round"
       id="line2d_34">
      <path
         inkscape:connector-curvature="0"
         id="path294"
         style="fill:none;stroke:#55a868;stroke-width:1.75;stroke-linecap:round;stroke-linejoin:round"
         d="m 62.077714,176.07407 v 0.83485 h 0.744 v 0.67337 h 0.744 v -1.84403 h 0.744 v -1.79856 h 0.744 v -2.22298 l 1.488,0.028 v 0.18714 h 0.744 v -0.49264 h 0.744 v 0.23845 h 0.744 v -0.77772 h 0.744 v -2.73369 l 1.488,-0.0356 v -0.19997 h 0.744 v -0.75615 h 0.744 v -0.63431 h 0.744 v -0.1988 h 0.744 v -0.89607 h 0.744 v -1.12928 h 0.744 v -1.37238 h 0.744 v 0.288 h 0.744 v 0.33931 h 0.744 v -3.39131 h 0.744 v -2.63866 h 0.744 v -1.2383 h 0.744 v -3.28287 h 0.744 v -2.65674 h 0.744 v 1.00568 h 0.744 v -2.27545 h 0.744 v -0.84127 h 0.744 v 1.82246 h 0.744 v 0.89724 h 0.744 v 0.57192 h 0.744 v -1.64523 h 0.744 v -1.48781 h 0.744 v -0.23262 h 0.744 v 1.54612 h 0.744 v 0.93221 h 0.744 v -0.46407 h 0.744 v -2.13786 h 0.744 v -1.08146 h 0.744 v -2.4282 h 0.744 v -2.31335 h 0.744 v 1.18291 h 0.744 v -0.71009 h 0.744 v -3.26947 h 0.744 v -1.8895 h 0.744 v -3.45253 h 0.744 v -2.63575 h 0.744 v -3.27238 h 0.744 V 125.353 h 0.744 v -3.22574 h 0.743996 v -4.52875 h 0.744 v -2.43345 h 0.744 v 2.81007 h 0.744 v -0.27168 h 0.744 v -3.80525 h 0.744 v -1.14559 h 0.744 v 0.2501 h 0.744 v -3.46535 h 0.744 v -2.99313 h 0.744 v -3.80466 h 0.744 v -5.993241 h 0.744 v -6.159983 h 0.744 v -6.275418 h 0.744 v -3.499751 h 0.744 v -6.047464 h 0.744 v -3.964404 h 0.744 v -5.16072 h 0.744 V 61.82463 h 0.744 v -1.605001 h 0.744 v -1.387541 h 0.744 v -2.933075 h 0.744 v -3.884532 h 0.744 v -1.598005 h 0.744 v -2.807147 h 0.744 v -3.165693 h 0.744 v 1.178244 l 1.488,-0.05772 v 1.771739 l 1.488,-0.0274 v 1.170665 h 0.744 v 2.664312 h 0.744 v 1.631235 h 0.744 V 55.2169 h 0.744 v 1.035992 h 0.744 v 1.755998 h 0.744 v 4.005796 h 0.744 v 2.393217 h 0.744 v 4.929852 h 0.744 v 1.860938 h 0.744 v 2.686466 h 0.744 v 4.26115 h 0.744 v 5.149061 h 0.744 v 4.736296 h 0.744 v 4.270478 h 0.744 v 5.742555 h 0.744 v 5.621871 h 0.744 v 6.6124 h 0.744 v 4.68149 h 0.744 v 6.29582 h 0.744 v 3.85597 h 0.744 v 2.60893 h 0.744 v 2.32208 h 0.744 v 4.65293 h 0.744 v 4.95784 h 0.744 v 4.36492 h 0.744 v 3.11672 h 0.744 v 5.02547 h 0.744 v 3.57379 h 0.744 v 3.85422 h 0.744 v 2.56986 h 0.744 v 3.85713 h 0.744 v 2.10813 h 0.744 v 1.27269 h 0.744 v 2.04925 h 0.744 v 3.13188 h 0.744 v 2.181 h 0.744 v 0.75382 h 0.744 v -0.1166 h 0.744 v 2.35299 h 0.744 v 1.27736 l 1.488,0.084 v 1.4336 h 0.744 v 1.1695 h 0.744 v 1.02083 h 0.744 v 1.90583 h 0.744 v 2.29061 h 0.744 v 3.07591 h 0.744 v -0.35097 h 0.744 v 0.79288 h 0.744 v 0.78239 h 0.744 v -0.11893 h 0.744 v 1.22255 h 0.744 v 0.70426 h 0.744 v 1.28144 h 0.744 v 1.31292 h 0.744 v 0.17898 h 0.744 v 0.7818 h 0.744 v 2.22648 h 0.744 v 1.893 h 0.744 v 0.49264 h 0.744 v -0.29267 h 0.744 v 0.25419 h 0.744 v 0.52179 h 0.744 v 1.12519 h 0.744 v 1.65047 h 0.744 v 1.21672 h 0.744 v -0.78763 h 0.744 v 0.85526 h 0.744 v -0.19297 h 0.744 v -1.24762 h 0.744 v 0.23086 h 0.744 v -0.81561 h 0.744 v 1.27968 h 0.744 v 1.59801 l 1.488,0.10727 v 1.33507 h 0.744 v -0.13409 h 0.744 v -0.93513 h 0.744 v -0.83894 l 1.488,-0.0379 v 0.28917 l 1.488,-0.0851 v 0.35271 h 0.744 v 0.32298 h 0.744 v 0.54861 h 0.744 v 1.57876 h 0.744 v 0.52237 h 0.744 v 1.27444 h 0.744 v 2.03759 h 0.744 v -1.22256 h 0.744 v -2.08306 h 0.744 v -0.90481 h 0.744 v 0.30199 h 0.744 v -0.53578 h 0.744 v 0.86984 l 1.488,0.0735 v -0.22213 h 0.744 v -0.5247 h 0.744 v 0.31424 h 0.744 v -0.17723 h 0.744 v -0.34864 h 0.744 v 0.52004 h 0.744 v 1.15143 h 0.744 v 1.62948 h 0.744 v 0.70077 h 0.744 v -0.2367 h 0.744 v -0.91123 h 0.744 v -1.27036 h 0.744 v 0.16033 h 0.744 v 1.30534 h 0.744 v -0.1749 h 0.744 v 0.32006 h 0.744 v -0.71242 h 0.744 v 0.432 h 0.744 v 0.91998 h 0.744 v 0.85001 h 0.744 v -1.41786 h 0.744 v -1.24995 h 0.744 v -0.77481 h 0.744 v -2.05915 h 0.744 v -2.17809 h 0.744 v -0.11894 h 0.744 v 1.3135 h 0.744 v 1.86794 h 0.744 v 1.11294 h 0.744 v 1.33158 h 0.744 v -0.47865 l 1.488,0.0356 v 1.08846 h 0.744 v 0.33639 h 0.744 v 0.53753 h 0.744 v 0.32998 h 0.744 v 0.17256 h 0.744 v 0.53054 h 0.744 v 0.4594 h 0.744 v -0.68969 l 1.488,-0.0927 v -0.5177 l 1.488,0.0892 v 0.29966 h 0.744 v -0.46932 h 0.744 v -0.85934 h 0.744 v 0.21396 h 0.744 v 1.57002 h 0.744 v 1.32866 h 0.744 v 0.27401 h 0.744 v -0.22737 h 0.744 v 0.30608 h 0.744 v 1.38287 h 0.744 v 2.13145 h 0.744 v -0.5795 h 0.744 v 1.20856 h 0.744 v 2.11804 h 0.744 v 0.74158 h 0.744 v 0.41684 h 0.744 v -0.65529 h 0.744 v -1.71169 h 0.744 v -0.9841 h 0.744 v 0.19763 h 0.744 v 0.42851 h 0.744 v -1.11353 h 0.744 v -1.51056 h 0.744 v 0.35214 l 1.488,0.0974 v 1.22022 h 0.744 v 1.23421 h 0.744 v -1.30476 h 0.744 v 0.50955 h 0.744 v 0.60748 h 0.744 v 0.94505 h 0.744 v 0.99926 h 0.744 v 1.04124 h 0.744 v 1.19865 h 0.744 v 0.65821 h 0.744 v 0.64421 h 0.744 v -0.30608 h 0.744 v 0.48331 h 0.744 v 0.32415 l 1.488,-0.0385 v -1.756 h 0.744 v -1.24004 h 0.744 v -1.07097 l 1.488,-0.10494 v 0.51771 h 0.744 v -0.76257 h 0.744 v 1.24296 h 0.744 v 0.33347 h 0.744 v 0.13992 h 0.744 v 1.33508 h 0.744 v 0.47631 h 0.744 v 0.19472 h 0.744 v -0.83311 h 0.744 v 0.92114 h 0.744 v 1.73385 l 2.232,-0.0233 v -0.64072 h 0.744 v -0.50138 h 0.744 v 0.78238 h 0.744 v -0.85001 h 0.744 v -0.83602 h 0.744 v 0.11193 h 0.744 v -0.15857 h 0.744 v -0.37837 h 0.744 v -0.47456 h 0.744 v -0.67162 h 0.744 V 223.774 h 0.744 v -0.76198 h 0.744 v -0.19997 h 0.744 v 1.03366 h 0.744 v 0.40052 h 0.744 v 1.17008 h 0.744 v 0.91123 h 0.744 v 0.95671 h 0.744 v -0.56493 h 0.744 v 0.89607 h 0.744 v 0.46232 h 0.744 v -0.52645 h 0.744 v 0.3294 h 0.744 v -0.64305 h 0.744 v -0.37371 h 0.744 v 0.79114 h 0.744 v 0.50779 h 0.744 v 1.7455 h 0.744 v 0.56901 h 0.744 v -0.39469 h 0.744 v 0.49322 h 0.744 v 0.88733 h 0.744 v 0.47806 l 1.488,-0.0496 v -0.6448 h 0.744 v 0.71418 h 0.744 v 1.43534 h 0.744 v 0.39295 h 0.744 v 0.1201 h 0.744 v 0.45823 h 0.744 v -1.67437 h 0.744 v 0.94912 h 0.744 v 0.21163 l 1.488,0.0979 v -1.20681 h 0.744 v -0.58241 h 0.744 v -0.98003 h 0.744 v 0.41918 l 1.488,0.10552 v -0.74274 h 0.744 v 1.42077 l 1.488,-0.11077 V 230.633 h 0.744 v -0.30374 h 0.744 v -0.34747 h 0.744 v 0.34514 h 0.744 v 0.17723 h 0.744 v -0.52004 l 1.488,0.008 v -0.7614 h 0.744 v -1.49423 h 0.744 v -0.92114 h 0.744 v -0.36846 h 0.744 v -0.12185 h 0.744 v -0.2676 h 0.744 v -0.47223 h 0.744 v 0.43725 h 0.744 v -1.17008 h 0.744 v -1.21031 h 0.744 v 0.22096 h 0.744 v -0.57017 h 0.744 v -0.3603 h 0.744 v 1.59043 h 0.744 v -0.30608 h 0.744 v 1.43768 h 0.744 v 0.96895 h 0.744 v 0.94737 h 0.744 v 0.22154 h 0.744 v 1.32167 h 0.744 v -0.58184 h 0.744 v -0.67278 h 0.744 v 0.95962 h 0.744 v 0.11893 h 0.744 v 0.1749 h 0.744 v 1.69362 h 0.744 v 1.57526 h 0.744 v 1.04008 h 0.744 v 0.72816 h 0.744 v 1.4062 h 0.744 v 0.22038 h 0.744 v -0.13351 h 0.744 v 0.21513 h 0.744 v 0.56143 h 0.744 v 0.74507 h 0.744 v 0.78297 h 0.744 v -0.51129 l 1.488,0.0291 v 0.36088 h 0.744 v 0.67919 h 0.744 v 1.30359 h 0.744 v 0.78472 h 0.744 v 0.31074 h 0.744 v 1.16775 h 0.744 v -0.29383 h 0.744 v 0.33755 h 0.744 v -0.26468 h 0.744 v -0.60399 h 0.744 v -0.45707 h 0.744 v -0.76256 h 0.744 v -1.12111 h 0.744 v -0.87101 l 2.976,0.0863 v 0.295 l 1.488,0.0222 v -0.2437 h 0.744 v -0.51712 h 0.744 v -1.34614 h 0.744 v -0.77773 h 0.744 v -0.4938 h 0.744 v 1.04241 l 1.488,-0.0857 v -0.077 h 0.744 v -0.16324 h 0.744 v 0.65704 l 2.976,0.0332 v -1.21497 h 0.744 v -0.6996 h 0.744 v -0.72584 l 1.488,-0.10377 v -1.26744 h 0.744 v -0.70252 h 0.744 v 0.46523 h 0.744 v -0.79171 h 0.744 v 1.06572 h 0.744 v 1.10246 h 0.744 v 0.74682 h 0.744 v 0.75032 h 0.744 v 0.98586 h 0.744 v 0.63255 h 0.744 v 0.51538 l 2.232,-0.06 v -0.26235 l 1.488,0.0221 v -0.28334 h 0.744 v -0.21862 h 0.744 v 0.79754 h 0.744 v 0.63197 l 1.488,-0.008 v -0.95962 h 0.744 v 0.65471 h 0.744 v 0.96953 h 0.744 v 0.19997 h 0.744 v -0.20405 h 0.744 v -1.21322 h 0.744 v 0.16732 h 0.744 v 0.50254 h 0.744 v 0.97827 h 0.744 v 0"
         clip-path="url(#p217e995fdf)" />
    </g>
    <g
       style="stroke-linecap:butt;stroke-linejoin:round"
       id="patch_3">
      <path
         inkscape:connector-curvature="0"
         id="path297"
         style="fill:none;stroke-linecap:butt;stroke-linejoin:round"
         d="M 54,252 V 34.56" />
    </g>
    <g
       style="stroke-linecap:butt;stroke-linejoin:round"
       id="patch_4">
      <path
         inkscape:connector-curvature="0"
         id="path300"
         style="fill:none;stroke-linecap:butt;stroke-linejoin:round"
         d="M 388.8,252 V 34.56" />
    </g>
    <g
       style="stroke-linecap:butt;stroke-linejoin:round"
       id="patch_5">
      <path
         inkscape:connector-curvature="0"
         id="path303"
         style="fill:none;stroke-linecap:butt;stroke-linejoin:round"
         d="M 54,252 H 388.8" />
    </g>
    <g
       style="stroke-linecap:butt;stroke-linejoin:round"
       id="patch_6">
      <path
         inkscape:connector-curvature="0"
         id="path306"
         style="fill:none;stroke-linecap:butt;stroke-linejoin:round"
         d="M 54,34.56 H 388.8" />
    </g>
    <g
       style="stroke-linecap:butt;stroke-linejoin:round"
       id="text_18">
      <!-- Cs137 -->
      <defs
         id="defs311">
        <path
           style="stroke-linecap:butt;stroke-linejoin:round"
           inkscape:connector-curvature="0"
           id="LiberationSans-43"
           d="m 38.671875,62.203125 q -5.859375,0 -10.375,-1.953125 Q 23.78125,58.296875 20.71875,54.6875 17.671875,51.078125 16.109375,46 q -1.5625,-5.078125 -1.5625,-11.28125 0,-6.203125 1.6875,-11.359375 Q 17.921875,18.21875 21.0625,14.5 24.21875,10.796875 28.78125,8.734375 33.34375,6.6875 39.0625,6.6875 q 4,0 7.296875,1.046875 3.296875,1.0625 5.953125,2.953125 2.671875,1.90625 4.765625,4.515625 2.109375,2.625 3.71875,5.796875 L 68.40625,17.1875 Q 66.546875,13.328125 63.8125,10 61.078125,6.6875 57.390625,4.25 53.71875,1.8125 49.046875,0.40625 44.390625,-0.984375 38.625,-0.984375 30.28125,-0.984375 24,1.671875 17.71875,4.34375 13.5,9.109375 9.28125,13.875 7.171875,20.40625 q -2.09375,6.546875 -2.09375,14.3125 0,8.0625 2.21875,14.546875 2.21875,6.5 6.484375,11.0625 4.28125,4.5625 10.53125,7.03125 6.25,2.46875 14.265625,2.46875 10.984375,0 18.359375,-4.296875 7.375,-4.296875 10.84375,-12.75 L 58.9375,49.859375 q -0.984375,2.4375 -2.640625,4.65625 -1.65625,2.21875 -4.15625,3.921875 -2.484375,1.71875 -5.828125,2.734375 -3.34375,1.03125 -7.640625,1.03125 z" />
        <path
           style="stroke-linecap:butt;stroke-linejoin:round"
           inkscape:connector-curvature="0"
           id="LiberationSans-73"
           d="m 46.390625,14.59375 q 0,-3.703125 -1.453125,-6.609375 Q 43.5,5.078125 40.765625,3.09375 38.03125,1.125 34.046875,0.0625 q -3.96875,-1.046875 -9.09375,-1.046875 -4.59375,0 -8.28125,0.71875 Q 12.984375,0.4375 10.203125,2 7.421875,3.5625 5.53125,6.125 q -1.875,2.5625 -2.75,6.28125 l 7.765625,1.515625 q 1.125,-4.25 4.640625,-6.234375 3.515625,-1.96875 9.765625,-1.96875 2.828125,0 5.1875,0.390625 2.375,0.390625 4.078125,1.34375 1.71875,0.953125 2.671875,2.53125 0.953125,1.59375 0.953125,3.9375 0,2.390625 -1.125,3.921875 -1.125,1.546875 -3.125,2.5625 -2,1.03125 -4.859375,1.78125 -2.859375,0.765625 -6.265625,1.6875 -3.1875,0.828125 -6.3125,1.859375 -3.125,1.03125 -5.640625,2.703125 -2.5,1.6875 -4.0625,4.171875 -1.5625,2.5 -1.5625,6.265625 0,7.21875 5.140625,11 5.15625,3.78125 15.015625,3.78125 8.75,0 13.890625,-3.078125 5.15625,-3.0625 6.515625,-9.859375 L 37.546875,39.75 q -0.4375,2.046875 -1.609375,3.4375 -1.171875,1.390625 -2.828125,2.25 -1.65625,0.859375 -3.734375,1.21875 -2.078125,0.359375 -4.328125,0.359375 -5.953125,0 -8.796875,-1.8125 Q 13.421875,43.40625 13.421875,39.75 q 0,-2.15625 1.046875,-3.546875 1.0625,-1.390625 2.9375,-2.34375 1.875,-0.953125 4.515625,-1.65625 2.640625,-0.703125 5.8125,-1.484375 2.09375,-0.546875 4.296875,-1.15625 2.203125,-0.609375 4.265625,-1.46875 2.078125,-0.84375 3.90625,-2 1.84375,-1.140625 3.203125,-2.75 1.375,-1.609375 2.171875,-3.765625 0.8125,-2.140625 0.8125,-4.984375 z" />
      </defs>
      <g
         id="g323"
         transform="matrix(0.12,0,0,-0.12,204.05719,28.56)"
         style="fill:#262626;stroke-linecap:butt;stroke-linejoin:round">
        <use
           height="100%"
           width="100%"
           y="0"
           x="0"
           style="stroke-linecap:butt;stroke-linejoin:round"
           id="use313"
           xlink:href="#LiberationSans-43" />
        <use
           height="100%"
           width="100%"
           y="0"
           style="stroke-linecap:butt;stroke-linejoin:round"
           id="use315"
           xlink:href="#LiberationSans-73"
           x="72.216797" />
        <use
           height="100%"
           width="100%"
           y="0"
           style="stroke-linecap:butt;stroke-linejoin:round"
           id="use317"
           xlink:href="#LiberationSans-31"
           x="122.2168" />
        <use
           height="100%"
           width="100%"
           y="0"
           style="stroke-linecap:butt;stroke-linejoin:round"
           id="use319"
           xlink:href="#LiberationSans-33"
           x="177.83203" />
        <use
           height="100%"
           width="100%"
           y="0"
           style="stroke-linecap:butt;stroke-linejoin:round"
           id="use321"
           xlink:href="#LiberationSans-37"
           x="233.44727" />
      </g>
    </g>
    <g
       style="stroke-linecap:butt;stroke-linejoin:round"
       id="legend_1">
      <g
         style="stroke-linecap:butt;stroke-linejoin:round"
         id="line2d_35">
        <path
           inkscape:connector-curvature="0"
           id="path326"
           style="fill:none;stroke:#4c72b0;stroke-width:1.75;stroke-linecap:round;stroke-linejoin:round"
           d="m 336.23906,47.306875 h 20" />
      </g>
      <g
         style="stroke-linecap:butt;stroke-linejoin:round"
         id="line2d_36" />
      <g
         style="stroke-linecap:butt;stroke-linejoin:round"
         id="text_19">
        <!-- vac -->
        <defs
           id="defs333">
          <path
             style="stroke-linecap:butt;stroke-linejoin:round"
             inkscape:connector-curvature="0"
             id="LiberationSans-76"
             d="M 29.9375,0 H 19.53125 L 0.34375,52.828125 h 9.375 l 11.625,-34.375 q 0.34375,-1.0625 0.796875,-2.609375 0.46875,-1.53125 0.953125,-3.203125 Q 23.578125,10.984375 24,9.4375 24.421875,7.90625 24.703125,6.890625 25,7.90625 25.453125,9.4375 q 0.46875,1.546875 0.953125,3.15625 0.5,1.609375 1.015625,3.140625 0.515625,1.546875 0.90625,2.625 l 12,34.46875 h 9.328125 z" />
          <path
             style="stroke-linecap:butt;stroke-linejoin:round"
             inkscape:connector-curvature="0"
             id="LiberationSans-61"
             d="m 20.21875,-0.984375 q -7.96875,0 -11.96875,4.203125 -4,4.203125 -4,11.53125 0,5.21875 1.96875,8.5625 1.984375,3.34375 5.171875,5.25 3.203125,1.90625 7.296875,2.640625 4.109375,0.734375 8.359375,0.828125 l 11.875,0.203125 v 2.875 q 0,3.265625 -0.6875,5.5625 -0.6875,2.296875 -2.109375,3.703125 -1.40625,1.421875 -3.53125,2.078125 -2.125,0.671875 -5,0.671875 -2.546875,0 -4.59375,-0.375 -2.046875,-0.359375 -3.5625,-1.3125 -1.515625,-0.953125 -2.453125,-2.59375 -0.921875,-1.625 -1.21875,-4.125 L 6.59375,39.546875 q 0.484375,3.125 1.84375,5.734375 1.375,2.625 3.890625,4.515625 2.515625,1.90625 6.296875,2.953125 3.78125,1.0625 9.15625,1.0625 9.96875,0 14.984375,-4.578125 5.03125,-4.5625 5.03125,-13.203125 v -22.75 q 0,-3.90625 1.03125,-5.890625 1.03125,-1.96875 3.90625,-1.96875 0.734375,0 1.46875,0.09375 0.734375,0.09375 1.40625,0.25 V 0.296875 Q 53.953125,-0.09375 52.3125,-0.28125 q -1.625,-0.203125 -3.484375,-0.203125 -2.484375,0 -4.265625,0.65625 -1.78125,0.65625 -2.90625,2 -1.125,1.34375 -1.71875,3.3125 -0.578125,1.984375 -0.734375,4.625 h -0.28125 Q 37.5,7.5625 35.8125,5.515625 34.125,3.46875 31.875,2.03125 29.640625,0.59375 26.78125,-0.1875 23.921875,-0.984375 20.21875,-0.984375 Z m 2,6.59375 q 4.203125,0 7.34375,1.53125 3.15625,1.546875 5.21875,3.9375 2.078125,2.40625 3.109375,5.234375 1.03125,2.828125 1.03125,5.421875 v 4.34375 l -9.625,-0.203125 q -3.21875,-0.04687 -6.125,-0.46875 Q 20.265625,25 18.0625,23.78125 15.875,22.5625 14.578125,20.359375 13.28125,18.171875 13.28125,14.59375 q 0,-4.296875 2.3125,-6.640625 2.328125,-2.34375 6.625,-2.34375 z" />
          <path
             style="stroke-linecap:butt;stroke-linejoin:round"
             inkscape:connector-curvature="0"
             id="LiberationSans-63"
             d="m 13.421875,26.65625 q 0,-4.53125 0.65625,-8.34375 Q 14.75,14.5 16.3125,11.734375 17.875,8.984375 20.4375,7.46875 23,5.953125 26.765625,5.953125 q 4.6875,0 7.828125,2.53125 3.15625,2.546875 3.890625,7.828125 l 8.875,-0.59375 Q 46.921875,12.453125 45.453125,9.421875 44,6.390625 41.484375,4.09375 38.96875,1.8125 35.34375,0.40625 31.734375,-0.984375 27,-0.984375 q -6.203125,0 -10.546875,2.09375 Q 12.109375,3.21875 9.390625,6.90625 6.6875,10.59375 5.46875,15.59375 4.25,20.609375 4.25,26.46875 q 0,5.3125 0.875,9.390625 0.875,4.078125 2.46875,7.125 1.59375,3.0625 3.734375,5.140625 2.15625,2.078125 4.65625,3.3125 2.515625,1.25 5.296875,1.8125 2.796875,0.5625 5.625,0.5625 4.4375,0 7.90625,-1.21875 Q 38.28125,51.375 40.796875,49.25 43.3125,47.125 44.875,44.234375 q 1.5625,-2.875 2.203125,-6.203125 L 38.03125,37.359375 q -0.671875,4.390625 -3.46875,6.96875 -2.78125,2.59375 -7.90625,2.59375 -3.75,0 -6.265625,-1.25 Q 17.875,44.4375 16.3125,41.921875 14.75,39.40625 14.078125,35.59375 q -0.65625,-3.8125 -0.65625,-8.9375 z" />
        </defs>
        <g
           id="g341"
           transform="matrix(0.1,0,0,-0.1,364.23906,50.806875)"
           style="fill:#262626;stroke-linecap:butt;stroke-linejoin:round">
          <use
             height="100%"
             width="100%"
             y="0"
             x="0"
             style="stroke-linecap:butt;stroke-linejoin:round"
             id="use335"
             xlink:href="#LiberationSans-76" />
          <use
             height="100%"
             width="100%"
             y="0"
             style="stroke-linecap:butt;stroke-linejoin:round"
             id="use337"
             xlink:href="#LiberationSans-61"
             x="50" />
          <use
             height="100%"
             width="100%"
             y="0"
             style="stroke-linecap:butt;stroke-linejoin:round"
             id="use339"
             xlink:href="#LiberationSans-63"
             x="105.61523" />
        </g>
      </g>
      <g
         style="stroke-linecap:butt;stroke-linejoin:round"
         id="line2d_37">
        <path
           inkscape:connector-curvature="0"
           id="path344"
           style="fill:none;stroke:#55a868;stroke-width:1.75;stroke-linecap:round;stroke-linejoin:round"
           d="m 336.23906,61.62875 h 20" />
      </g>
      <g
         style="stroke-linecap:butt;stroke-linejoin:round"
         id="line2d_38" />
      <g
         style="stroke-linecap:butt;stroke-linejoin:round"
         id="text_20">
        <!-- al -->
        <defs
           id="defs349">
          <path
             style="stroke-linecap:butt;stroke-linejoin:round"
             inkscape:connector-curvature="0"
             id="LiberationSans-6c"
             d="M 6.734375,0 V 72.46875 H 15.53125 V 0 Z" />
        </defs>
        <g
           id="g355"
           transform="matrix(0.1,0,0,-0.1,364.23906,65.12875)"
           style="fill:#262626;stroke-linecap:butt;stroke-linejoin:round">
          <use
             height="100%"
             width="100%"
             y="0"
             x="0"
             style="stroke-linecap:butt;stroke-linejoin:round"
             id="use351"
             xlink:href="#LiberationSans-61" />
          <use
             height="100%"
             width="100%"
             y="0"
             style="stroke-linecap:butt;stroke-linejoin:round"
             id="use353"
             xlink:href="#LiberationSans-6c"
             x="55.615234" />
        </g>
      </g>
    </g>
  </g>
  <defs
     id="defs364">
    <clipPath
       id="p217e995fdf"
       style="stroke-linecap:butt;stroke-linejoin:round">
      <rect
         height="217.44"
         width="334.79999"
         x="54"
         y="34.560001"
         id="rect361"
         style="stroke-linecap:butt;stroke-linejoin:round" />
    </clipPath>
  </defs>
</svg>
