<?xml version="1.0" encoding="utf-8" standalone="no"?>
<!DOCTYPE svg PUBLIC "-//W3C//DTD SVG 1.1//EN"
  "http://www.w3.org/Graphics/SVG/1.1/DTD/svg11.dtd">
<!-- Created with matplotlib (http://matplotlib.org/) -->
<svg height="576pt" version="1.1" viewBox="0 0 720 576" width="720pt" xmlns="http://www.w3.org/2000/svg" xmlns:xlink="http://www.w3.org/1999/xlink">
 <defs>
  <style type="text/css">
*{stroke-linecap:butt;stroke-linejoin:round;}
  </style>
 </defs>
 <g id="figure_1">
  <g id="patch_1">
   <path d="M 0 576 
L 720 576 
L 720 0 
L 0 0 
z
" style="fill:#ffffff;"/>
  </g>
  <g id="axes_1">
   <g id="patch_2">
    <path d="M 33.675 134.425 
L 705.7 134.425 
L 705.7 26.8 
L 33.675 26.8 
z
" style="fill:#ffffff;"/>
   </g>
   <g id="matplotlib.axis_1">
    <g id="xtick_1">
     <g id="line2d_1">
      <defs>
       <path d="M 0 0 
L 0 3.5 
" id="mc97ed0a5ce" style="stroke:#000000;stroke-width:0.8;"/>
      </defs>
      <g>
       <use style="stroke:#000000;stroke-width:0.8;" x="91.19953" xlink:href="#mc97ed0a5ce" y="134.425"/>
      </g>
     </g>
    </g>
    <g id="xtick_2">
     <g id="line2d_2">
      <g>
       <use style="stroke:#000000;stroke-width:0.8;" x="235.010856" xlink:href="#mc97ed0a5ce" y="134.425"/>
      </g>
     </g>
    </g>
    <g id="xtick_3">
     <g id="line2d_3">
      <g>
       <use style="stroke:#000000;stroke-width:0.8;" x="378.822182" xlink:href="#mc97ed0a5ce" y="134.425"/>
      </g>
     </g>
    </g>
    <g id="xtick_4">
     <g id="line2d_4">
      <g>
       <use style="stroke:#000000;stroke-width:0.8;" x="522.633508" xlink:href="#mc97ed0a5ce" y="134.425"/>
      </g>
     </g>
    </g>
    <g id="xtick_5">
     <g id="line2d_5">
      <g>
       <use style="stroke:#000000;stroke-width:0.8;" x="666.444834" xlink:href="#mc97ed0a5ce" y="134.425"/>
      </g>
     </g>
    </g>
   </g>
   <g id="matplotlib.axis_2">
    <g id="ytick_1">
     <g id="line2d_6">
      <defs>
       <path d="M 0 0 
L -3.5 0 
" id="m3ccbfebb2a" style="stroke:#000000;stroke-width:0.8;"/>
      </defs>
      <g>
       <use style="stroke:#000000;stroke-width:0.8;" x="33.675" xlink:href="#m3ccbfebb2a" y="129.532955"/>
      </g>
     </g>
     <g id="text_1">
      <!-- 0.00 -->
      <defs>
       <path d="M 31.78125 66.40625 
Q 24.171875 66.40625 20.328125 58.90625 
Q 16.5 51.421875 16.5 36.375 
Q 16.5 21.390625 20.328125 13.890625 
Q 24.171875 6.390625 31.78125 6.390625 
Q 39.453125 6.390625 43.28125 13.890625 
Q 47.125 21.390625 47.125 36.375 
Q 47.125 51.421875 43.28125 58.90625 
Q 39.453125 66.40625 31.78125 66.40625 
z
M 31.78125 74.21875 
Q 44.046875 74.21875 50.515625 64.515625 
Q 56.984375 54.828125 56.984375 36.375 
Q 56.984375 17.96875 50.515625 8.265625 
Q 44.046875 -1.421875 31.78125 -1.421875 
Q 19.53125 -1.421875 13.0625 8.265625 
Q 6.59375 17.96875 6.59375 36.375 
Q 6.59375 54.828125 13.0625 64.515625 
Q 19.53125 74.21875 31.78125 74.21875 
z
" id="DejaVuSans-30"/>
       <path d="M 10.6875 12.40625 
L 21 12.40625 
L 21 0 
L 10.6875 0 
z
" id="DejaVuSans-2e"/>
      </defs>
      <g transform="translate(4.409375 133.332173)scale(0.1 -0.1)">
       <use xlink:href="#DejaVuSans-30"/>
       <use x="63.623047" xlink:href="#DejaVuSans-2e"/>
       <use x="95.410156" xlink:href="#DejaVuSans-30"/>
       <use x="159.033203" xlink:href="#DejaVuSans-30"/>
      </g>
     </g>
    </g>
    <g id="ytick_2">
     <g id="line2d_7">
      <g>
       <use style="stroke:#000000;stroke-width:0.8;" x="33.675" xlink:href="#m3ccbfebb2a" y="105.072727"/>
      </g>
     </g>
     <g id="text_2">
      <!-- 0.25 -->
      <defs>
       <path d="M 19.1875 8.296875 
L 53.609375 8.296875 
L 53.609375 0 
L 7.328125 0 
L 7.328125 8.296875 
Q 12.9375 14.109375 22.625 23.890625 
Q 32.328125 33.6875 34.8125 36.53125 
Q 39.546875 41.84375 41.421875 45.53125 
Q 43.3125 49.21875 43.3125 52.78125 
Q 43.3125 58.59375 39.234375 62.25 
Q 35.15625 65.921875 28.609375 65.921875 
Q 23.96875 65.921875 18.8125 64.3125 
Q 13.671875 62.703125 7.8125 59.421875 
L 7.8125 69.390625 
Q 13.765625 71.78125 18.9375 73 
Q 24.125 74.21875 28.421875 74.21875 
Q 39.75 74.21875 46.484375 68.546875 
Q 53.21875 62.890625 53.21875 53.421875 
Q 53.21875 48.921875 51.53125 44.890625 
Q 49.859375 40.875 45.40625 35.40625 
Q 44.1875 33.984375 37.640625 27.21875 
Q 31.109375 20.453125 19.1875 8.296875 
z
" id="DejaVuSans-32"/>
       <path d="M 10.796875 72.90625 
L 49.515625 72.90625 
L 49.515625 64.59375 
L 19.828125 64.59375 
L 19.828125 46.734375 
Q 21.96875 47.46875 24.109375 47.828125 
Q 26.265625 48.1875 28.421875 48.1875 
Q 40.625 48.1875 47.75 41.5 
Q 54.890625 34.8125 54.890625 23.390625 
Q 54.890625 11.625 47.5625 5.09375 
Q 40.234375 -1.421875 26.90625 -1.421875 
Q 22.3125 -1.421875 17.546875 -0.640625 
Q 12.796875 0.140625 7.71875 1.703125 
L 7.71875 11.625 
Q 12.109375 9.234375 16.796875 8.0625 
Q 21.484375 6.890625 26.703125 6.890625 
Q 35.15625 6.890625 40.078125 11.328125 
Q 45.015625 15.765625 45.015625 23.390625 
Q 45.015625 31 40.078125 35.4375 
Q 35.15625 39.890625 26.703125 39.890625 
Q 22.75 39.890625 18.8125 39.015625 
Q 14.890625 38.140625 10.796875 36.28125 
z
" id="DejaVuSans-35"/>
      </defs>
      <g transform="translate(4.409375 108.871946)scale(0.1 -0.1)">
       <use xlink:href="#DejaVuSans-30"/>
       <use x="63.623047" xlink:href="#DejaVuSans-2e"/>
       <use x="95.410156" xlink:href="#DejaVuSans-32"/>
       <use x="159.033203" xlink:href="#DejaVuSans-35"/>
      </g>
     </g>
    </g>
    <g id="ytick_3">
     <g id="line2d_8">
      <g>
       <use style="stroke:#000000;stroke-width:0.8;" x="33.675" xlink:href="#m3ccbfebb2a" y="80.6125"/>
      </g>
     </g>
     <g id="text_3">
      <!-- 0.50 -->
      <g transform="translate(4.409375 84.411719)scale(0.1 -0.1)">
       <use xlink:href="#DejaVuSans-30"/>
       <use x="63.623047" xlink:href="#DejaVuSans-2e"/>
       <use x="95.410156" xlink:href="#DejaVuSans-35"/>
       <use x="159.033203" xlink:href="#DejaVuSans-30"/>
      </g>
     </g>
    </g>
    <g id="ytick_4">
     <g id="line2d_9">
      <g>
       <use style="stroke:#000000;stroke-width:0.8;" x="33.675" xlink:href="#m3ccbfebb2a" y="56.152273"/>
      </g>
     </g>
     <g id="text_4">
      <!-- 0.75 -->
      <defs>
       <path d="M 8.203125 72.90625 
L 55.078125 72.90625 
L 55.078125 68.703125 
L 28.609375 0 
L 18.3125 0 
L 43.21875 64.59375 
L 8.203125 64.59375 
z
" id="DejaVuSans-37"/>
      </defs>
      <g transform="translate(4.409375 59.951491)scale(0.1 -0.1)">
       <use xlink:href="#DejaVuSans-30"/>
       <use x="63.623047" xlink:href="#DejaVuSans-2e"/>
       <use x="95.410156" xlink:href="#DejaVuSans-37"/>
       <use x="159.033203" xlink:href="#DejaVuSans-35"/>
      </g>
     </g>
    </g>
    <g id="ytick_5">
     <g id="line2d_10">
      <g>
       <use style="stroke:#000000;stroke-width:0.8;" x="33.675" xlink:href="#m3ccbfebb2a" y="31.692045"/>
      </g>
     </g>
     <g id="text_5">
      <!-- 1.00 -->
      <defs>
       <path d="M 12.40625 8.296875 
L 28.515625 8.296875 
L 28.515625 63.921875 
L 10.984375 60.40625 
L 10.984375 69.390625 
L 28.421875 72.90625 
L 38.28125 72.90625 
L 38.28125 8.296875 
L 54.390625 8.296875 
L 54.390625 0 
L 12.40625 0 
z
" id="DejaVuSans-31"/>
      </defs>
      <g transform="translate(4.409375 35.491264)scale(0.1 -0.1)">
       <use xlink:href="#DejaVuSans-31"/>
       <use x="63.623047" xlink:href="#DejaVuSans-2e"/>
       <use x="95.410156" xlink:href="#DejaVuSans-30"/>
       <use x="159.033203" xlink:href="#DejaVuSans-30"/>
      </g>
     </g>
    </g>
   </g>
   <g id="line2d_11">
    <path clip-path="url(#p9220c0c774)" d="M 33.675 120.607288 
L 36.384778 120.607288 
L 36.384778 120.070773 
L 39.094556 120.070773 
L 39.094556 120.558514 
L 44.514113 120.460966 
L 44.514113 120.363418 
L 47.223891 120.363418 
L 47.223891 119.583032 
L 49.933669 119.583032 
L 49.933669 120.948707 
L 52.643448 120.948707 
L 52.643448 121.3389 
L 58.063004 121.436449 
L 58.063004 122.168061 
L 60.772782 122.168061 
L 60.772782 120.168321 
L 63.48256 120.168321 
L 63.48256 122.070512 
L 68.902117 122.021738 
L 68.902117 121.729093 
L 71.611895 121.729093 
L 71.611895 120.851159 
L 74.321673 120.851159 
L 74.321673 120.217095 
L 77.031452 120.217095 
L 77.031452 121.046256 
L 85.160786 121.046256 
L 85.160786 122.070512 
L 87.870565 122.070512 
L 87.870565 120.021999 
L 90.580343 120.021999 
L 90.580343 121.436449 
L 93.290121 121.436449 
L 93.290121 119.485483 
L 95.999899 119.485483 
L 95.999899 120.460966 
L 98.709677 120.460966 
L 98.709677 120.899933 
L 104.129234 120.899933 
L 104.129234 120.070773 
L 106.839012 120.070773 
L 106.839012 120.607288 
L 109.54879 120.607288 
L 109.54879 116.559035 
L 112.258569 116.559035 
L 112.258569 112.169364 
L 114.968347 112.169364 
L 114.968347 104.21918 
L 117.678125 104.21918 
L 117.678125 95.439836 
L 120.387903 95.439836 
L 120.387903 85.050946 
L 123.097681 85.050946 
L 123.097681 74.759604 
L 125.80746 74.759604 
L 125.80746 74.271863 
L 128.517238 74.271863 
L 128.517238 74.759604 
L 131.227016 74.759604 
L 131.227016 86.416622 
L 133.936794 86.416622 
L 133.936794 97.244479 
L 136.646573 97.244479 
L 136.646573 105.584856 
L 139.356351 105.584856 
L 139.356351 111.193881 
L 142.066129 111.193881 
L 142.066129 116.461487 
L 144.775907 116.461487 
L 144.775907 118.119808 
L 147.485685 118.119808 
L 147.485685 111.876719 
L 150.195464 111.876719 
L 150.195464 107.389499 
L 152.905242 107.389499 
L 152.905242 99.488089 
L 155.61502 99.488089 
L 155.61502 87.440879 
L 158.324798 87.440879 
L 158.324798 77.344633 
L 161.034577 77.344633 
L 161.034577 70.174836 
L 163.744355 70.174836 
L 163.744355 76.174054 
L 166.454133 76.174054 
L 166.454133 82.465917 
L 169.163911 82.465917 
L 169.163911 93.00113 
L 171.87369 93.00113 
L 171.87369 102.365763 
L 174.583468 102.365763 
L 174.583468 111.974267 
L 177.293246 111.974267 
L 177.293246 114.803167 
L 180.003024 114.803167 
L 180.003024 117.68084 
L 182.712802 117.68084 
L 182.712802 113.388717 
L 185.422581 113.388717 
L 185.422581 110.852462 
L 188.132359 110.852462 
L 188.132359 102.316989 
L 190.842137 102.316989 
L 190.842137 90.708745 
L 193.551915 90.708745 
L 193.551915 80.758822 
L 196.261694 80.758822 
L 196.261694 73.198832 
L 198.971472 73.198832 
L 198.971472 76.222828 
L 201.68125 76.222828 
L 201.68125 80.563726 
L 204.391028 80.563726 
L 204.391028 89.830811 
L 207.100806 89.830811 
L 207.100806 97.927317 
L 209.810585 97.927317 
L 209.810585 109.633109 
L 212.520363 109.633109 
L 212.520363 114.705618 
L 215.230141 114.705618 
L 215.230141 116.754132 
L 217.939919 116.754132 
L 217.939919 114.461748 
L 220.649698 114.461748 
L 220.649698 111.388977 
L 223.359476 111.388977 
L 223.359476 101.97557 
L 226.069254 101.97557 
L 226.069254 91.83055 
L 228.779032 91.83055 
L 228.779032 81.978176 
L 231.48881 81.978176 
L 231.48881 74.320637 
L 234.198589 74.320637 
L 234.198589 71.735608 
L 236.908367 71.735608 
L 236.908367 79.880888 
L 239.618145 79.880888 
L 239.618145 88.026168 
L 242.327923 88.026168 
L 242.327923 95.342288 
L 245.037702 95.342288 
L 245.037702 106.218919 
L 247.74748 106.218919 
L 247.74748 113.681362 
L 250.457258 113.681362 
L 250.457258 116.900454 
L 253.167036 116.900454 
L 253.167036 116.461487 
L 255.876815 116.461487 
L 255.876815 112.413234 
L 258.586593 112.413234 
L 258.586593 105.097114 
L 261.296371 105.097114 
L 261.296371 92.854807 
L 264.006149 92.854807 
L 264.006149 85.782558 
L 266.715927 85.782558 
L 266.715927 75.588764 
L 269.425706 75.588764 
L 269.425706 74.369411 
L 272.135484 74.369411 
L 272.135484 76.12528 
L 274.845262 76.12528 
L 274.845262 81.002693 
L 277.55504 81.002693 
L 277.55504 91.879325 
L 280.264819 91.879325 
L 280.264819 101.487829 
L 282.974597 101.487829 
L 282.974597 109.925753 
L 285.684375 109.925753 
L 285.684375 112.315686 
L 288.394153 112.315686 
L 288.394153 115.242134 
L 291.103931 115.242134 
L 291.103931 112.608331 
L 293.81371 112.608331 
L 293.81371 113.19362 
L 296.523488 113.19362 
L 296.523488 109.828205 
L 304.652823 109.876979 
L 304.652823 109.389238 
L 307.362601 109.389238 
L 307.362601 106.609112 
L 310.072379 106.609112 
L 310.072379 100.707442 
L 312.782157 100.707442 
L 312.782157 89.635714 
L 315.491935 89.635714 
L 315.491935 76.808118 
L 318.201714 76.808118 
L 318.201714 66.516776 
L 320.911492 66.516776 
L 320.911492 62.712394 
L 323.62127 62.712394 
L 323.62127 72.125801 
L 326.331048 72.125801 
L 326.331048 85.587461 
L 329.040827 85.587461 
L 329.040827 94.805772 
L 331.750605 94.805772 
L 331.750605 99.927056 
L 334.460383 99.927056 
L 334.460383 100.317249 
L 337.170161 100.317249 
L 337.170161 98.219962 
L 339.87994 98.219962 
L 339.87994 94.366805 
L 342.589718 94.366805 
L 342.589718 91.050164 
L 345.299496 91.050164 
L 345.299496 89.34307 
L 348.009274 89.34307 
L 348.009274 84.563205 
L 350.719052 84.563205 
L 350.719052 83.929141 
L 353.428831 83.929141 
L 353.428831 80.319855 
L 356.138609 80.319855 
L 356.138609 81.44166 
L 358.848387 81.44166 
L 358.848387 83.587722 
L 361.558165 83.587722 
L 361.558165 82.514691 
L 364.267944 82.514691 
L 364.267944 85.831332 
L 366.977722 85.831332 
L 366.977722 87.92862 
L 369.6875 87.92862 
L 369.6875 92.806033 
L 372.397278 92.806033 
L 372.397278 96.464093 
L 375.107056 96.464093 
L 375.107056 100.56112 
L 377.816835 100.56112 
L 377.816835 101.048861 
L 380.526613 101.048861 
L 380.526613 108.218659 
L 383.236391 108.218659 
L 383.236391 107.974788 
L 385.946169 107.974788 
L 385.946169 111.925493 
L 388.655948 111.925493 
L 388.655948 112.266912 
L 391.365726 112.266912 
L 391.365726 115.144586 
L 394.075504 115.144586 
L 394.075504 115.681101 
L 396.785282 115.681101 
L 396.785282 116.754132 
L 399.49506 116.754132 
L 399.49506 115.43723 
L 402.204839 115.43723 
L 402.204839 114.461748 
L 404.914617 114.461748 
L 404.914617 111.925493 
L 407.624395 111.925493 
L 407.624395 108.121111 
L 410.334173 108.121111 
L 410.334173 104.072858 
L 413.043952 104.072858 
L 413.043952 98.707703 
L 415.75373 98.707703 
L 415.75373 91.050164 
L 418.463508 91.050164 
L 418.463508 82.465917 
L 421.173286 82.465917 
L 421.173286 74.759604 
L 423.883065 74.759604 
L 423.883065 67.297162 
L 426.592843 67.297162 
L 426.592843 56.566853 
L 429.302621 56.566853 
L 429.302621 55.981563 
L 432.012399 55.981563 
L 432.012399 48.421573 
L 434.722177 48.421573 
L 434.722177 50.128667 
L 437.431956 50.128667 
L 437.431956 46.470607 
L 440.141734 46.470607 
L 440.141734 50.27499 
L 442.851512 50.27499 
L 442.851512 55.445048 
L 445.56129 55.445048 
L 445.56129 64.565811 
L 448.271069 64.565811 
L 448.271069 71.833156 
L 450.980847 71.833156 
L 450.980847 77.686052 
L 453.690625 77.686052 
L 453.690625 85.148494 
L 456.400403 85.148494 
L 456.400403 91.245261 
L 459.110181 91.245261 
L 459.110181 96.561641 
L 461.81996 96.561641 
L 461.81996 100.56112 
L 464.529738 100.56112 
L 464.529738 95.586159 
L 467.239516 95.586159 
L 467.239516 98.366284 
L 469.949294 98.366284 
L 469.949294 93.537645 
L 472.659073 93.537645 
L 472.659073 88.026168 
L 475.368851 88.026168 
L 475.368851 75.881409 
L 478.078629 75.881409 
L 478.078629 63.834199 
L 480.788407 63.834199 
L 480.788407 46.714478 
L 483.498185 46.714478 
L 483.498185 39.837326 
L 486.207964 39.837326 
L 486.207964 31.692045 
L 488.917742 31.692045 
L 488.917742 38.520424 
L 491.62752 38.520424 
L 491.62752 44.422094 
L 494.337298 44.422094 
L 494.337298 51.543117 
L 497.047077 51.543117 
L 497.047077 62.468523 
L 499.756855 62.468523 
L 499.756855 72.613542 
L 502.466633 72.613542 
L 502.466633 80.563726 
L 505.176411 80.563726 
L 505.176411 80.02721 
L 507.88619 80.02721 
L 507.88619 85.09972 
L 510.595968 85.09972 
L 510.595968 87.538427 
L 513.305746 87.538427 
L 513.305746 89.099199 
L 516.015524 89.099199 
L 516.015524 94.171709 
L 518.725302 94.171709 
L 518.725302 95.342288 
L 521.435081 95.342288 
L 521.435081 100.56112 
L 524.144859 100.56112 
L 524.144859 104.121632 
L 526.854637 104.121632 
L 526.854637 109.242916 
L 529.564415 109.242916 
L 529.564415 111.340203 
L 532.274194 111.340203 
L 532.274194 114.461748 
L 534.983972 114.461748 
L 534.983972 115.388456 
L 537.69375 115.388456 
L 537.69375 118.753871 
L 540.403528 118.753871 
L 540.403528 121.92419 
L 543.113306 121.92419 
L 543.113306 124.411671 
L 545.823085 124.411671 
L 545.823085 124.850638 
L 548.532863 124.850638 
L 548.532863 126.069991 
L 551.242641 126.069991 
L 551.242641 127.045474 
L 553.952419 127.045474 
L 553.952419 127.484441 
L 556.662198 127.484441 
L 556.662198 128.069731 
L 562.081754 128.020956 
L 562.081754 128.313601 
L 564.791532 128.313601 
L 564.791532 129.045213 
L 570.211089 129.142761 
L 570.211089 129.337858 
L 572.920867 129.337858 
L 572.920867 129.532955 
L 705.7 129.532955 
L 705.7 129.532955 
" style="fill:none;opacity:0.7;stroke:#000000;stroke-linecap:square;stroke-width:1.5;"/>
   </g>
   <g id="patch_3">
    <path d="M 33.675 134.425 
L 33.675 26.8 
" style="fill:none;stroke:#000000;stroke-linecap:square;stroke-linejoin:miter;stroke-width:0.8;"/>
   </g>
   <g id="patch_4">
    <path d="M 705.7 134.425 
L 705.7 26.8 
" style="fill:none;stroke:#000000;stroke-linecap:square;stroke-linejoin:miter;stroke-width:0.8;"/>
   </g>
   <g id="patch_5">
    <path d="M 33.675 134.425 
L 705.7 134.425 
" style="fill:none;stroke:#000000;stroke-linecap:square;stroke-linejoin:miter;stroke-width:0.8;"/>
   </g>
   <g id="patch_6">
    <path d="M 33.675 26.8 
L 705.7 26.8 
" style="fill:none;stroke:#000000;stroke-linecap:square;stroke-linejoin:miter;stroke-width:0.8;"/>
   </g>
   <g id="text_6">
    <!-- Input signal -->
    <defs>
     <path d="M 9.8125 72.90625 
L 19.671875 72.90625 
L 19.671875 0 
L 9.8125 0 
z
" id="DejaVuSans-49"/>
     <path d="M 54.890625 33.015625 
L 54.890625 0 
L 45.90625 0 
L 45.90625 32.71875 
Q 45.90625 40.484375 42.875 44.328125 
Q 39.84375 48.1875 33.796875 48.1875 
Q 26.515625 48.1875 22.3125 43.546875 
Q 18.109375 38.921875 18.109375 30.90625 
L 18.109375 0 
L 9.078125 0 
L 9.078125 54.6875 
L 18.109375 54.6875 
L 18.109375 46.1875 
Q 21.34375 51.125 25.703125 53.5625 
Q 30.078125 56 35.796875 56 
Q 45.21875 56 50.046875 50.171875 
Q 54.890625 44.34375 54.890625 33.015625 
z
" id="DejaVuSans-6e"/>
     <path d="M 18.109375 8.203125 
L 18.109375 -20.796875 
L 9.078125 -20.796875 
L 9.078125 54.6875 
L 18.109375 54.6875 
L 18.109375 46.390625 
Q 20.953125 51.265625 25.265625 53.625 
Q 29.59375 56 35.59375 56 
Q 45.5625 56 51.78125 48.09375 
Q 58.015625 40.1875 58.015625 27.296875 
Q 58.015625 14.40625 51.78125 6.484375 
Q 45.5625 -1.421875 35.59375 -1.421875 
Q 29.59375 -1.421875 25.265625 0.953125 
Q 20.953125 3.328125 18.109375 8.203125 
z
M 48.6875 27.296875 
Q 48.6875 37.203125 44.609375 42.84375 
Q 40.53125 48.484375 33.40625 48.484375 
Q 26.265625 48.484375 22.1875 42.84375 
Q 18.109375 37.203125 18.109375 27.296875 
Q 18.109375 17.390625 22.1875 11.75 
Q 26.265625 6.109375 33.40625 6.109375 
Q 40.53125 6.109375 44.609375 11.75 
Q 48.6875 17.390625 48.6875 27.296875 
z
" id="DejaVuSans-70"/>
     <path d="M 8.5 21.578125 
L 8.5 54.6875 
L 17.484375 54.6875 
L 17.484375 21.921875 
Q 17.484375 14.15625 20.5 10.265625 
Q 23.53125 6.390625 29.59375 6.390625 
Q 36.859375 6.390625 41.078125 11.03125 
Q 45.3125 15.671875 45.3125 23.6875 
L 45.3125 54.6875 
L 54.296875 54.6875 
L 54.296875 0 
L 45.3125 0 
L 45.3125 8.40625 
Q 42.046875 3.421875 37.71875 1 
Q 33.40625 -1.421875 27.6875 -1.421875 
Q 18.265625 -1.421875 13.375 4.4375 
Q 8.5 10.296875 8.5 21.578125 
z
M 31.109375 56 
z
" id="DejaVuSans-75"/>
     <path d="M 18.3125 70.21875 
L 18.3125 54.6875 
L 36.8125 54.6875 
L 36.8125 47.703125 
L 18.3125 47.703125 
L 18.3125 18.015625 
Q 18.3125 11.328125 20.140625 9.421875 
Q 21.96875 7.515625 27.59375 7.515625 
L 36.8125 7.515625 
L 36.8125 0 
L 27.59375 0 
Q 17.1875 0 13.234375 3.875 
Q 9.28125 7.765625 9.28125 18.015625 
L 9.28125 47.703125 
L 2.6875 47.703125 
L 2.6875 54.6875 
L 9.28125 54.6875 
L 9.28125 70.21875 
z
" id="DejaVuSans-74"/>
     <path id="DejaVuSans-20"/>
     <path d="M 44.28125 53.078125 
L 44.28125 44.578125 
Q 40.484375 46.53125 36.375 47.5 
Q 32.28125 48.484375 27.875 48.484375 
Q 21.1875 48.484375 17.84375 46.4375 
Q 14.5 44.390625 14.5 40.28125 
Q 14.5 37.15625 16.890625 35.375 
Q 19.28125 33.59375 26.515625 31.984375 
L 29.59375 31.296875 
Q 39.15625 29.25 43.1875 25.515625 
Q 47.21875 21.78125 47.21875 15.09375 
Q 47.21875 7.46875 41.1875 3.015625 
Q 35.15625 -1.421875 24.609375 -1.421875 
Q 20.21875 -1.421875 15.453125 -0.5625 
Q 10.6875 0.296875 5.421875 2 
L 5.421875 11.28125 
Q 10.40625 8.6875 15.234375 7.390625 
Q 20.0625 6.109375 24.8125 6.109375 
Q 31.15625 6.109375 34.5625 8.28125 
Q 37.984375 10.453125 37.984375 14.40625 
Q 37.984375 18.0625 35.515625 20.015625 
Q 33.0625 21.96875 24.703125 23.78125 
L 21.578125 24.515625 
Q 13.234375 26.265625 9.515625 29.90625 
Q 5.8125 33.546875 5.8125 39.890625 
Q 5.8125 47.609375 11.28125 51.796875 
Q 16.75 56 26.8125 56 
Q 31.78125 56 36.171875 55.265625 
Q 40.578125 54.546875 44.28125 53.078125 
z
" id="DejaVuSans-73"/>
     <path d="M 9.421875 54.6875 
L 18.40625 54.6875 
L 18.40625 0 
L 9.421875 0 
z
M 9.421875 75.984375 
L 18.40625 75.984375 
L 18.40625 64.59375 
L 9.421875 64.59375 
z
" id="DejaVuSans-69"/>
     <path d="M 45.40625 27.984375 
Q 45.40625 37.75 41.375 43.109375 
Q 37.359375 48.484375 30.078125 48.484375 
Q 22.859375 48.484375 18.828125 43.109375 
Q 14.796875 37.75 14.796875 27.984375 
Q 14.796875 18.265625 18.828125 12.890625 
Q 22.859375 7.515625 30.078125 7.515625 
Q 37.359375 7.515625 41.375 12.890625 
Q 45.40625 18.265625 45.40625 27.984375 
z
M 54.390625 6.78125 
Q 54.390625 -7.171875 48.1875 -13.984375 
Q 42 -20.796875 29.203125 -20.796875 
Q 24.46875 -20.796875 20.265625 -20.09375 
Q 16.0625 -19.390625 12.109375 -17.921875 
L 12.109375 -9.1875 
Q 16.0625 -11.328125 19.921875 -12.34375 
Q 23.78125 -13.375 27.78125 -13.375 
Q 36.625 -13.375 41.015625 -8.765625 
Q 45.40625 -4.15625 45.40625 5.171875 
L 45.40625 9.625 
Q 42.625 4.78125 38.28125 2.390625 
Q 33.9375 0 27.875 0 
Q 17.828125 0 11.671875 7.65625 
Q 5.515625 15.328125 5.515625 27.984375 
Q 5.515625 40.671875 11.671875 48.328125 
Q 17.828125 56 27.875 56 
Q 33.9375 56 38.28125 53.609375 
Q 42.625 51.21875 45.40625 46.390625 
L 45.40625 54.6875 
L 54.390625 54.6875 
z
" id="DejaVuSans-67"/>
     <path d="M 34.28125 27.484375 
Q 23.390625 27.484375 19.1875 25 
Q 14.984375 22.515625 14.984375 16.5 
Q 14.984375 11.71875 18.140625 8.90625 
Q 21.296875 6.109375 26.703125 6.109375 
Q 34.1875 6.109375 38.703125 11.40625 
Q 43.21875 16.703125 43.21875 25.484375 
L 43.21875 27.484375 
z
M 52.203125 31.203125 
L 52.203125 0 
L 43.21875 0 
L 43.21875 8.296875 
Q 40.140625 3.328125 35.546875 0.953125 
Q 30.953125 -1.421875 24.3125 -1.421875 
Q 15.921875 -1.421875 10.953125 3.296875 
Q 6 8.015625 6 15.921875 
Q 6 25.140625 12.171875 29.828125 
Q 18.359375 34.515625 30.609375 34.515625 
L 43.21875 34.515625 
L 43.21875 35.40625 
Q 43.21875 41.609375 39.140625 45 
Q 35.0625 48.390625 27.6875 48.390625 
Q 23 48.390625 18.546875 47.265625 
Q 14.109375 46.140625 10.015625 43.890625 
L 10.015625 52.203125 
Q 14.9375 54.109375 19.578125 55.046875 
Q 24.21875 56 28.609375 56 
Q 40.484375 56 46.34375 49.84375 
Q 52.203125 43.703125 52.203125 31.203125 
z
" id="DejaVuSans-61"/>
     <path d="M 9.421875 75.984375 
L 18.40625 75.984375 
L 18.40625 0 
L 9.421875 0 
z
" id="DejaVuSans-6c"/>
    </defs>
    <g transform="translate(334.496563 20.8)scale(0.12 -0.12)">
     <use xlink:href="#DejaVuSans-49"/>
     <use x="29.492188" xlink:href="#DejaVuSans-6e"/>
     <use x="92.871094" xlink:href="#DejaVuSans-70"/>
     <use x="156.347656" xlink:href="#DejaVuSans-75"/>
     <use x="219.726562" xlink:href="#DejaVuSans-74"/>
     <use x="258.935547" xlink:href="#DejaVuSans-20"/>
     <use x="290.722656" xlink:href="#DejaVuSans-73"/>
     <use x="342.822266" xlink:href="#DejaVuSans-69"/>
     <use x="370.605469" xlink:href="#DejaVuSans-67"/>
     <use x="434.082031" xlink:href="#DejaVuSans-6e"/>
     <use x="497.460938" xlink:href="#DejaVuSans-61"/>
     <use x="558.740234" xlink:href="#DejaVuSans-6c"/>
    </g>
   </g>
  </g>
  <g id="axes_2">
   <g id="patch_7">
    <path d="M 33.675 272.35 
L 705.7 272.35 
L 705.7 164.725 
L 33.675 164.725 
z
" style="fill:#ffffff;"/>
   </g>
   <g id="matplotlib.axis_3">
    <g id="xtick_6">
     <g id="line2d_12">
      <g>
       <use style="stroke:#000000;stroke-width:0.8;" x="91.19953" xlink:href="#mc97ed0a5ce" y="272.35"/>
      </g>
     </g>
    </g>
    <g id="xtick_7">
     <g id="line2d_13">
      <g>
       <use style="stroke:#000000;stroke-width:0.8;" x="235.010856" xlink:href="#mc97ed0a5ce" y="272.35"/>
      </g>
     </g>
    </g>
    <g id="xtick_8">
     <g id="line2d_14">
      <g>
       <use style="stroke:#000000;stroke-width:0.8;" x="378.822182" xlink:href="#mc97ed0a5ce" y="272.35"/>
      </g>
     </g>
    </g>
    <g id="xtick_9">
     <g id="line2d_15">
      <g>
       <use style="stroke:#000000;stroke-width:0.8;" x="522.633508" xlink:href="#mc97ed0a5ce" y="272.35"/>
      </g>
     </g>
    </g>
    <g id="xtick_10">
     <g id="line2d_16">
      <g>
       <use style="stroke:#000000;stroke-width:0.8;" x="666.444834" xlink:href="#mc97ed0a5ce" y="272.35"/>
      </g>
     </g>
    </g>
   </g>
   <g id="matplotlib.axis_4">
    <g id="ytick_6">
     <g id="line2d_17">
      <g>
       <use style="stroke:#000000;stroke-width:0.8;" x="33.675" xlink:href="#m3ccbfebb2a" y="267.457955"/>
      </g>
     </g>
     <g id="text_7">
      <!-- 0.00 -->
      <g transform="translate(4.409375 271.257173)scale(0.1 -0.1)">
       <use xlink:href="#DejaVuSans-30"/>
       <use x="63.623047" xlink:href="#DejaVuSans-2e"/>
       <use x="95.410156" xlink:href="#DejaVuSans-30"/>
       <use x="159.033203" xlink:href="#DejaVuSans-30"/>
      </g>
     </g>
    </g>
    <g id="ytick_7">
     <g id="line2d_18">
      <g>
       <use style="stroke:#000000;stroke-width:0.8;" x="33.675" xlink:href="#m3ccbfebb2a" y="242.997727"/>
      </g>
     </g>
     <g id="text_8">
      <!-- 0.25 -->
      <g transform="translate(4.409375 246.796946)scale(0.1 -0.1)">
       <use xlink:href="#DejaVuSans-30"/>
       <use x="63.623047" xlink:href="#DejaVuSans-2e"/>
       <use x="95.410156" xlink:href="#DejaVuSans-32"/>
       <use x="159.033203" xlink:href="#DejaVuSans-35"/>
      </g>
     </g>
    </g>
    <g id="ytick_8">
     <g id="line2d_19">
      <g>
       <use style="stroke:#000000;stroke-width:0.8;" x="33.675" xlink:href="#m3ccbfebb2a" y="218.5375"/>
      </g>
     </g>
     <g id="text_9">
      <!-- 0.50 -->
      <g transform="translate(4.409375 222.336719)scale(0.1 -0.1)">
       <use xlink:href="#DejaVuSans-30"/>
       <use x="63.623047" xlink:href="#DejaVuSans-2e"/>
       <use x="95.410156" xlink:href="#DejaVuSans-35"/>
       <use x="159.033203" xlink:href="#DejaVuSans-30"/>
      </g>
     </g>
    </g>
    <g id="ytick_9">
     <g id="line2d_20">
      <g>
       <use style="stroke:#000000;stroke-width:0.8;" x="33.675" xlink:href="#m3ccbfebb2a" y="194.077273"/>
      </g>
     </g>
     <g id="text_10">
      <!-- 0.75 -->
      <g transform="translate(4.409375 197.876491)scale(0.1 -0.1)">
       <use xlink:href="#DejaVuSans-30"/>
       <use x="63.623047" xlink:href="#DejaVuSans-2e"/>
       <use x="95.410156" xlink:href="#DejaVuSans-37"/>
       <use x="159.033203" xlink:href="#DejaVuSans-35"/>
      </g>
     </g>
    </g>
    <g id="ytick_10">
     <g id="line2d_21">
      <g>
       <use style="stroke:#000000;stroke-width:0.8;" x="33.675" xlink:href="#m3ccbfebb2a" y="169.617045"/>
      </g>
     </g>
     <g id="text_11">
      <!-- 1.00 -->
      <g transform="translate(4.409375 173.416264)scale(0.1 -0.1)">
       <use xlink:href="#DejaVuSans-31"/>
       <use x="63.623047" xlink:href="#DejaVuSans-2e"/>
       <use x="95.410156" xlink:href="#DejaVuSans-30"/>
       <use x="159.033203" xlink:href="#DejaVuSans-30"/>
      </g>
     </g>
    </g>
   </g>
   <g id="line2d_22">
    <path clip-path="url(#p90029beb4e)" d="M 33.675 266.995367 
L 36.384778 266.995367 
L 36.384778 266.145513 
L 39.094556 266.145513 
L 39.094556 265.296212 
L 41.804335 265.296212 
L 41.804335 264.437069 
L 44.514113 264.437069 
L 44.514113 263.58268 
L 47.223891 263.58268 
L 47.223891 262.725614 
L 49.933669 262.725614 
L 49.933669 261.860993 
L 52.643448 261.860993 
L 52.643448 260.997637 
L 55.353226 260.997637 
L 55.353226 260.12631 
L 58.063004 260.12631 
L 58.063004 259.258541 
L 60.772782 259.258541 
L 60.772782 258.388363 
L 63.48256 258.388363 
L 63.48256 257.522128 
L 66.192339 257.522128 
L 66.192339 256.641277 
L 68.902117 256.641277 
L 68.902117 255.750704 
L 71.611895 255.750704 
L 71.611895 254.806368 
L 74.321673 254.806368 
L 74.321673 253.877398 
L 77.031452 253.877398 
L 77.031452 253.437161 
L 79.74123 253.437161 
L 79.74123 252.901698 
L 82.451008 252.901698 
L 82.451008 252.101457 
L 85.160786 252.101457 
L 85.160786 250.986689 
L 87.870565 250.986689 
L 87.870565 249.553119 
L 90.580343 249.553119 
L 90.580343 247.859539 
L 93.290121 247.859539 
L 93.290121 245.969584 
L 95.999899 245.969584 
L 95.999899 243.964471 
L 98.709677 243.964471 
L 98.709677 241.877806 
L 101.419456 241.877806 
L 101.419456 239.738672 
L 104.129234 239.738672 
L 104.129234 237.585204 
L 106.839012 237.585204 
L 106.839012 235.394707 
L 109.54879 235.394707 
L 109.54879 233.14705 
L 112.258569 233.14705 
L 112.258569 230.836757 
L 114.968347 230.836757 
L 114.968347 228.446405 
L 117.678125 228.446405 
L 117.678125 226.049107 
L 120.387903 226.049107 
L 120.387903 223.694617 
L 123.097681 223.694617 
L 123.097681 221.514876 
L 125.80746 221.514876 
L 125.80746 219.648286 
L 128.517238 219.648286 
L 128.517238 218.209633 
L 131.227016 218.209633 
L 131.227016 217.196366 
L 133.936794 217.196366 
L 133.936794 216.571057 
L 136.646573 216.571057 
L 136.646573 216.23386 
L 139.356351 216.23386 
L 139.356351 216.07505 
L 144.775907 216.002069 
L 144.775907 215.947301 
L 147.485685 215.947301 
L 147.485685 215.815027 
L 150.195464 215.815027 
L 150.195464 215.612077 
L 152.905242 215.612077 
L 152.905242 215.336607 
L 155.61502 215.336607 
L 155.61502 215.049091 
L 158.324798 215.049091 
L 158.324798 214.803704 
L 161.034577 214.803704 
L 161.034577 214.676269 
L 166.454133 214.727182 
L 166.454133 214.942385 
L 169.163911 214.942385 
L 169.163911 215.259291 
L 171.87369 215.259291 
L 171.87369 215.588089 
L 174.583468 215.588089 
L 174.583468 215.880963 
L 177.293246 215.880963 
L 177.293246 216.051103 
L 185.422581 216.03024 
L 185.422581 215.85897 
L 188.132359 215.85897 
L 188.132359 215.596289 
L 190.842137 215.596289 
L 190.842137 215.307927 
L 193.551915 215.307927 
L 193.551915 215.059782 
L 196.261694 215.059782 
L 196.261694 214.916706 
L 201.68125 214.918804 
L 201.68125 215.117762 
L 204.391028 215.117762 
L 204.391028 215.441699 
L 207.100806 215.441699 
L 207.100806 215.803115 
L 209.810585 215.803115 
L 209.810585 216.10433 
L 212.520363 216.10433 
L 212.520363 216.308148 
L 223.359476 216.203094 
L 223.359476 215.948971 
L 226.069254 215.948971 
L 226.069254 215.61771 
L 228.779032 215.61771 
L 228.779032 215.291429 
L 231.48881 215.291429 
L 231.48881 215.042485 
L 239.618145 215.068946 
L 239.618145 215.319182 
L 242.327923 215.319182 
L 242.327923 215.623162 
L 245.037702 215.623162 
L 245.037702 215.862719 
L 247.74748 215.862719 
L 247.74748 215.97733 
L 253.167036 215.961289 
L 253.167036 215.831186 
L 255.876815 215.831186 
L 255.876815 215.619113 
L 258.586593 215.619113 
L 258.586593 215.452373 
L 266.715927 215.523878 
L 266.715927 215.963571 
L 269.425706 215.963571 
L 269.425706 216.719462 
L 272.135484 216.719462 
L 272.135484 217.691618 
L 274.845262 217.691618 
L 274.845262 218.717274 
L 277.55504 218.717274 
L 277.55504 219.553443 
L 280.264819 219.553443 
L 280.264819 220.066336 
L 282.974597 220.066336 
L 282.974597 220.200396 
L 285.684375 220.200396 
L 285.684375 220.040382 
L 288.394153 220.040382 
L 288.394153 219.681746 
L 291.103931 219.681746 
L 291.103931 219.212199 
L 293.81371 219.212199 
L 293.81371 218.68769 
L 296.523488 218.68769 
L 296.523488 218.118095 
L 299.233266 218.118095 
L 299.233266 217.467934 
L 301.943044 217.467934 
L 301.943044 216.656185 
L 304.652823 216.656185 
L 304.652823 215.672934 
L 307.362601 215.672934 
L 307.362601 214.427744 
L 310.072379 214.427744 
L 310.072379 212.902643 
L 312.782157 212.902643 
L 312.782157 211.109061 
L 315.491935 211.109061 
L 315.491935 209.154032 
L 318.201714 209.154032 
L 318.201714 207.291083 
L 320.911492 207.291083 
L 320.911492 205.718804 
L 323.62127 205.718804 
L 323.62127 204.520115 
L 326.331048 204.520115 
L 326.331048 203.618147 
L 329.040827 203.618147 
L 329.040827 202.903035 
L 331.750605 202.903035 
L 331.750605 202.323303 
L 334.460383 202.323303 
L 334.460383 201.818411 
L 337.170161 201.818411 
L 337.170161 201.422489 
L 339.87994 201.422489 
L 339.87994 201.168922 
L 345.299496 201.137206 
L 345.299496 201.343159 
L 348.009274 201.343159 
L 348.009274 201.86693 
L 350.719052 201.86693 
L 350.719052 202.718513 
L 353.428831 202.718513 
L 353.428831 203.890785 
L 356.138609 203.890785 
L 356.138609 205.366071 
L 358.848387 205.366071 
L 358.848387 207.104984 
L 361.558165 207.104984 
L 361.558165 208.937365 
L 364.267944 208.937365 
L 364.267944 210.796916 
L 366.977722 210.796916 
L 366.977722 212.694046 
L 369.6875 212.694046 
L 369.6875 214.663203 
L 372.397278 214.663203 
L 372.397278 216.675188 
L 375.107056 216.675188 
L 375.107056 218.684694 
L 377.816835 218.684694 
L 377.816835 220.594807 
L 380.526613 220.594807 
L 380.526613 222.312593 
L 383.236391 222.312593 
L 383.236391 223.71394 
L 385.946169 223.71394 
L 385.946169 224.694587 
L 388.655948 224.694587 
L 388.655948 225.200074 
L 394.075504 225.096814 
L 394.075504 224.375725 
L 396.785282 224.375725 
L 396.785282 222.981881 
L 399.49506 222.981881 
L 399.49506 220.929587 
L 402.204839 220.929587 
L 402.204839 218.260601 
L 404.914617 218.260601 
L 404.914617 215.060932 
L 407.624395 215.060932 
L 407.624395 211.41 
L 410.334173 211.41 
L 410.334173 207.42162 
L 413.043952 207.42162 
L 413.043952 203.168314 
L 415.75373 203.168314 
L 415.75373 198.771074 
L 418.463508 198.771074 
L 418.463508 194.464964 
L 421.173286 194.464964 
L 421.173286 190.370712 
L 423.883065 190.370712 
L 423.883065 186.610877 
L 426.592843 186.610877 
L 426.592843 183.324074 
L 429.302621 183.324074 
L 429.302621 180.592844 
L 432.012399 180.592844 
L 432.012399 178.481623 
L 434.722177 178.481623 
L 434.722177 176.983152 
L 437.431956 176.983152 
L 437.431956 176.03705 
L 440.141734 176.03705 
L 440.141734 175.577251 
L 448.271069 175.604349 
L 448.271069 175.881564 
L 450.980847 175.881564 
L 450.980847 176.204305 
L 453.690625 176.204305 
L 453.690625 176.47988 
L 456.400403 176.47988 
L 456.400403 176.716185 
L 459.110181 176.716185 
L 459.110181 176.846754 
L 464.529738 176.787668 
L 464.529738 176.524849 
L 467.239516 176.524849 
L 467.239516 176.001706 
L 469.949294 176.001706 
L 469.949294 175.193144 
L 472.659073 175.193144 
L 472.659073 174.114512 
L 475.368851 174.114512 
L 475.368851 172.835023 
L 478.078629 172.835023 
L 478.078629 171.594171 
L 480.788407 171.594171 
L 480.788407 170.514434 
L 483.498185 170.514434 
L 483.498185 169.793702 
L 486.207964 169.793702 
L 486.207964 169.617045 
L 488.917742 169.617045 
L 488.917742 170.099247 
L 491.62752 170.099247 
L 491.62752 171.262641 
L 494.337298 171.262641 
L 494.337298 173.116563 
L 497.047077 173.116563 
L 497.047077 175.643499 
L 499.756855 175.643499 
L 499.756855 178.712711 
L 502.466633 178.712711 
L 502.466633 182.270453 
L 505.176411 182.270453 
L 505.176411 186.258349 
L 507.88619 186.258349 
L 507.88619 190.583767 
L 510.595968 190.583767 
L 510.595968 195.28971 
L 513.305746 195.28971 
L 513.305746 200.32665 
L 516.015524 200.32665 
L 516.015524 205.62482 
L 518.725302 205.62482 
L 518.725302 211.053386 
L 521.435081 211.053386 
L 521.435081 216.474806 
L 524.144859 216.474806 
L 524.144859 221.781956 
L 526.854637 221.781956 
L 526.854637 226.893312 
L 529.564415 226.893312 
L 529.564415 231.663153 
L 532.274194 231.663153 
L 532.274194 236.028119 
L 534.983972 236.028119 
L 534.983972 240.01322 
L 537.69375 240.01322 
L 537.69375 243.608754 
L 540.403528 243.608754 
L 540.403528 246.838878 
L 543.113306 246.838878 
L 543.113306 249.754495 
L 545.823085 249.754495 
L 545.823085 252.378715 
L 548.532863 252.378715 
L 548.532863 254.749264 
L 551.242641 254.749264 
L 551.242641 256.868719 
L 553.952419 256.868719 
L 553.952419 258.727515 
L 556.662198 258.727515 
L 556.662198 260.342907 
L 559.371976 260.342907 
L 559.371976 261.717442 
L 562.081754 261.717442 
L 562.081754 262.890183 
L 564.791532 262.890183 
L 564.791532 263.873796 
L 567.50131 263.873796 
L 567.50131 264.670124 
L 570.211089 264.670124 
L 570.211089 265.31391 
L 572.920867 265.31391 
L 572.920867 265.828698 
L 575.630645 265.828698 
L 575.630645 266.238244 
L 578.340423 266.238244 
L 578.340423 266.554126 
L 581.050202 266.554126 
L 581.050202 266.796959 
L 583.75998 266.796959 
L 583.75998 266.977982 
L 586.469758 266.977982 
L 586.469758 267.115694 
L 591.889315 267.218773 
L 591.889315 267.292111 
L 600.018649 267.382984 
L 600.018649 267.410233 
L 705.7 267.457955 
L 705.7 267.457955 
" style="fill:none;opacity:0.7;stroke:#000000;stroke-linecap:square;stroke-width:1.5;"/>
   </g>
   <g id="patch_8">
    <path d="M 33.675 272.35 
L 33.675 164.725 
" style="fill:none;stroke:#000000;stroke-linecap:square;stroke-linejoin:miter;stroke-width:0.8;"/>
   </g>
   <g id="patch_9">
    <path d="M 705.7 272.35 
L 705.7 164.725 
" style="fill:none;stroke:#000000;stroke-linecap:square;stroke-linejoin:miter;stroke-width:0.8;"/>
   </g>
   <g id="patch_10">
    <path d="M 33.675 272.35 
L 705.7 272.35 
" style="fill:none;stroke:#000000;stroke-linecap:square;stroke-linejoin:miter;stroke-width:0.8;"/>
   </g>
   <g id="patch_11">
    <path d="M 33.675 164.725 
L 705.7 164.725 
" style="fill:none;stroke:#000000;stroke-linecap:square;stroke-linejoin:miter;stroke-width:0.8;"/>
   </g>
   <g id="text_12">
    <!-- Convolved input signal -->
    <defs>
     <path d="M 64.40625 67.28125 
L 64.40625 56.890625 
Q 59.421875 61.53125 53.78125 63.8125 
Q 48.140625 66.109375 41.796875 66.109375 
Q 29.296875 66.109375 22.65625 58.46875 
Q 16.015625 50.828125 16.015625 36.375 
Q 16.015625 21.96875 22.65625 14.328125 
Q 29.296875 6.6875 41.796875 6.6875 
Q 48.140625 6.6875 53.78125 8.984375 
Q 59.421875 11.28125 64.40625 15.921875 
L 64.40625 5.609375 
Q 59.234375 2.09375 53.4375 0.328125 
Q 47.65625 -1.421875 41.21875 -1.421875 
Q 24.65625 -1.421875 15.125 8.703125 
Q 5.609375 18.84375 5.609375 36.375 
Q 5.609375 53.953125 15.125 64.078125 
Q 24.65625 74.21875 41.21875 74.21875 
Q 47.75 74.21875 53.53125 72.484375 
Q 59.328125 70.75 64.40625 67.28125 
z
" id="DejaVuSans-43"/>
     <path d="M 30.609375 48.390625 
Q 23.390625 48.390625 19.1875 42.75 
Q 14.984375 37.109375 14.984375 27.296875 
Q 14.984375 17.484375 19.15625 11.84375 
Q 23.34375 6.203125 30.609375 6.203125 
Q 37.796875 6.203125 41.984375 11.859375 
Q 46.1875 17.53125 46.1875 27.296875 
Q 46.1875 37.015625 41.984375 42.703125 
Q 37.796875 48.390625 30.609375 48.390625 
z
M 30.609375 56 
Q 42.328125 56 49.015625 48.375 
Q 55.71875 40.765625 55.71875 27.296875 
Q 55.71875 13.875 49.015625 6.21875 
Q 42.328125 -1.421875 30.609375 -1.421875 
Q 18.84375 -1.421875 12.171875 6.21875 
Q 5.515625 13.875 5.515625 27.296875 
Q 5.515625 40.765625 12.171875 48.375 
Q 18.84375 56 30.609375 56 
z
" id="DejaVuSans-6f"/>
     <path d="M 2.984375 54.6875 
L 12.5 54.6875 
L 29.59375 8.796875 
L 46.6875 54.6875 
L 56.203125 54.6875 
L 35.6875 0 
L 23.484375 0 
z
" id="DejaVuSans-76"/>
     <path d="M 56.203125 29.59375 
L 56.203125 25.203125 
L 14.890625 25.203125 
Q 15.484375 15.921875 20.484375 11.0625 
Q 25.484375 6.203125 34.421875 6.203125 
Q 39.59375 6.203125 44.453125 7.46875 
Q 49.3125 8.734375 54.109375 11.28125 
L 54.109375 2.78125 
Q 49.265625 0.734375 44.1875 -0.34375 
Q 39.109375 -1.421875 33.890625 -1.421875 
Q 20.796875 -1.421875 13.15625 6.1875 
Q 5.515625 13.8125 5.515625 26.8125 
Q 5.515625 40.234375 12.765625 48.109375 
Q 20.015625 56 32.328125 56 
Q 43.359375 56 49.78125 48.890625 
Q 56.203125 41.796875 56.203125 29.59375 
z
M 47.21875 32.234375 
Q 47.125 39.59375 43.09375 43.984375 
Q 39.0625 48.390625 32.421875 48.390625 
Q 24.90625 48.390625 20.390625 44.140625 
Q 15.875 39.890625 15.1875 32.171875 
z
" id="DejaVuSans-65"/>
     <path d="M 45.40625 46.390625 
L 45.40625 75.984375 
L 54.390625 75.984375 
L 54.390625 0 
L 45.40625 0 
L 45.40625 8.203125 
Q 42.578125 3.328125 38.25 0.953125 
Q 33.9375 -1.421875 27.875 -1.421875 
Q 17.96875 -1.421875 11.734375 6.484375 
Q 5.515625 14.40625 5.515625 27.296875 
Q 5.515625 40.1875 11.734375 48.09375 
Q 17.96875 56 27.875 56 
Q 33.9375 56 38.25 53.625 
Q 42.578125 51.265625 45.40625 46.390625 
z
M 14.796875 27.296875 
Q 14.796875 17.390625 18.875 11.75 
Q 22.953125 6.109375 30.078125 6.109375 
Q 37.203125 6.109375 41.296875 11.75 
Q 45.40625 17.390625 45.40625 27.296875 
Q 45.40625 37.203125 41.296875 42.84375 
Q 37.203125 48.484375 30.078125 48.484375 
Q 22.953125 48.484375 18.875 42.84375 
Q 14.796875 37.203125 14.796875 27.296875 
z
" id="DejaVuSans-64"/>
    </defs>
    <g transform="translate(301.087813 158.725)scale(0.12 -0.12)">
     <use xlink:href="#DejaVuSans-43"/>
     <use x="69.824219" xlink:href="#DejaVuSans-6f"/>
     <use x="131.005859" xlink:href="#DejaVuSans-6e"/>
     <use x="194.384766" xlink:href="#DejaVuSans-76"/>
     <use x="253.564453" xlink:href="#DejaVuSans-6f"/>
     <use x="314.746094" xlink:href="#DejaVuSans-6c"/>
     <use x="342.529297" xlink:href="#DejaVuSans-76"/>
     <use x="401.708984" xlink:href="#DejaVuSans-65"/>
     <use x="463.232422" xlink:href="#DejaVuSans-64"/>
     <use x="526.708984" xlink:href="#DejaVuSans-20"/>
     <use x="558.496094" xlink:href="#DejaVuSans-69"/>
     <use x="586.279297" xlink:href="#DejaVuSans-6e"/>
     <use x="649.658203" xlink:href="#DejaVuSans-70"/>
     <use x="713.134766" xlink:href="#DejaVuSans-75"/>
     <use x="776.513672" xlink:href="#DejaVuSans-74"/>
     <use x="815.722656" xlink:href="#DejaVuSans-20"/>
     <use x="847.509766" xlink:href="#DejaVuSans-73"/>
     <use x="899.609375" xlink:href="#DejaVuSans-69"/>
     <use x="927.392578" xlink:href="#DejaVuSans-67"/>
     <use x="990.869141" xlink:href="#DejaVuSans-6e"/>
     <use x="1054.248047" xlink:href="#DejaVuSans-61"/>
     <use x="1115.527344" xlink:href="#DejaVuSans-6c"/>
    </g>
   </g>
  </g>
  <g id="axes_3">
   <g id="patch_12">
    <path d="M 33.675 410.275 
L 705.7 410.275 
L 705.7 302.65 
L 33.675 302.65 
z
" style="fill:#ffffff;"/>
   </g>
   <g id="matplotlib.axis_5">
    <g id="xtick_11">
     <g id="line2d_23">
      <g>
       <use style="stroke:#000000;stroke-width:0.8;" x="91.19953" xlink:href="#mc97ed0a5ce" y="410.275"/>
      </g>
     </g>
    </g>
    <g id="xtick_12">
     <g id="line2d_24">
      <g>
       <use style="stroke:#000000;stroke-width:0.8;" x="235.010856" xlink:href="#mc97ed0a5ce" y="410.275"/>
      </g>
     </g>
    </g>
    <g id="xtick_13">
     <g id="line2d_25">
      <g>
       <use style="stroke:#000000;stroke-width:0.8;" x="378.822182" xlink:href="#mc97ed0a5ce" y="410.275"/>
      </g>
     </g>
    </g>
    <g id="xtick_14">
     <g id="line2d_26">
      <g>
       <use style="stroke:#000000;stroke-width:0.8;" x="522.633508" xlink:href="#mc97ed0a5ce" y="410.275"/>
      </g>
     </g>
    </g>
    <g id="xtick_15">
     <g id="line2d_27">
      <g>
       <use style="stroke:#000000;stroke-width:0.8;" x="666.444834" xlink:href="#mc97ed0a5ce" y="410.275"/>
      </g>
     </g>
    </g>
   </g>
   <g id="matplotlib.axis_6">
    <g id="ytick_11">
     <g id="line2d_28">
      <g>
       <use style="stroke:#000000;stroke-width:0.8;" x="33.675" xlink:href="#m3ccbfebb2a" y="405.382955"/>
      </g>
     </g>
     <g id="text_13">
      <!-- 0.00 -->
      <g transform="translate(4.409375 409.182173)scale(0.1 -0.1)">
       <use xlink:href="#DejaVuSans-30"/>
       <use x="63.623047" xlink:href="#DejaVuSans-2e"/>
       <use x="95.410156" xlink:href="#DejaVuSans-30"/>
       <use x="159.033203" xlink:href="#DejaVuSans-30"/>
      </g>
     </g>
    </g>
    <g id="ytick_12">
     <g id="line2d_29">
      <g>
       <use style="stroke:#000000;stroke-width:0.8;" x="33.675" xlink:href="#m3ccbfebb2a" y="380.922727"/>
      </g>
     </g>
     <g id="text_14">
      <!-- 0.25 -->
      <g transform="translate(4.409375 384.721946)scale(0.1 -0.1)">
       <use xlink:href="#DejaVuSans-30"/>
       <use x="63.623047" xlink:href="#DejaVuSans-2e"/>
       <use x="95.410156" xlink:href="#DejaVuSans-32"/>
       <use x="159.033203" xlink:href="#DejaVuSans-35"/>
      </g>
     </g>
    </g>
    <g id="ytick_13">
     <g id="line2d_30">
      <g>
       <use style="stroke:#000000;stroke-width:0.8;" x="33.675" xlink:href="#m3ccbfebb2a" y="356.4625"/>
      </g>
     </g>
     <g id="text_15">
      <!-- 0.50 -->
      <g transform="translate(4.409375 360.261719)scale(0.1 -0.1)">
       <use xlink:href="#DejaVuSans-30"/>
       <use x="63.623047" xlink:href="#DejaVuSans-2e"/>
       <use x="95.410156" xlink:href="#DejaVuSans-35"/>
       <use x="159.033203" xlink:href="#DejaVuSans-30"/>
      </g>
     </g>
    </g>
    <g id="ytick_14">
     <g id="line2d_31">
      <g>
       <use style="stroke:#000000;stroke-width:0.8;" x="33.675" xlink:href="#m3ccbfebb2a" y="332.002273"/>
      </g>
     </g>
     <g id="text_16">
      <!-- 0.75 -->
      <g transform="translate(4.409375 335.801491)scale(0.1 -0.1)">
       <use xlink:href="#DejaVuSans-30"/>
       <use x="63.623047" xlink:href="#DejaVuSans-2e"/>
       <use x="95.410156" xlink:href="#DejaVuSans-37"/>
       <use x="159.033203" xlink:href="#DejaVuSans-35"/>
      </g>
     </g>
    </g>
    <g id="ytick_15">
     <g id="line2d_32">
      <g>
       <use style="stroke:#000000;stroke-width:0.8;" x="33.675" xlink:href="#m3ccbfebb2a" y="307.542045"/>
      </g>
     </g>
     <g id="text_17">
      <!-- 1.00 -->
      <g transform="translate(4.409375 311.341264)scale(0.1 -0.1)">
       <use xlink:href="#DejaVuSans-31"/>
       <use x="63.623047" xlink:href="#DejaVuSans-2e"/>
       <use x="95.410156" xlink:href="#DejaVuSans-30"/>
       <use x="159.033203" xlink:href="#DejaVuSans-30"/>
      </g>
     </g>
    </g>
   </g>
   <g id="line2d_33">
    <path clip-path="url(#pcc0b3bfe76)" d="M 33.675 405.382955 
L 264.006149 405.382955 
L 266.715927 400.685503 
L 304.652823 311.800656 
L 307.362601 307.542045 
L 348.009274 402.77581 
L 350.719052 405.382955 
L 705.7 405.382955 
L 705.7 405.382955 
" style="fill:none;opacity:0.7;stroke:#000000;stroke-linecap:square;stroke-width:1.5;"/>
   </g>
   <g id="patch_13">
    <path d="M 33.675 410.275 
L 33.675 302.65 
" style="fill:none;stroke:#000000;stroke-linecap:square;stroke-linejoin:miter;stroke-width:0.8;"/>
   </g>
   <g id="patch_14">
    <path d="M 705.7 410.275 
L 705.7 302.65 
" style="fill:none;stroke:#000000;stroke-linecap:square;stroke-linejoin:miter;stroke-width:0.8;"/>
   </g>
   <g id="patch_15">
    <path d="M 33.675 410.275 
L 705.7 410.275 
" style="fill:none;stroke:#000000;stroke-linecap:square;stroke-linejoin:miter;stroke-width:0.8;"/>
   </g>
   <g id="patch_16">
    <path d="M 33.675 302.65 
L 705.7 302.65 
" style="fill:none;stroke:#000000;stroke-linecap:square;stroke-linejoin:miter;stroke-width:0.8;"/>
   </g>
   <g id="text_18">
    <!-- Window signal -->
    <defs>
     <path d="M 3.328125 72.90625 
L 13.28125 72.90625 
L 28.609375 11.28125 
L 43.890625 72.90625 
L 54.984375 72.90625 
L 70.3125 11.28125 
L 85.59375 72.90625 
L 95.609375 72.90625 
L 77.296875 0 
L 64.890625 0 
L 49.515625 63.28125 
L 33.984375 0 
L 21.578125 0 
z
" id="DejaVuSans-57"/>
     <path d="M 4.203125 54.6875 
L 13.1875 54.6875 
L 24.421875 12.015625 
L 35.59375 54.6875 
L 46.1875 54.6875 
L 57.421875 12.015625 
L 68.609375 54.6875 
L 77.59375 54.6875 
L 63.28125 0 
L 52.6875 0 
L 40.921875 44.828125 
L 29.109375 0 
L 18.5 0 
z
" id="DejaVuSans-77"/>
    </defs>
    <g transform="translate(326.245625 296.65)scale(0.12 -0.12)">
     <use xlink:href="#DejaVuSans-57"/>
     <use x="98.845703" xlink:href="#DejaVuSans-69"/>
     <use x="126.628906" xlink:href="#DejaVuSans-6e"/>
     <use x="190.007812" xlink:href="#DejaVuSans-64"/>
     <use x="253.484375" xlink:href="#DejaVuSans-6f"/>
     <use x="314.666016" xlink:href="#DejaVuSans-77"/>
     <use x="396.453125" xlink:href="#DejaVuSans-20"/>
     <use x="428.240234" xlink:href="#DejaVuSans-73"/>
     <use x="480.339844" xlink:href="#DejaVuSans-69"/>
     <use x="508.123047" xlink:href="#DejaVuSans-67"/>
     <use x="571.599609" xlink:href="#DejaVuSans-6e"/>
     <use x="634.978516" xlink:href="#DejaVuSans-61"/>
     <use x="696.257812" xlink:href="#DejaVuSans-6c"/>
    </g>
   </g>
  </g>
  <g id="axes_4">
   <g id="patch_17">
    <path d="M 33.675 548.2 
L 705.7 548.2 
L 705.7 440.575 
L 33.675 440.575 
z
" style="fill:#ffffff;"/>
   </g>
   <g id="matplotlib.axis_7">
    <g id="xtick_16">
     <g id="line2d_34">
      <g>
       <use style="stroke:#000000;stroke-width:0.8;" x="91.19953" xlink:href="#mc97ed0a5ce" y="548.2"/>
      </g>
     </g>
     <g id="text_19">
      <!-- 20 -->
      <g transform="translate(84.83703 562.798438)scale(0.1 -0.1)">
       <use xlink:href="#DejaVuSans-32"/>
       <use x="63.623047" xlink:href="#DejaVuSans-30"/>
      </g>
     </g>
    </g>
    <g id="xtick_17">
     <g id="line2d_35">
      <g>
       <use style="stroke:#000000;stroke-width:0.8;" x="235.010856" xlink:href="#mc97ed0a5ce" y="548.2"/>
      </g>
     </g>
     <g id="text_20">
      <!-- 40 -->
      <defs>
       <path d="M 37.796875 64.3125 
L 12.890625 25.390625 
L 37.796875 25.390625 
z
M 35.203125 72.90625 
L 47.609375 72.90625 
L 47.609375 25.390625 
L 58.015625 25.390625 
L 58.015625 17.1875 
L 47.609375 17.1875 
L 47.609375 0 
L 37.796875 0 
L 37.796875 17.1875 
L 4.890625 17.1875 
L 4.890625 26.703125 
z
" id="DejaVuSans-34"/>
      </defs>
      <g transform="translate(228.648356 562.798438)scale(0.1 -0.1)">
       <use xlink:href="#DejaVuSans-34"/>
       <use x="63.623047" xlink:href="#DejaVuSans-30"/>
      </g>
     </g>
    </g>
    <g id="xtick_18">
     <g id="line2d_36">
      <g>
       <use style="stroke:#000000;stroke-width:0.8;" x="378.822182" xlink:href="#mc97ed0a5ce" y="548.2"/>
      </g>
     </g>
     <g id="text_21">
      <!-- 60 -->
      <defs>
       <path d="M 33.015625 40.375 
Q 26.375 40.375 22.484375 35.828125 
Q 18.609375 31.296875 18.609375 23.390625 
Q 18.609375 15.53125 22.484375 10.953125 
Q 26.375 6.390625 33.015625 6.390625 
Q 39.65625 6.390625 43.53125 10.953125 
Q 47.40625 15.53125 47.40625 23.390625 
Q 47.40625 31.296875 43.53125 35.828125 
Q 39.65625 40.375 33.015625 40.375 
z
M 52.59375 71.296875 
L 52.59375 62.3125 
Q 48.875 64.0625 45.09375 64.984375 
Q 41.3125 65.921875 37.59375 65.921875 
Q 27.828125 65.921875 22.671875 59.328125 
Q 17.53125 52.734375 16.796875 39.40625 
Q 19.671875 43.65625 24.015625 45.921875 
Q 28.375 48.1875 33.59375 48.1875 
Q 44.578125 48.1875 50.953125 41.515625 
Q 57.328125 34.859375 57.328125 23.390625 
Q 57.328125 12.15625 50.6875 5.359375 
Q 44.046875 -1.421875 33.015625 -1.421875 
Q 20.359375 -1.421875 13.671875 8.265625 
Q 6.984375 17.96875 6.984375 36.375 
Q 6.984375 53.65625 15.1875 63.9375 
Q 23.390625 74.21875 37.203125 74.21875 
Q 40.921875 74.21875 44.703125 73.484375 
Q 48.484375 72.75 52.59375 71.296875 
z
" id="DejaVuSans-36"/>
      </defs>
      <g transform="translate(372.459682 562.798438)scale(0.1 -0.1)">
       <use xlink:href="#DejaVuSans-36"/>
       <use x="63.623047" xlink:href="#DejaVuSans-30"/>
      </g>
     </g>
    </g>
    <g id="xtick_19">
     <g id="line2d_37">
      <g>
       <use style="stroke:#000000;stroke-width:0.8;" x="522.633508" xlink:href="#mc97ed0a5ce" y="548.2"/>
      </g>
     </g>
     <g id="text_22">
      <!-- 80 -->
      <defs>
       <path d="M 31.78125 34.625 
Q 24.75 34.625 20.71875 30.859375 
Q 16.703125 27.09375 16.703125 20.515625 
Q 16.703125 13.921875 20.71875 10.15625 
Q 24.75 6.390625 31.78125 6.390625 
Q 38.8125 6.390625 42.859375 10.171875 
Q 46.921875 13.96875 46.921875 20.515625 
Q 46.921875 27.09375 42.890625 30.859375 
Q 38.875 34.625 31.78125 34.625 
z
M 21.921875 38.8125 
Q 15.578125 40.375 12.03125 44.71875 
Q 8.5 49.078125 8.5 55.328125 
Q 8.5 64.0625 14.71875 69.140625 
Q 20.953125 74.21875 31.78125 74.21875 
Q 42.671875 74.21875 48.875 69.140625 
Q 55.078125 64.0625 55.078125 55.328125 
Q 55.078125 49.078125 51.53125 44.71875 
Q 48 40.375 41.703125 38.8125 
Q 48.828125 37.15625 52.796875 32.3125 
Q 56.78125 27.484375 56.78125 20.515625 
Q 56.78125 9.90625 50.3125 4.234375 
Q 43.84375 -1.421875 31.78125 -1.421875 
Q 19.734375 -1.421875 13.25 4.234375 
Q 6.78125 9.90625 6.78125 20.515625 
Q 6.78125 27.484375 10.78125 32.3125 
Q 14.796875 37.15625 21.921875 38.8125 
z
M 18.3125 54.390625 
Q 18.3125 48.734375 21.84375 45.5625 
Q 25.390625 42.390625 31.78125 42.390625 
Q 38.140625 42.390625 41.71875 45.5625 
Q 45.3125 48.734375 45.3125 54.390625 
Q 45.3125 60.0625 41.71875 63.234375 
Q 38.140625 66.40625 31.78125 66.40625 
Q 25.390625 66.40625 21.84375 63.234375 
Q 18.3125 60.0625 18.3125 54.390625 
z
" id="DejaVuSans-38"/>
      </defs>
      <g transform="translate(516.271008 562.798438)scale(0.1 -0.1)">
       <use xlink:href="#DejaVuSans-38"/>
       <use x="63.623047" xlink:href="#DejaVuSans-30"/>
      </g>
     </g>
    </g>
    <g id="xtick_20">
     <g id="line2d_38">
      <g>
       <use style="stroke:#000000;stroke-width:0.8;" x="666.444834" xlink:href="#mc97ed0a5ce" y="548.2"/>
      </g>
     </g>
     <g id="text_23">
      <!-- 100 -->
      <g transform="translate(656.901084 562.798438)scale(0.1 -0.1)">
       <use xlink:href="#DejaVuSans-31"/>
       <use x="63.623047" xlink:href="#DejaVuSans-30"/>
       <use x="127.246094" xlink:href="#DejaVuSans-30"/>
      </g>
     </g>
    </g>
   </g>
   <g id="matplotlib.axis_8">
    <g id="ytick_16">
     <g id="line2d_39">
      <g>
       <use style="stroke:#000000;stroke-width:0.8;" x="33.675" xlink:href="#m3ccbfebb2a" y="543.307955"/>
      </g>
     </g>
     <g id="text_24">
      <!-- 0.00 -->
      <g transform="translate(4.409375 547.107173)scale(0.1 -0.1)">
       <use xlink:href="#DejaVuSans-30"/>
       <use x="63.623047" xlink:href="#DejaVuSans-2e"/>
       <use x="95.410156" xlink:href="#DejaVuSans-30"/>
       <use x="159.033203" xlink:href="#DejaVuSans-30"/>
      </g>
     </g>
    </g>
    <g id="ytick_17">
     <g id="line2d_40">
      <g>
       <use style="stroke:#000000;stroke-width:0.8;" x="33.675" xlink:href="#m3ccbfebb2a" y="518.847727"/>
      </g>
     </g>
     <g id="text_25">
      <!-- 0.25 -->
      <g transform="translate(4.409375 522.646946)scale(0.1 -0.1)">
       <use xlink:href="#DejaVuSans-30"/>
       <use x="63.623047" xlink:href="#DejaVuSans-2e"/>
       <use x="95.410156" xlink:href="#DejaVuSans-32"/>
       <use x="159.033203" xlink:href="#DejaVuSans-35"/>
      </g>
     </g>
    </g>
    <g id="ytick_18">
     <g id="line2d_41">
      <g>
       <use style="stroke:#000000;stroke-width:0.8;" x="33.675" xlink:href="#m3ccbfebb2a" y="494.3875"/>
      </g>
     </g>
     <g id="text_26">
      <!-- 0.50 -->
      <g transform="translate(4.409375 498.186719)scale(0.1 -0.1)">
       <use xlink:href="#DejaVuSans-30"/>
       <use x="63.623047" xlink:href="#DejaVuSans-2e"/>
       <use x="95.410156" xlink:href="#DejaVuSans-35"/>
       <use x="159.033203" xlink:href="#DejaVuSans-30"/>
      </g>
     </g>
    </g>
    <g id="ytick_19">
     <g id="line2d_42">
      <g>
       <use style="stroke:#000000;stroke-width:0.8;" x="33.675" xlink:href="#m3ccbfebb2a" y="469.927273"/>
      </g>
     </g>
     <g id="text_27">
      <!-- 0.75 -->
      <g transform="translate(4.409375 473.726491)scale(0.1 -0.1)">
       <use xlink:href="#DejaVuSans-30"/>
       <use x="63.623047" xlink:href="#DejaVuSans-2e"/>
       <use x="95.410156" xlink:href="#DejaVuSans-37"/>
       <use x="159.033203" xlink:href="#DejaVuSans-35"/>
      </g>
     </g>
    </g>
    <g id="ytick_20">
     <g id="line2d_43">
      <g>
       <use style="stroke:#000000;stroke-width:0.8;" x="33.675" xlink:href="#m3ccbfebb2a" y="445.467045"/>
      </g>
     </g>
     <g id="text_28">
      <!-- 1.00 -->
      <g transform="translate(4.409375 449.266264)scale(0.1 -0.1)">
       <use xlink:href="#DejaVuSans-31"/>
       <use x="63.623047" xlink:href="#DejaVuSans-2e"/>
       <use x="95.410156" xlink:href="#DejaVuSans-30"/>
       <use x="159.033203" xlink:href="#DejaVuSans-30"/>
      </g>
     </g>
    </g>
   </g>
   <g id="line2d_44">
    <path clip-path="url(#pe4db8f438e)" d="M 33.675 537.132742 
L 33.675 543.307955 
L 47.223891 543.307955 
L 47.223891 540.834136 
L 49.933669 540.834136 
L 49.933669 538.453898 
L 52.643448 538.453898 
L 52.643448 536.210673 
L 55.353226 536.210673 
L 55.353226 535.296851 
L 58.063004 535.296851 
L 58.063004 534.623869 
L 60.772782 534.623869 
L 60.772782 534.914089 
L 63.48256 534.914089 
L 63.48256 535.291061 
L 66.192339 535.291061 
L 66.192339 535.917115 
L 68.902117 535.917115 
L 68.902117 535.623904 
L 71.611895 535.623904 
L 71.611895 534.909126 
L 74.321673 534.909126 
L 74.321673 527.678456 
L 77.031452 527.678456 
L 77.031452 510.793867 
L 79.74123 510.793867 
L 79.74123 522.279667 
L 82.451008 522.279667 
L 82.451008 541.639158 
L 85.160786 541.639158 
L 85.160786 543.307955 
L 87.870565 543.307955 
L 87.870565 541.227358 
L 90.580343 541.227358 
L 90.580343 537.671401 
L 93.290121 537.671401 
L 93.290121 534.770414 
L 95.999899 534.770414 
L 95.999899 532.752495 
L 98.709677 532.752495 
L 98.709677 533.023217 
L 101.419456 533.023217 
L 101.419456 534.061331 
L 104.129234 534.061331 
L 104.129234 534.240991 
L 106.839012 534.240991 
L 106.839012 535.192722 
L 109.54879 535.192722 
L 109.54879 534.793345 
L 112.258569 534.793345 
L 112.258569 531.030314 
L 114.968347 531.030314 
L 114.968347 523.431437 
L 117.678125 523.431437 
L 117.678125 511.838386 
L 120.387903 511.838386 
L 120.387903 502.209858 
L 123.097681 502.209858 
L 123.097681 489.90926 
L 125.80746 489.90926 
L 125.80746 486.098752 
L 128.517238 486.098752 
L 128.517238 483.30984 
L 131.227016 483.30984 
L 131.227016 485.176203 
L 133.936794 485.176203 
L 133.936794 491.512998 
L 136.646573 491.512998 
L 136.646573 501.186948 
L 139.356351 501.186948 
L 139.356351 512.013672 
L 142.066129 512.013672 
L 142.066129 520.777946 
L 144.775907 520.777946 
L 144.775907 527.037845 
L 147.485685 527.037845 
L 147.485685 531.204039 
L 150.195464 531.204039 
L 150.195464 528.904856 
L 152.905242 528.904856 
L 152.905242 522.441888 
L 155.61502 522.441888 
L 155.61502 511.709025 
L 158.324798 511.709025 
L 158.324798 500.353272 
L 161.034577 500.353272 
L 161.034577 490.566784 
L 163.744355 490.566784 
L 163.744355 481.711845 
L 166.454133 481.711845 
L 166.454133 479.99742 
L 169.163911 479.99742 
L 169.163911 487.167296 
L 171.87369 487.167296 
L 171.87369 498.349396 
L 174.583468 498.349396 
L 174.583468 508.271371 
L 177.293246 508.271371 
L 177.293246 518.094507 
L 180.003024 518.094507 
L 180.003024 523.49951 
L 182.712802 523.49951 
L 182.712802 525.698545 
L 185.422581 525.698545 
L 185.422581 525.275926 
L 188.132359 525.275926 
L 188.132359 522.208516 
L 190.842137 522.208516 
L 190.842137 514.660289 
L 193.551915 514.660289 
L 193.551915 505.605107 
L 196.261694 505.605107 
L 196.261694 496.126526 
L 198.971472 496.126526 
L 198.971472 489.539182 
L 201.68125 489.539182 
L 201.68125 485.825383 
L 204.391028 485.825383 
L 204.391028 489.200279 
L 207.100806 489.200279 
L 207.100806 496.760804 
L 209.810585 496.760804 
L 209.810585 506.425087 
L 212.520363 506.425087 
L 212.520363 514.780081 
L 215.230141 514.780081 
L 215.230141 520.75101 
L 217.939919 520.75101 
L 217.939919 523.472042 
L 220.649698 523.472042 
L 220.649698 521.81392 
L 223.359476 521.81392 
L 223.359476 518.845776 
L 226.069254 518.845776 
L 226.069254 513.351331 
L 228.779032 513.351331 
L 228.779032 504.800096 
L 231.48881 504.800096 
L 231.48881 496.608391 
L 234.198589 496.608391 
L 234.198589 490.369948 
L 236.908367 490.369948 
L 236.908367 489.787792 
L 239.618145 489.787792 
L 239.618145 492.449074 
L 242.327923 492.449074 
L 242.327923 499.858783 
L 245.037702 499.858783 
L 245.037702 510.094998 
L 247.74748 510.094998 
L 247.74748 517.583796 
L 250.457258 517.583796 
L 250.457258 521.685977 
L 253.167036 521.685977 
L 253.167036 523.349763 
L 255.876815 523.349763 
L 255.876815 522.685159 
L 258.586593 522.685159 
L 258.586593 516.754901 
L 261.296371 516.754901 
L 261.296371 510.038598 
L 264.006149 510.038598 
L 264.006149 502.340633 
L 266.715927 502.340633 
L 266.715927 490.634071 
L 269.425706 490.634071 
L 269.425706 483.887256 
L 272.135484 483.887256 
L 272.135484 483.692024 
L 274.845262 483.692024 
L 274.845262 489.590257 
L 277.55504 489.590257 
L 277.55504 501.825705 
L 280.264819 501.825705 
L 280.264819 512.921022 
L 282.974597 512.921022 
L 282.974597 521.784459 
L 285.684375 521.784459 
L 285.684375 524.255489 
L 288.394153 524.255489 
L 288.394153 523.409781 
L 291.103931 523.409781 
L 291.103931 520.915852 
L 293.81371 520.915852 
L 293.81371 517.659454 
L 296.523488 517.659454 
L 296.523488 515.25839 
L 299.233266 515.25839 
L 299.233266 514.538651 
L 301.943044 514.538651 
L 301.943044 515.790127 
L 304.652823 515.790127 
L 304.652823 514.348169 
L 307.362601 514.348169 
L 307.362601 514.899214 
L 310.072379 514.899214 
L 310.072379 514.655439 
L 312.782157 514.655439 
L 312.782157 512.225502 
L 315.491935 512.225502 
L 315.491935 505.779471 
L 318.201714 505.779471 
L 318.201714 493.677882 
L 320.911492 493.677882 
L 320.911492 482.565102 
L 323.62127 482.565102 
L 323.62127 479.62013 
L 326.331048 479.62013 
L 326.331048 485.343117 
L 329.040827 485.343117 
L 329.040827 493.791078 
L 331.750605 493.791078 
L 331.750605 499.386315 
L 334.460383 499.386315 
L 334.460383 503.16459 
L 337.170161 503.16459 
L 337.170161 502.159161 
L 339.87994 502.159161 
L 339.87994 499.274067 
L 342.589718 499.274067 
L 342.589718 495.309483 
L 345.299496 495.309483 
L 345.299496 493.435772 
L 348.009274 493.435772 
L 348.009274 491.384278 
L 350.719052 491.384278 
L 350.719052 491.27003 
L 353.428831 491.27003 
L 353.428831 493.278735 
L 356.138609 493.278735 
L 356.138609 494.075197 
L 358.848387 494.075197 
L 358.848387 495.760675 
L 361.558165 495.760675 
L 361.558165 501.889961 
L 364.267944 501.889961 
L 364.267944 504.660479 
L 366.977722 504.660479 
L 366.977722 503.089962 
L 369.6875 503.089962 
L 369.6875 500.165626 
L 372.397278 500.165626 
L 372.397278 499.47664 
L 375.107056 499.47664 
L 375.107056 500.374446 
L 377.816835 500.374446 
L 377.816835 502.669061 
L 380.526613 502.669061 
L 380.526613 505.236765 
L 383.236391 505.236765 
L 383.236391 508.87901 
L 385.946169 508.87901 
L 385.946169 512.421308 
L 388.655948 512.421308 
L 388.655948 515.014564 
L 391.365726 515.014564 
L 391.365726 521.47445 
L 394.075504 521.47445 
L 394.075504 525.489553 
L 396.785282 525.489553 
L 396.785282 530.40052 
L 399.49506 530.40052 
L 399.49506 534.234929 
L 402.204839 534.234929 
L 402.204839 536.378214 
L 404.914617 536.378214 
L 404.914617 535.035619 
L 407.624395 535.035619 
L 407.624395 531.772241 
L 410.334173 531.772241 
L 410.334173 525.643915 
L 413.043952 525.643915 
L 413.043952 518.949282 
L 415.75373 518.949282 
L 415.75373 509.330576 
L 418.463508 509.330576 
L 418.463508 495.200751 
L 421.173286 495.200751 
L 421.173286 484.398017 
L 423.883065 484.398017 
L 423.883065 475.748777 
L 426.592843 475.748777 
L 426.592843 466.789115 
L 429.302621 466.789115 
L 429.302621 459.812425 
L 432.012399 459.812425 
L 432.012399 454.280236 
L 434.722177 454.280236 
L 434.722177 451.482441 
L 437.431956 451.482441 
L 437.431956 452.980739 
L 440.141734 452.980739 
L 440.141734 455.749104 
L 442.851512 455.749104 
L 442.851512 462.718699 
L 445.56129 462.718699 
L 445.56129 469.770622 
L 448.271069 469.770622 
L 448.271069 476.508902 
L 450.980847 476.508902 
L 450.980847 483.544861 
L 453.690625 483.544861 
L 453.690625 489.748575 
L 456.400403 489.748575 
L 456.400403 491.046328 
L 459.110181 491.046328 
L 459.110181 493.575724 
L 461.81996 493.575724 
L 461.81996 498.03639 
L 464.529738 498.03639 
L 464.529738 498.830165 
L 467.239516 498.830165 
L 467.239516 499.843805 
L 469.949294 499.843805 
L 469.949294 500.604159 
L 472.659073 500.604159 
L 472.659073 498.644831 
L 475.368851 498.644831 
L 475.368851 492.823264 
L 478.078629 492.823264 
L 478.078629 480.282337 
L 480.788407 480.282337 
L 480.788407 470.138056 
L 483.498185 470.138056 
L 483.498185 459.803563 
L 486.207964 459.803563 
L 486.207964 450.429776 
L 488.917742 450.429776 
L 488.917742 445.467045 
L 491.62752 445.467045 
L 491.62752 446.288221 
L 494.337298 446.288221 
L 494.337298 449.241075 
L 497.047077 449.241075 
L 497.047077 453.847861 
L 499.756855 453.847861 
L 499.756855 463.55184 
L 502.466633 463.55184 
L 502.466633 471.542595 
L 505.176411 471.542595 
L 505.176411 478.410681 
L 507.88619 478.410681 
L 507.88619 485.062413 
L 510.595968 485.062413 
L 510.595968 486.322002 
L 513.305746 486.322002 
L 513.305746 489.226855 
L 516.015524 489.226855 
L 516.015524 493.870079 
L 518.725302 493.870079 
L 518.725302 500.669888 
L 521.435081 500.669888 
L 521.435081 508.50283 
L 524.144859 508.50283 
L 524.144859 513.487808 
L 526.854637 513.487808 
L 526.854637 518.29409 
L 529.564415 518.29409 
L 529.564415 525.505638 
L 532.274194 525.505638 
L 532.274194 529.995276 
L 534.983972 529.995276 
L 534.983972 530.366599 
L 537.69375 530.366599 
L 537.69375 531.483635 
L 540.403528 531.483635 
L 540.403528 532.365953 
L 543.113306 532.365953 
L 543.113306 531.75129 
L 545.823085 531.75129 
L 545.823085 532.236306 
L 548.532863 532.236306 
L 548.532863 532.347936 
L 551.242641 532.347936 
L 551.242641 533.3055 
L 553.952419 533.3055 
L 553.952419 535.84429 
L 556.662198 535.84429 
L 556.662198 537.374498 
L 559.371976 537.374498 
L 559.371976 539.693004 
L 562.081754 539.693004 
L 562.081754 541.50023 
L 564.791532 541.50023 
L 564.791532 543.307955 
L 583.75998 543.307955 
L 583.75998 542.741286 
L 586.469758 542.741286 
L 586.469758 540.860111 
L 589.179536 540.860111 
L 589.179536 539.54776 
L 591.889315 539.54776 
L 591.889315 539.131445 
L 594.599093 539.131445 
L 594.599093 539.284496 
L 597.308871 539.284496 
L 597.308871 540.164441 
L 600.018649 540.164441 
L 600.018649 541.184829 
L 602.728427 541.184829 
L 602.728427 542.342069 
L 605.438206 542.342069 
L 605.438206 543.307955 
L 627.116431 543.307955 
L 627.116431 542.328771 
L 629.82621 542.328771 
L 629.82621 541.24532 
L 632.535988 541.24532 
L 632.535988 540.5147 
L 635.245766 540.5147 
L 635.245766 540.324624 
L 637.955544 540.324624 
L 637.955544 540.652292 
L 640.665323 540.652292 
L 640.665323 541.328308 
L 643.375101 541.328308 
L 643.375101 542.240891 
L 646.084879 542.240891 
L 646.084879 543.256576 
L 670.472883 543.173624 
L 670.472883 542.361538 
L 673.182661 542.361538 
L 673.182661 541.745572 
L 675.89244 541.745572 
L 675.89244 541.401475 
L 681.311996 541.395403 
L 681.311996 541.705503 
L 684.021774 541.705503 
L 684.021774 542.257207 
L 686.731552 542.257207 
L 686.731552 542.938748 
L 689.441331 542.938748 
L 689.441331 543.307955 
L 705.7 543.307955 
L 705.7 543.307955 
" style="fill:none;opacity:0.7;stroke:#000000;stroke-linecap:square;stroke-width:1.5;"/>
   </g>
   <g id="patch_18">
    <path d="M 33.675 548.2 
L 33.675 440.575 
" style="fill:none;stroke:#000000;stroke-linecap:square;stroke-linejoin:miter;stroke-width:0.8;"/>
   </g>
   <g id="patch_19">
    <path d="M 705.7 548.2 
L 705.7 440.575 
" style="fill:none;stroke:#000000;stroke-linecap:square;stroke-linejoin:miter;stroke-width:0.8;"/>
   </g>
   <g id="patch_20">
    <path d="M 33.675 548.2 
L 705.7 548.2 
" style="fill:none;stroke:#000000;stroke-linecap:square;stroke-linejoin:miter;stroke-width:0.8;"/>
   </g>
   <g id="patch_21">
    <path d="M 33.675 440.575 
L 705.7 440.575 
" style="fill:none;stroke:#000000;stroke-linecap:square;stroke-linejoin:miter;stroke-width:0.8;"/>
   </g>
   <g id="text_29">
    <!-- Deconvolved signal -->
    <defs>
     <path d="M 19.671875 64.796875 
L 19.671875 8.109375 
L 31.59375 8.109375 
Q 46.6875 8.109375 53.6875 14.9375 
Q 60.6875 21.78125 60.6875 36.53125 
Q 60.6875 51.171875 53.6875 57.984375 
Q 46.6875 64.796875 31.59375 64.796875 
z
M 9.8125 72.90625 
L 30.078125 72.90625 
Q 51.265625 72.90625 61.171875 64.09375 
Q 71.09375 55.28125 71.09375 36.53125 
Q 71.09375 17.671875 61.125 8.828125 
Q 51.171875 0 30.078125 0 
L 9.8125 0 
z
" id="DejaVuSans-44"/>
     <path d="M 48.78125 52.59375 
L 48.78125 44.1875 
Q 44.96875 46.296875 41.140625 47.34375 
Q 37.3125 48.390625 33.40625 48.390625 
Q 24.65625 48.390625 19.8125 42.84375 
Q 14.984375 37.3125 14.984375 27.296875 
Q 14.984375 17.28125 19.8125 11.734375 
Q 24.65625 6.203125 33.40625 6.203125 
Q 37.3125 6.203125 41.140625 7.25 
Q 44.96875 8.296875 48.78125 10.40625 
L 48.78125 2.09375 
Q 45.015625 0.34375 40.984375 -0.53125 
Q 36.96875 -1.421875 32.421875 -1.421875 
Q 20.0625 -1.421875 12.78125 6.34375 
Q 5.515625 14.109375 5.515625 27.296875 
Q 5.515625 40.671875 12.859375 48.328125 
Q 20.21875 56 33.015625 56 
Q 37.15625 56 41.109375 55.140625 
Q 45.0625 54.296875 48.78125 52.59375 
z
" id="DejaVuSans-63"/>
    </defs>
    <g transform="translate(311.006563 434.575)scale(0.12 -0.12)">
     <use xlink:href="#DejaVuSans-44"/>
     <use x="77.001953" xlink:href="#DejaVuSans-65"/>
     <use x="138.525391" xlink:href="#DejaVuSans-63"/>
     <use x="193.505859" xlink:href="#DejaVuSans-6f"/>
     <use x="254.6875" xlink:href="#DejaVuSans-6e"/>
     <use x="318.066406" xlink:href="#DejaVuSans-76"/>
     <use x="377.246094" xlink:href="#DejaVuSans-6f"/>
     <use x="438.427734" xlink:href="#DejaVuSans-6c"/>
     <use x="466.210938" xlink:href="#DejaVuSans-76"/>
     <use x="525.390625" xlink:href="#DejaVuSans-65"/>
     <use x="586.914062" xlink:href="#DejaVuSans-64"/>
     <use x="650.390625" xlink:href="#DejaVuSans-20"/>
     <use x="682.177734" xlink:href="#DejaVuSans-73"/>
     <use x="734.277344" xlink:href="#DejaVuSans-69"/>
     <use x="762.060547" xlink:href="#DejaVuSans-67"/>
     <use x="825.537109" xlink:href="#DejaVuSans-6e"/>
     <use x="888.916016" xlink:href="#DejaVuSans-61"/>
     <use x="950.195312" xlink:href="#DejaVuSans-6c"/>
    </g>
   </g>
  </g>
 </g>
 <defs>
  <clipPath id="p9220c0c774">
   <rect height="107.625" width="672.025" x="33.675" y="26.8"/>
  </clipPath>
  <clipPath id="p90029beb4e">
   <rect height="107.625" width="672.025" x="33.675" y="164.725"/>
  </clipPath>
  <clipPath id="pcc0b3bfe76">
   <rect height="107.625" width="672.025" x="33.675" y="302.65"/>
  </clipPath>
  <clipPath id="pe4db8f438e">
   <rect height="107.625" width="672.025" x="33.675" y="440.575"/>
  </clipPath>
 </defs>
</svg>
