<?xml version="1.0" encoding="utf-8" standalone="no"?>
<!DOCTYPE svg PUBLIC "-//W3C//DTD SVG 1.1//EN"
  "http://www.w3.org/Graphics/SVG/1.1/DTD/svg11.dtd">
<!-- Created with matplotlib (http://matplotlib.org/) -->
<svg height="288pt" version="1.1" viewBox="0 0 432 288" width="432pt" xmlns="http://www.w3.org/2000/svg" xmlns:xlink="http://www.w3.org/1999/xlink">
 <defs>
  <style type="text/css">
*{stroke-linecap:butt;stroke-linejoin:round;}
  </style>
 </defs>
 <g id="figure_1">
  <g id="patch_1">
   <path d="M 0 288 
L 432 288 
L 432 0 
L 0 0 
z
" style="fill:#ffffff;"/>
  </g>
  <g id="axes_1">
   <g id="patch_2">
    <path d="M 54 252 
L 388.8 252 
L 388.8 34.56 
L 54 34.56 
z
" style="fill:#ffffff;"/>
   </g>
   <g id="matplotlib.axis_1">
    <g id="xtick_1">
     <g id="line2d_1">
      <defs>
       <path d="M 0 0 
L 0 3.5 
" id="m20e4153f80" style="stroke:#000000;stroke-width:0.8;"/>
      </defs>
      <g>
       <use style="stroke:#000000;stroke-width:0.8;" x="61.396301" xlink:href="#m20e4153f80" y="252"/>
      </g>
     </g>
     <g id="text_1">
      <!-- 10 -->
      <defs>
       <path d="M 12.40625 8.296875 
L 28.515625 8.296875 
L 28.515625 63.921875 
L 10.984375 60.40625 
L 10.984375 69.390625 
L 28.421875 72.90625 
L 38.28125 72.90625 
L 38.28125 8.296875 
L 54.390625 8.296875 
L 54.390625 0 
L 12.40625 0 
z
" id="DejaVuSans-31"/>
       <path d="M 31.78125 66.40625 
Q 24.171875 66.40625 20.328125 58.90625 
Q 16.5 51.421875 16.5 36.375 
Q 16.5 21.390625 20.328125 13.890625 
Q 24.171875 6.390625 31.78125 6.390625 
Q 39.453125 6.390625 43.28125 13.890625 
Q 47.125 21.390625 47.125 36.375 
Q 47.125 51.421875 43.28125 58.90625 
Q 39.453125 66.40625 31.78125 66.40625 
z
M 31.78125 74.21875 
Q 44.046875 74.21875 50.515625 64.515625 
Q 56.984375 54.828125 56.984375 36.375 
Q 56.984375 17.96875 50.515625 8.265625 
Q 44.046875 -1.421875 31.78125 -1.421875 
Q 19.53125 -1.421875 13.0625 8.265625 
Q 6.59375 17.96875 6.59375 36.375 
Q 6.59375 54.828125 13.0625 64.515625 
Q 19.53125 74.21875 31.78125 74.21875 
z
" id="DejaVuSans-30"/>
      </defs>
      <g transform="translate(55.033801 266.598437)scale(0.1 -0.1)">
       <use xlink:href="#DejaVuSans-31"/>
       <use x="63.623047" xlink:href="#DejaVuSans-30"/>
      </g>
     </g>
    </g>
    <g id="xtick_2">
     <g id="line2d_2">
      <g>
       <use style="stroke:#000000;stroke-width:0.8;" x="100.467239" xlink:href="#m20e4153f80" y="252"/>
      </g>
     </g>
     <g id="text_2">
      <!-- 20 -->
      <defs>
       <path d="M 19.1875 8.296875 
L 53.609375 8.296875 
L 53.609375 0 
L 7.328125 0 
L 7.328125 8.296875 
Q 12.9375 14.109375 22.625 23.890625 
Q 32.328125 33.6875 34.8125 36.53125 
Q 39.546875 41.84375 41.421875 45.53125 
Q 43.3125 49.21875 43.3125 52.78125 
Q 43.3125 58.59375 39.234375 62.25 
Q 35.15625 65.921875 28.609375 65.921875 
Q 23.96875 65.921875 18.8125 64.3125 
Q 13.671875 62.703125 7.8125 59.421875 
L 7.8125 69.390625 
Q 13.765625 71.78125 18.9375 73 
Q 24.125 74.21875 28.421875 74.21875 
Q 39.75 74.21875 46.484375 68.546875 
Q 53.21875 62.890625 53.21875 53.421875 
Q 53.21875 48.921875 51.53125 44.890625 
Q 49.859375 40.875 45.40625 35.40625 
Q 44.1875 33.984375 37.640625 27.21875 
Q 31.109375 20.453125 19.1875 8.296875 
z
" id="DejaVuSans-32"/>
      </defs>
      <g transform="translate(94.104739 266.598437)scale(0.1 -0.1)">
       <use xlink:href="#DejaVuSans-32"/>
       <use x="63.623047" xlink:href="#DejaVuSans-30"/>
      </g>
     </g>
    </g>
    <g id="xtick_3">
     <g id="line2d_3">
      <g>
       <use style="stroke:#000000;stroke-width:0.8;" x="139.538177" xlink:href="#m20e4153f80" y="252"/>
      </g>
     </g>
     <g id="text_3">
      <!-- 30 -->
      <defs>
       <path d="M 40.578125 39.3125 
Q 47.65625 37.796875 51.625 33 
Q 55.609375 28.21875 55.609375 21.1875 
Q 55.609375 10.40625 48.1875 4.484375 
Q 40.765625 -1.421875 27.09375 -1.421875 
Q 22.515625 -1.421875 17.65625 -0.515625 
Q 12.796875 0.390625 7.625 2.203125 
L 7.625 11.71875 
Q 11.71875 9.328125 16.59375 8.109375 
Q 21.484375 6.890625 26.8125 6.890625 
Q 36.078125 6.890625 40.9375 10.546875 
Q 45.796875 14.203125 45.796875 21.1875 
Q 45.796875 27.640625 41.28125 31.265625 
Q 36.765625 34.90625 28.71875 34.90625 
L 20.21875 34.90625 
L 20.21875 43.015625 
L 29.109375 43.015625 
Q 36.375 43.015625 40.234375 45.921875 
Q 44.09375 48.828125 44.09375 54.296875 
Q 44.09375 59.90625 40.109375 62.90625 
Q 36.140625 65.921875 28.71875 65.921875 
Q 24.65625 65.921875 20.015625 65.03125 
Q 15.375 64.15625 9.8125 62.3125 
L 9.8125 71.09375 
Q 15.4375 72.65625 20.34375 73.4375 
Q 25.25 74.21875 29.59375 74.21875 
Q 40.828125 74.21875 47.359375 69.109375 
Q 53.90625 64.015625 53.90625 55.328125 
Q 53.90625 49.265625 50.4375 45.09375 
Q 46.96875 40.921875 40.578125 39.3125 
z
" id="DejaVuSans-33"/>
      </defs>
      <g transform="translate(133.175677 266.598437)scale(0.1 -0.1)">
       <use xlink:href="#DejaVuSans-33"/>
       <use x="63.623047" xlink:href="#DejaVuSans-30"/>
      </g>
     </g>
    </g>
    <g id="xtick_4">
     <g id="line2d_4">
      <g>
       <use style="stroke:#000000;stroke-width:0.8;" x="178.609115" xlink:href="#m20e4153f80" y="252"/>
      </g>
     </g>
     <g id="text_4">
      <!-- 40 -->
      <defs>
       <path d="M 37.796875 64.3125 
L 12.890625 25.390625 
L 37.796875 25.390625 
z
M 35.203125 72.90625 
L 47.609375 72.90625 
L 47.609375 25.390625 
L 58.015625 25.390625 
L 58.015625 17.1875 
L 47.609375 17.1875 
L 47.609375 0 
L 37.796875 0 
L 37.796875 17.1875 
L 4.890625 17.1875 
L 4.890625 26.703125 
z
" id="DejaVuSans-34"/>
      </defs>
      <g transform="translate(172.246615 266.598437)scale(0.1 -0.1)">
       <use xlink:href="#DejaVuSans-34"/>
       <use x="63.623047" xlink:href="#DejaVuSans-30"/>
      </g>
     </g>
    </g>
    <g id="xtick_5">
     <g id="line2d_5">
      <g>
       <use style="stroke:#000000;stroke-width:0.8;" x="217.680053" xlink:href="#m20e4153f80" y="252"/>
      </g>
     </g>
     <g id="text_5">
      <!-- 50 -->
      <defs>
       <path d="M 10.796875 72.90625 
L 49.515625 72.90625 
L 49.515625 64.59375 
L 19.828125 64.59375 
L 19.828125 46.734375 
Q 21.96875 47.46875 24.109375 47.828125 
Q 26.265625 48.1875 28.421875 48.1875 
Q 40.625 48.1875 47.75 41.5 
Q 54.890625 34.8125 54.890625 23.390625 
Q 54.890625 11.625 47.5625 5.09375 
Q 40.234375 -1.421875 26.90625 -1.421875 
Q 22.3125 -1.421875 17.546875 -0.640625 
Q 12.796875 0.140625 7.71875 1.703125 
L 7.71875 11.625 
Q 12.109375 9.234375 16.796875 8.0625 
Q 21.484375 6.890625 26.703125 6.890625 
Q 35.15625 6.890625 40.078125 11.328125 
Q 45.015625 15.765625 45.015625 23.390625 
Q 45.015625 31 40.078125 35.4375 
Q 35.15625 39.890625 26.703125 39.890625 
Q 22.75 39.890625 18.8125 39.015625 
Q 14.890625 38.140625 10.796875 36.28125 
z
" id="DejaVuSans-35"/>
      </defs>
      <g transform="translate(211.317553 266.598437)scale(0.1 -0.1)">
       <use xlink:href="#DejaVuSans-35"/>
       <use x="63.623047" xlink:href="#DejaVuSans-30"/>
      </g>
     </g>
    </g>
    <g id="xtick_6">
     <g id="line2d_6">
      <g>
       <use style="stroke:#000000;stroke-width:0.8;" x="256.750991" xlink:href="#m20e4153f80" y="252"/>
      </g>
     </g>
     <g id="text_6">
      <!-- 60 -->
      <defs>
       <path d="M 33.015625 40.375 
Q 26.375 40.375 22.484375 35.828125 
Q 18.609375 31.296875 18.609375 23.390625 
Q 18.609375 15.53125 22.484375 10.953125 
Q 26.375 6.390625 33.015625 6.390625 
Q 39.65625 6.390625 43.53125 10.953125 
Q 47.40625 15.53125 47.40625 23.390625 
Q 47.40625 31.296875 43.53125 35.828125 
Q 39.65625 40.375 33.015625 40.375 
z
M 52.59375 71.296875 
L 52.59375 62.3125 
Q 48.875 64.0625 45.09375 64.984375 
Q 41.3125 65.921875 37.59375 65.921875 
Q 27.828125 65.921875 22.671875 59.328125 
Q 17.53125 52.734375 16.796875 39.40625 
Q 19.671875 43.65625 24.015625 45.921875 
Q 28.375 48.1875 33.59375 48.1875 
Q 44.578125 48.1875 50.953125 41.515625 
Q 57.328125 34.859375 57.328125 23.390625 
Q 57.328125 12.15625 50.6875 5.359375 
Q 44.046875 -1.421875 33.015625 -1.421875 
Q 20.359375 -1.421875 13.671875 8.265625 
Q 6.984375 17.96875 6.984375 36.375 
Q 6.984375 53.65625 15.1875 63.9375 
Q 23.390625 74.21875 37.203125 74.21875 
Q 40.921875 74.21875 44.703125 73.484375 
Q 48.484375 72.75 52.59375 71.296875 
z
" id="DejaVuSans-36"/>
      </defs>
      <g transform="translate(250.388491 266.598437)scale(0.1 -0.1)">
       <use xlink:href="#DejaVuSans-36"/>
       <use x="63.623047" xlink:href="#DejaVuSans-30"/>
      </g>
     </g>
    </g>
    <g id="xtick_7">
     <g id="line2d_7">
      <g>
       <use style="stroke:#000000;stroke-width:0.8;" x="295.821929" xlink:href="#m20e4153f80" y="252"/>
      </g>
     </g>
     <g id="text_7">
      <!-- 70 -->
      <defs>
       <path d="M 8.203125 72.90625 
L 55.078125 72.90625 
L 55.078125 68.703125 
L 28.609375 0 
L 18.3125 0 
L 43.21875 64.59375 
L 8.203125 64.59375 
z
" id="DejaVuSans-37"/>
      </defs>
      <g transform="translate(289.459429 266.598437)scale(0.1 -0.1)">
       <use xlink:href="#DejaVuSans-37"/>
       <use x="63.623047" xlink:href="#DejaVuSans-30"/>
      </g>
     </g>
    </g>
    <g id="xtick_8">
     <g id="line2d_8">
      <g>
       <use style="stroke:#000000;stroke-width:0.8;" x="334.892867" xlink:href="#m20e4153f80" y="252"/>
      </g>
     </g>
     <g id="text_8">
      <!-- 80 -->
      <defs>
       <path d="M 31.78125 34.625 
Q 24.75 34.625 20.71875 30.859375 
Q 16.703125 27.09375 16.703125 20.515625 
Q 16.703125 13.921875 20.71875 10.15625 
Q 24.75 6.390625 31.78125 6.390625 
Q 38.8125 6.390625 42.859375 10.171875 
Q 46.921875 13.96875 46.921875 20.515625 
Q 46.921875 27.09375 42.890625 30.859375 
Q 38.875 34.625 31.78125 34.625 
z
M 21.921875 38.8125 
Q 15.578125 40.375 12.03125 44.71875 
Q 8.5 49.078125 8.5 55.328125 
Q 8.5 64.0625 14.71875 69.140625 
Q 20.953125 74.21875 31.78125 74.21875 
Q 42.671875 74.21875 48.875 69.140625 
Q 55.078125 64.0625 55.078125 55.328125 
Q 55.078125 49.078125 51.53125 44.71875 
Q 48 40.375 41.703125 38.8125 
Q 48.828125 37.15625 52.796875 32.3125 
Q 56.78125 27.484375 56.78125 20.515625 
Q 56.78125 9.90625 50.3125 4.234375 
Q 43.84375 -1.421875 31.78125 -1.421875 
Q 19.734375 -1.421875 13.25 4.234375 
Q 6.78125 9.90625 6.78125 20.515625 
Q 6.78125 27.484375 10.78125 32.3125 
Q 14.796875 37.15625 21.921875 38.8125 
z
M 18.3125 54.390625 
Q 18.3125 48.734375 21.84375 45.5625 
Q 25.390625 42.390625 31.78125 42.390625 
Q 38.140625 42.390625 41.71875 45.5625 
Q 45.3125 48.734375 45.3125 54.390625 
Q 45.3125 60.0625 41.71875 63.234375 
Q 38.140625 66.40625 31.78125 66.40625 
Q 25.390625 66.40625 21.84375 63.234375 
Q 18.3125 60.0625 18.3125 54.390625 
z
" id="DejaVuSans-38"/>
      </defs>
      <g transform="translate(328.530367 266.598437)scale(0.1 -0.1)">
       <use xlink:href="#DejaVuSans-38"/>
       <use x="63.623047" xlink:href="#DejaVuSans-30"/>
      </g>
     </g>
    </g>
    <g id="xtick_9">
     <g id="line2d_9">
      <g>
       <use style="stroke:#000000;stroke-width:0.8;" x="373.963805" xlink:href="#m20e4153f80" y="252"/>
      </g>
     </g>
     <g id="text_9">
      <!-- 90 -->
      <defs>
       <path d="M 10.984375 1.515625 
L 10.984375 10.5 
Q 14.703125 8.734375 18.5 7.8125 
Q 22.3125 6.890625 25.984375 6.890625 
Q 35.75 6.890625 40.890625 13.453125 
Q 46.046875 20.015625 46.78125 33.40625 
Q 43.953125 29.203125 39.59375 26.953125 
Q 35.25 24.703125 29.984375 24.703125 
Q 19.046875 24.703125 12.671875 31.3125 
Q 6.296875 37.9375 6.296875 49.421875 
Q 6.296875 60.640625 12.9375 67.421875 
Q 19.578125 74.21875 30.609375 74.21875 
Q 43.265625 74.21875 49.921875 64.515625 
Q 56.59375 54.828125 56.59375 36.375 
Q 56.59375 19.140625 48.40625 8.859375 
Q 40.234375 -1.421875 26.421875 -1.421875 
Q 22.703125 -1.421875 18.890625 -0.6875 
Q 15.09375 0.046875 10.984375 1.515625 
z
M 30.609375 32.421875 
Q 37.25 32.421875 41.125 36.953125 
Q 45.015625 41.5 45.015625 49.421875 
Q 45.015625 57.28125 41.125 61.84375 
Q 37.25 66.40625 30.609375 66.40625 
Q 23.96875 66.40625 20.09375 61.84375 
Q 16.21875 57.28125 16.21875 49.421875 
Q 16.21875 41.5 20.09375 36.953125 
Q 23.96875 32.421875 30.609375 32.421875 
z
" id="DejaVuSans-39"/>
      </defs>
      <g transform="translate(367.601305 266.598437)scale(0.1 -0.1)">
       <use xlink:href="#DejaVuSans-39"/>
       <use x="63.623047" xlink:href="#DejaVuSans-30"/>
      </g>
     </g>
    </g>
    <g id="text_10">
     <!-- Energy (keV) -->
     <defs>
      <path d="M 9.8125 72.90625 
L 55.90625 72.90625 
L 55.90625 64.59375 
L 19.671875 64.59375 
L 19.671875 43.015625 
L 54.390625 43.015625 
L 54.390625 34.71875 
L 19.671875 34.71875 
L 19.671875 8.296875 
L 56.78125 8.296875 
L 56.78125 0 
L 9.8125 0 
z
" id="DejaVuSans-45"/>
      <path d="M 54.890625 33.015625 
L 54.890625 0 
L 45.90625 0 
L 45.90625 32.71875 
Q 45.90625 40.484375 42.875 44.328125 
Q 39.84375 48.1875 33.796875 48.1875 
Q 26.515625 48.1875 22.3125 43.546875 
Q 18.109375 38.921875 18.109375 30.90625 
L 18.109375 0 
L 9.078125 0 
L 9.078125 54.6875 
L 18.109375 54.6875 
L 18.109375 46.1875 
Q 21.34375 51.125 25.703125 53.5625 
Q 30.078125 56 35.796875 56 
Q 45.21875 56 50.046875 50.171875 
Q 54.890625 44.34375 54.890625 33.015625 
z
" id="DejaVuSans-6e"/>
      <path d="M 56.203125 29.59375 
L 56.203125 25.203125 
L 14.890625 25.203125 
Q 15.484375 15.921875 20.484375 11.0625 
Q 25.484375 6.203125 34.421875 6.203125 
Q 39.59375 6.203125 44.453125 7.46875 
Q 49.3125 8.734375 54.109375 11.28125 
L 54.109375 2.78125 
Q 49.265625 0.734375 44.1875 -0.34375 
Q 39.109375 -1.421875 33.890625 -1.421875 
Q 20.796875 -1.421875 13.15625 6.1875 
Q 5.515625 13.8125 5.515625 26.8125 
Q 5.515625 40.234375 12.765625 48.109375 
Q 20.015625 56 32.328125 56 
Q 43.359375 56 49.78125 48.890625 
Q 56.203125 41.796875 56.203125 29.59375 
z
M 47.21875 32.234375 
Q 47.125 39.59375 43.09375 43.984375 
Q 39.0625 48.390625 32.421875 48.390625 
Q 24.90625 48.390625 20.390625 44.140625 
Q 15.875 39.890625 15.1875 32.171875 
z
" id="DejaVuSans-65"/>
      <path d="M 41.109375 46.296875 
Q 39.59375 47.171875 37.8125 47.578125 
Q 36.03125 48 33.890625 48 
Q 26.265625 48 22.1875 43.046875 
Q 18.109375 38.09375 18.109375 28.8125 
L 18.109375 0 
L 9.078125 0 
L 9.078125 54.6875 
L 18.109375 54.6875 
L 18.109375 46.1875 
Q 20.953125 51.171875 25.484375 53.578125 
Q 30.03125 56 36.53125 56 
Q 37.453125 56 38.578125 55.875 
Q 39.703125 55.765625 41.0625 55.515625 
z
" id="DejaVuSans-72"/>
      <path d="M 45.40625 27.984375 
Q 45.40625 37.75 41.375 43.109375 
Q 37.359375 48.484375 30.078125 48.484375 
Q 22.859375 48.484375 18.828125 43.109375 
Q 14.796875 37.75 14.796875 27.984375 
Q 14.796875 18.265625 18.828125 12.890625 
Q 22.859375 7.515625 30.078125 7.515625 
Q 37.359375 7.515625 41.375 12.890625 
Q 45.40625 18.265625 45.40625 27.984375 
z
M 54.390625 6.78125 
Q 54.390625 -7.171875 48.1875 -13.984375 
Q 42 -20.796875 29.203125 -20.796875 
Q 24.46875 -20.796875 20.265625 -20.09375 
Q 16.0625 -19.390625 12.109375 -17.921875 
L 12.109375 -9.1875 
Q 16.0625 -11.328125 19.921875 -12.34375 
Q 23.78125 -13.375 27.78125 -13.375 
Q 36.625 -13.375 41.015625 -8.765625 
Q 45.40625 -4.15625 45.40625 5.171875 
L 45.40625 9.625 
Q 42.625 4.78125 38.28125 2.390625 
Q 33.9375 0 27.875 0 
Q 17.828125 0 11.671875 7.65625 
Q 5.515625 15.328125 5.515625 27.984375 
Q 5.515625 40.671875 11.671875 48.328125 
Q 17.828125 56 27.875 56 
Q 33.9375 56 38.28125 53.609375 
Q 42.625 51.21875 45.40625 46.390625 
L 45.40625 54.6875 
L 54.390625 54.6875 
z
" id="DejaVuSans-67"/>
      <path d="M 32.171875 -5.078125 
Q 28.375 -14.84375 24.75 -17.8125 
Q 21.140625 -20.796875 15.09375 -20.796875 
L 7.90625 -20.796875 
L 7.90625 -13.28125 
L 13.1875 -13.28125 
Q 16.890625 -13.28125 18.9375 -11.515625 
Q 21 -9.765625 23.484375 -3.21875 
L 25.09375 0.875 
L 2.984375 54.6875 
L 12.5 54.6875 
L 29.59375 11.921875 
L 46.6875 54.6875 
L 56.203125 54.6875 
z
" id="DejaVuSans-79"/>
      <path id="DejaVuSans-20"/>
      <path d="M 31 75.875 
Q 24.46875 64.65625 21.28125 53.65625 
Q 18.109375 42.671875 18.109375 31.390625 
Q 18.109375 20.125 21.3125 9.0625 
Q 24.515625 -2 31 -13.1875 
L 23.1875 -13.1875 
Q 15.875 -1.703125 12.234375 9.375 
Q 8.59375 20.453125 8.59375 31.390625 
Q 8.59375 42.28125 12.203125 53.3125 
Q 15.828125 64.359375 23.1875 75.875 
z
" id="DejaVuSans-28"/>
      <path d="M 9.078125 75.984375 
L 18.109375 75.984375 
L 18.109375 31.109375 
L 44.921875 54.6875 
L 56.390625 54.6875 
L 27.390625 29.109375 
L 57.625 0 
L 45.90625 0 
L 18.109375 26.703125 
L 18.109375 0 
L 9.078125 0 
z
" id="DejaVuSans-6b"/>
      <path d="M 28.609375 0 
L 0.78125 72.90625 
L 11.078125 72.90625 
L 34.1875 11.53125 
L 57.328125 72.90625 
L 67.578125 72.90625 
L 39.796875 0 
z
" id="DejaVuSans-56"/>
      <path d="M 8.015625 75.875 
L 15.828125 75.875 
Q 23.140625 64.359375 26.78125 53.3125 
Q 30.421875 42.28125 30.421875 31.390625 
Q 30.421875 20.453125 26.78125 9.375 
Q 23.140625 -1.703125 15.828125 -13.1875 
L 8.015625 -13.1875 
Q 14.5 -2 17.703125 9.0625 
Q 20.90625 20.125 20.90625 31.390625 
Q 20.90625 42.671875 17.703125 53.65625 
Q 14.5 64.65625 8.015625 75.875 
z
" id="DejaVuSans-29"/>
     </defs>
     <g transform="translate(188.926562 280.276563)scale(0.1 -0.1)">
      <use xlink:href="#DejaVuSans-45"/>
      <use x="63.183594" xlink:href="#DejaVuSans-6e"/>
      <use x="126.5625" xlink:href="#DejaVuSans-65"/>
      <use x="188.085938" xlink:href="#DejaVuSans-72"/>
      <use x="229.183594" xlink:href="#DejaVuSans-67"/>
      <use x="292.660156" xlink:href="#DejaVuSans-79"/>
      <use x="351.839844" xlink:href="#DejaVuSans-20"/>
      <use x="383.626953" xlink:href="#DejaVuSans-28"/>
      <use x="422.640625" xlink:href="#DejaVuSans-6b"/>
      <use x="480.503906" xlink:href="#DejaVuSans-65"/>
      <use x="542.027344" xlink:href="#DejaVuSans-56"/>
      <use x="610.435547" xlink:href="#DejaVuSans-29"/>
     </g>
    </g>
   </g>
   <g id="matplotlib.axis_2">
    <g id="ytick_1">
     <g id="line2d_10">
      <defs>
       <path d="M 0 0 
L -3.5 0 
" id="mb1c681d841" style="stroke:#000000;stroke-width:0.8;"/>
      </defs>
      <g>
       <use style="stroke:#000000;stroke-width:0.8;" x="54" xlink:href="#mb1c681d841" y="242.116364"/>
      </g>
     </g>
     <g id="text_11">
      <!-- 0 -->
      <g transform="translate(40.6375 245.915582)scale(0.1 -0.1)">
       <use xlink:href="#DejaVuSans-30"/>
      </g>
     </g>
    </g>
    <g id="ytick_2">
     <g id="line2d_11">
      <g>
       <use style="stroke:#000000;stroke-width:0.8;" x="54" xlink:href="#mb1c681d841" y="212.056642"/>
      </g>
     </g>
     <g id="text_12">
      <!-- 250 -->
      <g transform="translate(27.9125 215.855861)scale(0.1 -0.1)">
       <use xlink:href="#DejaVuSans-32"/>
       <use x="63.623047" xlink:href="#DejaVuSans-35"/>
       <use x="127.246094" xlink:href="#DejaVuSans-30"/>
      </g>
     </g>
    </g>
    <g id="ytick_3">
     <g id="line2d_12">
      <g>
       <use style="stroke:#000000;stroke-width:0.8;" x="54" xlink:href="#mb1c681d841" y="181.996921"/>
      </g>
     </g>
     <g id="text_13">
      <!-- 500 -->
      <g transform="translate(27.9125 185.79614)scale(0.1 -0.1)">
       <use xlink:href="#DejaVuSans-35"/>
       <use x="63.623047" xlink:href="#DejaVuSans-30"/>
       <use x="127.246094" xlink:href="#DejaVuSans-30"/>
      </g>
     </g>
    </g>
    <g id="ytick_4">
     <g id="line2d_13">
      <g>
       <use style="stroke:#000000;stroke-width:0.8;" x="54" xlink:href="#mb1c681d841" y="151.9372"/>
      </g>
     </g>
     <g id="text_14">
      <!-- 750 -->
      <g transform="translate(27.9125 155.736418)scale(0.1 -0.1)">
       <use xlink:href="#DejaVuSans-37"/>
       <use x="63.623047" xlink:href="#DejaVuSans-35"/>
       <use x="127.246094" xlink:href="#DejaVuSans-30"/>
      </g>
     </g>
    </g>
    <g id="ytick_5">
     <g id="line2d_14">
      <g>
       <use style="stroke:#000000;stroke-width:0.8;" x="54" xlink:href="#mb1c681d841" y="121.877478"/>
      </g>
     </g>
     <g id="text_15">
      <!-- 1000 -->
      <g transform="translate(21.55 125.676697)scale(0.1 -0.1)">
       <use xlink:href="#DejaVuSans-31"/>
       <use x="63.623047" xlink:href="#DejaVuSans-30"/>
       <use x="127.246094" xlink:href="#DejaVuSans-30"/>
       <use x="190.869141" xlink:href="#DejaVuSans-30"/>
      </g>
     </g>
    </g>
    <g id="ytick_6">
     <g id="line2d_15">
      <g>
       <use style="stroke:#000000;stroke-width:0.8;" x="54" xlink:href="#mb1c681d841" y="91.817757"/>
      </g>
     </g>
     <g id="text_16">
      <!-- 1250 -->
      <g transform="translate(21.55 95.616976)scale(0.1 -0.1)">
       <use xlink:href="#DejaVuSans-31"/>
       <use x="63.623047" xlink:href="#DejaVuSans-32"/>
       <use x="127.246094" xlink:href="#DejaVuSans-35"/>
       <use x="190.869141" xlink:href="#DejaVuSans-30"/>
      </g>
     </g>
    </g>
    <g id="ytick_7">
     <g id="line2d_16">
      <g>
       <use style="stroke:#000000;stroke-width:0.8;" x="54" xlink:href="#mb1c681d841" y="61.758036"/>
      </g>
     </g>
     <g id="text_17">
      <!-- 1500 -->
      <g transform="translate(21.55 65.557255)scale(0.1 -0.1)">
       <use xlink:href="#DejaVuSans-31"/>
       <use x="63.623047" xlink:href="#DejaVuSans-35"/>
       <use x="127.246094" xlink:href="#DejaVuSans-30"/>
       <use x="190.869141" xlink:href="#DejaVuSans-30"/>
      </g>
     </g>
    </g>
    <g id="text_18">
     <!-- Counts / 0.42 keV -->
     <defs>
      <path d="M 64.40625 67.28125 
L 64.40625 56.890625 
Q 59.421875 61.53125 53.78125 63.8125 
Q 48.140625 66.109375 41.796875 66.109375 
Q 29.296875 66.109375 22.65625 58.46875 
Q 16.015625 50.828125 16.015625 36.375 
Q 16.015625 21.96875 22.65625 14.328125 
Q 29.296875 6.6875 41.796875 6.6875 
Q 48.140625 6.6875 53.78125 8.984375 
Q 59.421875 11.28125 64.40625 15.921875 
L 64.40625 5.609375 
Q 59.234375 2.09375 53.4375 0.328125 
Q 47.65625 -1.421875 41.21875 -1.421875 
Q 24.65625 -1.421875 15.125 8.703125 
Q 5.609375 18.84375 5.609375 36.375 
Q 5.609375 53.953125 15.125 64.078125 
Q 24.65625 74.21875 41.21875 74.21875 
Q 47.75 74.21875 53.53125 72.484375 
Q 59.328125 70.75 64.40625 67.28125 
z
" id="DejaVuSans-43"/>
      <path d="M 30.609375 48.390625 
Q 23.390625 48.390625 19.1875 42.75 
Q 14.984375 37.109375 14.984375 27.296875 
Q 14.984375 17.484375 19.15625 11.84375 
Q 23.34375 6.203125 30.609375 6.203125 
Q 37.796875 6.203125 41.984375 11.859375 
Q 46.1875 17.53125 46.1875 27.296875 
Q 46.1875 37.015625 41.984375 42.703125 
Q 37.796875 48.390625 30.609375 48.390625 
z
M 30.609375 56 
Q 42.328125 56 49.015625 48.375 
Q 55.71875 40.765625 55.71875 27.296875 
Q 55.71875 13.875 49.015625 6.21875 
Q 42.328125 -1.421875 30.609375 -1.421875 
Q 18.84375 -1.421875 12.171875 6.21875 
Q 5.515625 13.875 5.515625 27.296875 
Q 5.515625 40.765625 12.171875 48.375 
Q 18.84375 56 30.609375 56 
z
" id="DejaVuSans-6f"/>
      <path d="M 8.5 21.578125 
L 8.5 54.6875 
L 17.484375 54.6875 
L 17.484375 21.921875 
Q 17.484375 14.15625 20.5 10.265625 
Q 23.53125 6.390625 29.59375 6.390625 
Q 36.859375 6.390625 41.078125 11.03125 
Q 45.3125 15.671875 45.3125 23.6875 
L 45.3125 54.6875 
L 54.296875 54.6875 
L 54.296875 0 
L 45.3125 0 
L 45.3125 8.40625 
Q 42.046875 3.421875 37.71875 1 
Q 33.40625 -1.421875 27.6875 -1.421875 
Q 18.265625 -1.421875 13.375 4.4375 
Q 8.5 10.296875 8.5 21.578125 
z
M 31.109375 56 
z
" id="DejaVuSans-75"/>
      <path d="M 18.3125 70.21875 
L 18.3125 54.6875 
L 36.8125 54.6875 
L 36.8125 47.703125 
L 18.3125 47.703125 
L 18.3125 18.015625 
Q 18.3125 11.328125 20.140625 9.421875 
Q 21.96875 7.515625 27.59375 7.515625 
L 36.8125 7.515625 
L 36.8125 0 
L 27.59375 0 
Q 17.1875 0 13.234375 3.875 
Q 9.28125 7.765625 9.28125 18.015625 
L 9.28125 47.703125 
L 2.6875 47.703125 
L 2.6875 54.6875 
L 9.28125 54.6875 
L 9.28125 70.21875 
z
" id="DejaVuSans-74"/>
      <path d="M 44.28125 53.078125 
L 44.28125 44.578125 
Q 40.484375 46.53125 36.375 47.5 
Q 32.28125 48.484375 27.875 48.484375 
Q 21.1875 48.484375 17.84375 46.4375 
Q 14.5 44.390625 14.5 40.28125 
Q 14.5 37.15625 16.890625 35.375 
Q 19.28125 33.59375 26.515625 31.984375 
L 29.59375 31.296875 
Q 39.15625 29.25 43.1875 25.515625 
Q 47.21875 21.78125 47.21875 15.09375 
Q 47.21875 7.46875 41.1875 3.015625 
Q 35.15625 -1.421875 24.609375 -1.421875 
Q 20.21875 -1.421875 15.453125 -0.5625 
Q 10.6875 0.296875 5.421875 2 
L 5.421875 11.28125 
Q 10.40625 8.6875 15.234375 7.390625 
Q 20.0625 6.109375 24.8125 6.109375 
Q 31.15625 6.109375 34.5625 8.28125 
Q 37.984375 10.453125 37.984375 14.40625 
Q 37.984375 18.0625 35.515625 20.015625 
Q 33.0625 21.96875 24.703125 23.78125 
L 21.578125 24.515625 
Q 13.234375 26.265625 9.515625 29.90625 
Q 5.8125 33.546875 5.8125 39.890625 
Q 5.8125 47.609375 11.28125 51.796875 
Q 16.75 56 26.8125 56 
Q 31.78125 56 36.171875 55.265625 
Q 40.578125 54.546875 44.28125 53.078125 
z
" id="DejaVuSans-73"/>
      <path d="M 25.390625 72.90625 
L 33.6875 72.90625 
L 8.296875 -9.28125 
L 0 -9.28125 
z
" id="DejaVuSans-2f"/>
      <path d="M 10.6875 12.40625 
L 21 12.40625 
L 21 0 
L 10.6875 0 
z
" id="DejaVuSans-2e"/>
     </defs>
     <g transform="translate(15.470312 187.707344)rotate(-90)scale(0.1 -0.1)">
      <use xlink:href="#DejaVuSans-43"/>
      <use x="69.824219" xlink:href="#DejaVuSans-6f"/>
      <use x="131.005859" xlink:href="#DejaVuSans-75"/>
      <use x="194.384766" xlink:href="#DejaVuSans-6e"/>
      <use x="257.763672" xlink:href="#DejaVuSans-74"/>
      <use x="296.972656" xlink:href="#DejaVuSans-73"/>
      <use x="349.072266" xlink:href="#DejaVuSans-20"/>
      <use x="380.859375" xlink:href="#DejaVuSans-2f"/>
      <use x="414.550781" xlink:href="#DejaVuSans-20"/>
      <use x="446.337891" xlink:href="#DejaVuSans-30"/>
      <use x="509.960938" xlink:href="#DejaVuSans-2e"/>
      <use x="541.748047" xlink:href="#DejaVuSans-34"/>
      <use x="605.371094" xlink:href="#DejaVuSans-32"/>
      <use x="668.994141" xlink:href="#DejaVuSans-20"/>
      <use x="700.78125" xlink:href="#DejaVuSans-6b"/>
      <use x="758.644531" xlink:href="#DejaVuSans-65"/>
      <use x="820.167969" xlink:href="#DejaVuSans-56"/>
     </g>
    </g>
   </g>
   <g id="line2d_17">
    <path clip-path="url(#peebb07f15e)" d="M 69.218182 223.359098 
L 71.66287 223.359098 
L 71.66287 221.315036 
L 72.885214 221.315036 
L 72.885214 224.801964 
L 74.107558 224.801964 
L 74.107558 224.441248 
L 75.329901 224.441248 
L 75.329901 223.479336 
L 76.552245 223.479336 
L 76.552245 222.517425 
L 77.774589 222.517425 
L 77.774589 223.599575 
L 78.996933 223.599575 
L 78.996933 224.20077 
L 80.219277 224.20077 
L 80.219277 226.124592 
L 81.441621 226.124592 
L 81.441621 225.162681 
L 82.663965 225.162681 
L 82.663965 227.086503 
L 83.886309 227.086503 
L 83.886309 223.11862 
L 85.108653 223.11862 
L 85.108653 225.403159 
L 86.330997 225.403159 
L 86.330997 226.244831 
L 87.553341 226.244831 
L 87.553341 227.086503 
L 88.775685 227.086503 
L 88.775685 226.966264 
L 89.998028 226.966264 
L 89.998028 223.238859 
L 91.220372 223.238859 
L 91.220372 224.441248 
L 92.442716 224.441248 
L 92.442716 223.840053 
L 93.66506 223.840053 
L 93.66506 225.042442 
L 94.887404 225.042442 
L 94.887404 224.922203 
L 97.332092 224.922203 
L 97.332092 226.485309 
L 98.554436 226.485309 
L 98.554436 223.479336 
L 99.77678 223.479336 
L 99.77678 222.998381 
L 100.999124 222.998381 
L 100.999124 223.719814 
L 102.221468 223.719814 
L 102.221468 223.599575 
L 103.443812 223.599575 
L 103.443812 223.479336 
L 104.666156 223.479336 
L 104.666156 224.321009 
L 105.888499 224.321009 
L 105.888499 225.523397 
L 107.110843 225.523397 
L 107.110843 221.315036 
L 108.333187 221.315036 
L 108.333187 224.561486 
L 109.555531 224.561486 
L 109.555531 221.555514 
L 110.777875 221.555514 
L 110.777875 214.942376 
L 112.000219 214.942376 
L 112.000219 205.924459 
L 113.222563 205.924459 
L 113.222563 196.305348 
L 114.444907 196.305348 
L 114.444907 178.630232 
L 115.667251 178.630232 
L 115.667251 162.397983 
L 116.889595 162.397983 
L 116.889595 142.077611 
L 118.111939 142.077611 
L 118.111939 128.851334 
L 119.334283 128.851334 
L 119.334283 129.813245 
L 120.556627 129.813245 
L 120.556627 126.807273 
L 121.77897 126.807273 
L 121.77897 145.684778 
L 123.001314 145.684778 
L 123.001314 163.480133 
L 124.223658 163.480133 
L 124.223658 182.718354 
L 125.446002 182.718354 
L 125.446002 193.900571 
L 126.668346 193.900571 
L 126.668346 202.918487 
L 127.89069 202.918487 
L 127.89069 215.303092 
L 129.113034 215.303092 
L 129.113034 217.347153 
L 130.335378 217.347153 
L 130.335378 213.619748 
L 131.557722 213.619748 
L 131.557722 203.63992 
L 132.780066 203.63992 
L 132.780066 196.425587 
L 134.00241 196.425587 
L 134.00241 184.161221 
L 135.224754 184.161221 
L 135.224754 160.353922 
L 136.447097 160.353922 
L 136.447097 144.722867 
L 137.669441 144.722867 
L 137.669441 127.288228 
L 138.891785 127.288228 
L 138.891785 120.434612 
L 140.114129 120.434612 
L 140.114129 133.901367 
L 141.336473 133.901367 
L 141.336473 142.678806 
L 142.558817 142.678806 
L 142.558817 162.638461 
L 143.781161 162.638461 
L 143.781161 176.105216 
L 145.003505 176.105216 
L 145.003505 197.387498 
L 146.225849 197.387498 
L 146.225849 208.810192 
L 147.448193 208.810192 
L 147.448193 211.575687 
L 148.670537 211.575687 
L 148.670537 217.226914 
L 149.892881 217.226914 
L 149.892881 213.37927 
L 151.115225 213.37927 
L 151.115225 205.082787 
L 152.337568 205.082787 
L 152.337568 201.595859 
L 153.559912 201.595859 
L 153.559912 179.231427 
L 154.782256 179.231427 
L 154.782256 162.878938 
L 156.0046 162.878938 
L 156.0046 143.520478 
L 157.226944 143.520478 
L 157.226944 129.933484 
L 158.449288 129.933484 
L 158.449288 131.37635 
L 159.671632 131.37635 
L 159.671632 133.781128 
L 160.893976 133.781128 
L 160.893976 144.722867 
L 162.11632 144.722867 
L 162.11632 160.353922 
L 163.338664 160.353922 
L 163.338664 172.858766 
L 164.561008 172.858766 
L 164.561008 197.748215 
L 165.783352 197.748215 
L 165.783352 205.80422 
L 167.005696 205.80422 
L 167.005696 214.220942 
L 168.228039 214.220942 
L 168.228039 215.663809 
L 169.450383 215.663809 
L 169.450383 212.417359 
L 170.672727 212.417359 
L 170.672727 206.525654 
L 171.895071 206.525654 
L 171.895071 194.261287 
L 173.117415 194.261287 
L 173.117415 173.820677 
L 174.339759 173.820677 
L 174.339759 160.113444 
L 175.562103 160.113444 
L 175.562103 139.913311 
L 176.784447 139.913311 
L 176.784447 130.414439 
L 178.006791 130.414439 
L 178.006791 122.719151 
L 179.229135 122.719151 
L 179.229135 133.179934 
L 180.451479 133.179934 
L 180.451479 147.488361 
L 181.673823 147.488361 
L 181.673823 162.518222 
L 182.896166 162.518222 
L 182.896166 175.023066 
L 184.11851 175.023066 
L 184.11851 192.217226 
L 185.340854 192.217226 
L 185.340854 208.569715 
L 186.563198 208.569715 
L 186.563198 214.822137 
L 187.785542 214.822137 
L 187.785542 216.265003 
L 189.007886 216.265003 
L 189.007886 213.619748 
L 190.23023 213.619748 
L 190.23023 206.645893 
L 191.452574 206.645893 
L 191.452574 193.660093 
L 192.674918 193.660093 
L 192.674918 175.383782 
L 193.897262 175.383782 
L 193.897262 155.424127 
L 195.119606 155.424127 
L 195.119606 144.722867 
L 196.34195 144.722867 
L 196.34195 125.484645 
L 197.564294 125.484645 
L 197.564294 131.256111 
L 198.786637 131.256111 
L 198.786637 132.218023 
L 200.008981 132.218023 
L 200.008981 137.628772 
L 201.231325 137.628772 
L 201.231325 155.063411 
L 202.453669 155.063411 
L 202.453669 175.263543 
L 203.676013 175.263543 
L 203.676013 188.249343 
L 204.898357 188.249343 
L 204.898357 204.241115 
L 206.120701 204.241115 
L 206.120701 207.728042 
L 207.343045 207.728042 
L 207.343045 210.613776 
L 208.565389 210.613776 
L 208.565389 209.05067 
L 209.787733 209.05067 
L 209.787733 208.449476 
L 211.010077 208.449476 
L 211.010077 206.88637 
L 212.232421 206.88637 
L 212.232421 202.437532 
L 213.454765 202.437532 
L 213.454765 201.836337 
L 214.677108 201.836337 
L 214.677108 203.519681 
L 215.899452 203.519681 
L 215.899452 200.754187 
L 217.121796 200.754187 
L 217.121796 196.906543 
L 218.34414 196.906543 
L 218.34414 195.583915 
L 219.566484 195.583915 
L 219.566484 181.996921 
L 220.788828 181.996921 
L 220.788828 163.480133 
L 222.011172 163.480133 
L 222.011172 139.071639 
L 223.233516 139.071639 
L 223.233516 126.085839 
L 224.45586 126.085839 
L 224.45586 110.454784 
L 225.678204 110.454784 
L 225.678204 103.36069 
L 226.900548 103.36069 
L 226.900548 126.687034 
L 228.122892 126.687034 
L 228.122892 146.646689 
L 229.345235 146.646689 
L 229.345235 166.365866 
L 230.567579 166.365866 
L 230.567579 178.750471 
L 231.789923 178.750471 
L 231.789923 181.155249 
L 233.012267 181.155249 
L 233.012267 183.19931 
L 234.234611 183.19931 
L 234.234611 177.668321 
L 235.456955 177.668321 
L 235.456955 173.099244 
L 236.679299 173.099244 
L 236.679299 163.961088 
L 237.901643 163.961088 
L 237.901643 158.911055 
L 239.123987 158.911055 
L 239.123987 161.075355 
L 240.346331 161.075355 
L 240.346331 149.7729 
L 241.568675 149.7729 
L 241.568675 146.887167 
L 242.791019 146.887167 
L 242.791019 143.28 
L 244.013363 143.28 
L 244.013363 143.640717 
L 245.235706 143.640717 
L 245.235706 142.919283 
L 246.45805 142.919283 
L 246.45805 145.805017 
L 247.680394 145.805017 
L 247.680394 150.734811 
L 250.125082 150.734811 
L 250.125082 155.784844 
L 251.347426 155.784844 
L 251.347426 163.72061 
L 252.56977 163.72061 
L 252.56977 172.017094 
L 253.792114 172.017094 
L 253.792114 174.421871 
L 255.014458 174.421871 
L 255.014458 183.800504 
L 256.236802 183.800504 
L 256.236802 183.19931 
L 257.459146 183.19931 
L 257.459146 195.10296 
L 258.68149 195.10296 
L 258.68149 198.950604 
L 259.903834 198.950604 
L 259.903834 201.235143 
L 261.126177 201.235143 
L 261.126177 205.443504 
L 262.348521 205.443504 
L 262.348521 207.96852 
L 263.570865 207.96852 
L 263.570865 213.138792 
L 264.793209 213.138792 
L 264.793209 211.936403 
L 266.015553 211.936403 
L 266.015553 215.904287 
L 267.237897 215.904287 
L 267.237897 215.784048 
L 268.460241 215.784048 
L 268.460241 211.21497 
L 269.682585 211.21497 
L 269.682585 212.29712 
L 270.904929 212.29712 
L 270.904929 206.645893 
L 272.127273 206.645893 
L 272.127273 200.633948 
L 273.349617 200.633948 
L 273.349617 194.622004 
L 274.571961 194.622004 
L 274.571961 185.724326 
L 275.794304 185.724326 
L 275.794304 172.137332 
L 277.016648 172.137332 
L 277.016648 165.524194 
L 278.238992 165.524194 
L 278.238992 150.253855 
L 279.461336 150.253855 
L 279.461336 134.021606 
L 280.68368 134.021606 
L 280.68368 121.035806 
L 281.906024 121.035806 
L 281.906024 104.803557 
L 283.128368 104.803557 
L 283.128368 93.140385 
L 284.350712 93.140385 
L 284.350712 92.058235 
L 285.573056 92.058235 
L 285.573056 74.984313 
L 286.7954 74.984313 
L 286.7954 80.274824 
L 288.017744 80.274824 
L 288.017744 76.908135 
L 289.240088 76.908135 
L 289.240088 69.092608 
L 290.462432 69.092608 
L 290.462432 86.527246 
L 291.684775 86.527246 
L 291.684775 88.811785 
L 292.907119 88.811785 
L 292.907119 106.727379 
L 294.129463 106.727379 
L 294.129463 115.865534 
L 295.351807 115.865534 
L 295.351807 132.097784 
L 296.574151 132.097784 
L 296.574151 139.312117 
L 297.796495 139.312117 
L 297.796495 157.34795 
L 299.018839 157.34795 
L 299.018839 162.037266 
L 300.241183 162.037266 
L 300.241183 172.738527 
L 301.463527 172.738527 
L 301.463527 179.231427 
L 302.685871 179.231427 
L 302.685871 179.351666 
L 303.908215 179.351666 
L 303.908215 174.301632 
L 305.130559 174.301632 
L 305.130559 179.592143 
L 306.352903 179.592143 
L 306.352903 166.96706 
L 307.575246 166.96706 
L 307.575246 162.397983 
L 308.79759 162.397983 
L 308.79759 141.476417 
L 310.019934 141.476417 
L 310.019934 119.352462 
L 311.242278 119.352462 
L 311.242278 97.589224 
L 312.464622 97.589224 
L 312.464622 71.256908 
L 313.686966 71.256908 
L 313.686966 60.19493 
L 314.90931 60.19493 
L 314.90931 44.443636 
L 316.131654 44.443636 
L 316.131654 45.405547 
L 317.353998 45.405547 
L 317.353998 61.156841 
L 318.576342 61.156841 
L 318.576342 72.218819 
L 319.798686 72.218819 
L 319.798686 84.00223 
L 321.02103 84.00223 
L 321.02103 105.404751 
L 322.243373 105.404751 
L 322.243373 115.625056 
L 323.465717 115.625056 
L 323.465717 141.1157 
L 324.688061 141.1157 
L 324.688061 139.913311 
L 325.910405 139.913311 
L 325.910405 144.722867 
L 327.132749 144.722867 
L 327.132749 151.9372 
L 328.355093 151.9372 
L 328.355093 156.626516 
L 329.577437 156.626516 
L 329.577437 157.708666 
L 330.799781 157.708666 
L 330.799781 164.80276 
L 332.022125 164.80276 
L 332.022125 167.808733 
L 333.244469 167.808733 
L 333.244469 177.187366 
L 334.466813 177.187366 
L 334.466813 184.401699 
L 335.689157 184.401699 
L 335.689157 189.451732 
L 336.911501 189.451732 
L 336.911501 198.589887 
L 338.133844 198.589887 
L 338.133844 201.114904 
L 339.356188 201.114904 
L 339.356188 206.044698 
L 340.578532 206.044698 
L 340.578532 215.062614 
L 341.800876 215.062614 
L 341.800876 213.138792 
L 343.02322 213.138792 
L 343.02322 218.309064 
L 344.245564 218.309064 
L 344.245564 226.244831 
L 345.467908 226.244831 
L 345.467908 229.851997 
L 346.690252 229.851997 
L 346.690252 231.415103 
L 347.912596 231.415103 
L 347.912596 232.857969 
L 349.13494 232.857969 
L 349.13494 234.781792 
L 350.357284 234.781792 
L 350.357284 236.825853 
L 351.579628 236.825853 
L 351.579628 237.908003 
L 352.801972 237.908003 
L 352.801972 238.749675 
L 355.246659 238.749675 
L 355.246659 239.110392 
L 356.469003 239.110392 
L 356.469003 239.471108 
L 357.691347 239.471108 
L 357.691347 241.154453 
L 358.913691 241.154453 
L 358.913691 241.034214 
L 360.136035 241.034214 
L 360.136035 241.755647 
L 361.358379 241.755647 
L 361.358379 241.875886 
L 362.580723 241.875886 
L 362.580723 242.116364 
L 363.803067 242.116364 
L 363.803067 241.996125 
L 365.025411 241.996125 
L 365.025411 241.875886 
L 366.247755 241.875886 
L 366.247755 241.996125 
L 367.470099 241.996125 
L 367.470099 242.116364 
L 371.13713 242.116364 
L 371.13713 241.996125 
L 373.581818 241.996125 
L 373.581818 241.996125 
" style="fill:none;stroke:#1f77b4;stroke-linecap:square;stroke-width:1.5;"/>
   </g>
   <g id="patch_3">
    <path d="M 54 252 
L 54 34.56 
" style="fill:none;stroke:#000000;stroke-linecap:square;stroke-linejoin:miter;stroke-width:0.8;"/>
   </g>
   <g id="patch_4">
    <path d="M 388.8 252 
L 388.8 34.56 
" style="fill:none;stroke:#000000;stroke-linecap:square;stroke-linejoin:miter;stroke-width:0.8;"/>
   </g>
   <g id="patch_5">
    <path d="M 54 252 
L 388.8 252 
" style="fill:none;stroke:#000000;stroke-linecap:square;stroke-linejoin:miter;stroke-width:0.8;"/>
   </g>
   <g id="patch_6">
    <path d="M 54 34.56 
L 388.8 34.56 
" style="fill:none;stroke:#000000;stroke-linecap:square;stroke-linejoin:miter;stroke-width:0.8;"/>
   </g>
  </g>
 </g>
 <defs>
  <clipPath id="peebb07f15e">
   <rect height="217.44" width="334.8" x="54" y="34.56"/>
  </clipPath>
 </defs>
</svg>
