<?xml version="1.0" encoding="utf-8" standalone="no"?>
<!DOCTYPE svg PUBLIC "-//W3C//DTD SVG 1.1//EN"
  "http://www.w3.org/Graphics/SVG/1.1/DTD/svg11.dtd">
<!-- Created with matplotlib (http://matplotlib.org/) -->
<svg height="288pt" version="1.1" viewBox="0 0 432 288" width="432pt" xmlns="http://www.w3.org/2000/svg" xmlns:xlink="http://www.w3.org/1999/xlink">
 <defs>
  <style type="text/css">
*{stroke-linecap:butt;stroke-linejoin:round;}
  </style>
 </defs>
 <g id="figure_1">
  <g id="patch_1">
   <path d="M 0 288 
L 432 288 
L 432 0 
L 0 0 
z
" style="fill:#ffffff;"/>
  </g>
  <g id="axes_1">
   <g id="patch_2">
    <path d="M 54 252 
L 388.8 252 
L 388.8 34.56 
L 54 34.56 
z
" style="fill:#ffffff;"/>
   </g>
   <g id="matplotlib.axis_1">
    <g id="xtick_1">
     <g id="line2d_1">
      <defs>
       <path d="M 0 0 
L 0 3.5 
" id="m42c73878ba" style="stroke:#000000;stroke-width:0.8;"/>
      </defs>
      <g>
       <use style="stroke:#000000;stroke-width:0.8;" x="103.366176" xlink:href="#m42c73878ba" y="252"/>
      </g>
     </g>
     <g id="text_1">
      <!-- 20 -->
      <defs>
       <path d="M 19.1875 8.296875 
L 53.609375 8.296875 
L 53.609375 0 
L 7.328125 0 
L 7.328125 8.296875 
Q 12.9375 14.109375 22.625 23.890625 
Q 32.328125 33.6875 34.8125 36.53125 
Q 39.546875 41.84375 41.421875 45.53125 
Q 43.3125 49.21875 43.3125 52.78125 
Q 43.3125 58.59375 39.234375 62.25 
Q 35.15625 65.921875 28.609375 65.921875 
Q 23.96875 65.921875 18.8125 64.3125 
Q 13.671875 62.703125 7.8125 59.421875 
L 7.8125 69.390625 
Q 13.765625 71.78125 18.9375 73 
Q 24.125 74.21875 28.421875 74.21875 
Q 39.75 74.21875 46.484375 68.546875 
Q 53.21875 62.890625 53.21875 53.421875 
Q 53.21875 48.921875 51.53125 44.890625 
Q 49.859375 40.875 45.40625 35.40625 
Q 44.1875 33.984375 37.640625 27.21875 
Q 31.109375 20.453125 19.1875 8.296875 
z
" id="DejaVuSans-32"/>
       <path d="M 31.78125 66.40625 
Q 24.171875 66.40625 20.328125 58.90625 
Q 16.5 51.421875 16.5 36.375 
Q 16.5 21.390625 20.328125 13.890625 
Q 24.171875 6.390625 31.78125 6.390625 
Q 39.453125 6.390625 43.28125 13.890625 
Q 47.125 21.390625 47.125 36.375 
Q 47.125 51.421875 43.28125 58.90625 
Q 39.453125 66.40625 31.78125 66.40625 
z
M 31.78125 74.21875 
Q 44.046875 74.21875 50.515625 64.515625 
Q 56.984375 54.828125 56.984375 36.375 
Q 56.984375 17.96875 50.515625 8.265625 
Q 44.046875 -1.421875 31.78125 -1.421875 
Q 19.53125 -1.421875 13.0625 8.265625 
Q 6.59375 17.96875 6.59375 36.375 
Q 6.59375 54.828125 13.0625 64.515625 
Q 19.53125 74.21875 31.78125 74.21875 
z
" id="DejaVuSans-30"/>
      </defs>
      <g transform="translate(97.003676 266.598437)scale(0.1 -0.1)">
       <use xlink:href="#DejaVuSans-32"/>
       <use x="63.623047" xlink:href="#DejaVuSans-30"/>
      </g>
     </g>
    </g>
    <g id="xtick_2">
     <g id="line2d_2">
      <g>
       <use style="stroke:#000000;stroke-width:0.8;" x="174.724632" xlink:href="#m42c73878ba" y="252"/>
      </g>
     </g>
     <g id="text_2">
      <!-- 40 -->
      <defs>
       <path d="M 37.796875 64.3125 
L 12.890625 25.390625 
L 37.796875 25.390625 
z
M 35.203125 72.90625 
L 47.609375 72.90625 
L 47.609375 25.390625 
L 58.015625 25.390625 
L 58.015625 17.1875 
L 47.609375 17.1875 
L 47.609375 0 
L 37.796875 0 
L 37.796875 17.1875 
L 4.890625 17.1875 
L 4.890625 26.703125 
z
" id="DejaVuSans-34"/>
      </defs>
      <g transform="translate(168.362132 266.598437)scale(0.1 -0.1)">
       <use xlink:href="#DejaVuSans-34"/>
       <use x="63.623047" xlink:href="#DejaVuSans-30"/>
      </g>
     </g>
    </g>
    <g id="xtick_3">
     <g id="line2d_3">
      <g>
       <use style="stroke:#000000;stroke-width:0.8;" x="246.083088" xlink:href="#m42c73878ba" y="252"/>
      </g>
     </g>
     <g id="text_3">
      <!-- 60 -->
      <defs>
       <path d="M 33.015625 40.375 
Q 26.375 40.375 22.484375 35.828125 
Q 18.609375 31.296875 18.609375 23.390625 
Q 18.609375 15.53125 22.484375 10.953125 
Q 26.375 6.390625 33.015625 6.390625 
Q 39.65625 6.390625 43.53125 10.953125 
Q 47.40625 15.53125 47.40625 23.390625 
Q 47.40625 31.296875 43.53125 35.828125 
Q 39.65625 40.375 33.015625 40.375 
z
M 52.59375 71.296875 
L 52.59375 62.3125 
Q 48.875 64.0625 45.09375 64.984375 
Q 41.3125 65.921875 37.59375 65.921875 
Q 27.828125 65.921875 22.671875 59.328125 
Q 17.53125 52.734375 16.796875 39.40625 
Q 19.671875 43.65625 24.015625 45.921875 
Q 28.375 48.1875 33.59375 48.1875 
Q 44.578125 48.1875 50.953125 41.515625 
Q 57.328125 34.859375 57.328125 23.390625 
Q 57.328125 12.15625 50.6875 5.359375 
Q 44.046875 -1.421875 33.015625 -1.421875 
Q 20.359375 -1.421875 13.671875 8.265625 
Q 6.984375 17.96875 6.984375 36.375 
Q 6.984375 53.65625 15.1875 63.9375 
Q 23.390625 74.21875 37.203125 74.21875 
Q 40.921875 74.21875 44.703125 73.484375 
Q 48.484375 72.75 52.59375 71.296875 
z
" id="DejaVuSans-36"/>
      </defs>
      <g transform="translate(239.720588 266.598437)scale(0.1 -0.1)">
       <use xlink:href="#DejaVuSans-36"/>
       <use x="63.623047" xlink:href="#DejaVuSans-30"/>
      </g>
     </g>
    </g>
    <g id="xtick_4">
     <g id="line2d_4">
      <g>
       <use style="stroke:#000000;stroke-width:0.8;" x="317.441544" xlink:href="#m42c73878ba" y="252"/>
      </g>
     </g>
     <g id="text_4">
      <!-- 80 -->
      <defs>
       <path d="M 31.78125 34.625 
Q 24.75 34.625 20.71875 30.859375 
Q 16.703125 27.09375 16.703125 20.515625 
Q 16.703125 13.921875 20.71875 10.15625 
Q 24.75 6.390625 31.78125 6.390625 
Q 38.8125 6.390625 42.859375 10.171875 
Q 46.921875 13.96875 46.921875 20.515625 
Q 46.921875 27.09375 42.890625 30.859375 
Q 38.875 34.625 31.78125 34.625 
z
M 21.921875 38.8125 
Q 15.578125 40.375 12.03125 44.71875 
Q 8.5 49.078125 8.5 55.328125 
Q 8.5 64.0625 14.71875 69.140625 
Q 20.953125 74.21875 31.78125 74.21875 
Q 42.671875 74.21875 48.875 69.140625 
Q 55.078125 64.0625 55.078125 55.328125 
Q 55.078125 49.078125 51.53125 44.71875 
Q 48 40.375 41.703125 38.8125 
Q 48.828125 37.15625 52.796875 32.3125 
Q 56.78125 27.484375 56.78125 20.515625 
Q 56.78125 9.90625 50.3125 4.234375 
Q 43.84375 -1.421875 31.78125 -1.421875 
Q 19.734375 -1.421875 13.25 4.234375 
Q 6.78125 9.90625 6.78125 20.515625 
Q 6.78125 27.484375 10.78125 32.3125 
Q 14.796875 37.15625 21.921875 38.8125 
z
M 18.3125 54.390625 
Q 18.3125 48.734375 21.84375 45.5625 
Q 25.390625 42.390625 31.78125 42.390625 
Q 38.140625 42.390625 41.71875 45.5625 
Q 45.3125 48.734375 45.3125 54.390625 
Q 45.3125 60.0625 41.71875 63.234375 
Q 38.140625 66.40625 31.78125 66.40625 
Q 25.390625 66.40625 21.84375 63.234375 
Q 18.3125 60.0625 18.3125 54.390625 
z
" id="DejaVuSans-38"/>
      </defs>
      <g transform="translate(311.079044 266.598437)scale(0.1 -0.1)">
       <use xlink:href="#DejaVuSans-38"/>
       <use x="63.623047" xlink:href="#DejaVuSans-30"/>
      </g>
     </g>
    </g>
    <g id="xtick_5">
     <g id="line2d_5">
      <g>
       <use style="stroke:#000000;stroke-width:0.8;" x="388.8" xlink:href="#m42c73878ba" y="252"/>
      </g>
     </g>
     <g id="text_5">
      <!-- 100 -->
      <defs>
       <path d="M 12.40625 8.296875 
L 28.515625 8.296875 
L 28.515625 63.921875 
L 10.984375 60.40625 
L 10.984375 69.390625 
L 28.421875 72.90625 
L 38.28125 72.90625 
L 38.28125 8.296875 
L 54.390625 8.296875 
L 54.390625 0 
L 12.40625 0 
z
" id="DejaVuSans-31"/>
      </defs>
      <g transform="translate(379.25625 266.598437)scale(0.1 -0.1)">
       <use xlink:href="#DejaVuSans-31"/>
       <use x="63.623047" xlink:href="#DejaVuSans-30"/>
       <use x="127.246094" xlink:href="#DejaVuSans-30"/>
      </g>
     </g>
    </g>
    <g id="text_6">
     <!-- Energy (keV) -->
     <defs>
      <path d="M 9.8125 72.90625 
L 55.90625 72.90625 
L 55.90625 64.59375 
L 19.671875 64.59375 
L 19.671875 43.015625 
L 54.390625 43.015625 
L 54.390625 34.71875 
L 19.671875 34.71875 
L 19.671875 8.296875 
L 56.78125 8.296875 
L 56.78125 0 
L 9.8125 0 
z
" id="DejaVuSans-45"/>
      <path d="M 54.890625 33.015625 
L 54.890625 0 
L 45.90625 0 
L 45.90625 32.71875 
Q 45.90625 40.484375 42.875 44.328125 
Q 39.84375 48.1875 33.796875 48.1875 
Q 26.515625 48.1875 22.3125 43.546875 
Q 18.109375 38.921875 18.109375 30.90625 
L 18.109375 0 
L 9.078125 0 
L 9.078125 54.6875 
L 18.109375 54.6875 
L 18.109375 46.1875 
Q 21.34375 51.125 25.703125 53.5625 
Q 30.078125 56 35.796875 56 
Q 45.21875 56 50.046875 50.171875 
Q 54.890625 44.34375 54.890625 33.015625 
z
" id="DejaVuSans-6e"/>
      <path d="M 56.203125 29.59375 
L 56.203125 25.203125 
L 14.890625 25.203125 
Q 15.484375 15.921875 20.484375 11.0625 
Q 25.484375 6.203125 34.421875 6.203125 
Q 39.59375 6.203125 44.453125 7.46875 
Q 49.3125 8.734375 54.109375 11.28125 
L 54.109375 2.78125 
Q 49.265625 0.734375 44.1875 -0.34375 
Q 39.109375 -1.421875 33.890625 -1.421875 
Q 20.796875 -1.421875 13.15625 6.1875 
Q 5.515625 13.8125 5.515625 26.8125 
Q 5.515625 40.234375 12.765625 48.109375 
Q 20.015625 56 32.328125 56 
Q 43.359375 56 49.78125 48.890625 
Q 56.203125 41.796875 56.203125 29.59375 
z
M 47.21875 32.234375 
Q 47.125 39.59375 43.09375 43.984375 
Q 39.0625 48.390625 32.421875 48.390625 
Q 24.90625 48.390625 20.390625 44.140625 
Q 15.875 39.890625 15.1875 32.171875 
z
" id="DejaVuSans-65"/>
      <path d="M 41.109375 46.296875 
Q 39.59375 47.171875 37.8125 47.578125 
Q 36.03125 48 33.890625 48 
Q 26.265625 48 22.1875 43.046875 
Q 18.109375 38.09375 18.109375 28.8125 
L 18.109375 0 
L 9.078125 0 
L 9.078125 54.6875 
L 18.109375 54.6875 
L 18.109375 46.1875 
Q 20.953125 51.171875 25.484375 53.578125 
Q 30.03125 56 36.53125 56 
Q 37.453125 56 38.578125 55.875 
Q 39.703125 55.765625 41.0625 55.515625 
z
" id="DejaVuSans-72"/>
      <path d="M 45.40625 27.984375 
Q 45.40625 37.75 41.375 43.109375 
Q 37.359375 48.484375 30.078125 48.484375 
Q 22.859375 48.484375 18.828125 43.109375 
Q 14.796875 37.75 14.796875 27.984375 
Q 14.796875 18.265625 18.828125 12.890625 
Q 22.859375 7.515625 30.078125 7.515625 
Q 37.359375 7.515625 41.375 12.890625 
Q 45.40625 18.265625 45.40625 27.984375 
z
M 54.390625 6.78125 
Q 54.390625 -7.171875 48.1875 -13.984375 
Q 42 -20.796875 29.203125 -20.796875 
Q 24.46875 -20.796875 20.265625 -20.09375 
Q 16.0625 -19.390625 12.109375 -17.921875 
L 12.109375 -9.1875 
Q 16.0625 -11.328125 19.921875 -12.34375 
Q 23.78125 -13.375 27.78125 -13.375 
Q 36.625 -13.375 41.015625 -8.765625 
Q 45.40625 -4.15625 45.40625 5.171875 
L 45.40625 9.625 
Q 42.625 4.78125 38.28125 2.390625 
Q 33.9375 0 27.875 0 
Q 17.828125 0 11.671875 7.65625 
Q 5.515625 15.328125 5.515625 27.984375 
Q 5.515625 40.671875 11.671875 48.328125 
Q 17.828125 56 27.875 56 
Q 33.9375 56 38.28125 53.609375 
Q 42.625 51.21875 45.40625 46.390625 
L 45.40625 54.6875 
L 54.390625 54.6875 
z
" id="DejaVuSans-67"/>
      <path d="M 32.171875 -5.078125 
Q 28.375 -14.84375 24.75 -17.8125 
Q 21.140625 -20.796875 15.09375 -20.796875 
L 7.90625 -20.796875 
L 7.90625 -13.28125 
L 13.1875 -13.28125 
Q 16.890625 -13.28125 18.9375 -11.515625 
Q 21 -9.765625 23.484375 -3.21875 
L 25.09375 0.875 
L 2.984375 54.6875 
L 12.5 54.6875 
L 29.59375 11.921875 
L 46.6875 54.6875 
L 56.203125 54.6875 
z
" id="DejaVuSans-79"/>
      <path id="DejaVuSans-20"/>
      <path d="M 31 75.875 
Q 24.46875 64.65625 21.28125 53.65625 
Q 18.109375 42.671875 18.109375 31.390625 
Q 18.109375 20.125 21.3125 9.0625 
Q 24.515625 -2 31 -13.1875 
L 23.1875 -13.1875 
Q 15.875 -1.703125 12.234375 9.375 
Q 8.59375 20.453125 8.59375 31.390625 
Q 8.59375 42.28125 12.203125 53.3125 
Q 15.828125 64.359375 23.1875 75.875 
z
" id="DejaVuSans-28"/>
      <path d="M 9.078125 75.984375 
L 18.109375 75.984375 
L 18.109375 31.109375 
L 44.921875 54.6875 
L 56.390625 54.6875 
L 27.390625 29.109375 
L 57.625 0 
L 45.90625 0 
L 18.109375 26.703125 
L 18.109375 0 
L 9.078125 0 
z
" id="DejaVuSans-6b"/>
      <path d="M 28.609375 0 
L 0.78125 72.90625 
L 11.078125 72.90625 
L 34.1875 11.53125 
L 57.328125 72.90625 
L 67.578125 72.90625 
L 39.796875 0 
z
" id="DejaVuSans-56"/>
      <path d="M 8.015625 75.875 
L 15.828125 75.875 
Q 23.140625 64.359375 26.78125 53.3125 
Q 30.421875 42.28125 30.421875 31.390625 
Q 30.421875 20.453125 26.78125 9.375 
Q 23.140625 -1.703125 15.828125 -13.1875 
L 8.015625 -13.1875 
Q 14.5 -2 17.703125 9.0625 
Q 20.90625 20.125 20.90625 31.390625 
Q 20.90625 42.671875 17.703125 53.65625 
Q 14.5 64.65625 8.015625 75.875 
z
" id="DejaVuSans-29"/>
     </defs>
     <g transform="translate(188.926562 280.276563)scale(0.1 -0.1)">
      <use xlink:href="#DejaVuSans-45"/>
      <use x="63.183594" xlink:href="#DejaVuSans-6e"/>
      <use x="126.5625" xlink:href="#DejaVuSans-65"/>
      <use x="188.085938" xlink:href="#DejaVuSans-72"/>
      <use x="229.183594" xlink:href="#DejaVuSans-67"/>
      <use x="292.660156" xlink:href="#DejaVuSans-79"/>
      <use x="351.839844" xlink:href="#DejaVuSans-20"/>
      <use x="383.626953" xlink:href="#DejaVuSans-28"/>
      <use x="422.640625" xlink:href="#DejaVuSans-6b"/>
      <use x="480.503906" xlink:href="#DejaVuSans-65"/>
      <use x="542.027344" xlink:href="#DejaVuSans-56"/>
      <use x="610.435547" xlink:href="#DejaVuSans-29"/>
     </g>
    </g>
   </g>
   <g id="matplotlib.axis_2">
    <g id="ytick_1">
     <g id="line2d_6">
      <defs>
       <path d="M 0 0 
L -3.5 0 
" id="m1446f830dd" style="stroke:#000000;stroke-width:0.8;"/>
      </defs>
      <g>
       <use style="stroke:#000000;stroke-width:0.8;" x="54" xlink:href="#m1446f830dd" y="242.183253"/>
      </g>
     </g>
     <g id="text_7">
      <!-- 0.0 -->
      <defs>
       <path d="M 10.6875 12.40625 
L 21 12.40625 
L 21 0 
L 10.6875 0 
z
" id="DejaVuSans-2e"/>
      </defs>
      <g transform="translate(31.096875 245.982472)scale(0.1 -0.1)">
       <use xlink:href="#DejaVuSans-30"/>
       <use x="63.623047" xlink:href="#DejaVuSans-2e"/>
       <use x="95.410156" xlink:href="#DejaVuSans-30"/>
      </g>
     </g>
    </g>
    <g id="ytick_2">
     <g id="line2d_7">
      <g>
       <use style="stroke:#000000;stroke-width:0.8;" x="54" xlink:href="#m1446f830dd" y="202.63533"/>
      </g>
     </g>
     <g id="text_8">
      <!-- 0.2 -->
      <g transform="translate(31.096875 206.434548)scale(0.1 -0.1)">
       <use xlink:href="#DejaVuSans-30"/>
       <use x="63.623047" xlink:href="#DejaVuSans-2e"/>
       <use x="95.410156" xlink:href="#DejaVuSans-32"/>
      </g>
     </g>
    </g>
    <g id="ytick_3">
     <g id="line2d_8">
      <g>
       <use style="stroke:#000000;stroke-width:0.8;" x="54" xlink:href="#m1446f830dd" y="163.087406"/>
      </g>
     </g>
     <g id="text_9">
      <!-- 0.4 -->
      <g transform="translate(31.096875 166.886625)scale(0.1 -0.1)">
       <use xlink:href="#DejaVuSans-30"/>
       <use x="63.623047" xlink:href="#DejaVuSans-2e"/>
       <use x="95.410156" xlink:href="#DejaVuSans-34"/>
      </g>
     </g>
    </g>
    <g id="ytick_4">
     <g id="line2d_9">
      <g>
       <use style="stroke:#000000;stroke-width:0.8;" x="54" xlink:href="#m1446f830dd" y="123.539483"/>
      </g>
     </g>
     <g id="text_10">
      <!-- 0.6 -->
      <g transform="translate(31.096875 127.338702)scale(0.1 -0.1)">
       <use xlink:href="#DejaVuSans-30"/>
       <use x="63.623047" xlink:href="#DejaVuSans-2e"/>
       <use x="95.410156" xlink:href="#DejaVuSans-36"/>
      </g>
     </g>
    </g>
    <g id="ytick_5">
     <g id="line2d_10">
      <g>
       <use style="stroke:#000000;stroke-width:0.8;" x="54" xlink:href="#m1446f830dd" y="83.99156"/>
      </g>
     </g>
     <g id="text_11">
      <!-- 0.8 -->
      <g transform="translate(31.096875 87.790778)scale(0.1 -0.1)">
       <use xlink:href="#DejaVuSans-30"/>
       <use x="63.623047" xlink:href="#DejaVuSans-2e"/>
       <use x="95.410156" xlink:href="#DejaVuSans-38"/>
      </g>
     </g>
    </g>
    <g id="ytick_6">
     <g id="line2d_11">
      <g>
       <use style="stroke:#000000;stroke-width:0.8;" x="54" xlink:href="#m1446f830dd" y="44.443636"/>
      </g>
     </g>
     <g id="text_12">
      <!-- 1.0 -->
      <g transform="translate(31.096875 48.242855)scale(0.1 -0.1)">
       <use xlink:href="#DejaVuSans-31"/>
       <use x="63.623047" xlink:href="#DejaVuSans-2e"/>
       <use x="95.410156" xlink:href="#DejaVuSans-30"/>
      </g>
     </g>
    </g>
   </g>
   <g id="line2d_12">
    <path clip-path="url(#pfcef13ad6b)" d="M 75.407537 203.315944 
L 76.121121 203.315944 
L 76.121121 204.599886 
L 76.834706 204.599886 
L 76.834706 208.476645 
L 77.54829 208.476645 
L 77.54829 210.707963 
L 78.261875 210.707963 
L 78.261875 211.680269 
L 78.97546 211.680269 
L 78.97546 212.789695 
L 80.402629 212.777229 
L 80.402629 212.166422 
L 81.116213 212.166422 
L 81.116213 212.3908 
L 81.829798 212.3908 
L 81.829798 213.250917 
L 82.543382 213.250917 
L 82.543382 213.113797 
L 83.256967 213.113797 
L 83.256967 213.649812 
L 83.970551 213.649812 
L 83.970551 212.378334 
L 84.684136 212.378334 
L 84.684136 211.667803 
L 85.397721 211.667803 
L 85.397721 210.695497 
L 86.111305 210.695497 
L 86.111305 209.311831 
L 86.82489 209.311831 
L 86.82489 208.975263 
L 87.538474 208.975263 
L 87.538474 208.401852 
L 88.252059 208.401852 
L 88.252059 208.07775 
L 88.965643 208.07775 
L 88.965643 208.87554 
L 89.679228 208.87554 
L 89.679228 210.134551 
L 90.392813 210.134551 
L 90.392813 208.189939 
L 91.106397 208.189939 
L 91.106397 206.781342 
L 91.819982 206.781342 
L 91.819982 205.946156 
L 92.533566 205.946156 
L 92.533566 205.385211 
L 93.960735 205.460003 
L 93.960735 207.566666 
L 94.67432 207.566666 
L 94.67432 211.31877 
L 95.387904 211.31877 
L 95.387904 214.036241 
L 96.101489 214.036241 
L 96.101489 213.849259 
L 96.815074 213.849259 
L 96.815074 213.288313 
L 97.528658 213.288313 
L 97.528658 212.976677 
L 98.242243 212.976677 
L 98.242243 211.779992 
L 98.955827 211.779992 
L 98.955827 210.894945 
L 99.669412 210.894945 
L 99.669412 210.446188 
L 101.096581 210.421257 
L 101.096581 210.77029 
L 101.810165 210.77029 
L 101.810165 210.333999 
L 102.52375 210.333999 
L 102.52375 209.025125 
L 103.237335 209.025125 
L 103.237335 208.763351 
L 103.950919 208.763351 
L 103.950919 208.48911 
L 104.664504 208.48911 
L 104.664504 209.42402 
L 105.378088 209.42402 
L 105.378088 210.795221 
L 106.091673 210.795221 
L 106.091673 208.538972 
L 106.805257 208.538972 
L 106.805257 209.14978 
L 107.518842 209.14978 
L 107.518842 208.314594 
L 108.232427 208.314594 
L 108.232427 207.865837 
L 108.946011 207.865837 
L 108.946011 207.379684 
L 109.659596 207.379684 
L 109.659596 205.422607 
L 110.37318 205.422607 
L 110.37318 203.228686 
L 111.086765 203.228686 
L 111.086765 203.727304 
L 111.800349 203.727304 
L 111.800349 204.363043 
L 112.513934 204.363043 
L 112.513934 203.62758 
L 113.227518 203.62758 
L 113.227518 203.166358 
L 113.941103 203.166358 
L 113.941103 201.720365 
L 114.654688 201.720365 
L 114.654688 198.130312 
L 115.368272 198.130312 
L 115.368272 195.998718 
L 116.081857 195.998718 
L 116.081857 196.410078 
L 116.795441 196.410078 
L 116.795441 198.142777 
L 117.509026 198.142777 
L 117.509026 198.529207 
L 118.22261 198.529207 
L 118.22261 196.584595 
L 118.936195 196.584595 
L 118.936195 194.340812 
L 119.649779 194.340812 
L 119.649779 192.657974 
L 120.363364 192.657974 
L 120.363364 187.746582 
L 121.076949 187.746582 
L 121.076949 183.209154 
L 121.790533 183.209154 
L 121.790533 176.73958 
L 122.504118 176.73958 
L 122.504118 175.044277 
L 123.217702 175.044277 
L 123.217702 171.479155 
L 123.931287 171.479155 
L 123.931287 167.83924 
L 124.644871 167.83924 
L 124.644871 162.01787 
L 125.358456 162.01787 
L 125.358456 160.073258 
L 126.07204 160.073258 
L 126.07204 159.076021 
L 126.785625 159.076021 
L 126.785625 158.490144 
L 127.49921 158.490144 
L 127.49921 157.630027 
L 128.212794 157.630027 
L 128.212794 149.851579 
L 128.926379 149.851579 
L 128.926379 145.388944 
L 129.639963 145.388944 
L 129.639963 137.772547 
L 130.353548 137.772547 
L 130.353548 132.025969 
L 131.067132 132.025969 
L 131.067132 125.394344 
L 131.780717 125.394344 
L 131.780717 119.784886 
L 132.494302 119.784886 
L 132.494302 114.175428 
L 133.207886 114.175428 
L 133.207886 110.236342 
L 133.921471 110.236342 
L 133.921471 103.492528 
L 134.635055 103.492528 
L 134.635055 98.655929 
L 135.34864 98.655929 
L 135.34864 90.889946 
L 136.062224 90.889946 
L 136.062224 85.953623 
L 136.775809 85.953623 
L 136.775809 84.457768 
L 137.489393 84.457768 
L 137.489393 80.568544 
L 138.202978 80.568544 
L 138.202978 71.780394 
L 138.916563 71.780394 
L 138.916563 64.949321 
L 139.630147 64.949321 
L 139.630147 62.269246 
L 140.343732 62.269246 
L 140.343732 54.54066 
L 141.057316 54.54066 
L 141.057316 47.335623 
L 141.770901 47.335623 
L 141.770901 50.06556 
L 142.484485 50.06556 
L 142.484485 52.770565 
L 143.19807 52.770565 
L 143.19807 47.186038 
L 143.911654 47.186038 
L 143.911654 45.216495 
L 144.625239 45.216495 
L 144.625239 45.727579 
L 145.338824 45.727579 
L 145.338824 47.9215 
L 146.052408 47.9215 
L 146.052408 47.560002 
L 146.765993 47.560002 
L 146.765993 45.864699 
L 147.479577 45.864699 
L 147.479577 45.553062 
L 148.193162 45.553062 
L 148.193162 44.443636 
L 148.906746 44.443636 
L 148.906746 45.602924 
L 149.620331 45.602924 
L 149.620331 47.734518 
L 150.333916 47.734518 
L 150.333916 54.515729 
L 151.0475 54.515729 
L 151.0475 60.636271 
L 151.761085 60.636271 
L 151.761085 66.731882 
L 152.474669 66.731882 
L 152.474669 75.096206 
L 153.188254 75.096206 
L 153.188254 77.838608 
L 153.901838 77.838608 
L 153.901838 83.522858 
L 154.615423 83.522858 
L 154.615423 89.468884 
L 155.329007 89.468884 
L 155.329007 94.629585 
L 156.042592 94.629585 
L 156.042592 103.941284 
L 156.756177 103.941284 
L 156.756177 113.028606 
L 157.469761 113.028606 
L 157.469761 112.081231 
L 158.183346 112.081231 
L 158.183346 105.312485 
L 158.89693 105.312485 
L 158.89693 112.679573 
L 159.610515 112.679573 
L 159.610515 121.455258 
L 160.324099 121.455258 
L 160.324099 127.787712 
L 161.037684 127.787712 
L 161.037684 134.755905 
L 161.751268 134.755905 
L 161.751268 149.73939 
L 162.464853 149.73939 
L 162.464853 153.852992 
L 163.178438 153.852992 
L 163.178438 156.35855 
L 163.892022 156.35855 
L 163.892022 165.383544 
L 164.605607 165.383544 
L 164.605607 173.137061 
L 165.319191 173.137061 
L 165.319191 176.103841 
L 166.032776 176.103841 
L 166.032776 181.675903 
L 166.74636 181.675903 
L 166.74636 185.241025 
L 167.459945 185.241025 
L 167.459945 189.192576 
L 168.173529 189.192576 
L 168.173529 191.934977 
L 168.887114 191.934977 
L 168.887114 194.677379 
L 169.600699 194.677379 
L 169.600699 200.698197 
L 170.314283 200.698197 
L 170.314283 205.335349 
L 171.027868 205.335349 
L 171.027868 207.180237 
L 171.741452 207.180237 
L 171.741452 208.227336 
L 172.455037 208.227336 
L 172.455037 210.570843 
L 173.168621 210.570843 
L 173.168621 211.904647 
L 173.882206 211.904647 
L 173.882206 214.310481 
L 174.595791 214.310481 
L 174.595791 215.644285 
L 175.309375 215.644285 
L 175.309375 216.56673 
L 176.02296 216.56673 
L 176.02296 217.850672 
L 177.450129 217.950396 
L 177.450129 218.349291 
L 178.163713 218.349291 
L 178.163713 221.490587 
L 178.877298 221.490587 
L 178.877298 228.957398 
L 179.590882 228.957398 
L 179.590882 233.345241 
L 181.018052 233.357706 
L 181.018052 234.105634 
L 181.731636 234.105634 
L 181.731636 234.679045 
L 182.445221 234.679045 
L 182.445221 235.003147 
L 183.158805 235.003147 
L 183.158805 235.863264 
L 186.726728 235.950522 
L 186.726728 236.798174 
L 187.440313 236.798174 
L 187.440313 236.586261 
L 188.153897 236.586261 
L 188.153897 236.050246 
L 188.867482 236.050246 
L 188.867482 236.798174 
L 191.72182 236.83557 
L 191.72182 237.695687 
L 192.435405 237.695687 
L 192.435405 237.234465 
L 193.148989 237.234465 
L 193.148989 236.798174 
L 195.289743 236.798174 
L 195.289743 237.010086 
L 196.003327 237.010086 
L 196.003327 237.695687 
L 199.57125 237.695687 
L 199.57125 237.944996 
L 200.284835 237.944996 
L 200.284835 239.054422 
L 200.998419 239.054422 
L 200.998419 239.490713 
L 205.993511 239.465782 
L 205.993511 238.5932 
L 206.707096 238.5932 
L 206.707096 239.316197 
L 207.42068 239.316197 
L 207.42068 239.490713 
L 208.847849 239.490713 
L 208.847849 240.300968 
L 212.415772 240.388227 
L 212.415772 239.615368 
L 214.556526 239.602902 
L 214.556526 239.490713 
L 218.124449 239.490713 
L 218.124449 239.079353 
L 218.838033 239.079353 
L 218.838033 237.832807 
L 219.551618 237.832807 
L 219.551618 237.408981 
L 220.265202 237.408981 
L 220.265202 236.798174 
L 220.978787 236.798174 
L 220.978787 236.087642 
L 221.692371 236.087642 
L 221.692371 235.90066 
L 226.687463 235.90066 
L 226.687463 236.523933 
L 227.401048 236.523933 
L 227.401048 236.798174 
L 229.541802 236.798174 
L 229.541802 236.01285 
L 230.255386 236.01285 
L 230.255386 235.177664 
L 230.968971 235.177664 
L 230.968971 235.003147 
L 233.109724 235.003147 
L 233.109724 235.476835 
L 233.823309 235.476835 
L 233.823309 235.90066 
L 234.536894 235.90066 
L 234.536894 236.386813 
L 235.250478 236.386813 
L 235.250478 236.798174 
L 238.818401 236.798174 
L 238.818401 236.910363 
L 239.531985 236.910363 
L 239.531985 238.156909 
L 240.24557 238.156909 
L 240.24557 238.5932 
L 240.959155 238.5932 
L 240.959155 239.478248 
L 241.672739 239.478248 
L 241.672739 239.902074 
L 242.386324 239.902074 
L 242.386324 240.388227 
L 250.235754 240.388227 
L 250.235754 240.87438 
L 250.949338 240.87438 
L 250.949338 241.709565 
L 251.662923 241.709565 
L 251.662923 241.410394 
L 252.376508 241.410394 
L 252.376508 241.28574 
L 260.939522 241.28574 
L 260.939522 240.774656 
L 261.653107 240.774656 
L 261.653107 240.388227 
L 264.507445 240.388227 
L 264.507445 240.051659 
L 265.22103 240.051659 
L 265.22103 239.490713 
L 268.075368 239.490713 
L 268.075368 238.643062 
L 270.216121 238.555804 
L 270.216121 237.695687 
L 272.356875 237.695687 
L 272.356875 238.169374 
L 273.07046 238.169374 
L 273.07046 238.5932 
L 276.638383 238.5932 
L 276.638383 238.219236 
L 277.351967 238.219236 
L 277.351967 237.695687 
L 280.206305 237.695687 
L 280.206305 237.084879 
L 280.91989 237.084879 
L 280.91989 236.798174 
L 281.633474 236.798174 
L 281.633474 237.010086 
L 282.347059 237.010086 
L 282.347059 237.695687 
L 285.914982 237.733083 
L 285.914982 238.5932 
L 288.76932 238.5932 
L 288.76932 239.14168 
L 289.482905 239.14168 
L 289.482905 238.73032 
L 290.196489 238.73032 
L 290.196489 238.5932 
L 290.910074 238.5932 
L 290.910074 238.73032 
L 291.623658 238.73032 
L 291.623658 238.431149 
L 292.337243 238.431149 
L 292.337243 237.047483 
L 293.050827 237.047483 
L 293.050827 236.798174 
L 294.477997 236.798174 
L 294.477997 236.062711 
L 295.191581 236.062711 
L 295.191581 235.90066 
L 298.045919 235.975453 
L 298.045919 236.798174 
L 300.900258 236.798174 
L 300.900258 237.10981 
L 301.613842 237.10981 
L 301.613842 237.695687 
L 305.181765 237.695687 
L 305.181765 237.072414 
L 305.895349 237.072414 
L 305.895349 236.374348 
L 306.608934 236.374348 
L 306.608934 235.90066 
L 308.036103 235.90066 
L 308.036103 235.152733 
L 308.749688 235.152733 
L 308.749688 234.105634 
L 310.176857 234.105634 
L 310.176857 234.566856 
L 310.890441 234.566856 
L 310.890441 234.192892 
L 313.031195 234.105634 
L 313.031195 235.21506 
L 313.74478 235.21506 
L 313.74478 235.339715 
L 314.458364 235.339715 
L 314.458364 235.003147 
L 315.171949 235.003147 
L 315.171949 235.439438 
L 315.885533 235.439438 
L 315.885533 235.90066 
L 316.599118 235.90066 
L 316.599118 235.314784 
L 317.312702 235.314784 
L 317.312702 235.003147 
L 325.875717 235.003147 
L 325.875717 234.454667 
L 326.589302 234.454667 
L 326.589302 235.127802 
L 328.016471 235.152733 
L 328.016471 235.003147 
L 328.730055 235.003147 
L 328.730055 235.21506 
L 329.44364 235.21506 
L 329.44364 236.735846 
L 331.584394 236.798174 
L 331.584394 237.309258 
L 332.297978 237.309258 
L 332.297978 237.695687 
L 333.011563 237.695687 
L 333.011563 238.493476 
L 334.438732 238.5932 
L 334.438732 238.854975 
L 335.152316 238.854975 
L 335.152316 239.490713 
L 336.579486 239.490713 
L 336.579486 238.86744 
L 338.006655 238.879906 
L 338.006655 239.490713 
L 346.569669 239.490713 
L 346.569669 240.064125 
L 347.283254 240.064125 
L 347.283254 240.388227 
L 347.996838 240.388227 
L 347.996838 240.836983 
L 348.710423 240.836983 
L 348.710423 241.28574 
L 350.851177 241.28574 
L 350.851177 240.812052 
L 351.564761 240.812052 
L 351.564761 240.388227 
L 352.99193 240.388227 
L 352.99193 240.101521 
L 353.705515 240.101521 
L 353.705515 239.490713 
L 357.273438 239.490713 
L 357.273438 239.814815 
L 357.987022 239.814815 
L 357.987022 240.388227 
L 372.258713 240.498959 
L 372.258713 240.957709 
L 374.399467 240.957709 
L 374.399467 241.519677 
L 388.671158 241.527593 
L 388.671158 242.06482 
L 388.671158 242.06482 
" style="fill:none;stroke:#1f77b4;stroke-linecap:square;stroke-width:1.5;"/>
   </g>
   <g id="line2d_13">
    <path clip-path="url(#pfcef13ad6b)" d="M 75.407537 210.522239 
L 76.121121 210.522239 
L 76.121121 211.060788 
L 76.834706 211.060788 
L 76.834706 211.450527 
L 77.54829 211.450527 
L 77.54829 212.045765 
L 78.261875 212.045765 
L 78.261875 212.825244 
L 78.97546 212.825244 
L 78.97546 213.080347 
L 79.689044 213.080347 
L 79.689044 214.107841 
L 80.402629 214.107841 
L 80.402629 214.844803 
L 81.116213 214.844803 
L 81.116213 214.632218 
L 81.829798 214.632218 
L 81.829798 213.966118 
L 82.543382 213.966118 
L 82.543382 214.143272 
L 83.256967 214.143272 
L 83.256967 211.797749 
L 84.684136 211.762319 
L 84.684136 212.626832 
L 86.111305 212.633918 
L 86.111305 213.179553 
L 87.538474 213.257501 
L 87.538474 213.675585 
L 88.252059 213.675585 
L 88.252059 214.936923 
L 88.965643 214.936923 
L 88.965643 215.574679 
L 89.679228 215.574679 
L 89.679228 216.240779 
L 91.106397 216.191176 
L 91.106397 216.446278 
L 91.819982 216.446278 
L 91.819982 216.134486 
L 92.533566 216.134486 
L 92.533566 214.94401 
L 93.960735 214.908579 
L 93.960735 215.525076 
L 94.67432 215.525076 
L 94.67432 214.972354 
L 96.101489 215.021958 
L 96.101489 215.751833 
L 96.815074 215.751833 
L 96.815074 215.064475 
L 98.242243 215.078647 
L 98.242243 214.816459 
L 98.955827 214.816459 
L 98.955827 214.455064 
L 99.669412 214.455064 
L 99.669412 213.852739 
L 100.382996 213.852739 
L 100.382996 214.001549 
L 101.096581 214.001549 
L 101.096581 213.172467 
L 101.810165 213.172467 
L 101.810165 212.896106 
L 102.52375 212.896106 
L 102.52375 214.915665 
L 103.237335 214.915665 
L 103.237335 214.178703 
L 103.950919 214.178703 
L 103.950919 215.284146 
L 104.664504 215.284146 
L 104.664504 216.807673 
L 105.378088 216.807673 
L 105.378088 216.60926 
L 106.091673 216.60926 
L 106.091673 215.61011 
L 106.805257 215.61011 
L 106.805257 214.483408 
L 107.518842 214.483408 
L 107.518842 213.661413 
L 108.232427 213.661413 
L 108.232427 213.179553 
L 108.946011 213.179553 
L 108.946011 212.201661 
L 109.659596 212.201661 
L 109.659596 212.747296 
L 110.37318 212.747296 
L 110.37318 212.591401 
L 111.086765 212.591401 
L 111.086765 212.98114 
L 111.800349 212.98114 
L 111.800349 212.726038 
L 112.513934 212.726038 
L 112.513934 212.959882 
L 113.227518 212.959882 
L 113.227518 213.307104 
L 113.941103 213.307104 
L 113.941103 211.83318 
L 114.654688 211.83318 
L 114.654688 210.224619 
L 116.081857 210.146672 
L 116.081857 211.875697 
L 116.795441 211.875697 
L 116.795441 209.40971 
L 117.509026 209.40971 
L 117.509026 208.83573 
L 118.22261 208.83573 
L 118.22261 204.428131 
L 118.936195 204.428131 
L 118.936195 201.742472 
L 119.649779 201.742472 
L 119.649779 199.163106 
L 120.363364 199.163106 
L 120.363364 197.738785 
L 121.076949 197.738785 
L 121.076949 192.409984 
L 121.790533 192.409984 
L 121.790533 187.449664 
L 122.504118 187.449664 
L 122.504118 185.947396 
L 123.217702 185.947396 
L 123.217702 183.49558 
L 123.931287 183.49558 
L 123.931287 177.769954 
L 124.644871 177.769954 
L 124.644871 174.81502 
L 125.358456 174.81502 
L 125.358456 168.18945 
L 126.07204 168.18945 
L 126.07204 163.250388 
L 126.785625 163.250388 
L 126.785625 159.430942 
L 127.49921 159.430942 
L 127.49921 155.179239 
L 128.212794 155.179239 
L 128.212794 149.715801 
L 128.926379 149.715801 
L 128.926379 144.946807 
L 129.639963 144.946807 
L 129.639963 140.971465 
L 130.353548 140.971465 
L 130.353548 133.474296 
L 131.067132 133.474296 
L 131.067132 124.042601 
L 131.780717 124.042601 
L 131.780717 114.695941 
L 132.494302 114.695941 
L 132.494302 107.425529 
L 133.207886 107.425529 
L 133.207886 99.517362 
L 133.921471 99.517362 
L 133.921471 94.061009 
L 134.635055 94.061009 
L 134.635055 90.170701 
L 135.34864 90.170701 
L 135.34864 87.591335 
L 136.062224 87.591335 
L 136.062224 80.710662 
L 136.775809 80.710662 
L 136.775809 76.685717 
L 137.489393 76.685717 
L 137.489393 74.34728 
L 138.202978 74.34728 
L 138.202978 69.968026 
L 138.916563 69.968026 
L 138.916563 68.260259 
L 139.630147 68.260259 
L 139.630147 64.412468 
L 140.343732 64.412468 
L 140.343732 59.983611 
L 141.057316 59.983611 
L 141.057316 52.394321 
L 141.770901 52.394321 
L 141.770901 48.829977 
L 142.484485 48.829977 
L 142.484485 46.470281 
L 143.19807 46.470281 
L 143.19807 46.774987 
L 143.911654 46.774987 
L 143.911654 44.443636 
L 144.625239 44.443636 
L 144.625239 45.740406 
L 145.338824 45.740406 
L 145.338824 47.682017 
L 146.052408 47.682017 
L 146.052408 51.940806 
L 146.765993 51.940806 
L 146.765993 54.676068 
L 147.479577 54.676068 
L 147.479577 56.589334 
L 148.193162 56.589334 
L 148.193162 57.723122 
L 148.906746 57.723122 
L 148.906746 60.61428 
L 149.620331 60.61428 
L 149.620331 65.390359 
L 150.333916 65.390359 
L 150.333916 67.835089 
L 151.0475 67.835089 
L 151.0475 72.065533 
L 151.761085 72.065533 
L 151.761085 79.803632 
L 152.474669 79.803632 
L 152.474669 88.427503 
L 153.188254 88.427503 
L 153.188254 96.087655 
L 153.901838 96.087655 
L 153.901838 102.911638 
L 154.615423 102.911638 
L 154.615423 109.204158 
L 155.329007 109.204158 
L 155.329007 113.165328 
L 156.042592 113.165328 
L 156.042592 117.126498 
L 156.756177 117.126498 
L 156.756177 122.979675 
L 157.469761 122.979675 
L 157.469761 124.361479 
L 158.183346 124.361479 
L 158.183346 120.506602 
L 158.89693 120.506602 
L 158.89693 125.495266 
L 159.610515 125.495266 
L 159.610515 129.321799 
L 160.324099 129.321799 
L 160.324099 136.521349 
L 161.037684 136.521349 
L 161.037684 144.805084 
L 161.751268 144.805084 
L 161.751268 152.486494 
L 162.464853 152.486494 
L 162.464853 161.315863 
L 163.178438 161.315863 
L 163.178438 168.919326 
L 163.892022 168.919326 
L 163.892022 174.255213 
L 164.605607 174.255213 
L 164.605607 178.003797 
L 165.319191 178.003797 
L 165.319191 182.028743 
L 166.032776 182.028743 
L 166.032776 185.897793 
L 166.74636 185.897793 
L 166.74636 187.449664 
L 167.459945 187.449664 
L 167.459945 189.122001 
L 168.173529 189.122001 
L 168.173529 192.360381 
L 168.887114 192.360381 
L 168.887114 195.761743 
L 169.600699 195.761743 
L 169.600699 200.750408 
L 170.314283 200.750408 
L 170.314283 202.33771 
L 171.027868 202.33771 
L 171.027868 204.534424 
L 171.741452 204.534424 
L 171.741452 207.184652 
L 172.455037 207.184652 
L 172.455037 209.310503 
L 173.168621 209.310503 
L 173.168621 210.550583 
L 173.882206 210.550583 
L 173.882206 212.641004 
L 174.595791 212.641004 
L 174.595791 213.094519 
L 175.309375 213.094519 
L 175.309375 214.419633 
L 176.02296 214.419633 
L 176.02296 216.821845 
L 176.736544 216.821845 
L 176.736544 217.565893 
L 177.450129 217.565893 
L 177.450129 218.27451 
L 178.163713 218.27451 
L 178.163713 221.512891 
L 178.877298 221.512891 
L 178.877298 229.477747 
L 179.590882 229.477747 
L 179.590882 232.687783 
L 180.304467 232.687783 
L 180.304467 233.722364 
L 181.018052 233.722364 
L 181.018052 234.530188 
L 183.158805 234.530188 
L 183.158805 235.295494 
L 183.87239 235.295494 
L 183.87239 236.578091 
L 184.585974 236.578091 
L 184.585974 237.109554 
L 185.299559 237.109554 
L 185.299559 237.591414 
L 186.013143 237.591414 
L 186.013143 237.704793 
L 186.726728 237.704793 
L 186.726728 238.101618 
L 187.440313 238.101618 
L 187.440313 238.300031 
L 188.153897 238.300031 
L 188.153897 239.249578 
L 188.867482 239.249578 
L 188.867482 239.398388 
L 189.581066 239.398388 
L 189.581066 239.632231 
L 193.148989 239.603887 
L 193.148989 239.122027 
L 194.576158 239.122027 
L 194.576158 239.277923 
L 195.289743 239.277923 
L 195.289743 239.476335 
L 196.003327 239.476335 
L 196.003327 239.632231 
L 197.430496 239.582628 
L 197.430496 239.277923 
L 198.144081 239.277923 
L 198.144081 239.122027 
L 201.712004 239.122027 
L 201.712004 239.008648 
L 202.425588 239.008648 
L 202.425588 238.611823 
L 204.566342 238.611823 
L 204.566342 238.122877 
L 205.279927 238.122877 
L 205.279927 237.591414 
L 206.707096 237.591414 
L 206.707096 237.159157 
L 207.42068 237.159157 
L 207.42068 236.571005 
L 208.847849 236.571005 
L 208.847849 236.422196 
L 209.561434 236.422196 
L 209.561434 236.060801 
L 211.702188 236.018284 
L 211.702188 235.387615 
L 212.415772 235.387615 
L 212.415772 235.040392 
L 213.129357 235.040392 
L 213.129357 234.870324 
L 213.842941 234.870324 
L 213.842941 235.189202 
L 214.556526 235.189202 
L 214.556526 235.550596 
L 215.27011 235.550596 
L 215.27011 235.408873 
L 215.983695 235.408873 
L 215.983695 235.146685 
L 216.69728 235.146685 
L 216.69728 235.550596 
L 217.410864 235.550596 
L 217.410864 234.856152 
L 218.124449 234.856152 
L 218.124449 234.530188 
L 218.838033 234.530188 
L 218.838033 235.040392 
L 223.119541 235.040392 
L 223.119541 235.493907 
L 224.54671 235.550596 
L 224.54671 234.707342 
L 225.260294 234.707342 
L 225.260294 234.296344 
L 225.973879 234.296344 
L 225.973879 234.764031 
L 226.687463 234.764031 
L 226.687463 234.175879 
L 228.114632 234.175879 
L 228.114632 234.409723 
L 228.828217 234.409723 
L 228.828217 234.019983 
L 230.255386 234.019983 
L 230.255386 234.608136 
L 230.968971 234.608136 
L 230.968971 235.040392 
L 231.682555 235.040392 
L 231.682555 234.778204 
L 232.39614 234.778204 
L 232.39614 234.912841 
L 233.109724 234.912841 
L 233.109724 235.54351 
L 234.536894 235.550596 
L 234.536894 236.060801 
L 235.964063 236.060801 
L 235.964063 235.855302 
L 236.677647 235.855302 
L 236.677647 236.032456 
L 238.104816 236.060801 
L 238.104816 236.415109 
L 238.818401 236.415109 
L 238.818401 237.300881 
L 239.531985 237.300881 
L 239.531985 237.095382 
L 244.527077 237.08121 
L 244.527077 236.755246 
L 245.240662 236.755246 
L 245.240662 236.627695 
L 245.954246 236.627695 
L 245.954246 237.336312 
L 246.667831 237.336312 
L 246.667831 237.591414 
L 247.381416 237.591414 
L 247.381416 237.775654 
L 248.095 237.775654 
L 248.095 238.101618 
L 249.522169 238.02367 
L 249.522169 238.335462 
L 250.235754 238.335462 
L 250.235754 237.591414 
L 250.949338 237.591414 
L 250.949338 237.258364 
L 251.662923 237.258364 
L 251.662923 235.93325 
L 252.376508 235.93325 
L 252.376508 235.642717 
L 253.090092 235.642717 
L 253.090092 236.060801 
L 257.371599 236.096232 
L 257.371599 236.571005 
L 260.939522 236.571005 
L 260.939522 236.067887 
L 261.653107 236.067887 
L 261.653107 235.217546 
L 262.366691 235.217546 
L 262.366691 234.898669 
L 263.080276 234.898669 
L 263.080276 234.112104 
L 265.22103 234.019983 
L 265.22103 233.942036 
L 265.934614 233.942036 
L 265.934614 234.296344 
L 266.648199 234.296344 
L 266.648199 234.530188 
L 268.075368 234.530188 
L 268.075368 234.9341 
L 269.502537 235.040392 
L 269.502537 235.295494 
L 270.216121 235.295494 
L 270.216121 234.345947 
L 270.929706 234.345947 
L 270.929706 234.019983 
L 271.643291 234.019983 
L 271.643291 234.168793 
L 272.356875 234.168793 
L 272.356875 235.224633 
L 273.07046 235.224633 
L 273.07046 235.78444 
L 273.784044 235.78444 
L 273.784044 235.550596 
L 276.638383 235.550596 
L 276.638383 234.912841 
L 277.351967 234.912841 
L 277.351967 234.019983 
L 279.492721 233.991639 
L 279.492721 233.509779 
L 280.206305 233.509779 
L 280.206305 233.318452 
L 280.91989 233.318452 
L 280.91989 232.921627 
L 281.633474 232.921627 
L 281.633474 233.162557 
L 282.347059 233.162557 
L 282.347059 233.78614 
L 283.060644 233.78614 
L 283.060644 234.019983 
L 283.774228 234.019983 
L 283.774228 234.749859 
L 284.487813 234.749859 
L 284.487813 234.112104 
L 285.201397 234.112104 
L 285.201397 232.744473 
L 285.914982 232.744473 
L 285.914982 232.553146 
L 286.628566 232.553146 
L 286.628566 232.999575 
L 287.342151 232.999575 
L 287.342151 232.694869 
L 288.055735 232.694869 
L 288.055735 232.48937 
L 290.910074 232.48937 
L 290.910074 233.183815 
L 291.623658 233.183815 
L 291.623658 234.516015 
L 292.337243 234.516015 
L 292.337243 235.040392 
L 293.050827 235.040392 
L 293.050827 234.78529 
L 293.764412 234.78529 
L 293.764412 234.593963 
L 294.477997 234.593963 
L 294.477997 235.040392 
L 297.332335 235.040392 
L 297.332335 235.238805 
L 298.045919 235.238805 
L 298.045919 236.500143 
L 300.186673 236.571005 
L 300.186673 236.939486 
L 300.900258 236.939486 
L 300.900258 237.102468 
L 301.613842 237.102468 
L 301.613842 237.655189 
L 302.327427 237.655189 
L 302.327427 238.101618 
L 303.041011 238.101618 
L 303.041011 237.563069 
L 305.181765 237.591414 
L 305.181765 237.874861 
L 305.895349 237.874861 
L 305.895349 239.681834 
L 306.608934 239.681834 
L 306.608934 239.858989 
L 307.322519 239.858989 
L 307.322519 239.632231 
L 309.463272 239.610973 
L 309.463272 239.122027 
L 310.176857 239.122027 
L 310.176857 238.937786 
L 310.890441 238.937786 
L 310.890441 238.611823 
L 313.031195 238.611823 
L 313.031195 238.292945 
L 313.74478 238.292945 
L 313.74478 237.676448 
L 315.171949 237.768568 
L 315.171949 237.08121 
L 317.312702 237.08121 
L 317.312702 236.705642 
L 318.026287 236.705642 
L 318.026287 236.571005 
L 318.739872 236.571005 
L 318.739872 236.195438 
L 319.453456 236.195438 
L 319.453456 235.550596 
L 323.021379 235.500993 
L 323.021379 235.040392 
L 323.734963 235.040392 
L 323.734963 235.252977 
L 324.448548 235.252977 
L 324.448548 235.550596 
L 327.302886 235.550596 
L 327.302886 235.663975 
L 328.016471 235.663975 
L 328.016471 236.060801 
L 328.730055 236.060801 
L 328.730055 235.78444 
L 329.44364 235.78444 
L 329.44364 235.387615 
L 330.870809 235.401787 
L 330.870809 235.564769 
L 331.584394 235.564769 
L 331.584394 236.060801 
L 333.011563 235.961594 
L 333.011563 235.550596 
L 334.438732 235.656889 
L 334.438732 236.443454 
L 335.152316 236.443454 
L 335.152316 236.684384 
L 335.865901 236.684384 
L 335.865901 237.470949 
L 336.579486 237.470949 
L 336.579486 237.591414 
L 338.006655 237.591414 
L 338.006655 237.796913 
L 338.720239 237.796913 
L 338.720239 238.101618 
L 340.147408 238.179566 
L 340.147408 238.512616 
L 341.574577 238.470099 
L 341.574577 238.101618 
L 343.715331 238.101618 
L 343.715331 238.491358 
L 344.428916 238.491358 
L 344.428916 238.65434 
L 345.1425 238.65434 
L 345.1425 239.122027 
L 345.856085 239.122027 
L 345.856085 238.555133 
L 346.569669 238.555133 
L 346.569669 238.101618 
L 350.137592 238.207911 
L 350.137592 238.83858 
L 350.851177 238.83858 
L 350.851177 239.625145 
L 353.705515 239.632231 
L 353.705515 240.071574 
L 360.841361 240.142436 
L 360.841361 240.539261 
L 361.554945 240.539261 
L 361.554945 240.65264 
L 362.26853 240.65264 
L 362.26853 241.1345 
L 364.409283 241.063638 
L 364.409283 240.432969 
L 365.122868 240.432969 
L 365.122868 240.142436 
L 366.550037 240.142436 
L 366.550037 240.369193 
L 367.263622 240.369193 
L 367.263622 241.162844 
L 385.103236 241.162844 
L 385.103236 241.47433 
L 385.81682 241.47433 
L 385.81682 241.812944 
L 388.671158 241.812944 
L 388.671158 242.116364 
L 388.671158 242.116364 
" style="fill:none;stroke:#ff7f0e;stroke-linecap:square;stroke-width:1.5;"/>
   </g>
   <g id="line2d_14">
    <path clip-path="url(#pfcef13ad6b)" d="M 75.407537 83.99156 
L 76.121121 83.99156 
L 76.121121 89.758965 
L 76.834706 89.758965 
L 76.834706 123.539483 
L 77.54829 123.539483 
L 77.54829 99.096669 
L 78.261875 99.096669 
L 78.261875 83.99156 
L 78.97546 83.99156 
L 78.97546 85.914028 
L 79.689044 85.914028 
L 79.689044 97.174201 
L 80.402629 97.174201 
L 80.402629 83.99156 
L 81.116213 83.99156 
L 81.116213 90.857519 
L 81.829798 90.857519 
L 81.829798 83.167645 
L 82.543382 83.167645 
L 82.543382 83.99156 
L 87.538474 83.99156 
L 87.538474 102.666968 
L 88.252059 102.666968 
L 88.252059 92.505349 
L 88.965643 92.505349 
L 88.965643 83.99156 
L 91.819982 83.99156 
L 91.819982 91.406795 
L 92.533566 91.406795 
L 92.533566 103.765521 
L 93.247151 103.765521 
L 93.247151 83.99156 
L 93.960735 83.99156 
L 93.960735 87.012582 
L 94.67432 87.012582 
L 94.67432 83.99156 
L 98.242243 83.99156 
L 98.242243 95.251732 
L 98.955827 95.251732 
L 98.955827 123.539483 
L 101.096581 123.539483 
L 101.096581 143.313445 
L 102.52375 143.313445 
L 102.52375 154.298979 
L 103.237335 154.298979 
L 103.237335 153.475064 
L 103.950919 153.475064 
L 103.950919 126.011228 
L 104.664504 126.011228 
L 104.664504 123.539483 
L 108.232427 123.539483 
L 108.232427 108.434373 
L 108.946011 108.434373 
L 108.946011 68.88645 
L 109.659596 68.88645 
L 109.659596 83.99156 
L 113.941103 83.99156 
L 113.941103 97.174201 
L 114.654688 97.174201 
L 114.654688 91.956072 
L 115.368272 91.956072 
L 115.368272 97.448839 
L 116.081857 97.448839 
L 116.081857 103.765521 
L 117.509026 103.765521 
L 117.509026 94.153179 
L 118.22261 94.153179 
L 118.22261 64.217598 
L 121.790533 64.217598 
L 121.790533 57.077001 
L 122.504118 57.077001 
L 122.504118 44.443636 
L 123.931287 44.443636 
L 123.931287 59.548746 
L 124.644871 59.548746 
L 124.644871 94.702456 
L 125.358456 94.702456 
L 125.358456 103.765521 
L 128.926379 103.765521 
L 128.926379 106.237267 
L 129.639963 106.237267 
L 129.639963 155.946809 
L 130.353548 155.946809 
L 130.353548 163.087406 
L 135.34864 163.087406 
L 135.34864 168.305535 
L 136.062224 168.305535 
L 136.062224 182.861368 
L 138.916563 182.861368 
L 138.916563 218.838993 
L 139.630147 218.838993 
L 139.630147 222.409291 
L 141.770901 222.409291 
L 141.770901 214.444779 
L 142.484485 214.444779 
L 142.484485 184.509198 
L 143.19807 184.509198 
L 143.19807 202.63533 
L 143.911654 202.63533 
L 143.911654 189.727327 
L 144.625239 189.727327 
L 144.625239 182.861368 
L 151.761085 182.861368 
L 151.761085 166.932343 
L 152.474669 166.932343 
L 152.474669 163.087406 
L 153.901838 163.087406 
L 153.901838 148.256935 
L 154.615423 148.256935 
L 154.615423 143.313445 
L 156.756177 143.313445 
L 156.756177 124.912675 
L 157.469761 124.912675 
L 157.469761 123.539483 
L 161.037684 123.539483 
L 161.037684 112.27931 
L 161.751268 112.27931 
L 161.751268 83.99156 
L 162.464853 83.99156 
L 162.464853 85.364751 
L 163.178438 85.364751 
L 163.178438 115.849609 
L 163.892022 115.849609 
L 163.892022 123.539483 
L 164.605607 123.539483 
L 164.605607 129.856165 
L 165.319191 129.856165 
L 165.319191 143.313445 
L 168.887114 143.313445 
L 168.887114 127.109782 
L 169.600699 127.109782 
L 169.600699 123.539483 
L 171.027868 123.539483 
L 171.027868 114.476417 
L 171.741452 114.476417 
L 171.741452 103.765521 
L 172.455037 103.765521 
L 172.455037 113.103225 
L 173.168621 113.103225 
L 173.168621 123.539483 
L 173.882206 123.539483 
L 173.882206 104.864075 
L 174.595791 104.864075 
L 174.595791 112.004672 
L 175.309375 112.004672 
L 175.309375 123.539483 
L 177.450129 123.539483 
L 177.450129 135.348932 
L 178.163713 135.348932 
L 178.163713 143.313445 
L 181.018052 143.313445 
L 181.018052 141.390976 
L 181.731636 141.390976 
L 181.731636 124.08876 
L 182.445221 124.08876 
L 182.445221 160.615661 
L 183.158805 160.615661 
L 183.158805 163.087406 
L 185.299559 163.087406 
L 185.299559 151.552595 
L 186.013143 151.552595 
L 186.013143 123.539483 
L 187.440313 123.539483 
L 187.440313 115.849609 
L 188.153897 115.849609 
L 188.153897 103.765521 
L 189.581066 103.765521 
L 189.581066 113.377864 
L 190.294651 113.377864 
L 190.294651 123.539483 
L 191.72182 123.539483 
L 191.72182 126.011228 
L 192.435405 126.011228 
L 192.435405 143.313445 
L 194.576158 143.313445 
L 194.576158 146.334467 
L 195.289743 146.334467 
L 195.289743 143.313445 
L 196.003327 143.313445 
L 196.003327 130.954719 
L 196.716912 130.954719 
L 196.716912 123.539483 
L 200.998419 123.539483 
L 200.998419 120.793099 
L 201.712004 120.793099 
L 201.712004 103.765521 
L 202.425588 103.765521 
L 202.425588 118.870631 
L 203.139173 118.870631 
L 203.139173 123.539483 
L 206.707096 123.539483 
L 206.707096 153.749702 
L 207.42068 153.749702 
L 207.42068 123.539483 
L 208.134265 123.539483 
L 208.134265 124.638036 
L 208.847849 124.638036 
L 208.847849 143.313445 
L 213.842941 143.313445 
L 213.842941 141.116338 
L 214.556526 141.116338 
L 214.556526 123.539483 
L 215.27011 123.539483 
L 215.27011 126.011228 
L 215.983695 126.011228 
L 215.983695 143.313445 
L 216.69728 143.313445 
L 216.69728 149.08085 
L 217.410864 149.08085 
L 217.410864 163.087406 
L 222.405956 163.087406 
L 222.405956 179.016431 
L 223.119541 179.016431 
L 223.119541 171.326557 
L 223.833125 171.326557 
L 223.833125 163.087406 
L 225.973879 163.087406 
L 225.973879 147.982297 
L 226.687463 147.982297 
L 226.687463 143.313445 
L 228.114632 143.313445 
L 228.114632 177.368601 
L 228.828217 177.368601 
L 228.828217 182.861368 
L 229.541802 182.861368 
L 229.541802 180.664261 
L 230.255386 180.664261 
L 230.255386 163.087406 
L 235.250478 163.087406 
L 235.250478 178.467154 
L 235.964063 178.467154 
L 235.964063 182.861368 
L 237.391232 182.861368 
L 237.391232 165.559152 
L 238.104816 165.559152 
L 238.104816 163.087406 
L 243.813493 163.087406 
L 243.813493 168.030897 
L 244.527077 168.030897 
L 244.527077 182.861368 
L 246.667831 182.861368 
L 246.667831 191.375157 
L 247.381416 191.375157 
L 247.381416 202.63533 
L 248.095 202.63533 
L 248.095 196.867924 
L 248.808585 196.867924 
L 248.808585 182.861368 
L 250.949338 182.861368 
L 250.949338 198.241116 
L 251.662923 198.241116 
L 251.662923 202.63533 
L 258.085184 202.63533 
L 258.085184 213.346226 
L 258.798769 213.346226 
L 258.798769 222.409291 
L 264.507445 222.409291 
L 264.507445 202.909968 
L 265.22103 202.909968 
L 265.22103 202.63533 
L 269.502537 202.63533 
L 269.502537 221.585376 
L 270.216121 221.585376 
L 270.216121 222.409291 
L 276.638383 222.409291 
L 276.638383 205.107075 
L 277.351967 205.107075 
L 277.351967 202.63533 
L 282.347059 202.63533 
L 282.347059 202.086053 
L 283.060644 202.086053 
L 283.060644 163.087406 
L 285.201397 163.087406 
L 285.201397 160.066384 
L 285.914982 160.066384 
L 285.914982 145.510552 
L 286.628566 145.510552 
L 286.628566 142.214891 
L 287.342151 142.214891 
L 287.342151 123.539483 
L 289.482905 123.539483 
L 289.482905 109.807565 
L 290.196489 109.807565 
L 290.196489 85.364751 
L 290.910074 85.364751 
L 290.910074 83.99156 
L 297.332335 83.99156 
L 297.332335 94.702456 
L 298.045919 94.702456 
L 298.045919 103.765521 
L 298.759504 103.765521 
L 298.759504 89.758965 
L 299.473088 89.758965 
L 299.473088 83.99156 
L 300.186673 83.99156 
L 300.186673 78.773431 
L 300.900258 78.773431 
L 300.900258 64.217598 
L 303.754596 64.217598 
L 303.754596 91.132157 
L 304.46818 91.132157 
L 304.46818 103.765521 
L 305.181765 103.765521 
L 305.181765 83.99156 
L 305.895349 83.99156 
L 305.895349 93.329264 
L 306.608934 93.329264 
L 306.608934 114.751056 
L 307.322519 114.751056 
L 307.322519 123.539483 
L 308.036103 123.539483 
L 308.036103 137.820678 
L 308.749688 137.820678 
L 308.749688 143.313445 
L 310.176857 143.313445 
L 310.176857 150.454042 
L 310.890441 150.454042 
L 310.890441 174.896856 
L 311.604026 174.896856 
L 311.604026 182.861368 
L 313.031195 182.861368 
L 313.031195 169.12945 
L 313.74478 169.12945 
L 313.74478 163.087406 
L 319.453456 163.087406 
L 319.453456 131.503995 
L 320.167041 131.503995 
L 320.167041 134.250379 
L 320.880625 134.250379 
L 320.880625 123.539483 
L 321.59421 123.539483 
L 321.59421 141.940253 
L 322.307794 141.940253 
L 322.307794 143.313445 
L 325.875717 143.313445 
L 325.875717 156.496086 
L 326.589302 156.496086 
L 326.589302 163.087406 
L 331.584394 163.087406 
L 331.584394 145.78519 
L 332.297978 145.78519 
L 332.297978 143.313445 
L 333.725147 143.313445 
L 333.725147 134.250379 
L 334.438732 134.250379 
L 334.438732 143.313445 
L 340.147408 143.313445 
L 340.147408 169.12945 
L 340.860993 169.12945 
L 340.860993 185.333113 
L 341.574577 185.333113 
L 341.574577 202.63533 
L 352.278346 202.63533 
L 352.278346 213.346226 
L 352.99193 213.346226 
L 352.99193 222.409291 
L 354.419099 222.409291 
L 354.419099 232.021634 
L 355.132684 232.021634 
L 355.132684 233.944102 
L 355.846269 233.944102 
L 355.846269 212.522311 
L 356.559853 212.522311 
L 356.559853 202.63533 
L 361.554945 202.63533 
L 361.554945 197.691839 
L 362.26853 197.691839 
L 362.26853 182.861368 
L 365.122868 182.861368 
L 365.122868 172.699749 
L 365.836452 172.699749 
L 365.836452 163.087406 
L 375.826636 163.087406 
L 375.826636 164.134372 
L 376.540221 164.134372 
L 376.540221 177.745347 
L 377.253805 177.745347 
L 377.253805 188.217098 
L 382.962482 188.217098 
L 382.962482 199.756656 
L 383.676066 199.756656 
L 383.676066 200.805707 
L 385.81682 200.805707 
L 385.81682 203.080972 
L 386.530405 203.080972 
L 386.530405 213.407174 
L 388.671158 213.407174 
L 388.671158 236.985389 
L 388.671158 236.985389 
" style="fill:none;stroke:#2ca02c;stroke-linecap:square;stroke-width:1.5;"/>
   </g>
   <g id="patch_3">
    <path d="M 54 252 
L 54 34.56 
" style="fill:none;stroke:#000000;stroke-linecap:square;stroke-linejoin:miter;stroke-width:0.8;"/>
   </g>
   <g id="patch_4">
    <path d="M 388.8 252 
L 388.8 34.56 
" style="fill:none;stroke:#000000;stroke-linecap:square;stroke-linejoin:miter;stroke-width:0.8;"/>
   </g>
   <g id="patch_5">
    <path d="M 54 252 
L 388.8 252 
" style="fill:none;stroke:#000000;stroke-linecap:square;stroke-linejoin:miter;stroke-width:0.8;"/>
   </g>
   <g id="patch_6">
    <path d="M 54 34.56 
L 388.8 34.56 
" style="fill:none;stroke:#000000;stroke-linecap:square;stroke-linejoin:miter;stroke-width:0.8;"/>
   </g>
   <g id="legend_1">
    <g id="patch_7">
     <path d="M 332.254688 86.594375 
L 381.8 86.594375 
Q 383.8 86.594375 383.8 84.594375 
L 383.8 41.56 
Q 383.8 39.56 381.8 39.56 
L 332.254688 39.56 
Q 330.254688 39.56 330.254688 41.56 
L 330.254688 84.594375 
Q 330.254688 86.594375 332.254688 86.594375 
z
" style="fill:#ffffff;opacity:0.8;stroke:#cccccc;stroke-linejoin:miter;"/>
    </g>
    <g id="line2d_15">
     <path d="M 334.254688 47.658438 
L 354.254688 47.658438 
" style="fill:none;stroke:#1f77b4;stroke-linecap:square;stroke-width:1.5;"/>
    </g>
    <g id="line2d_16"/>
    <g id="text_13">
     <!-- vac -->
     <defs>
      <path d="M 2.984375 54.6875 
L 12.5 54.6875 
L 29.59375 8.796875 
L 46.6875 54.6875 
L 56.203125 54.6875 
L 35.6875 0 
L 23.484375 0 
z
" id="DejaVuSans-76"/>
      <path d="M 34.28125 27.484375 
Q 23.390625 27.484375 19.1875 25 
Q 14.984375 22.515625 14.984375 16.5 
Q 14.984375 11.71875 18.140625 8.90625 
Q 21.296875 6.109375 26.703125 6.109375 
Q 34.1875 6.109375 38.703125 11.40625 
Q 43.21875 16.703125 43.21875 25.484375 
L 43.21875 27.484375 
z
M 52.203125 31.203125 
L 52.203125 0 
L 43.21875 0 
L 43.21875 8.296875 
Q 40.140625 3.328125 35.546875 0.953125 
Q 30.953125 -1.421875 24.3125 -1.421875 
Q 15.921875 -1.421875 10.953125 3.296875 
Q 6 8.015625 6 15.921875 
Q 6 25.140625 12.171875 29.828125 
Q 18.359375 34.515625 30.609375 34.515625 
L 43.21875 34.515625 
L 43.21875 35.40625 
Q 43.21875 41.609375 39.140625 45 
Q 35.0625 48.390625 27.6875 48.390625 
Q 23 48.390625 18.546875 47.265625 
Q 14.109375 46.140625 10.015625 43.890625 
L 10.015625 52.203125 
Q 14.9375 54.109375 19.578125 55.046875 
Q 24.21875 56 28.609375 56 
Q 40.484375 56 46.34375 49.84375 
Q 52.203125 43.703125 52.203125 31.203125 
z
" id="DejaVuSans-61"/>
      <path d="M 48.78125 52.59375 
L 48.78125 44.1875 
Q 44.96875 46.296875 41.140625 47.34375 
Q 37.3125 48.390625 33.40625 48.390625 
Q 24.65625 48.390625 19.8125 42.84375 
Q 14.984375 37.3125 14.984375 27.296875 
Q 14.984375 17.28125 19.8125 11.734375 
Q 24.65625 6.203125 33.40625 6.203125 
Q 37.3125 6.203125 41.140625 7.25 
Q 44.96875 8.296875 48.78125 10.40625 
L 48.78125 2.09375 
Q 45.015625 0.34375 40.984375 -0.53125 
Q 36.96875 -1.421875 32.421875 -1.421875 
Q 20.0625 -1.421875 12.78125 6.34375 
Q 5.515625 14.109375 5.515625 27.296875 
Q 5.515625 40.671875 12.859375 48.328125 
Q 20.21875 56 33.015625 56 
Q 37.15625 56 41.109375 55.140625 
Q 45.0625 54.296875 48.78125 52.59375 
z
" id="DejaVuSans-63"/>
     </defs>
     <g transform="translate(362.254688 51.158438)scale(0.1 -0.1)">
      <use xlink:href="#DejaVuSans-76"/>
      <use x="59.179688" xlink:href="#DejaVuSans-61"/>
      <use x="120.458984" xlink:href="#DejaVuSans-63"/>
     </g>
    </g>
    <g id="line2d_17">
     <path d="M 334.254688 62.336563 
L 354.254688 62.336563 
" style="fill:none;stroke:#ff7f0e;stroke-linecap:square;stroke-width:1.5;"/>
    </g>
    <g id="line2d_18"/>
    <g id="text_14">
     <!-- al -->
     <defs>
      <path d="M 9.421875 75.984375 
L 18.40625 75.984375 
L 18.40625 0 
L 9.421875 0 
z
" id="DejaVuSans-6c"/>
     </defs>
     <g transform="translate(362.254688 65.836563)scale(0.1 -0.1)">
      <use xlink:href="#DejaVuSans-61"/>
      <use x="61.279297" xlink:href="#DejaVuSans-6c"/>
     </g>
    </g>
    <g id="line2d_19">
     <path d="M 334.254688 77.014688 
L 354.254688 77.014688 
" style="fill:none;stroke:#2ca02c;stroke-linecap:square;stroke-width:1.5;"/>
    </g>
    <g id="line2d_20"/>
    <g id="text_15">
     <!-- sn -->
     <defs>
      <path d="M 44.28125 53.078125 
L 44.28125 44.578125 
Q 40.484375 46.53125 36.375 47.5 
Q 32.28125 48.484375 27.875 48.484375 
Q 21.1875 48.484375 17.84375 46.4375 
Q 14.5 44.390625 14.5 40.28125 
Q 14.5 37.15625 16.890625 35.375 
Q 19.28125 33.59375 26.515625 31.984375 
L 29.59375 31.296875 
Q 39.15625 29.25 43.1875 25.515625 
Q 47.21875 21.78125 47.21875 15.09375 
Q 47.21875 7.46875 41.1875 3.015625 
Q 35.15625 -1.421875 24.609375 -1.421875 
Q 20.21875 -1.421875 15.453125 -0.5625 
Q 10.6875 0.296875 5.421875 2 
L 5.421875 11.28125 
Q 10.40625 8.6875 15.234375 7.390625 
Q 20.0625 6.109375 24.8125 6.109375 
Q 31.15625 6.109375 34.5625 8.28125 
Q 37.984375 10.453125 37.984375 14.40625 
Q 37.984375 18.0625 35.515625 20.015625 
Q 33.0625 21.96875 24.703125 23.78125 
L 21.578125 24.515625 
Q 13.234375 26.265625 9.515625 29.90625 
Q 5.8125 33.546875 5.8125 39.890625 
Q 5.8125 47.609375 11.28125 51.796875 
Q 16.75 56 26.8125 56 
Q 31.78125 56 36.171875 55.265625 
Q 40.578125 54.546875 44.28125 53.078125 
z
" id="DejaVuSans-73"/>
     </defs>
     <g transform="translate(362.254688 80.514688)scale(0.1 -0.1)">
      <use xlink:href="#DejaVuSans-73"/>
      <use x="52.099609" xlink:href="#DejaVuSans-6e"/>
     </g>
    </g>
   </g>
  </g>
 </g>
 <defs>
  <clipPath id="pfcef13ad6b">
   <rect height="217.44" width="334.8" x="54" y="34.56"/>
  </clipPath>
 </defs>
</svg>
