<?xml version="1.0" encoding="utf-8" standalone="no"?>
<!DOCTYPE svg PUBLIC "-//W3C//DTD SVG 1.1//EN"
  "http://www.w3.org/Graphics/SVG/1.1/DTD/svg11.dtd">
<!-- Created with matplotlib (http://matplotlib.org/) -->
<svg height="288pt" version="1.1" viewBox="0 0 432 288" width="432pt" xmlns="http://www.w3.org/2000/svg" xmlns:xlink="http://www.w3.org/1999/xlink">
 <defs>
  <style type="text/css">
*{stroke-linecap:butt;stroke-linejoin:round;}
  </style>
 </defs>
 <g id="figure_1">
  <g id="patch_1">
   <path d="M 0 288 
L 432 288 
L 432 0 
L 0 0 
z
" style="fill:#ffffff;"/>
  </g>
  <g id="axes_1">
   <g id="patch_2">
    <path d="M 54 252 
L 388.8 252 
L 388.8 34.56 
L 54 34.56 
z
" style="fill:#ffffff;"/>
   </g>
   <g id="matplotlib.axis_1">
    <g id="xtick_1">
     <g id="line2d_1">
      <defs>
       <path d="M 0 0 
L 0 3.5 
" id="m0daf4c4205" style="stroke:#000000;stroke-width:0.8;"/>
      </defs>
      <g>
       <use style="stroke:#000000;stroke-width:0.8;" x="103.366176" xlink:href="#m0daf4c4205" y="252"/>
      </g>
     </g>
     <g id="text_1">
      <!-- 20 -->
      <defs>
       <path d="M 19.1875 8.296875 
L 53.609375 8.296875 
L 53.609375 0 
L 7.328125 0 
L 7.328125 8.296875 
Q 12.9375 14.109375 22.625 23.890625 
Q 32.328125 33.6875 34.8125 36.53125 
Q 39.546875 41.84375 41.421875 45.53125 
Q 43.3125 49.21875 43.3125 52.78125 
Q 43.3125 58.59375 39.234375 62.25 
Q 35.15625 65.921875 28.609375 65.921875 
Q 23.96875 65.921875 18.8125 64.3125 
Q 13.671875 62.703125 7.8125 59.421875 
L 7.8125 69.390625 
Q 13.765625 71.78125 18.9375 73 
Q 24.125 74.21875 28.421875 74.21875 
Q 39.75 74.21875 46.484375 68.546875 
Q 53.21875 62.890625 53.21875 53.421875 
Q 53.21875 48.921875 51.53125 44.890625 
Q 49.859375 40.875 45.40625 35.40625 
Q 44.1875 33.984375 37.640625 27.21875 
Q 31.109375 20.453125 19.1875 8.296875 
z
" id="DejaVuSans-32"/>
       <path d="M 31.78125 66.40625 
Q 24.171875 66.40625 20.328125 58.90625 
Q 16.5 51.421875 16.5 36.375 
Q 16.5 21.390625 20.328125 13.890625 
Q 24.171875 6.390625 31.78125 6.390625 
Q 39.453125 6.390625 43.28125 13.890625 
Q 47.125 21.390625 47.125 36.375 
Q 47.125 51.421875 43.28125 58.90625 
Q 39.453125 66.40625 31.78125 66.40625 
z
M 31.78125 74.21875 
Q 44.046875 74.21875 50.515625 64.515625 
Q 56.984375 54.828125 56.984375 36.375 
Q 56.984375 17.96875 50.515625 8.265625 
Q 44.046875 -1.421875 31.78125 -1.421875 
Q 19.53125 -1.421875 13.0625 8.265625 
Q 6.59375 17.96875 6.59375 36.375 
Q 6.59375 54.828125 13.0625 64.515625 
Q 19.53125 74.21875 31.78125 74.21875 
z
" id="DejaVuSans-30"/>
      </defs>
      <g transform="translate(97.003676 266.598437)scale(0.1 -0.1)">
       <use xlink:href="#DejaVuSans-32"/>
       <use x="63.623047" xlink:href="#DejaVuSans-30"/>
      </g>
     </g>
    </g>
    <g id="xtick_2">
     <g id="line2d_2">
      <g>
       <use style="stroke:#000000;stroke-width:0.8;" x="174.724632" xlink:href="#m0daf4c4205" y="252"/>
      </g>
     </g>
     <g id="text_2">
      <!-- 40 -->
      <defs>
       <path d="M 37.796875 64.3125 
L 12.890625 25.390625 
L 37.796875 25.390625 
z
M 35.203125 72.90625 
L 47.609375 72.90625 
L 47.609375 25.390625 
L 58.015625 25.390625 
L 58.015625 17.1875 
L 47.609375 17.1875 
L 47.609375 0 
L 37.796875 0 
L 37.796875 17.1875 
L 4.890625 17.1875 
L 4.890625 26.703125 
z
" id="DejaVuSans-34"/>
      </defs>
      <g transform="translate(168.362132 266.598437)scale(0.1 -0.1)">
       <use xlink:href="#DejaVuSans-34"/>
       <use x="63.623047" xlink:href="#DejaVuSans-30"/>
      </g>
     </g>
    </g>
    <g id="xtick_3">
     <g id="line2d_3">
      <g>
       <use style="stroke:#000000;stroke-width:0.8;" x="246.083088" xlink:href="#m0daf4c4205" y="252"/>
      </g>
     </g>
     <g id="text_3">
      <!-- 60 -->
      <defs>
       <path d="M 33.015625 40.375 
Q 26.375 40.375 22.484375 35.828125 
Q 18.609375 31.296875 18.609375 23.390625 
Q 18.609375 15.53125 22.484375 10.953125 
Q 26.375 6.390625 33.015625 6.390625 
Q 39.65625 6.390625 43.53125 10.953125 
Q 47.40625 15.53125 47.40625 23.390625 
Q 47.40625 31.296875 43.53125 35.828125 
Q 39.65625 40.375 33.015625 40.375 
z
M 52.59375 71.296875 
L 52.59375 62.3125 
Q 48.875 64.0625 45.09375 64.984375 
Q 41.3125 65.921875 37.59375 65.921875 
Q 27.828125 65.921875 22.671875 59.328125 
Q 17.53125 52.734375 16.796875 39.40625 
Q 19.671875 43.65625 24.015625 45.921875 
Q 28.375 48.1875 33.59375 48.1875 
Q 44.578125 48.1875 50.953125 41.515625 
Q 57.328125 34.859375 57.328125 23.390625 
Q 57.328125 12.15625 50.6875 5.359375 
Q 44.046875 -1.421875 33.015625 -1.421875 
Q 20.359375 -1.421875 13.671875 8.265625 
Q 6.984375 17.96875 6.984375 36.375 
Q 6.984375 53.65625 15.1875 63.9375 
Q 23.390625 74.21875 37.203125 74.21875 
Q 40.921875 74.21875 44.703125 73.484375 
Q 48.484375 72.75 52.59375 71.296875 
z
" id="DejaVuSans-36"/>
      </defs>
      <g transform="translate(239.720588 266.598437)scale(0.1 -0.1)">
       <use xlink:href="#DejaVuSans-36"/>
       <use x="63.623047" xlink:href="#DejaVuSans-30"/>
      </g>
     </g>
    </g>
    <g id="xtick_4">
     <g id="line2d_4">
      <g>
       <use style="stroke:#000000;stroke-width:0.8;" x="317.441544" xlink:href="#m0daf4c4205" y="252"/>
      </g>
     </g>
     <g id="text_4">
      <!-- 80 -->
      <defs>
       <path d="M 31.78125 34.625 
Q 24.75 34.625 20.71875 30.859375 
Q 16.703125 27.09375 16.703125 20.515625 
Q 16.703125 13.921875 20.71875 10.15625 
Q 24.75 6.390625 31.78125 6.390625 
Q 38.8125 6.390625 42.859375 10.171875 
Q 46.921875 13.96875 46.921875 20.515625 
Q 46.921875 27.09375 42.890625 30.859375 
Q 38.875 34.625 31.78125 34.625 
z
M 21.921875 38.8125 
Q 15.578125 40.375 12.03125 44.71875 
Q 8.5 49.078125 8.5 55.328125 
Q 8.5 64.0625 14.71875 69.140625 
Q 20.953125 74.21875 31.78125 74.21875 
Q 42.671875 74.21875 48.875 69.140625 
Q 55.078125 64.0625 55.078125 55.328125 
Q 55.078125 49.078125 51.53125 44.71875 
Q 48 40.375 41.703125 38.8125 
Q 48.828125 37.15625 52.796875 32.3125 
Q 56.78125 27.484375 56.78125 20.515625 
Q 56.78125 9.90625 50.3125 4.234375 
Q 43.84375 -1.421875 31.78125 -1.421875 
Q 19.734375 -1.421875 13.25 4.234375 
Q 6.78125 9.90625 6.78125 20.515625 
Q 6.78125 27.484375 10.78125 32.3125 
Q 14.796875 37.15625 21.921875 38.8125 
z
M 18.3125 54.390625 
Q 18.3125 48.734375 21.84375 45.5625 
Q 25.390625 42.390625 31.78125 42.390625 
Q 38.140625 42.390625 41.71875 45.5625 
Q 45.3125 48.734375 45.3125 54.390625 
Q 45.3125 60.0625 41.71875 63.234375 
Q 38.140625 66.40625 31.78125 66.40625 
Q 25.390625 66.40625 21.84375 63.234375 
Q 18.3125 60.0625 18.3125 54.390625 
z
" id="DejaVuSans-38"/>
      </defs>
      <g transform="translate(311.079044 266.598437)scale(0.1 -0.1)">
       <use xlink:href="#DejaVuSans-38"/>
       <use x="63.623047" xlink:href="#DejaVuSans-30"/>
      </g>
     </g>
    </g>
    <g id="xtick_5">
     <g id="line2d_5">
      <g>
       <use style="stroke:#000000;stroke-width:0.8;" x="388.8" xlink:href="#m0daf4c4205" y="252"/>
      </g>
     </g>
     <g id="text_5">
      <!-- 100 -->
      <defs>
       <path d="M 12.40625 8.296875 
L 28.515625 8.296875 
L 28.515625 63.921875 
L 10.984375 60.40625 
L 10.984375 69.390625 
L 28.421875 72.90625 
L 38.28125 72.90625 
L 38.28125 8.296875 
L 54.390625 8.296875 
L 54.390625 0 
L 12.40625 0 
z
" id="DejaVuSans-31"/>
      </defs>
      <g transform="translate(379.25625 266.598437)scale(0.1 -0.1)">
       <use xlink:href="#DejaVuSans-31"/>
       <use x="63.623047" xlink:href="#DejaVuSans-30"/>
       <use x="127.246094" xlink:href="#DejaVuSans-30"/>
      </g>
     </g>
    </g>
    <g id="text_6">
     <!-- Energy (keV) -->
     <defs>
      <path d="M 9.8125 72.90625 
L 55.90625 72.90625 
L 55.90625 64.59375 
L 19.671875 64.59375 
L 19.671875 43.015625 
L 54.390625 43.015625 
L 54.390625 34.71875 
L 19.671875 34.71875 
L 19.671875 8.296875 
L 56.78125 8.296875 
L 56.78125 0 
L 9.8125 0 
z
" id="DejaVuSans-45"/>
      <path d="M 54.890625 33.015625 
L 54.890625 0 
L 45.90625 0 
L 45.90625 32.71875 
Q 45.90625 40.484375 42.875 44.328125 
Q 39.84375 48.1875 33.796875 48.1875 
Q 26.515625 48.1875 22.3125 43.546875 
Q 18.109375 38.921875 18.109375 30.90625 
L 18.109375 0 
L 9.078125 0 
L 9.078125 54.6875 
L 18.109375 54.6875 
L 18.109375 46.1875 
Q 21.34375 51.125 25.703125 53.5625 
Q 30.078125 56 35.796875 56 
Q 45.21875 56 50.046875 50.171875 
Q 54.890625 44.34375 54.890625 33.015625 
z
" id="DejaVuSans-6e"/>
      <path d="M 56.203125 29.59375 
L 56.203125 25.203125 
L 14.890625 25.203125 
Q 15.484375 15.921875 20.484375 11.0625 
Q 25.484375 6.203125 34.421875 6.203125 
Q 39.59375 6.203125 44.453125 7.46875 
Q 49.3125 8.734375 54.109375 11.28125 
L 54.109375 2.78125 
Q 49.265625 0.734375 44.1875 -0.34375 
Q 39.109375 -1.421875 33.890625 -1.421875 
Q 20.796875 -1.421875 13.15625 6.1875 
Q 5.515625 13.8125 5.515625 26.8125 
Q 5.515625 40.234375 12.765625 48.109375 
Q 20.015625 56 32.328125 56 
Q 43.359375 56 49.78125 48.890625 
Q 56.203125 41.796875 56.203125 29.59375 
z
M 47.21875 32.234375 
Q 47.125 39.59375 43.09375 43.984375 
Q 39.0625 48.390625 32.421875 48.390625 
Q 24.90625 48.390625 20.390625 44.140625 
Q 15.875 39.890625 15.1875 32.171875 
z
" id="DejaVuSans-65"/>
      <path d="M 41.109375 46.296875 
Q 39.59375 47.171875 37.8125 47.578125 
Q 36.03125 48 33.890625 48 
Q 26.265625 48 22.1875 43.046875 
Q 18.109375 38.09375 18.109375 28.8125 
L 18.109375 0 
L 9.078125 0 
L 9.078125 54.6875 
L 18.109375 54.6875 
L 18.109375 46.1875 
Q 20.953125 51.171875 25.484375 53.578125 
Q 30.03125 56 36.53125 56 
Q 37.453125 56 38.578125 55.875 
Q 39.703125 55.765625 41.0625 55.515625 
z
" id="DejaVuSans-72"/>
      <path d="M 45.40625 27.984375 
Q 45.40625 37.75 41.375 43.109375 
Q 37.359375 48.484375 30.078125 48.484375 
Q 22.859375 48.484375 18.828125 43.109375 
Q 14.796875 37.75 14.796875 27.984375 
Q 14.796875 18.265625 18.828125 12.890625 
Q 22.859375 7.515625 30.078125 7.515625 
Q 37.359375 7.515625 41.375 12.890625 
Q 45.40625 18.265625 45.40625 27.984375 
z
M 54.390625 6.78125 
Q 54.390625 -7.171875 48.1875 -13.984375 
Q 42 -20.796875 29.203125 -20.796875 
Q 24.46875 -20.796875 20.265625 -20.09375 
Q 16.0625 -19.390625 12.109375 -17.921875 
L 12.109375 -9.1875 
Q 16.0625 -11.328125 19.921875 -12.34375 
Q 23.78125 -13.375 27.78125 -13.375 
Q 36.625 -13.375 41.015625 -8.765625 
Q 45.40625 -4.15625 45.40625 5.171875 
L 45.40625 9.625 
Q 42.625 4.78125 38.28125 2.390625 
Q 33.9375 0 27.875 0 
Q 17.828125 0 11.671875 7.65625 
Q 5.515625 15.328125 5.515625 27.984375 
Q 5.515625 40.671875 11.671875 48.328125 
Q 17.828125 56 27.875 56 
Q 33.9375 56 38.28125 53.609375 
Q 42.625 51.21875 45.40625 46.390625 
L 45.40625 54.6875 
L 54.390625 54.6875 
z
" id="DejaVuSans-67"/>
      <path d="M 32.171875 -5.078125 
Q 28.375 -14.84375 24.75 -17.8125 
Q 21.140625 -20.796875 15.09375 -20.796875 
L 7.90625 -20.796875 
L 7.90625 -13.28125 
L 13.1875 -13.28125 
Q 16.890625 -13.28125 18.9375 -11.515625 
Q 21 -9.765625 23.484375 -3.21875 
L 25.09375 0.875 
L 2.984375 54.6875 
L 12.5 54.6875 
L 29.59375 11.921875 
L 46.6875 54.6875 
L 56.203125 54.6875 
z
" id="DejaVuSans-79"/>
      <path id="DejaVuSans-20"/>
      <path d="M 31 75.875 
Q 24.46875 64.65625 21.28125 53.65625 
Q 18.109375 42.671875 18.109375 31.390625 
Q 18.109375 20.125 21.3125 9.0625 
Q 24.515625 -2 31 -13.1875 
L 23.1875 -13.1875 
Q 15.875 -1.703125 12.234375 9.375 
Q 8.59375 20.453125 8.59375 31.390625 
Q 8.59375 42.28125 12.203125 53.3125 
Q 15.828125 64.359375 23.1875 75.875 
z
" id="DejaVuSans-28"/>
      <path d="M 9.078125 75.984375 
L 18.109375 75.984375 
L 18.109375 31.109375 
L 44.921875 54.6875 
L 56.390625 54.6875 
L 27.390625 29.109375 
L 57.625 0 
L 45.90625 0 
L 18.109375 26.703125 
L 18.109375 0 
L 9.078125 0 
z
" id="DejaVuSans-6b"/>
      <path d="M 28.609375 0 
L 0.78125 72.90625 
L 11.078125 72.90625 
L 34.1875 11.53125 
L 57.328125 72.90625 
L 67.578125 72.90625 
L 39.796875 0 
z
" id="DejaVuSans-56"/>
      <path d="M 8.015625 75.875 
L 15.828125 75.875 
Q 23.140625 64.359375 26.78125 53.3125 
Q 30.421875 42.28125 30.421875 31.390625 
Q 30.421875 20.453125 26.78125 9.375 
Q 23.140625 -1.703125 15.828125 -13.1875 
L 8.015625 -13.1875 
Q 14.5 -2 17.703125 9.0625 
Q 20.90625 20.125 20.90625 31.390625 
Q 20.90625 42.671875 17.703125 53.65625 
Q 14.5 64.65625 8.015625 75.875 
z
" id="DejaVuSans-29"/>
     </defs>
     <g transform="translate(188.926562 280.276563)scale(0.1 -0.1)">
      <use xlink:href="#DejaVuSans-45"/>
      <use x="63.183594" xlink:href="#DejaVuSans-6e"/>
      <use x="126.5625" xlink:href="#DejaVuSans-65"/>
      <use x="188.085938" xlink:href="#DejaVuSans-72"/>
      <use x="229.183594" xlink:href="#DejaVuSans-67"/>
      <use x="292.660156" xlink:href="#DejaVuSans-79"/>
      <use x="351.839844" xlink:href="#DejaVuSans-20"/>
      <use x="383.626953" xlink:href="#DejaVuSans-28"/>
      <use x="422.640625" xlink:href="#DejaVuSans-6b"/>
      <use x="480.503906" xlink:href="#DejaVuSans-65"/>
      <use x="542.027344" xlink:href="#DejaVuSans-56"/>
      <use x="610.435547" xlink:href="#DejaVuSans-29"/>
     </g>
    </g>
   </g>
   <g id="matplotlib.axis_2">
    <g id="ytick_1">
     <g id="line2d_6">
      <defs>
       <path d="M 0 0 
L -3.5 0 
" id="mf106c915b4" style="stroke:#000000;stroke-width:0.8;"/>
      </defs>
      <g>
       <use style="stroke:#000000;stroke-width:0.8;" x="54" xlink:href="#mf106c915b4" y="242.116364"/>
      </g>
     </g>
     <g id="text_7">
      <!-- 0.0 -->
      <defs>
       <path d="M 10.6875 12.40625 
L 21 12.40625 
L 21 0 
L 10.6875 0 
z
" id="DejaVuSans-2e"/>
      </defs>
      <g transform="translate(31.096875 245.915582)scale(0.1 -0.1)">
       <use xlink:href="#DejaVuSans-30"/>
       <use x="63.623047" xlink:href="#DejaVuSans-2e"/>
       <use x="95.410156" xlink:href="#DejaVuSans-30"/>
      </g>
     </g>
    </g>
    <g id="ytick_2">
     <g id="line2d_7">
      <g>
       <use style="stroke:#000000;stroke-width:0.8;" x="54" xlink:href="#mf106c915b4" y="202.581818"/>
      </g>
     </g>
     <g id="text_8">
      <!-- 0.2 -->
      <g transform="translate(31.096875 206.381037)scale(0.1 -0.1)">
       <use xlink:href="#DejaVuSans-30"/>
       <use x="63.623047" xlink:href="#DejaVuSans-2e"/>
       <use x="95.410156" xlink:href="#DejaVuSans-32"/>
      </g>
     </g>
    </g>
    <g id="ytick_3">
     <g id="line2d_8">
      <g>
       <use style="stroke:#000000;stroke-width:0.8;" x="54" xlink:href="#mf106c915b4" y="163.047273"/>
      </g>
     </g>
     <g id="text_9">
      <!-- 0.4 -->
      <g transform="translate(31.096875 166.846491)scale(0.1 -0.1)">
       <use xlink:href="#DejaVuSans-30"/>
       <use x="63.623047" xlink:href="#DejaVuSans-2e"/>
       <use x="95.410156" xlink:href="#DejaVuSans-34"/>
      </g>
     </g>
    </g>
    <g id="ytick_4">
     <g id="line2d_9">
      <g>
       <use style="stroke:#000000;stroke-width:0.8;" x="54" xlink:href="#mf106c915b4" y="123.512727"/>
      </g>
     </g>
     <g id="text_10">
      <!-- 0.6 -->
      <g transform="translate(31.096875 127.311946)scale(0.1 -0.1)">
       <use xlink:href="#DejaVuSans-30"/>
       <use x="63.623047" xlink:href="#DejaVuSans-2e"/>
       <use x="95.410156" xlink:href="#DejaVuSans-36"/>
      </g>
     </g>
    </g>
    <g id="ytick_5">
     <g id="line2d_10">
      <g>
       <use style="stroke:#000000;stroke-width:0.8;" x="54" xlink:href="#mf106c915b4" y="83.978182"/>
      </g>
     </g>
     <g id="text_11">
      <!-- 0.8 -->
      <g transform="translate(31.096875 87.777401)scale(0.1 -0.1)">
       <use xlink:href="#DejaVuSans-30"/>
       <use x="63.623047" xlink:href="#DejaVuSans-2e"/>
       <use x="95.410156" xlink:href="#DejaVuSans-38"/>
      </g>
     </g>
    </g>
    <g id="ytick_6">
     <g id="line2d_11">
      <g>
       <use style="stroke:#000000;stroke-width:0.8;" x="54" xlink:href="#mf106c915b4" y="44.443636"/>
      </g>
     </g>
     <g id="text_12">
      <!-- 1.0 -->
      <g transform="translate(31.096875 48.242855)scale(0.1 -0.1)">
       <use xlink:href="#DejaVuSans-31"/>
       <use x="63.623047" xlink:href="#DejaVuSans-2e"/>
       <use x="95.410156" xlink:href="#DejaVuSans-30"/>
      </g>
     </g>
    </g>
   </g>
   <g id="line2d_12">
    <path clip-path="url(#p7fd752e56d)" d="M 75.407537 156.38418 
L 76.121121 156.38418 
L 76.121121 160.495996 
L 76.834706 160.495996 
L 76.834706 163.068726 
L 77.54829 163.068726 
L 77.54829 165.903116 
L 78.261875 165.903116 
L 78.261875 168.1443 
L 78.97546 168.1443 
L 78.97546 170.138449 
L 79.689044 170.138449 
L 79.689044 172.937085 
L 80.402629 172.937085 
L 80.402629 175.776351 
L 81.116213 175.776351 
L 81.116213 178.397837 
L 81.829798 178.397837 
L 81.829798 180.70728 
L 82.543382 180.70728 
L 82.543382 182.130976 
L 83.256967 182.130976 
L 83.256967 183.930099 
L 83.970551 183.930099 
L 83.970551 186.819747 
L 84.684136 186.819747 
L 84.684136 189.481864 
L 85.397721 189.481864 
L 85.397721 190.211589 
L 86.111305 190.211589 
L 86.111305 191.965206 
L 86.82489 191.965206 
L 86.82489 193.106113 
L 87.538474 193.106113 
L 87.538474 194.229143 
L 88.252059 194.229143 
L 88.252059 195.566702 
L 88.965643 195.566702 
L 88.965643 196.130655 
L 89.679228 196.130655 
L 89.679228 197.139919 
L 90.392813 197.139919 
L 90.392813 198.724512 
L 91.106397 198.724512 
L 91.106397 200.222968 
L 91.819982 200.222968 
L 91.819982 201.771807 
L 92.533566 201.771807 
L 92.533566 202.104978 
L 93.247151 202.104978 
L 93.247151 203.254011 
L 93.960735 203.254011 
L 93.960735 204.505433 
L 94.67432 204.505433 
L 94.67432 207.747755 
L 95.387904 207.747755 
L 95.387904 210.556142 
L 96.101489 210.556142 
L 96.101489 211.900202 
L 96.815074 211.900202 
L 96.815074 212.361765 
L 97.528658 212.361765 
L 97.528658 212.594172 
L 98.242243 212.594172 
L 98.242243 212.727441 
L 98.955827 212.727441 
L 98.955827 212.990727 
L 99.669412 212.990727 
L 99.669412 213.176002 
L 100.382996 213.176002 
L 100.382996 212.945221 
L 101.810165 212.971224 
L 101.810165 213.26864 
L 102.52375 213.26864 
L 102.52375 213.514049 
L 103.237335 213.514049 
L 103.237335 213.655443 
L 104.664504 213.723703 
L 104.664504 213.184129 
L 106.805257 213.190629 
L 106.805257 213.986989 
L 107.518842 213.986989 
L 107.518842 214.149512 
L 108.232427 214.149512 
L 108.232427 213.861847 
L 108.946011 213.861847 
L 108.946011 213.501047 
L 109.659596 213.501047 
L 109.659596 213.349901 
L 110.37318 213.349901 
L 110.37318 212.425149 
L 111.086765 212.425149 
L 111.086765 211.306995 
L 111.800349 211.306995 
L 111.800349 210.564268 
L 112.513934 210.564268 
L 112.513934 210.034445 
L 113.227518 210.034445 
L 113.227518 209.335598 
L 113.941103 209.335598 
L 113.941103 207.994789 
L 114.654688 207.994789 
L 114.654688 207.065161 
L 115.368272 207.065161 
L 115.368272 206.678357 
L 116.081857 206.678357 
L 116.081857 208.284079 
L 116.795441 208.284079 
L 116.795441 208.880536 
L 117.509026 208.880536 
L 117.509026 208.025668 
L 118.22261 208.025668 
L 118.22261 207.411333 
L 118.936195 207.411333 
L 118.936195 206.863633 
L 119.649779 206.863633 
L 119.649779 205.886873 
L 120.363364 205.886873 
L 120.363364 206.021767 
L 121.790533 206.002264 
L 121.790533 205.753605 
L 122.504118 205.753605 
L 122.504118 205.296917 
L 123.217702 205.296917 
L 123.217702 204.729714 
L 123.931287 204.729714 
L 123.931287 203.798461 
L 124.644871 203.798461 
L 124.644871 203.653816 
L 125.358456 203.653816 
L 125.358456 203.525423 
L 126.07204 203.525423 
L 126.07204 203.127243 
L 126.785625 203.127243 
L 126.785625 204.110504 
L 127.49921 204.110504 
L 127.49921 203.816338 
L 128.212794 203.816338 
L 128.212794 203.650565 
L 128.926379 203.650565 
L 128.926379 204.138133 
L 129.639963 204.138133 
L 129.639963 204.507058 
L 130.353548 204.507058 
L 130.353548 204.999501 
L 131.067132 204.999501 
L 131.067132 205.444813 
L 131.780717 205.444813 
L 131.780717 206.47683 
L 132.494302 206.47683 
L 132.494302 207.138296 
L 133.207886 207.138296 
L 133.207886 207.463341 
L 133.921471 207.463341 
L 133.921471 207.770508 
L 134.635055 207.770508 
L 134.635055 208.563617 
L 135.34864 208.563617 
L 135.34864 209.733778 
L 136.062224 209.733778 
L 136.062224 210.487882 
L 136.775809 210.487882 
L 136.775809 209.951558 
L 137.489393 209.951558 
L 137.489393 209.56313 
L 138.202978 209.56313 
L 138.202978 209.923929 
L 138.916563 209.923929 
L 138.916563 210.50901 
L 139.630147 210.50901 
L 139.630147 211.014455 
L 140.343732 211.014455 
L 140.343732 212.395895 
L 141.057316 212.395895 
L 141.057316 212.57792 
L 141.770901 212.57792 
L 141.770901 212.860709 
L 142.484485 212.860709 
L 142.484485 213.777335 
L 143.911654 213.790337 
L 143.911654 214.54119 
L 144.625239 214.54119 
L 144.625239 215.945384 
L 145.338824 215.945384 
L 145.338824 217.058662 
L 146.052408 217.058662 
L 146.052408 217.385332 
L 146.765993 217.385332 
L 146.765993 217.946034 
L 148.193162 217.91353 
L 148.193162 218.108557 
L 148.906746 218.108557 
L 148.906746 218.332838 
L 149.620331 218.332838 
L 149.620331 218.956924 
L 151.761085 218.989428 
L 151.761085 219.917431 
L 152.474669 219.917431 
L 152.474669 220.23435 
L 153.188254 220.23435 
L 153.188254 220.562645 
L 154.615423 220.660158 
L 154.615423 220.915318 
L 156.042592 220.954324 
L 156.042592 221.10872 
L 156.756177 221.10872 
L 156.756177 221.524777 
L 158.183346 221.51015 
L 158.183346 221.123347 
L 158.89693 221.123347 
L 158.89693 221.926208 
L 159.610515 221.926208 
L 159.610515 222.732319 
L 160.324099 222.732319 
L 160.324099 223.197133 
L 161.037684 223.197133 
L 161.037684 223.468545 
L 161.751268 223.468545 
L 161.751268 223.965864 
L 163.178438 223.972364 
L 163.178438 223.702577 
L 163.892022 223.702577 
L 163.892022 223.960988 
L 165.319191 224.038999 
L 165.319191 224.560696 
L 166.032776 224.560696 
L 166.032776 224.183644 
L 166.74636 224.183644 
L 166.74636 224.315287 
L 168.887114 224.380296 
L 168.887114 224.703715 
L 169.600699 224.703715 
L 169.600699 224.862987 
L 170.314283 224.862987 
L 170.314283 224.472933 
L 171.741452 224.552569 
L 171.741452 224.615953 
L 172.455037 224.615953 
L 172.455037 223.925233 
L 173.168621 223.925233 
L 173.168621 223.192257 
L 173.882206 223.192257 
L 173.882206 222.907843 
L 174.595791 222.907843 
L 174.595791 223.301147 
L 175.309375 223.301147 
L 175.309375 223.736707 
L 176.02296 223.736707 
L 176.02296 223.852098 
L 176.736544 223.852098 
L 176.736544 223.574185 
L 177.450129 223.574185 
L 177.450129 223.702577 
L 178.163713 223.702577 
L 178.163713 223.852098 
L 178.877298 223.852098 
L 178.877298 224.354292 
L 180.304467 224.44693 
L 180.304467 224.225899 
L 181.018052 224.225899 
L 181.018052 223.985366 
L 181.731636 223.985366 
L 181.731636 223.345028 
L 182.445221 223.345028 
L 182.445221 223.130499 
L 183.158805 223.130499 
L 183.158805 222.839583 
L 183.87239 222.839583 
L 183.87239 222.628304 
L 184.585974 222.628304 
L 184.585974 222.106608 
L 185.299559 222.106608 
L 185.299559 221.792939 
L 186.013143 221.792939 
L 186.013143 220.473258 
L 186.726728 220.473258 
L 186.726728 219.865424 
L 187.440313 219.865424 
L 187.440313 218.943922 
L 188.153897 218.943922 
L 188.153897 218.441728 
L 188.867482 218.441728 
L 188.867482 218.032171 
L 189.581066 218.032171 
L 189.581066 217.36583 
L 190.294651 217.36583 
L 190.294651 216.549967 
L 191.008235 216.549967 
L 191.008235 215.73898 
L 191.72182 215.73898 
L 191.72182 215.012505 
L 192.435405 215.012505 
L 192.435405 214.360791 
L 193.148989 214.360791 
L 193.148989 213.985364 
L 193.862574 213.985364 
L 193.862574 213.426287 
L 194.576158 213.426287 
L 194.576158 212.182991 
L 195.289743 212.182991 
L 195.289743 210.942945 
L 196.003327 210.942945 
L 196.003327 210.453752 
L 196.716912 210.453752 
L 196.716912 209.707775 
L 197.430496 209.707775 
L 197.430496 209.376229 
L 198.144081 209.376229 
L 198.144081 208.731015 
L 198.857666 208.731015 
L 198.857666 207.375578 
L 200.284835 207.390205 
L 200.284835 206.829503 
L 200.998419 206.829503 
L 200.998419 205.716225 
L 201.712004 205.716225 
L 201.712004 204.484305 
L 202.425588 204.484305 
L 202.425588 203.806587 
L 203.139173 203.806587 
L 203.139173 203.530299 
L 203.852757 203.530299 
L 203.852757 202.538912 
L 204.566342 202.538912 
L 204.566342 201.739302 
L 205.279927 201.739302 
L 205.279927 201.124968 
L 205.993511 201.124968 
L 205.993511 200.63415 
L 207.42068 200.591894 
L 207.42068 200.785296 
L 208.134265 200.785296 
L 208.134265 200.387116 
L 208.847849 200.387116 
L 208.847849 200.094576 
L 209.561434 200.094576 
L 209.561434 199.558252 
L 210.275019 199.558252 
L 210.275019 199.333971 
L 210.988603 199.333971 
L 210.988603 198.784645 
L 212.415772 198.791146 
L 212.415772 197.937904 
L 213.129357 197.937904 
L 213.129357 197.760754 
L 214.556526 197.672992 
L 214.556526 197.144794 
L 215.27011 197.144794 
L 215.27011 198.157309 
L 215.983695 198.157309 
L 215.983695 197.58848 
L 216.69728 197.58848 
L 216.69728 196.590593 
L 217.410864 196.590593 
L 217.410864 195.420432 
L 218.124449 195.420432 
L 218.124449 194.745964 
L 218.838033 194.745964 
L 218.838033 194.087748 
L 219.551618 194.087748 
L 219.551618 193.1955 
L 220.265202 193.1955 
L 220.265202 192.93709 
L 220.978787 192.93709 
L 220.978787 193.084985 
L 221.692371 193.084985 
L 221.692371 192.537285 
L 222.405956 192.537285 
L 222.405956 191.300489 
L 223.119541 191.300489 
L 223.119541 189.659013 
L 223.833125 189.659013 
L 223.833125 187.429206 
L 224.54671 187.429206 
L 224.54671 186.254169 
L 225.260294 186.254169 
L 225.260294 182.23174 
L 225.973879 182.23174 
L 225.973879 178.687127 
L 226.687463 178.687127 
L 226.687463 175.370045 
L 227.401048 175.370045 
L 227.401048 172.059464 
L 228.114632 172.059464 
L 228.114632 167.682736 
L 228.828217 167.682736 
L 228.828217 163.288131 
L 229.541802 163.288131 
L 229.541802 156.852244 
L 230.255386 156.852244 
L 230.255386 150.549626 
L 230.968971 150.549626 
L 230.968971 145.002737 
L 231.682555 145.002737 
L 231.682555 138.670865 
L 232.39614 138.670865 
L 232.39614 131.610893 
L 233.109724 131.610893 
L 233.109724 125.072617 
L 233.823309 125.072617 
L 233.823309 119.624867 
L 234.536894 119.624867 
L 234.536894 112.969575 
L 235.250478 112.969575 
L 235.250478 106.247649 
L 235.964063 106.247649 
L 235.964063 100.086426 
L 236.677647 100.086426 
L 236.677647 95.059608 
L 237.391232 95.059608 
L 237.391232 90.260322 
L 238.104816 90.260322 
L 238.104816 82.493377 
L 238.818401 82.493377 
L 238.818401 76.658824 
L 239.531985 76.658824 
L 239.531985 70.489474 
L 240.24557 70.489474 
L 240.24557 64.996217 
L 240.959155 64.996217 
L 240.959155 59.376193 
L 241.672739 59.376193 
L 241.672739 56.852221 
L 242.386324 56.852221 
L 242.386324 52.808664 
L 243.099908 52.808664 
L 243.099908 49.291679 
L 243.813493 49.291679 
L 243.813493 47.934617 
L 244.527077 47.934617 
L 244.527077 47.035868 
L 245.240662 47.035868 
L 245.240662 44.443636 
L 245.954246 44.443636 
L 245.954246 45.072598 
L 246.667831 45.072598 
L 246.667831 47.55594 
L 247.381416 47.55594 
L 247.381416 49.408695 
L 248.095 49.408695 
L 248.095 50.146547 
L 248.808585 50.146547 
L 248.808585 50.82264 
L 249.522169 50.82264 
L 249.522169 52.985813 
L 250.235754 52.985813 
L 250.235754 58.958511 
L 250.949338 58.958511 
L 250.949338 65.109983 
L 251.662923 65.109983 
L 251.662923 70.323701 
L 252.376508 70.323701 
L 252.376508 76.790467 
L 253.090092 76.790467 
L 253.090092 84.780067 
L 253.803677 84.780067 
L 253.803677 91.976559 
L 254.517261 91.976559 
L 254.517261 99.522473 
L 255.230846 99.522473 
L 255.230846 106.523937 
L 255.94443 106.523937 
L 255.94443 114.448529 
L 256.658015 114.448529 
L 256.658015 121.593013 
L 257.371599 121.593013 
L 257.371599 128.758625 
L 258.085184 128.758625 
L 258.085184 135.066119 
L 258.798769 135.066119 
L 258.798769 144.26001 
L 259.512353 144.26001 
L 259.512353 152.993963 
L 260.225938 152.993963 
L 260.225938 160.934807 
L 260.939522 160.934807 
L 260.939522 168.389709 
L 261.653107 168.389709 
L 261.653107 175.636582 
L 262.366691 175.636582 
L 262.366691 173.598551 
L 263.080276 173.598551 
L 263.080276 173.239377 
L 263.79386 173.239377 
L 263.79386 180.1222 
L 264.507445 180.1222 
L 264.507445 184.970242 
L 265.22103 184.970242 
L 265.22103 189.416855 
L 265.934614 189.416855 
L 265.934614 194.377038 
L 266.648199 194.377038 
L 266.648199 199.397355 
L 267.361783 199.397355 
L 267.361783 202.66893 
L 268.075368 202.66893 
L 268.075368 205.672344 
L 268.788952 205.672344 
L 268.788952 209.449364 
L 269.502537 209.449364 
L 269.502537 213.949609 
L 270.216121 213.949609 
L 270.216121 217.744507 
L 270.929706 217.744507 
L 270.929706 220.190469 
L 271.643291 220.190469 
L 271.643291 221.609289 
L 272.356875 221.609289 
L 272.356875 223.416538 
L 273.07046 223.416538 
L 273.07046 224.51844 
L 273.784044 224.51844 
L 273.784044 225.602464 
L 274.497629 225.602464 
L 274.497629 226.434579 
L 275.211213 226.434579 
L 275.211213 227.011533 
L 275.924798 227.011533 
L 275.924798 227.3122 
L 276.638383 227.3122 
L 276.638383 227.803017 
L 277.351967 227.803017 
L 277.351967 228.662761 
L 278.065552 228.662761 
L 278.065552 228.776526 
L 278.779136 228.776526 
L 278.779136 228.945549 
L 279.492721 228.945549 
L 279.492721 229.296598 
L 282.347059 229.371358 
L 282.347059 229.753286 
L 283.060644 229.753286 
L 283.060644 235.088896 
L 283.774228 235.088896 
L 283.774228 240.903947 
L 284.487813 240.903947 
L 284.487813 241.86933 
L 287.342151 241.924587 
L 287.342151 241.999348 
L 306.608934 242.09036 
L 306.608934 242.116364 
L 388.671158 242.116364 
L 388.671158 242.116364 
" style="fill:none;stroke:#1f77b4;stroke-linecap:square;stroke-width:1.5;"/>
   </g>
   <g id="line2d_13">
    <path clip-path="url(#p7fd752e56d)" d="M 75.407537 128.421241 
L 76.121121 128.421241 
L 76.121121 132.842702 
L 76.834706 132.842702 
L 76.834706 136.922079 
L 77.54829 136.922079 
L 77.54829 142.972577 
L 78.261875 142.972577 
L 78.261875 147.662279 
L 78.97546 147.662279 
L 78.97546 151.46588 
L 79.689044 151.46588 
L 79.689044 156.731245 
L 80.402629 156.731245 
L 80.402629 160.363052 
L 81.116213 160.363052 
L 81.116213 163.437277 
L 81.829798 163.437277 
L 81.829798 166.803856 
L 82.543382 166.803856 
L 82.543382 170.220165 
L 83.256967 170.220165 
L 83.256967 173.008066 
L 83.970551 173.008066 
L 83.970551 176.21792 
L 84.684136 176.21792 
L 84.684136 178.335217 
L 85.397721 178.335217 
L 85.397721 180.927212 
L 86.111305 180.927212 
L 86.111305 182.058949 
L 86.82489 182.058949 
L 86.82489 184.56806 
L 87.538474 184.56806 
L 87.538474 186.317656 
L 88.252059 186.317656 
L 88.252059 188.246582 
L 88.965643 188.246582 
L 88.965643 191.081199 
L 89.679228 191.081199 
L 89.679228 193.019167 
L 90.392813 193.019167 
L 90.392813 195.755831 
L 91.106397 195.755831 
L 91.106397 197.413502 
L 91.819982 197.413502 
L 91.819982 198.754708 
L 92.533566 198.754708 
L 92.533566 200.40183 
L 93.247151 200.40183 
L 93.247151 201.358758 
L 93.960735 201.358758 
L 93.960735 202.561323 
L 94.67432 202.561323 
L 94.67432 208.271246 
L 95.387904 208.271246 
L 95.387904 213.372351 
L 96.101489 213.372351 
L 96.101489 214.547791 
L 96.815074 214.547791 
L 96.815074 215.066189 
L 97.528658 215.066189 
L 97.528658 215.917629 
L 98.242243 215.917629 
L 98.242243 215.607193 
L 98.955827 215.607193 
L 98.955827 214.998376 
L 101.810165 214.999883 
L 101.810165 215.302784 
L 102.52375 215.302784 
L 102.52375 215.497184 
L 103.237335 215.497184 
L 103.237335 214.93659 
L 103.950919 214.93659 
L 103.950919 214.588479 
L 104.664504 214.588479 
L 104.664504 214.131866 
L 105.378088 214.131866 
L 105.378088 214.243382 
L 106.091673 214.243382 
L 106.091673 213.798825 
L 106.805257 213.798825 
L 106.805257 213.156854 
L 107.518842 213.156854 
L 107.518842 211.934698 
L 108.232427 211.934698 
L 108.232427 211.185733 
L 108.946011 211.185733 
L 108.946011 210.86324 
L 109.659596 210.86324 
L 109.659596 209.817401 
L 110.37318 209.817401 
L 110.37318 208.690185 
L 111.086765 208.690185 
L 111.086765 208.330018 
L 111.800349 208.330018 
L 111.800349 207.264588 
L 113.941103 207.223899 
L 113.941103 206.627138 
L 114.654688 206.627138 
L 114.654688 206.432738 
L 115.368272 206.432738 
L 115.368272 206.583436 
L 116.081857 206.583436 
L 116.081857 207.617219 
L 117.509026 207.623247 
L 117.509026 207.130467 
L 118.22261 207.130467 
L 118.22261 205.920367 
L 118.936195 205.920367 
L 118.936195 205.126192 
L 119.649779 205.126192 
L 119.649779 204.772053 
L 121.076949 204.856444 
L 121.076949 203.791014 
L 121.790533 203.791014 
L 121.790533 203.373582 
L 122.504118 203.373582 
L 122.504118 202.987797 
L 123.217702 202.987797 
L 123.217702 202.033883 
L 123.931287 202.033883 
L 123.931287 202.208692 
L 126.07204 202.210199 
L 126.07204 201.687279 
L 126.785625 201.687279 
L 126.785625 201.238201 
L 127.49921 201.238201 
L 127.49921 201.544116 
L 128.212794 201.544116 
L 128.212794 202.394049 
L 128.926379 202.394049 
L 128.926379 203.491126 
L 129.639963 203.491126 
L 129.639963 203.697581 
L 131.067132 203.789507 
L 131.067132 204.253655 
L 131.780717 204.253655 
L 131.780717 204.756984 
L 132.494302 204.756984 
L 132.494302 205.465261 
L 133.207886 205.465261 
L 133.207886 205.331141 
L 133.921471 205.331141 
L 133.921471 204.856444 
L 134.635055 204.856444 
L 134.635055 205.178936 
L 135.34864 205.178936 
L 135.34864 205.742544 
L 136.775809 205.80433 
L 136.775809 204.981523 
L 137.489393 204.981523 
L 137.489393 204.854937 
L 138.202978 204.854937 
L 138.202978 205.507457 
L 138.916563 205.507457 
L 138.916563 206.291083 
L 139.630147 206.291083 
L 139.630147 206.85017 
L 140.343732 206.85017 
L 140.343732 208.132604 
L 141.057316 208.132604 
L 141.057316 208.336046 
L 141.770901 208.336046 
L 141.770901 209.442164 
L 142.484485 209.442164 
L 142.484485 210.426218 
L 143.19807 210.426218 
L 143.19807 210.604041 
L 143.911654 210.604041 
L 143.911654 211.512746 
L 144.625239 211.512746 
L 144.625239 211.922643 
L 145.338824 211.922643 
L 145.338824 212.805729 
L 147.479577 212.858473 
L 147.479577 213.578807 
L 148.193162 213.578807 
L 148.193162 213.90582 
L 148.906746 213.90582 
L 148.906746 213.750602 
L 150.333916 213.706899 
L 150.333916 214.208721 
L 151.0475 214.208721 
L 151.0475 214.992348 
L 151.761085 214.992348 
L 151.761085 215.453482 
L 152.474669 215.453482 
L 152.474669 215.647881 
L 153.901838 215.75789 
L 153.901838 216.511377 
L 154.615423 216.511377 
L 154.615423 216.844418 
L 155.329007 216.844418 
L 155.329007 217.534612 
L 156.756177 217.436659 
L 156.756177 217.741067 
L 157.469761 217.741067 
L 157.469761 217.962592 
L 158.183346 217.962592 
L 158.183346 218.423726 
L 158.89693 218.423726 
L 158.89693 218.643744 
L 159.610515 218.643744 
L 159.610515 219.076246 
L 160.324099 219.076246 
L 160.324099 219.219408 
L 161.037684 219.219408 
L 161.037684 219.347501 
L 163.178438 219.284208 
L 163.178438 219.198311 
L 163.892022 219.198311 
L 163.892022 218.972265 
L 164.605607 218.972265 
L 164.605607 219.139539 
L 165.319191 219.139539 
L 165.319191 218.77033 
L 166.032776 218.77033 
L 166.032776 218.087671 
L 166.74636 218.087671 
L 166.74636 218.367968 
L 167.459945 218.367968 
L 167.459945 219.116934 
L 168.173529 219.116934 
L 168.173529 219.424357 
L 168.887114 219.424357 
L 168.887114 219.576561 
L 170.314283 219.600673 
L 170.314283 219.789044 
L 171.027868 219.789044 
L 171.027868 219.275166 
L 171.741452 219.275166 
L 171.741452 218.955688 
L 174.595791 218.94966 
L 174.595791 218.586479 
L 177.450129 218.505103 
L 177.450129 218.470443 
L 178.163713 218.470443 
L 178.163713 218.80047 
L 178.877298 218.80047 
L 178.877298 219.189269 
L 180.304467 219.145567 
L 180.304467 218.996376 
L 181.731636 219.040079 
L 181.731636 218.616619 
L 182.445221 218.616619 
L 182.445221 218.206722 
L 183.158805 218.206722 
L 183.158805 218.34235 
L 183.87239 218.34235 
L 183.87239 218.074108 
L 184.585974 218.074108 
L 184.585974 217.337198 
L 186.013143 217.319115 
L 186.013143 217.14732 
L 186.726728 217.14732 
L 186.726728 217.534612 
L 187.440313 217.534612 
L 187.440313 217.074985 
L 188.867482 217.011692 
L 188.867482 216.67413 
L 189.581066 216.67413 
L 189.581066 216.499321 
L 190.294651 216.499321 
L 190.294651 215.768439 
L 191.008235 215.768439 
L 191.008235 215.458003 
L 191.72182 215.458003 
L 191.72182 215.099343 
L 193.148989 215.072217 
L 193.148989 215.231956 
L 193.862574 215.231956 
L 193.862574 214.656293 
L 195.289743 214.624646 
L 195.289743 213.648127 
L 196.003327 213.648127 
L 196.003327 213.316593 
L 196.716912 213.316593 
L 196.716912 212.129098 
L 197.430496 212.129098 
L 197.430496 210.72912 
L 198.144081 210.72912 
L 198.144081 209.45422 
L 198.857666 209.45422 
L 198.857666 208.081367 
L 199.57125 208.081367 
L 199.57125 207.629275 
L 200.284835 207.629275 
L 200.284835 207.451452 
L 200.998419 207.451452 
L 200.998419 207.232941 
L 201.712004 207.232941 
L 201.712004 206.866747 
L 202.425588 206.866747 
L 202.425588 206.446301 
L 203.139173 206.446301 
L 203.139173 205.373336 
L 203.852757 205.373336 
L 203.852757 204.36065 
L 204.566342 204.36065 
L 204.566342 203.275629 
L 205.279927 203.275629 
L 205.279927 202.559816 
L 205.993511 202.559816 
L 205.993511 201.758106 
L 206.707096 201.758106 
L 206.707096 200.951876 
L 207.42068 200.951876 
L 207.42068 200.254147 
L 208.134265 200.254147 
L 208.134265 199.579023 
L 208.847849 199.579023 
L 208.847849 198.573871 
L 209.561434 198.573871 
L 209.561434 196.809206 
L 210.275019 196.809206 
L 210.275019 196.046677 
L 210.988603 196.046677 
L 210.988603 196.165728 
L 212.415772 196.146137 
L 212.415772 195.0792 
L 213.129357 195.0792 
L 213.129357 194.509564 
L 213.842941 194.509564 
L 213.842941 194.14789 
L 214.556526 194.14789 
L 214.556526 193.73498 
L 215.27011 193.73498 
L 215.27011 192.50981 
L 215.983695 192.50981 
L 215.983695 191.925104 
L 216.69728 191.925104 
L 216.69728 191.778928 
L 217.410864 191.778928 
L 217.410864 191.997439 
L 218.124449 191.997439 
L 218.124449 192.344043 
L 218.838033 192.344043 
L 218.838033 192.580638 
L 220.978787 192.595708 
L 220.978787 192.26568 
L 221.692371 192.26568 
L 221.692371 191.928118 
L 222.405956 191.928118 
L 222.405956 190.781312 
L 223.119541 190.781312 
L 223.119541 188.832795 
L 223.833125 188.832795 
L 223.833125 188.403307 
L 224.54671 188.403307 
L 224.54671 187.194715 
L 225.260294 187.194715 
L 225.260294 184.195837 
L 225.973879 184.195837 
L 225.973879 182.694892 
L 226.687463 182.694892 
L 226.687463 179.435308 
L 227.401048 179.435308 
L 227.401048 177.230606 
L 228.114632 177.230606 
L 228.114632 174.605458 
L 228.828217 174.605458 
L 228.828217 169.994119 
L 229.541802 169.994119 
L 229.541802 166.437662 
L 230.255386 166.437662 
L 230.255386 162.771195 
L 230.968971 162.771195 
L 230.968971 158.200545 
L 231.682555 158.200545 
L 231.682555 153.569615 
L 232.39614 153.569615 
L 232.39614 147.897367 
L 233.109724 147.897367 
L 233.109724 142.231146 
L 233.823309 142.231146 
L 233.823309 137.472124 
L 234.536894 137.472124 
L 234.536894 131.020771 
L 235.250478 131.020771 
L 235.250478 123.365345 
L 235.964063 123.365345 
L 235.964063 116.831108 
L 236.677647 116.831108 
L 236.677647 111.794803 
L 237.391232 111.794803 
L 237.391232 105.971857 
L 238.104816 105.971857 
L 238.104816 98.714273 
L 238.818401 98.714273 
L 238.818401 90.84335 
L 239.531985 90.84335 
L 239.531985 82.392243 
L 240.24557 82.392243 
L 240.24557 74.007442 
L 240.959155 74.007442 
L 240.959155 69.912995 
L 241.672739 69.912995 
L 241.672739 68.620012 
L 242.386324 68.620012 
L 242.386324 64.753118 
L 243.099908 64.753118 
L 243.099908 59.163753 
L 243.813493 59.163753 
L 243.813493 56.339685 
L 244.527077 56.339685 
L 244.527077 53.188604 
L 245.240662 53.188604 
L 245.240662 48.532055 
L 245.954246 48.532055 
L 245.954246 47.049194 
L 246.667831 47.049194 
L 246.667831 46.900003 
L 247.381416 46.900003 
L 247.381416 46.301735 
L 248.095 46.301735 
L 248.095 45.918963 
L 248.808585 45.918963 
L 248.808585 44.443636 
L 249.522169 44.443636 
L 249.522169 45.861698 
L 250.235754 45.861698 
L 250.235754 48.043796 
L 250.949338 48.043796 
L 250.949338 49.333765 
L 251.662923 49.333765 
L 251.662923 52.676233 
L 252.376508 52.676233 
L 252.376508 54.407745 
L 253.090092 54.407745 
L 253.090092 58.78701 
L 253.803677 58.78701 
L 253.803677 64.799834 
L 254.517261 64.799834 
L 254.517261 70.58812 
L 255.230846 70.58812 
L 255.230846 77.152496 
L 255.94443 77.152496 
L 255.94443 85.234395 
L 256.658015 85.234395 
L 256.658015 93.495624 
L 257.371599 93.495624 
L 257.371599 100.284539 
L 258.085184 100.284539 
L 258.085184 106.799186 
L 258.798769 106.799186 
L 258.798769 114.756006 
L 259.512353 114.756006 
L 259.512353 123.216155 
L 260.225938 123.216155 
L 260.225938 133.183278 
L 260.939522 133.183278 
L 260.939522 143.610027 
L 261.653107 143.610027 
L 261.653107 150.248245 
L 262.366691 150.248245 
L 262.366691 146.978113 
L 263.080276 146.978113 
L 263.080276 144.99795 
L 263.79386 144.99795 
L 263.79386 152.101823 
L 264.507445 152.101823 
L 264.507445 158.526051 
L 265.22103 158.526051 
L 265.22103 163.520161 
L 265.934614 163.520161 
L 265.934614 171.053522 
L 266.648199 171.053522 
L 266.648199 177.308968 
L 267.361783 177.308968 
L 267.361783 181.457667 
L 268.075368 181.457667 
L 268.075368 186.718511 
L 268.788952 186.718511 
L 268.788952 191.305738 
L 269.502537 191.305738 
L 269.502537 196.681113 
L 270.216121 196.681113 
L 270.216121 201.366293 
L 270.929706 201.366293 
L 270.929706 205.14729 
L 271.643291 205.14729 
L 271.643291 209.182965 
L 272.356875 209.182965 
L 272.356875 212.921766 
L 273.07046 212.921766 
L 273.07046 217.186501 
L 273.784044 217.186501 
L 273.784044 219.700133 
L 274.497629 219.700133 
L 274.497629 221.803868 
L 275.211213 221.803868 
L 275.211213 223.054656 
L 275.924798 223.054656 
L 275.924798 224.1231 
L 276.638383 224.1231 
L 276.638383 224.718355 
L 277.351967 224.718355 
L 277.351967 225.923933 
L 278.065552 225.923933 
L 278.065552 226.49809 
L 278.779136 226.49809 
L 278.779136 227.143075 
L 279.492721 227.143075 
L 279.492721 227.67353 
L 280.206305 227.67353 
L 280.206305 228.222068 
L 280.91989 228.222068 
L 280.91989 228.561137 
L 281.633474 228.561137 
L 281.633474 228.821843 
L 282.347059 228.821843 
L 282.347059 229.185024 
L 283.060644 229.185024 
L 283.060644 233.901851 
L 283.774228 233.901851 
L 283.774228 240.568702 
L 284.487813 240.568702 
L 284.487813 242.116364 
L 388.671158 242.076783 
L 388.671158 242.109214 
" style="fill:none;stroke:#ff7f0e;stroke-linecap:square;stroke-width:1.5;"/>
   </g>
   <g id="line2d_14">
    <path clip-path="url(#p7fd752e56d)" d="M 75.407537 197.329371 
L 76.121121 197.329371 
L 76.121121 201.45226 
L 78.261875 201.45226 
L 78.261875 199.53201 
L 78.97546 199.53201 
L 78.97546 197.385849 
L 80.402629 197.385849 
L 80.402629 197.837673 
L 81.116213 197.837673 
L 81.116213 200.209745 
L 81.829798 200.209745 
L 81.829798 201.45226 
L 82.543382 201.45226 
L 82.543382 198.120062 
L 83.256967 198.120062 
L 83.256967 197.385849 
L 88.252059 197.385849 
L 88.252059 197.837673 
L 88.965643 197.837673 
L 88.965643 201.45226 
L 90.392813 201.45226 
L 90.392813 204.1632 
L 91.106397 204.1632 
L 91.106397 205.51867 
L 91.819982 205.51867 
L 91.819982 203.372509 
L 92.533566 203.372509 
L 92.533566 204.558545 
L 93.247151 204.558545 
L 93.247151 210.545205 
L 93.960735 210.545205 
L 93.960735 217.435512 
L 94.67432 217.435512 
L 94.67432 217.717901 
L 96.101489 217.717901 
L 96.101489 218.169725 
L 96.815074 218.169725 
L 96.815074 221.784312 
L 98.242243 221.784312 
L 98.242243 220.937143 
L 98.955827 220.937143 
L 98.955827 217.096644 
L 99.669412 217.096644 
L 99.669412 217.717901 
L 101.810165 217.717901 
L 101.810165 214.555138 
L 102.52375 214.555138 
L 102.52375 213.651491 
L 103.237335 213.651491 
L 103.237335 215.628218 
L 103.950919 215.628218 
L 103.950919 214.781049 
L 104.664504 214.781049 
L 104.664504 206.478795 
L 105.378088 206.478795 
L 105.378088 201.904083 
L 106.091673 201.904083 
L 106.091673 201.226348 
L 106.805257 201.226348 
L 106.805257 190.100197 
L 107.518842 190.100197 
L 107.518842 185.186618 
L 108.232427 185.186618 
L 108.232427 183.322847 
L 108.946011 183.322847 
L 108.946011 181.120208 
L 110.37318 181.120208 
L 110.37318 177.223231 
L 111.086765 177.223231 
L 111.086765 163.725008 
L 111.800349 163.725008 
L 111.800349 148.024145 
L 112.513934 148.024145 
L 112.513934 140.456104 
L 113.227518 140.456104 
L 113.227518 136.389694 
L 114.654688 136.389694 
L 114.654688 133.452842 
L 115.368272 133.452842 
L 115.368272 121.705434 
L 116.795441 121.705434 
L 116.795441 116.678899 
L 117.509026 116.678899 
L 117.509026 111.539408 
L 118.22261 111.539408 
L 118.22261 99.340177 
L 118.936195 99.340177 
L 118.936195 87.310379 
L 119.649779 87.310379 
L 119.649779 80.137683 
L 120.363364 80.137683 
L 120.363364 77.878566 
L 121.076949 77.878566 
L 121.076949 65.28399 
L 121.790533 65.28399 
L 121.790533 55.174442 
L 122.504118 55.174442 
L 122.504118 53.141236 
L 123.217702 53.141236 
L 123.217702 54.835574 
L 123.931287 54.835574 
L 123.931287 49.131304 
L 124.644871 49.131304 
L 124.644871 44.443636 
L 125.358456 44.443636 
L 125.358456 51.390421 
L 126.07204 51.390421 
L 126.07204 56.304 
L 126.785625 56.304 
L 126.785625 55.061486 
L 127.49921 55.061486 
L 127.49921 61.387013 
L 128.212794 61.387013 
L 128.212794 71.157694 
L 128.926379 71.157694 
L 128.926379 71.835429 
L 129.639963 71.835429 
L 129.639963 75.393538 
L 130.353548 75.393538 
L 130.353548 72.34373 
L 131.067132 72.34373 
L 131.067132 69.463356 
L 131.780717 69.463356 
L 131.780717 79.40347 
L 132.494302 79.40347 
L 132.494302 95.4432 
L 133.207886 95.4432 
L 133.207886 105.552748 
L 133.921471 105.552748 
L 133.921471 114.47626 
L 134.635055 114.47626 
L 134.635055 104.084322 
L 135.34864 104.084322 
L 135.34864 95.72559 
L 136.062224 95.72559 
L 136.062224 109.449725 
L 136.775809 109.449725 
L 136.775809 110.12746 
L 137.489393 110.12746 
L 137.489393 114.080914 
L 138.202978 114.080914 
L 138.202978 113.572613 
L 138.916563 113.572613 
L 138.916563 125.8848 
L 139.630147 125.8848 
L 139.630147 136.672083 
L 140.343732 136.672083 
L 140.343732 146.103896 
L 141.057316 146.103896 
L 141.057316 152.429423 
L 141.770901 152.429423 
L 141.770901 161.635325 
L 142.484485 161.635325 
L 142.484485 175.35946 
L 143.19807 175.35946 
L 143.19807 172.874431 
L 143.911654 172.874431 
L 143.911654 174.568769 
L 144.625239 174.568769 
L 144.625239 181.628509 
L 145.338824 181.628509 
L 145.338824 187.897558 
L 146.052408 187.897558 
L 146.052408 189.253029 
L 147.479577 189.253029 
L 147.479577 192.980571 
L 148.193162 192.980571 
L 148.193162 193.319439 
L 149.620331 193.319439 
L 149.620331 192.302836 
L 150.333916 192.302836 
L 150.333916 189.140073 
L 151.0475 189.140073 
L 151.0475 184.565361 
L 151.761085 184.565361 
L 151.761085 187.841081 
L 152.474669 187.841081 
L 152.474669 189.253029 
L 155.329007 189.253029 
L 155.329007 195.4656 
L 156.042592 195.4656 
L 156.042592 208.963823 
L 157.469761 208.907345 
L 157.469761 203.654899 
L 158.183346 203.654899 
L 158.183346 194.618431 
L 158.89693 194.618431 
L 158.89693 195.013777 
L 159.610515 195.013777 
L 159.610515 197.385849 
L 161.037684 197.385849 
L 161.037684 197.611761 
L 161.751268 197.611761 
L 161.751268 201.45226 
L 162.464853 201.45226 
L 162.464853 200.548613 
L 163.178438 200.548613 
L 163.178438 197.385849 
L 163.892022 197.385849 
L 163.892022 201.16987 
L 164.605607 201.16987 
L 164.605607 205.51867 
L 170.314283 205.51867 
L 170.314283 204.615023 
L 171.027868 204.615023 
L 171.027868 205.179803 
L 171.741452 205.179803 
L 171.741452 209.302691 
L 172.455037 209.302691 
L 172.455037 211.731242 
L 173.168621 211.731242 
L 173.168621 209.585081 
L 175.309375 209.585081 
L 175.309375 206.761184 
L 176.02296 206.761184 
L 176.02296 201.45226 
L 178.163713 201.45226 
L 178.163713 206.987096 
L 178.877298 206.987096 
L 178.877298 216.418909 
L 179.590882 216.418909 
L 179.590882 221.784312 
L 181.731636 221.784312 
L 181.731636 219.186327 
L 182.445221 219.186327 
L 182.445221 216.644821 
L 183.158805 216.644821 
L 183.158805 213.651491 
L 183.87239 213.651491 
L 183.87239 217.266078 
L 184.585974 217.266078 
L 184.585974 217.717901 
L 188.153897 217.717901 
L 188.153897 214.555138 
L 188.867482 214.555138 
L 188.867482 213.651491 
L 190.294651 213.651491 
L 190.294651 210.714639 
L 191.008235 210.714639 
L 191.008235 209.585081 
L 191.72182 209.585081 
L 191.72182 210.319294 
L 192.435405 210.319294 
L 192.435405 202.80773 
L 193.148989 202.80773 
L 193.148989 202.017039 
L 193.862574 202.017039 
L 193.862574 203.372509 
L 194.576158 203.372509 
L 194.576158 201.45226 
L 196.003327 201.45226 
L 196.003327 202.751252 
L 196.716912 202.751252 
L 196.716912 208.399044 
L 197.430496 208.399044 
L 197.430496 209.585081 
L 198.857666 209.585081 
L 198.857666 206.930618 
L 199.57125 206.930618 
L 199.57125 205.010369 
L 200.284835 205.010369 
L 200.284835 201.45226 
L 201.712004 201.45226 
L 201.712004 197.442327 
L 202.425588 197.442327 
L 202.425588 196.764592 
L 203.139173 196.764592 
L 203.139173 197.046982 
L 204.566342 197.10346 
L 204.566342 197.385849 
L 206.707096 197.385849 
L 206.707096 190.83441 
L 207.42068 190.83441 
L 207.42068 189.253029 
L 208.134265 189.253029 
L 208.134265 186.542088 
L 208.847849 186.542088 
L 208.847849 186.993912 
L 209.561434 186.993912 
L 209.561434 189.253029 
L 210.275019 189.253029 
L 210.275019 184.904229 
L 210.988603 184.904229 
L 210.988603 182.70159 
L 211.702188 182.70159 
L 211.702188 185.186618 
L 213.129357 185.186618 
L 213.129357 185.807875 
L 213.842941 185.807875 
L 213.842941 185.186618 
L 214.556526 185.186618 
L 214.556526 185.977309 
L 215.27011 185.977309 
L 215.27011 189.253029 
L 216.69728 189.253029 
L 216.69728 183.77467 
L 217.410864 183.77467 
L 217.410864 177.110275 
L 218.838033 177.053797 
L 218.838033 172.027262 
L 219.551618 172.027262 
L 219.551618 170.163491 
L 220.265202 170.163491 
L 220.265202 165.419345 
L 220.978787 165.419345 
L 220.978787 168.073808 
L 221.692371 168.073808 
L 221.692371 168.920977 
L 222.405956 168.920977 
L 222.405956 171.575439 
L 223.119541 171.575439 
L 223.119541 173.495688 
L 223.833125 173.495688 
L 223.833125 177.053797 
L 224.54671 177.053797 
L 224.54671 180.103605 
L 225.260294 180.103605 
L 225.260294 181.120208 
L 225.973879 181.120208 
L 225.973879 178.635179 
L 226.687463 178.635179 
L 226.687463 177.053797 
L 227.401048 177.053797 
L 227.401048 180.894296 
L 228.114632 180.894296 
L 228.114632 185.186618 
L 228.828217 185.186618 
L 228.828217 185.807875 
L 229.541802 185.807875 
L 229.541802 183.492281 
L 230.255386 183.492281 
L 230.255386 181.120208 
L 230.968971 181.120208 
L 230.968971 182.871023 
L 231.682555 182.871023 
L 231.682555 189.140073 
L 232.39614 189.140073 
L 232.39614 189.253029 
L 233.823309 189.253029 
L 233.823309 194.223086 
L 234.536894 194.223086 
L 234.536894 201.45226 
L 235.250478 201.45226 
L 235.250478 199.475532 
L 235.964063 199.475532 
L 235.964063 193.319439 
L 236.677647 193.319439 
L 236.677647 191.342712 
L 237.391232 191.342712 
L 237.391232 192.020447 
L 238.104816 192.020447 
L 238.104816 199.870878 
L 238.818401 199.870878 
L 238.818401 197.385849 
L 239.531985 197.385849 
L 239.531985 196.990504 
L 240.24557 196.990504 
L 240.24557 201.45226 
L 240.959155 201.45226 
L 240.959155 199.588488 
L 241.672739 199.588488 
L 241.672739 200.209745 
L 242.386324 200.209745 
L 242.386324 197.385849 
L 245.240662 197.385849 
L 245.240662 194.448997 
L 245.954246 194.448997 
L 245.954246 189.422462 
L 246.667831 189.422462 
L 246.667831 190.382587 
L 247.381416 190.382587 
L 247.381416 193.319439 
L 249.522169 193.319439 
L 249.522169 189.591896 
L 250.235754 189.591896 
L 250.235754 193.037049 
L 250.949338 193.037049 
L 250.949338 197.385849 
L 253.803677 197.385849 
L 253.803677 197.216416 
L 254.517261 197.216416 
L 254.517261 193.319439 
L 256.658015 193.319439 
L 256.658015 200.718047 
L 257.371599 200.718047 
L 257.371599 202.073517 
L 258.085184 202.073517 
L 258.085184 205.51867 
L 259.512353 205.51867 
L 259.512353 208.399044 
L 260.225938 208.399044 
L 260.225938 210.940551 
L 260.939522 210.940551 
L 260.939522 213.651491 
L 261.653107 213.651491 
L 261.653107 217.717901 
L 262.366691 217.717901 
L 262.366691 221.784312 
L 263.080276 221.784312 
L 263.080276 225.737766 
L 263.79386 225.737766 
L 263.79386 225.850722 
L 265.934614 225.850722 
L 265.934614 227.432104 
L 266.648199 227.432104 
L 266.648199 232.458639 
L 267.361783 232.458639 
L 267.361783 233.983543 
L 270.216121 233.983543 
L 270.216121 236.355616 
L 270.929706 236.355616 
L 270.929706 238.049953 
L 275.211213 238.049953 
L 275.211213 240.930327 
L 275.924798 240.930327 
L 275.924798 242.116364 
L 388.671158 242.116364 
L 388.671158 242.116364 
" style="fill:none;stroke:#2ca02c;stroke-linecap:square;stroke-width:1.5;"/>
   </g>
   <g id="patch_3">
    <path d="M 54 252 
L 54 34.56 
" style="fill:none;stroke:#000000;stroke-linecap:square;stroke-linejoin:miter;stroke-width:0.8;"/>
   </g>
   <g id="patch_4">
    <path d="M 388.8 252 
L 388.8 34.56 
" style="fill:none;stroke:#000000;stroke-linecap:square;stroke-linejoin:miter;stroke-width:0.8;"/>
   </g>
   <g id="patch_5">
    <path d="M 54 252 
L 388.8 252 
" style="fill:none;stroke:#000000;stroke-linecap:square;stroke-linejoin:miter;stroke-width:0.8;"/>
   </g>
   <g id="patch_6">
    <path d="M 54 34.56 
L 388.8 34.56 
" style="fill:none;stroke:#000000;stroke-linecap:square;stroke-linejoin:miter;stroke-width:0.8;"/>
   </g>
   <g id="legend_1">
    <g id="patch_7">
     <path d="M 332.254688 86.594375 
L 381.8 86.594375 
Q 383.8 86.594375 383.8 84.594375 
L 383.8 41.56 
Q 383.8 39.56 381.8 39.56 
L 332.254688 39.56 
Q 330.254688 39.56 330.254688 41.56 
L 330.254688 84.594375 
Q 330.254688 86.594375 332.254688 86.594375 
z
" style="fill:#ffffff;opacity:0.8;stroke:#cccccc;stroke-linejoin:miter;"/>
    </g>
    <g id="line2d_15">
     <path d="M 334.254688 47.658438 
L 354.254688 47.658438 
" style="fill:none;stroke:#1f77b4;stroke-linecap:square;stroke-width:1.5;"/>
    </g>
    <g id="line2d_16"/>
    <g id="text_13">
     <!-- vac -->
     <defs>
      <path d="M 2.984375 54.6875 
L 12.5 54.6875 
L 29.59375 8.796875 
L 46.6875 54.6875 
L 56.203125 54.6875 
L 35.6875 0 
L 23.484375 0 
z
" id="DejaVuSans-76"/>
      <path d="M 34.28125 27.484375 
Q 23.390625 27.484375 19.1875 25 
Q 14.984375 22.515625 14.984375 16.5 
Q 14.984375 11.71875 18.140625 8.90625 
Q 21.296875 6.109375 26.703125 6.109375 
Q 34.1875 6.109375 38.703125 11.40625 
Q 43.21875 16.703125 43.21875 25.484375 
L 43.21875 27.484375 
z
M 52.203125 31.203125 
L 52.203125 0 
L 43.21875 0 
L 43.21875 8.296875 
Q 40.140625 3.328125 35.546875 0.953125 
Q 30.953125 -1.421875 24.3125 -1.421875 
Q 15.921875 -1.421875 10.953125 3.296875 
Q 6 8.015625 6 15.921875 
Q 6 25.140625 12.171875 29.828125 
Q 18.359375 34.515625 30.609375 34.515625 
L 43.21875 34.515625 
L 43.21875 35.40625 
Q 43.21875 41.609375 39.140625 45 
Q 35.0625 48.390625 27.6875 48.390625 
Q 23 48.390625 18.546875 47.265625 
Q 14.109375 46.140625 10.015625 43.890625 
L 10.015625 52.203125 
Q 14.9375 54.109375 19.578125 55.046875 
Q 24.21875 56 28.609375 56 
Q 40.484375 56 46.34375 49.84375 
Q 52.203125 43.703125 52.203125 31.203125 
z
" id="DejaVuSans-61"/>
      <path d="M 48.78125 52.59375 
L 48.78125 44.1875 
Q 44.96875 46.296875 41.140625 47.34375 
Q 37.3125 48.390625 33.40625 48.390625 
Q 24.65625 48.390625 19.8125 42.84375 
Q 14.984375 37.3125 14.984375 27.296875 
Q 14.984375 17.28125 19.8125 11.734375 
Q 24.65625 6.203125 33.40625 6.203125 
Q 37.3125 6.203125 41.140625 7.25 
Q 44.96875 8.296875 48.78125 10.40625 
L 48.78125 2.09375 
Q 45.015625 0.34375 40.984375 -0.53125 
Q 36.96875 -1.421875 32.421875 -1.421875 
Q 20.0625 -1.421875 12.78125 6.34375 
Q 5.515625 14.109375 5.515625 27.296875 
Q 5.515625 40.671875 12.859375 48.328125 
Q 20.21875 56 33.015625 56 
Q 37.15625 56 41.109375 55.140625 
Q 45.0625 54.296875 48.78125 52.59375 
z
" id="DejaVuSans-63"/>
     </defs>
     <g transform="translate(362.254688 51.158438)scale(0.1 -0.1)">
      <use xlink:href="#DejaVuSans-76"/>
      <use x="59.179688" xlink:href="#DejaVuSans-61"/>
      <use x="120.458984" xlink:href="#DejaVuSans-63"/>
     </g>
    </g>
    <g id="line2d_17">
     <path d="M 334.254688 62.336563 
L 354.254688 62.336563 
" style="fill:none;stroke:#ff7f0e;stroke-linecap:square;stroke-width:1.5;"/>
    </g>
    <g id="line2d_18"/>
    <g id="text_14">
     <!-- al -->
     <defs>
      <path d="M 9.421875 75.984375 
L 18.40625 75.984375 
L 18.40625 0 
L 9.421875 0 
z
" id="DejaVuSans-6c"/>
     </defs>
     <g transform="translate(362.254688 65.836563)scale(0.1 -0.1)">
      <use xlink:href="#DejaVuSans-61"/>
      <use x="61.279297" xlink:href="#DejaVuSans-6c"/>
     </g>
    </g>
    <g id="line2d_19">
     <path d="M 334.254688 77.014688 
L 354.254688 77.014688 
" style="fill:none;stroke:#2ca02c;stroke-linecap:square;stroke-width:1.5;"/>
    </g>
    <g id="line2d_20"/>
    <g id="text_15">
     <!-- sn -->
     <defs>
      <path d="M 44.28125 53.078125 
L 44.28125 44.578125 
Q 40.484375 46.53125 36.375 47.5 
Q 32.28125 48.484375 27.875 48.484375 
Q 21.1875 48.484375 17.84375 46.4375 
Q 14.5 44.390625 14.5 40.28125 
Q 14.5 37.15625 16.890625 35.375 
Q 19.28125 33.59375 26.515625 31.984375 
L 29.59375 31.296875 
Q 39.15625 29.25 43.1875 25.515625 
Q 47.21875 21.78125 47.21875 15.09375 
Q 47.21875 7.46875 41.1875 3.015625 
Q 35.15625 -1.421875 24.609375 -1.421875 
Q 20.21875 -1.421875 15.453125 -0.5625 
Q 10.6875 0.296875 5.421875 2 
L 5.421875 11.28125 
Q 10.40625 8.6875 15.234375 7.390625 
Q 20.0625 6.109375 24.8125 6.109375 
Q 31.15625 6.109375 34.5625 8.28125 
Q 37.984375 10.453125 37.984375 14.40625 
Q 37.984375 18.0625 35.515625 20.015625 
Q 33.0625 21.96875 24.703125 23.78125 
L 21.578125 24.515625 
Q 13.234375 26.265625 9.515625 29.90625 
Q 5.8125 33.546875 5.8125 39.890625 
Q 5.8125 47.609375 11.28125 51.796875 
Q 16.75 56 26.8125 56 
Q 31.78125 56 36.171875 55.265625 
Q 40.578125 54.546875 44.28125 53.078125 
z
" id="DejaVuSans-73"/>
     </defs>
     <g transform="translate(362.254688 80.514688)scale(0.1 -0.1)">
      <use xlink:href="#DejaVuSans-73"/>
      <use x="52.099609" xlink:href="#DejaVuSans-6e"/>
     </g>
    </g>
   </g>
  </g>
 </g>
 <defs>
  <clipPath id="p7fd752e56d">
   <rect height="217.44" width="334.8" x="54" y="34.56"/>
  </clipPath>
 </defs>
</svg>
