<?xml version="1.0" encoding="utf-8" standalone="no"?>
<!DOCTYPE svg PUBLIC "-//W3C//DTD SVG 1.1//EN"
  "http://www.w3.org/Graphics/SVG/1.1/DTD/svg11.dtd">
<!-- Created with matplotlib (http://matplotlib.org/) -->
<svg height="288pt" version="1.1" viewBox="0 0 432 288" width="432pt" xmlns="http://www.w3.org/2000/svg" xmlns:xlink="http://www.w3.org/1999/xlink">
 <defs>
  <style type="text/css">
*{stroke-linecap:butt;stroke-linejoin:round;}
  </style>
 </defs>
 <g id="figure_1">
  <g id="patch_1">
   <path d="M 0 288 
L 432 288 
L 432 0 
L 0 0 
z
" style="fill:#ffffff;"/>
  </g>
  <g id="axes_1">
   <g id="patch_2">
    <path d="M 54 252 
L 388.8 252 
L 388.8 34.56 
L 54 34.56 
z
" style="fill:#ffffff;"/>
   </g>
   <g id="matplotlib.axis_1">
    <g id="xtick_1">
     <g id="line2d_1">
      <defs>
       <path d="M 0 0 
L 0 3.5 
" id="meb53dd6163" style="stroke:#000000;stroke-width:0.8;"/>
      </defs>
      <g>
       <use style="stroke:#000000;stroke-width:0.8;" x="86.539877" xlink:href="#meb53dd6163" y="252"/>
      </g>
     </g>
     <g id="text_1">
      <!-- 20 -->
      <defs>
       <path d="M 19.1875 8.296875 
L 53.609375 8.296875 
L 53.609375 0 
L 7.328125 0 
L 7.328125 8.296875 
Q 12.9375 14.109375 22.625 23.890625 
Q 32.328125 33.6875 34.8125 36.53125 
Q 39.546875 41.84375 41.421875 45.53125 
Q 43.3125 49.21875 43.3125 52.78125 
Q 43.3125 58.59375 39.234375 62.25 
Q 35.15625 65.921875 28.609375 65.921875 
Q 23.96875 65.921875 18.8125 64.3125 
Q 13.671875 62.703125 7.8125 59.421875 
L 7.8125 69.390625 
Q 13.765625 71.78125 18.9375 73 
Q 24.125 74.21875 28.421875 74.21875 
Q 39.75 74.21875 46.484375 68.546875 
Q 53.21875 62.890625 53.21875 53.421875 
Q 53.21875 48.921875 51.53125 44.890625 
Q 49.859375 40.875 45.40625 35.40625 
Q 44.1875 33.984375 37.640625 27.21875 
Q 31.109375 20.453125 19.1875 8.296875 
z
" id="DejaVuSans-32"/>
       <path d="M 31.78125 66.40625 
Q 24.171875 66.40625 20.328125 58.90625 
Q 16.5 51.421875 16.5 36.375 
Q 16.5 21.390625 20.328125 13.890625 
Q 24.171875 6.390625 31.78125 6.390625 
Q 39.453125 6.390625 43.28125 13.890625 
Q 47.125 21.390625 47.125 36.375 
Q 47.125 51.421875 43.28125 58.90625 
Q 39.453125 66.40625 31.78125 66.40625 
z
M 31.78125 74.21875 
Q 44.046875 74.21875 50.515625 64.515625 
Q 56.984375 54.828125 56.984375 36.375 
Q 56.984375 17.96875 50.515625 8.265625 
Q 44.046875 -1.421875 31.78125 -1.421875 
Q 19.53125 -1.421875 13.0625 8.265625 
Q 6.59375 17.96875 6.59375 36.375 
Q 6.59375 54.828125 13.0625 64.515625 
Q 19.53125 74.21875 31.78125 74.21875 
z
" id="DejaVuSans-30"/>
      </defs>
      <g transform="translate(80.177377 266.598437)scale(0.1 -0.1)">
       <use xlink:href="#DejaVuSans-32"/>
       <use x="63.623047" xlink:href="#DejaVuSans-30"/>
      </g>
     </g>
    </g>
    <g id="xtick_2">
     <g id="line2d_2">
      <g>
       <use style="stroke:#000000;stroke-width:0.8;" x="130.71457" xlink:href="#meb53dd6163" y="252"/>
      </g>
     </g>
     <g id="text_2">
      <!-- 40 -->
      <defs>
       <path d="M 37.796875 64.3125 
L 12.890625 25.390625 
L 37.796875 25.390625 
z
M 35.203125 72.90625 
L 47.609375 72.90625 
L 47.609375 25.390625 
L 58.015625 25.390625 
L 58.015625 17.1875 
L 47.609375 17.1875 
L 47.609375 0 
L 37.796875 0 
L 37.796875 17.1875 
L 4.890625 17.1875 
L 4.890625 26.703125 
z
" id="DejaVuSans-34"/>
      </defs>
      <g transform="translate(124.35207 266.598437)scale(0.1 -0.1)">
       <use xlink:href="#DejaVuSans-34"/>
       <use x="63.623047" xlink:href="#DejaVuSans-30"/>
      </g>
     </g>
    </g>
    <g id="xtick_3">
     <g id="line2d_3">
      <g>
       <use style="stroke:#000000;stroke-width:0.8;" x="174.889263" xlink:href="#meb53dd6163" y="252"/>
      </g>
     </g>
     <g id="text_3">
      <!-- 60 -->
      <defs>
       <path d="M 33.015625 40.375 
Q 26.375 40.375 22.484375 35.828125 
Q 18.609375 31.296875 18.609375 23.390625 
Q 18.609375 15.53125 22.484375 10.953125 
Q 26.375 6.390625 33.015625 6.390625 
Q 39.65625 6.390625 43.53125 10.953125 
Q 47.40625 15.53125 47.40625 23.390625 
Q 47.40625 31.296875 43.53125 35.828125 
Q 39.65625 40.375 33.015625 40.375 
z
M 52.59375 71.296875 
L 52.59375 62.3125 
Q 48.875 64.0625 45.09375 64.984375 
Q 41.3125 65.921875 37.59375 65.921875 
Q 27.828125 65.921875 22.671875 59.328125 
Q 17.53125 52.734375 16.796875 39.40625 
Q 19.671875 43.65625 24.015625 45.921875 
Q 28.375 48.1875 33.59375 48.1875 
Q 44.578125 48.1875 50.953125 41.515625 
Q 57.328125 34.859375 57.328125 23.390625 
Q 57.328125 12.15625 50.6875 5.359375 
Q 44.046875 -1.421875 33.015625 -1.421875 
Q 20.359375 -1.421875 13.671875 8.265625 
Q 6.984375 17.96875 6.984375 36.375 
Q 6.984375 53.65625 15.1875 63.9375 
Q 23.390625 74.21875 37.203125 74.21875 
Q 40.921875 74.21875 44.703125 73.484375 
Q 48.484375 72.75 52.59375 71.296875 
z
" id="DejaVuSans-36"/>
      </defs>
      <g transform="translate(168.526763 266.598437)scale(0.1 -0.1)">
       <use xlink:href="#DejaVuSans-36"/>
       <use x="63.623047" xlink:href="#DejaVuSans-30"/>
      </g>
     </g>
    </g>
    <g id="xtick_4">
     <g id="line2d_4">
      <g>
       <use style="stroke:#000000;stroke-width:0.8;" x="219.063956" xlink:href="#meb53dd6163" y="252"/>
      </g>
     </g>
     <g id="text_4">
      <!-- 80 -->
      <defs>
       <path d="M 31.78125 34.625 
Q 24.75 34.625 20.71875 30.859375 
Q 16.703125 27.09375 16.703125 20.515625 
Q 16.703125 13.921875 20.71875 10.15625 
Q 24.75 6.390625 31.78125 6.390625 
Q 38.8125 6.390625 42.859375 10.171875 
Q 46.921875 13.96875 46.921875 20.515625 
Q 46.921875 27.09375 42.890625 30.859375 
Q 38.875 34.625 31.78125 34.625 
z
M 21.921875 38.8125 
Q 15.578125 40.375 12.03125 44.71875 
Q 8.5 49.078125 8.5 55.328125 
Q 8.5 64.0625 14.71875 69.140625 
Q 20.953125 74.21875 31.78125 74.21875 
Q 42.671875 74.21875 48.875 69.140625 
Q 55.078125 64.0625 55.078125 55.328125 
Q 55.078125 49.078125 51.53125 44.71875 
Q 48 40.375 41.703125 38.8125 
Q 48.828125 37.15625 52.796875 32.3125 
Q 56.78125 27.484375 56.78125 20.515625 
Q 56.78125 9.90625 50.3125 4.234375 
Q 43.84375 -1.421875 31.78125 -1.421875 
Q 19.734375 -1.421875 13.25 4.234375 
Q 6.78125 9.90625 6.78125 20.515625 
Q 6.78125 27.484375 10.78125 32.3125 
Q 14.796875 37.15625 21.921875 38.8125 
z
M 18.3125 54.390625 
Q 18.3125 48.734375 21.84375 45.5625 
Q 25.390625 42.390625 31.78125 42.390625 
Q 38.140625 42.390625 41.71875 45.5625 
Q 45.3125 48.734375 45.3125 54.390625 
Q 45.3125 60.0625 41.71875 63.234375 
Q 38.140625 66.40625 31.78125 66.40625 
Q 25.390625 66.40625 21.84375 63.234375 
Q 18.3125 60.0625 18.3125 54.390625 
z
" id="DejaVuSans-38"/>
      </defs>
      <g transform="translate(212.701456 266.598437)scale(0.1 -0.1)">
       <use xlink:href="#DejaVuSans-38"/>
       <use x="63.623047" xlink:href="#DejaVuSans-30"/>
      </g>
     </g>
    </g>
    <g id="xtick_5">
     <g id="line2d_5">
      <g>
       <use style="stroke:#000000;stroke-width:0.8;" x="263.23865" xlink:href="#meb53dd6163" y="252"/>
      </g>
     </g>
     <g id="text_5">
      <!-- 100 -->
      <defs>
       <path d="M 12.40625 8.296875 
L 28.515625 8.296875 
L 28.515625 63.921875 
L 10.984375 60.40625 
L 10.984375 69.390625 
L 28.421875 72.90625 
L 38.28125 72.90625 
L 38.28125 8.296875 
L 54.390625 8.296875 
L 54.390625 0 
L 12.40625 0 
z
" id="DejaVuSans-31"/>
      </defs>
      <g transform="translate(253.6949 266.598437)scale(0.1 -0.1)">
       <use xlink:href="#DejaVuSans-31"/>
       <use x="63.623047" xlink:href="#DejaVuSans-30"/>
       <use x="127.246094" xlink:href="#DejaVuSans-30"/>
      </g>
     </g>
    </g>
    <g id="xtick_6">
     <g id="line2d_6">
      <g>
       <use style="stroke:#000000;stroke-width:0.8;" x="307.413343" xlink:href="#meb53dd6163" y="252"/>
      </g>
     </g>
     <g id="text_6">
      <!-- 120 -->
      <g transform="translate(297.869593 266.598437)scale(0.1 -0.1)">
       <use xlink:href="#DejaVuSans-31"/>
       <use x="63.623047" xlink:href="#DejaVuSans-32"/>
       <use x="127.246094" xlink:href="#DejaVuSans-30"/>
      </g>
     </g>
    </g>
    <g id="xtick_7">
     <g id="line2d_7">
      <g>
       <use style="stroke:#000000;stroke-width:0.8;" x="351.588036" xlink:href="#meb53dd6163" y="252"/>
      </g>
     </g>
     <g id="text_7">
      <!-- 140 -->
      <g transform="translate(342.044286 266.598437)scale(0.1 -0.1)">
       <use xlink:href="#DejaVuSans-31"/>
       <use x="63.623047" xlink:href="#DejaVuSans-34"/>
       <use x="127.246094" xlink:href="#DejaVuSans-30"/>
      </g>
     </g>
    </g>
    <g id="text_8">
     <!-- Energy (keV) -->
     <defs>
      <path d="M 9.8125 72.90625 
L 55.90625 72.90625 
L 55.90625 64.59375 
L 19.671875 64.59375 
L 19.671875 43.015625 
L 54.390625 43.015625 
L 54.390625 34.71875 
L 19.671875 34.71875 
L 19.671875 8.296875 
L 56.78125 8.296875 
L 56.78125 0 
L 9.8125 0 
z
" id="DejaVuSans-45"/>
      <path d="M 54.890625 33.015625 
L 54.890625 0 
L 45.90625 0 
L 45.90625 32.71875 
Q 45.90625 40.484375 42.875 44.328125 
Q 39.84375 48.1875 33.796875 48.1875 
Q 26.515625 48.1875 22.3125 43.546875 
Q 18.109375 38.921875 18.109375 30.90625 
L 18.109375 0 
L 9.078125 0 
L 9.078125 54.6875 
L 18.109375 54.6875 
L 18.109375 46.1875 
Q 21.34375 51.125 25.703125 53.5625 
Q 30.078125 56 35.796875 56 
Q 45.21875 56 50.046875 50.171875 
Q 54.890625 44.34375 54.890625 33.015625 
z
" id="DejaVuSans-6e"/>
      <path d="M 56.203125 29.59375 
L 56.203125 25.203125 
L 14.890625 25.203125 
Q 15.484375 15.921875 20.484375 11.0625 
Q 25.484375 6.203125 34.421875 6.203125 
Q 39.59375 6.203125 44.453125 7.46875 
Q 49.3125 8.734375 54.109375 11.28125 
L 54.109375 2.78125 
Q 49.265625 0.734375 44.1875 -0.34375 
Q 39.109375 -1.421875 33.890625 -1.421875 
Q 20.796875 -1.421875 13.15625 6.1875 
Q 5.515625 13.8125 5.515625 26.8125 
Q 5.515625 40.234375 12.765625 48.109375 
Q 20.015625 56 32.328125 56 
Q 43.359375 56 49.78125 48.890625 
Q 56.203125 41.796875 56.203125 29.59375 
z
M 47.21875 32.234375 
Q 47.125 39.59375 43.09375 43.984375 
Q 39.0625 48.390625 32.421875 48.390625 
Q 24.90625 48.390625 20.390625 44.140625 
Q 15.875 39.890625 15.1875 32.171875 
z
" id="DejaVuSans-65"/>
      <path d="M 41.109375 46.296875 
Q 39.59375 47.171875 37.8125 47.578125 
Q 36.03125 48 33.890625 48 
Q 26.265625 48 22.1875 43.046875 
Q 18.109375 38.09375 18.109375 28.8125 
L 18.109375 0 
L 9.078125 0 
L 9.078125 54.6875 
L 18.109375 54.6875 
L 18.109375 46.1875 
Q 20.953125 51.171875 25.484375 53.578125 
Q 30.03125 56 36.53125 56 
Q 37.453125 56 38.578125 55.875 
Q 39.703125 55.765625 41.0625 55.515625 
z
" id="DejaVuSans-72"/>
      <path d="M 45.40625 27.984375 
Q 45.40625 37.75 41.375 43.109375 
Q 37.359375 48.484375 30.078125 48.484375 
Q 22.859375 48.484375 18.828125 43.109375 
Q 14.796875 37.75 14.796875 27.984375 
Q 14.796875 18.265625 18.828125 12.890625 
Q 22.859375 7.515625 30.078125 7.515625 
Q 37.359375 7.515625 41.375 12.890625 
Q 45.40625 18.265625 45.40625 27.984375 
z
M 54.390625 6.78125 
Q 54.390625 -7.171875 48.1875 -13.984375 
Q 42 -20.796875 29.203125 -20.796875 
Q 24.46875 -20.796875 20.265625 -20.09375 
Q 16.0625 -19.390625 12.109375 -17.921875 
L 12.109375 -9.1875 
Q 16.0625 -11.328125 19.921875 -12.34375 
Q 23.78125 -13.375 27.78125 -13.375 
Q 36.625 -13.375 41.015625 -8.765625 
Q 45.40625 -4.15625 45.40625 5.171875 
L 45.40625 9.625 
Q 42.625 4.78125 38.28125 2.390625 
Q 33.9375 0 27.875 0 
Q 17.828125 0 11.671875 7.65625 
Q 5.515625 15.328125 5.515625 27.984375 
Q 5.515625 40.671875 11.671875 48.328125 
Q 17.828125 56 27.875 56 
Q 33.9375 56 38.28125 53.609375 
Q 42.625 51.21875 45.40625 46.390625 
L 45.40625 54.6875 
L 54.390625 54.6875 
z
" id="DejaVuSans-67"/>
      <path d="M 32.171875 -5.078125 
Q 28.375 -14.84375 24.75 -17.8125 
Q 21.140625 -20.796875 15.09375 -20.796875 
L 7.90625 -20.796875 
L 7.90625 -13.28125 
L 13.1875 -13.28125 
Q 16.890625 -13.28125 18.9375 -11.515625 
Q 21 -9.765625 23.484375 -3.21875 
L 25.09375 0.875 
L 2.984375 54.6875 
L 12.5 54.6875 
L 29.59375 11.921875 
L 46.6875 54.6875 
L 56.203125 54.6875 
z
" id="DejaVuSans-79"/>
      <path id="DejaVuSans-20"/>
      <path d="M 31 75.875 
Q 24.46875 64.65625 21.28125 53.65625 
Q 18.109375 42.671875 18.109375 31.390625 
Q 18.109375 20.125 21.3125 9.0625 
Q 24.515625 -2 31 -13.1875 
L 23.1875 -13.1875 
Q 15.875 -1.703125 12.234375 9.375 
Q 8.59375 20.453125 8.59375 31.390625 
Q 8.59375 42.28125 12.203125 53.3125 
Q 15.828125 64.359375 23.1875 75.875 
z
" id="DejaVuSans-28"/>
      <path d="M 9.078125 75.984375 
L 18.109375 75.984375 
L 18.109375 31.109375 
L 44.921875 54.6875 
L 56.390625 54.6875 
L 27.390625 29.109375 
L 57.625 0 
L 45.90625 0 
L 18.109375 26.703125 
L 18.109375 0 
L 9.078125 0 
z
" id="DejaVuSans-6b"/>
      <path d="M 28.609375 0 
L 0.78125 72.90625 
L 11.078125 72.90625 
L 34.1875 11.53125 
L 57.328125 72.90625 
L 67.578125 72.90625 
L 39.796875 0 
z
" id="DejaVuSans-56"/>
      <path d="M 8.015625 75.875 
L 15.828125 75.875 
Q 23.140625 64.359375 26.78125 53.3125 
Q 30.421875 42.28125 30.421875 31.390625 
Q 30.421875 20.453125 26.78125 9.375 
Q 23.140625 -1.703125 15.828125 -13.1875 
L 8.015625 -13.1875 
Q 14.5 -2 17.703125 9.0625 
Q 20.90625 20.125 20.90625 31.390625 
Q 20.90625 42.671875 17.703125 53.65625 
Q 14.5 64.65625 8.015625 75.875 
z
" id="DejaVuSans-29"/>
     </defs>
     <g transform="translate(188.926562 280.276563)scale(0.1 -0.1)">
      <use xlink:href="#DejaVuSans-45"/>
      <use x="63.183594" xlink:href="#DejaVuSans-6e"/>
      <use x="126.5625" xlink:href="#DejaVuSans-65"/>
      <use x="188.085938" xlink:href="#DejaVuSans-72"/>
      <use x="229.183594" xlink:href="#DejaVuSans-67"/>
      <use x="292.660156" xlink:href="#DejaVuSans-79"/>
      <use x="351.839844" xlink:href="#DejaVuSans-20"/>
      <use x="383.626953" xlink:href="#DejaVuSans-28"/>
      <use x="422.640625" xlink:href="#DejaVuSans-6b"/>
      <use x="480.503906" xlink:href="#DejaVuSans-65"/>
      <use x="542.027344" xlink:href="#DejaVuSans-56"/>
      <use x="610.435547" xlink:href="#DejaVuSans-29"/>
     </g>
    </g>
   </g>
   <g id="matplotlib.axis_2">
    <g id="ytick_1">
     <g id="line2d_8">
      <defs>
       <path d="M 0 0 
L -3.5 0 
" id="mf520455afb" style="stroke:#000000;stroke-width:0.8;"/>
      </defs>
      <g>
       <use style="stroke:#000000;stroke-width:0.8;" x="54" xlink:href="#mf520455afb" y="242.116364"/>
      </g>
     </g>
     <g id="text_9">
      <!-- 0.0 -->
      <defs>
       <path d="M 10.6875 12.40625 
L 21 12.40625 
L 21 0 
L 10.6875 0 
z
" id="DejaVuSans-2e"/>
      </defs>
      <g transform="translate(31.096875 245.915582)scale(0.1 -0.1)">
       <use xlink:href="#DejaVuSans-30"/>
       <use x="63.623047" xlink:href="#DejaVuSans-2e"/>
       <use x="95.410156" xlink:href="#DejaVuSans-30"/>
      </g>
     </g>
    </g>
    <g id="ytick_2">
     <g id="line2d_9">
      <g>
       <use style="stroke:#000000;stroke-width:0.8;" x="54" xlink:href="#mf520455afb" y="202.581818"/>
      </g>
     </g>
     <g id="text_10">
      <!-- 0.2 -->
      <g transform="translate(31.096875 206.381037)scale(0.1 -0.1)">
       <use xlink:href="#DejaVuSans-30"/>
       <use x="63.623047" xlink:href="#DejaVuSans-2e"/>
       <use x="95.410156" xlink:href="#DejaVuSans-32"/>
      </g>
     </g>
    </g>
    <g id="ytick_3">
     <g id="line2d_10">
      <g>
       <use style="stroke:#000000;stroke-width:0.8;" x="54" xlink:href="#mf520455afb" y="163.047273"/>
      </g>
     </g>
     <g id="text_11">
      <!-- 0.4 -->
      <g transform="translate(31.096875 166.846491)scale(0.1 -0.1)">
       <use xlink:href="#DejaVuSans-30"/>
       <use x="63.623047" xlink:href="#DejaVuSans-2e"/>
       <use x="95.410156" xlink:href="#DejaVuSans-34"/>
      </g>
     </g>
    </g>
    <g id="ytick_4">
     <g id="line2d_11">
      <g>
       <use style="stroke:#000000;stroke-width:0.8;" x="54" xlink:href="#mf520455afb" y="123.512727"/>
      </g>
     </g>
     <g id="text_12">
      <!-- 0.6 -->
      <g transform="translate(31.096875 127.311946)scale(0.1 -0.1)">
       <use xlink:href="#DejaVuSans-30"/>
       <use x="63.623047" xlink:href="#DejaVuSans-2e"/>
       <use x="95.410156" xlink:href="#DejaVuSans-36"/>
      </g>
     </g>
    </g>
    <g id="ytick_5">
     <g id="line2d_12">
      <g>
       <use style="stroke:#000000;stroke-width:0.8;" x="54" xlink:href="#mf520455afb" y="83.978182"/>
      </g>
     </g>
     <g id="text_13">
      <!-- 0.8 -->
      <g transform="translate(31.096875 87.777401)scale(0.1 -0.1)">
       <use xlink:href="#DejaVuSans-30"/>
       <use x="63.623047" xlink:href="#DejaVuSans-2e"/>
       <use x="95.410156" xlink:href="#DejaVuSans-38"/>
      </g>
     </g>
    </g>
    <g id="ytick_6">
     <g id="line2d_13">
      <g>
       <use style="stroke:#000000;stroke-width:0.8;" x="54" xlink:href="#mf520455afb" y="44.443636"/>
      </g>
     </g>
     <g id="text_14">
      <!-- 1.0 -->
      <g transform="translate(31.096875 48.242855)scale(0.1 -0.1)">
       <use xlink:href="#DejaVuSans-31"/>
       <use x="63.623047" xlink:href="#DejaVuSans-2e"/>
       <use x="95.410156" xlink:href="#DejaVuSans-30"/>
      </g>
     </g>
    </g>
   </g>
   <g id="line2d_14">
    <path clip-path="url(#pe732c9096b)" d="M 69.218182 177.78463 
L 69.659929 177.78463 
L 69.659929 179.171758 
L 70.101676 179.171758 
L 70.101676 180.360901 
L 70.543423 180.360901 
L 70.543423 181.30043 
L 70.98517 181.30043 
L 70.98517 182.021873 
L 71.426916 182.021873 
L 71.426916 182.667912 
L 71.868663 182.667912 
L 71.868663 183.291714 
L 72.31041 183.291714 
L 72.31041 183.923817 
L 72.752157 183.923817 
L 72.752157 184.565895 
L 73.193904 184.565895 
L 73.193904 185.026788 
L 73.635651 185.026788 
L 73.635651 185.475221 
L 74.077398 185.475221 
L 74.077398 187.987637 
L 74.519145 187.987637 
L 74.519145 193.534557 
L 74.960892 193.534557 
L 74.960892 195.028609 
L 75.402639 195.028609 
L 75.402639 195.325805 
L 75.844386 195.325805 
L 75.844386 195.54949 
L 76.286133 195.54949 
L 76.286133 195.769299 
L 78.936614 195.674862 
L 78.936614 195.485631 
L 79.378361 195.485631 
L 79.378361 195.363284 
L 79.820108 195.363284 
L 79.820108 195.19426 
L 80.261855 195.19426 
L 80.261855 195.0292 
L 80.703602 195.0292 
L 80.703602 194.784927 
L 81.145349 194.784927 
L 81.145349 194.258876 
L 81.587096 194.258876 
L 81.587096 193.791992 
L 82.028843 193.791992 
L 82.028843 193.234126 
L 82.47059 193.234126 
L 82.47059 192.597807 
L 82.912337 192.597807 
L 82.912337 192.100675 
L 83.354084 192.100675 
L 83.354084 191.192213 
L 83.795831 191.192213 
L 83.795831 190.417136 
L 84.237578 190.417136 
L 84.237578 189.991499 
L 84.679324 189.991499 
L 84.679324 190.454233 
L 85.121071 190.454233 
L 85.121071 190.322465 
L 85.562818 190.322465 
L 85.562818 189.240604 
L 86.004565 189.240604 
L 86.004565 187.9578 
L 86.446312 187.9578 
L 86.446312 186.611134 
L 86.888059 186.611134 
L 86.888059 185.087667 
L 87.329806 185.087667 
L 87.329806 183.31381 
L 87.771553 183.31381 
L 87.771553 181.749264 
L 88.2133 181.749264 
L 88.2133 180.073565 
L 88.655047 180.073565 
L 88.655047 178.153931 
L 89.096794 178.153931 
L 89.096794 175.89463 
L 89.538541 175.89463 
L 89.538541 173.899377 
L 89.980288 173.899377 
L 89.980288 171.70667 
L 90.422035 171.70667 
L 90.422035 169.53391 
L 90.863782 169.53391 
L 90.863782 167.28087 
L 91.305528 167.28087 
L 91.305528 164.671762 
L 91.747275 164.671762 
L 91.747275 162.041095 
L 92.189022 162.041095 
L 92.189022 159.308414 
L 92.630769 159.308414 
L 92.630769 156.645096 
L 93.072516 156.645096 
L 93.072516 154.022798 
L 93.514263 154.022798 
L 93.514263 151.113616 
L 93.95601 151.113616 
L 93.95601 148.313862 
L 94.397757 148.313862 
L 94.397757 146.134773 
L 94.839504 146.134773 
L 94.839504 144.590128 
L 95.281251 144.590128 
L 95.281251 143.059105 
L 95.722998 143.059105 
L 95.722998 139.934679 
L 96.164745 139.934679 
L 96.164745 136.724156 
L 96.606492 136.724156 
L 96.606492 133.698486 
L 97.048239 133.698486 
L 97.048239 130.654287 
L 97.489985 130.654287 
L 97.489985 127.473592 
L 97.931732 127.473592 
L 97.931732 124.429062 
L 98.373479 124.429062 
L 98.373479 121.366822 
L 98.815226 121.366822 
L 98.815226 118.507178 
L 99.256973 118.507178 
L 99.256973 115.627192 
L 99.69872 115.627192 
L 99.69872 112.63187 
L 100.140467 112.63187 
L 100.140467 109.850019 
L 100.582214 109.850019 
L 100.582214 107.022864 
L 101.023961 107.022864 
L 101.023961 104.205227 
L 101.465708 104.205227 
L 101.465708 101.577672 
L 101.907455 101.577672 
L 101.907455 98.874014 
L 102.349202 98.874014 
L 102.349202 96.094978 
L 102.790949 96.094978 
L 102.790949 93.525452 
L 103.232696 93.525452 
L 103.232696 90.963315 
L 103.674443 90.963315 
L 103.674443 88.591384 
L 104.116189 88.591384 
L 104.116189 86.378699 
L 104.557936 86.378699 
L 104.557936 84.05588 
L 104.999683 84.05588 
L 104.999683 81.594562 
L 105.44143 81.594562 
L 105.44143 78.800593 
L 105.883177 78.800593 
L 105.883177 76.478152 
L 106.324924 76.478152 
L 106.324924 74.426761 
L 106.766671 74.426761 
L 106.766671 72.433137 
L 107.208418 72.433137 
L 107.208418 70.233188 
L 107.650165 70.233188 
L 107.650165 68.472151 
L 108.091912 68.472151 
L 108.091912 66.894302 
L 108.533659 66.894302 
L 108.533659 64.960569 
L 108.975406 64.960569 
L 108.975406 62.947843 
L 109.417153 62.947843 
L 109.417153 61.325767 
L 109.8589 61.325767 
L 109.8589 60.099336 
L 110.300647 60.099336 
L 110.300647 58.371087 
L 110.742393 58.371087 
L 110.742393 56.697385 
L 111.18414 56.697385 
L 111.18414 55.060211 
L 111.625887 55.060211 
L 111.625887 53.351429 
L 112.067634 53.351429 
L 112.067634 52.346212 
L 112.509381 52.346212 
L 112.509381 51.697637 
L 112.951128 51.697637 
L 112.951128 50.860379 
L 113.392875 50.860379 
L 113.392875 50.214347 
L 113.834622 50.214347 
L 113.834622 49.222629 
L 114.276369 49.222629 
L 114.276369 48.819155 
L 114.718116 48.819155 
L 114.718116 48.492544 
L 115.159863 48.492544 
L 115.159863 47.910304 
L 115.60161 47.910304 
L 115.60161 45.996093 
L 116.043357 45.996093 
L 116.043357 44.637798 
L 116.485104 44.637798 
L 116.485104 44.443636 
L 117.368597 44.45761 
L 117.368597 44.573176 
L 117.810344 44.573176 
L 117.810344 45.000427 
L 118.252091 45.000427 
L 118.252091 45.351853 
L 118.693838 45.351853 
L 118.693838 45.814312 
L 119.135585 45.814312 
L 119.135585 46.426043 
L 119.577332 46.426043 
L 119.577332 47.100097 
L 120.019079 47.100097 
L 120.019079 47.942628 
L 120.460826 47.942628 
L 120.460826 48.722226 
L 120.902573 48.722226 
L 120.902573 49.850587 
L 121.34432 49.850587 
L 121.34432 50.947146 
L 121.786067 50.947146 
L 121.786067 52.048924 
L 122.227814 52.048924 
L 122.227814 53.48932 
L 122.669561 53.48932 
L 122.669561 54.680801 
L 123.111308 54.680801 
L 123.111308 56.061366 
L 123.553054 56.061366 
L 123.553054 57.441979 
L 123.994801 57.441979 
L 123.994801 58.615431 
L 124.436548 58.615431 
L 124.436548 60.306756 
L 124.878295 60.306756 
L 124.878295 61.838379 
L 125.320042 61.838379 
L 125.320042 63.177655 
L 125.761789 63.177655 
L 125.761789 63.492644 
L 126.203536 63.492644 
L 126.203536 63.801862 
L 126.645283 63.801862 
L 126.645283 65.600366 
L 127.08703 65.600366 
L 127.08703 67.480129 
L 127.528777 67.480129 
L 127.528777 69.191231 
L 127.970524 69.191231 
L 127.970524 70.977014 
L 128.412271 70.977014 
L 128.412271 73.040833 
L 128.854018 73.040833 
L 128.854018 75.086473 
L 129.295765 75.086473 
L 129.295765 77.016218 
L 129.737512 77.016218 
L 129.737512 78.954358 
L 130.179258 78.954358 
L 130.179258 80.960384 
L 130.621005 80.960384 
L 130.621005 83.004683 
L 131.062752 83.004683 
L 131.062752 84.926349 
L 131.504499 84.926349 
L 131.504499 86.901223 
L 131.946246 86.901223 
L 131.946246 89.018324 
L 132.387993 89.018324 
L 132.387993 91.053889 
L 132.82974 91.053889 
L 132.82974 93.206589 
L 133.271487 93.206589 
L 133.271487 95.23552 
L 133.713234 95.23552 
L 133.713234 97.222016 
L 134.154981 97.222016 
L 134.154981 99.472183 
L 134.596728 99.472183 
L 134.596728 101.416511 
L 135.038475 101.416511 
L 135.038475 103.431088 
L 135.480222 103.431088 
L 135.480222 105.137869 
L 135.921969 105.137869 
L 135.921969 106.738329 
L 136.363716 106.738329 
L 136.363716 108.317214 
L 136.805462 108.317214 
L 136.805462 110.239164 
L 137.247209 110.239164 
L 137.247209 112.325089 
L 137.688956 112.325089 
L 137.688956 114.412217 
L 138.130703 114.412217 
L 138.130703 116.494615 
L 138.57245 116.494615 
L 138.57245 118.328118 
L 139.014197 118.328118 
L 139.014197 120.223517 
L 139.455944 120.223517 
L 139.455944 122.144364 
L 139.897691 122.144364 
L 139.897691 124.041774 
L 140.339438 124.041774 
L 140.339438 126.057478 
L 140.781185 126.057478 
L 140.781185 127.934669 
L 141.222932 127.934669 
L 141.222932 129.873368 
L 141.664679 129.873368 
L 141.664679 131.903705 
L 142.106426 131.903705 
L 142.106426 133.851827 
L 142.548173 133.851827 
L 142.548173 135.749021 
L 142.98992 135.749021 
L 142.98992 137.512164 
L 143.431666 137.512164 
L 143.431666 139.25169 
L 143.873413 139.25169 
L 143.873413 141.044508 
L 144.31516 141.044508 
L 144.31516 142.676954 
L 144.756907 142.676954 
L 144.756907 144.449193 
L 145.198654 144.449193 
L 145.198654 146.106883 
L 145.640401 146.106883 
L 145.640401 147.63905 
L 146.082148 147.63905 
L 146.082148 149.239762 
L 146.523895 149.239762 
L 146.523895 151.363236 
L 146.965642 151.363236 
L 146.965642 153.359258 
L 147.407389 153.359258 
L 147.407389 155.115951 
L 147.849136 155.115951 
L 147.849136 156.703856 
L 148.290883 156.703856 
L 148.290883 158.369296 
L 148.73263 158.369296 
L 148.73263 159.987285 
L 149.174377 159.987285 
L 149.174377 161.460375 
L 149.616123 161.460375 
L 149.616123 162.988995 
L 150.05787 162.988995 
L 150.05787 164.488666 
L 150.499617 164.488666 
L 150.499617 165.956795 
L 150.941364 165.956795 
L 150.941364 167.270543 
L 151.383111 167.270543 
L 151.383111 168.663211 
L 151.824858 168.663211 
L 151.824858 169.942051 
L 152.266605 169.942051 
L 152.266605 171.227759 
L 152.708352 171.227759 
L 152.708352 172.502597 
L 153.150099 172.502597 
L 153.150099 173.680391 
L 153.591846 173.680391 
L 153.591846 174.925454 
L 154.033593 174.925454 
L 154.033593 176.122042 
L 154.47534 176.122042 
L 154.47534 177.303778 
L 154.917087 177.303778 
L 154.917087 178.476012 
L 155.358834 178.476012 
L 155.358834 179.536596 
L 155.800581 179.536596 
L 155.800581 180.577534 
L 156.242327 180.577534 
L 156.242327 181.468143 
L 156.684074 181.468143 
L 156.684074 182.745993 
L 157.125821 182.745993 
L 157.125821 184.206644 
L 157.567568 184.206644 
L 157.567568 185.227644 
L 158.009315 185.227644 
L 158.009315 186.216241 
L 158.451062 186.216241 
L 158.451062 187.177661 
L 158.892809 187.177661 
L 158.892809 188.125175 
L 159.334556 188.125175 
L 159.334556 189.085855 
L 159.776303 189.085855 
L 159.776303 190.003498 
L 160.21805 190.003498 
L 160.21805 190.924127 
L 160.659797 190.924127 
L 160.659797 191.850078 
L 161.101544 191.850078 
L 161.101544 192.710922 
L 161.543291 192.710922 
L 161.543291 193.614142 
L 161.985038 193.614142 
L 161.985038 194.502805 
L 162.426785 194.502805 
L 162.426785 195.307045 
L 162.868531 195.307045 
L 162.868531 196.198303 
L 163.310278 196.198303 
L 163.310278 197.048112 
L 163.752025 197.048112 
L 163.752025 197.801127 
L 164.193772 197.801127 
L 164.193772 198.50755 
L 164.635519 198.50755 
L 164.635519 199.203241 
L 165.077266 199.203241 
L 165.077266 199.95432 
L 165.519013 199.95432 
L 165.519013 200.689812 
L 165.96076 200.689812 
L 165.96076 201.364963 
L 166.402507 201.364963 
L 166.402507 202.000689 
L 166.844254 202.000689 
L 166.844254 202.788862 
L 167.286001 202.788862 
L 167.286001 203.818462 
L 167.727748 203.818462 
L 167.727748 204.640209 
L 168.169495 204.640209 
L 168.169495 205.324349 
L 168.611242 205.324349 
L 168.611242 206.027352 
L 169.052989 206.027352 
L 169.052989 206.755183 
L 169.494735 206.755183 
L 169.494735 207.429752 
L 169.936482 207.429752 
L 169.936482 208.112057 
L 170.378229 208.112057 
L 170.378229 208.801309 
L 170.819976 208.801309 
L 170.819976 209.474661 
L 171.261723 209.474661 
L 171.261723 210.149687 
L 171.70347 210.149687 
L 171.70347 210.782472 
L 172.145217 210.782472 
L 172.145217 211.414593 
L 172.586964 211.414593 
L 172.586964 212.120924 
L 173.028711 212.120924 
L 173.028711 212.748576 
L 173.470458 212.748576 
L 173.470458 213.348896 
L 173.912205 213.348896 
L 173.912205 213.970956 
L 174.353952 213.970956 
L 174.353952 214.590784 
L 174.795699 214.590784 
L 174.795699 215.247691 
L 175.237446 215.247691 
L 175.237446 215.834187 
L 175.679193 215.834187 
L 175.679193 216.433395 
L 176.120939 216.433395 
L 176.120939 216.984196 
L 176.562686 216.984196 
L 176.562686 217.513551 
L 177.004433 217.513551 
L 177.004433 218.024632 
L 177.44618 218.024632 
L 177.44618 218.681497 
L 177.887927 218.681497 
L 177.887927 219.289786 
L 178.329674 219.289786 
L 178.329674 219.840164 
L 178.771421 219.840164 
L 178.771421 220.398738 
L 179.213168 220.398738 
L 179.213168 220.922779 
L 179.654915 220.922779 
L 179.654915 221.434184 
L 180.096662 221.434184 
L 180.096662 221.888606 
L 180.538409 221.888606 
L 180.538409 222.365862 
L 180.980156 222.365862 
L 180.980156 222.847545 
L 181.421903 222.847545 
L 181.421903 223.292827 
L 181.86365 223.292827 
L 181.86365 223.688131 
L 182.305396 223.688131 
L 182.305396 224.120596 
L 182.747143 224.120596 
L 182.747143 224.518115 
L 183.18889 224.518115 
L 183.18889 224.89987 
L 183.630637 224.89987 
L 183.630637 225.301149 
L 184.072384 225.301149 
L 184.072384 225.639034 
L 184.514131 225.639034 
L 184.514131 225.983766 
L 184.955878 225.983766 
L 184.955878 226.312729 
L 185.397625 226.312729 
L 185.397625 226.625953 
L 185.839372 226.625953 
L 185.839372 226.977999 
L 186.281119 226.977999 
L 186.281119 227.301443 
L 186.722866 227.301443 
L 186.722866 227.600004 
L 187.164613 227.600004 
L 187.164613 227.88313 
L 187.60636 227.88313 
L 187.60636 228.349106 
L 188.048107 228.349106 
L 188.048107 228.867223 
L 188.489854 228.867223 
L 188.489854 229.201169 
L 188.9316 229.201169 
L 188.9316 229.499352 
L 189.373347 229.499352 
L 189.373347 229.803289 
L 189.815094 229.803289 
L 189.815094 230.079678 
L 190.256841 230.079678 
L 190.256841 230.362466 
L 190.698588 230.362466 
L 190.698588 230.642897 
L 191.140335 230.642897 
L 191.140335 230.925443 
L 191.582082 230.925443 
L 191.582082 231.201158 
L 192.023829 231.201158 
L 192.023829 231.462051 
L 192.465576 231.462051 
L 192.465576 231.718055 
L 192.907323 231.718055 
L 192.907323 231.975252 
L 193.34907 231.975252 
L 193.34907 232.23944 
L 193.790817 232.23944 
L 193.790817 232.493436 
L 194.232564 232.493436 
L 194.232564 232.742835 
L 194.674311 232.742835 
L 194.674311 232.971801 
L 195.116058 232.971801 
L 195.116058 233.201476 
L 195.557804 233.201476 
L 195.557804 233.426851 
L 195.999551 233.426851 
L 195.999551 233.642795 
L 196.441298 233.642795 
L 196.441298 233.851092 
L 196.883045 233.851092 
L 196.883045 234.034744 
L 197.324792 234.034744 
L 197.324792 234.202378 
L 197.766539 234.202378 
L 197.766539 234.40932 
L 198.208286 234.40932 
L 198.208286 234.682981 
L 198.650033 234.682981 
L 198.650033 234.888523 
L 199.09178 234.888523 
L 199.09178 235.073927 
L 199.533527 235.073927 
L 199.533527 235.256795 
L 199.975274 235.256795 
L 199.975274 235.451505 
L 200.417021 235.451505 
L 200.417021 235.619447 
L 200.858768 235.619447 
L 200.858768 235.784582 
L 201.300515 235.784582 
L 201.300515 235.957997 
L 201.742262 235.957997 
L 201.742262 236.116621 
L 202.184008 236.116621 
L 202.184008 236.259322 
L 202.625755 236.259322 
L 202.625755 236.390101 
L 203.067502 236.390101 
L 203.067502 236.529073 
L 203.509249 236.529073 
L 203.509249 236.655849 
L 203.950996 236.655849 
L 203.950996 236.786947 
L 204.392743 236.786947 
L 204.392743 236.908906 
L 205.276237 237.012308 
L 205.276237 237.125284 
L 206.159731 237.227987 
L 206.159731 237.336613 
L 207.043225 237.44417 
L 207.043225 237.529 
L 207.926719 237.617621 
L 207.926719 237.722728 
L 208.368465 237.722728 
L 208.368465 237.917497 
L 208.810212 237.917497 
L 208.810212 238.102157 
L 209.251959 238.102157 
L 209.251959 238.238718 
L 209.693706 238.238718 
L 209.693706 238.371416 
L 210.135453 238.371416 
L 210.135453 238.49191 
L 211.018947 238.597887 
L 211.018947 238.693651 
L 211.902441 238.797768 
L 211.902441 238.899209 
L 212.785935 238.997728 
L 212.785935 239.077288 
L 213.669429 239.166978 
L 213.669429 239.250021 
L 214.552923 239.335595 
L 214.552923 239.415475 
L 215.436416 239.480814 
L 215.436416 239.546487 
L 216.31991 239.605875 
L 216.31991 239.66565 
L 217.203404 239.731191 
L 217.203404 239.78405 
L 218.528645 239.879071 
L 218.528645 239.973202 
L 219.412139 240.063943 
L 219.412139 240.086907 
L 222.504367 240.192032 
L 222.504367 240.208628 
L 229.130571 240.309978 
L 229.130571 240.333939 
L 239.290751 240.443851 
L 239.290751 240.446653 
L 246.358702 240.553793 
L 246.358702 240.561815 
L 252.101412 240.664163 
L 252.101412 240.675213 
L 256.960628 240.777755 
L 256.960628 240.787942 
L 261.819844 240.890084 
L 261.819844 240.90071 
L 266.237314 241.004014 
L 266.237314 241.01497 
L 271.09653 241.122678 
L 271.09653 241.1326 
L 275.955746 241.238056 
L 275.955746 241.247104 
L 280.814962 241.350402 
L 280.814962 241.360684 
L 286.115926 241.468483 
L 286.115926 241.477436 
L 292.74213 241.587196 
L 292.74213 241.596364 
L 299.368334 241.705006 
L 299.368334 241.712534 
L 307.761525 241.822418 
L 307.761525 241.827357 
L 320.130439 241.936413 
L 320.130439 241.939318 
L 344.868268 242.050402 
L 344.868268 242.051541 
L 373.581818 242.084119 
L 373.581818 242.084669 
" style="fill:none;stroke:#1f77b4;stroke-linecap:square;stroke-width:1.5;"/>
   </g>
   <g id="line2d_15">
    <path clip-path="url(#pe732c9096b)" d="M 69.218182 160.145176 
L 69.659929 160.145176 
L 69.659929 162.751507 
L 70.101676 162.751507 
L 70.101676 164.999553 
L 70.543423 164.999553 
L 70.543423 167.133185 
L 70.98517 167.133185 
L 70.98517 169.012324 
L 71.426916 169.012324 
L 71.426916 170.742694 
L 71.868663 170.742694 
L 71.868663 172.165088 
L 72.31041 172.165088 
L 72.31041 173.372195 
L 72.752157 173.372195 
L 72.752157 174.62302 
L 73.193904 174.62302 
L 73.193904 175.784584 
L 73.635651 175.784584 
L 73.635651 176.949335 
L 74.077398 176.949335 
L 74.077398 179.603124 
L 74.519145 179.603124 
L 74.519145 183.910597 
L 74.960892 183.910597 
L 74.960892 185.556773 
L 75.402639 185.556773 
L 75.402639 186.308292 
L 75.844386 186.308292 
L 75.844386 186.874472 
L 76.286133 186.874472 
L 76.286133 187.316499 
L 76.72788 187.316499 
L 76.72788 187.758776 
L 77.169627 187.758776 
L 77.169627 188.253064 
L 77.611374 188.253064 
L 77.611374 188.626162 
L 78.05312 188.626162 
L 78.05312 188.96185 
L 78.494867 188.96185 
L 78.494867 189.268458 
L 78.936614 189.268458 
L 78.936614 189.52198 
L 79.378361 189.52198 
L 79.378361 189.789219 
L 79.820108 189.789219 
L 79.820108 190.042926 
L 80.261855 190.042926 
L 80.261855 190.197968 
L 81.145349 190.289004 
L 81.145349 190.371139 
L 82.47059 190.316441 
L 82.47059 190.158113 
L 82.912337 190.158113 
L 82.912337 190.021523 
L 83.354084 190.021523 
L 83.354084 189.826628 
L 83.795831 189.826628 
L 83.795831 189.592719 
L 84.237578 189.592719 
L 84.237578 189.458603 
L 84.679324 189.458603 
L 84.679324 190.775671 
L 85.121071 190.775671 
L 85.121071 190.934215 
L 85.562818 190.934215 
L 85.562818 190.082464 
L 86.004565 190.082464 
L 86.004565 189.194646 
L 86.446312 189.194646 
L 86.446312 188.216468 
L 86.888059 188.216468 
L 86.888059 187.089413 
L 87.329806 187.089413 
L 87.329806 185.890661 
L 87.771553 185.890661 
L 87.771553 184.592843 
L 88.2133 184.592843 
L 88.2133 183.332689 
L 88.655047 183.332689 
L 88.655047 181.909624 
L 89.096794 181.909624 
L 89.096794 180.37167 
L 89.538541 180.37167 
L 89.538541 178.77535 
L 89.980288 178.77535 
L 89.980288 177.427547 
L 90.422035 177.427547 
L 90.422035 175.662143 
L 90.863782 175.662143 
L 90.863782 173.785721 
L 91.305528 173.785721 
L 91.305528 171.811867 
L 91.747275 171.811867 
L 91.747275 169.848726 
L 92.189022 169.848726 
L 92.189022 167.605258 
L 92.630769 167.605258 
L 92.630769 165.226479 
L 93.072516 165.226479 
L 93.072516 162.837238 
L 93.514263 162.837238 
L 93.514263 160.368289 
L 93.95601 160.368289 
L 93.95601 157.753039 
L 94.397757 157.753039 
L 94.397757 155.275038 
L 94.839504 155.275038 
L 94.839504 154.192832 
L 95.281251 154.192832 
L 95.281251 153.135525 
L 95.722998 153.135525 
L 95.722998 150.332432 
L 96.164745 150.332432 
L 96.164745 147.334873 
L 96.606492 147.334873 
L 96.606492 144.583508 
L 97.048239 144.583508 
L 97.048239 141.785724 
L 97.489985 141.785724 
L 97.489985 138.917921 
L 97.931732 138.917921 
L 97.931732 136.033268 
L 98.373479 136.033268 
L 98.373479 133.206719 
L 98.815226 133.206719 
L 98.815226 130.366598 
L 99.256973 130.366598 
L 99.256973 127.651343 
L 99.69872 127.651343 
L 99.69872 124.872487 
L 100.140467 124.872487 
L 100.140467 121.949416 
L 100.582214 121.949416 
L 100.582214 119.18223 
L 101.023961 119.18223 
L 101.023961 116.547363 
L 101.465708 116.547363 
L 101.465708 113.965825 
L 101.907455 113.965825 
L 101.907455 111.412378 
L 102.349202 111.412378 
L 102.349202 108.911342 
L 102.790949 108.911342 
L 102.790949 106.684384 
L 103.232696 106.684384 
L 103.232696 104.401987 
L 103.674443 104.401987 
L 103.674443 102.144337 
L 104.116189 102.144337 
L 104.116189 99.988339 
L 104.557936 99.988339 
L 104.557936 97.883727 
L 104.999683 97.883727 
L 104.999683 95.526166 
L 105.44143 95.526166 
L 105.44143 92.7662 
L 105.883177 92.7662 
L 105.883177 90.502213 
L 106.324924 90.502213 
L 106.324924 88.275901 
L 106.766671 88.275901 
L 106.766671 86.26743 
L 107.208418 86.26743 
L 107.208418 84.398094 
L 107.650165 84.398094 
L 107.650165 82.346717 
L 108.091912 82.346717 
L 108.091912 80.358922 
L 108.533659 80.358922 
L 108.533659 78.281274 
L 108.975406 78.281274 
L 108.975406 76.27662 
L 109.417153 76.27662 
L 109.417153 74.254142 
L 109.8589 74.254142 
L 109.8589 72.237082 
L 110.300647 72.237082 
L 110.300647 70.327745 
L 110.742393 70.327745 
L 110.742393 68.357334 
L 111.18414 68.357334 
L 111.18414 66.422434 
L 111.625887 66.422434 
L 111.625887 64.676489 
L 112.067634 64.676489 
L 112.067634 62.972009 
L 112.509381 62.972009 
L 112.509381 61.29639 
L 112.951128 61.29639 
L 112.951128 59.638895 
L 113.392875 59.638895 
L 113.392875 58.246279 
L 113.834622 58.246279 
L 113.834622 56.656269 
L 114.276369 56.656269 
L 114.276369 55.21346 
L 114.718116 55.21346 
L 114.718116 53.736052 
L 115.159863 53.736052 
L 115.159863 52.100947 
L 115.60161 52.100947 
L 115.60161 49.985936 
L 116.043357 49.985936 
L 116.043357 48.587031 
L 116.485104 48.587031 
L 116.485104 47.864564 
L 116.926851 47.864564 
L 116.926851 47.208926 
L 117.368597 47.208926 
L 117.368597 46.595385 
L 117.810344 46.595385 
L 117.810344 46.043001 
L 118.252091 46.043001 
L 118.252091 45.580491 
L 118.693838 45.580491 
L 118.693838 45.191948 
L 119.135585 45.191948 
L 119.135585 44.803406 
L 119.577332 44.803406 
L 119.577332 44.585482 
L 120.902573 44.550589 
L 120.902573 44.443636 
L 121.34432 44.443636 
L 121.34432 44.730506 
L 121.786067 44.730506 
L 121.786067 44.879175 
L 122.227814 44.879175 
L 122.227814 45.191635 
L 122.669561 45.191635 
L 122.669561 45.441073 
L 123.111308 45.441073 
L 123.111308 45.891118 
L 123.553054 45.891118 
L 123.553054 46.36573 
L 123.994801 46.36573 
L 123.994801 46.943539 
L 124.436548 46.943539 
L 124.436548 47.75163 
L 124.878295 47.75163 
L 124.878295 48.737163 
L 125.320042 48.737163 
L 125.320042 49.918562 
L 125.761789 49.918562 
L 125.761789 49.469203 
L 126.203536 49.469203 
L 126.203536 48.747705 
L 126.645283 48.747705 
L 126.645283 49.924778 
L 127.08703 49.924778 
L 127.08703 51.378517 
L 127.528777 51.378517 
L 127.528777 52.965415 
L 127.970524 52.965415 
L 127.970524 54.516554 
L 128.412271 54.516554 
L 128.412271 56.116415 
L 128.854018 56.116415 
L 128.854018 57.626668 
L 129.295765 57.626668 
L 129.295765 59.269582 
L 129.737512 59.269582 
L 129.737512 60.948205 
L 130.179258 60.948205 
L 130.179258 62.683619 
L 130.621005 62.683619 
L 130.621005 64.493974 
L 131.062752 64.493974 
L 131.062752 66.131485 
L 131.504499 66.131485 
L 131.504499 67.846577 
L 131.946246 67.846577 
L 131.946246 69.597664 
L 132.387993 69.597664 
L 132.387993 71.438533 
L 132.82974 71.438533 
L 132.82974 73.383874 
L 133.271487 73.383874 
L 133.271487 75.28903 
L 133.713234 75.28903 
L 133.713234 77.246764 
L 134.154981 77.246764 
L 134.154981 79.367408 
L 134.596728 79.367408 
L 134.596728 81.27841 
L 135.038475 81.27841 
L 135.038475 83.206222 
L 135.480222 83.206222 
L 135.480222 84.985307 
L 135.921969 84.985307 
L 135.921969 86.629448 
L 136.363716 86.629448 
L 136.363716 87.906417 
L 136.805462 87.906417 
L 136.805462 90.007939 
L 137.247209 90.007939 
L 137.247209 91.978442 
L 137.688956 91.978442 
L 137.688956 93.84888 
L 138.130703 93.84888 
L 138.130703 95.738907 
L 138.57245 95.738907 
L 138.57245 97.683979 
L 139.014197 97.683979 
L 139.014197 99.699163 
L 139.455944 99.699163 
L 139.455944 101.805575 
L 139.897691 101.805575 
L 139.897691 103.839299 
L 140.339438 103.839299 
L 140.339438 105.85117 
L 140.781185 105.85117 
L 140.781185 107.800784 
L 141.222932 107.800784 
L 141.222932 109.747371 
L 141.664679 109.747371 
L 141.664679 111.775686 
L 142.106426 111.775686 
L 142.106426 113.819366 
L 142.548173 113.819366 
L 142.548173 115.789339 
L 142.98992 115.789339 
L 142.98992 117.657878 
L 143.431666 117.657878 
L 143.431666 119.611143 
L 143.873413 119.611143 
L 143.873413 121.520872 
L 144.31516 121.520872 
L 144.31516 123.35999 
L 144.756907 123.35999 
L 144.756907 125.228507 
L 145.198654 125.228507 
L 145.198654 127.031892 
L 145.640401 127.031892 
L 145.640401 128.798796 
L 146.082148 128.798796 
L 146.082148 130.622254 
L 146.523895 130.622254 
L 146.523895 132.592846 
L 146.965642 132.592846 
L 146.965642 134.413225 
L 147.407389 134.413225 
L 147.407389 136.203113 
L 147.849136 136.203113 
L 147.849136 138.030182 
L 148.290883 138.030182 
L 148.290883 139.774558 
L 148.73263 139.774558 
L 148.73263 141.546707 
L 149.174377 141.546707 
L 149.174377 143.320418 
L 149.616123 143.320418 
L 149.616123 144.993856 
L 150.05787 144.993856 
L 150.05787 146.655574 
L 150.499617 146.655574 
L 150.499617 148.274425 
L 150.941364 148.274425 
L 150.941364 149.871948 
L 151.383111 149.871948 
L 151.383111 151.425243 
L 151.824858 151.425243 
L 151.824858 153.053279 
L 152.266605 153.053279 
L 152.266605 154.521205 
L 152.708352 154.521205 
L 152.708352 156.022613 
L 153.150099 156.022613 
L 153.150099 157.519089 
L 153.591846 157.519089 
L 153.591846 158.946223 
L 154.033593 158.946223 
L 154.033593 160.329792 
L 154.47534 160.329792 
L 154.47534 161.711454 
L 154.917087 161.711454 
L 154.917087 163.047389 
L 155.358834 163.047389 
L 155.358834 164.341076 
L 155.800581 164.341076 
L 155.800581 165.630982 
L 156.242327 165.630982 
L 156.242327 166.902049 
L 156.684074 166.902049 
L 156.684074 168.533149 
L 157.125821 168.533149 
L 157.125821 170.104235 
L 157.567568 170.104235 
L 157.567568 171.356372 
L 158.009315 171.356372 
L 158.009315 172.550165 
L 158.451062 172.550165 
L 158.451062 173.68721 
L 158.892809 173.68721 
L 158.892809 174.842308 
L 159.334556 174.842308 
L 159.334556 175.936199 
L 159.776303 175.936199 
L 159.776303 177.070742 
L 160.21805 177.070742 
L 160.21805 178.178344 
L 160.659797 178.178344 
L 160.659797 179.261612 
L 161.101544 179.261612 
L 161.101544 180.305357 
L 161.543291 180.305357 
L 161.543291 181.3867 
L 161.985038 181.3867 
L 161.985038 182.419058 
L 162.426785 182.419058 
L 162.426785 183.492141 
L 162.868531 183.492141 
L 162.868531 184.435337 
L 163.310278 184.435337 
L 163.310278 185.326479 
L 163.752025 185.326479 
L 163.752025 186.284416 
L 164.193772 186.284416 
L 164.193772 187.200388 
L 164.635519 187.200388 
L 164.635519 188.081004 
L 165.077266 188.081004 
L 165.077266 188.924275 
L 165.519013 188.924275 
L 165.519013 189.756066 
L 165.96076 189.756066 
L 165.96076 190.597386 
L 166.402507 190.597386 
L 166.402507 191.415075 
L 166.844254 191.415075 
L 166.844254 192.434514 
L 167.286001 192.434514 
L 167.286001 193.73477 
L 167.727748 193.73477 
L 167.727748 194.696862 
L 168.169495 194.696862 
L 168.169495 195.549811 
L 168.611242 195.549811 
L 168.611242 196.35678 
L 169.052989 196.35678 
L 169.052989 197.14716 
L 169.494735 197.14716 
L 169.494735 197.963164 
L 169.936482 197.963164 
L 169.936482 198.750865 
L 170.378229 198.750865 
L 170.378229 199.516374 
L 170.819976 199.516374 
L 170.819976 200.326 
L 171.261723 200.326 
L 171.261723 201.099459 
L 171.70347 201.099459 
L 171.70347 201.852029 
L 172.145217 201.852029 
L 172.145217 202.619278 
L 172.586964 202.619278 
L 172.586964 203.344194 
L 173.028711 203.344194 
L 173.028711 204.085226 
L 173.470458 204.085226 
L 173.470458 204.894624 
L 173.912205 204.894624 
L 173.912205 205.650597 
L 174.353952 205.650597 
L 174.353952 206.376641 
L 174.795699 206.376641 
L 174.795699 207.110666 
L 175.237446 207.110666 
L 175.237446 207.826284 
L 175.679193 207.826284 
L 175.679193 208.55231 
L 176.120939 208.55231 
L 176.120939 209.263534 
L 176.562686 209.263534 
L 176.562686 209.956233 
L 177.004433 209.956233 
L 177.004433 210.660301 
L 177.44618 210.660301 
L 177.44618 211.48212 
L 177.887927 211.48212 
L 177.887927 212.218889 
L 178.329674 212.218889 
L 178.329674 212.883348 
L 178.771421 212.883348 
L 178.771421 213.543882 
L 179.213168 213.543882 
L 179.213168 214.164676 
L 179.654915 214.164676 
L 179.654915 214.791242 
L 180.096662 214.791242 
L 180.096662 215.411801 
L 180.538409 215.411801 
L 180.538409 216.031688 
L 180.980156 216.031688 
L 180.980156 216.617196 
L 181.421903 216.617196 
L 181.421903 217.209175 
L 181.86365 217.209175 
L 181.86365 217.780577 
L 182.305396 217.780577 
L 182.305396 218.349587 
L 182.747143 218.349587 
L 182.747143 218.928665 
L 183.18889 218.928665 
L 183.18889 219.479 
L 183.630637 219.479 
L 183.630637 219.990408 
L 184.072384 219.990408 
L 184.072384 220.489451 
L 184.514131 220.489451 
L 184.514131 221.00584 
L 184.955878 221.00584 
L 184.955878 221.46093 
L 185.397625 221.46093 
L 185.397625 221.895361 
L 185.839372 221.895361 
L 185.839372 222.323567 
L 186.281119 222.323567 
L 186.281119 222.754709 
L 186.722866 222.754709 
L 186.722866 223.170229 
L 187.164613 223.170229 
L 187.164613 223.592733 
L 187.60636 223.592733 
L 187.60636 224.213294 
L 188.048107 224.213294 
L 188.048107 224.821087 
L 188.489854 224.821087 
L 188.489854 225.218517 
L 188.9316 225.218517 
L 188.9316 225.601107 
L 189.373347 225.601107 
L 189.373347 225.963129 
L 189.815094 225.963129 
L 189.815094 226.322592 
L 190.256841 226.322592 
L 190.256841 226.680344 
L 190.698588 226.680344 
L 190.698588 227.031084 
L 191.140335 227.031084 
L 191.140335 227.386775 
L 191.582082 227.386775 
L 191.582082 227.724053 
L 192.023829 227.724053 
L 192.023829 228.047958 
L 192.465576 228.047958 
L 192.465576 228.350005 
L 192.907323 228.350005 
L 192.907323 228.667832 
L 193.34907 228.667832 
L 193.34907 228.984391 
L 193.790817 228.984391 
L 193.790817 229.3014 
L 194.232564 229.3014 
L 194.232564 229.60521 
L 194.674311 229.60521 
L 194.674311 229.89717 
L 195.116058 229.89717 
L 195.116058 230.190067 
L 195.557804 230.190067 
L 195.557804 230.491465 
L 195.999551 230.491465 
L 195.999551 230.781716 
L 196.441298 230.781716 
L 196.441298 231.057227 
L 196.883045 231.057227 
L 196.883045 231.340951 
L 197.324792 231.340951 
L 197.324792 231.608561 
L 197.766539 231.608561 
L 197.766539 231.916887 
L 198.208286 231.916887 
L 198.208286 232.321047 
L 198.650033 232.321047 
L 198.650033 232.601322 
L 199.09178 232.601322 
L 199.09178 232.839539 
L 199.533527 232.839539 
L 199.533527 233.081231 
L 199.975274 233.081231 
L 199.975274 233.310176 
L 200.417021 233.310176 
L 200.417021 233.530269 
L 200.858768 233.530269 
L 200.858768 233.759781 
L 201.300515 233.759781 
L 201.300515 233.978318 
L 201.742262 233.978318 
L 201.742262 234.195653 
L 202.184008 234.195653 
L 202.184008 234.40173 
L 202.625755 234.40173 
L 202.625755 234.60895 
L 203.067502 234.60895 
L 203.067502 234.826027 
L 203.509249 234.826027 
L 203.509249 235.025727 
L 203.950996 235.025727 
L 203.950996 235.212043 
L 204.392743 235.212043 
L 204.392743 235.380386 
L 204.83449 235.380386 
L 204.83449 235.549242 
L 205.276237 235.549242 
L 205.276237 235.725893 
L 205.717984 235.725893 
L 205.717984 235.866218 
L 206.159731 235.866218 
L 206.159731 236.006014 
L 206.601478 236.006014 
L 206.601478 236.157206 
L 207.043225 236.157206 
L 207.043225 236.298934 
L 207.484972 236.298934 
L 207.484972 236.444555 
L 207.926719 236.444555 
L 207.926719 236.604116 
L 208.368465 236.604116 
L 208.368465 236.861007 
L 208.810212 236.861007 
L 208.810212 237.070732 
L 209.251959 237.070732 
L 209.251959 237.228651 
L 209.693706 237.228651 
L 209.693706 237.377524 
L 210.135453 237.377524 
L 210.135453 237.517224 
L 210.5772 237.517224 
L 210.5772 237.651426 
L 211.018947 237.651426 
L 211.018947 237.797347 
L 211.460694 237.797347 
L 211.460694 237.934998 
L 211.902441 237.934998 
L 211.902441 238.065763 
L 212.344188 238.065763 
L 212.344188 238.18849 
L 212.785935 238.18849 
L 212.785935 238.302261 
L 213.227682 238.302261 
L 213.227682 238.414068 
L 213.669429 238.414068 
L 213.669429 238.533116 
L 214.552923 238.637264 
L 214.552923 238.739878 
L 215.436416 238.840416 
L 215.436416 238.939813 
L 216.31991 239.028345 
L 216.31991 239.115524 
L 217.203404 239.195361 
L 217.203404 239.274487 
L 218.086898 239.352809 
L 218.086898 239.43016 
L 218.528645 239.43016 
L 218.528645 239.563878 
L 218.970392 239.563878 
L 218.970392 239.691908 
L 220.73738 239.802195 
L 220.73738 239.830394 
L 222.946114 239.927437 
L 222.946114 239.94677 
L 225.596596 240.051764 
L 225.596596 240.067271 
L 229.130571 240.15548 
L 229.130571 240.197594 
L 241.941232 240.303604 
L 241.941232 240.310965 
L 249.892677 240.420005 
L 249.892677 240.423837 
L 255.635387 240.532633 
L 255.635387 240.541121 
L 260.93635 240.646056 
L 260.93635 240.656102 
L 265.795567 240.767175 
L 265.795567 240.778375 
L 270.213036 240.883055 
L 270.213036 240.895674 
L 274.630505 241.002579 
L 274.630505 241.015477 
L 279.047975 241.116938 
L 279.047975 241.128 
L 283.907191 241.237066 
L 283.907191 241.247768 
L 288.766407 241.351364 
L 288.766407 241.362582 
L 294.509117 241.473541 
L 294.509117 241.482958 
L 300.251827 241.590169 
L 300.251827 241.598472 
L 307.319778 241.704417 
L 307.319778 241.710356 
L 315.71297 241.817433 
L 315.71297 241.822704 
L 327.640137 241.933012 
L 327.640137 241.935995 
L 350.169231 242.04677 
L 350.169231 242.047777 
L 373.581818 242.078047 
L 373.581818 242.078656 
" style="fill:none;stroke:#ff7f0e;stroke-linecap:square;stroke-width:1.5;"/>
   </g>
   <g id="line2d_16">
    <path clip-path="url(#pe732c9096b)" d="M 69.218182 191.726048 
L 69.659929 191.726048 
L 69.659929 192.504663 
L 70.101676 192.504663 
L 70.101676 193.228849 
L 70.543423 193.228849 
L 70.543423 193.934766 
L 70.98517 193.934766 
L 70.98517 194.65765 
L 71.426916 194.65765 
L 71.426916 195.335373 
L 71.868663 195.335373 
L 71.868663 195.803425 
L 72.31041 195.803425 
L 72.31041 196.346055 
L 72.752157 196.346055 
L 72.752157 196.834456 
L 73.193904 196.834456 
L 73.193904 197.362645 
L 73.635651 197.362645 
L 73.635651 197.870881 
L 74.077398 197.870881 
L 74.077398 199.514472 
L 74.519145 199.514472 
L 74.519145 202.313161 
L 74.960892 202.313161 
L 74.960892 203.241712 
L 75.402639 203.241712 
L 75.402639 203.58895 
L 75.844386 203.58895 
L 75.844386 203.830015 
L 76.286133 203.830015 
L 76.286133 204.073844 
L 76.72788 204.073844 
L 76.72788 204.248895 
L 77.169627 204.248895 
L 77.169627 204.420955 
L 77.611374 204.420955 
L 77.611374 204.608735 
L 78.05312 204.608735 
L 78.05312 204.791132 
L 78.494867 204.791132 
L 78.494867 204.977604 
L 78.936614 204.977604 
L 78.936614 205.099312 
L 83.354084 205.011345 
L 83.354084 204.853903 
L 83.795831 204.853903 
L 83.795831 204.577563 
L 84.679324 204.588431 
L 84.679324 205.390512 
L 85.121071 205.390512 
L 85.121071 204.765545 
L 85.562818 204.765545 
L 85.562818 203.700206 
L 86.004565 203.700206 
L 86.004565 203.060894 
L 86.446312 203.060894 
L 86.446312 201.160508 
L 86.888059 201.160508 
L 86.888059 198.952577 
L 87.329806 198.952577 
L 87.329806 197.748057 
L 87.771553 197.748057 
L 87.771553 195.902937 
L 88.2133 195.902937 
L 88.2133 193.329704 
L 88.655047 193.329704 
L 88.655047 190.291764 
L 89.096794 190.291764 
L 89.096794 186.542436 
L 89.538541 186.542436 
L 89.538541 181.847861 
L 89.980288 181.847861 
L 89.980288 176.887728 
L 90.422035 176.887728 
L 90.422035 173.344944 
L 90.863782 173.344944 
L 90.863782 167.579345 
L 91.305528 167.579345 
L 91.305528 161.274946 
L 91.747275 161.274946 
L 91.747275 155.020948 
L 92.189022 155.020948 
L 92.189022 148.017997 
L 92.630769 148.017997 
L 92.630769 141.250595 
L 93.072516 141.250595 
L 93.072516 134.213446 
L 93.514263 134.213446 
L 93.514263 126.237812 
L 93.95601 126.237812 
L 93.95601 118.380772 
L 94.397757 118.380772 
L 94.397757 112.132269 
L 94.839504 112.132269 
L 94.839504 109.91376 
L 95.281251 109.91376 
L 95.281251 107.597356 
L 95.722998 107.597356 
L 95.722998 99.639748 
L 96.164745 99.639748 
L 96.164745 90.139036 
L 96.606492 90.139036 
L 96.606492 81.94328 
L 97.048239 81.94328 
L 97.048239 75.374103 
L 97.489985 75.374103 
L 97.489985 68.940807 
L 97.931732 68.940807 
L 97.931732 63.01204 
L 98.373479 63.01204 
L 98.373479 58.415548 
L 98.815226 58.415548 
L 98.815226 53.157779 
L 99.256973 53.157779 
L 99.256973 48.381276 
L 99.69872 48.381276 
L 99.69872 45.702085 
L 100.140467 45.702085 
L 100.140467 45.386091 
L 100.582214 45.386091 
L 100.582214 44.443636 
L 101.465708 44.480548 
L 101.465708 45.399617 
L 101.907455 45.399617 
L 101.907455 46.663228 
L 102.349202 46.663228 
L 102.349202 47.591247 
L 102.790949 47.591247 
L 102.790949 49.674577 
L 103.232696 49.674577 
L 103.232696 51.11209 
L 103.674443 51.11209 
L 103.674443 53.861089 
L 104.116189 53.861089 
L 104.116189 57.468881 
L 104.557936 57.468881 
L 104.557936 60.349824 
L 104.999683 60.349824 
L 104.999683 58.643465 
L 105.44143 58.643465 
L 105.44143 51.763506 
L 105.883177 51.763506 
L 105.883177 54.031427 
L 106.324924 54.031427 
L 106.324924 59.301929 
L 106.766671 59.301929 
L 106.766671 64.397201 
L 107.208418 64.397201 
L 107.208418 69.019199 
L 107.650165 69.019199 
L 107.650165 73.477812 
L 108.091912 73.477812 
L 108.091912 77.633567 
L 108.533659 77.633567 
L 108.533659 81.606198 
L 108.975406 81.606198 
L 108.975406 85.658867 
L 109.417153 85.658867 
L 109.417153 90.095189 
L 109.8589 90.095189 
L 109.8589 94.149872 
L 110.300647 94.149872 
L 110.300647 96.726369 
L 110.742393 96.726369 
L 110.742393 99.272241 
L 111.18414 99.272241 
L 111.18414 101.810834 
L 111.625887 101.810834 
L 111.625887 104.135183 
L 112.067634 104.135183 
L 112.067634 106.527769 
L 112.509381 106.527769 
L 112.509381 109.010112 
L 112.951128 109.010112 
L 112.951128 111.280244 
L 113.392875 111.280244 
L 113.392875 113.794453 
L 113.834622 113.794453 
L 113.834622 116.007572 
L 114.276369 116.007572 
L 114.276369 118.07384 
L 114.718116 118.07384 
L 114.718116 119.974633 
L 115.159863 119.974633 
L 115.159863 122.062237 
L 115.60161 122.062237 
L 115.60161 125.961116 
L 116.043357 125.961116 
L 116.043357 129.54469 
L 116.485104 129.54469 
L 116.485104 132.293142 
L 116.926851 132.293142 
L 116.926851 135.056599 
L 117.368597 135.056599 
L 117.368597 137.751569 
L 117.810344 137.751569 
L 117.810344 140.203152 
L 118.252091 140.203152 
L 118.252091 142.372453 
L 118.693838 142.372453 
L 118.693838 144.397844 
L 119.135585 144.397844 
L 119.135585 146.469236 
L 119.577332 146.469236 
L 119.577332 148.945188 
L 120.019079 148.945188 
L 120.019079 151.327102 
L 120.460826 151.327102 
L 120.460826 153.234397 
L 120.902573 153.234397 
L 120.902573 155.011293 
L 121.34432 155.011293 
L 121.34432 156.242433 
L 121.786067 156.242433 
L 121.786067 157.963725 
L 122.227814 157.963725 
L 122.227814 159.539771 
L 122.669561 159.539771 
L 122.669561 161.546011 
L 123.111308 161.546011 
L 123.111308 163.338812 
L 123.553054 163.338812 
L 123.553054 165.23703 
L 123.994801 165.23703 
L 123.994801 167.126001 
L 124.436548 167.126001 
L 124.436548 168.926171 
L 124.878295 168.926171 
L 124.878295 170.530405 
L 125.320042 170.530405 
L 125.320042 172.087656 
L 125.761789 172.087656 
L 125.761789 174.111878 
L 126.203536 174.111878 
L 126.203536 175.851315 
L 126.645283 175.851315 
L 126.645283 176.990325 
L 127.08703 176.990325 
L 127.08703 178.158605 
L 127.528777 178.158605 
L 127.528777 179.245286 
L 127.970524 179.245286 
L 127.970524 180.0803 
L 128.412271 180.0803 
L 128.412271 180.773382 
L 128.854018 180.773382 
L 128.854018 181.38593 
L 129.295765 181.38593 
L 129.295765 182.024785 
L 129.737512 182.024785 
L 129.737512 182.730572 
L 130.179258 182.730572 
L 130.179258 183.476282 
L 130.621005 183.476282 
L 130.621005 183.994457 
L 131.062752 183.994457 
L 131.062752 184.560869 
L 131.504499 184.560869 
L 131.504499 185.012925 
L 131.946246 185.012925 
L 131.946246 185.514521 
L 132.387993 185.514521 
L 132.387993 186.06481 
L 132.82974 186.06481 
L 132.82974 186.553116 
L 133.271487 186.553116 
L 133.271487 187.0154 
L 133.713234 187.0154 
L 133.713234 187.41885 
L 134.154981 187.41885 
L 134.154981 187.840803 
L 134.596728 187.840803 
L 134.596728 188.164413 
L 135.038475 188.164413 
L 135.038475 188.489383 
L 135.480222 188.489383 
L 135.480222 188.826239 
L 135.921969 188.826239 
L 135.921969 189.463899 
L 136.363716 189.463899 
L 136.363716 190.502321 
L 136.805462 190.502321 
L 136.805462 191.084618 
L 137.247209 191.084618 
L 137.247209 191.467986 
L 137.688956 191.467986 
L 137.688956 191.789805 
L 138.130703 191.789805 
L 138.130703 192.089938 
L 138.57245 192.089938 
L 138.57245 192.300966 
L 139.014197 192.300966 
L 139.014197 192.446395 
L 139.455944 192.446395 
L 139.455944 192.612592 
L 139.897691 192.612592 
L 139.897691 192.825686 
L 140.339438 192.825686 
L 140.339438 193.018081 
L 140.781185 193.018081 
L 140.781185 193.20135 
L 141.222932 193.20135 
L 141.222932 193.462386 
L 141.664679 193.462386 
L 141.664679 193.729658 
L 142.106426 193.729658 
L 142.106426 194.02321 
L 142.548173 194.02321 
L 142.548173 194.238469 
L 142.98992 194.238469 
L 142.98992 194.567386 
L 143.431666 194.567386 
L 143.431666 194.917005 
L 143.873413 194.917005 
L 143.873413 195.249275 
L 144.31516 195.249275 
L 144.31516 195.567159 
L 144.756907 195.567159 
L 144.756907 195.991332 
L 145.198654 195.991332 
L 145.198654 196.352406 
L 145.640401 196.352406 
L 145.640401 196.643977 
L 146.082148 196.643977 
L 146.082148 196.941841 
L 146.523895 196.941841 
L 146.523895 197.220148 
L 146.965642 197.220148 
L 146.965642 197.584105 
L 147.407389 197.584105 
L 147.407389 197.941456 
L 147.849136 197.941456 
L 147.849136 198.226343 
L 148.290883 198.226343 
L 148.290883 198.634554 
L 148.73263 198.634554 
L 148.73263 199.087074 
L 149.174377 199.087074 
L 149.174377 199.433701 
L 149.616123 199.433701 
L 149.616123 199.795786 
L 150.05787 199.795786 
L 150.05787 200.166296 
L 150.499617 200.166296 
L 150.499617 200.565344 
L 150.941364 200.565344 
L 150.941364 201.041906 
L 151.383111 201.041906 
L 151.383111 201.525185 
L 151.824858 201.525185 
L 151.824858 201.83918 
L 152.266605 201.83918 
L 152.266605 202.065379 
L 152.708352 202.065379 
L 152.708352 202.415048 
L 153.150099 202.415048 
L 153.150099 202.867151 
L 153.591846 202.867151 
L 153.591846 203.31329 
L 154.033593 203.31329 
L 154.033593 203.730443 
L 154.47534 203.730443 
L 154.47534 204.16399 
L 154.917087 204.16399 
L 154.917087 204.538076 
L 155.358834 204.538076 
L 155.358834 205.036463 
L 155.800581 205.036463 
L 155.800581 205.502952 
L 156.242327 205.502952 
L 156.242327 205.905481 
L 156.684074 205.905481 
L 156.684074 206.29036 
L 157.125821 206.29036 
L 157.125821 206.756759 
L 157.567568 206.756759 
L 157.567568 207.339788 
L 158.009315 207.339788 
L 158.009315 207.975469 
L 158.451062 207.975469 
L 158.451062 208.636361 
L 158.892809 208.636361 
L 158.892809 209.129866 
L 159.334556 209.129866 
L 159.334556 209.628082 
L 159.776303 209.628082 
L 159.776303 210.029978 
L 160.21805 210.029978 
L 160.21805 210.421575 
L 160.659797 210.421575 
L 160.659797 210.962765 
L 161.101544 210.962765 
L 161.101544 211.539136 
L 161.543291 211.539136 
L 161.543291 211.995859 
L 161.985038 211.995859 
L 161.985038 212.460262 
L 162.426785 212.460262 
L 162.426785 212.890603 
L 162.868531 212.890603 
L 162.868531 213.325267 
L 163.310278 213.325267 
L 163.310278 213.702279 
L 163.752025 213.702279 
L 163.752025 214.197671 
L 164.193772 214.197671 
L 164.193772 214.709529 
L 164.635519 214.709529 
L 164.635519 215.217968 
L 165.077266 215.217968 
L 165.077266 215.734039 
L 165.519013 215.734039 
L 165.519013 216.217015 
L 165.96076 216.217015 
L 165.96076 216.739157 
L 166.402507 216.739157 
L 166.402507 217.166596 
L 166.844254 217.166596 
L 166.844254 217.654166 
L 167.286001 217.654166 
L 167.286001 218.137475 
L 167.727748 218.137475 
L 167.727748 218.665274 
L 168.169495 218.665274 
L 168.169495 219.19052 
L 168.611242 219.19052 
L 168.611242 219.686557 
L 169.052989 219.686557 
L 169.052989 220.177924 
L 169.494735 220.177924 
L 169.494735 220.609857 
L 169.936482 220.609857 
L 169.936482 220.976692 
L 170.378229 220.976692 
L 170.378229 221.339315 
L 170.819976 221.339315 
L 170.819976 221.734072 
L 171.261723 221.734072 
L 171.261723 222.165706 
L 171.70347 222.165706 
L 171.70347 222.591059 
L 172.145217 222.591059 
L 172.145217 222.955597 
L 172.586964 222.955597 
L 172.586964 223.247622 
L 173.028711 223.247622 
L 173.028711 223.540981 
L 173.470458 223.540981 
L 173.470458 223.91523 
L 173.912205 223.91523 
L 173.912205 224.29572 
L 174.353952 224.29572 
L 174.353952 224.697656 
L 174.795699 224.697656 
L 174.795699 225.098579 
L 175.237446 225.098579 
L 175.237446 225.499019 
L 175.679193 225.499019 
L 175.679193 225.887205 
L 176.120939 225.887205 
L 176.120939 226.185278 
L 176.562686 226.185278 
L 176.562686 226.434682 
L 177.004433 226.434682 
L 177.004433 226.691896 
L 177.44618 226.691896 
L 177.44618 227.037253 
L 177.887927 227.037253 
L 177.887927 227.437054 
L 178.329674 227.437054 
L 178.329674 227.772767 
L 178.771421 227.772767 
L 178.771421 228.083227 
L 179.213168 228.083227 
L 179.213168 228.373391 
L 179.654915 228.373391 
L 179.654915 228.653342 
L 180.096662 228.653342 
L 180.096662 228.887634 
L 180.538409 228.887634 
L 180.538409 229.112496 
L 180.980156 229.112496 
L 180.980156 229.36105 
L 181.421903 229.36105 
L 181.421903 229.601401 
L 181.86365 229.601401 
L 181.86365 229.821561 
L 182.305396 229.821561 
L 182.305396 230.044925 
L 182.747143 230.044925 
L 182.747143 230.292636 
L 183.18889 230.292636 
L 183.18889 230.435579 
L 183.630637 230.435579 
L 183.630637 230.619855 
L 184.072384 230.619855 
L 184.072384 230.790846 
L 184.514131 230.790846 
L 184.514131 230.935736 
L 184.955878 230.935736 
L 184.955878 231.093195 
L 185.397625 231.093195 
L 185.397625 231.242295 
L 185.839372 231.242295 
L 185.839372 231.389049 
L 186.281119 231.389049 
L 186.281119 231.537847 
L 186.722866 231.537847 
L 186.722866 231.680888 
L 187.164613 231.680888 
L 187.164613 231.805148 
L 187.60636 231.805148 
L 187.60636 232.086302 
L 188.048107 232.086302 
L 188.048107 232.364621 
L 188.489854 232.364621 
L 188.489854 232.493033 
L 188.9316 232.493033 
L 188.9316 232.668209 
L 189.373347 232.668209 
L 189.373347 232.84587 
L 190.256841 232.948663 
L 190.256841 233.05873 
L 191.140335 233.132623 
L 191.140335 233.229435 
L 191.582082 233.229435 
L 191.582082 233.373677 
L 192.023829 233.373677 
L 192.023829 233.512031 
L 192.465576 233.512031 
L 192.465576 233.630367 
L 193.34907 233.733076 
L 193.34907 233.813621 
L 193.790817 233.813621 
L 193.790817 233.945332 
L 194.674311 234.032746 
L 194.674311 234.170093 
L 195.116058 234.170093 
L 195.116058 234.306204 
L 195.999551 234.399827 
L 195.999551 234.518126 
L 196.883045 234.625074 
L 196.883045 234.751426 
L 197.324792 234.751426 
L 197.324792 234.872641 
L 198.208286 234.963088 
L 198.208286 235.059894 
L 198.650033 235.059894 
L 198.650033 235.18247 
L 199.09178 235.18247 
L 199.09178 235.310639 
L 199.533527 235.310639 
L 199.533527 235.442742 
L 199.975274 235.442742 
L 199.975274 235.572855 
L 200.417021 235.572855 
L 200.417021 235.692352 
L 201.300515 235.797906 
L 201.300515 235.876318 
L 202.184008 235.978107 
L 202.184008 236.094155 
L 202.625755 236.094155 
L 202.625755 236.240335 
L 203.509249 236.338846 
L 203.509249 236.438751 
L 204.392743 236.536686 
L 204.392743 236.664768 
L 204.83449 236.664768 
L 204.83449 236.811067 
L 205.276237 236.811067 
L 205.276237 236.92559 
L 205.717984 236.92559 
L 205.717984 237.054126 
L 206.159731 237.054126 
L 206.159731 237.171936 
L 206.601478 237.171936 
L 206.601478 237.302313 
L 207.043225 237.302313 
L 207.043225 237.42284 
L 207.926719 237.502253 
L 207.926719 237.57082 
L 208.810212 237.670219 
L 208.810212 237.861753 
L 209.251959 237.861753 
L 209.251959 238.113841 
L 209.693706 238.113841 
L 209.693706 238.361995 
L 210.135453 238.361995 
L 210.135453 238.592952 
L 210.5772 238.592952 
L 210.5772 238.801793 
L 211.018947 238.801793 
L 211.018947 238.982474 
L 211.460694 238.982474 
L 211.460694 239.17195 
L 211.902441 239.17195 
L 211.902441 239.363056 
L 212.344188 239.363056 
L 212.344188 239.572711 
L 212.785935 239.572711 
L 212.785935 239.76689 
L 213.227682 239.76689 
L 213.227682 239.945048 
L 213.669429 239.945048 
L 213.669429 240.122809 
L 214.111176 240.122809 
L 214.111176 240.253706 
L 214.552923 240.253706 
L 214.552923 240.405499 
L 214.994669 240.405499 
L 214.994669 240.559608 
L 215.436416 240.559608 
L 215.436416 240.719899 
L 215.878163 240.719899 
L 215.878163 240.880785 
L 216.31991 240.880785 
L 216.31991 241.034399 
L 216.761657 241.034399 
L 216.761657 241.186563 
L 217.203404 241.186563 
L 217.203404 241.317654 
L 217.645151 241.317654 
L 217.645151 241.472346 
L 218.086898 241.472346 
L 218.086898 241.593521 
L 218.528645 241.593521 
L 218.528645 241.759033 
L 218.970392 241.759033 
L 218.970392 241.903862 
L 222.504367 242.013888 
L 222.504367 242.023235 
L 373.581818 242.116364 
L 373.581818 242.116364 
" style="fill:none;stroke:#2ca02c;stroke-linecap:square;stroke-width:1.5;"/>
   </g>
   <g id="patch_3">
    <path d="M 54 252 
L 54 34.56 
" style="fill:none;stroke:#000000;stroke-linecap:square;stroke-linejoin:miter;stroke-width:0.8;"/>
   </g>
   <g id="patch_4">
    <path d="M 388.8 252 
L 388.8 34.56 
" style="fill:none;stroke:#000000;stroke-linecap:square;stroke-linejoin:miter;stroke-width:0.8;"/>
   </g>
   <g id="patch_5">
    <path d="M 54 252 
L 388.8 252 
" style="fill:none;stroke:#000000;stroke-linecap:square;stroke-linejoin:miter;stroke-width:0.8;"/>
   </g>
   <g id="patch_6">
    <path d="M 54 34.56 
L 388.8 34.56 
" style="fill:none;stroke:#000000;stroke-linecap:square;stroke-linejoin:miter;stroke-width:0.8;"/>
   </g>
   <g id="legend_1">
    <g id="patch_7">
     <path d="M 332.254688 86.594375 
L 381.8 86.594375 
Q 383.8 86.594375 383.8 84.594375 
L 383.8 41.56 
Q 383.8 39.56 381.8 39.56 
L 332.254688 39.56 
Q 330.254688 39.56 330.254688 41.56 
L 330.254688 84.594375 
Q 330.254688 86.594375 332.254688 86.594375 
z
" style="fill:#ffffff;opacity:0.8;stroke:#cccccc;stroke-linejoin:miter;"/>
    </g>
    <g id="line2d_17">
     <path d="M 334.254688 47.658438 
L 354.254688 47.658438 
" style="fill:none;stroke:#1f77b4;stroke-linecap:square;stroke-width:1.5;"/>
    </g>
    <g id="line2d_18"/>
    <g id="text_15">
     <!-- vac -->
     <defs>
      <path d="M 2.984375 54.6875 
L 12.5 54.6875 
L 29.59375 8.796875 
L 46.6875 54.6875 
L 56.203125 54.6875 
L 35.6875 0 
L 23.484375 0 
z
" id="DejaVuSans-76"/>
      <path d="M 34.28125 27.484375 
Q 23.390625 27.484375 19.1875 25 
Q 14.984375 22.515625 14.984375 16.5 
Q 14.984375 11.71875 18.140625 8.90625 
Q 21.296875 6.109375 26.703125 6.109375 
Q 34.1875 6.109375 38.703125 11.40625 
Q 43.21875 16.703125 43.21875 25.484375 
L 43.21875 27.484375 
z
M 52.203125 31.203125 
L 52.203125 0 
L 43.21875 0 
L 43.21875 8.296875 
Q 40.140625 3.328125 35.546875 0.953125 
Q 30.953125 -1.421875 24.3125 -1.421875 
Q 15.921875 -1.421875 10.953125 3.296875 
Q 6 8.015625 6 15.921875 
Q 6 25.140625 12.171875 29.828125 
Q 18.359375 34.515625 30.609375 34.515625 
L 43.21875 34.515625 
L 43.21875 35.40625 
Q 43.21875 41.609375 39.140625 45 
Q 35.0625 48.390625 27.6875 48.390625 
Q 23 48.390625 18.546875 47.265625 
Q 14.109375 46.140625 10.015625 43.890625 
L 10.015625 52.203125 
Q 14.9375 54.109375 19.578125 55.046875 
Q 24.21875 56 28.609375 56 
Q 40.484375 56 46.34375 49.84375 
Q 52.203125 43.703125 52.203125 31.203125 
z
" id="DejaVuSans-61"/>
      <path d="M 48.78125 52.59375 
L 48.78125 44.1875 
Q 44.96875 46.296875 41.140625 47.34375 
Q 37.3125 48.390625 33.40625 48.390625 
Q 24.65625 48.390625 19.8125 42.84375 
Q 14.984375 37.3125 14.984375 27.296875 
Q 14.984375 17.28125 19.8125 11.734375 
Q 24.65625 6.203125 33.40625 6.203125 
Q 37.3125 6.203125 41.140625 7.25 
Q 44.96875 8.296875 48.78125 10.40625 
L 48.78125 2.09375 
Q 45.015625 0.34375 40.984375 -0.53125 
Q 36.96875 -1.421875 32.421875 -1.421875 
Q 20.0625 -1.421875 12.78125 6.34375 
Q 5.515625 14.109375 5.515625 27.296875 
Q 5.515625 40.671875 12.859375 48.328125 
Q 20.21875 56 33.015625 56 
Q 37.15625 56 41.109375 55.140625 
Q 45.0625 54.296875 48.78125 52.59375 
z
" id="DejaVuSans-63"/>
     </defs>
     <g transform="translate(362.254688 51.158438)scale(0.1 -0.1)">
      <use xlink:href="#DejaVuSans-76"/>
      <use x="59.179688" xlink:href="#DejaVuSans-61"/>
      <use x="120.458984" xlink:href="#DejaVuSans-63"/>
     </g>
    </g>
    <g id="line2d_19">
     <path d="M 334.254688 62.336563 
L 354.254688 62.336563 
" style="fill:none;stroke:#ff7f0e;stroke-linecap:square;stroke-width:1.5;"/>
    </g>
    <g id="line2d_20"/>
    <g id="text_16">
     <!-- al -->
     <defs>
      <path d="M 9.421875 75.984375 
L 18.40625 75.984375 
L 18.40625 0 
L 9.421875 0 
z
" id="DejaVuSans-6c"/>
     </defs>
     <g transform="translate(362.254688 65.836563)scale(0.1 -0.1)">
      <use xlink:href="#DejaVuSans-61"/>
      <use x="61.279297" xlink:href="#DejaVuSans-6c"/>
     </g>
    </g>
    <g id="line2d_21">
     <path d="M 334.254688 77.014688 
L 354.254688 77.014688 
" style="fill:none;stroke:#2ca02c;stroke-linecap:square;stroke-width:1.5;"/>
    </g>
    <g id="line2d_22"/>
    <g id="text_17">
     <!-- sn -->
     <defs>
      <path d="M 44.28125 53.078125 
L 44.28125 44.578125 
Q 40.484375 46.53125 36.375 47.5 
Q 32.28125 48.484375 27.875 48.484375 
Q 21.1875 48.484375 17.84375 46.4375 
Q 14.5 44.390625 14.5 40.28125 
Q 14.5 37.15625 16.890625 35.375 
Q 19.28125 33.59375 26.515625 31.984375 
L 29.59375 31.296875 
Q 39.15625 29.25 43.1875 25.515625 
Q 47.21875 21.78125 47.21875 15.09375 
Q 47.21875 7.46875 41.1875 3.015625 
Q 35.15625 -1.421875 24.609375 -1.421875 
Q 20.21875 -1.421875 15.453125 -0.5625 
Q 10.6875 0.296875 5.421875 2 
L 5.421875 11.28125 
Q 10.40625 8.6875 15.234375 7.390625 
Q 20.0625 6.109375 24.8125 6.109375 
Q 31.15625 6.109375 34.5625 8.28125 
Q 37.984375 10.453125 37.984375 14.40625 
Q 37.984375 18.0625 35.515625 20.015625 
Q 33.0625 21.96875 24.703125 23.78125 
L 21.578125 24.515625 
Q 13.234375 26.265625 9.515625 29.90625 
Q 5.8125 33.546875 5.8125 39.890625 
Q 5.8125 47.609375 11.28125 51.796875 
Q 16.75 56 26.8125 56 
Q 31.78125 56 36.171875 55.265625 
Q 40.578125 54.546875 44.28125 53.078125 
z
" id="DejaVuSans-73"/>
     </defs>
     <g transform="translate(362.254688 80.514688)scale(0.1 -0.1)">
      <use xlink:href="#DejaVuSans-73"/>
      <use x="52.099609" xlink:href="#DejaVuSans-6e"/>
     </g>
    </g>
   </g>
  </g>
 </g>
 <defs>
  <clipPath id="pe732c9096b">
   <rect height="217.44" width="334.8" x="54" y="34.56"/>
  </clipPath>
 </defs>
</svg>
