<?xml version="1.0" encoding="utf-8" standalone="no"?>
<!DOCTYPE svg PUBLIC "-//W3C//DTD SVG 1.1//EN"
  "http://www.w3.org/Graphics/SVG/1.1/DTD/svg11.dtd">
<!-- Created with matplotlib (http://matplotlib.org/) -->
<svg height="288pt" version="1.1" viewBox="0 0 432 288" width="432pt" xmlns="http://www.w3.org/2000/svg" xmlns:xlink="http://www.w3.org/1999/xlink">
 <defs>
  <style type="text/css">
*{stroke-linecap:butt;stroke-linejoin:round;}
  </style>
 </defs>
 <g id="figure_1">
  <g id="patch_1">
   <path d="M 0 288 
L 432 288 
L 432 0 
L 0 0 
z
" style="fill:#ffffff;"/>
  </g>
  <g id="axes_1">
   <g id="patch_2">
    <path d="M 54 252 
L 388.8 252 
L 388.8 34.56 
L 54 34.56 
z
" style="fill:#ffffff;"/>
   </g>
   <g id="matplotlib.axis_1">
    <g id="xtick_1">
     <g id="line2d_1">
      <defs>
       <path d="M 0 0 
L 0 3.5 
" id="m61264c3fd6" style="stroke:#000000;stroke-width:0.8;"/>
      </defs>
      <g>
       <use style="stroke:#000000;stroke-width:0.8;" x="86.539877" xlink:href="#m61264c3fd6" y="252"/>
      </g>
     </g>
     <g id="text_1">
      <!-- 20 -->
      <defs>
       <path d="M 19.1875 8.296875 
L 53.609375 8.296875 
L 53.609375 0 
L 7.328125 0 
L 7.328125 8.296875 
Q 12.9375 14.109375 22.625 23.890625 
Q 32.328125 33.6875 34.8125 36.53125 
Q 39.546875 41.84375 41.421875 45.53125 
Q 43.3125 49.21875 43.3125 52.78125 
Q 43.3125 58.59375 39.234375 62.25 
Q 35.15625 65.921875 28.609375 65.921875 
Q 23.96875 65.921875 18.8125 64.3125 
Q 13.671875 62.703125 7.8125 59.421875 
L 7.8125 69.390625 
Q 13.765625 71.78125 18.9375 73 
Q 24.125 74.21875 28.421875 74.21875 
Q 39.75 74.21875 46.484375 68.546875 
Q 53.21875 62.890625 53.21875 53.421875 
Q 53.21875 48.921875 51.53125 44.890625 
Q 49.859375 40.875 45.40625 35.40625 
Q 44.1875 33.984375 37.640625 27.21875 
Q 31.109375 20.453125 19.1875 8.296875 
z
" id="DejaVuSans-32"/>
       <path d="M 31.78125 66.40625 
Q 24.171875 66.40625 20.328125 58.90625 
Q 16.5 51.421875 16.5 36.375 
Q 16.5 21.390625 20.328125 13.890625 
Q 24.171875 6.390625 31.78125 6.390625 
Q 39.453125 6.390625 43.28125 13.890625 
Q 47.125 21.390625 47.125 36.375 
Q 47.125 51.421875 43.28125 58.90625 
Q 39.453125 66.40625 31.78125 66.40625 
z
M 31.78125 74.21875 
Q 44.046875 74.21875 50.515625 64.515625 
Q 56.984375 54.828125 56.984375 36.375 
Q 56.984375 17.96875 50.515625 8.265625 
Q 44.046875 -1.421875 31.78125 -1.421875 
Q 19.53125 -1.421875 13.0625 8.265625 
Q 6.59375 17.96875 6.59375 36.375 
Q 6.59375 54.828125 13.0625 64.515625 
Q 19.53125 74.21875 31.78125 74.21875 
z
" id="DejaVuSans-30"/>
      </defs>
      <g transform="translate(80.177377 266.598437)scale(0.1 -0.1)">
       <use xlink:href="#DejaVuSans-32"/>
       <use x="63.623047" xlink:href="#DejaVuSans-30"/>
      </g>
     </g>
    </g>
    <g id="xtick_2">
     <g id="line2d_2">
      <g>
       <use style="stroke:#000000;stroke-width:0.8;" x="130.71457" xlink:href="#m61264c3fd6" y="252"/>
      </g>
     </g>
     <g id="text_2">
      <!-- 40 -->
      <defs>
       <path d="M 37.796875 64.3125 
L 12.890625 25.390625 
L 37.796875 25.390625 
z
M 35.203125 72.90625 
L 47.609375 72.90625 
L 47.609375 25.390625 
L 58.015625 25.390625 
L 58.015625 17.1875 
L 47.609375 17.1875 
L 47.609375 0 
L 37.796875 0 
L 37.796875 17.1875 
L 4.890625 17.1875 
L 4.890625 26.703125 
z
" id="DejaVuSans-34"/>
      </defs>
      <g transform="translate(124.35207 266.598437)scale(0.1 -0.1)">
       <use xlink:href="#DejaVuSans-34"/>
       <use x="63.623047" xlink:href="#DejaVuSans-30"/>
      </g>
     </g>
    </g>
    <g id="xtick_3">
     <g id="line2d_3">
      <g>
       <use style="stroke:#000000;stroke-width:0.8;" x="174.889263" xlink:href="#m61264c3fd6" y="252"/>
      </g>
     </g>
     <g id="text_3">
      <!-- 60 -->
      <defs>
       <path d="M 33.015625 40.375 
Q 26.375 40.375 22.484375 35.828125 
Q 18.609375 31.296875 18.609375 23.390625 
Q 18.609375 15.53125 22.484375 10.953125 
Q 26.375 6.390625 33.015625 6.390625 
Q 39.65625 6.390625 43.53125 10.953125 
Q 47.40625 15.53125 47.40625 23.390625 
Q 47.40625 31.296875 43.53125 35.828125 
Q 39.65625 40.375 33.015625 40.375 
z
M 52.59375 71.296875 
L 52.59375 62.3125 
Q 48.875 64.0625 45.09375 64.984375 
Q 41.3125 65.921875 37.59375 65.921875 
Q 27.828125 65.921875 22.671875 59.328125 
Q 17.53125 52.734375 16.796875 39.40625 
Q 19.671875 43.65625 24.015625 45.921875 
Q 28.375 48.1875 33.59375 48.1875 
Q 44.578125 48.1875 50.953125 41.515625 
Q 57.328125 34.859375 57.328125 23.390625 
Q 57.328125 12.15625 50.6875 5.359375 
Q 44.046875 -1.421875 33.015625 -1.421875 
Q 20.359375 -1.421875 13.671875 8.265625 
Q 6.984375 17.96875 6.984375 36.375 
Q 6.984375 53.65625 15.1875 63.9375 
Q 23.390625 74.21875 37.203125 74.21875 
Q 40.921875 74.21875 44.703125 73.484375 
Q 48.484375 72.75 52.59375 71.296875 
z
" id="DejaVuSans-36"/>
      </defs>
      <g transform="translate(168.526763 266.598437)scale(0.1 -0.1)">
       <use xlink:href="#DejaVuSans-36"/>
       <use x="63.623047" xlink:href="#DejaVuSans-30"/>
      </g>
     </g>
    </g>
    <g id="xtick_4">
     <g id="line2d_4">
      <g>
       <use style="stroke:#000000;stroke-width:0.8;" x="219.063956" xlink:href="#m61264c3fd6" y="252"/>
      </g>
     </g>
     <g id="text_4">
      <!-- 80 -->
      <defs>
       <path d="M 31.78125 34.625 
Q 24.75 34.625 20.71875 30.859375 
Q 16.703125 27.09375 16.703125 20.515625 
Q 16.703125 13.921875 20.71875 10.15625 
Q 24.75 6.390625 31.78125 6.390625 
Q 38.8125 6.390625 42.859375 10.171875 
Q 46.921875 13.96875 46.921875 20.515625 
Q 46.921875 27.09375 42.890625 30.859375 
Q 38.875 34.625 31.78125 34.625 
z
M 21.921875 38.8125 
Q 15.578125 40.375 12.03125 44.71875 
Q 8.5 49.078125 8.5 55.328125 
Q 8.5 64.0625 14.71875 69.140625 
Q 20.953125 74.21875 31.78125 74.21875 
Q 42.671875 74.21875 48.875 69.140625 
Q 55.078125 64.0625 55.078125 55.328125 
Q 55.078125 49.078125 51.53125 44.71875 
Q 48 40.375 41.703125 38.8125 
Q 48.828125 37.15625 52.796875 32.3125 
Q 56.78125 27.484375 56.78125 20.515625 
Q 56.78125 9.90625 50.3125 4.234375 
Q 43.84375 -1.421875 31.78125 -1.421875 
Q 19.734375 -1.421875 13.25 4.234375 
Q 6.78125 9.90625 6.78125 20.515625 
Q 6.78125 27.484375 10.78125 32.3125 
Q 14.796875 37.15625 21.921875 38.8125 
z
M 18.3125 54.390625 
Q 18.3125 48.734375 21.84375 45.5625 
Q 25.390625 42.390625 31.78125 42.390625 
Q 38.140625 42.390625 41.71875 45.5625 
Q 45.3125 48.734375 45.3125 54.390625 
Q 45.3125 60.0625 41.71875 63.234375 
Q 38.140625 66.40625 31.78125 66.40625 
Q 25.390625 66.40625 21.84375 63.234375 
Q 18.3125 60.0625 18.3125 54.390625 
z
" id="DejaVuSans-38"/>
      </defs>
      <g transform="translate(212.701456 266.598437)scale(0.1 -0.1)">
       <use xlink:href="#DejaVuSans-38"/>
       <use x="63.623047" xlink:href="#DejaVuSans-30"/>
      </g>
     </g>
    </g>
    <g id="xtick_5">
     <g id="line2d_5">
      <g>
       <use style="stroke:#000000;stroke-width:0.8;" x="263.23865" xlink:href="#m61264c3fd6" y="252"/>
      </g>
     </g>
     <g id="text_5">
      <!-- 100 -->
      <defs>
       <path d="M 12.40625 8.296875 
L 28.515625 8.296875 
L 28.515625 63.921875 
L 10.984375 60.40625 
L 10.984375 69.390625 
L 28.421875 72.90625 
L 38.28125 72.90625 
L 38.28125 8.296875 
L 54.390625 8.296875 
L 54.390625 0 
L 12.40625 0 
z
" id="DejaVuSans-31"/>
      </defs>
      <g transform="translate(253.6949 266.598437)scale(0.1 -0.1)">
       <use xlink:href="#DejaVuSans-31"/>
       <use x="63.623047" xlink:href="#DejaVuSans-30"/>
       <use x="127.246094" xlink:href="#DejaVuSans-30"/>
      </g>
     </g>
    </g>
    <g id="xtick_6">
     <g id="line2d_6">
      <g>
       <use style="stroke:#000000;stroke-width:0.8;" x="307.413343" xlink:href="#m61264c3fd6" y="252"/>
      </g>
     </g>
     <g id="text_6">
      <!-- 120 -->
      <g transform="translate(297.869593 266.598437)scale(0.1 -0.1)">
       <use xlink:href="#DejaVuSans-31"/>
       <use x="63.623047" xlink:href="#DejaVuSans-32"/>
       <use x="127.246094" xlink:href="#DejaVuSans-30"/>
      </g>
     </g>
    </g>
    <g id="xtick_7">
     <g id="line2d_7">
      <g>
       <use style="stroke:#000000;stroke-width:0.8;" x="351.588036" xlink:href="#m61264c3fd6" y="252"/>
      </g>
     </g>
     <g id="text_7">
      <!-- 140 -->
      <g transform="translate(342.044286 266.598437)scale(0.1 -0.1)">
       <use xlink:href="#DejaVuSans-31"/>
       <use x="63.623047" xlink:href="#DejaVuSans-34"/>
       <use x="127.246094" xlink:href="#DejaVuSans-30"/>
      </g>
     </g>
    </g>
    <g id="text_8">
     <!-- Energy (keV) -->
     <defs>
      <path d="M 9.8125 72.90625 
L 55.90625 72.90625 
L 55.90625 64.59375 
L 19.671875 64.59375 
L 19.671875 43.015625 
L 54.390625 43.015625 
L 54.390625 34.71875 
L 19.671875 34.71875 
L 19.671875 8.296875 
L 56.78125 8.296875 
L 56.78125 0 
L 9.8125 0 
z
" id="DejaVuSans-45"/>
      <path d="M 54.890625 33.015625 
L 54.890625 0 
L 45.90625 0 
L 45.90625 32.71875 
Q 45.90625 40.484375 42.875 44.328125 
Q 39.84375 48.1875 33.796875 48.1875 
Q 26.515625 48.1875 22.3125 43.546875 
Q 18.109375 38.921875 18.109375 30.90625 
L 18.109375 0 
L 9.078125 0 
L 9.078125 54.6875 
L 18.109375 54.6875 
L 18.109375 46.1875 
Q 21.34375 51.125 25.703125 53.5625 
Q 30.078125 56 35.796875 56 
Q 45.21875 56 50.046875 50.171875 
Q 54.890625 44.34375 54.890625 33.015625 
z
" id="DejaVuSans-6e"/>
      <path d="M 56.203125 29.59375 
L 56.203125 25.203125 
L 14.890625 25.203125 
Q 15.484375 15.921875 20.484375 11.0625 
Q 25.484375 6.203125 34.421875 6.203125 
Q 39.59375 6.203125 44.453125 7.46875 
Q 49.3125 8.734375 54.109375 11.28125 
L 54.109375 2.78125 
Q 49.265625 0.734375 44.1875 -0.34375 
Q 39.109375 -1.421875 33.890625 -1.421875 
Q 20.796875 -1.421875 13.15625 6.1875 
Q 5.515625 13.8125 5.515625 26.8125 
Q 5.515625 40.234375 12.765625 48.109375 
Q 20.015625 56 32.328125 56 
Q 43.359375 56 49.78125 48.890625 
Q 56.203125 41.796875 56.203125 29.59375 
z
M 47.21875 32.234375 
Q 47.125 39.59375 43.09375 43.984375 
Q 39.0625 48.390625 32.421875 48.390625 
Q 24.90625 48.390625 20.390625 44.140625 
Q 15.875 39.890625 15.1875 32.171875 
z
" id="DejaVuSans-65"/>
      <path d="M 41.109375 46.296875 
Q 39.59375 47.171875 37.8125 47.578125 
Q 36.03125 48 33.890625 48 
Q 26.265625 48 22.1875 43.046875 
Q 18.109375 38.09375 18.109375 28.8125 
L 18.109375 0 
L 9.078125 0 
L 9.078125 54.6875 
L 18.109375 54.6875 
L 18.109375 46.1875 
Q 20.953125 51.171875 25.484375 53.578125 
Q 30.03125 56 36.53125 56 
Q 37.453125 56 38.578125 55.875 
Q 39.703125 55.765625 41.0625 55.515625 
z
" id="DejaVuSans-72"/>
      <path d="M 45.40625 27.984375 
Q 45.40625 37.75 41.375 43.109375 
Q 37.359375 48.484375 30.078125 48.484375 
Q 22.859375 48.484375 18.828125 43.109375 
Q 14.796875 37.75 14.796875 27.984375 
Q 14.796875 18.265625 18.828125 12.890625 
Q 22.859375 7.515625 30.078125 7.515625 
Q 37.359375 7.515625 41.375 12.890625 
Q 45.40625 18.265625 45.40625 27.984375 
z
M 54.390625 6.78125 
Q 54.390625 -7.171875 48.1875 -13.984375 
Q 42 -20.796875 29.203125 -20.796875 
Q 24.46875 -20.796875 20.265625 -20.09375 
Q 16.0625 -19.390625 12.109375 -17.921875 
L 12.109375 -9.1875 
Q 16.0625 -11.328125 19.921875 -12.34375 
Q 23.78125 -13.375 27.78125 -13.375 
Q 36.625 -13.375 41.015625 -8.765625 
Q 45.40625 -4.15625 45.40625 5.171875 
L 45.40625 9.625 
Q 42.625 4.78125 38.28125 2.390625 
Q 33.9375 0 27.875 0 
Q 17.828125 0 11.671875 7.65625 
Q 5.515625 15.328125 5.515625 27.984375 
Q 5.515625 40.671875 11.671875 48.328125 
Q 17.828125 56 27.875 56 
Q 33.9375 56 38.28125 53.609375 
Q 42.625 51.21875 45.40625 46.390625 
L 45.40625 54.6875 
L 54.390625 54.6875 
z
" id="DejaVuSans-67"/>
      <path d="M 32.171875 -5.078125 
Q 28.375 -14.84375 24.75 -17.8125 
Q 21.140625 -20.796875 15.09375 -20.796875 
L 7.90625 -20.796875 
L 7.90625 -13.28125 
L 13.1875 -13.28125 
Q 16.890625 -13.28125 18.9375 -11.515625 
Q 21 -9.765625 23.484375 -3.21875 
L 25.09375 0.875 
L 2.984375 54.6875 
L 12.5 54.6875 
L 29.59375 11.921875 
L 46.6875 54.6875 
L 56.203125 54.6875 
z
" id="DejaVuSans-79"/>
      <path id="DejaVuSans-20"/>
      <path d="M 31 75.875 
Q 24.46875 64.65625 21.28125 53.65625 
Q 18.109375 42.671875 18.109375 31.390625 
Q 18.109375 20.125 21.3125 9.0625 
Q 24.515625 -2 31 -13.1875 
L 23.1875 -13.1875 
Q 15.875 -1.703125 12.234375 9.375 
Q 8.59375 20.453125 8.59375 31.390625 
Q 8.59375 42.28125 12.203125 53.3125 
Q 15.828125 64.359375 23.1875 75.875 
z
" id="DejaVuSans-28"/>
      <path d="M 9.078125 75.984375 
L 18.109375 75.984375 
L 18.109375 31.109375 
L 44.921875 54.6875 
L 56.390625 54.6875 
L 27.390625 29.109375 
L 57.625 0 
L 45.90625 0 
L 18.109375 26.703125 
L 18.109375 0 
L 9.078125 0 
z
" id="DejaVuSans-6b"/>
      <path d="M 28.609375 0 
L 0.78125 72.90625 
L 11.078125 72.90625 
L 34.1875 11.53125 
L 57.328125 72.90625 
L 67.578125 72.90625 
L 39.796875 0 
z
" id="DejaVuSans-56"/>
      <path d="M 8.015625 75.875 
L 15.828125 75.875 
Q 23.140625 64.359375 26.78125 53.3125 
Q 30.421875 42.28125 30.421875 31.390625 
Q 30.421875 20.453125 26.78125 9.375 
Q 23.140625 -1.703125 15.828125 -13.1875 
L 8.015625 -13.1875 
Q 14.5 -2 17.703125 9.0625 
Q 20.90625 20.125 20.90625 31.390625 
Q 20.90625 42.671875 17.703125 53.65625 
Q 14.5 64.65625 8.015625 75.875 
z
" id="DejaVuSans-29"/>
     </defs>
     <g transform="translate(188.926562 280.276563)scale(0.1 -0.1)">
      <use xlink:href="#DejaVuSans-45"/>
      <use x="63.183594" xlink:href="#DejaVuSans-6e"/>
      <use x="126.5625" xlink:href="#DejaVuSans-65"/>
      <use x="188.085938" xlink:href="#DejaVuSans-72"/>
      <use x="229.183594" xlink:href="#DejaVuSans-67"/>
      <use x="292.660156" xlink:href="#DejaVuSans-79"/>
      <use x="351.839844" xlink:href="#DejaVuSans-20"/>
      <use x="383.626953" xlink:href="#DejaVuSans-28"/>
      <use x="422.640625" xlink:href="#DejaVuSans-6b"/>
      <use x="480.503906" xlink:href="#DejaVuSans-65"/>
      <use x="542.027344" xlink:href="#DejaVuSans-56"/>
      <use x="610.435547" xlink:href="#DejaVuSans-29"/>
     </g>
    </g>
   </g>
   <g id="matplotlib.axis_2">
    <g id="ytick_1">
     <g id="line2d_8">
      <defs>
       <path d="M 0 0 
L -3.5 0 
" id="mdb839c56b7" style="stroke:#000000;stroke-width:0.8;"/>
      </defs>
      <g>
       <use style="stroke:#000000;stroke-width:0.8;" x="54" xlink:href="#mdb839c56b7" y="242.116364"/>
      </g>
     </g>
     <g id="text_9">
      <!-- 0.0 -->
      <defs>
       <path d="M 10.6875 12.40625 
L 21 12.40625 
L 21 0 
L 10.6875 0 
z
" id="DejaVuSans-2e"/>
      </defs>
      <g transform="translate(31.096875 245.915582)scale(0.1 -0.1)">
       <use xlink:href="#DejaVuSans-30"/>
       <use x="63.623047" xlink:href="#DejaVuSans-2e"/>
       <use x="95.410156" xlink:href="#DejaVuSans-30"/>
      </g>
     </g>
    </g>
    <g id="ytick_2">
     <g id="line2d_9">
      <g>
       <use style="stroke:#000000;stroke-width:0.8;" x="54" xlink:href="#mdb839c56b7" y="202.581818"/>
      </g>
     </g>
     <g id="text_10">
      <!-- 0.2 -->
      <g transform="translate(31.096875 206.381037)scale(0.1 -0.1)">
       <use xlink:href="#DejaVuSans-30"/>
       <use x="63.623047" xlink:href="#DejaVuSans-2e"/>
       <use x="95.410156" xlink:href="#DejaVuSans-32"/>
      </g>
     </g>
    </g>
    <g id="ytick_3">
     <g id="line2d_10">
      <g>
       <use style="stroke:#000000;stroke-width:0.8;" x="54" xlink:href="#mdb839c56b7" y="163.047273"/>
      </g>
     </g>
     <g id="text_11">
      <!-- 0.4 -->
      <g transform="translate(31.096875 166.846491)scale(0.1 -0.1)">
       <use xlink:href="#DejaVuSans-30"/>
       <use x="63.623047" xlink:href="#DejaVuSans-2e"/>
       <use x="95.410156" xlink:href="#DejaVuSans-34"/>
      </g>
     </g>
    </g>
    <g id="ytick_4">
     <g id="line2d_11">
      <g>
       <use style="stroke:#000000;stroke-width:0.8;" x="54" xlink:href="#mdb839c56b7" y="123.512727"/>
      </g>
     </g>
     <g id="text_12">
      <!-- 0.6 -->
      <g transform="translate(31.096875 127.311946)scale(0.1 -0.1)">
       <use xlink:href="#DejaVuSans-30"/>
       <use x="63.623047" xlink:href="#DejaVuSans-2e"/>
       <use x="95.410156" xlink:href="#DejaVuSans-36"/>
      </g>
     </g>
    </g>
    <g id="ytick_5">
     <g id="line2d_12">
      <g>
       <use style="stroke:#000000;stroke-width:0.8;" x="54" xlink:href="#mdb839c56b7" y="83.978182"/>
      </g>
     </g>
     <g id="text_13">
      <!-- 0.8 -->
      <g transform="translate(31.096875 87.777401)scale(0.1 -0.1)">
       <use xlink:href="#DejaVuSans-30"/>
       <use x="63.623047" xlink:href="#DejaVuSans-2e"/>
       <use x="95.410156" xlink:href="#DejaVuSans-38"/>
      </g>
     </g>
    </g>
    <g id="ytick_6">
     <g id="line2d_13">
      <g>
       <use style="stroke:#000000;stroke-width:0.8;" x="54" xlink:href="#mdb839c56b7" y="44.443636"/>
      </g>
     </g>
     <g id="text_14">
      <!-- 1.0 -->
      <g transform="translate(31.096875 48.242855)scale(0.1 -0.1)">
       <use xlink:href="#DejaVuSans-31"/>
       <use x="63.623047" xlink:href="#DejaVuSans-2e"/>
       <use x="95.410156" xlink:href="#DejaVuSans-30"/>
      </g>
     </g>
    </g>
   </g>
   <g id="line2d_14">
    <path clip-path="url(#p4af845a95d)" d="M 69.218182 61.341942 
L 69.659929 61.341942 
L 69.659929 60.303503 
L 70.101676 60.303503 
L 70.101676 59.252927 
L 70.543423 59.252927 
L 70.543423 58.187278 
L 70.98517 58.187278 
L 70.98517 57.239795 
L 71.426916 57.239795 
L 71.426916 56.14642 
L 71.868663 56.14642 
L 71.868663 55.177155 
L 72.31041 55.177155 
L 72.31041 54.013408 
L 72.752157 54.013408 
L 72.752157 53.032449 
L 73.193904 53.032449 
L 73.193904 52.003463 
L 73.635651 52.003463 
L 73.635651 50.852016 
L 74.077398 50.852016 
L 74.077398 51.196972 
L 74.519145 51.196972 
L 74.519145 53.928262 
L 74.960892 53.928262 
L 74.960892 53.567307 
L 75.402639 53.567307 
L 75.402639 52.59076 
L 75.844386 52.59076 
L 75.844386 51.676237 
L 76.286133 51.676237 
L 76.286133 50.786479 
L 76.72788 50.786479 
L 76.72788 50.252229 
L 77.169627 50.252229 
L 77.169627 49.708226 
L 77.611374 49.708226 
L 77.611374 48.658776 
L 78.05312 48.658776 
L 78.05312 48.045977 
L 78.494867 48.045977 
L 78.494867 47.649376 
L 78.936614 47.649376 
L 78.936614 47.293563 
L 79.378361 47.293563 
L 79.378361 46.763826 
L 79.820108 46.763826 
L 79.820108 46.413232 
L 80.261855 46.413232 
L 80.261855 46.054426 
L 80.703602 46.054426 
L 80.703602 45.651395 
L 81.145349 45.651395 
L 81.145349 45.429366 
L 81.587096 45.429366 
L 81.587096 45.30669 
L 82.028843 45.30669 
L 82.028843 45.132838 
L 82.912337 45.080294 
L 82.912337 44.989105 
L 83.354084 44.989105 
L 83.354084 45.101053 
L 84.679324 45.189066 
L 84.679324 44.560338 
L 85.121071 44.560338 
L 85.121071 44.443636 
L 85.562818 44.443636 
L 85.562818 45.003241 
L 86.004565 45.003241 
L 86.004565 45.60237 
L 86.446312 45.60237 
L 86.446312 45.975649 
L 86.888059 45.975649 
L 86.888059 46.625469 
L 87.329806 46.625469 
L 87.329806 47.393299 
L 87.771553 47.393299 
L 87.771553 48.273197 
L 88.2133 48.273197 
L 88.2133 49.208707 
L 88.655047 49.208707 
L 88.655047 49.882853 
L 89.096794 49.882853 
L 89.096794 51.046268 
L 89.538541 51.046268 
L 89.538541 51.995713 
L 89.980288 51.995713 
L 89.980288 52.991079 
L 90.422035 52.991079 
L 90.422035 53.854373 
L 90.863782 53.854373 
L 90.863782 54.76781 
L 91.305528 54.76781 
L 91.305528 55.856561 
L 91.747275 55.856561 
L 91.747275 57.031601 
L 92.189022 57.031601 
L 92.189022 58.2766 
L 92.630769 58.2766 
L 92.630769 59.817247 
L 93.072516 59.817247 
L 93.072516 61.10051 
L 93.514263 61.10051 
L 93.514263 62.601021 
L 93.95601 62.601021 
L 93.95601 64.216087 
L 94.397757 64.216087 
L 94.397757 65.829561 
L 94.839504 65.829561 
L 94.839504 66.60792 
L 95.281251 66.60792 
L 95.281251 67.110878 
L 95.722998 67.110878 
L 95.722998 68.535769 
L 96.164745 68.535769 
L 96.164745 70.000717 
L 96.606492 70.000717 
L 96.606492 71.662147 
L 97.048239 71.662147 
L 97.048239 73.274712 
L 97.489985 73.274712 
L 97.489985 74.919214 
L 97.931732 74.919214 
L 97.931732 76.566759 
L 98.373479 76.566759 
L 98.373479 78.164663 
L 98.815226 78.164663 
L 98.815226 79.994812 
L 99.256973 79.994812 
L 99.256973 81.751271 
L 99.69872 81.751271 
L 99.69872 83.479763 
L 100.140467 83.479763 
L 100.140467 85.31668 
L 100.582214 85.31668 
L 100.582214 87.253529 
L 101.023961 87.253529 
L 101.023961 89.159804 
L 101.465708 89.159804 
L 101.465708 91.097341 
L 101.907455 91.097341 
L 101.907455 92.824506 
L 102.349202 92.824506 
L 102.349202 94.486563 
L 102.790949 94.486563 
L 102.790949 96.173484 
L 103.232696 96.173484 
L 103.232696 97.924807 
L 103.674443 97.924807 
L 103.674443 99.835059 
L 104.116189 99.835059 
L 104.116189 101.695468 
L 104.557936 101.695468 
L 104.557936 103.23719 
L 104.999683 103.23719 
L 104.999683 104.805043 
L 105.44143 104.805043 
L 105.44143 106.442718 
L 105.883177 106.442718 
L 105.883177 108.301162 
L 106.324924 108.301162 
L 106.324924 110.136198 
L 106.766671 110.136198 
L 106.766671 111.87682 
L 107.208418 111.87682 
L 107.208418 113.485528 
L 107.650165 113.485528 
L 107.650165 115.184594 
L 108.091912 115.184594 
L 108.091912 116.895222 
L 108.533659 116.895222 
L 108.533659 118.591531 
L 108.975406 118.591531 
L 108.975406 120.126831 
L 109.417153 120.126831 
L 109.417153 121.760474 
L 109.8589 121.760474 
L 109.8589 123.464922 
L 110.300647 123.464922 
L 110.300647 125.042632 
L 110.742393 125.042632 
L 110.742393 126.532087 
L 111.18414 126.532087 
L 111.18414 128.048787 
L 111.625887 128.048787 
L 111.625887 129.489213 
L 112.067634 129.489213 
L 112.067634 131.024457 
L 112.509381 131.024457 
L 112.509381 132.782938 
L 112.951128 132.782938 
L 112.951128 134.341132 
L 113.392875 134.341132 
L 113.392875 135.926471 
L 113.834622 135.926471 
L 113.834622 137.375567 
L 114.276369 137.375567 
L 114.276369 138.812408 
L 114.718116 138.812408 
L 114.718116 140.362273 
L 115.159863 140.362273 
L 115.159863 142.021661 
L 115.60161 142.021661 
L 115.60161 143.741754 
L 116.043357 143.741754 
L 116.043357 145.213179 
L 116.485104 145.213179 
L 116.485104 146.541527 
L 116.926851 146.541527 
L 116.926851 147.863245 
L 117.368597 147.863245 
L 117.368597 149.273623 
L 117.810344 149.273623 
L 117.810344 150.614357 
L 118.252091 150.614357 
L 118.252091 151.78078 
L 118.693838 151.78078 
L 118.693838 153.078747 
L 119.135585 153.078747 
L 119.135585 154.426846 
L 119.577332 154.426846 
L 119.577332 155.696807 
L 120.019079 155.696807 
L 120.019079 156.807624 
L 120.460826 156.807624 
L 120.460826 158.04729 
L 120.902573 158.04729 
L 120.902573 159.316075 
L 121.34432 159.316075 
L 121.34432 160.615651 
L 121.786067 160.615651 
L 121.786067 161.881719 
L 122.227814 161.881719 
L 122.227814 163.100644 
L 122.669561 163.100644 
L 122.669561 164.14627 
L 123.111308 164.14627 
L 123.111308 165.226468 
L 123.553054 165.226468 
L 123.553054 166.252747 
L 123.994801 166.252747 
L 123.994801 167.289773 
L 124.436548 167.289773 
L 124.436548 168.362898 
L 124.878295 168.362898 
L 124.878295 169.364758 
L 125.320042 169.364758 
L 125.320042 170.419395 
L 125.761789 170.419395 
L 125.761789 171.668161 
L 126.203536 171.668161 
L 126.203536 172.955737 
L 126.645283 172.955737 
L 126.645283 173.939586 
L 127.08703 173.939586 
L 127.08703 174.858519 
L 127.528777 174.858519 
L 127.528777 175.74807 
L 127.970524 175.74807 
L 127.970524 176.625149 
L 128.412271 176.625149 
L 128.412271 177.500357 
L 128.854018 177.500357 
L 128.854018 178.344387 
L 129.295765 178.344387 
L 129.295765 179.189881 
L 129.737512 179.189881 
L 129.737512 180.001849 
L 130.179258 180.001849 
L 130.179258 180.741892 
L 130.621005 180.741892 
L 130.621005 181.490868 
L 131.062752 181.490868 
L 131.062752 182.242052 
L 131.504499 182.242052 
L 131.504499 182.953372 
L 131.946246 182.953372 
L 131.946246 183.707725 
L 132.387993 183.707725 
L 132.387993 184.426243 
L 132.82974 184.426243 
L 132.82974 185.164797 
L 133.271487 185.164797 
L 133.271487 185.855452 
L 133.713234 185.855452 
L 133.713234 186.481719 
L 134.154981 186.481719 
L 134.154981 187.249623 
L 134.596728 187.249623 
L 134.596728 187.881339 
L 135.038475 187.881339 
L 135.038475 188.504049 
L 135.480222 188.504049 
L 135.480222 189.122182 
L 135.921969 189.122182 
L 135.921969 189.853898 
L 136.363716 189.853898 
L 136.363716 190.740764 
L 136.805462 190.740764 
L 136.805462 191.381548 
L 137.247209 191.381548 
L 137.247209 191.938027 
L 137.688956 191.938027 
L 137.688956 192.507758 
L 138.130703 192.507758 
L 138.130703 193.081473 
L 138.57245 193.081473 
L 138.57245 193.515075 
L 139.014197 193.515075 
L 139.014197 193.994206 
L 139.455944 193.994206 
L 139.455944 194.482253 
L 139.897691 194.482253 
L 139.897691 194.955792 
L 140.339438 194.955792 
L 140.339438 195.473934 
L 140.781185 195.473934 
L 140.781185 195.919859 
L 141.222932 195.919859 
L 141.222932 196.41616 
L 141.664679 196.41616 
L 141.664679 196.934372 
L 142.106426 196.934372 
L 142.106426 197.432842 
L 142.548173 197.432842 
L 142.548173 197.90757 
L 142.98992 197.90757 
L 142.98992 198.332292 
L 143.431666 198.332292 
L 143.431666 198.754569 
L 143.873413 198.754569 
L 143.873413 199.186801 
L 144.31516 199.186801 
L 144.31516 199.577339 
L 144.756907 199.577339 
L 144.756907 199.994935 
L 145.198654 199.994935 
L 145.198654 200.387863 
L 145.640401 200.387863 
L 145.640401 200.785217 
L 146.082148 200.785217 
L 146.082148 201.273943 
L 146.523895 201.273943 
L 146.523895 201.909361 
L 146.965642 201.909361 
L 146.965642 202.412228 
L 147.407389 202.412228 
L 147.407389 202.80159 
L 147.849136 202.80159 
L 147.849136 203.138888 
L 148.290883 203.138888 
L 148.290883 203.53718 
L 148.73263 203.53718 
L 148.73263 203.890534 
L 149.174377 203.890534 
L 149.174377 204.181151 
L 149.616123 204.181151 
L 149.616123 204.489201 
L 150.05787 204.489201 
L 150.05787 204.795131 
L 150.499617 204.795131 
L 150.499617 205.077489 
L 150.941364 205.077489 
L 150.941364 205.301907 
L 151.383111 205.301907 
L 151.383111 205.558578 
L 151.824858 205.558578 
L 151.824858 205.773583 
L 152.266605 205.773583 
L 152.266605 206.008923 
L 152.708352 206.008923 
L 152.708352 206.249905 
L 153.150099 206.249905 
L 153.150099 206.474036 
L 153.591846 206.474036 
L 153.591846 206.744449 
L 154.033593 206.744449 
L 154.033593 206.994515 
L 154.47534 206.994515 
L 154.47534 207.223526 
L 154.917087 207.223526 
L 154.917087 207.451095 
L 155.358834 207.451095 
L 155.358834 207.641507 
L 155.800581 207.641507 
L 155.800581 207.850873 
L 156.242327 207.850873 
L 156.242327 208.041002 
L 156.684074 208.041002 
L 156.684074 208.303113 
L 157.125821 208.303113 
L 157.125821 208.601305 
L 157.567568 208.601305 
L 157.567568 208.763847 
L 158.009315 208.763847 
L 158.009315 208.924156 
L 158.451062 208.924156 
L 158.451062 209.077499 
L 158.892809 209.077499 
L 158.892809 209.215639 
L 159.334556 209.215639 
L 159.334556 209.382769 
L 159.776303 209.382769 
L 159.776303 209.558866 
L 160.21805 209.558866 
L 160.21805 209.719754 
L 160.659797 209.719754 
L 160.659797 209.896637 
L 161.101544 209.896637 
L 161.101544 210.05402 
L 161.543291 210.05402 
L 161.543291 210.239098 
L 161.985038 210.239098 
L 161.985038 210.426708 
L 162.426785 210.426708 
L 162.426785 210.549153 
L 162.868531 210.549153 
L 162.868531 210.733939 
L 163.310278 210.733939 
L 163.310278 210.912637 
L 163.752025 210.912637 
L 163.752025 211.067654 
L 164.193772 211.067654 
L 164.193772 211.18575 
L 164.635519 211.18575 
L 164.635519 211.301717 
L 165.077266 211.301717 
L 165.077266 211.434604 
L 165.519013 211.434604 
L 165.519013 211.557402 
L 165.96076 211.557402 
L 165.96076 211.685131 
L 166.402507 211.685131 
L 166.402507 211.803056 
L 166.844254 211.803056 
L 166.844254 211.974751 
L 167.286001 211.974751 
L 167.286001 212.170652 
L 167.727748 212.170652 
L 167.727748 212.314432 
L 168.611242 212.419496 
L 168.611242 212.550726 
L 169.052989 212.550726 
L 169.052989 212.686768 
L 169.936482 212.791218 
L 169.936482 212.898698 
L 170.378229 212.898698 
L 170.378229 213.010312 
L 171.261723 213.115839 
L 171.261723 213.230708 
L 172.145217 213.318883 
L 172.145217 213.393204 
L 172.586964 213.393204 
L 172.586964 213.52476 
L 173.470458 213.619019 
L 173.470458 213.690684 
L 174.353952 213.797514 
L 174.353952 213.885816 
L 174.795699 213.885816 
L 174.795699 214.004104 
L 175.679193 214.086624 
L 175.679193 214.190683 
L 176.562686 214.266617 
L 176.562686 214.379812 
L 177.44618 214.489054 
L 177.44618 214.605069 
L 178.329674 214.691211 
L 178.329674 214.75837 
L 179.213168 214.852238 
L 179.213168 214.904693 
L 180.096662 215.01452 
L 180.096662 215.086352 
L 180.980156 215.166236 
L 180.980156 215.251648 
L 181.86365 215.31742 
L 181.86365 215.413018 
L 182.747143 215.508206 
L 182.747143 215.609015 
L 183.630637 215.669045 
L 183.630637 215.757391 
L 184.514131 215.812646 
L 184.514131 215.882223 
L 185.397625 215.960391 
L 185.397625 216.048215 
L 186.281119 216.153774 
L 186.281119 216.265303 
L 187.164613 216.372547 
L 187.164613 216.472942 
L 188.048107 216.578766 
L 188.048107 216.695264 
L 188.489854 216.695264 
L 188.489854 216.819759 
L 189.373347 216.923421 
L 189.373347 217.027225 
L 190.256841 217.103225 
L 190.256841 217.198759 
L 191.140335 217.292086 
L 191.140335 217.369791 
L 192.023829 217.468741 
L 192.023829 217.586929 
L 192.907323 217.68253 
L 192.907323 217.795824 
L 193.790817 217.904898 
L 193.790817 218.000687 
L 194.232564 218.000687 
L 194.232564 218.126863 
L 194.674311 218.126863 
L 194.674311 218.252948 
L 195.116058 218.252948 
L 195.116058 218.377299 
L 195.557804 218.377299 
L 195.557804 218.499095 
L 196.441298 218.585367 
L 196.441298 218.702528 
L 196.883045 218.702528 
L 196.883045 218.820458 
L 197.766539 218.922305 
L 197.766539 219.000805 
L 198.650033 219.069283 
L 198.650033 219.156096 
L 199.533527 219.258082 
L 199.533527 219.351329 
L 199.975274 219.351329 
L 199.975274 219.464835 
L 200.417021 219.464835 
L 200.417021 219.588297 
L 200.858768 219.588297 
L 200.858768 219.714567 
L 201.300515 219.714567 
L 201.300515 219.844267 
L 201.742262 219.844267 
L 201.742262 219.961392 
L 202.625755 220.06038 
L 202.625755 220.171814 
L 203.509249 220.274768 
L 203.509249 220.384886 
L 204.392743 220.481401 
L 204.392743 220.590254 
L 205.276237 220.695006 
L 205.276237 220.810406 
L 206.159731 220.907348 
L 206.159731 221.033392 
L 206.601478 221.033392 
L 206.601478 221.147879 
L 207.484972 221.250041 
L 207.484972 221.372883 
L 207.926719 221.372883 
L 207.926719 221.492792 
L 208.368465 221.492792 
L 208.368465 221.63304 
L 208.810212 221.63304 
L 208.810212 221.861765 
L 209.251959 221.861765 
L 209.251959 222.141963 
L 209.693706 222.141963 
L 209.693706 222.444082 
L 210.135453 222.444082 
L 210.135453 222.728672 
L 210.5772 222.728672 
L 210.5772 223.022621 
L 211.018947 223.022621 
L 211.018947 223.291548 
L 211.460694 223.291548 
L 211.460694 223.571566 
L 211.902441 223.571566 
L 211.902441 223.855312 
L 212.344188 223.855312 
L 212.344188 224.15003 
L 212.785935 224.15003 
L 212.785935 224.436476 
L 213.227682 224.436476 
L 213.227682 224.710346 
L 213.669429 224.710346 
L 213.669429 224.980809 
L 214.111176 224.980809 
L 214.111176 225.275139 
L 214.552923 225.275139 
L 214.552923 225.562191 
L 214.994669 225.562191 
L 214.994669 225.836953 
L 215.436416 225.836953 
L 215.436416 226.093625 
L 215.878163 226.093625 
L 215.878163 226.361457 
L 216.31991 226.361457 
L 216.31991 226.648211 
L 216.761657 226.648211 
L 216.761657 226.922597 
L 217.203404 226.922597 
L 217.203404 227.202046 
L 217.645151 227.202046 
L 217.645151 227.472869 
L 218.086898 227.472869 
L 218.086898 227.757181 
L 218.528645 227.757181 
L 218.528645 228.026567 
L 218.970392 228.026567 
L 218.970392 228.260151 
L 219.853886 228.363352 
L 219.853886 228.458665 
L 220.73738 228.556149 
L 220.73738 228.626618 
L 221.620873 228.717244 
L 221.620873 228.807257 
L 222.504367 228.899766 
L 222.504367 228.997227 
L 223.387861 229.087984 
L 223.387861 229.182124 
L 224.271355 229.2766 
L 224.271355 229.360534 
L 225.154849 229.436444 
L 225.154849 229.518687 
L 226.038343 229.602406 
L 226.038343 229.702355 
L 226.921837 229.79292 
L 226.921837 229.876236 
L 227.805331 229.965903 
L 227.805331 230.047245 
L 228.688824 230.131946 
L 228.688824 230.231304 
L 229.572318 230.319193 
L 229.572318 230.412045 
L 230.455812 230.496753 
L 230.455812 230.571802 
L 231.339306 230.661472 
L 231.339306 230.736861 
L 232.2228 230.81962 
L 232.2228 230.907488 
L 233.106294 230.984345 
L 233.106294 231.056273 
L 233.989788 231.136205 
L 233.989788 231.218058 
L 234.873281 231.304102 
L 234.873281 231.388671 
L 235.756775 231.477195 
L 235.756775 231.57067 
L 236.640269 231.655316 
L 236.640269 231.726165 
L 237.523763 231.807023 
L 237.523763 231.882972 
L 238.407257 231.954756 
L 238.407257 232.02467 
L 239.290751 232.100486 
L 239.290751 232.178041 
L 240.174245 232.250384 
L 240.174245 232.320045 
L 241.057738 232.395128 
L 241.057738 232.46852 
L 241.941232 232.542587 
L 241.941232 232.609082 
L 242.824726 232.673848 
L 242.824726 232.732624 
L 243.70822 232.810837 
L 243.70822 232.865288 
L 244.591714 232.926872 
L 244.591714 232.985284 
L 245.475208 233.05279 
L 245.475208 233.123113 
L 246.800449 233.227977 
L 246.800449 233.29117 
L 247.683942 233.34686 
L 247.683942 233.406316 
L 248.567436 233.471878 
L 248.567436 233.537376 
L 249.45093 233.604238 
L 249.45093 233.679041 
L 250.334424 233.755633 
L 250.334424 233.820672 
L 251.217918 233.872215 
L 251.217918 233.932344 
L 252.543159 234.042826 
L 252.543159 234.102429 
L 253.8684 234.206986 
L 253.8684 234.263637 
L 254.751893 234.324939 
L 254.751893 234.383408 
L 256.077134 234.484284 
L 256.077134 234.540707 
L 257.402375 234.642111 
L 257.402375 234.699677 
L 258.727616 234.799209 
L 258.727616 234.841801 
L 260.052857 234.930581 
L 260.052857 234.985646 
L 261.378097 235.078378 
L 261.378097 235.126418 
L 262.703338 235.205835 
L 262.703338 235.241621 
L 264.028579 235.324902 
L 264.028579 235.368994 
L 265.35382 235.448711 
L 265.35382 235.493293 
L 266.679061 235.584181 
L 266.679061 235.623734 
L 268.004301 235.704375 
L 268.004301 235.73745 
L 269.329542 235.822494 
L 269.329542 235.864913 
L 270.654783 235.962672 
L 270.654783 236.004758 
L 272.421771 236.114557 
L 272.421771 236.157626 
L 273.747011 236.238893 
L 273.747011 236.27756 
L 275.513999 236.369514 
L 275.513999 236.400536 
L 277.280987 236.495417 
L 277.280987 236.531734 
L 278.606228 236.606242 
L 278.606228 236.645926 
L 280.373215 236.728649 
L 280.373215 236.757807 
L 282.140203 236.84866 
L 282.140203 236.880879 
L 283.907191 236.963982 
L 283.907191 236.994569 
L 285.674179 237.100234 
L 285.674179 237.132188 
L 287.441166 237.22224 
L 287.441166 237.250456 
L 289.649901 237.353204 
L 289.649901 237.383519 
L 291.416889 237.477621 
L 291.416889 237.513902 
L 293.183877 237.600648 
L 293.183877 237.631414 
L 295.392611 237.726228 
L 295.392611 237.748274 
L 297.601346 237.847417 
L 297.601346 237.874415 
L 299.81008 237.974851 
L 299.81008 238.000369 
L 302.018815 238.097787 
L 302.018815 238.118995 
L 304.669297 238.22514 
L 304.669297 238.255448 
L 306.878031 238.35006 
L 306.878031 238.376096 
L 309.528513 238.481727 
L 309.528513 238.50514 
L 311.737248 238.590216 
L 311.737248 238.618173 
L 314.387729 238.724095 
L 314.387729 238.74475 
L 317.038211 238.842417 
L 317.038211 238.862939 
L 320.130439 238.97374 
L 320.130439 238.994519 
L 322.780921 239.088499 
L 322.780921 239.11059 
L 325.873149 239.217989 
L 325.873149 239.233549 
L 328.965378 239.342633 
L 328.965378 239.357898 
L 332.057607 239.451102 
L 332.057607 239.470792 
L 335.149835 239.565198 
L 335.149835 239.585366 
L 338.683811 239.690267 
L 338.683811 239.70526 
L 341.776039 239.800879 
L 341.776039 239.819198 
L 345.751761 239.930177 
L 345.751761 239.942704 
L 349.285737 240.04124 
L 349.285737 240.054451 
L 353.261459 240.153423 
L 353.261459 240.166199 
L 357.678929 240.276159 
L 357.678929 240.288588 
L 362.096398 240.396346 
L 362.096398 240.406957 
L 366.955614 240.515022 
L 366.955614 240.524517 
L 372.698324 240.630513 
L 372.698324 240.638343 
L 373.581818 240.647052 
L 373.581818 240.656948 
" style="fill:none;stroke:#1f77b4;stroke-linecap:square;stroke-width:1.5;"/>
   </g>
   <g id="line2d_15">
    <path clip-path="url(#p4af845a95d)" d="M 69.218182 92.595697 
L 69.659929 92.595697 
L 69.659929 91.350304 
L 70.101676 91.350304 
L 70.101676 90.011928 
L 70.543423 90.011928 
L 70.543423 88.453299 
L 70.98517 88.453299 
L 70.98517 86.801683 
L 71.426916 86.801683 
L 71.426916 85.115623 
L 71.868663 85.115623 
L 71.868663 83.453174 
L 72.31041 83.453174 
L 72.31041 81.792118 
L 72.752157 81.792118 
L 72.752157 80.150879 
L 73.193904 80.150879 
L 73.193904 78.359361 
L 73.635651 78.359361 
L 73.635651 76.481827 
L 74.077398 76.481827 
L 74.077398 76.053979 
L 74.519145 76.053979 
L 74.519145 77.207485 
L 74.960892 77.207485 
L 74.960892 76.152652 
L 75.402639 76.152652 
L 75.402639 74.512146 
L 75.844386 74.512146 
L 75.844386 72.790624 
L 76.286133 72.790624 
L 76.286133 71.371852 
L 76.72788 71.371852 
L 76.72788 69.867842 
L 77.169627 69.867842 
L 77.169627 68.214177 
L 77.611374 68.214177 
L 77.611374 66.765909 
L 78.05312 66.765909 
L 78.05312 65.207031 
L 78.494867 65.207031 
L 78.494867 63.627873 
L 78.936614 63.627873 
L 78.936614 62.131985 
L 79.378361 62.131985 
L 79.378361 60.482391 
L 79.820108 60.482391 
L 79.820108 59.111064 
L 80.261855 59.111064 
L 80.261855 57.775619 
L 80.703602 57.775619 
L 80.703602 56.515285 
L 81.145349 56.515285 
L 81.145349 55.432523 
L 81.587096 55.432523 
L 81.587096 54.110051 
L 82.028843 54.110051 
L 82.028843 52.99526 
L 82.47059 52.99526 
L 82.47059 51.958074 
L 82.912337 51.958074 
L 82.912337 51.072744 
L 83.354084 51.072744 
L 83.354084 50.334456 
L 83.795831 50.334456 
L 83.795831 49.498317 
L 84.237578 49.498317 
L 84.237578 48.508359 
L 84.679324 48.508359 
L 84.679324 47.012095 
L 85.121071 47.012095 
L 85.121071 45.762196 
L 85.562818 45.762196 
L 85.562818 45.272625 
L 86.004565 45.272625 
L 86.004565 45.1293 
L 86.446312 45.1293 
L 86.446312 44.906421 
L 87.329806 44.82561 
L 87.329806 44.550466 
L 88.2133 44.443636 
L 88.2133 44.707515 
L 88.655047 44.707515 
L 88.655047 44.90305 
L 89.096794 44.90305 
L 89.096794 45.148281 
L 89.538541 45.148281 
L 89.538541 45.326092 
L 90.422035 45.413701 
L 90.422035 45.58781 
L 90.863782 45.58781 
L 90.863782 46.012567 
L 91.305528 46.012567 
L 91.305528 46.541035 
L 91.747275 46.541035 
L 91.747275 46.987385 
L 92.189022 46.987385 
L 92.189022 47.536733 
L 92.630769 47.536733 
L 92.630769 48.114827 
L 93.072516 48.114827 
L 93.072516 48.68977 
L 93.514263 48.68977 
L 93.514263 49.375492 
L 93.95601 49.375492 
L 93.95601 49.843346 
L 94.397757 49.843346 
L 94.397757 50.626375 
L 94.839504 50.626375 
L 94.839504 50.358803 
L 95.281251 50.358803 
L 95.281251 50.04227 
L 95.722998 50.04227 
L 95.722998 51.150102 
L 96.164745 51.150102 
L 96.164745 52.103439 
L 96.606492 52.103439 
L 96.606492 53.141745 
L 97.048239 53.141745 
L 97.048239 54.345853 
L 97.489985 54.345853 
L 97.489985 55.677131 
L 97.931732 55.677131 
L 97.931732 56.982761 
L 98.373479 56.982761 
L 98.373479 58.35941 
L 98.815226 58.35941 
L 98.815226 59.788678 
L 99.256973 59.788678 
L 99.256973 61.269113 
L 99.69872 61.269113 
L 99.69872 62.700054 
L 100.140467 62.700054 
L 100.140467 63.99068 
L 100.582214 63.99068 
L 100.582214 65.456273 
L 101.023961 65.456273 
L 101.023961 66.860373 
L 101.465708 66.860373 
L 101.465708 68.353641 
L 101.907455 68.353641 
L 101.907455 69.824787 
L 102.349202 69.824787 
L 102.349202 71.391572 
L 102.790949 71.391572 
L 102.790949 73.156282 
L 103.232696 73.156282 
L 103.232696 74.840551 
L 103.674443 74.840551 
L 103.674443 76.497596 
L 104.116189 76.497596 
L 104.116189 78.263195 
L 104.557936 78.263195 
L 104.557936 80.06426 
L 104.999683 80.06426 
L 104.999683 81.555253 
L 105.44143 81.555253 
L 105.44143 82.493173 
L 105.883177 82.493173 
L 105.883177 84.036214 
L 106.324924 84.036214 
L 106.324924 85.775454 
L 106.766671 85.775454 
L 106.766671 87.549625 
L 107.208418 87.549625 
L 107.208418 89.272145 
L 107.650165 89.272145 
L 107.650165 90.927359 
L 108.091912 90.927359 
L 108.091912 92.720535 
L 108.533659 92.720535 
L 108.533659 94.443065 
L 108.975406 94.443065 
L 108.975406 96.215373 
L 109.417153 96.215373 
L 109.417153 97.966527 
L 109.8589 97.966527 
L 109.8589 99.685271 
L 110.300647 99.685271 
L 110.300647 101.542718 
L 110.742393 101.542718 
L 110.742393 103.276591 
L 111.18414 103.276591 
L 111.18414 105.013583 
L 111.625887 105.013583 
L 111.625887 106.807878 
L 112.067634 106.807878 
L 112.067634 108.590953 
L 112.509381 108.590953 
L 112.509381 110.408113 
L 112.951128 110.408113 
L 112.951128 112.056731 
L 113.392875 112.056731 
L 113.392875 113.781325 
L 113.834622 113.781325 
L 113.834622 115.463511 
L 114.276369 115.463511 
L 114.276369 117.129367 
L 114.718116 117.129367 
L 114.718116 118.774469 
L 115.159863 118.774469 
L 115.159863 120.300868 
L 115.60161 120.300868 
L 115.60161 121.929076 
L 116.043357 121.929076 
L 116.043357 123.630665 
L 116.485104 123.630665 
L 116.485104 125.326161 
L 116.926851 125.326161 
L 116.926851 126.940144 
L 117.368597 126.940144 
L 117.368597 128.413089 
L 117.810344 128.413089 
L 117.810344 129.930281 
L 118.252091 129.930281 
L 118.252091 131.48725 
L 118.693838 131.48725 
L 118.693838 133.005612 
L 119.135585 133.005612 
L 119.135585 134.475285 
L 119.577332 134.475285 
L 119.577332 135.985683 
L 120.019079 135.985683 
L 120.019079 137.515795 
L 120.460826 137.515795 
L 120.460826 139.074625 
L 120.902573 139.074625 
L 120.902573 140.619311 
L 121.34432 140.619311 
L 121.34432 142.134789 
L 121.786067 142.134789 
L 121.786067 143.521489 
L 122.227814 143.521489 
L 122.227814 144.911568 
L 122.669561 144.911568 
L 122.669561 146.277861 
L 123.111308 146.277861 
L 123.111308 147.61834 
L 123.553054 147.61834 
L 123.553054 148.908861 
L 123.994801 148.908861 
L 123.994801 150.156392 
L 124.436548 150.156392 
L 124.436548 151.470943 
L 124.878295 151.470943 
L 124.878295 152.859423 
L 125.320042 152.859423 
L 125.320042 154.330267 
L 125.761789 154.330267 
L 125.761789 155.884874 
L 126.203536 155.884874 
L 126.203536 157.331675 
L 126.645283 157.331675 
L 126.645283 158.525002 
L 127.08703 158.525002 
L 127.08703 159.703239 
L 127.528777 159.703239 
L 127.528777 160.921976 
L 127.970524 160.921976 
L 127.970524 162.055711 
L 128.412271 162.055711 
L 128.412271 163.182023 
L 128.854018 163.182023 
L 128.854018 164.292031 
L 129.295765 164.292031 
L 129.295765 165.358799 
L 129.737512 165.358799 
L 129.737512 166.4483 
L 130.179258 166.4483 
L 130.179258 167.528581 
L 130.621005 167.528581 
L 130.621005 168.609022 
L 131.062752 168.609022 
L 131.062752 169.682237 
L 131.504499 169.682237 
L 131.504499 170.704033 
L 131.946246 170.704033 
L 131.946246 171.712885 
L 132.387993 171.712885 
L 132.387993 172.683022 
L 132.82974 172.683022 
L 132.82974 173.711063 
L 133.271487 173.711063 
L 133.271487 174.738555 
L 133.713234 174.738555 
L 133.713234 175.69356 
L 134.154981 175.69356 
L 134.154981 176.691149 
L 134.596728 176.691149 
L 134.596728 177.572491 
L 135.038475 177.572491 
L 135.038475 178.474727 
L 135.480222 178.474727 
L 135.480222 179.330704 
L 135.921969 179.330704 
L 135.921969 180.390867 
L 136.363716 180.390867 
L 136.363716 181.689732 
L 136.805462 181.689732 
L 136.805462 182.692264 
L 137.247209 182.692264 
L 137.247209 183.453414 
L 137.688956 183.453414 
L 137.688956 184.191353 
L 138.130703 184.191353 
L 138.130703 184.891628 
L 138.57245 184.891628 
L 138.57245 185.585948 
L 139.014197 185.585948 
L 139.014197 186.32437 
L 139.455944 186.32437 
L 139.455944 187.042665 
L 139.897691 187.042665 
L 139.897691 187.720001 
L 140.339438 187.720001 
L 140.339438 188.416927 
L 140.781185 188.416927 
L 140.781185 189.077647 
L 141.222932 189.077647 
L 141.222932 189.795924 
L 141.664679 189.795924 
L 141.664679 190.499815 
L 142.106426 190.499815 
L 142.106426 191.214207 
L 142.548173 191.214207 
L 142.548173 191.844229 
L 142.98992 191.844229 
L 142.98992 192.467807 
L 143.431666 192.467807 
L 143.431666 193.134143 
L 143.873413 193.134143 
L 143.873413 193.747188 
L 144.31516 193.747188 
L 144.31516 194.334716 
L 144.756907 194.334716 
L 144.756907 194.93312 
L 145.198654 194.93312 
L 145.198654 195.522924 
L 145.640401 195.522924 
L 145.640401 196.126345 
L 146.082148 196.126345 
L 146.082148 196.750691 
L 146.523895 196.750691 
L 146.523895 197.581425 
L 146.965642 197.581425 
L 146.965642 198.268144 
L 147.407389 198.268144 
L 147.407389 198.803716 
L 147.849136 198.803716 
L 147.849136 199.331476 
L 148.290883 199.331476 
L 148.290883 199.841454 
L 148.73263 199.841454 
L 148.73263 200.3097 
L 149.174377 200.3097 
L 149.174377 200.819731 
L 149.616123 200.819731 
L 149.616123 201.278548 
L 150.05787 201.278548 
L 150.05787 201.696166 
L 150.499617 201.696166 
L 150.499617 202.118234 
L 150.941364 202.118234 
L 150.941364 202.531431 
L 151.383111 202.531431 
L 151.383111 202.960165 
L 151.824858 202.960165 
L 151.824858 203.396647 
L 152.266605 203.396647 
L 152.266605 203.762789 
L 152.708352 203.762789 
L 152.708352 204.169059 
L 153.150099 204.169059 
L 153.150099 204.553537 
L 153.591846 204.553537 
L 153.591846 204.94036 
L 154.033593 204.94036 
L 154.033593 205.282217 
L 154.47534 205.282217 
L 154.47534 205.634562 
L 154.917087 205.634562 
L 154.917087 205.997477 
L 155.358834 205.997477 
L 155.358834 206.339424 
L 155.800581 206.339424 
L 155.800581 206.710181 
L 156.242327 206.710181 
L 156.242327 207.072015 
L 156.684074 207.072015 
L 156.684074 207.558008 
L 157.125821 207.558008 
L 157.125821 208.035453 
L 157.567568 208.035453 
L 157.567568 208.342061 
L 158.009315 208.342061 
L 158.009315 208.635428 
L 158.451062 208.635428 
L 158.451062 208.919706 
L 158.892809 208.919706 
L 158.892809 209.179513 
L 159.334556 209.179513 
L 159.334556 209.433563 
L 159.776303 209.433563 
L 159.776303 209.684371 
L 160.21805 209.684371 
L 160.21805 209.921152 
L 160.659797 209.921152 
L 160.659797 210.152935 
L 161.101544 210.152935 
L 161.101544 210.386332 
L 161.543291 210.386332 
L 161.543291 210.631267 
L 161.985038 210.631267 
L 161.985038 210.879176 
L 162.426785 210.879176 
L 162.426785 211.161432 
L 162.868531 211.161432 
L 162.868531 211.395155 
L 163.310278 211.395155 
L 163.310278 211.565324 
L 163.752025 211.565324 
L 163.752025 211.793726 
L 164.193772 211.793726 
L 164.193772 212.001766 
L 164.635519 212.001766 
L 164.635519 212.208189 
L 165.077266 212.208189 
L 165.077266 212.385543 
L 165.519013 212.385543 
L 165.519013 212.560545 
L 165.96076 212.560545 
L 165.96076 212.751205 
L 166.402507 212.751205 
L 166.402507 212.946998 
L 166.844254 212.946998 
L 166.844254 213.190919 
L 167.286001 213.190919 
L 167.286001 213.543184 
L 167.727748 213.543184 
L 167.727748 213.771277 
L 168.169495 213.771277 
L 168.169495 213.965638 
L 168.611242 213.965638 
L 168.611242 214.127504 
L 169.052989 214.127504 
L 169.052989 214.282812 
L 169.494735 214.282812 
L 169.494735 214.434073 
L 169.936482 214.434073 
L 169.936482 214.596842 
L 170.378229 214.596842 
L 170.378229 214.725446 
L 170.819976 214.725446 
L 170.819976 214.865744 
L 171.261723 214.865744 
L 171.261723 214.990435 
L 171.70347 214.990435 
L 171.70347 215.116204 
L 172.145217 215.116204 
L 172.145217 215.265891 
L 172.586964 215.265891 
L 172.586964 215.378072 
L 173.028711 215.378072 
L 173.028711 215.49303 
L 173.470458 215.49303 
L 173.470458 215.636483 
L 173.912205 215.636483 
L 173.912205 215.752524 
L 174.353952 215.752524 
L 174.353952 215.866551 
L 174.795699 215.866551 
L 174.795699 215.980372 
L 175.679193 216.089748 
L 175.679193 216.200181 
L 176.562686 216.29311 
L 176.562686 216.387908 
L 177.44618 216.493383 
L 177.44618 216.686023 
L 177.887927 216.686023 
L 177.887927 216.824748 
L 178.771421 216.901108 
L 178.771421 216.991149 
L 179.654915 217.067976 
L 179.654915 217.131776 
L 180.538409 217.20375 
L 180.538409 217.282781 
L 181.421903 217.339498 
L 181.421903 217.427185 
L 182.305396 217.513069 
L 182.305396 217.600382 
L 183.18889 217.668711 
L 183.18889 217.750572 
L 184.072384 217.816843 
L 184.072384 217.897263 
L 184.955878 217.995074 
L 184.955878 218.056234 
L 185.839372 218.112752 
L 185.839372 218.17238 
L 186.722866 218.25561 
L 186.722866 218.331567 
L 187.60636 218.418325 
L 187.60636 218.529739 
L 188.489854 218.619216 
L 188.489854 218.69646 
L 189.373347 218.767541 
L 189.373347 218.848999 
L 190.256841 218.923363 
L 190.256841 219.019056 
L 191.140335 219.095443 
L 191.140335 219.188754 
L 192.023829 219.26636 
L 192.023829 219.343834 
L 193.34907 219.452986 
L 193.34907 219.53442 
L 194.232564 219.618107 
L 194.232564 219.714261 
L 195.116058 219.780076 
L 195.116058 219.856355 
L 195.999551 219.966165 
L 195.999551 220.063807 
L 196.883045 220.129216 
L 196.883045 220.219049 
L 197.766539 220.285382 
L 197.766539 220.339784 
L 198.650033 220.394143 
L 198.650033 220.460983 
L 199.533527 220.523553 
L 199.533527 220.603071 
L 200.417021 220.672916 
L 200.417021 220.758027 
L 201.300515 220.84669 
L 201.300515 220.935953 
L 202.184008 221.024501 
L 202.184008 221.117583 
L 202.625755 221.117583 
L 202.625755 221.246276 
L 203.509249 221.349263 
L 203.509249 221.421968 
L 204.392743 221.513024 
L 204.392743 221.600062 
L 205.276237 221.675902 
L 205.276237 221.761424 
L 206.159731 221.83504 
L 206.159731 221.919026 
L 207.043225 222.012758 
L 207.043225 222.108352 
L 207.926719 222.204938 
L 207.926719 222.310761 
L 208.810212 222.407284 
L 208.810212 222.594083 
L 209.251959 222.594083 
L 209.251959 222.869155 
L 209.693706 222.869155 
L 209.693706 223.139207 
L 210.135453 223.139207 
L 210.135453 223.427041 
L 210.5772 223.427041 
L 210.5772 223.721849 
L 211.018947 223.721849 
L 211.018947 224.022676 
L 211.460694 224.022676 
L 211.460694 224.312731 
L 211.902441 224.312731 
L 211.902441 224.601645 
L 212.344188 224.601645 
L 212.344188 224.895301 
L 212.785935 224.895301 
L 212.785935 225.178294 
L 213.227682 225.178294 
L 213.227682 225.448876 
L 213.669429 225.448876 
L 213.669429 225.732674 
L 214.111176 225.732674 
L 214.111176 226.018137 
L 214.552923 226.018137 
L 214.552923 226.289606 
L 214.994669 226.289606 
L 214.994669 226.572767 
L 215.436416 226.572767 
L 215.436416 226.85064 
L 215.878163 226.85064 
L 215.878163 227.145413 
L 216.31991 227.145413 
L 216.31991 227.431361 
L 216.761657 227.431361 
L 216.761657 227.705153 
L 217.203404 227.705153 
L 217.203404 227.974403 
L 217.645151 227.974403 
L 217.645151 228.236242 
L 218.086898 228.236242 
L 218.086898 228.50107 
L 218.528645 228.50107 
L 218.528645 228.782307 
L 218.970392 228.782307 
L 218.970392 229.027823 
L 219.853886 229.115683 
L 219.853886 229.180869 
L 220.73738 229.247638 
L 220.73738 229.324461 
L 221.620873 229.402836 
L 221.620873 229.480078 
L 222.504367 229.577774 
L 222.504367 229.669491 
L 223.387861 229.740634 
L 223.387861 229.823487 
L 224.271355 229.899959 
L 224.271355 229.971725 
L 225.154849 230.050528 
L 225.154849 230.124404 
L 226.038343 230.199755 
L 226.038343 230.268313 
L 226.921837 230.341046 
L 226.921837 230.426871 
L 227.805331 230.501278 
L 227.805331 230.583419 
L 228.688824 230.662826 
L 228.688824 230.745236 
L 229.572318 230.815223 
L 229.572318 230.886868 
L 230.455812 230.961758 
L 230.455812 231.046454 
L 231.339306 231.123735 
L 231.339306 231.199809 
L 232.2228 231.270296 
L 232.2228 231.339077 
L 233.106294 231.400288 
L 233.106294 231.481902 
L 233.989788 231.559591 
L 233.989788 231.629765 
L 234.873281 231.709494 
L 234.873281 231.78582 
L 235.756775 231.865644 
L 235.756775 231.951889 
L 236.640269 232.031207 
L 236.640269 232.106394 
L 237.523763 232.176642 
L 237.523763 232.25385 
L 238.407257 232.328895 
L 238.407257 232.402484 
L 239.290751 232.480841 
L 239.290751 232.558476 
L 240.174245 232.626161 
L 240.174245 232.693584 
L 241.057738 232.751206 
L 241.057738 232.815515 
L 241.941232 232.879595 
L 241.941232 232.953455 
L 242.824726 233.026816 
L 242.824726 233.099798 
L 243.70822 233.171 
L 243.70822 233.237189 
L 244.591714 233.305175 
L 244.591714 233.374291 
L 245.475208 233.441044 
L 245.475208 233.506435 
L 246.358702 233.567578 
L 246.358702 233.634841 
L 247.242196 233.696694 
L 247.242196 233.762018 
L 248.125689 233.825764 
L 248.125689 233.882056 
L 249.009183 233.944829 
L 249.009183 234.000896 
L 249.892677 234.059018 
L 249.892677 234.124933 
L 250.776171 234.187048 
L 250.776171 234.245856 
L 251.659665 234.310662 
L 251.659665 234.366119 
L 252.543159 234.422097 
L 252.543159 234.480772 
L 253.8684 234.588254 
L 253.8684 234.645258 
L 254.751893 234.703146 
L 254.751893 234.75772 
L 256.077134 234.865499 
L 256.077134 234.91627 
L 257.402375 235.017393 
L 257.402375 235.070292 
L 258.727616 235.171058 
L 258.727616 235.225377 
L 260.052857 235.328278 
L 260.052857 235.391859 
L 261.378097 235.489187 
L 261.378097 235.539569 
L 262.703338 235.629744 
L 262.703338 235.675547 
L 264.028579 235.759803 
L 264.028579 235.802003 
L 265.35382 235.892236 
L 265.35382 235.943318 
L 266.679061 236.022053 
L 266.679061 236.06619 
L 268.004301 236.157399 
L 268.004301 236.199743 
L 269.329542 236.284614 
L 269.329542 236.327796 
L 270.654783 236.43082 
L 270.654783 236.487366 
L 271.980024 236.568254 
L 271.980024 236.607489 
L 273.305265 236.681572 
L 273.305265 236.724388 
L 275.072252 236.824747 
L 275.072252 236.857581 
L 276.397493 236.932949 
L 276.397493 236.971657 
L 278.164481 237.075711 
L 278.164481 237.105371 
L 279.931469 237.206932 
L 279.931469 237.239162 
L 281.698456 237.331223 
L 281.698456 237.356694 
L 283.907191 237.463124 
L 283.907191 237.49157 
L 285.674179 237.577175 
L 285.674179 237.609545 
L 287.882913 237.718493 
L 287.882913 237.741552 
L 290.091648 237.845281 
L 290.091648 237.872013 
L 291.858636 237.959003 
L 291.858636 237.989078 
L 294.06737 238.088713 
L 294.06737 238.114802 
L 296.276105 238.212294 
L 296.276105 238.234815 
L 298.926587 238.337924 
L 298.926587 238.358225 
L 301.135321 238.459116 
L 301.135321 238.490097 
L 303.785803 238.595691 
L 303.785803 238.612685 
L 306.878031 238.714331 
L 306.878031 238.734971 
L 309.528513 238.836348 
L 309.528513 238.856637 
L 312.620742 238.951295 
L 312.620742 238.970386 
L 315.271223 239.069785 
L 315.271223 239.093241 
L 317.921705 239.191962 
L 317.921705 239.2088 
L 321.013933 239.307076 
L 321.013933 239.328289 
L 324.106162 239.430113 
L 324.106162 239.444979 
L 327.640137 239.55254 
L 327.640137 239.565925 
L 331.174113 239.675363 
L 331.174113 239.688764 
L 334.708088 239.786869 
L 334.708088 239.803646 
L 338.242064 239.902743 
L 338.242064 239.916355 
L 342.217786 240.021005 
L 342.217786 240.035743 
L 346.193508 240.136176 
L 346.193508 240.147252 
L 350.169231 240.253241 
L 350.169231 240.263297 
L 354.144953 240.369005 
L 354.144953 240.382743 
L 359.004169 240.485643 
L 359.004169 240.497656 
L 363.863386 240.599852 
L 363.863386 240.609376 
L 369.606096 240.719938 
L 369.606096 240.725049 
L 373.581818 240.785837 
L 373.581818 240.792176 
" style="fill:none;stroke:#ff7f0e;stroke-linecap:square;stroke-width:1.5;"/>
   </g>
   <g id="line2d_16">
    <path clip-path="url(#p4af845a95d)" d="M 69.218182 190.97993 
L 69.659929 190.97993 
L 69.659929 191.512655 
L 70.101676 191.512655 
L 70.101676 192.087618 
L 70.543423 192.087618 
L 70.543423 192.762077 
L 70.98517 192.762077 
L 70.98517 193.378234 
L 71.426916 193.378234 
L 71.426916 194.009404 
L 71.868663 194.009404 
L 71.868663 194.53545 
L 72.31041 194.53545 
L 72.31041 195.103939 
L 72.752157 195.103939 
L 72.752157 195.530658 
L 73.193904 195.530658 
L 73.193904 195.935332 
L 73.635651 195.935332 
L 73.635651 196.530946 
L 74.077398 196.530946 
L 74.077398 198.400497 
L 74.519145 198.400497 
L 74.519145 201.619613 
L 74.960892 201.619613 
L 74.960892 202.516491 
L 75.402639 202.516491 
L 75.402639 202.736752 
L 75.844386 202.736752 
L 75.844386 202.956644 
L 76.286133 202.956644 
L 76.286133 203.106713 
L 76.72788 203.106713 
L 76.72788 203.232207 
L 77.611374 203.294721 
L 77.611374 203.422875 
L 79.820108 203.401872 
L 79.820108 203.215705 
L 80.261855 203.215705 
L 80.261855 202.155916 
L 80.703602 202.155916 
L 80.703602 201.922172 
L 81.145349 201.922172 
L 81.145349 201.676684 
L 81.587096 201.676684 
L 81.587096 201.478569 
L 82.028843 201.478569 
L 82.028843 201.104361 
L 82.47059 201.104361 
L 82.47059 200.798672 
L 82.912337 200.798672 
L 82.912337 200.354739 
L 83.354084 200.354739 
L 83.354084 199.727851 
L 83.795831 199.727851 
L 83.795831 198.910815 
L 84.237578 198.910815 
L 84.237578 198.45487 
L 84.679324 198.45487 
L 84.679324 199.22369 
L 85.121071 199.22369 
L 85.121071 198.09704 
L 85.562818 198.09704 
L 85.562818 195.882343 
L 86.004565 195.882343 
L 86.004565 194.364332 
L 86.446312 194.364332 
L 86.446312 191.420152 
L 86.888059 191.420152 
L 86.888059 188.079684 
L 87.329806 188.079684 
L 87.329806 185.763892 
L 87.771553 185.763892 
L 87.771553 182.740644 
L 88.2133 182.740644 
L 88.2133 178.698432 
L 88.655047 178.698432 
L 88.655047 174.512692 
L 89.096794 174.512692 
L 89.096794 170.004117 
L 89.538541 170.004117 
L 89.538541 164.55829 
L 89.980288 164.55829 
L 89.980288 158.830851 
L 90.422035 158.830851 
L 90.422035 155.508848 
L 90.863782 155.508848 
L 90.863782 149.932176 
L 91.305528 149.932176 
L 91.305528 143.336856 
L 91.747275 143.336856 
L 91.747275 136.618879 
L 92.189022 136.618879 
L 92.189022 129.435139 
L 92.630769 129.435139 
L 92.630769 122.427311 
L 93.072516 122.427311 
L 93.072516 115.033273 
L 93.514263 115.033273 
L 93.514263 107.234937 
L 93.95601 107.234937 
L 93.95601 99.139941 
L 94.397757 99.139941 
L 94.397757 91.014632 
L 94.839504 91.014632 
L 94.839504 87.555385 
L 95.281251 87.555385 
L 95.281251 85.148083 
L 95.722998 85.148083 
L 95.722998 80.114356 
L 96.164745 80.114356 
L 96.164745 73.338094 
L 96.606492 73.338094 
L 96.606492 67.261136 
L 97.048239 67.261136 
L 97.048239 63.805107 
L 97.489985 63.805107 
L 97.489985 58.291082 
L 97.931732 58.291082 
L 97.931732 52.968547 
L 98.373479 52.968547 
L 98.373479 49.958741 
L 98.815226 49.958741 
L 98.815226 47.453168 
L 99.256973 47.453168 
L 99.256973 44.97806 
L 99.69872 44.97806 
L 99.69872 44.443636 
L 100.140467 44.443636 
L 100.140467 45.908353 
L 100.582214 45.908353 
L 100.582214 46.981521 
L 101.023961 46.981521 
L 101.023961 48.299405 
L 101.465708 48.299405 
L 101.465708 50.107859 
L 101.907455 50.107859 
L 101.907455 52.272858 
L 102.349202 52.272858 
L 102.349202 54.381946 
L 102.790949 54.381946 
L 102.790949 56.939357 
L 103.232696 56.939357 
L 103.232696 59.164466 
L 103.674443 59.164466 
L 103.674443 62.302842 
L 104.116189 62.302842 
L 104.116189 66.242548 
L 104.557936 66.242548 
L 104.557936 70.184573 
L 104.999683 70.184573 
L 104.999683 69.606266 
L 105.44143 69.606266 
L 105.44143 62.59448 
L 105.883177 62.59448 
L 105.883177 64.197083 
L 106.324924 64.197083 
L 106.324924 68.61782 
L 106.766671 68.61782 
L 106.766671 73.364501 
L 107.208418 73.364501 
L 107.208418 77.171376 
L 107.650165 77.171376 
L 107.650165 81.39408 
L 108.091912 81.39408 
L 108.091912 85.90875 
L 108.533659 85.90875 
L 108.533659 89.933803 
L 108.975406 89.933803 
L 108.975406 93.390852 
L 109.417153 93.390852 
L 109.417153 97.050394 
L 109.8589 97.050394 
L 109.8589 100.392552 
L 110.300647 100.392552 
L 110.300647 102.444469 
L 110.742393 102.444469 
L 110.742393 104.576493 
L 111.18414 104.576493 
L 111.18414 106.473751 
L 111.625887 106.473751 
L 111.625887 108.583914 
L 112.067634 108.583914 
L 112.067634 110.772836 
L 112.509381 110.772836 
L 112.509381 113.116926 
L 112.951128 113.116926 
L 112.951128 115.385203 
L 113.392875 115.385203 
L 113.392875 117.999131 
L 113.834622 117.999131 
L 113.834622 120.431675 
L 114.276369 120.431675 
L 114.276369 122.843899 
L 114.718116 122.843899 
L 114.718116 125.334932 
L 115.159863 125.334932 
L 115.159863 128.142906 
L 115.60161 128.142906 
L 115.60161 132.879311 
L 116.043357 132.879311 
L 116.043357 136.662189 
L 116.485104 136.662189 
L 116.485104 138.997839 
L 116.926851 138.997839 
L 116.926851 141.336259 
L 117.368597 141.336259 
L 117.368597 143.485538 
L 117.810344 143.485538 
L 117.810344 145.663945 
L 118.252091 145.663945 
L 118.252091 148.053251 
L 118.693838 148.053251 
L 118.693838 150.328726 
L 119.135585 150.328726 
L 119.135585 152.357386 
L 119.577332 152.357386 
L 119.577332 154.49143 
L 120.019079 154.49143 
L 120.019079 156.500023 
L 120.460826 156.500023 
L 120.460826 158.206486 
L 120.902573 158.206486 
L 120.902573 159.731161 
L 121.34432 159.731161 
L 121.34432 160.623053 
L 121.786067 160.623053 
L 121.786067 162.19804 
L 122.227814 162.19804 
L 122.227814 163.814963 
L 122.669561 163.814963 
L 122.669561 165.772491 
L 123.111308 165.772491 
L 123.111308 167.495116 
L 123.553054 167.495116 
L 123.553054 169.328986 
L 123.994801 169.328986 
L 123.994801 171.122326 
L 124.436548 171.122326 
L 124.436548 172.881681 
L 124.878295 172.881681 
L 124.878295 174.492505 
L 125.320042 174.492505 
L 125.320042 176.270346 
L 125.761789 176.270346 
L 125.761789 178.580555 
L 126.203536 178.580555 
L 126.203536 180.520584 
L 126.645283 180.520584 
L 126.645283 181.453994 
L 127.08703 181.453994 
L 127.08703 182.357187 
L 127.528777 182.357187 
L 127.528777 183.181928 
L 127.970524 183.181928 
L 127.970524 183.765595 
L 128.412271 183.765595 
L 128.412271 184.400875 
L 128.854018 184.400875 
L 128.854018 185.041248 
L 129.295765 185.041248 
L 129.295765 185.63561 
L 129.737512 185.63561 
L 129.737512 186.124573 
L 130.179258 186.124573 
L 130.179258 186.677518 
L 130.621005 186.677518 
L 130.621005 187.045387 
L 131.062752 187.045387 
L 131.062752 187.384741 
L 131.504499 187.384741 
L 131.504499 187.648257 
L 131.946246 187.648257 
L 131.946246 187.927369 
L 132.387993 187.927369 
L 132.387993 188.286798 
L 132.82974 188.286798 
L 132.82974 188.606644 
L 133.271487 188.606644 
L 133.271487 188.955833 
L 133.713234 188.955833 
L 133.713234 189.272674 
L 134.154981 189.272674 
L 134.154981 189.562156 
L 134.596728 189.562156 
L 134.596728 189.7721 
L 135.038475 189.7721 
L 135.038475 189.94305 
L 135.480222 189.94305 
L 135.480222 190.184479 
L 135.921969 190.184479 
L 135.921969 190.749694 
L 136.363716 190.749694 
L 136.363716 191.702136 
L 136.805462 191.702136 
L 136.805462 192.010732 
L 137.688956 192.095431 
L 137.688956 192.239269 
L 138.57245 192.310963 
L 138.57245 192.403851 
L 139.455944 192.504894 
L 139.455944 192.518643 
L 139.897691 192.518643 
L 139.897691 192.683332 
L 140.339438 192.683332 
L 140.339438 192.817651 
L 140.781185 192.817651 
L 140.781185 192.969491 
L 141.222932 192.969491 
L 141.222932 193.185162 
L 141.664679 193.185162 
L 141.664679 193.429126 
L 142.106426 193.429126 
L 142.106426 193.649403 
L 142.548173 193.649403 
L 142.548173 193.790921 
L 142.98992 193.790921 
L 142.98992 193.967215 
L 143.431666 193.967215 
L 143.431666 194.171766 
L 143.873413 194.171766 
L 143.873413 194.415091 
L 144.31516 194.415091 
L 144.31516 194.63239 
L 144.756907 194.63239 
L 144.756907 194.916227 
L 145.198654 194.916227 
L 145.198654 195.202249 
L 145.640401 195.202249 
L 145.640401 195.490346 
L 146.082148 195.490346 
L 146.082148 195.746898 
L 146.523895 195.746898 
L 146.523895 195.862115 
L 146.965642 195.862115 
L 146.965642 196.05253 
L 147.407389 196.05253 
L 147.407389 196.249419 
L 147.849136 196.249419 
L 147.849136 196.432367 
L 148.290883 196.432367 
L 148.290883 196.791482 
L 148.73263 196.791482 
L 148.73263 197.190292 
L 149.174377 197.190292 
L 149.174377 197.451561 
L 149.616123 197.451561 
L 149.616123 197.810628 
L 150.05787 197.810628 
L 150.05787 198.164461 
L 150.499617 198.164461 
L 150.499617 198.458158 
L 150.941364 198.458158 
L 150.941364 198.883112 
L 151.383111 198.883112 
L 151.383111 199.229361 
L 151.824858 199.229361 
L 151.824858 199.511762 
L 152.266605 199.511762 
L 152.266605 199.72491 
L 152.708352 199.72491 
L 152.708352 200.082568 
L 153.150099 200.082568 
L 153.150099 200.539249 
L 153.591846 200.539249 
L 153.591846 201.016939 
L 154.033593 201.016939 
L 154.033593 201.476138 
L 154.47534 201.476138 
L 154.47534 201.93476 
L 154.917087 201.93476 
L 154.917087 202.36545 
L 155.358834 202.36545 
L 155.358834 202.908823 
L 155.800581 202.908823 
L 155.800581 203.42123 
L 156.242327 203.42123 
L 156.242327 203.991128 
L 156.684074 203.991128 
L 156.684074 204.405354 
L 157.125821 204.405354 
L 157.125821 204.776854 
L 157.567568 204.776854 
L 157.567568 205.432903 
L 158.009315 205.432903 
L 158.009315 206.080418 
L 158.451062 206.080418 
L 158.451062 206.625264 
L 158.892809 206.625264 
L 158.892809 207.113495 
L 159.334556 207.113495 
L 159.334556 207.6417 
L 159.776303 207.6417 
L 159.776303 208.19198 
L 160.21805 208.19198 
L 160.21805 208.714171 
L 160.659797 208.714171 
L 160.659797 209.299045 
L 161.101544 209.299045 
L 161.101544 209.830846 
L 161.543291 209.830846 
L 161.543291 210.333169 
L 161.985038 210.333169 
L 161.985038 210.81602 
L 162.426785 210.81602 
L 162.426785 211.257551 
L 162.868531 211.257551 
L 162.868531 211.75768 
L 163.310278 211.75768 
L 163.310278 212.237304 
L 163.752025 212.237304 
L 163.752025 212.728047 
L 164.193772 212.728047 
L 164.193772 213.232233 
L 164.635519 213.232233 
L 164.635519 213.732512 
L 165.077266 213.732512 
L 165.077266 214.277921 
L 165.519013 214.277921 
L 165.519013 214.783331 
L 165.96076 214.783331 
L 165.96076 215.28586 
L 166.402507 215.28586 
L 166.402507 215.789555 
L 166.844254 215.789555 
L 166.844254 216.325604 
L 167.286001 216.325604 
L 167.286001 216.905698 
L 167.727748 216.905698 
L 167.727748 217.39198 
L 168.169495 217.39198 
L 168.169495 217.887133 
L 168.611242 217.887133 
L 168.611242 218.383222 
L 169.052989 218.383222 
L 169.052989 218.897333 
L 169.494735 218.897333 
L 169.494735 219.468328 
L 169.936482 219.468328 
L 169.936482 219.99411 
L 170.378229 219.99411 
L 170.378229 220.43942 
L 170.819976 220.43942 
L 170.819976 220.907326 
L 171.261723 220.907326 
L 171.261723 221.394878 
L 171.70347 221.394878 
L 171.70347 221.850517 
L 172.145217 221.850517 
L 172.145217 222.22684 
L 172.586964 222.22684 
L 172.586964 222.557037 
L 173.028711 222.557037 
L 173.028711 222.864356 
L 173.470458 222.864356 
L 173.470458 223.234958 
L 173.912205 223.234958 
L 173.912205 223.66843 
L 174.353952 223.66843 
L 174.353952 224.111023 
L 174.795699 224.111023 
L 174.795699 224.562826 
L 175.237446 224.562826 
L 175.237446 224.987174 
L 175.679193 224.987174 
L 175.679193 225.406498 
L 176.120939 225.406498 
L 176.120939 225.801938 
L 176.562686 225.801938 
L 176.562686 226.219512 
L 177.004433 226.219512 
L 177.004433 226.66414 
L 177.44618 226.66414 
L 177.44618 227.200673 
L 177.887927 227.200673 
L 177.887927 227.619767 
L 178.329674 227.619767 
L 178.329674 227.945866 
L 178.771421 227.945866 
L 178.771421 228.294322 
L 179.213168 228.294322 
L 179.213168 228.588049 
L 179.654915 228.588049 
L 179.654915 228.838565 
L 180.096662 228.838565 
L 180.096662 229.09515 
L 180.538409 229.09515 
L 180.538409 229.392912 
L 180.980156 229.392912 
L 180.980156 229.631924 
L 181.421903 229.631924 
L 181.421903 229.877004 
L 181.86365 229.877004 
L 181.86365 230.120853 
L 182.305396 230.120853 
L 182.305396 230.302877 
L 182.747143 230.302877 
L 182.747143 230.500269 
L 183.18889 230.500269 
L 183.18889 230.627822 
L 183.630637 230.627822 
L 183.630637 230.778254 
L 184.072384 230.778254 
L 184.072384 230.9303 
L 184.514131 230.9303 
L 184.514131 231.084343 
L 184.955878 231.084343 
L 184.955878 231.228141 
L 185.397625 231.228141 
L 185.397625 231.394618 
L 185.839372 231.394618 
L 185.839372 231.571007 
L 186.281119 231.571007 
L 186.281119 231.715643 
L 186.722866 231.715643 
L 186.722866 231.888431 
L 187.164613 231.888431 
L 187.164613 232.050104 
L 187.60636 232.050104 
L 187.60636 232.357374 
L 188.048107 232.357374 
L 188.048107 232.646076 
L 188.489854 232.646076 
L 188.489854 232.760356 
L 188.9316 232.760356 
L 188.9316 232.885184 
L 189.815094 232.994411 
L 189.815094 233.090943 
L 190.698588 233.197214 
L 190.698588 233.307192 
L 191.140335 233.307192 
L 191.140335 233.432324 
L 192.023829 233.542415 
L 192.023829 233.634152 
L 192.907323 233.738791 
L 192.907323 233.824739 
L 193.790817 233.906113 
L 193.790817 234.012837 
L 194.232564 234.012837 
L 194.232564 234.142895 
L 194.674311 234.142895 
L 194.674311 234.287345 
L 195.116058 234.287345 
L 195.116058 234.433075 
L 195.557804 234.433075 
L 195.557804 234.565218 
L 195.999551 234.565218 
L 195.999551 234.683026 
L 196.441298 234.683026 
L 196.441298 234.800962 
L 197.324792 234.904726 
L 197.324792 235.006367 
L 198.208286 235.112748 
L 198.208286 235.26005 
L 198.650033 235.26005 
L 198.650033 235.378022 
L 199.533527 235.48614 
L 199.533527 235.589357 
L 200.417021 235.695997 
L 200.417021 235.78835 
L 201.300515 235.861411 
L 201.300515 235.951203 
L 202.184008 236.042523 
L 202.184008 236.132734 
L 203.067502 236.232647 
L 203.067502 236.348782 
L 203.950996 236.431087 
L 203.950996 236.504272 
L 204.83449 236.572637 
L 204.83449 236.667497 
L 205.717984 236.748953 
L 205.717984 236.818738 
L 206.601478 236.900453 
L 206.601478 237.005687 
L 207.484972 237.105815 
L 207.484972 237.203088 
L 207.926719 237.203088 
L 207.926719 237.339222 
L 208.810212 237.43718 
L 208.810212 237.594624 
L 209.251959 237.594624 
L 209.251959 237.799047 
L 209.693706 237.799047 
L 209.693706 238.011188 
L 210.135453 238.011188 
L 210.135453 238.211252 
L 210.5772 238.211252 
L 210.5772 238.414832 
L 211.018947 238.414832 
L 211.018947 238.637432 
L 211.460694 238.637432 
L 211.460694 238.843149 
L 211.902441 238.843149 
L 211.902441 239.038363 
L 212.344188 239.038363 
L 212.344188 239.244181 
L 212.785935 239.244181 
L 212.785935 239.448152 
L 213.227682 239.448152 
L 213.227682 239.617183 
L 213.669429 239.617183 
L 213.669429 239.770289 
L 214.111176 239.770289 
L 214.111176 239.8824 
L 214.552923 239.8824 
L 214.552923 240.046893 
L 214.994669 240.046893 
L 214.994669 240.21926 
L 215.436416 240.21926 
L 215.436416 240.385326 
L 215.878163 240.385326 
L 215.878163 240.556144 
L 216.31991 240.556144 
L 216.31991 240.73564 
L 216.761657 240.73564 
L 216.761657 240.891752 
L 217.203404 240.891752 
L 217.203404 241.050026 
L 217.645151 241.050026 
L 217.645151 241.197603 
L 218.086898 241.197603 
L 218.086898 241.328851 
L 218.528645 241.328851 
L 218.528645 241.511789 
L 218.970392 241.511789 
L 218.970392 241.670379 
L 224.271355 241.779115 
L 224.271355 241.781828 
L 242.382979 241.892682 
L 242.382979 241.895823 
L 271.538277 242.005877 
L 271.538277 242.008997 
L 373.581818 242.116364 
L 373.581818 242.11607 
" style="fill:none;stroke:#2ca02c;stroke-linecap:square;stroke-width:1.5;"/>
   </g>
   <g id="patch_3">
    <path d="M 54 252 
L 54 34.56 
" style="fill:none;stroke:#000000;stroke-linecap:square;stroke-linejoin:miter;stroke-width:0.8;"/>
   </g>
   <g id="patch_4">
    <path d="M 388.8 252 
L 388.8 34.56 
" style="fill:none;stroke:#000000;stroke-linecap:square;stroke-linejoin:miter;stroke-width:0.8;"/>
   </g>
   <g id="patch_5">
    <path d="M 54 252 
L 388.8 252 
" style="fill:none;stroke:#000000;stroke-linecap:square;stroke-linejoin:miter;stroke-width:0.8;"/>
   </g>
   <g id="patch_6">
    <path d="M 54 34.56 
L 388.8 34.56 
" style="fill:none;stroke:#000000;stroke-linecap:square;stroke-linejoin:miter;stroke-width:0.8;"/>
   </g>
   <g id="legend_1">
    <g id="patch_7">
     <path d="M 332.254688 86.594375 
L 381.8 86.594375 
Q 383.8 86.594375 383.8 84.594375 
L 383.8 41.56 
Q 383.8 39.56 381.8 39.56 
L 332.254688 39.56 
Q 330.254688 39.56 330.254688 41.56 
L 330.254688 84.594375 
Q 330.254688 86.594375 332.254688 86.594375 
z
" style="fill:#ffffff;opacity:0.8;stroke:#cccccc;stroke-linejoin:miter;"/>
    </g>
    <g id="line2d_17">
     <path d="M 334.254688 47.658438 
L 354.254688 47.658438 
" style="fill:none;stroke:#1f77b4;stroke-linecap:square;stroke-width:1.5;"/>
    </g>
    <g id="line2d_18"/>
    <g id="text_15">
     <!-- vac -->
     <defs>
      <path d="M 2.984375 54.6875 
L 12.5 54.6875 
L 29.59375 8.796875 
L 46.6875 54.6875 
L 56.203125 54.6875 
L 35.6875 0 
L 23.484375 0 
z
" id="DejaVuSans-76"/>
      <path d="M 34.28125 27.484375 
Q 23.390625 27.484375 19.1875 25 
Q 14.984375 22.515625 14.984375 16.5 
Q 14.984375 11.71875 18.140625 8.90625 
Q 21.296875 6.109375 26.703125 6.109375 
Q 34.1875 6.109375 38.703125 11.40625 
Q 43.21875 16.703125 43.21875 25.484375 
L 43.21875 27.484375 
z
M 52.203125 31.203125 
L 52.203125 0 
L 43.21875 0 
L 43.21875 8.296875 
Q 40.140625 3.328125 35.546875 0.953125 
Q 30.953125 -1.421875 24.3125 -1.421875 
Q 15.921875 -1.421875 10.953125 3.296875 
Q 6 8.015625 6 15.921875 
Q 6 25.140625 12.171875 29.828125 
Q 18.359375 34.515625 30.609375 34.515625 
L 43.21875 34.515625 
L 43.21875 35.40625 
Q 43.21875 41.609375 39.140625 45 
Q 35.0625 48.390625 27.6875 48.390625 
Q 23 48.390625 18.546875 47.265625 
Q 14.109375 46.140625 10.015625 43.890625 
L 10.015625 52.203125 
Q 14.9375 54.109375 19.578125 55.046875 
Q 24.21875 56 28.609375 56 
Q 40.484375 56 46.34375 49.84375 
Q 52.203125 43.703125 52.203125 31.203125 
z
" id="DejaVuSans-61"/>
      <path d="M 48.78125 52.59375 
L 48.78125 44.1875 
Q 44.96875 46.296875 41.140625 47.34375 
Q 37.3125 48.390625 33.40625 48.390625 
Q 24.65625 48.390625 19.8125 42.84375 
Q 14.984375 37.3125 14.984375 27.296875 
Q 14.984375 17.28125 19.8125 11.734375 
Q 24.65625 6.203125 33.40625 6.203125 
Q 37.3125 6.203125 41.140625 7.25 
Q 44.96875 8.296875 48.78125 10.40625 
L 48.78125 2.09375 
Q 45.015625 0.34375 40.984375 -0.53125 
Q 36.96875 -1.421875 32.421875 -1.421875 
Q 20.0625 -1.421875 12.78125 6.34375 
Q 5.515625 14.109375 5.515625 27.296875 
Q 5.515625 40.671875 12.859375 48.328125 
Q 20.21875 56 33.015625 56 
Q 37.15625 56 41.109375 55.140625 
Q 45.0625 54.296875 48.78125 52.59375 
z
" id="DejaVuSans-63"/>
     </defs>
     <g transform="translate(362.254688 51.158438)scale(0.1 -0.1)">
      <use xlink:href="#DejaVuSans-76"/>
      <use x="59.179688" xlink:href="#DejaVuSans-61"/>
      <use x="120.458984" xlink:href="#DejaVuSans-63"/>
     </g>
    </g>
    <g id="line2d_19">
     <path d="M 334.254688 62.336563 
L 354.254688 62.336563 
" style="fill:none;stroke:#ff7f0e;stroke-linecap:square;stroke-width:1.5;"/>
    </g>
    <g id="line2d_20"/>
    <g id="text_16">
     <!-- al -->
     <defs>
      <path d="M 9.421875 75.984375 
L 18.40625 75.984375 
L 18.40625 0 
L 9.421875 0 
z
" id="DejaVuSans-6c"/>
     </defs>
     <g transform="translate(362.254688 65.836563)scale(0.1 -0.1)">
      <use xlink:href="#DejaVuSans-61"/>
      <use x="61.279297" xlink:href="#DejaVuSans-6c"/>
     </g>
    </g>
    <g id="line2d_21">
     <path d="M 334.254688 77.014688 
L 354.254688 77.014688 
" style="fill:none;stroke:#2ca02c;stroke-linecap:square;stroke-width:1.5;"/>
    </g>
    <g id="line2d_22"/>
    <g id="text_17">
     <!-- sn -->
     <defs>
      <path d="M 44.28125 53.078125 
L 44.28125 44.578125 
Q 40.484375 46.53125 36.375 47.5 
Q 32.28125 48.484375 27.875 48.484375 
Q 21.1875 48.484375 17.84375 46.4375 
Q 14.5 44.390625 14.5 40.28125 
Q 14.5 37.15625 16.890625 35.375 
Q 19.28125 33.59375 26.515625 31.984375 
L 29.59375 31.296875 
Q 39.15625 29.25 43.1875 25.515625 
Q 47.21875 21.78125 47.21875 15.09375 
Q 47.21875 7.46875 41.1875 3.015625 
Q 35.15625 -1.421875 24.609375 -1.421875 
Q 20.21875 -1.421875 15.453125 -0.5625 
Q 10.6875 0.296875 5.421875 2 
L 5.421875 11.28125 
Q 10.40625 8.6875 15.234375 7.390625 
Q 20.0625 6.109375 24.8125 6.109375 
Q 31.15625 6.109375 34.5625 8.28125 
Q 37.984375 10.453125 37.984375 14.40625 
Q 37.984375 18.0625 35.515625 20.015625 
Q 33.0625 21.96875 24.703125 23.78125 
L 21.578125 24.515625 
Q 13.234375 26.265625 9.515625 29.90625 
Q 5.8125 33.546875 5.8125 39.890625 
Q 5.8125 47.609375 11.28125 51.796875 
Q 16.75 56 26.8125 56 
Q 31.78125 56 36.171875 55.265625 
Q 40.578125 54.546875 44.28125 53.078125 
z
" id="DejaVuSans-73"/>
     </defs>
     <g transform="translate(362.254688 80.514688)scale(0.1 -0.1)">
      <use xlink:href="#DejaVuSans-73"/>
      <use x="52.099609" xlink:href="#DejaVuSans-6e"/>
     </g>
    </g>
   </g>
  </g>
 </g>
 <defs>
  <clipPath id="p4af845a95d">
   <rect height="217.44" width="334.8" x="54" y="34.56"/>
  </clipPath>
 </defs>
</svg>
