<?xml version="1.0" encoding="utf-8" standalone="no"?>
<!DOCTYPE svg PUBLIC "-//W3C//DTD SVG 1.1//EN"
  "http://www.w3.org/Graphics/SVG/1.1/DTD/svg11.dtd">
<!-- Created with matplotlib (http://matplotlib.org/) -->
<svg height="288pt" version="1.1" viewBox="0 0 432 288" width="432pt" xmlns="http://www.w3.org/2000/svg" xmlns:xlink="http://www.w3.org/1999/xlink">
 <defs>
  <style type="text/css">
*{stroke-linecap:butt;stroke-linejoin:round;}
  </style>
 </defs>
 <g id="figure_1">
  <g id="patch_1">
   <path d="M 0 288 
L 432 288 
L 432 0 
L 0 0 
z
" style="fill:#ffffff;"/>
  </g>
  <g id="axes_1">
   <g id="patch_2">
    <path d="M 54 252 
L 388.8 252 
L 388.8 34.56 
L 54 34.56 
z
" style="fill:#ffffff;"/>
   </g>
   <g id="matplotlib.axis_1">
    <g id="xtick_1">
     <g id="line2d_1">
      <defs>
       <path d="M 0 0 
L 0 3.5 
" id="mc4468c21a5" style="stroke:#000000;stroke-width:0.8;"/>
      </defs>
      <g>
       <use style="stroke:#000000;stroke-width:0.8;" x="84.436364" xlink:href="#mc4468c21a5" y="252"/>
      </g>
     </g>
     <g id="text_1">
      <!-- 20 -->
      <defs>
       <path d="M 19.1875 8.296875 
L 53.609375 8.296875 
L 53.609375 0 
L 7.328125 0 
L 7.328125 8.296875 
Q 12.9375 14.109375 22.625 23.890625 
Q 32.328125 33.6875 34.8125 36.53125 
Q 39.546875 41.84375 41.421875 45.53125 
Q 43.3125 49.21875 43.3125 52.78125 
Q 43.3125 58.59375 39.234375 62.25 
Q 35.15625 65.921875 28.609375 65.921875 
Q 23.96875 65.921875 18.8125 64.3125 
Q 13.671875 62.703125 7.8125 59.421875 
L 7.8125 69.390625 
Q 13.765625 71.78125 18.9375 73 
Q 24.125 74.21875 28.421875 74.21875 
Q 39.75 74.21875 46.484375 68.546875 
Q 53.21875 62.890625 53.21875 53.421875 
Q 53.21875 48.921875 51.53125 44.890625 
Q 49.859375 40.875 45.40625 35.40625 
Q 44.1875 33.984375 37.640625 27.21875 
Q 31.109375 20.453125 19.1875 8.296875 
z
" id="DejaVuSans-32"/>
       <path d="M 31.78125 66.40625 
Q 24.171875 66.40625 20.328125 58.90625 
Q 16.5 51.421875 16.5 36.375 
Q 16.5 21.390625 20.328125 13.890625 
Q 24.171875 6.390625 31.78125 6.390625 
Q 39.453125 6.390625 43.28125 13.890625 
Q 47.125 21.390625 47.125 36.375 
Q 47.125 51.421875 43.28125 58.90625 
Q 39.453125 66.40625 31.78125 66.40625 
z
M 31.78125 74.21875 
Q 44.046875 74.21875 50.515625 64.515625 
Q 56.984375 54.828125 56.984375 36.375 
Q 56.984375 17.96875 50.515625 8.265625 
Q 44.046875 -1.421875 31.78125 -1.421875 
Q 19.53125 -1.421875 13.0625 8.265625 
Q 6.59375 17.96875 6.59375 36.375 
Q 6.59375 54.828125 13.0625 64.515625 
Q 19.53125 74.21875 31.78125 74.21875 
z
" id="DejaVuSans-30"/>
      </defs>
      <g transform="translate(78.073864 266.598437)scale(0.1 -0.1)">
       <use xlink:href="#DejaVuSans-32"/>
       <use x="63.623047" xlink:href="#DejaVuSans-30"/>
      </g>
     </g>
    </g>
    <g id="xtick_2">
     <g id="line2d_2">
      <g>
       <use style="stroke:#000000;stroke-width:0.8;" x="122.481818" xlink:href="#mc4468c21a5" y="252"/>
      </g>
     </g>
     <g id="text_2">
      <!-- 30 -->
      <defs>
       <path d="M 40.578125 39.3125 
Q 47.65625 37.796875 51.625 33 
Q 55.609375 28.21875 55.609375 21.1875 
Q 55.609375 10.40625 48.1875 4.484375 
Q 40.765625 -1.421875 27.09375 -1.421875 
Q 22.515625 -1.421875 17.65625 -0.515625 
Q 12.796875 0.390625 7.625 2.203125 
L 7.625 11.71875 
Q 11.71875 9.328125 16.59375 8.109375 
Q 21.484375 6.890625 26.8125 6.890625 
Q 36.078125 6.890625 40.9375 10.546875 
Q 45.796875 14.203125 45.796875 21.1875 
Q 45.796875 27.640625 41.28125 31.265625 
Q 36.765625 34.90625 28.71875 34.90625 
L 20.21875 34.90625 
L 20.21875 43.015625 
L 29.109375 43.015625 
Q 36.375 43.015625 40.234375 45.921875 
Q 44.09375 48.828125 44.09375 54.296875 
Q 44.09375 59.90625 40.109375 62.90625 
Q 36.140625 65.921875 28.71875 65.921875 
Q 24.65625 65.921875 20.015625 65.03125 
Q 15.375 64.15625 9.8125 62.3125 
L 9.8125 71.09375 
Q 15.4375 72.65625 20.34375 73.4375 
Q 25.25 74.21875 29.59375 74.21875 
Q 40.828125 74.21875 47.359375 69.109375 
Q 53.90625 64.015625 53.90625 55.328125 
Q 53.90625 49.265625 50.4375 45.09375 
Q 46.96875 40.921875 40.578125 39.3125 
z
" id="DejaVuSans-33"/>
      </defs>
      <g transform="translate(116.119318 266.598437)scale(0.1 -0.1)">
       <use xlink:href="#DejaVuSans-33"/>
       <use x="63.623047" xlink:href="#DejaVuSans-30"/>
      </g>
     </g>
    </g>
    <g id="xtick_3">
     <g id="line2d_3">
      <g>
       <use style="stroke:#000000;stroke-width:0.8;" x="160.527273" xlink:href="#mc4468c21a5" y="252"/>
      </g>
     </g>
     <g id="text_3">
      <!-- 40 -->
      <defs>
       <path d="M 37.796875 64.3125 
L 12.890625 25.390625 
L 37.796875 25.390625 
z
M 35.203125 72.90625 
L 47.609375 72.90625 
L 47.609375 25.390625 
L 58.015625 25.390625 
L 58.015625 17.1875 
L 47.609375 17.1875 
L 47.609375 0 
L 37.796875 0 
L 37.796875 17.1875 
L 4.890625 17.1875 
L 4.890625 26.703125 
z
" id="DejaVuSans-34"/>
      </defs>
      <g transform="translate(154.164773 266.598437)scale(0.1 -0.1)">
       <use xlink:href="#DejaVuSans-34"/>
       <use x="63.623047" xlink:href="#DejaVuSans-30"/>
      </g>
     </g>
    </g>
    <g id="xtick_4">
     <g id="line2d_4">
      <g>
       <use style="stroke:#000000;stroke-width:0.8;" x="198.572727" xlink:href="#mc4468c21a5" y="252"/>
      </g>
     </g>
     <g id="text_4">
      <!-- 50 -->
      <defs>
       <path d="M 10.796875 72.90625 
L 49.515625 72.90625 
L 49.515625 64.59375 
L 19.828125 64.59375 
L 19.828125 46.734375 
Q 21.96875 47.46875 24.109375 47.828125 
Q 26.265625 48.1875 28.421875 48.1875 
Q 40.625 48.1875 47.75 41.5 
Q 54.890625 34.8125 54.890625 23.390625 
Q 54.890625 11.625 47.5625 5.09375 
Q 40.234375 -1.421875 26.90625 -1.421875 
Q 22.3125 -1.421875 17.546875 -0.640625 
Q 12.796875 0.140625 7.71875 1.703125 
L 7.71875 11.625 
Q 12.109375 9.234375 16.796875 8.0625 
Q 21.484375 6.890625 26.703125 6.890625 
Q 35.15625 6.890625 40.078125 11.328125 
Q 45.015625 15.765625 45.015625 23.390625 
Q 45.015625 31 40.078125 35.4375 
Q 35.15625 39.890625 26.703125 39.890625 
Q 22.75 39.890625 18.8125 39.015625 
Q 14.890625 38.140625 10.796875 36.28125 
z
" id="DejaVuSans-35"/>
      </defs>
      <g transform="translate(192.210227 266.598437)scale(0.1 -0.1)">
       <use xlink:href="#DejaVuSans-35"/>
       <use x="63.623047" xlink:href="#DejaVuSans-30"/>
      </g>
     </g>
    </g>
    <g id="xtick_5">
     <g id="line2d_5">
      <g>
       <use style="stroke:#000000;stroke-width:0.8;" x="236.618182" xlink:href="#mc4468c21a5" y="252"/>
      </g>
     </g>
     <g id="text_5">
      <!-- 60 -->
      <defs>
       <path d="M 33.015625 40.375 
Q 26.375 40.375 22.484375 35.828125 
Q 18.609375 31.296875 18.609375 23.390625 
Q 18.609375 15.53125 22.484375 10.953125 
Q 26.375 6.390625 33.015625 6.390625 
Q 39.65625 6.390625 43.53125 10.953125 
Q 47.40625 15.53125 47.40625 23.390625 
Q 47.40625 31.296875 43.53125 35.828125 
Q 39.65625 40.375 33.015625 40.375 
z
M 52.59375 71.296875 
L 52.59375 62.3125 
Q 48.875 64.0625 45.09375 64.984375 
Q 41.3125 65.921875 37.59375 65.921875 
Q 27.828125 65.921875 22.671875 59.328125 
Q 17.53125 52.734375 16.796875 39.40625 
Q 19.671875 43.65625 24.015625 45.921875 
Q 28.375 48.1875 33.59375 48.1875 
Q 44.578125 48.1875 50.953125 41.515625 
Q 57.328125 34.859375 57.328125 23.390625 
Q 57.328125 12.15625 50.6875 5.359375 
Q 44.046875 -1.421875 33.015625 -1.421875 
Q 20.359375 -1.421875 13.671875 8.265625 
Q 6.984375 17.96875 6.984375 36.375 
Q 6.984375 53.65625 15.1875 63.9375 
Q 23.390625 74.21875 37.203125 74.21875 
Q 40.921875 74.21875 44.703125 73.484375 
Q 48.484375 72.75 52.59375 71.296875 
z
" id="DejaVuSans-36"/>
      </defs>
      <g transform="translate(230.255682 266.598437)scale(0.1 -0.1)">
       <use xlink:href="#DejaVuSans-36"/>
       <use x="63.623047" xlink:href="#DejaVuSans-30"/>
      </g>
     </g>
    </g>
    <g id="xtick_6">
     <g id="line2d_6">
      <g>
       <use style="stroke:#000000;stroke-width:0.8;" x="274.663636" xlink:href="#mc4468c21a5" y="252"/>
      </g>
     </g>
     <g id="text_6">
      <!-- 70 -->
      <defs>
       <path d="M 8.203125 72.90625 
L 55.078125 72.90625 
L 55.078125 68.703125 
L 28.609375 0 
L 18.3125 0 
L 43.21875 64.59375 
L 8.203125 64.59375 
z
" id="DejaVuSans-37"/>
      </defs>
      <g transform="translate(268.301136 266.598437)scale(0.1 -0.1)">
       <use xlink:href="#DejaVuSans-37"/>
       <use x="63.623047" xlink:href="#DejaVuSans-30"/>
      </g>
     </g>
    </g>
    <g id="xtick_7">
     <g id="line2d_7">
      <g>
       <use style="stroke:#000000;stroke-width:0.8;" x="312.709091" xlink:href="#mc4468c21a5" y="252"/>
      </g>
     </g>
     <g id="text_7">
      <!-- 80 -->
      <defs>
       <path d="M 31.78125 34.625 
Q 24.75 34.625 20.71875 30.859375 
Q 16.703125 27.09375 16.703125 20.515625 
Q 16.703125 13.921875 20.71875 10.15625 
Q 24.75 6.390625 31.78125 6.390625 
Q 38.8125 6.390625 42.859375 10.171875 
Q 46.921875 13.96875 46.921875 20.515625 
Q 46.921875 27.09375 42.890625 30.859375 
Q 38.875 34.625 31.78125 34.625 
z
M 21.921875 38.8125 
Q 15.578125 40.375 12.03125 44.71875 
Q 8.5 49.078125 8.5 55.328125 
Q 8.5 64.0625 14.71875 69.140625 
Q 20.953125 74.21875 31.78125 74.21875 
Q 42.671875 74.21875 48.875 69.140625 
Q 55.078125 64.0625 55.078125 55.328125 
Q 55.078125 49.078125 51.53125 44.71875 
Q 48 40.375 41.703125 38.8125 
Q 48.828125 37.15625 52.796875 32.3125 
Q 56.78125 27.484375 56.78125 20.515625 
Q 56.78125 9.90625 50.3125 4.234375 
Q 43.84375 -1.421875 31.78125 -1.421875 
Q 19.734375 -1.421875 13.25 4.234375 
Q 6.78125 9.90625 6.78125 20.515625 
Q 6.78125 27.484375 10.78125 32.3125 
Q 14.796875 37.15625 21.921875 38.8125 
z
M 18.3125 54.390625 
Q 18.3125 48.734375 21.84375 45.5625 
Q 25.390625 42.390625 31.78125 42.390625 
Q 38.140625 42.390625 41.71875 45.5625 
Q 45.3125 48.734375 45.3125 54.390625 
Q 45.3125 60.0625 41.71875 63.234375 
Q 38.140625 66.40625 31.78125 66.40625 
Q 25.390625 66.40625 21.84375 63.234375 
Q 18.3125 60.0625 18.3125 54.390625 
z
" id="DejaVuSans-38"/>
      </defs>
      <g transform="translate(306.346591 266.598437)scale(0.1 -0.1)">
       <use xlink:href="#DejaVuSans-38"/>
       <use x="63.623047" xlink:href="#DejaVuSans-30"/>
      </g>
     </g>
    </g>
    <g id="xtick_8">
     <g id="line2d_8">
      <g>
       <use style="stroke:#000000;stroke-width:0.8;" x="350.754545" xlink:href="#mc4468c21a5" y="252"/>
      </g>
     </g>
     <g id="text_8">
      <!-- 90 -->
      <defs>
       <path d="M 10.984375 1.515625 
L 10.984375 10.5 
Q 14.703125 8.734375 18.5 7.8125 
Q 22.3125 6.890625 25.984375 6.890625 
Q 35.75 6.890625 40.890625 13.453125 
Q 46.046875 20.015625 46.78125 33.40625 
Q 43.953125 29.203125 39.59375 26.953125 
Q 35.25 24.703125 29.984375 24.703125 
Q 19.046875 24.703125 12.671875 31.3125 
Q 6.296875 37.9375 6.296875 49.421875 
Q 6.296875 60.640625 12.9375 67.421875 
Q 19.578125 74.21875 30.609375 74.21875 
Q 43.265625 74.21875 49.921875 64.515625 
Q 56.59375 54.828125 56.59375 36.375 
Q 56.59375 19.140625 48.40625 8.859375 
Q 40.234375 -1.421875 26.421875 -1.421875 
Q 22.703125 -1.421875 18.890625 -0.6875 
Q 15.09375 0.046875 10.984375 1.515625 
z
M 30.609375 32.421875 
Q 37.25 32.421875 41.125 36.953125 
Q 45.015625 41.5 45.015625 49.421875 
Q 45.015625 57.28125 41.125 61.84375 
Q 37.25 66.40625 30.609375 66.40625 
Q 23.96875 66.40625 20.09375 61.84375 
Q 16.21875 57.28125 16.21875 49.421875 
Q 16.21875 41.5 20.09375 36.953125 
Q 23.96875 32.421875 30.609375 32.421875 
z
" id="DejaVuSans-39"/>
      </defs>
      <g transform="translate(344.392045 266.598437)scale(0.1 -0.1)">
       <use xlink:href="#DejaVuSans-39"/>
       <use x="63.623047" xlink:href="#DejaVuSans-30"/>
      </g>
     </g>
    </g>
    <g id="xtick_9">
     <g id="line2d_9">
      <g>
       <use style="stroke:#000000;stroke-width:0.8;" x="388.8" xlink:href="#mc4468c21a5" y="252"/>
      </g>
     </g>
     <g id="text_9">
      <!-- 100 -->
      <defs>
       <path d="M 12.40625 8.296875 
L 28.515625 8.296875 
L 28.515625 63.921875 
L 10.984375 60.40625 
L 10.984375 69.390625 
L 28.421875 72.90625 
L 38.28125 72.90625 
L 38.28125 8.296875 
L 54.390625 8.296875 
L 54.390625 0 
L 12.40625 0 
z
" id="DejaVuSans-31"/>
      </defs>
      <g transform="translate(379.25625 266.598437)scale(0.1 -0.1)">
       <use xlink:href="#DejaVuSans-31"/>
       <use x="63.623047" xlink:href="#DejaVuSans-30"/>
       <use x="127.246094" xlink:href="#DejaVuSans-30"/>
      </g>
     </g>
    </g>
    <g id="text_10">
     <!-- Energy (keV) -->
     <defs>
      <path d="M 9.8125 72.90625 
L 55.90625 72.90625 
L 55.90625 64.59375 
L 19.671875 64.59375 
L 19.671875 43.015625 
L 54.390625 43.015625 
L 54.390625 34.71875 
L 19.671875 34.71875 
L 19.671875 8.296875 
L 56.78125 8.296875 
L 56.78125 0 
L 9.8125 0 
z
" id="DejaVuSans-45"/>
      <path d="M 54.890625 33.015625 
L 54.890625 0 
L 45.90625 0 
L 45.90625 32.71875 
Q 45.90625 40.484375 42.875 44.328125 
Q 39.84375 48.1875 33.796875 48.1875 
Q 26.515625 48.1875 22.3125 43.546875 
Q 18.109375 38.921875 18.109375 30.90625 
L 18.109375 0 
L 9.078125 0 
L 9.078125 54.6875 
L 18.109375 54.6875 
L 18.109375 46.1875 
Q 21.34375 51.125 25.703125 53.5625 
Q 30.078125 56 35.796875 56 
Q 45.21875 56 50.046875 50.171875 
Q 54.890625 44.34375 54.890625 33.015625 
z
" id="DejaVuSans-6e"/>
      <path d="M 56.203125 29.59375 
L 56.203125 25.203125 
L 14.890625 25.203125 
Q 15.484375 15.921875 20.484375 11.0625 
Q 25.484375 6.203125 34.421875 6.203125 
Q 39.59375 6.203125 44.453125 7.46875 
Q 49.3125 8.734375 54.109375 11.28125 
L 54.109375 2.78125 
Q 49.265625 0.734375 44.1875 -0.34375 
Q 39.109375 -1.421875 33.890625 -1.421875 
Q 20.796875 -1.421875 13.15625 6.1875 
Q 5.515625 13.8125 5.515625 26.8125 
Q 5.515625 40.234375 12.765625 48.109375 
Q 20.015625 56 32.328125 56 
Q 43.359375 56 49.78125 48.890625 
Q 56.203125 41.796875 56.203125 29.59375 
z
M 47.21875 32.234375 
Q 47.125 39.59375 43.09375 43.984375 
Q 39.0625 48.390625 32.421875 48.390625 
Q 24.90625 48.390625 20.390625 44.140625 
Q 15.875 39.890625 15.1875 32.171875 
z
" id="DejaVuSans-65"/>
      <path d="M 41.109375 46.296875 
Q 39.59375 47.171875 37.8125 47.578125 
Q 36.03125 48 33.890625 48 
Q 26.265625 48 22.1875 43.046875 
Q 18.109375 38.09375 18.109375 28.8125 
L 18.109375 0 
L 9.078125 0 
L 9.078125 54.6875 
L 18.109375 54.6875 
L 18.109375 46.1875 
Q 20.953125 51.171875 25.484375 53.578125 
Q 30.03125 56 36.53125 56 
Q 37.453125 56 38.578125 55.875 
Q 39.703125 55.765625 41.0625 55.515625 
z
" id="DejaVuSans-72"/>
      <path d="M 45.40625 27.984375 
Q 45.40625 37.75 41.375 43.109375 
Q 37.359375 48.484375 30.078125 48.484375 
Q 22.859375 48.484375 18.828125 43.109375 
Q 14.796875 37.75 14.796875 27.984375 
Q 14.796875 18.265625 18.828125 12.890625 
Q 22.859375 7.515625 30.078125 7.515625 
Q 37.359375 7.515625 41.375 12.890625 
Q 45.40625 18.265625 45.40625 27.984375 
z
M 54.390625 6.78125 
Q 54.390625 -7.171875 48.1875 -13.984375 
Q 42 -20.796875 29.203125 -20.796875 
Q 24.46875 -20.796875 20.265625 -20.09375 
Q 16.0625 -19.390625 12.109375 -17.921875 
L 12.109375 -9.1875 
Q 16.0625 -11.328125 19.921875 -12.34375 
Q 23.78125 -13.375 27.78125 -13.375 
Q 36.625 -13.375 41.015625 -8.765625 
Q 45.40625 -4.15625 45.40625 5.171875 
L 45.40625 9.625 
Q 42.625 4.78125 38.28125 2.390625 
Q 33.9375 0 27.875 0 
Q 17.828125 0 11.671875 7.65625 
Q 5.515625 15.328125 5.515625 27.984375 
Q 5.515625 40.671875 11.671875 48.328125 
Q 17.828125 56 27.875 56 
Q 33.9375 56 38.28125 53.609375 
Q 42.625 51.21875 45.40625 46.390625 
L 45.40625 54.6875 
L 54.390625 54.6875 
z
" id="DejaVuSans-67"/>
      <path d="M 32.171875 -5.078125 
Q 28.375 -14.84375 24.75 -17.8125 
Q 21.140625 -20.796875 15.09375 -20.796875 
L 7.90625 -20.796875 
L 7.90625 -13.28125 
L 13.1875 -13.28125 
Q 16.890625 -13.28125 18.9375 -11.515625 
Q 21 -9.765625 23.484375 -3.21875 
L 25.09375 0.875 
L 2.984375 54.6875 
L 12.5 54.6875 
L 29.59375 11.921875 
L 46.6875 54.6875 
L 56.203125 54.6875 
z
" id="DejaVuSans-79"/>
      <path id="DejaVuSans-20"/>
      <path d="M 31 75.875 
Q 24.46875 64.65625 21.28125 53.65625 
Q 18.109375 42.671875 18.109375 31.390625 
Q 18.109375 20.125 21.3125 9.0625 
Q 24.515625 -2 31 -13.1875 
L 23.1875 -13.1875 
Q 15.875 -1.703125 12.234375 9.375 
Q 8.59375 20.453125 8.59375 31.390625 
Q 8.59375 42.28125 12.203125 53.3125 
Q 15.828125 64.359375 23.1875 75.875 
z
" id="DejaVuSans-28"/>
      <path d="M 9.078125 75.984375 
L 18.109375 75.984375 
L 18.109375 31.109375 
L 44.921875 54.6875 
L 56.390625 54.6875 
L 27.390625 29.109375 
L 57.625 0 
L 45.90625 0 
L 18.109375 26.703125 
L 18.109375 0 
L 9.078125 0 
z
" id="DejaVuSans-6b"/>
      <path d="M 28.609375 0 
L 0.78125 72.90625 
L 11.078125 72.90625 
L 34.1875 11.53125 
L 57.328125 72.90625 
L 67.578125 72.90625 
L 39.796875 0 
z
" id="DejaVuSans-56"/>
      <path d="M 8.015625 75.875 
L 15.828125 75.875 
Q 23.140625 64.359375 26.78125 53.3125 
Q 30.421875 42.28125 30.421875 31.390625 
Q 30.421875 20.453125 26.78125 9.375 
Q 23.140625 -1.703125 15.828125 -13.1875 
L 8.015625 -13.1875 
Q 14.5 -2 17.703125 9.0625 
Q 20.90625 20.125 20.90625 31.390625 
Q 20.90625 42.671875 17.703125 53.65625 
Q 14.5 64.65625 8.015625 75.875 
z
" id="DejaVuSans-29"/>
     </defs>
     <g transform="translate(188.926562 280.276563)scale(0.1 -0.1)">
      <use xlink:href="#DejaVuSans-45"/>
      <use x="63.183594" xlink:href="#DejaVuSans-6e"/>
      <use x="126.5625" xlink:href="#DejaVuSans-65"/>
      <use x="188.085938" xlink:href="#DejaVuSans-72"/>
      <use x="229.183594" xlink:href="#DejaVuSans-67"/>
      <use x="292.660156" xlink:href="#DejaVuSans-79"/>
      <use x="351.839844" xlink:href="#DejaVuSans-20"/>
      <use x="383.626953" xlink:href="#DejaVuSans-28"/>
      <use x="422.640625" xlink:href="#DejaVuSans-6b"/>
      <use x="480.503906" xlink:href="#DejaVuSans-65"/>
      <use x="542.027344" xlink:href="#DejaVuSans-56"/>
      <use x="610.435547" xlink:href="#DejaVuSans-29"/>
     </g>
    </g>
   </g>
   <g id="matplotlib.axis_2">
    <g id="ytick_1">
     <g id="line2d_10">
      <defs>
       <path d="M 0 0 
L -3.5 0 
" id="m138f30368d" style="stroke:#000000;stroke-width:0.8;"/>
      </defs>
      <g>
       <use style="stroke:#000000;stroke-width:0.8;" x="54" xlink:href="#m138f30368d" y="242.116364"/>
      </g>
     </g>
     <g id="text_11">
      <!-- 0 -->
      <g transform="translate(40.6375 245.915582)scale(0.1 -0.1)">
       <use xlink:href="#DejaVuSans-30"/>
      </g>
     </g>
    </g>
    <g id="ytick_2">
     <g id="line2d_11">
      <g>
       <use style="stroke:#000000;stroke-width:0.8;" x="54" xlink:href="#m138f30368d" y="212.056642"/>
      </g>
     </g>
     <g id="text_12">
      <!-- 250 -->
      <g transform="translate(27.9125 215.855861)scale(0.1 -0.1)">
       <use xlink:href="#DejaVuSans-32"/>
       <use x="63.623047" xlink:href="#DejaVuSans-35"/>
       <use x="127.246094" xlink:href="#DejaVuSans-30"/>
      </g>
     </g>
    </g>
    <g id="ytick_3">
     <g id="line2d_12">
      <g>
       <use style="stroke:#000000;stroke-width:0.8;" x="54" xlink:href="#m138f30368d" y="181.996921"/>
      </g>
     </g>
     <g id="text_13">
      <!-- 500 -->
      <g transform="translate(27.9125 185.79614)scale(0.1 -0.1)">
       <use xlink:href="#DejaVuSans-35"/>
       <use x="63.623047" xlink:href="#DejaVuSans-30"/>
       <use x="127.246094" xlink:href="#DejaVuSans-30"/>
      </g>
     </g>
    </g>
    <g id="ytick_4">
     <g id="line2d_13">
      <g>
       <use style="stroke:#000000;stroke-width:0.8;" x="54" xlink:href="#m138f30368d" y="151.9372"/>
      </g>
     </g>
     <g id="text_14">
      <!-- 750 -->
      <g transform="translate(27.9125 155.736418)scale(0.1 -0.1)">
       <use xlink:href="#DejaVuSans-37"/>
       <use x="63.623047" xlink:href="#DejaVuSans-35"/>
       <use x="127.246094" xlink:href="#DejaVuSans-30"/>
      </g>
     </g>
    </g>
    <g id="ytick_5">
     <g id="line2d_14">
      <g>
       <use style="stroke:#000000;stroke-width:0.8;" x="54" xlink:href="#m138f30368d" y="121.877478"/>
      </g>
     </g>
     <g id="text_15">
      <!-- 1000 -->
      <g transform="translate(21.55 125.676697)scale(0.1 -0.1)">
       <use xlink:href="#DejaVuSans-31"/>
       <use x="63.623047" xlink:href="#DejaVuSans-30"/>
       <use x="127.246094" xlink:href="#DejaVuSans-30"/>
       <use x="190.869141" xlink:href="#DejaVuSans-30"/>
      </g>
     </g>
    </g>
    <g id="ytick_6">
     <g id="line2d_15">
      <g>
       <use style="stroke:#000000;stroke-width:0.8;" x="54" xlink:href="#m138f30368d" y="91.817757"/>
      </g>
     </g>
     <g id="text_16">
      <!-- 1250 -->
      <g transform="translate(21.55 95.616976)scale(0.1 -0.1)">
       <use xlink:href="#DejaVuSans-31"/>
       <use x="63.623047" xlink:href="#DejaVuSans-32"/>
       <use x="127.246094" xlink:href="#DejaVuSans-35"/>
       <use x="190.869141" xlink:href="#DejaVuSans-30"/>
      </g>
     </g>
    </g>
    <g id="ytick_7">
     <g id="line2d_16">
      <g>
       <use style="stroke:#000000;stroke-width:0.8;" x="54" xlink:href="#m138f30368d" y="61.758036"/>
      </g>
     </g>
     <g id="text_17">
      <!-- 1500 -->
      <g transform="translate(21.55 65.557255)scale(0.1 -0.1)">
       <use xlink:href="#DejaVuSans-31"/>
       <use x="63.623047" xlink:href="#DejaVuSans-35"/>
       <use x="127.246094" xlink:href="#DejaVuSans-30"/>
       <use x="190.869141" xlink:href="#DejaVuSans-30"/>
      </g>
     </g>
    </g>
    <g id="text_18">
     <!-- Counts / 0.38 keV -->
     <defs>
      <path d="M 64.40625 67.28125 
L 64.40625 56.890625 
Q 59.421875 61.53125 53.78125 63.8125 
Q 48.140625 66.109375 41.796875 66.109375 
Q 29.296875 66.109375 22.65625 58.46875 
Q 16.015625 50.828125 16.015625 36.375 
Q 16.015625 21.96875 22.65625 14.328125 
Q 29.296875 6.6875 41.796875 6.6875 
Q 48.140625 6.6875 53.78125 8.984375 
Q 59.421875 11.28125 64.40625 15.921875 
L 64.40625 5.609375 
Q 59.234375 2.09375 53.4375 0.328125 
Q 47.65625 -1.421875 41.21875 -1.421875 
Q 24.65625 -1.421875 15.125 8.703125 
Q 5.609375 18.84375 5.609375 36.375 
Q 5.609375 53.953125 15.125 64.078125 
Q 24.65625 74.21875 41.21875 74.21875 
Q 47.75 74.21875 53.53125 72.484375 
Q 59.328125 70.75 64.40625 67.28125 
z
" id="DejaVuSans-43"/>
      <path d="M 30.609375 48.390625 
Q 23.390625 48.390625 19.1875 42.75 
Q 14.984375 37.109375 14.984375 27.296875 
Q 14.984375 17.484375 19.15625 11.84375 
Q 23.34375 6.203125 30.609375 6.203125 
Q 37.796875 6.203125 41.984375 11.859375 
Q 46.1875 17.53125 46.1875 27.296875 
Q 46.1875 37.015625 41.984375 42.703125 
Q 37.796875 48.390625 30.609375 48.390625 
z
M 30.609375 56 
Q 42.328125 56 49.015625 48.375 
Q 55.71875 40.765625 55.71875 27.296875 
Q 55.71875 13.875 49.015625 6.21875 
Q 42.328125 -1.421875 30.609375 -1.421875 
Q 18.84375 -1.421875 12.171875 6.21875 
Q 5.515625 13.875 5.515625 27.296875 
Q 5.515625 40.765625 12.171875 48.375 
Q 18.84375 56 30.609375 56 
z
" id="DejaVuSans-6f"/>
      <path d="M 8.5 21.578125 
L 8.5 54.6875 
L 17.484375 54.6875 
L 17.484375 21.921875 
Q 17.484375 14.15625 20.5 10.265625 
Q 23.53125 6.390625 29.59375 6.390625 
Q 36.859375 6.390625 41.078125 11.03125 
Q 45.3125 15.671875 45.3125 23.6875 
L 45.3125 54.6875 
L 54.296875 54.6875 
L 54.296875 0 
L 45.3125 0 
L 45.3125 8.40625 
Q 42.046875 3.421875 37.71875 1 
Q 33.40625 -1.421875 27.6875 -1.421875 
Q 18.265625 -1.421875 13.375 4.4375 
Q 8.5 10.296875 8.5 21.578125 
z
M 31.109375 56 
z
" id="DejaVuSans-75"/>
      <path d="M 18.3125 70.21875 
L 18.3125 54.6875 
L 36.8125 54.6875 
L 36.8125 47.703125 
L 18.3125 47.703125 
L 18.3125 18.015625 
Q 18.3125 11.328125 20.140625 9.421875 
Q 21.96875 7.515625 27.59375 7.515625 
L 36.8125 7.515625 
L 36.8125 0 
L 27.59375 0 
Q 17.1875 0 13.234375 3.875 
Q 9.28125 7.765625 9.28125 18.015625 
L 9.28125 47.703125 
L 2.6875 47.703125 
L 2.6875 54.6875 
L 9.28125 54.6875 
L 9.28125 70.21875 
z
" id="DejaVuSans-74"/>
      <path d="M 44.28125 53.078125 
L 44.28125 44.578125 
Q 40.484375 46.53125 36.375 47.5 
Q 32.28125 48.484375 27.875 48.484375 
Q 21.1875 48.484375 17.84375 46.4375 
Q 14.5 44.390625 14.5 40.28125 
Q 14.5 37.15625 16.890625 35.375 
Q 19.28125 33.59375 26.515625 31.984375 
L 29.59375 31.296875 
Q 39.15625 29.25 43.1875 25.515625 
Q 47.21875 21.78125 47.21875 15.09375 
Q 47.21875 7.46875 41.1875 3.015625 
Q 35.15625 -1.421875 24.609375 -1.421875 
Q 20.21875 -1.421875 15.453125 -0.5625 
Q 10.6875 0.296875 5.421875 2 
L 5.421875 11.28125 
Q 10.40625 8.6875 15.234375 7.390625 
Q 20.0625 6.109375 24.8125 6.109375 
Q 31.15625 6.109375 34.5625 8.28125 
Q 37.984375 10.453125 37.984375 14.40625 
Q 37.984375 18.0625 35.515625 20.015625 
Q 33.0625 21.96875 24.703125 23.78125 
L 21.578125 24.515625 
Q 13.234375 26.265625 9.515625 29.90625 
Q 5.8125 33.546875 5.8125 39.890625 
Q 5.8125 47.609375 11.28125 51.796875 
Q 16.75 56 26.8125 56 
Q 31.78125 56 36.171875 55.265625 
Q 40.578125 54.546875 44.28125 53.078125 
z
" id="DejaVuSans-73"/>
      <path d="M 25.390625 72.90625 
L 33.6875 72.90625 
L 8.296875 -9.28125 
L 0 -9.28125 
z
" id="DejaVuSans-2f"/>
      <path d="M 10.6875 12.40625 
L 21 12.40625 
L 21 0 
L 10.6875 0 
z
" id="DejaVuSans-2e"/>
     </defs>
     <g transform="translate(15.470312 187.707344)rotate(-90)scale(0.1 -0.1)">
      <use xlink:href="#DejaVuSans-43"/>
      <use x="69.824219" xlink:href="#DejaVuSans-6f"/>
      <use x="131.005859" xlink:href="#DejaVuSans-75"/>
      <use x="194.384766" xlink:href="#DejaVuSans-6e"/>
      <use x="257.763672" xlink:href="#DejaVuSans-74"/>
      <use x="296.972656" xlink:href="#DejaVuSans-73"/>
      <use x="349.072266" xlink:href="#DejaVuSans-20"/>
      <use x="380.859375" xlink:href="#DejaVuSans-2f"/>
      <use x="414.550781" xlink:href="#DejaVuSans-20"/>
      <use x="446.337891" xlink:href="#DejaVuSans-30"/>
      <use x="509.960938" xlink:href="#DejaVuSans-2e"/>
      <use x="541.748047" xlink:href="#DejaVuSans-33"/>
      <use x="605.371094" xlink:href="#DejaVuSans-38"/>
      <use x="668.994141" xlink:href="#DejaVuSans-20"/>
      <use x="700.78125" xlink:href="#DejaVuSans-6b"/>
      <use x="758.644531" xlink:href="#DejaVuSans-65"/>
      <use x="820.167969" xlink:href="#DejaVuSans-56"/>
     </g>
    </g>
   </g>
   <g id="line2d_17">
    <path clip-path="url(#pe98f9620ce)" d="M 54.007492 223.359098 
L 56.388015 223.359098 
L 56.388015 221.315036 
L 57.578276 221.315036 
L 57.578276 224.801964 
L 58.768537 224.801964 
L 58.768537 224.441248 
L 59.958799 224.441248 
L 59.958799 223.479336 
L 61.14906 223.479336 
L 61.14906 222.517425 
L 62.339322 222.517425 
L 62.339322 223.599575 
L 63.529583 223.599575 
L 63.529583 224.20077 
L 64.719844 224.20077 
L 64.719844 226.124592 
L 65.910106 226.124592 
L 65.910106 225.162681 
L 67.100367 225.162681 
L 67.100367 227.086503 
L 68.290629 227.086503 
L 68.290629 223.11862 
L 69.48089 223.11862 
L 69.48089 225.403159 
L 70.671152 225.403159 
L 70.671152 226.244831 
L 71.861413 226.244831 
L 71.861413 227.086503 
L 73.051674 227.086503 
L 73.051674 226.966264 
L 74.241936 226.966264 
L 74.241936 223.238859 
L 75.432197 223.238859 
L 75.432197 224.441248 
L 76.622459 224.441248 
L 76.622459 223.840053 
L 77.81272 223.840053 
L 77.81272 225.042442 
L 79.002981 225.042442 
L 79.002981 224.922203 
L 81.383504 224.922203 
L 81.383504 226.485309 
L 82.573766 226.485309 
L 82.573766 223.479336 
L 83.764027 223.479336 
L 83.764027 222.998381 
L 84.954289 222.998381 
L 84.954289 223.719814 
L 86.14455 223.719814 
L 86.14455 223.599575 
L 87.334811 223.599575 
L 87.334811 223.479336 
L 88.525073 223.479336 
L 88.525073 224.321009 
L 89.715334 224.321009 
L 89.715334 225.523397 
L 90.905596 225.523397 
L 90.905596 221.315036 
L 92.095857 221.315036 
L 92.095857 224.561486 
L 93.286118 224.561486 
L 93.286118 221.555514 
L 94.47638 221.555514 
L 94.47638 214.942376 
L 95.666641 214.942376 
L 95.666641 205.924459 
L 96.856903 205.924459 
L 96.856903 196.305348 
L 98.047164 196.305348 
L 98.047164 178.630232 
L 99.237426 178.630232 
L 99.237426 162.397983 
L 100.427687 162.397983 
L 100.427687 142.077611 
L 101.617948 142.077611 
L 101.617948 128.851334 
L 102.80821 128.851334 
L 102.80821 129.813245 
L 103.998471 129.813245 
L 103.998471 126.807273 
L 105.188733 126.807273 
L 105.188733 145.684778 
L 106.378994 145.684778 
L 106.378994 163.480133 
L 107.569255 163.480133 
L 107.569255 182.718354 
L 108.759517 182.718354 
L 108.759517 193.900571 
L 109.949778 193.900571 
L 109.949778 202.918487 
L 111.14004 202.918487 
L 111.14004 215.303092 
L 112.330301 215.303092 
L 112.330301 217.347153 
L 113.520563 217.347153 
L 113.520563 213.619748 
L 114.710824 213.619748 
L 114.710824 203.63992 
L 115.901085 203.63992 
L 115.901085 196.425587 
L 117.091347 196.425587 
L 117.091347 184.161221 
L 118.281608 184.161221 
L 118.281608 160.353922 
L 119.47187 160.353922 
L 119.47187 144.722867 
L 120.662131 144.722867 
L 120.662131 127.288228 
L 121.852392 127.288228 
L 121.852392 120.434612 
L 123.042654 120.434612 
L 123.042654 133.901367 
L 124.232915 133.901367 
L 124.232915 142.678806 
L 125.423177 142.678806 
L 125.423177 162.638461 
L 126.613438 162.638461 
L 126.613438 176.105216 
L 127.8037 176.105216 
L 127.8037 197.387498 
L 128.993961 197.387498 
L 128.993961 208.810192 
L 130.184222 208.810192 
L 130.184222 211.575687 
L 131.374484 211.575687 
L 131.374484 217.226914 
L 132.564745 217.226914 
L 132.564745 213.37927 
L 133.755007 213.37927 
L 133.755007 205.082787 
L 134.945268 205.082787 
L 134.945268 201.595859 
L 136.135529 201.595859 
L 136.135529 179.231427 
L 137.325791 179.231427 
L 137.325791 162.878938 
L 138.516052 162.878938 
L 138.516052 143.520478 
L 139.706314 143.520478 
L 139.706314 129.933484 
L 140.896575 129.933484 
L 140.896575 131.37635 
L 142.086837 131.37635 
L 142.086837 133.781128 
L 143.277098 133.781128 
L 143.277098 144.722867 
L 144.467359 144.722867 
L 144.467359 160.353922 
L 145.657621 160.353922 
L 145.657621 172.858766 
L 146.847882 172.858766 
L 146.847882 197.748215 
L 148.038144 197.748215 
L 148.038144 205.80422 
L 149.228405 205.80422 
L 149.228405 214.220942 
L 150.418667 214.220942 
L 150.418667 215.663809 
L 151.608928 215.663809 
L 151.608928 212.417359 
L 152.799189 212.417359 
L 152.799189 206.525654 
L 153.989451 206.525654 
L 153.989451 194.261287 
L 155.179712 194.261287 
L 155.179712 173.820677 
L 156.369974 173.820677 
L 156.369974 160.113444 
L 157.560235 160.113444 
L 157.560235 139.913311 
L 158.750496 139.913311 
L 158.750496 130.414439 
L 159.940758 130.414439 
L 159.940758 122.719151 
L 161.131019 122.719151 
L 161.131019 133.179934 
L 162.321281 133.179934 
L 162.321281 147.488361 
L 163.511542 147.488361 
L 163.511542 162.518222 
L 164.701804 162.518222 
L 164.701804 175.023066 
L 165.892065 175.023066 
L 165.892065 192.217226 
L 167.082326 192.217226 
L 167.082326 208.569715 
L 168.272588 208.569715 
L 168.272588 214.822137 
L 169.462849 214.822137 
L 169.462849 216.265003 
L 170.653111 216.265003 
L 170.653111 213.619748 
L 171.843372 213.619748 
L 171.843372 206.645893 
L 173.033633 206.645893 
L 173.033633 193.660093 
L 174.223895 193.660093 
L 174.223895 175.383782 
L 175.414156 175.383782 
L 175.414156 155.424127 
L 176.604418 155.424127 
L 176.604418 144.722867 
L 177.794679 144.722867 
L 177.794679 125.484645 
L 178.984941 125.484645 
L 178.984941 131.256111 
L 180.175202 131.256111 
L 180.175202 132.218023 
L 181.365463 132.218023 
L 181.365463 137.628772 
L 182.555725 137.628772 
L 182.555725 155.063411 
L 183.745986 155.063411 
L 183.745986 175.263543 
L 184.936248 175.263543 
L 184.936248 188.249343 
L 186.126509 188.249343 
L 186.126509 204.241115 
L 187.31677 204.241115 
L 187.31677 207.728042 
L 188.507032 207.728042 
L 188.507032 210.613776 
L 189.697293 210.613776 
L 189.697293 209.05067 
L 190.887555 209.05067 
L 190.887555 208.449476 
L 192.077816 208.449476 
L 192.077816 206.88637 
L 193.268078 206.88637 
L 193.268078 202.437532 
L 194.458339 202.437532 
L 194.458339 201.836337 
L 195.6486 201.836337 
L 195.6486 203.519681 
L 196.838862 203.519681 
L 196.838862 200.754187 
L 198.029123 200.754187 
L 198.029123 196.906543 
L 199.219385 196.906543 
L 199.219385 195.583915 
L 200.409646 195.583915 
L 200.409646 181.996921 
L 201.599907 181.996921 
L 201.599907 163.480133 
L 202.790169 163.480133 
L 202.790169 139.071639 
L 203.98043 139.071639 
L 203.98043 126.085839 
L 205.170692 126.085839 
L 205.170692 110.454784 
L 206.360953 110.454784 
L 206.360953 103.36069 
L 207.551215 103.36069 
L 207.551215 126.687034 
L 208.741476 126.687034 
L 208.741476 146.646689 
L 209.931737 146.646689 
L 209.931737 166.365866 
L 211.121999 166.365866 
L 211.121999 178.750471 
L 212.31226 178.750471 
L 212.31226 181.155249 
L 213.502522 181.155249 
L 213.502522 183.19931 
L 214.692783 183.19931 
L 214.692783 177.668321 
L 215.883044 177.668321 
L 215.883044 173.099244 
L 217.073306 173.099244 
L 217.073306 163.961088 
L 218.263567 163.961088 
L 218.263567 158.911055 
L 219.453829 158.911055 
L 219.453829 161.075355 
L 220.64409 161.075355 
L 220.64409 149.7729 
L 221.834352 149.7729 
L 221.834352 146.887167 
L 223.024613 146.887167 
L 223.024613 143.28 
L 224.214874 143.28 
L 224.214874 143.640717 
L 225.405136 143.640717 
L 225.405136 142.919283 
L 226.595397 142.919283 
L 226.595397 145.805017 
L 227.785659 145.805017 
L 227.785659 150.734811 
L 230.166181 150.734811 
L 230.166181 155.784844 
L 231.356443 155.784844 
L 231.356443 163.72061 
L 232.546704 163.72061 
L 232.546704 172.017094 
L 233.736966 172.017094 
L 233.736966 174.421871 
L 234.927227 174.421871 
L 234.927227 183.800504 
L 236.117489 183.800504 
L 236.117489 183.19931 
L 237.30775 183.19931 
L 237.30775 195.10296 
L 238.498011 195.10296 
L 238.498011 198.950604 
L 239.688273 198.950604 
L 239.688273 201.235143 
L 240.878534 201.235143 
L 240.878534 205.443504 
L 242.068796 205.443504 
L 242.068796 207.96852 
L 243.259057 207.96852 
L 243.259057 213.138792 
L 244.449319 213.138792 
L 244.449319 211.936403 
L 245.63958 211.936403 
L 245.63958 215.904287 
L 246.829841 215.904287 
L 246.829841 215.784048 
L 248.020103 215.784048 
L 248.020103 211.21497 
L 249.210364 211.21497 
L 249.210364 212.29712 
L 250.400626 212.29712 
L 250.400626 206.645893 
L 251.590887 206.645893 
L 251.590887 200.633948 
L 252.781148 200.633948 
L 252.781148 194.622004 
L 253.97141 194.622004 
L 253.97141 185.724326 
L 255.161671 185.724326 
L 255.161671 172.137332 
L 256.351933 172.137332 
L 256.351933 165.524194 
L 257.542194 165.524194 
L 257.542194 150.253855 
L 258.732456 150.253855 
L 258.732456 134.021606 
L 259.922717 134.021606 
L 259.922717 121.035806 
L 261.112978 121.035806 
L 261.112978 104.803557 
L 262.30324 104.803557 
L 262.30324 93.140385 
L 263.493501 93.140385 
L 263.493501 92.058235 
L 264.683763 92.058235 
L 264.683763 74.984313 
L 265.874024 74.984313 
L 265.874024 80.274824 
L 267.064285 80.274824 
L 267.064285 76.908135 
L 268.254547 76.908135 
L 268.254547 69.092608 
L 269.444808 69.092608 
L 269.444808 86.527246 
L 270.63507 86.527246 
L 270.63507 88.811785 
L 271.825331 88.811785 
L 271.825331 106.727379 
L 273.015593 106.727379 
L 273.015593 115.865534 
L 274.205854 115.865534 
L 274.205854 132.097784 
L 275.396115 132.097784 
L 275.396115 139.312117 
L 276.586377 139.312117 
L 276.586377 157.34795 
L 277.776638 157.34795 
L 277.776638 162.037266 
L 278.9669 162.037266 
L 278.9669 172.738527 
L 280.157161 172.738527 
L 280.157161 179.231427 
L 281.347422 179.231427 
L 281.347422 179.351666 
L 282.537684 179.351666 
L 282.537684 174.301632 
L 283.727945 174.301632 
L 283.727945 179.592143 
L 284.918207 179.592143 
L 284.918207 166.96706 
L 286.108468 166.96706 
L 286.108468 162.397983 
L 287.29873 162.397983 
L 287.29873 141.476417 
L 288.488991 141.476417 
L 288.488991 119.352462 
L 289.679252 119.352462 
L 289.679252 97.589224 
L 290.869514 97.589224 
L 290.869514 71.256908 
L 292.059775 71.256908 
L 292.059775 60.19493 
L 293.250037 60.19493 
L 293.250037 44.443636 
L 294.440298 44.443636 
L 294.440298 45.405547 
L 295.630559 45.405547 
L 295.630559 61.156841 
L 296.820821 61.156841 
L 296.820821 72.218819 
L 298.011082 72.218819 
L 298.011082 84.00223 
L 299.201344 84.00223 
L 299.201344 105.404751 
L 300.391605 105.404751 
L 300.391605 115.625056 
L 301.581867 115.625056 
L 301.581867 141.1157 
L 302.772128 141.1157 
L 302.772128 139.913311 
L 303.962389 139.913311 
L 303.962389 144.722867 
L 305.152651 144.722867 
L 305.152651 151.9372 
L 306.342912 151.9372 
L 306.342912 156.626516 
L 307.533174 156.626516 
L 307.533174 157.708666 
L 308.723435 157.708666 
L 308.723435 164.80276 
L 309.913696 164.80276 
L 309.913696 167.808733 
L 311.103958 167.808733 
L 311.103958 177.187366 
L 312.294219 177.187366 
L 312.294219 184.401699 
L 313.484481 184.401699 
L 313.484481 189.451732 
L 314.674742 189.451732 
L 314.674742 198.589887 
L 315.865004 198.589887 
L 315.865004 201.114904 
L 317.055265 201.114904 
L 317.055265 206.044698 
L 318.245526 206.044698 
L 318.245526 215.062614 
L 319.435788 215.062614 
L 319.435788 213.138792 
L 320.626049 213.138792 
L 320.626049 218.309064 
L 321.816311 218.309064 
L 321.816311 226.244831 
L 323.006572 226.244831 
L 323.006572 229.851997 
L 324.196833 229.851997 
L 324.196833 231.415103 
L 325.387095 231.415103 
L 325.387095 232.857969 
L 326.577356 232.857969 
L 326.577356 234.781792 
L 327.767618 234.781792 
L 327.767618 236.825853 
L 328.957879 236.825853 
L 328.957879 237.908003 
L 330.148141 237.908003 
L 330.148141 238.749675 
L 332.528663 238.749675 
L 332.528663 239.110392 
L 333.718925 239.110392 
L 333.718925 239.471108 
L 334.909186 239.471108 
L 334.909186 241.154453 
L 336.099448 241.154453 
L 336.099448 241.034214 
L 337.289709 241.034214 
L 337.289709 241.755647 
L 338.479971 241.755647 
L 338.479971 241.875886 
L 339.670232 241.875886 
L 339.670232 242.116364 
L 340.860493 242.116364 
L 340.860493 241.996125 
L 342.050755 241.996125 
L 342.050755 241.875886 
L 343.241016 241.875886 
L 343.241016 241.996125 
L 344.431278 241.996125 
L 344.431278 242.116364 
L 348.002062 242.116364 
L 348.002062 241.996125 
L 350.382585 241.996125 
L 350.382585 241.996125 
" style="fill:none;opacity:0.5;stroke:#1f77b4;stroke-linecap:square;stroke-width:1.5;"/>
   </g>
   <g id="line2d_18">
    <path clip-path="url(#pe98f9620ce)" d="M 54 241.40328 
L 55.43375 241.40328 
L 55.43375 240.093221 
L 56.8675 240.093221 
L 56.8675 238.784013 
L 58.30125 238.784013 
L 58.30125 237.459635 
L 59.735 237.459635 
L 59.735 236.142584 
L 61.16875 236.142584 
L 61.16875 234.821408 
L 62.6025 234.821408 
L 62.6025 233.488585 
L 64.03625 233.488585 
L 64.03625 232.157712 
L 65.47 232.157712 
L 65.47 230.814552 
L 66.90375 230.814552 
L 66.90375 229.476876 
L 68.3375 229.476876 
L 68.3375 228.135488 
L 69.77125 228.135488 
L 69.77125 226.800177 
L 71.205 226.800177 
L 71.205 225.442336 
L 72.63875 225.442336 
L 72.63875 224.069507 
L 74.0725 224.069507 
L 74.0725 222.613803 
L 75.50625 222.613803 
L 75.50625 221.181786 
L 76.94 221.181786 
L 76.94 220.503155 
L 78.37375 220.503155 
L 78.37375 219.677733 
L 79.8075 219.677733 
L 79.8075 218.444152 
L 81.24125 218.444152 
L 81.24125 216.725726 
L 82.675 216.725726 
L 82.675 214.515861 
L 84.10875 214.515861 
L 84.10875 211.905189 
L 85.5425 211.905189 
L 85.5425 208.991802 
L 86.97625 208.991802 
L 86.97625 205.900898 
L 88.41 205.900898 
L 88.41 202.684282 
L 89.84375 202.684282 
L 89.84375 199.386782 
L 91.2775 199.386782 
L 91.2775 196.067187 
L 92.71125 196.067187 
L 92.71125 192.690513 
L 94.145 192.690513 
L 94.145 189.225723 
L 95.57875 189.225723 
L 95.57875 185.664381 
L 97.0125 185.664381 
L 97.0125 181.979626 
L 98.44625 181.979626 
L 98.44625 178.284166 
L 99.88 178.284166 
L 99.88 174.654693 
L 101.31375 174.654693 
L 101.31375 171.294598 
L 102.7475 171.294598 
L 102.7475 168.417229 
L 104.18125 168.417229 
L 104.18125 166.19953 
L 105.615 166.19953 
L 105.615 164.637568 
L 107.04875 164.637568 
L 107.04875 163.673647 
L 108.4825 163.673647 
L 108.4825 163.153853 
L 109.91625 163.153853 
L 109.91625 162.909046 
L 111.35 162.909046 
L 111.35 162.796545 
L 114.2175 162.71212 
L 114.2175 162.508218 
L 115.65125 162.508218 
L 115.65125 162.195369 
L 117.085 162.195369 
L 117.085 161.770729 
L 118.51875 161.770729 
L 118.51875 161.327519 
L 119.9525 161.327519 
L 119.9525 160.949252 
L 121.38625 160.949252 
L 121.38625 160.75281 
L 124.25375 160.831293 
L 124.25375 161.16303 
L 125.6875 161.16303 
L 125.6875 161.651544 
L 127.12125 161.651544 
L 127.12125 162.158391 
L 128.555 162.158391 
L 128.555 162.609859 
L 129.98875 162.609859 
L 129.98875 162.872132 
L 134.29 162.839971 
L 134.29 162.575956 
L 135.72375 162.575956 
L 135.72375 162.171031 
L 137.1575 162.171031 
L 137.1575 161.726517 
L 138.59125 161.726517 
L 138.59125 161.343999 
L 140.025 161.343999 
L 140.025 161.123445 
L 142.8925 161.12668 
L 142.8925 161.433375 
L 144.32625 161.433375 
L 144.32625 161.932728 
L 145.76 161.932728 
L 145.76 162.489856 
L 147.19375 162.489856 
L 147.19375 162.954182 
L 148.6275 162.954182 
L 148.6275 163.268369 
L 150.06125 163.268369 
L 150.06125 163.393821 
L 152.92875 163.329743 
L 152.92875 163.106428 
L 154.3625 163.106428 
L 154.3625 162.714694 
L 155.79625 162.714694 
L 155.79625 162.204051 
L 157.23 162.204051 
L 157.23 161.701086 
L 158.66375 161.701086 
L 158.66375 161.317335 
L 162.965 161.358126 
L 162.965 161.743867 
L 164.39875 161.743867 
L 164.39875 162.212456 
L 165.8325 162.212456 
L 165.8325 162.581735 
L 167.26625 162.581735 
L 167.26625 162.75841 
L 170.13375 162.733682 
L 170.13375 162.533128 
L 171.5675 162.533128 
L 171.5675 162.206214 
L 173.00125 162.206214 
L 173.00125 161.949182 
L 177.3025 162.059409 
L 177.3025 162.737201 
L 178.73625 162.737201 
L 178.73625 163.902415 
L 180.17 163.902415 
L 180.17 165.401003 
L 181.60375 165.401003 
L 181.60375 166.982063 
L 183.0375 166.982063 
L 183.0375 168.271028 
L 184.47125 168.271028 
L 184.47125 169.061658 
L 185.905 169.061658 
L 185.905 169.268312 
L 187.33875 169.268312 
L 187.33875 169.021649 
L 188.7725 169.021649 
L 188.7725 168.468808 
L 190.20625 168.468808 
L 190.20625 167.744996 
L 191.64 167.744996 
L 191.64 166.93646 
L 193.07375 166.93646 
L 193.07375 166.058422 
L 194.5075 166.058422 
L 194.5075 165.056193 
L 195.94125 165.056193 
L 195.94125 163.804872 
L 197.375 163.804872 
L 197.375 162.289179 
L 198.80875 162.289179 
L 198.80875 160.369706 
L 200.2425 160.369706 
L 200.2425 158.018745 
L 201.67625 158.018745 
L 201.67625 155.253919 
L 203.11 155.253919 
L 203.11 152.24022 
L 204.54375 152.24022 
L 204.54375 149.368463 
L 205.9775 149.368463 
L 205.9775 146.944778 
L 207.41125 146.944778 
L 207.41125 145.096986 
L 208.845 145.096986 
L 208.845 143.706592 
L 210.27875 143.706592 
L 210.27875 142.604239 
L 211.7125 142.604239 
L 211.7125 141.710576 
L 213.14625 141.710576 
L 213.14625 140.932279 
L 214.58 140.932279 
L 214.58 140.321961 
L 216.01375 140.321961 
L 216.01375 139.931085 
L 218.88125 139.882195 
L 218.88125 140.199672 
L 220.315 140.199672 
L 220.315 141.007072 
L 221.74875 141.007072 
L 221.74875 142.319797 
L 223.1825 142.319797 
L 223.1825 144.126867 
L 224.61625 144.126867 
L 224.61625 146.401037 
L 226.05 146.401037 
L 226.05 149.08159 
L 227.48375 149.08159 
L 227.48375 151.906226 
L 228.9175 151.906226 
L 228.9175 154.772744 
L 230.35125 154.772744 
L 230.35125 157.697192 
L 231.785 157.697192 
L 231.785 160.732669 
L 233.21875 160.732669 
L 233.21875 163.834166 
L 234.6525 163.834166 
L 234.6525 166.931842 
L 236.08625 166.931842 
L 236.08625 169.876302 
L 237.52 169.876302 
L 237.52 172.524287 
L 238.95375 172.524287 
L 238.95375 174.68448 
L 240.3875 174.68448 
L 240.3875 176.196158 
L 241.82125 176.196158 
L 241.82125 176.975372 
L 243.255 176.975372 
L 243.255 176.816195 
L 244.68875 176.816195 
L 244.68875 175.704629 
L 246.1225 175.704629 
L 246.1225 173.556003 
L 247.55625 173.556003 
L 247.55625 170.392368 
L 248.99 170.392368 
L 248.99 166.278097 
L 250.42375 166.278097 
L 250.42375 161.345772 
L 251.8575 161.345772 
L 251.8575 155.71782 
L 253.29125 155.71782 
L 253.29125 149.569688 
L 254.725 149.569688 
L 254.725 143.01317 
L 256.15875 143.01317 
L 256.15875 136.234775 
L 257.5925 136.234775 
L 257.5925 129.596859 
L 259.02625 129.596859 
L 259.02625 123.285523 
L 260.46 123.285523 
L 260.46 117.489696 
L 261.89375 117.489696 
L 261.89375 112.423054 
L 263.3275 112.423054 
L 263.3275 108.212832 
L 264.76125 108.212832 
L 264.76125 104.958361 
L 266.195 104.958361 
L 266.195 102.648452 
L 267.62875 102.648452 
L 267.62875 101.190026 
L 269.0625 101.190026 
L 269.0625 100.48124 
L 270.49625 100.48124 
L 270.49625 100.316244 
L 271.93 100.316244 
L 271.93 100.523012 
L 273.36375 100.523012 
L 273.36375 100.950341 
L 274.7975 100.950341 
L 274.7975 101.44785 
L 276.23125 101.44785 
L 276.23125 101.872652 
L 277.665 101.872652 
L 277.665 102.236919 
L 279.09875 102.236919 
L 279.09875 102.438192 
L 281.96625 102.347111 
L 281.96625 101.941972 
L 283.4 101.941972 
L 283.4 101.135541 
L 284.83375 101.135541 
L 284.83375 99.889135 
L 286.2675 99.889135 
L 286.2675 98.226412 
L 287.70125 98.226412 
L 287.70125 96.254066 
L 289.135 96.254066 
L 289.135 94.341278 
L 290.56875 94.341278 
L 290.56875 92.676851 
L 292.0025 92.676851 
L 292.0025 91.565835 
L 293.43625 91.565835 
L 293.43625 91.293517 
L 294.87 91.293517 
L 294.87 92.036836 
L 296.30375 92.036836 
L 296.30375 93.830221 
L 297.7375 93.830221 
L 297.7375 96.688061 
L 299.17125 96.688061 
L 299.17125 100.583362 
L 300.605 100.583362 
L 300.605 105.314586 
L 302.03875 105.314586 
L 302.03875 110.798885 
L 303.4725 110.798885 
L 303.4725 116.946271 
L 304.90625 116.946271 
L 304.90625 123.613951 
L 306.34 123.613951 
L 306.34 130.868214 
L 307.77375 130.868214 
L 307.77375 138.632713 
L 309.2075 138.632713 
L 309.2075 146.7999 
L 310.64125 146.7999 
L 310.64125 155.168096 
L 312.075 155.168096 
L 312.075 163.525274 
L 313.50875 163.525274 
L 313.50875 171.706306 
L 314.9425 171.706306 
L 314.9425 179.585517 
L 316.37625 179.585517 
L 316.37625 186.93828 
L 317.81 186.93828 
L 317.81 193.666923 
L 319.24375 193.666923 
L 319.24375 199.810001 
L 320.6775 199.810001 
L 320.6775 205.352556 
L 322.11125 205.352556 
L 322.11125 210.331829 
L 323.545 210.331829 
L 323.545 214.826284 
L 324.97875 214.826284 
L 324.97875 218.871549 
L 326.4125 218.871549 
L 326.4125 222.525776 
L 327.84625 222.525776 
L 327.84625 225.792939 
L 329.28 225.792939 
L 329.28 228.658294 
L 330.71375 228.658294 
L 330.71375 231.148439 
L 332.1475 231.148439 
L 332.1475 233.267299 
L 333.58125 233.267299 
L 333.58125 235.075094 
L 335.015 235.075094 
L 335.015 236.591344 
L 336.44875 236.591344 
L 336.44875 237.818892 
L 337.8825 237.818892 
L 337.8825 238.811296 
L 339.31625 238.811296 
L 339.31625 239.604847 
L 340.75 239.604847 
L 340.75 240.236165 
L 342.18375 240.236165 
L 342.18375 240.723102 
L 343.6175 240.723102 
L 343.6175 241.097432 
L 345.05125 241.097432 
L 345.05125 241.376481 
L 346.485 241.376481 
L 346.485 241.588765 
L 347.91875 241.588765 
L 347.91875 241.747662 
L 349.3525 241.747662 
L 349.3525 241.860714 
L 352.22 241.94361 
L 352.22 242.000795 
L 363.69 242.111469 
L 363.69 242.113553 
L 409.57 242.116364 
L 409.57 242.116364 
" style="fill:none;stroke:#1f77b4;stroke-linecap:square;stroke-width:1.5;"/>
   </g>
   <g id="patch_3">
    <path d="M 54 252 
L 54 34.56 
" style="fill:none;stroke:#000000;stroke-linecap:square;stroke-linejoin:miter;stroke-width:0.8;"/>
   </g>
   <g id="patch_4">
    <path d="M 388.8 252 
L 388.8 34.56 
" style="fill:none;stroke:#000000;stroke-linecap:square;stroke-linejoin:miter;stroke-width:0.8;"/>
   </g>
   <g id="patch_5">
    <path d="M 54 252 
L 388.8 252 
" style="fill:none;stroke:#000000;stroke-linecap:square;stroke-linejoin:miter;stroke-width:0.8;"/>
   </g>
   <g id="patch_6">
    <path d="M 54 34.56 
L 388.8 34.56 
" style="fill:none;stroke:#000000;stroke-linecap:square;stroke-linejoin:miter;stroke-width:0.8;"/>
   </g>
  </g>
 </g>
 <defs>
  <clipPath id="pe98f9620ce">
   <rect height="217.44" width="334.8" x="54" y="34.56"/>
  </clipPath>
 </defs>
</svg>
