<?xml version="1.0" encoding="UTF-8" standalone="no"?>
<svg
   xmlns:dc="http://purl.org/dc/elements/1.1/"
   xmlns:cc="http://creativecommons.org/ns#"
   xmlns:rdf="http://www.w3.org/1999/02/22-rdf-syntax-ns#"
   xmlns:svg="http://www.w3.org/2000/svg"
   xmlns="http://www.w3.org/2000/svg"
   viewBox="0 0 576 384"
   height="384"
   width="576"
   xml:space="preserve"
   id="svg2"
   version="1.1"><metadata
     id="metadata8"><rdf:RDF><cc:Work
         rdf:about=""><dc:format>image/svg+xml</dc:format><dc:type
           rdf:resource="http://purl.org/dc/dcmitype/StillImage" /></cc:Work></rdf:RDF></metadata><defs
     id="defs6"><clipPath
       id="clipPath180"
       clipPathUnits="userSpaceOnUse"><path
         id="path178"
         d="M 540,360 H 3888 V 2534 H 540 Z" /></clipPath></defs><g
     transform="matrix(1.3333333,0,0,-1.3333333,0,384)"
     id="g10"><g
       transform="scale(0.1)"
       id="g12"><path
         id="path14"
         style="fill:#ffffff;fill-opacity:1;fill-rule:nonzero;stroke:none"
         d="M 0,0 H 4320 V 2880 H 0 Z" /><path
         id="path16"
         style="fill:#ffffff;fill-opacity:1;fill-rule:nonzero;stroke:none"
         d="M 540,360 H 3888 V 2534.4 H 540 Z" /><path
         id="path18"
         style="fill:#000000;fill-opacity:1;fill-rule:nonzero;stroke:none"
         d="M 781.289,360 V 325" /><path
         id="path20"
         style="fill:none;stroke:#000000;stroke-width:8;stroke-linecap:butt;stroke-linejoin:round;stroke-miterlimit:10;stroke-dasharray:none;stroke-opacity:1"
         d="M 781.289,360 V 325" /><g
         transform="scale(10)"
         id="g22"><text
           id="text26"
           style="font-variant:normal;font-weight:normal;font-size:10px;font-family:Arial;-inkscape-font-specification:Arial;writing-mode:lr-tb;fill:#000000;fill-opacity:1;fill-rule:nonzero;stroke:none"
           transform="matrix(1,0,0,-1,71.7695,21.4063)"><tspan
             id="tspan24"
             y="0"
             x="0 6.3625026">10</tspan></text>
</g><path
         id="path28"
         style="fill:#000000;fill-opacity:1;fill-rule:nonzero;stroke:none"
         d="M 1224.17,360 V 325" /><path
         id="path30"
         style="fill:none;stroke:#000000;stroke-width:8;stroke-linecap:butt;stroke-linejoin:round;stroke-miterlimit:10;stroke-dasharray:none;stroke-opacity:1"
         d="M 1224.17,360 V 325" /><g
         transform="scale(10)"
         id="g32"><text
           id="text36"
           style="font-variant:normal;font-weight:normal;font-size:10px;font-family:Arial;-inkscape-font-specification:Arial;writing-mode:lr-tb;fill:#000000;fill-opacity:1;fill-rule:nonzero;stroke:none"
           transform="matrix(1,0,0,-1,116.057,21.4063)"><tspan
             id="tspan34"
             y="0"
             x="0 6.3625026">20</tspan></text>
</g><path
         id="path38"
         style="fill:#000000;fill-opacity:1;fill-rule:nonzero;stroke:none"
         d="M 1667.05,360 V 325" /><path
         id="path40"
         style="fill:none;stroke:#000000;stroke-width:8;stroke-linecap:butt;stroke-linejoin:round;stroke-miterlimit:10;stroke-dasharray:none;stroke-opacity:1"
         d="M 1667.05,360 V 325" /><g
         transform="scale(10)"
         id="g42"><text
           id="text46"
           style="font-variant:normal;font-weight:normal;font-size:10px;font-family:Arial;-inkscape-font-specification:Arial;writing-mode:lr-tb;fill:#000000;fill-opacity:1;fill-rule:nonzero;stroke:none"
           transform="matrix(1,0,0,-1,160.346,21.4063)"><tspan
             id="tspan44"
             y="0"
             x="0 6.362112">30</tspan></text>
</g><path
         id="path48"
         style="fill:#000000;fill-opacity:1;fill-rule:nonzero;stroke:none"
         d="M 2109.93,360 V 325" /><path
         id="path50"
         style="fill:none;stroke:#000000;stroke-width:8;stroke-linecap:butt;stroke-linejoin:round;stroke-miterlimit:10;stroke-dasharray:none;stroke-opacity:1"
         d="M 2109.93,360 V 325" /><g
         transform="scale(10)"
         id="g52"><text
           id="text56"
           style="font-variant:normal;font-weight:normal;font-size:10px;font-family:Arial;-inkscape-font-specification:Arial;writing-mode:lr-tb;fill:#000000;fill-opacity:1;fill-rule:nonzero;stroke:none"
           transform="matrix(1,0,0,-1,204.634,21.4063)"><tspan
             id="tspan54"
             y="0"
             x="0 6.3624902">40</tspan></text>
</g><path
         id="path58"
         style="fill:#000000;fill-opacity:1;fill-rule:nonzero;stroke:none"
         d="M 2552.81,360 V 325" /><path
         id="path60"
         style="fill:none;stroke:#000000;stroke-width:8;stroke-linecap:butt;stroke-linejoin:round;stroke-miterlimit:10;stroke-dasharray:none;stroke-opacity:1"
         d="M 2552.81,360 V 325" /><g
         transform="scale(10)"
         id="g62"><text
           id="text66"
           style="font-variant:normal;font-weight:normal;font-size:10px;font-family:Arial;-inkscape-font-specification:Arial;writing-mode:lr-tb;fill:#000000;fill-opacity:1;fill-rule:nonzero;stroke:none"
           transform="matrix(1,0,0,-1,248.921,21.4063)"><tspan
             id="tspan64"
             y="0"
             x="0 6.3624902">50</tspan></text>
</g><path
         id="path68"
         style="fill:#000000;fill-opacity:1;fill-rule:nonzero;stroke:none"
         d="M 2995.69,360 V 325" /><path
         id="path70"
         style="fill:none;stroke:#000000;stroke-width:8;stroke-linecap:butt;stroke-linejoin:round;stroke-miterlimit:10;stroke-dasharray:none;stroke-opacity:1"
         d="M 2995.69,360 V 325" /><g
         transform="scale(10)"
         id="g72"><text
           id="text76"
           style="font-variant:normal;font-weight:normal;font-size:10px;font-family:Arial;-inkscape-font-specification:Arial;writing-mode:lr-tb;fill:#000000;fill-opacity:1;fill-rule:nonzero;stroke:none"
           transform="matrix(1,0,0,-1,293.21,21.4063)"><tspan
             id="tspan74"
             y="0"
             x="0 6.3620996">60</tspan></text>
</g><path
         id="path78"
         style="fill:#000000;fill-opacity:1;fill-rule:nonzero;stroke:none"
         d="M 3438.57,360 V 325" /><path
         id="path80"
         style="fill:none;stroke:#000000;stroke-width:8;stroke-linecap:butt;stroke-linejoin:round;stroke-miterlimit:10;stroke-dasharray:none;stroke-opacity:1"
         d="M 3438.57,360 V 325" /><g
         transform="scale(10)"
         id="g82"><text
           id="text86"
           style="font-variant:normal;font-weight:normal;font-size:10px;font-family:Arial;-inkscape-font-specification:Arial;writing-mode:lr-tb;fill:#000000;fill-opacity:1;fill-rule:nonzero;stroke:none"
           transform="matrix(1,0,0,-1,337.498,21.4063)"><tspan
             id="tspan84"
             y="0"
             x="0 6.3620996">70</tspan></text>
</g><path
         id="path88"
         style="fill:#000000;fill-opacity:1;fill-rule:nonzero;stroke:none"
         d="M 3881.45,360 V 325" /><path
         id="path90"
         style="fill:none;stroke:#000000;stroke-width:8;stroke-linecap:butt;stroke-linejoin:round;stroke-miterlimit:10;stroke-dasharray:none;stroke-opacity:1"
         d="M 3881.45,360 V 325" /><g
         transform="scale(10)"
         id="g92"><text
           id="text98"
           style="font-variant:normal;font-weight:normal;font-size:10px;font-family:Arial;-inkscape-font-specification:Arial;writing-mode:lr-tb;fill:#000000;fill-opacity:1;fill-rule:nonzero;stroke:none"
           transform="matrix(1,0,0,-1,381.786,21.4063)"><tspan
             id="tspan94"
             y="0"
             x="0 6.3624902">80</tspan><tspan
             id="tspan96"
             y="13.6719"
             x="-192.87801 -186.55963 -180.22174 -174.0694 -169.95808 -163.61043 -157.69246 -154.51355 -150.61238 -144.82135 -138.66901 -131.82799">Energy (keV)</tspan></text>
</g><path
         id="path100"
         style="fill:#000000;fill-opacity:1;fill-rule:nonzero;stroke:none"
         d="M 540,456.723 H 505" /><path
         id="path102"
         style="fill:none;stroke:#000000;stroke-width:8;stroke-linecap:butt;stroke-linejoin:round;stroke-miterlimit:10;stroke-dasharray:none;stroke-opacity:1"
         d="M 540,456.723 H 505" /><g
         transform="scale(10)"
         id="g104"><text
           id="text108"
           style="font-variant:normal;font-weight:normal;font-size:10px;font-family:Arial;-inkscape-font-specification:Arial;writing-mode:lr-tb;fill:#000000;fill-opacity:1;fill-rule:nonzero;stroke:none"
           transform="matrix(1,0,0,-1,40.6406,41.8754)"><tspan
             id="tspan106"
             y="0"
             x="0">0</tspan></text>
</g><path
         id="path110"
         style="fill:#000000;fill-opacity:1;fill-rule:nonzero;stroke:none"
         d="M 540,782.137 H 505" /><path
         id="path112"
         style="fill:none;stroke:#000000;stroke-width:8;stroke-linecap:butt;stroke-linejoin:round;stroke-miterlimit:10;stroke-dasharray:none;stroke-opacity:1"
         d="M 540,782.137 H 505" /><g
         transform="scale(10)"
         id="g114"><text
           id="text118"
           style="font-variant:normal;font-weight:normal;font-size:10px;font-family:Arial;-inkscape-font-specification:Arial;writing-mode:lr-tb;fill:#000000;fill-opacity:1;fill-rule:nonzero;stroke:none"
           transform="matrix(1,0,0,-1,21.5625,74.4168)"><tspan
             id="tspan116"
             y="0"
             x="0 6.3624992 12.724608 19.087107">2000</tspan></text>
</g><path
         id="path120"
         style="fill:#000000;fill-opacity:1;fill-rule:nonzero;stroke:none"
         d="M 540,1107.55 H 505" /><path
         id="path122"
         style="fill:none;stroke:#000000;stroke-width:8;stroke-linecap:butt;stroke-linejoin:round;stroke-miterlimit:10;stroke-dasharray:none;stroke-opacity:1"
         d="M 540,1107.55 H 505" /><g
         transform="scale(10)"
         id="g124"><text
           id="text128"
           style="font-variant:normal;font-weight:normal;font-size:10px;font-family:Arial;-inkscape-font-specification:Arial;writing-mode:lr-tb;fill:#000000;fill-opacity:1;fill-rule:nonzero;stroke:none"
           transform="matrix(1,0,0,-1,21.5625,106.958)"><tspan
             id="tspan126"
             y="0"
             x="0 6.3624992 12.724608 19.087107">4000</tspan></text>
</g><path
         id="path130"
         style="fill:#000000;fill-opacity:1;fill-rule:nonzero;stroke:none"
         d="M 540,1432.96 H 505" /><path
         id="path132"
         style="fill:none;stroke:#000000;stroke-width:8;stroke-linecap:butt;stroke-linejoin:round;stroke-miterlimit:10;stroke-dasharray:none;stroke-opacity:1"
         d="M 540,1432.96 H 505" /><g
         transform="scale(10)"
         id="g134"><text
           id="text138"
           style="font-variant:normal;font-weight:normal;font-size:10px;font-family:Arial;-inkscape-font-specification:Arial;writing-mode:lr-tb;fill:#000000;fill-opacity:1;fill-rule:nonzero;stroke:none"
           transform="matrix(1,0,0,-1,21.5625,139.5)"><tspan
             id="tspan136"
             y="0"
             x="0 6.3624992 12.724608 19.087107">6000</tspan></text>
</g><path
         id="path140"
         style="fill:#000000;fill-opacity:1;fill-rule:nonzero;stroke:none"
         d="M 540,1758.38 H 505" /><path
         id="path142"
         style="fill:none;stroke:#000000;stroke-width:8;stroke-linecap:butt;stroke-linejoin:round;stroke-miterlimit:10;stroke-dasharray:none;stroke-opacity:1"
         d="M 540,1758.38 H 505" /><g
         transform="scale(10)"
         id="g144"><text
           id="text148"
           style="font-variant:normal;font-weight:normal;font-size:10px;font-family:Arial;-inkscape-font-specification:Arial;writing-mode:lr-tb;fill:#000000;fill-opacity:1;fill-rule:nonzero;stroke:none"
           transform="matrix(1,0,0,-1,21.5625,172.041)"><tspan
             id="tspan146"
             y="0"
             x="0 6.3624992 12.724608 19.087107">8000</tspan></text>
</g><path
         id="path150"
         style="fill:#000000;fill-opacity:1;fill-rule:nonzero;stroke:none"
         d="M 540,2083.79 H 505" /><path
         id="path152"
         style="fill:none;stroke:#000000;stroke-width:8;stroke-linecap:butt;stroke-linejoin:round;stroke-miterlimit:10;stroke-dasharray:none;stroke-opacity:1"
         d="M 540,2083.79 H 505" /><g
         transform="scale(10)"
         id="g154"><text
           id="text158"
           style="font-variant:normal;font-weight:normal;font-size:10px;font-family:Arial;-inkscape-font-specification:Arial;writing-mode:lr-tb;fill:#000000;fill-opacity:1;fill-rule:nonzero;stroke:none"
           transform="matrix(1,0,0,-1,15.2031,204.582)"><tspan
             id="tspan156"
             y="0"
             x="0 6.3624992 12.724608 19.087107 25.449217">10000</tspan></text>
</g><path
         id="path160"
         style="fill:#000000;fill-opacity:1;fill-rule:nonzero;stroke:none"
         d="M 540,2409.21 H 505" /><path
         id="path162"
         style="fill:none;stroke:#000000;stroke-width:8;stroke-linecap:butt;stroke-linejoin:round;stroke-miterlimit:10;stroke-dasharray:none;stroke-opacity:1"
         d="M 540,2409.21 H 505" /><g
         transform="scale(10)"
         id="g164"><text
           id="text168"
           style="font-variant:normal;font-weight:normal;font-size:10px;font-family:Arial;-inkscape-font-specification:Arial;writing-mode:lr-tb;fill:#000000;fill-opacity:1;fill-rule:nonzero;stroke:none"
           transform="matrix(1,0,0,-1,15.2031,237.124)"><tspan
             id="tspan166"
             y="0"
             x="0 6.3624992 12.724608 19.087107 25.449217">12000</tspan></text>
<text
           id="text172"
           style="font-variant:normal;font-weight:normal;font-size:10px;font-family:Arial;-inkscape-font-specification:Arial;writing-mode:lr-tb;fill:#000000;fill-opacity:1;fill-rule:nonzero;stroke:none"
           transform="matrix(0,1,1,0,9.125,127.251)"><tspan
             id="tspan170"
             y="0"
             x="0 6.9824171 13.100781 19.438669 25.776558 29.697266">Counts</tspan></text>
</g><g
         id="g174"><g
           clip-path="url(#clipPath180)"
           id="g176"><path
             id="path182"
             style="fill:none;stroke:#1f77b4;stroke-width:15;stroke-linecap:square;stroke-linejoin:round;stroke-miterlimit:10;stroke-dasharray:none;stroke-opacity:1"
             d="m 692.184,461.277 h 44.109 v 47.184 h 44.109 v 218.68 h 44.114 v 525.539 h 44.109 v 759.85 h 44.109 v 423.03 h 44.114 v -82.49 h 44.112 v -339.08 h 44.11 v -550.44 h 44.11 v -372.11 h 44.11 V 897.984 h 44.11 v -12.691 h 44.11 v 5.043 h 44.11 v -53.207 h 44.11 v -47.184 h 44.11 v 15.457 h 44.11 v 1.465 h 44.11 v 2.602 h 44.12 v -29.774 h 44.11 v -55.484 h 44.1 v -55.484 h 44.12 v -49.625 h 44.11 v -4.719 h 44.11 v 12.203 h 44.11 v 0.488 h 44.11 v -37.91 h 44.11 v -5.367 h 44.11 v 6.668 h 44.11 v 5.695 h 44.11 v 0.653 h 44.11 v 15.457 h 44.11 v 17.082 h 44.11 v -7.809 h 44.12 v 28.148 h 44.11 v 6.672 h 44.1 v 35.957 h 44.12 v 37.586 h 44.11 v 29.449 h 44.11 v 27.5 h 44.11 v 7.809 h 44.11 v -11.226 h 44.11 v -13.18 h 44.11 v 8.137 h 44.11 v 49.296 h 44.11 v 141.395 h 44.11 v 292.384 h 44.11 v 451.02 h 44.11 v 314.19 h 44.12 v 44.26 h 44.11 V 1720.3 h 44.1 v -511.71 h 44.12 V 808.004 h 44.11 V 597.789 h 44.11 v -95.512 h 44.11 v -34.492 h 44.11 v -5.371 h 44.11 v -2.277 h 44.11 v -1.301" /><path
             id="path184"
             style="fill:none;stroke:#ff7f0e;stroke-width:15;stroke-linecap:square;stroke-linejoin:round;stroke-miterlimit:10;stroke-dasharray:none;stroke-opacity:1"
             d="m 692.184,459.16 h 44.109 v 30.43 h 44.109 v 161.078 h 44.114 v 360.072 h 44.109 v 520.99 h 44.109 v 315 h 44.114 v 142.04 h 44.112 v -113.89 h 44.11 v -205.34 h 44.11 v -233.97 h 44.11 v -290.76 h 44.11 v -67.52 h 44.11 v 146.59 h 44.11 V 771.07 h 44.11 v -9.761 h 44.11 v -3.579 h 44.11 v -12.531 l 88.23,-0.324 v -24.242 h 44.11 v 3.254 h 44.1 v 4.718 h 44.12 v -14.644 h 44.11 v 9.926 h 44.11 v 19.035 h 44.11 v -26.031 h 44.11 v -34.332 h 44.11 v -25.707 h 44.11 v -37.75 h 44.11 v -19.036 h 44.11 v -19.523 l 88.22,0.16 v -5.043 h 44.11 v -5.371 h 44.12 v 7.973 h 44.11 v -12.039 h 44.1 v 14.644 h 44.12 v 2.442 h 44.11 v 14.804 h 44.11 v 11.879 h 44.11 v 4.231 h 44.11 v 9.273 h 44.11 v 27.496 h 44.11 v 8.137 h 44.11 v 27.172 h 44.11 v -6.508 h 44.11 v 40.027 h 44.11 v 11.063 h 44.11 v 20.176 h 44.12 v 43.117 h 44.11 v 56.945 h 44.1 v 42.633 h 44.12 v 102.992 h 44.11 v 73.384 h 44.11 v 70.45 h 44.11 v 55.81 h 44.11 v 38.07 h 44.11 v -34.82 h 44.11 v -27.5 h 44.11 v -13.01 h 44.11 v -51.25 h 44.11 v -24.74 h 44.11 v -86.718 h 44.11 v -81.844 h 44.12 V 799.543 h 44.11 V 678.816 h 44.11 v -98.437 h 44.1 v -59.715 h 44.12 v -31.891 h 44.11 v -22.617 h 44.11 v -5.043 0" /></g></g><path
         id="path186"
         style="fill:none;stroke:#000000;stroke-width:8;stroke-linecap:square;stroke-linejoin:miter;stroke-miterlimit:10;stroke-dasharray:none;stroke-opacity:1"
         d="M 540,360 V 2534.4" /><path
         id="path188"
         style="fill:none;stroke:#000000;stroke-width:8;stroke-linecap:square;stroke-linejoin:miter;stroke-miterlimit:10;stroke-dasharray:none;stroke-opacity:1"
         d="M 540,360 H 3888" /></g></g></svg>