<?xml version="1.0" encoding="UTF-8" standalone="no"?>
<svg
   xmlns:dc="http://purl.org/dc/elements/1.1/"
   xmlns:cc="http://creativecommons.org/ns#"
   xmlns:rdf="http://www.w3.org/1999/02/22-rdf-syntax-ns#"
   xmlns:svg="http://www.w3.org/2000/svg"
   xmlns="http://www.w3.org/2000/svg"
   viewBox="0 0 768 528"
   height="528"
   width="768"
   xml:space="preserve"
   id="svg2"
   version="1.1"><metadata
     id="metadata8"><rdf:RDF><cc:Work
         rdf:about=""><dc:format>image/svg+xml</dc:format><dc:type
           rdf:resource="http://purl.org/dc/dcmitype/StillImage" /></cc:Work></rdf:RDF></metadata><defs
     id="defs6"><clipPath
       id="clipPath24"
       clipPathUnits="userSpaceOnUse"><path
         id="path22"
         d="M 720,495 H 5184 V 3485 H 720 Z" /></clipPath><clipPath
       id="clipPath40"
       clipPathUnits="userSpaceOnUse"><path
         id="path38"
         d="M 720,495 H 5184 V 3485 H 720 Z" /></clipPath><clipPath
       id="clipPath56"
       clipPathUnits="userSpaceOnUse"><path
         id="path54"
         d="M 720,495 H 5184 V 3485 H 720 Z" /></clipPath><clipPath
       id="clipPath72"
       clipPathUnits="userSpaceOnUse"><path
         id="path70"
         d="M 720,495 H 5184 V 3485 H 720 Z" /></clipPath><clipPath
       id="clipPath88"
       clipPathUnits="userSpaceOnUse"><path
         id="path86"
         d="M 720,495 H 5184 V 3485 H 720 Z" /></clipPath><clipPath
       id="clipPath104"
       clipPathUnits="userSpaceOnUse"><path
         id="path102"
         d="M 720,495 H 5184 V 3485 H 720 Z" /></clipPath><clipPath
       id="clipPath120"
       clipPathUnits="userSpaceOnUse"><path
         id="path118"
         d="M 720,495 H 5184 V 3485 H 720 Z" /></clipPath><clipPath
       id="clipPath148"
       clipPathUnits="userSpaceOnUse"><path
         id="path146"
         d="M 720,495 H 5184 V 3485 H 720 Z" /></clipPath><clipPath
       id="clipPath164"
       clipPathUnits="userSpaceOnUse"><path
         id="path162"
         d="M 720,495 H 5184 V 3485 H 720 Z" /></clipPath><clipPath
       id="clipPath180"
       clipPathUnits="userSpaceOnUse"><path
         id="path178"
         d="M 720,495 H 5184 V 3485 H 720 Z" /></clipPath><clipPath
       id="clipPath196"
       clipPathUnits="userSpaceOnUse"><path
         id="path194"
         d="M 720,495 H 5184 V 3485 H 720 Z" /></clipPath><clipPath
       id="clipPath212"
       clipPathUnits="userSpaceOnUse"><path
         id="path210"
         d="M 720,495 H 5184 V 3485 H 720 Z" /></clipPath><clipPath
       id="clipPath228"
       clipPathUnits="userSpaceOnUse"><path
         id="path226"
         d="M 720,495 H 5184 V 3485 H 720 Z" /></clipPath><clipPath
       id="clipPath244"
       clipPathUnits="userSpaceOnUse"><path
         id="path242"
         d="M 720,495 H 5184 V 3485 H 720 Z" /></clipPath><clipPath
       id="clipPath260"
       clipPathUnits="userSpaceOnUse"><path
         id="path258"
         d="M 720,495 H 5184 V 3485 H 720 Z" /></clipPath><clipPath
       id="clipPath288"
       clipPathUnits="userSpaceOnUse"><path
         id="path286"
         d="M 720,495 H 5184 V 3485 H 720 Z" /></clipPath></defs><g
     transform="matrix(1.3333333,0,0,-1.3333333,0,528)"
     id="g10"><g
       transform="scale(0.1)"
       id="g12"><path
         id="path14"
         style="fill:#ffffff;fill-opacity:1;fill-rule:nonzero;stroke:none"
         d="M 0,0 H 5760 V 3960 H 0 Z" /><path
         id="path16"
         style="fill:#eaeaf2;fill-opacity:1;fill-rule:nonzero;stroke:none"
         d="M 720,495 H 5184 V 3484.8 H 720 Z" /><g
         id="g18"><g
           clip-path="url(#clipPath24)"
           id="g20"><path
             id="path26"
             style="fill:none;stroke:#ffffff;stroke-width:10;stroke-linecap:round;stroke-linejoin:round;stroke-miterlimit:10;stroke-dasharray:none;stroke-opacity:1"
             d="M 1127.95,495 V 3484.8" /></g></g><g
         transform="scale(10)"
         id="g28"><text
           id="text32"
           style="font-variant:normal;font-weight:normal;font-size:10px;font-family:Arial;-inkscape-font-specification:Arial;writing-mode:lr-tb;fill:#262626;fill-opacity:1;fill-rule:nonzero;stroke:none"
           transform="matrix(1,0,0,-1,100.139,35.25)"><tspan
             id="tspan30"
             y="0"
             x="0 5.8400002 11.401721 14.179841 19.741562">−0.01</tspan></text>
</g><g
         id="g34"><g
           clip-path="url(#clipPath40)"
           id="g36"><path
             id="path42"
             style="fill:none;stroke:#ffffff;stroke-width:10;stroke-linecap:round;stroke-linejoin:round;stroke-miterlimit:10;stroke-dasharray:none;stroke-opacity:1"
             d="M 1804.32,495 V 3484.8" /></g></g><g
         transform="scale(10)"
         id="g44"><text
           id="text48"
           style="font-variant:normal;font-weight:normal;font-size:10px;font-family:Arial;-inkscape-font-specification:Arial;writing-mode:lr-tb;fill:#262626;fill-opacity:1;fill-rule:nonzero;stroke:none"
           transform="matrix(1,0,0,-1,170.698,35.25)"><tspan
             id="tspan46"
             y="0"
             x="0 5.5613308 8.3398409 13.901172">0.00</tspan></text>
</g><g
         id="g50"><g
           clip-path="url(#clipPath56)"
           id="g52"><path
             id="path58"
             style="fill:none;stroke:#ffffff;stroke-width:10;stroke-linecap:round;stroke-linejoin:round;stroke-miterlimit:10;stroke-dasharray:none;stroke-opacity:1"
             d="M 2480.68,495 V 3484.8" /></g></g><g
         transform="scale(10)"
         id="g60"><text
           id="text64"
           style="font-variant:normal;font-weight:normal;font-size:10px;font-family:Arial;-inkscape-font-specification:Arial;writing-mode:lr-tb;fill:#262626;fill-opacity:1;fill-rule:nonzero;stroke:none"
           transform="matrix(1,0,0,-1,238.334,35.25)"><tspan
             id="tspan62"
             y="0"
             x="0 5.5613184 8.3398294 13.901148">0.01</tspan></text>
</g><g
         id="g66"><g
           clip-path="url(#clipPath72)"
           id="g68"><path
             id="path74"
             style="fill:none;stroke:#ffffff;stroke-width:10;stroke-linecap:round;stroke-linejoin:round;stroke-miterlimit:10;stroke-dasharray:none;stroke-opacity:1"
             d="M 3157.05,495 V 3484.8" /></g></g><g
         transform="scale(10)"
         id="g76"><text
           id="text80"
           style="font-variant:normal;font-weight:normal;font-size:10px;font-family:Arial;-inkscape-font-specification:Arial;writing-mode:lr-tb;fill:#262626;fill-opacity:1;fill-rule:nonzero;stroke:none"
           transform="matrix(1,0,0,-1,305.97,35.25)"><tspan
             id="tspan78"
             y="0"
             x="0 5.5613184 8.3398294 13.901148">0.02</tspan></text>
</g><g
         id="g82"><g
           clip-path="url(#clipPath88)"
           id="g84"><path
             id="path90"
             style="fill:none;stroke:#ffffff;stroke-width:10;stroke-linecap:round;stroke-linejoin:round;stroke-miterlimit:10;stroke-dasharray:none;stroke-opacity:1"
             d="M 3833.41,495 V 3484.8" /></g></g><g
         transform="scale(10)"
         id="g92"><text
           id="text96"
           style="font-variant:normal;font-weight:normal;font-size:10px;font-family:Arial;-inkscape-font-specification:Arial;writing-mode:lr-tb;fill:#262626;fill-opacity:1;fill-rule:nonzero;stroke:none"
           transform="matrix(1,0,0,-1,373.607,35.25)"><tspan
             id="tspan94"
             y="0"
             x="0 5.5613184 8.3398294 13.901148">0.03</tspan></text>
</g><g
         id="g98"><g
           clip-path="url(#clipPath104)"
           id="g100"><path
             id="path106"
             style="fill:none;stroke:#ffffff;stroke-width:10;stroke-linecap:round;stroke-linejoin:round;stroke-miterlimit:10;stroke-dasharray:none;stroke-opacity:1"
             d="M 4509.77,495 V 3484.8" /></g></g><g
         transform="scale(10)"
         id="g108"><text
           id="text112"
           style="font-variant:normal;font-weight:normal;font-size:10px;font-family:Arial;-inkscape-font-specification:Arial;writing-mode:lr-tb;fill:#262626;fill-opacity:1;fill-rule:nonzero;stroke:none"
           transform="matrix(1,0,0,-1,441.243,35.25)"><tspan
             id="tspan110"
             y="0"
             x="0 5.5613184 8.3398533 13.901172">0.04</tspan></text>
</g><g
         id="g114"><g
           clip-path="url(#clipPath120)"
           id="g116"><path
             id="path122"
             style="fill:none;stroke:#ffffff;stroke-width:10;stroke-linecap:round;stroke-linejoin:round;stroke-miterlimit:10;stroke-dasharray:none;stroke-opacity:1"
             d="M 5186.14,495 V 3484.8" /></g></g><g
         transform="scale(10)"
         id="g124"><text
           id="text128"
           style="font-variant:normal;font-weight:normal;font-size:10px;font-family:Arial;-inkscape-font-specification:Arial;writing-mode:lr-tb;fill:#262626;fill-opacity:1;fill-rule:nonzero;stroke:none"
           transform="matrix(1,0,0,-1,508.879,35.25)"><tspan
             id="tspan126"
             y="0"
             x="0 5.5617089 8.3398533 13.901563">0.05</tspan></text>
<text
           id="text132"
           style="font-variant:normal;font-weight:normal;font-size:11px;font-family:Arial;-inkscape-font-specification:Arial;writing-mode:lr-tb;fill:#262626;fill-opacity:1;fill-rule:nonzero;stroke:none"
           transform="matrix(1,0,0,-1,274.2,21.1562)"><tspan
             id="tspan130"
             y="0"
             x="0">U</tspan></text>
<text
           id="text136"
           style="font-variant:normal;font-weight:normal;font-size:7.69999981px;font-family:Arial;-inkscape-font-specification:Arial;writing-mode:lr-tb;fill:#262626;fill-opacity:1;fill-rule:nonzero;stroke:none"
           transform="matrix(1,0,0,-1,282.25117,19.35151)"><tspan
             id="tspan134"
             y="0"
             x="0 5.9667921 10.854681">GS3</tspan></text>
<text
           id="text140"
           style="font-variant:normal;font-weight:normal;font-size:11px;font-family:Arial;-inkscape-font-specification:Arial;writing-mode:lr-tb;fill:#262626;fill-opacity:1;fill-rule:nonzero;stroke:none"
           transform="matrix(1,0,0,-1,298.30547,21.1562)"><tspan
             id="tspan138"
             y="0"
             x="0 3.0562422 6.7192421 14.056242"> (V)</tspan></text>
</g><g
         id="g142"><g
           clip-path="url(#clipPath148)"
           id="g144"><path
             id="path150"
             style="fill:none;stroke:#ffffff;stroke-width:10;stroke-linecap:round;stroke-linejoin:round;stroke-miterlimit:10;stroke-dasharray:none;stroke-opacity:1"
             d="M 720,630.898 H 5184" /></g></g><g
         transform="scale(10)"
         id="g152"><text
           id="text156"
           style="font-variant:normal;font-weight:normal;font-size:10px;font-family:Arial;-inkscape-font-specification:Arial;writing-mode:lr-tb;fill:#262626;fill-opacity:1;fill-rule:nonzero;stroke:none"
           transform="matrix(1,0,0,-1,51.0938,59.4648)"><tspan
             id="tspan154"
             y="0"
             x="0 5.5617213 8.3398476">0.0</tspan></text>
</g><g
         id="g158"><g
           clip-path="url(#clipPath164)"
           id="g160"><path
             id="path166"
             style="fill:none;stroke:#ffffff;stroke-width:10;stroke-linecap:round;stroke-linejoin:round;stroke-miterlimit:10;stroke-dasharray:none;stroke-opacity:1"
             d="M 720,1012.54 H 5184" /></g></g><g
         transform="scale(10)"
         id="g168"><text
           id="text172"
           style="font-variant:normal;font-weight:normal;font-size:10px;font-family:Arial;-inkscape-font-specification:Arial;writing-mode:lr-tb;fill:#262626;fill-opacity:1;fill-rule:nonzero;stroke:none"
           transform="matrix(1,0,0,-1,51.0938,97.6289)"><tspan
             id="tspan170"
             y="0"
             x="0 5.5617213 8.3398476">0.2</tspan></text>
</g><g
         id="g174"><g
           clip-path="url(#clipPath180)"
           id="g176"><path
             id="path182"
             style="fill:none;stroke:#ffffff;stroke-width:10;stroke-linecap:round;stroke-linejoin:round;stroke-miterlimit:10;stroke-dasharray:none;stroke-opacity:1"
             d="M 720,1394.18 H 5184" /></g></g><g
         transform="scale(10)"
         id="g184"><text
           id="text188"
           style="font-variant:normal;font-weight:normal;font-size:10px;font-family:Arial;-inkscape-font-specification:Arial;writing-mode:lr-tb;fill:#262626;fill-opacity:1;fill-rule:nonzero;stroke:none"
           transform="matrix(1,0,0,-1,51.0938,135.793)"><tspan
             id="tspan186"
             y="0"
             x="0 5.5617213 8.3398476">0.4</tspan></text>
</g><g
         id="g190"><g
           clip-path="url(#clipPath196)"
           id="g192"><path
             id="path198"
             style="fill:none;stroke:#ffffff;stroke-width:10;stroke-linecap:round;stroke-linejoin:round;stroke-miterlimit:10;stroke-dasharray:none;stroke-opacity:1"
             d="M 720,1775.82 H 5184" /></g></g><g
         transform="scale(10)"
         id="g200"><text
           id="text204"
           style="font-variant:normal;font-weight:normal;font-size:10px;font-family:Arial;-inkscape-font-specification:Arial;writing-mode:lr-tb;fill:#262626;fill-opacity:1;fill-rule:nonzero;stroke:none"
           transform="matrix(1,0,0,-1,51.0938,173.957)"><tspan
             id="tspan202"
             y="0"
             x="0 5.5617213 8.3398476">0.6</tspan></text>
</g><g
         id="g206"><g
           clip-path="url(#clipPath212)"
           id="g208"><path
             id="path214"
             style="fill:none;stroke:#ffffff;stroke-width:10;stroke-linecap:round;stroke-linejoin:round;stroke-miterlimit:10;stroke-dasharray:none;stroke-opacity:1"
             d="M 720,2157.46 H 5184" /></g></g><g
         transform="scale(10)"
         id="g216"><text
           id="text220"
           style="font-variant:normal;font-weight:normal;font-size:10px;font-family:Arial;-inkscape-font-specification:Arial;writing-mode:lr-tb;fill:#262626;fill-opacity:1;fill-rule:nonzero;stroke:none"
           transform="matrix(1,0,0,-1,51.0938,212.121)"><tspan
             id="tspan218"
             y="0"
             x="0 5.5617213 8.3398476">0.8</tspan></text>
</g><g
         id="g222"><g
           clip-path="url(#clipPath228)"
           id="g224"><path
             id="path230"
             style="fill:none;stroke:#ffffff;stroke-width:10;stroke-linecap:round;stroke-linejoin:round;stroke-miterlimit:10;stroke-dasharray:none;stroke-opacity:1"
             d="M 720,2539.1 H 5184" /></g></g><g
         transform="scale(10)"
         id="g232"><text
           id="text236"
           style="font-variant:normal;font-weight:normal;font-size:10px;font-family:Arial;-inkscape-font-specification:Arial;writing-mode:lr-tb;fill:#262626;fill-opacity:1;fill-rule:nonzero;stroke:none"
           transform="matrix(1,0,0,-1,51.0938,250.285)"><tspan
             id="tspan234"
             y="0"
             x="0 5.5617213 8.3398476">1.0</tspan></text>
</g><g
         id="g238"><g
           clip-path="url(#clipPath244)"
           id="g240"><path
             id="path246"
             style="fill:none;stroke:#ffffff;stroke-width:10;stroke-linecap:round;stroke-linejoin:round;stroke-miterlimit:10;stroke-dasharray:none;stroke-opacity:1"
             d="M 720,2920.74 H 5184" /></g></g><g
         transform="scale(10)"
         id="g248"><text
           id="text252"
           style="font-variant:normal;font-weight:normal;font-size:10px;font-family:Arial;-inkscape-font-specification:Arial;writing-mode:lr-tb;fill:#262626;fill-opacity:1;fill-rule:nonzero;stroke:none"
           transform="matrix(1,0,0,-1,51.0938,288.449)"><tspan
             id="tspan250"
             y="0"
             x="0 5.5617213 8.3398476">1.2</tspan></text>
</g><g
         id="g254"><g
           clip-path="url(#clipPath260)"
           id="g256"><path
             id="path262"
             style="fill:none;stroke:#ffffff;stroke-width:10;stroke-linecap:round;stroke-linejoin:round;stroke-miterlimit:10;stroke-dasharray:none;stroke-opacity:1"
             d="M 720,3302.38 H 5184" /></g></g><g
         transform="scale(10)"
         id="g264"><text
           id="text268"
           style="font-variant:normal;font-weight:normal;font-size:10px;font-family:Arial;-inkscape-font-specification:Arial;writing-mode:lr-tb;fill:#262626;fill-opacity:1;fill-rule:nonzero;stroke:none"
           transform="matrix(1,0,0,-1,51.0938,326.613)"><tspan
             id="tspan266"
             y="0"
             x="0 5.5617213 8.3398476">1.4</tspan></text>
<text
           id="text272"
           style="font-variant:normal;font-weight:normal;font-size:11px;font-family:Arial;-inkscape-font-specification:Arial;writing-mode:lr-tb;fill:#262626;fill-opacity:1;fill-rule:nonzero;stroke:none"
           transform="matrix(0,1,1,0,43.1094,176.99)"><tspan
             id="tspan270"
             y="0"
             x="0">I</tspan></text>
<text
           id="text276"
           style="font-variant:normal;font-weight:normal;font-size:7.69999981px;font-family:Arial;-inkscape-font-specification:Arial;writing-mode:lr-tb;fill:#262626;fill-opacity:1;fill-rule:nonzero;stroke:none"
           transform="matrix(0,1,1,0,44.91409,180.23414)"><tspan
             id="tspan274"
             y="0"
             x="0 5.9289999 10.816889">DS3</tspan></text>
<text
           id="text280"
           style="font-variant:normal;font-weight:normal;font-size:11px;font-family:Arial;-inkscape-font-specification:Arial;writing-mode:lr-tb;fill:#262626;fill-opacity:1;fill-rule:nonzero;stroke:none"
           transform="matrix(0,1,1,0,43.1094,196.25094)"><tspan
             id="tspan278"
             y="0"
             x="0 3.0562544 6.7192545 12.836842 20.173841"> (nA)</tspan></text>
</g><g
         id="g282"><g
           clip-path="url(#clipPath288)"
           id="g284"><path
             id="path290"
             style="fill:none;stroke:#053061;stroke-width:17.5;stroke-linecap:round;stroke-linejoin:round;stroke-miterlimit:10;stroke-dasharray:none;stroke-opacity:1"
             d="m 4981.09,2817.66 -85.3,-128.24 -85.31,-124.37 -85.31,-120.5 -85.31,-116.62 -85.31,-112.75 -81.24,-103.77 -81.24,-100.26 -81.25,-96.74 -81.25,-93.23 -81.24,-89.71 -77.18,-81.97 -77.19,-78.8 -77.18,-75.62 -77.18,-72.45 -77.18,-69.28 -73.12,-62.71 -73.12,-59.86 -73.12,-57.01 -73.12,-54.17 -73.12,-51.32 -69.06,-45.85 -69.06,-43.313 -69.06,-40.773 -69.06,-38.231 -69.06,-35.695 -69.05,-33.152 -69.06,-30.614 -69.06,-28.074 -64.99,-24.101 -65,-21.852 -65,-19.605 -64.99,-17.352 -65,-15.102 -64.99,-12.855 -65,-10.602 -65,-8.355 -64.99,-6.106 -65,-3.851 -65,-1.606 -219.35,-0.293 H 922.91 v 0" /><path
             id="path292"
             style="fill:none;stroke:#246aae;stroke-width:17.5;stroke-linecap:round;stroke-linejoin:round;stroke-miterlimit:10;stroke-dasharray:none;stroke-opacity:1"
             d="m 4981.09,2899.42 -85.3,-135.56 -85.31,-131.39 -85.31,-127.21 -81.24,-117.27 -81.25,-113.48 -81.25,-109.69 -81.24,-105.91 -81.24,-102.11 -77.19,-93.5 -77.18,-90.09 -77.18,-86.66 -77.19,-83.24 -73.12,-75.71 -73.12,-72.64 -73.12,-69.57 -73.12,-66.5 -73.12,-63.44 -73.12,-60.36 -69.06,-54.2 -69.05,-51.45 -69.06,-48.72 -69.06,-45.982 -69.06,-43.246 -69.06,-40.508 -64.99,-35.625 -65,-33.203 -64.99,-30.773 -65,-28.352 -65,-25.926 -64.99,-23.503 -65,-21.079 -64.99,-18.652 -65,-16.226 -65,-13.805 -60.93,-10.738 -60.93,-8.61 -60.94,-6.476 -60.93,-4.348 -60.93,-2.215 -93.43,-0.555 H 922.91 v 0" /><path
             id="path294"
             style="fill:none;stroke:#529dc8;stroke-width:17.5;stroke-linecap:round;stroke-linejoin:round;stroke-miterlimit:10;stroke-dasharray:none;stroke-opacity:1"
             d="m 4981.09,2976.15 -85.3,-142.85 -85.31,-138.37 -81.25,-127.61 -81.24,-123.53 -81.25,-119.46 -81.24,-115.39 -77.18,-105.85 -77.19,-102.17 -77.18,-98.5 -77.18,-94.82 -73.12,-86.44 -73.12,-83.15 -73.12,-79.85 -73.12,-76.54 -73.13,-73.26 -69.05,-66.15 -69.06,-63.21 -69.06,-60.27 -69.06,-57.32 -69.05,-54.39 -69.06,-51.44 -65,-45.73 -65,-43.127 -64.99,-40.516 -65,-37.914 -64.99,-35.305 -65,-32.699 -65,-30.094 -60.93,-25.847 -60.93,-23.555 -60.94,-21.266 -60.93,-18.976 -60.93,-16.684 -60.94,-14.394 -60.93,-12.106 -60.93,-9.812 -60.94,-7.524 -60.93,-5.234 -60.94,-2.942 -73.12,-0.957 H 922.91 v 0" /><path
             id="path296"
             style="fill:none;stroke:#a7d0e4;stroke-width:17.5;stroke-linecap:round;stroke-linejoin:round;stroke-miterlimit:10;stroke-dasharray:none;stroke-opacity:1"
             d="m 4981.09,3047.54 -81.24,-143.07 -81.25,-138.7 -81.24,-134.33 -81.25,-129.97 -77.18,-119.43 -77.18,-115.49 -77.19,-111.54 -77.18,-107.61 -77.18,-103.67 -73.12,-94.58 -73.12,-91.04 -73.12,-87.5 -73.12,-83.97 -73.12,-80.44 -69.06,-72.72 -69.06,-69.56 -69.06,-66.41 -69.06,-63.26 -69.06,-60.1 -64.99,-53.69 -65,-50.89 -64.99,-48.09 -65,-45.308 -65,-42.512 -64.99,-39.715 -60.94,-34.699 -60.93,-32.238 -60.93,-29.789 -60.94,-27.328 -60.93,-24.875 -60.93,-22.418 -60.94,-19.965 -60.93,-17.508 -60.93,-15.055 -56.88,-11.832 -56.87,-9.695 -56.87,-7.555 -56.87,-5.418 -56.87,-3.277 -65,-1.395 H 922.91 v 0" /><path
             id="path298"
             style="fill:none;stroke:#e2edf3;stroke-width:17.5;stroke-linecap:round;stroke-linejoin:round;stroke-miterlimit:10;stroke-dasharray:none;stroke-opacity:1"
             d="m 4981.09,3113.28 -81.24,-149.92 -81.25,-145.24 -81.24,-140.57 -77.18,-129.22 -77.19,-125.01 -77.18,-120.79 -77.18,-116.58 -73.13,-106.55 -73.11,-102.77 -73.12,-99 -73.13,-95.21 -73.12,-91.42 -69.06,-82.88 -69.05,-79.5 -69.06,-76.13 -69.06,-72.75 -69.06,-69.38 -64.99,-62.22 -65,-59.23 -64.99,-56.25 -65,-53.25 -65,-50.26 -60.93,-44.412 -60.93,-41.785 -60.94,-39.156 -60.93,-36.527 -60.93,-33.907 -60.94,-31.277 -60.93,-28.648 -56.87,-24.375 -56.87,-22.083 -56.87,-19.792 -56.88,-17.508 -56.87,-15.223 -56.87,-12.93 -56.87,-10.644 -56.87,-8.356 -56.87,-6.07 -56.88,-3.777 -56.87,-1.492 -296.54,-0.29 H 922.91 v 0" /><path
             id="path300"
             style="fill:none;stroke:#fbe7dc;stroke-width:17.5;stroke-linecap:round;stroke-linejoin:round;stroke-miterlimit:10;stroke-dasharray:none;stroke-opacity:1"
             d="m 4981.09,3173.11 -81.24,-156.68 -81.25,-151.69 -77.18,-139.49 -77.19,-135 -77.18,-130.5 -77.18,-126 -73.12,-115.21 -73.12,-111.19 -73.12,-107.14 -73.12,-103.12 -69.06,-93.67 -69.06,-90.08 -69.06,-86.47 -69.05,-82.87 -69.06,-79.28 -65,-71.32 -64.99,-68.13 -65,-64.95 -65,-61.75 -64.99,-58.57 -60.94,-52.01 -60.93,-49.2 -60.93,-46.403 -60.94,-43.598 -60.93,-40.797 -60.93,-37.992 -56.88,-32.934 -56.87,-30.488 -56.87,-28.047 -56.87,-25.605 -56.87,-23.164 -56.87,-20.723 -56.87,-18.281 -56.87,-15.84 -56.87,-13.395 -56.88,-10.957 -52.81,-7.984 -52.81,-5.883 -52.8,-3.773 -52.81,-1.672 -142.18,-0.356 H 922.91 v 0" /><path
             id="path302"
             style="fill:none;stroke:#f7b799;stroke-width:17.5;stroke-linecap:round;stroke-linejoin:round;stroke-miterlimit:10;stroke-dasharray:none;stroke-opacity:1"
             d="m 4981.09,3226.79 -81.24,-163.34 -77.19,-150.25 -77.18,-145.47 -77.18,-140.67 -77.18,-135.88 -73.12,-124.31 -73.12,-120.01 -73.13,-115.72 -73.12,-111.41 -69.06,-101.28 -69.05,-97.45 -69.06,-93.61 -69.06,-89.77 -64.99,-80.99 -65,-77.59 -65,-74.2 -64.99,-70.8 -65,-67.4 -60.93,-60.1 -60.94,-57.13 -60.93,-54.13 -60.93,-51.15 -60.94,-48.165 -60.93,-45.176 -56.87,-39.473 -56.87,-36.871 -56.87,-34.273 -56.87,-31.672 -56.88,-29.07 -56.87,-26.469 -56.87,-23.867 -52.81,-19.836 -52.81,-17.594 -52.81,-15.348 -52.81,-13.109 -52.8,-10.863 -52.82,-8.625 -52.81,-6.379 -52.8,-4.141 -52.81,-1.894 -113.74,-0.407 H 922.91 v 0" /><path
             id="path304"
             style="fill:none;stroke:#dc6e57;stroke-width:17.5;stroke-linecap:round;stroke-linejoin:round;stroke-miterlimit:10;stroke-dasharray:none;stroke-opacity:1"
             d="m 4981.09,3274.09 -77.18,-161.5 -77.18,-156.43 -77.19,-151.32 -73.12,-138.67 -73.12,-134.1 -73.12,-129.52 -73.12,-124.96 -73.12,-120.38 -69.06,-109.5 -69.06,-105.43 -69.05,-101.35 -69.06,-97.27 -65,-87.83 -64.99,-84.22 -65,-80.6 -64.99,-76.99 -65,-73.39 -60.93,-65.52 -60.94,-62.34 -60.93,-59.17 -60.93,-56 -60.94,-52.82 -56.87,-46.44 -56.87,-43.676 -56.87,-40.91 -56.88,-38.145 -56.87,-35.379 -56.87,-32.617 -52.81,-27.812 -52.81,-25.426 -52.8,-23.043 -52.82,-20.66 -52.8,-18.277 -52.81,-15.891 -52.81,-13.508 -52.81,-11.125 -52.81,-8.742 -52.81,-6.356 -52.81,-3.976 -52.81,-1.59 -243.73,-0.309 H 922.91 v 0" /><path
             id="path306"
             style="fill:none;stroke:#b61f2e;stroke-width:17.5;stroke-linecap:round;stroke-linejoin:round;stroke-miterlimit:10;stroke-dasharray:none;stroke-opacity:1"
             d="m 4981.09,3314.86 -77.18,-167.6 -77.18,-162.19 -73.12,-148.66 -73.13,-143.82 -73.12,-138.97 -73.11,-134.12 -69.06,-122.21 -69.06,-117.9 -69.06,-113.56 -69.06,-109.24 -69.06,-104.92 -64.99,-94.79 -65,-90.96 -65,-87.13 -64.99,-83.3 -60.93,-74.61 -60.94,-71.25 -60.93,-67.88 -60.94,-64.5 -60.93,-61.15 -56.87,-54.03 -56.87,-51.09 -56.87,-48.16 -56.87,-45.23 -56.87,-42.293 -56.88,-39.359 -52.8,-33.922 -52.82,-31.395 -52.81,-28.863 -52.8,-26.336 -52.81,-23.805 -52.81,-21.277 -52.81,-18.746 -52.81,-16.215 -48.75,-12.727 -48.74,-10.57 -48.75,-8.414 -48.75,-6.258 -48.75,-4.105 -48.74,-1.95 -97.49,-0.457 H 922.91 v 0" /><path
             id="path308"
             style="fill:none;stroke:#67001f;stroke-width:17.5;stroke-linecap:round;stroke-linejoin:round;stroke-miterlimit:10;stroke-dasharray:none;stroke-opacity:1"
             d="m 4981.09,3348.9 -77.18,-173.51 -73.12,-159.1 -73.12,-153.97 -73.12,-148.83 -73.12,-143.69 -69.06,-131 -69.06,-126.41 -69.06,-121.82 -69.05,-117.25 -65,-106.17 -65,-102.1 -64.99,-98.05 -65,-93.99 -65,-89.93 -60.93,-80.63 -60.93,-77.05 -60.94,-73.49 -60.93,-69.93 -60.93,-66.35 -56.87,-58.72 -56.88,-55.6 -56.87,-52.5 -56.87,-49.392 -56.87,-46.281 -52.81,-40.199 -52.81,-37.516 -52.81,-34.836 -52.81,-32.16 -52.81,-29.477 -52.8,-26.801 -48.75,-22.359 -48.75,-20.078 -48.75,-17.793 -48.74,-15.512 -48.75,-13.226 -48.75,-10.946 -48.74,-8.66 -48.75,-6.379 -48.75,-4.097 -48.75,-1.813 -125.93,-0.387 H 922.91 v 0" /></g></g></g></g></svg>