<?xml version="1.0" encoding="UTF-8" standalone="no"?>
<svg
   xmlns:dc="http://purl.org/dc/elements/1.1/"
   xmlns:cc="http://creativecommons.org/ns#"
   xmlns:rdf="http://www.w3.org/1999/02/22-rdf-syntax-ns#"
   xmlns:svg="http://www.w3.org/2000/svg"
   xmlns="http://www.w3.org/2000/svg"
   viewBox="0 0 768 528"
   height="528"
   width="768"
   xml:space="preserve"
   id="svg2"
   version="1.1"><metadata
     id="metadata8"><rdf:RDF><cc:Work
         rdf:about=""><dc:format>image/svg+xml</dc:format><dc:type
           rdf:resource="http://purl.org/dc/dcmitype/StillImage" /></cc:Work></rdf:RDF></metadata><defs
     id="defs6"><clipPath
       id="clipPath24"
       clipPathUnits="userSpaceOnUse"><path
         id="path22"
         d="M 720,495 H 5184 V 3485 H 720 Z" /></clipPath><clipPath
       id="clipPath40"
       clipPathUnits="userSpaceOnUse"><path
         id="path38"
         d="M 720,495 H 5184 V 3485 H 720 Z" /></clipPath><clipPath
       id="clipPath56"
       clipPathUnits="userSpaceOnUse"><path
         id="path54"
         d="M 720,495 H 5184 V 3485 H 720 Z" /></clipPath><clipPath
       id="clipPath72"
       clipPathUnits="userSpaceOnUse"><path
         id="path70"
         d="M 720,495 H 5184 V 3485 H 720 Z" /></clipPath><clipPath
       id="clipPath88"
       clipPathUnits="userSpaceOnUse"><path
         id="path86"
         d="M 720,495 H 5184 V 3485 H 720 Z" /></clipPath><clipPath
       id="clipPath104"
       clipPathUnits="userSpaceOnUse"><path
         id="path102"
         d="M 720,495 H 5184 V 3485 H 720 Z" /></clipPath><clipPath
       id="clipPath124"
       clipPathUnits="userSpaceOnUse"><path
         id="path122"
         d="M 720,495 H 5184 V 3485 H 720 Z" /></clipPath><clipPath
       id="clipPath140"
       clipPathUnits="userSpaceOnUse"><path
         id="path138"
         d="M 720,495 H 5184 V 3485 H 720 Z" /></clipPath><clipPath
       id="clipPath156"
       clipPathUnits="userSpaceOnUse"><path
         id="path154"
         d="M 720,495 H 5184 V 3485 H 720 Z" /></clipPath><clipPath
       id="clipPath172"
       clipPathUnits="userSpaceOnUse"><path
         id="path170"
         d="M 720,495 H 5184 V 3485 H 720 Z" /></clipPath><clipPath
       id="clipPath188"
       clipPathUnits="userSpaceOnUse"><path
         id="path186"
         d="M 720,495 H 5184 V 3485 H 720 Z" /></clipPath><clipPath
       id="clipPath204"
       clipPathUnits="userSpaceOnUse"><path
         id="path202"
         d="M 720,495 H 5184 V 3485 H 720 Z" /></clipPath><clipPath
       id="clipPath224"
       clipPathUnits="userSpaceOnUse"><path
         id="path222"
         d="M 720,495 H 5184 V 3485 H 720 Z" /></clipPath></defs><g
     transform="matrix(1.3333333,0,0,-1.3333333,0,528)"
     id="g10"><g
       transform="scale(0.1)"
       id="g12"><path
         id="path14"
         style="fill:#ffffff;fill-opacity:1;fill-rule:nonzero;stroke:none"
         d="M 0,0 H 5760 V 3960 H 0 Z" /><path
         id="path16"
         style="fill:#eaeaf2;fill-opacity:1;fill-rule:nonzero;stroke:none"
         d="M 720,495 H 5184 V 3484.8 H 720 Z" /><g
         id="g18"><g
           clip-path="url(#clipPath24)"
           id="g20"><path
             id="path26"
             style="fill:none;stroke:#ffffff;stroke-width:10;stroke-linecap:round;stroke-linejoin:round;stroke-miterlimit:10;stroke-dasharray:none;stroke-opacity:1"
             d="M 753.816,495 V 3484.8" /></g></g><g
         transform="scale(10)"
         id="g28"><text
           id="text32"
           style="font-variant:normal;font-weight:normal;font-size:10px;font-family:Arial;-inkscape-font-specification:Arial;writing-mode:lr-tb;fill:#262626;fill-opacity:1;fill-rule:nonzero;stroke:none"
           transform="matrix(1,0,0,-1,72.6004,35.25)"><tspan
             id="tspan30"
             y="0"
             x="0">5</tspan></text>
</g><g
         id="g34"><g
           clip-path="url(#clipPath40)"
           id="g36"><path
             id="path42"
             style="fill:none;stroke:#ffffff;stroke-width:10;stroke-linecap:round;stroke-linejoin:round;stroke-miterlimit:10;stroke-dasharray:none;stroke-opacity:1"
             d="M 1599.27,495 V 3484.8" /></g></g><g
         transform="scale(10)"
         id="g44"><text
           id="text48"
           style="font-variant:normal;font-weight:normal;font-size:10px;font-family:Arial;-inkscape-font-specification:Arial;writing-mode:lr-tb;fill:#262626;fill-opacity:1;fill-rule:nonzero;stroke:none"
           transform="matrix(1,0,0,-1,154.365,35.25)"><tspan
             id="tspan46"
             y="0"
             x="0 5.5613308">10</tspan></text>
</g><g
         id="g50"><g
           clip-path="url(#clipPath56)"
           id="g52"><path
             id="path58"
             style="fill:none;stroke:#ffffff;stroke-width:10;stroke-linecap:round;stroke-linejoin:round;stroke-miterlimit:10;stroke-dasharray:none;stroke-opacity:1"
             d="M 2444.73,495 V 3484.8" /></g></g><g
         transform="scale(10)"
         id="g60"><text
           id="text64"
           style="font-variant:normal;font-weight:normal;font-size:10px;font-family:Arial;-inkscape-font-specification:Arial;writing-mode:lr-tb;fill:#262626;fill-opacity:1;fill-rule:nonzero;stroke:none"
           transform="matrix(1,0,0,-1,238.91,35.25)"><tspan
             id="tspan62"
             y="0"
             x="0 5.5617089">15</tspan></text>
</g><g
         id="g66"><g
           clip-path="url(#clipPath72)"
           id="g68"><path
             id="path74"
             style="fill:none;stroke:#ffffff;stroke-width:10;stroke-linecap:round;stroke-linejoin:round;stroke-miterlimit:10;stroke-dasharray:none;stroke-opacity:1"
             d="M 3290.18,495 V 3484.8" /></g></g><g
         transform="scale(10)"
         id="g76"><text
           id="text80"
           style="font-variant:normal;font-weight:normal;font-size:10px;font-family:Arial;-inkscape-font-specification:Arial;writing-mode:lr-tb;fill:#262626;fill-opacity:1;fill-rule:nonzero;stroke:none"
           transform="matrix(1,0,0,-1,323.456,35.25)"><tspan
             id="tspan78"
             y="0"
             x="0 5.5613184">20</tspan></text>
</g><g
         id="g82"><g
           clip-path="url(#clipPath88)"
           id="g84"><path
             id="path90"
             style="fill:none;stroke:#ffffff;stroke-width:10;stroke-linecap:round;stroke-linejoin:round;stroke-miterlimit:10;stroke-dasharray:none;stroke-opacity:1"
             d="M 4135.64,495 V 3484.8" /></g></g><g
         transform="scale(10)"
         id="g92"><text
           id="text96"
           style="font-variant:normal;font-weight:normal;font-size:10px;font-family:Arial;-inkscape-font-specification:Arial;writing-mode:lr-tb;fill:#262626;fill-opacity:1;fill-rule:nonzero;stroke:none"
           transform="matrix(1,0,0,-1,408.001,35.25)"><tspan
             id="tspan94"
             y="0"
             x="0 5.5613184">25</tspan></text>
</g><g
         id="g98"><g
           clip-path="url(#clipPath104)"
           id="g100"><path
             id="path106"
             style="fill:none;stroke:#ffffff;stroke-width:10;stroke-linecap:round;stroke-linejoin:round;stroke-miterlimit:10;stroke-dasharray:none;stroke-opacity:1"
             d="M 4981.09,495 V 3484.8" /></g></g><g
         transform="scale(10)"
         id="g108"><text
           id="text112"
           style="font-variant:normal;font-weight:normal;font-size:10px;font-family:Arial;-inkscape-font-specification:Arial;writing-mode:lr-tb;fill:#262626;fill-opacity:1;fill-rule:nonzero;stroke:none"
           transform="matrix(1,0,0,-1,492.546,35.25)"><tspan
             id="tspan110"
             y="0"
             x="0 5.5617089">30</tspan></text>
<text
           id="text116"
           style="font-variant:normal;font-weight:normal;font-size:11px;font-family:Arial;-inkscape-font-specification:Arial;writing-mode:lr-tb;fill:#262626;fill-opacity:1;fill-rule:nonzero;stroke:none"
           transform="matrix(1,0,0,-1,263.067,21.2031)"><tspan
             id="tspan114"
             y="0"
             x="0 7.3369999 13.454587 19.572174 23.235174 29.35276 34.85276 37.909004 41.572002 47.072002 53.18959 60.526588">Energy (keV)</tspan></text>
</g><g
         id="g118"><g
           clip-path="url(#clipPath124)"
           id="g120"><path
             id="path126"
             style="fill:none;stroke:#ffffff;stroke-width:10;stroke-linecap:round;stroke-linejoin:round;stroke-miterlimit:10;stroke-dasharray:none;stroke-opacity:1"
             d="M 720,630.898 H 5184" /></g></g><g
         transform="scale(10)"
         id="g128"><text
           id="text132"
           style="font-variant:normal;font-weight:normal;font-size:10px;font-family:Arial;-inkscape-font-specification:Arial;writing-mode:lr-tb;fill:#262626;fill-opacity:1;fill-rule:nonzero;stroke:none"
           transform="matrix(1,0,0,-1,59.4375,59.4648)"><tspan
             id="tspan130"
             y="0"
             x="0">0</tspan></text>
</g><g
         id="g134"><g
           clip-path="url(#clipPath140)"
           id="g136"><path
             id="path142"
             style="fill:none;stroke:#ffffff;stroke-width:10;stroke-linecap:round;stroke-linejoin:round;stroke-miterlimit:10;stroke-dasharray:none;stroke-opacity:1"
             d="M 720,1157.47 H 5184" /></g></g><g
         transform="scale(10)"
         id="g144"><text
           id="text148"
           style="font-variant:normal;font-weight:normal;font-size:10px;font-family:Arial;-inkscape-font-specification:Arial;writing-mode:lr-tb;fill:#262626;fill-opacity:1;fill-rule:nonzero;stroke:none"
           transform="matrix(1,0,0,-1,53.875,112.122)"><tspan
             id="tspan146"
             y="0"
             x="0 5.5617213">20</tspan></text>
</g><g
         id="g150"><g
           clip-path="url(#clipPath156)"
           id="g152"><path
             id="path158"
             style="fill:none;stroke:#ffffff;stroke-width:10;stroke-linecap:round;stroke-linejoin:round;stroke-miterlimit:10;stroke-dasharray:none;stroke-opacity:1"
             d="M 720,1684.04 H 5184" /></g></g><g
         transform="scale(10)"
         id="g160"><text
           id="text164"
           style="font-variant:normal;font-weight:normal;font-size:10px;font-family:Arial;-inkscape-font-specification:Arial;writing-mode:lr-tb;fill:#262626;fill-opacity:1;fill-rule:nonzero;stroke:none"
           transform="matrix(1,0,0,-1,53.875,164.779)"><tspan
             id="tspan162"
             y="0"
             x="0 5.5617213">40</tspan></text>
</g><g
         id="g166"><g
           clip-path="url(#clipPath172)"
           id="g168"><path
             id="path174"
             style="fill:none;stroke:#ffffff;stroke-width:10;stroke-linecap:round;stroke-linejoin:round;stroke-miterlimit:10;stroke-dasharray:none;stroke-opacity:1"
             d="M 720,2210.61 H 5184" /></g></g><g
         transform="scale(10)"
         id="g176"><text
           id="text180"
           style="font-variant:normal;font-weight:normal;font-size:10px;font-family:Arial;-inkscape-font-specification:Arial;writing-mode:lr-tb;fill:#262626;fill-opacity:1;fill-rule:nonzero;stroke:none"
           transform="matrix(1,0,0,-1,53.875,217.436)"><tspan
             id="tspan178"
             y="0"
             x="0 5.5617213">60</tspan></text>
</g><g
         id="g182"><g
           clip-path="url(#clipPath188)"
           id="g184"><path
             id="path190"
             style="fill:none;stroke:#ffffff;stroke-width:10;stroke-linecap:round;stroke-linejoin:round;stroke-miterlimit:10;stroke-dasharray:none;stroke-opacity:1"
             d="M 720,2737.18 H 5184" /></g></g><g
         transform="scale(10)"
         id="g192"><text
           id="text196"
           style="font-variant:normal;font-weight:normal;font-size:10px;font-family:Arial;-inkscape-font-specification:Arial;writing-mode:lr-tb;fill:#262626;fill-opacity:1;fill-rule:nonzero;stroke:none"
           transform="matrix(1,0,0,-1,53.875,270.093)"><tspan
             id="tspan194"
             y="0"
             x="0 5.5617213">80</tspan></text>
</g><g
         id="g198"><g
           clip-path="url(#clipPath204)"
           id="g200"><path
             id="path206"
             style="fill:none;stroke:#ffffff;stroke-width:10;stroke-linecap:round;stroke-linejoin:round;stroke-miterlimit:10;stroke-dasharray:none;stroke-opacity:1"
             d="M 720,3263.74 H 5184" /></g></g><g
         transform="scale(10)"
         id="g208"><text
           id="text212"
           style="font-variant:normal;font-weight:normal;font-size:10px;font-family:Arial;-inkscape-font-specification:Arial;writing-mode:lr-tb;fill:#262626;fill-opacity:1;fill-rule:nonzero;stroke:none"
           transform="matrix(1,0,0,-1,48.3125,322.749)"><tspan
             id="tspan210"
             y="0"
             x="0 5.5617213 11.123052">100</tspan></text>
<text
           id="text216"
           style="font-variant:normal;font-weight:normal;font-size:11px;font-family:Arial;-inkscape-font-specification:Arial;writing-mode:lr-tb;fill:#262626;fill-opacity:1;fill-rule:nonzero;stroke:none"
           transform="matrix(0,1,1,0,42.0313,189.216)"><tspan
             id="tspan214"
             y="0"
             x="0 6.7039104 12.821485">ToT</tspan></text>
</g><g
         id="g218"><g
           clip-path="url(#clipPath224)"
           id="g220"><path
             id="path226"
             style="fill:none;stroke:#053061;stroke-width:17.5;stroke-linecap:round;stroke-linejoin:round;stroke-miterlimit:10;stroke-dasharray:none;stroke-opacity:1"
             d="m 922.91,630.898 h 860.82 l 41,294.977 40.99,143.985 40.99,105.34 40.99,87.79 41,77.26 40.99,70.23 40.99,59.7 40.99,56.18 40.99,52.68 40.99,49.16 40.99,49.16 41,42.14 40.99,38.63 40.99,42.14 40.99,38.63 40.99,38.63 40.99,31.6 41,35.12 40.99,35.11 40.99,31.61 40.99,28.09 40.99,28.1 41,31.6 40.99,28.1 40.99,24.57 40.99,28.1 40.99,24.58 40.99,24.58 41,28.1 40.99,24.57 40.99,24.59 40.99,21.07 40.99,24.58 40.99,21.07 41,28.09 40.99,21.07 40.99,17.56 40.99,24.58 40.99,21.07 41,21.07 40.99,21.07 40.99,21.07 40.99,21.07 40.99,21.07 40.99,21.07 41,21.07 40.99,17.56 40.99,21.07 40.99,21.07 40.99,21.07 40.99,21.07 40.99,21.06 41,17.56 40.99,24.58 40.99,17.56 40.99,24.58 41,21.08 40.99,24.57 40.99,21.07 40.99,24.59 40.99,21.07 40.99,24.58 40.99,21.07 41,24.58 40.99,21.07 40.99,28.09 40.99,21.07 40.99,21.07 40.99,24.58 41,24.59 40.99,24.58 40.99,21.06 40.99,21.07 41,28.1 40.99,21.07 40.99,24.58 40.99,24.58 40.99,21.07" /><path
             id="path228"
             style="fill:none;stroke:#246aae;stroke-width:17.5;stroke-linecap:round;stroke-linejoin:round;stroke-miterlimit:10;stroke-dasharray:none;stroke-opacity:1"
             d="m 922.91,630.898 h 819.83 l 40.99,28.094 41,298.488 40.99,129.93 40.99,98.33 40.99,87.79 41,70.23 40.99,63.21 40.99,63.21 40.99,52.68 40.99,52.67 40.99,45.65 40.99,45.65 41,42.14 40.99,38.63 40.99,42.14 40.99,31.6 40.99,38.63 40.99,31.6 41,35.12 40.99,31.61 40.99,28.09 40.99,31.6 40.99,28.1 41,31.6 40.99,24.58 40.99,28.1 40.99,24.58 40.99,28.09 40.99,24.58 41,21.07 40.99,24.58 40.99,24.59 40.99,24.57 40.99,21.07 40.99,21.07 41,24.59 40.99,21.07 40.99,21.07 40.99,21.07 40.99,21.06 41,17.56 40.99,21.07 40.99,21.07 40.99,21.07 40.99,17.56 40.99,21.07 41,21.07 40.99,21.07 40.99,14.05 40.99,21.07 40.99,17.55 40.99,21.07 40.99,21.08 41,17.55 40.99,21.07 40.99,17.56 40.99,24.58 41,17.56 40.99,21.07 40.99,21.07 40.99,24.58 40.99,17.56 40.99,24.58 40.99,21.07 41,24.58 40.99,21.07 40.99,17.56 40.99,24.58 40.99,21.07 40.99,24.58 41,21.07 40.99,21.07 40.99,24.58 40.99,21.07 41,21.07 40.99,24.58 40.99,21.07 40.99,21.07 40.99,28.1" /><path
             id="path230"
             style="fill:none;stroke:#529dc8;stroke-width:17.5;stroke-linecap:round;stroke-linejoin:round;stroke-miterlimit:10;stroke-dasharray:none;stroke-opacity:1"
             d="m 922.91,630.898 h 819.83 l 40.99,154.512 41,200.164 40.99,119.396 40.99,94.82 40.99,77.25 41,70.23 40.99,63.21 40.99,56.19 40.99,52.67 40.99,49.16 40.99,45.66 40.99,42.14 41,42.13 40.99,38.63 40.99,38.63 40.99,35.12 40.99,35.11 40.99,31.61 41,31.6 40.99,31.61 40.99,28.09 40.99,31.6 40.99,28.1 41,24.58 40.99,28.09 40.99,24.59 40.99,28.09 40.99,24.58 40.99,24.58 41,24.58 40.99,21.07 40.99,24.58 40.99,21.07 40.99,21.07 40.99,21.07 41,21.07 40.99,21.07 40.99,21.07 40.99,21.07 40.99,21.07 41,21.07 40.99,17.56 40.99,17.56 40.99,21.07 40.99,21.07 40.99,17.55 41,17.56 40.99,21.07 40.99,17.56 40.99,17.56 40.99,17.56 40.99,21.07 40.99,21.07 41,14.04 40.99,21.07 40.99,17.56 40.99,21.07 41,17.56 40.99,21.07 40.99,17.56 40.99,21.07 40.99,17.55 40.99,24.59 40.99,17.56 41,21.06 40.99,21.07 40.99,21.07 40.99,24.58 40.99,17.56 40.99,21.07 41,24.59 40.99,17.55 40.99,21.07 40.99,24.58 41,17.56 40.99,24.58 40.99,21.07 40.99,21.07 40.99,21.07" /><path
             id="path232"
             style="fill:none;stroke:#a7d0e4;stroke-width:17.5;stroke-linecap:round;stroke-linejoin:round;stroke-miterlimit:10;stroke-dasharray:none;stroke-opacity:1"
             d="m 922.91,630.898 h 819.83 l 40.99,217.723 41,161.539 40.99,108.86 40.99,91.3 40.99,73.74 41,66.73 40.99,59.69 40.99,52.68 40.99,52.67 40.99,49.16 40.99,42.14 40.99,42.14 41,42.14 40.99,38.63 40.99,31.6 40.99,38.63 40.99,31.61 40.99,31.6 41,31.61 40.99,28.09 40.99,31.61 40.99,28.09 40.99,28.09 41,24.58 40.99,28.09 40.99,24.59 40.99,24.58 40.99,24.58 40.99,24.58 41,21.07 40.99,21.07 40.99,21.07 40.99,28.09 40.99,21.07 40.99,21.07 41,17.56 40.99,17.56 40.99,21.07 40.99,21.07 40.99,21.07 41,17.56 40.99,17.56 40.99,21.06 40.99,17.56 40.99,21.07 40.99,14.05 41,21.07 40.99,17.56 40.99,17.56 40.99,17.55 40.99,17.56 40.99,17.56 40.99,21.07 41,14.04 40.99,21.07 40.99,17.56 40.99,17.56 41,17.56 40.99,21.07 40.99,14.04 40.99,21.07 40.99,17.56 40.99,17.56 40.99,21.07 41,17.56 40.99,24.58 40.99,17.56 40.99,17.56 40.99,24.58 40.99,17.56 41,21.07 40.99,21.07 40.99,17.56 40.99,24.57 41,17.56 40.99,21.07 40.99,21.07 40.99,21.07 40.99,17.56" /><path
             id="path234"
             style="fill:none;stroke:#e2edf3;stroke-width:17.5;stroke-linecap:round;stroke-linejoin:round;stroke-miterlimit:10;stroke-dasharray:none;stroke-opacity:1"
             d="m 922.91,630.898 h 819.83 l 40.99,263.375 41,140.467 40.99,98.32 40.99,84.28 40.99,70.23 41,63.22 40.99,59.69 40.99,56.19 40.99,49.16 40.99,45.65 40.99,42.14 40.99,38.63 41,38.63 40.99,38.62 40.99,35.12 40.99,35.12 40.99,31.6 40.99,28.09 41,31.61 40.99,31.6 40.99,28.1 40.99,28.09 40.99,24.58 41,28.09 40.99,24.59 40.99,24.58 40.99,24.58 40.99,21.07 40.99,24.58 41,24.58 40.99,21.07 40.99,21.07 40.99,21.07 40.99,21.07 40.99,21.07 41,17.56 40.99,21.07 40.99,21.07 40.99,14.04 40.99,21.07 41,21.07 40.99,17.56 40.99,17.56 40.99,17.56 40.99,17.56 40.99,17.55 41,17.56 40.99,21.07 40.99,14.05 40.99,17.56 40.99,17.56 40.99,17.56 40.99,17.55 41,17.56 40.99,17.56 40.99,14.04 40.99,21.07 41,14.05 40.99,17.56 40.99,17.56 40.99,14.05 40.99,21.06 40.99,17.56 40.99,17.56 41,17.56 40.99,17.56 40.99,21.07 40.99,17.56 40.99,21.07 40.99,21.06 41,17.56 40.99,21.07 40.99,17.56 40.99,17.56 41,24.58 40.99,17.56 40.99,17.55 40.99,21.07 40.99,21.07" /><path
             id="path236"
             style="fill:none;stroke:#fbe7dc;stroke-width:17.5;stroke-linecap:round;stroke-linejoin:round;stroke-miterlimit:10;stroke-dasharray:none;stroke-opacity:1"
             d="m 922.91,630.898 h 819.83 l 40.99,298.489 41,126.423 40.99,94.81 40.99,77.26 40.99,66.72 41,63.21 40.99,56.18 40.99,52.68 40.99,45.65 40.99,42.14 40.99,45.65 40.99,38.63 41,38.62 40.99,31.61 40.99,38.63 40.99,31.6 40.99,31.61 40.99,28.09 41,31.6 40.99,28.1 40.99,28.09 40.99,28.1 40.99,24.57 41,28.1 40.99,21.07 40.99,24.58 40.99,24.58 40.99,21.07 40.99,24.58 41,21.07 40.99,21.07 40.99,21.07 40.99,21.07 40.99,17.56 40.99,21.07 41,21.07 40.99,17.56 40.99,21.07 40.99,17.55 40.99,17.56 41,17.56 40.99,21.07 40.99,17.56 40.99,14.05 40.99,21.07 40.99,17.55 41,14.05 40.99,17.56 40.99,17.56 40.99,17.55 40.99,14.05 40.99,17.56 40.99,17.56 41,14.05 40.99,21.06 40.99,14.05 40.99,17.56 41,14.04 40.99,14.05 40.99,21.07 40.99,14.05 40.99,17.56 40.99,17.56 40.99,17.55 41,14.05 40.99,17.56 40.99,21.07 40.99,17.55 40.99,14.05 40.99,21.07 41,17.56 40.99,17.56 40.99,21.07 40.99,17.55 41,17.56 40.99,21.07 40.99,17.56 40.99,17.56 40.99,21.07" /><path
             id="path238"
             style="fill:none;stroke:#f7b799;stroke-width:17.5;stroke-linecap:round;stroke-linejoin:round;stroke-miterlimit:10;stroke-dasharray:none;stroke-opacity:1"
             d="m 922.91,630.898 h 778.84 l 40.99,147.489 40.99,182.605 41,112.368 40.99,91.31 40.99,73.74 40.99,63.21 41,63.21 40.99,49.16 40.99,52.68 40.99,45.65 40.99,42.14 40.99,38.63 40.99,38.62 41,38.63 40.99,35.12 40.99,31.6 40.99,31.61 40.99,31.6 40.99,28.1 41,31.6 40.99,28.09 40.99,28.1 40.99,24.58 40.99,24.58 41,24.58 40.99,24.58 40.99,24.58 40.99,21.07 40.99,21.07 40.99,21.07 41,24.59 40.99,21.06 40.99,21.07 40.99,21.07 40.99,17.56 40.99,17.56 41,21.07 40.99,17.56 40.99,21.07 40.99,17.55 40.99,17.56 41,17.56 40.99,17.56 40.99,17.56 40.99,14.04 40.99,17.56 40.99,21.07 41,14.05 40.99,17.56 40.99,14.04 40.99,17.56 40.99,14.05 40.99,17.56 40.99,14.04 41,17.56 40.99,14.05 40.99,17.56 40.99,14.04 41,17.56 40.99,14.05 40.99,17.55 40.99,14.05 40.99,17.56 40.99,14.05 40.99,17.56 41,17.55 40.99,14.05 40.99,14.04 40.99,21.07 40.99,17.56 40.99,17.56 41,17.56 40.99,17.56 40.99,17.56 40.99,17.56 41,17.55 40.99,17.56 40.99,17.56 40.99,17.56 40.99,17.55" /><path
             id="path240"
             style="fill:none;stroke:#dc6e57;stroke-width:17.5;stroke-linecap:round;stroke-linejoin:round;stroke-miterlimit:10;stroke-dasharray:none;stroke-opacity:1"
             d="m 922.91,630.898 h 778.84 l 40.99,210.7 40.99,151 41,101.832 40.99,84.28 40.99,70.24 40.99,63.21 41,52.67 40.99,52.67 40.99,49.17 40.99,42.14 40.99,42.14 40.99,38.62 40.99,38.63 41,38.63 40.99,31.6 40.99,31.61 40.99,31.6 40.99,28.1 40.99,31.6 41,28.09 40.99,28.1 40.99,28.09 40.99,21.07 40.99,24.58 41,24.58 40.99,24.58 40.99,21.07 40.99,24.59 40.99,21.07 40.99,21.07 41,21.07 40.99,21.07 40.99,21.06 40.99,17.56 40.99,21.07 40.99,17.56 41,21.07 40.99,14.05 40.99,21.07 40.99,17.55 40.99,17.56 41,14.05 40.99,17.56 40.99,21.07 40.99,14.04 40.99,17.56 40.99,17.56 41,14.05 40.99,17.56 40.99,14.04 40.99,17.56 40.99,10.53 40.99,17.56 40.99,14.05 41,17.56 40.99,14.04 40.99,17.56 40.99,14.05 41,17.56 40.99,10.53 40.99,17.56 40.99,14.05 40.99,14.04 40.99,17.56 40.99,14.05 41,17.56 40.99,14.04 40.99,14.05 40.99,17.56 40.99,17.55 40.99,14.05 41,17.56 40.99,17.56 40.99,14.04 40.99,21.07 41,17.56 40.99,14.05 40.99,17.56 40.99,17.55 40.99,17.56" /><path
             id="path242"
             style="fill:none;stroke:#b61f2e;stroke-width:17.5;stroke-linecap:round;stroke-linejoin:round;stroke-miterlimit:10;stroke-dasharray:none;stroke-opacity:1"
             d="m 922.91,630.898 h 778.84 l 40.99,259.864 40.99,126.418 41,94.81 40.99,77.26 40.99,70.23 40.99,56.19 41,52.67 40.99,52.68 40.99,45.65 40.99,42.14 40.99,42.14 40.99,38.62 40.99,35.12 41,35.12 40.99,31.6 40.99,31.61 40.99,31.6 40.99,28.09 40.99,28.1 41,28.09 40.99,28.09 40.99,24.58 40.99,24.59 40.99,24.58 41,24.58 40.99,24.58 40.99,21.07 40.99,21.07 40.99,21.07 40.99,21.07 41,17.56 40.99,21.07 40.99,21.07 40.99,17.55 40.99,21.07 40.99,17.56 41,17.56 40.99,21.07 40.99,14.05 40.99,17.56 40.99,17.56 41,17.55 40.99,14.05 40.99,21.07 40.99,10.53 40.99,17.56 40.99,17.56 41,14.05 40.99,17.56 40.99,14.04 40.99,17.56 40.99,14.04 40.99,14.05 40.99,14.05 41,17.56 40.99,14.04 40.99,14.05 40.99,14.05 41,17.56 40.99,14.04 40.99,10.54 40.99,17.55 40.99,14.05 40.99,17.56 40.99,10.53 41,14.05 40.99,17.56 40.99,14.04 40.99,14.05 40.99,17.56 40.99,14.05 41,14.04 40.99,17.56 40.99,17.56 40.99,14.04 41,17.56 40.99,17.56 40.99,14.05 40.99,14.05 40.99,21.07" /><path
             id="path244"
             style="fill:none;stroke:#67001f;stroke-width:17.5;stroke-linecap:round;stroke-linejoin:round;stroke-miterlimit:10;stroke-dasharray:none;stroke-opacity:1"
             d="m 922.91,630.898 h 737.85 l 40.99,84.282 40.99,214.207 40.99,112.373 41,87.79 40.99,73.75 40.99,63.2 40.99,56.19 41,52.67 40.99,49.17 40.99,45.65 40.99,38.63 40.99,38.62 40.99,38.63 40.99,35.12 41,35.12 40.99,28.09 40.99,35.11 40.99,31.61 40.99,24.58 40.99,28.1 41,28.09 40.99,28.09 40.99,21.07 40.99,24.58 40.99,24.58 41,21.07 40.99,24.58 40.99,24.58 40.99,21.07 40.99,17.56 40.99,21.07 41,21.07 40.99,17.56 40.99,21.07 40.99,17.56 40.99,17.56 40.99,17.55 41,17.56 40.99,21.07 40.99,17.56 40.99,14.05 40.99,17.56 41,17.56 40.99,14.04 40.99,17.56 40.99,17.56 40.99,14.04 40.99,14.05 41,14.05 40.99,17.55 40.99,14.05 40.99,14.05 40.99,14.05 40.99,17.55 40.99,10.54 41,17.55 40.99,14.05 40.99,14.05 40.99,14.04 41,17.56 40.99,10.54 40.99,14.05 40.99,14.04 40.99,14.05 40.99,14.04 40.99,14.05 41,14.05 40.99,17.55 40.99,10.54 40.99,14.05 40.99,17.55 40.99,14.05 41,14.05 40.99,10.53 40.99,17.56 40.99,17.56 41,14.04 40.99,17.56 40.99,14.05 40.99,17.56 40.99,14.04" /></g></g></g></g></svg>