<?xml version="1.0" encoding="UTF-8" standalone="no"?>
<svg
   xmlns:dc="http://purl.org/dc/elements/1.1/"
   xmlns:cc="http://creativecommons.org/ns#"
   xmlns:rdf="http://www.w3.org/1999/02/22-rdf-syntax-ns#"
   xmlns:svg="http://www.w3.org/2000/svg"
   xmlns="http://www.w3.org/2000/svg"
   viewBox="0 0 768 528"
   height="528"
   width="768"
   xml:space="preserve"
   id="svg2"
   version="1.1"><metadata
     id="metadata8"><rdf:RDF><cc:Work
         rdf:about=""><dc:format>image/svg+xml</dc:format><dc:type
           rdf:resource="http://purl.org/dc/dcmitype/StillImage" /></cc:Work></rdf:RDF></metadata><defs
     id="defs6"><clipPath
       id="clipPath24"
       clipPathUnits="userSpaceOnUse"><path
         id="path22"
         d="M 720,495 H 5184 V 3485 H 720 Z" /></clipPath><clipPath
       id="clipPath40"
       clipPathUnits="userSpaceOnUse"><path
         id="path38"
         d="M 720,495 H 5184 V 3485 H 720 Z" /></clipPath><clipPath
       id="clipPath56"
       clipPathUnits="userSpaceOnUse"><path
         id="path54"
         d="M 720,495 H 5184 V 3485 H 720 Z" /></clipPath><clipPath
       id="clipPath72"
       clipPathUnits="userSpaceOnUse"><path
         id="path70"
         d="M 720,495 H 5184 V 3485 H 720 Z" /></clipPath><clipPath
       id="clipPath88"
       clipPathUnits="userSpaceOnUse"><path
         id="path86"
         d="M 720,495 H 5184 V 3485 H 720 Z" /></clipPath><clipPath
       id="clipPath104"
       clipPathUnits="userSpaceOnUse"><path
         id="path102"
         d="M 720,495 H 5184 V 3485 H 720 Z" /></clipPath><clipPath
       id="clipPath124"
       clipPathUnits="userSpaceOnUse"><path
         id="path122"
         d="M 720,495 H 5184 V 3485 H 720 Z" /></clipPath><clipPath
       id="clipPath140"
       clipPathUnits="userSpaceOnUse"><path
         id="path138"
         d="M 720,495 H 5184 V 3485 H 720 Z" /></clipPath><clipPath
       id="clipPath156"
       clipPathUnits="userSpaceOnUse"><path
         id="path154"
         d="M 720,495 H 5184 V 3485 H 720 Z" /></clipPath><clipPath
       id="clipPath172"
       clipPathUnits="userSpaceOnUse"><path
         id="path170"
         d="M 720,495 H 5184 V 3485 H 720 Z" /></clipPath><clipPath
       id="clipPath188"
       clipPathUnits="userSpaceOnUse"><path
         id="path186"
         d="M 720,495 H 5184 V 3485 H 720 Z" /></clipPath><clipPath
       id="clipPath204"
       clipPathUnits="userSpaceOnUse"><path
         id="path202"
         d="M 720,495 H 5184 V 3485 H 720 Z" /></clipPath><clipPath
       id="clipPath220"
       clipPathUnits="userSpaceOnUse"><path
         id="path218"
         d="M 720,495 H 5184 V 3485 H 720 Z" /></clipPath><clipPath
       id="clipPath236"
       clipPathUnits="userSpaceOnUse"><path
         id="path234"
         d="M 720,495 H 5184 V 3485 H 720 Z" /></clipPath><clipPath
       id="clipPath252"
       clipPathUnits="userSpaceOnUse"><path
         id="path250"
         d="M 720,495 H 5184 V 3485 H 720 Z" /></clipPath><clipPath
       id="clipPath284"
       clipPathUnits="userSpaceOnUse"><path
         id="path282"
         d="M 720,495 H 5184 V 3485 H 720 Z" /></clipPath></defs><g
     transform="matrix(1.3333333,0,0,-1.3333333,0,528)"
     id="g10"><g
       transform="scale(0.1)"
       id="g12"><path
         id="path14"
         style="fill:#ffffff;fill-opacity:1;fill-rule:nonzero;stroke:none"
         d="M 0,0 H 5760 V 3960 H 0 Z" /><path
         id="path16"
         style="fill:#eaeaf2;fill-opacity:1;fill-rule:nonzero;stroke:none"
         d="M 720,495 H 5184 V 3484.8 H 720 Z" /><g
         id="g18"><g
           clip-path="url(#clipPath24)"
           id="g20"><path
             id="path26"
             style="fill:none;stroke:#ffffff;stroke-width:10;stroke-linecap:round;stroke-linejoin:round;stroke-miterlimit:10;stroke-dasharray:none;stroke-opacity:1"
             d="M 720,495 V 3484.8" /></g></g><g
         transform="scale(10)"
         id="g28"><text
           id="text32"
           style="font-variant:normal;font-weight:normal;font-size:10px;font-family:Arial;-inkscape-font-specification:Arial;writing-mode:lr-tb;fill:#262626;fill-opacity:1;fill-rule:nonzero;stroke:none"
           transform="matrix(1,0,0,-1,69.2188,35.25)"><tspan
             id="tspan30"
             y="0"
             x="0">0</tspan></text>
</g><g
         id="g34"><g
           clip-path="url(#clipPath40)"
           id="g36"><path
             id="path42"
             style="fill:none;stroke:#ffffff;stroke-width:10;stroke-linecap:round;stroke-linejoin:round;stroke-miterlimit:10;stroke-dasharray:none;stroke-opacity:1"
             d="M 1612.8,495 V 3484.8" /></g></g><g
         transform="scale(10)"
         id="g44"><text
           id="text48"
           style="font-variant:normal;font-weight:normal;font-size:10px;font-family:Arial;-inkscape-font-specification:Arial;writing-mode:lr-tb;fill:#262626;fill-opacity:1;fill-rule:nonzero;stroke:none"
           transform="matrix(1,0,0,-1,155.718,35.25)"><tspan
             id="tspan46"
             y="0"
             x="0 5.5613308">10</tspan></text>
</g><g
         id="g50"><g
           clip-path="url(#clipPath56)"
           id="g52"><path
             id="path58"
             style="fill:none;stroke:#ffffff;stroke-width:10;stroke-linecap:round;stroke-linejoin:round;stroke-miterlimit:10;stroke-dasharray:none;stroke-opacity:1"
             d="M 2505.6,495 V 3484.8" /></g></g><g
         transform="scale(10)"
         id="g60"><text
           id="text64"
           style="font-variant:normal;font-weight:normal;font-size:10px;font-family:Arial;-inkscape-font-specification:Arial;writing-mode:lr-tb;fill:#262626;fill-opacity:1;fill-rule:nonzero;stroke:none"
           transform="matrix(1,0,0,-1,244.998,35.25)"><tspan
             id="tspan62"
             y="0"
             x="0 5.5613184">20</tspan></text>
</g><g
         id="g66"><g
           clip-path="url(#clipPath72)"
           id="g68"><path
             id="path74"
             style="fill:none;stroke:#ffffff;stroke-width:10;stroke-linecap:round;stroke-linejoin:round;stroke-miterlimit:10;stroke-dasharray:none;stroke-opacity:1"
             d="M 3398.4,495 V 3484.8" /></g></g><g
         transform="scale(10)"
         id="g76"><text
           id="text80"
           style="font-variant:normal;font-weight:normal;font-size:10px;font-family:Arial;-inkscape-font-specification:Arial;writing-mode:lr-tb;fill:#262626;fill-opacity:1;fill-rule:nonzero;stroke:none"
           transform="matrix(1,0,0,-1,334.277,35.25)"><tspan
             id="tspan78"
             y="0"
             x="0 5.5617089">30</tspan></text>
</g><g
         id="g82"><g
           clip-path="url(#clipPath88)"
           id="g84"><path
             id="path90"
             style="fill:none;stroke:#ffffff;stroke-width:10;stroke-linecap:round;stroke-linejoin:round;stroke-miterlimit:10;stroke-dasharray:none;stroke-opacity:1"
             d="M 4291.2,495 V 3484.8" /></g></g><g
         transform="scale(10)"
         id="g92"><text
           id="text96"
           style="font-variant:normal;font-weight:normal;font-size:10px;font-family:Arial;-inkscape-font-specification:Arial;writing-mode:lr-tb;fill:#262626;fill-opacity:1;fill-rule:nonzero;stroke:none"
           transform="matrix(1,0,0,-1,423.557,35.25)"><tspan
             id="tspan94"
             y="0"
             x="0 5.5617089">40</tspan></text>
</g><g
         id="g98"><g
           clip-path="url(#clipPath104)"
           id="g100"><path
             id="path106"
             style="fill:none;stroke:#ffffff;stroke-width:10;stroke-linecap:round;stroke-linejoin:round;stroke-miterlimit:10;stroke-dasharray:none;stroke-opacity:1"
             d="M 5184,495 V 3484.8" /></g></g><g
         transform="scale(10)"
         id="g108"><text
           id="text112"
           style="font-variant:normal;font-weight:normal;font-size:10px;font-family:Arial;-inkscape-font-specification:Arial;writing-mode:lr-tb;fill:#262626;fill-opacity:1;fill-rule:nonzero;stroke:none"
           transform="matrix(1,0,0,-1,512.837,35.25)"><tspan
             id="tspan110"
             y="0"
             x="0 5.5617089">50</tspan></text>
<text
           id="text116"
           style="font-variant:normal;font-weight:normal;font-size:11px;font-family:Arial;-inkscape-font-specification:Arial;writing-mode:lr-tb;fill:#262626;fill-opacity:1;fill-rule:nonzero;stroke:none"
           transform="matrix(1,0,0,-1,285.426,21.2031)"><tspan
             id="tspan114"
             y="0"
             x="0 6.7035193 12.821497">ToT</tspan></text>
</g><g
         id="g118"><g
           clip-path="url(#clipPath124)"
           id="g120"><path
             id="path126"
             style="fill:none;stroke:#ffffff;stroke-width:10;stroke-linecap:round;stroke-linejoin:round;stroke-miterlimit:10;stroke-dasharray:none;stroke-opacity:1"
             d="M 720,3348.9 H 5184" /></g></g><g
         transform="scale(10)"
         id="g128"><text
           id="text132"
           style="font-variant:normal;font-weight:normal;font-size:10px;font-family:Arial;-inkscape-font-specification:Arial;writing-mode:lr-tb;fill:#262626;fill-opacity:1;fill-rule:nonzero;stroke:none"
           transform="matrix(1,0,0,-1,48.0313,331.265)"><tspan
             id="tspan130"
             y="0"
             x="0 5.8400002 11.401721">−20</tspan></text>
</g><g
         id="g134"><g
           clip-path="url(#clipPath140)"
           id="g136"><path
             id="path142"
             style="fill:none;stroke:#ffffff;stroke-width:10;stroke-linecap:round;stroke-linejoin:round;stroke-miterlimit:10;stroke-dasharray:none;stroke-opacity:1"
             d="M 720,3009.15 H 5184" /></g></g><g
         transform="scale(10)"
         id="g144"><text
           id="text148"
           style="font-variant:normal;font-weight:normal;font-size:10px;font-family:Arial;-inkscape-font-specification:Arial;writing-mode:lr-tb;fill:#262626;fill-opacity:1;fill-rule:nonzero;stroke:none"
           transform="matrix(1,0,0,-1,48.0313,297.29)"><tspan
             id="tspan146"
             y="0"
             x="0 5.8400002 11.401721">−15</tspan></text>
</g><g
         id="g150"><g
           clip-path="url(#clipPath156)"
           id="g152"><path
             id="path158"
             style="fill:none;stroke:#ffffff;stroke-width:10;stroke-linecap:round;stroke-linejoin:round;stroke-miterlimit:10;stroke-dasharray:none;stroke-opacity:1"
             d="M 720,2669.4 H 5184" /></g></g><g
         transform="scale(10)"
         id="g160"><text
           id="text164"
           style="font-variant:normal;font-weight:normal;font-size:10px;font-family:Arial;-inkscape-font-specification:Arial;writing-mode:lr-tb;fill:#262626;fill-opacity:1;fill-rule:nonzero;stroke:none"
           transform="matrix(1,0,0,-1,48.0313,263.315)"><tspan
             id="tspan162"
             y="0"
             x="0 5.8400002 11.401721">−10</tspan></text>
</g><g
         id="g166"><g
           clip-path="url(#clipPath172)"
           id="g168"><path
             id="path174"
             style="fill:none;stroke:#ffffff;stroke-width:10;stroke-linecap:round;stroke-linejoin:round;stroke-miterlimit:10;stroke-dasharray:none;stroke-opacity:1"
             d="M 720,2329.65 H 5184" /></g></g><g
         transform="scale(10)"
         id="g176"><text
           id="text180"
           style="font-variant:normal;font-weight:normal;font-size:10px;font-family:Arial;-inkscape-font-specification:Arial;writing-mode:lr-tb;fill:#262626;fill-opacity:1;fill-rule:nonzero;stroke:none"
           transform="matrix(1,0,0,-1,53.5938,229.34)"><tspan
             id="tspan178"
             y="0"
             x="0 5.8400002">−5</tspan></text>
</g><g
         id="g182"><g
           clip-path="url(#clipPath188)"
           id="g184"><path
             id="path190"
             style="fill:none;stroke:#ffffff;stroke-width:10;stroke-linecap:round;stroke-linejoin:round;stroke-miterlimit:10;stroke-dasharray:none;stroke-opacity:1"
             d="M 720,1989.9 H 5184" /></g></g><g
         transform="scale(10)"
         id="g192"><text
           id="text196"
           style="font-variant:normal;font-weight:normal;font-size:10px;font-family:Arial;-inkscape-font-specification:Arial;writing-mode:lr-tb;fill:#262626;fill-opacity:1;fill-rule:nonzero;stroke:none"
           transform="matrix(1,0,0,-1,59.4375,195.365)"><tspan
             id="tspan194"
             y="0"
             x="0">0</tspan></text>
</g><g
         id="g198"><g
           clip-path="url(#clipPath204)"
           id="g200"><path
             id="path206"
             style="fill:none;stroke:#ffffff;stroke-width:10;stroke-linecap:round;stroke-linejoin:round;stroke-miterlimit:10;stroke-dasharray:none;stroke-opacity:1"
             d="M 720,1650.15 H 5184" /></g></g><g
         transform="scale(10)"
         id="g208"><text
           id="text212"
           style="font-variant:normal;font-weight:normal;font-size:10px;font-family:Arial;-inkscape-font-specification:Arial;writing-mode:lr-tb;fill:#262626;fill-opacity:1;fill-rule:nonzero;stroke:none"
           transform="matrix(1,0,0,-1,59.4375,161.39)"><tspan
             id="tspan210"
             y="0"
             x="0">5</tspan></text>
</g><g
         id="g214"><g
           clip-path="url(#clipPath220)"
           id="g216"><path
             id="path222"
             style="fill:none;stroke:#ffffff;stroke-width:10;stroke-linecap:round;stroke-linejoin:round;stroke-miterlimit:10;stroke-dasharray:none;stroke-opacity:1"
             d="M 720,1310.4 H 5184" /></g></g><g
         transform="scale(10)"
         id="g224"><text
           id="text228"
           style="font-variant:normal;font-weight:normal;font-size:10px;font-family:Arial;-inkscape-font-specification:Arial;writing-mode:lr-tb;fill:#262626;fill-opacity:1;fill-rule:nonzero;stroke:none"
           transform="matrix(1,0,0,-1,53.875,127.415)"><tspan
             id="tspan226"
             y="0"
             x="0 5.5617213">10</tspan></text>
</g><g
         id="g230"><g
           clip-path="url(#clipPath236)"
           id="g232"><path
             id="path238"
             style="fill:none;stroke:#ffffff;stroke-width:10;stroke-linecap:round;stroke-linejoin:round;stroke-miterlimit:10;stroke-dasharray:none;stroke-opacity:1"
             d="M 720,970.648 H 5184" /></g></g><g
         transform="scale(10)"
         id="g240"><text
           id="text244"
           style="font-variant:normal;font-weight:normal;font-size:10px;font-family:Arial;-inkscape-font-specification:Arial;writing-mode:lr-tb;fill:#262626;fill-opacity:1;fill-rule:nonzero;stroke:none"
           transform="matrix(1,0,0,-1,53.875,93.4398)"><tspan
             id="tspan242"
             y="0"
             x="0 5.5617213">15</tspan></text>
</g><g
         id="g246"><g
           clip-path="url(#clipPath252)"
           id="g248"><path
             id="path254"
             style="fill:none;stroke:#ffffff;stroke-width:10;stroke-linecap:round;stroke-linejoin:round;stroke-miterlimit:10;stroke-dasharray:none;stroke-opacity:1"
             d="M 720,630.898 H 5184" /></g></g><g
         transform="scale(10)"
         id="g256"><text
           id="text260"
           style="font-variant:normal;font-weight:normal;font-size:10px;font-family:Arial;-inkscape-font-specification:Arial;writing-mode:lr-tb;fill:#262626;fill-opacity:1;fill-rule:nonzero;stroke:none"
           transform="matrix(1,0,0,-1,53.875,59.4648)"><tspan
             id="tspan258"
             y="0"
             x="0 5.5617213">20</tspan></text>
<text
           id="text264"
           style="font-variant:normal;font-weight:normal;font-size:11px;font-family:Arial;-inkscape-font-specification:Arial;writing-mode:lr-tb;fill:#262626;fill-opacity:1;fill-rule:nonzero;stroke:none"
           transform="matrix(0,1,1,0,40.2031,153.99)"><tspan
             id="tspan262"
             y="0"
             x="0 6.7195354 12.83711 22.000111 28.118074 34.235649 37.898651 44.016617 47.072479 53.190456 56.853458 62.971043 66.027283">Temperature (</tspan></text>
<text
           id="text268"
           style="font-variant:normal;font-weight:normal;font-size:7.69999981px;font-family:Arial;-inkscape-font-specification:Arial;writing-mode:lr-tb;fill:#262626;fill-opacity:1;fill-rule:nonzero;stroke:none"
           transform="matrix(0,1,1,0,35.99216,225.2857)"><tspan
             id="tspan266"
             y="0"
             x="0">∘</tspan></text>
<text
           id="text272"
           style="font-variant:normal;font-weight:normal;font-size:11px;font-family:Arial;-inkscape-font-specification:Arial;writing-mode:lr-tb;fill:#262626;fill-opacity:1;fill-rule:nonzero;stroke:none"
           transform="matrix(0,1,1,0,40.2031,231.9064)"><tspan
             id="tspan270"
             y="0"
             x="0">C</tspan></text>
<text
           id="text276"
           style="font-variant:normal;font-weight:normal;font-size:11px;font-family:Arial;-inkscape-font-specification:Arial;writing-mode:lr-tb;fill:#262626;fill-opacity:1;fill-rule:nonzero;stroke:none"
           transform="matrix(0,1,1,0,40.2031,239.58726)"><tspan
             id="tspan274"
             y="0"
             x="0">)</tspan></text>
</g><g
         id="g278"><g
           clip-path="url(#clipPath284)"
           id="g280"><path
             id="path286"
             style="fill:none;stroke:#440154;stroke-width:17.5;stroke-linecap:round;stroke-linejoin:round;stroke-miterlimit:10;stroke-dasharray:none;stroke-opacity:1"
             d="M 720,3348.9 V 630.898" /><path
             id="path288"
             style="fill:none;stroke:#450457;stroke-width:17.5;stroke-linecap:round;stroke-linejoin:round;stroke-miterlimit:10;stroke-dasharray:none;stroke-opacity:1"
             d="M 720,3348.9 V 630.898" /><path
             id="path290"
             style="fill:none;stroke:#46085c;stroke-width:17.5;stroke-linecap:round;stroke-linejoin:round;stroke-miterlimit:10;stroke-dasharray:none;stroke-opacity:1"
             d="M 720,3348.9 V 630.898" /><path
             id="path292"
             style="fill:none;stroke:#460b5e;stroke-width:17.5;stroke-linecap:round;stroke-linejoin:round;stroke-miterlimit:10;stroke-dasharray:none;stroke-opacity:1"
             d="M 720,3348.9 V 630.898" /><path
             id="path294"
             style="fill:none;stroke:#471063;stroke-width:17.5;stroke-linecap:round;stroke-linejoin:round;stroke-miterlimit:10;stroke-dasharray:none;stroke-opacity:1"
             d="M 720,3348.9 V 630.898" /><path
             id="path296"
             style="fill:none;stroke:#471365;stroke-width:17.5;stroke-linecap:round;stroke-linejoin:round;stroke-miterlimit:10;stroke-dasharray:none;stroke-opacity:1"
             d="M 720,3348.9 V 630.898" /><path
             id="path298"
             style="fill:none;stroke:#481769;stroke-width:17.5;stroke-linecap:round;stroke-linejoin:round;stroke-miterlimit:10;stroke-dasharray:none;stroke-opacity:1"
             d="M 720,3348.9 V 630.898" /><path
             id="path300"
             style="fill:none;stroke:#481b6d;stroke-width:17.5;stroke-linecap:round;stroke-linejoin:round;stroke-miterlimit:10;stroke-dasharray:none;stroke-opacity:1"
             d="M 720,3348.9 V 630.898" /><path
             id="path302"
             style="fill:none;stroke:#481e6f;stroke-width:17.5;stroke-linecap:round;stroke-linejoin:round;stroke-miterlimit:10;stroke-dasharray:none;stroke-opacity:1"
             d="M 720,3348.9 V 630.898" /><path
             id="path304"
             style="fill:none;stroke:#482172;stroke-width:17.5;stroke-linecap:round;stroke-linejoin:round;stroke-miterlimit:10;stroke-dasharray:none;stroke-opacity:1"
             d="M 720,3348.9 V 630.898" /><path
             id="path306"
             style="fill:none;stroke:#482475;stroke-width:17.5;stroke-linecap:round;stroke-linejoin:round;stroke-miterlimit:10;stroke-dasharray:none;stroke-opacity:1"
             d="M 720,3348.9 V 630.898" /><path
             id="path308"
             style="fill:none;stroke:#482878;stroke-width:17.5;stroke-linecap:round;stroke-linejoin:round;stroke-miterlimit:10;stroke-dasharray:none;stroke-opacity:1"
             d="M 720,3348.9 V 630.898" /><path
             id="path310"
             style="fill:none;stroke:#472c7a;stroke-width:17.5;stroke-linecap:round;stroke-linejoin:round;stroke-miterlimit:10;stroke-dasharray:none;stroke-opacity:1"
             d="M 720,3348.9 V 630.898" /><path
             id="path312"
             style="fill:none;stroke:#472e7c;stroke-width:17.5;stroke-linecap:round;stroke-linejoin:round;stroke-miterlimit:10;stroke-dasharray:none;stroke-opacity:1"
             d="M 720,3348.9 V 630.898" /><path
             id="path314"
             style="fill:none;stroke:#46327f;stroke-width:17.5;stroke-linecap:round;stroke-linejoin:round;stroke-miterlimit:10;stroke-dasharray:none;stroke-opacity:1"
             d="M 720,3348.9 V 630.898" /><path
             id="path316"
             style="fill:none;stroke:#463480;stroke-width:17.5;stroke-linecap:round;stroke-linejoin:round;stroke-miterlimit:10;stroke-dasharray:none;stroke-opacity:1"
             d="M 720,3348.9 V 630.898" /><path
             id="path318"
             style="fill:none;stroke:#453882;stroke-width:17.5;stroke-linecap:round;stroke-linejoin:round;stroke-miterlimit:10;stroke-dasharray:none;stroke-opacity:1"
             d="M 720,3348.9 V 630.898" /><path
             id="path320"
             style="fill:none;stroke:#443a83;stroke-width:17.5;stroke-linecap:round;stroke-linejoin:round;stroke-miterlimit:10;stroke-dasharray:none;stroke-opacity:1"
             d="M 720,3348.9 V 630.898" /><path
             id="path322"
             style="fill:none;stroke:#433e85;stroke-width:17.5;stroke-linecap:round;stroke-linejoin:round;stroke-miterlimit:10;stroke-dasharray:none;stroke-opacity:1"
             d="M 720,3348.9 V 630.898" /><path
             id="path324"
             style="fill:none;stroke:#424186;stroke-width:17.5;stroke-linecap:round;stroke-linejoin:round;stroke-miterlimit:10;stroke-dasharray:none;stroke-opacity:1"
             d="M 720,3348.9 V 630.898" /><path
             id="path326"
             style="fill:none;stroke:#414487;stroke-width:17.5;stroke-linecap:round;stroke-linejoin:round;stroke-miterlimit:10;stroke-dasharray:none;stroke-opacity:1"
             d="M 720,3348.9 V 630.898" /><path
             id="path328"
             style="fill:none;stroke:#3f4788;stroke-width:17.5;stroke-linecap:round;stroke-linejoin:round;stroke-miterlimit:10;stroke-dasharray:none;stroke-opacity:1"
             d="M 720,3348.9 V 630.898" /><path
             id="path330"
             style="fill:none;stroke:#3f4989;stroke-width:17.5;stroke-linecap:round;stroke-linejoin:round;stroke-miterlimit:10;stroke-dasharray:none;stroke-opacity:1"
             d="M 720,3348.9 V 1193.25 l 84.813,-93.73 60.402,-93.72 41.57,-93.726 33.672,-93.726 29,-93.723 25.82,-93.727" /><path
             id="path332"
             style="fill:none;stroke:#3d4d8a;stroke-width:17.5;stroke-linecap:round;stroke-linejoin:round;stroke-miterlimit:10;stroke-dasharray:none;stroke-opacity:1"
             d="m 1432.81,3348.9 5.7,-93.72 5.62,-93.73 5.55,-93.72 5.49,-93.73 5.43,-93.72 5.37,-93.73 5.33,-93.72 5.27,-93.72 5.23,-93.73 5.2,-93.72 5.15,-93.73 5.12,-93.72 5.07,-93.73 5.04,-93.72 5.01,-93.72 4.97,-93.73 4.94,-93.72 4.91,-93.72 4.88,-93.73 4.84,-93.72 4.82,-93.73 4.79,-93.72 4.76,-93.72 4.74,-93.73 4.7,-93.72 4.69,-93.726 4.66,-93.726 4.63,-93.723 4.62,-93.727" /><path
             id="path334"
             style="fill:none;stroke:#3c508b;stroke-width:17.5;stroke-linecap:round;stroke-linejoin:round;stroke-miterlimit:10;stroke-dasharray:none;stroke-opacity:1"
             d="m 1887.57,3348.9 -0.66,-93.72 -0.59,-93.73 -0.51,-93.72 -0.44,-93.73 -0.37,-93.72 -0.3,-93.73 -0.22,-93.72 -0.16,-93.72 -0.1,-93.73 -0.02,-93.72 0.03,-93.73 0.11,-93.72 0.16,-93.73 0.22,-93.72 0.28,-93.72 0.34,-93.73 0.4,-93.72 0.45,-93.72 0.51,-93.73 0.56,-93.72 0.61,-93.73 0.67,-93.72 0.71,-93.72 0.76,-93.73 0.81,-93.72 0.86,-93.726 0.9,-93.726 0.94,-93.723 1,-93.727" /><path
             id="path336"
             style="fill:none;stroke:#3b528b;stroke-width:17.5;stroke-linecap:round;stroke-linejoin:round;stroke-miterlimit:10;stroke-dasharray:none;stroke-opacity:1"
             d="m 2200.94,3348.9 -3.79,-93.72 -3.67,-93.73 -3.53,-93.72 -3.42,-93.73 -3.29,-93.72 -3.18,-93.73 -3.06,-93.72 -2.95,-93.72 -2.83,-93.73 -2.73,-93.72 -2.62,-93.73 -2.52,-93.72 -2.41,-93.73 -2.32,-93.72 -2.22,-93.72 -2.13,-93.73 -2.03,-93.72 -1.94,-93.72 -1.85,-93.73 -1.76,-93.72 -1.68,-93.73 -1.6,-93.72 -1.51,-93.72 -1.44,-93.73 -1.35,-93.72 -1.28,-93.726 -1.2,-93.726 -1.13,-93.723 -1.06,-93.727" /><path
             id="path338"
             style="fill:none;stroke:#39558c;stroke-width:17.5;stroke-linecap:round;stroke-linejoin:round;stroke-miterlimit:10;stroke-dasharray:none;stroke-opacity:1"
             d="m 2451.93,3348.9 -5.97,-93.72 -5.8,-93.73 -5.63,-93.72 -5.47,-93.73 -5.32,-93.72 -5.17,-93.73 -5.02,-93.72 -4.87,-93.72 -4.74,-93.73 -4.6,-93.72 -4.46,-93.73 -4.34,-93.72 -4.21,-93.73 -4.09,-93.72 -3.96,-93.72 -3.85,-93.73 -3.73,-93.72 -3.62,-93.72 -3.51,-93.73 -3.4,-93.72 -3.3,-93.73 -3.19,-93.72 -3.1,-93.72 -2.99,-93.73 -2.91,-93.72 -2.8,-93.726 -2.72,-93.726 -2.63,-93.723 -2.54,-93.727" /><path
             id="path340"
             style="fill:none;stroke:#38578c;stroke-width:17.5;stroke-linecap:round;stroke-linejoin:round;stroke-miterlimit:10;stroke-dasharray:none;stroke-opacity:1"
             d="m 2665.84,3348.9 -7.7,-93.72 -7.5,-93.73 -7.3,-93.72 -7.13,-93.73 -6.93,-93.72 -6.76,-93.73 -6.59,-93.72 -6.42,-93.72 -6.26,-93.73 -6.1,-93.72 -5.94,-93.73 -5.79,-93.72 -5.64,-93.73 -5.5,-93.72 -5.36,-93.72 -5.22,-93.73 -5.09,-93.72 -4.95,-93.72 -4.83,-93.73 -4.71,-93.72 -4.58,-93.73 -4.47,-93.72 -4.36,-93.72 -4.24,-93.73 -4.13,-93.72 -4.03,-93.726 -3.92,-93.726 -3.82,-93.723 -3.73,-93.727" /><path
             id="path342"
             style="fill:none;stroke:#375b8c;stroke-width:17.5;stroke-linecap:round;stroke-linejoin:round;stroke-miterlimit:10;stroke-dasharray:none;stroke-opacity:1"
             d="m 2854.31,3348.9 -9.16,-93.72 -8.94,-93.73 -8.72,-93.72 -8.51,-93.73 -8.3,-93.72 -8.11,-93.73 -7.92,-93.72 -7.73,-93.72 -7.54,-93.73 -7.38,-93.72 -7.19,-93.73 -7.03,-93.72 -6.86,-93.73 -6.71,-93.72 -6.54,-93.72 -6.4,-93.73 -6.25,-93.72 -6.1,-93.72 -5.96,-93.73 -5.83,-93.72 -5.69,-93.73 -5.56,-93.72 -5.43,-93.72 -5.31,-93.73 -5.18,-93.72 -5.07,-93.726 -4.94,-93.726 -4.84,-93.723 -4.72,-93.727" /><path
             id="path344"
             style="fill:none;stroke:#365d8d;stroke-width:17.5;stroke-linecap:round;stroke-linejoin:round;stroke-miterlimit:10;stroke-dasharray:none;stroke-opacity:1"
             d="m 3024,3348.9 -10.48,-93.72 -10.23,-93.73 -9.99,-93.72 -9.75,-93.73 -9.53,-93.72 -9.31,-93.73 -9.09,-93.72 -8.89,-93.72 -8.68,-93.73 -8.49,-93.72 -8.3,-93.73 -8.11,-93.72 -7.94,-93.73 -7.75,-93.72 -7.59,-93.72 -7.42,-93.73 -7.26,-93.72 -7.1,-93.72 -6.95,-93.73 -6.8,-93.72 -6.65,-93.73 -6.51,-93.72 -6.37,-93.72 -6.23,-93.73 -6.1,-93.72 -5.97,-93.726 -5.85,-93.726 -5.72,-93.723 -5.6,-93.727" /><path
             id="path346"
             style="fill:none;stroke:#34608d;stroke-width:17.5;stroke-linecap:round;stroke-linejoin:round;stroke-miterlimit:10;stroke-dasharray:none;stroke-opacity:1"
             d="m 3179.23,3348.9 -11.68,-93.72 -11.41,-93.73 -11.15,-93.72 -10.89,-93.73 -10.65,-93.72 -10.41,-93.73 -10.17,-93.72 -9.95,-93.72 -9.73,-93.73 -9.51,-93.72 -9.31,-93.73 -9.11,-93.72 -8.9,-93.73 -8.72,-93.72 -8.53,-93.72 -8.35,-93.73 -8.18,-93.72 -8,-93.72 -7.83,-93.73 -7.68,-93.72 -7.51,-93.73 -7.36,-93.72 -7.21,-93.72 -7.06,-93.73 -6.91,-93.72 -6.79,-93.726 -6.64,-93.726 -6.5,-93.723 -6.38,-93.727" /><path
             id="path348"
             style="fill:none;stroke:#33638d;stroke-width:17.5;stroke-linecap:round;stroke-linejoin:round;stroke-miterlimit:10;stroke-dasharray:none;stroke-opacity:1"
             d="m 3322.92,3348.9 -12.8,-93.72 -12.51,-93.73 -12.22,-93.72 -11.95,-93.73 -11.69,-93.72 -11.42,-93.73 -11.17,-93.72 -10.93,-93.72 -10.69,-93.73 -10.47,-93.72 -10.24,-93.73 -10.02,-93.72 -9.81,-93.73 -9.61,-93.72 -9.41,-93.72 -9.21,-93.73 -9.02,-93.72 -8.84,-93.72 -8.66,-93.73 -8.48,-93.72 -8.31,-93.73 -8.15,-93.72 -7.98,-93.72 -7.82,-93.73 -7.67,-93.72 -7.52,-93.726 -7.37,-93.726 -7.24,-93.723 -7.08,-93.727" /><path
             id="path350"
             style="fill:none;stroke:#32658d;stroke-width:17.5;stroke-linecap:round;stroke-linejoin:round;stroke-miterlimit:10;stroke-dasharray:none;stroke-opacity:1"
             d="m 3457.29,3348.9 -13.88,-93.72 -13.56,-93.73 -13.25,-93.72 -12.96,-93.73 -12.66,-93.72 -12.39,-93.73 -12.11,-93.72 -11.85,-93.72 -11.61,-93.73 -11.35,-93.72 -11.12,-93.73 -10.88,-93.72 -10.65,-93.73 -10.44,-93.72 -10.22,-93.72 -10.02,-93.73 -9.81,-93.72 -9.62,-93.72 -9.43,-93.73 -9.24,-93.72 -9.06,-93.73 -8.88,-93.72 -8.7,-93.72 -8.54,-93.73 -8.38,-93.72 -8.21,-93.726 -8.06,-93.726 -7.9,-93.723 -7.76,-93.727" /><path
             id="path352"
             style="fill:none;stroke:#31688e;stroke-width:17.5;stroke-linecap:round;stroke-linejoin:round;stroke-miterlimit:10;stroke-dasharray:none;stroke-opacity:1"
             d="m 3584.05,3348.9 -14.92,-93.72 -14.58,-93.73 -14.25,-93.72 -13.92,-93.73 -13.63,-93.72 -13.32,-93.73 -13.02,-93.72 -12.75,-93.72 -12.48,-93.73 -12.2,-93.72 -11.96,-93.73 -11.7,-93.72 -11.46,-93.73 -11.23,-93.72 -11,-93.72 -10.78,-93.73 -10.57,-93.72 -10.35,-93.72 -10.15,-93.73 -9.96,-93.72 -9.76,-93.73 -9.57,-93.72 -9.39,-93.72 -9.21,-93.73 -9.04,-93.72 -8.87,-93.726 -8.69,-93.726 -8.55,-93.723 -8.38,-93.727" /><path
             id="path354"
             style="fill:none;stroke:#306a8e;stroke-width:17.5;stroke-linecap:round;stroke-linejoin:round;stroke-miterlimit:10;stroke-dasharray:none;stroke-opacity:1"
             d="m 3704.52,3348.9 -15.94,-93.72 -15.57,-93.73 -15.22,-93.72 -14.88,-93.73 -14.55,-93.72 -14.23,-93.73 -13.92,-93.72 -13.62,-93.72 -13.32,-93.73 -13.05,-93.72 -12.77,-93.73 -12.51,-93.72 -12.25,-93.73 -12,-93.72 -11.75,-93.72 -11.52,-93.73 -11.29,-93.72 -11.07,-93.72 -10.85,-93.73 -10.64,-93.72 -10.43,-93.73 -10.24,-93.72 -10.04,-93.72 -9.85,-93.73 -9.67,-93.72 -9.49,-93.726 -9.31,-93.726 -9.15,-93.723 -8.97,-93.727" /><path
             id="path356"
             style="fill:none;stroke:#2e6d8e;stroke-width:17.5;stroke-linecap:round;stroke-linejoin:round;stroke-miterlimit:10;stroke-dasharray:none;stroke-opacity:1"
             d="m 3819.82,3348.9 -16.96,-93.72 -16.57,-93.73 -16.18,-93.72 -15.83,-93.73 -15.47,-93.72 -15.12,-93.73 -14.8,-93.72 -14.48,-93.72 -14.16,-93.73 -13.87,-93.72 -13.58,-93.73 -13.29,-93.72 -13.02,-93.73 -12.75,-93.72 -12.5,-93.72 -12.24,-93.73 -12,-93.72 -11.77,-93.72 -11.53,-93.73 -11.31,-93.72 -11.1,-93.73 -10.88,-93.72 -10.68,-93.72 -10.47,-93.73 -10.28,-93.72 -10.09,-93.726 -9.91,-93.726 -9.72,-93.723 -9.55,-93.727" /><path
             id="path358"
             style="fill:none;stroke:#2d708e;stroke-width:17.5;stroke-linecap:round;stroke-linejoin:round;stroke-miterlimit:10;stroke-dasharray:none;stroke-opacity:1"
             d="m 3930.91,3348.9 -18,-93.72 -17.57,-93.73 -17.17,-93.72 -16.78,-93.73 -16.39,-93.72 -16.03,-93.73 -15.68,-93.72 -15.33,-93.72 -15,-93.73 -14.69,-93.72 -14.37,-93.73 -14.07,-93.72 -13.78,-93.73 -13.5,-93.72 -13.23,-93.72 -12.96,-93.73 -12.7,-93.72 -12.46,-93.72 -12.21,-93.73 -11.97,-93.72 -11.75,-93.73 -11.52,-93.72 -11.3,-93.72 -11.09,-93.73 -10.88,-93.72 -10.68,-93.726 -10.49,-93.726 -10.29,-93.723 -10.11,-93.727" /><path
             id="path360"
             style="fill:none;stroke:#2c718e;stroke-width:17.5;stroke-linecap:round;stroke-linejoin:round;stroke-miterlimit:10;stroke-dasharray:none;stroke-opacity:1"
             d="m 4038.66,3348.9 -19.07,-93.72 -18.61,-93.73 -18.18,-93.72 -17.75,-93.73 -17.35,-93.72 -16.95,-93.73 -16.57,-93.72 -16.21,-93.72 -15.85,-93.73 -15.51,-93.72 -15.18,-93.73 -14.86,-93.72 -14.54,-93.73 -14.25,-93.72 -13.96,-93.72 -13.68,-93.73 -13.4,-93.72 -13.14,-93.72 -12.88,-93.73 -12.63,-93.72 -12.38,-93.73 -12.16,-93.72 -11.92,-93.72 -11.69,-93.73 -11.48,-93.72 -11.27,-93.726 -11.06,-93.726 -10.86,-93.723 -10.67,-93.727" /><path
             id="path362"
             style="fill:none;stroke:#2b748e;stroke-width:17.5;stroke-linecap:round;stroke-linejoin:round;stroke-miterlimit:10;stroke-dasharray:none;stroke-opacity:1"
             d="m 4143.83,3348.9 -20.18,-93.72 -19.7,-93.73 -19.22,-93.72 -18.76,-93.73 -18.33,-93.72 -17.9,-93.73 -17.5,-93.72 -17.11,-93.72 -16.72,-93.73 -16.36,-93.72 -16.01,-93.73 -15.66,-93.72 -15.33,-93.73 -15.01,-93.72 -14.7,-93.72 -14.41,-93.73 -14.11,-93.72 -13.82,-93.72 -13.56,-93.73 -13.29,-93.72 -13.03,-93.73 -12.79,-93.72 -12.54,-93.72 -12.3,-93.73 -12.08,-93.72 -11.85,-93.726 -11.63,-93.726 -11.42,-93.723 -11.22,-93.727" /><path
             id="path364"
             style="fill:none;stroke:#2b768e;stroke-width:17.5;stroke-linecap:round;stroke-linejoin:round;stroke-miterlimit:10;stroke-dasharray:none;stroke-opacity:1"
             d="m 4247.19,3348.9 -21.37,-93.72 -20.84,-93.73 -20.32,-93.72 -19.83,-93.73 -19.36,-93.72 -18.9,-93.73 -18.46,-93.72 -18.04,-93.72 -17.64,-93.73 -17.24,-93.72 -16.86,-93.73 -16.5,-93.72 -16.14,-93.73 -15.8,-93.72 -15.47,-93.72 -15.15,-93.73 -14.84,-93.72 -14.53,-93.72 -14.25,-93.73 -13.96,-93.72 -13.69,-93.73 -13.43,-93.72 -13.17,-93.72 -12.92,-93.73 -12.67,-93.72 -12.44,-93.726 -12.21,-93.726 -11.98,-93.723 -11.77,-93.727" /><path
             id="path366"
             style="fill:none;stroke:#29798e;stroke-width:17.5;stroke-linecap:round;stroke-linejoin:round;stroke-miterlimit:10;stroke-dasharray:none;stroke-opacity:1"
             d="m 4349.54,3348.9 -22.66,-93.72 -22.08,-93.73 -21.51,-93.72 -20.98,-93.73 -20.46,-93.72 -19.97,-93.73 -19.49,-93.72 -19.03,-93.72 -18.59,-93.73 -18.17,-93.72 -17.76,-93.73 -17.37,-93.72 -16.99,-93.73 -16.62,-93.72 -16.27,-93.72 -15.92,-93.73 -15.6,-93.72 -15.27,-93.72 -14.96,-93.73 -14.66,-93.72 -14.37,-93.73 -14.09,-93.72 -13.81,-93.72 -13.55,-93.73 -13.29,-93.72 -13.04,-93.726 -12.8,-93.726 -12.55,-93.723 -12.34,-93.727" /><path
             id="path368"
             style="fill:none;stroke:#287c8e;stroke-width:17.5;stroke-linecap:round;stroke-linejoin:round;stroke-miterlimit:10;stroke-dasharray:none;stroke-opacity:1"
             d="m 4451.72,3348.9 -24.09,-93.72 -23.45,-93.73 -22.82,-93.72 -22.24,-93.73 -21.66,-93.72 -21.12,-93.73 -20.61,-93.72 -20.1,-93.72 -19.62,-93.73 -19.17,-93.72 -18.71,-93.73 -18.3,-93.72 -17.89,-93.73 -17.49,-93.72 -17.11,-93.72 -16.74,-93.73 -16.39,-93.72 -16.04,-93.72 -15.71,-93.73 -15.39,-93.72 -15.08,-93.73 -14.78,-93.72 -14.48,-93.72 -14.2,-93.73 -13.93,-93.72 -13.66,-93.726 -13.4,-93.726 -13.16,-93.723 -12.9,-93.727" /><path
             id="path370"
             style="fill:none;stroke:#287e8e;stroke-width:17.5;stroke-linecap:round;stroke-linejoin:round;stroke-miterlimit:10;stroke-dasharray:none;stroke-opacity:1"
             d="m 4554.72,3348.9 -25.72,-93.72 -25,-93.73 -24.3,-93.72 -23.64,-93.73 -23.01,-93.72 -22.4,-93.73 -21.83,-93.72 -21.28,-93.72 -20.76,-93.73 -20.25,-93.72 -19.76,-93.73 -19.31,-93.72 -18.85,-93.73 -18.43,-93.72 -18.01,-93.72 -17.62,-93.73 -17.23,-93.72 -16.86,-93.72 -16.5,-93.73 -16.16,-93.72 -15.83,-93.73 -15.5,-93.72 -15.19,-93.72 -14.89,-93.73 -14.6,-93.72 -14.31,-93.726 -14.03,-93.726 -13.77,-93.723 -13.51,-93.727" /><path
             id="path372"
             style="fill:none;stroke:#26808e;stroke-width:17.5;stroke-linecap:round;stroke-linejoin:round;stroke-miterlimit:10;stroke-dasharray:none;stroke-opacity:1"
             d="m 4659.75,3348.9 -27.64,-93.72 -26.8,-93.73 -26,-93.72 -25.26,-93.73 -24.54,-93.72 -23.87,-93.73 -23.21,-93.72 -22.61,-93.72 -22.03,-93.73 -21.46,-93.72 -20.92,-93.73 -20.42,-93.72 -19.92,-93.73 -19.46,-93.72 -19,-93.72 -18.56,-93.73 -18.15,-93.72 -17.74,-93.72 -17.36,-93.73 -16.99,-93.72 -16.62,-93.73 -16.28,-93.72 -15.95,-93.72 -15.61,-93.73 -15.3,-93.72 -15,-93.726 -14.71,-93.726 -14.42,-93.723 -14.14,-93.727" /><path
             id="path374"
             style="fill:none;stroke:#26828e;stroke-width:17.5;stroke-linecap:round;stroke-linejoin:round;stroke-miterlimit:10;stroke-dasharray:none;stroke-opacity:1"
             d="m 4772.93,3348.9 -30.82,-93.72 -29.29,-93.73 -28.12,-93.72 -30.45,-93.73 -26.35,-93.72 -25.57,-93.73 -24.84,-93.72 -24.14,-93.72 -23.47,-93.73 -22.85,-93.72 -22.24,-93.73 -21.68,-93.72 -21.12,-93.73 -20.6,-93.72 -20.11,-93.72 -19.62,-93.73 -19.16,-93.72 -18.72,-93.72 -18.3,-93.73 -17.89,-93.72 -17.5,-93.73 -17.12,-93.72 -16.75,-93.72 -16.4,-93.73 -16.07,-93.72 -15.73,-93.726 -15.43,-93.726 -15.11,-93.723 -14.82,-93.727" /><path
             id="path376"
             style="fill:none;stroke:#24858e;stroke-width:17.5;stroke-linecap:round;stroke-linejoin:round;stroke-miterlimit:10;stroke-dasharray:none;stroke-opacity:1"
             d="m 4885.36,3348.9 -32.41,-93.72 -31.05,-93.73 -30.61,-93.72 -29.13,-93.73 -29.23,-93.72 -27.49,-93.73 -27.06,-93.72 -26.04,-93.72 -27.17,-93.73 -25.57,-93.72 -23.79,-93.73 -23.13,-93.72 -22.51,-93.73 -21.92,-93.72 -21.36,-93.72 -20.83,-93.73 -20.31,-93.72 -19.82,-93.72 -19.35,-93.73 -18.9,-93.72 -18.47,-93.73 -18.04,-93.72 -17.65,-93.72 -17.27,-93.73 -16.9,-93.72 -16.54,-93.726 -16.2,-93.726 -15.86,-93.723 -15.54,-93.727" /><path
             id="path378"
             style="fill:none;stroke:#24878e;stroke-width:17.5;stroke-linecap:round;stroke-linejoin:round;stroke-miterlimit:10;stroke-dasharray:none;stroke-opacity:1"
             d="m 4998.3,3348.9 -33.46,-93.72 -32.62,-93.73 -32.34,-93.72 -30.76,-93.73 -29.98,-93.72 -29.74,-93.73 -29.38,-93.72 -27.66,-93.72 -26.97,-93.73 -27.01,-93.72 -25.51,-93.73 -25.13,-93.72 -24.22,-93.73 -25.32,-93.72 -23.9,-93.72 -22.22,-93.73 -21.64,-93.72 -21.09,-93.72 -20.55,-93.73 -20.06,-93.72 -19.56,-93.73 -19.11,-93.72 -18.66,-93.72 -18.23,-93.73 -17.83,-93.72 -17.44,-93.726 -17.05,-93.726 -16.7,-93.723 -16.34,-93.727" /><path
             id="path380"
             style="fill:none;stroke:#238a8d;stroke-width:17.5;stroke-linecap:round;stroke-linejoin:round;stroke-miterlimit:10;stroke-dasharray:none;stroke-opacity:1"
             d="m 5113.58,3348.9 -35.18,-93.72 -34.34,-93.73 -34.2,-93.72 -32.51,-93.73 -32.47,-93.72 -30.85,-93.73 -30.53,-93.72 -29.14,-93.72 -28.44,-93.73 -27.9,-93.72 -27.63,-93.73 -26.66,-93.72 -26.02,-93.73 -25.78,-93.72 -24.38,-93.72 -24.03,-93.73 -23.18,-93.72 -22.64,-93.72 -23.69,-93.73 -21.46,-93.72 -21.82,-93.73 -20.32,-93.72 -19.83,-93.72 -19.35,-93.73 -18.89,-93.72 -18.45,-93.726 -18.03,-93.726 -17.63,-93.723 -17.24,-93.727" /><path
             id="path382"
             style="fill:none;stroke:#228d8d;stroke-width:17.5;stroke-linecap:round;stroke-linejoin:round;stroke-miterlimit:10;stroke-dasharray:none;stroke-opacity:1"
             d="m 5228.25,3348.9 -36.85,-93.72 -36.49,-93.73 -34.8,-93.72 -33.95,-93.73 -33.15,-93.72 -32.44,-93.73 -32.16,-93.72 -30.73,-93.72 -30.02,-93.73 -29.91,-93.72 -29.15,-93.73 -27.69,-93.72 -27.05,-93.73 -26.55,-93.72 -26.33,-93.72 -25.12,-93.73 -24.56,-93.72 -24.31,-93.72 -24.29,-93.73 -22.79,-93.72 -22.49,-93.73 -21.72,-93.72 -21.72,-93.72 -21.78,-93.73 -20.17,-93.72 -20.58,-93.726 -19.16,-93.726 -18.71,-93.723 -18.27,-93.727" /><path
             id="path384"
             style="fill:none;stroke:#218f8d;stroke-width:17.5;stroke-linecap:round;stroke-linejoin:round;stroke-miterlimit:10;stroke-dasharray:none;stroke-opacity:1"
             d="m 5343.36,3348.9 -38.4,-93.72 -38.14,-93.73 -36.38,-93.72 -35.51,-93.73 -34.7,-93.72 -34.16,-93.73 -32.8,-93.72 -32.05,-93.72 -31.33,-93.73 -31.26,-93.72 -29.79,-93.73 -29.13,-93.72 -28.49,-93.73 -28.33,-93.72 -27.05,-93.72 -26.45,-93.73 -26.55,-93.72 -25.32,-93.72 -25.16,-93.73 -24.01,-93.72 -23.49,-93.73 -23,-93.72 -23.04,-93.72 -22.16,-93.73 -21.67,-93.72 -21.11,-93.726 -20.44,-93.726 -20.44,-93.723 -20.53,-93.727" /><path
             id="path386"
             style="fill:none;stroke:#20918c;stroke-width:17.5;stroke-linecap:round;stroke-linejoin:round;stroke-miterlimit:10;stroke-dasharray:none;stroke-opacity:1"
             d="m 5458.23,3348.9 -40.45,-93.72 -38.75,-93.73 -37.82,-93.72 -36.95,-93.73 -36.77,-93.72 -35.08,-93.73 -34.26,-93.72 -33.51,-93.72 -33.08,-93.73 -31.73,-93.72 -31.02,-93.73 -30.35,-93.72 -29.72,-93.73 -29.56,-93.72 -28.27,-93.72 -27.68,-93.73 -27.1,-93.72 -26.89,-93.72 -25.76,-93.73 -25.22,-93.72 -24.69,-93.73 -24.21,-93.72 -23.7,-93.72 -24.19,-93.73 -22.52,-93.72 -22.06,-93.726 -22.15,-93.726 -21.03,-93.723 -20.58,-93.727" /><path
             id="path388"
             style="fill:none;stroke:#20938c;stroke-width:17.5;stroke-linecap:round;stroke-linejoin:round;stroke-miterlimit:10;stroke-dasharray:none;stroke-opacity:1"
             d="m 5573.81,3348.9 -42.19,-93.72 -40.39,-93.73 -39.46,-93.72 -38.86,-93.73 -37.3,-93.72 -36.43,-93.73 -35.61,-93.72 -34.8,-93.72 -34.55,-93.73 -33.11,-93.72 -32.4,-93.73 -31.71,-93.72 -31.09,-93.73 -30.06,-93.72 -29.42,-93.72 -28.81,-93.73 -28.18,-93.72 -28.09,-93.72 -26.91,-93.73 -26.35,-93.72 -25.84,-93.73 -25.59,-93.72 -24.59,-93.72 -24.09,-93.73 -23.6,-93.72 -23.16,-93.726 -22.69,-93.726 -22.66,-93.723 -21.7,-93.727" /><path
             id="path390"
             style="fill:none;stroke:#1f968b;stroke-width:17.5;stroke-linecap:round;stroke-linejoin:round;stroke-miterlimit:10;stroke-dasharray:none;stroke-opacity:1"
             d="m 5689.5,3348.9 -42.89,-93.72 -41.89,-93.73 -41.26,-93.72 -40.87,-93.73 -38.84,-93.72 -37.98,-93.73 -37.39,-93.72 -35.95,-93.72 -35.13,-93.73 -34.38,-93.72 -33.61,-93.73 -33.42,-93.72 -32.03,-93.73 -31.35,-93.72 -30.72,-93.72 -30.21,-93.73 -29.16,-93.72 -28.55,-93.72 -27.98,-93.73 -27.43,-93.72 -27.33,-93.73 -26.19,-93.72 -25.66,-93.72 -25.16,-93.73 -24.69,-93.72 -24.39,-93.726 -23.51,-93.726 -23.05,-93.723 -22.61,-93.727" /><path
             id="path392"
             style="fill:none;stroke:#1f998a;stroke-width:17.5;stroke-linecap:round;stroke-linejoin:round;stroke-miterlimit:10;stroke-dasharray:none;stroke-opacity:1"
             d="m 5770,3275.05 -9.45,-19.87 -43.57,-93.73 -42.51,-93.72 -41.13,-93.73 -40.22,-93.72 -39.28,-93.73 -38.98,-93.72 -37.4,-93.72 -36.92,-93.73 -36.36,-93.72 -34.7,-93.73 -33.93,-93.72 -33.21,-93.73 -32.56,-93.72 -32.31,-93.72 -31.02,-93.73 -30.39,-93.72 -29.77,-93.72 -29.22,-93.73 -28.49,-93.72 -27.74,-93.73 -27.18,-93.72 -26.67,-93.72 -26.09,-93.73 -26.09,-93.72 -25.01,-93.726 -24.52,-93.726 -24.07,-93.723 -23.62,-93.727" /><path
             id="path394"
             style="fill:none;stroke:#1f9b89;stroke-width:17.5;stroke-linecap:round;stroke-linejoin:round;stroke-miterlimit:10;stroke-dasharray:none;stroke-opacity:1"
             d="m 5770,3033.37 -27.06,-59.37 -42.03,-93.72 -40.43,-93.73 -39.52,-93.72 -38.67,-93.72 -38.45,-93.73 -36.84,-93.72 -36.05,-93.73 -35.3,-93.72 -34.62,-93.73 -33.66,-93.72 -33.1,-93.72 -32.14,-93.73 -31.83,-93.72 -31.32,-93.72 -30.09,-93.73 -29.47,-93.72 -28.9,-93.73 -28.36,-93.72 -27.77,-93.72 -26.98,-93.73 -26.44,-93.72 -25.95,-93.726 -25.47,-93.726 -24.88,-93.723 -24.93,-93.727" /><path
             id="path396"
             style="fill:none;stroke:#1f9d88;stroke-width:17.5;stroke-linecap:round;stroke-linejoin:round;stroke-miterlimit:10;stroke-dasharray:none;stroke-opacity:1"
             d="m 5770,2791.98 -2.43,-5.43 -41.03,-93.72 -40.24,-93.72 -38.86,-93.73 -38.03,-93.72 -37.25,-93.73 -37.01,-93.72 -35.52,-93.73 -34.79,-93.72 -34.09,-93.72 -33.45,-93.73 -32.52,-93.72 -31.74,-93.72 -31.11,-93.73 -30.53,-93.72 -29.81,-93.73 -30.06,-93.72 -28.91,-93.72 -28.07,-93.73 -27.56,-93.72 -27.1,-93.726 -26.25,-93.726 -25.75,-93.723 -25.27,-93.727" /><path
             id="path398"
             style="fill:none;stroke:#1fa088;stroke-width:17.5;stroke-linecap:round;stroke-linejoin:round;stroke-miterlimit:10;stroke-dasharray:none;stroke-opacity:1"
             d="m 5770,2550.24 -19.29,-44.86 -39.48,-93.72 -38.56,-93.73 -37.42,-93.72 -36.64,-93.73 -35.93,-93.72 -35.67,-93.72 -34.3,-93.73 -33.6,-93.72 -32.96,-93.72 -32.36,-93.73 -31.45,-93.72 -30.73,-93.73 -30.15,-93.72 -29.6,-93.72 -29.07,-93.73 -28.78,-93.72 -27.81,-93.726 -27.29,-93.726 -27.05,-93.723 -26.34,-93.727" /><path
             id="path400"
             style="fill:none;stroke:#1fa287;stroke-width:17.5;stroke-linecap:round;stroke-linejoin:round;stroke-miterlimit:10;stroke-dasharray:none;stroke-opacity:1"
             d="m 5770,2308.82 -35.02,-84.61 -38.04,-93.73 -37.01,-93.72 -36.07,-93.72 -35.36,-93.73 -34.7,-93.72 -34.41,-93.72 -33.16,-93.73 -32.5,-93.72 -31.91,-93.73 -31.34,-93.72 -30.44,-93.72 -29.79,-93.73 -29.24,-93.72 -28.72,-93.726 -28.22,-93.726 -27.98,-93.723 -27.03,-93.727" /></g></g></g></g></svg>