<?xml version="1.0" encoding="UTF-8" standalone="no"?>
<svg
   xmlns:dc="http://purl.org/dc/elements/1.1/"
   xmlns:cc="http://creativecommons.org/ns#"
   xmlns:rdf="http://www.w3.org/1999/02/22-rdf-syntax-ns#"
   xmlns:svg="http://www.w3.org/2000/svg"
   xmlns="http://www.w3.org/2000/svg"
   viewBox="0 0 576 384"
   height="384"
   width="576"
   xml:space="preserve"
   id="svg2"
   version="1.1"><metadata
     id="metadata8"><rdf:RDF><cc:Work
         rdf:about=""><dc:format>image/svg+xml</dc:format><dc:type
           rdf:resource="http://purl.org/dc/dcmitype/StillImage" /></cc:Work></rdf:RDF></metadata><defs
     id="defs6"><clipPath
       id="clipPath24"
       clipPathUnits="userSpaceOnUse"><path
         id="path22"
         d="M 540,360 H 3888 V 2534 H 540 Z" /></clipPath><clipPath
       id="clipPath388"
       clipPathUnits="userSpaceOnUse"><path
         id="path386"
         d="M 540,360 H 3888 V 2534 H 540 Z" /></clipPath></defs><g
     transform="matrix(1.3333333,0,0,-1.3333333,0,384)"
     id="g10"><g
       transform="scale(0.1)"
       id="g12"><path
         id="path14"
         style="fill:#ffffff;fill-opacity:1;fill-rule:nonzero;stroke:none"
         d="M 0,0 H 4320 V 2880 H 0 Z" /><path
         id="path16"
         style="fill:#ffffff;fill-opacity:1;fill-rule:nonzero;stroke:none"
         d="M 540,360 H 3888 V 2534.4 H 540 Z" /><g
         id="g18"><g
           clip-path="url(#clipPath24)"
           id="g20"><path
             id="path26"
             style="fill:#1f77b4;fill-opacity:1;fill-rule:nonzero;stroke:none"
             d="m 691.602,457.59 60,60 m -60,0 60,-60" /><path
             id="path28"
             style="fill:none;stroke:#1f77b4;stroke-width:15;stroke-linecap:butt;stroke-linejoin:round;stroke-miterlimit:10;stroke-dasharray:none;stroke-opacity:1"
             d="m 691.602,457.59 60,60 m -60,0 60,-60" /><path
             id="path30"
             style="fill:#1f77b4;fill-opacity:1;fill-rule:nonzero;stroke:none"
             d="m 752.516,457.59 60,60 m -60,0 60,-60" /><path
             id="path32"
             style="fill:none;stroke:#1f77b4;stroke-width:15;stroke-linecap:butt;stroke-linejoin:round;stroke-miterlimit:10;stroke-dasharray:none;stroke-opacity:1"
             d="m 752.516,457.59 60,60 m -60,0 60,-60" /><path
             id="path34"
             style="fill:#1f77b4;fill-opacity:1;fill-rule:nonzero;stroke:none"
             d="m 813.43,457.59 60,60 m -60,0 60,-60" /><path
             id="path36"
             style="fill:none;stroke:#1f77b4;stroke-width:15;stroke-linecap:butt;stroke-linejoin:round;stroke-miterlimit:10;stroke-dasharray:none;stroke-opacity:1"
             d="m 813.43,457.59 60,60 m -60,0 60,-60" /><path
             id="path38"
             style="fill:#1f77b4;fill-opacity:1;fill-rule:nonzero;stroke:none"
             d="m 874.344,457.59 60,60 m -60,0 60,-60" /><path
             id="path40"
             style="fill:none;stroke:#1f77b4;stroke-width:15;stroke-linecap:butt;stroke-linejoin:round;stroke-miterlimit:10;stroke-dasharray:none;stroke-opacity:1"
             d="m 874.344,457.59 60,60 m -60,0 60,-60" /><path
             id="path42"
             style="fill:#1f77b4;fill-opacity:1;fill-rule:nonzero;stroke:none"
             d="m 935.258,457.59 60,60 m -60,0 60,-60" /><path
             id="path44"
             style="fill:none;stroke:#1f77b4;stroke-width:15;stroke-linecap:butt;stroke-linejoin:round;stroke-miterlimit:10;stroke-dasharray:none;stroke-opacity:1"
             d="m 935.258,457.59 60,60 m -60,0 60,-60" /><path
             id="path46"
             style="fill:#1f77b4;fill-opacity:1;fill-rule:nonzero;stroke:none"
             d="m 996.172,457.59 59.998,60 m -59.998,0 59.998,-60" /><path
             id="path48"
             style="fill:none;stroke:#1f77b4;stroke-width:15;stroke-linecap:butt;stroke-linejoin:round;stroke-miterlimit:10;stroke-dasharray:none;stroke-opacity:1"
             d="m 996.172,457.59 59.998,60 m -59.998,0 59.998,-60" /><path
             id="path50"
             style="fill:#1f77b4;fill-opacity:1;fill-rule:nonzero;stroke:none"
             d="m 1057.09,457.59 60,60 m -60,0 60,-60" /><path
             id="path52"
             style="fill:none;stroke:#1f77b4;stroke-width:15;stroke-linecap:butt;stroke-linejoin:round;stroke-miterlimit:10;stroke-dasharray:none;stroke-opacity:1"
             d="m 1057.09,457.59 60,60 m -60,0 60,-60" /><path
             id="path54"
             style="fill:#1f77b4;fill-opacity:1;fill-rule:nonzero;stroke:none"
             d="m 1118,457.59 60,60 m -60,0 60,-60" /><path
             id="path56"
             style="fill:none;stroke:#1f77b4;stroke-width:15;stroke-linecap:butt;stroke-linejoin:round;stroke-miterlimit:10;stroke-dasharray:none;stroke-opacity:1"
             d="m 1118,457.59 60,60 m -60,0 60,-60" /><path
             id="path58"
             style="fill:#1f77b4;fill-opacity:1;fill-rule:nonzero;stroke:none"
             d="m 1178.92,457.59 60,60 m -60,0 60,-60" /><path
             id="path60"
             style="fill:none;stroke:#1f77b4;stroke-width:15;stroke-linecap:butt;stroke-linejoin:round;stroke-miterlimit:10;stroke-dasharray:none;stroke-opacity:1"
             d="m 1178.92,457.59 60,60 m -60,0 60,-60" /><path
             id="path62"
             style="fill:#1f77b4;fill-opacity:1;fill-rule:nonzero;stroke:none"
             d="m 1239.83,457.59 60,60 m -60,0 60,-60" /><path
             id="path64"
             style="fill:none;stroke:#1f77b4;stroke-width:15;stroke-linecap:butt;stroke-linejoin:round;stroke-miterlimit:10;stroke-dasharray:none;stroke-opacity:1"
             d="m 1239.83,457.59 60,60 m -60,0 60,-60" /><path
             id="path66"
             style="fill:#1f77b4;fill-opacity:1;fill-rule:nonzero;stroke:none"
             d="m 1300.74,457.59 60,60 m -60,0 60,-60" /><path
             id="path68"
             style="fill:none;stroke:#1f77b4;stroke-width:15;stroke-linecap:butt;stroke-linejoin:round;stroke-miterlimit:10;stroke-dasharray:none;stroke-opacity:1"
             d="m 1300.74,457.59 60,60 m -60,0 60,-60" /><path
             id="path70"
             style="fill:#1f77b4;fill-opacity:1;fill-rule:nonzero;stroke:none"
             d="m 1361.66,457.59 60,60 m -60,0 60,-60" /><path
             id="path72"
             style="fill:none;stroke:#1f77b4;stroke-width:15;stroke-linecap:butt;stroke-linejoin:round;stroke-miterlimit:10;stroke-dasharray:none;stroke-opacity:1"
             d="m 1361.66,457.59 60,60 m -60,0 60,-60" /><path
             id="path74"
             style="fill:#1f77b4;fill-opacity:1;fill-rule:nonzero;stroke:none"
             d="m 1422.57,870.359 60,60 m -60,0 60,-60" /><path
             id="path76"
             style="fill:none;stroke:#1f77b4;stroke-width:15;stroke-linecap:butt;stroke-linejoin:round;stroke-miterlimit:10;stroke-dasharray:none;stroke-opacity:1"
             d="m 1422.57,870.359 60,60 m -60,0 60,-60" /><path
             id="path78"
             style="fill:#1f77b4;fill-opacity:1;fill-rule:nonzero;stroke:none"
             d="m 1483.49,1212.25 60,60 m -60,0 60,-60" /><path
             id="path80"
             style="fill:none;stroke:#1f77b4;stroke-width:15;stroke-linecap:butt;stroke-linejoin:round;stroke-miterlimit:10;stroke-dasharray:none;stroke-opacity:1"
             d="m 1483.49,1212.25 60,60 m -60,0 60,-60" /><path
             id="path82"
             style="fill:#1f77b4;fill-opacity:1;fill-rule:nonzero;stroke:none"
             d="m 1544.4,1377.35 60,60 m -60,0 60,-60" /><path
             id="path84"
             style="fill:none;stroke:#1f77b4;stroke-width:15;stroke-linecap:butt;stroke-linejoin:round;stroke-miterlimit:10;stroke-dasharray:none;stroke-opacity:1"
             d="m 1544.4,1377.35 60,60 m -60,0 60,-60" /><path
             id="path86"
             style="fill:#1f77b4;fill-opacity:1;fill-rule:nonzero;stroke:none"
             d="m 1605.32,1479.5 60,60 m -60,0 60,-60" /><path
             id="path88"
             style="fill:none;stroke:#1f77b4;stroke-width:15;stroke-linecap:butt;stroke-linejoin:round;stroke-miterlimit:10;stroke-dasharray:none;stroke-opacity:1"
             d="m 1605.32,1479.5 60,60 m -60,0 60,-60" /><path
             id="path90"
             style="fill:#1f77b4;fill-opacity:1;fill-rule:nonzero;stroke:none"
             d="m 1666.23,1552.07 60,60 m -60,0 60,-60" /><path
             id="path92"
             style="fill:none;stroke:#1f77b4;stroke-width:15;stroke-linecap:butt;stroke-linejoin:round;stroke-miterlimit:10;stroke-dasharray:none;stroke-opacity:1"
             d="m 1666.23,1552.07 60,60 m -60,0 60,-60" /><path
             id="path94"
             style="fill:#1f77b4;fill-opacity:1;fill-rule:nonzero;stroke:none"
             d="m 1727.14,1608.39 60,60 m -60,0 60,-60" /><path
             id="path96"
             style="fill:none;stroke:#1f77b4;stroke-width:15;stroke-linecap:butt;stroke-linejoin:round;stroke-miterlimit:10;stroke-dasharray:none;stroke-opacity:1"
             d="m 1727.14,1608.39 60,60 m -60,0 60,-60" /><path
             id="path98"
             style="fill:#1f77b4;fill-opacity:1;fill-rule:nonzero;stroke:none"
             d="m 1788.06,1654.83 60,60 m -60,0 60,-60" /><path
             id="path100"
             style="fill:none;stroke:#1f77b4;stroke-width:15;stroke-linecap:butt;stroke-linejoin:round;stroke-miterlimit:10;stroke-dasharray:none;stroke-opacity:1"
             d="m 1788.06,1654.83 60,60 m -60,0 60,-60" /><path
             id="path102"
             style="fill:#1f77b4;fill-opacity:1;fill-rule:nonzero;stroke:none"
             d="m 1848.97,1694.81 60,60 m -60,0 60,-60" /><path
             id="path104"
             style="fill:none;stroke:#1f77b4;stroke-width:15;stroke-linecap:butt;stroke-linejoin:round;stroke-miterlimit:10;stroke-dasharray:none;stroke-opacity:1"
             d="m 1848.97,1694.81 60,60 m -60,0 60,-60" /><path
             id="path106"
             style="fill:#1f77b4;fill-opacity:1;fill-rule:nonzero;stroke:none"
             d="m 1909.89,1730.34 60,60 m -60,0 60,-60" /><path
             id="path108"
             style="fill:none;stroke:#1f77b4;stroke-width:15;stroke-linecap:butt;stroke-linejoin:round;stroke-miterlimit:10;stroke-dasharray:none;stroke-opacity:1"
             d="m 1909.89,1730.34 60,60 m -60,0 60,-60" /><path
             id="path110"
             style="fill:#1f77b4;fill-opacity:1;fill-rule:nonzero;stroke:none"
             d="m 1970.8,1762.66 60,60 m -60,0 60,-60" /><path
             id="path112"
             style="fill:none;stroke:#1f77b4;stroke-width:15;stroke-linecap:butt;stroke-linejoin:round;stroke-miterlimit:10;stroke-dasharray:none;stroke-opacity:1"
             d="m 1970.8,1762.66 60,60 m -60,0 60,-60" /><path
             id="path114"
             style="fill:#1f77b4;fill-opacity:1;fill-rule:nonzero;stroke:none"
             d="m 2031.71,1792.61 60,60 m -60,0 60,-60" /><path
             id="path116"
             style="fill:none;stroke:#1f77b4;stroke-width:15;stroke-linecap:butt;stroke-linejoin:round;stroke-miterlimit:10;stroke-dasharray:none;stroke-opacity:1"
             d="m 2031.71,1792.61 60,60 m -60,0 60,-60" /><path
             id="path118"
             style="fill:#1f77b4;fill-opacity:1;fill-rule:nonzero;stroke:none"
             d="m 2092.63,1820.75 60,60 m -60,0 60,-60" /><path
             id="path120"
             style="fill:none;stroke:#1f77b4;stroke-width:15;stroke-linecap:butt;stroke-linejoin:round;stroke-miterlimit:10;stroke-dasharray:none;stroke-opacity:1"
             d="m 2092.63,1820.75 60,60 m -60,0 60,-60" /><path
             id="path122"
             style="fill:#1f77b4;fill-opacity:1;fill-rule:nonzero;stroke:none"
             d="m 2153.54,1847.47 60,60 m -60,0 60,-60" /><path
             id="path124"
             style="fill:none;stroke:#1f77b4;stroke-width:15;stroke-linecap:butt;stroke-linejoin:round;stroke-miterlimit:10;stroke-dasharray:none;stroke-opacity:1"
             d="m 2153.54,1847.47 60,60 m -60,0 60,-60" /><path
             id="path126"
             style="fill:#1f77b4;fill-opacity:1;fill-rule:nonzero;stroke:none"
             d="m 2214.46,1873.07 60,60 m -60,0 60,-60" /><path
             id="path128"
             style="fill:none;stroke:#1f77b4;stroke-width:15;stroke-linecap:butt;stroke-linejoin:round;stroke-miterlimit:10;stroke-dasharray:none;stroke-opacity:1"
             d="m 2214.46,1873.07 60,60 m -60,0 60,-60" /><path
             id="path130"
             style="fill:#1f77b4;fill-opacity:1;fill-rule:nonzero;stroke:none"
             d="m 2275.37,1897.75 60,60 m -60,0 60,-60" /><path
             id="path132"
             style="fill:none;stroke:#1f77b4;stroke-width:15;stroke-linecap:butt;stroke-linejoin:round;stroke-miterlimit:10;stroke-dasharray:none;stroke-opacity:1"
             d="m 2275.37,1897.75 60,60 m -60,0 60,-60" /><path
             id="path134"
             style="fill:#1f77b4;fill-opacity:1;fill-rule:nonzero;stroke:none"
             d="m 2336.29,1921.69 60,60 m -60,0 60,-60" /><path
             id="path136"
             style="fill:none;stroke:#1f77b4;stroke-width:15;stroke-linecap:butt;stroke-linejoin:round;stroke-miterlimit:10;stroke-dasharray:none;stroke-opacity:1"
             d="m 2336.29,1921.69 60,60 m -60,0 60,-60" /><path
             id="path138"
             style="fill:#1f77b4;fill-opacity:1;fill-rule:nonzero;stroke:none"
             d="m 2397.2,1945.01 60,60 m -60,0 60,-60" /><path
             id="path140"
             style="fill:none;stroke:#1f77b4;stroke-width:15;stroke-linecap:butt;stroke-linejoin:round;stroke-miterlimit:10;stroke-dasharray:none;stroke-opacity:1"
             d="m 2397.2,1945.01 60,60 m -60,0 60,-60" /><path
             id="path142"
             style="fill:#1f77b4;fill-opacity:1;fill-rule:nonzero;stroke:none"
             d="m 2458.11,1967.81 60,60 m -60,0 60,-60" /><path
             id="path144"
             style="fill:none;stroke:#1f77b4;stroke-width:15;stroke-linecap:butt;stroke-linejoin:round;stroke-miterlimit:10;stroke-dasharray:none;stroke-opacity:1"
             d="m 2458.11,1967.81 60,60 m -60,0 60,-60" /><path
             id="path146"
             style="fill:#1f77b4;fill-opacity:1;fill-rule:nonzero;stroke:none"
             d="m 2519.03,1990.18 60,60 m -60,0 60,-60" /><path
             id="path148"
             style="fill:none;stroke:#1f77b4;stroke-width:15;stroke-linecap:butt;stroke-linejoin:round;stroke-miterlimit:10;stroke-dasharray:none;stroke-opacity:1"
             d="m 2519.03,1990.18 60,60 m -60,0 60,-60" /><path
             id="path150"
             style="fill:#1f77b4;fill-opacity:1;fill-rule:nonzero;stroke:none"
             d="m 2579.94,2012.16 60,60 m -60,0 60,-60" /><path
             id="path152"
             style="fill:none;stroke:#1f77b4;stroke-width:15;stroke-linecap:butt;stroke-linejoin:round;stroke-miterlimit:10;stroke-dasharray:none;stroke-opacity:1"
             d="m 2579.94,2012.16 60,60 m -60,0 60,-60" /><path
             id="path154"
             style="fill:#1f77b4;fill-opacity:1;fill-rule:nonzero;stroke:none"
             d="m 2640.86,2033.82 60,60 m -60,0 60,-60" /><path
             id="path156"
             style="fill:none;stroke:#1f77b4;stroke-width:15;stroke-linecap:butt;stroke-linejoin:round;stroke-miterlimit:10;stroke-dasharray:none;stroke-opacity:1"
             d="m 2640.86,2033.82 60,60 m -60,0 60,-60" /><path
             id="path158"
             style="fill:#1f77b4;fill-opacity:1;fill-rule:nonzero;stroke:none"
             d="m 2701.77,2055.2 60,60 m -60,0 60,-60" /><path
             id="path160"
             style="fill:none;stroke:#1f77b4;stroke-width:15;stroke-linecap:butt;stroke-linejoin:round;stroke-miterlimit:10;stroke-dasharray:none;stroke-opacity:1"
             d="m 2701.77,2055.2 60,60 m -60,0 60,-60" /><path
             id="path162"
             style="fill:#1f77b4;fill-opacity:1;fill-rule:nonzero;stroke:none"
             d="m 2762.68,2076.33 60,60 m -60,0 60,-60" /><path
             id="path164"
             style="fill:none;stroke:#1f77b4;stroke-width:15;stroke-linecap:butt;stroke-linejoin:round;stroke-miterlimit:10;stroke-dasharray:none;stroke-opacity:1"
             d="m 2762.68,2076.33 60,60 m -60,0 60,-60" /><path
             id="path166"
             style="fill:#1f77b4;fill-opacity:1;fill-rule:nonzero;stroke:none"
             d="m 2823.6,2097.25 60,60 m -60,0 60,-60" /><path
             id="path168"
             style="fill:none;stroke:#1f77b4;stroke-width:15;stroke-linecap:butt;stroke-linejoin:round;stroke-miterlimit:10;stroke-dasharray:none;stroke-opacity:1"
             d="m 2823.6,2097.25 60,60 m -60,0 60,-60" /><path
             id="path170"
             style="fill:#1f77b4;fill-opacity:1;fill-rule:nonzero;stroke:none"
             d="m 2884.51,2117.98 60,60 m -60,0 60,-60" /><path
             id="path172"
             style="fill:none;stroke:#1f77b4;stroke-width:15;stroke-linecap:butt;stroke-linejoin:round;stroke-miterlimit:10;stroke-dasharray:none;stroke-opacity:1"
             d="m 2884.51,2117.98 60,60 m -60,0 60,-60" /><path
             id="path174"
             style="fill:#1f77b4;fill-opacity:1;fill-rule:nonzero;stroke:none"
             d="m 2945.43,2138.53 60,60 m -60,0 60,-60" /><path
             id="path176"
             style="fill:none;stroke:#1f77b4;stroke-width:15;stroke-linecap:butt;stroke-linejoin:round;stroke-miterlimit:10;stroke-dasharray:none;stroke-opacity:1"
             d="m 2945.43,2138.53 60,60 m -60,0 60,-60" /><path
             id="path178"
             style="fill:#1f77b4;fill-opacity:1;fill-rule:nonzero;stroke:none"
             d="m 3006.34,2158.94 60,60 m -60,0 60,-60" /><path
             id="path180"
             style="fill:none;stroke:#1f77b4;stroke-width:15;stroke-linecap:butt;stroke-linejoin:round;stroke-miterlimit:10;stroke-dasharray:none;stroke-opacity:1"
             d="m 3006.34,2158.94 60,60 m -60,0 60,-60" /><path
             id="path182"
             style="fill:#1f77b4;fill-opacity:1;fill-rule:nonzero;stroke:none"
             d="m 3067.26,2179.21 60,60 m -60,0 60,-60" /><path
             id="path184"
             style="fill:none;stroke:#1f77b4;stroke-width:15;stroke-linecap:butt;stroke-linejoin:round;stroke-miterlimit:10;stroke-dasharray:none;stroke-opacity:1"
             d="m 3067.26,2179.21 60,60 m -60,0 60,-60" /><path
             id="path186"
             style="fill:#1f77b4;fill-opacity:1;fill-rule:nonzero;stroke:none"
             d="m 3128.17,2199.36 60,60 m -60,0 60,-60" /><path
             id="path188"
             style="fill:none;stroke:#1f77b4;stroke-width:15;stroke-linecap:butt;stroke-linejoin:round;stroke-miterlimit:10;stroke-dasharray:none;stroke-opacity:1"
             d="m 3128.17,2199.36 60,60 m -60,0 60,-60" /><path
             id="path190"
             style="fill:#1f77b4;fill-opacity:1;fill-rule:nonzero;stroke:none"
             d="m 3189.08,2219.4 60,60 m -60,0 60,-60" /><path
             id="path192"
             style="fill:none;stroke:#1f77b4;stroke-width:15;stroke-linecap:butt;stroke-linejoin:round;stroke-miterlimit:10;stroke-dasharray:none;stroke-opacity:1"
             d="m 3189.08,2219.4 60,60 m -60,0 60,-60" /><path
             id="path194"
             style="fill:#1f77b4;fill-opacity:1;fill-rule:nonzero;stroke:none"
             d="m 3250,2239.34 60,60 m -60,0 60,-60" /><path
             id="path196"
             style="fill:none;stroke:#1f77b4;stroke-width:15;stroke-linecap:butt;stroke-linejoin:round;stroke-miterlimit:10;stroke-dasharray:none;stroke-opacity:1"
             d="m 3250,2239.34 60,60 m -60,0 60,-60" /><path
             id="path198"
             style="fill:#1f77b4;fill-opacity:1;fill-rule:nonzero;stroke:none"
             d="m 3310.91,2259.2 60,60 m -60,0 60,-60" /><path
             id="path200"
             style="fill:none;stroke:#1f77b4;stroke-width:15;stroke-linecap:butt;stroke-linejoin:round;stroke-miterlimit:10;stroke-dasharray:none;stroke-opacity:1"
             d="m 3310.91,2259.2 60,60 m -60,0 60,-60" /><path
             id="path202"
             style="fill:#1f77b4;fill-opacity:1;fill-rule:nonzero;stroke:none"
             d="m 3371.83,2278.97 60,60 m -60,0 60,-60" /><path
             id="path204"
             style="fill:none;stroke:#1f77b4;stroke-width:15;stroke-linecap:butt;stroke-linejoin:round;stroke-miterlimit:10;stroke-dasharray:none;stroke-opacity:1"
             d="m 3371.83,2278.97 60,60 m -60,0 60,-60" /><path
             id="path206"
             style="fill:#1f77b4;fill-opacity:1;fill-rule:nonzero;stroke:none"
             d="m 3432.74,2298.66 60,60 m -60,0 60,-60" /><path
             id="path208"
             style="fill:none;stroke:#1f77b4;stroke-width:15;stroke-linecap:butt;stroke-linejoin:round;stroke-miterlimit:10;stroke-dasharray:none;stroke-opacity:1"
             d="m 3432.74,2298.66 60,60 m -60,0 60,-60" /><path
             id="path210"
             style="fill:#1f77b4;fill-opacity:1;fill-rule:nonzero;stroke:none"
             d="m 3493.66,2318.29 60,60 m -60,0 60,-60" /><path
             id="path212"
             style="fill:none;stroke:#1f77b4;stroke-width:15;stroke-linecap:butt;stroke-linejoin:round;stroke-miterlimit:10;stroke-dasharray:none;stroke-opacity:1"
             d="m 3493.66,2318.29 60,60 m -60,0 60,-60" /><path
             id="path214"
             style="fill:#1f77b4;fill-opacity:1;fill-rule:nonzero;stroke:none"
             d="m 3554.57,2337.85 60,60 m -60,0 60,-60" /><path
             id="path216"
             style="fill:none;stroke:#1f77b4;stroke-width:15;stroke-linecap:butt;stroke-linejoin:round;stroke-miterlimit:10;stroke-dasharray:none;stroke-opacity:1"
             d="m 3554.57,2337.85 60,60 m -60,0 60,-60" /><path
             id="path218"
             style="fill:#1f77b4;fill-opacity:1;fill-rule:nonzero;stroke:none"
             d="m 3615.48,2357.36 60,60 m -60,0 60,-60" /><path
             id="path220"
             style="fill:none;stroke:#1f77b4;stroke-width:15;stroke-linecap:butt;stroke-linejoin:round;stroke-miterlimit:10;stroke-dasharray:none;stroke-opacity:1"
             d="m 3615.48,2357.36 60,60 m -60,0 60,-60" /><path
             id="path222"
             style="fill:#1f77b4;fill-opacity:1;fill-rule:nonzero;stroke:none"
             d="m 3676.4,2376.81 60,60 m -60,0 60,-60" /><path
             id="path224"
             style="fill:none;stroke:#1f77b4;stroke-width:15;stroke-linecap:butt;stroke-linejoin:round;stroke-miterlimit:10;stroke-dasharray:none;stroke-opacity:1"
             d="m 3676.4,2376.81 60,60 m -60,0 60,-60" /></g></g><path
         id="path226"
         style="fill:#000000;fill-opacity:1;fill-rule:nonzero;stroke:none"
         d="M 721.602,360 V 325" /><path
         id="path228"
         style="fill:none;stroke:#000000;stroke-width:8;stroke-linecap:butt;stroke-linejoin:round;stroke-miterlimit:10;stroke-dasharray:none;stroke-opacity:1"
         d="M 721.602,360 V 325" /><g
         transform="scale(10)"
         id="g230"><text
           id="text234"
           style="font-variant:normal;font-weight:normal;font-size:10px;font-family:Arial;-inkscape-font-specification:Arial;writing-mode:lr-tb;fill:#000000;fill-opacity:1;fill-rule:nonzero;stroke:none"
           transform="matrix(1,0,0,-1,68.9805,21.4063)"><tspan
             id="tspan232"
             y="0"
             x="0">0</tspan></text>
</g><path
         id="path236"
         style="fill:#000000;fill-opacity:1;fill-rule:nonzero;stroke:none"
         d="M 1219.07,360 V 325" /><path
         id="path238"
         style="fill:none;stroke:#000000;stroke-width:8;stroke-linecap:butt;stroke-linejoin:round;stroke-miterlimit:10;stroke-dasharray:none;stroke-opacity:1"
         d="M 1219.07,360 V 325" /><g
         transform="scale(10)"
         id="g240"><text
           id="text244"
           style="font-variant:normal;font-weight:normal;font-size:10px;font-family:Arial;-inkscape-font-specification:Arial;writing-mode:lr-tb;fill:#000000;fill-opacity:1;fill-rule:nonzero;stroke:none"
           transform="matrix(1,0,0,-1,118.727,21.4063)"><tspan
             id="tspan242"
             y="0"
             x="0">5</tspan></text>
</g><path
         id="path246"
         style="fill:#000000;fill-opacity:1;fill-rule:nonzero;stroke:none"
         d="M 1716.53,360 V 325" /><path
         id="path248"
         style="fill:none;stroke:#000000;stroke-width:8;stroke-linecap:butt;stroke-linejoin:round;stroke-miterlimit:10;stroke-dasharray:none;stroke-opacity:1"
         d="M 1716.53,360 V 325" /><g
         transform="scale(10)"
         id="g250"><text
           id="text254"
           style="font-variant:normal;font-weight:normal;font-size:10px;font-family:Arial;-inkscape-font-specification:Arial;writing-mode:lr-tb;fill:#000000;fill-opacity:1;fill-rule:nonzero;stroke:none"
           transform="matrix(1,0,0,-1,165.294,21.4063)"><tspan
             id="tspan252"
             y="0"
             x="0 6.362112">10</tspan></text>
</g><path
         id="path256"
         style="fill:#000000;fill-opacity:1;fill-rule:nonzero;stroke:none"
         d="M 2214,360 V 325" /><path
         id="path258"
         style="fill:none;stroke:#000000;stroke-width:8;stroke-linecap:butt;stroke-linejoin:round;stroke-miterlimit:10;stroke-dasharray:none;stroke-opacity:1"
         d="M 2214,360 V 325" /><g
         transform="scale(10)"
         id="g260"><text
           id="text264"
           style="font-variant:normal;font-weight:normal;font-size:10px;font-family:Arial;-inkscape-font-specification:Arial;writing-mode:lr-tb;fill:#000000;fill-opacity:1;fill-rule:nonzero;stroke:none"
           transform="matrix(1,0,0,-1,215.041,21.4063)"><tspan
             id="tspan262"
             y="0"
             x="0 6.3624902">15</tspan></text>
</g><path
         id="path266"
         style="fill:#000000;fill-opacity:1;fill-rule:nonzero;stroke:none"
         d="M 2711.47,360 V 325" /><path
         id="path268"
         style="fill:none;stroke:#000000;stroke-width:8;stroke-linecap:butt;stroke-linejoin:round;stroke-miterlimit:10;stroke-dasharray:none;stroke-opacity:1"
         d="M 2711.47,360 V 325" /><g
         transform="scale(10)"
         id="g270"><text
           id="text274"
           style="font-variant:normal;font-weight:normal;font-size:10px;font-family:Arial;-inkscape-font-specification:Arial;writing-mode:lr-tb;fill:#000000;fill-opacity:1;fill-rule:nonzero;stroke:none"
           transform="matrix(1,0,0,-1,264.787,21.4063)"><tspan
             id="tspan272"
             y="0"
             x="0 6.3624902">20</tspan></text>
</g><path
         id="path276"
         style="fill:#000000;fill-opacity:1;fill-rule:nonzero;stroke:none"
         d="M 3208.93,360 V 325" /><path
         id="path278"
         style="fill:none;stroke:#000000;stroke-width:8;stroke-linecap:butt;stroke-linejoin:round;stroke-miterlimit:10;stroke-dasharray:none;stroke-opacity:1"
         d="M 3208.93,360 V 325" /><g
         transform="scale(10)"
         id="g280"><text
           id="text284"
           style="font-variant:normal;font-weight:normal;font-size:10px;font-family:Arial;-inkscape-font-specification:Arial;writing-mode:lr-tb;fill:#000000;fill-opacity:1;fill-rule:nonzero;stroke:none"
           transform="matrix(1,0,0,-1,314.534,21.4063)"><tspan
             id="tspan282"
             y="0"
             x="0 6.3620996">25</tspan></text>
</g><path
         id="path286"
         style="fill:#000000;fill-opacity:1;fill-rule:nonzero;stroke:none"
         d="M 3706.4,360 V 325" /><path
         id="path288"
         style="fill:none;stroke:#000000;stroke-width:8;stroke-linecap:butt;stroke-linejoin:round;stroke-miterlimit:10;stroke-dasharray:none;stroke-opacity:1"
         d="M 3706.4,360 V 325" /><g
         transform="scale(10)"
         id="g290"><text
           id="text296"
           style="font-variant:normal;font-weight:normal;font-size:10px;font-family:Arial;-inkscape-font-specification:Arial;writing-mode:lr-tb;fill:#000000;fill-opacity:1;fill-rule:nonzero;stroke:none"
           transform="matrix(1,0,0,-1,364.28,21.4063)"><tspan
             id="tspan292"
             y="0"
             x="0 6.3620996">30</tspan><tspan
             id="tspan294"
             y="13.6719"
             x="-175.373 -169.05464 -162.71675 -156.56441 -152.45308 -146.10542 -140.18745 -137.00856 -133.10738 -127.31636 -121.16402 -114.32299">Energy (keV)</tspan></text>
</g><path
         id="path298"
         style="fill:#000000;fill-opacity:1;fill-rule:nonzero;stroke:none"
         d="M 540,487.59 H 505" /><path
         id="path300"
         style="fill:none;stroke:#000000;stroke-width:8;stroke-linecap:butt;stroke-linejoin:round;stroke-miterlimit:10;stroke-dasharray:none;stroke-opacity:1"
         d="M 540,487.59 H 505" /><g
         transform="scale(10)"
         id="g302"><text
           id="text306"
           style="font-variant:normal;font-weight:normal;font-size:10px;font-family:Arial;-inkscape-font-specification:Arial;writing-mode:lr-tb;fill:#000000;fill-opacity:1;fill-rule:nonzero;stroke:none"
           transform="matrix(1,0,0,-1,40.6406,44.9621)"><tspan
             id="tspan304"
             y="0"
             x="0">0</tspan></text>
</g><path
         id="path308"
         style="fill:#000000;fill-opacity:1;fill-rule:nonzero;stroke:none"
         d="M 540,765.008 H 505" /><path
         id="path310"
         style="fill:none;stroke:#000000;stroke-width:8;stroke-linecap:butt;stroke-linejoin:round;stroke-miterlimit:10;stroke-dasharray:none;stroke-opacity:1"
         d="M 540,765.008 H 505" /><g
         transform="scale(10)"
         id="g312"><text
           id="text316"
           style="font-variant:normal;font-weight:normal;font-size:10px;font-family:Arial;-inkscape-font-specification:Arial;writing-mode:lr-tb;fill:#000000;fill-opacity:1;fill-rule:nonzero;stroke:none"
           transform="matrix(1,0,0,-1,34.2813,72.7039)"><tspan
             id="tspan314"
             y="0"
             x="0 6.3624992">25</tspan></text>
</g><path
         id="path318"
         style="fill:#000000;fill-opacity:1;fill-rule:nonzero;stroke:none"
         d="M 540,1042.43 H 505" /><path
         id="path320"
         style="fill:none;stroke:#000000;stroke-width:8;stroke-linecap:butt;stroke-linejoin:round;stroke-miterlimit:10;stroke-dasharray:none;stroke-opacity:1"
         d="M 540,1042.43 H 505" /><g
         transform="scale(10)"
         id="g322"><text
           id="text326"
           style="font-variant:normal;font-weight:normal;font-size:10px;font-family:Arial;-inkscape-font-specification:Arial;writing-mode:lr-tb;fill:#000000;fill-opacity:1;fill-rule:nonzero;stroke:none"
           transform="matrix(1,0,0,-1,34.2813,100.446)"><tspan
             id="tspan324"
             y="0"
             x="0 6.3624992">50</tspan></text>
</g><path
         id="path328"
         style="fill:#000000;fill-opacity:1;fill-rule:nonzero;stroke:none"
         d="M 540,1319.84 H 505" /><path
         id="path330"
         style="fill:none;stroke:#000000;stroke-width:8;stroke-linecap:butt;stroke-linejoin:round;stroke-miterlimit:10;stroke-dasharray:none;stroke-opacity:1"
         d="M 540,1319.84 H 505" /><g
         transform="scale(10)"
         id="g332"><text
           id="text336"
           style="font-variant:normal;font-weight:normal;font-size:10px;font-family:Arial;-inkscape-font-specification:Arial;writing-mode:lr-tb;fill:#000000;fill-opacity:1;fill-rule:nonzero;stroke:none"
           transform="matrix(1,0,0,-1,34.2813,128.188)"><tspan
             id="tspan334"
             y="0"
             x="0 6.3624992">75</tspan></text>
</g><path
         id="path338"
         style="fill:#000000;fill-opacity:1;fill-rule:nonzero;stroke:none"
         d="M 540,1597.26 H 505" /><path
         id="path340"
         style="fill:none;stroke:#000000;stroke-width:8;stroke-linecap:butt;stroke-linejoin:round;stroke-miterlimit:10;stroke-dasharray:none;stroke-opacity:1"
         d="M 540,1597.26 H 505" /><g
         transform="scale(10)"
         id="g342"><text
           id="text346"
           style="font-variant:normal;font-weight:normal;font-size:10px;font-family:Arial;-inkscape-font-specification:Arial;writing-mode:lr-tb;fill:#000000;fill-opacity:1;fill-rule:nonzero;stroke:none"
           transform="matrix(1,0,0,-1,27.9219,155.929)"><tspan
             id="tspan344"
             y="0"
             x="0 6.3624992 12.724608">100</tspan></text>
</g><path
         id="path348"
         style="fill:#000000;fill-opacity:1;fill-rule:nonzero;stroke:none"
         d="M 540,1874.68 H 505" /><path
         id="path350"
         style="fill:none;stroke:#000000;stroke-width:8;stroke-linecap:butt;stroke-linejoin:round;stroke-miterlimit:10;stroke-dasharray:none;stroke-opacity:1"
         d="M 540,1874.68 H 505" /><g
         transform="scale(10)"
         id="g352"><text
           id="text356"
           style="font-variant:normal;font-weight:normal;font-size:10px;font-family:Arial;-inkscape-font-specification:Arial;writing-mode:lr-tb;fill:#000000;fill-opacity:1;fill-rule:nonzero;stroke:none"
           transform="matrix(1,0,0,-1,27.9219,183.671)"><tspan
             id="tspan354"
             y="0"
             x="0 6.3624992 12.724608">125</tspan></text>
</g><path
         id="path358"
         style="fill:#000000;fill-opacity:1;fill-rule:nonzero;stroke:none"
         d="M 540,2152.09 H 505" /><path
         id="path360"
         style="fill:none;stroke:#000000;stroke-width:8;stroke-linecap:butt;stroke-linejoin:round;stroke-miterlimit:10;stroke-dasharray:none;stroke-opacity:1"
         d="M 540,2152.09 H 505" /><g
         transform="scale(10)"
         id="g362"><text
           id="text366"
           style="font-variant:normal;font-weight:normal;font-size:10px;font-family:Arial;-inkscape-font-specification:Arial;writing-mode:lr-tb;fill:#000000;fill-opacity:1;fill-rule:nonzero;stroke:none"
           transform="matrix(1,0,0,-1,27.9219,211.413)"><tspan
             id="tspan364"
             y="0"
             x="0 6.3624992 12.724608">150</tspan></text>
</g><path
         id="path368"
         style="fill:#000000;fill-opacity:1;fill-rule:nonzero;stroke:none"
         d="M 540,2429.51 H 505" /><path
         id="path370"
         style="fill:none;stroke:#000000;stroke-width:8;stroke-linecap:butt;stroke-linejoin:round;stroke-miterlimit:10;stroke-dasharray:none;stroke-opacity:1"
         d="M 540,2429.51 H 505" /><g
         transform="scale(10)"
         id="g372"><text
           id="text376"
           style="font-variant:normal;font-weight:normal;font-size:10px;font-family:Arial;-inkscape-font-specification:Arial;writing-mode:lr-tb;fill:#000000;fill-opacity:1;fill-rule:nonzero;stroke:none"
           transform="matrix(1,0,0,-1,27.9219,239.154)"><tspan
             id="tspan374"
             y="0"
             x="0 6.3624992 12.724608">175</tspan></text>
<text
           id="text380"
           style="font-variant:normal;font-weight:normal;font-size:10px;font-family:Arial;-inkscape-font-specification:Arial;writing-mode:lr-tb;fill:#000000;fill-opacity:1;fill-rule:nonzero;stroke:none"
           transform="matrix(0,1,1,0,21.8438,135.556)"><tspan
             id="tspan378"
             y="0"
             x="0 6.0929713 12.210945">ToT</tspan></text>
</g><g
         id="g382"><g
           clip-path="url(#clipPath388)"
           id="g384"><path
             id="path390"
             style="fill:none;stroke:#1f77b4;stroke-width:15;stroke-linecap:square;stroke-linejoin:round;stroke-miterlimit:10;stroke-dasharray:none;stroke-opacity:1"
             d="m 721.602,487.59 h 670.058 l 60.91,470.07 60.92,232.25 60.91,149.58 60.92,111.24 60.91,88.06 60.91,72.39 60.92,61.14 60.91,52.69 60.92,46.13 60.91,40.93 60.91,36.72 60.92,33.25 60.91,30.37 60.92,27.94 60.91,25.88 60.92,24.12 60.91,22.6 60.91,21.3 60.92,20.16 60.91,19.18 60.92,18.34 60.91,17.61 60.91,17 60.92,16.48 60.92,16.07 60.91,15.75 60.91,15.53 60.92,15.42 60.91,15.42 60.92,15.57 60.91,15.89 60.91,16.45 60.92,18.33 60.91,18.4 60.92,18.67 60.91,18.96 60.91,19.27 60.92,19.45" /></g></g><path
         id="path392"
         style="fill:none;stroke:#000000;stroke-width:8;stroke-linecap:square;stroke-linejoin:miter;stroke-miterlimit:10;stroke-dasharray:none;stroke-opacity:1"
         d="M 540,360 V 2534.4" /><path
         id="path394"
         style="fill:none;stroke:#000000;stroke-width:8;stroke-linecap:square;stroke-linejoin:miter;stroke-miterlimit:10;stroke-dasharray:none;stroke-opacity:1"
         d="M 3888,360 V 2534.4" /><path
         id="path396"
         style="fill:none;stroke:#000000;stroke-width:8;stroke-linecap:square;stroke-linejoin:miter;stroke-miterlimit:10;stroke-dasharray:none;stroke-opacity:1"
         d="M 540,360 H 3888" /><path
         id="path398"
         style="fill:none;stroke:#000000;stroke-width:8;stroke-linecap:square;stroke-linejoin:miter;stroke-miterlimit:10;stroke-dasharray:none;stroke-opacity:1"
         d="M 540,2534.4 H 3888" /></g></g></svg>