<?xml version="1.0" encoding="UTF-8" standalone="no"?>
<svg
   xmlns:dc="http://purl.org/dc/elements/1.1/"
   xmlns:cc="http://creativecommons.org/ns#"
   xmlns:rdf="http://www.w3.org/1999/02/22-rdf-syntax-ns#"
   xmlns:svg="http://www.w3.org/2000/svg"
   xmlns="http://www.w3.org/2000/svg"
   viewBox="0 0 768 528"
   height="528"
   width="768"
   xml:space="preserve"
   id="svg2"
   version="1.1"><metadata
     id="metadata8"><rdf:RDF><cc:Work
         rdf:about=""><dc:format>image/svg+xml</dc:format><dc:type
           rdf:resource="http://purl.org/dc/dcmitype/StillImage" /></cc:Work></rdf:RDF></metadata><defs
     id="defs6"><clipPath
       id="clipPath24"
       clipPathUnits="userSpaceOnUse"><path
         id="path22"
         d="M 720,495 H 5184 V 3485 H 720 Z" /></clipPath><clipPath
       id="clipPath40"
       clipPathUnits="userSpaceOnUse"><path
         id="path38"
         d="M 720,495 H 5184 V 3485 H 720 Z" /></clipPath><clipPath
       id="clipPath56"
       clipPathUnits="userSpaceOnUse"><path
         id="path54"
         d="M 720,495 H 5184 V 3485 H 720 Z" /></clipPath><clipPath
       id="clipPath72"
       clipPathUnits="userSpaceOnUse"><path
         id="path70"
         d="M 720,495 H 5184 V 3485 H 720 Z" /></clipPath><clipPath
       id="clipPath88"
       clipPathUnits="userSpaceOnUse"><path
         id="path86"
         d="M 720,495 H 5184 V 3485 H 720 Z" /></clipPath><clipPath
       id="clipPath104"
       clipPathUnits="userSpaceOnUse"><path
         id="path102"
         d="M 720,495 H 5184 V 3485 H 720 Z" /></clipPath><clipPath
       id="clipPath132"
       clipPathUnits="userSpaceOnUse"><path
         id="path130"
         d="M 720,495 H 5184 V 3485 H 720 Z" /></clipPath><clipPath
       id="clipPath148"
       clipPathUnits="userSpaceOnUse"><path
         id="path146"
         d="M 720,495 H 5184 V 3485 H 720 Z" /></clipPath><clipPath
       id="clipPath164"
       clipPathUnits="userSpaceOnUse"><path
         id="path162"
         d="M 720,495 H 5184 V 3485 H 720 Z" /></clipPath><clipPath
       id="clipPath180"
       clipPathUnits="userSpaceOnUse"><path
         id="path178"
         d="M 720,495 H 5184 V 3485 H 720 Z" /></clipPath><clipPath
       id="clipPath196"
       clipPathUnits="userSpaceOnUse"><path
         id="path194"
         d="M 720,495 H 5184 V 3485 H 720 Z" /></clipPath><clipPath
       id="clipPath212"
       clipPathUnits="userSpaceOnUse"><path
         id="path210"
         d="M 720,495 H 5184 V 3485 H 720 Z" /></clipPath><clipPath
       id="clipPath240"
       clipPathUnits="userSpaceOnUse"><path
         id="path238"
         d="M 720,495 H 5184 V 3485 H 720 Z" /></clipPath></defs><g
     transform="matrix(1.3333333,0,0,-1.3333333,0,528)"
     id="g10"><g
       transform="scale(0.1)"
       id="g12"><path
         id="path14"
         style="fill:#ffffff;fill-opacity:1;fill-rule:nonzero;stroke:none"
         d="M 0,0 H 5760 V 3960 H 0 Z" /><path
         id="path16"
         style="fill:#eaeaf2;fill-opacity:1;fill-rule:nonzero;stroke:none"
         d="M 720,495 H 5184 V 3484.8 H 720 Z" /><g
         id="g18"><g
           clip-path="url(#clipPath24)"
           id="g20"><path
             id="path26"
             style="fill:none;stroke:#ffffff;stroke-width:10;stroke-linecap:round;stroke-linejoin:round;stroke-miterlimit:10;stroke-dasharray:none;stroke-opacity:1"
             d="M 922.91,495 V 3484.8" /></g></g><g
         transform="scale(10)"
         id="g28"><text
           id="text32"
           style="font-variant:normal;font-weight:normal;font-size:10px;font-family:Arial;-inkscape-font-specification:Arial;writing-mode:lr-tb;fill:#262626;fill-opacity:1;fill-rule:nonzero;stroke:none"
           transform="matrix(1,0,0,-1,89.5098,35.25)"><tspan
             id="tspan30"
             y="0"
             x="0">0</tspan></text>
</g><g
         id="g34"><g
           clip-path="url(#clipPath40)"
           id="g36"><path
             id="path42"
             style="fill:none;stroke:#ffffff;stroke-width:10;stroke-linecap:round;stroke-linejoin:round;stroke-miterlimit:10;stroke-dasharray:none;stroke-opacity:1"
             d="M 1734.55,495 V 3484.8" /></g></g><g
         transform="scale(10)"
         id="g44"><text
           id="text48"
           style="font-variant:normal;font-weight:normal;font-size:10px;font-family:Arial;-inkscape-font-specification:Arial;writing-mode:lr-tb;fill:#262626;fill-opacity:1;fill-rule:nonzero;stroke:none"
           transform="matrix(1,0,0,-1,170.673,35.25)"><tspan
             id="tspan46"
             y="0"
             x="0">2</tspan></text>
</g><g
         id="g50"><g
           clip-path="url(#clipPath56)"
           id="g52"><path
             id="path58"
             style="fill:none;stroke:#ffffff;stroke-width:10;stroke-linecap:round;stroke-linejoin:round;stroke-miterlimit:10;stroke-dasharray:none;stroke-opacity:1"
             d="M 2546.18,495 V 3484.8" /></g></g><g
         transform="scale(10)"
         id="g60"><text
           id="text64"
           style="font-variant:normal;font-weight:normal;font-size:10px;font-family:Arial;-inkscape-font-specification:Arial;writing-mode:lr-tb;fill:#262626;fill-opacity:1;fill-rule:nonzero;stroke:none"
           transform="matrix(1,0,0,-1,251.837,35.25)"><tspan
             id="tspan62"
             y="0"
             x="0">4</tspan></text>
</g><g
         id="g66"><g
           clip-path="url(#clipPath72)"
           id="g68"><path
             id="path74"
             style="fill:none;stroke:#ffffff;stroke-width:10;stroke-linecap:round;stroke-linejoin:round;stroke-miterlimit:10;stroke-dasharray:none;stroke-opacity:1"
             d="M 3357.82,495 V 3484.8" /></g></g><g
         transform="scale(10)"
         id="g76"><text
           id="text80"
           style="font-variant:normal;font-weight:normal;font-size:10px;font-family:Arial;-inkscape-font-specification:Arial;writing-mode:lr-tb;fill:#262626;fill-opacity:1;fill-rule:nonzero;stroke:none"
           transform="matrix(1,0,0,-1,333.001,35.25)"><tspan
             id="tspan78"
             y="0"
             x="0">6</tspan></text>
</g><g
         id="g82"><g
           clip-path="url(#clipPath88)"
           id="g84"><path
             id="path90"
             style="fill:none;stroke:#ffffff;stroke-width:10;stroke-linecap:round;stroke-linejoin:round;stroke-miterlimit:10;stroke-dasharray:none;stroke-opacity:1"
             d="M 4169.45,495 V 3484.8" /></g></g><g
         transform="scale(10)"
         id="g92"><text
           id="text96"
           style="font-variant:normal;font-weight:normal;font-size:10px;font-family:Arial;-inkscape-font-specification:Arial;writing-mode:lr-tb;fill:#262626;fill-opacity:1;fill-rule:nonzero;stroke:none"
           transform="matrix(1,0,0,-1,414.164,35.25)"><tspan
             id="tspan94"
             y="0"
             x="0">8</tspan></text>
</g><g
         id="g98"><g
           clip-path="url(#clipPath104)"
           id="g100"><path
             id="path106"
             style="fill:none;stroke:#ffffff;stroke-width:10;stroke-linecap:round;stroke-linejoin:round;stroke-miterlimit:10;stroke-dasharray:none;stroke-opacity:1"
             d="M 4981.09,495 V 3484.8" /></g></g><g
         transform="scale(10)"
         id="g108"><text
           id="text112"
           style="font-variant:normal;font-weight:normal;font-size:10px;font-family:Arial;-inkscape-font-specification:Arial;writing-mode:lr-tb;fill:#262626;fill-opacity:1;fill-rule:nonzero;stroke:none"
           transform="matrix(1,0,0,-1,492.546,35.25)"><tspan
             id="tspan110"
             y="0"
             x="0 5.5617089">10</tspan></text>
<text
           id="text116"
           style="font-variant:normal;font-weight:normal;font-size:11px;font-family:Arial;-inkscape-font-specification:Arial;writing-mode:lr-tb;fill:#262626;fill-opacity:1;fill-rule:nonzero;stroke:none"
           transform="matrix(1,0,0,-1,271.2,21.2031)"><tspan
             id="tspan114"
             y="0"
             x="0 6.7191443 9.1632929 18.326292 24.44388 27.500122">Time (</tspan></text>
<text
           id="text120"
           style="font-variant:normal;font-weight:normal;font-size:11px;font-family:Arial;-inkscape-font-specification:Arial;writing-mode:lr-tb;fill:#262626;fill-opacity:1;fill-rule:nonzero;stroke:none"
           transform="matrix(1,0,0,-1,302.3633,21.2031)"><tspan
             id="tspan118"
             y="0"
             x="0">μ</tspan></text>
<text
           id="text124"
           style="font-variant:normal;font-weight:normal;font-size:11px;font-family:Arial;-inkscape-font-specification:Arial;writing-mode:lr-tb;fill:#262626;fill-opacity:1;fill-rule:nonzero;stroke:none"
           transform="matrix(1,0,0,-1,309.36174,21.2031)"><tspan
             id="tspan122"
             y="0"
             x="0 5.5">s)</tspan></text>
</g><g
         id="g126"><g
           clip-path="url(#clipPath132)"
           id="g128"><path
             id="path134"
             style="fill:none;stroke:#ffffff;stroke-width:10;stroke-linecap:round;stroke-linejoin:round;stroke-miterlimit:10;stroke-dasharray:none;stroke-opacity:1"
             d="M 720,888.145 H 5184" /></g></g><g
         transform="scale(10)"
         id="g136"><text
           id="text140"
           style="font-variant:normal;font-weight:normal;font-size:10px;font-family:Arial;-inkscape-font-specification:Arial;writing-mode:lr-tb;fill:#262626;fill-opacity:1;fill-rule:nonzero;stroke:none"
           transform="matrix(1,0,0,-1,59.4375,85.1895)"><tspan
             id="tspan138"
             y="0"
             x="0">0</tspan></text>
</g><g
         id="g142"><g
           clip-path="url(#clipPath148)"
           id="g144"><path
             id="path150"
             style="fill:none;stroke:#ffffff;stroke-width:10;stroke-linecap:round;stroke-linejoin:round;stroke-miterlimit:10;stroke-dasharray:none;stroke-opacity:1"
             d="M 720,1398.8 H 5184" /></g></g><g
         transform="scale(10)"
         id="g152"><text
           id="text156"
           style="font-variant:normal;font-weight:normal;font-size:10px;font-family:Arial;-inkscape-font-specification:Arial;writing-mode:lr-tb;fill:#262626;fill-opacity:1;fill-rule:nonzero;stroke:none"
           transform="matrix(1,0,0,-1,53.875,136.255)"><tspan
             id="tspan154"
             y="0"
             x="0 5.5617213">10</tspan></text>
</g><g
         id="g158"><g
           clip-path="url(#clipPath164)"
           id="g160"><path
             id="path166"
             style="fill:none;stroke:#ffffff;stroke-width:10;stroke-linecap:round;stroke-linejoin:round;stroke-miterlimit:10;stroke-dasharray:none;stroke-opacity:1"
             d="M 720,1909.46 H 5184" /></g></g><g
         transform="scale(10)"
         id="g168"><text
           id="text172"
           style="font-variant:normal;font-weight:normal;font-size:10px;font-family:Arial;-inkscape-font-specification:Arial;writing-mode:lr-tb;fill:#262626;fill-opacity:1;fill-rule:nonzero;stroke:none"
           transform="matrix(1,0,0,-1,53.875,187.321)"><tspan
             id="tspan170"
             y="0"
             x="0 5.5617213">20</tspan></text>
</g><g
         id="g174"><g
           clip-path="url(#clipPath180)"
           id="g176"><path
             id="path182"
             style="fill:none;stroke:#ffffff;stroke-width:10;stroke-linecap:round;stroke-linejoin:round;stroke-miterlimit:10;stroke-dasharray:none;stroke-opacity:1"
             d="M 720,2420.11 H 5184" /></g></g><g
         transform="scale(10)"
         id="g184"><text
           id="text188"
           style="font-variant:normal;font-weight:normal;font-size:10px;font-family:Arial;-inkscape-font-specification:Arial;writing-mode:lr-tb;fill:#262626;fill-opacity:1;fill-rule:nonzero;stroke:none"
           transform="matrix(1,0,0,-1,53.875,238.386)"><tspan
             id="tspan186"
             y="0"
             x="0 5.5617213">30</tspan></text>
</g><g
         id="g190"><g
           clip-path="url(#clipPath196)"
           id="g192"><path
             id="path198"
             style="fill:none;stroke:#ffffff;stroke-width:10;stroke-linecap:round;stroke-linejoin:round;stroke-miterlimit:10;stroke-dasharray:none;stroke-opacity:1"
             d="M 720,2930.77 H 5184" /></g></g><g
         transform="scale(10)"
         id="g200"><text
           id="text204"
           style="font-variant:normal;font-weight:normal;font-size:10px;font-family:Arial;-inkscape-font-specification:Arial;writing-mode:lr-tb;fill:#262626;fill-opacity:1;fill-rule:nonzero;stroke:none"
           transform="matrix(1,0,0,-1,53.875,289.452)"><tspan
             id="tspan202"
             y="0"
             x="0 5.5617213">40</tspan></text>
</g><g
         id="g206"><g
           clip-path="url(#clipPath212)"
           id="g208"><path
             id="path214"
             style="fill:none;stroke:#ffffff;stroke-width:10;stroke-linecap:round;stroke-linejoin:round;stroke-miterlimit:10;stroke-dasharray:none;stroke-opacity:1"
             d="M 720,3441.42 H 5184" /></g></g><g
         transform="scale(10)"
         id="g216"><text
           id="text220"
           style="font-variant:normal;font-weight:normal;font-size:10px;font-family:Arial;-inkscape-font-specification:Arial;writing-mode:lr-tb;fill:#262626;fill-opacity:1;fill-rule:nonzero;stroke:none"
           transform="matrix(1,0,0,-1,53.875,340.517)"><tspan
             id="tspan218"
             y="0"
             x="0 5.5617213">50</tspan></text>
<text
           id="text224"
           style="font-variant:normal;font-weight:normal;font-size:11px;font-family:Arial;-inkscape-font-specification:Arial;writing-mode:lr-tb;fill:#262626;fill-opacity:1;fill-rule:nonzero;stroke:none"
           transform="matrix(0,1,1,0,45.8906,174.99)"><tspan
             id="tspan222"
             y="0"
             x="0">U</tspan></text>
<text
           id="text228"
           style="font-variant:normal;font-weight:normal;font-size:7.69999981px;font-family:Arial;-inkscape-font-specification:Arial;writing-mode:lr-tb;fill:#262626;fill-opacity:1;fill-rule:nonzero;stroke:none"
           transform="matrix(0,1,1,0,47.69529,183.04156)"><tspan
             id="tspan226"
             y="0"
             x="0 4.7109351 9.5910139">out</tspan></text>
<text
           id="text232"
           style="font-variant:normal;font-weight:normal;font-size:11px;font-family:Arial;-inkscape-font-specification:Arial;writing-mode:lr-tb;fill:#262626;fill-opacity:1;fill-rule:nonzero;stroke:none"
           transform="matrix(0,1,1,0,45.8906,195.95246)"><tspan
             id="tspan230"
             y="0"
             x="0 3.0562544 6.7192545 15.882255 23.219254"> (mV)</tspan></text>
</g><g
         id="g234"><g
           clip-path="url(#clipPath240)"
           id="g236"><path
             id="path242"
             style="fill:none;stroke:#1f63a7;stroke-width:17.5;stroke-linecap:round;stroke-linejoin:round;stroke-miterlimit:10;stroke-dasharray:none;stroke-opacity:1"
             d="m 922.91,1195.75 12.188,551.53 12.183,440.99 12.188,342.82 12.187,261.07 8.125,136.34 8.125,110.92 8.125,89.02 8.119,70.17 8.13,53.97 8.12,40.03 8.13,28.05 8.12,17.76 4.06,5.49 4.07,3.44 4.06,1.55 4.06,-0.2 4.06,-1.81 8.13,-7.98 8.12,-13.08 8.13,-17.38 12.18,-32.66 16.25,-52.94 20.31,-76.22 32.5,-133.36 56.87,-234.23 32.5,-123.75 28.44,-99.85 28.43,-91.63 28.44,-83.61 28.44,-76.05 28.43,-69.1 28.44,-62.76 28.43,-57.06 28.44,-51.94 28.43,-47.34 28.44,-43.26 28.43,-39.58 32.5,-41.25 32.5,-37.46 32.5,-34.12 32.49,-31.16 36.57,-31.92 36.56,-28.98 40.62,-29.19 40.62,-26.4 44.69,-26.24 44.68,-23.65 48.75,-23.26 52.81,-22.58 56.87,-21.7 56.87,-19.37 65,-19.67 69.05,-18.46 73.13,-17.2 81.24,-16.74 85.31,-15.3 93.43,-14.54 105.62,-14.12 113.74,-12.92 125.93,-12.09 142.17,-11.38 158.43,-10.43 182.81,-9.73 207.17,-8.75 239.67,-7.86 284.36,-7.04 345.29,-6.24 426.54,-5.39 28.43,-0.29 v 0" /><path
             id="path244"
             style="fill:none;stroke:#194f86;stroke-width:17.5;stroke-linecap:round;stroke-linejoin:round;stroke-miterlimit:10;stroke-dasharray:none;stroke-opacity:1"
             d="M 720,2695.87 H 5184" /><path
             id="path246"
             style="fill:none;stroke:#2a71b2;stroke-width:17.5;stroke-linecap:round;stroke-linejoin:round;stroke-miterlimit:10;stroke-dasharray:none;stroke-opacity:1"
             d="m 922.91,1174.82 12.188,551.45 12.183,440.31 12.188,341.76 12.187,259.72 8.125,135.32 8.125,109.83 8.125,87.86 8.119,68.97 8.13,52.72 8.12,38.76 8.13,26.76 8.12,16.47 4.06,4.84 4.07,2.81 4.06,0.92 4.06,-0.82 4.06,-2.43 8.13,-9.19 8.12,-14.24 8.13,-18.48 12.18,-34.23 16.25,-54.81 20.31,-78.19 36.56,-152.94 48.75,-202.78 32.5,-125.32 28.43,-100.97 28.44,-92.53 28.44,-84.28 28.43,-76.55 28.44,-69.43 28.43,-62.98 28.44,-57.16 28.44,-51.97 28.43,-47.31 28.44,-43.16 28.43,-39.46 32.5,-41.07 32.5,-37.27 32.5,-33.89 32.49,-30.93 36.56,-31.65 36.56,-28.71 40.63,-28.89 40.62,-26.11 44.68,-25.91 44.69,-23.34 48.75,-22.93 52.8,-22.25 56.88,-21.35 60.93,-20.31 65,-19.17 69.05,-17.96 73.13,-16.73 81.24,-16.26 89.37,-15.52 97.49,-14.56 105.62,-13.49 117.81,-12.76 129.99,-11.8 146.24,-11 166.55,-10.21 186.86,-9.18 215.3,-8.32 251.86,-7.48 300.61,-6.63 369.66,-5.83 361.54,-4.06 v 0" /><path
             id="path248"
             style="fill:none;stroke:#215b8e;stroke-width:17.5;stroke-linecap:round;stroke-linejoin:round;stroke-miterlimit:10;stroke-dasharray:none;stroke-opacity:1"
             d="M 720,2676.17 H 5184" /><path
             id="path250"
             style="fill:none;stroke:#3480b9;stroke-width:17.5;stroke-linecap:round;stroke-linejoin:round;stroke-miterlimit:10;stroke-dasharray:none;stroke-opacity:1"
             d="m 922.91,1154.39 12.188,551.36 12.183,439.61 12.188,340.68 12.187,258.38 8.125,134.31 8.125,108.75 8.125,86.73 8.119,67.79 8.13,51.5 8.12,37.53 8.13,25.52 8.12,15.23 4.06,4.23 4.07,2.2 4.06,0.31 4.06,-1.41 4.06,-3.02 8.13,-10.34 8.12,-15.34 8.13,-19.54 12.18,-35.7 16.25,-56.55 20.31,-80.03 36.56,-155.29 44.69,-187.95 32.5,-126.93 28.43,-102.15 28.44,-93.49 28.43,-85.04 28.44,-77.11 28.43,-69.84 28.44,-63.26 28.44,-57.33 28.43,-52.05 28.44,-47.33 28.43,-43.13 28.44,-39.39 32.5,-40.94 32.49,-37.11 32.5,-33.72 32.5,-30.73 36.56,-31.42 36.56,-28.48 40.63,-28.63 40.62,-25.84 44.68,-25.62 44.68,-23.07 48.75,-22.63 52.81,-21.93 56.87,-21.03 60.94,-19.99 64.99,-18.84 69.06,-17.63 73.12,-16.4 81.25,-15.92 89.37,-15.16 97.49,-14.22 105.62,-13.14 117.8,-12.4 130,-11.45 146.23,-10.65 166.56,-9.85 190.92,-9.01 219.36,-8.07 259.99,-7.26 308.73,-6.34 381.85,-5.53 329.04,-3.41 v 0" /><path
             id="path252"
             style="fill:none;stroke:#2a6694;stroke-width:17.5;stroke-linecap:round;stroke-linejoin:round;stroke-miterlimit:10;stroke-dasharray:none;stroke-opacity:1"
             d="M 720,2656.47 H 5184" /><path
             id="path254"
             style="fill:none;stroke:#3f8ec0;stroke-width:17.5;stroke-linecap:round;stroke-linejoin:round;stroke-miterlimit:10;stroke-dasharray:none;stroke-opacity:1"
             d="m 922.91,1134.43 12.188,551.25 12.183,438.9 12.188,339.58 12.187,257.04 8.125,133.32 8.125,107.69 8.125,85.61 8.119,66.63 8.13,50.32 8.12,36.32 8.13,24.32 8.12,14.04 4.06,3.64 4.07,1.6 4.06,-0.26 4.06,-1.99 8.13,-8.62 8.12,-14.02 8.12,-18.56 12.19,-34.73 16.25,-56.01 20.31,-80.14 36.56,-156.73 44.69,-190.36 32.5,-128.58 28.43,-103.4 28.44,-94.52 28.43,-85.85 24.38,-67.12 24.37,-61.57 28.43,-65.44 28.44,-59.21 28.44,-53.66 28.43,-48.71 28.44,-44.31 28.43,-40.39 28.44,-36.9 32.5,-38.39 32.49,-34.81 32.5,-31.66 36.56,-32.3 36.56,-29.22 36.56,-26.52 40.62,-26.67 40.63,-24.11 44.68,-23.93 48.75,-23.41 48.74,-20.98 52.81,-20.36 56.88,-19.54 60.93,-18.59 65,-17.54 73.12,-17.33 77.18,-15.96 85.31,-15.33 93.43,-14.44 101.56,-13.42 113.74,-12.72 125.93,-11.79 142.17,-10.99 158.43,-9.97 182.8,-9.2 211.24,-8.29 243.74,-7.3 292.48,-6.46 357.47,-5.61 454.98,-4.81 28.43,-0.24 v 0" /><path
             id="path256"
             style="fill:none;stroke:#32719a;stroke-width:17.5;stroke-linecap:round;stroke-linejoin:round;stroke-miterlimit:10;stroke-dasharray:none;stroke-opacity:1"
             d="M 720,2636.78 H 5184" /><path
             id="path258"
             style="fill:none;stroke:#529dc8;stroke-width:17.5;stroke-linecap:round;stroke-linejoin:round;stroke-miterlimit:10;stroke-dasharray:none;stroke-opacity:1"
             d="m 922.91,1114.9 12.188,551.13 12.183,438.16 12.188,338.49 12.187,255.71 8.125,132.32 8.125,106.64 8.125,84.51 8.119,65.5 8.13,49.16 8.12,35.15 8.13,23.15 4.06,7.63 4.06,5.25 4.06,3.06 4.07,1.04 4.06,-0.82 4.06,-2.53 8.13,-9.7 8.12,-15.04 8.12,-19.54 12.19,-36.1 16.25,-57.63 20.31,-81.84 40.62,-176.75 40.63,-173.9 32.5,-128.93 28.43,-103.41 28.44,-94.31 24.37,-73.81 24.37,-67.72 24.38,-62.05 24.37,-56.86 28.44,-60.39 28.43,-54.64 28.44,-49.53 28.43,-44.98 28.44,-40.94 28.43,-37.36 32.5,-38.8 32.5,-35.14 32.5,-31.92 32.49,-29.07 36.57,-29.7 36.56,-26.91 40.62,-27.02 40.62,-24.39 44.69,-24.16 44.68,-21.74 48.75,-21.31 52.81,-20.63 56.87,-19.77 60.93,-18.76 65,-17.67 69.06,-16.51 77.18,-16.13 85.31,-15.43 93.43,-14.51 101.55,-13.45 113.75,-12.7 125.93,-11.73 138.11,-10.62 158.43,-9.9 178.74,-8.9 207.17,-8.06 243.74,-7.2 292.48,-6.33 357.48,-5.44 459.03,-4.65 56.87,-0.45 v 0" /><path
             id="path260"
             style="fill:none;stroke:#427da0;stroke-width:17.5;stroke-linecap:round;stroke-linejoin:round;stroke-miterlimit:10;stroke-dasharray:none;stroke-opacity:1"
             d="M 720,2617.08 H 5184" /><path
             id="path262"
             style="fill:none;stroke:#6bacd1;stroke-width:17.5;stroke-linecap:round;stroke-linejoin:round;stroke-miterlimit:10;stroke-dasharray:none;stroke-opacity:1"
             d="m 922.91,1095.79 12.188,550.98 12.183,437.41 12.188,337.39 12.187,254.37 8.125,131.35 8.125,105.59 8.125,83.43 8.119,64.38 8.13,48.02 8.12,34.02 8.13,22.01 4.06,7.06 4.06,4.69 4.06,2.51 4.07,0.5 4.06,-1.36 4.06,-3.07 8.13,-10.73 8.12,-16.03 8.12,-20.47 12.19,-37.41 16.25,-59.17 20.31,-83.45 44.69,-196.92 36.56,-157.06 28.43,-113.73 28.44,-104.72 28.43,-95.43 24.38,-74.61 24.37,-68.37 24.38,-62.59 24.37,-57.28 28.43,-60.76 28.44,-54.91 28.44,-49.7 28.43,-45.1 28.44,-41 28.43,-37.37 32.5,-38.78 32.5,-35.08 32.5,-31.83 32.49,-28.95 36.56,-29.57 36.56,-26.75 40.63,-26.85 40.62,-24.19 44.68,-23.96 44.69,-21.52 48.75,-21.08 52.8,-20.39 56.88,-19.51 60.93,-18.5 65,-17.39 69.05,-16.23 77.19,-15.84 85.3,-15.13 93.44,-14.19 101.55,-13.13 113.74,-12.38 125.93,-11.4 142.18,-10.56 158.43,-9.5 182.8,-8.7 211.24,-7.77 251.86,-6.95 300.6,-5.99 373.73,-5.14 475.28,-4.27 v 0" /><path
             id="path264"
             style="fill:none;stroke:#568aa7;stroke-width:17.5;stroke-linecap:round;stroke-linejoin:round;stroke-miterlimit:10;stroke-dasharray:none;stroke-opacity:1"
             d="M 720,2597.38 H 5184" /><path
             id="path266"
             style="fill:none;stroke:#84bcd9;stroke-width:17.5;stroke-linecap:round;stroke-linejoin:round;stroke-miterlimit:10;stroke-dasharray:none;stroke-opacity:1"
             d="m 922.91,1077.07 12.188,550.8 12.183,436.65 12.188,336.27 12.187,253.05 8.125,130.36 8.125,104.57 8.125,82.36 8.119,63.28 8.13,46.91 8.12,32.9 8.13,20.9 4.06,6.51 4.06,4.16 4.06,1.97 4.07,-0.04 4.06,-1.88 4.06,-3.58 8.13,-11.72 8.12,-16.99 12.19,-33.46 12.18,-40.89 16.25,-62.67 24.37,-104.27 77.19,-338.3 28.44,-112.73 28.43,-103.38 24.37,-81.07 24.38,-74.36 24.37,-68.05 24.38,-62.22 24.37,-56.89 24.37,-52.05 28.44,-55.22 28.43,-49.93 28.44,-45.24 28.43,-41.09 28.44,-37.42 32.5,-38.78 32.49,-35.05 32.5,-31.76 32.5,-28.87 36.56,-29.45 36.56,-26.62 40.63,-26.69 40.62,-24.02 44.68,-23.77 44.68,-21.33 48.75,-20.86 52.81,-20.17 56.87,-19.27 60.94,-18.24 64.99,-17.14 69.06,-15.96 77.19,-15.56 85.3,-14.83 93.43,-13.89 101.56,-12.82 113.74,-12.06 125.93,-11.08 142.18,-10.23 162.49,-9.38 186.86,-8.48 215.3,-7.48 255.92,-6.6 312.8,-5.73 389.97,-4.82 434.66,-3.53 v 0" /><path
             id="path268"
             style="fill:none;stroke:#6a96ae;stroke-width:17.5;stroke-linecap:round;stroke-linejoin:round;stroke-miterlimit:10;stroke-dasharray:none;stroke-opacity:1"
             d="M 720,2577.68 H 5184" /><path
             id="path270"
             style="fill:none;stroke:#9ac9e1;stroke-width:17.5;stroke-linecap:round;stroke-linejoin:round;stroke-miterlimit:10;stroke-dasharray:none;stroke-opacity:1"
             d="m 922.91,1058.71 12.188,550.61 12.183,435.86 12.188,335.16 8.125,176.05 8.125,143.84 8.125,115.99 8.125,92 8.121,71.38 8.12,53.7 8.13,38.54 8.12,25.57 8.13,14.51 4.06,3.62 4.06,1.45 4.07,-0.55 4.06,-2.39 8.12,-9.71 8.13,-15.4 8.12,-20.17 12.19,-37.43 16.25,-59.83 20.31,-84.89 44.68,-200.85 36.56,-160 28.44,-115.56 28.43,-106.14 24.38,-83.25 24.37,-76.34 24.38,-69.82 24.37,-63.78 24.37,-58.24 24.38,-53.23 28.43,-56.39 28.44,-50.91 28.44,-46.07 28.43,-41.79 28.44,-37.99 28.43,-34.63 32.5,-35.93 32.5,-32.52 32.5,-29.5 36.55,-30.04 36.56,-27.1 40.63,-27.13 40.62,-24.38 44.68,-24.07 44.69,-21.57 48.75,-21.07 52.8,-20.31 56.88,-19.38 60.93,-18.32 65,-17.16 69.05,-15.97 77.19,-15.51 85.3,-14.77 93.44,-13.79 101.55,-12.7 113.74,-11.9 125.93,-10.9 142.18,-10.03 162.49,-9.16 186.86,-8.23 219.37,-7.34 259.98,-6.37 316.86,-5.45 402.16,-4.58 422.47,-3.12 v 0" /><path
             id="path272"
             style="fill:none;stroke:#7ca1b3;stroke-width:17.5;stroke-linecap:round;stroke-linejoin:round;stroke-miterlimit:10;stroke-dasharray:none;stroke-opacity:1"
             d="M 720,2557.99 H 5184" /><path
             id="path274"
             style="fill:none;stroke:#aed3e6;stroke-width:17.5;stroke-linecap:round;stroke-linejoin:round;stroke-miterlimit:10;stroke-dasharray:none;stroke-opacity:1"
             d="m 922.91,1040.69 12.188,550.4 12.183,435.06 12.188,334.04 8.125,175.19 8.125,142.89 8.125,115 8.125,90.97 8.121,70.33 8.12,52.63 8.13,37.46 8.12,24.51 4.07,8 4.06,5.46 4.06,3.1 4.06,0.94 4.07,-1.05 4.06,-2.88 8.12,-10.66 8.13,-16.32 8.12,-21.03 12.19,-38.63 16.25,-61.24 20.31,-86.34 101.56,-447.56 28.43,-108.98 24.37,-85.55 24.38,-78.42 24.37,-71.69 24.38,-65.42 24.37,-59.69 24.37,-54.49 24.38,-49.77 28.43,-52.75 28.44,-47.63 28.43,-43.14 28.44,-39.14 28.43,-35.62 32.5,-36.9 32.5,-33.32 32.5,-30.19 36.56,-30.67 36.56,-27.64 36.56,-24.99 40.62,-25.03 40.62,-22.54 44.69,-22.27 48.74,-21.7 52.81,-20.88 52.81,-18.53 56.88,-17.71 64.99,-17.79 69.06,-16.5 73.12,-15.2 81.24,-14.6 89.38,-13.73 97.49,-12.72 109.68,-12.01 121.86,-11.04 138.12,-10.2 154.36,-9.13 178.75,-8.28 207.17,-7.33 247.8,-6.45 300.6,-5.5 377.79,-4.58 503.72,-3.76 56.87,-0.32 v 0" /><path
             id="path276"
             style="fill:none;stroke:#8ba9b8;stroke-width:17.5;stroke-linecap:round;stroke-linejoin:round;stroke-miterlimit:10;stroke-dasharray:none;stroke-opacity:1"
             d="M 720,2538.29 H 5184" /><path
             id="path278"
             style="fill:none;stroke:#c2deec;stroke-width:17.5;stroke-linecap:round;stroke-linejoin:round;stroke-miterlimit:10;stroke-dasharray:none;stroke-opacity:1"
             d="m 922.91,1023 12.188,550.16 12.183,434.25 12.188,332.91 8.125,174.32 8.125,141.96 8.125,114.01 8.125,89.95 8.121,69.29 8.12,51.57 8.13,36.41 8.12,23.47 4.07,7.48 4.06,4.94 4.06,2.6 4.06,0.45 4.07,-1.54 4.06,-3.36 8.12,-11.58 8.13,-17.2 8.12,-21.87 12.19,-39.78 16.25,-62.6 24.37,-106.05 81.25,-365.56 28.43,-114.73 28.44,-104.75 24.37,-81.82 24.37,-74.78 24.38,-68.22 24.37,-62.18 24.37,-56.69 24.38,-51.71 28.43,-54.72 28.44,-49.33 28.43,-44.58 28.44,-40.39 28.44,-36.69 28.43,-33.41 32.5,-34.64 32.5,-31.32 32.5,-28.39 36.56,-28.88 36.56,-26.03 40.62,-26.03 40.62,-23.38 44.69,-23.04 44.68,-20.63 48.75,-20.13 52.81,-19.38 56.87,-18.45 60.93,-17.42 65,-16.28 73.12,-15.94 77.18,-14.54 85.31,-13.8 93.43,-12.86 105.62,-12.21 117.8,-11.28 130,-10.18 150.3,-9.45 170.61,-8.41 199.05,-7.5 235.61,-6.54 284.36,-5.57 353.42,-4.6 467.15,-3.75 231.55,-1.26 v 0" /><path
             id="path280"
             style="fill:none;stroke:#9bb1bd;stroke-width:17.5;stroke-linecap:round;stroke-linejoin:round;stroke-miterlimit:10;stroke-dasharray:none;stroke-opacity:1"
             d="M 720,2518.59 H 5184" /><path
             id="path282"
             style="fill:none;stroke:#d4e7f1;stroke-width:17.5;stroke-linecap:round;stroke-linejoin:round;stroke-miterlimit:10;stroke-dasharray:none;stroke-opacity:1"
             d="m 922.91,1005.61 12.188,549.91 12.183,433.43 12.188,331.77 8.125,173.45 8.125,141.03 8.125,113.03 8.125,88.94 8.121,68.25 8.12,50.53 8.13,35.38 8.12,22.44 4.07,6.97 4.06,4.45 4.06,2.1 4.06,-0.04 4.07,-2.01 4.06,-3.82 8.12,-12.49 8.13,-18.06 12.18,-35.48 12.19,-43.21 16.25,-65.97 24.37,-109.14 69.06,-314.8 28.44,-117.73 28.43,-107.68 24.38,-84.15 24.37,-76.89 24.37,-70.1 24.38,-63.84 24.37,-58.15 24.37,-52.98 24.38,-48.34 28.43,-51.16 28.44,-46.14 28.43,-41.74 28.44,-37.85 28.43,-34.4 32.5,-35.6 32.5,-32.13 32.5,-29.08 36.56,-29.52 36.56,-26.58 36.56,-24 40.62,-24.02 44.69,-23.65 44.68,-21.11 48.75,-20.56 52.81,-19.75 56.87,-18.77 60.93,-17.66 65,-16.49 69.06,-15.25 77.18,-14.76 85.31,-13.96 93.43,-12.96 101.55,-11.84 113.75,-11.02 129.99,-10.27 146.24,-9.26 166.55,-8.27 194.99,-7.39 231.55,-6.44 280.29,-5.45 349.35,-4.48 463.1,-3.58 288.42,-1.44 v 0" /><path
             id="path284"
             style="fill:none;stroke:#a9b8c1;stroke-width:17.5;stroke-linecap:round;stroke-linejoin:round;stroke-miterlimit:10;stroke-dasharray:none;stroke-opacity:1"
             d="M 720,2498.9 H 5184" /><path
             id="path286"
             style="fill:none;stroke:#e0ecf3;stroke-width:17.5;stroke-linecap:round;stroke-linejoin:round;stroke-miterlimit:10;stroke-dasharray:none;stroke-opacity:1"
             d="m 922.91,988.516 12.188,549.634 12.183,432.58 12.188,330.64 8.125,172.58 8.125,140.1 8.125,112.06 8.125,87.93 8.121,67.23 8.12,49.51 8.13,34.35 8.12,21.43 4.07,6.48 4.06,3.96 4.06,1.62 4.06,-0.51 4.07,-2.48 4.06,-4.28 8.12,-13.37 8.13,-18.89 12.18,-36.64 12.19,-44.26 16.25,-67.18 28.43,-129.58 56.88,-262.45 28.43,-120.77 28.44,-110.7 24.37,-86.57 24.38,-79.12 24.37,-72.08 24.37,-65.6 24.38,-59.68 24.37,-54.33 24.37,-49.51 28.44,-52.32 28.44,-47.14 28.43,-42.56 28.44,-38.54 28.43,-34.99 32.5,-36.16 32.5,-32.59 32.5,-29.45 32.49,-26.7 36.56,-27.15 36.56,-24.48 40.63,-24.47 40.62,-21.95 44.68,-21.65 48.75,-21.02 52.81,-20.15 56.87,-19.11 60.94,-17.94 64.99,-16.7 69.06,-15.42 77.18,-14.88 85.31,-14.03 93.43,-12.99 101.56,-11.82 113.74,-10.96 125.93,-9.9 146.24,-9.19 166.55,-8.15 194.99,-7.23 231.55,-6.25 280.29,-5.23 353.42,-4.25 475.28,-3.35 292.48,-1.28 v 0" /><path
             id="path288"
             style="fill:none;stroke:#b3bdc2;stroke-width:17.5;stroke-linecap:round;stroke-linejoin:round;stroke-miterlimit:10;stroke-dasharray:none;stroke-opacity:1"
             d="M 720,2479.2 H 5184" /><path
             id="path290"
             style="fill:none;stroke:#ecf2f5;stroke-width:17.5;stroke-linecap:round;stroke-linejoin:round;stroke-miterlimit:10;stroke-dasharray:none;stroke-opacity:1"
             d="m 922.91,971.699 12.188,549.341 12.183,431.73 12.188,329.48 8.125,171.71 8.125,139.17 8.125,111.09 8.125,86.94 8.121,66.22 8.12,48.5 8.13,33.34 8.12,20.44 4.07,6 4.06,3.47 4.06,1.15 4.06,-0.98 4.07,-2.92 8.12,-11.09 8.13,-17.09 8.12,-22.08 12.19,-40.54 16.25,-64.16 20.31,-90.17 93.43,-427.76 28.44,-113.8 24.37,-89.1 24.37,-81.43 24.37,-74.18 24.38,-67.45 24.37,-61.31 24.37,-55.75 24.38,-50.75 24.37,-46.25 28.44,-48.91 28.44,-44.09 28.43,-39.85 28.44,-36.11 28.43,-32.82 32.5,-33.94 32.5,-30.62 32.5,-27.7 36.55,-28.11 36.56,-25.28 40.63,-25.22 40.62,-22.59 44.68,-22.21 44.69,-19.83 48.75,-19.29 52.8,-18.52 56.88,-17.58 60.93,-16.52 65,-15.39 73.12,-15 81.24,-14.27 89.37,-13.3 97.5,-12.18 109.68,-11.35 121.86,-10.29 138.12,-9.34 158.43,-8.39 182.8,-7.38 215.3,-6.37 259.98,-5.37 324.98,-4.38 426.53,-3.4 499.66,-2.17 v 0" /><path
             id="path292"
             style="fill:none;stroke:#bdc1c4;stroke-width:17.5;stroke-linecap:round;stroke-linejoin:round;stroke-miterlimit:10;stroke-dasharray:none;stroke-opacity:1"
             d="M 720,2459.5 H 5184" /><path
             id="path294"
             style="fill:none;stroke:#f7f7f6;stroke-width:17.5;stroke-linecap:round;stroke-linejoin:round;stroke-miterlimit:10;stroke-dasharray:none;stroke-opacity:1"
             d="m 922.91,955.148 12.188,549.012 12.183,430.86 12.188,328.33 8.125,170.84 8.125,138.25 8.125,110.12 8.125,85.96 8.121,65.22 8.12,47.49 8.13,32.35 8.12,19.47 4.07,5.51 4.06,3.01 4.06,0.68 4.06,-1.43 4.07,-3.37 8.12,-11.95 8.13,-17.91 8.12,-22.84 12.19,-41.59 16.25,-65.41 24.37,-110.48 77.18,-359.35 28.44,-118.47 24.37,-93.04 24.37,-85.14 24.38,-77.59 24.37,-70.52 24.38,-64.05 24.37,-58.18 24.37,-52.89 24.38,-48.13 24.37,-43.89 28.44,-46.41 28.43,-41.86 28.44,-37.85 28.43,-34.32 28.44,-31.2 32.49,-32.31 32.5,-29.14 32.5,-26.38 36.56,-26.79 36.56,-24.11 40.63,-24.05 40.62,-21.55 44.68,-21.2 48.75,-20.55 52.81,-19.66 56.87,-18.59 60.93,-17.41 65,-16.16 69.06,-14.88 77.18,-14.3 85.31,-13.44 93.43,-12.37 101.55,-11.21 113.75,-10.33 129.99,-9.52 146.24,-8.46 170.61,-7.59 199.06,-6.556 239.67,-5.586 296.54,-4.57 381.85,-3.539 536.22,-2.582 170.61,-0.504 v 0" /><path
             id="path296"
             style="fill:none;stroke:#c6c5c5;stroke-width:17.5;stroke-linecap:round;stroke-linejoin:round;stroke-miterlimit:10;stroke-dasharray:none;stroke-opacity:1"
             d="M 720,2439.81 H 5184" /><path
             id="path298"
             style="fill:none;stroke:#f9eee7;stroke-width:17.5;stroke-linecap:round;stroke-linejoin:round;stroke-miterlimit:10;stroke-dasharray:none;stroke-opacity:1"
             d="m 922.91,938.852 12.188,548.658 12.183,429.99 12.188,327.17 8.125,169.96 8.125,137.33 8.125,109.17 8.125,84.96 8.121,64.24 8.12,46.5 8.13,31.37 8.12,18.5 4.07,5.05 4.06,2.54 4.06,0.24 4.06,-1.88 4.07,-3.81 8.12,-12.79 8.13,-18.7 12.18,-36.94 12.19,-45.05 16.25,-68.73 28.43,-132.89 56.87,-268.74 28.44,-123.13 28.44,-112.5 24.37,-87.7 24.37,-79.92 24.38,-72.62 24.37,-65.9 24.38,-59.81 24.37,-54.31 24.37,-49.36 24.37,-44.96 28.44,-47.48 28.43,-42.76 28.44,-38.62 28.44,-34.97 28.43,-31.75 32.5,-32.81 32.5,-29.58 32.5,-26.73 36.56,-27.1 36.56,-24.36 40.62,-24.27 40.62,-21.71 44.69,-21.33 48.75,-20.64 48.74,-18.29 52.81,-17.53 56.87,-16.61 65,-16.56 69.06,-15.2 73.12,-13.85 81.24,-13.15 89.37,-12.21 101.55,-11.56 113.75,-10.59 125.93,-9.442 142.18,-8.422 166.55,-7.575 194.99,-6.554 231.55,-5.485 288.41,-4.492 369.67,-3.414 519.97,-2.418 264.04,-0.672 v 0" /><path
             id="path300"
             style="fill:none;stroke:#c7beb9;stroke-width:17.5;stroke-linecap:round;stroke-linejoin:round;stroke-miterlimit:10;stroke-dasharray:none;stroke-opacity:1"
             d="M 720,2420.11 H 5184" /><path
             id="path302"
             style="fill:none;stroke:#fbe5d8;stroke-width:17.5;stroke-linecap:round;stroke-linejoin:round;stroke-miterlimit:10;stroke-dasharray:none;stroke-opacity:1"
             d="m 922.91,922.793 12.188,548.287 12.183,429.09 12.188,326.01 8.125,169.09 8.125,136.41 8.125,108.21 8.125,83.99 8.121,63.26 8.12,45.52 8.13,30.4 8.12,17.56 4.07,4.58 4.06,2.09 4.06,-0.21 4.06,-2.31 4.07,-4.25 8.12,-13.61 8.13,-19.48 12.18,-38.01 12.19,-46.02 16.25,-69.85 28.43,-134.41 52.81,-251.9 28.44,-124.91 28.44,-114.17 24.37,-89.01 24.37,-81.06 24.37,-73.61 24.38,-66.76 24.37,-60.52 24.37,-54.91 24.38,-49.88 24.37,-45.37 28.44,-47.88 28.44,-43.07 28.43,-38.86 28.44,-35.15 28.43,-31.88 32.5,-32.93 32.5,-29.64 32.5,-26.76 36.55,-27.11 36.56,-24.34 40.63,-24.23 40.62,-21.64 44.68,-21.25 48.75,-20.53 48.75,-18.16 52.81,-17.4 56.87,-16.46 64.99,-16.38 69.06,-15 73.12,-13.65 81.25,-12.93 89.37,-11.974 101.55,-11.3 113.75,-10.325 125.92,-9.16 146.25,-8.336 166.55,-7.211 194.99,-6.183 235.61,-5.184 292.48,-4.125 385.91,-3.082 556.53,-2.015 203.11,-0.379 v 0" /><path
             id="path304"
             style="fill:none;stroke:#c9b7ad;stroke-width:17.5;stroke-linecap:round;stroke-linejoin:round;stroke-miterlimit:10;stroke-dasharray:none;stroke-opacity:1"
             d="M 720,2400.41 H 5184" /><path
             id="path306"
             style="fill:none;stroke:#fddcc9;stroke-width:17.5;stroke-linecap:round;stroke-linejoin:round;stroke-miterlimit:10;stroke-dasharray:none;stroke-opacity:1"
             d="m 922.91,906.973 12.188,547.887 12.183,428.19 12.188,324.83 8.125,168.23 8.125,135.48 8.125,107.26 8.125,83.03 8.121,62.27 8.12,44.56 8.13,29.45 4.06,9.79 4.06,6.83 4.07,4.13 4.06,1.64 4.06,-0.65 4.06,-2.74 4.07,-4.66 8.12,-14.42 8.13,-20.24 12.18,-39.07 12.19,-46.97 20.31,-89.69 36.56,-176.81 40.62,-193.71 28.44,-125.24 24.37,-98.65 24.37,-90.34 24.38,-82.25 24.37,-74.65 24.38,-67.64 24.37,-61.28 24.37,-55.54 24.38,-50.4 24.37,-45.81 24.37,-41.71 28.44,-44.06 28.43,-39.7 28.44,-35.86 28.43,-32.48 32.5,-33.5 32.5,-30.11 32.5,-27.16 36.56,-27.46 36.56,-24.62 40.62,-24.47 40.62,-21.84 44.69,-21.39 44.69,-19.02 48.74,-18.43 52.81,-17.6 56.87,-16.63 60.93,-15.55 69.06,-15.22 73.12,-13.808 81.25,-13.035 89.37,-12.039 97.49,-10.907 109.68,-10.039 125.93,-9.23 142.18,-8.137 166.55,-7.215 194.99,-6.121 235.61,-5.058 292.48,-3.938 385.92,-2.832 564.65,-1.711 223.42,-0.297 v 0" /><path
             id="path308"
             style="fill:none;stroke:#cab0a1;stroke-width:17.5;stroke-linecap:round;stroke-linejoin:round;stroke-miterlimit:10;stroke-dasharray:none;stroke-opacity:1"
             d="M 720,2380.72 H 5184" /><path
             id="path310"
             style="fill:none;stroke:#fbccb4;stroke-width:17.5;stroke-linecap:round;stroke-linejoin:round;stroke-miterlimit:10;stroke-dasharray:none;stroke-opacity:1"
             d="m 922.91,891.367 12.188,547.473 12.183,427.27 12.188,323.66 8.125,167.34 8.125,134.57 8.125,106.31 8.125,82.07 8.121,61.31 8.12,43.59 8.13,28.51 4.06,9.32 4.06,6.39 4.07,3.68 4.06,1.19 4.06,-1.08 4.06,-3.17 8.13,-11.88 8.12,-18.24 8.13,-23.48 12.18,-42.99 16.25,-67.74 24.38,-114.4 69.05,-333.24 28.44,-124.03 24.38,-97.34 24.37,-88.92 24.37,-80.83 24.37,-73.26 24.38,-66.32 24.37,-60.04 24.37,-54.39 24.38,-49.34 24.37,-44.82 28.44,-47.25 28.44,-42.45 28.43,-38.24 28.44,-34.56 28.43,-31.32 32.5,-32.29 32.5,-29.04 32.5,-26.19 36.55,-26.5 36.56,-23.75 40.63,-23.61 40.62,-21.07 44.68,-20.63 48.75,-19.91 52.81,-18.95 56.87,-17.83 60.94,-16.6 64.99,-15.303 69.06,-13.992 77.18,-13.34 85.31,-12.422 93.43,-11.32 105.62,-10.493 117.8,-9.41 134.06,-8.425 154.36,-7.411 178.74,-6.304 215.3,-5.297 264.05,-4.172 341.22,-3.043 479.35,-1.867 507.78,-0.61 v 0" /><path
             id="path312"
             style="fill:none;stroke:#c8a390;stroke-width:17.5;stroke-linecap:round;stroke-linejoin:round;stroke-miterlimit:10;stroke-dasharray:none;stroke-opacity:1"
             d="M 720,2361.02 H 5184" /><path
             id="path314"
             style="fill:none;stroke:#f8bb9e;stroke-width:17.5;stroke-linecap:round;stroke-linejoin:round;stroke-miterlimit:10;stroke-dasharray:none;stroke-opacity:1"
             d="m 922.91,875.973 12.188,547.037 12.183,426.34 12.188,322.47 8.125,166.48 8.125,133.65 8.125,105.37 8.125,81.11 8.121,60.35 8.12,42.64 8.13,27.58 4.06,8.86 4.06,5.93 4.07,3.24 4.06,0.76 4.06,-1.5 4.06,-3.59 8.13,-12.68 8.12,-18.99 8.13,-24.19 12.18,-43.96 16.25,-68.87 24.38,-115.76 69.05,-335.22 28.44,-124.29 24.38,-97.42 24.37,-88.88 24.37,-80.71 24.37,-73.09 24.38,-66.11 24.37,-59.8 24.37,-54.15 24.38,-49.08 24.37,-44.56 24.38,-40.55 28.43,-42.79 28.44,-38.52 28.43,-34.78 28.44,-31.48 32.5,-32.43 32.49,-29.13 32.5,-26.25 36.56,-26.53 36.56,-23.76 40.63,-23.58 40.62,-21.02 44.68,-20.57 48.75,-19.82 48.75,-17.48 52.8,-16.68 56.88,-15.726 64.99,-15.574 69.06,-14.196 77.18,-13.496 85.31,-12.523 93.43,-11.379 105.62,-10.496 117.8,-9.371 134.06,-8.34 154.37,-7.278 178.73,-6.136 215.3,-5.078 264.05,-3.918 345.29,-2.762 491.53,-1.516 507.78,-0.293 v 0" /><path
             id="path316"
             style="fill:none;stroke:#c6967f;stroke-width:17.5;stroke-linecap:round;stroke-linejoin:round;stroke-miterlimit:10;stroke-dasharray:none;stroke-opacity:1"
             d="M 720,2341.32 H 5184" /><path
             id="path318"
             style="fill:none;stroke:#f5aa88;stroke-width:17.5;stroke-linecap:round;stroke-linejoin:round;stroke-miterlimit:10;stroke-dasharray:none;stroke-opacity:1"
             d="m 922.91,860.785 12.188,546.575 12.183,425.39 12.188,321.29 8.125,165.6 8.125,132.74 8.125,104.42 8.125,80.16 8.121,59.4 8.12,41.71 8.13,26.65 4.06,8.41 4.06,5.49 4.07,2.8 4.06,0.33 4.06,-1.92 4.06,-3.99 8.13,-13.47 8.12,-19.73 12.19,-38.96 12.19,-47.43 16.25,-72.14 28.43,-138.81 52.81,-259.06 28.44,-127.72 24.37,-100.37 24.37,-91.69 24.38,-83.29 24.37,-75.41 24.37,-68.17 24.38,-61.61 24.37,-55.72 24.37,-50.46 24.38,-45.75 24.37,-41.59 28.44,-43.83 28.43,-39.4 28.44,-35.52 28.43,-32.1 28.44,-29.1 32.5,-30.03 32.5,-27.02 36.55,-27.25 36.57,-24.35 36.56,-21.85 40.62,-21.72 44.68,-21.21 44.69,-18.79 48.74,-18.122 52.81,-17.25 56.87,-16.223 60.94,-15.086 69.06,-14.691 73.12,-13.246 81.24,-12.414 89.37,-11.371 101.56,-10.582 113.74,-9.508 125.93,-8.277 146.24,-7.336 170.62,-6.27 203.11,-5.16 247.8,-3.996 320.91,-2.82 446.85,-1.528 674.33,-0.168 v 0" /><path
             id="path320"
             style="fill:none;stroke:#c4886d;stroke-width:17.5;stroke-linecap:round;stroke-linejoin:round;stroke-miterlimit:10;stroke-dasharray:none;stroke-opacity:1"
             d="M 720,2321.63 H 5184" /><path
             id="path322"
             style="fill:none;stroke:#ee9677;stroke-width:17.5;stroke-linecap:round;stroke-linejoin:round;stroke-miterlimit:10;stroke-dasharray:none;stroke-opacity:1"
             d="m 922.91,845.793 12.188,546.087 12.183,424.45 12.188,320.09 8.125,164.72 8.125,131.82 8.125,103.5 8.125,79.21 8.121,58.46 8.12,40.76 8.13,25.74 4.06,7.97 4.06,5.04 4.07,2.38 4.06,-0.09 4.06,-2.34 4.06,-4.39 8.13,-14.24 8.12,-20.46 12.19,-39.96 12.19,-48.33 16.25,-73.18 28.43,-140.19 48.75,-241.3 28.43,-129.59 24.38,-101.94 24.37,-93.13 24.37,-84.58 24.38,-76.53 24.37,-69.15 24.38,-62.44 24.37,-56.43 24.37,-51.05 24.38,-46.26 24.37,-42 28.44,-44.23 28.43,-39.72 28.44,-35.77 28.43,-32.3 28.44,-29.25 32.49,-30.16 32.5,-27.1 32.5,-24.42 36.56,-24.69 36.56,-22.12 40.63,-21.95 44.68,-21.4 44.68,-18.928 48.75,-18.23 52.81,-17.324 56.87,-16.258 60.94,-15.086 64.99,-13.867 73.12,-13.309 81.25,-12.437 89.37,-11.352 97.49,-10.148 109.68,-9.188 125.93,-8.281 146.24,-7.289 170.61,-6.164 203.12,-5.004 247.79,-3.781 320.92,-2.547 454.97,-1.196 686.52,0.262 v 0" /><path
             id="path324"
             style="fill:none;stroke:#be785f;stroke-width:17.5;stroke-linecap:round;stroke-linejoin:round;stroke-miterlimit:10;stroke-dasharray:none;stroke-opacity:1"
             d="M 720,2301.93 H 5184" /><path
             id="path326"
             style="fill:none;stroke:#e48066;stroke-width:17.5;stroke-linecap:round;stroke-linejoin:round;stroke-miterlimit:10;stroke-dasharray:none;stroke-opacity:1"
             d="m 922.91,830.992 12.188,545.578 12.183,423.49 12.188,318.89 8.125,163.85 8.125,130.9 8.125,102.57 8.125,78.27 8.121,57.51 8.12,39.84 8.13,24.84 4.06,7.52 4.06,4.62 4.07,1.94 4.06,-0.5 4.06,-2.74 4.06,-4.79 8.13,-15 8.12,-21.18 12.19,-40.94 12.19,-49.21 20.31,-93.78 36.56,-183.88 36.56,-180.66 28.43,-129.94 24.38,-102.05 24.37,-93.14 24.37,-84.49 24.38,-76.4 24.37,-68.96 24.38,-62.24 24.37,-56.2 24.37,-50.82 24.38,-46.01 24.37,-41.76 28.44,-43.95 28.43,-39.45 28.44,-35.5 28.43,-32.04 28.44,-29.01 32.49,-29.88 32.5,-26.84 32.5,-24.17 36.56,-24.42 36.56,-21.86 40.63,-21.684 44.68,-21.117 44.68,-18.66 48.75,-17.957 52.81,-17.043 56.87,-15.973 60.94,-14.804 69.05,-14.364 73.12,-12.886 81.25,-12.02 89.37,-10.945 101.55,-10.113 113.75,-9.004 129.99,-7.961 150.3,-6.867 174.68,-5.672 211.23,-4.532 259.99,-3.257 345.29,-1.969 515.9,-0.481 556.53,0.664 v 0" /><path
             id="path328"
             style="fill:none;stroke:#b76752;stroke-width:17.5;stroke-linecap:round;stroke-linejoin:round;stroke-miterlimit:10;stroke-dasharray:none;stroke-opacity:1"
             d="M 720,2282.23 H 5184" /><path
             id="path330"
             style="fill:none;stroke:#db6b55;stroke-width:17.5;stroke-linecap:round;stroke-linejoin:round;stroke-miterlimit:10;stroke-dasharray:none;stroke-opacity:1"
             d="m 922.91,816.371 12.188,545.059 12.183,422.51 8.125,222.24 8.125,181.36 8.125,145.87 8.125,115.27 8.125,89.01 8.125,66.54 8.119,47.4 8.13,31.12 4.06,10.25 4.06,7.09 4.06,4.19 4.07,1.52 4.06,-0.92 4.06,-3.14 4.06,-5.18 8.13,-15.75 8.12,-21.88 12.19,-41.91 16.25,-68.12 20.31,-97.02 85.31,-422.65 28.43,-123.53 24.38,-96.14 24.37,-87.27 24.37,-78.9 24.38,-71.19 24.37,-64.2 24.38,-57.93 24.37,-52.32 24.37,-47.32 24.37,-42.89 24.38,-38.94 28.44,-41.04 28.43,-36.86 28.44,-33.22 28.43,-30.02 32.5,-30.86 32.5,-27.67 32.5,-24.88 36.55,-25.09 36.56,-22.421 40.63,-22.195 40.62,-19.727 44.68,-19.242 48.75,-18.477 52.81,-17.492 56.87,-16.355 60.94,-15.117 64.99,-13.832 73.12,-13.211 81.25,-12.274 89.37,-11.133 97.49,-9.875 109.68,-8.859 125.93,-7.891 146.24,-6.836 170.61,-5.652 203.12,-4.433 251.86,-3.188 333.1,-1.859 491.53,-0.301 649.96,1.109 v 0" /><path
             id="path332"
             style="fill:none;stroke:#af5544;stroke-width:17.5;stroke-linecap:round;stroke-linejoin:round;stroke-miterlimit:10;stroke-dasharray:none;stroke-opacity:1"
             d="M 720,2262.54 H 5184" /><path
             id="path334"
             style="fill:none;stroke:#d05548;stroke-width:17.5;stroke-linecap:round;stroke-linejoin:round;stroke-miterlimit:10;stroke-dasharray:none;stroke-opacity:1"
             d="m 922.91,801.922 12.188,544.508 12.183,421.53 8.125,221.46 8.125,180.5 8.125,144.98 8.125,114.35 8.125,88.07 8.125,65.61 8.119,46.48 8.13,30.23 4.06,9.81 4.06,6.65 4.06,3.76 4.07,1.11 4.06,-1.33 4.06,-3.53 8.13,-12.97 8.12,-19.69 8.13,-25.18 12.18,-45.86 16.25,-71.85 24.38,-120.49 60.93,-307.73 28.43,-130.56 24.38,-102.27 24.37,-93.13 24.37,-84.34 24.38,-76.11 24.37,-68.61 24.38,-61.84 24.37,-55.77 24.37,-50.36 24.38,-45.56 24.37,-41.29 28.44,-43.41 28.43,-38.93 28.44,-34.98 28.43,-31.55 28.44,-28.53 32.49,-29.35 32.5,-26.33 32.5,-23.69 36.56,-23.898 36.56,-21.359 40.63,-21.157 44.68,-20.57 44.68,-18.141 48.75,-17.425 52.81,-16.496 56.87,-15.418 60.94,-14.25 69.05,-13.778 73.12,-12.308 81.25,-11.422 89.37,-10.34 101.55,-9.477 113.75,-8.359 129.99,-7.293 150.3,-6.18 178.74,-5.058 215.3,-3.809 272.17,-2.508 373.73,-1.062 613.39,0.781 410.29,1.016 v 0" /><path
             id="path336"
             style="fill:none;stroke:#a74439;stroke-width:17.5;stroke-linecap:round;stroke-linejoin:round;stroke-miterlimit:10;stroke-dasharray:none;stroke-opacity:1"
             d="M 720,2242.84 H 5184" /><path
             id="path338"
             style="fill:none;stroke:#c53e3d;stroke-width:17.5;stroke-linecap:round;stroke-linejoin:round;stroke-miterlimit:10;stroke-dasharray:none;stroke-opacity:1"
             d="m 922.91,787.645 12.188,543.945 12.183,420.54 8.125,220.66 8.125,179.65 8.125,144.07 8.125,113.43 8.125,87.15 8.125,64.69 8.119,45.56 8.13,29.33 4.06,9.38 4.06,6.22 4.06,3.34 4.07,0.7 4.06,-1.72 4.06,-3.93 8.13,-13.72 8.12,-20.39 8.13,-25.84 12.18,-46.76 16.25,-72.89 24.38,-121.72 60.93,-309.39 28.43,-130.87 24.38,-102.37 24.37,-93.12 24.37,-84.25 24.38,-75.99 24.37,-68.44 24.38,-61.63 24.37,-55.56 24.37,-50.14 24.38,-45.34 24.37,-41.07 24.37,-37.28 28.44,-39.27 28.43,-35.27 28.44,-31.77 28.43,-28.7 32.5,-29.51 32.5,-26.44 32.5,-23.758 36.56,-23.949 36.56,-21.383 40.62,-21.152 44.69,-20.543 44.68,-18.098 48.75,-17.352 52.81,-16.406 56.87,-15.312 60.93,-14.122 69.06,-13.625 73.12,-12.144 81.25,-11.238 89.37,-10.133 101.55,-9.254 113.74,-8.113 130,-7.035 154.36,-6.028 182.8,-4.789 223.43,-3.492 284.35,-2.082 398.1,-0.504 723.08,1.73 251.86,0.77 v 0" /><path
             id="path340"
             style="fill:none;stroke:#9d3231;stroke-width:17.5;stroke-linecap:round;stroke-linejoin:round;stroke-miterlimit:10;stroke-dasharray:none;stroke-opacity:1"
             d="M 720,2223.14 H 5184" /><path
             id="path342"
             style="fill:none;stroke:#ba2832;stroke-width:17.5;stroke-linecap:round;stroke-linejoin:round;stroke-miterlimit:10;stroke-dasharray:none;stroke-opacity:1"
             d="m 922.91,773.531 12.188,543.359 12.183,419.54 8.125,219.86 8.125,178.79 8.125,143.18 8.125,112.51 8.125,86.22 8.125,63.77 8.119,44.65 8.13,28.45 4.06,8.94 4.06,5.81 4.06,2.92 4.07,0.29 4.06,-2.11 4.06,-4.32 8.13,-14.46 8.12,-21.08 12.19,-41.44 12.18,-50.25 16.25,-76.11 28.44,-145.5 48.75,-249 28.43,-132.85 24.38,-104.03 24.37,-94.66 24.37,-85.62 24.38,-77.19 24.37,-69.48 24.37,-62.53 24.38,-56.31 24.37,-50.79 24.37,-45.88 24.38,-41.53 24.37,-37.66 28.43,-39.64 28.44,-35.56 28.44,-32.01 28.43,-28.89 32.5,-29.67 32.5,-26.551 32.5,-23.847 36.56,-24.004 36.56,-21.41 40.62,-21.161 40.62,-18.765 44.69,-18.262 48.75,-17.484 52.8,-16.496 56.87,-15.372 60.94,-14.144 69.06,-13.613 73.12,-12.098 81.24,-11.164 89.37,-10.031 101.56,-9.118 113.74,-7.949 129.99,-6.836 154.37,-5.797 182.8,-4.523 223.42,-3.191 288.42,-1.754 406.22,-0.067 812.45,2.606 158.43,0.562 v 0" /><path
             id="path344"
             style="fill:none;stroke:#942028;stroke-width:17.5;stroke-linecap:round;stroke-linejoin:round;stroke-miterlimit:10;stroke-dasharray:none;stroke-opacity:1"
             d="M 720,2203.45 H 5184" /><path
             id="path346"
             style="fill:none;stroke:#ab162a;stroke-width:17.5;stroke-linecap:round;stroke-linejoin:round;stroke-miterlimit:10;stroke-dasharray:none;stroke-opacity:1"
             d="m 922.91,759.574 12.188,542.766 12.183,418.51 8.125,219.06 8.125,177.93 8.125,142.29 8.125,111.59 8.125,85.3 8.125,62.85 8.119,43.76 8.13,27.57 4.06,8.51 4.06,5.38 4.06,2.52 4.07,-0.11 4.06,-2.51 4.06,-4.7 8.13,-15.19 8.12,-21.76 12.19,-42.38 12.18,-51.08 20.32,-97.41 40.62,-211.74 36.56,-184.65 28.43,-131.44 24.38,-102.54 24.37,-93.12 24.37,-84.08 24.38,-75.72 24.37,-68.11 24.38,-61.25 24.37,-55.15 24.37,-49.72 24.38,-44.9 24.37,-40.64 24.37,-36.85 28.44,-38.77 28.43,-34.79 28.44,-31.31 28.43,-28.245 32.5,-29.011 32.5,-25.957 32.5,-23.305 36.56,-23.457 36.56,-20.91 40.62,-20.657 44.69,-20.023 44.68,-17.602 48.75,-16.847 52.81,-15.883 56.87,-14.785 60.93,-13.59 69.06,-13.063 73.12,-11.585 81.25,-10.665 93.43,-9.937 105.62,-8.859 117.8,-7.571 134.06,-6.363 158.42,-5.234 190.93,-3.985 235.61,-2.582 312.79,-1.054 471.22,0.886 832.76,3.407 v 0" /><path
             id="path348"
             style="fill:none;stroke:#881121;stroke-width:17.5;stroke-linecap:round;stroke-linejoin:round;stroke-miterlimit:10;stroke-dasharray:none;stroke-opacity:1"
             d="M 720,2183.75 H 5184" /><path
             id="path350"
             style="fill:none;stroke:#930e26;stroke-width:17.5;stroke-linecap:round;stroke-linejoin:round;stroke-miterlimit:10;stroke-dasharray:none;stroke-opacity:1"
             d="m 922.91,745.773 12.188,542.137 12.183,417.49 8.125,218.26 8.125,177.07 8.125,141.38 8.125,110.68 8.125,84.38 8.125,61.94 8.119,42.86 8.13,26.7 4.06,8.09 4.06,4.97 4.06,2.11 4.07,-0.51 4.06,-2.9 4.06,-5.07 8.13,-15.91 8.12,-22.44 12.19,-43.31 12.18,-51.9 20.32,-98.55 48.74,-255.68 32.5,-162.56 28.44,-129.9 24.37,-101.04 24.37,-91.54 24.38,-82.56 24.37,-74.26 24.37,-66.74 24.38,-60 24.37,-53.99 24.37,-48.67 24.38,-43.95 24.37,-39.76 24.38,-36.06 28.43,-37.93 28.44,-34.03 28.43,-30.619 28.44,-27.625 32.49,-28.363 32.5,-25.375 32.5,-22.778 36.56,-22.914 36.56,-20.422 40.63,-20.164 44.68,-19.535 44.68,-17.16 48.75,-16.41 52.81,-15.461 56.87,-14.371 65,-14 69.05,-12.524 77.19,-11.644 85.31,-10.524 93.43,-9.265 105.62,-8.215 121.86,-7.176 142.18,-6.023 166.55,-4.715 199.05,-3.34 251.86,-1.914 345.29,-0.234 576.84,2.16 633.71,3.027 v 0" /><path
             id="path352"
             style="fill:none;stroke:#760b1e;stroke-width:17.5;stroke-linecap:round;stroke-linejoin:round;stroke-miterlimit:10;stroke-dasharray:none;stroke-opacity:1"
             d="M 720,2164.05 H 5184" /><path
             id="path354"
             style="fill:none;stroke:#7c0722;stroke-width:17.5;stroke-linecap:round;stroke-linejoin:round;stroke-miterlimit:10;stroke-dasharray:none;stroke-opacity:1"
             d="m 922.91,732.117 12.188,541.503 12.183,416.45 8.125,217.45 8.125,176.21 8.125,140.48 8.125,109.77 8.125,83.46 8.125,61.04 8.119,41.97 8.13,25.83 4.06,7.67 4.06,4.55 4.06,1.71 4.07,-0.9 4.06,-3.28 4.06,-5.45 8.13,-16.62 8.12,-23.11 12.19,-44.21 16.25,-71.69 20.31,-101.72 77.18,-399.49 24.37,-112.35 24.38,-102.71 24.37,-93.09 24.37,-83.92 24.38,-75.46 24.37,-67.78 24.38,-60.89 24.37,-54.75 24.37,-49.31 24.38,-44.49 24.37,-40.22 24.37,-36.44 28.44,-38.3 28.43,-34.331 28.44,-30.855 28.43,-27.813 32.5,-28.531 32.5,-25.5 32.5,-22.863 36.56,-22.977 36.56,-20.457 40.62,-20.176 44.69,-19.523 44.68,-17.125 48.75,-16.352 52.81,-15.382 56.87,-14.27 60.93,-13.078 69.06,-12.512 77.18,-11.601 85.31,-10.45 93.43,-9.152 105.62,-8.074 121.87,-7.004 138.12,-5.676 166.55,-4.523 199.05,-3.102 251.86,-1.621 349.35,0.141 609.33,2.84 609.34,3.273 v 0" /><path
             id="path356"
             style="fill:none;stroke:#63051c;stroke-width:17.5;stroke-linecap:round;stroke-linejoin:round;stroke-miterlimit:10;stroke-dasharray:none;stroke-opacity:1"
             d="M 720,2144.36 H 5184" /></g></g></g></g></svg>