<?xml version="1.0" encoding="UTF-8" standalone="no"?>
<svg
   xmlns:dc="http://purl.org/dc/elements/1.1/"
   xmlns:cc="http://creativecommons.org/ns#"
   xmlns:rdf="http://www.w3.org/1999/02/22-rdf-syntax-ns#"
   xmlns:svg="http://www.w3.org/2000/svg"
   xmlns="http://www.w3.org/2000/svg"
   viewBox="0 0 768 528"
   height="528"
   width="768"
   xml:space="preserve"
   id="svg2"
   version="1.1"><metadata
     id="metadata8"><rdf:RDF><cc:Work
         rdf:about=""><dc:format>image/svg+xml</dc:format><dc:type
           rdf:resource="http://purl.org/dc/dcmitype/StillImage" /></cc:Work></rdf:RDF></metadata><defs
     id="defs6"><clipPath
       id="clipPath24"
       clipPathUnits="userSpaceOnUse"><path
         id="path22"
         d="M 720,495 H 5184 V 3485 H 720 Z" /></clipPath><clipPath
       id="clipPath40"
       clipPathUnits="userSpaceOnUse"><path
         id="path38"
         d="M 720,495 H 5184 V 3485 H 720 Z" /></clipPath><clipPath
       id="clipPath56"
       clipPathUnits="userSpaceOnUse"><path
         id="path54"
         d="M 720,495 H 5184 V 3485 H 720 Z" /></clipPath><clipPath
       id="clipPath72"
       clipPathUnits="userSpaceOnUse"><path
         id="path70"
         d="M 720,495 H 5184 V 3485 H 720 Z" /></clipPath><clipPath
       id="clipPath88"
       clipPathUnits="userSpaceOnUse"><path
         id="path86"
         d="M 720,495 H 5184 V 3485 H 720 Z" /></clipPath><clipPath
       id="clipPath104"
       clipPathUnits="userSpaceOnUse"><path
         id="path102"
         d="M 720,495 H 5184 V 3485 H 720 Z" /></clipPath><clipPath
       id="clipPath132"
       clipPathUnits="userSpaceOnUse"><path
         id="path130"
         d="M 720,495 H 5184 V 3485 H 720 Z" /></clipPath><clipPath
       id="clipPath148"
       clipPathUnits="userSpaceOnUse"><path
         id="path146"
         d="M 720,495 H 5184 V 3485 H 720 Z" /></clipPath><clipPath
       id="clipPath164"
       clipPathUnits="userSpaceOnUse"><path
         id="path162"
         d="M 720,495 H 5184 V 3485 H 720 Z" /></clipPath><clipPath
       id="clipPath180"
       clipPathUnits="userSpaceOnUse"><path
         id="path178"
         d="M 720,495 H 5184 V 3485 H 720 Z" /></clipPath><clipPath
       id="clipPath196"
       clipPathUnits="userSpaceOnUse"><path
         id="path194"
         d="M 720,495 H 5184 V 3485 H 720 Z" /></clipPath><clipPath
       id="clipPath212"
       clipPathUnits="userSpaceOnUse"><path
         id="path210"
         d="M 720,495 H 5184 V 3485 H 720 Z" /></clipPath><clipPath
       id="clipPath228"
       clipPathUnits="userSpaceOnUse"><path
         id="path226"
         d="M 720,495 H 5184 V 3485 H 720 Z" /></clipPath><clipPath
       id="clipPath244"
       clipPathUnits="userSpaceOnUse"><path
         id="path242"
         d="M 720,495 H 5184 V 3485 H 720 Z" /></clipPath><clipPath
       id="clipPath272"
       clipPathUnits="userSpaceOnUse"><path
         id="path270"
         d="M 720,495 H 5184 V 3485 H 720 Z" /></clipPath></defs><g
     transform="matrix(1.3333333,0,0,-1.3333333,0,528)"
     id="g10"><g
       transform="scale(0.1)"
       id="g12"><path
         id="path14"
         style="fill:#ffffff;fill-opacity:1;fill-rule:nonzero;stroke:none"
         d="M 0,0 H 5760 V 3960 H 0 Z" /><path
         id="path16"
         style="fill:#eaeaf2;fill-opacity:1;fill-rule:nonzero;stroke:none"
         d="M 720,495 H 5184 V 3484.8 H 720 Z" /><g
         id="g18"><g
           clip-path="url(#clipPath24)"
           id="g20"><path
             id="path26"
             style="fill:none;stroke:#ffffff;stroke-width:10;stroke-linecap:round;stroke-linejoin:round;stroke-miterlimit:10;stroke-dasharray:none;stroke-opacity:1"
             d="M 922.91,495 V 3484.8" /></g></g><g
         transform="scale(10)"
         id="g28"><text
           id="text32"
           style="font-variant:normal;font-weight:normal;font-size:10px;font-family:Arial;-inkscape-font-specification:Arial;writing-mode:lr-tb;fill:#262626;fill-opacity:1;fill-rule:nonzero;stroke:none"
           transform="matrix(1,0,0,-1,89.5098,35.25)"><tspan
             id="tspan30"
             y="0"
             x="0">0</tspan></text>
</g><g
         id="g34"><g
           clip-path="url(#clipPath40)"
           id="g36"><path
             id="path42"
             style="fill:none;stroke:#ffffff;stroke-width:10;stroke-linecap:round;stroke-linejoin:round;stroke-miterlimit:10;stroke-dasharray:none;stroke-opacity:1"
             d="M 1734.55,495 V 3484.8" /></g></g><g
         transform="scale(10)"
         id="g44"><text
           id="text48"
           style="font-variant:normal;font-weight:normal;font-size:10px;font-family:Arial;-inkscape-font-specification:Arial;writing-mode:lr-tb;fill:#262626;fill-opacity:1;fill-rule:nonzero;stroke:none"
           transform="matrix(1,0,0,-1,170.673,35.25)"><tspan
             id="tspan46"
             y="0"
             x="0">2</tspan></text>
</g><g
         id="g50"><g
           clip-path="url(#clipPath56)"
           id="g52"><path
             id="path58"
             style="fill:none;stroke:#ffffff;stroke-width:10;stroke-linecap:round;stroke-linejoin:round;stroke-miterlimit:10;stroke-dasharray:none;stroke-opacity:1"
             d="M 2546.18,495 V 3484.8" /></g></g><g
         transform="scale(10)"
         id="g60"><text
           id="text64"
           style="font-variant:normal;font-weight:normal;font-size:10px;font-family:Arial;-inkscape-font-specification:Arial;writing-mode:lr-tb;fill:#262626;fill-opacity:1;fill-rule:nonzero;stroke:none"
           transform="matrix(1,0,0,-1,251.837,35.25)"><tspan
             id="tspan62"
             y="0"
             x="0">4</tspan></text>
</g><g
         id="g66"><g
           clip-path="url(#clipPath72)"
           id="g68"><path
             id="path74"
             style="fill:none;stroke:#ffffff;stroke-width:10;stroke-linecap:round;stroke-linejoin:round;stroke-miterlimit:10;stroke-dasharray:none;stroke-opacity:1"
             d="M 3357.82,495 V 3484.8" /></g></g><g
         transform="scale(10)"
         id="g76"><text
           id="text80"
           style="font-variant:normal;font-weight:normal;font-size:10px;font-family:Arial;-inkscape-font-specification:Arial;writing-mode:lr-tb;fill:#262626;fill-opacity:1;fill-rule:nonzero;stroke:none"
           transform="matrix(1,0,0,-1,333.001,35.25)"><tspan
             id="tspan78"
             y="0"
             x="0">6</tspan></text>
</g><g
         id="g82"><g
           clip-path="url(#clipPath88)"
           id="g84"><path
             id="path90"
             style="fill:none;stroke:#ffffff;stroke-width:10;stroke-linecap:round;stroke-linejoin:round;stroke-miterlimit:10;stroke-dasharray:none;stroke-opacity:1"
             d="M 4169.45,495 V 3484.8" /></g></g><g
         transform="scale(10)"
         id="g92"><text
           id="text96"
           style="font-variant:normal;font-weight:normal;font-size:10px;font-family:Arial;-inkscape-font-specification:Arial;writing-mode:lr-tb;fill:#262626;fill-opacity:1;fill-rule:nonzero;stroke:none"
           transform="matrix(1,0,0,-1,414.164,35.25)"><tspan
             id="tspan94"
             y="0"
             x="0">8</tspan></text>
</g><g
         id="g98"><g
           clip-path="url(#clipPath104)"
           id="g100"><path
             id="path106"
             style="fill:none;stroke:#ffffff;stroke-width:10;stroke-linecap:round;stroke-linejoin:round;stroke-miterlimit:10;stroke-dasharray:none;stroke-opacity:1"
             d="M 4981.09,495 V 3484.8" /></g></g><g
         transform="scale(10)"
         id="g108"><text
           id="text112"
           style="font-variant:normal;font-weight:normal;font-size:10px;font-family:Arial;-inkscape-font-specification:Arial;writing-mode:lr-tb;fill:#262626;fill-opacity:1;fill-rule:nonzero;stroke:none"
           transform="matrix(1,0,0,-1,492.546,35.25)"><tspan
             id="tspan110"
             y="0"
             x="0 5.5617089">10</tspan></text>
<text
           id="text116"
           style="font-variant:normal;font-weight:normal;font-size:11px;font-family:Arial;-inkscape-font-specification:Arial;writing-mode:lr-tb;fill:#262626;fill-opacity:1;fill-rule:nonzero;stroke:none"
           transform="matrix(1,0,0,-1,271.2,21.2031)"><tspan
             id="tspan114"
             y="0"
             x="0 6.7191443 9.1632929 18.326292 24.44388 27.500122">Time (</tspan></text>
<text
           id="text120"
           style="font-variant:normal;font-weight:normal;font-size:11px;font-family:Arial;-inkscape-font-specification:Arial;writing-mode:lr-tb;fill:#262626;fill-opacity:1;fill-rule:nonzero;stroke:none"
           transform="matrix(1,0,0,-1,302.3633,21.2031)"><tspan
             id="tspan118"
             y="0"
             x="0">μ</tspan></text>
<text
           id="text124"
           style="font-variant:normal;font-weight:normal;font-size:11px;font-family:Arial;-inkscape-font-specification:Arial;writing-mode:lr-tb;fill:#262626;fill-opacity:1;fill-rule:nonzero;stroke:none"
           transform="matrix(1,0,0,-1,309.36174,21.2031)"><tspan
             id="tspan122"
             y="0"
             x="0 5.5">s)</tspan></text>
</g><g
         id="g126"><g
           clip-path="url(#clipPath132)"
           id="g128"><path
             id="path134"
             style="fill:none;stroke:#ffffff;stroke-width:10;stroke-linecap:round;stroke-linejoin:round;stroke-miterlimit:10;stroke-dasharray:none;stroke-opacity:1"
             d="M 720,782.426 H 5184" /></g></g><g
         transform="scale(10)"
         id="g136"><text
           id="text140"
           style="font-variant:normal;font-weight:normal;font-size:10px;font-family:Arial;-inkscape-font-specification:Arial;writing-mode:lr-tb;fill:#262626;fill-opacity:1;fill-rule:nonzero;stroke:none"
           transform="matrix(1,0,0,-1,59.4375,74.6176)"><tspan
             id="tspan138"
             y="0"
             x="0">0</tspan></text>
</g><g
         id="g142"><g
           clip-path="url(#clipPath148)"
           id="g144"><path
             id="path150"
             style="fill:none;stroke:#ffffff;stroke-width:10;stroke-linecap:round;stroke-linejoin:round;stroke-miterlimit:10;stroke-dasharray:none;stroke-opacity:1"
             d="M 720,1145.37 H 5184" /></g></g><g
         transform="scale(10)"
         id="g152"><text
           id="text156"
           style="font-variant:normal;font-weight:normal;font-size:10px;font-family:Arial;-inkscape-font-specification:Arial;writing-mode:lr-tb;fill:#262626;fill-opacity:1;fill-rule:nonzero;stroke:none"
           transform="matrix(1,0,0,-1,53.875,110.912)"><tspan
             id="tspan154"
             y="0"
             x="0 5.5617213">50</tspan></text>
</g><g
         id="g158"><g
           clip-path="url(#clipPath164)"
           id="g160"><path
             id="path166"
             style="fill:none;stroke:#ffffff;stroke-width:10;stroke-linecap:round;stroke-linejoin:round;stroke-miterlimit:10;stroke-dasharray:none;stroke-opacity:1"
             d="M 720,1508.31 H 5184" /></g></g><g
         transform="scale(10)"
         id="g168"><text
           id="text172"
           style="font-variant:normal;font-weight:normal;font-size:10px;font-family:Arial;-inkscape-font-specification:Arial;writing-mode:lr-tb;fill:#262626;fill-opacity:1;fill-rule:nonzero;stroke:none"
           transform="matrix(1,0,0,-1,48.3125,147.206)"><tspan
             id="tspan170"
             y="0"
             x="0 5.5617213 11.123052">100</tspan></text>
</g><g
         id="g174"><g
           clip-path="url(#clipPath180)"
           id="g176"><path
             id="path182"
             style="fill:none;stroke:#ffffff;stroke-width:10;stroke-linecap:round;stroke-linejoin:round;stroke-miterlimit:10;stroke-dasharray:none;stroke-opacity:1"
             d="M 720,1871.26 H 5184" /></g></g><g
         transform="scale(10)"
         id="g184"><text
           id="text188"
           style="font-variant:normal;font-weight:normal;font-size:10px;font-family:Arial;-inkscape-font-specification:Arial;writing-mode:lr-tb;fill:#262626;fill-opacity:1;fill-rule:nonzero;stroke:none"
           transform="matrix(1,0,0,-1,48.3125,183.501)"><tspan
             id="tspan186"
             y="0"
             x="0 5.5617213 11.123052">150</tspan></text>
</g><g
         id="g190"><g
           clip-path="url(#clipPath196)"
           id="g192"><path
             id="path198"
             style="fill:none;stroke:#ffffff;stroke-width:10;stroke-linecap:round;stroke-linejoin:round;stroke-miterlimit:10;stroke-dasharray:none;stroke-opacity:1"
             d="M 720,2234.2 H 5184" /></g></g><g
         transform="scale(10)"
         id="g200"><text
           id="text204"
           style="font-variant:normal;font-weight:normal;font-size:10px;font-family:Arial;-inkscape-font-specification:Arial;writing-mode:lr-tb;fill:#262626;fill-opacity:1;fill-rule:nonzero;stroke:none"
           transform="matrix(1,0,0,-1,48.3125,219.795)"><tspan
             id="tspan202"
             y="0"
             x="0 5.5617213 11.123052">200</tspan></text>
</g><g
         id="g206"><g
           clip-path="url(#clipPath212)"
           id="g208"><path
             id="path214"
             style="fill:none;stroke:#ffffff;stroke-width:10;stroke-linecap:round;stroke-linejoin:round;stroke-miterlimit:10;stroke-dasharray:none;stroke-opacity:1"
             d="M 720,2597.15 H 5184" /></g></g><g
         transform="scale(10)"
         id="g216"><text
           id="text220"
           style="font-variant:normal;font-weight:normal;font-size:10px;font-family:Arial;-inkscape-font-specification:Arial;writing-mode:lr-tb;fill:#262626;fill-opacity:1;fill-rule:nonzero;stroke:none"
           transform="matrix(1,0,0,-1,48.3125,256.09)"><tspan
             id="tspan218"
             y="0"
             x="0 5.5617213 11.123052">250</tspan></text>
</g><g
         id="g222"><g
           clip-path="url(#clipPath228)"
           id="g224"><path
             id="path230"
             style="fill:none;stroke:#ffffff;stroke-width:10;stroke-linecap:round;stroke-linejoin:round;stroke-miterlimit:10;stroke-dasharray:none;stroke-opacity:1"
             d="M 720,2960.09 H 5184" /></g></g><g
         transform="scale(10)"
         id="g232"><text
           id="text236"
           style="font-variant:normal;font-weight:normal;font-size:10px;font-family:Arial;-inkscape-font-specification:Arial;writing-mode:lr-tb;fill:#262626;fill-opacity:1;fill-rule:nonzero;stroke:none"
           transform="matrix(1,0,0,-1,48.3125,292.384)"><tspan
             id="tspan234"
             y="0"
             x="0 5.5617213 11.123052">300</tspan></text>
</g><g
         id="g238"><g
           clip-path="url(#clipPath244)"
           id="g240"><path
             id="path246"
             style="fill:none;stroke:#ffffff;stroke-width:10;stroke-linecap:round;stroke-linejoin:round;stroke-miterlimit:10;stroke-dasharray:none;stroke-opacity:1"
             d="M 720,3323.04 H 5184" /></g></g><g
         transform="scale(10)"
         id="g248"><text
           id="text252"
           style="font-variant:normal;font-weight:normal;font-size:10px;font-family:Arial;-inkscape-font-specification:Arial;writing-mode:lr-tb;fill:#262626;fill-opacity:1;fill-rule:nonzero;stroke:none"
           transform="matrix(1,0,0,-1,48.3125,328.679)"><tspan
             id="tspan250"
             y="0"
             x="0 5.5617213 11.123052">350</tspan></text>
<text
           id="text256"
           style="font-variant:normal;font-weight:normal;font-size:11px;font-family:Arial;-inkscape-font-specification:Arial;writing-mode:lr-tb;fill:#262626;fill-opacity:1;fill-rule:nonzero;stroke:none"
           transform="matrix(0,1,1,0,40.3281,174.99)"><tspan
             id="tspan254"
             y="0"
             x="0">U</tspan></text>
<text
           id="text260"
           style="font-variant:normal;font-weight:normal;font-size:7.69999981px;font-family:Arial;-inkscape-font-specification:Arial;writing-mode:lr-tb;fill:#262626;fill-opacity:1;fill-rule:nonzero;stroke:none"
           transform="matrix(0,1,1,0,42.13279,183.04156)"><tspan
             id="tspan258"
             y="0"
             x="0 4.7109351 9.5910139">out</tspan></text>
<text
           id="text264"
           style="font-variant:normal;font-weight:normal;font-size:11px;font-family:Arial;-inkscape-font-specification:Arial;writing-mode:lr-tb;fill:#262626;fill-opacity:1;fill-rule:nonzero;stroke:none"
           transform="matrix(0,1,1,0,40.3281,195.95246)"><tspan
             id="tspan262"
             y="0"
             x="0 3.0562544 6.7192545 15.882255 23.219254"> (mV)</tspan></text>
</g><g
         id="g266"><g
           clip-path="url(#clipPath272)"
           id="g268"><path
             id="path274"
             style="fill:none;stroke:#1f63a7;stroke-width:17.5;stroke-linecap:round;stroke-linejoin:round;stroke-miterlimit:10;stroke-dasharray:none;stroke-opacity:1"
             d="m 922.91,826.152 12.188,516.888 12.183,416.09 12.188,337.24 12.187,272.72 12.188,219.9 12.187,176.68 12.179,141.3 12.19,112.36 12.19,88.67 12.19,69.3 12.18,53.45 12.19,40.48 8.12,20.98 8.13,16.88 8.12,13.27 8.13,10.14 8.12,7.4 8.13,5.01 8.12,2.91 8.12,1.08 12.19,-1.3 12.19,-4.22 12.19,-6.61 16.24,-11.75 20.32,-18.3 24.37,-25.66 32.5,-38.21 44.68,-56.53 101.56,-133.42 109.68,-142.44 93.43,-117.78 93.43,-114.33 97.5,-115.76 97.49,-112.35 101.55,-113.64 105.63,-114.74 105.61,-111.46 109.68,-112.53 113.75,-113.46 117.8,-114.3 121.87,-115.05 125.93,-115.75 129.99,-116.4 134.05,-117.03 138.12,-117.66 146.24,-121.63 150.3,-122.133 146.25,-116.07 36.55,-26.356 32.5,-20.859 32.5,-18.254 32.5,-15.711 32.5,-13.336 36.56,-12.461 36.56,-10.109 40.62,-8.883 44.69,-7.387 48.74,-5.742 56.87,-4.285 65,-2.473 73.12,-0.492 89.37,1.695 113.74,4.536 154.37,8.55 288.42,18.692 117.8,7.742 v 0" /><path
             id="path276"
             style="fill:none;stroke:#194f86;stroke-width:17.5;stroke-linecap:round;stroke-linejoin:round;stroke-miterlimit:10;stroke-dasharray:none;stroke-opacity:1"
             d="M 720,1039.39 H 5184" /><path
             id="path278"
             style="fill:none;stroke:#2a71b2;stroke-width:17.5;stroke-linecap:round;stroke-linejoin:round;stroke-miterlimit:10;stroke-dasharray:none;stroke-opacity:1"
             d="m 922.91,823.176 12.188,516.574 12.183,415.51 12.188,336.67 12.187,272.14 12.188,219.33 12.187,176.1 12.179,140.73 12.19,111.79 12.19,88.1 12.19,68.73 12.18,52.88 12.19,39.92 8.12,20.61 8.13,16.49 8.12,12.91 8.13,9.77 8.12,7.02 8.13,4.63 8.12,2.54 8.12,0.71 12.19,-1.85 12.19,-4.78 12.19,-7.16 16.24,-12.5 20.32,-19.2 24.37,-26.76 32.5,-39.67 44.68,-58.52 105.62,-143.39 109.68,-147.02 93.43,-121.59 93.43,-118.09 97.5,-119.62 97.49,-116.19 101.56,-117.58 105.62,-118.79 105.62,-115.48 109.68,-116.65 113.74,-117.7 117.8,-118.65 121.87,-119.5 125.93,-120.32 129.99,-121.07 134.06,-121.8 138.11,-122.54 146.25,-126.765 146.23,-123.915 36.57,-28.621 32.49,-22.765 32.5,-19.969 32.5,-17.195 32.5,-14.606 32.49,-12.265 36.56,-11.348 36.57,-9.109 40.62,-7.911 44.68,-6.484 52.81,-5.254 56.87,-3.383 69.06,-1.726 81.24,0.386 97.5,2.793 125.93,5.93 186.86,11.235 450.91,29.335 v 0" /><path
             id="path280"
             style="fill:none;stroke:#215b8e;stroke-width:17.5;stroke-linecap:round;stroke-linejoin:round;stroke-miterlimit:10;stroke-dasharray:none;stroke-opacity:1"
             d="M 720,1036.59 H 5184" /><path
             id="path282"
             style="fill:none;stroke:#3480b9;stroke-width:17.5;stroke-linecap:round;stroke-linejoin:round;stroke-miterlimit:10;stroke-dasharray:none;stroke-opacity:1"
             d="m 922.91,820.273 12.188,516.267 12.183,414.92 12.188,336.09 12.187,271.57 12.188,218.75 12.187,175.53 12.179,140.16 12.19,111.21 12.19,87.54 12.19,68.16 12.18,52.32 12.19,39.35 8.12,20.23 8.13,16.12 8.12,12.53 8.13,9.39 8.12,6.66 8.13,4.25 8.12,2.17 8.12,0.34 12.19,-2.41 12.19,-5.34 12.19,-7.71 16.24,-13.23 20.32,-20.13 24.37,-27.85 32.5,-41.12 44.68,-60.51 113.75,-159.39 105.61,-145.91 97.5,-130.77 97.49,-126.9 97.49,-123.2 101.56,-124.64 101.56,-121.1 105.61,-122.45 109.69,-123.64 109.68,-120.3 113.74,-121.47 117.8,-122.54 121.87,-123.54 125.93,-124.47 129.99,-125.35 134.06,-126.23 142.17,-130.775 142.18,-127.804 36.57,-30.375 32.49,-24.121 32.5,-21.106 32.5,-18.136 32.5,-15.364 32.49,-12.883 36.56,-11.894 36.57,-9.535 40.62,-8.278 44.68,-6.789 48.75,-5.179 56.87,-3.746 65,-1.981 77.18,-0.035 93.43,2.269 121.87,5.352 174.67,10.152 609.34,38.953 v 0" /><path
             id="path284"
             style="fill:none;stroke:#2a6694;stroke-width:17.5;stroke-linecap:round;stroke-linejoin:round;stroke-miterlimit:10;stroke-dasharray:none;stroke-opacity:1"
             d="M 720,1033.79 H 5184" /><path
             id="path286"
             style="fill:none;stroke:#3f8ec0;stroke-width:17.5;stroke-linecap:round;stroke-linejoin:round;stroke-miterlimit:10;stroke-dasharray:none;stroke-opacity:1"
             d="m 922.91,817.434 12.188,515.956 12.183,414.34 12.188,335.52 12.187,270.99 12.188,218.17 12.187,174.96 12.179,139.59 12.19,110.64 12.19,86.96 12.19,67.6 12.18,51.75 12.19,38.79 8.12,19.85 8.13,15.75 8.12,12.15 8.13,9.02 8.12,6.28 8.13,3.88 8.12,1.8 8.12,-0.04 12.19,-2.96 12.19,-5.89 12.19,-8.27 16.24,-13.97 20.32,-21.05 24.37,-28.95 32.5,-42.57 48.74,-68.3 276.24,-393.81 97.49,-132.43 97.5,-128.6 97.49,-124.98 101.56,-126.58 105.61,-127.99 105.62,-124.52 109.68,-125.89 113.75,-127.11 117.8,-128.25 121.87,-129.28 125.93,-130.26 129.99,-131.19 134.05,-132.11 138.12,-133 93.43,-87.629 32.5,-27.309 32.5,-24.195 28.43,-18.512 28.44,-16.117 32.5,-15.707 32.5,-13.121 32.49,-10.863 36.56,-9.907 40.62,-8.597 44.69,-7.051 48.75,-5.391 56.87,-3.926 64.99,-2.128 77.19,-0.164 93.43,2.164 117.8,5.046 170.62,9.75 731.2,45.809 v 0" /><path
             id="path288"
             style="fill:none;stroke:#32719a;stroke-width:17.5;stroke-linecap:round;stroke-linejoin:round;stroke-miterlimit:10;stroke-dasharray:none;stroke-opacity:1"
             d="M 720,1030.99 H 5184" /><path
             id="path290"
             style="fill:none;stroke:#529dc8;stroke-width:17.5;stroke-linecap:round;stroke-linejoin:round;stroke-miterlimit:10;stroke-dasharray:none;stroke-opacity:1"
             d="m 922.91,814.66 12.188,515.64 12.183,413.77 12.188,334.93 12.187,270.42 12.188,217.6 12.187,174.38 12.179,139.01 12.19,110.08 12.19,86.39 12.19,67.03 12.18,51.18 12.19,38.23 8.12,19.47 8.13,15.37 8.12,11.78 8.13,8.65 8.12,5.9 8.13,3.51 8.12,1.42 8.12,-0.4 12.19,-3.52 12.19,-6.45 12.19,-8.83 16.24,-14.7 20.32,-21.96 24.37,-30.05 32.5,-44.03 48.74,-70.47 272.17,-399.98 97.5,-136.69 97.49,-132.79 97.5,-129.11 101.55,-130.82 105.62,-132.33 105.62,-128.81 109.68,-130.27 113.74,-131.6 117.81,-132.82 121.87,-133.97 125.93,-135.04 129.99,-136.07 134.05,-137.069 121.87,-121.692 32.5,-29.64 28.43,-23.317 28.44,-20.668 28.43,-18.054 28.44,-15.602 32.5,-15.105 32.49,-12.543 36.57,-11.481 36.56,-9.133 40.62,-7.859 44.68,-6.379 52.81,-5.121 56.87,-3.242 69.06,-1.586 81.24,0.492 101.56,3.016 134.06,6.418 203.11,12.242 641.83,39.871 105.62,5.797 v 0" /><path
             id="path292"
             style="fill:none;stroke:#427da0;stroke-width:17.5;stroke-linecap:round;stroke-linejoin:round;stroke-miterlimit:10;stroke-dasharray:none;stroke-opacity:1"
             d="M 720,1028.19 H 5184" /><path
             id="path294"
             style="fill:none;stroke:#6bacd1;stroke-width:17.5;stroke-linecap:round;stroke-linejoin:round;stroke-miterlimit:10;stroke-dasharray:none;stroke-opacity:1"
             d="m 922.91,811.941 12.188,515.339 12.183,413.18 12.188,334.36 12.187,269.84 12.188,217.02 12.187,173.81 12.179,138.44 12.19,109.5 12.19,85.83 12.19,66.45 12.18,50.62 12.19,37.66 8.12,19.1 8.13,15 8.12,11.4 8.13,8.27 8.12,5.53 8.13,3.14 8.12,1.05 8.12,-0.78 12.19,-4.08 12.19,-7 12.19,-9.38 16.24,-15.44 20.32,-22.89 24.37,-31.14 32.5,-45.49 48.74,-72.63 268.11,-405.81 97.5,-140.95 97.49,-136.99 97.49,-133.24 101.56,-135.07 105.62,-136.68 105.62,-133.09 109.68,-134.65 113.74,-136.09 117.81,-137.42 121.86,-138.65 125.93,-139.83 130,-140.94 138.11,-146.357 40.62,-41.219 32.5,-29.711 28.44,-23.047 28.43,-20.226 28.44,-17.524 28.44,-15.047 32.49,-14.484 32.5,-11.969 36.56,-10.898 36.56,-8.621 40.62,-7.383 44.69,-5.945 52.81,-4.707 60.93,-3.047 69.06,-1.168 85.31,0.918 105.61,3.508 142.18,7.132 231.55,14.192 519.97,32.199 259.98,14.043 v 0" /><path
             id="path296"
             style="fill:none;stroke:#568aa7;stroke-width:17.5;stroke-linecap:round;stroke-linejoin:round;stroke-miterlimit:10;stroke-dasharray:none;stroke-opacity:1"
             d="M 720,1025.39 H 5184" /><path
             id="path298"
             style="fill:none;stroke:#84bcd9;stroke-width:17.5;stroke-linecap:round;stroke-linejoin:round;stroke-miterlimit:10;stroke-dasharray:none;stroke-opacity:1"
             d="m 922.91,809.281 12.188,515.019 12.183,412.61 12.188,333.78 12.187,269.26 12.188,216.45 12.187,173.23 12.179,137.87 12.19,108.93 12.19,85.26 12.19,65.88 12.18,50.06 8.13,26.01 8.12,20.99 8.13,16.6 8.12,12.77 8.13,9.41 8.12,6.47 8.13,3.92 8.12,1.69 8.12,-0.27 8.13,-1.97 12.18,-5.68 12.19,-8.41 16.25,-14.57 16.25,-17.57 20.31,-25.07 28.44,-39.06 36.56,-54.28 60.93,-94.98 174.68,-273.7 97.49,-147.82 97.49,-143.69 97.5,-139.74 101.56,-141.61 101.55,-137.82 105.62,-139.6 109.68,-141.2 109.68,-137.62 113.74,-139.22 117.81,-140.69 121.86,-142.08 125.93,-143.42 130,-144.69 48.74,-52.363 32.5,-31.297 28.44,-24.25 28.43,-21.25 28.44,-18.386 28.43,-15.766 28.44,-13.414 32.5,-12.813 32.49,-10.507 36.57,-9.493 40.62,-8.16 44.69,-6.621 48.74,-5 56.87,-3.562 65,-1.825 77.18,0.071 97.49,2.441 125.93,5.543 186.87,10.723 775.88,46.699 190.93,9.648 v 0" /><path
             id="path300"
             style="fill:none;stroke:#6a96ae;stroke-width:17.5;stroke-linecap:round;stroke-linejoin:round;stroke-miterlimit:10;stroke-dasharray:none;stroke-opacity:1"
             d="M 720,1022.59 H 5184" /><path
             id="path302"
             style="fill:none;stroke:#9ac9e1;stroke-width:17.5;stroke-linecap:round;stroke-linejoin:round;stroke-miterlimit:10;stroke-dasharray:none;stroke-opacity:1"
             d="m 922.91,806.672 12.188,514.718 12.183,412.02 12.188,333.2 12.187,268.68 12.188,215.88 12.187,172.66 12.179,137.3 12.19,108.35 12.19,84.69 12.19,65.32 12.18,49.48 8.13,25.64 8.12,20.61 8.13,16.23 8.12,12.38 8.13,9.04 8.12,6.1 8.13,3.55 8.12,1.31 8.12,-0.64 8.13,-2.34 12.18,-6.24 12.19,-8.96 16.25,-15.32 20.31,-23.26 24.38,-32.16 32.49,-47.46 44.69,-69.84 101.55,-164.48 113.75,-182.31 97.49,-151.96 97.49,-147.77 97.5,-143.76 101.56,-145.74 101.55,-141.91 105.62,-143.79 109.68,-145.49 109.68,-141.86 113.74,-143.57 117.81,-145.15 121.86,-146.64 125.93,-148.075 93.44,-106.925 32.49,-33.207 28.44,-25.774 28.43,-22.586 28.44,-19.531 28.44,-16.734 28.43,-14.235 32.5,-13.586 32.5,-11.136 36.56,-10.067 40.62,-8.664 44.69,-7.062 48.74,-5.368 56.87,-3.89 65,-2.11 77.18,-0.179 93.43,2.082 121.87,5.07 174.68,9.688 885.57,52.078 186.86,8.976 v 0" /><path
             id="path304"
             style="fill:none;stroke:#7ca1b3;stroke-width:17.5;stroke-linecap:round;stroke-linejoin:round;stroke-miterlimit:10;stroke-dasharray:none;stroke-opacity:1"
             d="M 720,1019.79 H 5184" /><path
             id="path306"
             style="fill:none;stroke:#aed3e6;stroke-width:17.5;stroke-linecap:round;stroke-linejoin:round;stroke-miterlimit:10;stroke-dasharray:none;stroke-opacity:1"
             d="m 922.91,804.109 12.188,514.411 12.183,411.44 12.188,332.62 12.187,268.11 12.188,215.29 12.187,172.09 12.179,136.72 12.19,107.79 12.19,84.12 12.19,64.75 12.18,48.91 8.13,25.26 8.12,20.24 8.13,15.85 8.12,12.01 8.13,8.66 8.12,5.73 8.13,3.17 8.12,0.94 8.12,-1.01 8.13,-2.72 12.18,-6.79 12.19,-9.52 16.25,-16.05 20.31,-24.18 24.38,-33.27 32.49,-48.92 44.69,-71.83 105.62,-175.71 109.68,-180.47 97.49,-156.09 97.49,-151.86 97.5,-147.78 101.56,-149.88 101.55,-145.98 105.62,-147.98 109.68,-149.79 113.74,-151.45 113.75,-147.79 117.8,-149.48 121.87,-151.09 121.86,-147.701 32.5,-36.738 28.44,-28.985 28.44,-25.64 28.43,-22.309 28.44,-19.184 28.43,-16.359 28.44,-13.859 32.49,-13.184 32.5,-10.777 36.56,-9.711 40.63,-8.332 44.68,-6.762 48.75,-5.109 56.87,-3.664 64.99,-1.926 77.19,-0.043 97.49,2.305 125.93,5.359 186.86,10.445 788.08,46.297 300.61,14.383 28.43,1.25 v 0" /><path
             id="path308"
             style="fill:none;stroke:#8ba9b8;stroke-width:17.5;stroke-linecap:round;stroke-linejoin:round;stroke-miterlimit:10;stroke-dasharray:none;stroke-opacity:1"
             d="M 720,1016.99 H 5184" /><path
             id="path310"
             style="fill:none;stroke:#c2deec;stroke-width:17.5;stroke-linecap:round;stroke-linejoin:round;stroke-miterlimit:10;stroke-dasharray:none;stroke-opacity:1"
             d="m 922.91,801.594 12.188,514.076 12.183,410.87 12.188,332.04 12.187,267.52 12.188,214.73 12.187,171.51 12.179,136.15 12.19,107.21 12.19,83.55 12.19,64.18 12.18,48.35 8.13,24.88 8.12,19.86 8.13,15.47 8.12,11.64 8.13,8.28 8.12,5.36 8.13,2.8 8.12,0.56 8.12,-1.38 12.19,-5.2 12.19,-8.32 12.18,-10.86 16.25,-17.63 20.31,-25.85 24.38,-34.97 32.49,-50.87 48.75,-81.01 272.17,-459.14 97.5,-157.35 97.49,-153.16 101.56,-155.33 101.55,-151.3 105.62,-153.36 109.68,-155.24 109.68,-151.44 113.75,-153.3 117.8,-155.05 121.87,-156.71 101.55,-127.387 32.5,-36.796 28.44,-28.594 28.43,-25.031 28.44,-21.61 28.44,-18.472 28.43,-15.676 28.44,-13.231 32.49,-12.543 32.5,-10.215 36.56,-9.175 40.63,-7.836 44.68,-6.324 52.81,-5.051 56.87,-3.196 69.06,-1.578 81.24,0.426 101.56,2.84 134.05,6.074 211.24,12.086 625.58,36.813 304.67,15.156 194.99,8.535 v 0" /><path
             id="path312"
             style="fill:none;stroke:#9bb1bd;stroke-width:17.5;stroke-linecap:round;stroke-linejoin:round;stroke-miterlimit:10;stroke-dasharray:none;stroke-opacity:1"
             d="M 720,1014.19 H 5184" /><path
             id="path314"
             style="fill:none;stroke:#d4e7f1;stroke-width:17.5;stroke-linecap:round;stroke-linejoin:round;stroke-miterlimit:10;stroke-dasharray:none;stroke-opacity:1"
             d="m 922.91,799.121 12.188,513.769 12.183,410.29 12.188,331.46 12.187,266.95 12.188,214.14 12.187,170.94 12.179,135.58 12.19,106.64 12.19,82.98 12.19,63.61 12.18,47.78 8.13,24.51 8.12,19.48 8.13,15.09 8.12,11.27 8.13,7.9 8.12,4.99 8.13,2.42 8.12,0.19 8.12,-1.76 12.19,-5.75 12.19,-8.88 12.18,-11.42 16.25,-18.36 20.31,-26.77 24.38,-36.07 32.49,-52.33 48.75,-83.18 268.11,-464.12 97.5,-161.63 97.49,-157.38 101.55,-159.65 101.56,-155.56 105.62,-157.71 109.68,-159.71 109.68,-155.83 113.74,-157.8 117.81,-159.65 121.87,-161.413 48.74,-62.399 28.44,-32.797 28.43,-29.168 24.38,-22.015 24.37,-19.375 28.44,-19.524 28.43,-16.558 28.44,-13.961 32.49,-13.235 32.5,-10.777 36.56,-9.687 40.63,-8.289 44.68,-6.715 48.75,-5.071 56.87,-3.64 64.99,-1.926 77.19,-0.074 97.49,2.222 125.93,5.211 186.86,10.176 796.21,45.57 304.66,14.149 142.18,5.863 v 0" /><path
             id="path316"
             style="fill:none;stroke:#a9b8c1;stroke-width:17.5;stroke-linecap:round;stroke-linejoin:round;stroke-miterlimit:10;stroke-dasharray:none;stroke-opacity:1"
             d="M 720,1011.39 H 5184" /><path
             id="path318"
             style="fill:none;stroke:#e0ecf3;stroke-width:17.5;stroke-linecap:round;stroke-linejoin:round;stroke-miterlimit:10;stroke-dasharray:none;stroke-opacity:1"
             d="m 922.91,796.691 12.188,513.469 12.183,409.7 12.188,330.89 12.187,266.37 12.188,213.57 12.187,170.36 12.179,135 12.19,106.08 12.19,82.4 12.19,63.04 12.18,47.22 8.13,24.12 8.12,19.11 8.13,14.72 8.12,10.89 8.13,7.53 8.12,4.61 8.13,2.05 8.12,-0.19 8.12,-2.13 12.19,-6.31 12.19,-9.44 16.25,-16.44 16.24,-19.87 20.32,-28.39 28.43,-44.32 36.56,-61.66 60.94,-108.02 182.8,-326.26 97.49,-168.53 97.49,-164.09 97.5,-159.86 101.56,-162.28 105.61,-164.48 105.62,-160.4 109.68,-162.52 113.75,-164.52 117.8,-166.38 121.87,-168.14 56.87,-75.977 28.44,-34.105 24.37,-26.195 24.37,-23.301 24.37,-20.5 24.38,-17.899 28.44,-17.925 28.43,-15.114 28.44,-12.695 32.49,-11.981 32.5,-9.714 36.56,-8.696 40.62,-7.39 44.69,-5.934 52.81,-4.695 60.93,-3.067 73.12,-1.261 85.31,0.836 109.68,3.421 150.3,7.133 255.92,14.758 479.35,27.578 312.79,15.567 308.73,13.132 52.81,2.036 v 0" /><path
             id="path320"
             style="fill:none;stroke:#b3bdc2;stroke-width:17.5;stroke-linecap:round;stroke-linejoin:round;stroke-miterlimit:10;stroke-dasharray:none;stroke-opacity:1"
             d="M 720,1008.59 H 5184" /><path
             id="path322"
             style="fill:none;stroke:#ecf2f5;stroke-width:17.5;stroke-linecap:round;stroke-linejoin:round;stroke-miterlimit:10;stroke-dasharray:none;stroke-opacity:1"
             d="m 922.91,794.305 12.188,513.165 12.183,409.12 12.188,330.3 12.187,265.8 12.188,212.99 12.187,169.79 12.179,134.43 12.19,105.5 12.19,81.83 12.19,62.48 12.18,46.64 8.13,23.75 8.12,18.73 8.13,14.35 8.12,10.5 8.13,7.16 8.12,4.23 8.13,1.68 8.12,-0.55 8.12,-2.51 12.19,-6.87 12.19,-9.99 16.25,-17.19 16.24,-20.6 20.32,-29.32 28.43,-45.59 36.56,-63.31 60.94,-110.72 182.8,-334.21 97.49,-172.68 97.49,-168.17 101.56,-170.63 101.56,-166.25 105.61,-168.55 105.62,-164.43 109.69,-166.68 113.74,-168.77 117.8,-170.75 105.62,-149.453 28.44,-36.941 28.43,-33.137 24.38,-25.117 24.37,-22.129 24.37,-19.34 24.38,-16.797 28.43,-16.738 28.44,-14.066 28.43,-11.774 32.5,-11.078 36.56,-9.941 40.63,-8.508 44.68,-6.898 48.74,-5.231 56.88,-3.793 64.99,-2.074 77.19,-0.235 97.49,2.032 125.93,4.976 186.86,9.852 824.64,45.816 308.73,13.801 223.42,8.652 v 0" /><path
             id="path324"
             style="fill:none;stroke:#bdc1c4;stroke-width:17.5;stroke-linecap:round;stroke-linejoin:round;stroke-miterlimit:10;stroke-dasharray:none;stroke-opacity:1"
             d="M 720,1005.79 H 5184" /><path
             id="path326"
             style="fill:none;stroke:#f7f7f6;stroke-width:17.5;stroke-linecap:round;stroke-linejoin:round;stroke-miterlimit:10;stroke-dasharray:none;stroke-opacity:1"
             d="m 922.91,791.949 12.188,512.871 12.183,408.54 12.188,329.73 12.187,265.21 12.188,212.42 12.187,169.21 12.179,133.86 12.19,104.92 12.19,81.27 12.19,61.9 8.12,32.29 8.13,26.15 8.12,20.77 8.12,16.09 8.13,11.98 8.12,8.41 8.13,5.27 8.12,2.53 8.13,0.15 8.12,-1.93 8.12,-3.76 12.19,-8.54 12.19,-11.45 16.25,-18.88 20.31,-27.98 24.37,-38.1 32.5,-55.71 44.69,-81.47 105.61,-198.86 113.75,-211.81 97.49,-176.83 97.49,-172.26 101.56,-174.81 101.56,-170.39 105.61,-172.8 105.62,-168.62 109.69,-170.97 113.74,-173.17 117.8,-175.246 65,-93.719 28.43,-36.61 24.38,-28.027 24.37,-24.84 24.37,-21.785 24.38,-18.961 24.37,-16.414 28.44,-16.32 28.43,-13.68 32.5,-12.894 32.5,-10.454 36.56,-9.355 40.62,-7.98 44.68,-6.442 52.82,-5.164 60.93,-3.484 69.05,-1.617 85.31,0.382 105.62,2.848 142.18,6.234 227.49,12.504 576.83,32.254 312.8,14.887 316.85,12.828 105.62,3.801 v 0" /><path
             id="path328"
             style="fill:none;stroke:#c6c5c5;stroke-width:17.5;stroke-linecap:round;stroke-linejoin:round;stroke-miterlimit:10;stroke-dasharray:none;stroke-opacity:1"
             d="M 720,1002.99 H 5184" /><path
             id="path330"
             style="fill:none;stroke:#f9eee7;stroke-width:17.5;stroke-linecap:round;stroke-linejoin:round;stroke-miterlimit:10;stroke-dasharray:none;stroke-opacity:1"
             d="m 922.91,789.633 12.188,512.577 12.183,407.96 12.188,329.14 12.187,264.64 12.188,211.84 12.187,168.64 12.179,133.28 12.19,104.36 12.19,80.69 12.19,61.33 8.12,31.91 8.13,25.77 8.12,20.4 8.12,15.71 8.13,11.61 8.12,8.03 8.13,4.89 8.12,2.16 8.13,-0.23 8.12,-2.3 8.12,-4.13 12.19,-9.1 12.19,-12.01 16.25,-19.61 20.31,-28.9 24.37,-39.22 32.5,-57.16 48.75,-91.21 288.42,-548.67 97.49,-177.49 101.56,-180.13 101.55,-175.57 105.62,-178.07 105.62,-173.75 109.68,-176.19 113.74,-178.46 117.81,-180.612 40.62,-59.856 28.44,-37.699 24.37,-28.785 24.37,-25.457 24.38,-22.277 24.37,-19.356 24.37,-16.73 28.44,-16.606 28.43,-13.902 28.44,-11.602 32.5,-10.89 36.56,-9.754 40.62,-8.328 44.69,-6.743 48.75,-5.105 56.87,-3.699 69.05,-2.086 81.25,-0.082 101.56,2.273 134.05,5.406 203.11,10.688 710.89,38.867 312.8,14.145 320.91,12.277 69.06,2.363 v 0" /><path
             id="path332"
             style="fill:none;stroke:#c7beb9;stroke-width:17.5;stroke-linecap:round;stroke-linejoin:round;stroke-miterlimit:10;stroke-dasharray:none;stroke-opacity:1"
             d="M 720,1000.19 H 5184" /><path
             id="path334"
             style="fill:none;stroke:#fbe5d8;stroke-width:17.5;stroke-linecap:round;stroke-linejoin:round;stroke-miterlimit:10;stroke-dasharray:none;stroke-opacity:1"
             d="m 922.91,787.352 12.188,512.278 12.183,407.38 12.188,328.56 12.187,264.07 12.188,211.26 12.187,168.06 12.179,132.71 12.19,103.78 12.19,80.12 12.19,60.77 8.12,31.53 8.13,25.39 8.12,20.03 8.12,15.33 8.13,11.23 8.12,7.65 8.13,4.52 8.12,1.78 8.13,-0.6 8.12,-2.68 8.12,-4.5 12.19,-9.66 12.19,-12.56 16.25,-20.35 20.31,-29.83 24.37,-40.31 32.5,-58.63 48.75,-93.38 284.35,-553.52 97.5,-181.78 101.56,-184.53 101.55,-179.9 105.62,-182.5 105.62,-178.11 109.68,-180.66 113.74,-183.01 101.56,-159.567 28.43,-41.008 24.38,-31.684 24.37,-28.199 24.37,-24.773 24.38,-21.571 24.37,-18.668 24.37,-16.09 28.44,-15.933 28.44,-13.305 32.49,-12.508 32.5,-10.113 36.56,-9.031 40.63,-7.684 44.68,-6.187 52.81,-4.949 60.93,-3.317 69.06,-1.512 85.3,0.426 109.69,2.953 146.24,6.348 243.73,13.156 536.22,29.199 320.92,14.946 320.91,12.683 194.99,6.668 v 0" /><path
             id="path336"
             style="fill:none;stroke:#c9b7ad;stroke-width:17.5;stroke-linecap:round;stroke-linejoin:round;stroke-miterlimit:10;stroke-dasharray:none;stroke-opacity:1"
             d="M 720,997.391 H 5184" /><path
             id="path338"
             style="fill:none;stroke:#fddcc9;stroke-width:17.5;stroke-linecap:round;stroke-linejoin:round;stroke-miterlimit:10;stroke-dasharray:none;stroke-opacity:1"
             d="m 922.91,785.102 12.188,511.988 12.183,406.8 12.188,327.98 12.187,263.49 12.188,210.68 12.187,167.49 12.179,132.13 12.19,103.22 12.19,79.55 12.19,60.19 8.12,31.15 8.13,25.02 8.12,19.64 8.12,14.95 8.13,10.86 8.12,7.27 8.13,4.15 8.12,1.41 8.13,-0.97 8.12,-3.06 12.19,-7.91 12.18,-11.26 16.25,-19.13 16.25,-22.8 20.31,-32.3 28.44,-50.09 36.56,-69.42 60.93,-121.29 182.8,-366.23 97.5,-189.45 97.49,-184.72 101.56,-187.59 101.56,-182.97 105.61,-185.7 109.68,-188.23 109.69,-183.86 113.74,-186.371 40.62,-64.235 28.44,-40.546 24.37,-30.926 24.37,-27.289 24.37,-23.825 24.38,-20.648 24.37,-17.805 24.37,-15.304 28.44,-15.118 28.44,-12.597 32.5,-11.824 32.49,-9.539 36.56,-8.5 40.63,-7.215 48.74,-6.215 52.81,-4.426 60.93,-2.887 73.12,-1.191 89.38,0.855 113.74,3.418 158.42,7.168 292.49,15.926 442.78,23.645 320.92,14.812 320.92,12.578 243.73,8.157 v 0" /><path
             id="path340"
             style="fill:none;stroke:#cab0a1;stroke-width:17.5;stroke-linecap:round;stroke-linejoin:round;stroke-miterlimit:10;stroke-dasharray:none;stroke-opacity:1"
             d="M 720,994.594 H 5184" /><path
             id="path342"
             style="fill:none;stroke:#fbccb4;stroke-width:17.5;stroke-linecap:round;stroke-linejoin:round;stroke-miterlimit:10;stroke-dasharray:none;stroke-opacity:1"
             d="m 922.91,782.883 12.188,511.697 12.183,406.21 12.188,327.41 12.187,262.91 12.188,210.11 12.187,166.91 12.179,131.56 12.19,102.64 12.19,78.97 12.19,59.63 8.12,30.78 8.13,24.63 8.12,19.27 8.12,14.57 8.13,10.48 8.12,6.9 8.13,3.77 8.12,1.04 8.13,-1.35 8.12,-3.43 12.19,-8.48 12.18,-11.81 16.25,-19.87 16.25,-23.54 20.31,-33.21 28.44,-51.38 36.56,-71.06 60.93,-124.01 182.8,-374.18 97.5,-193.61 97.49,-188.8 101.56,-191.79 101.56,-187.11 105.61,-189.95 109.68,-192.58 109.69,-188.15 101.55,-170.083 28.44,-43.571 24.37,-33.543 24.37,-29.75 24.38,-26.039 24.37,-22.597 24.38,-19.5 24.37,-16.762 28.43,-16.559 28.44,-13.801 28.43,-11.476 32.5,-10.746 36.56,-9.598 40.62,-8.187 44.69,-6.621 48.74,-5.02 56.88,-3.652 69.05,-2.086 81.25,-0.145 101.55,2.125 134.06,5.153 207.18,10.449 714.95,37.512 320.92,13.882 329.04,11.985 166.55,5.261 v 0" /><path
             id="path344"
             style="fill:none;stroke:#c8a390;stroke-width:17.5;stroke-linecap:round;stroke-linejoin:round;stroke-miterlimit:10;stroke-dasharray:none;stroke-opacity:1"
             d="M 720,991.793 H 5184" /><path
             id="path346"
             style="fill:none;stroke:#f8bb9e;stroke-width:17.5;stroke-linecap:round;stroke-linejoin:round;stroke-miterlimit:10;stroke-dasharray:none;stroke-opacity:1"
             d="m 922.91,780.695 12.188,511.405 12.183,405.63 12.188,326.83 12.187,262.33 12.188,209.53 12.187,166.34 12.179,130.99 12.19,102.06 12.19,78.41 12.19,59.06 8.12,30.39 8.13,24.25 8.12,18.89 8.12,14.21 8.13,10.1 8.12,6.52 8.13,3.39 8.12,0.67 8.13,-1.73 8.12,-3.8 12.19,-9.04 12.18,-12.36 16.25,-20.62 16.25,-24.27 20.31,-34.15 28.44,-52.66 36.56,-72.69 60.93,-126.72 178.74,-373.8 97.5,-197.97 97.49,-193.09 101.56,-196.18 101.55,-191.43 105.62,-194.37 109.68,-197.11 109.68,-192.6 73.12,-125.075 28.44,-43.75 24.37,-33.387 24.37,-29.437 24.38,-25.652 24.37,-22.188 24.38,-19.094 24.37,-16.382 28.43,-16.149 28.44,-13.441 32.5,-12.602 32.5,-10.164 36.56,-9.066 40.62,-7.711 44.68,-6.219 52.81,-4.996 60.94,-3.387 73.12,-1.652 85.3,0.367 109.69,2.801 150.3,6.262 251.86,13.085 528.09,27.594 324.98,14.516 329.04,12.437 292.48,9.278 v 0" /><path
             id="path348"
             style="fill:none;stroke:#c6967f;stroke-width:17.5;stroke-linecap:round;stroke-linejoin:round;stroke-miterlimit:10;stroke-dasharray:none;stroke-opacity:1"
             d="M 720,988.992 H 5184" /><path
             id="path350"
             style="fill:none;stroke:#f5aa88;stroke-width:17.5;stroke-linecap:round;stroke-linejoin:round;stroke-miterlimit:10;stroke-dasharray:none;stroke-opacity:1"
             d="m 922.91,778.535 12.188,511.115 12.183,405.05 12.188,326.25 12.187,261.75 12.188,208.96 12.187,165.76 12.179,130.41 12.19,101.49 12.19,77.84 12.19,58.49 8.12,30.01 8.13,23.88 8.12,18.51 8.12,13.82 8.13,9.73 8.12,6.15 8.13,3.02 8.12,0.28 8.13,-2.09 8.12,-4.18 12.19,-9.6 12.18,-12.92 16.25,-21.36 16.25,-25.02 20.31,-35.06 28.44,-53.94 40.62,-82.82 69.06,-147.15 158.43,-338.32 101.55,-210.87 97.5,-197.38 101.56,-200.58 101.55,-195.76 105.62,-198.8 109.68,-201.64 109.68,-197.064 44.68,-77.504 24.38,-38.16 24.37,-34.172 24.38,-30.062 24.37,-26.149 24.37,-22.578 24.38,-19.402 24.37,-16.621 24.37,-14.211 28.44,-13.977 28.43,-11.609 32.5,-10.852 36.56,-9.687 40.62,-8.262 44.69,-6.691 48.75,-5.09 56.87,-3.727 69.06,-2.183 81.24,-0.266 101.56,1.969 134.05,4.941 207.17,10.121 735.27,37.489 324.98,13.582 333.11,11.683 211.23,6.336 v 0" /><path
             id="path352"
             style="fill:none;stroke:#c4886d;stroke-width:17.5;stroke-linecap:round;stroke-linejoin:round;stroke-miterlimit:10;stroke-dasharray:none;stroke-opacity:1"
             d="M 720,986.191 H 5184" /><path
             id="path354"
             style="fill:none;stroke:#ee9677;stroke-width:17.5;stroke-linecap:round;stroke-linejoin:round;stroke-miterlimit:10;stroke-dasharray:none;stroke-opacity:1"
             d="m 922.91,776.406 12.188,510.824 12.183,404.47 12.188,325.67 12.187,261.17 12.188,208.38 12.187,165.19 12.179,129.83 12.19,100.92 12.19,77.27 12.19,57.92 8.12,29.63 8.13,23.5 8.12,18.13 8.12,13.45 8.13,9.35 8.12,5.77 8.13,2.64 8.12,-0.08 8.13,-2.48 8.12,-4.55 12.19,-10.15 12.18,-13.48 16.25,-22.1 20.31,-32.66 24.38,-44.38 32.5,-64.79 44.68,-94.71 101.56,-222.34 117.8,-255.59 101.56,-214.76 101.55,-209.34 101.56,-204.18 105.62,-207.22 105.62,-202.32 109.68,-205.28 93.43,-170.59 28.43,-47.079 24.38,-35.98 24.37,-31.707 24.38,-27.594 24.37,-23.816 24.37,-20.457 24.38,-17.516 24.37,-14.965 28.44,-14.707 28.43,-12.207 32.5,-11.414 36.56,-10.195 40.62,-8.707 44.69,-7.074 48.74,-5.414 56.87,-4.02 65,-2.367 81.25,-0.61 97.49,1.563 129.99,4.437 190.93,8.954 865.25,42.968 329.05,12.938 341.23,11.172 138.11,3.929 v 0" /><path
             id="path356"
             style="fill:none;stroke:#be785f;stroke-width:17.5;stroke-linecap:round;stroke-linejoin:round;stroke-miterlimit:10;stroke-dasharray:none;stroke-opacity:1"
             d="M 720,983.395 H 5184" /><path
             id="path358"
             style="fill:none;stroke:#e48066;stroke-width:17.5;stroke-linecap:round;stroke-linejoin:round;stroke-miterlimit:10;stroke-dasharray:none;stroke-opacity:1"
             d="m 922.91,774.301 12.188,510.539 12.183,403.89 12.188,325.09 12.187,260.59 12.188,207.8 12.187,164.61 12.179,129.26 12.19,100.35 12.19,76.7 8.12,40.14 8.13,32.65 8.12,26.08 8.13,20.35 8.12,15.33 8.13,10.96 8.12,7.12 8.13,3.78 8.12,0.85 8.13,-1.69 8.12,-3.92 12.18,-9.44 12.19,-13.01 16.25,-21.76 16.25,-25.68 20.31,-36.16 28.44,-55.83 36.56,-77.15 60.93,-134.57 182.8,-406.26 101.56,-219.08 101.55,-213.6 101.56,-208.38 105.62,-211.52 105.62,-206.56 109.68,-209.64 64.99,-120.847 24.38,-40.965 24.37,-36.711 24.37,-32.273 24.38,-28.031 24.37,-24.149 24.38,-20.711 24.37,-17.711 24.37,-15.113 28.44,-14.84 28.43,-12.312 32.5,-11.5 36.56,-10.274 36.56,-8 44.69,-7.348 48.74,-5.644 56.87,-4.231 65,-2.554 77.18,-0.797 97.5,1.312 125.93,4.043 182.8,8.278 962.75,46.652 333.1,12.426 349.36,10.777 81.24,2.207 v 0" /><path
             id="path360"
             style="fill:none;stroke:#b76752;stroke-width:17.5;stroke-linecap:round;stroke-linejoin:round;stroke-miterlimit:10;stroke-dasharray:none;stroke-opacity:1"
             d="M 720,980.594 H 5184" /><path
             id="path362"
             style="fill:none;stroke:#db6b55;stroke-width:17.5;stroke-linecap:round;stroke-linejoin:round;stroke-miterlimit:10;stroke-dasharray:none;stroke-opacity:1"
             d="m 922.91,772.223 12.188,510.247 12.183,403.31 12.188,324.51 12.187,260.01 12.188,207.22 12.187,164.04 12.179,128.69 12.19,99.77 12.19,76.12 8.12,39.78 8.13,32.26 8.12,25.71 8.13,19.97 8.12,14.95 8.13,10.58 8.12,6.74 8.13,3.41 8.12,0.48 8.13,-2.07 8.12,-4.29 12.18,-10.01 12.19,-13.56 16.25,-22.51 16.25,-26.41 20.31,-37.08 28.44,-57.13 36.56,-78.79 60.93,-137.29 182.8,-414.22 101.56,-223.41 101.55,-217.86 101.56,-212.57 105.62,-215.82 105.62,-210.82 109.68,-213.99 36.56,-68.631 24.37,-41.442 24.38,-36.961 24.37,-32.375 24.37,-28.031 24.38,-24.102 24.37,-20.625 24.37,-17.613 24.38,-15.012 28.43,-14.73 28.44,-12.207 32.5,-11.395 36.55,-10.175 40.63,-8.684 44.68,-7.062 48.75,-5.415 56.87,-4.035 69.06,-2.492 81.24,-0.574 101.56,1.637 134.05,4.554 203.12,9.41 800.26,38.985 333.1,13.055 345.29,11.269 231.55,6.391 v 0" /><path
             id="path364"
             style="fill:none;stroke:#af5544;stroke-width:17.5;stroke-linecap:round;stroke-linejoin:round;stroke-miterlimit:10;stroke-dasharray:none;stroke-opacity:1"
             d="M 720,977.793 H 5184" /><path
             id="path366"
             style="fill:none;stroke:#d05548;stroke-width:17.5;stroke-linecap:round;stroke-linejoin:round;stroke-miterlimit:10;stroke-dasharray:none;stroke-opacity:1"
             d="m 922.91,770.168 12.188,509.962 12.183,402.73 12.188,323.92 12.187,259.43 12.188,206.66 12.187,163.45 12.179,128.12 12.19,99.2 12.19,75.55 8.12,39.39 8.13,31.89 8.12,25.32 8.13,19.6 8.12,14.57 8.13,10.2 8.12,6.37 8.13,3.03 8.12,0.1 8.13,-2.44 8.12,-4.67 12.18,-10.56 12.19,-14.13 16.25,-23.24 16.25,-27.16 20.31,-38 28.44,-58.41 40.62,-89.6 69.06,-159.18 158.42,-366.14 101.56,-228.42 101.56,-222.78 101.56,-217.4 105.61,-220.73 105.62,-215.62 105.62,-210.809 28.43,-53.426 24.38,-41.382 24.37,-36.665 20.31,-26.945 20.32,-23.848 24.37,-24.89 24.37,-21.285 24.37,-18.153 24.38,-15.464 28.44,-15.157 28.43,-12.554 32.5,-11.715 32.5,-9.422 36.55,-8.379 40.63,-7.113 48.74,-6.149 52.81,-4.422 65,-3.089 77.18,-1.274 93.43,0.797 121.87,3.418 170.62,7.195 357.47,17.91 406.23,19.434 337.16,13.844 341.23,11.746 361.54,10.191 16.25,0.41 v 0" /><path
             id="path368"
             style="fill:none;stroke:#a74439;stroke-width:17.5;stroke-linecap:round;stroke-linejoin:round;stroke-miterlimit:10;stroke-dasharray:none;stroke-opacity:1"
             d="M 720,974.992 H 5184" /><path
             id="path370"
             style="fill:none;stroke:#c53e3d;stroke-width:17.5;stroke-linecap:round;stroke-linejoin:round;stroke-miterlimit:10;stroke-dasharray:none;stroke-opacity:1"
             d="m 922.91,768.141 12.188,509.669 12.183,402.15 12.188,323.34 12.187,258.86 12.188,206.07 12.187,162.88 12.179,127.54 12.19,98.63 12.19,74.98 8.12,39.01 8.13,31.51 8.12,24.95 8.13,19.21 8.12,14.2 8.13,9.82 8.12,5.99 8.13,2.66 8.12,-0.27 8.13,-2.82 8.12,-5.04 12.18,-11.13 12.19,-14.68 16.25,-23.99 20.31,-35.36 24.38,-48 32.5,-70.01 44.68,-102.29 97.49,-230.55 117.81,-276.46 101.55,-232.52 101.56,-226.83 101.56,-221.39 105.62,-224.83 105.61,-219.68 85.31,-173.24 28.43,-52.403 24.38,-39.859 20.31,-29.445 20.31,-26.125 20.31,-23.043 24.38,-23.981 24.37,-20.453 24.37,-17.422 24.38,-14.82 28.43,-14.512 28.44,-12.008 32.5,-11.203 36.56,-9.988 40.62,-8.524 44.68,-6.929 48.75,-5.313 56.87,-3.969 69.06,-2.46 81.25,-0.583 101.55,1.575 134.05,4.422 203.12,9.16 812.45,38.543 337.16,12.812 349.36,11.028 264.04,6.968 v 0" /><path
             id="path372"
             style="fill:none;stroke:#9d3231;stroke-width:17.5;stroke-linecap:round;stroke-linejoin:round;stroke-miterlimit:10;stroke-dasharray:none;stroke-opacity:1"
             d="M 720,972.195 H 5184" /><path
             id="path374"
             style="fill:none;stroke:#ba2832;stroke-width:17.5;stroke-linecap:round;stroke-linejoin:round;stroke-miterlimit:10;stroke-dasharray:none;stroke-opacity:1"
             d="m 922.91,766.133 12.188,509.387 12.183,401.56 12.188,322.77 12.187,258.27 12.188,205.5 12.187,162.3 12.179,126.97 12.19,98.06 12.19,74.41 8.12,38.62 8.13,31.13 8.12,24.57 8.13,18.84 8.12,13.82 8.13,9.44 8.12,5.62 8.13,2.27 8.12,-0.64 8.13,-3.19 8.12,-5.42 12.18,-11.69 12.19,-15.24 16.25,-24.73 20.31,-36.29 24.38,-49.1 32.5,-71.48 44.68,-104.29 101.55,-244.67 117.81,-281.36 101.56,-236.62 101.55,-230.86 101.56,-225.38 105.62,-228.93 105.61,-223.74 60.94,-125.38 24.37,-45.039 24.37,-40.09 20.32,-29.511 20.31,-26.122 20.31,-22.992 20.31,-20.164 24.38,-20.898 24.37,-17.778 24.37,-15.113 28.44,-14.785 28.43,-12.23 32.5,-11.399 36.56,-10.172 40.62,-8.676 44.69,-7.066 48.75,-5.43 56.87,-4.078 69.06,-2.566 81.24,-0.692 101.56,1.465 134.05,4.301 203.11,9.004 828.7,38.773 337.16,12.59 353.42,10.942 272.17,7.019 v 0" /><path
             id="path376"
             style="fill:none;stroke:#942028;stroke-width:17.5;stroke-linecap:round;stroke-linejoin:round;stroke-miterlimit:10;stroke-dasharray:none;stroke-opacity:1"
             d="M 720,969.395 H 5184" /><path
             id="path378"
             style="fill:none;stroke:#ab162a;stroke-width:17.5;stroke-linecap:round;stroke-linejoin:round;stroke-miterlimit:10;stroke-dasharray:none;stroke-opacity:1"
             d="m 922.91,764.148 12.188,509.092 12.183,400.99 12.188,322.18 12.187,257.7 12.188,204.92 12.187,161.73 12.179,126.39 12.19,97.48 12.19,73.84 8.12,38.25 8.13,30.74 8.12,24.2 8.13,18.45 8.12,13.45 8.13,9.06 8.12,5.24 8.13,1.9 8.12,-1.02 8.13,-3.56 8.12,-5.8 12.18,-12.24 12.19,-15.8 16.25,-25.47 20.31,-37.22 24.38,-50.21 32.5,-72.94 44.68,-106.3 105.62,-259.13 113.74,-276.5 101.56,-240.95 101.55,-235.13 101.56,-229.58 105.62,-233.24 109.68,-236.68 32.49,-67.26 24.38,-45.691 24.37,-40.535 20.31,-29.758 20.31,-26.293 20.32,-23.101 20.31,-20.231 24.37,-20.945 24.38,-17.793 24.37,-15.113 28.43,-14.778 28.44,-12.211 32.5,-11.383 36.56,-10.144 40.62,-8.66 44.69,-7.055 48.74,-5.422 56.87,-4.082 69.06,-2.586 81.25,-0.719 101.55,1.415 134.06,4.226 203.11,8.875 836.82,38.656 341.23,12.539 353.41,10.754 284.36,7.18 v 0" /><path
             id="path380"
             style="fill:none;stroke:#881121;stroke-width:17.5;stroke-linecap:round;stroke-linejoin:round;stroke-miterlimit:10;stroke-dasharray:none;stroke-opacity:1"
             d="M 720,966.594 H 5184" /><path
             id="path382"
             style="fill:none;stroke:#930e26;stroke-width:17.5;stroke-linecap:round;stroke-linejoin:round;stroke-miterlimit:10;stroke-dasharray:none;stroke-opacity:1"
             d="m 922.91,762.188 12.188,508.802 12.183,400.39 12.188,321.61 12.187,257.12 12.188,204.34 12.187,161.15 12.179,125.82 12.19,96.91 12.19,73.26 8.12,37.87 8.13,30.37 8.12,23.81 8.13,18.08 8.12,13.07 8.13,8.69 8.12,4.86 8.13,1.52 8.12,-1.39 8.13,-3.95 8.12,-6.16 12.18,-12.8 12.19,-16.36 16.25,-26.22 20.31,-38.14 24.38,-51.32 32.5,-74.41 48.74,-118.34 138.12,-344.89 105.62,-259.58 101.55,-243.62 101.56,-237.79 101.55,-232.26 105.62,-236.08 81.25,-177.089 24.37,-48.199 24.37,-43.02 20.32,-31.683 20.31,-28.024 20.31,-24.637 20.31,-21.574 24.37,-22.316 24.38,-18.949 24.37,-16.079 24.37,-13.644 28.44,-13.332 28.43,-11.012 32.5,-10.258 36.56,-9.132 40.63,-7.778 44.68,-6.301 52.81,-5.125 60.93,-3.593 73.12,-1.961 89.37,-0.024 113.75,2.371 154.36,5.618 264.05,12.214 548.4,25.497 345.29,13.582 349.35,11.484 369.67,9.91 97.49,2.27 v 0" /><path
             id="path384"
             style="fill:none;stroke:#760b1e;stroke-width:17.5;stroke-linecap:round;stroke-linejoin:round;stroke-miterlimit:10;stroke-dasharray:none;stroke-opacity:1"
             d="M 720,963.793 H 5184" /><path
             id="path386"
             style="fill:none;stroke:#7c0722;stroke-width:17.5;stroke-linecap:round;stroke-linejoin:round;stroke-miterlimit:10;stroke-dasharray:none;stroke-opacity:1"
             d="m 922.91,760.246 12.188,508.514 12.183,399.81 12.188,321.03 12.187,256.54 12.188,203.76 12.187,160.58 12.179,125.24 12.19,96.34 12.19,72.69 8.12,37.49 8.13,29.99 8.12,23.43 8.13,17.7 8.12,12.69 8.13,8.31 8.12,4.49 8.13,1.14 8.12,-1.77 8.13,-4.31 8.12,-6.54 12.18,-13.37 12.19,-16.91 16.25,-26.96 20.31,-39.07 24.38,-52.42 32.5,-75.88 48.74,-120.53 300.61,-754.7 101.55,-244.59 101.56,-238.87 105.62,-242.71 97.49,-218.637 24.37,-50.133 24.38,-44.914 20.31,-33.125 20.31,-29.317 20.31,-25.765 20.31,-22.555 20.31,-19.687 24.38,-20.329 24.37,-17.23 24.38,-14.613 28.43,-14.266 28.44,-11.781 32.49,-10.965 36.57,-9.773 40.62,-8.332 44.68,-6.782 52.81,-5.558 60.94,-3.965 69.05,-2.215 85.31,-0.438 105.62,1.754 142.18,4.688 223.42,9.844 706.83,32.269 345.29,12.934 353.42,10.996 381.85,9.617 24.37,0.543 v 0" /><path
             id="path388"
             style="fill:none;stroke:#63051c;stroke-width:17.5;stroke-linecap:round;stroke-linejoin:round;stroke-miterlimit:10;stroke-dasharray:none;stroke-opacity:1"
             d="M 720,960.996 H 5184" /></g></g></g></g></svg>