<?xml version="1.0" encoding="UTF-8" standalone="no"?>
<svg
   xmlns:dc="http://purl.org/dc/elements/1.1/"
   xmlns:cc="http://creativecommons.org/ns#"
   xmlns:rdf="http://www.w3.org/1999/02/22-rdf-syntax-ns#"
   xmlns:svg="http://www.w3.org/2000/svg"
   xmlns="http://www.w3.org/2000/svg"
   viewBox="0 0 768 528"
   height="528"
   width="768"
   xml:space="preserve"
   id="svg2"
   version="1.1"><metadata
     id="metadata8"><rdf:RDF><cc:Work
         rdf:about=""><dc:format>image/svg+xml</dc:format><dc:type
           rdf:resource="http://purl.org/dc/dcmitype/StillImage" /></cc:Work></rdf:RDF></metadata><defs
     id="defs6"><clipPath
       id="clipPath24"
       clipPathUnits="userSpaceOnUse"><path
         id="path22"
         d="M 720,495 H 5184 V 3485 H 720 Z" /></clipPath><clipPath
       id="clipPath40"
       clipPathUnits="userSpaceOnUse"><path
         id="path38"
         d="M 720,495 H 5184 V 3485 H 720 Z" /></clipPath><clipPath
       id="clipPath56"
       clipPathUnits="userSpaceOnUse"><path
         id="path54"
         d="M 720,495 H 5184 V 3485 H 720 Z" /></clipPath><clipPath
       id="clipPath72"
       clipPathUnits="userSpaceOnUse"><path
         id="path70"
         d="M 720,495 H 5184 V 3485 H 720 Z" /></clipPath><clipPath
       id="clipPath88"
       clipPathUnits="userSpaceOnUse"><path
         id="path86"
         d="M 720,495 H 5184 V 3485 H 720 Z" /></clipPath><clipPath
       id="clipPath104"
       clipPathUnits="userSpaceOnUse"><path
         id="path102"
         d="M 720,495 H 5184 V 3485 H 720 Z" /></clipPath><clipPath
       id="clipPath120"
       clipPathUnits="userSpaceOnUse"><path
         id="path118"
         d="M 720,495 H 5184 V 3485 H 720 Z" /></clipPath><clipPath
       id="clipPath148"
       clipPathUnits="userSpaceOnUse"><path
         id="path146"
         d="M 720,495 H 5184 V 3485 H 720 Z" /></clipPath><clipPath
       id="clipPath164"
       clipPathUnits="userSpaceOnUse"><path
         id="path162"
         d="M 720,495 H 5184 V 3485 H 720 Z" /></clipPath><clipPath
       id="clipPath180"
       clipPathUnits="userSpaceOnUse"><path
         id="path178"
         d="M 720,495 H 5184 V 3485 H 720 Z" /></clipPath><clipPath
       id="clipPath196"
       clipPathUnits="userSpaceOnUse"><path
         id="path194"
         d="M 720,495 H 5184 V 3485 H 720 Z" /></clipPath><clipPath
       id="clipPath212"
       clipPathUnits="userSpaceOnUse"><path
         id="path210"
         d="M 720,495 H 5184 V 3485 H 720 Z" /></clipPath><clipPath
       id="clipPath228"
       clipPathUnits="userSpaceOnUse"><path
         id="path226"
         d="M 720,495 H 5184 V 3485 H 720 Z" /></clipPath><clipPath
       id="clipPath244"
       clipPathUnits="userSpaceOnUse"><path
         id="path242"
         d="M 720,495 H 5184 V 3485 H 720 Z" /></clipPath><clipPath
       id="clipPath260"
       clipPathUnits="userSpaceOnUse"><path
         id="path258"
         d="M 720,495 H 5184 V 3485 H 720 Z" /></clipPath><clipPath
       id="clipPath276"
       clipPathUnits="userSpaceOnUse"><path
         id="path274"
         d="M 720,495 H 5184 V 3485 H 720 Z" /></clipPath><clipPath
       id="clipPath304"
       clipPathUnits="userSpaceOnUse"><path
         id="path302"
         d="M 720,495 H 5184 V 3485 H 720 Z" /></clipPath></defs><g
     transform="matrix(1.3333333,0,0,-1.3333333,0,528)"
     id="g10"><g
       transform="scale(0.1)"
       id="g12"><path
         id="path14"
         style="fill:#ffffff;fill-opacity:1;fill-rule:nonzero;stroke:none"
         d="M 0,0 H 5760 V 3960 H 0 Z" /><path
         id="path16"
         style="fill:#eaeaf2;fill-opacity:1;fill-rule:nonzero;stroke:none"
         d="M 720,495 H 5184 V 3484.8 H 720 Z" /><g
         id="g18"><g
           clip-path="url(#clipPath24)"
           id="g20"><path
             id="path26"
             style="fill:none;stroke:#ffffff;stroke-width:10;stroke-linecap:round;stroke-linejoin:round;stroke-miterlimit:10;stroke-dasharray:none;stroke-opacity:1"
             d="M 922.91,495 V 3484.8" /></g></g><g
         transform="scale(10)"
         id="g28"><text
           id="text32"
           style="font-variant:normal;font-weight:normal;font-size:10px;font-family:Arial;-inkscape-font-specification:Arial;writing-mode:lr-tb;fill:#262626;fill-opacity:1;fill-rule:nonzero;stroke:none"
           transform="matrix(1,0,0,-1,89.5098,35.25)"><tspan
             id="tspan30"
             y="0"
             x="0">0</tspan></text>
</g><g
         id="g34"><g
           clip-path="url(#clipPath40)"
           id="g36"><path
             id="path42"
             style="fill:none;stroke:#ffffff;stroke-width:10;stroke-linecap:round;stroke-linejoin:round;stroke-miterlimit:10;stroke-dasharray:none;stroke-opacity:1"
             d="M 1591.52,495 V 3484.8" /></g></g><g
         transform="scale(10)"
         id="g44"><text
           id="text48"
           style="font-variant:normal;font-weight:normal;font-size:10px;font-family:Arial;-inkscape-font-specification:Arial;writing-mode:lr-tb;fill:#262626;fill-opacity:1;fill-rule:nonzero;stroke:none"
           transform="matrix(1,0,0,-1,156.371,35.25)"><tspan
             id="tspan46"
             y="0"
             x="0">2</tspan></text>
</g><g
         id="g50"><g
           clip-path="url(#clipPath56)"
           id="g52"><path
             id="path58"
             style="fill:none;stroke:#ffffff;stroke-width:10;stroke-linecap:round;stroke-linejoin:round;stroke-miterlimit:10;stroke-dasharray:none;stroke-opacity:1"
             d="M 2260.13,495 V 3484.8" /></g></g><g
         transform="scale(10)"
         id="g60"><text
           id="text64"
           style="font-variant:normal;font-weight:normal;font-size:10px;font-family:Arial;-inkscape-font-specification:Arial;writing-mode:lr-tb;fill:#262626;fill-opacity:1;fill-rule:nonzero;stroke:none"
           transform="matrix(1,0,0,-1,223.232,35.25)"><tspan
             id="tspan62"
             y="0"
             x="0">4</tspan></text>
</g><g
         id="g66"><g
           clip-path="url(#clipPath72)"
           id="g68"><path
             id="path74"
             style="fill:none;stroke:#ffffff;stroke-width:10;stroke-linecap:round;stroke-linejoin:round;stroke-miterlimit:10;stroke-dasharray:none;stroke-opacity:1"
             d="M 2928.74,495 V 3484.8" /></g></g><g
         transform="scale(10)"
         id="g76"><text
           id="text80"
           style="font-variant:normal;font-weight:normal;font-size:10px;font-family:Arial;-inkscape-font-specification:Arial;writing-mode:lr-tb;fill:#262626;fill-opacity:1;fill-rule:nonzero;stroke:none"
           transform="matrix(1,0,0,-1,290.093,35.25)"><tspan
             id="tspan78"
             y="0"
             x="0">6</tspan></text>
</g><g
         id="g82"><g
           clip-path="url(#clipPath88)"
           id="g84"><path
             id="path90"
             style="fill:none;stroke:#ffffff;stroke-width:10;stroke-linecap:round;stroke-linejoin:round;stroke-miterlimit:10;stroke-dasharray:none;stroke-opacity:1"
             d="M 3597.35,495 V 3484.8" /></g></g><g
         transform="scale(10)"
         id="g92"><text
           id="text96"
           style="font-variant:normal;font-weight:normal;font-size:10px;font-family:Arial;-inkscape-font-specification:Arial;writing-mode:lr-tb;fill:#262626;fill-opacity:1;fill-rule:nonzero;stroke:none"
           transform="matrix(1,0,0,-1,356.954,35.25)"><tspan
             id="tspan94"
             y="0"
             x="0">8</tspan></text>
</g><g
         id="g98"><g
           clip-path="url(#clipPath104)"
           id="g100"><path
             id="path106"
             style="fill:none;stroke:#ffffff;stroke-width:10;stroke-linecap:round;stroke-linejoin:round;stroke-miterlimit:10;stroke-dasharray:none;stroke-opacity:1"
             d="M 4265.96,495 V 3484.8" /></g></g><g
         transform="scale(10)"
         id="g108"><text
           id="text112"
           style="font-variant:normal;font-weight:normal;font-size:10px;font-family:Arial;-inkscape-font-specification:Arial;writing-mode:lr-tb;fill:#262626;fill-opacity:1;fill-rule:nonzero;stroke:none"
           transform="matrix(1,0,0,-1,421.034,35.25)"><tspan
             id="tspan110"
             y="0"
             x="0 5.5617089">10</tspan></text>
</g><g
         id="g114"><g
           clip-path="url(#clipPath120)"
           id="g116"><path
             id="path122"
             style="fill:none;stroke:#ffffff;stroke-width:10;stroke-linecap:round;stroke-linejoin:round;stroke-miterlimit:10;stroke-dasharray:none;stroke-opacity:1"
             d="M 4934.57,495 V 3484.8" /></g></g><g
         transform="scale(10)"
         id="g124"><text
           id="text128"
           style="font-variant:normal;font-weight:normal;font-size:10px;font-family:Arial;-inkscape-font-specification:Arial;writing-mode:lr-tb;fill:#262626;fill-opacity:1;fill-rule:nonzero;stroke:none"
           transform="matrix(1,0,0,-1,487.895,35.25)"><tspan
             id="tspan126"
             y="0"
             x="0 5.5617089">12</tspan></text>
<text
           id="text132"
           style="font-variant:normal;font-weight:normal;font-size:11px;font-family:Arial;-inkscape-font-specification:Arial;writing-mode:lr-tb;fill:#262626;fill-opacity:1;fill-rule:nonzero;stroke:none"
           transform="matrix(1,0,0,-1,271.2,21.2031)"><tspan
             id="tspan130"
             y="0"
             x="0 6.7191443 9.1632929 18.326292 24.44388 27.500122">Time (</tspan></text>
<text
           id="text136"
           style="font-variant:normal;font-weight:normal;font-size:11px;font-family:Arial;-inkscape-font-specification:Arial;writing-mode:lr-tb;fill:#262626;fill-opacity:1;fill-rule:nonzero;stroke:none"
           transform="matrix(1,0,0,-1,302.3633,21.2031)"><tspan
             id="tspan134"
             y="0"
             x="0">μ</tspan></text>
<text
           id="text140"
           style="font-variant:normal;font-weight:normal;font-size:11px;font-family:Arial;-inkscape-font-specification:Arial;writing-mode:lr-tb;fill:#262626;fill-opacity:1;fill-rule:nonzero;stroke:none"
           transform="matrix(1,0,0,-1,309.36174,21.2031)"><tspan
             id="tspan138"
             y="0"
             x="0 5.5">s)</tspan></text>
</g><g
         id="g142"><g
           clip-path="url(#clipPath148)"
           id="g144"><path
             id="path150"
             style="fill:none;stroke:#ffffff;stroke-width:10;stroke-linecap:round;stroke-linejoin:round;stroke-miterlimit:10;stroke-dasharray:none;stroke-opacity:1"
             d="M 720,490.07 H 5184" /></g></g><g
         transform="scale(10)"
         id="g152"><text
           id="text156"
           style="font-variant:normal;font-weight:normal;font-size:10px;font-family:Arial;-inkscape-font-specification:Arial;writing-mode:lr-tb;fill:#262626;fill-opacity:1;fill-rule:nonzero;stroke:none"
           transform="matrix(1,0,0,-1,42.4688,45.382)"><tspan
             id="tspan154"
             y="0"
             x="0 5.8400002 11.401721 16.963051">−100</tspan></text>
</g><g
         id="g158"><g
           clip-path="url(#clipPath164)"
           id="g160"><path
             id="path166"
             style="fill:none;stroke:#ffffff;stroke-width:10;stroke-linecap:round;stroke-linejoin:round;stroke-miterlimit:10;stroke-dasharray:none;stroke-opacity:1"
             d="M 720,854.418 H 5184" /></g></g><g
         transform="scale(10)"
         id="g168"><text
           id="text172"
           style="font-variant:normal;font-weight:normal;font-size:10px;font-family:Arial;-inkscape-font-specification:Arial;writing-mode:lr-tb;fill:#262626;fill-opacity:1;fill-rule:nonzero;stroke:none"
           transform="matrix(1,0,0,-1,59.4375,81.8168)"><tspan
             id="tspan170"
             y="0"
             x="0">0</tspan></text>
</g><g
         id="g174"><g
           clip-path="url(#clipPath180)"
           id="g176"><path
             id="path182"
             style="fill:none;stroke:#ffffff;stroke-width:10;stroke-linecap:round;stroke-linejoin:round;stroke-miterlimit:10;stroke-dasharray:none;stroke-opacity:1"
             d="M 720,1218.77 H 5184" /></g></g><g
         transform="scale(10)"
         id="g184"><text
           id="text188"
           style="font-variant:normal;font-weight:normal;font-size:10px;font-family:Arial;-inkscape-font-specification:Arial;writing-mode:lr-tb;fill:#262626;fill-opacity:1;fill-rule:nonzero;stroke:none"
           transform="matrix(1,0,0,-1,48.3125,118.252)"><tspan
             id="tspan186"
             y="0"
             x="0 5.5617213 11.123052">100</tspan></text>
</g><g
         id="g190"><g
           clip-path="url(#clipPath196)"
           id="g192"><path
             id="path198"
             style="fill:none;stroke:#ffffff;stroke-width:10;stroke-linecap:round;stroke-linejoin:round;stroke-miterlimit:10;stroke-dasharray:none;stroke-opacity:1"
             d="M 720,1583.11 H 5184" /></g></g><g
         transform="scale(10)"
         id="g200"><text
           id="text204"
           style="font-variant:normal;font-weight:normal;font-size:10px;font-family:Arial;-inkscape-font-specification:Arial;writing-mode:lr-tb;fill:#262626;fill-opacity:1;fill-rule:nonzero;stroke:none"
           transform="matrix(1,0,0,-1,48.3125,154.686)"><tspan
             id="tspan202"
             y="0"
             x="0 5.5617213 11.123052">200</tspan></text>
</g><g
         id="g206"><g
           clip-path="url(#clipPath212)"
           id="g208"><path
             id="path214"
             style="fill:none;stroke:#ffffff;stroke-width:10;stroke-linecap:round;stroke-linejoin:round;stroke-miterlimit:10;stroke-dasharray:none;stroke-opacity:1"
             d="M 720,1947.46 H 5184" /></g></g><g
         transform="scale(10)"
         id="g216"><text
           id="text220"
           style="font-variant:normal;font-weight:normal;font-size:10px;font-family:Arial;-inkscape-font-specification:Arial;writing-mode:lr-tb;fill:#262626;fill-opacity:1;fill-rule:nonzero;stroke:none"
           transform="matrix(1,0,0,-1,48.3125,191.121)"><tspan
             id="tspan218"
             y="0"
             x="0 5.5617213 11.123052">300</tspan></text>
</g><g
         id="g222"><g
           clip-path="url(#clipPath228)"
           id="g224"><path
             id="path230"
             style="fill:none;stroke:#ffffff;stroke-width:10;stroke-linecap:round;stroke-linejoin:round;stroke-miterlimit:10;stroke-dasharray:none;stroke-opacity:1"
             d="M 720,2311.8 H 5184" /></g></g><g
         transform="scale(10)"
         id="g232"><text
           id="text236"
           style="font-variant:normal;font-weight:normal;font-size:10px;font-family:Arial;-inkscape-font-specification:Arial;writing-mode:lr-tb;fill:#262626;fill-opacity:1;fill-rule:nonzero;stroke:none"
           transform="matrix(1,0,0,-1,48.3125,227.555)"><tspan
             id="tspan234"
             y="0"
             x="0 5.5617213 11.123052">400</tspan></text>
</g><g
         id="g238"><g
           clip-path="url(#clipPath244)"
           id="g240"><path
             id="path246"
             style="fill:none;stroke:#ffffff;stroke-width:10;stroke-linecap:round;stroke-linejoin:round;stroke-miterlimit:10;stroke-dasharray:none;stroke-opacity:1"
             d="M 720,2676.15 H 5184" /></g></g><g
         transform="scale(10)"
         id="g248"><text
           id="text252"
           style="font-variant:normal;font-weight:normal;font-size:10px;font-family:Arial;-inkscape-font-specification:Arial;writing-mode:lr-tb;fill:#262626;fill-opacity:1;fill-rule:nonzero;stroke:none"
           transform="matrix(1,0,0,-1,48.3125,263.99)"><tspan
             id="tspan250"
             y="0"
             x="0 5.5617213 11.123052">500</tspan></text>
</g><g
         id="g254"><g
           clip-path="url(#clipPath260)"
           id="g256"><path
             id="path262"
             style="fill:none;stroke:#ffffff;stroke-width:10;stroke-linecap:round;stroke-linejoin:round;stroke-miterlimit:10;stroke-dasharray:none;stroke-opacity:1"
             d="M 720,3040.5 H 5184" /></g></g><g
         transform="scale(10)"
         id="g264"><text
           id="text268"
           style="font-variant:normal;font-weight:normal;font-size:10px;font-family:Arial;-inkscape-font-specification:Arial;writing-mode:lr-tb;fill:#262626;fill-opacity:1;fill-rule:nonzero;stroke:none"
           transform="matrix(1,0,0,-1,48.3125,300.425)"><tspan
             id="tspan266"
             y="0"
             x="0 5.5617213 11.123052">600</tspan></text>
</g><g
         id="g270"><g
           clip-path="url(#clipPath276)"
           id="g272"><path
             id="path278"
             style="fill:none;stroke:#ffffff;stroke-width:10;stroke-linecap:round;stroke-linejoin:round;stroke-miterlimit:10;stroke-dasharray:none;stroke-opacity:1"
             d="M 720,3404.84 H 5184" /></g></g><g
         transform="scale(10)"
         id="g280"><text
           id="text284"
           style="font-variant:normal;font-weight:normal;font-size:10px;font-family:Arial;-inkscape-font-specification:Arial;writing-mode:lr-tb;fill:#262626;fill-opacity:1;fill-rule:nonzero;stroke:none"
           transform="matrix(1,0,0,-1,48.3125,336.859)"><tspan
             id="tspan282"
             y="0"
             x="0 5.5617213 11.123052">700</tspan></text>
<text
           id="text288"
           style="font-variant:normal;font-weight:normal;font-size:11px;font-family:Arial;-inkscape-font-specification:Arial;writing-mode:lr-tb;fill:#262626;fill-opacity:1;fill-rule:nonzero;stroke:none"
           transform="matrix(0,1,1,0,34.4844,174.99)"><tspan
             id="tspan286"
             y="0"
             x="0">U</tspan></text>
<text
           id="text292"
           style="font-variant:normal;font-weight:normal;font-size:7.69999981px;font-family:Arial;-inkscape-font-specification:Arial;writing-mode:lr-tb;fill:#262626;fill-opacity:1;fill-rule:nonzero;stroke:none"
           transform="matrix(0,1,1,0,36.28909,183.04156)"><tspan
             id="tspan290"
             y="0"
             x="0 4.7109351 9.5910139">out</tspan></text>
<text
           id="text296"
           style="font-variant:normal;font-weight:normal;font-size:11px;font-family:Arial;-inkscape-font-specification:Arial;writing-mode:lr-tb;fill:#262626;fill-opacity:1;fill-rule:nonzero;stroke:none"
           transform="matrix(0,1,1,0,34.4844,195.95246)"><tspan
             id="tspan294"
             y="0"
             x="0 3.0562544 6.7192545 15.882255 23.219254"> (mV)</tspan></text>
</g><g
         id="g298"><g
           clip-path="url(#clipPath304)"
           id="g300"><path
             id="path306"
             style="fill:none;stroke:#9dcae1;stroke-width:17.5;stroke-linecap:round;stroke-linejoin:round;stroke-miterlimit:10;stroke-dasharray:none;stroke-opacity:1"
             d="m 922.91,854.418 v 0.484 l 1.778,11.797 2.839,10.731 5.211,30.644 0.348,-18.609 -2.457,8.519 10.226,22.844 2.965,11.309 12.629,10.816 8.051,10.203 17.102,10.344 22.128,6.457 22.14,2.371 22.13,-1.898 22.14,-1.938 22.13,-2.937 21.13,-7.66 21.13,-9.766 22.13,-5.094 22.13,-6.176 22.14,-4.554 22.13,-8.407 22.14,-6.593 22.13,-7.754 22.13,-5.746 22.13,-6.739 21.3,-5.855 22.97,-3.113 28.17,-5.196 24.55,-4.961 21.73,-1.937 22.14,-0.285 22.13,-4.746 21.87,-0.571 22.39,-4.113 23.41,-2.891 20.16,-3.109 22.84,-1.527 22.13,-0.598 22.13,-2.152 22.14,0.371 22.47,-1.422 21.79,-2.977 21.93,0.789 21.08,-1.597 24.7,0.332 21.74,5.297 21.22,1.23 23.4,2.297 22.59,-0.082 20.41,1" /><path
             id="path308"
             style="fill:none;stroke:#9dcae1;stroke-width:17.5;stroke-linecap:butt;stroke-linejoin:round;stroke-miterlimit:10;stroke-dasharray:112, 28, 17.5, 28;stroke-dashoffset:0;stroke-opacity:1"
             d="m 922.91,854.418 v 0 l 1.778,4.598 2.839,7.339 5.211,13.352 0.348,0.727 -2.457,-6.059 10.226,22.121 2.965,5.359 12.629,18.708 8.051,9.054 17.102,13.113 22.128,7.782 22.14,1.562 22.13,-2.16 22.14,-4.301 22.13,-5.308 21.13,-5.45 21.13,-5.5 22.13,-5.589 22.13,-5.305 22.14,-4.973 22.13,-4.601 22.14,-4.246 22.13,-3.914 22.13,-3.59 22.13,-3.301 21.3,-2.922 22.97,-2.906 28.17,-3.235 24.55,-2.554 21.73,-2.09 22.14,-1.965 22.13,-1.82 21.87,-1.672 22.39,-1.59 23.41,-1.539 20.16,-1.238 22.84,-1.313 22.13,-1.183 22.13,-1.106 22.14,-1.035 22.47,-0.984 21.79,-0.891 21.93,-0.848 21.08,-0.761 24.7,-0.836 21.74,-0.696 21.22,-0.636 23.4,-0.657 22.59,-0.601 20.41,-0.508" /><path
             id="path310"
             style="fill:none;stroke:#6aaed6;stroke-width:17.5;stroke-linecap:round;stroke-linejoin:round;stroke-miterlimit:10;stroke-dasharray:none;stroke-opacity:1"
             d="m 922.91,854.418 v -0.012 42.282 l 3.559,13.328 1.812,11.457 2.012,9.632 2.445,12.942 4.024,16.152 3.734,18.086 -3.16,-10.765 7.043,27.238 3.82,13.322 4.43,12.36 5.633,11.1 5.23,11.41 5.235,9.16 5.832,9.93 10.062,10.68 14.086,9.47 19.113,6.74 22.13,-0.28 22.14,-4.6 22.13,-5.78 18.11,-7.7 14.09,-8.84 14.08,-10.72 18.11,-7.89 20.12,-10.15 20.13,-9.74 18.1,-7.9 14.09,-9.99 16.09,-8.59 16.1,-9.152 16.1,-9.594 18.11,-9 17.1,-9.219 17.11,-8.351 20.12,-9.793 21.12,-8.336 19.12,-10.043 20.12,-7.297 22.13,-7.363 22.14,-4.02 22.13,-9.949 4.03,-3.336 22.13,-1.824 10.82,-5.2 22.05,-4.406 20.45,-7.609 21.13,-5.86 22.13,-2.128 22.13,-3.325 20.13,-2.058 28.17,-4.324 22.13,-2.516 22.14,-3.246 22.13,-2.051 22.13,-1.363 22.14,1.683 22.13,2.871 22.13,0.989 22.14,1.488 22.13,0.488 17.1,-0.422" /><path
             id="path312"
             style="fill:none;stroke:#6aaed6;stroke-width:17.5;stroke-linecap:butt;stroke-linejoin:round;stroke-miterlimit:10;stroke-dasharray:112, 28, 17.5, 28;stroke-dashoffset:0;stroke-opacity:1"
             d="m 922.91,854.418 v 0 0 0 0 0 0 l 3.559,18.543 1.812,9.434 2.012,10.476 2.445,12.543 4.024,16.84 3.734,15.637 -3.16,-13.231 7.043,27.485 3.82,12.507 4.43,13.887 5.633,14.106 5.23,11.835 5.235,9.8 5.832,9.18 10.062,12.11 14.086,10.61 19.113,5.34 22.13,-2.02 22.14,-7.29 22.13,-10 18.11,-9.16 14.09,-7.33 14.08,-7.32 18.11,-9.201 20.12,-9.761 20.13,-9.165 18.1,-7.691 14.09,-5.625 16.09,-6.012 16.1,-5.629 16.1,-5.25 18.11,-5.468 17.1,-4.782 17.11,-4.441 20.12,-4.816 21.12,-4.633 19.12,-3.852 20.12,-3.734 22.13,-3.777 22.14,-3.446 22.13,-3.168 4.03,-0.551 22.13,-2.863 10.82,-1.32 22.05,-2.527 20.45,-2.176 21.13,-2.094 22.13,-2.027 22.13,-1.883 20.13,-1.598 28.17,-2.07 22.13,-1.504 22.14,-1.402 22.13,-1.309 22.13,-1.227 22.14,-1.148 22.13,-1.074 22.13,-1.012 22.14,-0.949 22.13,-0.895 17.1,-0.656" /><path
             id="path314"
             style="fill:none;stroke:#4191c6;stroke-width:17.5;stroke-linecap:round;stroke-linejoin:round;stroke-miterlimit:10;stroke-dasharray:none;stroke-opacity:1"
             d="m 922.91,854.418 17.43,57.293 2.277,-57.293 9.719,163.442 0.652,92.76 15.395,97.73 8.25,68.3 10.965,80.44 18.212,72.86 33.99,27.17 85.49,-62.2 116.84,-97.41 120.18,-104.49 126.86,-100.7 136.2,-103.875 121.22,-82.406 78.64,-46.785 124.63,-12.453 146.89,-30.988 146.89,5.906 146.88,3.457 146.89,15.117 146.89,-2.766 146.89,-1.832 151.74,-2.211 142.03,1.336 145.78,6.735 148,0.484 146.89,4.863 146.89,-10.527" /><path
             id="path316"
             style="fill:none;stroke:#4191c6;stroke-width:17.5;stroke-linecap:butt;stroke-linejoin:round;stroke-miterlimit:10;stroke-dasharray:112, 28, 17.5, 28;stroke-dashoffset:0;stroke-opacity:1"
             d="m 922.91,854.418 17.43,181.312 2.277,23.68 9.719,94.77 0.652,3.49 15.395,82.3 8.25,44.09 10.965,35.82 18.212,47.51 33.99,34.24 85.49,-29.4 116.84,-108.68 120.18,-120.75 126.86,-124.06 136.2,-89.013 121.22,-40.114 78.64,-15.574 124.63,-15.418 146.89,-10.351 146.89,-5.926 146.88,-3.551 146.89,-2.195 146.89,-1.391 146.89,-0.898 151.74,-0.602 142.03,-0.371 145.78,-0.262 148,-0.183 146.89,-0.133 146.89,-0.102" /><path
             id="path318"
             style="fill:none;stroke:#2070b4;stroke-width:17.5;stroke-linecap:round;stroke-linejoin:round;stroke-miterlimit:10;stroke-dasharray:none;stroke-opacity:1"
             d="m 922.91,854.418 9.195,363.442 0.793,-363.11 v 262.2 l 0.879,-106.51 5.489,311.81 1.668,106.31 15.468,213.59 0.446,-78.94 4.867,189.29 3.625,109.2 15.504,102.39 16.09,74.66 42.866,45.25 48.76,-35.59 120.19,-111.48 106.82,-107.61 106.83,-109.37 100.15,-95.91 106.83,-102.42 113.5,-111.64 106.83,-94.75 106.83,-101.77 106.82,-102.93 106.83,-92.4 126.86,-95.306 169.49,-85.949 141.85,-46.902 161.37,-24.039 181.61,20.796 133.53,6.708 146.89,4.929 152.9,4.563 140.88,-3.192 141.69,11.969 143.65,-0.141 146.89,-4.211 144.93,1.09 150.95,6.207 140.75,8.469 105.94,3.274" /><path
             id="path320"
             style="fill:none;stroke:#2070b4;stroke-width:17.5;stroke-linecap:butt;stroke-linejoin:round;stroke-miterlimit:10;stroke-dasharray:112, 28, 17.5, 28;stroke-dashoffset:0;stroke-opacity:1"
             d="m 922.91,854.418 9.195,183.242 0.793,15.82 v 0 0 l 0.879,17.47 5.489,109.37 1.668,33.27 15.468,308.18 0.446,8.9 4.867,67.9 3.625,32.73 15.504,139.94 16.09,136.02 42.866,139.87 48.76,32.48 120.19,-92.14 106.82,-120.22 106.83,-119.59 100.15,-108.73 106.83,-112.43 113.5,-115.88 106.83,-106.07 106.83,-103.55 106.82,-101.32 106.83,-99.36 126.86,-106.57 169.49,-69.277 141.85,-20.457 161.37,-7.543 181.61,-0.723 133.53,1.48 146.89,2.34 152.9,2.645 140.88,2.363 141.69,2.192 143.65,1.992 146.89,1.785 144.93,1.519 150.95,1.348 140.75,1.066 105.94,0.692" /><path
             id="path322"
             style="fill:none;stroke:#08509a;stroke-width:17.5;stroke-linecap:round;stroke-linejoin:round;stroke-miterlimit:10;stroke-dasharray:none;stroke-opacity:1"
             d="m 922.91,854.418 11.719,372.742 3.043,440.12 1.965,-599.36 1.297,327.15 5.714,-537.777 0.481,691.147 1.219,259.46 4.011,291.71 3.266,-132.88 12.758,308.1 2.078,112.99 5.824,126.22 14.922,73.17 19.433,95.35 71.25,-32.89 126.86,-98.79 100.14,-103.43 93.48,-103.61 93.47,-97.59 100.16,-107.69 100.14,-106.2 100.16,-105.52 100.15,-101.01 93.47,-106.95 93.47,-104.27 100.16,-101.27 106.83,-104.1 106.82,-115.22 106.83,-100.01 100.15,-100.76 80.12,-80.07 111.68,-103.059 88.21,-65.898 102.04,-55.332 117.37,-48.227 128.19,-5.25 152.9,10.848 140.88,16.414 136.5,7.793 157.27,5.609 159.35,7.777 134.43,-13.386 146.88,4.711 146.89,15.765 140.57,6.618 154.88,-1.813 145.22,1.746 133.53,-6.367" /><path
             id="path324"
             style="fill:none;stroke:#08509a;stroke-width:17.5;stroke-linecap:butt;stroke-linejoin:round;stroke-miterlimit:10;stroke-dasharray:112, 28, 17.5, 28;stroke-dashoffset:0;stroke-opacity:1"
             d="m 922.91,854.418 11.719,339.402 3.043,88.11 1.965,56.95 1.297,37.59 5.714,165.45 0.481,13.97 1.219,35.35 4.011,116.12 3.266,94.55 12.758,292.84 2.078,24.61 5.824,69 14.922,176.83 19.433,187.03 71.25,188.86 126.86,-108.81 100.14,-140.91 93.48,-128.6 93.47,-122.21 100.16,-123.65 100.14,-117.32 100.16,-111.46 100.15,-106.46 93.47,-95.38 93.47,-91.85 100.16,-95.11 106.83,-98.05 106.82,-95.07 106.83,-92.34 100.15,-84.54 80.12,-66.3 111.68,-90.704 88.21,-70.429 102.04,-78.606 117.37,-59.324 128.19,-23.781 152.9,-2.891 140.88,6.699 136.5,9.082 157.27,10.926 159.35,10.321 134.43,7.781 146.88,7.441 146.89,6.395 140.57,5.203 154.88,4.844 145.22,3.793 133.53,2.945" /><path
             id="path326"
             style="fill:none;stroke:#08306b;stroke-width:17.5;stroke-linecap:round;stroke-linejoin:round;stroke-miterlimit:10;stroke-dasharray:none;stroke-opacity:1"
             d="m 922.91,854.418 14.762,809.602 0.961,-398.9 1.484,532.22 0.336,-235.32 0.481,-164.8 1.683,-542.802 V 1950.86 l 4.621,-1026.723 5.567,-37.121 v 146.194 l 5.859,1221.28 0.074,252.14 0.297,-133.29 1.559,-286.9 1.187,-72.44 1.707,640.07 1.258,149.9 11.887,113.94 25.207,65.4 53.34,-20.18 146.89,-56.15 129.27,-63.98 164.5,-92.12 140.21,-94.94 120.18,-107.85 100.16,-100.43 93.47,-109.62 86.8,-104.6 86.8,-101.94 93.47,-102.93 86.8,-92.24 86.79,-105.61 93.48,-100.26 86.8,-98.26 86.79,-103.6 93.48,-103.6 93.47,-100.27 93.48,-103.6 93.47,-102.93 93.47,-99.59 73.19,-77.172 111.54,-88.872 94.81,-94.949 144.8,-46.941 136.51,-21.625 146.89,11.613 151.1,17.656 142.67,7.317 118.38,13.863 119.31,12.875 154.01,9.168 146.44,-5.574 137.16,4.035" /><path
             id="path328"
             style="fill:none;stroke:#08306b;stroke-width:17.5;stroke-linecap:butt;stroke-linejoin:round;stroke-miterlimit:10;stroke-dasharray:112, 28, 17.5, 28;stroke-dashoffset:0;stroke-opacity:1"
             d="m 922.91,854.418 14.762,576.372 0.961,37.67 1.484,57.93 0.336,13.04 0.481,18.82 1.683,65.73 v 0 l 4.621,180.49 5.567,217.26 v 0 l 5.859,228.85 0.074,2.89 0.297,11.58 1.559,60.84 1.187,46.39 1.707,35.77 1.258,21.4 11.887,201.8 25.207,422.31 53.34,295.34 146.89,-43.09 129.27,-204.2 164.5,-252.98 140.21,-200.36 120.18,-161.23 100.16,-127.71 93.47,-114.13 86.8,-101.94 86.8,-98.37 93.47,-102.25 86.8,-91.62 86.79,-88.75 93.48,-92.63 86.8,-83.42 86.79,-81.05 93.48,-84.91 93.47,-82.63 93.48,-80.43 93.47,-78.49 93.47,-76.64 73.19,-58.83 111.54,-87.767 94.81,-72.95 144.8,-108.828 136.51,-98.726 146.89,-44.071 151.1,11.489 142.67,21.926 118.38,19.359 119.31,18.957 154.01,22.82 146.44,19.707 137.16,16.719" /></g></g></g></g></svg>