<?xml version="1.0" encoding="UTF-8" standalone="no"?>
<svg
   xmlns:dc="http://purl.org/dc/elements/1.1/"
   xmlns:cc="http://creativecommons.org/ns#"
   xmlns:rdf="http://www.w3.org/1999/02/22-rdf-syntax-ns#"
   xmlns:svg="http://www.w3.org/2000/svg"
   xmlns="http://www.w3.org/2000/svg"
   viewBox="0 0 576 384"
   height="384"
   width="576"
   xml:space="preserve"
   id="svg2"
   version="1.1"><metadata
     id="metadata8"><rdf:RDF><cc:Work
         rdf:about=""><dc:format>image/svg+xml</dc:format><dc:type
           rdf:resource="http://purl.org/dc/dcmitype/StillImage" /></cc:Work></rdf:RDF></metadata><defs
     id="defs6"><clipPath
       id="clipPath160"
       clipPathUnits="userSpaceOnUse"><path
         id="path158"
         d="M 540,360 H 3888 V 2534 H 540 Z" /></clipPath></defs><g
     transform="matrix(1.3333333,0,0,-1.3333333,0,384)"
     id="g10"><g
       transform="scale(0.1)"
       id="g12"><path
         id="path14"
         style="fill:#ffffff;fill-opacity:1;fill-rule:nonzero;stroke:none"
         d="M 0,0 H 4320 V 2880 H 0 Z" /><path
         id="path16"
         style="fill:#ffffff;fill-opacity:1;fill-rule:nonzero;stroke:none"
         d="M 540,360 H 3888 V 2534.4 H 540 Z" /><path
         id="path18"
         style="fill:#000000;fill-opacity:1;fill-rule:nonzero;stroke:none"
         d="M 692.184,360 V 325" /><path
         id="path20"
         style="fill:none;stroke:#000000;stroke-width:8;stroke-linecap:butt;stroke-linejoin:round;stroke-miterlimit:10;stroke-dasharray:none;stroke-opacity:1"
         d="M 692.184,360 V 325" /><g
         transform="scale(10)"
         id="g22"><text
           id="text26"
           style="font-variant:normal;font-weight:normal;font-size:10px;font-family:Arial;-inkscape-font-specification:Arial;writing-mode:lr-tb;fill:#000000;fill-opacity:1;fill-rule:nonzero;stroke:none"
           transform="matrix(1,0,0,-1,66.0387,21.4063)"><tspan
             id="tspan24"
             y="0"
             x="0">0</tspan></text>
</g><path
         id="path28"
         style="fill:#000000;fill-opacity:1;fill-rule:nonzero;stroke:none"
         d="M 1154.46,360 V 325" /><path
         id="path30"
         style="fill:none;stroke:#000000;stroke-width:8;stroke-linecap:butt;stroke-linejoin:round;stroke-miterlimit:10;stroke-dasharray:none;stroke-opacity:1"
         d="M 1154.46,360 V 325" /><g
         transform="scale(10)"
         id="g32"><text
           id="text36"
           style="font-variant:normal;font-weight:normal;font-size:10px;font-family:Arial;-inkscape-font-specification:Arial;writing-mode:lr-tb;fill:#000000;fill-opacity:1;fill-rule:nonzero;stroke:none"
           transform="matrix(1,0,0,-1,109.087,21.4063)"><tspan
             id="tspan34"
             y="0"
             x="0 6.362112">25</tspan></text>
</g><path
         id="path38"
         style="fill:#000000;fill-opacity:1;fill-rule:nonzero;stroke:none"
         d="M 1616.74,360 V 325" /><path
         id="path40"
         style="fill:none;stroke:#000000;stroke-width:8;stroke-linecap:butt;stroke-linejoin:round;stroke-miterlimit:10;stroke-dasharray:none;stroke-opacity:1"
         d="M 1616.74,360 V 325" /><g
         transform="scale(10)"
         id="g42"><text
           id="text46"
           style="font-variant:normal;font-weight:normal;font-size:10px;font-family:Arial;-inkscape-font-specification:Arial;writing-mode:lr-tb;fill:#000000;fill-opacity:1;fill-rule:nonzero;stroke:none"
           transform="matrix(1,0,0,-1,155.314,21.4063)"><tspan
             id="tspan44"
             y="0"
             x="0 6.362112">50</tspan></text>
</g><path
         id="path48"
         style="fill:#000000;fill-opacity:1;fill-rule:nonzero;stroke:none"
         d="M 2079.01,360 V 325" /><path
         id="path50"
         style="fill:none;stroke:#000000;stroke-width:8;stroke-linecap:butt;stroke-linejoin:round;stroke-miterlimit:10;stroke-dasharray:none;stroke-opacity:1"
         d="M 2079.01,360 V 325" /><g
         transform="scale(10)"
         id="g52"><text
           id="text56"
           style="font-variant:normal;font-weight:normal;font-size:10px;font-family:Arial;-inkscape-font-specification:Arial;writing-mode:lr-tb;fill:#000000;fill-opacity:1;fill-rule:nonzero;stroke:none"
           transform="matrix(1,0,0,-1,201.542,21.4063)"><tspan
             id="tspan54"
             y="0"
             x="0 6.3620996">75</tspan></text>
</g><path
         id="path58"
         style="fill:#000000;fill-opacity:1;fill-rule:nonzero;stroke:none"
         d="M 2541.29,360 V 325" /><path
         id="path60"
         style="fill:none;stroke:#000000;stroke-width:8;stroke-linecap:butt;stroke-linejoin:round;stroke-miterlimit:10;stroke-dasharray:none;stroke-opacity:1"
         d="M 2541.29,360 V 325" /><g
         transform="scale(10)"
         id="g62"><text
           id="text66"
           style="font-variant:normal;font-weight:normal;font-size:10px;font-family:Arial;-inkscape-font-specification:Arial;writing-mode:lr-tb;fill:#000000;fill-opacity:1;fill-rule:nonzero;stroke:none"
           transform="matrix(1,0,0,-1,244.59,21.4063)"><tspan
             id="tspan64"
             y="0"
             x="0 6.3620996 12.72459">100</tspan></text>
</g><path
         id="path68"
         style="fill:#000000;fill-opacity:1;fill-rule:nonzero;stroke:none"
         d="M 3003.57,360 V 325" /><path
         id="path70"
         style="fill:none;stroke:#000000;stroke-width:8;stroke-linecap:butt;stroke-linejoin:round;stroke-miterlimit:10;stroke-dasharray:none;stroke-opacity:1"
         d="M 3003.57,360 V 325" /><g
         transform="scale(10)"
         id="g72"><text
           id="text76"
           style="font-variant:normal;font-weight:normal;font-size:10px;font-family:Arial;-inkscape-font-specification:Arial;writing-mode:lr-tb;fill:#000000;fill-opacity:1;fill-rule:nonzero;stroke:none"
           transform="matrix(1,0,0,-1,290.818,21.4063)"><tspan
             id="tspan74"
             y="0"
             x="0 6.3624902 12.72459">125</tspan></text>
</g><path
         id="path78"
         style="fill:#000000;fill-opacity:1;fill-rule:nonzero;stroke:none"
         d="M 3465.85,360 V 325" /><path
         id="path80"
         style="fill:none;stroke:#000000;stroke-width:8;stroke-linecap:butt;stroke-linejoin:round;stroke-miterlimit:10;stroke-dasharray:none;stroke-opacity:1"
         d="M 3465.85,360 V 325" /><g
         transform="scale(10)"
         id="g82"><text
           id="text88"
           style="font-variant:normal;font-weight:normal;font-size:10px;font-family:Arial;-inkscape-font-specification:Arial;writing-mode:lr-tb;fill:#000000;fill-opacity:1;fill-rule:nonzero;stroke:none"
           transform="matrix(1,0,0,-1,337.046,21.4063)"><tspan
             id="tspan84"
             y="0"
             x="0 6.3624902 12.72459">150</tspan><tspan
             id="tspan86"
             y="13.6719"
             x="-124.81 -118.71704 -112.59907">ToT</tspan></text>
</g><path
         id="path90"
         style="fill:#000000;fill-opacity:1;fill-rule:nonzero;stroke:none"
         d="M 540,660.172 H 505" /><path
         id="path92"
         style="fill:none;stroke:#000000;stroke-width:8;stroke-linecap:butt;stroke-linejoin:round;stroke-miterlimit:10;stroke-dasharray:none;stroke-opacity:1"
         d="M 540,660.172 H 505" /><g
         transform="scale(10)"
         id="g94"><text
           id="text98"
           style="font-variant:normal;font-weight:normal;font-size:10px;font-family:Arial;-inkscape-font-specification:Arial;writing-mode:lr-tb;fill:#000000;fill-opacity:1;fill-rule:nonzero;stroke:none"
           transform="matrix(1,0,0,-1,21.5625,62.2199)"><tspan
             id="tspan96"
             y="0"
             x="0 6.3624992 12.724608 19.087107">1520</tspan></text>
</g><path
         id="path100"
         style="fill:#000000;fill-opacity:1;fill-rule:nonzero;stroke:none"
         d="M 540,1026.23 H 505" /><path
         id="path102"
         style="fill:none;stroke:#000000;stroke-width:8;stroke-linecap:butt;stroke-linejoin:round;stroke-miterlimit:10;stroke-dasharray:none;stroke-opacity:1"
         d="M 540,1026.23 H 505" /><g
         transform="scale(10)"
         id="g104"><text
           id="text108"
           style="font-variant:normal;font-weight:normal;font-size:10px;font-family:Arial;-inkscape-font-specification:Arial;writing-mode:lr-tb;fill:#000000;fill-opacity:1;fill-rule:nonzero;stroke:none"
           transform="matrix(1,0,0,-1,21.5625,98.8262)"><tspan
             id="tspan106"
             y="0"
             x="0 6.3624992 12.724608 19.087107">1540</tspan></text>
</g><path
         id="path110"
         style="fill:#000000;fill-opacity:1;fill-rule:nonzero;stroke:none"
         d="M 540,1392.29 H 505" /><path
         id="path112"
         style="fill:none;stroke:#000000;stroke-width:8;stroke-linecap:butt;stroke-linejoin:round;stroke-miterlimit:10;stroke-dasharray:none;stroke-opacity:1"
         d="M 540,1392.29 H 505" /><g
         transform="scale(10)"
         id="g114"><text
           id="text118"
           style="font-variant:normal;font-weight:normal;font-size:10px;font-family:Arial;-inkscape-font-specification:Arial;writing-mode:lr-tb;fill:#000000;fill-opacity:1;fill-rule:nonzero;stroke:none"
           transform="matrix(1,0,0,-1,21.5625,135.432)"><tspan
             id="tspan116"
             y="0"
             x="0 6.3624992 12.724608 19.087107">1560</tspan></text>
</g><path
         id="path120"
         style="fill:#000000;fill-opacity:1;fill-rule:nonzero;stroke:none"
         d="M 540,1758.35 H 505" /><path
         id="path122"
         style="fill:none;stroke:#000000;stroke-width:8;stroke-linecap:butt;stroke-linejoin:round;stroke-miterlimit:10;stroke-dasharray:none;stroke-opacity:1"
         d="M 540,1758.35 H 505" /><g
         transform="scale(10)"
         id="g124"><text
           id="text128"
           style="font-variant:normal;font-weight:normal;font-size:10px;font-family:Arial;-inkscape-font-specification:Arial;writing-mode:lr-tb;fill:#000000;fill-opacity:1;fill-rule:nonzero;stroke:none"
           transform="matrix(1,0,0,-1,21.5625,172.038)"><tspan
             id="tspan126"
             y="0"
             x="0 6.3624992 12.724608 19.087107">1580</tspan></text>
</g><path
         id="path130"
         style="fill:#000000;fill-opacity:1;fill-rule:nonzero;stroke:none"
         d="M 540,2124.41 H 505" /><path
         id="path132"
         style="fill:none;stroke:#000000;stroke-width:8;stroke-linecap:butt;stroke-linejoin:round;stroke-miterlimit:10;stroke-dasharray:none;stroke-opacity:1"
         d="M 540,2124.41 H 505" /><g
         transform="scale(10)"
         id="g134"><text
           id="text138"
           style="font-variant:normal;font-weight:normal;font-size:10px;font-family:Arial;-inkscape-font-specification:Arial;writing-mode:lr-tb;fill:#000000;fill-opacity:1;fill-rule:nonzero;stroke:none"
           transform="matrix(1,0,0,-1,21.5625,208.645)"><tspan
             id="tspan136"
             y="0"
             x="0 6.3624992 12.724608 19.087107">1600</tspan></text>
</g><path
         id="path140"
         style="fill:#000000;fill-opacity:1;fill-rule:nonzero;stroke:none"
         d="M 540,2490.47 H 505" /><path
         id="path142"
         style="fill:none;stroke:#000000;stroke-width:8;stroke-linecap:butt;stroke-linejoin:round;stroke-miterlimit:10;stroke-dasharray:none;stroke-opacity:1"
         d="M 540,2490.47 H 505" /><g
         transform="scale(10)"
         id="g144"><text
           id="text148"
           style="font-variant:normal;font-weight:normal;font-size:10px;font-family:Arial;-inkscape-font-specification:Arial;writing-mode:lr-tb;fill:#000000;fill-opacity:1;fill-rule:nonzero;stroke:none"
           transform="matrix(1,0,0,-1,21.5625,245.25)"><tspan
             id="tspan146"
             y="0"
             x="0 6.3624992 12.724608 19.087107">1620</tspan></text>
<text
           id="text152"
           style="font-variant:normal;font-weight:normal;font-size:10px;font-family:Arial;-inkscape-font-specification:Arial;writing-mode:lr-tb;fill:#000000;fill-opacity:1;fill-rule:nonzero;stroke:none"
           transform="matrix(0,1,1,0,15.4844,95.8215)"><tspan
             id="tspan150"
             y="0"
             x="0 6.0929713 12.245315 21.986328 28.333984 34.486328 38.59766 44.72578 48.646488 54.984375 59.095707 65.248047 68.426949 72.328125 80.028122 86.868744 93.851166">Temperature (DAC)</tspan></text>
</g><g
         id="g154"><g
           clip-path="url(#clipPath160)"
           id="g156"><path
             id="path162"
             style="fill:none;stroke:#440154;stroke-width:15;stroke-linecap:square;stroke-linejoin:round;stroke-miterlimit:10;stroke-dasharray:none;stroke-opacity:1"
             d="M 692.184,458.836 V 2435.56" /><path
             id="path164"
             style="fill:none;stroke:#481f70;stroke-width:15;stroke-linecap:square;stroke-linejoin:round;stroke-miterlimit:10;stroke-dasharray:none;stroke-opacity:1"
             d="m 692.184,458.836 v 109.82 l 51.773,18.301 -51.773,18.305 v 18.301 18.304 36.606 18.304 18.301 18.305 36.605 36.606 18.304 36.606 36.605 18.305 36.606 18.3 18.305 36.605 36.61 18.3 18.3 18.31 36.6 36.61 18.3 18.3 36.61 18.3 18.31 36.6 18.3 18.31 18.3 18.3 36.61 18.3 18.3 18.31 18.3 18.3 18.31 18.3 18.31 18.3 18.3 18.31 36.6 18.3 18.31 54.91 18.3 18.3 18.3 18.31 18.3 36.61 18.3 18.3 18.3 18.31 18.3 18.3 36.61 18.3 18.3 18.31 18.3 18.3 18.31 18.3 18.31 36.6 18.31 18.3 54.91 18.3 18.3 18.31 18.3 18.3 18.3" /><path
             id="path166"
             style="fill:none;stroke:#443982;stroke-width:15;stroke-linecap:square;stroke-linejoin:round;stroke-miterlimit:10;stroke-dasharray:none;stroke-opacity:1"
             d="m 751.352,458.836 269.968,18.305 -277.363,18.3 136.836,18.305 212.647,18.301 -162.721,18.305 9.242,18.304 147.929,18.301 -294.007,18.305 57.324,18.301 144.231,18.304 -5.547,36.606 -225.594,18.304 146.078,18.301 -16.641,18.305 96.157,36.605 -62.871,36.606 -79.512,18.304 94.305,36.606 -110.95,36.605 61.024,18.305 -25.887,36.606 -96.156,18.3 -59.172,18.305 147.93,36.605 16.64,36.61 -103.547,18.3 127.586,18.3 281.069,18.31 -240.389,36.6 -88.754,36.61 -44.379,18.3 -18.492,18.3 35.133,36.61 -25.887,18.3 127.586,18.31 -118.34,36.6 118.34,18.3 -114.645,18.31 122.043,18.3 -123.89,18.3 -59.172,36.61 105.398,18.3 -73.964,18.3 138.683,18.31 35.133,18.3 -59.168,18.3 -36.984,18.31 101.703,18.3 -268.121,18.31 181.211,18.3 -109.098,18.3 86.91,18.31 35.133,36.6 -70.266,18.3 -123.89,18.31 122.039,54.91 92.457,18.3 27.734,18.3 -162.719,18.3 179.364,18.31 -31.438,18.3 -131.285,36.61 33.285,18.3 -81.363,18.3 62.871,18.3 112.797,18.31 -114.645,18.3 -64.718,18.3 66.566,36.61 9.246,18.3 35.133,18.3 -64.719,18.31 -14.793,18.3 190.457,18.3 -214.496,18.31 75.813,18.3 7.398,18.31 88.758,36.6 49.926,18.31 -197.856,18.3 49.926,54.91 25.887,18.3 -101.7,18.3 v 18.31 l 57.321,18.3 -40.68,18.3 -9.246,18.3" /><path
             id="path168"
             style="fill:none;stroke:#3b528b;stroke-width:15;stroke-linecap:square;stroke-linejoin:round;stroke-miterlimit:10;stroke-dasharray:none;stroke-opacity:1"
             d="m 1298.69,458.836 183.06,18.305 -140.53,18.3 -162.72,18.305 260.72,18.301 -220.04,18.305 136.83,18.304 142.38,18.301 -103.55,18.305 99.86,18.301 -35.14,18.304 -9.24,36.606 -114.65,18.304 85.06,18.301 3.7,18.305 64.72,36.605 -290.31,36.606 253.33,18.304 -88.76,36.606 70.27,36.605 -129.44,18.305 162.72,36.606 -208.95,18.3 86.91,18.305 40.68,36.605 -184.91,36.61 188.61,18.3 -90.61,18.3 42.53,18.31 36.98,36.6 201.55,36.61 -392.01,18.3 170.12,18.3 -29.58,36.61 -31.44,18.3 36.98,18.31 92.46,36.6 -3.7,18.3 -81.36,18.31 59.17,18.3 125.74,18.3 -318.05,36.61 227.44,18.3 -190.45,18.3 242.23,18.31 -73.96,18.3 -46.23,18.3 103.55,18.31 -162.72,18.3 61.02,18.31 194.15,18.3 7.4,18.3 -208.95,18.31 123.89,36.6 173.82,18.3 -301.41,18.31 157.18,54.91 -220.05,18.3 51.78,18.3 -18.49,18.3 90.6,18.31 66.57,18.3 -218.2,36.61 -57.32,18.3 147.93,18.3 -14.79,18.3 62.87,18.31 64.72,18.3 -11.1,18.3 123.89,36.61 -66.56,18.3 -127.59,18.3 218.19,18.31 -149.78,18.3 109.1,18.3 -231.14,18.31 61.02,18.3 66.57,18.31 -12.94,36.6 -59.18,18.31 181.22,18.3 -107.25,54.91 86.91,18.3 18.49,18.3 7.4,18.31 -190.46,18.3 122.04,18.3 53.62,18.3" /><path
             id="path170"
             style="fill:none;stroke:#31688e;stroke-width:15;stroke-linecap:square;stroke-linejoin:round;stroke-miterlimit:10;stroke-dasharray:none;stroke-opacity:1"
             d="m 1797.95,458.836 -46.23,18.305 -11.09,18.3 199.7,18.305 -147.93,18.301 -112.79,18.305 -1.85,18.304 -42.53,18.301 -73.96,18.305 201.55,18.301 94.3,18.304 33.29,36.606 -144.23,18.304 140.53,18.301 -31.44,18.305 1.85,36.605 18.49,36.606 -140.53,18.304 40.68,36.606 98,36.605 -133.13,18.305 22.19,36.606 25.88,18.3 103.55,18.305 -16.64,36.605 -81.36,36.61 199.71,18.3 57.32,18.3 -273.67,18.31 103.55,36.6 103.55,36.61 -114.64,18.3 62.86,18.3 -29.58,36.61 127.59,18.3 -183.06,18.31 86.91,36.6 -183.07,18.3 194.16,18.31 22.19,18.3 -146.08,18.3 64.72,36.61 61.02,18.3 245.93,18.3 -175.66,18.31 -131.29,18.3 90.6,18.3 -107.24,18.31 14.79,18.3 -199.7,18.31 321.74,18.3 -73.97,18.3 179.37,18.31 -147.93,36.6 92.45,18.3 -35.13,18.31 66.57,54.91 -110.95,18.3 -18.49,18.3 -146.08,18.3 -1.85,18.31 85.06,18.3 112.8,36.61 61.02,18.3 136.84,18.3 -281.07,18.3 27.74,18.31 144.23,18.3 -83.21,18.3 -98.01,36.61 260.73,18.3 -103.55,18.3 -81.36,18.31 -57.32,18.3 140.53,18.3 -99.86,18.31 11.1,18.3 -151.63,18.31 231.14,36.6 -11.09,18.31 127.59,18.3 -68.42,54.91 90.6,18.3 -11.09,18.3 -103.55,18.31 51.77,18.3 85.07,18.3 -29.59,18.3" /><path
             id="path172"
             style="fill:none;stroke:#287c8e;stroke-width:15;stroke-linecap:square;stroke-linejoin:round;stroke-miterlimit:10;stroke-dasharray:none;stroke-opacity:1"
             d="m 2075.32,458.836 55.47,18.305 33.28,18.3 125.74,18.305 -96.15,18.301 81.36,18.305 36.98,18.304 -192.3,18.301 -18.5,18.305 127.59,18.301 -27.74,18.304 -16.64,36.606 122.05,18.304 -57.33,18.301 31.44,18.305 -162.72,36.605 79.51,36.606 138.68,18.304 -123.89,36.606 46.23,36.605 83.21,18.305 -201.55,36.606 16.64,18.3 140.53,18.305 59.17,36.605 -123.89,36.61 66.57,18.3 92.46,18.3 -144.23,18.31 36.98,36.6 14.79,36.61 -103.55,18.3 88.76,18.3 96.15,36.61 98,18.3 -210.79,18.31 22.18,36.6 -136.83,18.3 201.55,18.31 105.4,18.3 -131.29,18.3 -31.43,36.61 59.17,18.3 -57.32,18.3 -112.8,18.31 417.9,18.3 -242.23,18.3 12.94,18.31 24.04,18.3 70.27,18.31 -188.61,18.3 72.11,18.3 31.44,18.31 -133.14,36.6 -1.85,18.3 -3.7,18.31 199.71,54.91 -48.08,18.3 12.95,18.3 107.24,18.3 -166.41,18.31 48.07,18.3 -81.36,36.61 218.2,18.3 -85.06,18.3 -96.16,18.3 20.34,18.31 -114.64,18.3 216.34,18.3 44.38,36.61 -36.98,18.3 -96.15,18.3 64.72,18.31 -140.54,18.3 88.76,18.3 208.95,18.31 -33.28,18.3 -123.89,18.31 35.13,36.6 -35.13,18.31 -24.04,18.3 38.83,54.91 29.58,18.3 90.61,18.3 -51.77,18.31 142.38,18.3 -73.97,18.3 -53.62,18.3" /><path
             id="path174"
             style="fill:none;stroke:#21908c;stroke-width:15;stroke-linecap:square;stroke-linejoin:round;stroke-miterlimit:10;stroke-dasharray:none;stroke-opacity:1"
             d="m 2345.29,458.836 -70.27,18.305 159.02,18.3 64.72,18.305 -114.64,18.301 -33.28,18.305 25.88,18.304 142.38,18.301 -151.62,18.305 20.34,18.301 77.66,18.304 9.25,36.606 -59.18,18.304 262.58,18.301 -186.76,18.305 16.64,36.605 72.12,36.606 -12.95,18.304 -40.68,36.606 -25.89,36.605 46.23,18.305 -29.59,36.606 22.2,18.3 -62.88,18.305 -20.34,36.605 118.35,36.61 -25.89,18.3 59.17,18.3 -40.68,18.31 -25.89,36.6 -29.58,36.61 -5.55,18.3 -18.49,18.3 345.78,36.61 -179.36,18.3 -36.98,18.31 57.32,36.6 -134.98,18.3 -1.86,18.31 75.82,18.3 -14.79,18.3 166.42,36.61 -98.01,18.3 164.57,18.3 -168.26,18.31 29.58,18.3 -68.42,18.3 -22.19,18.31 12.95,18.3 66.56,18.31 -40.68,18.3 75.82,18.3 20.34,18.31 -9.25,36.6 79.52,18.3 -208.95,18.31 v 54.91 l 64.72,18.3 7.39,18.3 -64.72,18.3 64.72,18.31 -90.6,18.3 221.89,36.61 -188.61,18.3 22.19,18.3 38.83,18.3 5.55,18.31 -27.74,18.3 88.76,18.3 35.13,36.61 -46.23,18.3 9.25,18.3 1.85,18.31 51.77,18.3 -57.32,18.3 103.55,18.31 -221.89,18.3 94.3,18.31 103.55,36.6 3.7,18.31 83.21,18.3 -147.93,54.91 90.61,18.3 -16.64,18.3 105.39,18.31 -90.6,18.3 197.85,18.3 -319.89,18.3" /><path
             id="path176"
             style="fill:none;stroke:#20a486;stroke-width:15;stroke-linecap:square;stroke-linejoin:round;stroke-miterlimit:10;stroke-dasharray:none;stroke-opacity:1"
             d="m 2533.89,458.836 79.52,18.305 3.7,18.3 77.66,18.305 -22.19,18.301 5.55,18.305 27.73,18.304 -35.13,18.301 -162.72,18.305 153.47,18.301 49.93,18.304 -49.93,36.606 -85.05,18.304 70.26,18.301 48.08,18.305 -14.79,36.605 29.58,36.606 81.36,18.304 -46.22,36.606 -33.29,36.605 -73.96,18.305 125.74,36.606 -18.49,18.3 44.37,18.305 -73.96,36.605 33.28,36.61 110.95,18.3 38.83,18.3 -44.38,18.31 -62.87,36.6 -55.47,36.61 109.1,18.3 -49.93,18.3 94.31,36.61 -144.23,18.3 -49.93,18.31 49.93,36.6 73.96,18.3 -88.76,18.31 133.14,18.3 -31.44,18.3 68.42,36.61 -201.55,18.3 107.24,18.3 66.58,18.31 -79.52,18.3 160.87,18.3 -112.79,18.31 25.88,18.3 112.8,18.31 -103.55,18.3 -48.07,18.3 109.09,18.31 -7.39,36.6 -157.18,18.3 123.89,18.31 -22.19,54.91 85.06,18.3 -62.87,18.3 -64.72,18.3 59.17,18.31 -42.52,18.3 79.51,36.61 49.92,18.3 -88.75,18.3 -36.98,18.3 120.19,18.31 -120.19,18.3 149.77,18.3 -3.7,36.61 -118.34,18.3 151.63,18.3 -90.61,18.31 35.13,18.3 -5.54,18.3 51.77,18.31 -122.04,18.3 9.25,18.31 184.91,36.6 -73.97,18.31 16.65,18.3 -86.91,54.91 83.21,18.3 -24.04,18.3 53.62,18.31 -1.85,18.3 -33.28,18.3 -9.25,18.3" /><path
             id="path178"
             style="fill:none;stroke:#35b779;stroke-width:15;stroke-linecap:square;stroke-linejoin:round;stroke-miterlimit:10;stroke-dasharray:none;stroke-opacity:1"
             d="m 2741,458.836 -24.04,18.305 -31.44,18.3 -5.54,18.305 35.13,18.301 92.46,18.305 1.84,18.304 1.85,18.301 -120.19,18.305 144.23,18.301 -98,18.304 70.27,36.606 -22.19,18.304 24.03,18.301 20.34,18.305 -70.26,36.605 49.92,36.606 123.89,18.304 -62.87,36.606 -48.07,36.605 -16.65,18.305 12.95,36.606 53.63,18.3 9.24,18.305 -11.1,36.605 -22.18,36.61 72.11,18.3 -62.87,18.3 85.06,18.31 -3.7,36.6 7.4,36.61 -57.32,18.3 36.98,18.3 38.83,36.61 -31.44,18.3 24.04,18.31 162.73,36.6 -179.37,18.3 -12.94,18.31 77.66,18.3 66.57,18.3 -186.76,36.61 77.66,18.3 -31.43,18.3 48.07,18.31 35.13,18.3 -25.88,18.3 -14.8,18.31 -14.79,18.3 75.81,18.31 -20.34,18.3 29.59,18.3 -103.55,18.31 55.48,36.6 18.48,18.3 99.86,18.31 -107.25,54.91 55.47,18.3 -3.7,18.3 3.7,18.3 -7.4,18.31 -7.39,18.3 -38.83,36.61 99.85,18.3 -118.34,18.3 103.55,18.3 -42.53,18.31 -11.1,18.3 27.74,18.3 14.79,36.61 -18.49,18.3 101.7,18.3 -20.34,18.31 v 18.3 l -40.68,18.3 101.7,18.31 -7.39,18.3 -73.97,18.31 64.72,36.6 -70.26,18.31 66.56,18.3 24.04,54.91 -79.51,18.3 57.32,18.3 -16.64,18.31 9.25,18.3 40.68,18.3 12.94,18.3" /><path
             id="path180"
             style="fill:none;stroke:#5ec962;stroke-width:15;stroke-linecap:square;stroke-linejoin:round;stroke-miterlimit:10;stroke-dasharray:none;stroke-opacity:1"
             d="m 2837.15,458.836 -3.7,18.305 53.63,18.3 -59.17,18.305 7.39,18.301 144.23,18.305 -98,18.304 57.32,18.301 -110.94,18.305 61.02,18.301 96.15,18.304 -51.78,36.606 -53.62,18.304 27.74,18.301 24.04,18.305 75.81,36.605 -120.19,36.606 83.21,18.304 v 36.606 l -27.74,36.605 18.49,18.305 55.48,36.606 -27.74,18.3 147.93,18.305 -146.08,36.605 -22.19,36.61 59.17,18.3 -1.85,18.3 88.76,18.31 -72.12,36.6 24.04,36.61 20.34,18.3 -3.7,18.3 -68.42,36.61 62.88,18.3 103.55,18.31 -138.69,36.6 -5.54,18.3 36.98,18.31 103.55,18.3 1.84,18.3 7.4,36.61 3.7,18.3 16.64,18.3 -134.98,18.31 72.11,18.3 -53.62,18.3 31.43,18.31 64.72,18.3 -22.19,18.31 3.7,18.3 9.25,18.3 75.81,18.31 -90.61,36.6 -44.38,18.3 3.7,18.31 -48.07,54.91 133.13,18.3 -59.17,18.3 20.34,18.3 16.64,18.31 68.42,18.3 -86.91,36.61 44.38,18.3 -35.13,18.3 -42.53,18.3 114.64,18.31 -59.17,18.3 51.78,18.3 20.34,36.61 -20.34,18.3 9.24,18.3 20.34,18.31 25.89,18.3 -24.04,18.3 55.47,18.31 -46.22,18.3 -38.83,18.31 48.07,36.6 -48.07,18.31 218.19,18.3 -98,54.91 -81.36,18.3 103.55,18.3 35.13,18.31 -118.34,18.3 44.38,18.3 -7.4,18.3" /><path
             id="path182"
             style="fill:none;stroke:#90d743;stroke-width:15;stroke-linecap:square;stroke-linejoin:round;stroke-miterlimit:10;stroke-dasharray:none;stroke-opacity:1"
             d="m 2977.68,458.836 -42.53,18.305 72.12,18.3 -88.76,18.305 -3.7,18.301 134.99,18.305 -29.59,18.304 22.19,18.301 -61.02,18.305 -5.55,18.301 53.63,18.304 -61.02,36.606 85.06,18.304 -51.78,18.301 35.14,18.305 83.21,36.605 -112.8,36.606 79.51,18.304 -55.47,36.606 42.53,36.605 -29.59,18.305 5.55,36.606 79.51,18.3 1.85,18.305 5.55,36.605 -53.63,36.61 48.08,18.3 -33.28,18.3 62.87,18.31 3.69,36.6 66.57,36.61 -131.29,18.3 120.2,18.3 -24.04,36.61 42.53,18.3 -49.93,18.31 9.25,36.6 22.19,18.3 -12.95,18.31 -25.88,18.3 42.52,18.3 11.1,36.61 18.49,18.3 -116.49,18.3 136.83,18.31 -94.31,18.3 27.74,18.3 18.49,18.31 -48.07,18.3 77.66,18.31 12.94,18.3 -40.68,18.3 40.68,18.31 35.14,36.6 -29.59,18.3 120.19,18.31 -22.19,54.91 -35.13,18.3 -68.42,18.3 20.34,18.3 24.04,18.31 40.68,18.3 -46.23,36.61 9.25,18.3 -24.04,18.3 27.74,18.3 -25.89,18.31 73.96,18.3 -9.24,18.3 11.1,36.61 -42.54,18.3 85.06,18.3 -42.52,18.31 -12.95,18.3 88.76,18.3 -22.19,18.31 35.13,18.3 -75.81,18.31 v 36.6 l 86.91,18.31 -31.44,18.3 -22.19,54.91 9.25,18.3 127.59,18.3 -99.85,18.31 -25.89,18.3 48.07,18.3 98.01,18.3" /><path
             id="path184"
             style="fill:none;stroke:#c8e020;stroke-width:15;stroke-linecap:square;stroke-linejoin:round;stroke-miterlimit:10;stroke-dasharray:none;stroke-opacity:1"
             d="m 3068.29,458.836 -66.57,18.305 122.04,18.3 -3.69,18.305 -33.29,18.301 11.1,18.305 18.49,18.304 -62.87,18.301 64.71,18.305 -25.88,18.301 72.11,18.304 -61.02,36.606 -11.09,18.304 42.53,18.301 -81.36,18.305 72.11,36.605 55.48,36.606 35.13,18.304 -66.57,36.606 29.58,36.605 -27.73,18.305 25.89,36.606 73.96,18.3 -16.64,18.305 42.53,36.605 -68.42,36.61 75.82,18.3 -36.99,18.3 -14.79,18.31 25.89,36.6 75.81,36.61 -99.85,18.3 -7.4,18.3 59.17,36.61 44.38,18.3 -38.83,18.31 -66.57,36.6 75.82,18.3 -68.42,18.31 175.67,18.3 -51.78,18.3 -25.89,36.61 -72.11,18.3 110.95,18.3 -35.14,18.31 -25.88,18.3 16.64,18.3 27.73,18.31 -25.89,18.3 22.2,18.31 -48.08,18.3 36.98,18.3 14.79,18.31 v 36.6 l 7.4,18.3 -14.79,18.31 46.22,54.91 38.83,18.3 -14.79,18.3 -61.02,18.3 v 18.31 l 51.78,18.3 -29.59,36.61 12.95,18.3 -18.5,18.3 v 18.3 l 62.87,18.31 v 18.3 l 11.1,18.3 -40.68,36.61 1.85,18.3 53.62,18.3 -16.64,18.31 57.32,18.3 -11.09,18.3 -22.19,18.31 55.47,18.3 -22.19,18.31 -9.25,36.6 38.84,18.31 73.96,18.3 -5.55,54.91 -36.98,18.3 24.04,18.3 29.59,18.31 -18.49,18.3 -42.53,18.3 12.94,18.3" /><path
             id="path186"
             style="fill:none;stroke:#fde725;stroke-width:15;stroke-linecap:square;stroke-linejoin:round;stroke-miterlimit:10;stroke-dasharray:none;stroke-opacity:1"
             d="m 3121.91,458.836 -44.37,18.305 107.24,18.3 -75.81,18.305 25.89,18.301 29.58,18.305 v 18.304 l -33.28,18.301 38.83,18.305 16.64,18.301 -24.04,18.304 27.74,36.606 -46.23,18.304 25.89,18.301 14.79,18.305 44.38,36.605 31.44,36.606 -46.23,18.304 -29.59,36.606 53.63,36.605 35.13,18.305 -36.98,36.606 38.83,18.3 9.25,18.305 16.64,36.605 -12.95,36.61 16.65,18.3 22.18,18.3 72.12,18.31 -70.26,36.6 v 36.61 l -33.29,18.3 103.55,18.3 -53.62,36.61 40.68,18.3 -9.25,18.31 29.59,36.6 -9.25,18.3 62.87,18.31 -38.83,18.3 31.44,18.3 -49.93,36.61 53.62,18.3 12.95,18.3 v 18.31 l -57.33,18.3 36.99,18.3 25.88,18.31 -25.88,18.3 -7.4,18.31 -9.25,18.3 -46.22,18.3 98,18.31 11.09,36.6 -42.52,18.3 53.62,18.31 -14.8,54.91 22.2,18.3 25.88,18.3 -29.58,18.3 40.68,18.31 -57.32,18.3 -14.8,36.61 90.61,18.3 -51.77,18.3 12.94,18.3 -29.59,18.31 40.68,18.3 35.13,18.3 -42.52,36.61 25.88,18.3 24.04,18.3 24.04,18.31 16.64,18.3 -18.49,18.3 73.96,18.31 -107.24,18.3 -7.4,18.31 49.93,36.6 -3.7,18.31 44.37,18.3 -20.34,54.91 25.9,18.3 -16.65,18.3 49.93,18.31 -31.44,18.3 -48.07,18.3 120.19,18.3" /></g></g><path
         id="path188"
         style="fill:none;stroke:#000000;stroke-width:8;stroke-linecap:square;stroke-linejoin:miter;stroke-miterlimit:10;stroke-dasharray:none;stroke-opacity:1"
         d="M 540,360 V 2534.4" /><path
         id="path190"
         style="fill:none;stroke:#000000;stroke-width:8;stroke-linecap:square;stroke-linejoin:miter;stroke-miterlimit:10;stroke-dasharray:none;stroke-opacity:1"
         d="M 3888,360 V 2534.4" /><path
         id="path192"
         style="fill:none;stroke:#000000;stroke-width:8;stroke-linecap:square;stroke-linejoin:miter;stroke-miterlimit:10;stroke-dasharray:none;stroke-opacity:1"
         d="M 540,360 H 3888" /><path
         id="path194"
         style="fill:none;stroke:#000000;stroke-width:8;stroke-linecap:square;stroke-linejoin:miter;stroke-miterlimit:10;stroke-dasharray:none;stroke-opacity:1"
         d="M 540,2534.4 H 3888" /></g></g></svg>