<?xml version="1.0" encoding="UTF-8" standalone="no"?>
<svg
   xmlns:dc="http://purl.org/dc/elements/1.1/"
   xmlns:cc="http://creativecommons.org/ns#"
   xmlns:rdf="http://www.w3.org/1999/02/22-rdf-syntax-ns#"
   xmlns:svg="http://www.w3.org/2000/svg"
   xmlns="http://www.w3.org/2000/svg"
   viewBox="0 0 576 384"
   height="384"
   width="576"
   xml:space="preserve"
   id="svg2"
   version="1.1"><metadata
     id="metadata8"><rdf:RDF><cc:Work
         rdf:about=""><dc:format>image/svg+xml</dc:format><dc:type
           rdf:resource="http://purl.org/dc/dcmitype/StillImage" /></cc:Work></rdf:RDF></metadata><defs
     id="defs6"><clipPath
       id="clipPath170"
       clipPathUnits="userSpaceOnUse"><path
         id="path168"
         d="M 540,360 H 3888 V 2534 H 540 Z" /></clipPath></defs><g
     transform="matrix(1.3333333,0,0,-1.3333333,0,384)"
     id="g10"><g
       transform="scale(0.1)"
       id="g12"><path
         id="path14"
         style="fill:#ffffff;fill-opacity:1;fill-rule:nonzero;stroke:none"
         d="M 0,0 H 4320 V 2880 H 0 Z" /><path
         id="path16"
         style="fill:#ffffff;fill-opacity:1;fill-rule:nonzero;stroke:none"
         d="M 540,360 H 3888 V 2534.4 H 540 Z" /><path
         id="path18"
         style="fill:#000000;fill-opacity:1;fill-rule:nonzero;stroke:none"
         d="M 692.184,360 V 325" /><path
         id="path20"
         style="fill:none;stroke:#000000;stroke-width:8;stroke-linecap:butt;stroke-linejoin:round;stroke-miterlimit:10;stroke-dasharray:none;stroke-opacity:1"
         d="M 692.184,360 V 325" /><g
         transform="scale(10)"
         id="g22"><text
           id="text26"
           style="font-variant:normal;font-weight:normal;font-size:10px;font-family:Arial;-inkscape-font-specification:Arial;writing-mode:lr-tb;fill:#000000;fill-opacity:1;fill-rule:nonzero;stroke:none"
           transform="matrix(1,0,0,-1,66.0387,21.4063)"><tspan
             id="tspan24"
             y="0"
             x="0">0</tspan></text>
</g><path
         id="path28"
         style="fill:#000000;fill-opacity:1;fill-rule:nonzero;stroke:none"
         d="M 1116.8,360 V 325" /><path
         id="path30"
         style="fill:none;stroke:#000000;stroke-width:8;stroke-linecap:butt;stroke-linejoin:round;stroke-miterlimit:10;stroke-dasharray:none;stroke-opacity:1"
         d="M 1116.8,360 V 325" /><g
         transform="scale(10)"
         id="g32"><text
           id="text36"
           style="font-variant:normal;font-weight:normal;font-size:10px;font-family:Arial;-inkscape-font-specification:Arial;writing-mode:lr-tb;fill:#000000;fill-opacity:1;fill-rule:nonzero;stroke:none"
           transform="matrix(1,0,0,-1,105.32,21.4063)"><tspan
             id="tspan34"
             y="0"
             x="0 6.362112">25</tspan></text>
</g><path
         id="path38"
         style="fill:#000000;fill-opacity:1;fill-rule:nonzero;stroke:none"
         d="M 1541.41,360 V 325" /><path
         id="path40"
         style="fill:none;stroke:#000000;stroke-width:8;stroke-linecap:butt;stroke-linejoin:round;stroke-miterlimit:10;stroke-dasharray:none;stroke-opacity:1"
         d="M 1541.41,360 V 325" /><g
         transform="scale(10)"
         id="g42"><text
           id="text46"
           style="font-variant:normal;font-weight:normal;font-size:10px;font-family:Arial;-inkscape-font-specification:Arial;writing-mode:lr-tb;fill:#000000;fill-opacity:1;fill-rule:nonzero;stroke:none"
           transform="matrix(1,0,0,-1,147.782,21.4063)"><tspan
             id="tspan44"
             y="0"
             x="0 6.3625026">50</tspan></text>
</g><path
         id="path48"
         style="fill:#000000;fill-opacity:1;fill-rule:nonzero;stroke:none"
         d="M 1966.03,360 V 325" /><path
         id="path50"
         style="fill:none;stroke:#000000;stroke-width:8;stroke-linecap:butt;stroke-linejoin:round;stroke-miterlimit:10;stroke-dasharray:none;stroke-opacity:1"
         d="M 1966.03,360 V 325" /><g
         transform="scale(10)"
         id="g52"><text
           id="text56"
           style="font-variant:normal;font-weight:normal;font-size:10px;font-family:Arial;-inkscape-font-specification:Arial;writing-mode:lr-tb;fill:#000000;fill-opacity:1;fill-rule:nonzero;stroke:none"
           transform="matrix(1,0,0,-1,190.243,21.4063)"><tspan
             id="tspan54"
             y="0"
             x="0 6.3625026">75</tspan></text>
</g><path
         id="path58"
         style="fill:#000000;fill-opacity:1;fill-rule:nonzero;stroke:none"
         d="M 2390.64,360 V 325" /><path
         id="path60"
         style="fill:none;stroke:#000000;stroke-width:8;stroke-linecap:butt;stroke-linejoin:round;stroke-miterlimit:10;stroke-dasharray:none;stroke-opacity:1"
         d="M 2390.64,360 V 325" /><g
         transform="scale(10)"
         id="g62"><text
           id="text66"
           style="font-variant:normal;font-weight:normal;font-size:10px;font-family:Arial;-inkscape-font-specification:Arial;writing-mode:lr-tb;fill:#000000;fill-opacity:1;fill-rule:nonzero;stroke:none"
           transform="matrix(1,0,0,-1,229.525,21.4063)"><tspan
             id="tspan64"
             y="0"
             x="0 6.3620996 12.72459">100</tspan></text>
</g><path
         id="path68"
         style="fill:#000000;fill-opacity:1;fill-rule:nonzero;stroke:none"
         d="M 2815.25,360 V 325" /><path
         id="path70"
         style="fill:none;stroke:#000000;stroke-width:8;stroke-linecap:butt;stroke-linejoin:round;stroke-miterlimit:10;stroke-dasharray:none;stroke-opacity:1"
         d="M 2815.25,360 V 325" /><g
         transform="scale(10)"
         id="g72"><text
           id="text76"
           style="font-variant:normal;font-weight:normal;font-size:10px;font-family:Arial;-inkscape-font-specification:Arial;writing-mode:lr-tb;fill:#000000;fill-opacity:1;fill-rule:nonzero;stroke:none"
           transform="matrix(1,0,0,-1,271.986,21.4063)"><tspan
             id="tspan74"
             y="0"
             x="0 6.3624902 12.72459">125</tspan></text>
</g><path
         id="path78"
         style="fill:#000000;fill-opacity:1;fill-rule:nonzero;stroke:none"
         d="M 3239.87,360 V 325" /><path
         id="path80"
         style="fill:none;stroke:#000000;stroke-width:8;stroke-linecap:butt;stroke-linejoin:round;stroke-miterlimit:10;stroke-dasharray:none;stroke-opacity:1"
         d="M 3239.87,360 V 325" /><g
         transform="scale(10)"
         id="g82"><text
           id="text86"
           style="font-variant:normal;font-weight:normal;font-size:10px;font-family:Arial;-inkscape-font-specification:Arial;writing-mode:lr-tb;fill:#000000;fill-opacity:1;fill-rule:nonzero;stroke:none"
           transform="matrix(1,0,0,-1,314.448,21.4063)"><tspan
             id="tspan84"
             y="0"
             x="0 6.3624902 12.72459">150</tspan></text>
</g><path
         id="path88"
         style="fill:#000000;fill-opacity:1;fill-rule:nonzero;stroke:none"
         d="M 3664.48,360 V 325" /><path
         id="path90"
         style="fill:none;stroke:#000000;stroke-width:8;stroke-linecap:butt;stroke-linejoin:round;stroke-miterlimit:10;stroke-dasharray:none;stroke-opacity:1"
         d="M 3664.48,360 V 325" /><g
         transform="scale(10)"
         id="g92"><text
           id="text98"
           style="font-variant:normal;font-weight:normal;font-size:10px;font-family:Arial;-inkscape-font-specification:Arial;writing-mode:lr-tb;fill:#000000;fill-opacity:1;fill-rule:nonzero;stroke:none"
           transform="matrix(1,0,0,-1,356.909,21.4063)"><tspan
             id="tspan94"
             y="0"
             x="0 6.3620996 12.72459">175</tspan><tspan
             id="tspan96"
             y="13.6719"
             x="-144.673 -138.58005 -132.46207">ToT</tspan></text>
</g><path
         id="path100"
         style="fill:#000000;fill-opacity:1;fill-rule:nonzero;stroke:none"
         d="M 540,660.172 H 505" /><path
         id="path102"
         style="fill:none;stroke:#000000;stroke-width:8;stroke-linecap:butt;stroke-linejoin:round;stroke-miterlimit:10;stroke-dasharray:none;stroke-opacity:1"
         d="M 540,660.172 H 505" /><g
         transform="scale(10)"
         id="g104"><text
           id="text108"
           style="font-variant:normal;font-weight:normal;font-size:10px;font-family:Arial;-inkscape-font-specification:Arial;writing-mode:lr-tb;fill:#000000;fill-opacity:1;fill-rule:nonzero;stroke:none"
           transform="matrix(1,0,0,-1,21.5625,62.2199)"><tspan
             id="tspan106"
             y="0"
             x="0 6.3624992 12.724608 19.087107">1520</tspan></text>
</g><path
         id="path110"
         style="fill:#000000;fill-opacity:1;fill-rule:nonzero;stroke:none"
         d="M 540,1026.23 H 505" /><path
         id="path112"
         style="fill:none;stroke:#000000;stroke-width:8;stroke-linecap:butt;stroke-linejoin:round;stroke-miterlimit:10;stroke-dasharray:none;stroke-opacity:1"
         d="M 540,1026.23 H 505" /><g
         transform="scale(10)"
         id="g114"><text
           id="text118"
           style="font-variant:normal;font-weight:normal;font-size:10px;font-family:Arial;-inkscape-font-specification:Arial;writing-mode:lr-tb;fill:#000000;fill-opacity:1;fill-rule:nonzero;stroke:none"
           transform="matrix(1,0,0,-1,21.5625,98.8262)"><tspan
             id="tspan116"
             y="0"
             x="0 6.3624992 12.724608 19.087107">1540</tspan></text>
</g><path
         id="path120"
         style="fill:#000000;fill-opacity:1;fill-rule:nonzero;stroke:none"
         d="M 540,1392.29 H 505" /><path
         id="path122"
         style="fill:none;stroke:#000000;stroke-width:8;stroke-linecap:butt;stroke-linejoin:round;stroke-miterlimit:10;stroke-dasharray:none;stroke-opacity:1"
         d="M 540,1392.29 H 505" /><g
         transform="scale(10)"
         id="g124"><text
           id="text128"
           style="font-variant:normal;font-weight:normal;font-size:10px;font-family:Arial;-inkscape-font-specification:Arial;writing-mode:lr-tb;fill:#000000;fill-opacity:1;fill-rule:nonzero;stroke:none"
           transform="matrix(1,0,0,-1,21.5625,135.432)"><tspan
             id="tspan126"
             y="0"
             x="0 6.3624992 12.724608 19.087107">1560</tspan></text>
</g><path
         id="path130"
         style="fill:#000000;fill-opacity:1;fill-rule:nonzero;stroke:none"
         d="M 540,1758.35 H 505" /><path
         id="path132"
         style="fill:none;stroke:#000000;stroke-width:8;stroke-linecap:butt;stroke-linejoin:round;stroke-miterlimit:10;stroke-dasharray:none;stroke-opacity:1"
         d="M 540,1758.35 H 505" /><g
         transform="scale(10)"
         id="g134"><text
           id="text138"
           style="font-variant:normal;font-weight:normal;font-size:10px;font-family:Arial;-inkscape-font-specification:Arial;writing-mode:lr-tb;fill:#000000;fill-opacity:1;fill-rule:nonzero;stroke:none"
           transform="matrix(1,0,0,-1,21.5625,172.038)"><tspan
             id="tspan136"
             y="0"
             x="0 6.3624992 12.724608 19.087107">1580</tspan></text>
</g><path
         id="path140"
         style="fill:#000000;fill-opacity:1;fill-rule:nonzero;stroke:none"
         d="M 540,2124.41 H 505" /><path
         id="path142"
         style="fill:none;stroke:#000000;stroke-width:8;stroke-linecap:butt;stroke-linejoin:round;stroke-miterlimit:10;stroke-dasharray:none;stroke-opacity:1"
         d="M 540,2124.41 H 505" /><g
         transform="scale(10)"
         id="g144"><text
           id="text148"
           style="font-variant:normal;font-weight:normal;font-size:10px;font-family:Arial;-inkscape-font-specification:Arial;writing-mode:lr-tb;fill:#000000;fill-opacity:1;fill-rule:nonzero;stroke:none"
           transform="matrix(1,0,0,-1,21.5625,208.645)"><tspan
             id="tspan146"
             y="0"
             x="0 6.3624992 12.724608 19.087107">1600</tspan></text>
</g><path
         id="path150"
         style="fill:#000000;fill-opacity:1;fill-rule:nonzero;stroke:none"
         d="M 540,2490.47 H 505" /><path
         id="path152"
         style="fill:none;stroke:#000000;stroke-width:8;stroke-linecap:butt;stroke-linejoin:round;stroke-miterlimit:10;stroke-dasharray:none;stroke-opacity:1"
         d="M 540,2490.47 H 505" /><g
         transform="scale(10)"
         id="g154"><text
           id="text158"
           style="font-variant:normal;font-weight:normal;font-size:10px;font-family:Arial;-inkscape-font-specification:Arial;writing-mode:lr-tb;fill:#000000;fill-opacity:1;fill-rule:nonzero;stroke:none"
           transform="matrix(1,0,0,-1,21.5625,245.25)"><tspan
             id="tspan156"
             y="0"
             x="0 6.3624992 12.724608 19.087107">1620</tspan></text>
<text
           id="text162"
           style="font-variant:normal;font-weight:normal;font-size:10px;font-family:Arial;-inkscape-font-specification:Arial;writing-mode:lr-tb;fill:#000000;fill-opacity:1;fill-rule:nonzero;stroke:none"
           transform="matrix(0,1,1,0,15.4844,95.8215)"><tspan
             id="tspan160"
             y="0"
             x="0 6.0929713 12.245315 21.986328 28.333984 34.486328 38.59766 44.72578 48.646488 54.984375 59.095707 65.248047 68.426949 72.328125 80.028122 86.868744 93.851166">Temperature (DAC)</tspan></text>
</g><g
         id="g164"><g
           clip-path="url(#clipPath170)"
           id="g166"><path
             id="path172"
             style="fill:none;stroke:#440154;stroke-width:15;stroke-linecap:square;stroke-linejoin:round;stroke-miterlimit:10;stroke-dasharray:none;stroke-opacity:1"
             d="M 692.184,458.836 V 2435.56" /><path
             id="path174"
             style="fill:none;stroke:#481f70;stroke-width:15;stroke-linecap:square;stroke-linejoin:round;stroke-miterlimit:10;stroke-dasharray:none;stroke-opacity:1"
             d="m 692.184,458.836 v 750.424 l 22.078,18.3 -22.078,36.61 v 18.3 18.31 36.6 18.3 18.31 18.3 18.3 36.61 18.3 18.3 18.31 18.3 18.3 18.31 18.3 18.31 l 18.679,18.3 -18.679,18.3 v 18.31 36.6 18.3 l 30.57,18.31 -30.57,54.91 v 18.3 18.3 18.3 18.31 18.3 36.61 18.3 18.3 18.3 18.31 18.3 18.3 36.61 18.3 18.3 18.31 18.3 18.3 18.31 18.3 18.31 36.6 18.31 18.3 54.91 18.3 18.3 18.31 18.3 18.3 l 139.273,18.3" /><path
             id="path176"
             style="fill:none;stroke:#443982;stroke-width:15;stroke-linecap:square;stroke-linejoin:round;stroke-miterlimit:10;stroke-dasharray:none;stroke-opacity:1"
             d="m 773.707,458.836 67.938,18.305 -47.555,18.3 52.652,18.305 227.598,18.301 -23.79,18.305 -198.714,18.304 -5.094,18.301 -154.558,18.305 478.966,18.301 -312.521,18.304 -125.684,36.606 125.684,18.304 62.844,18.301 52.652,18.305 -118.891,36.605 95.114,36.606 8.492,18.304 23.777,36.606 -290.433,36.605 113.793,18.305 13.589,36.606 42.461,18.3 33.969,18.305 122.294,36.605 15.28,36.61 -214.004,18.3 169.844,18.3 -11.887,18.31 45.857,36.6 -168.146,36.61 96.813,18.3 -146.07,18.3 49.257,36.61 66.239,18.3 -142.668,18.31 183.433,36.6 45.852,18.3 -190.223,18.31 105.305,18.3 100.208,18.3 11.89,36.61 188.53,18.3 -249.675,18.3 54.355,18.31 -215.707,18.3 195.317,18.3 -105.301,18.31 84.926,18.3 -64.543,18.31 11.891,18.3 28.871,18.3 10.191,18.31 23.777,36.6 44.158,18.3 -56.044,18.31 -127.387,54.91 210.611,18.3 -25.48,18.3 -101.905,18.3 -1.699,18.31 103.604,18.3 -90.014,36.61 202.114,18.3 -181.735,18.3 -6.793,18.3 15.285,18.31 54.353,18.3 -191.927,18.3 271.757,36.61 -123.991,18.3 -3.399,18.3 123.99,18.31 -180.037,18.3 217.407,18.3 -32.27,18.31 16.98,18.3 -96.81,18.31 -219.104,36.6 405.934,18.31 -349.883,18.3 198.723,54.91 132.48,18.3 54.34,18.3 -368.558,18.31 -86.625,18.3 378.753,18.3 -123.98,18.3" /><path
             id="path178"
             style="fill:none;stroke:#3b528b;stroke-width:15;stroke-linecap:square;stroke-linejoin:round;stroke-miterlimit:10;stroke-dasharray:none;stroke-opacity:1"
             d="m 1308.72,458.836 -130.78,18.305 90.02,18.3 56.05,18.305 44.16,18.301 -208.91,18.305 -28.88,18.304 -57.74,18.301 422.91,18.305 -266.66,18.301 -171.54,18.304 321.01,36.606 -249.68,18.304 -118.89,18.301 383.85,18.305 -208.91,36.605 86.63,36.606 86.62,18.304 -25.48,36.606 84.92,36.605 -27.17,18.305 -66.24,36.606 54.35,18.3 -88.32,18.305 42.46,36.605 39.07,36.61 -115.5,18.3 130.78,18.3 -74.73,18.31 79.83,36.6 112.09,36.61 -219.09,18.3 292.13,18.3 -137.58,36.61 33.97,18.3 190.23,18.31 -237.79,36.6 62.85,18.3 -78.13,18.31 -96.81,18.3 50.95,18.3 139.27,36.61 -59.44,18.3 -110.4,18.3 171.54,18.31 -16.98,18.3 -79.83,18.3 -263.26,18.31 356.68,18.3 -30.58,18.31 256.47,18.3 -79.83,18.3 -365.16,18.31 377.05,36.6 -107,18.3 -178.34,18.31 171.55,54.91 -28.88,18.3 59.45,18.3 100.21,18.3 44.16,18.31 113.79,18.3 -344.78,36.61 95.11,18.3 11.89,18.3 -191.92,18.3 40.76,18.31 23.77,18.3 -23.77,18.3 171.54,36.61 -10.19,18.3 168.15,18.3 -33.97,18.31 -98.51,18.3 -67.94,18.3 -107,18.31 214,18.3 25.48,18.31 -95.11,36.6 186.83,18.31 5.09,18.3 -107,54.91 -37.37,18.3 -5.09,18.3 -32.27,18.31 -96.81,18.3 253.07,18.3 -266.66,18.3" /><path
             id="path180"
             style="fill:none;stroke:#31688e;stroke-width:15;stroke-linecap:square;stroke-linejoin:round;stroke-miterlimit:10;stroke-dasharray:none;stroke-opacity:1"
             d="m 1646.71,458.836 -56.04,18.305 74.73,18.3 10.19,18.305 18.68,18.301 -42.46,18.305 -27.17,18.304 -23.78,18.301 161.35,18.305 -74.73,18.301 -144.37,18.304 236.09,36.606 -98.52,18.304 -93.41,18.301 227.59,18.305 193.63,36.605 -402.54,36.606 280.25,18.304 -69.64,36.606 -125.68,36.605 27.17,18.305 30.57,36.606 -54.35,18.3 37.37,18.305 134.18,36.605 -288.74,36.61 482.36,18.3 -275.15,18.3 13.59,18.31 101.91,36.6 169.84,36.61 -122.29,18.3 -96.81,18.3 25.48,36.61 208.91,18.3 -147.77,18.31 -103.6,36.6 210.6,18.3 84.93,18.31 -460.28,18.3 271.75,18.3 -52.66,36.61 -86.62,18.3 321.02,18.3 -159.66,18.31 -50.95,18.3 180.03,18.3 -127.38,18.31 152.86,18.3 59.44,18.31 -8.49,18.3 -147.76,18.3 44.16,18.31 -134.18,36.6 40.76,18.3 -67.94,18.31 110.4,54.91 33.97,18.3 -8.49,18.3 -47.56,18.3 151.16,18.31 113.8,18.3 149.47,36.61 -234.39,18.3 -96.81,18.3 40.76,18.3 227.59,18.31 42.46,18.3 -283.64,18.3 28.88,36.61 105.3,18.3 -214.01,18.3 151.17,18.31 -73.04,18.3 147.77,18.3 -152.86,18.31 -11.89,18.3 123.99,18.31 186.83,36.6 -227.6,18.31 198.72,18.3 -100.21,54.91 287.04,18.3 -30.57,18.3 -50.95,18.31 -98.51,18.3 20.38,18.3 -96.81,18.3" /><path
             id="path182"
             style="fill:none;stroke:#287c8e;stroke-width:15;stroke-linecap:square;stroke-linejoin:round;stroke-miterlimit:10;stroke-dasharray:none;stroke-opacity:1"
             d="m 1894.69,458.836 129.08,18.305 95.12,18.3 -198.72,18.305 22.08,18.301 6.79,18.305 13.59,18.304 195.32,18.301 -123.99,18.305 -11.89,18.301 25.48,18.304 -25.48,36.606 -59.44,18.304 3.39,18.301 287.05,18.305 -181.74,36.605 45.86,36.606 200.42,18.304 -197.02,36.606 149.46,36.605 -210.61,18.305 129.08,36.606 10.19,18.3 -96.81,18.305 50.96,36.605 79.82,36.61 v 18.3 l -144.37,18.3 118.9,18.31 33.97,36.6 54.35,36.61 -93.42,18.3 118.89,18.3 57.75,36.61 59.45,18.3 -67.94,18.31 -101.91,36.6 171.54,18.3 -137.57,18.31 -186.83,18.3 205.51,18.3 -57.75,36.61 191.93,18.3 18.68,18.3 -300.62,18.31 163.05,18.3 86.62,18.3 -66.24,18.31 39.06,18.3 45.86,18.31 84.93,18.3 -90.02,18.3 -140.97,18.31 178.33,36.6 22.09,18.3 32.26,18.31 -147.76,54.91 249.67,18.3 -251.37,18.3 212.31,18.3 -96.81,18.31 191.92,18.3 -253.07,36.61 110.4,18.3 44.16,18.3 -101.91,18.3 -142.67,18.31 295.53,18.3 -76.43,18.3 67.94,36.61 -16.98,18.3 -173.25,18.3 186.84,18.31 -25.48,18.3 10.19,18.3 -113.8,18.31 242.88,18.3 -32.27,18.31 33.97,36.6 -73.03,18.31 -22.08,18.3 222.5,54.91 -23.78,18.3 120.59,18.3 -193.63,18.31 -76.43,18.3 164.75,18.3 32.27,18.3" /><path
             id="path184"
             style="fill:none;stroke:#21908c;stroke-width:15;stroke-linecap:square;stroke-linejoin:round;stroke-miterlimit:10;stroke-dasharray:none;stroke-opacity:1"
             d="m 2236.08,458.836 -45.86,18.305 33.97,18.3 39.06,18.305 -79.82,18.301 18.68,18.305 16.98,18.304 64.55,18.301 13.58,18.305 -27.17,18.301 40.76,18.304 83.23,36.606 -107,18.304 67.93,18.301 -44.16,18.305 -95.11,36.605 302.32,36.606 -171.54,18.304 40.76,36.606 42.46,36.605 -139.27,18.305 98.51,36.606 11.89,18.3 -28.87,18.305 66.24,36.605 -67.94,36.61 115.49,18.3 -96.81,18.3 -25.48,18.31 173.25,36.6 -147.77,36.61 -96.81,18.3 363.47,18.3 -79.83,36.61 37.37,18.3 39.06,18.31 -215.7,36.6 166.45,18.3 -54.35,18.31 217.4,18.3 -285.34,18.3 47.55,36.61 -5.09,18.3 32.27,18.3 107,18.31 156.26,18.3 -242.88,18.3 198.72,18.31 -249.67,18.3 142.67,18.31 -107.01,18.3 73.04,18.3 129.08,18.31 67.94,36.6 42.46,18.3 -214,18.31 140.97,54.91 -5.1,18.3 117.2,18.3 -78.13,18.3 -276.85,18.31 293.83,18.3 -54.35,36.61 -74.73,18.3 234.39,18.3 -239.49,18.3 127.39,18.31 76.43,18.3 -15.29,18.3 -16.98,36.61 39.06,18.3 108.7,18.3 88.33,18.31 -283.65,18.3 16.98,18.3 90.02,18.31 178.34,18.3 -300.62,18.31 117.19,36.6 -30.57,18.31 91.71,18.3 113.8,54.91 120.59,18.3 -95.12,18.3 -64.53,18.31 67.93,18.3 -183.43,18.3 -217.4,18.3" /><path
             id="path186"
             style="fill:none;stroke:#20a486;stroke-width:15;stroke-linecap:square;stroke-linejoin:round;stroke-miterlimit:10;stroke-dasharray:none;stroke-opacity:1"
             d="m 2411.02,458.836 98.51,18.305 -69.64,18.3 -35.66,18.305 67.93,18.301 -79.82,18.305 66.24,18.304 8.49,18.301 6.79,18.305 52.66,18.301 -69.64,18.304 -16.99,36.606 78.13,18.304 -66.23,18.301 66.23,18.305 -27.17,36.605 30.57,36.606 101.91,18.304 -135.88,36.606 115.5,36.605 -49.26,18.305 -13.58,36.606 37.36,18.3 -156.26,18.305 134.18,36.605 197.02,36.61 -74.73,18.3 -8.49,18.3 6.79,18.31 -86.62,36.6 322.71,36.61 -195.33,18.3 -27.17,18.3 93.41,36.61 -35.66,18.3 -20.39,18.31 54.36,36.6 -84.93,18.3 117.19,18.31 -71.33,18.3 88.32,18.3 -22.08,36.61 50.95,18.3 -49.25,18.3 -23.78,18.31 61.14,18.3 -37.36,18.3 47.55,18.31 -86.62,18.3 22.09,18.31 -6.8,18.3 3.4,18.3 -95.12,18.31 79.83,36.6 202.12,18.3 -159.66,18.31 -47.56,54.91 239.49,18.3 -171.54,18.3 -71.34,18.3 168.14,18.31 3.4,18.3 -8.49,36.61 -108.7,18.3 115.49,18.3 33.97,18.3 -6.79,18.31 -78.13,18.3 64.54,18.3 57.75,36.61 -39.06,18.3 30.57,18.3 166.45,18.31 -203.82,18.3 173.24,18.3 -91.71,18.31 122.29,18.3 -62.85,18.31 135.88,36.6 -93.42,18.31 -118.89,18.3 -103.6,54.91 239.48,18.3 186.83,18.3 -139.27,18.31 -40.76,18.3 -13.59,18.3 79.82,18.3" /><path
             id="path188"
             style="fill:none;stroke:#35b779;stroke-width:15;stroke-linecap:square;stroke-linejoin:round;stroke-miterlimit:10;stroke-dasharray:none;stroke-opacity:1"
             d="m 2480.66,458.836 198.72,18.305 13.58,18.3 -74.73,18.305 -45.85,18.301 91.71,18.305 52.65,18.304 -151.16,18.301 140.97,18.305 28.88,18.301 -100.21,18.304 -59.45,36.606 -5.09,18.304 78.12,18.301 -105.3,18.305 181.73,36.605 v 36.606 l -86.62,18.304 100.21,36.606 22.08,36.605 -69.63,18.305 74.73,36.606 -5.1,18.3 -67.94,18.305 44.17,36.605 -91.72,36.61 200.42,18.3 -129.09,18.3 11.89,18.31 -47.56,36.6 127.39,36.61 -54.35,18.3 118.89,18.3 -84.92,36.61 123.99,18.3 52.65,18.31 -76.43,36.6 1.7,18.3 -8.5,18.31 10.19,18.3 112.1,18.3 45.86,36.61 -191.93,18.3 83.23,18.3 11.89,18.31 -15.29,18.3 -28.87,18.3 -27.18,18.31 108.71,18.3 130.78,18.31 -62.85,18.3 -169.84,18.3 86.62,18.31 20.38,36.6 30.57,18.3 37.37,18.31 44.16,54.91 -10.19,18.3 -33.97,18.3 -28.87,18.3 -35.67,18.31 83.22,18.3 -1.7,36.61 18.69,18.3 -45.86,18.3 10.19,18.3 -52.65,18.31 285.34,18.3 -81.53,18.3 -59.44,36.61 22.08,18.3 86.62,18.3 18.68,18.31 -59.45,18.3 -93.41,18.3 130.78,18.31 -15.29,18.3 5.1,18.31 -78.13,36.6 3.4,18.31 118.89,18.3 -90.02,54.91 217.41,18.3 -146.07,18.3 -5.1,18.31 52.65,18.3 -118.89,18.3 157.96,18.3" /><path
             id="path190"
             style="fill:none;stroke:#5ec962;stroke-width:15;stroke-linecap:square;stroke-linejoin:round;stroke-miterlimit:10;stroke-dasharray:none;stroke-opacity:1"
             d="m 2653.9,458.836 10.19,18.305 64.54,18.3 -5.09,18.305 -73.04,18.301 71.34,18.305 52.65,18.304 -84.92,18.301 47.56,18.305 -20.39,18.301 -28.87,18.304 15.29,36.606 83.22,18.304 -44.16,18.301 44.16,18.305 -37.36,36.605 103.6,36.606 -107,18.304 69.63,36.606 -13.58,36.605 27.17,18.305 -1.7,36.606 -28.87,18.3 28.87,18.305 83.23,36.605 -50.96,36.61 27.18,18.3 56.05,18.3 -3.4,18.31 -47.56,36.6 95.12,36.61 -84.92,18.3 118.89,18.3 20.38,36.61 -105.31,18.3 30.58,18.31 83.22,36.6 66.24,18.3 -47.56,18.31 -79.82,18.3 142.67,18.3 33.97,36.61 -91.72,18.3 -18.68,18.3 122.29,18.31 -62.85,18.3 -59.44,18.3 110.4,18.31 -103.61,18.3 129.08,18.31 -132.48,18.3 -27.17,18.3 83.22,18.31 -47.55,36.6 115.49,18.3 -120.59,18.31 149.47,54.91 -35.67,18.3 25.47,18.3 -56.05,18.3 22.09,18.31 91.71,18.3 -113.8,36.61 96.82,18.3 -113.8,18.3 120.59,18.3 11.89,18.31 -13.59,18.3 73.04,18.3 -62.85,36.61 -30.57,18.3 1.7,18.3 1.7,18.31 64.54,18.3 37.37,18.3 -30.58,18.31 191.93,18.3 -163.05,18.31 117.19,36.6 -39.06,18.31 -40.77,18.3 -103.6,54.91 74.73,18.3 149.46,18.3 -56.05,18.31 -16.98,18.3 -13.59,18.3 -1.7,18.3" /><path
             id="path192"
             style="fill:none;stroke:#90d743;stroke-width:15;stroke-linecap:square;stroke-linejoin:round;stroke-miterlimit:10;stroke-dasharray:none;stroke-opacity:1"
             d="m 2760.9,458.836 -3.39,18.305 57.74,18.3 -45.86,18.305 -61.14,18.301 118.89,18.305 15.29,18.304 16.98,18.301 -8.49,18.305 39.07,18.301 -74.74,18.304 35.67,36.606 10.19,18.304 -64.54,18.301 107,18.305 -37.36,36.605 37.36,36.606 33.97,18.304 -40.76,36.606 62.85,36.605 -62.85,18.305 50.95,36.606 76.43,18.3 -57.74,18.305 -5.1,36.605 -35.67,36.61 95.12,18.3 -42.47,18.3 15.29,18.31 44.16,36.6 30.57,36.61 23.78,18.3 -42.46,18.3 23.78,36.61 1.7,18.3 20.38,18.31 -52.65,36.6 127.38,18.3 -122.29,18.31 62.85,18.3 -6.8,18.3 32.27,36.61 6.79,18.3 -45.85,18.3 130.78,18.31 -45.86,18.3 18.68,18.3 44.16,18.31 -76.42,18.3 -5.1,18.31 176.64,18.3 -96.81,18.3 -33.97,18.31 -47.56,36.6 45.86,18.3 -1.7,18.31 57.75,54.91 -71.34,18.3 30.57,18.3 22.08,18.3 54.36,18.31 -123.99,18.3 197.02,36.61 35.67,18.3 -146.07,18.3 86.62,18.3 -59.44,18.31 13.58,18.3 110.4,18.3 -123.98,36.61 101.9,18.3 5.1,18.3 -107,18.31 50.95,18.3 10.19,18.3 -3.4,18.31 62.84,18.3 139.28,18.31 5.09,36.6 -91.71,18.31 -98.51,18.3 152.86,54.91 -149.47,18.3 98.51,18.3 83.23,18.31 -18.69,18.3 -147.76,18.3 73.03,18.3" /><path
             id="path194"
             style="fill:none;stroke:#c8e020;stroke-width:15;stroke-linecap:square;stroke-linejoin:round;stroke-miterlimit:10;stroke-dasharray:none;stroke-opacity:1"
             d="m 2871.3,458.836 5.1,18.305 10.19,18.3 30.57,18.305 -56.05,18.301 52.66,18.305 37.36,18.304 -74.73,18.301 -13.59,18.305 39.07,18.301 79.82,18.304 -37.36,36.606 16.98,18.304 -11.89,18.301 16.99,18.305 -61.15,36.605 117.19,36.606 -57.74,18.304 -35.67,36.606 127.38,36.605 49.26,18.305 -64.54,36.606 -5.1,18.3 86.63,18.305 -91.72,36.605 57.75,36.61 -39.07,18.3 22.08,18.3 13.59,18.31 35.67,36.6 -18.69,36.61 8.5,18.3 93.41,18.3 -44.16,36.61 -32.27,18.3 20.38,18.31 83.23,36.6 49.25,18.3 -69.63,18.31 42.46,18.3 -8.5,18.3 -28.87,36.61 96.81,18.3 -57.74,18.3 -22.09,18.31 39.07,18.3 -40.76,18.3 93.41,18.31 -112.1,18.3 23.78,18.31 25.48,18.3 42.46,18.3 -11.89,18.31 56.05,36.6 -112.1,18.3 113.8,18.31 -23.78,54.91 50.96,18.3 -56.06,18.3 -18.68,18.3 49.26,18.31 54.35,18.3 37.36,36.61 -39.06,18.3 -78.13,18.3 -11.89,18.3 86.62,18.31 -23.77,18.3 39.06,18.3 90.02,36.61 6.79,18.3 -39.07,18.3 -22.07,18.31 -56.05,18.3 93.41,18.3 10.19,18.31 -27.17,18.3 -30.58,18.31 86.63,36.6 -90.02,18.31 113.8,18.3 56.04,54.91 11.89,18.3 -44.16,18.3 1.7,18.31 -79.82,18.3 134.17,18.3 -110.4,18.3" /><path
             id="path196"
             style="fill:none;stroke:#fde725;stroke-width:15;stroke-linecap:square;stroke-linejoin:round;stroke-miterlimit:10;stroke-dasharray:none;stroke-opacity:1"
             d="m 2971.51,458.836 3.4,18.305 -23.78,18.3 73.03,18.305 -33.96,18.301 -27.18,18.305 25.48,18.304 8.49,18.301 -33.97,18.305 -25.48,18.301 23.78,18.304 32.27,36.606 73.04,18.304 -44.17,18.301 54.36,18.305 -23.78,36.605 1.7,36.606 25.47,18.304 -49.25,36.606 32.27,36.605 1.7,18.305 42.46,36.606 -3.4,18.3 1.7,18.305 152.86,36.605 -105.3,36.61 13.59,18.3 20.37,18.3 -10.18,18.31 79.82,36.6 -52.65,36.61 -45.86,18.3 37.37,18.3 50.95,36.61 -95.11,18.3 100.21,18.31 61.14,36.6 -32.27,18.3 8.5,18.31 25.47,18.3 35.67,18.3 -42.46,36.61 39.06,18.3 33.97,18.3 25.48,18.31 -90.02,18.3 39.06,18.3 16.99,18.31 -20.38,18.3 -35.67,18.31 25.48,18.3 15.28,18.3 67.94,18.31 -91.71,36.6 66.23,18.3 39.07,18.31 66.24,54.91 -88.32,18.3 -25.48,18.3 -8.49,18.3 59.44,18.31 -50.95,18.3 27.18,36.61 -23.78,18.3 1.7,18.3 73.03,18.3 -84.92,18.31 195.32,18.3 -32.27,18.3 -52.65,36.61 76.43,18.3 -23.78,18.3 71.34,18.31 -39.07,18.3 -15.29,18.3 25.48,18.31 86.62,18.3 -105.3,18.31 -16.99,36.6 47.56,18.31 117.19,18.3 -1.69,54.91 -42.46,18.3 -3.4,18.3 64.54,18.31 -73.03,18.3 -57.75,18.3 62.84,18.3" /></g></g><path
         id="path198"
         style="fill:none;stroke:#000000;stroke-width:8;stroke-linecap:square;stroke-linejoin:miter;stroke-miterlimit:10;stroke-dasharray:none;stroke-opacity:1"
         d="M 540,360 V 2534.4" /><path
         id="path200"
         style="fill:none;stroke:#000000;stroke-width:8;stroke-linecap:square;stroke-linejoin:miter;stroke-miterlimit:10;stroke-dasharray:none;stroke-opacity:1"
         d="M 3888,360 V 2534.4" /><path
         id="path202"
         style="fill:none;stroke:#000000;stroke-width:8;stroke-linecap:square;stroke-linejoin:miter;stroke-miterlimit:10;stroke-dasharray:none;stroke-opacity:1"
         d="M 540,360 H 3888" /><path
         id="path204"
         style="fill:none;stroke:#000000;stroke-width:8;stroke-linecap:square;stroke-linejoin:miter;stroke-miterlimit:10;stroke-dasharray:none;stroke-opacity:1"
         d="M 540,2534.4 H 3888" /></g></g></svg>