<?xml version="1.0" encoding="UTF-8" standalone="no"?>
<svg
   xmlns:dc="http://purl.org/dc/elements/1.1/"
   xmlns:cc="http://creativecommons.org/ns#"
   xmlns:rdf="http://www.w3.org/1999/02/22-rdf-syntax-ns#"
   xmlns:svg="http://www.w3.org/2000/svg"
   xmlns="http://www.w3.org/2000/svg"
   viewBox="0 0 576 384"
   height="384"
   width="576"
   xml:space="preserve"
   id="svg2"
   version="1.1"><metadata
     id="metadata8"><rdf:RDF><cc:Work
         rdf:about=""><dc:format>image/svg+xml</dc:format><dc:type
           rdf:resource="http://purl.org/dc/dcmitype/StillImage" /></cc:Work></rdf:RDF></metadata><defs
     id="defs6"><clipPath
       id="clipPath190"
       clipPathUnits="userSpaceOnUse"><path
         id="path188"
         d="M 540,360 H 3888 V 2534 H 540 Z" /></clipPath></defs><g
     transform="matrix(1.3333333,0,0,-1.3333333,0,384)"
     id="g10"><g
       transform="scale(0.1)"
       id="g12"><path
         id="path14"
         style="fill:#ffffff;fill-opacity:1;fill-rule:nonzero;stroke:none"
         d="M 0,0 H 4320 V 2880 H 0 Z" /><path
         id="path16"
         style="fill:#ffffff;fill-opacity:1;fill-rule:nonzero;stroke:none"
         d="M 540,360 H 3888 V 2534.4 H 540 Z" /><path
         id="path18"
         style="fill:#000000;fill-opacity:1;fill-rule:nonzero;stroke:none"
         d="M 692.184,360 V 325" /><path
         id="path20"
         style="fill:none;stroke:#000000;stroke-width:8;stroke-linecap:butt;stroke-linejoin:round;stroke-miterlimit:10;stroke-dasharray:none;stroke-opacity:1"
         d="M 692.184,360 V 325" /><g
         transform="scale(10)"
         id="g22"><text
           id="text26"
           style="font-variant:normal;font-weight:normal;font-size:10px;font-family:Arial;-inkscape-font-specification:Arial;writing-mode:lr-tb;fill:#000000;fill-opacity:1;fill-rule:nonzero;stroke:none"
           transform="matrix(1,0,0,-1,53.898,21.4063)"><tspan
             id="tspan24"
             y="0"
             x="0 8.3789072 14.741019 21.103521 24.282038">−10.0</tspan></text>
</g><path
         id="path28"
         style="fill:#000000;fill-opacity:1;fill-rule:nonzero;stroke:none"
         d="M 1072.64,360 V 325" /><path
         id="path30"
         style="fill:none;stroke:#000000;stroke-width:8;stroke-linecap:butt;stroke-linejoin:round;stroke-miterlimit:10;stroke-dasharray:none;stroke-opacity:1"
         d="M 1072.64,360 V 325" /><g
         transform="scale(10)"
         id="g32"><text
           id="text36"
           style="font-variant:normal;font-weight:normal;font-size:10px;font-family:Arial;-inkscape-font-specification:Arial;writing-mode:lr-tb;fill:#000000;fill-opacity:1;fill-rule:nonzero;stroke:none"
           transform="matrix(1,0,0,-1,95.123,21.4063)"><tspan
             id="tspan34"
             y="0"
             x="0 8.3789015 14.741014 17.919914">−7.5</tspan></text>
</g><path
         id="path38"
         style="fill:#000000;fill-opacity:1;fill-rule:nonzero;stroke:none"
         d="M 1453.09,360 V 325" /><path
         id="path40"
         style="fill:none;stroke:#000000;stroke-width:8;stroke-linecap:butt;stroke-linejoin:round;stroke-miterlimit:10;stroke-dasharray:none;stroke-opacity:1"
         d="M 1453.09,360 V 325" /><g
         transform="scale(10)"
         id="g42"><text
           id="text46"
           style="font-variant:normal;font-weight:normal;font-size:10px;font-family:Arial;-inkscape-font-specification:Arial;writing-mode:lr-tb;fill:#000000;fill-opacity:1;fill-rule:nonzero;stroke:none"
           transform="matrix(1,0,0,-1,133.168,21.4063)"><tspan
             id="tspan44"
             y="0"
             x="0 8.3789015 14.741404 17.919914">−5.0</tspan></text>
</g><path
         id="path48"
         style="fill:#000000;fill-opacity:1;fill-rule:nonzero;stroke:none"
         d="M 1833.55,360 V 325" /><path
         id="path50"
         style="fill:none;stroke:#000000;stroke-width:8;stroke-linecap:butt;stroke-linejoin:round;stroke-miterlimit:10;stroke-dasharray:none;stroke-opacity:1"
         d="M 1833.55,360 V 325" /><g
         transform="scale(10)"
         id="g52"><text
           id="text56"
           style="font-variant:normal;font-weight:normal;font-size:10px;font-family:Arial;-inkscape-font-specification:Arial;writing-mode:lr-tb;fill:#000000;fill-opacity:1;fill-rule:nonzero;stroke:none"
           transform="matrix(1,0,0,-1,171.214,21.4063)"><tspan
             id="tspan54"
             y="0"
             x="0 8.3789015 14.741014 17.919914">−2.5</tspan></text>
</g><path
         id="path58"
         style="fill:#000000;fill-opacity:1;fill-rule:nonzero;stroke:none"
         d="M 2214,360 V 325" /><path
         id="path60"
         style="fill:none;stroke:#000000;stroke-width:8;stroke-linecap:butt;stroke-linejoin:round;stroke-miterlimit:10;stroke-dasharray:none;stroke-opacity:1"
         d="M 2214,360 V 325" /><g
         transform="scale(10)"
         id="g62"><text
           id="text66"
           style="font-variant:normal;font-weight:normal;font-size:10px;font-family:Arial;-inkscape-font-specification:Arial;writing-mode:lr-tb;fill:#000000;fill-opacity:1;fill-rule:nonzero;stroke:none"
           transform="matrix(1,0,0,-1,213.447,21.4063)"><tspan
             id="tspan64"
             y="0"
             x="0 6.3624902 9.5410013">0.0</tspan></text>
</g><path
         id="path68"
         style="fill:#000000;fill-opacity:1;fill-rule:nonzero;stroke:none"
         d="M 2594.45,360 V 325" /><path
         id="path70"
         style="fill:none;stroke:#000000;stroke-width:8;stroke-linecap:butt;stroke-linejoin:round;stroke-miterlimit:10;stroke-dasharray:none;stroke-opacity:1"
         d="M 2594.45,360 V 325" /><g
         transform="scale(10)"
         id="g72"><text
           id="text76"
           style="font-variant:normal;font-weight:normal;font-size:10px;font-family:Arial;-inkscape-font-specification:Arial;writing-mode:lr-tb;fill:#000000;fill-opacity:1;fill-rule:nonzero;stroke:none"
           transform="matrix(1,0,0,-1,251.492,21.4063)"><tspan
             id="tspan74"
             y="0"
             x="0 6.3624902 9.5410013">2.5</tspan></text>
</g><path
         id="path78"
         style="fill:#000000;fill-opacity:1;fill-rule:nonzero;stroke:none"
         d="M 2974.91,360 V 325" /><path
         id="path80"
         style="fill:none;stroke:#000000;stroke-width:8;stroke-linecap:butt;stroke-linejoin:round;stroke-miterlimit:10;stroke-dasharray:none;stroke-opacity:1"
         d="M 2974.91,360 V 325" /><g
         transform="scale(10)"
         id="g82"><text
           id="text86"
           style="font-variant:normal;font-weight:normal;font-size:10px;font-family:Arial;-inkscape-font-specification:Arial;writing-mode:lr-tb;fill:#000000;fill-opacity:1;fill-rule:nonzero;stroke:none"
           transform="matrix(1,0,0,-1,289.538,21.4063)"><tspan
             id="tspan84"
             y="0"
             x="0 6.3620996 9.5410013">5.0</tspan></text>
</g><path
         id="path88"
         style="fill:#000000;fill-opacity:1;fill-rule:nonzero;stroke:none"
         d="M 3355.36,360 V 325" /><path
         id="path90"
         style="fill:none;stroke:#000000;stroke-width:8;stroke-linecap:butt;stroke-linejoin:round;stroke-miterlimit:10;stroke-dasharray:none;stroke-opacity:1"
         d="M 3355.36,360 V 325" /><g
         transform="scale(10)"
         id="g92"><text
           id="text96"
           style="font-variant:normal;font-weight:normal;font-size:10px;font-family:Arial;-inkscape-font-specification:Arial;writing-mode:lr-tb;fill:#000000;fill-opacity:1;fill-rule:nonzero;stroke:none"
           transform="matrix(1,0,0,-1,327.583,21.4063)"><tspan
             id="tspan94"
             y="0"
             x="0 6.3624902 9.5410013">7.5</tspan></text>
</g><path
         id="path98"
         style="fill:#000000;fill-opacity:1;fill-rule:nonzero;stroke:none"
         d="M 3735.82,360 V 325" /><path
         id="path100"
         style="fill:none;stroke:#000000;stroke-width:8;stroke-linecap:butt;stroke-linejoin:round;stroke-miterlimit:10;stroke-dasharray:none;stroke-opacity:1"
         d="M 3735.82,360 V 325" /><g
         transform="scale(10)"
         id="g102"><text
           id="text108"
           style="font-variant:normal;font-weight:normal;font-size:10px;font-family:Arial;-inkscape-font-specification:Arial;writing-mode:lr-tb;fill:#000000;fill-opacity:1;fill-rule:nonzero;stroke:none"
           transform="matrix(1,0,0,-1,362.449,21.4063)"><tspan
             id="tspan104"
             y="0"
             x="0 6.3624902 12.72459 15.903491">10.0</tspan><tspan
             id="tspan106"
             y="13.6719"
             x="-173.564 -167.24564 -160.90775 -154.7554 -150.64409 -144.29643 -138.37845 -135.19955 -131.29839 -125.17027 -121.99175 -115.65385 -112.47495">Energy (a.u.)</tspan></text>
</g><path
         id="path110"
         style="fill:#000000;fill-opacity:1;fill-rule:nonzero;stroke:none"
         d="M 540,458.836 H 505" /><path
         id="path112"
         style="fill:none;stroke:#000000;stroke-width:8;stroke-linecap:butt;stroke-linejoin:round;stroke-miterlimit:10;stroke-dasharray:none;stroke-opacity:1"
         d="M 540,458.836 H 505" /><g
         transform="scale(10)"
         id="g114"><text
           id="text118"
           style="font-variant:normal;font-weight:normal;font-size:10px;font-family:Arial;-inkscape-font-specification:Arial;writing-mode:lr-tb;fill:#000000;fill-opacity:1;fill-rule:nonzero;stroke:none"
           transform="matrix(1,0,0,-1,40.6406,42.0867)"><tspan
             id="tspan116"
             y="0"
             x="0">0</tspan></text>
</g><path
         id="path120"
         style="fill:#000000;fill-opacity:1;fill-rule:nonzero;stroke:none"
         d="M 540,804.84 H 505" /><path
         id="path122"
         style="fill:none;stroke:#000000;stroke-width:8;stroke-linecap:butt;stroke-linejoin:round;stroke-miterlimit:10;stroke-dasharray:none;stroke-opacity:1"
         d="M 540,804.84 H 505" /><g
         transform="scale(10)"
         id="g124"><text
           id="text128"
           style="font-variant:normal;font-weight:normal;font-size:10px;font-family:Arial;-inkscape-font-specification:Arial;writing-mode:lr-tb;fill:#000000;fill-opacity:1;fill-rule:nonzero;stroke:none"
           transform="matrix(1,0,0,-1,34.2813,76.6871)"><tspan
             id="tspan126"
             y="0"
             x="0 6.3624992">20</tspan></text>
</g><path
         id="path130"
         style="fill:#000000;fill-opacity:1;fill-rule:nonzero;stroke:none"
         d="M 540,1150.85 H 505" /><path
         id="path132"
         style="fill:none;stroke:#000000;stroke-width:8;stroke-linecap:butt;stroke-linejoin:round;stroke-miterlimit:10;stroke-dasharray:none;stroke-opacity:1"
         d="M 540,1150.85 H 505" /><g
         transform="scale(10)"
         id="g134"><text
           id="text138"
           style="font-variant:normal;font-weight:normal;font-size:10px;font-family:Arial;-inkscape-font-specification:Arial;writing-mode:lr-tb;fill:#000000;fill-opacity:1;fill-rule:nonzero;stroke:none"
           transform="matrix(1,0,0,-1,34.2813,111.288)"><tspan
             id="tspan136"
             y="0"
             x="0 6.3624992">40</tspan></text>
</g><path
         id="path140"
         style="fill:#000000;fill-opacity:1;fill-rule:nonzero;stroke:none"
         d="M 540,1496.85 H 505" /><path
         id="path142"
         style="fill:none;stroke:#000000;stroke-width:8;stroke-linecap:butt;stroke-linejoin:round;stroke-miterlimit:10;stroke-dasharray:none;stroke-opacity:1"
         d="M 540,1496.85 H 505" /><g
         transform="scale(10)"
         id="g144"><text
           id="text148"
           style="font-variant:normal;font-weight:normal;font-size:10px;font-family:Arial;-inkscape-font-specification:Arial;writing-mode:lr-tb;fill:#000000;fill-opacity:1;fill-rule:nonzero;stroke:none"
           transform="matrix(1,0,0,-1,34.2813,145.888)"><tspan
             id="tspan146"
             y="0"
             x="0 6.3624992">60</tspan></text>
</g><path
         id="path150"
         style="fill:#000000;fill-opacity:1;fill-rule:nonzero;stroke:none"
         d="M 540,1842.86 H 505" /><path
         id="path152"
         style="fill:none;stroke:#000000;stroke-width:8;stroke-linecap:butt;stroke-linejoin:round;stroke-miterlimit:10;stroke-dasharray:none;stroke-opacity:1"
         d="M 540,1842.86 H 505" /><g
         transform="scale(10)"
         id="g154"><text
           id="text158"
           style="font-variant:normal;font-weight:normal;font-size:10px;font-family:Arial;-inkscape-font-specification:Arial;writing-mode:lr-tb;fill:#000000;fill-opacity:1;fill-rule:nonzero;stroke:none"
           transform="matrix(1,0,0,-1,34.2813,180.489)"><tspan
             id="tspan156"
             y="0"
             x="0 6.3624992">80</tspan></text>
</g><path
         id="path160"
         style="fill:#000000;fill-opacity:1;fill-rule:nonzero;stroke:none"
         d="M 540,2188.86 H 505" /><path
         id="path162"
         style="fill:none;stroke:#000000;stroke-width:8;stroke-linecap:butt;stroke-linejoin:round;stroke-miterlimit:10;stroke-dasharray:none;stroke-opacity:1"
         d="M 540,2188.86 H 505" /><g
         transform="scale(10)"
         id="g164"><text
           id="text168"
           style="font-variant:normal;font-weight:normal;font-size:10px;font-family:Arial;-inkscape-font-specification:Arial;writing-mode:lr-tb;fill:#000000;fill-opacity:1;fill-rule:nonzero;stroke:none"
           transform="matrix(1,0,0,-1,27.9219,215.089)"><tspan
             id="tspan166"
             y="0"
             x="0 6.3624992 12.724608">100</tspan></text>
</g><path
         id="path170"
         style="fill:#000000;fill-opacity:1;fill-rule:nonzero;stroke:none"
         d="M 540,2534.87 H 505" /><path
         id="path172"
         style="fill:none;stroke:#000000;stroke-width:8;stroke-linecap:butt;stroke-linejoin:round;stroke-miterlimit:10;stroke-dasharray:none;stroke-opacity:1"
         d="M 540,2534.87 H 505" /><g
         transform="scale(10)"
         id="g174"><text
           id="text178"
           style="font-variant:normal;font-weight:normal;font-size:10px;font-family:Arial;-inkscape-font-specification:Arial;writing-mode:lr-tb;fill:#000000;fill-opacity:1;fill-rule:nonzero;stroke:none"
           transform="matrix(1,0,0,-1,27.9219,249.69)"><tspan
             id="tspan176"
             y="0"
             x="0 6.3624992 12.724608">120</tspan></text>
<text
           id="text182"
           style="font-variant:normal;font-weight:normal;font-size:10px;font-family:Arial;-inkscape-font-specification:Arial;writing-mode:lr-tb;fill:#000000;fill-opacity:1;fill-rule:nonzero;stroke:none"
           transform="matrix(0,1,1,0,21.8438,135.556)"><tspan
             id="tspan180"
             y="0"
             x="0 6.0929713 12.210945">ToT</tspan></text>
</g><g
         id="g184"><g
           clip-path="url(#clipPath190)"
           id="g186"><path
             id="path192"
             style="fill:none;stroke:#67001f;stroke-width:15;stroke-linecap:square;stroke-linejoin:round;stroke-miterlimit:10;stroke-dasharray:none;stroke-opacity:1"
             d="m 3735.82,1399.63 -152.18,-101.21 -152.19,-130.79 -152.18,8.65 -152.18,-149.65 -152.18,-77.333 -152.18,31.66 L 2670.55,862.969 2518.36,754.496 2366.18,645.16 2214,644.297 l -152.18,-90.309 -152.18,28.547 -152.19,-71.797 -152.18,-33.043 -152.18,-18.859 -152.18,3.113 -152.18,-3.113 H 996.547 844.363 692.184" /><path
             id="path194"
             style="fill:none;stroke:#7f0823;stroke-width:15;stroke-linecap:square;stroke-linejoin:round;stroke-miterlimit:10;stroke-dasharray:none;stroke-opacity:1"
             d="m 3735.82,1404.12 -152.18,-1.03 -152.19,-143.43 -152.18,-29.06 -152.18,-63.66 L 2974.91,997.219 2822.73,954.66 2670.55,815.047 2518.36,788.754 2366.18,732.352 2214,610.215 l -152.18,-71.106 -152.18,13.149 -152.19,-61.762 -152.18,9.344 -152.18,-38.235 -152.18,-2.769 H 1148.73 996.547 844.363 692.184" /><path
             id="path196"
             style="fill:none;stroke:#960f26;stroke-width:15;stroke-linecap:square;stroke-linejoin:round;stroke-miterlimit:10;stroke-dasharray:none;stroke-opacity:1"
             d="m 3735.82,1461.39 -152.18,-120.07 -152.19,5.88 -152.18,-185.28 -152.18,-11.94 L 2974.91,1005.7 2822.73,964.176 2670.55,811.414 2518.36,798.266 2366.18,707.961 2214,702.77 2061.82,563.676 l -152.18,-31.141 -152.19,-30.621 -152.18,-36.848 -152.18,-6.23 -152.18,1.211 -152.18,-1.211 H 996.547 844.363 692.184" /><path
             id="path198"
             style="fill:none;stroke:#ae172a;stroke-width:15;stroke-linecap:square;stroke-linejoin:round;stroke-miterlimit:10;stroke-dasharray:none;stroke-opacity:1"
             d="m 3735.82,1424.71 -152.18,-23.87 -152.19,-70.07 -152.18,-80.45 -152.18,-243.76 -152.18,31.49 -152.18,-4.5 L 2670.55,875.254 2518.36,861.586 2366.18,724.223 2214,639.625 2061.82,597.066 1909.64,514.371 1757.45,510.047 1605.27,489.113 1453.09,462.125 1300.91,458.836 H 1148.73 996.547 844.363 692.184" /><path
             id="path200"
             style="fill:none;stroke:#bd2d35;stroke-width:15;stroke-linecap:square;stroke-linejoin:round;stroke-miterlimit:10;stroke-dasharray:none;stroke-opacity:1"
             d="m 3735.82,1459.48 -152.18,-93.77 -152.19,-71.96 -152.18,-77.86 -152.18,-56.05 L 2974.91,1007.95 2822.73,933.902 2670.55,894.805 2518.36,787.195 2366.18,748.617 2214,596.719 2061.82,611.598 1909.64,522.5 l -152.19,-36.156 -152.18,10.207 -152.18,-34.082 -152.18,0.519 -152.18,-4.152 H 996.547 844.363 692.184" /><path
             id="path202"
             style="fill:none;stroke:#c84440;stroke-width:15;stroke-linecap:square;stroke-linejoin:round;stroke-miterlimit:10;stroke-dasharray:none;stroke-opacity:1"
             d="m 3735.82,1523.15 -152.18,-92.38 -152.19,-142.73 -152.18,-31.32 -152.18,-84.59 -152.18,-103.29 -152.18,-121.789 -152.18,-120.41 -152.19,-6.922 -152.18,-118.852 -152.18,-56.226 -152.18,-6.918 -152.18,-94.981 -152.19,-57.781 -152.18,-15.918 -152.18,-10.207 -152.18,4.324 -152.18,-4.324 H 996.547 844.363 692.184" /><path
             id="path204"
             style="fill:none;stroke:#d35a4a;stroke-width:15;stroke-linecap:square;stroke-linejoin:round;stroke-miterlimit:10;stroke-dasharray:none;stroke-opacity:1"
             d="m 3735.82,1568.99 -152.18,-174.04 -152.19,-98.09 -152.18,-25.78 -152.18,-183.55 -152.18,-8.48 L 2822.73,989.09 2670.55,865.738 2518.36,773.699 2366.18,716.438 2214,662.289 2061.82,603.293 1909.64,535.129 1757.45,491.707 1605.27,460.914 1453.09,460.395 1300.91,458.836 H 1148.73 996.547 844.363 692.184" /><path
             id="path206"
             style="fill:none;stroke:#dd705a;stroke-width:15;stroke-linecap:square;stroke-linejoin:round;stroke-miterlimit:10;stroke-dasharray:none;stroke-opacity:1"
             d="m 3735.82,1515.71 -152.18,-153.63 -152.19,-36.67 -152.18,-88.75 -152.18,-135.29 -152.18,-90.83 -152.18,-73.696 -152.18,14.703 L 2518.36,751.559 2366.18,727.508 2214,641.875 2061.82,662.98 1909.64,554.508 l -152.19,-42.559 -152.18,-36.16 -152.18,-12.281 -152.18,-3.113 -152.18,-1.559 H 996.547 844.363 692.184" /><path
             id="path208"
             style="fill:none;stroke:#e8886c;stroke-width:15;stroke-linecap:square;stroke-linejoin:round;stroke-miterlimit:10;stroke-dasharray:none;stroke-opacity:1"
             d="M 3735.82,1460.18 3583.64,1378.86 3431.45,1310.88 3279.27,1205 3127.09,1170.39 2974.91,1043.07 2822.73,968.676 2670.55,873.523 2518.36,744.809 2366.18,773.008 2214,636.164 l -152.18,-32.523 -152.18,-88.75 -152.19,8.82 -152.18,-42.039 -152.18,-22.836 H 1300.91 1148.73 996.547 844.363 692.184" /><path
             id="path210"
             style="fill:none;stroke:#f19e7d;stroke-width:15;stroke-linecap:square;stroke-linejoin:round;stroke-miterlimit:10;stroke-dasharray:none;stroke-opacity:1"
             d="m 3735.82,1497.02 -152.18,-85.63 -152.19,-47.58 -152.18,-149.65 -152.18,-78.71 -152.18,18.51 L 2822.73,982.688 2670.55,959.16 2518.36,817.473 2366.18,754.496 2214,665.746 2061.82,567.137 1909.64,508.316 1757.45,508.141 1605.27,482.711 1453.09,458.836 H 1300.91 1148.73 996.547 844.363 692.184" /><path
             id="path212"
             style="fill:none;stroke:#f6b191;stroke-width:15;stroke-linecap:square;stroke-linejoin:round;stroke-miterlimit:10;stroke-dasharray:none;stroke-opacity:1"
             d="m 3735.82,1489.76 -152.18,-45.85 -152.19,-196.87 -152.18,-60.9 -152.18,-54.32 L 2974.91,1065.9 2822.73,939.266 2670.55,874.387 2518.36,830.445 2366.18,731.488 2214,735.121 2061.82,596.199 1909.64,543.953 1757.45,480.98 1605.27,474.926 1453.09,458.836 H 1300.91 1148.73 996.547 844.363 692.184" /><path
             id="path214"
             style="fill:none;stroke:#f9c2a6;stroke-width:15;stroke-linecap:square;stroke-linejoin:round;stroke-miterlimit:10;stroke-dasharray:none;stroke-opacity:1"
             d="m 3735.82,1482.15 -152.18,-44.12 -152.19,-86.33 -152.18,-106.22 -152.18,-87.71 -152.18,-49.66 -152.18,-105.7 L 2670.55,848.609 2518.36,847.227 2366.18,714.879 2214,703.637 2061.82,591.184 1909.64,519.387 1757.45,499.492 1605.27,482.363 1453.09,476.656 1300.91,458.836 H 1148.73 996.547 844.363 692.184" /><path
             id="path216"
             style="fill:none;stroke:#fcd5bf;stroke-width:15;stroke-linecap:square;stroke-linejoin:round;stroke-miterlimit:10;stroke-dasharray:none;stroke-opacity:1"
             d="m 3735.82,1523.67 -152.18,-107.78 -152.19,-55.54 -152.18,-88.92 -152.18,-83.22 -152.18,-114.35 -152.18,-13.84 L 2670.55,913.832 2518.36,811.59 2366.18,752.074 2214,666.785 2061.82,641.875 1909.64,531.324 1757.45,511.258 1605.27,468.18 l -152.18,-3.981 -152.18,-3.285 -152.18,-2.078 H 996.547 844.363 692.184" /><path
             id="path218"
             style="fill:none;stroke:#fce1d0;stroke-width:15;stroke-linecap:square;stroke-linejoin:round;stroke-miterlimit:10;stroke-dasharray:none;stroke-opacity:1"
             d="M 3735.82,1536.99 3583.64,1519.86 3431.45,1362.6 3279.27,1332.67 3127.09,1228.52 2974.91,1126.11 2822.73,1001.72 2670.55,960.199 2518.36,828.371 2366.18,734.777 2214,718.688 2061.82,613.5 1909.64,535.477 1757.45,519.734 1605.27,467.66 1453.09,458.836 H 1300.91 1148.73 996.547 844.363 692.184" /><path
             id="path220"
             style="fill:none;stroke:#fae9e0;stroke-width:15;stroke-linecap:square;stroke-linejoin:round;stroke-miterlimit:10;stroke-dasharray:none;stroke-opacity:1"
             d="m 3735.82,1554.63 -152.18,-80.79 -152.19,-84.94 -152.18,-38.41 -152.18,-77.85 -152.18,-96.01 -152.18,-88.24 -152.18,-86.84 L 2518.36,856.395 2366.18,725.605 2214,702.426 2061.82,624.918 1909.64,568.348 1757.45,480.289 1605.27,469.563 1453.09,463.16 1300.91,458.836 H 1148.73 996.547 844.363 692.184" /><path
             id="path222"
             style="fill:none;stroke:#f8f2ef;stroke-width:15;stroke-linecap:square;stroke-linejoin:round;stroke-miterlimit:10;stroke-dasharray:none;stroke-opacity:1"
             d="m 3735.82,1641.66 -152.18,-92.04 -152.19,-190.65 -152.18,-9 -152.18,-170.58 -152.18,-83.73 -152.18,-87.2 L 2670.55,971.617 2518.36,819.719 2366.18,760.035 2214,660.039 2061.82,631.148 1909.64,531.152 1757.45,496.898 1605.27,474.926 1453.09,458.836 H 1300.91 1148.73 996.547 844.363 692.184" /><path
             id="path224"
             style="fill:none;stroke:#f0f4f6;stroke-width:15;stroke-linecap:square;stroke-linejoin:round;stroke-miterlimit:10;stroke-dasharray:none;stroke-opacity:1"
             d="m 3735.82,1591.14 -152.18,-70.41 -152.19,-91.35 -152.18,-45.15 -152.18,-110.55 -152.18,-81.66 L 2822.73,1046.35 2670.55,944.801 2518.36,868.508 2366.18,792.387 2214,738.063 2061.82,620.941 l -152.18,-92.902 -152.19,-47.23 -152.18,-2.942 -152.18,-7.785 -152.18,-11.246 H 1148.73 996.547 844.363 692.184" /><path
             id="path226"
             style="fill:none;stroke:#e5eef4;stroke-width:15;stroke-linecap:square;stroke-linejoin:round;stroke-miterlimit:10;stroke-dasharray:none;stroke-opacity:1"
             d="m 3735.82,1720.72 -152.18,-29.07 -152.19,-154.14 -152.18,-80.1 -152.18,-80.97 -152.18,-171.96 -152.18,-120.59 -152.18,-34.08 L 2518.36,908.988 2366.18,835.98 2214,792.906 2061.82,705.539 1909.64,527.691 1757.45,500.355 1605.27,466.449 1453.09,458.836 H 1300.91 1148.73 996.547 844.363 692.184" /><path
             id="path228"
             style="fill:none;stroke:#d9e9f2;stroke-width:15;stroke-linecap:square;stroke-linejoin:round;stroke-miterlimit:10;stroke-dasharray:none;stroke-opacity:1"
             d="m 3735.82,1796.66 -152.18,-73.7 -152.19,-168.33 -152.18,-25.77 -152.18,-105.19 -152.18,-172.83 -152.18,-93.94 -152.18,-77.16 L 2518.36,938.227 2366.18,882.691 2214,706.059 2061.82,594.816 1909.64,589.973 1757.45,511.602 1605.27,492.055 1453.09,458.836 H 1300.91 1148.73 996.547 844.363 692.184" /><path
             id="path230"
             style="fill:none;stroke:#cae1ee;stroke-width:15;stroke-linecap:square;stroke-linejoin:round;stroke-miterlimit:10;stroke-dasharray:none;stroke-opacity:1"
             d="m 3735.82,1798.05 -152.18,-74.91 -152.19,-127.5 -152.18,-72.14 -152.18,-126.12 -152.18,-94.81 L 2822.73,1199.8 2670.55,1114.86 2518.36,954.316 2366.18,762.109 2214,704.328 2061.82,625.609 1909.64,591.703 1757.45,520.598 1605.27,483.23 l -152.18,-8.824 -152.18,-13.84 -152.18,-1.73 H 996.547 844.363 692.184" /><path
             id="path232"
             style="fill:none;stroke:#b3d6e8;stroke-width:15;stroke-linecap:square;stroke-linejoin:round;stroke-miterlimit:10;stroke-dasharray:none;stroke-opacity:1"
             d="m 3735.82,1847.53 -152.18,-89.27 -152.19,-150.34 -152.18,-109.86 -152.18,-51.2 -152.18,-151.04 -152.18,-139.44 -152.18,-6.92 L 2518.36,996.008 2366.18,861.934 2214,824.738 2061.82,691.871 1909.64,560.043 1757.45,542.914 1605.27,475.617 1453.09,458.836 H 1300.91 1148.73 996.547 844.363 692.184" /><path
             id="path234"
             style="fill:none;stroke:#a0cce2;stroke-width:15;stroke-linecap:square;stroke-linejoin:round;stroke-miterlimit:10;stroke-dasharray:none;stroke-opacity:1"
             d="m 3735.82,1886.45 -152.18,-149.82 -152.19,-129.92 -152.18,-24.22 -152.18,-89.96 -152.18,-143.08 -152.18,-174.04 -152.18,-71.62 -152.19,-79.93 L 2366.18,875.598 2214,747.23 2061.82,684.605 1909.64,584.262 l -152.19,-59.856 -152.18,-65.57 -152.18,4.5 -152.18,-4.5 H 1148.73 996.547 844.363 692.184" /><path
             id="path236"
             style="fill:none;stroke:#8ac0db;stroke-width:15;stroke-linecap:square;stroke-linejoin:round;stroke-miterlimit:10;stroke-dasharray:none;stroke-opacity:1"
             d="m 3735.82,1969.5 -152.18,-163.15 -152.19,-116.43 -152.18,-196.53 -152.18,-60.55 -152.18,-45.32 -152.18,-85.64 -152.18,-214.7 L 2518.36,941.34 2366.18,912.277 2214,763.84 2061.82,648.965 1909.64,540.32 l -152.19,-36.847 -152.18,-42.907 -152.18,4.5 -152.18,-6.23 H 1148.73 996.547 844.363 692.184" /><path
             id="path238"
             style="fill:none;stroke:#71b0d3;stroke-width:15;stroke-linecap:square;stroke-linejoin:round;stroke-miterlimit:10;stroke-dasharray:none;stroke-opacity:1"
             d="m 3735.82,1861.37 -152.18,-36.33 -152.19,-121.1 -152.18,-105.36 -152.18,-119.89 -152.18,-117.47 -152.18,-74.57 -152.18,-153.1 -152.19,-132 L 2366.18,897.227 2214,795.844 2061.82,733.738 1909.64,599.832 1757.45,498.109 1605.27,470.602 1453.09,464.027 1300.91,458.836 H 1148.73 996.547 844.363 692.184" /><path
             id="path240"
             style="fill:none;stroke:#569fc9;stroke-width:15;stroke-linecap:square;stroke-linejoin:round;stroke-miterlimit:10;stroke-dasharray:none;stroke-opacity:1"
             d="m 3735.82,1994.06 -152.18,-118.85 -152.19,-179.58 -152.18,-185.28 -152.18,6.05 -152.18,-148.26 -152.18,-114.87 -152.18,-79.59 L 2518.36,1044.63 2366.18,825.082 2214,828.715 2061.82,656.23 1909.64,591.184 1757.45,510.047 1605.27,490.148 1453.09,471.984 1300.91,458.836 H 1148.73 996.547 844.363 692.184" /><path
             id="path242"
             style="fill:none;stroke:#408fc1;stroke-width:15;stroke-linecap:square;stroke-linejoin:round;stroke-miterlimit:10;stroke-dasharray:none;stroke-opacity:1"
             d="m 3735.82,1926.42 -152.18,-30.8 -152.19,-66.43 -152.18,-213.66 -152.18,-100.86 -152.18,-55.36 -152.18,-151.55 -152.18,-127.5 -152.19,-96.02 L 2366.18,920.234 2214,808.648 2061.82,653.809 1909.64,566.789 1757.45,506.238 1605.27,474.234 1453.09,458.836 H 1300.91 1148.73 996.547 844.363 692.184" /><path
             id="path244"
             style="fill:none;stroke:#3681ba;stroke-width:15;stroke-linecap:square;stroke-linejoin:round;stroke-miterlimit:10;stroke-dasharray:none;stroke-opacity:1"
             d="m 3735.82,1954.1 -152.18,-98.27 -152.19,-57.26 -152.18,-170.41 -152.18,-99.48 -152.18,-158.98 -152.18,13.32 -152.18,-239.96 -152.19,-106.92 -152.18,-81.824 -152.18,-63.148 -152.18,-219.367 -152.18,-75.774 -152.19,-63.492 -152.18,-61.762 -152.18,-7.957 -152.18,-3.98 H 1148.73 996.547 844.363 692.184" /><path
             id="path246"
             style="fill:none;stroke:#2b73b3;stroke-width:15;stroke-linecap:square;stroke-linejoin:round;stroke-miterlimit:10;stroke-dasharray:none;stroke-opacity:1"
             d="m 3735.82,2014.13 -152.18,-114.01 -152.19,-33.91 -152.18,-98.26 -152.18,-174.04 -152.18,-229.06 -152.18,-53.97 -152.18,-58.83 L 2518.36,1034.41 2366.18,927.328 2214,841.172 2061.82,671.457 1909.64,578.555 1757.45,510.91 1605.27,468.352 1453.09,475.789 1300.91,458.836 H 1148.73 996.547 844.363 692.184" /><path
             id="path248"
             style="fill:none;stroke:#1f63a7;stroke-width:15;stroke-linecap:square;stroke-linejoin:round;stroke-miterlimit:10;stroke-dasharray:none;stroke-opacity:1"
             d="m 3735.82,2052.54 -152.18,-0.52 -152.19,-144.29 -152.18,-136.84 -152.18,-66.61 -152.18,-196.7 -152.18,-185.81 -152.18,-78.54 L 2518.36,1106.39 2366.18,966.426 2214,864.008 2061.82,705.363 l -152.18,-85.289 -152.19,-95.496 -152.18,-53.633 -152.18,-8.82 -152.18,-0.348 -152.18,-2.941 H 996.547 844.363 692.184" /><path
             id="path250"
             style="fill:none;stroke:#175290;stroke-width:15;stroke-linecap:square;stroke-linejoin:round;stroke-miterlimit:10;stroke-dasharray:none;stroke-opacity:1"
             d="m 3735.82,2195.44 -152.18,-125.43 -152.19,-91.52 -152.18,-176.98 -152.18,-124.05 -152.18,-147.05 -152.18,-78.37 -152.18,-132 -152.19,-188.05 -152.18,-38.93 L 2214,891.516 2061.82,708.48 1909.64,639.105 1757.45,518.176 1605.27,503.473 1453.09,463.16 1300.91,458.836 H 1148.73 996.547 844.363 692.184" /><path
             id="path252"
             style="fill:none;stroke:#0e4179;stroke-width:15;stroke-linecap:square;stroke-linejoin:round;stroke-miterlimit:10;stroke-dasharray:none;stroke-opacity:1"
             d="m 3735.82,2301.66 -152.18,-151.03 -152.19,-44.64 -152.18,-194.62 -152.18,-70.94 -152.18,-260.02 -152.18,-52.59 -152.18,-148.27 -152.19,-166.6 L 2366.18,1023.34 2214,896.531 2061.82,764.012 1909.64,651.387 1757.45,520.426 1605.27,477.52 1453.09,471.813 1300.91,458.836 H 1148.73 996.547 844.363 692.184" /><path
             id="path254"
             style="fill:none;stroke:#053061;stroke-width:15;stroke-linecap:square;stroke-linejoin:round;stroke-miterlimit:10;stroke-dasharray:none;stroke-opacity:1"
             d="M 3735.82,2435.56 3583.64,2261 3431.45,2182.63 3279.27,1955.66 3127.09,1835.42 2974.91,1683.87 2822.73,1604.11 2670.55,1429.38 2518.36,1337.17 2366.18,1050.5 2214,988.918 2061.82,695.852 l -152.18,-76.817 -152.19,-61.242 -152.18,-86.848 -152.18,-8.129 -152.18,-3.98 H 1148.73 996.547 844.363 692.184" /></g></g><path
         id="path256"
         style="fill:none;stroke:#000000;stroke-width:8;stroke-linecap:square;stroke-linejoin:miter;stroke-miterlimit:10;stroke-dasharray:none;stroke-opacity:1"
         d="M 540,360 V 2534.4" /><path
         id="path258"
         style="fill:none;stroke:#000000;stroke-width:8;stroke-linecap:square;stroke-linejoin:miter;stroke-miterlimit:10;stroke-dasharray:none;stroke-opacity:1"
         d="M 3888,360 V 2534.4" /><path
         id="path260"
         style="fill:none;stroke:#000000;stroke-width:8;stroke-linecap:square;stroke-linejoin:miter;stroke-miterlimit:10;stroke-dasharray:none;stroke-opacity:1"
         d="M 540,360 H 3888" /><path
         id="path262"
         style="fill:none;stroke:#000000;stroke-width:8;stroke-linecap:square;stroke-linejoin:miter;stroke-miterlimit:10;stroke-dasharray:none;stroke-opacity:1"
         d="M 540,2534.4 H 3888" /><g
         transform="scale(10)"
         id="g264"><text
           id="text268"
           style="font-variant:normal;font-weight:normal;font-size:12px;font-family:Arial;-inkscape-font-specification:Arial;writing-mode:lr-tb;fill:#000000;fill-opacity:1;fill-rule:nonzero;stroke:none"
           transform="matrix(1,0,0,-1,157.478,259.44)"><tspan
             id="tspan266"
             y="0"
             x="0 10.353522 17.73633 25.08984 31.341839 38.947311 43.880913 51.263718 62.953182 70.335991 77.941452 82.64653 86.460991 93.814499 101.41996 109.03716 112.85162 119.75396 123.08793">Measurement and Fit</tspan></text>
</g></g></g></svg>