<?xml version="1.0" encoding="UTF-8" standalone="no"?>
<svg
   xmlns:dc="http://purl.org/dc/elements/1.1/"
   xmlns:cc="http://creativecommons.org/ns#"
   xmlns:rdf="http://www.w3.org/1999/02/22-rdf-syntax-ns#"
   xmlns:svg="http://www.w3.org/2000/svg"
   xmlns="http://www.w3.org/2000/svg"
   viewBox="0 0 576 384"
   height="384"
   width="576"
   xml:space="preserve"
   id="svg2"
   version="1.1"><metadata
     id="metadata8"><rdf:RDF><cc:Work
         rdf:about=""><dc:format>image/svg+xml</dc:format><dc:type
           rdf:resource="http://purl.org/dc/dcmitype/StillImage" /></cc:Work></rdf:RDF></metadata><defs
     id="defs6"><clipPath
       id="clipPath200"
       clipPathUnits="userSpaceOnUse"><path
         id="path198"
         d="M 540,360 H 3888 V 2534 H 540 Z" /></clipPath></defs><g
     transform="matrix(1.3333333,0,0,-1.3333333,0,384)"
     id="g10"><g
       transform="scale(0.1)"
       id="g12"><path
         id="path14"
         style="fill:#ffffff;fill-opacity:1;fill-rule:nonzero;stroke:none"
         d="M 0,0 H 4320 V 2880 H 0 Z" /><path
         id="path16"
         style="fill:#ffffff;fill-opacity:1;fill-rule:nonzero;stroke:none"
         d="M 540,360 H 3888 V 2534.4 H 540 Z" /><path
         id="path18"
         style="fill:#000000;fill-opacity:1;fill-rule:nonzero;stroke:none"
         d="M 692.184,360 V 325" /><path
         id="path20"
         style="fill:none;stroke:#000000;stroke-width:8;stroke-linecap:butt;stroke-linejoin:round;stroke-miterlimit:10;stroke-dasharray:none;stroke-opacity:1"
         d="M 692.184,360 V 325" /><g
         transform="scale(10)"
         id="g22"><text
           id="text26"
           style="font-variant:normal;font-weight:normal;font-size:10px;font-family:Arial;-inkscape-font-specification:Arial;writing-mode:lr-tb;fill:#000000;fill-opacity:1;fill-rule:nonzero;stroke:none"
           transform="matrix(1,0,0,-1,53.898,21.4063)"><tspan
             id="tspan24"
             y="0"
             x="0 8.3789072 14.741019 21.103521 24.282038">−10.0</tspan></text>
</g><path
         id="path28"
         style="fill:#000000;fill-opacity:1;fill-rule:nonzero;stroke:none"
         d="M 1072.64,360 V 325" /><path
         id="path30"
         style="fill:none;stroke:#000000;stroke-width:8;stroke-linecap:butt;stroke-linejoin:round;stroke-miterlimit:10;stroke-dasharray:none;stroke-opacity:1"
         d="M 1072.64,360 V 325" /><g
         transform="scale(10)"
         id="g32"><text
           id="text36"
           style="font-variant:normal;font-weight:normal;font-size:10px;font-family:Arial;-inkscape-font-specification:Arial;writing-mode:lr-tb;fill:#000000;fill-opacity:1;fill-rule:nonzero;stroke:none"
           transform="matrix(1,0,0,-1,95.123,21.4063)"><tspan
             id="tspan34"
             y="0"
             x="0 8.3789015 14.741014 17.919914">−7.5</tspan></text>
</g><path
         id="path38"
         style="fill:#000000;fill-opacity:1;fill-rule:nonzero;stroke:none"
         d="M 1453.09,360 V 325" /><path
         id="path40"
         style="fill:none;stroke:#000000;stroke-width:8;stroke-linecap:butt;stroke-linejoin:round;stroke-miterlimit:10;stroke-dasharray:none;stroke-opacity:1"
         d="M 1453.09,360 V 325" /><g
         transform="scale(10)"
         id="g42"><text
           id="text46"
           style="font-variant:normal;font-weight:normal;font-size:10px;font-family:Arial;-inkscape-font-specification:Arial;writing-mode:lr-tb;fill:#000000;fill-opacity:1;fill-rule:nonzero;stroke:none"
           transform="matrix(1,0,0,-1,133.168,21.4063)"><tspan
             id="tspan44"
             y="0"
             x="0 8.3789015 14.741404 17.919914">−5.0</tspan></text>
</g><path
         id="path48"
         style="fill:#000000;fill-opacity:1;fill-rule:nonzero;stroke:none"
         d="M 1833.55,360 V 325" /><path
         id="path50"
         style="fill:none;stroke:#000000;stroke-width:8;stroke-linecap:butt;stroke-linejoin:round;stroke-miterlimit:10;stroke-dasharray:none;stroke-opacity:1"
         d="M 1833.55,360 V 325" /><g
         transform="scale(10)"
         id="g52"><text
           id="text56"
           style="font-variant:normal;font-weight:normal;font-size:10px;font-family:Arial;-inkscape-font-specification:Arial;writing-mode:lr-tb;fill:#000000;fill-opacity:1;fill-rule:nonzero;stroke:none"
           transform="matrix(1,0,0,-1,171.214,21.4063)"><tspan
             id="tspan54"
             y="0"
             x="0 8.3789015 14.741014 17.919914">−2.5</tspan></text>
</g><path
         id="path58"
         style="fill:#000000;fill-opacity:1;fill-rule:nonzero;stroke:none"
         d="M 2214,360 V 325" /><path
         id="path60"
         style="fill:none;stroke:#000000;stroke-width:8;stroke-linecap:butt;stroke-linejoin:round;stroke-miterlimit:10;stroke-dasharray:none;stroke-opacity:1"
         d="M 2214,360 V 325" /><g
         transform="scale(10)"
         id="g62"><text
           id="text66"
           style="font-variant:normal;font-weight:normal;font-size:10px;font-family:Arial;-inkscape-font-specification:Arial;writing-mode:lr-tb;fill:#000000;fill-opacity:1;fill-rule:nonzero;stroke:none"
           transform="matrix(1,0,0,-1,213.447,21.4063)"><tspan
             id="tspan64"
             y="0"
             x="0 6.3624902 9.5410013">0.0</tspan></text>
</g><path
         id="path68"
         style="fill:#000000;fill-opacity:1;fill-rule:nonzero;stroke:none"
         d="M 2594.45,360 V 325" /><path
         id="path70"
         style="fill:none;stroke:#000000;stroke-width:8;stroke-linecap:butt;stroke-linejoin:round;stroke-miterlimit:10;stroke-dasharray:none;stroke-opacity:1"
         d="M 2594.45,360 V 325" /><g
         transform="scale(10)"
         id="g72"><text
           id="text76"
           style="font-variant:normal;font-weight:normal;font-size:10px;font-family:Arial;-inkscape-font-specification:Arial;writing-mode:lr-tb;fill:#000000;fill-opacity:1;fill-rule:nonzero;stroke:none"
           transform="matrix(1,0,0,-1,251.492,21.4063)"><tspan
             id="tspan74"
             y="0"
             x="0 6.3624902 9.5410013">2.5</tspan></text>
</g><path
         id="path78"
         style="fill:#000000;fill-opacity:1;fill-rule:nonzero;stroke:none"
         d="M 2974.91,360 V 325" /><path
         id="path80"
         style="fill:none;stroke:#000000;stroke-width:8;stroke-linecap:butt;stroke-linejoin:round;stroke-miterlimit:10;stroke-dasharray:none;stroke-opacity:1"
         d="M 2974.91,360 V 325" /><g
         transform="scale(10)"
         id="g82"><text
           id="text86"
           style="font-variant:normal;font-weight:normal;font-size:10px;font-family:Arial;-inkscape-font-specification:Arial;writing-mode:lr-tb;fill:#000000;fill-opacity:1;fill-rule:nonzero;stroke:none"
           transform="matrix(1,0,0,-1,289.538,21.4063)"><tspan
             id="tspan84"
             y="0"
             x="0 6.3620996 9.5410013">5.0</tspan></text>
</g><path
         id="path88"
         style="fill:#000000;fill-opacity:1;fill-rule:nonzero;stroke:none"
         d="M 3355.36,360 V 325" /><path
         id="path90"
         style="fill:none;stroke:#000000;stroke-width:8;stroke-linecap:butt;stroke-linejoin:round;stroke-miterlimit:10;stroke-dasharray:none;stroke-opacity:1"
         d="M 3355.36,360 V 325" /><g
         transform="scale(10)"
         id="g92"><text
           id="text96"
           style="font-variant:normal;font-weight:normal;font-size:10px;font-family:Arial;-inkscape-font-specification:Arial;writing-mode:lr-tb;fill:#000000;fill-opacity:1;fill-rule:nonzero;stroke:none"
           transform="matrix(1,0,0,-1,327.583,21.4063)"><tspan
             id="tspan94"
             y="0"
             x="0 6.3624902 9.5410013">7.5</tspan></text>
</g><path
         id="path98"
         style="fill:#000000;fill-opacity:1;fill-rule:nonzero;stroke:none"
         d="M 3735.82,360 V 325" /><path
         id="path100"
         style="fill:none;stroke:#000000;stroke-width:8;stroke-linecap:butt;stroke-linejoin:round;stroke-miterlimit:10;stroke-dasharray:none;stroke-opacity:1"
         d="M 3735.82,360 V 325" /><g
         transform="scale(10)"
         id="g102"><text
           id="text108"
           style="font-variant:normal;font-weight:normal;font-size:10px;font-family:Arial;-inkscape-font-specification:Arial;writing-mode:lr-tb;fill:#000000;fill-opacity:1;fill-rule:nonzero;stroke:none"
           transform="matrix(1,0,0,-1,362.449,21.4063)"><tspan
             id="tspan104"
             y="0"
             x="0 6.3624902 12.72459 15.903491">10.0</tspan><tspan
             id="tspan106"
             y="13.6719"
             x="-173.564 -167.24564 -160.90775 -154.7554 -150.64409 -144.29643 -138.37845 -135.19955 -131.29839 -125.17027 -121.99175 -115.65385 -112.47495">Energy (a.u.)</tspan></text>
</g><path
         id="path110"
         style="fill:#000000;fill-opacity:1;fill-rule:nonzero;stroke:none"
         d="M 540,458.836 H 505" /><path
         id="path112"
         style="fill:none;stroke:#000000;stroke-width:8;stroke-linecap:butt;stroke-linejoin:round;stroke-miterlimit:10;stroke-dasharray:none;stroke-opacity:1"
         d="M 540,458.836 H 505" /><g
         transform="scale(10)"
         id="g114"><text
           id="text118"
           style="font-variant:normal;font-weight:normal;font-size:10px;font-family:Arial;-inkscape-font-specification:Arial;writing-mode:lr-tb;fill:#000000;fill-opacity:1;fill-rule:nonzero;stroke:none"
           transform="matrix(1,0,0,-1,40.6406,42.0867)"><tspan
             id="tspan116"
             y="0"
             x="0">0</tspan></text>
</g><path
         id="path120"
         style="fill:#000000;fill-opacity:1;fill-rule:nonzero;stroke:none"
         d="M 540,726.578 H 505" /><path
         id="path122"
         style="fill:none;stroke:#000000;stroke-width:8;stroke-linecap:butt;stroke-linejoin:round;stroke-miterlimit:10;stroke-dasharray:none;stroke-opacity:1"
         d="M 540,726.578 H 505" /><g
         transform="scale(10)"
         id="g124"><text
           id="text128"
           style="font-variant:normal;font-weight:normal;font-size:10px;font-family:Arial;-inkscape-font-specification:Arial;writing-mode:lr-tb;fill:#000000;fill-opacity:1;fill-rule:nonzero;stroke:none"
           transform="matrix(1,0,0,-1,34.2813,68.8609)"><tspan
             id="tspan126"
             y="0"
             x="0 6.3624992">10</tspan></text>
</g><path
         id="path130"
         style="fill:#000000;fill-opacity:1;fill-rule:nonzero;stroke:none"
         d="M 540,994.316 H 505" /><path
         id="path132"
         style="fill:none;stroke:#000000;stroke-width:8;stroke-linecap:butt;stroke-linejoin:round;stroke-miterlimit:10;stroke-dasharray:none;stroke-opacity:1"
         d="M 540,994.316 H 505" /><g
         transform="scale(10)"
         id="g134"><text
           id="text138"
           style="font-variant:normal;font-weight:normal;font-size:10px;font-family:Arial;-inkscape-font-specification:Arial;writing-mode:lr-tb;fill:#000000;fill-opacity:1;fill-rule:nonzero;stroke:none"
           transform="matrix(1,0,0,-1,34.2813,95.6348)"><tspan
             id="tspan136"
             y="0"
             x="0 6.3624992">20</tspan></text>
</g><path
         id="path140"
         style="fill:#000000;fill-opacity:1;fill-rule:nonzero;stroke:none"
         d="M 540,1262.06 H 505" /><path
         id="path142"
         style="fill:none;stroke:#000000;stroke-width:8;stroke-linecap:butt;stroke-linejoin:round;stroke-miterlimit:10;stroke-dasharray:none;stroke-opacity:1"
         d="M 540,1262.06 H 505" /><g
         transform="scale(10)"
         id="g144"><text
           id="text148"
           style="font-variant:normal;font-weight:normal;font-size:10px;font-family:Arial;-inkscape-font-specification:Arial;writing-mode:lr-tb;fill:#000000;fill-opacity:1;fill-rule:nonzero;stroke:none"
           transform="matrix(1,0,0,-1,34.2813,122.409)"><tspan
             id="tspan146"
             y="0"
             x="0 6.3624992">30</tspan></text>
</g><path
         id="path150"
         style="fill:#000000;fill-opacity:1;fill-rule:nonzero;stroke:none"
         d="M 540,1529.8 H 505" /><path
         id="path152"
         style="fill:none;stroke:#000000;stroke-width:8;stroke-linecap:butt;stroke-linejoin:round;stroke-miterlimit:10;stroke-dasharray:none;stroke-opacity:1"
         d="M 540,1529.8 H 505" /><g
         transform="scale(10)"
         id="g154"><text
           id="text158"
           style="font-variant:normal;font-weight:normal;font-size:10px;font-family:Arial;-inkscape-font-specification:Arial;writing-mode:lr-tb;fill:#000000;fill-opacity:1;fill-rule:nonzero;stroke:none"
           transform="matrix(1,0,0,-1,34.2813,149.183)"><tspan
             id="tspan156"
             y="0"
             x="0 6.3624992">40</tspan></text>
</g><path
         id="path160"
         style="fill:#000000;fill-opacity:1;fill-rule:nonzero;stroke:none"
         d="M 540,1797.54 H 505" /><path
         id="path162"
         style="fill:none;stroke:#000000;stroke-width:8;stroke-linecap:butt;stroke-linejoin:round;stroke-miterlimit:10;stroke-dasharray:none;stroke-opacity:1"
         d="M 540,1797.54 H 505" /><g
         transform="scale(10)"
         id="g164"><text
           id="text168"
           style="font-variant:normal;font-weight:normal;font-size:10px;font-family:Arial;-inkscape-font-specification:Arial;writing-mode:lr-tb;fill:#000000;fill-opacity:1;fill-rule:nonzero;stroke:none"
           transform="matrix(1,0,0,-1,34.2813,175.957)"><tspan
             id="tspan166"
             y="0"
             x="0 6.3624992">50</tspan></text>
</g><path
         id="path170"
         style="fill:#000000;fill-opacity:1;fill-rule:nonzero;stroke:none"
         d="M 540,2065.28 H 505" /><path
         id="path172"
         style="fill:none;stroke:#000000;stroke-width:8;stroke-linecap:butt;stroke-linejoin:round;stroke-miterlimit:10;stroke-dasharray:none;stroke-opacity:1"
         d="M 540,2065.28 H 505" /><g
         transform="scale(10)"
         id="g174"><text
           id="text178"
           style="font-variant:normal;font-weight:normal;font-size:10px;font-family:Arial;-inkscape-font-specification:Arial;writing-mode:lr-tb;fill:#000000;fill-opacity:1;fill-rule:nonzero;stroke:none"
           transform="matrix(1,0,0,-1,34.2813,202.731)"><tspan
             id="tspan176"
             y="0"
             x="0 6.3624992">60</tspan></text>
</g><path
         id="path180"
         style="fill:#000000;fill-opacity:1;fill-rule:nonzero;stroke:none"
         d="M 540,2333.02 H 505" /><path
         id="path182"
         style="fill:none;stroke:#000000;stroke-width:8;stroke-linecap:butt;stroke-linejoin:round;stroke-miterlimit:10;stroke-dasharray:none;stroke-opacity:1"
         d="M 540,2333.02 H 505" /><g
         transform="scale(10)"
         id="g184"><text
           id="text188"
           style="font-variant:normal;font-weight:normal;font-size:10px;font-family:Arial;-inkscape-font-specification:Arial;writing-mode:lr-tb;fill:#000000;fill-opacity:1;fill-rule:nonzero;stroke:none"
           transform="matrix(1,0,0,-1,34.2813,229.505)"><tspan
             id="tspan186"
             y="0"
             x="0 6.3624992">70</tspan></text>
<text
           id="text192"
           style="font-variant:normal;font-weight:normal;font-size:10px;font-family:Arial;-inkscape-font-specification:Arial;writing-mode:lr-tb;fill:#000000;fill-opacity:1;fill-rule:nonzero;stroke:none"
           transform="matrix(0,1,1,0,28.2031,135.556)"><tspan
             id="tspan190"
             y="0"
             x="0 6.0929713 12.210945">ToT</tspan></text>
</g><g
         id="g194"><g
           clip-path="url(#clipPath200)"
           id="g196"><path
             id="path202"
             style="fill:none;stroke:#67001f;stroke-width:15;stroke-linecap:square;stroke-linejoin:round;stroke-miterlimit:10;stroke-dasharray:none;stroke-opacity:1"
             d="m 3735.82,2005.57 -152.18,-171.35 -152.19,-85.14 -152.18,-131.46 -152.18,-136.28 -152.18,-221.96 -152.18,27.58 -152.18,-97.73 -152.19,-209.64 -152.18,-64.524 -152.18,-4.82 -152.18,-153.148 -152.18,-219.547 -152.19,-3.746 -152.18,-46.321 -152.18,-28.648 -152.18,1.605 -152.18,-1.605 H 996.547 844.363 692.184" /><path
             id="path204"
             style="fill:none;stroke:#7f0823;stroke-width:15;stroke-linecap:square;stroke-linejoin:round;stroke-miterlimit:10;stroke-dasharray:none;stroke-opacity:1"
             d="m 3735.82,1991.11 -152.18,-11.51 -152.19,-188.49 -152.18,-148.86 -152.18,-40.96 -152.18,-308.17 -152.18,93.17 -152.18,-339.23 -152.19,-1.6 L 2366.18,839.297 2214,780.66 2061.82,622.156 l -152.18,-92.902 -152.19,-12.586 -152.18,-42.57 -152.18,5.086 -152.18,-20.348 H 1148.73 996.547 844.363 692.184" /><path
             id="path206"
             style="fill:none;stroke:#960f26;stroke-width:15;stroke-linecap:square;stroke-linejoin:round;stroke-miterlimit:10;stroke-dasharray:none;stroke-opacity:1"
             d="m 3735.82,2030.47 -152.18,-133.33 -152.19,-147.53 -152.18,-88.35 -152.18,-199.74 -152.18,-79.25 -152.18,-121.28 -152.18,-107.9 L 2518.36,1081.6 2366.18,916.137 2214,791.102 l -152.18,-117.27 -152.18,-23.027 -152.19,-117 -152.18,-40.965 -152.18,-34.004 -152.18,2.41 -152.18,-2.41 H 996.547 844.363 692.184" /><path
             id="path208"
             style="fill:none;stroke:#ae172a;stroke-width:15;stroke-linecap:square;stroke-linejoin:round;stroke-miterlimit:10;stroke-dasharray:none;stroke-opacity:1"
             d="m 3735.82,2071.7 -152.18,-176.17 -152.19,-132.8 -152.18,-61.58 -152.18,-189.02 -152.18,-69.08 -152.18,-202.68 -152.18,-51.14 L 2518.36,984.145 2366.18,942.375 2214,727.379 2061.82,685.613 1909.64,545.586 1757.45,513.188 1605.27,458.836 H 1453.09 1300.91 1148.73 996.547 844.363 692.184" /><path
             id="path210"
             style="fill:none;stroke:#bd2d35;stroke-width:15;stroke-linecap:square;stroke-linejoin:round;stroke-miterlimit:10;stroke-dasharray:none;stroke-opacity:1"
             d="m 3735.82,2025.39 -152.18,-69.89 -152.19,-101.2 -152.18,-95.05 -152.18,-182.06 -152.18,-192.51 -152.18,-122.36 -152.18,29.19 L 2518.36,966.738 2366.18,857.77 2214,786.016 l -152.18,-3.75 -152.18,-220.082 -152.19,-6.426 -152.18,-76.305 -152.18,-10.711 -152.18,-8.031 -152.18,-1.875 H 996.547 844.363 692.184" /><path
             id="path212"
             style="fill:none;stroke:#c84440;stroke-width:15;stroke-linecap:square;stroke-linejoin:round;stroke-miterlimit:10;stroke-dasharray:none;stroke-opacity:1"
             d="m 3735.82,2067.15 -152.18,-147.26 -152.19,-77.1 -152.18,-169.22 -152.18,-124.5 -152.18,-138.42 -152.18,-162.78 -152.18,-111.12 -152.19,-93.7 L 2366.18,947.73 2214,760.313 2061.82,624.566 1909.64,585.746 1757.45,539.961 1605.27,491.5 1453.09,458.836 H 1300.91 1148.73 996.547 844.363 692.184" /><path
             id="path214"
             style="fill:none;stroke:#d35a4a;stroke-width:15;stroke-linecap:square;stroke-linejoin:round;stroke-miterlimit:10;stroke-dasharray:none;stroke-opacity:1"
             d="m 3735.82,2140.52 -152.18,-134.41 -152.19,-241.5 -152.18,-135.21 -152.18,-57.83 -152.18,-85.95 -152.18,-223.56 -152.18,3.74 L 2518.36,1055.09 2366.18,832.602 2214,852.684 2061.82,614.395 1909.64,568.074 1757.45,492.84 l -152.18,-25.438 -152.18,0.805 -152.18,-9.371 H 1148.73 996.547 844.363 692.184" /><path
             id="path216"
             style="fill:none;stroke:#dd705a;stroke-width:15;stroke-linecap:square;stroke-linejoin:round;stroke-miterlimit:10;stroke-dasharray:none;stroke-opacity:1"
             d="M 3735.82,2148.28 3583.64,1943.19 3431.45,1833.95 3279.27,1656.71 3127.09,1542.65 2974.91,1443.05 2822.73,1274.38 2670.55,1171.29 2518.36,960.582 2366.18,910.781 2214,638.758 2061.82,644.379 1909.64,556.828 1757.45,526.039 1605.27,493.105 1453.09,458.836 H 1300.91 1148.73 996.547 844.363 692.184" /><path
             id="path218"
             style="fill:none;stroke:#e8886c;stroke-width:15;stroke-linecap:square;stroke-linejoin:round;stroke-miterlimit:10;stroke-dasharray:none;stroke-opacity:1"
             d="m 3735.82,2102.23 -152.18,-99.6 -152.19,-110.31 -152.18,-159.57 -152.18,-170.29 -152.18,-127.17 -152.18,-95.32 -152.18,-91.03 -152.19,-271.491 -152.18,1.606 -152.18,-227.043 -152.18,-115.93 -152.18,-86.75 -152.19,-68.273 -152.18,-11.512 -152.18,-4.285 -152.18,-6.426 H 1148.73 996.547 844.363 692.184" /><path
             id="path220"
             style="fill:none;stroke:#f19e7d;stroke-width:15;stroke-linecap:square;stroke-linejoin:round;stroke-miterlimit:10;stroke-dasharray:none;stroke-opacity:1"
             d="M 3735.82,2142.12 3583.64,1943.46 3431.45,1875.45 3279.27,1720.16 3127.09,1654.57 2974.91,1526.32 2822.73,1302.75 2670.55,1200.21 2518.36,949.07 2366.18,890.168 2214,768.613 2061.82,678.117 1909.64,514.527 1757.45,488.824 1605.27,462.852 1453.09,458.836 H 1300.91 1148.73 996.547 844.363 692.184" /><path
             id="path222"
             style="fill:none;stroke:#f6b191;stroke-width:15;stroke-linecap:square;stroke-linejoin:round;stroke-miterlimit:10;stroke-dasharray:none;stroke-opacity:1"
             d="M 3735.82,2122.57 3583.64,1984.42 3431.45,1913.2 3279.27,1623.24 3127.09,1573.17 2974.91,1410.12 2822.73,1286.15 2670.55,1225.64 2518.36,975.844 2366.18,960.582 2214,722.828 2061.82,698.465 1909.64,580.926 1757.45,503.551 1605.27,475.973 1453.09,458.836 H 1300.91 1148.73 996.547 844.363 692.184" /><path
             id="path224"
             style="fill:none;stroke:#f9c2a6;stroke-width:15;stroke-linecap:square;stroke-linejoin:round;stroke-miterlimit:10;stroke-dasharray:none;stroke-opacity:1"
             d="M 3735.82,2072.51 3583.64,1965.14 3431.45,1823.51 3279.27,1729 3127.09,1526.85 2974.91,1447.87 2822.73,1226.18 2670.55,1160.05 2518.36,1105.16 2366.18,910.516 2214,755.227 2061.82,652.414 1909.64,624.301 1757.45,478.113 l -152.18,-9.101 -152.18,-5.891 -152.18,0.801 -152.18,-5.086 H 996.547 844.363 692.184" /><path
             id="path226"
             style="fill:none;stroke:#fcd5bf;stroke-width:15;stroke-linecap:square;stroke-linejoin:round;stroke-miterlimit:10;stroke-dasharray:none;stroke-opacity:1"
             d="m 3735.82,2097.41 -152.18,-124.23 -152.19,-166.27 -152.18,-184.74 -152.18,21.42 -152.18,-239.9 -152.18,-35.61 L 2670.55,1167.55 2518.36,994.051 2366.18,865.801 2214,802.348 2061.82,638.488 1909.64,529.52 1757.45,504.621 1605.27,490.699 1453.09,469.547 1300.91,458.836 H 1148.73 996.547 844.363 692.184" /><path
             id="path228"
             style="fill:none;stroke:#fce1d0;stroke-width:15;stroke-linecap:square;stroke-linejoin:round;stroke-miterlimit:10;stroke-dasharray:none;stroke-opacity:1"
             d="M 3735.82,2080.81 3583.64,2062.07 3431.45,1873.31 3279.27,1738.9 3127.09,1567.55 2974.91,1456.97 2822.73,1367.28 2670.55,1210.92 2518.36,1040.1 2366.18,939.164 2214,745.586 2061.82,619.48 1909.64,554.957 1757.45,524.969 1605.27,471.688 1453.09,469.813 1300.91,458.836 H 1148.73 996.547 844.363 692.184" /><path
             id="path230"
             style="fill:none;stroke:#fae9e0;stroke-width:15;stroke-linecap:square;stroke-linejoin:round;stroke-miterlimit:10;stroke-dasharray:none;stroke-opacity:1"
             d="M 3735.82,2234.49 3583.64,2028.33 3431.45,1887.5 3279.27,1792.18 3127.09,1626.45 2974.91,1550.95 2822.73,1323.1 2670.55,1164.87 2518.36,1081.6 2366.18,839.297 2214,733.004 2061.82,617.605 1909.64,516.938 1757.45,505.691 1605.27,458.836 H 1453.09 1300.91 1148.73 996.547 844.363 692.184" /><path
             id="path232"
             style="fill:none;stroke:#f8f2ef;stroke-width:15;stroke-linecap:square;stroke-linejoin:round;stroke-miterlimit:10;stroke-dasharray:none;stroke-opacity:1"
             d="m 3735.82,2126.86 -152.18,-21.15 -152.19,-190.37 -152.18,-204.82 -152.18,-70.68 -152.18,-99.33 -152.18,-215 L 2670.55,1203.96 2518.36,979.324 2366.18,918.547 2214,757.633 2061.82,617.605 1909.64,547.191 1757.45,492.305 1605.27,462.852 1453.09,458.836 H 1300.91 1148.73 996.547 844.363 692.184" /><path
             id="path234"
             style="fill:none;stroke:#f0f4f6;stroke-width:15;stroke-linecap:square;stroke-linejoin:round;stroke-miterlimit:10;stroke-dasharray:none;stroke-opacity:1"
             d="M 3735.82,2138.91 3583.64,2060.73 3431.45,1893.66 3279.27,1731.68 3127.09,1632.34 2974.91,1493.39 2822.73,1348.27 2670.55,1231.8 2518.36,979.324 2366.18,896.055 2214,787.621 2061.82,622.426 l -152.18,-72.559 -152.19,-45.781 -152.18,-41.77 -152.18,-3.48 H 1300.91 1148.73 996.547 844.363 692.184" /><path
             id="path236"
             style="fill:none;stroke:#e5eef4;stroke-width:15;stroke-linecap:square;stroke-linejoin:round;stroke-miterlimit:10;stroke-dasharray:none;stroke-opacity:1"
             d="M 3735.82,2299.82 3583.64,2165.95 3431.45,1969.96 3279.27,1802.63 3127.09,1674.11 2974.91,1474.38 2822.73,1374.24 2670.55,1203.16 2518.36,1045.99 2366.18,892.574 2214,765.398 2061.82,640.098 1909.64,532.734 1757.45,478.918 1605.27,466.602 1453.09,458.836 H 1300.91 1148.73 996.547 844.363 692.184" /><path
             id="path238"
             style="fill:none;stroke:#d9e9f2;stroke-width:15;stroke-linecap:square;stroke-linejoin:round;stroke-miterlimit:10;stroke-dasharray:none;stroke-opacity:1"
             d="M 3735.82,2274.12 3583.64,2065.28 3431.45,1968.36 3279.27,1856.98 3127.09,1684.29 2974.91,1486.96 2822.73,1334.88 2670.55,1193.79 2518.36,1001.01 2366.18,816.27 2214,758.172 2061.82,557.898 1909.64,546.387 1757.45,490.965 1605.27,470.082 1453.09,458.836 H 1300.91 1148.73 996.547 844.363 692.184" /><path
             id="path240"
             style="fill:none;stroke:#cae1ee;stroke-width:15;stroke-linecap:square;stroke-linejoin:round;stroke-miterlimit:10;stroke-dasharray:none;stroke-opacity:1"
             d="m 3735.82,2264.21 -152.18,-60.51 -152.19,-249 -152.18,-39.36 -152.18,-187.95 -152.18,-219.82 -152.18,-258.9 -152.18,-93.44 L 2518.36,1050.81 2366.18,850.809 2214,668.746 2061.82,587.887 1909.64,500.605 1757.45,466.602 1605.27,461.781 1453.09,458.836 H 1300.91 1148.73 996.547 844.363 692.184" /><path
             id="path242"
             style="fill:none;stroke:#b3d6e8;stroke-width:15;stroke-linecap:square;stroke-linejoin:round;stroke-miterlimit:10;stroke-dasharray:none;stroke-opacity:1"
             d="M 3735.82,2274.65 3583.64,2073.04 3431.45,1901.42 3279.27,1853.77 3127.09,1723.11 2974.91,1505.97 2822.73,1300.08 2670.55,1107.3 2518.36,919.617 2366.18,790.836 2214,655.895 2061.82,575.84 1909.64,490.965 1757.45,483.734 1605.27,458.836 H 1453.09 1300.91 1148.73 996.547 844.363 692.184" /><path
             id="path244"
             style="fill:none;stroke:#a0cce2;stroke-width:15;stroke-linecap:square;stroke-linejoin:round;stroke-miterlimit:10;stroke-dasharray:none;stroke-opacity:1"
             d="M 3735.82,2260.73 3583.64,2170.5 3431.45,1927.93 3279.27,1800.21 3127.09,1622.97 2974.91,1489.37 2822.73,1339.43 2670.55,1149.88 2518.36,893.109 2366.18,763.523 2214,679.453 2061.82,598.063 1909.64,477.848 1757.45,514.527 1605.27,458.836 H 1453.09 1300.91 1148.73 996.547 844.363 692.184" /><path
             id="path246"
             style="fill:none;stroke:#8ac0db;stroke-width:15;stroke-linecap:square;stroke-linejoin:round;stroke-miterlimit:10;stroke-dasharray:none;stroke-opacity:1"
             d="m 3735.82,2264.75 -152.18,-84.34 -152.19,-183.14 -152.18,-284.34 -152.18,-59.7 -152.18,-166.8 L 2822.73,1300.08 2670.55,1138.36 2518.36,956.566 2366.18,802.883 2214,708.637 2061.82,546.121 1909.64,487.219 1757.45,476.508 1605.27,464.727 1453.09,458.836 H 1300.91 1148.73 996.547 844.363 692.184" /><path
             id="path248"
             style="fill:none;stroke:#71b0d3;stroke-width:15;stroke-linecap:square;stroke-linejoin:round;stroke-miterlimit:10;stroke-dasharray:none;stroke-opacity:1"
             d="m 3735.82,2288.84 -152.18,-90.23 -152.19,-162.78 -152.18,-134.68 -152.18,-244.44 -152.18,-39.9 L 2822.73,1267.68 2670.55,1066.61 2518.36,897.395 2366.18,839.297 2214,650.805 2061.82,564.863 1909.64,498.461 1757.45,467.941 1605.27,458.836 H 1453.09 1300.91 1148.73 996.547 844.363 692.184" /><path
             id="path250"
             style="fill:none;stroke:#569fc9;stroke-width:15;stroke-linecap:square;stroke-linejoin:round;stroke-miterlimit:10;stroke-dasharray:none;stroke-opacity:1"
             d="m 3735.82,2364.61 -152.18,-301.47 -152.19,1.87 -152.18,-147.26 -152.18,-249 -152.18,-116.2 -152.18,-284.87 -152.18,-175.91 -152.19,-93.168 -152.18,-119.95 -152.18,-208.3 -152.18,-102.813 -152.18,-2.41 -152.19,-78.18 -152.18,-28.113 H 1453.09 1300.91 1148.73 996.547 844.363 692.184" /><path
             id="path252"
             style="fill:none;stroke:#408fc1;stroke-width:15;stroke-linecap:square;stroke-linejoin:round;stroke-miterlimit:10;stroke-dasharray:none;stroke-opacity:1"
             d="m 3735.82,2276.53 -152.18,-87.29 -152.19,-35.61 -152.18,-296.92 -152.18,-153.68 -152.18,-202.15 -152.18,-89.69 L 2670.55,1300.34 2518.36,876.512 2366.18,707.301 2214,566.199 2061.82,553.082 1909.64,506.762 1757.45,458.836 H 1605.27 1453.09 1300.91 1148.73 996.547 844.363 692.184" /><path
             id="path254"
             style="fill:none;stroke:#3681ba;stroke-width:15;stroke-linecap:square;stroke-linejoin:round;stroke-miterlimit:10;stroke-dasharray:none;stroke-opacity:1"
             d="M 3735.82,2428.34 3583.64,2256.45 3431.45,2037.43 3279.27,1904.63 3127.09,1711.06 2974.91,1527.92 2822.73,1324.98 2670.55,1209.31 2518.36,937.289 2366.18,863.926 2214,637.688 2061.82,499.266 1909.64,484.004 1757.45,458.836 H 1605.27 1453.09 1300.91 1148.73 996.547 844.363 692.184" /><path
             id="path256"
             style="fill:none;stroke:#2b73b3;stroke-width:15;stroke-linecap:square;stroke-linejoin:round;stroke-miterlimit:10;stroke-dasharray:none;stroke-opacity:1"
             d="m 3735.82,2290.71 -152.18,-126.1 -152.19,-76.04 -152.18,-213.92 -152.18,-201.08 -152.18,-178.85 -152.18,-243.91 -152.18,-175.9 L 2518.36,877.582 2366.18,704.355 2214,583.602 2061.82,546.387 1909.64,513.188 1757.45,474.098 1605.27,458.836 H 1453.09 1300.91 1148.73 996.547 844.363 692.184" /><path
             id="path258"
             style="fill:none;stroke:#1f63a7;stroke-width:15;stroke-linecap:square;stroke-linejoin:round;stroke-miterlimit:10;stroke-dasharray:none;stroke-opacity:1"
             d="m 3735.82,2259.66 -152.18,-107.1 -152.19,-175.37 -152.18,-185.01 -152.18,-121.02 -152.18,-246.85 -152.18,-81.13 -152.18,-280.32 -152.19,-231.063 -152.18,-187.684 -152.18,-12.05 -152.18,-87.282 -152.18,-81.66 -152.19,-4.285 -152.18,6.426 -152.18,-6.426 H 1300.91 1148.73 996.547 844.363 692.184" /><path
             id="path260"
             style="fill:none;stroke:#175290;stroke-width:15;stroke-linecap:square;stroke-linejoin:round;stroke-miterlimit:10;stroke-dasharray:none;stroke-opacity:1"
             d="M 3735.82,2331.95 3583.64,2203.7 3431.45,2119.9 3279.27,1904.1 3127.09,1757.64 2974.91,1453.49 2822.73,1278.39 2670.55,1164.33 2518.36,751.477 2366.18,709.711 2214,573.43 2061.82,496.051 1909.64,460.977 1757.45,458.836 H 1605.27 1453.09 1300.91 1148.73 996.547 844.363 692.184" /><path
             id="path262"
             style="fill:none;stroke:#0e4179;stroke-width:15;stroke-linecap:square;stroke-linejoin:round;stroke-miterlimit:10;stroke-dasharray:none;stroke-opacity:1"
             d="m 3735.82,2435.56 -152.18,-59.17 -152.19,-235.87 -152.18,-211.79 -152.18,-273.9 -152.18,-77.11 L 2822.73,1310.25 2670.55,968.613 2518.36,891.238 2366.18,629.922 2214,577.98 2061.82,472.492 1909.64,464.457 1757.45,458.836 H 1605.27 1453.09 1300.91 1148.73 996.547 844.363 692.184" /><path
             id="path264"
             style="fill:none;stroke:#053061;stroke-width:15;stroke-linecap:square;stroke-linejoin:round;stroke-miterlimit:10;stroke-dasharray:none;stroke-opacity:1"
             d="M 3735.82,2281.08 3583.64,2173.71 3431.45,1972.37 3279.27,1806.38 3127.09,1574.51 2974.91,1283.75 2822.73,1057.77 2670.55,821.09 2518.36,679.723 2366.18,553.082 2214,493.105 2061.82,458.836 H 1909.64 1757.45 1605.27 1453.09 1300.91 1148.73 996.547 844.363 692.184" /></g></g><path
         id="path266"
         style="fill:none;stroke:#000000;stroke-width:8;stroke-linecap:square;stroke-linejoin:miter;stroke-miterlimit:10;stroke-dasharray:none;stroke-opacity:1"
         d="M 540,360 V 2534.4" /><path
         id="path268"
         style="fill:none;stroke:#000000;stroke-width:8;stroke-linecap:square;stroke-linejoin:miter;stroke-miterlimit:10;stroke-dasharray:none;stroke-opacity:1"
         d="M 3888,360 V 2534.4" /><path
         id="path270"
         style="fill:none;stroke:#000000;stroke-width:8;stroke-linecap:square;stroke-linejoin:miter;stroke-miterlimit:10;stroke-dasharray:none;stroke-opacity:1"
         d="M 540,360 H 3888" /><path
         id="path272"
         style="fill:none;stroke:#000000;stroke-width:8;stroke-linecap:square;stroke-linejoin:miter;stroke-miterlimit:10;stroke-dasharray:none;stroke-opacity:1"
         d="M 540,2534.4 H 3888" /><g
         transform="scale(10)"
         id="g274"><text
           id="text278"
           style="font-variant:normal;font-weight:normal;font-size:12px;font-family:Arial;-inkscape-font-specification:Arial;writing-mode:lr-tb;fill:#000000;fill-opacity:1;fill-rule:nonzero;stroke:none"
           transform="matrix(1,0,0,-1,157.478,259.44)"><tspan
             id="tspan276"
             y="0"
             x="0 10.353522 17.73633 25.08984 31.341839 38.947311 43.880913 51.263718 62.953182 70.335991 77.941452 82.64653 86.460991 93.814499 101.41996 109.03716 112.85162 119.75396 123.08793">Measurement and Fit</tspan></text>
</g></g></g></svg>