<?xml version="1.0" encoding="utf-8" standalone="no"?>
<!DOCTYPE svg PUBLIC "-//W3C//DTD SVG 1.1//EN"
  "http://www.w3.org/Graphics/SVG/1.1/DTD/svg11.dtd">
<!-- Created with matplotlib (http://matplotlib.org/) -->
<svg height="345.6pt" version="1.1" viewBox="0 0 460.8 345.6" width="460.8pt" xmlns="http://www.w3.org/2000/svg" xmlns:xlink="http://www.w3.org/1999/xlink">
 <defs>
  <style type="text/css">
*{stroke-linecap:butt;stroke-linejoin:round;}
  </style>
 </defs>
 <g id="figure_1">
  <g id="patch_1">
   <path d="M 0 345.6 
L 460.8 345.6 
L 460.8 0 
L 0 0 
z
" style="fill:#ffffff;"/>
  </g>
  <g id="axes_1">
   <g id="patch_2">
    <path d="M 57.6 222.912 
L 414.72 222.912 
L 414.72 41.472 
L 57.6 41.472 
z
" style="fill:#ffffff;"/>
   </g>
   <g id="matplotlib.axis_1">
    <g id="xtick_1">
     <g id="line2d_1">
      <defs>
       <path d="M 0 0 
L 0 3.5 
" id="m1a4bd6e4d0" style="stroke:#000000;stroke-width:0.8;"/>
      </defs>
      <g>
       <use style="stroke:#000000;stroke-width:0.8;" x="73.832727" xlink:href="#m1a4bd6e4d0" y="222.912"/>
      </g>
     </g>
     <g id="text_1">
      <!-- 40 -->
      <defs>
       <path d="M 37.796875 64.3125 
L 12.890625 25.390625 
L 37.796875 25.390625 
z
M 35.203125 72.90625 
L 47.609375 72.90625 
L 47.609375 25.390625 
L 58.015625 25.390625 
L 58.015625 17.1875 
L 47.609375 17.1875 
L 47.609375 0 
L 37.796875 0 
L 37.796875 17.1875 
L 4.890625 17.1875 
L 4.890625 26.703125 
z
" id="DejaVuSans-34"/>
       <path d="M 31.78125 66.40625 
Q 24.171875 66.40625 20.328125 58.90625 
Q 16.5 51.421875 16.5 36.375 
Q 16.5 21.390625 20.328125 13.890625 
Q 24.171875 6.390625 31.78125 6.390625 
Q 39.453125 6.390625 43.28125 13.890625 
Q 47.125 21.390625 47.125 36.375 
Q 47.125 51.421875 43.28125 58.90625 
Q 39.453125 66.40625 31.78125 66.40625 
z
M 31.78125 74.21875 
Q 44.046875 74.21875 50.515625 64.515625 
Q 56.984375 54.828125 56.984375 36.375 
Q 56.984375 17.96875 50.515625 8.265625 
Q 44.046875 -1.421875 31.78125 -1.421875 
Q 19.53125 -1.421875 13.0625 8.265625 
Q 6.59375 17.96875 6.59375 36.375 
Q 6.59375 54.828125 13.0625 64.515625 
Q 19.53125 74.21875 31.78125 74.21875 
z
" id="DejaVuSans-30"/>
      </defs>
      <g transform="translate(67.470227 237.510437)scale(0.1 -0.1)">
       <use xlink:href="#DejaVuSans-34"/>
       <use x="63.623047" xlink:href="#DejaVuSans-30"/>
      </g>
     </g>
    </g>
    <g id="xtick_2">
     <g id="line2d_2">
      <g>
       <use style="stroke:#000000;stroke-width:0.8;" x="139.596084" xlink:href="#m1a4bd6e4d0" y="222.912"/>
      </g>
     </g>
     <g id="text_2">
      <!-- 45 -->
      <defs>
       <path d="M 10.796875 72.90625 
L 49.515625 72.90625 
L 49.515625 64.59375 
L 19.828125 64.59375 
L 19.828125 46.734375 
Q 21.96875 47.46875 24.109375 47.828125 
Q 26.265625 48.1875 28.421875 48.1875 
Q 40.625 48.1875 47.75 41.5 
Q 54.890625 34.8125 54.890625 23.390625 
Q 54.890625 11.625 47.5625 5.09375 
Q 40.234375 -1.421875 26.90625 -1.421875 
Q 22.3125 -1.421875 17.546875 -0.640625 
Q 12.796875 0.140625 7.71875 1.703125 
L 7.71875 11.625 
Q 12.109375 9.234375 16.796875 8.0625 
Q 21.484375 6.890625 26.703125 6.890625 
Q 35.15625 6.890625 40.078125 11.328125 
Q 45.015625 15.765625 45.015625 23.390625 
Q 45.015625 31 40.078125 35.4375 
Q 35.15625 39.890625 26.703125 39.890625 
Q 22.75 39.890625 18.8125 39.015625 
Q 14.890625 38.140625 10.796875 36.28125 
z
" id="DejaVuSans-35"/>
      </defs>
      <g transform="translate(133.233584 237.510437)scale(0.1 -0.1)">
       <use xlink:href="#DejaVuSans-34"/>
       <use x="63.623047" xlink:href="#DejaVuSans-35"/>
      </g>
     </g>
    </g>
    <g id="xtick_3">
     <g id="line2d_3">
      <g>
       <use style="stroke:#000000;stroke-width:0.8;" x="205.359441" xlink:href="#m1a4bd6e4d0" y="222.912"/>
      </g>
     </g>
     <g id="text_3">
      <!-- 50 -->
      <g transform="translate(198.996941 237.510437)scale(0.1 -0.1)">
       <use xlink:href="#DejaVuSans-35"/>
       <use x="63.623047" xlink:href="#DejaVuSans-30"/>
      </g>
     </g>
    </g>
    <g id="xtick_4">
     <g id="line2d_4">
      <g>
       <use style="stroke:#000000;stroke-width:0.8;" x="271.122797" xlink:href="#m1a4bd6e4d0" y="222.912"/>
      </g>
     </g>
     <g id="text_4">
      <!-- 55 -->
      <g transform="translate(264.760297 237.510437)scale(0.1 -0.1)">
       <use xlink:href="#DejaVuSans-35"/>
       <use x="63.623047" xlink:href="#DejaVuSans-35"/>
      </g>
     </g>
    </g>
    <g id="xtick_5">
     <g id="line2d_5">
      <g>
       <use style="stroke:#000000;stroke-width:0.8;" x="336.886154" xlink:href="#m1a4bd6e4d0" y="222.912"/>
      </g>
     </g>
     <g id="text_5">
      <!-- 60 -->
      <defs>
       <path d="M 33.015625 40.375 
Q 26.375 40.375 22.484375 35.828125 
Q 18.609375 31.296875 18.609375 23.390625 
Q 18.609375 15.53125 22.484375 10.953125 
Q 26.375 6.390625 33.015625 6.390625 
Q 39.65625 6.390625 43.53125 10.953125 
Q 47.40625 15.53125 47.40625 23.390625 
Q 47.40625 31.296875 43.53125 35.828125 
Q 39.65625 40.375 33.015625 40.375 
z
M 52.59375 71.296875 
L 52.59375 62.3125 
Q 48.875 64.0625 45.09375 64.984375 
Q 41.3125 65.921875 37.59375 65.921875 
Q 27.828125 65.921875 22.671875 59.328125 
Q 17.53125 52.734375 16.796875 39.40625 
Q 19.671875 43.65625 24.015625 45.921875 
Q 28.375 48.1875 33.59375 48.1875 
Q 44.578125 48.1875 50.953125 41.515625 
Q 57.328125 34.859375 57.328125 23.390625 
Q 57.328125 12.15625 50.6875 5.359375 
Q 44.046875 -1.421875 33.015625 -1.421875 
Q 20.359375 -1.421875 13.671875 8.265625 
Q 6.984375 17.96875 6.984375 36.375 
Q 6.984375 53.65625 15.1875 63.9375 
Q 23.390625 74.21875 37.203125 74.21875 
Q 40.921875 74.21875 44.703125 73.484375 
Q 48.484375 72.75 52.59375 71.296875 
z
" id="DejaVuSans-36"/>
      </defs>
      <g transform="translate(330.523654 237.510437)scale(0.1 -0.1)">
       <use xlink:href="#DejaVuSans-36"/>
       <use x="63.623047" xlink:href="#DejaVuSans-30"/>
      </g>
     </g>
    </g>
    <g id="xtick_6">
     <g id="line2d_6">
      <g>
       <use style="stroke:#000000;stroke-width:0.8;" x="402.64951" xlink:href="#m1a4bd6e4d0" y="222.912"/>
      </g>
     </g>
     <g id="text_6">
      <!-- 65 -->
      <g transform="translate(396.28701 237.510437)scale(0.1 -0.1)">
       <use xlink:href="#DejaVuSans-36"/>
       <use x="63.623047" xlink:href="#DejaVuSans-35"/>
      </g>
     </g>
    </g>
   </g>
   <g id="matplotlib.axis_2">
    <g id="ytick_1">
     <g id="line2d_7">
      <defs>
       <path d="M 0 0 
L -3.5 0 
" id="m583d3302e7" style="stroke:#000000;stroke-width:0.8;"/>
      </defs>
      <g>
       <use style="stroke:#000000;stroke-width:0.8;" x="57.6" xlink:href="#m583d3302e7" y="214.664727"/>
      </g>
     </g>
     <g id="text_7">
      <!-- 0 -->
      <g transform="translate(44.2375 218.463946)scale(0.1 -0.1)">
       <use xlink:href="#DejaVuSans-30"/>
      </g>
     </g>
    </g>
    <g id="ytick_2">
     <g id="line2d_8">
      <g>
       <use style="stroke:#000000;stroke-width:0.8;" x="57.6" xlink:href="#m583d3302e7" y="186.169356"/>
      </g>
     </g>
     <g id="text_8">
      <!-- 20000 -->
      <defs>
       <path d="M 19.1875 8.296875 
L 53.609375 8.296875 
L 53.609375 0 
L 7.328125 0 
L 7.328125 8.296875 
Q 12.9375 14.109375 22.625 23.890625 
Q 32.328125 33.6875 34.8125 36.53125 
Q 39.546875 41.84375 41.421875 45.53125 
Q 43.3125 49.21875 43.3125 52.78125 
Q 43.3125 58.59375 39.234375 62.25 
Q 35.15625 65.921875 28.609375 65.921875 
Q 23.96875 65.921875 18.8125 64.3125 
Q 13.671875 62.703125 7.8125 59.421875 
L 7.8125 69.390625 
Q 13.765625 71.78125 18.9375 73 
Q 24.125 74.21875 28.421875 74.21875 
Q 39.75 74.21875 46.484375 68.546875 
Q 53.21875 62.890625 53.21875 53.421875 
Q 53.21875 48.921875 51.53125 44.890625 
Q 49.859375 40.875 45.40625 35.40625 
Q 44.1875 33.984375 37.640625 27.21875 
Q 31.109375 20.453125 19.1875 8.296875 
z
" id="DejaVuSans-32"/>
      </defs>
      <g transform="translate(18.7875 189.968575)scale(0.1 -0.1)">
       <use xlink:href="#DejaVuSans-32"/>
       <use x="63.623047" xlink:href="#DejaVuSans-30"/>
       <use x="127.246094" xlink:href="#DejaVuSans-30"/>
       <use x="190.869141" xlink:href="#DejaVuSans-30"/>
       <use x="254.492188" xlink:href="#DejaVuSans-30"/>
      </g>
     </g>
    </g>
    <g id="ytick_3">
     <g id="line2d_9">
      <g>
       <use style="stroke:#000000;stroke-width:0.8;" x="57.6" xlink:href="#m583d3302e7" y="157.673985"/>
      </g>
     </g>
     <g id="text_9">
      <!-- 40000 -->
      <g transform="translate(18.7875 161.473204)scale(0.1 -0.1)">
       <use xlink:href="#DejaVuSans-34"/>
       <use x="63.623047" xlink:href="#DejaVuSans-30"/>
       <use x="127.246094" xlink:href="#DejaVuSans-30"/>
       <use x="190.869141" xlink:href="#DejaVuSans-30"/>
       <use x="254.492188" xlink:href="#DejaVuSans-30"/>
      </g>
     </g>
    </g>
    <g id="ytick_4">
     <g id="line2d_10">
      <g>
       <use style="stroke:#000000;stroke-width:0.8;" x="57.6" xlink:href="#m583d3302e7" y="129.178615"/>
      </g>
     </g>
     <g id="text_10">
      <!-- 60000 -->
      <g transform="translate(18.7875 132.977833)scale(0.1 -0.1)">
       <use xlink:href="#DejaVuSans-36"/>
       <use x="63.623047" xlink:href="#DejaVuSans-30"/>
       <use x="127.246094" xlink:href="#DejaVuSans-30"/>
       <use x="190.869141" xlink:href="#DejaVuSans-30"/>
       <use x="254.492188" xlink:href="#DejaVuSans-30"/>
      </g>
     </g>
    </g>
    <g id="ytick_5">
     <g id="line2d_11">
      <g>
       <use style="stroke:#000000;stroke-width:0.8;" x="57.6" xlink:href="#m583d3302e7" y="100.683244"/>
      </g>
     </g>
     <g id="text_11">
      <!-- 80000 -->
      <defs>
       <path d="M 31.78125 34.625 
Q 24.75 34.625 20.71875 30.859375 
Q 16.703125 27.09375 16.703125 20.515625 
Q 16.703125 13.921875 20.71875 10.15625 
Q 24.75 6.390625 31.78125 6.390625 
Q 38.8125 6.390625 42.859375 10.171875 
Q 46.921875 13.96875 46.921875 20.515625 
Q 46.921875 27.09375 42.890625 30.859375 
Q 38.875 34.625 31.78125 34.625 
z
M 21.921875 38.8125 
Q 15.578125 40.375 12.03125 44.71875 
Q 8.5 49.078125 8.5 55.328125 
Q 8.5 64.0625 14.71875 69.140625 
Q 20.953125 74.21875 31.78125 74.21875 
Q 42.671875 74.21875 48.875 69.140625 
Q 55.078125 64.0625 55.078125 55.328125 
Q 55.078125 49.078125 51.53125 44.71875 
Q 48 40.375 41.703125 38.8125 
Q 48.828125 37.15625 52.796875 32.3125 
Q 56.78125 27.484375 56.78125 20.515625 
Q 56.78125 9.90625 50.3125 4.234375 
Q 43.84375 -1.421875 31.78125 -1.421875 
Q 19.734375 -1.421875 13.25 4.234375 
Q 6.78125 9.90625 6.78125 20.515625 
Q 6.78125 27.484375 10.78125 32.3125 
Q 14.796875 37.15625 21.921875 38.8125 
z
M 18.3125 54.390625 
Q 18.3125 48.734375 21.84375 45.5625 
Q 25.390625 42.390625 31.78125 42.390625 
Q 38.140625 42.390625 41.71875 45.5625 
Q 45.3125 48.734375 45.3125 54.390625 
Q 45.3125 60.0625 41.71875 63.234375 
Q 38.140625 66.40625 31.78125 66.40625 
Q 25.390625 66.40625 21.84375 63.234375 
Q 18.3125 60.0625 18.3125 54.390625 
z
" id="DejaVuSans-38"/>
      </defs>
      <g transform="translate(18.7875 104.482462)scale(0.1 -0.1)">
       <use xlink:href="#DejaVuSans-38"/>
       <use x="63.623047" xlink:href="#DejaVuSans-30"/>
       <use x="127.246094" xlink:href="#DejaVuSans-30"/>
       <use x="190.869141" xlink:href="#DejaVuSans-30"/>
       <use x="254.492188" xlink:href="#DejaVuSans-30"/>
      </g>
     </g>
    </g>
    <g id="ytick_6">
     <g id="line2d_12">
      <g>
       <use style="stroke:#000000;stroke-width:0.8;" x="57.6" xlink:href="#m583d3302e7" y="72.187873"/>
      </g>
     </g>
     <g id="text_12">
      <!-- 100000 -->
      <defs>
       <path d="M 12.40625 8.296875 
L 28.515625 8.296875 
L 28.515625 63.921875 
L 10.984375 60.40625 
L 10.984375 69.390625 
L 28.421875 72.90625 
L 38.28125 72.90625 
L 38.28125 8.296875 
L 54.390625 8.296875 
L 54.390625 0 
L 12.40625 0 
z
" id="DejaVuSans-31"/>
      </defs>
      <g transform="translate(12.425 75.987091)scale(0.1 -0.1)">
       <use xlink:href="#DejaVuSans-31"/>
       <use x="63.623047" xlink:href="#DejaVuSans-30"/>
       <use x="127.246094" xlink:href="#DejaVuSans-30"/>
       <use x="190.869141" xlink:href="#DejaVuSans-30"/>
       <use x="254.492188" xlink:href="#DejaVuSans-30"/>
       <use x="318.115234" xlink:href="#DejaVuSans-30"/>
      </g>
     </g>
    </g>
    <g id="ytick_7">
     <g id="line2d_13">
      <g>
       <use style="stroke:#000000;stroke-width:0.8;" x="57.6" xlink:href="#m583d3302e7" y="43.692502"/>
      </g>
     </g>
     <g id="text_13">
      <!-- 120000 -->
      <g transform="translate(12.425 47.491721)scale(0.1 -0.1)">
       <use xlink:href="#DejaVuSans-31"/>
       <use x="63.623047" xlink:href="#DejaVuSans-32"/>
       <use x="127.246094" xlink:href="#DejaVuSans-30"/>
       <use x="190.869141" xlink:href="#DejaVuSans-30"/>
       <use x="254.492188" xlink:href="#DejaVuSans-30"/>
       <use x="318.115234" xlink:href="#DejaVuSans-30"/>
      </g>
     </g>
    </g>
   </g>
   <g id="line2d_14">
    <path clip-path="url(#p417e670a07)" d="M 73.832727 208.384348 
L 77.994965 208.384348 
L 77.994965 208.143562 
L 82.157203 208.143562 
L 82.157203 207.904201 
L 86.319441 207.904201 
L 86.319441 207.771697 
L 94.643916 207.723255 
L 94.643916 207.357089 
L 98.806154 207.357089 
L 98.806154 206.975251 
L 107.130629 207.003747 
L 107.130629 206.802854 
L 115.455105 206.764386 
L 115.455105 206.197328 
L 119.617343 206.197328 
L 119.617343 206.059125 
L 123.77958 206.059125 
L 123.77958 206.562069 
L 127.941818 206.562069 
L 127.941818 205.778446 
L 132.104056 205.778446 
L 132.104056 205.544784 
L 136.266294 205.544784 
L 136.266294 205.667314 
L 140.428531 205.667314 
L 140.428531 205.792694 
L 144.590769 205.792694 
L 144.590769 204.724117 
L 148.753007 204.724117 
L 148.753007 204.265342 
L 152.915245 204.265342 
L 152.915245 204.79678 
L 157.077483 204.79678 
L 157.077483 203.648417 
L 161.23972 203.648417 
L 161.23972 202.997298 
L 165.401958 202.997298 
L 165.401958 201.193541 
L 169.564196 201.193541 
L 169.564196 201.578228 
L 173.726434 201.578228 
L 173.726434 199.522287 
L 177.888671 199.522287 
L 177.888671 197.899476 
L 182.050909 197.899476 
L 182.050909 197.311046 
L 186.213147 197.311046 
L 186.213147 196.620034 
L 190.375385 196.620034 
L 190.375385 195.713881 
L 194.537622 195.713881 
L 194.537622 195.232309 
L 198.69986 195.232309 
L 198.69986 195.373361 
L 202.862098 195.373361 
L 202.862098 195.075585 
L 207.024336 195.075585 
L 207.024336 194.6738 
L 211.186573 194.6738 
L 211.186573 195.239433 
L 215.348811 195.239433 
L 215.348811 196.573016 
L 219.511049 196.573016 
L 219.511049 196.216824 
L 223.673287 196.216824 
L 223.673287 196.756811 
L 227.835524 196.756811 
L 227.835524 197.835361 
L 231.997762 197.835361 
L 231.997762 197.241233 
L 236.16 197.241233 
L 236.16 198.165908 
L 240.322238 198.165908 
L 240.322238 198.892539 
L 244.484476 198.892539 
L 244.484476 200.288813 
L 248.646713 200.288813 
L 248.646713 199.731728 
L 261.133427 199.736002 
L 261.133427 200.630757 
L 265.295664 200.630757 
L 265.295664 200.197627 
L 269.457902 200.197627 
L 269.457902 199.979638 
L 281.944615 199.892727 
L 281.944615 198.36395 
L 286.106853 198.36395 
L 286.106853 195.158221 
L 290.269091 195.158221 
L 290.269091 190.644554 
L 294.431329 190.644554 
L 294.431329 184.831499 
L 298.593566 184.831499 
L 298.593566 174.993472 
L 302.755804 174.993472 
L 302.755804 159.768395 
L 306.918042 159.768395 
L 306.918042 139.241755 
L 311.08028 139.241755 
L 311.08028 119.689656 
L 315.242517 119.689656 
L 315.242517 91.359558 
L 319.404755 91.359558 
L 319.404755 68.031823 
L 323.566993 68.031823 
L 323.566993 63.61504 
L 327.729231 63.61504 
L 327.729231 49.719273 
L 331.891469 49.719273 
L 331.891469 50.773601 
L 336.053706 50.773601 
L 336.053706 61.610391 
L 340.215944 61.610391 
L 340.215944 99.345386 
L 344.378182 99.345386 
L 344.378182 112.075693 
L 348.54042 112.075693 
L 348.54042 139.905697 
L 352.702657 139.905697 
L 352.702657 161.812938 
L 356.864895 161.812938 
L 356.864895 179.662438 
L 361.027133 179.662438 
L 361.027133 193.321694 
L 365.189371 193.321694 
L 365.189371 201.712156 
L 369.351608 201.712156 
L 369.351608 207.978288 
L 373.513846 207.978288 
L 373.513846 211.112779 
L 377.676084 211.112779 
L 377.676084 212.870944 
L 381.838322 212.870944 
L 381.838322 213.808441 
L 386.000559 213.808441 
L 386.000559 214.365526 
L 390.162797 214.365526 
L 390.162797 214.485206 
L 398.487273 214.572117 
L 398.487273 214.621984 
L 398.487273 214.621984 
" style="fill:none;stroke:#1f77b4;stroke-linecap:square;stroke-width:1.5;"/>
   </g>
   <g id="line2d_15">
    <path clip-path="url(#p417e670a07)" d="M 73.832727 207.496727 
L 82.157203 207.496727 
L 82.157203 206.600727 
L 86.319441 206.600727 
L 86.319441 206.845091 
L 94.643916 206.926545 
L 94.643916 207.089455 
L 98.806154 207.089455 
L 98.806154 207.415273 
L 102.968392 207.415273 
L 102.968392 206.519273 
L 107.130629 206.519273 
L 107.130629 207.170909 
L 111.292867 207.170909 
L 111.292867 205.378909 
L 115.455105 205.378909 
L 115.455105 206.030545 
L 119.617343 206.030545 
L 119.617343 206.274909 
L 123.77958 206.274909 
L 123.77958 205.134545 
L 132.104056 205.053091 
L 132.104056 205.541818 
L 136.266294 205.541818 
L 136.266294 203.912727 
L 140.428531 203.912727 
L 140.428531 204.727273 
L 144.590769 204.727273 
L 144.590769 204.482909 
L 148.753007 204.482909 
L 148.753007 203.586909 
L 152.915245 203.586909 
L 152.915245 202.853818 
L 157.077483 202.853818 
L 157.077483 201.794909 
L 161.23972 201.794909 
L 161.23972 202.283636 
L 165.401958 202.283636 
L 165.401958 200.247273 
L 169.564196 200.247273 
L 169.564196 202.039273 
L 173.726434 202.039273 
L 173.726434 200.165818 
L 177.888671 200.165818 
L 177.888671 195.441455 
L 182.050909 195.441455 
L 182.050909 199.025455 
L 186.213147 199.025455 
L 186.213147 195.930182 
L 190.375385 195.930182 
L 190.375385 195.604364 
L 194.537622 195.604364 
L 194.537622 197.070545 
L 198.69986 197.070545 
L 198.69986 193.486545 
L 202.862098 193.486545 
L 202.862098 196.826182 
L 207.024336 196.826182 
L 207.024336 196.011636 
L 211.186573 196.011636 
L 211.186573 196.418909 
L 215.348811 196.418909 
L 215.348811 196.581818 
L 219.511049 196.581818 
L 219.511049 197.070545 
L 223.673287 197.070545 
L 223.673287 195.767273 
L 227.835524 195.767273 
L 227.835524 196.907636 
L 231.997762 196.907636 
L 231.997762 197.477818 
L 236.16 197.477818 
L 236.16 198.292364 
L 240.322238 198.292364 
L 240.322238 199.188364 
L 244.484476 199.188364 
L 244.484476 199.514182 
L 252.808951 199.432727 
L 252.808951 199.758545 
L 256.971189 199.758545 
L 256.971189 200.084364 
L 261.133427 200.084364 
L 261.133427 197.803636 
L 265.295664 197.803636 
L 265.295664 199.106909 
L 269.457902 199.106909 
L 269.457902 197.966545 
L 273.62014 197.966545 
L 273.62014 196.581818 
L 277.782378 196.581818 
L 277.782378 194.789818 
L 281.944615 194.789818 
L 281.944615 193.568 
L 286.106853 193.568 
L 286.106853 189.576727 
L 290.269091 189.576727 
L 290.269091 189.413818 
L 294.431329 189.413818 
L 294.431329 185.504 
L 298.593566 185.504 
L 298.593566 175.077818 
L 302.755804 175.077818 
L 302.755804 163.185455 
L 306.918042 163.185455 
L 306.918042 150.804364 
L 311.08028 150.804364 
L 311.08028 124.820364 
L 315.242517 124.820364 
L 315.242517 103.723636 
L 319.404755 103.723636 
L 319.404755 76.436364 
L 323.566993 76.436364 
L 323.566993 55.991273 
L 327.729231 55.991273 
L 327.729231 49.719273 
L 331.891469 49.719273 
L 331.891469 54.036364 
L 336.053706 54.036364 
L 336.053706 69.105455 
L 340.215944 69.105455 
L 340.215944 83.278545 
L 344.378182 83.278545 
L 344.378182 116.104727 
L 348.54042 116.104727 
L 348.54042 139.808 
L 352.702657 139.808 
L 352.702657 160.823273 
L 356.864895 160.823273 
L 356.864895 185.015273 
L 361.027133 185.015273 
L 361.027133 197.070545 
L 365.189371 197.070545 
L 365.189371 204.890182 
L 369.351608 204.890182 
L 369.351608 210.347636 
L 373.513846 210.347636 
L 373.513846 212.221091 
L 377.676084 212.221091 
L 377.676084 213.768727 
L 381.838322 213.768727 
L 381.838322 214.583273 
L 398.487273 214.664727 
L 398.487273 214.664727 
" style="fill:none;stroke:#2ca02c;stroke-linecap:square;stroke-width:1.5;"/>
   </g>
   <g id="patch_3">
    <path d="M 57.6 222.912 
L 57.6 41.472 
" style="fill:none;stroke:#000000;stroke-linecap:square;stroke-linejoin:miter;stroke-width:0.8;"/>
   </g>
   <g id="patch_4">
    <path d="M 414.72 222.912 
L 414.72 41.472 
" style="fill:none;stroke:#000000;stroke-linecap:square;stroke-linejoin:miter;stroke-width:0.8;"/>
   </g>
   <g id="patch_5">
    <path d="M 57.6 222.912 
L 414.72 222.912 
" style="fill:none;stroke:#000000;stroke-linecap:square;stroke-linejoin:miter;stroke-width:0.8;"/>
   </g>
   <g id="patch_6">
    <path d="M 57.6 41.472 
L 414.72 41.472 
" style="fill:none;stroke:#000000;stroke-linecap:square;stroke-linejoin:miter;stroke-width:0.8;"/>
   </g>
   <g id="legend_1">
    <g id="patch_7">
     <path d="M 351.843438 78.82825 
L 407.72 78.82825 
Q 409.72 78.82825 409.72 76.82825 
L 409.72 48.472 
Q 409.72 46.472 407.72 46.472 
L 351.843438 46.472 
Q 349.843438 46.472 349.843438 48.472 
L 349.843438 76.82825 
Q 349.843438 78.82825 351.843438 78.82825 
z
" style="fill:#ffffff;opacity:0.8;stroke:#cccccc;stroke-linejoin:miter;"/>
    </g>
    <g id="line2d_16">
     <path d="M 353.843438 54.570437 
L 373.843438 54.570437 
" style="fill:none;stroke:#1f77b4;stroke-linecap:square;stroke-width:1.5;"/>
    </g>
    <g id="line2d_17"/>
    <g id="text_14">
     <!-- Data -->
     <defs>
      <path d="M 19.671875 64.796875 
L 19.671875 8.109375 
L 31.59375 8.109375 
Q 46.6875 8.109375 53.6875 14.9375 
Q 60.6875 21.78125 60.6875 36.53125 
Q 60.6875 51.171875 53.6875 57.984375 
Q 46.6875 64.796875 31.59375 64.796875 
z
M 9.8125 72.90625 
L 30.078125 72.90625 
Q 51.265625 72.90625 61.171875 64.09375 
Q 71.09375 55.28125 71.09375 36.53125 
Q 71.09375 17.671875 61.125 8.828125 
Q 51.171875 0 30.078125 0 
L 9.8125 0 
z
" id="DejaVuSans-44"/>
      <path d="M 34.28125 27.484375 
Q 23.390625 27.484375 19.1875 25 
Q 14.984375 22.515625 14.984375 16.5 
Q 14.984375 11.71875 18.140625 8.90625 
Q 21.296875 6.109375 26.703125 6.109375 
Q 34.1875 6.109375 38.703125 11.40625 
Q 43.21875 16.703125 43.21875 25.484375 
L 43.21875 27.484375 
z
M 52.203125 31.203125 
L 52.203125 0 
L 43.21875 0 
L 43.21875 8.296875 
Q 40.140625 3.328125 35.546875 0.953125 
Q 30.953125 -1.421875 24.3125 -1.421875 
Q 15.921875 -1.421875 10.953125 3.296875 
Q 6 8.015625 6 15.921875 
Q 6 25.140625 12.171875 29.828125 
Q 18.359375 34.515625 30.609375 34.515625 
L 43.21875 34.515625 
L 43.21875 35.40625 
Q 43.21875 41.609375 39.140625 45 
Q 35.0625 48.390625 27.6875 48.390625 
Q 23 48.390625 18.546875 47.265625 
Q 14.109375 46.140625 10.015625 43.890625 
L 10.015625 52.203125 
Q 14.9375 54.109375 19.578125 55.046875 
Q 24.21875 56 28.609375 56 
Q 40.484375 56 46.34375 49.84375 
Q 52.203125 43.703125 52.203125 31.203125 
z
" id="DejaVuSans-61"/>
      <path d="M 18.3125 70.21875 
L 18.3125 54.6875 
L 36.8125 54.6875 
L 36.8125 47.703125 
L 18.3125 47.703125 
L 18.3125 18.015625 
Q 18.3125 11.328125 20.140625 9.421875 
Q 21.96875 7.515625 27.59375 7.515625 
L 36.8125 7.515625 
L 36.8125 0 
L 27.59375 0 
Q 17.1875 0 13.234375 3.875 
Q 9.28125 7.765625 9.28125 18.015625 
L 9.28125 47.703125 
L 2.6875 47.703125 
L 2.6875 54.6875 
L 9.28125 54.6875 
L 9.28125 70.21875 
z
" id="DejaVuSans-74"/>
     </defs>
     <g transform="translate(381.843438 58.070437)scale(0.1 -0.1)">
      <use xlink:href="#DejaVuSans-44"/>
      <use x="77.001953" xlink:href="#DejaVuSans-61"/>
      <use x="138.28125" xlink:href="#DejaVuSans-74"/>
      <use x="177.490234" xlink:href="#DejaVuSans-61"/>
     </g>
    </g>
    <g id="line2d_18">
     <path d="M 353.843438 69.248562 
L 373.843438 69.248562 
" style="fill:none;stroke:#2ca02c;stroke-linecap:square;stroke-width:1.5;"/>
    </g>
    <g id="line2d_19"/>
    <g id="text_15">
     <!-- MC -->
     <defs>
      <path d="M 9.8125 72.90625 
L 24.515625 72.90625 
L 43.109375 23.296875 
L 61.8125 72.90625 
L 76.515625 72.90625 
L 76.515625 0 
L 66.890625 0 
L 66.890625 64.015625 
L 48.09375 14.015625 
L 38.1875 14.015625 
L 19.390625 64.015625 
L 19.390625 0 
L 9.8125 0 
z
" id="DejaVuSans-4d"/>
      <path d="M 64.40625 67.28125 
L 64.40625 56.890625 
Q 59.421875 61.53125 53.78125 63.8125 
Q 48.140625 66.109375 41.796875 66.109375 
Q 29.296875 66.109375 22.65625 58.46875 
Q 16.015625 50.828125 16.015625 36.375 
Q 16.015625 21.96875 22.65625 14.328125 
Q 29.296875 6.6875 41.796875 6.6875 
Q 48.140625 6.6875 53.78125 8.984375 
Q 59.421875 11.28125 64.40625 15.921875 
L 64.40625 5.609375 
Q 59.234375 2.09375 53.4375 0.328125 
Q 47.65625 -1.421875 41.21875 -1.421875 
Q 24.65625 -1.421875 15.125 8.703125 
Q 5.609375 18.84375 5.609375 36.375 
Q 5.609375 53.953125 15.125 64.078125 
Q 24.65625 74.21875 41.21875 74.21875 
Q 47.75 74.21875 53.53125 72.484375 
Q 59.328125 70.75 64.40625 67.28125 
z
" id="DejaVuSans-43"/>
     </defs>
     <g transform="translate(381.843438 72.748562)scale(0.1 -0.1)">
      <use xlink:href="#DejaVuSans-4d"/>
      <use x="86.279297" xlink:href="#DejaVuSans-43"/>
     </g>
    </g>
   </g>
  </g>
  <g id="axes_2">
   <g id="patch_8">
    <path d="M 57.6 307.584 
L 414.72 307.584 
L 414.72 247.104 
L 57.6 247.104 
z
" style="fill:#ffffff;"/>
   </g>
   <g id="matplotlib.axis_3">
    <g id="xtick_7">
     <g id="line2d_20">
      <path clip-path="url(#p4ea12910f6)" d="M 73.832727 307.584 
L 73.832727 247.104 
" style="fill:none;stroke:#b0b0b0;stroke-linecap:square;stroke-width:0.8;"/>
     </g>
     <g id="line2d_21">
      <g>
       <use style="stroke:#000000;stroke-width:0.8;" x="73.832727" xlink:href="#m1a4bd6e4d0" y="307.584"/>
      </g>
     </g>
     <g id="text_16">
      <!-- 40 -->
      <g transform="translate(67.470227 322.182437)scale(0.1 -0.1)">
       <use xlink:href="#DejaVuSans-34"/>
       <use x="63.623047" xlink:href="#DejaVuSans-30"/>
      </g>
     </g>
    </g>
    <g id="xtick_8">
     <g id="line2d_22">
      <path clip-path="url(#p4ea12910f6)" d="M 139.596084 307.584 
L 139.596084 247.104 
" style="fill:none;stroke:#b0b0b0;stroke-linecap:square;stroke-width:0.8;"/>
     </g>
     <g id="line2d_23">
      <g>
       <use style="stroke:#000000;stroke-width:0.8;" x="139.596084" xlink:href="#m1a4bd6e4d0" y="307.584"/>
      </g>
     </g>
     <g id="text_17">
      <!-- 45 -->
      <g transform="translate(133.233584 322.182437)scale(0.1 -0.1)">
       <use xlink:href="#DejaVuSans-34"/>
       <use x="63.623047" xlink:href="#DejaVuSans-35"/>
      </g>
     </g>
    </g>
    <g id="xtick_9">
     <g id="line2d_24">
      <path clip-path="url(#p4ea12910f6)" d="M 205.359441 307.584 
L 205.359441 247.104 
" style="fill:none;stroke:#b0b0b0;stroke-linecap:square;stroke-width:0.8;"/>
     </g>
     <g id="line2d_25">
      <g>
       <use style="stroke:#000000;stroke-width:0.8;" x="205.359441" xlink:href="#m1a4bd6e4d0" y="307.584"/>
      </g>
     </g>
     <g id="text_18">
      <!-- 50 -->
      <g transform="translate(198.996941 322.182437)scale(0.1 -0.1)">
       <use xlink:href="#DejaVuSans-35"/>
       <use x="63.623047" xlink:href="#DejaVuSans-30"/>
      </g>
     </g>
    </g>
    <g id="xtick_10">
     <g id="line2d_26">
      <path clip-path="url(#p4ea12910f6)" d="M 271.122797 307.584 
L 271.122797 247.104 
" style="fill:none;stroke:#b0b0b0;stroke-linecap:square;stroke-width:0.8;"/>
     </g>
     <g id="line2d_27">
      <g>
       <use style="stroke:#000000;stroke-width:0.8;" x="271.122797" xlink:href="#m1a4bd6e4d0" y="307.584"/>
      </g>
     </g>
     <g id="text_19">
      <!-- 55 -->
      <g transform="translate(264.760297 322.182437)scale(0.1 -0.1)">
       <use xlink:href="#DejaVuSans-35"/>
       <use x="63.623047" xlink:href="#DejaVuSans-35"/>
      </g>
     </g>
    </g>
    <g id="xtick_11">
     <g id="line2d_28">
      <path clip-path="url(#p4ea12910f6)" d="M 336.886154 307.584 
L 336.886154 247.104 
" style="fill:none;stroke:#b0b0b0;stroke-linecap:square;stroke-width:0.8;"/>
     </g>
     <g id="line2d_29">
      <g>
       <use style="stroke:#000000;stroke-width:0.8;" x="336.886154" xlink:href="#m1a4bd6e4d0" y="307.584"/>
      </g>
     </g>
     <g id="text_20">
      <!-- 60 -->
      <g transform="translate(330.523654 322.182437)scale(0.1 -0.1)">
       <use xlink:href="#DejaVuSans-36"/>
       <use x="63.623047" xlink:href="#DejaVuSans-30"/>
      </g>
     </g>
    </g>
    <g id="xtick_12">
     <g id="line2d_30">
      <path clip-path="url(#p4ea12910f6)" d="M 402.64951 307.584 
L 402.64951 247.104 
" style="fill:none;stroke:#b0b0b0;stroke-linecap:square;stroke-width:0.8;"/>
     </g>
     <g id="line2d_31">
      <g>
       <use style="stroke:#000000;stroke-width:0.8;" x="402.64951" xlink:href="#m1a4bd6e4d0" y="307.584"/>
      </g>
     </g>
     <g id="text_21">
      <!-- 65 -->
      <g transform="translate(396.28701 322.182437)scale(0.1 -0.1)">
       <use xlink:href="#DejaVuSans-36"/>
       <use x="63.623047" xlink:href="#DejaVuSans-35"/>
      </g>
     </g>
    </g>
    <g id="text_22">
     <!-- Energy (keV) -->
     <defs>
      <path d="M 9.8125 72.90625 
L 55.90625 72.90625 
L 55.90625 64.59375 
L 19.671875 64.59375 
L 19.671875 43.015625 
L 54.390625 43.015625 
L 54.390625 34.71875 
L 19.671875 34.71875 
L 19.671875 8.296875 
L 56.78125 8.296875 
L 56.78125 0 
L 9.8125 0 
z
" id="DejaVuSans-45"/>
      <path d="M 54.890625 33.015625 
L 54.890625 0 
L 45.90625 0 
L 45.90625 32.71875 
Q 45.90625 40.484375 42.875 44.328125 
Q 39.84375 48.1875 33.796875 48.1875 
Q 26.515625 48.1875 22.3125 43.546875 
Q 18.109375 38.921875 18.109375 30.90625 
L 18.109375 0 
L 9.078125 0 
L 9.078125 54.6875 
L 18.109375 54.6875 
L 18.109375 46.1875 
Q 21.34375 51.125 25.703125 53.5625 
Q 30.078125 56 35.796875 56 
Q 45.21875 56 50.046875 50.171875 
Q 54.890625 44.34375 54.890625 33.015625 
z
" id="DejaVuSans-6e"/>
      <path d="M 56.203125 29.59375 
L 56.203125 25.203125 
L 14.890625 25.203125 
Q 15.484375 15.921875 20.484375 11.0625 
Q 25.484375 6.203125 34.421875 6.203125 
Q 39.59375 6.203125 44.453125 7.46875 
Q 49.3125 8.734375 54.109375 11.28125 
L 54.109375 2.78125 
Q 49.265625 0.734375 44.1875 -0.34375 
Q 39.109375 -1.421875 33.890625 -1.421875 
Q 20.796875 -1.421875 13.15625 6.1875 
Q 5.515625 13.8125 5.515625 26.8125 
Q 5.515625 40.234375 12.765625 48.109375 
Q 20.015625 56 32.328125 56 
Q 43.359375 56 49.78125 48.890625 
Q 56.203125 41.796875 56.203125 29.59375 
z
M 47.21875 32.234375 
Q 47.125 39.59375 43.09375 43.984375 
Q 39.0625 48.390625 32.421875 48.390625 
Q 24.90625 48.390625 20.390625 44.140625 
Q 15.875 39.890625 15.1875 32.171875 
z
" id="DejaVuSans-65"/>
      <path d="M 41.109375 46.296875 
Q 39.59375 47.171875 37.8125 47.578125 
Q 36.03125 48 33.890625 48 
Q 26.265625 48 22.1875 43.046875 
Q 18.109375 38.09375 18.109375 28.8125 
L 18.109375 0 
L 9.078125 0 
L 9.078125 54.6875 
L 18.109375 54.6875 
L 18.109375 46.1875 
Q 20.953125 51.171875 25.484375 53.578125 
Q 30.03125 56 36.53125 56 
Q 37.453125 56 38.578125 55.875 
Q 39.703125 55.765625 41.0625 55.515625 
z
" id="DejaVuSans-72"/>
      <path d="M 45.40625 27.984375 
Q 45.40625 37.75 41.375 43.109375 
Q 37.359375 48.484375 30.078125 48.484375 
Q 22.859375 48.484375 18.828125 43.109375 
Q 14.796875 37.75 14.796875 27.984375 
Q 14.796875 18.265625 18.828125 12.890625 
Q 22.859375 7.515625 30.078125 7.515625 
Q 37.359375 7.515625 41.375 12.890625 
Q 45.40625 18.265625 45.40625 27.984375 
z
M 54.390625 6.78125 
Q 54.390625 -7.171875 48.1875 -13.984375 
Q 42 -20.796875 29.203125 -20.796875 
Q 24.46875 -20.796875 20.265625 -20.09375 
Q 16.0625 -19.390625 12.109375 -17.921875 
L 12.109375 -9.1875 
Q 16.0625 -11.328125 19.921875 -12.34375 
Q 23.78125 -13.375 27.78125 -13.375 
Q 36.625 -13.375 41.015625 -8.765625 
Q 45.40625 -4.15625 45.40625 5.171875 
L 45.40625 9.625 
Q 42.625 4.78125 38.28125 2.390625 
Q 33.9375 0 27.875 0 
Q 17.828125 0 11.671875 7.65625 
Q 5.515625 15.328125 5.515625 27.984375 
Q 5.515625 40.671875 11.671875 48.328125 
Q 17.828125 56 27.875 56 
Q 33.9375 56 38.28125 53.609375 
Q 42.625 51.21875 45.40625 46.390625 
L 45.40625 54.6875 
L 54.390625 54.6875 
z
" id="DejaVuSans-67"/>
      <path d="M 32.171875 -5.078125 
Q 28.375 -14.84375 24.75 -17.8125 
Q 21.140625 -20.796875 15.09375 -20.796875 
L 7.90625 -20.796875 
L 7.90625 -13.28125 
L 13.1875 -13.28125 
Q 16.890625 -13.28125 18.9375 -11.515625 
Q 21 -9.765625 23.484375 -3.21875 
L 25.09375 0.875 
L 2.984375 54.6875 
L 12.5 54.6875 
L 29.59375 11.921875 
L 46.6875 54.6875 
L 56.203125 54.6875 
z
" id="DejaVuSans-79"/>
      <path id="DejaVuSans-20"/>
      <path d="M 31 75.875 
Q 24.46875 64.65625 21.28125 53.65625 
Q 18.109375 42.671875 18.109375 31.390625 
Q 18.109375 20.125 21.3125 9.0625 
Q 24.515625 -2 31 -13.1875 
L 23.1875 -13.1875 
Q 15.875 -1.703125 12.234375 9.375 
Q 8.59375 20.453125 8.59375 31.390625 
Q 8.59375 42.28125 12.203125 53.3125 
Q 15.828125 64.359375 23.1875 75.875 
z
" id="DejaVuSans-28"/>
      <path d="M 9.078125 75.984375 
L 18.109375 75.984375 
L 18.109375 31.109375 
L 44.921875 54.6875 
L 56.390625 54.6875 
L 27.390625 29.109375 
L 57.625 0 
L 45.90625 0 
L 18.109375 26.703125 
L 18.109375 0 
L 9.078125 0 
z
" id="DejaVuSans-6b"/>
      <path d="M 28.609375 0 
L 0.78125 72.90625 
L 11.078125 72.90625 
L 34.1875 11.53125 
L 57.328125 72.90625 
L 67.578125 72.90625 
L 39.796875 0 
z
" id="DejaVuSans-56"/>
      <path d="M 8.015625 75.875 
L 15.828125 75.875 
Q 23.140625 64.359375 26.78125 53.3125 
Q 30.421875 42.28125 30.421875 31.390625 
Q 30.421875 20.453125 26.78125 9.375 
Q 23.140625 -1.703125 15.828125 -13.1875 
L 8.015625 -13.1875 
Q 14.5 -2 17.703125 9.0625 
Q 20.90625 20.125 20.90625 31.390625 
Q 20.90625 42.671875 17.703125 53.65625 
Q 14.5 64.65625 8.015625 75.875 
z
" id="DejaVuSans-29"/>
     </defs>
     <g transform="translate(203.686562 335.860562)scale(0.1 -0.1)">
      <use xlink:href="#DejaVuSans-45"/>
      <use x="63.183594" xlink:href="#DejaVuSans-6e"/>
      <use x="126.5625" xlink:href="#DejaVuSans-65"/>
      <use x="188.085938" xlink:href="#DejaVuSans-72"/>
      <use x="229.183594" xlink:href="#DejaVuSans-67"/>
      <use x="292.660156" xlink:href="#DejaVuSans-79"/>
      <use x="351.839844" xlink:href="#DejaVuSans-20"/>
      <use x="383.626953" xlink:href="#DejaVuSans-28"/>
      <use x="422.640625" xlink:href="#DejaVuSans-6b"/>
      <use x="480.503906" xlink:href="#DejaVuSans-65"/>
      <use x="542.027344" xlink:href="#DejaVuSans-56"/>
      <use x="610.435547" xlink:href="#DejaVuSans-29"/>
     </g>
    </g>
   </g>
   <g id="matplotlib.axis_4">
    <g id="ytick_8">
     <g id="line2d_32">
      <path clip-path="url(#p4ea12910f6)" d="M 57.6 297.504 
L 414.72 297.504 
" style="fill:none;stroke:#b0b0b0;stroke-linecap:square;stroke-width:0.8;"/>
     </g>
     <g id="line2d_33">
      <g>
       <use style="stroke:#000000;stroke-width:0.8;" x="57.6" xlink:href="#m583d3302e7" y="297.504"/>
      </g>
     </g>
     <g id="text_23">
      <!-- −0.2 -->
      <defs>
       <path d="M 10.59375 35.5 
L 73.1875 35.5 
L 73.1875 27.203125 
L 10.59375 27.203125 
z
" id="DejaVuSans-2212"/>
       <path d="M 10.6875 12.40625 
L 21 12.40625 
L 21 0 
L 10.6875 0 
z
" id="DejaVuSans-2e"/>
      </defs>
      <g transform="translate(26.317187 301.303219)scale(0.1 -0.1)">
       <use xlink:href="#DejaVuSans-2212"/>
       <use x="83.789062" xlink:href="#DejaVuSans-30"/>
       <use x="147.412109" xlink:href="#DejaVuSans-2e"/>
       <use x="179.199219" xlink:href="#DejaVuSans-32"/>
      </g>
     </g>
    </g>
    <g id="ytick_9">
     <g id="line2d_34">
      <path clip-path="url(#p4ea12910f6)" d="M 57.6 277.344 
L 414.72 277.344 
" style="fill:none;stroke:#b0b0b0;stroke-linecap:square;stroke-width:0.8;"/>
     </g>
     <g id="line2d_35">
      <g>
       <use style="stroke:#000000;stroke-width:0.8;" x="57.6" xlink:href="#m583d3302e7" y="277.344"/>
      </g>
     </g>
     <g id="text_24">
      <!-- 0.0 -->
      <g transform="translate(34.696875 281.143219)scale(0.1 -0.1)">
       <use xlink:href="#DejaVuSans-30"/>
       <use x="63.623047" xlink:href="#DejaVuSans-2e"/>
       <use x="95.410156" xlink:href="#DejaVuSans-30"/>
      </g>
     </g>
    </g>
    <g id="ytick_10">
     <g id="line2d_36">
      <path clip-path="url(#p4ea12910f6)" d="M 57.6 257.184 
L 414.72 257.184 
" style="fill:none;stroke:#b0b0b0;stroke-linecap:square;stroke-width:0.8;"/>
     </g>
     <g id="line2d_37">
      <g>
       <use style="stroke:#000000;stroke-width:0.8;" x="57.6" xlink:href="#m583d3302e7" y="257.184"/>
      </g>
     </g>
     <g id="text_25">
      <!-- 0.2 -->
      <g transform="translate(34.696875 260.983219)scale(0.1 -0.1)">
       <use xlink:href="#DejaVuSans-30"/>
       <use x="63.623047" xlink:href="#DejaVuSans-2e"/>
       <use x="95.410156" xlink:href="#DejaVuSans-32"/>
      </g>
     </g>
    </g>
    <g id="text_26">
     <!-- (Data - MC)/(Data + MC) -->
     <defs>
      <path d="M 4.890625 31.390625 
L 31.203125 31.390625 
L 31.203125 23.390625 
L 4.890625 23.390625 
z
" id="DejaVuSans-2d"/>
      <path d="M 25.390625 72.90625 
L 33.6875 72.90625 
L 8.296875 -9.28125 
L 0 -9.28125 
z
" id="DejaVuSans-2f"/>
      <path d="M 46 62.703125 
L 46 35.5 
L 73.1875 35.5 
L 73.1875 27.203125 
L 46 27.203125 
L 46 0 
L 37.796875 0 
L 37.796875 27.203125 
L 10.59375 27.203125 
L 10.59375 35.5 
L 37.796875 35.5 
L 37.796875 62.703125 
z
" id="DejaVuSans-2b"/>
     </defs>
     <g transform="translate(20.2375 338.669)rotate(-90)scale(0.1 -0.1)">
      <use xlink:href="#DejaVuSans-28"/>
      <use x="39.013672" xlink:href="#DejaVuSans-44"/>
      <use x="116.015625" xlink:href="#DejaVuSans-61"/>
      <use x="177.294922" xlink:href="#DejaVuSans-74"/>
      <use x="216.503906" xlink:href="#DejaVuSans-61"/>
      <use x="277.783203" xlink:href="#DejaVuSans-20"/>
      <use x="309.570312" xlink:href="#DejaVuSans-2d"/>
      <use x="345.654297" xlink:href="#DejaVuSans-20"/>
      <use x="377.441406" xlink:href="#DejaVuSans-4d"/>
      <use x="463.720703" xlink:href="#DejaVuSans-43"/>
      <use x="533.544922" xlink:href="#DejaVuSans-29"/>
      <use x="572.558594" xlink:href="#DejaVuSans-2f"/>
      <use x="606.25" xlink:href="#DejaVuSans-28"/>
      <use x="645.263672" xlink:href="#DejaVuSans-44"/>
      <use x="722.265625" xlink:href="#DejaVuSans-61"/>
      <use x="783.544922" xlink:href="#DejaVuSans-74"/>
      <use x="822.753906" xlink:href="#DejaVuSans-61"/>
      <use x="884.033203" xlink:href="#DejaVuSans-20"/>
      <use x="915.820312" xlink:href="#DejaVuSans-2b"/>
      <use x="999.609375" xlink:href="#DejaVuSans-20"/>
      <use x="1031.396484" xlink:href="#DejaVuSans-4d"/>
      <use x="1117.675781" xlink:href="#DejaVuSans-43"/>
      <use x="1187.5" xlink:href="#DejaVuSans-29"/>
     </g>
    </g>
   </g>
   <g id="LineCollection_1">
    <path clip-path="url(#p4ea12910f6)" d="M 73.832727 284.752816 
L 73.832727 283.241192 
" style="fill:none;stroke:#000000;stroke-width:1.5;"/>
    <path clip-path="url(#p4ea12910f6)" d="M 77.994965 282.850266 
L 77.994965 281.363648 
" style="fill:none;stroke:#000000;stroke-width:1.5;"/>
    <path clip-path="url(#p4ea12910f6)" d="M 82.157203 286.93303 
L 82.157203 285.481013 
" style="fill:none;stroke:#000000;stroke-width:1.5;"/>
    <path clip-path="url(#p4ea12910f6)" d="M 86.319441 284.414125 
L 86.319441 282.970676 
" style="fill:none;stroke:#000000;stroke-width:1.5;"/>
    <path clip-path="url(#p4ea12910f6)" d="M 90.481678 283.534662 
L 90.481678 282.094783 
" style="fill:none;stroke:#000000;stroke-width:1.5;"/>
    <path clip-path="url(#p4ea12910f6)" d="M 94.643916 279.860171 
L 94.643916 278.45314 
" style="fill:none;stroke:#000000;stroke-width:1.5;"/>
    <path clip-path="url(#p4ea12910f6)" d="M 98.806154 275.060422 
L 98.806154 273.689517 
" style="fill:none;stroke:#000000;stroke-width:1.5;"/>
    <path clip-path="url(#p4ea12910f6)" d="M 102.968392 281.12024 
L 102.968392 279.746887 
" style="fill:none;stroke:#000000;stroke-width:1.5;"/>
    <path clip-path="url(#p4ea12910f6)" d="M 107.130629 275.606058 
L 107.130629 274.249869 
" style="fill:none;stroke:#000000;stroke-width:1.5;"/>
    <path clip-path="url(#p4ea12910f6)" d="M 111.292867 286.142508 
L 111.292867 284.797644 
" style="fill:none;stroke:#000000;stroke-width:1.5;"/>
    <path clip-path="url(#p4ea12910f6)" d="M 115.455105 278.980759 
L 115.455105 277.673335 
" style="fill:none;stroke:#000000;stroke-width:1.5;"/>
    <path clip-path="url(#p4ea12910f6)" d="M 119.617343 276.712583 
L 119.617343 275.415785 
" style="fill:none;stroke:#000000;stroke-width:1.5;"/>
    <path clip-path="url(#p4ea12910f6)" d="M 123.77958 286.168533 
L 123.77958 284.84064 
" style="fill:none;stroke:#000000;stroke-width:1.5;"/>
    <path clip-path="url(#p4ea12910f6)" d="M 127.941818 281.933847 
L 127.941818 280.659451 
" style="fill:none;stroke:#000000;stroke-width:1.5;"/>
    <path clip-path="url(#p4ea12910f6)" d="M 132.104056 277.990337 
L 132.104056 276.730436 
" style="fill:none;stroke:#000000;stroke-width:1.5;"/>
    <path clip-path="url(#p4ea12910f6)" d="M 136.266294 286.928541 
L 136.266294 285.670101 
" style="fill:none;stroke:#000000;stroke-width:1.5;"/>
    <path clip-path="url(#p4ea12910f6)" d="M 140.428531 283.69023 
L 140.428531 282.416945 
" style="fill:none;stroke:#000000;stroke-width:1.5;"/>
    <path clip-path="url(#p4ea12910f6)" d="M 144.590769 279.155593 
L 144.590769 277.948991 
" style="fill:none;stroke:#000000;stroke-width:1.5;"/>
    <path clip-path="url(#p4ea12910f6)" d="M 148.753007 281.11746 
L 148.753007 279.938781 
" style="fill:none;stroke:#000000;stroke-width:1.5;"/>
    <path clip-path="url(#p4ea12910f6)" d="M 152.915245 286.978915 
L 152.915245 285.777435 
" style="fill:none;stroke:#000000;stroke-width:1.5;"/>
    <path clip-path="url(#p4ea12910f6)" d="M 157.077483 285.735565 
L 157.077483 284.596124 
" style="fill:none;stroke:#000000;stroke-width:1.5;"/>
    <path clip-path="url(#p4ea12910f6)" d="M 161.23972 280.891788 
L 161.23972 279.778872 
" style="fill:none;stroke:#000000;stroke-width:1.5;"/>
    <path clip-path="url(#p4ea12910f6)" d="M 165.401958 281.281892 
L 165.401958 280.246442 
" style="fill:none;stroke:#000000;stroke-width:1.5;"/>
    <path clip-path="url(#p4ea12910f6)" d="M 169.564196 276.062258 
L 169.564196 275.010825 
" style="fill:none;stroke:#000000;stroke-width:1.5;"/>
    <path clip-path="url(#p4ea12910f6)" d="M 173.726434 275.644225 
L 173.726434 274.666921 
" style="fill:none;stroke:#000000;stroke-width:1.5;"/>
    <path clip-path="url(#p4ea12910f6)" d="M 177.888671 284.691106 
L 177.888671 283.766202 
" style="fill:none;stroke:#000000;stroke-width:1.5;"/>
    <path clip-path="url(#p4ea12910f6)" d="M 182.050909 272.561585 
L 182.050909 271.650702 
" style="fill:none;stroke:#000000;stroke-width:1.5;"/>
    <path clip-path="url(#p4ea12910f6)" d="M 186.213147 279.682348 
L 186.213147 278.786973 
" style="fill:none;stroke:#000000;stroke-width:1.5;"/>
    <path clip-path="url(#p4ea12910f6)" d="M 190.375385 278.071426 
L 190.375385 277.19742 
" style="fill:none;stroke:#000000;stroke-width:1.5;"/>
    <path clip-path="url(#p4ea12910f6)" d="M 194.537622 272.77014 
L 194.537622 271.909151 
" style="fill:none;stroke:#000000;stroke-width:1.5;"/>
    <path clip-path="url(#p4ea12910f6)" d="M 198.69986 282.4758 
L 198.69986 281.611417 
" style="fill:none;stroke:#000000;stroke-width:1.5;"/>
    <path clip-path="url(#p4ea12910f6)" d="M 202.862098 273.058191 
L 202.862098 272.200415 
" style="fill:none;stroke:#000000;stroke-width:1.5;"/>
    <path clip-path="url(#p4ea12910f6)" d="M 207.024336 274.279331 
L 207.024336 273.429378 
" style="fill:none;stroke:#000000;stroke-width:1.5;"/>
    <path clip-path="url(#p4ea12910f6)" d="M 211.186573 274.619183 
L 211.186573 273.756755 
" style="fill:none;stroke:#000000;stroke-width:1.5;"/>
    <path clip-path="url(#p4ea12910f6)" d="M 215.348811 277.766737 
L 215.348811 276.872211 
" style="fill:none;stroke:#000000;stroke-width:1.5;"/>
    <path clip-path="url(#p4ea12910f6)" d="M 219.511049 275.399047 
L 219.511049 274.513696 
" style="fill:none;stroke:#000000;stroke-width:1.5;"/>
    <path clip-path="url(#p4ea12910f6)" d="M 223.673287 280.503307 
L 223.673287 279.604853 
" style="fill:none;stroke:#000000;stroke-width:1.5;"/>
    <path clip-path="url(#p4ea12910f6)" d="M 227.835524 280.511194 
L 227.835524 279.584394 
" style="fill:none;stroke:#000000;stroke-width:1.5;"/>
    <path clip-path="url(#p4ea12910f6)" d="M 231.997762 277.110702 
L 231.997762 276.199226 
" style="fill:none;stroke:#000000;stroke-width:1.5;"/>
    <path clip-path="url(#p4ea12910f6)" d="M 236.16 277.42457 
L 236.16 276.487871 
" style="fill:none;stroke:#000000;stroke-width:1.5;"/>
    <path clip-path="url(#p4ea12910f6)" d="M 240.322238 276.868726 
L 240.322238 275.910765 
" style="fill:none;stroke:#000000;stroke-width:1.5;"/>
    <path clip-path="url(#p4ea12910f6)" d="M 244.484476 280.489904 
L 244.484476 279.4871 
" style="fill:none;stroke:#000000;stroke-width:1.5;"/>
    <path clip-path="url(#p4ea12910f6)" d="M 248.646713 278.835399 
L 248.646713 277.850897 
" style="fill:none;stroke:#000000;stroke-width:1.5;"/>
    <path clip-path="url(#p4ea12910f6)" d="M 252.808951 278.060777 
L 252.808951 277.073116 
" style="fill:none;stroke:#000000;stroke-width:1.5;"/>
    <path clip-path="url(#p4ea12910f6)" d="M 256.971189 276.646335 
L 256.971189 275.661733 
" style="fill:none;stroke:#000000;stroke-width:1.5;"/>
    <path clip-path="url(#p4ea12910f6)" d="M 261.133427 287.071497 
L 261.133427 286.064356 
" style="fill:none;stroke:#000000;stroke-width:1.5;"/>
    <path clip-path="url(#p4ea12910f6)" d="M 265.295664 281.505276 
L 265.295664 280.506269 
" style="fill:none;stroke:#000000;stroke-width:1.5;"/>
    <path clip-path="url(#p4ea12910f6)" d="M 269.457902 284.304251 
L 269.457902 283.315461 
" style="fill:none;stroke:#000000;stroke-width:1.5;"/>
    <path clip-path="url(#p4ea12910f6)" d="M 273.62014 288.340821 
L 273.62014 287.358206 
" style="fill:none;stroke:#000000;stroke-width:1.5;"/>
    <path clip-path="url(#p4ea12910f6)" d="M 277.782378 292.674387 
L 277.782378 291.705912 
" style="fill:none;stroke:#000000;stroke-width:1.5;"/>
    <path clip-path="url(#p4ea12910f6)" d="M 281.944615 290.73429 
L 281.944615 289.807403 
" style="fill:none;stroke:#000000;stroke-width:1.5;"/>
    <path clip-path="url(#p4ea12910f6)" d="M 286.106853 290.384221 
L 286.106853 289.536241 
" style="fill:none;stroke:#000000;stroke-width:1.5;"/>
    <path clip-path="url(#p4ea12910f6)" d="M 290.269091 280.249792 
L 290.269091 279.473949 
" style="fill:none;stroke:#000000;stroke-width:1.5;"/>
    <path clip-path="url(#p4ea12910f6)" d="M 294.431329 276.543185 
L 294.431329 275.846677 
" style="fill:none;stroke:#000000;stroke-width:1.5;"/>
    <path clip-path="url(#p4ea12910f6)" d="M 298.593566 277.538769 
L 298.593566 276.934689 
" style="fill:none;stroke:#000000;stroke-width:1.5;"/>
    <path clip-path="url(#p4ea12910f6)" d="M 302.755804 274.362541 
L 302.755804 273.849546 
" style="fill:none;stroke:#000000;stroke-width:1.5;"/>
    <path clip-path="url(#p4ea12910f6)" d="M 306.918042 269.19363 
L 306.918042 268.758542 
" style="fill:none;stroke:#000000;stroke-width:1.5;"/>
    <path clip-path="url(#p4ea12910f6)" d="M 311.08028 274.740784 
L 311.08028 274.350669 
" style="fill:none;stroke:#000000;stroke-width:1.5;"/>
    <path clip-path="url(#p4ea12910f6)" d="M 315.242517 272.194379 
L 315.242517 271.852691 
" style="fill:none;stroke:#000000;stroke-width:1.5;"/>
    <path clip-path="url(#p4ea12910f6)" d="M 319.404755 274.526966 
L 319.404755 274.213032 
" style="fill:none;stroke:#000000;stroke-width:1.5;"/>
    <path clip-path="url(#p4ea12910f6)" d="M 323.566993 279.979866 
L 323.566993 279.670474 
" style="fill:none;stroke:#000000;stroke-width:1.5;"/>
    <path clip-path="url(#p4ea12910f6)" d="M 327.729231 277.492126 
L 327.729231 277.195874 
" style="fill:none;stroke:#000000;stroke-width:1.5;"/>
    <path clip-path="url(#p4ea12910f6)" d="M 331.891469 276.47913 
L 331.891469 276.181956 
" style="fill:none;stroke:#000000;stroke-width:1.5;"/>
    <path clip-path="url(#p4ea12910f6)" d="M 336.053706 274.967643 
L 336.053706 274.660291 
" style="fill:none;stroke:#000000;stroke-width:1.5;"/>
    <path clip-path="url(#p4ea12910f6)" d="M 340.215944 284.085061 
L 340.215944 283.732256 
" style="fill:none;stroke:#000000;stroke-width:1.5;"/>
    <path clip-path="url(#p4ea12910f6)" d="M 344.378182 275.512716 
L 344.378182 275.137217 
" style="fill:none;stroke:#000000;stroke-width:1.5;"/>
    <path clip-path="url(#p4ea12910f6)" d="M 348.54042 277.629845 
L 348.54042 277.189797 
" style="fill:none;stroke:#000000;stroke-width:1.5;"/>
    <path clip-path="url(#p4ea12910f6)" d="M 352.702657 278.54066 
L 352.702657 278.017342 
" style="fill:none;stroke:#000000;stroke-width:1.5;"/>
    <path clip-path="url(#p4ea12910f6)" d="M 356.864895 269.317625 
L 356.864895 268.678924 
" style="fill:none;stroke:#000000;stroke-width:1.5;"/>
    <path clip-path="url(#p4ea12910f6)" d="M 361.027133 268.04701 
L 361.027133 267.231066 
" style="fill:none;stroke:#000000;stroke-width:1.5;"/>
    <path clip-path="url(#p4ea12910f6)" d="M 365.189371 263.766986 
L 365.189371 262.730464 
" style="fill:none;stroke:#000000;stroke-width:1.5;"/>
    <path clip-path="url(#p4ea12910f6)" d="M 369.351608 256.340719 
L 369.351608 254.937526 
" style="fill:none;stroke:#000000;stroke-width:1.5;"/>
    <path clip-path="url(#p4ea12910f6)" d="M 373.513846 259.685573 
L 373.513846 257.73573 
" style="fill:none;stroke:#000000;stroke-width:1.5;"/>
    <path clip-path="url(#p4ea12910f6)" d="M 377.676084 244.961619 
L 377.676084 242.43726 
" style="fill:none;stroke:#000000;stroke-width:1.5;"/>
    <path clip-path="url(#p4ea12910f6)" d="M 381.838322 194.707756 
L 381.838322 193.403232 
" style="fill:none;stroke:#000000;stroke-width:1.5;"/>
    <path clip-path="url(#p4ea12910f6)" d="M 386.000559 222.0232 
L 386.000559 217.343429 
" style="fill:none;stroke:#000000;stroke-width:1.5;"/>
    <path clip-path="url(#p4ea12910f6)" d="M 390.162797 176.544 
L 390.162797 176.544 
" style="fill:none;stroke:#000000;stroke-width:1.5;"/>
    <path clip-path="url(#p4ea12910f6)" d="M 394.325035 176.544 
L 394.325035 176.544 
" style="fill:none;stroke:#000000;stroke-width:1.5;"/>
    <path clip-path="url(#p4ea12910f6)" d="M 398.487273 176.544 
L 398.487273 176.544 
" style="fill:none;stroke:#000000;stroke-width:1.5;"/>
   </g>
   <g id="line2d_38">
    <path clip-path="url(#p4ea12910f6)" d="M 57.6 277.344 
L 414.72 277.344 
" style="fill:none;stroke:#000000;stroke-dasharray:5.55,2.4;stroke-dashoffset:0;stroke-width:1.5;"/>
   </g>
   <g id="line2d_39">
    <path clip-path="url(#p4ea12910f6)" d="M 73.832727 285.222747 
L 77.994965 283.816459 
L 82.157203 282.628595 
L 86.319441 281.646933 
L 90.481678 280.859251 
L 94.643916 280.253326 
L 98.806154 279.816937 
L 102.968392 279.537862 
L 107.130629 279.403877 
L 111.292867 279.402761 
L 115.455105 279.522292 
L 119.617343 279.91742 
L 123.77958 280.175056 
L 127.941818 281.106095 
L 132.104056 281.83897 
L 136.266294 281.921405 
L 140.428531 282.56407 
L 144.590769 282.070821 
L 148.753007 281.972339 
L 152.915245 281.59395 
L 157.077483 281.182868 
L 161.23972 280.91831 
L 165.401958 280.096141 
L 169.564196 279.79373 
L 173.726434 278.995729 
L 177.888671 278.009856 
L 182.050909 277.372353 
L 186.213147 276.771389 
L 190.375385 276.181193 
L 194.537622 275.714901 
L 198.69986 275.860412 
L 202.862098 275.96169 
L 207.024336 276.084271 
L 211.186573 276.438326 
L 215.348811 276.547616 
L 219.511049 275.958356 
L 223.673287 276.723684 
L 227.835524 276.594586 
L 231.997762 276.880815 
L 236.16 277.133171 
L 240.322238 277.41473 
L 244.484476 278.682593 
L 248.646713 280.055492 
L 252.808951 281.440432 
L 256.971189 282.402293 
L 261.133427 283.464006 
L 265.295664 284.252109 
L 269.457902 284.603995 
L 273.62014 284.895656 
L 277.782378 284.488819 
L 281.944615 283.51456 
L 286.106853 282.526443 
L 290.269091 281.710504 
L 294.431329 280.722413 
L 298.593566 278.950417 
L 302.755804 277.590101 
L 306.918042 276.771745 
L 311.08028 275.580814 
L 315.242517 275.187371 
L 319.404755 275.08619 
L 323.566993 275.63194 
L 327.729231 276.532679 
L 331.891469 277.122605 
L 336.053706 277.726374 
L 340.215944 280.116586 
L 344.378182 278.948977 
L 348.54042 278.794785 
L 352.702657 275.792829 
L 356.864895 271.034566 
L 361.027133 266.019424 
L 365.189371 259.85453 
L 369.351608 252.483094 
L 373.513846 243.848326 
L 377.676084 233.893434 
L 381.838322 222.561629 
L 386.000559 209.796119 
L 390.162797 195.540116 
L 394.325035 179.736827 
L 398.487273 162.329463 
" style="fill:none;stroke:#000000;stroke-linecap:square;stroke-width:1.5;"/>
   </g>
   <g id="line2d_40">
    <defs>
     <path d="M -3 3 
L 3 -3 
M -3 -3 
L 3 3 
" id="m2ddba64921" style="stroke:#000000;"/>
    </defs>
    <g clip-path="url(#p4ea12910f6)">
     <use style="stroke:#000000;" x="73.832727" xlink:href="#m2ddba64921" y="283.997004"/>
     <use style="stroke:#000000;" x="77.994965" xlink:href="#m2ddba64921" y="282.106957"/>
     <use style="stroke:#000000;" x="82.157203" xlink:href="#m2ddba64921" y="286.207022"/>
     <use style="stroke:#000000;" x="86.319441" xlink:href="#m2ddba64921" y="283.6924"/>
     <use style="stroke:#000000;" x="90.481678" xlink:href="#m2ddba64921" y="282.814722"/>
     <use style="stroke:#000000;" x="94.643916" xlink:href="#m2ddba64921" y="279.156656"/>
     <use style="stroke:#000000;" x="98.806154" xlink:href="#m2ddba64921" y="274.374969"/>
     <use style="stroke:#000000;" x="102.968392" xlink:href="#m2ddba64921" y="280.433564"/>
     <use style="stroke:#000000;" x="107.130629" xlink:href="#m2ddba64921" y="274.927964"/>
     <use style="stroke:#000000;" x="111.292867" xlink:href="#m2ddba64921" y="285.470076"/>
     <use style="stroke:#000000;" x="115.455105" xlink:href="#m2ddba64921" y="278.327047"/>
     <use style="stroke:#000000;" x="119.617343" xlink:href="#m2ddba64921" y="276.064184"/>
     <use style="stroke:#000000;" x="123.77958" xlink:href="#m2ddba64921" y="285.504587"/>
     <use style="stroke:#000000;" x="127.941818" xlink:href="#m2ddba64921" y="281.296649"/>
     <use style="stroke:#000000;" x="132.104056" xlink:href="#m2ddba64921" y="277.360386"/>
     <use style="stroke:#000000;" x="136.266294" xlink:href="#m2ddba64921" y="286.299321"/>
     <use style="stroke:#000000;" x="140.428531" xlink:href="#m2ddba64921" y="283.053587"/>
     <use style="stroke:#000000;" x="144.590769" xlink:href="#m2ddba64921" y="278.552292"/>
     <use style="stroke:#000000;" x="148.753007" xlink:href="#m2ddba64921" y="280.52812"/>
     <use style="stroke:#000000;" x="152.915245" xlink:href="#m2ddba64921" y="286.378175"/>
     <use style="stroke:#000000;" x="157.077483" xlink:href="#m2ddba64921" y="285.165845"/>
     <use style="stroke:#000000;" x="161.23972" xlink:href="#m2ddba64921" y="280.33533"/>
     <use style="stroke:#000000;" x="165.401958" xlink:href="#m2ddba64921" y="280.764167"/>
     <use style="stroke:#000000;" x="169.564196" xlink:href="#m2ddba64921" y="275.536541"/>
     <use style="stroke:#000000;" x="173.726434" xlink:href="#m2ddba64921" y="275.155573"/>
     <use style="stroke:#000000;" x="177.888671" xlink:href="#m2ddba64921" y="284.228654"/>
     <use style="stroke:#000000;" x="182.050909" xlink:href="#m2ddba64921" y="272.106144"/>
     <use style="stroke:#000000;" x="186.213147" xlink:href="#m2ddba64921" y="279.234661"/>
     <use style="stroke:#000000;" x="190.375385" xlink:href="#m2ddba64921" y="277.634423"/>
     <use style="stroke:#000000;" x="194.537622" xlink:href="#m2ddba64921" y="272.339646"/>
     <use style="stroke:#000000;" x="198.69986" xlink:href="#m2ddba64921" y="282.043608"/>
     <use style="stroke:#000000;" x="202.862098" xlink:href="#m2ddba64921" y="272.629303"/>
     <use style="stroke:#000000;" x="207.024336" xlink:href="#m2ddba64921" y="273.854354"/>
     <use style="stroke:#000000;" x="211.186573" xlink:href="#m2ddba64921" y="274.187969"/>
     <use style="stroke:#000000;" x="215.348811" xlink:href="#m2ddba64921" y="277.319474"/>
     <use style="stroke:#000000;" x="219.511049" xlink:href="#m2ddba64921" y="274.956372"/>
     <use style="stroke:#000000;" x="223.673287" xlink:href="#m2ddba64921" y="280.05408"/>
     <use style="stroke:#000000;" x="227.835524" xlink:href="#m2ddba64921" y="280.047794"/>
     <use style="stroke:#000000;" x="231.997762" xlink:href="#m2ddba64921" y="276.654964"/>
     <use style="stroke:#000000;" x="236.16" xlink:href="#m2ddba64921" y="276.95622"/>
     <use style="stroke:#000000;" x="240.322238" xlink:href="#m2ddba64921" y="276.389745"/>
     <use style="stroke:#000000;" x="244.484476" xlink:href="#m2ddba64921" y="279.988502"/>
     <use style="stroke:#000000;" x="248.646713" xlink:href="#m2ddba64921" y="278.343148"/>
     <use style="stroke:#000000;" x="252.808951" xlink:href="#m2ddba64921" y="277.566947"/>
     <use style="stroke:#000000;" x="256.971189" xlink:href="#m2ddba64921" y="276.154034"/>
     <use style="stroke:#000000;" x="261.133427" xlink:href="#m2ddba64921" y="286.567926"/>
     <use style="stroke:#000000;" x="265.295664" xlink:href="#m2ddba64921" y="281.005772"/>
     <use style="stroke:#000000;" x="269.457902" xlink:href="#m2ddba64921" y="283.809856"/>
     <use style="stroke:#000000;" x="273.62014" xlink:href="#m2ddba64921" y="287.849514"/>
     <use style="stroke:#000000;" x="277.782378" xlink:href="#m2ddba64921" y="292.19015"/>
     <use style="stroke:#000000;" x="281.944615" xlink:href="#m2ddba64921" y="290.270846"/>
     <use style="stroke:#000000;" x="286.106853" xlink:href="#m2ddba64921" y="289.960231"/>
     <use style="stroke:#000000;" x="290.269091" xlink:href="#m2ddba64921" y="279.861871"/>
     <use style="stroke:#000000;" x="294.431329" xlink:href="#m2ddba64921" y="276.194931"/>
     <use style="stroke:#000000;" x="298.593566" xlink:href="#m2ddba64921" y="277.236729"/>
     <use style="stroke:#000000;" x="302.755804" xlink:href="#m2ddba64921" y="274.106043"/>
     <use style="stroke:#000000;" x="306.918042" xlink:href="#m2ddba64921" y="268.976086"/>
     <use style="stroke:#000000;" x="311.08028" xlink:href="#m2ddba64921" y="274.545726"/>
     <use style="stroke:#000000;" x="315.242517" xlink:href="#m2ddba64921" y="272.023535"/>
     <use style="stroke:#000000;" x="319.404755" xlink:href="#m2ddba64921" y="274.369999"/>
     <use style="stroke:#000000;" x="323.566993" xlink:href="#m2ddba64921" y="279.82517"/>
     <use style="stroke:#000000;" x="327.729231" xlink:href="#m2ddba64921" y="277.344"/>
     <use style="stroke:#000000;" x="331.891469" xlink:href="#m2ddba64921" y="276.330543"/>
     <use style="stroke:#000000;" x="336.053706" xlink:href="#m2ddba64921" y="274.813967"/>
     <use style="stroke:#000000;" x="340.215944" xlink:href="#m2ddba64921" y="283.908659"/>
     <use style="stroke:#000000;" x="344.378182" xlink:href="#m2ddba64921" y="275.324966"/>
     <use style="stroke:#000000;" x="348.54042" xlink:href="#m2ddba64921" y="277.409821"/>
     <use style="stroke:#000000;" x="352.702657" xlink:href="#m2ddba64921" y="278.279001"/>
     <use style="stroke:#000000;" x="356.864895" xlink:href="#m2ddba64921" y="268.998275"/>
     <use style="stroke:#000000;" x="361.027133" xlink:href="#m2ddba64921" y="267.639038"/>
     <use style="stroke:#000000;" x="365.189371" xlink:href="#m2ddba64921" y="263.248725"/>
     <use style="stroke:#000000;" x="369.351608" xlink:href="#m2ddba64921" y="255.639122"/>
     <use style="stroke:#000000;" x="373.513846" xlink:href="#m2ddba64921" y="258.710652"/>
     <use style="stroke:#000000;" x="377.676084" xlink:href="#m2ddba64921" y="243.69944"/>
     <use style="stroke:#000000;" x="381.838322" xlink:href="#m2ddba64921" y="194.055494"/>
     <use style="stroke:#000000;" x="386.000559" xlink:href="#m2ddba64921" y="219.683315"/>
     <use style="stroke:#000000;" x="390.162797" xlink:href="#m2ddba64921" y="176.544"/>
     <use style="stroke:#000000;" x="394.325035" xlink:href="#m2ddba64921" y="176.544"/>
     <use style="stroke:#000000;" x="398.487273" xlink:href="#m2ddba64921" y="176.544"/>
    </g>
   </g>
   <g id="patch_9">
    <path d="M 57.6 307.584 
L 57.6 247.104 
" style="fill:none;stroke:#000000;stroke-linecap:square;stroke-linejoin:miter;stroke-width:0.8;"/>
   </g>
   <g id="patch_10">
    <path d="M 414.72 307.584 
L 414.72 247.104 
" style="fill:none;stroke:#000000;stroke-linecap:square;stroke-linejoin:miter;stroke-width:0.8;"/>
   </g>
   <g id="patch_11">
    <path d="M 57.6 307.584 
L 414.72 307.584 
" style="fill:none;stroke:#000000;stroke-linecap:square;stroke-linejoin:miter;stroke-width:0.8;"/>
   </g>
   <g id="patch_12">
    <path d="M 57.6 247.104 
L 414.72 247.104 
" style="fill:none;stroke:#000000;stroke-linecap:square;stroke-linejoin:miter;stroke-width:0.8;"/>
   </g>
  </g>
 </g>
 <defs>
  <clipPath id="p417e670a07">
   <rect height="181.44" width="357.12" x="57.6" y="41.472"/>
  </clipPath>
  <clipPath id="p4ea12910f6">
   <rect height="60.48" width="357.12" x="57.6" y="247.104"/>
  </clipPath>
 </defs>
</svg>
