<?xml version="1.0" encoding="utf-8" standalone="no"?>
<!DOCTYPE svg PUBLIC "-//W3C//DTD SVG 1.1//EN"
  "http://www.w3.org/Graphics/SVG/1.1/DTD/svg11.dtd">
<!-- Created with matplotlib (http://matplotlib.org/) -->
<svg height="345.6pt" version="1.1" viewBox="0 0 460.8 345.6" width="460.8pt" xmlns="http://www.w3.org/2000/svg" xmlns:xlink="http://www.w3.org/1999/xlink">
 <defs>
  <style type="text/css">
*{stroke-linecap:butt;stroke-linejoin:round;}
  </style>
 </defs>
 <g id="figure_1">
  <g id="patch_1">
   <path d="M 0 345.6 
L 460.8 345.6 
L 460.8 0 
L 0 0 
z
" style="fill:#ffffff;"/>
  </g>
  <g id="axes_1">
   <g id="patch_2">
    <path d="M 57.6 222.912 
L 414.72 222.912 
L 414.72 41.472 
L 57.6 41.472 
z
" style="fill:#ffffff;"/>
   </g>
   <g id="matplotlib.axis_1">
    <g id="xtick_1">
     <g id="line2d_1">
      <defs>
       <path d="M 0 0 
L 0 3.5 
" id="me66eb9353d" style="stroke:#000000;stroke-width:0.8;"/>
      </defs>
      <g>
       <use style="stroke:#000000;stroke-width:0.8;" x="95.753846" xlink:href="#me66eb9353d" y="222.912"/>
      </g>
     </g>
     <g id="text_1">
      <!-- 26 -->
      <defs>
       <path d="M 19.1875 8.296875 
L 53.609375 8.296875 
L 53.609375 0 
L 7.328125 0 
L 7.328125 8.296875 
Q 12.9375 14.109375 22.625 23.890625 
Q 32.328125 33.6875 34.8125 36.53125 
Q 39.546875 41.84375 41.421875 45.53125 
Q 43.3125 49.21875 43.3125 52.78125 
Q 43.3125 58.59375 39.234375 62.25 
Q 35.15625 65.921875 28.609375 65.921875 
Q 23.96875 65.921875 18.8125 64.3125 
Q 13.671875 62.703125 7.8125 59.421875 
L 7.8125 69.390625 
Q 13.765625 71.78125 18.9375 73 
Q 24.125 74.21875 28.421875 74.21875 
Q 39.75 74.21875 46.484375 68.546875 
Q 53.21875 62.890625 53.21875 53.421875 
Q 53.21875 48.921875 51.53125 44.890625 
Q 49.859375 40.875 45.40625 35.40625 
Q 44.1875 33.984375 37.640625 27.21875 
Q 31.109375 20.453125 19.1875 8.296875 
z
" id="DejaVuSans-32"/>
       <path d="M 33.015625 40.375 
Q 26.375 40.375 22.484375 35.828125 
Q 18.609375 31.296875 18.609375 23.390625 
Q 18.609375 15.53125 22.484375 10.953125 
Q 26.375 6.390625 33.015625 6.390625 
Q 39.65625 6.390625 43.53125 10.953125 
Q 47.40625 15.53125 47.40625 23.390625 
Q 47.40625 31.296875 43.53125 35.828125 
Q 39.65625 40.375 33.015625 40.375 
z
M 52.59375 71.296875 
L 52.59375 62.3125 
Q 48.875 64.0625 45.09375 64.984375 
Q 41.3125 65.921875 37.59375 65.921875 
Q 27.828125 65.921875 22.671875 59.328125 
Q 17.53125 52.734375 16.796875 39.40625 
Q 19.671875 43.65625 24.015625 45.921875 
Q 28.375 48.1875 33.59375 48.1875 
Q 44.578125 48.1875 50.953125 41.515625 
Q 57.328125 34.859375 57.328125 23.390625 
Q 57.328125 12.15625 50.6875 5.359375 
Q 44.046875 -1.421875 33.015625 -1.421875 
Q 20.359375 -1.421875 13.671875 8.265625 
Q 6.984375 17.96875 6.984375 36.375 
Q 6.984375 53.65625 15.1875 63.9375 
Q 23.390625 74.21875 37.203125 74.21875 
Q 40.921875 74.21875 44.703125 73.484375 
Q 48.484375 72.75 52.59375 71.296875 
z
" id="DejaVuSans-36"/>
      </defs>
      <g transform="translate(89.391346 237.510437)scale(0.1 -0.1)">
       <use xlink:href="#DejaVuSans-32"/>
       <use x="63.623047" xlink:href="#DejaVuSans-36"/>
      </g>
     </g>
    </g>
    <g id="xtick_2">
     <g id="line2d_2">
      <g>
       <use style="stroke:#000000;stroke-width:0.8;" x="139.596084" xlink:href="#me66eb9353d" y="222.912"/>
      </g>
     </g>
     <g id="text_2">
      <!-- 28 -->
      <defs>
       <path d="M 31.78125 34.625 
Q 24.75 34.625 20.71875 30.859375 
Q 16.703125 27.09375 16.703125 20.515625 
Q 16.703125 13.921875 20.71875 10.15625 
Q 24.75 6.390625 31.78125 6.390625 
Q 38.8125 6.390625 42.859375 10.171875 
Q 46.921875 13.96875 46.921875 20.515625 
Q 46.921875 27.09375 42.890625 30.859375 
Q 38.875 34.625 31.78125 34.625 
z
M 21.921875 38.8125 
Q 15.578125 40.375 12.03125 44.71875 
Q 8.5 49.078125 8.5 55.328125 
Q 8.5 64.0625 14.71875 69.140625 
Q 20.953125 74.21875 31.78125 74.21875 
Q 42.671875 74.21875 48.875 69.140625 
Q 55.078125 64.0625 55.078125 55.328125 
Q 55.078125 49.078125 51.53125 44.71875 
Q 48 40.375 41.703125 38.8125 
Q 48.828125 37.15625 52.796875 32.3125 
Q 56.78125 27.484375 56.78125 20.515625 
Q 56.78125 9.90625 50.3125 4.234375 
Q 43.84375 -1.421875 31.78125 -1.421875 
Q 19.734375 -1.421875 13.25 4.234375 
Q 6.78125 9.90625 6.78125 20.515625 
Q 6.78125 27.484375 10.78125 32.3125 
Q 14.796875 37.15625 21.921875 38.8125 
z
M 18.3125 54.390625 
Q 18.3125 48.734375 21.84375 45.5625 
Q 25.390625 42.390625 31.78125 42.390625 
Q 38.140625 42.390625 41.71875 45.5625 
Q 45.3125 48.734375 45.3125 54.390625 
Q 45.3125 60.0625 41.71875 63.234375 
Q 38.140625 66.40625 31.78125 66.40625 
Q 25.390625 66.40625 21.84375 63.234375 
Q 18.3125 60.0625 18.3125 54.390625 
z
" id="DejaVuSans-38"/>
      </defs>
      <g transform="translate(133.233584 237.510437)scale(0.1 -0.1)">
       <use xlink:href="#DejaVuSans-32"/>
       <use x="63.623047" xlink:href="#DejaVuSans-38"/>
      </g>
     </g>
    </g>
    <g id="xtick_3">
     <g id="line2d_3">
      <g>
       <use style="stroke:#000000;stroke-width:0.8;" x="183.438322" xlink:href="#me66eb9353d" y="222.912"/>
      </g>
     </g>
     <g id="text_3">
      <!-- 30 -->
      <defs>
       <path d="M 40.578125 39.3125 
Q 47.65625 37.796875 51.625 33 
Q 55.609375 28.21875 55.609375 21.1875 
Q 55.609375 10.40625 48.1875 4.484375 
Q 40.765625 -1.421875 27.09375 -1.421875 
Q 22.515625 -1.421875 17.65625 -0.515625 
Q 12.796875 0.390625 7.625 2.203125 
L 7.625 11.71875 
Q 11.71875 9.328125 16.59375 8.109375 
Q 21.484375 6.890625 26.8125 6.890625 
Q 36.078125 6.890625 40.9375 10.546875 
Q 45.796875 14.203125 45.796875 21.1875 
Q 45.796875 27.640625 41.28125 31.265625 
Q 36.765625 34.90625 28.71875 34.90625 
L 20.21875 34.90625 
L 20.21875 43.015625 
L 29.109375 43.015625 
Q 36.375 43.015625 40.234375 45.921875 
Q 44.09375 48.828125 44.09375 54.296875 
Q 44.09375 59.90625 40.109375 62.90625 
Q 36.140625 65.921875 28.71875 65.921875 
Q 24.65625 65.921875 20.015625 65.03125 
Q 15.375 64.15625 9.8125 62.3125 
L 9.8125 71.09375 
Q 15.4375 72.65625 20.34375 73.4375 
Q 25.25 74.21875 29.59375 74.21875 
Q 40.828125 74.21875 47.359375 69.109375 
Q 53.90625 64.015625 53.90625 55.328125 
Q 53.90625 49.265625 50.4375 45.09375 
Q 46.96875 40.921875 40.578125 39.3125 
z
" id="DejaVuSans-33"/>
       <path d="M 31.78125 66.40625 
Q 24.171875 66.40625 20.328125 58.90625 
Q 16.5 51.421875 16.5 36.375 
Q 16.5 21.390625 20.328125 13.890625 
Q 24.171875 6.390625 31.78125 6.390625 
Q 39.453125 6.390625 43.28125 13.890625 
Q 47.125 21.390625 47.125 36.375 
Q 47.125 51.421875 43.28125 58.90625 
Q 39.453125 66.40625 31.78125 66.40625 
z
M 31.78125 74.21875 
Q 44.046875 74.21875 50.515625 64.515625 
Q 56.984375 54.828125 56.984375 36.375 
Q 56.984375 17.96875 50.515625 8.265625 
Q 44.046875 -1.421875 31.78125 -1.421875 
Q 19.53125 -1.421875 13.0625 8.265625 
Q 6.59375 17.96875 6.59375 36.375 
Q 6.59375 54.828125 13.0625 64.515625 
Q 19.53125 74.21875 31.78125 74.21875 
z
" id="DejaVuSans-30"/>
      </defs>
      <g transform="translate(177.075822 237.510437)scale(0.1 -0.1)">
       <use xlink:href="#DejaVuSans-33"/>
       <use x="63.623047" xlink:href="#DejaVuSans-30"/>
      </g>
     </g>
    </g>
    <g id="xtick_4">
     <g id="line2d_4">
      <g>
       <use style="stroke:#000000;stroke-width:0.8;" x="227.280559" xlink:href="#me66eb9353d" y="222.912"/>
      </g>
     </g>
     <g id="text_4">
      <!-- 32 -->
      <g transform="translate(220.918059 237.510437)scale(0.1 -0.1)">
       <use xlink:href="#DejaVuSans-33"/>
       <use x="63.623047" xlink:href="#DejaVuSans-32"/>
      </g>
     </g>
    </g>
    <g id="xtick_5">
     <g id="line2d_5">
      <g>
       <use style="stroke:#000000;stroke-width:0.8;" x="271.122797" xlink:href="#me66eb9353d" y="222.912"/>
      </g>
     </g>
     <g id="text_5">
      <!-- 34 -->
      <defs>
       <path d="M 37.796875 64.3125 
L 12.890625 25.390625 
L 37.796875 25.390625 
z
M 35.203125 72.90625 
L 47.609375 72.90625 
L 47.609375 25.390625 
L 58.015625 25.390625 
L 58.015625 17.1875 
L 47.609375 17.1875 
L 47.609375 0 
L 37.796875 0 
L 37.796875 17.1875 
L 4.890625 17.1875 
L 4.890625 26.703125 
z
" id="DejaVuSans-34"/>
      </defs>
      <g transform="translate(264.760297 237.510437)scale(0.1 -0.1)">
       <use xlink:href="#DejaVuSans-33"/>
       <use x="63.623047" xlink:href="#DejaVuSans-34"/>
      </g>
     </g>
    </g>
    <g id="xtick_6">
     <g id="line2d_6">
      <g>
       <use style="stroke:#000000;stroke-width:0.8;" x="314.965035" xlink:href="#me66eb9353d" y="222.912"/>
      </g>
     </g>
     <g id="text_6">
      <!-- 36 -->
      <g transform="translate(308.602535 237.510437)scale(0.1 -0.1)">
       <use xlink:href="#DejaVuSans-33"/>
       <use x="63.623047" xlink:href="#DejaVuSans-36"/>
      </g>
     </g>
    </g>
    <g id="xtick_7">
     <g id="line2d_7">
      <g>
       <use style="stroke:#000000;stroke-width:0.8;" x="358.807273" xlink:href="#me66eb9353d" y="222.912"/>
      </g>
     </g>
     <g id="text_7">
      <!-- 38 -->
      <g transform="translate(352.444773 237.510437)scale(0.1 -0.1)">
       <use xlink:href="#DejaVuSans-33"/>
       <use x="63.623047" xlink:href="#DejaVuSans-38"/>
      </g>
     </g>
    </g>
    <g id="xtick_8">
     <g id="line2d_8">
      <g>
       <use style="stroke:#000000;stroke-width:0.8;" x="402.64951" xlink:href="#me66eb9353d" y="222.912"/>
      </g>
     </g>
     <g id="text_8">
      <!-- 40 -->
      <g transform="translate(396.28701 237.510437)scale(0.1 -0.1)">
       <use xlink:href="#DejaVuSans-34"/>
       <use x="63.623047" xlink:href="#DejaVuSans-30"/>
      </g>
     </g>
    </g>
   </g>
   <g id="matplotlib.axis_2">
    <g id="ytick_1">
     <g id="line2d_9">
      <defs>
       <path d="M 0 0 
L -3.5 0 
" id="m44c7d15ea9" style="stroke:#000000;stroke-width:0.8;"/>
      </defs>
      <g>
       <use style="stroke:#000000;stroke-width:0.8;" x="57.6" xlink:href="#m44c7d15ea9" y="215.021311"/>
      </g>
     </g>
     <g id="text_9">
      <!-- 0 -->
      <g transform="translate(44.2375 218.82053)scale(0.1 -0.1)">
       <use xlink:href="#DejaVuSans-30"/>
      </g>
     </g>
    </g>
    <g id="ytick_2">
     <g id="line2d_10">
      <g>
       <use style="stroke:#000000;stroke-width:0.8;" x="57.6" xlink:href="#m44c7d15ea9" y="181.781408"/>
      </g>
     </g>
     <g id="text_10">
      <!-- 5000 -->
      <defs>
       <path d="M 10.796875 72.90625 
L 49.515625 72.90625 
L 49.515625 64.59375 
L 19.828125 64.59375 
L 19.828125 46.734375 
Q 21.96875 47.46875 24.109375 47.828125 
Q 26.265625 48.1875 28.421875 48.1875 
Q 40.625 48.1875 47.75 41.5 
Q 54.890625 34.8125 54.890625 23.390625 
Q 54.890625 11.625 47.5625 5.09375 
Q 40.234375 -1.421875 26.90625 -1.421875 
Q 22.3125 -1.421875 17.546875 -0.640625 
Q 12.796875 0.140625 7.71875 1.703125 
L 7.71875 11.625 
Q 12.109375 9.234375 16.796875 8.0625 
Q 21.484375 6.890625 26.703125 6.890625 
Q 35.15625 6.890625 40.078125 11.328125 
Q 45.015625 15.765625 45.015625 23.390625 
Q 45.015625 31 40.078125 35.4375 
Q 35.15625 39.890625 26.703125 39.890625 
Q 22.75 39.890625 18.8125 39.015625 
Q 14.890625 38.140625 10.796875 36.28125 
z
" id="DejaVuSans-35"/>
      </defs>
      <g transform="translate(25.15 185.580627)scale(0.1 -0.1)">
       <use xlink:href="#DejaVuSans-35"/>
       <use x="63.623047" xlink:href="#DejaVuSans-30"/>
       <use x="127.246094" xlink:href="#DejaVuSans-30"/>
       <use x="190.869141" xlink:href="#DejaVuSans-30"/>
      </g>
     </g>
    </g>
    <g id="ytick_3">
     <g id="line2d_11">
      <g>
       <use style="stroke:#000000;stroke-width:0.8;" x="57.6" xlink:href="#m44c7d15ea9" y="148.541505"/>
      </g>
     </g>
     <g id="text_11">
      <!-- 10000 -->
      <defs>
       <path d="M 12.40625 8.296875 
L 28.515625 8.296875 
L 28.515625 63.921875 
L 10.984375 60.40625 
L 10.984375 69.390625 
L 28.421875 72.90625 
L 38.28125 72.90625 
L 38.28125 8.296875 
L 54.390625 8.296875 
L 54.390625 0 
L 12.40625 0 
z
" id="DejaVuSans-31"/>
      </defs>
      <g transform="translate(18.7875 152.340724)scale(0.1 -0.1)">
       <use xlink:href="#DejaVuSans-31"/>
       <use x="63.623047" xlink:href="#DejaVuSans-30"/>
       <use x="127.246094" xlink:href="#DejaVuSans-30"/>
       <use x="190.869141" xlink:href="#DejaVuSans-30"/>
       <use x="254.492188" xlink:href="#DejaVuSans-30"/>
      </g>
     </g>
    </g>
    <g id="ytick_4">
     <g id="line2d_12">
      <g>
       <use style="stroke:#000000;stroke-width:0.8;" x="57.6" xlink:href="#m44c7d15ea9" y="115.301602"/>
      </g>
     </g>
     <g id="text_12">
      <!-- 15000 -->
      <g transform="translate(18.7875 119.10082)scale(0.1 -0.1)">
       <use xlink:href="#DejaVuSans-31"/>
       <use x="63.623047" xlink:href="#DejaVuSans-35"/>
       <use x="127.246094" xlink:href="#DejaVuSans-30"/>
       <use x="190.869141" xlink:href="#DejaVuSans-30"/>
       <use x="254.492188" xlink:href="#DejaVuSans-30"/>
      </g>
     </g>
    </g>
    <g id="ytick_5">
     <g id="line2d_13">
      <g>
       <use style="stroke:#000000;stroke-width:0.8;" x="57.6" xlink:href="#m44c7d15ea9" y="82.061698"/>
      </g>
     </g>
     <g id="text_13">
      <!-- 20000 -->
      <g transform="translate(18.7875 85.860917)scale(0.1 -0.1)">
       <use xlink:href="#DejaVuSans-32"/>
       <use x="63.623047" xlink:href="#DejaVuSans-30"/>
       <use x="127.246094" xlink:href="#DejaVuSans-30"/>
       <use x="190.869141" xlink:href="#DejaVuSans-30"/>
       <use x="254.492188" xlink:href="#DejaVuSans-30"/>
      </g>
     </g>
    </g>
    <g id="ytick_6">
     <g id="line2d_14">
      <g>
       <use style="stroke:#000000;stroke-width:0.8;" x="57.6" xlink:href="#m44c7d15ea9" y="48.821795"/>
      </g>
     </g>
     <g id="text_14">
      <!-- 25000 -->
      <g transform="translate(18.7875 52.621014)scale(0.1 -0.1)">
       <use xlink:href="#DejaVuSans-32"/>
       <use x="63.623047" xlink:href="#DejaVuSans-35"/>
       <use x="127.246094" xlink:href="#DejaVuSans-30"/>
       <use x="190.869141" xlink:href="#DejaVuSans-30"/>
       <use x="254.492188" xlink:href="#DejaVuSans-30"/>
      </g>
     </g>
    </g>
   </g>
   <g id="line2d_15">
    <path clip-path="url(#p87cf8b2fa6)" d="M 73.832727 189.865352 
L 77.994965 189.865352 
L 77.994965 185.796788 
L 82.157203 185.796788 
L 82.157203 187.611687 
L 86.319441 187.611687 
L 86.319441 185.29819 
L 90.481678 185.29819 
L 90.481678 189.134074 
L 94.643916 189.134074 
L 94.643916 183.988537 
L 98.806154 183.988537 
L 98.806154 188.229949 
L 102.968392 188.229949 
L 102.968392 185.98958 
L 107.130629 185.98958 
L 107.130629 187.950734 
L 111.292867 187.950734 
L 111.292867 184.533672 
L 115.455105 184.533672 
L 115.455105 184.367472 
L 119.617343 184.367472 
L 119.617343 185.045566 
L 123.77958 185.045566 
L 123.77958 182.645645 
L 127.941818 182.645645 
L 127.941818 184.048369 
L 132.104056 184.048369 
L 132.104056 180.558179 
L 136.266294 180.558179 
L 136.266294 179.514446 
L 140.428531 179.514446 
L 140.428531 181.070074 
L 144.590769 181.070074 
L 144.590769 174.395501 
L 148.753007 174.395501 
L 148.753007 178.131667 
L 152.915245 178.131667 
L 152.915245 166.544236 
L 157.077483 166.544236 
L 157.077483 174.661421 
L 161.23972 174.661421 
L 161.23972 161.212556 
L 165.401958 161.212556 
L 165.401958 153.713634 
L 169.564196 153.713634 
L 169.564196 160.115639 
L 173.726434 160.115639 
L 173.726434 134.620633 
L 177.888671 134.620633 
L 177.888671 146.826326 
L 182.050909 146.826326 
L 182.050909 113.021344 
L 186.213147 113.021344 
L 186.213147 122.348461 
L 190.375385 122.348461 
L 190.375385 100.436717 
L 194.537622 100.436717 
L 194.537622 104.631593 
L 198.69986 104.631593 
L 198.69986 77.467944 
L 202.862098 77.467944 
L 202.862098 95.085093 
L 207.024336 95.085093 
L 207.024336 49.719273 
L 211.186573 49.719273 
L 211.186573 86.376238 
L 215.348811 86.376238 
L 215.348811 66.405704 
L 219.511049 66.405704 
L 219.511049 77.846879 
L 223.673287 77.846879 
L 223.673287 84.275476 
L 227.835524 84.275476 
L 227.835524 82.859456 
L 231.997762 82.859456 
L 231.997762 112.688945 
L 236.16 112.688945 
L 236.16 114.749819 
L 240.322238 114.749819 
L 240.322238 127.819749 
L 244.484476 127.819749 
L 244.484476 141.84034 
L 248.646713 141.84034 
L 248.646713 146.839622 
L 252.808951 146.839622 
L 252.808951 162.881199 
L 256.971189 162.881199 
L 256.971189 169.256612 
L 261.133427 169.256612 
L 261.133427 175.499066 
L 265.295664 175.499066 
L 265.295664 180.584771 
L 269.457902 180.584771 
L 269.457902 183.862226 
L 273.62014 183.862226 
L 273.62014 185.7569 
L 277.782378 185.7569 
L 277.782378 188.502516 
L 281.944615 188.502516 
L 281.944615 186.494826 
L 286.106853 186.494826 
L 286.106853 185.750252 
L 290.269091 185.750252 
L 290.269091 184.37412 
L 294.431329 184.37412 
L 294.431329 188.03051 
L 298.593566 188.03051 
L 298.593566 184.380768 
L 302.755804 184.380768 
L 302.755804 188.582292 
L 306.918042 188.582292 
L 306.918042 185.557461 
L 311.08028 185.557461 
L 311.08028 189.925184 
L 315.242517 189.925184 
L 315.242517 188.568996 
L 319.404755 188.568996 
L 319.404755 189.898592 
L 323.566993 189.898592 
L 323.566993 194.146652 
L 327.729231 194.146652 
L 327.729231 195.595912 
L 331.891469 195.595912 
L 331.891469 198.906606 
L 336.053706 198.906606 
L 336.053706 200.136482 
L 340.215944 200.136482 
L 340.215944 201.997917 
L 344.378182 201.997917 
L 344.378182 204.131919 
L 348.54042 204.131919 
L 348.54042 207.02379 
L 352.702657 207.02379 
L 352.702657 207.176694 
L 356.864895 207.176694 
L 356.864895 208.938409 
L 361.027133 208.938409 
L 361.027133 209.357232 
L 365.189371 209.357232 
L 365.189371 210.819787 
L 369.351608 210.819787 
L 369.351608 210.494036 
L 373.513846 210.494036 
L 373.513846 211.883464 
L 377.676084 211.883464 
L 377.676084 211.351626 
L 381.838322 211.351626 
L 381.838322 212.249103 
L 394.325035 212.182623 
L 394.325035 212.701166 
L 398.487273 212.701166 
L 398.487273 212.475134 
L 398.487273 212.475134 
" style="fill:none;stroke:#1f77b4;stroke-linecap:square;stroke-width:1.5;"/>
   </g>
   <g id="line2d_16">
    <path clip-path="url(#p87cf8b2fa6)" d="M 73.832727 198.567518 
L 77.994965 198.567518 
L 77.994965 196.478956 
L 82.157203 196.478956 
L 82.157203 196.631778 
L 94.643916 196.555367 
L 94.643916 194.645097 
L 98.806154 194.645097 
L 98.806154 195.179972 
L 102.968392 195.179972 
L 102.968392 194.721508 
L 107.130629 194.721508 
L 107.130629 194.237572 
L 111.292867 194.237572 
L 111.292867 193.015 
L 115.455105 193.015 
L 115.455105 191.537724 
L 119.617343 191.537724 
L 119.617343 190.850027 
L 123.77958 190.850027 
L 123.77958 188.710524 
L 127.941818 188.710524 
L 127.941818 188.404881 
L 132.104056 188.404881 
L 132.104056 185.806914 
L 140.428531 185.883325 
L 140.428531 182.57219 
L 144.590769 182.57219 
L 144.590769 179.184644 
L 148.753007 179.184644 
L 148.753007 175.669747 
L 152.915245 175.669747 
L 152.915245 171.467153 
L 157.077483 171.467153 
L 157.077483 167.162678 
L 161.23972 167.162678 
L 161.23972 162.57803 
L 165.401958 162.57803 
L 165.401958 153.612495 
L 169.564196 153.612495 
L 169.564196 144.392258 
L 173.726434 144.392258 
L 173.726434 134.535265 
L 177.888671 134.535265 
L 177.888671 123.583049 
L 182.050909 123.583049 
L 182.050909 117.01172 
L 186.213147 117.01172 
L 186.213147 103.461538 
L 190.375385 103.461538 
L 190.375385 90.191528 
L 194.537622 90.191528 
L 194.537622 79.468546 
L 198.69986 79.468546 
L 198.69986 71.165238 
L 202.862098 71.165238 
L 202.862098 58.837629 
L 207.024336 58.837629 
L 207.024336 53.31058 
L 211.186573 53.31058 
L 211.186573 49.719273 
L 215.348811 49.719273 
L 215.348811 50.941846 
L 219.511049 50.941846 
L 219.511049 56.265132 
L 223.673287 56.265132 
L 223.673287 61.002601 
L 227.835524 61.002601 
L 227.835524 71.088827 
L 231.997762 71.088827 
L 231.997762 82.117453 
L 236.16 82.117453 
L 236.16 97.093971 
L 240.322238 97.093971 
L 240.322238 110.236629 
L 244.484476 110.236629 
L 244.484476 121.545428 
L 248.646713 121.545428 
L 248.646713 133.541924 
L 252.808951 133.541924 
L 252.808951 148.009036 
L 256.971189 148.009036 
L 256.971189 158.655608 
L 261.133427 158.655608 
L 261.133427 167.977726 
L 265.295664 167.977726 
L 265.295664 174.905639 
L 269.457902 174.905639 
L 269.457902 181.043974 
L 273.62014 181.043974 
L 273.62014 182.57219 
L 277.782378 182.57219 
L 277.782378 184.406049 
L 281.944615 184.406049 
L 281.944615 186.876665 
L 286.106853 186.876665 
L 286.106853 188.735995 
L 290.269091 188.735995 
L 290.269091 185.908795 
L 294.431329 185.908795 
L 294.431329 185.552211 
L 298.593566 185.552211 
L 298.593566 185.755973 
L 302.755804 185.755973 
L 302.755804 185.119217 
L 306.918042 185.119217 
L 306.918042 184.686222 
L 311.08028 184.686222 
L 311.08028 184.380579 
L 315.242517 184.380579 
L 315.242517 185.093746 
L 319.404755 185.093746 
L 319.404755 187.33513 
L 323.566993 187.33513 
L 323.566993 189.474632 
L 327.729231 189.474632 
L 327.729231 190.417032 
L 331.891469 190.417032 
L 331.891469 192.760297 
L 336.053706 192.760297 
L 336.053706 196.224253 
L 340.215944 196.224253 
L 340.215944 198.975042 
L 344.378182 198.975042 
L 344.378182 201.496599 
L 348.54042 201.496599 
L 348.54042 204.018155 
L 352.702657 204.018155 
L 352.702657 205.189788 
L 356.864895 205.189788 
L 356.864895 207.940577 
L 361.027133 207.940577 
L 361.027133 209.545203 
L 365.189371 209.545203 
L 365.189371 210.767776 
L 369.351608 210.767776 
L 369.351608 211.659236 
L 373.513846 211.659236 
L 373.513846 213.00916 
L 377.676084 213.00916 
L 377.676084 213.212922 
L 381.838322 213.212922 
L 381.838322 213.824208 
L 386.000559 213.824208 
L 386.000559 214.231733 
L 390.162797 214.231733 
L 390.162797 214.511906 
L 398.487273 214.588316 
L 398.487273 214.664727 
L 398.487273 214.664727 
" style="fill:none;stroke:#2ca02c;stroke-linecap:square;stroke-width:1.5;"/>
   </g>
   <g id="patch_3">
    <path d="M 57.6 222.912 
L 57.6 41.472 
" style="fill:none;stroke:#000000;stroke-linecap:square;stroke-linejoin:miter;stroke-width:0.8;"/>
   </g>
   <g id="patch_4">
    <path d="M 414.72 222.912 
L 414.72 41.472 
" style="fill:none;stroke:#000000;stroke-linecap:square;stroke-linejoin:miter;stroke-width:0.8;"/>
   </g>
   <g id="patch_5">
    <path d="M 57.6 222.912 
L 414.72 222.912 
" style="fill:none;stroke:#000000;stroke-linecap:square;stroke-linejoin:miter;stroke-width:0.8;"/>
   </g>
   <g id="patch_6">
    <path d="M 57.6 41.472 
L 414.72 41.472 
" style="fill:none;stroke:#000000;stroke-linecap:square;stroke-linejoin:miter;stroke-width:0.8;"/>
   </g>
   <g id="legend_1">
    <g id="patch_7">
     <path d="M 351.843438 78.82825 
L 407.72 78.82825 
Q 409.72 78.82825 409.72 76.82825 
L 409.72 48.472 
Q 409.72 46.472 407.72 46.472 
L 351.843438 46.472 
Q 349.843438 46.472 349.843438 48.472 
L 349.843438 76.82825 
Q 349.843438 78.82825 351.843438 78.82825 
z
" style="fill:#ffffff;opacity:0.8;stroke:#cccccc;stroke-linejoin:miter;"/>
    </g>
    <g id="line2d_17">
     <path d="M 353.843438 54.570437 
L 373.843438 54.570437 
" style="fill:none;stroke:#1f77b4;stroke-linecap:square;stroke-width:1.5;"/>
    </g>
    <g id="line2d_18"/>
    <g id="text_15">
     <!-- Data -->
     <defs>
      <path d="M 19.671875 64.796875 
L 19.671875 8.109375 
L 31.59375 8.109375 
Q 46.6875 8.109375 53.6875 14.9375 
Q 60.6875 21.78125 60.6875 36.53125 
Q 60.6875 51.171875 53.6875 57.984375 
Q 46.6875 64.796875 31.59375 64.796875 
z
M 9.8125 72.90625 
L 30.078125 72.90625 
Q 51.265625 72.90625 61.171875 64.09375 
Q 71.09375 55.28125 71.09375 36.53125 
Q 71.09375 17.671875 61.125 8.828125 
Q 51.171875 0 30.078125 0 
L 9.8125 0 
z
" id="DejaVuSans-44"/>
      <path d="M 34.28125 27.484375 
Q 23.390625 27.484375 19.1875 25 
Q 14.984375 22.515625 14.984375 16.5 
Q 14.984375 11.71875 18.140625 8.90625 
Q 21.296875 6.109375 26.703125 6.109375 
Q 34.1875 6.109375 38.703125 11.40625 
Q 43.21875 16.703125 43.21875 25.484375 
L 43.21875 27.484375 
z
M 52.203125 31.203125 
L 52.203125 0 
L 43.21875 0 
L 43.21875 8.296875 
Q 40.140625 3.328125 35.546875 0.953125 
Q 30.953125 -1.421875 24.3125 -1.421875 
Q 15.921875 -1.421875 10.953125 3.296875 
Q 6 8.015625 6 15.921875 
Q 6 25.140625 12.171875 29.828125 
Q 18.359375 34.515625 30.609375 34.515625 
L 43.21875 34.515625 
L 43.21875 35.40625 
Q 43.21875 41.609375 39.140625 45 
Q 35.0625 48.390625 27.6875 48.390625 
Q 23 48.390625 18.546875 47.265625 
Q 14.109375 46.140625 10.015625 43.890625 
L 10.015625 52.203125 
Q 14.9375 54.109375 19.578125 55.046875 
Q 24.21875 56 28.609375 56 
Q 40.484375 56 46.34375 49.84375 
Q 52.203125 43.703125 52.203125 31.203125 
z
" id="DejaVuSans-61"/>
      <path d="M 18.3125 70.21875 
L 18.3125 54.6875 
L 36.8125 54.6875 
L 36.8125 47.703125 
L 18.3125 47.703125 
L 18.3125 18.015625 
Q 18.3125 11.328125 20.140625 9.421875 
Q 21.96875 7.515625 27.59375 7.515625 
L 36.8125 7.515625 
L 36.8125 0 
L 27.59375 0 
Q 17.1875 0 13.234375 3.875 
Q 9.28125 7.765625 9.28125 18.015625 
L 9.28125 47.703125 
L 2.6875 47.703125 
L 2.6875 54.6875 
L 9.28125 54.6875 
L 9.28125 70.21875 
z
" id="DejaVuSans-74"/>
     </defs>
     <g transform="translate(381.843438 58.070437)scale(0.1 -0.1)">
      <use xlink:href="#DejaVuSans-44"/>
      <use x="77.001953" xlink:href="#DejaVuSans-61"/>
      <use x="138.28125" xlink:href="#DejaVuSans-74"/>
      <use x="177.490234" xlink:href="#DejaVuSans-61"/>
     </g>
    </g>
    <g id="line2d_19">
     <path d="M 353.843438 69.248562 
L 373.843438 69.248562 
" style="fill:none;stroke:#2ca02c;stroke-linecap:square;stroke-width:1.5;"/>
    </g>
    <g id="line2d_20"/>
    <g id="text_16">
     <!-- MC -->
     <defs>
      <path d="M 9.8125 72.90625 
L 24.515625 72.90625 
L 43.109375 23.296875 
L 61.8125 72.90625 
L 76.515625 72.90625 
L 76.515625 0 
L 66.890625 0 
L 66.890625 64.015625 
L 48.09375 14.015625 
L 38.1875 14.015625 
L 19.390625 64.015625 
L 19.390625 0 
L 9.8125 0 
z
" id="DejaVuSans-4d"/>
      <path d="M 64.40625 67.28125 
L 64.40625 56.890625 
Q 59.421875 61.53125 53.78125 63.8125 
Q 48.140625 66.109375 41.796875 66.109375 
Q 29.296875 66.109375 22.65625 58.46875 
Q 16.015625 50.828125 16.015625 36.375 
Q 16.015625 21.96875 22.65625 14.328125 
Q 29.296875 6.6875 41.796875 6.6875 
Q 48.140625 6.6875 53.78125 8.984375 
Q 59.421875 11.28125 64.40625 15.921875 
L 64.40625 5.609375 
Q 59.234375 2.09375 53.4375 0.328125 
Q 47.65625 -1.421875 41.21875 -1.421875 
Q 24.65625 -1.421875 15.125 8.703125 
Q 5.609375 18.84375 5.609375 36.375 
Q 5.609375 53.953125 15.125 64.078125 
Q 24.65625 74.21875 41.21875 74.21875 
Q 47.75 74.21875 53.53125 72.484375 
Q 59.328125 70.75 64.40625 67.28125 
z
" id="DejaVuSans-43"/>
     </defs>
     <g transform="translate(381.843438 72.748562)scale(0.1 -0.1)">
      <use xlink:href="#DejaVuSans-4d"/>
      <use x="86.279297" xlink:href="#DejaVuSans-43"/>
     </g>
    </g>
   </g>
  </g>
  <g id="axes_2">
   <g id="patch_8">
    <path d="M 57.6 307.584 
L 414.72 307.584 
L 414.72 247.104 
L 57.6 247.104 
z
" style="fill:#ffffff;"/>
   </g>
   <g id="matplotlib.axis_3">
    <g id="xtick_9">
     <g id="line2d_21">
      <path clip-path="url(#p1cf57ce876)" d="M 95.753846 307.584 
L 95.753846 247.104 
" style="fill:none;stroke:#b0b0b0;stroke-linecap:square;stroke-width:0.8;"/>
     </g>
     <g id="line2d_22">
      <g>
       <use style="stroke:#000000;stroke-width:0.8;" x="95.753846" xlink:href="#me66eb9353d" y="307.584"/>
      </g>
     </g>
     <g id="text_17">
      <!-- 26 -->
      <g transform="translate(89.391346 322.182437)scale(0.1 -0.1)">
       <use xlink:href="#DejaVuSans-32"/>
       <use x="63.623047" xlink:href="#DejaVuSans-36"/>
      </g>
     </g>
    </g>
    <g id="xtick_10">
     <g id="line2d_23">
      <path clip-path="url(#p1cf57ce876)" d="M 139.596084 307.584 
L 139.596084 247.104 
" style="fill:none;stroke:#b0b0b0;stroke-linecap:square;stroke-width:0.8;"/>
     </g>
     <g id="line2d_24">
      <g>
       <use style="stroke:#000000;stroke-width:0.8;" x="139.596084" xlink:href="#me66eb9353d" y="307.584"/>
      </g>
     </g>
     <g id="text_18">
      <!-- 28 -->
      <g transform="translate(133.233584 322.182437)scale(0.1 -0.1)">
       <use xlink:href="#DejaVuSans-32"/>
       <use x="63.623047" xlink:href="#DejaVuSans-38"/>
      </g>
     </g>
    </g>
    <g id="xtick_11">
     <g id="line2d_25">
      <path clip-path="url(#p1cf57ce876)" d="M 183.438322 307.584 
L 183.438322 247.104 
" style="fill:none;stroke:#b0b0b0;stroke-linecap:square;stroke-width:0.8;"/>
     </g>
     <g id="line2d_26">
      <g>
       <use style="stroke:#000000;stroke-width:0.8;" x="183.438322" xlink:href="#me66eb9353d" y="307.584"/>
      </g>
     </g>
     <g id="text_19">
      <!-- 30 -->
      <g transform="translate(177.075822 322.182437)scale(0.1 -0.1)">
       <use xlink:href="#DejaVuSans-33"/>
       <use x="63.623047" xlink:href="#DejaVuSans-30"/>
      </g>
     </g>
    </g>
    <g id="xtick_12">
     <g id="line2d_27">
      <path clip-path="url(#p1cf57ce876)" d="M 227.280559 307.584 
L 227.280559 247.104 
" style="fill:none;stroke:#b0b0b0;stroke-linecap:square;stroke-width:0.8;"/>
     </g>
     <g id="line2d_28">
      <g>
       <use style="stroke:#000000;stroke-width:0.8;" x="227.280559" xlink:href="#me66eb9353d" y="307.584"/>
      </g>
     </g>
     <g id="text_20">
      <!-- 32 -->
      <g transform="translate(220.918059 322.182437)scale(0.1 -0.1)">
       <use xlink:href="#DejaVuSans-33"/>
       <use x="63.623047" xlink:href="#DejaVuSans-32"/>
      </g>
     </g>
    </g>
    <g id="xtick_13">
     <g id="line2d_29">
      <path clip-path="url(#p1cf57ce876)" d="M 271.122797 307.584 
L 271.122797 247.104 
" style="fill:none;stroke:#b0b0b0;stroke-linecap:square;stroke-width:0.8;"/>
     </g>
     <g id="line2d_30">
      <g>
       <use style="stroke:#000000;stroke-width:0.8;" x="271.122797" xlink:href="#me66eb9353d" y="307.584"/>
      </g>
     </g>
     <g id="text_21">
      <!-- 34 -->
      <g transform="translate(264.760297 322.182437)scale(0.1 -0.1)">
       <use xlink:href="#DejaVuSans-33"/>
       <use x="63.623047" xlink:href="#DejaVuSans-34"/>
      </g>
     </g>
    </g>
    <g id="xtick_14">
     <g id="line2d_31">
      <path clip-path="url(#p1cf57ce876)" d="M 314.965035 307.584 
L 314.965035 247.104 
" style="fill:none;stroke:#b0b0b0;stroke-linecap:square;stroke-width:0.8;"/>
     </g>
     <g id="line2d_32">
      <g>
       <use style="stroke:#000000;stroke-width:0.8;" x="314.965035" xlink:href="#me66eb9353d" y="307.584"/>
      </g>
     </g>
     <g id="text_22">
      <!-- 36 -->
      <g transform="translate(308.602535 322.182437)scale(0.1 -0.1)">
       <use xlink:href="#DejaVuSans-33"/>
       <use x="63.623047" xlink:href="#DejaVuSans-36"/>
      </g>
     </g>
    </g>
    <g id="xtick_15">
     <g id="line2d_33">
      <path clip-path="url(#p1cf57ce876)" d="M 358.807273 307.584 
L 358.807273 247.104 
" style="fill:none;stroke:#b0b0b0;stroke-linecap:square;stroke-width:0.8;"/>
     </g>
     <g id="line2d_34">
      <g>
       <use style="stroke:#000000;stroke-width:0.8;" x="358.807273" xlink:href="#me66eb9353d" y="307.584"/>
      </g>
     </g>
     <g id="text_23">
      <!-- 38 -->
      <g transform="translate(352.444773 322.182437)scale(0.1 -0.1)">
       <use xlink:href="#DejaVuSans-33"/>
       <use x="63.623047" xlink:href="#DejaVuSans-38"/>
      </g>
     </g>
    </g>
    <g id="xtick_16">
     <g id="line2d_35">
      <path clip-path="url(#p1cf57ce876)" d="M 402.64951 307.584 
L 402.64951 247.104 
" style="fill:none;stroke:#b0b0b0;stroke-linecap:square;stroke-width:0.8;"/>
     </g>
     <g id="line2d_36">
      <g>
       <use style="stroke:#000000;stroke-width:0.8;" x="402.64951" xlink:href="#me66eb9353d" y="307.584"/>
      </g>
     </g>
     <g id="text_24">
      <!-- 40 -->
      <g transform="translate(396.28701 322.182437)scale(0.1 -0.1)">
       <use xlink:href="#DejaVuSans-34"/>
       <use x="63.623047" xlink:href="#DejaVuSans-30"/>
      </g>
     </g>
    </g>
    <g id="text_25">
     <!-- Energy (keV) -->
     <defs>
      <path d="M 9.8125 72.90625 
L 55.90625 72.90625 
L 55.90625 64.59375 
L 19.671875 64.59375 
L 19.671875 43.015625 
L 54.390625 43.015625 
L 54.390625 34.71875 
L 19.671875 34.71875 
L 19.671875 8.296875 
L 56.78125 8.296875 
L 56.78125 0 
L 9.8125 0 
z
" id="DejaVuSans-45"/>
      <path d="M 54.890625 33.015625 
L 54.890625 0 
L 45.90625 0 
L 45.90625 32.71875 
Q 45.90625 40.484375 42.875 44.328125 
Q 39.84375 48.1875 33.796875 48.1875 
Q 26.515625 48.1875 22.3125 43.546875 
Q 18.109375 38.921875 18.109375 30.90625 
L 18.109375 0 
L 9.078125 0 
L 9.078125 54.6875 
L 18.109375 54.6875 
L 18.109375 46.1875 
Q 21.34375 51.125 25.703125 53.5625 
Q 30.078125 56 35.796875 56 
Q 45.21875 56 50.046875 50.171875 
Q 54.890625 44.34375 54.890625 33.015625 
z
" id="DejaVuSans-6e"/>
      <path d="M 56.203125 29.59375 
L 56.203125 25.203125 
L 14.890625 25.203125 
Q 15.484375 15.921875 20.484375 11.0625 
Q 25.484375 6.203125 34.421875 6.203125 
Q 39.59375 6.203125 44.453125 7.46875 
Q 49.3125 8.734375 54.109375 11.28125 
L 54.109375 2.78125 
Q 49.265625 0.734375 44.1875 -0.34375 
Q 39.109375 -1.421875 33.890625 -1.421875 
Q 20.796875 -1.421875 13.15625 6.1875 
Q 5.515625 13.8125 5.515625 26.8125 
Q 5.515625 40.234375 12.765625 48.109375 
Q 20.015625 56 32.328125 56 
Q 43.359375 56 49.78125 48.890625 
Q 56.203125 41.796875 56.203125 29.59375 
z
M 47.21875 32.234375 
Q 47.125 39.59375 43.09375 43.984375 
Q 39.0625 48.390625 32.421875 48.390625 
Q 24.90625 48.390625 20.390625 44.140625 
Q 15.875 39.890625 15.1875 32.171875 
z
" id="DejaVuSans-65"/>
      <path d="M 41.109375 46.296875 
Q 39.59375 47.171875 37.8125 47.578125 
Q 36.03125 48 33.890625 48 
Q 26.265625 48 22.1875 43.046875 
Q 18.109375 38.09375 18.109375 28.8125 
L 18.109375 0 
L 9.078125 0 
L 9.078125 54.6875 
L 18.109375 54.6875 
L 18.109375 46.1875 
Q 20.953125 51.171875 25.484375 53.578125 
Q 30.03125 56 36.53125 56 
Q 37.453125 56 38.578125 55.875 
Q 39.703125 55.765625 41.0625 55.515625 
z
" id="DejaVuSans-72"/>
      <path d="M 45.40625 27.984375 
Q 45.40625 37.75 41.375 43.109375 
Q 37.359375 48.484375 30.078125 48.484375 
Q 22.859375 48.484375 18.828125 43.109375 
Q 14.796875 37.75 14.796875 27.984375 
Q 14.796875 18.265625 18.828125 12.890625 
Q 22.859375 7.515625 30.078125 7.515625 
Q 37.359375 7.515625 41.375 12.890625 
Q 45.40625 18.265625 45.40625 27.984375 
z
M 54.390625 6.78125 
Q 54.390625 -7.171875 48.1875 -13.984375 
Q 42 -20.796875 29.203125 -20.796875 
Q 24.46875 -20.796875 20.265625 -20.09375 
Q 16.0625 -19.390625 12.109375 -17.921875 
L 12.109375 -9.1875 
Q 16.0625 -11.328125 19.921875 -12.34375 
Q 23.78125 -13.375 27.78125 -13.375 
Q 36.625 -13.375 41.015625 -8.765625 
Q 45.40625 -4.15625 45.40625 5.171875 
L 45.40625 9.625 
Q 42.625 4.78125 38.28125 2.390625 
Q 33.9375 0 27.875 0 
Q 17.828125 0 11.671875 7.65625 
Q 5.515625 15.328125 5.515625 27.984375 
Q 5.515625 40.671875 11.671875 48.328125 
Q 17.828125 56 27.875 56 
Q 33.9375 56 38.28125 53.609375 
Q 42.625 51.21875 45.40625 46.390625 
L 45.40625 54.6875 
L 54.390625 54.6875 
z
" id="DejaVuSans-67"/>
      <path d="M 32.171875 -5.078125 
Q 28.375 -14.84375 24.75 -17.8125 
Q 21.140625 -20.796875 15.09375 -20.796875 
L 7.90625 -20.796875 
L 7.90625 -13.28125 
L 13.1875 -13.28125 
Q 16.890625 -13.28125 18.9375 -11.515625 
Q 21 -9.765625 23.484375 -3.21875 
L 25.09375 0.875 
L 2.984375 54.6875 
L 12.5 54.6875 
L 29.59375 11.921875 
L 46.6875 54.6875 
L 56.203125 54.6875 
z
" id="DejaVuSans-79"/>
      <path id="DejaVuSans-20"/>
      <path d="M 31 75.875 
Q 24.46875 64.65625 21.28125 53.65625 
Q 18.109375 42.671875 18.109375 31.390625 
Q 18.109375 20.125 21.3125 9.0625 
Q 24.515625 -2 31 -13.1875 
L 23.1875 -13.1875 
Q 15.875 -1.703125 12.234375 9.375 
Q 8.59375 20.453125 8.59375 31.390625 
Q 8.59375 42.28125 12.203125 53.3125 
Q 15.828125 64.359375 23.1875 75.875 
z
" id="DejaVuSans-28"/>
      <path d="M 9.078125 75.984375 
L 18.109375 75.984375 
L 18.109375 31.109375 
L 44.921875 54.6875 
L 56.390625 54.6875 
L 27.390625 29.109375 
L 57.625 0 
L 45.90625 0 
L 18.109375 26.703125 
L 18.109375 0 
L 9.078125 0 
z
" id="DejaVuSans-6b"/>
      <path d="M 28.609375 0 
L 0.78125 72.90625 
L 11.078125 72.90625 
L 34.1875 11.53125 
L 57.328125 72.90625 
L 67.578125 72.90625 
L 39.796875 0 
z
" id="DejaVuSans-56"/>
      <path d="M 8.015625 75.875 
L 15.828125 75.875 
Q 23.140625 64.359375 26.78125 53.3125 
Q 30.421875 42.28125 30.421875 31.390625 
Q 30.421875 20.453125 26.78125 9.375 
Q 23.140625 -1.703125 15.828125 -13.1875 
L 8.015625 -13.1875 
Q 14.5 -2 17.703125 9.0625 
Q 20.90625 20.125 20.90625 31.390625 
Q 20.90625 42.671875 17.703125 53.65625 
Q 14.5 64.65625 8.015625 75.875 
z
" id="DejaVuSans-29"/>
     </defs>
     <g transform="translate(203.686562 335.860562)scale(0.1 -0.1)">
      <use xlink:href="#DejaVuSans-45"/>
      <use x="63.183594" xlink:href="#DejaVuSans-6e"/>
      <use x="126.5625" xlink:href="#DejaVuSans-65"/>
      <use x="188.085938" xlink:href="#DejaVuSans-72"/>
      <use x="229.183594" xlink:href="#DejaVuSans-67"/>
      <use x="292.660156" xlink:href="#DejaVuSans-79"/>
      <use x="351.839844" xlink:href="#DejaVuSans-20"/>
      <use x="383.626953" xlink:href="#DejaVuSans-28"/>
      <use x="422.640625" xlink:href="#DejaVuSans-6b"/>
      <use x="480.503906" xlink:href="#DejaVuSans-65"/>
      <use x="542.027344" xlink:href="#DejaVuSans-56"/>
      <use x="610.435547" xlink:href="#DejaVuSans-29"/>
     </g>
    </g>
   </g>
   <g id="matplotlib.axis_4">
    <g id="ytick_7">
     <g id="line2d_37">
      <path clip-path="url(#p1cf57ce876)" d="M 57.6 297.504 
L 414.72 297.504 
" style="fill:none;stroke:#b0b0b0;stroke-linecap:square;stroke-width:0.8;"/>
     </g>
     <g id="line2d_38">
      <g>
       <use style="stroke:#000000;stroke-width:0.8;" x="57.6" xlink:href="#m44c7d15ea9" y="297.504"/>
      </g>
     </g>
     <g id="text_26">
      <!-- −0.2 -->
      <defs>
       <path d="M 10.59375 35.5 
L 73.1875 35.5 
L 73.1875 27.203125 
L 10.59375 27.203125 
z
" id="DejaVuSans-2212"/>
       <path d="M 10.6875 12.40625 
L 21 12.40625 
L 21 0 
L 10.6875 0 
z
" id="DejaVuSans-2e"/>
      </defs>
      <g transform="translate(26.317187 301.303219)scale(0.1 -0.1)">
       <use xlink:href="#DejaVuSans-2212"/>
       <use x="83.789062" xlink:href="#DejaVuSans-30"/>
       <use x="147.412109" xlink:href="#DejaVuSans-2e"/>
       <use x="179.199219" xlink:href="#DejaVuSans-32"/>
      </g>
     </g>
    </g>
    <g id="ytick_8">
     <g id="line2d_39">
      <path clip-path="url(#p1cf57ce876)" d="M 57.6 277.344 
L 414.72 277.344 
" style="fill:none;stroke:#b0b0b0;stroke-linecap:square;stroke-width:0.8;"/>
     </g>
     <g id="line2d_40">
      <g>
       <use style="stroke:#000000;stroke-width:0.8;" x="57.6" xlink:href="#m44c7d15ea9" y="277.344"/>
      </g>
     </g>
     <g id="text_27">
      <!-- 0.0 -->
      <g transform="translate(34.696875 281.143219)scale(0.1 -0.1)">
       <use xlink:href="#DejaVuSans-30"/>
       <use x="63.623047" xlink:href="#DejaVuSans-2e"/>
       <use x="95.410156" xlink:href="#DejaVuSans-30"/>
      </g>
     </g>
    </g>
    <g id="ytick_9">
     <g id="line2d_41">
      <path clip-path="url(#p1cf57ce876)" d="M 57.6 257.184 
L 414.72 257.184 
" style="fill:none;stroke:#b0b0b0;stroke-linecap:square;stroke-width:0.8;"/>
     </g>
     <g id="line2d_42">
      <g>
       <use style="stroke:#000000;stroke-width:0.8;" x="57.6" xlink:href="#m44c7d15ea9" y="257.184"/>
      </g>
     </g>
     <g id="text_28">
      <!-- 0.2 -->
      <g transform="translate(34.696875 260.983219)scale(0.1 -0.1)">
       <use xlink:href="#DejaVuSans-30"/>
       <use x="63.623047" xlink:href="#DejaVuSans-2e"/>
       <use x="95.410156" xlink:href="#DejaVuSans-32"/>
      </g>
     </g>
    </g>
    <g id="text_29">
     <!-- (Data - MC)/(Data + MC) -->
     <defs>
      <path d="M 4.890625 31.390625 
L 31.203125 31.390625 
L 31.203125 23.390625 
L 4.890625 23.390625 
z
" id="DejaVuSans-2d"/>
      <path d="M 25.390625 72.90625 
L 33.6875 72.90625 
L 8.296875 -9.28125 
L 0 -9.28125 
z
" id="DejaVuSans-2f"/>
      <path d="M 46 62.703125 
L 46 35.5 
L 73.1875 35.5 
L 73.1875 27.203125 
L 46 27.203125 
L 46 0 
L 37.796875 0 
L 37.796875 27.203125 
L 10.59375 27.203125 
L 10.59375 35.5 
L 37.796875 35.5 
L 37.796875 62.703125 
z
" id="DejaVuSans-2b"/>
     </defs>
     <g transform="translate(20.2375 338.669)rotate(-90)scale(0.1 -0.1)">
      <use xlink:href="#DejaVuSans-28"/>
      <use x="39.013672" xlink:href="#DejaVuSans-44"/>
      <use x="116.015625" xlink:href="#DejaVuSans-61"/>
      <use x="177.294922" xlink:href="#DejaVuSans-74"/>
      <use x="216.503906" xlink:href="#DejaVuSans-61"/>
      <use x="277.783203" xlink:href="#DejaVuSans-20"/>
      <use x="309.570312" xlink:href="#DejaVuSans-2d"/>
      <use x="345.654297" xlink:href="#DejaVuSans-20"/>
      <use x="377.441406" xlink:href="#DejaVuSans-4d"/>
      <use x="463.720703" xlink:href="#DejaVuSans-43"/>
      <use x="533.544922" xlink:href="#DejaVuSans-29"/>
      <use x="572.558594" xlink:href="#DejaVuSans-2f"/>
      <use x="606.25" xlink:href="#DejaVuSans-28"/>
      <use x="645.263672" xlink:href="#DejaVuSans-44"/>
      <use x="722.265625" xlink:href="#DejaVuSans-61"/>
      <use x="783.544922" xlink:href="#DejaVuSans-74"/>
      <use x="822.753906" xlink:href="#DejaVuSans-61"/>
      <use x="884.033203" xlink:href="#DejaVuSans-20"/>
      <use x="915.820312" xlink:href="#DejaVuSans-2b"/>
      <use x="999.609375" xlink:href="#DejaVuSans-20"/>
      <use x="1031.396484" xlink:href="#DejaVuSans-4d"/>
      <use x="1117.675781" xlink:href="#DejaVuSans-43"/>
      <use x="1187.5" xlink:href="#DejaVuSans-29"/>
     </g>
    </g>
   </g>
   <g id="LineCollection_1">
    <path clip-path="url(#p1cf57ce876)" d="M 73.832727 257.046412 
L 73.832727 255.479438 
" style="fill:none;stroke:#000000;stroke-width:1.5;"/>
    <path clip-path="url(#p1cf57ce876)" d="M 77.994965 255.524106 
L 77.994965 254.079829 
" style="fill:none;stroke:#000000;stroke-width:1.5;"/>
    <path clip-path="url(#p1cf57ce876)" d="M 82.157203 258.246029 
L 82.157203 256.737086 
" style="fill:none;stroke:#000000;stroke-width:1.5;"/>
    <path clip-path="url(#p1cf57ce876)" d="M 86.319441 254.311119 
L 86.319441 252.887268 
" style="fill:none;stroke:#000000;stroke-width:1.5;"/>
    <path clip-path="url(#p1cf57ce876)" d="M 90.481678 261.262931 
L 90.481678 259.69282 
" style="fill:none;stroke:#000000;stroke-width:1.5;"/>
    <path clip-path="url(#p1cf57ce876)" d="M 94.643916 257.155165 
L 94.643916 255.743209 
" style="fill:none;stroke:#000000;stroke-width:1.5;"/>
    <path clip-path="url(#p1cf57ce876)" d="M 98.806154 263.097303 
L 98.806154 261.544728 
" style="fill:none;stroke:#000000;stroke-width:1.5;"/>
    <path clip-path="url(#p1cf57ce876)" d="M 102.968392 260.240676 
L 102.968392 258.763118 
" style="fill:none;stroke:#000000;stroke-width:1.5;"/>
    <path clip-path="url(#p1cf57ce876)" d="M 107.130629 264.877632 
L 107.130629 263.325261 
" style="fill:none;stroke:#000000;stroke-width:1.5;"/>
    <path clip-path="url(#p1cf57ce876)" d="M 111.292867 261.782787 
L 111.292867 260.333161 
" style="fill:none;stroke:#000000;stroke-width:1.5;"/>
    <path clip-path="url(#p1cf57ce876)" d="M 115.455105 264.722707 
L 115.455105 263.264305 
" style="fill:none;stroke:#000000;stroke-width:1.5;"/>
    <path clip-path="url(#p1cf57ce876)" d="M 119.617343 267.280372 
L 119.617343 265.796485 
" style="fill:none;stroke:#000000;stroke-width:1.5;"/>
    <path clip-path="url(#p1cf57ce876)" d="M 123.77958 267.641449 
L 123.77958 266.212447 
" style="fill:none;stroke:#000000;stroke-width:1.5;"/>
    <path clip-path="url(#p1cf57ce876)" d="M 127.941818 270.452859 
L 127.941818 268.984536 
" style="fill:none;stroke:#000000;stroke-width:1.5;"/>
    <path clip-path="url(#p1cf57ce876)" d="M 132.104056 269.730624 
L 132.104056 268.340135 
" style="fill:none;stroke:#000000;stroke-width:1.5;"/>
    <path clip-path="url(#p1cf57ce876)" d="M 136.266294 268.09602 
L 136.266294 266.730138 
" style="fill:none;stroke:#000000;stroke-width:1.5;"/>
    <path clip-path="url(#p1cf57ce876)" d="M 140.428531 275.768588 
L 140.428531 274.358795 
" style="fill:none;stroke:#000000;stroke-width:1.5;"/>
    <path clip-path="url(#p1cf57ce876)" d="M 144.590769 271.672699 
L 144.590769 270.388308 
" style="fill:none;stroke:#000000;stroke-width:1.5;"/>
    <path clip-path="url(#p1cf57ce876)" d="M 148.753007 281.274833 
L 148.753007 279.923071 
" style="fill:none;stroke:#000000;stroke-width:1.5;"/>
    <path clip-path="url(#p1cf57ce876)" d="M 152.915245 272.540548 
L 152.915245 271.363504 
" style="fill:none;stroke:#000000;stroke-width:1.5;"/>
    <path clip-path="url(#p1cf57ce876)" d="M 157.077483 286.554364 
L 157.077483 285.270021 
" style="fill:none;stroke:#000000;stroke-width:1.5;"/>
    <path clip-path="url(#p1cf57ce876)" d="M 161.23972 276.608707 
L 161.23972 275.488477 
" style="fill:none;stroke:#000000;stroke-width:1.5;"/>
    <path clip-path="url(#p1cf57ce876)" d="M 165.401958 277.951904 
L 165.401958 276.902247 
" style="fill:none;stroke:#000000;stroke-width:1.5;"/>
    <path clip-path="url(#p1cf57ce876)" d="M 169.564196 290.515209 
L 169.564196 289.423443 
" style="fill:none;stroke:#000000;stroke-width:1.5;"/>
    <path clip-path="url(#p1cf57ce876)" d="M 173.726434 277.855781 
L 173.726434 276.939191 
" style="fill:none;stroke:#000000;stroke-width:1.5;"/>
    <path clip-path="url(#p1cf57ce876)" d="M 177.888671 292.507978 
L 177.888671 291.533835 
" style="fill:none;stroke:#000000;stroke-width:1.5;"/>
    <path clip-path="url(#p1cf57ce876)" d="M 182.050909 275.739673 
L 182.050909 274.92622 
" style="fill:none;stroke:#000000;stroke-width:1.5;"/>
    <path clip-path="url(#p1cf57ce876)" d="M 186.213147 287.088955 
L 186.213147 286.24251 
" style="fill:none;stroke:#000000;stroke-width:1.5;"/>
    <path clip-path="url(#p1cf57ce876)" d="M 190.375385 282.040696 
L 190.375385 281.274313 
" style="fill:none;stroke:#000000;stroke-width:1.5;"/>
    <path clip-path="url(#p1cf57ce876)" d="M 194.537622 288.04415 
L 194.537622 287.270097 
" style="fill:none;stroke:#000000;stroke-width:1.5;"/>
    <path clip-path="url(#p1cf57ce876)" d="M 198.69986 279.951814 
L 198.69986 279.251405 
" style="fill:none;stroke:#000000;stroke-width:1.5;"/>
    <path clip-path="url(#p1cf57ce876)" d="M 202.862098 290.945222 
L 202.862098 290.20769 
" style="fill:none;stroke:#000000;stroke-width:1.5;"/>
    <path clip-path="url(#p1cf57ce876)" d="M 207.024336 276.556581 
L 207.024336 275.917415 
" style="fill:none;stroke:#000000;stroke-width:1.5;"/>
    <path clip-path="url(#p1cf57ce876)" d="M 211.186573 290.271038 
L 211.186573 289.557689 
" style="fill:none;stroke:#000000;stroke-width:1.5;"/>
    <path clip-path="url(#p1cf57ce876)" d="M 215.348811 282.665174 
L 215.348811 281.992647 
" style="fill:none;stroke:#000000;stroke-width:1.5;"/>
    <path clip-path="url(#p1cf57ce876)" d="M 219.511049 285.044181 
L 219.511049 284.346185 
" style="fill:none;stroke:#000000;stroke-width:1.5;"/>
    <path clip-path="url(#p1cf57ce876)" d="M 223.673287 285.93904 
L 223.673287 285.225068 
" style="fill:none;stroke:#000000;stroke-width:1.5;"/>
    <path clip-path="url(#p1cf57ce876)" d="M 227.835524 281.998176 
L 227.835524 281.284563 
" style="fill:none;stroke:#000000;stroke-width:1.5;"/>
    <path clip-path="url(#p1cf57ce876)" d="M 231.997762 290.843416 
L 231.997762 290.044684 
" style="fill:none;stroke:#000000;stroke-width:1.5;"/>
    <path clip-path="url(#p1cf57ce876)" d="M 236.16 285.908059 
L 236.16 285.092672 
" style="fill:none;stroke:#000000;stroke-width:1.5;"/>
    <path clip-path="url(#p1cf57ce876)" d="M 240.322238 287.01217 
L 240.322238 286.139429 
" style="fill:none;stroke:#000000;stroke-width:1.5;"/>
    <path clip-path="url(#p1cf57ce876)" d="M 244.484476 290.092332 
L 244.484476 289.145839 
" style="fill:none;stroke:#000000;stroke-width:1.5;"/>
    <path clip-path="url(#p1cf57ce876)" d="M 248.646713 286.794031 
L 248.646713 285.806548 
" style="fill:none;stroke:#000000;stroke-width:1.5;"/>
    <path clip-path="url(#p1cf57ce876)" d="M 252.808951 290.48572 
L 252.808951 289.36525 
" style="fill:none;stroke:#000000;stroke-width:1.5;"/>
    <path clip-path="url(#p1cf57ce876)" d="M 256.971189 288.407815 
L 256.971189 287.206006 
" style="fill:none;stroke:#000000;stroke-width:1.5;"/>
    <path clip-path="url(#p1cf57ce876)" d="M 261.133427 286.750816 
L 261.133427 285.453357 
" style="fill:none;stroke:#000000;stroke-width:1.5;"/>
    <path clip-path="url(#p1cf57ce876)" d="M 265.295664 285.718805 
L 265.295664 284.326392 
" style="fill:none;stroke:#000000;stroke-width:1.5;"/>
    <path clip-path="url(#p1cf57ce876)" d="M 269.457902 282.440105 
L 269.457902 280.970505 
" style="fill:none;stroke:#000000;stroke-width:1.5;"/>
    <path clip-path="url(#p1cf57ce876)" d="M 273.62014 283.30337 
L 273.62014 281.788144 
" style="fill:none;stroke:#000000;stroke-width:1.5;"/>
    <path clip-path="url(#p1cf57ce876)" d="M 277.782378 285.365171 
L 277.782378 283.777392 
" style="fill:none;stroke:#000000;stroke-width:1.5;"/>
    <path clip-path="url(#p1cf57ce876)" d="M 281.944615 277.434193 
L 281.944615 275.895466 
" style="fill:none;stroke:#000000;stroke-width:1.5;"/>
    <path clip-path="url(#p1cf57ce876)" d="M 286.106853 272.684105 
L 286.106853 271.169393 
" style="fill:none;stroke:#000000;stroke-width:1.5;"/>
    <path clip-path="url(#p1cf57ce876)" d="M 290.269091 275.497191 
L 290.269091 274.013568 
" style="fill:none;stroke:#000000;stroke-width:1.5;"/>
    <path clip-path="url(#p1cf57ce876)" d="M 294.431329 282.55806 
L 294.431329 280.979141 
" style="fill:none;stroke:#000000;stroke-width:1.5;"/>
    <path clip-path="url(#p1cf57ce876)" d="M 298.593566 275.772016 
L 298.593566 274.288035 
" style="fill:none;stroke:#000000;stroke-width:1.5;"/>
    <path clip-path="url(#p1cf57ce876)" d="M 302.755804 284.335971 
L 302.755804 282.74362 
" style="fill:none;stroke:#000000;stroke-width:1.5;"/>
    <path clip-path="url(#p1cf57ce876)" d="M 306.918042 279.569503 
L 306.918042 278.055703 
" style="fill:none;stroke:#000000;stroke-width:1.5;"/>
    <path clip-path="url(#p1cf57ce876)" d="M 311.08028 288.183589 
L 311.08028 286.559227 
" style="fill:none;stroke:#000000;stroke-width:1.5;"/>
    <path clip-path="url(#p1cf57ce876)" d="M 315.242517 284.35326 
L 315.242517 282.761343 
" style="fill:none;stroke:#000000;stroke-width:1.5;"/>
    <path clip-path="url(#p1cf57ce876)" d="M 319.404755 283.054991 
L 319.404755 281.419125 
" style="fill:none;stroke:#000000;stroke-width:1.5;"/>
    <path clip-path="url(#p1cf57ce876)" d="M 323.566993 288.37921 
L 323.566993 286.598578 
" style="fill:none;stroke:#000000;stroke-width:1.5;"/>
    <path clip-path="url(#p1cf57ce876)" d="M 327.729231 290.11982 
L 327.729231 288.280869 
" style="fill:none;stroke:#000000;stroke-width:1.5;"/>
    <path clip-path="url(#p1cf57ce876)" d="M 331.891469 294.48569 
L 331.891469 292.490849 
" style="fill:none;stroke:#000000;stroke-width:1.5;"/>
    <path clip-path="url(#p1cf57ce876)" d="M 336.053706 290.102915 
L 336.053706 288.001391 
" style="fill:none;stroke:#000000;stroke-width:1.5;"/>
    <path clip-path="url(#p1cf57ce876)" d="M 340.215944 288.952313 
L 340.215944 286.699519 
" style="fill:none;stroke:#000000;stroke-width:1.5;"/>
    <path clip-path="url(#p1cf57ce876)" d="M 344.378182 289.455395 
L 344.378182 286.993817 
" style="fill:none;stroke:#000000;stroke-width:1.5;"/>
    <path clip-path="url(#p1cf57ce876)" d="M 348.54042 294.705864 
L 348.54042 291.87237 
" style="fill:none;stroke:#000000;stroke-width:1.5;"/>
    <path clip-path="url(#p1cf57ce876)" d="M 352.702657 290.123199 
L 352.702657 287.225874 
" style="fill:none;stroke:#000000;stroke-width:1.5;"/>
    <path clip-path="url(#p1cf57ce876)" d="M 356.864895 286.641457 
L 356.864895 283.32826 
" style="fill:none;stroke:#000000;stroke-width:1.5;"/>
    <path clip-path="url(#p1cf57ce876)" d="M 361.027133 277.369354 
L 361.027133 273.916986 
" style="fill:none;stroke:#000000;stroke-width:1.5;"/>
    <path clip-path="url(#p1cf57ce876)" d="M 365.189371 279.968796 
L 365.189371 275.959339 
" style="fill:none;stroke:#000000;stroke-width:1.5;"/>
    <path clip-path="url(#p1cf57ce876)" d="M 369.351608 264.345779 
L 369.351608 260.567372 
" style="fill:none;stroke:#000000;stroke-width:1.5;"/>
    <path clip-path="url(#p1cf57ce876)" d="M 373.513846 257.519968 
L 373.513846 253.101947 
" style="fill:none;stroke:#000000;stroke-width:1.5;"/>
    <path clip-path="url(#p1cf57ce876)" d="M 377.676084 244.9925 
L 377.676084 241.197464 
" style="fill:none;stroke:#000000;stroke-width:1.5;"/>
    <path clip-path="url(#p1cf57ce876)" d="M 381.838322 239.423909 
L 381.838322 235.264999 
" style="fill:none;stroke:#000000;stroke-width:1.5;"/>
    <path clip-path="url(#p1cf57ce876)" d="M 386.000559 222.161683 
L 386.000559 218.831217 
" style="fill:none;stroke:#000000;stroke-width:1.5;"/>
    <path clip-path="url(#p1cf57ce876)" d="M 390.162797 208.475546 
L 390.162797 205.958491 
" style="fill:none;stroke:#000000;stroke-width:1.5;"/>
    <path clip-path="url(#p1cf57ce876)" d="M 394.325035 209.68051 
L 394.325035 206.819964 
" style="fill:none;stroke:#000000;stroke-width:1.5;"/>
    <path clip-path="url(#p1cf57ce876)" d="M 398.487273 202.419136 
L 398.487273 200.199157 
" style="fill:none;stroke:#000000;stroke-width:1.5;"/>
   </g>
   <g id="line2d_43">
    <path clip-path="url(#p1cf57ce876)" d="M 57.6 277.344 
L 414.72 277.344 
" style="fill:none;stroke:#000000;stroke-dasharray:5.55,2.4;stroke-dashoffset:0;stroke-width:1.5;"/>
   </g>
   <g id="line2d_44">
    <path clip-path="url(#p1cf57ce876)" d="M 73.832727 254.682504 
L 77.994965 255.636885 
L 82.157203 256.546461 
L 86.319441 257.42545 
L 90.481678 258.288066 
L 94.643916 259.148528 
L 98.806154 260.021051 
L 102.968392 260.919852 
L 107.130629 261.859148 
L 111.292867 262.853155 
L 115.455105 263.91609 
L 119.617343 265.661748 
L 123.77958 267.182961 
L 127.941818 268.15336 
L 132.104056 269.799638 
L 136.266294 270.930457 
L 140.428531 272.946962 
L 144.590769 274.403225 
L 148.753007 275.939538 
L 152.915245 277.268807 
L 157.077483 278.773938 
L 161.23972 279.488991 
L 165.401958 281.184378 
L 169.564196 281.662829 
L 173.726434 282.737443 
L 177.888671 283.332608 
L 182.050909 283.452876 
L 186.213147 284.120127 
L 190.375385 283.673661 
L 194.537622 284.209372 
L 198.69986 283.890018 
L 202.862098 284.337635 
L 207.024336 284.32988 
L 211.186573 284.006904 
L 215.348811 284.827937 
L 219.511049 284.86878 
L 223.673287 286.029681 
L 227.835524 286.098421 
L 231.997762 286.663256 
L 236.16 286.614877 
L 240.322238 287.38977 
L 244.484476 287.513171 
L 248.646713 287.865072 
L 252.808951 286.453078 
L 256.971189 286.304199 
L 261.133427 284.934427 
L 265.295664 284.009383 
L 269.457902 282.591084 
L 273.62014 281.253988 
L 277.782378 280.736017 
L 281.944615 279.713179 
L 286.106853 278.930537 
L 290.269091 278.508695 
L 294.431329 278.600306 
L 298.593566 279.377278 
L 302.755804 280.319749 
L 306.918042 281.143827 
L 311.08028 282.538828 
L 315.242517 284.043753 
L 319.404755 286.098456 
L 323.566993 287.888672 
L 327.729231 289.685694 
L 331.891469 290.550719 
L 336.053706 291.096306 
L 340.215944 291.119867 
L 344.378182 290.189562 
L 348.54042 288.850359 
L 352.702657 285.193645 
L 356.864895 280.967801 
L 361.027133 275.651987 
L 365.189371 269.483286 
L 369.351608 262.500273 
L 373.513846 254.741527 
L 377.676084 246.245623 
L 381.838322 237.051138 
L 386.000559 227.196649 
L 390.162797 216.720733 
L 394.325035 205.661967 
L 398.487273 194.058926 
" style="fill:none;stroke:#000000;stroke-linecap:square;stroke-width:1.5;"/>
   </g>
   <g id="line2d_45">
    <defs>
     <path d="M -3 3 
L 3 -3 
M -3 -3 
L 3 3 
" id="m7f74e18919" style="stroke:#000000;"/>
    </defs>
    <g clip-path="url(#p1cf57ce876)">
     <use style="stroke:#000000;" x="73.832727" xlink:href="#m7f74e18919" y="256.262925"/>
     <use style="stroke:#000000;" x="77.994965" xlink:href="#m7f74e18919" y="254.801967"/>
     <use style="stroke:#000000;" x="82.157203" xlink:href="#m7f74e18919" y="257.491557"/>
     <use style="stroke:#000000;" x="86.319441" xlink:href="#m7f74e18919" y="253.599194"/>
     <use style="stroke:#000000;" x="90.481678" xlink:href="#m7f74e18919" y="260.477875"/>
     <use style="stroke:#000000;" x="94.643916" xlink:href="#m7f74e18919" y="256.449187"/>
     <use style="stroke:#000000;" x="98.806154" xlink:href="#m7f74e18919" y="262.321015"/>
     <use style="stroke:#000000;" x="102.968392" xlink:href="#m7f74e18919" y="259.501897"/>
     <use style="stroke:#000000;" x="107.130629" xlink:href="#m7f74e18919" y="264.101447"/>
     <use style="stroke:#000000;" x="111.292867" xlink:href="#m7f74e18919" y="261.057974"/>
     <use style="stroke:#000000;" x="115.455105" xlink:href="#m7f74e18919" y="263.993506"/>
     <use style="stroke:#000000;" x="119.617343" xlink:href="#m7f74e18919" y="266.538428"/>
     <use style="stroke:#000000;" x="123.77958" xlink:href="#m7f74e18919" y="266.926948"/>
     <use style="stroke:#000000;" x="127.941818" xlink:href="#m7f74e18919" y="269.718697"/>
     <use style="stroke:#000000;" x="132.104056" xlink:href="#m7f74e18919" y="269.035379"/>
     <use style="stroke:#000000;" x="136.266294" xlink:href="#m7f74e18919" y="267.413079"/>
     <use style="stroke:#000000;" x="140.428531" xlink:href="#m7f74e18919" y="275.063692"/>
     <use style="stroke:#000000;" x="144.590769" xlink:href="#m7f74e18919" y="271.030503"/>
     <use style="stroke:#000000;" x="148.753007" xlink:href="#m7f74e18919" y="280.598952"/>
     <use style="stroke:#000000;" x="152.915245" xlink:href="#m7f74e18919" y="271.952026"/>
     <use style="stroke:#000000;" x="157.077483" xlink:href="#m7f74e18919" y="285.912192"/>
     <use style="stroke:#000000;" x="161.23972" xlink:href="#m7f74e18919" y="276.048592"/>
     <use style="stroke:#000000;" x="165.401958" xlink:href="#m7f74e18919" y="277.427076"/>
     <use style="stroke:#000000;" x="169.564196" xlink:href="#m7f74e18919" y="289.969326"/>
     <use style="stroke:#000000;" x="173.726434" xlink:href="#m7f74e18919" y="277.397486"/>
     <use style="stroke:#000000;" x="177.888671" xlink:href="#m7f74e18919" y="292.020907"/>
     <use style="stroke:#000000;" x="182.050909" xlink:href="#m7f74e18919" y="275.332947"/>
     <use style="stroke:#000000;" x="186.213147" xlink:href="#m7f74e18919" y="286.665732"/>
     <use style="stroke:#000000;" x="190.375385" xlink:href="#m7f74e18919" y="281.657505"/>
     <use style="stroke:#000000;" x="194.537622" xlink:href="#m7f74e18919" y="287.657123"/>
     <use style="stroke:#000000;" x="198.69986" xlink:href="#m7f74e18919" y="279.60161"/>
     <use style="stroke:#000000;" x="202.862098" xlink:href="#m7f74e18919" y="290.576456"/>
     <use style="stroke:#000000;" x="207.024336" xlink:href="#m7f74e18919" y="276.236998"/>
     <use style="stroke:#000000;" x="211.186573" xlink:href="#m7f74e18919" y="289.914364"/>
     <use style="stroke:#000000;" x="215.348811" xlink:href="#m7f74e18919" y="282.32891"/>
     <use style="stroke:#000000;" x="219.511049" xlink:href="#m7f74e18919" y="284.695183"/>
     <use style="stroke:#000000;" x="223.673287" xlink:href="#m7f74e18919" y="285.582054"/>
     <use style="stroke:#000000;" x="227.835524" xlink:href="#m7f74e18919" y="281.641369"/>
     <use style="stroke:#000000;" x="231.997762" xlink:href="#m7f74e18919" y="290.44405"/>
     <use style="stroke:#000000;" x="236.16" xlink:href="#m7f74e18919" y="285.500366"/>
     <use style="stroke:#000000;" x="240.322238" xlink:href="#m7f74e18919" y="286.575799"/>
     <use style="stroke:#000000;" x="244.484476" xlink:href="#m7f74e18919" y="289.619086"/>
     <use style="stroke:#000000;" x="248.646713" xlink:href="#m7f74e18919" y="286.300289"/>
     <use style="stroke:#000000;" x="252.808951" xlink:href="#m7f74e18919" y="289.925485"/>
     <use style="stroke:#000000;" x="256.971189" xlink:href="#m7f74e18919" y="287.80691"/>
     <use style="stroke:#000000;" x="261.133427" xlink:href="#m7f74e18919" y="286.102087"/>
     <use style="stroke:#000000;" x="265.295664" xlink:href="#m7f74e18919" y="285.022599"/>
     <use style="stroke:#000000;" x="269.457902" xlink:href="#m7f74e18919" y="281.705305"/>
     <use style="stroke:#000000;" x="273.62014" xlink:href="#m7f74e18919" y="282.545757"/>
     <use style="stroke:#000000;" x="277.782378" xlink:href="#m7f74e18919" y="284.571281"/>
     <use style="stroke:#000000;" x="281.944615" xlink:href="#m7f74e18919" y="276.664829"/>
     <use style="stroke:#000000;" x="286.106853" xlink:href="#m7f74e18919" y="271.926749"/>
     <use style="stroke:#000000;" x="290.269091" xlink:href="#m7f74e18919" y="274.75538"/>
     <use style="stroke:#000000;" x="294.431329" xlink:href="#m7f74e18919" y="281.7686"/>
     <use style="stroke:#000000;" x="298.593566" xlink:href="#m7f74e18919" y="275.030026"/>
     <use style="stroke:#000000;" x="302.755804" xlink:href="#m7f74e18919" y="283.539795"/>
     <use style="stroke:#000000;" x="306.918042" xlink:href="#m7f74e18919" y="278.812603"/>
     <use style="stroke:#000000;" x="311.08028" xlink:href="#m7f74e18919" y="287.371408"/>
     <use style="stroke:#000000;" x="315.242517" xlink:href="#m7f74e18919" y="283.557301"/>
     <use style="stroke:#000000;" x="319.404755" xlink:href="#m7f74e18919" y="282.237058"/>
     <use style="stroke:#000000;" x="323.566993" xlink:href="#m7f74e18919" y="287.488894"/>
     <use style="stroke:#000000;" x="327.729231" xlink:href="#m7f74e18919" y="289.200345"/>
     <use style="stroke:#000000;" x="331.891469" xlink:href="#m7f74e18919" y="293.48827"/>
     <use style="stroke:#000000;" x="336.053706" xlink:href="#m7f74e18919" y="289.052153"/>
     <use style="stroke:#000000;" x="340.215944" xlink:href="#m7f74e18919" y="287.825916"/>
     <use style="stroke:#000000;" x="344.378182" xlink:href="#m7f74e18919" y="288.224606"/>
     <use style="stroke:#000000;" x="348.54042" xlink:href="#m7f74e18919" y="293.289117"/>
     <use style="stroke:#000000;" x="352.702657" xlink:href="#m7f74e18919" y="288.674536"/>
     <use style="stroke:#000000;" x="356.864895" xlink:href="#m7f74e18919" y="284.984858"/>
     <use style="stroke:#000000;" x="361.027133" xlink:href="#m7f74e18919" y="275.64317"/>
     <use style="stroke:#000000;" x="365.189371" xlink:href="#m7f74e18919" y="277.964067"/>
     <use style="stroke:#000000;" x="369.351608" xlink:href="#m7f74e18919" y="262.456576"/>
     <use style="stroke:#000000;" x="373.513846" xlink:href="#m7f74e18919" y="255.310957"/>
     <use style="stroke:#000000;" x="377.676084" xlink:href="#m7f74e18919" y="243.094982"/>
     <use style="stroke:#000000;" x="381.838322" xlink:href="#m7f74e18919" y="237.344454"/>
     <use style="stroke:#000000;" x="386.000559" xlink:href="#m7f74e18919" y="220.49645"/>
     <use style="stroke:#000000;" x="390.162797" xlink:href="#m7f74e18919" y="207.217018"/>
     <use style="stroke:#000000;" x="394.325035" xlink:href="#m7f74e18919" y="208.250237"/>
     <use style="stroke:#000000;" x="398.487273" xlink:href="#m7f74e18919" y="201.309146"/>
    </g>
   </g>
   <g id="patch_9">
    <path d="M 57.6 307.584 
L 57.6 247.104 
" style="fill:none;stroke:#000000;stroke-linecap:square;stroke-linejoin:miter;stroke-width:0.8;"/>
   </g>
   <g id="patch_10">
    <path d="M 414.72 307.584 
L 414.72 247.104 
" style="fill:none;stroke:#000000;stroke-linecap:square;stroke-linejoin:miter;stroke-width:0.8;"/>
   </g>
   <g id="patch_11">
    <path d="M 57.6 307.584 
L 414.72 307.584 
" style="fill:none;stroke:#000000;stroke-linecap:square;stroke-linejoin:miter;stroke-width:0.8;"/>
   </g>
   <g id="patch_12">
    <path d="M 57.6 247.104 
L 414.72 247.104 
" style="fill:none;stroke:#000000;stroke-linecap:square;stroke-linejoin:miter;stroke-width:0.8;"/>
   </g>
  </g>
 </g>
 <defs>
  <clipPath id="p87cf8b2fa6">
   <rect height="181.44" width="357.12" x="57.6" y="41.472"/>
  </clipPath>
  <clipPath id="p1cf57ce876">
   <rect height="60.48" width="357.12" x="57.6" y="247.104"/>
  </clipPath>
 </defs>
</svg>
