<?xml version="1.0" encoding="utf-8" standalone="no"?>
<!DOCTYPE svg PUBLIC "-//W3C//DTD SVG 1.1//EN"
  "http://www.w3.org/Graphics/SVG/1.1/DTD/svg11.dtd">
<!-- Created with matplotlib (http://matplotlib.org/) -->
<svg height="345.6pt" version="1.1" viewBox="0 0 460.8 345.6" width="460.8pt" xmlns="http://www.w3.org/2000/svg" xmlns:xlink="http://www.w3.org/1999/xlink">
 <defs>
  <style type="text/css">
*{stroke-linecap:butt;stroke-linejoin:round;}
  </style>
 </defs>
 <g id="figure_1">
  <g id="patch_1">
   <path d="M 0 345.6 
L 460.8 345.6 
L 460.8 0 
L 0 0 
z
" style="fill:#ffffff;"/>
  </g>
  <g id="axes_1">
   <g id="patch_2">
    <path d="M 57.6 222.912 
L 414.72 222.912 
L 414.72 41.472 
L 57.6 41.472 
z
" style="fill:#ffffff;"/>
   </g>
   <g id="matplotlib.axis_1">
    <g id="xtick_1">
     <g id="line2d_1">
      <defs>
       <path d="M 0 0 
L 0 3.5 
" id="m8b697fb066" style="stroke:#000000;stroke-width:0.8;"/>
      </defs>
      <g>
       <use style="stroke:#000000;stroke-width:0.8;" x="73.832727" xlink:href="#m8b697fb066" y="222.912"/>
      </g>
     </g>
     <g id="text_1">
      <!-- 35.0 -->
      <defs>
       <path d="M 40.578125 39.3125 
Q 47.65625 37.796875 51.625 33 
Q 55.609375 28.21875 55.609375 21.1875 
Q 55.609375 10.40625 48.1875 4.484375 
Q 40.765625 -1.421875 27.09375 -1.421875 
Q 22.515625 -1.421875 17.65625 -0.515625 
Q 12.796875 0.390625 7.625 2.203125 
L 7.625 11.71875 
Q 11.71875 9.328125 16.59375 8.109375 
Q 21.484375 6.890625 26.8125 6.890625 
Q 36.078125 6.890625 40.9375 10.546875 
Q 45.796875 14.203125 45.796875 21.1875 
Q 45.796875 27.640625 41.28125 31.265625 
Q 36.765625 34.90625 28.71875 34.90625 
L 20.21875 34.90625 
L 20.21875 43.015625 
L 29.109375 43.015625 
Q 36.375 43.015625 40.234375 45.921875 
Q 44.09375 48.828125 44.09375 54.296875 
Q 44.09375 59.90625 40.109375 62.90625 
Q 36.140625 65.921875 28.71875 65.921875 
Q 24.65625 65.921875 20.015625 65.03125 
Q 15.375 64.15625 9.8125 62.3125 
L 9.8125 71.09375 
Q 15.4375 72.65625 20.34375 73.4375 
Q 25.25 74.21875 29.59375 74.21875 
Q 40.828125 74.21875 47.359375 69.109375 
Q 53.90625 64.015625 53.90625 55.328125 
Q 53.90625 49.265625 50.4375 45.09375 
Q 46.96875 40.921875 40.578125 39.3125 
z
" id="DejaVuSans-33"/>
       <path d="M 10.796875 72.90625 
L 49.515625 72.90625 
L 49.515625 64.59375 
L 19.828125 64.59375 
L 19.828125 46.734375 
Q 21.96875 47.46875 24.109375 47.828125 
Q 26.265625 48.1875 28.421875 48.1875 
Q 40.625 48.1875 47.75 41.5 
Q 54.890625 34.8125 54.890625 23.390625 
Q 54.890625 11.625 47.5625 5.09375 
Q 40.234375 -1.421875 26.90625 -1.421875 
Q 22.3125 -1.421875 17.546875 -0.640625 
Q 12.796875 0.140625 7.71875 1.703125 
L 7.71875 11.625 
Q 12.109375 9.234375 16.796875 8.0625 
Q 21.484375 6.890625 26.703125 6.890625 
Q 35.15625 6.890625 40.078125 11.328125 
Q 45.015625 15.765625 45.015625 23.390625 
Q 45.015625 31 40.078125 35.4375 
Q 35.15625 39.890625 26.703125 39.890625 
Q 22.75 39.890625 18.8125 39.015625 
Q 14.890625 38.140625 10.796875 36.28125 
z
" id="DejaVuSans-35"/>
       <path d="M 10.6875 12.40625 
L 21 12.40625 
L 21 0 
L 10.6875 0 
z
" id="DejaVuSans-2e"/>
       <path d="M 31.78125 66.40625 
Q 24.171875 66.40625 20.328125 58.90625 
Q 16.5 51.421875 16.5 36.375 
Q 16.5 21.390625 20.328125 13.890625 
Q 24.171875 6.390625 31.78125 6.390625 
Q 39.453125 6.390625 43.28125 13.890625 
Q 47.125 21.390625 47.125 36.375 
Q 47.125 51.421875 43.28125 58.90625 
Q 39.453125 66.40625 31.78125 66.40625 
z
M 31.78125 74.21875 
Q 44.046875 74.21875 50.515625 64.515625 
Q 56.984375 54.828125 56.984375 36.375 
Q 56.984375 17.96875 50.515625 8.265625 
Q 44.046875 -1.421875 31.78125 -1.421875 
Q 19.53125 -1.421875 13.0625 8.265625 
Q 6.59375 17.96875 6.59375 36.375 
Q 6.59375 54.828125 13.0625 64.515625 
Q 19.53125 74.21875 31.78125 74.21875 
z
" id="DejaVuSans-30"/>
      </defs>
      <g transform="translate(62.699915 237.510437)scale(0.1 -0.1)">
       <use xlink:href="#DejaVuSans-33"/>
       <use x="63.623047" xlink:href="#DejaVuSans-35"/>
       <use x="127.246094" xlink:href="#DejaVuSans-2e"/>
       <use x="159.033203" xlink:href="#DejaVuSans-30"/>
      </g>
     </g>
    </g>
    <g id="xtick_2">
     <g id="line2d_2">
      <g>
       <use style="stroke:#000000;stroke-width:0.8;" x="114.934825" xlink:href="#m8b697fb066" y="222.912"/>
      </g>
     </g>
     <g id="text_2">
      <!-- 37.5 -->
      <defs>
       <path d="M 8.203125 72.90625 
L 55.078125 72.90625 
L 55.078125 68.703125 
L 28.609375 0 
L 18.3125 0 
L 43.21875 64.59375 
L 8.203125 64.59375 
z
" id="DejaVuSans-37"/>
      </defs>
      <g transform="translate(103.802013 237.510437)scale(0.1 -0.1)">
       <use xlink:href="#DejaVuSans-33"/>
       <use x="63.623047" xlink:href="#DejaVuSans-37"/>
       <use x="127.246094" xlink:href="#DejaVuSans-2e"/>
       <use x="159.033203" xlink:href="#DejaVuSans-35"/>
      </g>
     </g>
    </g>
    <g id="xtick_3">
     <g id="line2d_3">
      <g>
       <use style="stroke:#000000;stroke-width:0.8;" x="156.036923" xlink:href="#m8b697fb066" y="222.912"/>
      </g>
     </g>
     <g id="text_3">
      <!-- 40.0 -->
      <defs>
       <path d="M 37.796875 64.3125 
L 12.890625 25.390625 
L 37.796875 25.390625 
z
M 35.203125 72.90625 
L 47.609375 72.90625 
L 47.609375 25.390625 
L 58.015625 25.390625 
L 58.015625 17.1875 
L 47.609375 17.1875 
L 47.609375 0 
L 37.796875 0 
L 37.796875 17.1875 
L 4.890625 17.1875 
L 4.890625 26.703125 
z
" id="DejaVuSans-34"/>
      </defs>
      <g transform="translate(144.904111 237.510437)scale(0.1 -0.1)">
       <use xlink:href="#DejaVuSans-34"/>
       <use x="63.623047" xlink:href="#DejaVuSans-30"/>
       <use x="127.246094" xlink:href="#DejaVuSans-2e"/>
       <use x="159.033203" xlink:href="#DejaVuSans-30"/>
      </g>
     </g>
    </g>
    <g id="xtick_4">
     <g id="line2d_4">
      <g>
       <use style="stroke:#000000;stroke-width:0.8;" x="197.139021" xlink:href="#m8b697fb066" y="222.912"/>
      </g>
     </g>
     <g id="text_4">
      <!-- 42.5 -->
      <defs>
       <path d="M 19.1875 8.296875 
L 53.609375 8.296875 
L 53.609375 0 
L 7.328125 0 
L 7.328125 8.296875 
Q 12.9375 14.109375 22.625 23.890625 
Q 32.328125 33.6875 34.8125 36.53125 
Q 39.546875 41.84375 41.421875 45.53125 
Q 43.3125 49.21875 43.3125 52.78125 
Q 43.3125 58.59375 39.234375 62.25 
Q 35.15625 65.921875 28.609375 65.921875 
Q 23.96875 65.921875 18.8125 64.3125 
Q 13.671875 62.703125 7.8125 59.421875 
L 7.8125 69.390625 
Q 13.765625 71.78125 18.9375 73 
Q 24.125 74.21875 28.421875 74.21875 
Q 39.75 74.21875 46.484375 68.546875 
Q 53.21875 62.890625 53.21875 53.421875 
Q 53.21875 48.921875 51.53125 44.890625 
Q 49.859375 40.875 45.40625 35.40625 
Q 44.1875 33.984375 37.640625 27.21875 
Q 31.109375 20.453125 19.1875 8.296875 
z
" id="DejaVuSans-32"/>
      </defs>
      <g transform="translate(186.006208 237.510437)scale(0.1 -0.1)">
       <use xlink:href="#DejaVuSans-34"/>
       <use x="63.623047" xlink:href="#DejaVuSans-32"/>
       <use x="127.246094" xlink:href="#DejaVuSans-2e"/>
       <use x="159.033203" xlink:href="#DejaVuSans-35"/>
      </g>
     </g>
    </g>
    <g id="xtick_5">
     <g id="line2d_5">
      <g>
       <use style="stroke:#000000;stroke-width:0.8;" x="238.241119" xlink:href="#m8b697fb066" y="222.912"/>
      </g>
     </g>
     <g id="text_5">
      <!-- 45.0 -->
      <g transform="translate(227.108306 237.510437)scale(0.1 -0.1)">
       <use xlink:href="#DejaVuSans-34"/>
       <use x="63.623047" xlink:href="#DejaVuSans-35"/>
       <use x="127.246094" xlink:href="#DejaVuSans-2e"/>
       <use x="159.033203" xlink:href="#DejaVuSans-30"/>
      </g>
     </g>
    </g>
    <g id="xtick_6">
     <g id="line2d_6">
      <g>
       <use style="stroke:#000000;stroke-width:0.8;" x="279.343217" xlink:href="#m8b697fb066" y="222.912"/>
      </g>
     </g>
     <g id="text_6">
      <!-- 47.5 -->
      <g transform="translate(268.210404 237.510437)scale(0.1 -0.1)">
       <use xlink:href="#DejaVuSans-34"/>
       <use x="63.623047" xlink:href="#DejaVuSans-37"/>
       <use x="127.246094" xlink:href="#DejaVuSans-2e"/>
       <use x="159.033203" xlink:href="#DejaVuSans-35"/>
      </g>
     </g>
    </g>
    <g id="xtick_7">
     <g id="line2d_7">
      <g>
       <use style="stroke:#000000;stroke-width:0.8;" x="320.445315" xlink:href="#m8b697fb066" y="222.912"/>
      </g>
     </g>
     <g id="text_7">
      <!-- 50.0 -->
      <g transform="translate(309.312502 237.510437)scale(0.1 -0.1)">
       <use xlink:href="#DejaVuSans-35"/>
       <use x="63.623047" xlink:href="#DejaVuSans-30"/>
       <use x="127.246094" xlink:href="#DejaVuSans-2e"/>
       <use x="159.033203" xlink:href="#DejaVuSans-30"/>
      </g>
     </g>
    </g>
    <g id="xtick_8">
     <g id="line2d_8">
      <g>
       <use style="stroke:#000000;stroke-width:0.8;" x="361.547413" xlink:href="#m8b697fb066" y="222.912"/>
      </g>
     </g>
     <g id="text_8">
      <!-- 52.5 -->
      <g transform="translate(350.4146 237.510437)scale(0.1 -0.1)">
       <use xlink:href="#DejaVuSans-35"/>
       <use x="63.623047" xlink:href="#DejaVuSans-32"/>
       <use x="127.246094" xlink:href="#DejaVuSans-2e"/>
       <use x="159.033203" xlink:href="#DejaVuSans-35"/>
      </g>
     </g>
    </g>
    <g id="xtick_9">
     <g id="line2d_9">
      <g>
       <use style="stroke:#000000;stroke-width:0.8;" x="402.64951" xlink:href="#m8b697fb066" y="222.912"/>
      </g>
     </g>
     <g id="text_9">
      <!-- 55.0 -->
      <g transform="translate(391.516698 237.510437)scale(0.1 -0.1)">
       <use xlink:href="#DejaVuSans-35"/>
       <use x="63.623047" xlink:href="#DejaVuSans-35"/>
       <use x="127.246094" xlink:href="#DejaVuSans-2e"/>
       <use x="159.033203" xlink:href="#DejaVuSans-30"/>
      </g>
     </g>
    </g>
   </g>
   <g id="matplotlib.axis_2">
    <g id="ytick_1">
     <g id="line2d_10">
      <defs>
       <path d="M 0 0 
L -3.5 0 
" id="mb5ef061972" style="stroke:#000000;stroke-width:0.8;"/>
      </defs>
      <g>
       <use style="stroke:#000000;stroke-width:0.8;" x="57.6" xlink:href="#mb5ef061972" y="214.664727"/>
      </g>
     </g>
     <g id="text_10">
      <!-- 0 -->
      <g transform="translate(44.2375 218.463946)scale(0.1 -0.1)">
       <use xlink:href="#DejaVuSans-30"/>
      </g>
     </g>
    </g>
    <g id="ytick_2">
     <g id="line2d_11">
      <g>
       <use style="stroke:#000000;stroke-width:0.8;" x="57.6" xlink:href="#mb5ef061972" y="194.479518"/>
      </g>
     </g>
     <g id="text_11">
      <!-- 5000 -->
      <g transform="translate(25.15 198.278737)scale(0.1 -0.1)">
       <use xlink:href="#DejaVuSans-35"/>
       <use x="63.623047" xlink:href="#DejaVuSans-30"/>
       <use x="127.246094" xlink:href="#DejaVuSans-30"/>
       <use x="190.869141" xlink:href="#DejaVuSans-30"/>
      </g>
     </g>
    </g>
    <g id="ytick_3">
     <g id="line2d_12">
      <g>
       <use style="stroke:#000000;stroke-width:0.8;" x="57.6" xlink:href="#mb5ef061972" y="174.294309"/>
      </g>
     </g>
     <g id="text_12">
      <!-- 10000 -->
      <defs>
       <path d="M 12.40625 8.296875 
L 28.515625 8.296875 
L 28.515625 63.921875 
L 10.984375 60.40625 
L 10.984375 69.390625 
L 28.421875 72.90625 
L 38.28125 72.90625 
L 38.28125 8.296875 
L 54.390625 8.296875 
L 54.390625 0 
L 12.40625 0 
z
" id="DejaVuSans-31"/>
      </defs>
      <g transform="translate(18.7875 178.093528)scale(0.1 -0.1)">
       <use xlink:href="#DejaVuSans-31"/>
       <use x="63.623047" xlink:href="#DejaVuSans-30"/>
       <use x="127.246094" xlink:href="#DejaVuSans-30"/>
       <use x="190.869141" xlink:href="#DejaVuSans-30"/>
       <use x="254.492188" xlink:href="#DejaVuSans-30"/>
      </g>
     </g>
    </g>
    <g id="ytick_4">
     <g id="line2d_13">
      <g>
       <use style="stroke:#000000;stroke-width:0.8;" x="57.6" xlink:href="#mb5ef061972" y="154.1091"/>
      </g>
     </g>
     <g id="text_13">
      <!-- 15000 -->
      <g transform="translate(18.7875 157.908319)scale(0.1 -0.1)">
       <use xlink:href="#DejaVuSans-31"/>
       <use x="63.623047" xlink:href="#DejaVuSans-35"/>
       <use x="127.246094" xlink:href="#DejaVuSans-30"/>
       <use x="190.869141" xlink:href="#DejaVuSans-30"/>
       <use x="254.492188" xlink:href="#DejaVuSans-30"/>
      </g>
     </g>
    </g>
    <g id="ytick_5">
     <g id="line2d_14">
      <g>
       <use style="stroke:#000000;stroke-width:0.8;" x="57.6" xlink:href="#mb5ef061972" y="133.923891"/>
      </g>
     </g>
     <g id="text_14">
      <!-- 20000 -->
      <g transform="translate(18.7875 137.72311)scale(0.1 -0.1)">
       <use xlink:href="#DejaVuSans-32"/>
       <use x="63.623047" xlink:href="#DejaVuSans-30"/>
       <use x="127.246094" xlink:href="#DejaVuSans-30"/>
       <use x="190.869141" xlink:href="#DejaVuSans-30"/>
       <use x="254.492188" xlink:href="#DejaVuSans-30"/>
      </g>
     </g>
    </g>
    <g id="ytick_6">
     <g id="line2d_15">
      <g>
       <use style="stroke:#000000;stroke-width:0.8;" x="57.6" xlink:href="#mb5ef061972" y="113.738682"/>
      </g>
     </g>
     <g id="text_15">
      <!-- 25000 -->
      <g transform="translate(18.7875 117.537901)scale(0.1 -0.1)">
       <use xlink:href="#DejaVuSans-32"/>
       <use x="63.623047" xlink:href="#DejaVuSans-35"/>
       <use x="127.246094" xlink:href="#DejaVuSans-30"/>
       <use x="190.869141" xlink:href="#DejaVuSans-30"/>
       <use x="254.492188" xlink:href="#DejaVuSans-30"/>
      </g>
     </g>
    </g>
    <g id="ytick_7">
     <g id="line2d_16">
      <g>
       <use style="stroke:#000000;stroke-width:0.8;" x="57.6" xlink:href="#mb5ef061972" y="93.553473"/>
      </g>
     </g>
     <g id="text_16">
      <!-- 30000 -->
      <g transform="translate(18.7875 97.352692)scale(0.1 -0.1)">
       <use xlink:href="#DejaVuSans-33"/>
       <use x="63.623047" xlink:href="#DejaVuSans-30"/>
       <use x="127.246094" xlink:href="#DejaVuSans-30"/>
       <use x="190.869141" xlink:href="#DejaVuSans-30"/>
       <use x="254.492188" xlink:href="#DejaVuSans-30"/>
      </g>
     </g>
    </g>
    <g id="ytick_8">
     <g id="line2d_17">
      <g>
       <use style="stroke:#000000;stroke-width:0.8;" x="57.6" xlink:href="#mb5ef061972" y="73.368264"/>
      </g>
     </g>
     <g id="text_17">
      <!-- 35000 -->
      <g transform="translate(18.7875 77.167482)scale(0.1 -0.1)">
       <use xlink:href="#DejaVuSans-33"/>
       <use x="63.623047" xlink:href="#DejaVuSans-35"/>
       <use x="127.246094" xlink:href="#DejaVuSans-30"/>
       <use x="190.869141" xlink:href="#DejaVuSans-30"/>
       <use x="254.492188" xlink:href="#DejaVuSans-30"/>
      </g>
     </g>
    </g>
    <g id="ytick_9">
     <g id="line2d_18">
      <g>
       <use style="stroke:#000000;stroke-width:0.8;" x="57.6" xlink:href="#mb5ef061972" y="53.183055"/>
      </g>
     </g>
     <g id="text_18">
      <!-- 40000 -->
      <g transform="translate(18.7875 56.982273)scale(0.1 -0.1)">
       <use xlink:href="#DejaVuSans-34"/>
       <use x="63.623047" xlink:href="#DejaVuSans-30"/>
       <use x="127.246094" xlink:href="#DejaVuSans-30"/>
       <use x="190.869141" xlink:href="#DejaVuSans-30"/>
       <use x="254.492188" xlink:href="#DejaVuSans-30"/>
      </g>
     </g>
    </g>
   </g>
   <g id="line2d_19">
    <path clip-path="url(#pac882d9c86)" d="M 73.832727 191.136848 
L 77.994965 191.136848 
L 77.994965 192.380256 
L 82.157203 192.380256 
L 82.157203 189.08603 
L 86.319441 189.08603 
L 86.319441 191.09244 
L 90.481678 191.09244 
L 90.481678 189.392846 
L 94.643916 189.392846 
L 94.643916 186.114768 
L 102.968392 186.163212 
L 102.968392 188.161548 
L 107.130629 188.161548 
L 107.130629 185.432507 
L 111.292867 185.432507 
L 111.292867 185.299285 
L 115.455105 185.299285 
L 115.455105 186.554805 
L 119.617343 186.554805 
L 119.617343 184.532247 
L 123.77958 184.532247 
L 123.77958 184.366728 
L 127.941818 184.366728 
L 127.941818 186.20762 
L 132.104056 186.20762 
L 132.104056 183.551246 
L 136.266294 183.551246 
L 136.266294 180.616317 
L 140.428531 180.616317 
L 140.428531 180.099575 
L 144.590769 180.099575 
L 144.590769 172.203121 
L 148.753007 172.203121 
L 148.753007 168.222598 
L 152.915245 168.222598 
L 152.915245 153.241136 
L 157.077483 153.241136 
L 157.077483 150.818911 
L 161.23972 150.818911 
L 161.23972 130.149257 
L 165.401958 130.149257 
L 165.401958 107.83249 
L 169.564196 107.83249 
L 169.564196 93.710917 
L 173.726434 93.710917 
L 173.726434 92.435212 
L 177.888671 92.435212 
L 177.888671 67.01396 
L 182.050909 67.01396 
L 182.050909 49.719273 
L 186.213147 49.719273 
L 186.213147 61.987843 
L 190.375385 61.987843 
L 190.375385 56.679133 
L 194.537622 56.679133 
L 194.537622 61.834435 
L 198.69986 61.834435 
L 198.69986 89.177319 
L 202.862098 89.177319 
L 202.862098 100.428555 
L 207.024336 100.428555 
L 207.024336 121.804691 
L 211.186573 121.804691 
L 211.186573 135.219781 
L 215.348811 135.219781 
L 215.348811 160.721775 
L 219.511049 160.721775 
L 219.511049 172.707752 
L 223.673287 172.707752 
L 223.673287 180.192427 
L 227.835524 180.192427 
L 227.835524 193.482369 
L 231.997762 193.482369 
L 231.997762 197.886781 
L 236.16 197.886781 
L 236.16 202.109527 
L 240.322238 202.109527 
L 240.322238 203.619381 
L 244.484476 203.619381 
L 244.484476 203.962529 
L 248.646713 203.962529 
L 248.646713 204.854716 
L 252.808951 204.854716 
L 252.808951 201.944009 
L 256.971189 201.944009 
L 256.971189 200.514896 
L 261.133427 200.514896 
L 261.133427 198.932375 
L 265.295664 198.932375 
L 265.295664 195.274815 
L 269.457902 195.274815 
L 269.457902 192.896998 
L 273.62014 192.896998 
L 273.62014 190.753329 
L 281.944615 190.749292 
L 281.944615 186.445805 
L 286.106853 186.445805 
L 286.106853 186.276249 
L 290.269091 186.276249 
L 290.269091 191.395218 
L 298.593566 191.350811 
L 298.593566 192.614405 
L 302.755804 192.614405 
L 302.755804 196.130668 
L 306.918042 196.130668 
L 306.918042 198.896042 
L 311.08028 198.896042 
L 311.08028 201.508008 
L 315.242517 201.508008 
L 315.242517 205.117123 
L 319.404755 205.117123 
L 319.404755 206.102162 
L 323.566993 206.102162 
L 323.566993 208.419424 
L 327.729231 208.419424 
L 327.729231 210.191685 
L 331.891469 210.191685 
L 331.891469 211.192871 
L 336.053706 211.192871 
L 336.053706 212.008354 
L 340.215944 212.008354 
L 340.215944 212.658317 
L 344.378182 212.658317 
L 344.378182 213.126614 
L 348.54042 213.126614 
L 348.54042 213.352689 
L 352.702657 213.352689 
L 352.702657 213.619133 
L 356.864895 213.619133 
L 356.864895 213.756393 
L 365.189371 213.833097 
L 365.189371 213.954208 
L 377.676084 214.002652 
L 377.676084 214.079356 
L 394.325035 214.152023 
L 394.325035 214.192393 
L 398.487273 214.192393 
L 398.487273 214.143949 
" style="fill:none;stroke:#1f77b4;stroke-linecap:square;stroke-width:1.5;"/>
   </g>
   <g id="line2d_20">
    <path clip-path="url(#pac882d9c86)" d="M 73.832727 195.283298 
L 77.994965 195.283298 
L 77.994965 192.437074 
L 82.157203 192.437074 
L 82.157203 194.876694 
L 86.319441 194.876694 
L 86.319441 190.132988 
L 90.481678 190.132988 
L 90.481678 189.048712 
L 94.643916 189.048712 
L 94.643916 192.166005 
L 98.806154 192.166005 
L 98.806154 192.301539 
L 102.968392 192.301539 
L 102.968392 186.88016 
L 107.130629 186.88016 
L 107.130629 185.795884 
L 111.292867 185.795884 
L 111.292867 185.253746 
L 115.455105 185.253746 
L 115.455105 189.59085 
L 119.617343 189.59085 
L 119.617343 187.286764 
L 123.77958 187.286764 
L 123.77958 186.202488 
L 127.941818 186.202488 
L 127.941818 183.762867 
L 132.104056 183.762867 
L 132.104056 183.220729 
L 136.266294 183.220729 
L 136.266294 176.308471 
L 140.428531 176.308471 
L 140.428531 174.13992 
L 144.590769 174.13992 
L 144.590769 167.363196 
L 148.753007 167.363196 
L 148.753007 154.351886 
L 152.915245 154.351886 
L 152.915245 147.033025 
L 157.077483 147.033025 
L 157.077483 135.919198 
L 161.23972 135.919198 
L 161.23972 117.893113 
L 165.401958 117.893113 
L 165.401958 105.152872 
L 169.564196 105.152872 
L 169.564196 91.870494 
L 173.726434 91.870494 
L 173.726434 74.928685 
L 177.888671 74.928685 
L 177.888671 52.701031 
L 182.050909 52.701031 
L 182.050909 50.396945 
L 186.213147 50.396945 
L 186.213147 49.719273 
L 190.375385 49.719273 
L 190.375385 53.378704 
L 194.537622 53.378704 
L 194.537622 51.210152 
L 198.69986 51.210152 
L 198.69986 63.408255 
L 202.862098 63.408255 
L 202.862098 84.145029 
L 207.024336 84.145029 
L 207.024336 108.134631 
L 211.186573 108.134631 
L 211.186573 124.805371 
L 215.348811 124.805371 
L 215.348811 147.033025 
L 219.511049 147.033025 
L 219.511049 169.802816 
L 223.673287 169.802816 
L 223.673287 177.79935 
L 227.835524 177.79935 
L 227.835524 188.09997 
L 231.997762 188.09997 
L 231.997762 196.638642 
L 236.16 196.638642 
L 236.16 202.33109 
L 240.322238 202.33109 
L 240.322238 203.415366 
L 244.484476 203.415366 
L 244.484476 205.448383 
L 248.646713 205.448383 
L 248.646713 204.093038 
L 252.808951 204.093038 
L 252.808951 203.144297 
L 256.971189 203.144297 
L 256.971189 200.704676 
L 261.133427 200.704676 
L 261.133427 198.942728 
L 265.295664 198.942728 
L 265.295664 195.825435 
L 269.457902 195.825435 
L 269.457902 191.894936 
L 273.62014 191.894936 
L 273.62014 191.352798 
L 277.782378 191.352798 
L 277.782378 189.861919 
L 281.944615 189.861919 
L 281.944615 185.118212 
L 286.106853 185.118212 
L 286.106853 189.184246 
L 290.269091 189.184246 
L 290.269091 186.066953 
L 294.431329 186.066953 
L 294.431329 190.81066 
L 298.593566 190.81066 
L 298.593566 192.166005 
L 302.755804 192.166005 
L 302.755804 195.012229 
L 306.918042 195.012229 
L 306.918042 195.689901 
L 311.08028 195.689901 
L 311.08028 199.484866 
L 315.242517 199.484866 
L 315.242517 204.499642 
L 319.404755 204.499642 
L 319.404755 207.752469 
L 323.566993 207.752469 
L 323.566993 209.378883 
L 327.729231 209.378883 
L 327.729231 210.463159 
L 331.891469 210.463159 
L 331.891469 210.598693 
L 336.053706 210.598693 
L 336.053706 212.360641 
L 340.215944 212.360641 
L 340.215944 213.173848 
L 344.378182 213.173848 
L 344.378182 213.580451 
L 348.54042 213.580451 
L 348.54042 213.715986 
L 352.702657 213.715986 
L 352.702657 214.393658 
L 361.027133 214.393658 
L 361.027133 214.664727 
L 373.513846 214.664727 
L 373.513846 214.529193 
L 377.676084 214.529193 
L 377.676084 214.664727 
L 398.487273 214.664727 
L 398.487273 214.664727 
" style="fill:none;stroke:#2ca02c;stroke-linecap:square;stroke-width:1.5;"/>
   </g>
   <g id="patch_3">
    <path d="M 57.6 222.912 
L 57.6 41.472 
" style="fill:none;stroke:#000000;stroke-linecap:square;stroke-linejoin:miter;stroke-width:0.8;"/>
   </g>
   <g id="patch_4">
    <path d="M 414.72 222.912 
L 414.72 41.472 
" style="fill:none;stroke:#000000;stroke-linecap:square;stroke-linejoin:miter;stroke-width:0.8;"/>
   </g>
   <g id="patch_5">
    <path d="M 57.6 222.912 
L 414.72 222.912 
" style="fill:none;stroke:#000000;stroke-linecap:square;stroke-linejoin:miter;stroke-width:0.8;"/>
   </g>
   <g id="patch_6">
    <path d="M 57.6 41.472 
L 414.72 41.472 
" style="fill:none;stroke:#000000;stroke-linecap:square;stroke-linejoin:miter;stroke-width:0.8;"/>
   </g>
   <g id="legend_1">
    <g id="patch_7">
     <path d="M 351.843438 78.82825 
L 407.72 78.82825 
Q 409.72 78.82825 409.72 76.82825 
L 409.72 48.472 
Q 409.72 46.472 407.72 46.472 
L 351.843438 46.472 
Q 349.843438 46.472 349.843438 48.472 
L 349.843438 76.82825 
Q 349.843438 78.82825 351.843438 78.82825 
z
" style="fill:#ffffff;opacity:0.8;stroke:#cccccc;stroke-linejoin:miter;"/>
    </g>
    <g id="line2d_21">
     <path d="M 353.843438 54.570437 
L 373.843438 54.570437 
" style="fill:none;stroke:#1f77b4;stroke-linecap:square;stroke-width:1.5;"/>
    </g>
    <g id="line2d_22"/>
    <g id="text_19">
     <!-- Data -->
     <defs>
      <path d="M 19.671875 64.796875 
L 19.671875 8.109375 
L 31.59375 8.109375 
Q 46.6875 8.109375 53.6875 14.9375 
Q 60.6875 21.78125 60.6875 36.53125 
Q 60.6875 51.171875 53.6875 57.984375 
Q 46.6875 64.796875 31.59375 64.796875 
z
M 9.8125 72.90625 
L 30.078125 72.90625 
Q 51.265625 72.90625 61.171875 64.09375 
Q 71.09375 55.28125 71.09375 36.53125 
Q 71.09375 17.671875 61.125 8.828125 
Q 51.171875 0 30.078125 0 
L 9.8125 0 
z
" id="DejaVuSans-44"/>
      <path d="M 34.28125 27.484375 
Q 23.390625 27.484375 19.1875 25 
Q 14.984375 22.515625 14.984375 16.5 
Q 14.984375 11.71875 18.140625 8.90625 
Q 21.296875 6.109375 26.703125 6.109375 
Q 34.1875 6.109375 38.703125 11.40625 
Q 43.21875 16.703125 43.21875 25.484375 
L 43.21875 27.484375 
z
M 52.203125 31.203125 
L 52.203125 0 
L 43.21875 0 
L 43.21875 8.296875 
Q 40.140625 3.328125 35.546875 0.953125 
Q 30.953125 -1.421875 24.3125 -1.421875 
Q 15.921875 -1.421875 10.953125 3.296875 
Q 6 8.015625 6 15.921875 
Q 6 25.140625 12.171875 29.828125 
Q 18.359375 34.515625 30.609375 34.515625 
L 43.21875 34.515625 
L 43.21875 35.40625 
Q 43.21875 41.609375 39.140625 45 
Q 35.0625 48.390625 27.6875 48.390625 
Q 23 48.390625 18.546875 47.265625 
Q 14.109375 46.140625 10.015625 43.890625 
L 10.015625 52.203125 
Q 14.9375 54.109375 19.578125 55.046875 
Q 24.21875 56 28.609375 56 
Q 40.484375 56 46.34375 49.84375 
Q 52.203125 43.703125 52.203125 31.203125 
z
" id="DejaVuSans-61"/>
      <path d="M 18.3125 70.21875 
L 18.3125 54.6875 
L 36.8125 54.6875 
L 36.8125 47.703125 
L 18.3125 47.703125 
L 18.3125 18.015625 
Q 18.3125 11.328125 20.140625 9.421875 
Q 21.96875 7.515625 27.59375 7.515625 
L 36.8125 7.515625 
L 36.8125 0 
L 27.59375 0 
Q 17.1875 0 13.234375 3.875 
Q 9.28125 7.765625 9.28125 18.015625 
L 9.28125 47.703125 
L 2.6875 47.703125 
L 2.6875 54.6875 
L 9.28125 54.6875 
L 9.28125 70.21875 
z
" id="DejaVuSans-74"/>
     </defs>
     <g transform="translate(381.843438 58.070437)scale(0.1 -0.1)">
      <use xlink:href="#DejaVuSans-44"/>
      <use x="77.001953" xlink:href="#DejaVuSans-61"/>
      <use x="138.28125" xlink:href="#DejaVuSans-74"/>
      <use x="177.490234" xlink:href="#DejaVuSans-61"/>
     </g>
    </g>
    <g id="line2d_23">
     <path d="M 353.843438 69.248562 
L 373.843438 69.248562 
" style="fill:none;stroke:#2ca02c;stroke-linecap:square;stroke-width:1.5;"/>
    </g>
    <g id="line2d_24"/>
    <g id="text_20">
     <!-- MC -->
     <defs>
      <path d="M 9.8125 72.90625 
L 24.515625 72.90625 
L 43.109375 23.296875 
L 61.8125 72.90625 
L 76.515625 72.90625 
L 76.515625 0 
L 66.890625 0 
L 66.890625 64.015625 
L 48.09375 14.015625 
L 38.1875 14.015625 
L 19.390625 64.015625 
L 19.390625 0 
L 9.8125 0 
z
" id="DejaVuSans-4d"/>
      <path d="M 64.40625 67.28125 
L 64.40625 56.890625 
Q 59.421875 61.53125 53.78125 63.8125 
Q 48.140625 66.109375 41.796875 66.109375 
Q 29.296875 66.109375 22.65625 58.46875 
Q 16.015625 50.828125 16.015625 36.375 
Q 16.015625 21.96875 22.65625 14.328125 
Q 29.296875 6.6875 41.796875 6.6875 
Q 48.140625 6.6875 53.78125 8.984375 
Q 59.421875 11.28125 64.40625 15.921875 
L 64.40625 5.609375 
Q 59.234375 2.09375 53.4375 0.328125 
Q 47.65625 -1.421875 41.21875 -1.421875 
Q 24.65625 -1.421875 15.125 8.703125 
Q 5.609375 18.84375 5.609375 36.375 
Q 5.609375 53.953125 15.125 64.078125 
Q 24.65625 74.21875 41.21875 74.21875 
Q 47.75 74.21875 53.53125 72.484375 
Q 59.328125 70.75 64.40625 67.28125 
z
" id="DejaVuSans-43"/>
     </defs>
     <g transform="translate(381.843438 72.748562)scale(0.1 -0.1)">
      <use xlink:href="#DejaVuSans-4d"/>
      <use x="86.279297" xlink:href="#DejaVuSans-43"/>
     </g>
    </g>
   </g>
  </g>
  <g id="axes_2">
   <g id="patch_8">
    <path d="M 57.6 307.584 
L 414.72 307.584 
L 414.72 247.104 
L 57.6 247.104 
z
" style="fill:#ffffff;"/>
   </g>
   <g id="matplotlib.axis_3">
    <g id="xtick_10">
     <g id="line2d_25">
      <path clip-path="url(#pecdce1e58b)" d="M 73.832727 307.584 
L 73.832727 247.104 
" style="fill:none;stroke:#b0b0b0;stroke-linecap:square;stroke-width:0.8;"/>
     </g>
     <g id="line2d_26">
      <g>
       <use style="stroke:#000000;stroke-width:0.8;" x="73.832727" xlink:href="#m8b697fb066" y="307.584"/>
      </g>
     </g>
     <g id="text_21">
      <!-- 35.0 -->
      <g transform="translate(62.699915 322.182437)scale(0.1 -0.1)">
       <use xlink:href="#DejaVuSans-33"/>
       <use x="63.623047" xlink:href="#DejaVuSans-35"/>
       <use x="127.246094" xlink:href="#DejaVuSans-2e"/>
       <use x="159.033203" xlink:href="#DejaVuSans-30"/>
      </g>
     </g>
    </g>
    <g id="xtick_11">
     <g id="line2d_27">
      <path clip-path="url(#pecdce1e58b)" d="M 114.934825 307.584 
L 114.934825 247.104 
" style="fill:none;stroke:#b0b0b0;stroke-linecap:square;stroke-width:0.8;"/>
     </g>
     <g id="line2d_28">
      <g>
       <use style="stroke:#000000;stroke-width:0.8;" x="114.934825" xlink:href="#m8b697fb066" y="307.584"/>
      </g>
     </g>
     <g id="text_22">
      <!-- 37.5 -->
      <g transform="translate(103.802013 322.182437)scale(0.1 -0.1)">
       <use xlink:href="#DejaVuSans-33"/>
       <use x="63.623047" xlink:href="#DejaVuSans-37"/>
       <use x="127.246094" xlink:href="#DejaVuSans-2e"/>
       <use x="159.033203" xlink:href="#DejaVuSans-35"/>
      </g>
     </g>
    </g>
    <g id="xtick_12">
     <g id="line2d_29">
      <path clip-path="url(#pecdce1e58b)" d="M 156.036923 307.584 
L 156.036923 247.104 
" style="fill:none;stroke:#b0b0b0;stroke-linecap:square;stroke-width:0.8;"/>
     </g>
     <g id="line2d_30">
      <g>
       <use style="stroke:#000000;stroke-width:0.8;" x="156.036923" xlink:href="#m8b697fb066" y="307.584"/>
      </g>
     </g>
     <g id="text_23">
      <!-- 40.0 -->
      <g transform="translate(144.904111 322.182437)scale(0.1 -0.1)">
       <use xlink:href="#DejaVuSans-34"/>
       <use x="63.623047" xlink:href="#DejaVuSans-30"/>
       <use x="127.246094" xlink:href="#DejaVuSans-2e"/>
       <use x="159.033203" xlink:href="#DejaVuSans-30"/>
      </g>
     </g>
    </g>
    <g id="xtick_13">
     <g id="line2d_31">
      <path clip-path="url(#pecdce1e58b)" d="M 197.139021 307.584 
L 197.139021 247.104 
" style="fill:none;stroke:#b0b0b0;stroke-linecap:square;stroke-width:0.8;"/>
     </g>
     <g id="line2d_32">
      <g>
       <use style="stroke:#000000;stroke-width:0.8;" x="197.139021" xlink:href="#m8b697fb066" y="307.584"/>
      </g>
     </g>
     <g id="text_24">
      <!-- 42.5 -->
      <g transform="translate(186.006208 322.182437)scale(0.1 -0.1)">
       <use xlink:href="#DejaVuSans-34"/>
       <use x="63.623047" xlink:href="#DejaVuSans-32"/>
       <use x="127.246094" xlink:href="#DejaVuSans-2e"/>
       <use x="159.033203" xlink:href="#DejaVuSans-35"/>
      </g>
     </g>
    </g>
    <g id="xtick_14">
     <g id="line2d_33">
      <path clip-path="url(#pecdce1e58b)" d="M 238.241119 307.584 
L 238.241119 247.104 
" style="fill:none;stroke:#b0b0b0;stroke-linecap:square;stroke-width:0.8;"/>
     </g>
     <g id="line2d_34">
      <g>
       <use style="stroke:#000000;stroke-width:0.8;" x="238.241119" xlink:href="#m8b697fb066" y="307.584"/>
      </g>
     </g>
     <g id="text_25">
      <!-- 45.0 -->
      <g transform="translate(227.108306 322.182437)scale(0.1 -0.1)">
       <use xlink:href="#DejaVuSans-34"/>
       <use x="63.623047" xlink:href="#DejaVuSans-35"/>
       <use x="127.246094" xlink:href="#DejaVuSans-2e"/>
       <use x="159.033203" xlink:href="#DejaVuSans-30"/>
      </g>
     </g>
    </g>
    <g id="xtick_15">
     <g id="line2d_35">
      <path clip-path="url(#pecdce1e58b)" d="M 279.343217 307.584 
L 279.343217 247.104 
" style="fill:none;stroke:#b0b0b0;stroke-linecap:square;stroke-width:0.8;"/>
     </g>
     <g id="line2d_36">
      <g>
       <use style="stroke:#000000;stroke-width:0.8;" x="279.343217" xlink:href="#m8b697fb066" y="307.584"/>
      </g>
     </g>
     <g id="text_26">
      <!-- 47.5 -->
      <g transform="translate(268.210404 322.182437)scale(0.1 -0.1)">
       <use xlink:href="#DejaVuSans-34"/>
       <use x="63.623047" xlink:href="#DejaVuSans-37"/>
       <use x="127.246094" xlink:href="#DejaVuSans-2e"/>
       <use x="159.033203" xlink:href="#DejaVuSans-35"/>
      </g>
     </g>
    </g>
    <g id="xtick_16">
     <g id="line2d_37">
      <path clip-path="url(#pecdce1e58b)" d="M 320.445315 307.584 
L 320.445315 247.104 
" style="fill:none;stroke:#b0b0b0;stroke-linecap:square;stroke-width:0.8;"/>
     </g>
     <g id="line2d_38">
      <g>
       <use style="stroke:#000000;stroke-width:0.8;" x="320.445315" xlink:href="#m8b697fb066" y="307.584"/>
      </g>
     </g>
     <g id="text_27">
      <!-- 50.0 -->
      <g transform="translate(309.312502 322.182437)scale(0.1 -0.1)">
       <use xlink:href="#DejaVuSans-35"/>
       <use x="63.623047" xlink:href="#DejaVuSans-30"/>
       <use x="127.246094" xlink:href="#DejaVuSans-2e"/>
       <use x="159.033203" xlink:href="#DejaVuSans-30"/>
      </g>
     </g>
    </g>
    <g id="xtick_17">
     <g id="line2d_39">
      <path clip-path="url(#pecdce1e58b)" d="M 361.547413 307.584 
L 361.547413 247.104 
" style="fill:none;stroke:#b0b0b0;stroke-linecap:square;stroke-width:0.8;"/>
     </g>
     <g id="line2d_40">
      <g>
       <use style="stroke:#000000;stroke-width:0.8;" x="361.547413" xlink:href="#m8b697fb066" y="307.584"/>
      </g>
     </g>
     <g id="text_28">
      <!-- 52.5 -->
      <g transform="translate(350.4146 322.182437)scale(0.1 -0.1)">
       <use xlink:href="#DejaVuSans-35"/>
       <use x="63.623047" xlink:href="#DejaVuSans-32"/>
       <use x="127.246094" xlink:href="#DejaVuSans-2e"/>
       <use x="159.033203" xlink:href="#DejaVuSans-35"/>
      </g>
     </g>
    </g>
    <g id="xtick_18">
     <g id="line2d_41">
      <path clip-path="url(#pecdce1e58b)" d="M 402.64951 307.584 
L 402.64951 247.104 
" style="fill:none;stroke:#b0b0b0;stroke-linecap:square;stroke-width:0.8;"/>
     </g>
     <g id="line2d_42">
      <g>
       <use style="stroke:#000000;stroke-width:0.8;" x="402.64951" xlink:href="#m8b697fb066" y="307.584"/>
      </g>
     </g>
     <g id="text_29">
      <!-- 55.0 -->
      <g transform="translate(391.516698 322.182437)scale(0.1 -0.1)">
       <use xlink:href="#DejaVuSans-35"/>
       <use x="63.623047" xlink:href="#DejaVuSans-35"/>
       <use x="127.246094" xlink:href="#DejaVuSans-2e"/>
       <use x="159.033203" xlink:href="#DejaVuSans-30"/>
      </g>
     </g>
    </g>
    <g id="text_30">
     <!-- Energy (keV) -->
     <defs>
      <path d="M 9.8125 72.90625 
L 55.90625 72.90625 
L 55.90625 64.59375 
L 19.671875 64.59375 
L 19.671875 43.015625 
L 54.390625 43.015625 
L 54.390625 34.71875 
L 19.671875 34.71875 
L 19.671875 8.296875 
L 56.78125 8.296875 
L 56.78125 0 
L 9.8125 0 
z
" id="DejaVuSans-45"/>
      <path d="M 54.890625 33.015625 
L 54.890625 0 
L 45.90625 0 
L 45.90625 32.71875 
Q 45.90625 40.484375 42.875 44.328125 
Q 39.84375 48.1875 33.796875 48.1875 
Q 26.515625 48.1875 22.3125 43.546875 
Q 18.109375 38.921875 18.109375 30.90625 
L 18.109375 0 
L 9.078125 0 
L 9.078125 54.6875 
L 18.109375 54.6875 
L 18.109375 46.1875 
Q 21.34375 51.125 25.703125 53.5625 
Q 30.078125 56 35.796875 56 
Q 45.21875 56 50.046875 50.171875 
Q 54.890625 44.34375 54.890625 33.015625 
z
" id="DejaVuSans-6e"/>
      <path d="M 56.203125 29.59375 
L 56.203125 25.203125 
L 14.890625 25.203125 
Q 15.484375 15.921875 20.484375 11.0625 
Q 25.484375 6.203125 34.421875 6.203125 
Q 39.59375 6.203125 44.453125 7.46875 
Q 49.3125 8.734375 54.109375 11.28125 
L 54.109375 2.78125 
Q 49.265625 0.734375 44.1875 -0.34375 
Q 39.109375 -1.421875 33.890625 -1.421875 
Q 20.796875 -1.421875 13.15625 6.1875 
Q 5.515625 13.8125 5.515625 26.8125 
Q 5.515625 40.234375 12.765625 48.109375 
Q 20.015625 56 32.328125 56 
Q 43.359375 56 49.78125 48.890625 
Q 56.203125 41.796875 56.203125 29.59375 
z
M 47.21875 32.234375 
Q 47.125 39.59375 43.09375 43.984375 
Q 39.0625 48.390625 32.421875 48.390625 
Q 24.90625 48.390625 20.390625 44.140625 
Q 15.875 39.890625 15.1875 32.171875 
z
" id="DejaVuSans-65"/>
      <path d="M 41.109375 46.296875 
Q 39.59375 47.171875 37.8125 47.578125 
Q 36.03125 48 33.890625 48 
Q 26.265625 48 22.1875 43.046875 
Q 18.109375 38.09375 18.109375 28.8125 
L 18.109375 0 
L 9.078125 0 
L 9.078125 54.6875 
L 18.109375 54.6875 
L 18.109375 46.1875 
Q 20.953125 51.171875 25.484375 53.578125 
Q 30.03125 56 36.53125 56 
Q 37.453125 56 38.578125 55.875 
Q 39.703125 55.765625 41.0625 55.515625 
z
" id="DejaVuSans-72"/>
      <path d="M 45.40625 27.984375 
Q 45.40625 37.75 41.375 43.109375 
Q 37.359375 48.484375 30.078125 48.484375 
Q 22.859375 48.484375 18.828125 43.109375 
Q 14.796875 37.75 14.796875 27.984375 
Q 14.796875 18.265625 18.828125 12.890625 
Q 22.859375 7.515625 30.078125 7.515625 
Q 37.359375 7.515625 41.375 12.890625 
Q 45.40625 18.265625 45.40625 27.984375 
z
M 54.390625 6.78125 
Q 54.390625 -7.171875 48.1875 -13.984375 
Q 42 -20.796875 29.203125 -20.796875 
Q 24.46875 -20.796875 20.265625 -20.09375 
Q 16.0625 -19.390625 12.109375 -17.921875 
L 12.109375 -9.1875 
Q 16.0625 -11.328125 19.921875 -12.34375 
Q 23.78125 -13.375 27.78125 -13.375 
Q 36.625 -13.375 41.015625 -8.765625 
Q 45.40625 -4.15625 45.40625 5.171875 
L 45.40625 9.625 
Q 42.625 4.78125 38.28125 2.390625 
Q 33.9375 0 27.875 0 
Q 17.828125 0 11.671875 7.65625 
Q 5.515625 15.328125 5.515625 27.984375 
Q 5.515625 40.671875 11.671875 48.328125 
Q 17.828125 56 27.875 56 
Q 33.9375 56 38.28125 53.609375 
Q 42.625 51.21875 45.40625 46.390625 
L 45.40625 54.6875 
L 54.390625 54.6875 
z
" id="DejaVuSans-67"/>
      <path d="M 32.171875 -5.078125 
Q 28.375 -14.84375 24.75 -17.8125 
Q 21.140625 -20.796875 15.09375 -20.796875 
L 7.90625 -20.796875 
L 7.90625 -13.28125 
L 13.1875 -13.28125 
Q 16.890625 -13.28125 18.9375 -11.515625 
Q 21 -9.765625 23.484375 -3.21875 
L 25.09375 0.875 
L 2.984375 54.6875 
L 12.5 54.6875 
L 29.59375 11.921875 
L 46.6875 54.6875 
L 56.203125 54.6875 
z
" id="DejaVuSans-79"/>
      <path id="DejaVuSans-20"/>
      <path d="M 31 75.875 
Q 24.46875 64.65625 21.28125 53.65625 
Q 18.109375 42.671875 18.109375 31.390625 
Q 18.109375 20.125 21.3125 9.0625 
Q 24.515625 -2 31 -13.1875 
L 23.1875 -13.1875 
Q 15.875 -1.703125 12.234375 9.375 
Q 8.59375 20.453125 8.59375 31.390625 
Q 8.59375 42.28125 12.203125 53.3125 
Q 15.828125 64.359375 23.1875 75.875 
z
" id="DejaVuSans-28"/>
      <path d="M 9.078125 75.984375 
L 18.109375 75.984375 
L 18.109375 31.109375 
L 44.921875 54.6875 
L 56.390625 54.6875 
L 27.390625 29.109375 
L 57.625 0 
L 45.90625 0 
L 18.109375 26.703125 
L 18.109375 0 
L 9.078125 0 
z
" id="DejaVuSans-6b"/>
      <path d="M 28.609375 0 
L 0.78125 72.90625 
L 11.078125 72.90625 
L 34.1875 11.53125 
L 57.328125 72.90625 
L 67.578125 72.90625 
L 39.796875 0 
z
" id="DejaVuSans-56"/>
      <path d="M 8.015625 75.875 
L 15.828125 75.875 
Q 23.140625 64.359375 26.78125 53.3125 
Q 30.421875 42.28125 30.421875 31.390625 
Q 30.421875 20.453125 26.78125 9.375 
Q 23.140625 -1.703125 15.828125 -13.1875 
L 8.015625 -13.1875 
Q 14.5 -2 17.703125 9.0625 
Q 20.90625 20.125 20.90625 31.390625 
Q 20.90625 42.671875 17.703125 53.65625 
Q 14.5 64.65625 8.015625 75.875 
z
" id="DejaVuSans-29"/>
     </defs>
     <g transform="translate(203.686562 335.860562)scale(0.1 -0.1)">
      <use xlink:href="#DejaVuSans-45"/>
      <use x="63.183594" xlink:href="#DejaVuSans-6e"/>
      <use x="126.5625" xlink:href="#DejaVuSans-65"/>
      <use x="188.085938" xlink:href="#DejaVuSans-72"/>
      <use x="229.183594" xlink:href="#DejaVuSans-67"/>
      <use x="292.660156" xlink:href="#DejaVuSans-79"/>
      <use x="351.839844" xlink:href="#DejaVuSans-20"/>
      <use x="383.626953" xlink:href="#DejaVuSans-28"/>
      <use x="422.640625" xlink:href="#DejaVuSans-6b"/>
      <use x="480.503906" xlink:href="#DejaVuSans-65"/>
      <use x="542.027344" xlink:href="#DejaVuSans-56"/>
      <use x="610.435547" xlink:href="#DejaVuSans-29"/>
     </g>
    </g>
   </g>
   <g id="matplotlib.axis_4">
    <g id="ytick_10">
     <g id="line2d_43">
      <path clip-path="url(#pecdce1e58b)" d="M 57.6 297.504 
L 414.72 297.504 
" style="fill:none;stroke:#b0b0b0;stroke-linecap:square;stroke-width:0.8;"/>
     </g>
     <g id="line2d_44">
      <g>
       <use style="stroke:#000000;stroke-width:0.8;" x="57.6" xlink:href="#mb5ef061972" y="297.504"/>
      </g>
     </g>
     <g id="text_31">
      <!-- −0.2 -->
      <defs>
       <path d="M 10.59375 35.5 
L 73.1875 35.5 
L 73.1875 27.203125 
L 10.59375 27.203125 
z
" id="DejaVuSans-2212"/>
      </defs>
      <g transform="translate(26.317187 301.303219)scale(0.1 -0.1)">
       <use xlink:href="#DejaVuSans-2212"/>
       <use x="83.789062" xlink:href="#DejaVuSans-30"/>
       <use x="147.412109" xlink:href="#DejaVuSans-2e"/>
       <use x="179.199219" xlink:href="#DejaVuSans-32"/>
      </g>
     </g>
    </g>
    <g id="ytick_11">
     <g id="line2d_45">
      <path clip-path="url(#pecdce1e58b)" d="M 57.6 277.344 
L 414.72 277.344 
" style="fill:none;stroke:#b0b0b0;stroke-linecap:square;stroke-width:0.8;"/>
     </g>
     <g id="line2d_46">
      <g>
       <use style="stroke:#000000;stroke-width:0.8;" x="57.6" xlink:href="#mb5ef061972" y="277.344"/>
      </g>
     </g>
     <g id="text_32">
      <!-- 0.0 -->
      <g transform="translate(34.696875 281.143219)scale(0.1 -0.1)">
       <use xlink:href="#DejaVuSans-30"/>
       <use x="63.623047" xlink:href="#DejaVuSans-2e"/>
       <use x="95.410156" xlink:href="#DejaVuSans-30"/>
      </g>
     </g>
    </g>
    <g id="ytick_12">
     <g id="line2d_47">
      <path clip-path="url(#pecdce1e58b)" d="M 57.6 257.184 
L 414.72 257.184 
" style="fill:none;stroke:#b0b0b0;stroke-linecap:square;stroke-width:0.8;"/>
     </g>
     <g id="line2d_48">
      <g>
       <use style="stroke:#000000;stroke-width:0.8;" x="57.6" xlink:href="#mb5ef061972" y="257.184"/>
      </g>
     </g>
     <g id="text_33">
      <!-- 0.2 -->
      <g transform="translate(34.696875 260.983219)scale(0.1 -0.1)">
       <use xlink:href="#DejaVuSans-30"/>
       <use x="63.623047" xlink:href="#DejaVuSans-2e"/>
       <use x="95.410156" xlink:href="#DejaVuSans-32"/>
      </g>
     </g>
    </g>
    <g id="text_34">
     <!-- (Data - MC)/(Data + MC) -->
     <defs>
      <path d="M 4.890625 31.390625 
L 31.203125 31.390625 
L 31.203125 23.390625 
L 4.890625 23.390625 
z
" id="DejaVuSans-2d"/>
      <path d="M 25.390625 72.90625 
L 33.6875 72.90625 
L 8.296875 -9.28125 
L 0 -9.28125 
z
" id="DejaVuSans-2f"/>
      <path d="M 46 62.703125 
L 46 35.5 
L 73.1875 35.5 
L 73.1875 27.203125 
L 46 27.203125 
L 46 0 
L 37.796875 0 
L 37.796875 27.203125 
L 10.59375 27.203125 
L 10.59375 35.5 
L 37.796875 35.5 
L 37.796875 62.703125 
z
" id="DejaVuSans-2b"/>
     </defs>
     <g transform="translate(20.2375 338.669)rotate(-90)scale(0.1 -0.1)">
      <use xlink:href="#DejaVuSans-28"/>
      <use x="39.013672" xlink:href="#DejaVuSans-44"/>
      <use x="116.015625" xlink:href="#DejaVuSans-61"/>
      <use x="177.294922" xlink:href="#DejaVuSans-74"/>
      <use x="216.503906" xlink:href="#DejaVuSans-61"/>
      <use x="277.783203" xlink:href="#DejaVuSans-20"/>
      <use x="309.570312" xlink:href="#DejaVuSans-2d"/>
      <use x="345.654297" xlink:href="#DejaVuSans-20"/>
      <use x="377.441406" xlink:href="#DejaVuSans-4d"/>
      <use x="463.720703" xlink:href="#DejaVuSans-43"/>
      <use x="533.544922" xlink:href="#DejaVuSans-29"/>
      <use x="572.558594" xlink:href="#DejaVuSans-2f"/>
      <use x="606.25" xlink:href="#DejaVuSans-28"/>
      <use x="645.263672" xlink:href="#DejaVuSans-44"/>
      <use x="722.265625" xlink:href="#DejaVuSans-61"/>
      <use x="783.544922" xlink:href="#DejaVuSans-74"/>
      <use x="822.753906" xlink:href="#DejaVuSans-61"/>
      <use x="884.033203" xlink:href="#DejaVuSans-20"/>
      <use x="915.820312" xlink:href="#DejaVuSans-2b"/>
      <use x="999.609375" xlink:href="#DejaVuSans-20"/>
      <use x="1031.396484" xlink:href="#DejaVuSans-4d"/>
      <use x="1117.675781" xlink:href="#DejaVuSans-43"/>
      <use x="1187.5" xlink:href="#DejaVuSans-29"/>
     </g>
    </g>
   </g>
   <g id="LineCollection_1">
    <path clip-path="url(#pecdce1e58b)" d="M 73.832727 268.257434 
L 73.832727 266.949378 
" style="fill:none;stroke:#000000;stroke-width:1.5;"/>
    <path clip-path="url(#pecdce1e58b)" d="M 77.994965 277.893695 
L 77.994965 276.536975 
" style="fill:none;stroke:#000000;stroke-width:1.5;"/>
    <path clip-path="url(#pecdce1e58b)" d="M 82.157203 265.100625 
L 82.157203 263.854909 
" style="fill:none;stroke:#000000;stroke-width:1.5;"/>
    <path clip-path="url(#pecdce1e58b)" d="M 86.319441 280.013801 
L 86.319441 278.695185 
" style="fill:none;stroke:#000000;stroke-width:1.5;"/>
    <path clip-path="url(#pecdce1e58b)" d="M 90.481678 278.662645 
L 90.481678 277.388692 
" style="fill:none;stroke:#000000;stroke-width:1.5;"/>
    <path clip-path="url(#pecdce1e58b)" d="M 94.643916 265.986213 
L 94.643916 264.804414 
" style="fill:none;stroke:#000000;stroke-width:1.5;"/>
    <path clip-path="url(#pecdce1e58b)" d="M 98.806154 265.770601 
L 98.806154 264.588412 
" style="fill:none;stroke:#000000;stroke-width:1.5;"/>
    <path clip-path="url(#pecdce1e58b)" d="M 102.968392 280.344931 
L 102.968392 279.101559 
" style="fill:none;stroke:#000000;stroke-width:1.5;"/>
    <path clip-path="url(#pecdce1e58b)" d="M 107.130629 277.305837 
L 107.130629 276.121312 
" style="fill:none;stroke:#000000;stroke-width:1.5;"/>
    <path clip-path="url(#pecdce1e58b)" d="M 111.292867 278.013038 
L 111.292867 276.831157 
" style="fill:none;stroke:#000000;stroke-width:1.5;"/>
    <path clip-path="url(#pecdce1e58b)" d="M 115.455105 272.191768 
L 115.455105 270.987717 
" style="fill:none;stroke:#000000;stroke-width:1.5;"/>
    <path clip-path="url(#pecdce1e58b)" d="M 119.617343 273.098122 
L 119.617343 271.934057 
" style="fill:none;stroke:#000000;stroke-width:1.5;"/>
    <path clip-path="url(#pecdce1e58b)" d="M 123.77958 274.776062 
L 123.77958 273.613647 
" style="fill:none;stroke:#000000;stroke-width:1.5;"/>
    <path clip-path="url(#pecdce1e58b)" d="M 127.941818 282.094818 
L 127.941818 280.896259 
" style="fill:none;stroke:#000000;stroke-width:1.5;"/>
    <path clip-path="url(#pecdce1e58b)" d="M 132.104056 278.450652 
L 132.104056 277.302483 
" style="fill:none;stroke:#000000;stroke-width:1.5;"/>
    <path clip-path="url(#pecdce1e58b)" d="M 136.266294 283.888133 
L 136.266294 282.79442 
" style="fill:none;stroke:#000000;stroke-width:1.5;"/>
    <path clip-path="url(#pecdce1e58b)" d="M 140.428531 285.885432 
L 140.428531 284.80293 
" style="fill:none;stroke:#000000;stroke-width:1.5;"/>
    <path clip-path="url(#pecdce1e58b)" d="M 144.590769 283.269024 
L 144.590769 282.289017 
" style="fill:none;stroke:#000000;stroke-width:1.5;"/>
    <path clip-path="url(#pecdce1e58b)" d="M 148.753007 290.902948 
L 148.753007 289.979012 
" style="fill:none;stroke:#000000;stroke-width:1.5;"/>
    <path clip-path="url(#pecdce1e58b)" d="M 152.915245 282.600562 
L 152.915245 281.78526 
" style="fill:none;stroke:#000000;stroke-width:1.5;"/>
    <path clip-path="url(#pecdce1e58b)" d="M 157.077483 288.273229 
L 157.077483 287.48044 
" style="fill:none;stroke:#000000;stroke-width:1.5;"/>
    <path clip-path="url(#pecdce1e58b)" d="M 161.23972 284.505453 
L 161.23972 283.811972 
" style="fill:none;stroke:#000000;stroke-width:1.5;"/>
    <path clip-path="url(#pecdce1e58b)" d="M 165.401958 278.902273 
L 165.401958 278.282726 
" style="fill:none;stroke:#000000;stroke-width:1.5;"/>
    <path clip-path="url(#pecdce1e58b)" d="M 169.564196 278.396249 
L 169.564196 277.813935 
" style="fill:none;stroke:#000000;stroke-width:1.5;"/>
    <path clip-path="url(#pecdce1e58b)" d="M 173.726434 284.368578 
L 173.726434 283.791864 
" style="fill:none;stroke:#000000;stroke-width:1.5;"/>
    <path clip-path="url(#pecdce1e58b)" d="M 177.888671 282.266781 
L 177.888671 281.74083 
" style="fill:none;stroke:#000000;stroke-width:1.5;"/>
    <path clip-path="url(#pecdce1e58b)" d="M 182.050909 277.385846 
L 182.050909 276.887168 
" style="fill:none;stroke:#000000;stroke-width:1.5;"/>
    <path clip-path="url(#pecdce1e58b)" d="M 186.213147 281.496307 
L 186.213147 280.978751 
" style="fill:none;stroke:#000000;stroke-width:1.5;"/>
    <path clip-path="url(#pecdce1e58b)" d="M 190.375385 278.640753 
L 190.375385 278.131261 
" style="fill:none;stroke:#000000;stroke-width:1.5;"/>
    <path clip-path="url(#pecdce1e58b)" d="M 194.537622 280.988702 
L 194.537622 280.471217 
" style="fill:none;stroke:#000000;stroke-width:1.5;"/>
    <path clip-path="url(#pecdce1e58b)" d="M 198.69986 287.0134 
L 198.69986 286.446626 
" style="fill:none;stroke:#000000;stroke-width:1.5;"/>
    <path clip-path="url(#pecdce1e58b)" d="M 202.862098 284.348477 
L 202.862098 283.751904 
" style="fill:none;stroke:#000000;stroke-width:1.5;"/>
    <path clip-path="url(#pecdce1e58b)" d="M 207.024336 284.585535 
L 207.024336 283.924033 
" style="fill:none;stroke:#000000;stroke-width:1.5;"/>
    <path clip-path="url(#pecdce1e58b)" d="M 211.186573 283.902424 
L 211.186573 283.18659 
" style="fill:none;stroke:#000000;stroke-width:1.5;"/>
    <path clip-path="url(#pecdce1e58b)" d="M 215.348811 289.124099 
L 215.348811 288.263138 
" style="fill:none;stroke:#000000;stroke-width:1.5;"/>
    <path clip-path="url(#pecdce1e58b)" d="M 219.511049 281.210565 
L 219.511049 280.222914 
" style="fill:none;stroke:#000000;stroke-width:1.5;"/>
    <path clip-path="url(#pecdce1e58b)" d="M 223.673287 281.270214 
L 223.673287 280.180612 
" style="fill:none;stroke:#000000;stroke-width:1.5;"/>
    <path clip-path="url(#pecdce1e58b)" d="M 227.835524 289.393845 
L 227.835524 288.019958 
" style="fill:none;stroke:#000000;stroke-width:1.5;"/>
    <path clip-path="url(#pecdce1e58b)" d="M 231.997762 281.73967 
L 231.997762 280.178092 
" style="fill:none;stroke:#000000;stroke-width:1.5;"/>
    <path clip-path="url(#pecdce1e58b)" d="M 236.16 277.350351 
L 236.16 275.542986 
" style="fill:none;stroke:#000000;stroke-width:1.5;"/>
    <path clip-path="url(#pecdce1e58b)" d="M 240.322238 279.229868 
L 240.322238 277.302937 
" style="fill:none;stroke:#000000;stroke-width:1.5;"/>
    <path clip-path="url(#pecdce1e58b)" d="M 244.484476 270.798097 
L 244.484476 268.851248 
" style="fill:none;stroke:#000000;stroke-width:1.5;"/>
    <path clip-path="url(#pecdce1e58b)" d="M 248.646713 282.131949 
L 248.646713 280.089974 
" style="fill:none;stroke:#000000;stroke-width:1.5;"/>
    <path clip-path="url(#pecdce1e58b)" d="M 252.808951 273.248592 
L 252.808951 271.457284 
" style="fill:none;stroke:#000000;stroke-width:1.5;"/>
    <path clip-path="url(#pecdce1e58b)" d="M 256.971189 277.514729 
L 256.971189 275.812191 
" style="fill:none;stroke:#000000;stroke-width:1.5;"/>
    <path clip-path="url(#pecdce1e58b)" d="M 261.133427 278.118179 
L 261.133427 276.503466 
" style="fill:none;stroke:#000000;stroke-width:1.5;"/>
    <path clip-path="url(#pecdce1e58b)" d="M 265.295664 276.619248 
L 265.295664 275.165082 
" style="fill:none;stroke:#000000;stroke-width:1.5;"/>
    <path clip-path="url(#pecdce1e58b)" d="M 269.457902 280.297946 
L 269.457902 278.925909 
" style="fill:none;stroke:#000000;stroke-width:1.5;"/>
    <path clip-path="url(#pecdce1e58b)" d="M 273.62014 276.719181 
L 273.62014 275.409639 
" style="fill:none;stroke:#000000;stroke-width:1.5;"/>
    <path clip-path="url(#pecdce1e58b)" d="M 277.782378 279.834615 
L 277.782378 278.525406 
" style="fill:none;stroke:#000000;stroke-width:1.5;"/>
    <path clip-path="url(#pecdce1e58b)" d="M 281.944615 280.263141 
L 281.944615 279.058126 
" style="fill:none;stroke:#000000;stroke-width:1.5;"/>
    <path clip-path="url(#pecdce1e58b)" d="M 286.106853 272.501806 
L 286.106853 271.303263 
" style="fill:none;stroke:#000000;stroke-width:1.5;"/>
    <path clip-path="url(#pecdce1e58b)" d="M 290.269091 288.355907 
L 290.269091 287.042223 
" style="fill:none;stroke:#000000;stroke-width:1.5;"/>
    <path clip-path="url(#pecdce1e58b)" d="M 294.431329 279.161454 
L 294.431329 277.835197 
" style="fill:none;stroke:#000000;stroke-width:1.5;"/>
    <path clip-path="url(#pecdce1e58b)" d="M 298.593566 279.040468 
L 298.593566 277.6767 
" style="fill:none;stroke:#000000;stroke-width:1.5;"/>
    <path clip-path="url(#pecdce1e58b)" d="M 302.755804 281.039512 
L 302.755804 279.553117 
" style="fill:none;stroke:#000000;stroke-width:1.5;"/>
    <path clip-path="url(#pecdce1e58b)" d="M 306.918042 287.445411 
L 306.918042 285.846294 
" style="fill:none;stroke:#000000;stroke-width:1.5;"/>
    <path clip-path="url(#pecdce1e58b)" d="M 311.08028 285.419152 
L 311.08028 283.662447 
" style="fill:none;stroke:#000000;stroke-width:1.5;"/>
    <path clip-path="url(#pecdce1e58b)" d="M 315.242517 281.53682 
L 315.242517 279.466113 
" style="fill:none;stroke:#000000;stroke-width:1.5;"/>
    <path clip-path="url(#pecdce1e58b)" d="M 319.404755 267.676131 
L 319.404755 265.512303 
" style="fill:none;stroke:#000000;stroke-width:1.5;"/>
    <path clip-path="url(#pecdce1e58b)" d="M 323.566993 270.229379 
L 323.566993 267.684318 
" style="fill:none;stroke:#000000;stroke-width:1.5;"/>
    <path clip-path="url(#pecdce1e58b)" d="M 327.729231 275.702083 
L 327.729231 272.676806 
" style="fill:none;stroke:#000000;stroke-width:1.5;"/>
    <path clip-path="url(#pecdce1e58b)" d="M 331.891469 286.997561 
L 331.891469 283.581667 
" style="fill:none;stroke:#000000;stroke-width:1.5;"/>
    <path clip-path="url(#pecdce1e58b)" d="M 336.053706 272.14016 
L 336.053706 268.230386 
" style="fill:none;stroke:#000000;stroke-width:1.5;"/>
    <path clip-path="url(#pecdce1e58b)" d="M 340.215944 264.696835 
L 340.215944 260.273586 
" style="fill:none;stroke:#000000;stroke-width:1.5;"/>
    <path clip-path="url(#pecdce1e58b)" d="M 344.378182 262.404036 
L 344.378182 257.394565 
" style="fill:none;stroke:#000000;stroke-width:1.5;"/>
    <path clip-path="url(#pecdce1e58b)" d="M 348.54042 263.869384 
L 348.54042 258.422393 
" style="fill:none;stroke:#000000;stroke-width:1.5;"/>
    <path clip-path="url(#pecdce1e58b)" d="M 352.702657 220.096573 
L 352.702657 216.000532 
" style="fill:none;stroke:#000000;stroke-width:1.5;"/>
    <path clip-path="url(#pecdce1e58b)" d="M 356.864895 225.2579 
L 356.864895 220.499838 
" style="fill:none;stroke:#000000;stroke-width:1.5;"/>
    <path clip-path="url(#pecdce1e58b)" d="M 361.027133 176.544 
L 361.027133 176.544 
" style="fill:none;stroke:#000000;stroke-width:1.5;"/>
    <path clip-path="url(#pecdce1e58b)" d="M 365.189371 176.544 
L 365.189371 176.544 
" style="fill:none;stroke:#000000;stroke-width:1.5;"/>
    <path clip-path="url(#pecdce1e58b)" d="M 369.351608 176.544 
L 369.351608 176.544 
" style="fill:none;stroke:#000000;stroke-width:1.5;"/>
    <path clip-path="url(#pecdce1e58b)" d="M 373.513846 213.02153 
L 373.513846 208.580588 
" style="fill:none;stroke:#000000;stroke-width:1.5;"/>
    <path clip-path="url(#pecdce1e58b)" d="M 377.676084 176.544 
L 377.676084 176.544 
" style="fill:none;stroke:#000000;stroke-width:1.5;"/>
    <path clip-path="url(#pecdce1e58b)" d="M 381.838322 176.544 
L 381.838322 176.544 
" style="fill:none;stroke:#000000;stroke-width:1.5;"/>
    <path clip-path="url(#pecdce1e58b)" d="M 386.000559 176.544 
L 386.000559 176.544 
" style="fill:none;stroke:#000000;stroke-width:1.5;"/>
    <path clip-path="url(#pecdce1e58b)" d="M 390.162797 176.544 
L 390.162797 176.544 
" style="fill:none;stroke:#000000;stroke-width:1.5;"/>
    <path clip-path="url(#pecdce1e58b)" d="M 394.325035 176.544 
L 394.325035 176.544 
" style="fill:none;stroke:#000000;stroke-width:1.5;"/>
    <path clip-path="url(#pecdce1e58b)" d="M 398.487273 176.544 
L 398.487273 176.544 
" style="fill:none;stroke:#000000;stroke-width:1.5;"/>
   </g>
   <g id="line2d_49">
    <path clip-path="url(#pecdce1e58b)" d="M 57.6 277.344 
L 414.72 277.344 
" style="fill:none;stroke:#000000;stroke-dasharray:5.55,2.4;stroke-dashoffset:0;stroke-width:1.5;"/>
   </g>
   <g id="line2d_50">
    <path clip-path="url(#pecdce1e58b)" d="M 73.832727 271.583894 
L 77.994965 271.495738 
L 82.157203 271.524308 
L 86.319441 271.666389 
L 90.481678 271.918768 
L 94.643916 272.27823 
L 98.806154 272.741562 
L 102.968392 273.305549 
L 107.130629 273.966978 
L 111.292867 274.722635 
L 115.455105 275.569306 
L 119.617343 276.469513 
L 123.77958 278.404895 
L 127.941818 279.209414 
L 132.104056 280.514831 
L 136.266294 282.009369 
L 140.428531 282.699461 
L 144.590769 282.564896 
L 148.753007 283.406878 
L 152.915245 283.756916 
L 157.077483 283.710129 
L 161.23972 283.361416 
L 165.401958 282.82643 
L 169.564196 282.224646 
L 173.726434 281.738439 
L 177.888671 281.520137 
L 182.050909 281.53561 
L 186.213147 281.223256 
L 190.375385 281.381927 
L 194.537622 282.405439 
L 198.69986 282.658204 
L 202.862098 283.763049 
L 207.024336 283.733212 
L 211.186573 283.792179 
L 215.348811 283.196367 
L 219.511049 282.869574 
L 223.673287 282.450284 
L 227.835524 281.299459 
L 231.997762 280.585034 
L 236.16 279.343149 
L 240.322238 278.196335 
L 244.484476 278.035464 
L 248.646713 276.748798 
L 252.808951 276.432251 
L 256.971189 276.206787 
L 261.133427 276.472718 
L 265.295664 276.069827 
L 269.457902 276.115992 
L 273.62014 277.35426 
L 277.782378 279.07919 
L 281.944615 279.976879 
L 286.106853 280.408899 
L 290.269091 279.376801 
L 294.431329 280.166101 
L 298.593566 280.459046 
L 302.755804 280.616206 
L 306.918042 280.206829 
L 311.08028 281.641216 
L 315.242517 281.364881 
L 319.404755 282.06124 
L 323.566993 280.354454 
L 327.729231 276.449245 
L 331.891469 268.04087 
L 336.053706 262.193858 
L 340.215944 254.467539 
L 344.378182 245.696925 
L 348.54042 236.397498 
L 352.702657 227.372997 
L 356.864895 218.438479 
L 361.027133 207.694549 
L 365.189371 197.561488 
L 369.351608 188.435455 
L 373.513846 180.712607 
L 377.676084 174.789102 
L 381.838322 171.061099 
L 386.000559 169.924756 
L 390.162797 171.77623 
L 394.325035 177.011681 
L 398.487273 186.027266 
" style="fill:none;stroke:#000000;stroke-linecap:square;stroke-width:1.5;"/>
   </g>
   <g id="line2d_51">
    <defs>
     <path d="M -3 3 
L 3 -3 
M -3 -3 
L 3 3 
" id="m76445111c7" style="stroke:#000000;"/>
    </defs>
    <g clip-path="url(#pecdce1e58b)">
     <use style="stroke:#000000;" x="73.832727" xlink:href="#m76445111c7" y="267.603406"/>
     <use style="stroke:#000000;" x="77.994965" xlink:href="#m76445111c7" y="277.215335"/>
     <use style="stroke:#000000;" x="82.157203" xlink:href="#m76445111c7" y="264.477767"/>
     <use style="stroke:#000000;" x="86.319441" xlink:href="#m76445111c7" y="279.354493"/>
     <use style="stroke:#000000;" x="90.481678" xlink:href="#m76445111c7" y="278.025669"/>
     <use style="stroke:#000000;" x="94.643916" xlink:href="#m76445111c7" y="265.395314"/>
     <use style="stroke:#000000;" x="98.806154" xlink:href="#m76445111c7" y="265.179506"/>
     <use style="stroke:#000000;" x="102.968392" xlink:href="#m76445111c7" y="279.723245"/>
     <use style="stroke:#000000;" x="107.130629" xlink:href="#m76445111c7" y="276.713575"/>
     <use style="stroke:#000000;" x="111.292867" xlink:href="#m76445111c7" y="277.422098"/>
     <use style="stroke:#000000;" x="115.455105" xlink:href="#m76445111c7" y="271.589742"/>
     <use style="stroke:#000000;" x="119.617343" xlink:href="#m76445111c7" y="272.51609"/>
     <use style="stroke:#000000;" x="123.77958" xlink:href="#m76445111c7" y="274.194854"/>
     <use style="stroke:#000000;" x="127.941818" xlink:href="#m76445111c7" y="281.495538"/>
     <use style="stroke:#000000;" x="132.104056" xlink:href="#m76445111c7" y="277.876567"/>
     <use style="stroke:#000000;" x="136.266294" xlink:href="#m76445111c7" y="283.341277"/>
     <use style="stroke:#000000;" x="140.428531" xlink:href="#m76445111c7" y="285.344181"/>
     <use style="stroke:#000000;" x="144.590769" xlink:href="#m76445111c7" y="282.779021"/>
     <use style="stroke:#000000;" x="148.753007" xlink:href="#m76445111c7" y="290.44098"/>
     <use style="stroke:#000000;" x="152.915245" xlink:href="#m76445111c7" y="282.192911"/>
     <use style="stroke:#000000;" x="157.077483" xlink:href="#m76445111c7" y="287.876835"/>
     <use style="stroke:#000000;" x="161.23972" xlink:href="#m76445111c7" y="284.158712"/>
     <use style="stroke:#000000;" x="165.401958" xlink:href="#m76445111c7" y="278.592499"/>
     <use style="stroke:#000000;" x="169.564196" xlink:href="#m76445111c7" y="278.105092"/>
     <use style="stroke:#000000;" x="173.726434" xlink:href="#m76445111c7" y="284.080221"/>
     <use style="stroke:#000000;" x="177.888671" xlink:href="#m76445111c7" y="282.003806"/>
     <use style="stroke:#000000;" x="182.050909" xlink:href="#m76445111c7" y="277.136507"/>
     <use style="stroke:#000000;" x="186.213147" xlink:href="#m76445111c7" y="281.237529"/>
     <use style="stroke:#000000;" x="190.375385" xlink:href="#m76445111c7" y="278.386007"/>
     <use style="stroke:#000000;" x="194.537622" xlink:href="#m76445111c7" y="280.72996"/>
     <use style="stroke:#000000;" x="198.69986" xlink:href="#m76445111c7" y="286.730013"/>
     <use style="stroke:#000000;" x="202.862098" xlink:href="#m76445111c7" y="284.05019"/>
     <use style="stroke:#000000;" x="207.024336" xlink:href="#m76445111c7" y="284.254784"/>
     <use style="stroke:#000000;" x="211.186573" xlink:href="#m76445111c7" y="283.544507"/>
     <use style="stroke:#000000;" x="215.348811" xlink:href="#m76445111c7" y="288.693619"/>
     <use style="stroke:#000000;" x="219.511049" xlink:href="#m76445111c7" y="280.716739"/>
     <use style="stroke:#000000;" x="223.673287" xlink:href="#m76445111c7" y="280.725413"/>
     <use style="stroke:#000000;" x="227.835524" xlink:href="#m76445111c7" y="288.706901"/>
     <use style="stroke:#000000;" x="231.997762" xlink:href="#m76445111c7" y="280.958881"/>
     <use style="stroke:#000000;" x="236.16" xlink:href="#m76445111c7" y="276.446668"/>
     <use style="stroke:#000000;" x="240.322238" xlink:href="#m76445111c7" y="278.266403"/>
     <use style="stroke:#000000;" x="244.484476" xlink:href="#m76445111c7" y="269.824672"/>
     <use style="stroke:#000000;" x="248.646713" xlink:href="#m76445111c7" y="281.110961"/>
     <use style="stroke:#000000;" x="252.808951" xlink:href="#m76445111c7" y="272.352938"/>
     <use style="stroke:#000000;" x="256.971189" xlink:href="#m76445111c7" y="276.66346"/>
     <use style="stroke:#000000;" x="261.133427" xlink:href="#m76445111c7" y="277.310822"/>
     <use style="stroke:#000000;" x="265.295664" xlink:href="#m76445111c7" y="275.892165"/>
     <use style="stroke:#000000;" x="269.457902" xlink:href="#m76445111c7" y="279.611927"/>
     <use style="stroke:#000000;" x="273.62014" xlink:href="#m76445111c7" y="276.06441"/>
     <use style="stroke:#000000;" x="277.782378" xlink:href="#m76445111c7" y="279.18001"/>
     <use style="stroke:#000000;" x="281.944615" xlink:href="#m76445111c7" y="279.660634"/>
     <use style="stroke:#000000;" x="286.106853" xlink:href="#m76445111c7" y="271.902534"/>
     <use style="stroke:#000000;" x="290.269091" xlink:href="#m76445111c7" y="287.699065"/>
     <use style="stroke:#000000;" x="294.431329" xlink:href="#m76445111c7" y="278.498326"/>
     <use style="stroke:#000000;" x="298.593566" xlink:href="#m76445111c7" y="278.358584"/>
     <use style="stroke:#000000;" x="302.755804" xlink:href="#m76445111c7" y="280.296314"/>
     <use style="stroke:#000000;" x="306.918042" xlink:href="#m76445111c7" y="286.645852"/>
     <use style="stroke:#000000;" x="311.08028" xlink:href="#m76445111c7" y="284.5408"/>
     <use style="stroke:#000000;" x="315.242517" xlink:href="#m76445111c7" y="280.501466"/>
     <use style="stroke:#000000;" x="319.404755" xlink:href="#m76445111c7" y="266.594217"/>
     <use style="stroke:#000000;" x="323.566993" xlink:href="#m76445111c7" y="268.956848"/>
     <use style="stroke:#000000;" x="327.729231" xlink:href="#m76445111c7" y="274.189444"/>
     <use style="stroke:#000000;" x="331.891469" xlink:href="#m76445111c7" y="285.289614"/>
     <use style="stroke:#000000;" x="336.053706" xlink:href="#m76445111c7" y="270.185273"/>
     <use style="stroke:#000000;" x="340.215944" xlink:href="#m76445111c7" y="262.48521"/>
     <use style="stroke:#000000;" x="344.378182" xlink:href="#m76445111c7" y="259.8993"/>
     <use style="stroke:#000000;" x="348.54042" xlink:href="#m76445111c7" y="261.145888"/>
     <use style="stroke:#000000;" x="352.702657" xlink:href="#m76445111c7" y="218.048553"/>
     <use style="stroke:#000000;" x="356.864895" xlink:href="#m76445111c7" y="222.878869"/>
     <use style="stroke:#000000;" x="361.027133" xlink:href="#m76445111c7" y="176.544"/>
     <use style="stroke:#000000;" x="365.189371" xlink:href="#m76445111c7" y="176.544"/>
     <use style="stroke:#000000;" x="369.351608" xlink:href="#m76445111c7" y="176.544"/>
     <use style="stroke:#000000;" x="373.513846" xlink:href="#m76445111c7" y="210.801059"/>
     <use style="stroke:#000000;" x="377.676084" xlink:href="#m76445111c7" y="176.544"/>
     <use style="stroke:#000000;" x="381.838322" xlink:href="#m76445111c7" y="176.544"/>
     <use style="stroke:#000000;" x="386.000559" xlink:href="#m76445111c7" y="176.544"/>
     <use style="stroke:#000000;" x="390.162797" xlink:href="#m76445111c7" y="176.544"/>
     <use style="stroke:#000000;" x="394.325035" xlink:href="#m76445111c7" y="176.544"/>
     <use style="stroke:#000000;" x="398.487273" xlink:href="#m76445111c7" y="176.544"/>
    </g>
   </g>
   <g id="patch_9">
    <path d="M 57.6 307.584 
L 57.6 247.104 
" style="fill:none;stroke:#000000;stroke-linecap:square;stroke-linejoin:miter;stroke-width:0.8;"/>
   </g>
   <g id="patch_10">
    <path d="M 414.72 307.584 
L 414.72 247.104 
" style="fill:none;stroke:#000000;stroke-linecap:square;stroke-linejoin:miter;stroke-width:0.8;"/>
   </g>
   <g id="patch_11">
    <path d="M 57.6 307.584 
L 414.72 307.584 
" style="fill:none;stroke:#000000;stroke-linecap:square;stroke-linejoin:miter;stroke-width:0.8;"/>
   </g>
   <g id="patch_12">
    <path d="M 57.6 247.104 
L 414.72 247.104 
" style="fill:none;stroke:#000000;stroke-linecap:square;stroke-linejoin:miter;stroke-width:0.8;"/>
   </g>
  </g>
 </g>
 <defs>
  <clipPath id="pac882d9c86">
   <rect height="181.44" width="357.12" x="57.6" y="41.472"/>
  </clipPath>
  <clipPath id="pecdce1e58b">
   <rect height="60.48" width="357.12" x="57.6" y="247.104"/>
  </clipPath>
 </defs>
</svg>
