<?xml version="1.0" encoding="utf-8" standalone="no"?>
<!DOCTYPE svg PUBLIC "-//W3C//DTD SVG 1.1//EN"
  "http://www.w3.org/Graphics/SVG/1.1/DTD/svg11.dtd">
<!-- Created with matplotlib (http://matplotlib.org/) -->
<svg height="345.6pt" version="1.1" viewBox="0 0 460.8 345.6" width="460.8pt" xmlns="http://www.w3.org/2000/svg" xmlns:xlink="http://www.w3.org/1999/xlink">
 <defs>
  <style type="text/css">
*{stroke-linecap:butt;stroke-linejoin:round;}
  </style>
 </defs>
 <g id="figure_1">
  <g id="patch_1">
   <path d="M 0 345.6 
L 460.8 345.6 
L 460.8 0 
L 0 0 
z
" style="fill:#ffffff;"/>
  </g>
  <g id="axes_1">
   <g id="patch_2">
    <path d="M 57.6 222.912 
L 414.72 222.912 
L 414.72 41.472 
L 57.6 41.472 
z
" style="fill:#ffffff;"/>
   </g>
   <g id="matplotlib.axis_1">
    <g id="xtick_1">
     <g id="line2d_1">
      <defs>
       <path d="M 0 0 
L 0 3.5 
" id="mbd28ddd8fe" style="stroke:#000000;stroke-width:0.8;"/>
      </defs>
      <g>
       <use style="stroke:#000000;stroke-width:0.8;" x="73.832727" xlink:href="#mbd28ddd8fe" y="222.912"/>
      </g>
     </g>
     <g id="text_1">
      <!-- 35.0 -->
      <defs>
       <path d="M 40.578125 39.3125 
Q 47.65625 37.796875 51.625 33 
Q 55.609375 28.21875 55.609375 21.1875 
Q 55.609375 10.40625 48.1875 4.484375 
Q 40.765625 -1.421875 27.09375 -1.421875 
Q 22.515625 -1.421875 17.65625 -0.515625 
Q 12.796875 0.390625 7.625 2.203125 
L 7.625 11.71875 
Q 11.71875 9.328125 16.59375 8.109375 
Q 21.484375 6.890625 26.8125 6.890625 
Q 36.078125 6.890625 40.9375 10.546875 
Q 45.796875 14.203125 45.796875 21.1875 
Q 45.796875 27.640625 41.28125 31.265625 
Q 36.765625 34.90625 28.71875 34.90625 
L 20.21875 34.90625 
L 20.21875 43.015625 
L 29.109375 43.015625 
Q 36.375 43.015625 40.234375 45.921875 
Q 44.09375 48.828125 44.09375 54.296875 
Q 44.09375 59.90625 40.109375 62.90625 
Q 36.140625 65.921875 28.71875 65.921875 
Q 24.65625 65.921875 20.015625 65.03125 
Q 15.375 64.15625 9.8125 62.3125 
L 9.8125 71.09375 
Q 15.4375 72.65625 20.34375 73.4375 
Q 25.25 74.21875 29.59375 74.21875 
Q 40.828125 74.21875 47.359375 69.109375 
Q 53.90625 64.015625 53.90625 55.328125 
Q 53.90625 49.265625 50.4375 45.09375 
Q 46.96875 40.921875 40.578125 39.3125 
z
" id="DejaVuSans-33"/>
       <path d="M 10.796875 72.90625 
L 49.515625 72.90625 
L 49.515625 64.59375 
L 19.828125 64.59375 
L 19.828125 46.734375 
Q 21.96875 47.46875 24.109375 47.828125 
Q 26.265625 48.1875 28.421875 48.1875 
Q 40.625 48.1875 47.75 41.5 
Q 54.890625 34.8125 54.890625 23.390625 
Q 54.890625 11.625 47.5625 5.09375 
Q 40.234375 -1.421875 26.90625 -1.421875 
Q 22.3125 -1.421875 17.546875 -0.640625 
Q 12.796875 0.140625 7.71875 1.703125 
L 7.71875 11.625 
Q 12.109375 9.234375 16.796875 8.0625 
Q 21.484375 6.890625 26.703125 6.890625 
Q 35.15625 6.890625 40.078125 11.328125 
Q 45.015625 15.765625 45.015625 23.390625 
Q 45.015625 31 40.078125 35.4375 
Q 35.15625 39.890625 26.703125 39.890625 
Q 22.75 39.890625 18.8125 39.015625 
Q 14.890625 38.140625 10.796875 36.28125 
z
" id="DejaVuSans-35"/>
       <path d="M 10.6875 12.40625 
L 21 12.40625 
L 21 0 
L 10.6875 0 
z
" id="DejaVuSans-2e"/>
       <path d="M 31.78125 66.40625 
Q 24.171875 66.40625 20.328125 58.90625 
Q 16.5 51.421875 16.5 36.375 
Q 16.5 21.390625 20.328125 13.890625 
Q 24.171875 6.390625 31.78125 6.390625 
Q 39.453125 6.390625 43.28125 13.890625 
Q 47.125 21.390625 47.125 36.375 
Q 47.125 51.421875 43.28125 58.90625 
Q 39.453125 66.40625 31.78125 66.40625 
z
M 31.78125 74.21875 
Q 44.046875 74.21875 50.515625 64.515625 
Q 56.984375 54.828125 56.984375 36.375 
Q 56.984375 17.96875 50.515625 8.265625 
Q 44.046875 -1.421875 31.78125 -1.421875 
Q 19.53125 -1.421875 13.0625 8.265625 
Q 6.59375 17.96875 6.59375 36.375 
Q 6.59375 54.828125 13.0625 64.515625 
Q 19.53125 74.21875 31.78125 74.21875 
z
" id="DejaVuSans-30"/>
      </defs>
      <g transform="translate(62.699915 237.510437)scale(0.1 -0.1)">
       <use xlink:href="#DejaVuSans-33"/>
       <use x="63.623047" xlink:href="#DejaVuSans-35"/>
       <use x="127.246094" xlink:href="#DejaVuSans-2e"/>
       <use x="159.033203" xlink:href="#DejaVuSans-30"/>
      </g>
     </g>
    </g>
    <g id="xtick_2">
     <g id="line2d_2">
      <g>
       <use style="stroke:#000000;stroke-width:0.8;" x="114.934825" xlink:href="#mbd28ddd8fe" y="222.912"/>
      </g>
     </g>
     <g id="text_2">
      <!-- 37.5 -->
      <defs>
       <path d="M 8.203125 72.90625 
L 55.078125 72.90625 
L 55.078125 68.703125 
L 28.609375 0 
L 18.3125 0 
L 43.21875 64.59375 
L 8.203125 64.59375 
z
" id="DejaVuSans-37"/>
      </defs>
      <g transform="translate(103.802013 237.510437)scale(0.1 -0.1)">
       <use xlink:href="#DejaVuSans-33"/>
       <use x="63.623047" xlink:href="#DejaVuSans-37"/>
       <use x="127.246094" xlink:href="#DejaVuSans-2e"/>
       <use x="159.033203" xlink:href="#DejaVuSans-35"/>
      </g>
     </g>
    </g>
    <g id="xtick_3">
     <g id="line2d_3">
      <g>
       <use style="stroke:#000000;stroke-width:0.8;" x="156.036923" xlink:href="#mbd28ddd8fe" y="222.912"/>
      </g>
     </g>
     <g id="text_3">
      <!-- 40.0 -->
      <defs>
       <path d="M 37.796875 64.3125 
L 12.890625 25.390625 
L 37.796875 25.390625 
z
M 35.203125 72.90625 
L 47.609375 72.90625 
L 47.609375 25.390625 
L 58.015625 25.390625 
L 58.015625 17.1875 
L 47.609375 17.1875 
L 47.609375 0 
L 37.796875 0 
L 37.796875 17.1875 
L 4.890625 17.1875 
L 4.890625 26.703125 
z
" id="DejaVuSans-34"/>
      </defs>
      <g transform="translate(144.904111 237.510437)scale(0.1 -0.1)">
       <use xlink:href="#DejaVuSans-34"/>
       <use x="63.623047" xlink:href="#DejaVuSans-30"/>
       <use x="127.246094" xlink:href="#DejaVuSans-2e"/>
       <use x="159.033203" xlink:href="#DejaVuSans-30"/>
      </g>
     </g>
    </g>
    <g id="xtick_4">
     <g id="line2d_4">
      <g>
       <use style="stroke:#000000;stroke-width:0.8;" x="197.139021" xlink:href="#mbd28ddd8fe" y="222.912"/>
      </g>
     </g>
     <g id="text_4">
      <!-- 42.5 -->
      <defs>
       <path d="M 19.1875 8.296875 
L 53.609375 8.296875 
L 53.609375 0 
L 7.328125 0 
L 7.328125 8.296875 
Q 12.9375 14.109375 22.625 23.890625 
Q 32.328125 33.6875 34.8125 36.53125 
Q 39.546875 41.84375 41.421875 45.53125 
Q 43.3125 49.21875 43.3125 52.78125 
Q 43.3125 58.59375 39.234375 62.25 
Q 35.15625 65.921875 28.609375 65.921875 
Q 23.96875 65.921875 18.8125 64.3125 
Q 13.671875 62.703125 7.8125 59.421875 
L 7.8125 69.390625 
Q 13.765625 71.78125 18.9375 73 
Q 24.125 74.21875 28.421875 74.21875 
Q 39.75 74.21875 46.484375 68.546875 
Q 53.21875 62.890625 53.21875 53.421875 
Q 53.21875 48.921875 51.53125 44.890625 
Q 49.859375 40.875 45.40625 35.40625 
Q 44.1875 33.984375 37.640625 27.21875 
Q 31.109375 20.453125 19.1875 8.296875 
z
" id="DejaVuSans-32"/>
      </defs>
      <g transform="translate(186.006208 237.510437)scale(0.1 -0.1)">
       <use xlink:href="#DejaVuSans-34"/>
       <use x="63.623047" xlink:href="#DejaVuSans-32"/>
       <use x="127.246094" xlink:href="#DejaVuSans-2e"/>
       <use x="159.033203" xlink:href="#DejaVuSans-35"/>
      </g>
     </g>
    </g>
    <g id="xtick_5">
     <g id="line2d_5">
      <g>
       <use style="stroke:#000000;stroke-width:0.8;" x="238.241119" xlink:href="#mbd28ddd8fe" y="222.912"/>
      </g>
     </g>
     <g id="text_5">
      <!-- 45.0 -->
      <g transform="translate(227.108306 237.510437)scale(0.1 -0.1)">
       <use xlink:href="#DejaVuSans-34"/>
       <use x="63.623047" xlink:href="#DejaVuSans-35"/>
       <use x="127.246094" xlink:href="#DejaVuSans-2e"/>
       <use x="159.033203" xlink:href="#DejaVuSans-30"/>
      </g>
     </g>
    </g>
    <g id="xtick_6">
     <g id="line2d_6">
      <g>
       <use style="stroke:#000000;stroke-width:0.8;" x="279.343217" xlink:href="#mbd28ddd8fe" y="222.912"/>
      </g>
     </g>
     <g id="text_6">
      <!-- 47.5 -->
      <g transform="translate(268.210404 237.510437)scale(0.1 -0.1)">
       <use xlink:href="#DejaVuSans-34"/>
       <use x="63.623047" xlink:href="#DejaVuSans-37"/>
       <use x="127.246094" xlink:href="#DejaVuSans-2e"/>
       <use x="159.033203" xlink:href="#DejaVuSans-35"/>
      </g>
     </g>
    </g>
    <g id="xtick_7">
     <g id="line2d_7">
      <g>
       <use style="stroke:#000000;stroke-width:0.8;" x="320.445315" xlink:href="#mbd28ddd8fe" y="222.912"/>
      </g>
     </g>
     <g id="text_7">
      <!-- 50.0 -->
      <g transform="translate(309.312502 237.510437)scale(0.1 -0.1)">
       <use xlink:href="#DejaVuSans-35"/>
       <use x="63.623047" xlink:href="#DejaVuSans-30"/>
       <use x="127.246094" xlink:href="#DejaVuSans-2e"/>
       <use x="159.033203" xlink:href="#DejaVuSans-30"/>
      </g>
     </g>
    </g>
    <g id="xtick_8">
     <g id="line2d_8">
      <g>
       <use style="stroke:#000000;stroke-width:0.8;" x="361.547413" xlink:href="#mbd28ddd8fe" y="222.912"/>
      </g>
     </g>
     <g id="text_8">
      <!-- 52.5 -->
      <g transform="translate(350.4146 237.510437)scale(0.1 -0.1)">
       <use xlink:href="#DejaVuSans-35"/>
       <use x="63.623047" xlink:href="#DejaVuSans-32"/>
       <use x="127.246094" xlink:href="#DejaVuSans-2e"/>
       <use x="159.033203" xlink:href="#DejaVuSans-35"/>
      </g>
     </g>
    </g>
    <g id="xtick_9">
     <g id="line2d_9">
      <g>
       <use style="stroke:#000000;stroke-width:0.8;" x="402.64951" xlink:href="#mbd28ddd8fe" y="222.912"/>
      </g>
     </g>
     <g id="text_9">
      <!-- 55.0 -->
      <g transform="translate(391.516698 237.510437)scale(0.1 -0.1)">
       <use xlink:href="#DejaVuSans-35"/>
       <use x="63.623047" xlink:href="#DejaVuSans-35"/>
       <use x="127.246094" xlink:href="#DejaVuSans-2e"/>
       <use x="159.033203" xlink:href="#DejaVuSans-30"/>
      </g>
     </g>
    </g>
   </g>
   <g id="matplotlib.axis_2">
    <g id="ytick_1">
     <g id="line2d_10">
      <defs>
       <path d="M 0 0 
L -3.5 0 
" id="m58b35734f6" style="stroke:#000000;stroke-width:0.8;"/>
      </defs>
      <g>
       <use style="stroke:#000000;stroke-width:0.8;" x="57.6" xlink:href="#m58b35734f6" y="214.664727"/>
      </g>
     </g>
     <g id="text_10">
      <!-- 0 -->
      <g transform="translate(44.2375 218.463946)scale(0.1 -0.1)">
       <use xlink:href="#DejaVuSans-30"/>
      </g>
     </g>
    </g>
    <g id="ytick_2">
     <g id="line2d_11">
      <g>
       <use style="stroke:#000000;stroke-width:0.8;" x="57.6" xlink:href="#m58b35734f6" y="194.479518"/>
      </g>
     </g>
     <g id="text_11">
      <!-- 5000 -->
      <g transform="translate(25.15 198.278737)scale(0.1 -0.1)">
       <use xlink:href="#DejaVuSans-35"/>
       <use x="63.623047" xlink:href="#DejaVuSans-30"/>
       <use x="127.246094" xlink:href="#DejaVuSans-30"/>
       <use x="190.869141" xlink:href="#DejaVuSans-30"/>
      </g>
     </g>
    </g>
    <g id="ytick_3">
     <g id="line2d_12">
      <g>
       <use style="stroke:#000000;stroke-width:0.8;" x="57.6" xlink:href="#m58b35734f6" y="174.294309"/>
      </g>
     </g>
     <g id="text_12">
      <!-- 10000 -->
      <defs>
       <path d="M 12.40625 8.296875 
L 28.515625 8.296875 
L 28.515625 63.921875 
L 10.984375 60.40625 
L 10.984375 69.390625 
L 28.421875 72.90625 
L 38.28125 72.90625 
L 38.28125 8.296875 
L 54.390625 8.296875 
L 54.390625 0 
L 12.40625 0 
z
" id="DejaVuSans-31"/>
      </defs>
      <g transform="translate(18.7875 178.093528)scale(0.1 -0.1)">
       <use xlink:href="#DejaVuSans-31"/>
       <use x="63.623047" xlink:href="#DejaVuSans-30"/>
       <use x="127.246094" xlink:href="#DejaVuSans-30"/>
       <use x="190.869141" xlink:href="#DejaVuSans-30"/>
       <use x="254.492188" xlink:href="#DejaVuSans-30"/>
      </g>
     </g>
    </g>
    <g id="ytick_4">
     <g id="line2d_13">
      <g>
       <use style="stroke:#000000;stroke-width:0.8;" x="57.6" xlink:href="#m58b35734f6" y="154.1091"/>
      </g>
     </g>
     <g id="text_13">
      <!-- 15000 -->
      <g transform="translate(18.7875 157.908319)scale(0.1 -0.1)">
       <use xlink:href="#DejaVuSans-31"/>
       <use x="63.623047" xlink:href="#DejaVuSans-35"/>
       <use x="127.246094" xlink:href="#DejaVuSans-30"/>
       <use x="190.869141" xlink:href="#DejaVuSans-30"/>
       <use x="254.492188" xlink:href="#DejaVuSans-30"/>
      </g>
     </g>
    </g>
    <g id="ytick_5">
     <g id="line2d_14">
      <g>
       <use style="stroke:#000000;stroke-width:0.8;" x="57.6" xlink:href="#m58b35734f6" y="133.923891"/>
      </g>
     </g>
     <g id="text_14">
      <!-- 20000 -->
      <g transform="translate(18.7875 137.72311)scale(0.1 -0.1)">
       <use xlink:href="#DejaVuSans-32"/>
       <use x="63.623047" xlink:href="#DejaVuSans-30"/>
       <use x="127.246094" xlink:href="#DejaVuSans-30"/>
       <use x="190.869141" xlink:href="#DejaVuSans-30"/>
       <use x="254.492188" xlink:href="#DejaVuSans-30"/>
      </g>
     </g>
    </g>
    <g id="ytick_6">
     <g id="line2d_15">
      <g>
       <use style="stroke:#000000;stroke-width:0.8;" x="57.6" xlink:href="#m58b35734f6" y="113.738682"/>
      </g>
     </g>
     <g id="text_15">
      <!-- 25000 -->
      <g transform="translate(18.7875 117.537901)scale(0.1 -0.1)">
       <use xlink:href="#DejaVuSans-32"/>
       <use x="63.623047" xlink:href="#DejaVuSans-35"/>
       <use x="127.246094" xlink:href="#DejaVuSans-30"/>
       <use x="190.869141" xlink:href="#DejaVuSans-30"/>
       <use x="254.492188" xlink:href="#DejaVuSans-30"/>
      </g>
     </g>
    </g>
    <g id="ytick_7">
     <g id="line2d_16">
      <g>
       <use style="stroke:#000000;stroke-width:0.8;" x="57.6" xlink:href="#m58b35734f6" y="93.553473"/>
      </g>
     </g>
     <g id="text_16">
      <!-- 30000 -->
      <g transform="translate(18.7875 97.352692)scale(0.1 -0.1)">
       <use xlink:href="#DejaVuSans-33"/>
       <use x="63.623047" xlink:href="#DejaVuSans-30"/>
       <use x="127.246094" xlink:href="#DejaVuSans-30"/>
       <use x="190.869141" xlink:href="#DejaVuSans-30"/>
       <use x="254.492188" xlink:href="#DejaVuSans-30"/>
      </g>
     </g>
    </g>
    <g id="ytick_8">
     <g id="line2d_17">
      <g>
       <use style="stroke:#000000;stroke-width:0.8;" x="57.6" xlink:href="#m58b35734f6" y="73.368264"/>
      </g>
     </g>
     <g id="text_17">
      <!-- 35000 -->
      <g transform="translate(18.7875 77.167482)scale(0.1 -0.1)">
       <use xlink:href="#DejaVuSans-33"/>
       <use x="63.623047" xlink:href="#DejaVuSans-35"/>
       <use x="127.246094" xlink:href="#DejaVuSans-30"/>
       <use x="190.869141" xlink:href="#DejaVuSans-30"/>
       <use x="254.492188" xlink:href="#DejaVuSans-30"/>
      </g>
     </g>
    </g>
    <g id="ytick_9">
     <g id="line2d_18">
      <g>
       <use style="stroke:#000000;stroke-width:0.8;" x="57.6" xlink:href="#m58b35734f6" y="53.183055"/>
      </g>
     </g>
     <g id="text_18">
      <!-- 40000 -->
      <g transform="translate(18.7875 56.982273)scale(0.1 -0.1)">
       <use xlink:href="#DejaVuSans-34"/>
       <use x="63.623047" xlink:href="#DejaVuSans-30"/>
       <use x="127.246094" xlink:href="#DejaVuSans-30"/>
       <use x="190.869141" xlink:href="#DejaVuSans-30"/>
       <use x="254.492188" xlink:href="#DejaVuSans-30"/>
      </g>
     </g>
    </g>
   </g>
   <g id="line2d_19">
    <path clip-path="url(#pf962e72752)" d="M 73.832727 191.136848 
L 77.994965 191.136848 
L 77.994965 192.380256 
L 82.157203 192.380256 
L 82.157203 189.08603 
L 86.319441 189.08603 
L 86.319441 191.09244 
L 90.481678 191.09244 
L 90.481678 189.392846 
L 94.643916 189.392846 
L 94.643916 186.114768 
L 102.968392 186.163212 
L 102.968392 188.161548 
L 107.130629 188.161548 
L 107.130629 185.432507 
L 111.292867 185.432507 
L 111.292867 185.299285 
L 115.455105 185.299285 
L 115.455105 186.554805 
L 119.617343 186.554805 
L 119.617343 184.532247 
L 123.77958 184.532247 
L 123.77958 184.366728 
L 127.941818 184.366728 
L 127.941818 186.20762 
L 132.104056 186.20762 
L 132.104056 183.551246 
L 136.266294 183.551246 
L 136.266294 180.616317 
L 140.428531 180.616317 
L 140.428531 180.099575 
L 144.590769 180.099575 
L 144.590769 172.203121 
L 148.753007 172.203121 
L 148.753007 168.222598 
L 152.915245 168.222598 
L 152.915245 153.241136 
L 157.077483 153.241136 
L 157.077483 150.818911 
L 161.23972 150.818911 
L 161.23972 130.149257 
L 165.401958 130.149257 
L 165.401958 107.83249 
L 169.564196 107.83249 
L 169.564196 93.710917 
L 173.726434 93.710917 
L 173.726434 92.435212 
L 177.888671 92.435212 
L 177.888671 67.01396 
L 182.050909 67.01396 
L 182.050909 49.719273 
L 186.213147 49.719273 
L 186.213147 61.987843 
L 190.375385 61.987843 
L 190.375385 56.679133 
L 194.537622 56.679133 
L 194.537622 61.834435 
L 198.69986 61.834435 
L 198.69986 89.177319 
L 202.862098 89.177319 
L 202.862098 100.428555 
L 207.024336 100.428555 
L 207.024336 121.804691 
L 211.186573 121.804691 
L 211.186573 135.219781 
L 215.348811 135.219781 
L 215.348811 160.721775 
L 219.511049 160.721775 
L 219.511049 172.707752 
L 223.673287 172.707752 
L 223.673287 180.192427 
L 227.835524 180.192427 
L 227.835524 193.482369 
L 231.997762 193.482369 
L 231.997762 197.886781 
L 236.16 197.886781 
L 236.16 202.109527 
L 240.322238 202.109527 
L 240.322238 203.619381 
L 244.484476 203.619381 
L 244.484476 203.962529 
L 248.646713 203.962529 
L 248.646713 204.854716 
L 252.808951 204.854716 
L 252.808951 201.944009 
L 256.971189 201.944009 
L 256.971189 200.514896 
L 261.133427 200.514896 
L 261.133427 198.932375 
L 265.295664 198.932375 
L 265.295664 195.274815 
L 269.457902 195.274815 
L 269.457902 192.896998 
L 273.62014 192.896998 
L 273.62014 190.753329 
L 281.944615 190.749292 
L 281.944615 186.445805 
L 286.106853 186.445805 
L 286.106853 186.276249 
L 290.269091 186.276249 
L 290.269091 191.395218 
L 298.593566 191.350811 
L 298.593566 192.614405 
L 302.755804 192.614405 
L 302.755804 196.130668 
L 306.918042 196.130668 
L 306.918042 198.896042 
L 311.08028 198.896042 
L 311.08028 201.508008 
L 315.242517 201.508008 
L 315.242517 205.117123 
L 319.404755 205.117123 
L 319.404755 206.102162 
L 323.566993 206.102162 
L 323.566993 208.419424 
L 327.729231 208.419424 
L 327.729231 210.191685 
L 331.891469 210.191685 
L 331.891469 211.192871 
L 336.053706 211.192871 
L 336.053706 212.008354 
L 340.215944 212.008354 
L 340.215944 212.658317 
L 344.378182 212.658317 
L 344.378182 213.126614 
L 348.54042 213.126614 
L 348.54042 213.352689 
L 352.702657 213.352689 
L 352.702657 213.619133 
L 356.864895 213.619133 
L 356.864895 213.756393 
L 365.189371 213.833097 
L 365.189371 213.954208 
L 377.676084 214.002652 
L 377.676084 214.079356 
L 394.325035 214.152023 
L 394.325035 214.192393 
L 398.487273 214.192393 
L 398.487273 214.143949 
" style="fill:none;stroke:#1f77b4;stroke-linecap:square;stroke-width:1.5;"/>
   </g>
   <g id="line2d_20">
    <path clip-path="url(#pf962e72752)" d="M 73.832727 194.313498 
L 77.994965 194.313498 
L 77.994965 193.559749 
L 82.157203 193.559749 
L 82.157203 193.434124 
L 86.319441 193.434124 
L 86.319441 191.172877 
L 90.481678 191.172877 
L 90.481678 194.815998 
L 94.643916 194.815998 
L 94.643916 193.434124 
L 98.806154 193.434124 
L 98.806154 190.293502 
L 102.968392 190.293502 
L 102.968392 191.047252 
L 107.130629 191.047252 
L 107.130629 187.781005 
L 111.292867 187.781005 
L 111.292867 189.037254 
L 115.455105 189.037254 
L 115.455105 187.152881 
L 119.617343 187.152881 
L 119.617343 186.147882 
L 123.77958 186.147882 
L 123.77958 189.414128 
L 127.941818 189.414128 
L 127.941818 185.519757 
L 132.104056 185.519757 
L 132.104056 180.871637 
L 136.266294 180.871637 
L 136.266294 179.364139 
L 140.428531 179.364139 
L 140.428531 173.082895 
L 144.590769 173.082895 
L 144.590769 169.314149 
L 148.753007 169.314149 
L 148.753007 159.389784 
L 152.915245 159.389784 
L 152.915245 150.972918 
L 157.077483 150.972918 
L 157.077483 129.86794 
L 161.23972 129.86794 
L 161.23972 116.049204 
L 165.401958 116.049204 
L 165.401958 99.592346 
L 169.564196 99.592346 
L 169.564196 79.994866 
L 173.726434 79.994866 
L 173.726434 69.065503 
L 177.888671 69.065503 
L 177.888671 64.417383 
L 182.050909 64.417383 
L 182.050909 49.719273 
L 186.213147 49.719273 
L 186.213147 63.161134 
L 190.375385 63.161134 
L 190.375385 64.417383 
L 194.537622 64.417383 
L 194.537622 81.502365 
L 198.69986 81.502365 
L 198.69986 90.421731 
L 202.862098 90.421731 
L 202.862098 106.250464 
L 207.024336 106.250464 
L 207.024336 126.476068 
L 211.186573 126.476068 
L 211.186573 151.475418 
L 215.348811 151.475418 
L 215.348811 160.646033 
L 219.511049 160.646033 
L 219.511049 176.726016 
L 223.673287 176.726016 
L 223.673287 186.022257 
L 227.835524 186.022257 
L 227.835524 193.05725 
L 231.997762 193.05725 
L 231.997762 201.599741 
L 236.16 201.599741 
L 236.16 203.735364 
L 240.322238 203.735364 
L 240.322238 205.870986 
L 244.484476 205.870986 
L 244.484476 205.368487 
L 248.646713 205.368487 
L 248.646713 203.986613 
L 252.808951 203.986613 
L 252.808951 202.35349 
L 256.971189 202.35349 
L 256.971189 199.715368 
L 261.133427 199.715368 
L 261.133427 197.328495 
L 265.295664 197.328495 
L 265.295664 195.444122 
L 269.457902 195.444122 
L 269.457902 193.308499 
L 273.62014 193.308499 
L 273.62014 191.424126 
L 277.782378 191.424126 
L 277.782378 190.419127 
L 281.944615 190.419127 
L 281.944615 188.15788 
L 286.106853 188.15788 
L 286.106853 191.298501 
L 290.269091 191.298501 
L 290.269091 189.288503 
L 294.431329 189.288503 
L 294.431329 192.931625 
L 298.593566 192.931625 
L 298.593566 195.946622 
L 302.755804 195.946622 
L 302.755804 199.087243 
L 306.918042 199.087243 
L 306.918042 201.097241 
L 311.08028 201.097241 
L 311.08028 204.363488 
L 315.242517 204.363488 
L 315.242517 206.624736 
L 319.404755 206.624736 
L 319.404755 207.755359 
L 323.566993 207.755359 
L 323.566993 209.262858 
L 327.729231 209.262858 
L 327.729231 211.398481 
L 331.891469 211.398481 
L 331.891469 211.64973 
L 336.053706 211.64973 
L 336.053706 213.031604 
L 340.215944 213.031604 
L 340.215944 213.785353 
L 344.378182 213.785353 
L 344.378182 213.910978 
L 348.54042 213.910978 
L 348.54042 214.287853 
L 352.702657 214.287853 
L 352.702657 214.162228 
L 356.864895 214.162228 
L 356.864895 214.664727 
L 361.027133 214.664727 
L 361.027133 214.413478 
L 365.189371 214.413478 
L 365.189371 214.664727 
L 398.487273 214.664727 
L 398.487273 214.664727 
" style="fill:none;stroke:#2ca02c;stroke-linecap:square;stroke-width:1.5;"/>
   </g>
   <g id="patch_3">
    <path d="M 57.6 222.912 
L 57.6 41.472 
" style="fill:none;stroke:#000000;stroke-linecap:square;stroke-linejoin:miter;stroke-width:0.8;"/>
   </g>
   <g id="patch_4">
    <path d="M 414.72 222.912 
L 414.72 41.472 
" style="fill:none;stroke:#000000;stroke-linecap:square;stroke-linejoin:miter;stroke-width:0.8;"/>
   </g>
   <g id="patch_5">
    <path d="M 57.6 222.912 
L 414.72 222.912 
" style="fill:none;stroke:#000000;stroke-linecap:square;stroke-linejoin:miter;stroke-width:0.8;"/>
   </g>
   <g id="patch_6">
    <path d="M 57.6 41.472 
L 414.72 41.472 
" style="fill:none;stroke:#000000;stroke-linecap:square;stroke-linejoin:miter;stroke-width:0.8;"/>
   </g>
   <g id="legend_1">
    <g id="patch_7">
     <path d="M 351.843438 78.82825 
L 407.72 78.82825 
Q 409.72 78.82825 409.72 76.82825 
L 409.72 48.472 
Q 409.72 46.472 407.72 46.472 
L 351.843438 46.472 
Q 349.843438 46.472 349.843438 48.472 
L 349.843438 76.82825 
Q 349.843438 78.82825 351.843438 78.82825 
z
" style="fill:#ffffff;opacity:0.8;stroke:#cccccc;stroke-linejoin:miter;"/>
    </g>
    <g id="line2d_21">
     <path d="M 353.843438 54.570437 
L 373.843438 54.570437 
" style="fill:none;stroke:#1f77b4;stroke-linecap:square;stroke-width:1.5;"/>
    </g>
    <g id="line2d_22"/>
    <g id="text_19">
     <!-- Data -->
     <defs>
      <path d="M 19.671875 64.796875 
L 19.671875 8.109375 
L 31.59375 8.109375 
Q 46.6875 8.109375 53.6875 14.9375 
Q 60.6875 21.78125 60.6875 36.53125 
Q 60.6875 51.171875 53.6875 57.984375 
Q 46.6875 64.796875 31.59375 64.796875 
z
M 9.8125 72.90625 
L 30.078125 72.90625 
Q 51.265625 72.90625 61.171875 64.09375 
Q 71.09375 55.28125 71.09375 36.53125 
Q 71.09375 17.671875 61.125 8.828125 
Q 51.171875 0 30.078125 0 
L 9.8125 0 
z
" id="DejaVuSans-44"/>
      <path d="M 34.28125 27.484375 
Q 23.390625 27.484375 19.1875 25 
Q 14.984375 22.515625 14.984375 16.5 
Q 14.984375 11.71875 18.140625 8.90625 
Q 21.296875 6.109375 26.703125 6.109375 
Q 34.1875 6.109375 38.703125 11.40625 
Q 43.21875 16.703125 43.21875 25.484375 
L 43.21875 27.484375 
z
M 52.203125 31.203125 
L 52.203125 0 
L 43.21875 0 
L 43.21875 8.296875 
Q 40.140625 3.328125 35.546875 0.953125 
Q 30.953125 -1.421875 24.3125 -1.421875 
Q 15.921875 -1.421875 10.953125 3.296875 
Q 6 8.015625 6 15.921875 
Q 6 25.140625 12.171875 29.828125 
Q 18.359375 34.515625 30.609375 34.515625 
L 43.21875 34.515625 
L 43.21875 35.40625 
Q 43.21875 41.609375 39.140625 45 
Q 35.0625 48.390625 27.6875 48.390625 
Q 23 48.390625 18.546875 47.265625 
Q 14.109375 46.140625 10.015625 43.890625 
L 10.015625 52.203125 
Q 14.9375 54.109375 19.578125 55.046875 
Q 24.21875 56 28.609375 56 
Q 40.484375 56 46.34375 49.84375 
Q 52.203125 43.703125 52.203125 31.203125 
z
" id="DejaVuSans-61"/>
      <path d="M 18.3125 70.21875 
L 18.3125 54.6875 
L 36.8125 54.6875 
L 36.8125 47.703125 
L 18.3125 47.703125 
L 18.3125 18.015625 
Q 18.3125 11.328125 20.140625 9.421875 
Q 21.96875 7.515625 27.59375 7.515625 
L 36.8125 7.515625 
L 36.8125 0 
L 27.59375 0 
Q 17.1875 0 13.234375 3.875 
Q 9.28125 7.765625 9.28125 18.015625 
L 9.28125 47.703125 
L 2.6875 47.703125 
L 2.6875 54.6875 
L 9.28125 54.6875 
L 9.28125 70.21875 
z
" id="DejaVuSans-74"/>
     </defs>
     <g transform="translate(381.843438 58.070437)scale(0.1 -0.1)">
      <use xlink:href="#DejaVuSans-44"/>
      <use x="77.001953" xlink:href="#DejaVuSans-61"/>
      <use x="138.28125" xlink:href="#DejaVuSans-74"/>
      <use x="177.490234" xlink:href="#DejaVuSans-61"/>
     </g>
    </g>
    <g id="line2d_23">
     <path d="M 353.843438 69.248562 
L 373.843438 69.248562 
" style="fill:none;stroke:#2ca02c;stroke-linecap:square;stroke-width:1.5;"/>
    </g>
    <g id="line2d_24"/>
    <g id="text_20">
     <!-- MC -->
     <defs>
      <path d="M 9.8125 72.90625 
L 24.515625 72.90625 
L 43.109375 23.296875 
L 61.8125 72.90625 
L 76.515625 72.90625 
L 76.515625 0 
L 66.890625 0 
L 66.890625 64.015625 
L 48.09375 14.015625 
L 38.1875 14.015625 
L 19.390625 64.015625 
L 19.390625 0 
L 9.8125 0 
z
" id="DejaVuSans-4d"/>
      <path d="M 64.40625 67.28125 
L 64.40625 56.890625 
Q 59.421875 61.53125 53.78125 63.8125 
Q 48.140625 66.109375 41.796875 66.109375 
Q 29.296875 66.109375 22.65625 58.46875 
Q 16.015625 50.828125 16.015625 36.375 
Q 16.015625 21.96875 22.65625 14.328125 
Q 29.296875 6.6875 41.796875 6.6875 
Q 48.140625 6.6875 53.78125 8.984375 
Q 59.421875 11.28125 64.40625 15.921875 
L 64.40625 5.609375 
Q 59.234375 2.09375 53.4375 0.328125 
Q 47.65625 -1.421875 41.21875 -1.421875 
Q 24.65625 -1.421875 15.125 8.703125 
Q 5.609375 18.84375 5.609375 36.375 
Q 5.609375 53.953125 15.125 64.078125 
Q 24.65625 74.21875 41.21875 74.21875 
Q 47.75 74.21875 53.53125 72.484375 
Q 59.328125 70.75 64.40625 67.28125 
z
" id="DejaVuSans-43"/>
     </defs>
     <g transform="translate(381.843438 72.748562)scale(0.1 -0.1)">
      <use xlink:href="#DejaVuSans-4d"/>
      <use x="86.279297" xlink:href="#DejaVuSans-43"/>
     </g>
    </g>
   </g>
  </g>
  <g id="axes_2">
   <g id="patch_8">
    <path d="M 57.6 307.584 
L 414.72 307.584 
L 414.72 247.104 
L 57.6 247.104 
z
" style="fill:#ffffff;"/>
   </g>
   <g id="matplotlib.axis_3">
    <g id="xtick_10">
     <g id="line2d_25">
      <path clip-path="url(#pe51ef06d14)" d="M 73.832727 307.584 
L 73.832727 247.104 
" style="fill:none;stroke:#b0b0b0;stroke-linecap:square;stroke-width:0.8;"/>
     </g>
     <g id="line2d_26">
      <g>
       <use style="stroke:#000000;stroke-width:0.8;" x="73.832727" xlink:href="#mbd28ddd8fe" y="307.584"/>
      </g>
     </g>
     <g id="text_21">
      <!-- 35.0 -->
      <g transform="translate(62.699915 322.182437)scale(0.1 -0.1)">
       <use xlink:href="#DejaVuSans-33"/>
       <use x="63.623047" xlink:href="#DejaVuSans-35"/>
       <use x="127.246094" xlink:href="#DejaVuSans-2e"/>
       <use x="159.033203" xlink:href="#DejaVuSans-30"/>
      </g>
     </g>
    </g>
    <g id="xtick_11">
     <g id="line2d_27">
      <path clip-path="url(#pe51ef06d14)" d="M 114.934825 307.584 
L 114.934825 247.104 
" style="fill:none;stroke:#b0b0b0;stroke-linecap:square;stroke-width:0.8;"/>
     </g>
     <g id="line2d_28">
      <g>
       <use style="stroke:#000000;stroke-width:0.8;" x="114.934825" xlink:href="#mbd28ddd8fe" y="307.584"/>
      </g>
     </g>
     <g id="text_22">
      <!-- 37.5 -->
      <g transform="translate(103.802013 322.182437)scale(0.1 -0.1)">
       <use xlink:href="#DejaVuSans-33"/>
       <use x="63.623047" xlink:href="#DejaVuSans-37"/>
       <use x="127.246094" xlink:href="#DejaVuSans-2e"/>
       <use x="159.033203" xlink:href="#DejaVuSans-35"/>
      </g>
     </g>
    </g>
    <g id="xtick_12">
     <g id="line2d_29">
      <path clip-path="url(#pe51ef06d14)" d="M 156.036923 307.584 
L 156.036923 247.104 
" style="fill:none;stroke:#b0b0b0;stroke-linecap:square;stroke-width:0.8;"/>
     </g>
     <g id="line2d_30">
      <g>
       <use style="stroke:#000000;stroke-width:0.8;" x="156.036923" xlink:href="#mbd28ddd8fe" y="307.584"/>
      </g>
     </g>
     <g id="text_23">
      <!-- 40.0 -->
      <g transform="translate(144.904111 322.182437)scale(0.1 -0.1)">
       <use xlink:href="#DejaVuSans-34"/>
       <use x="63.623047" xlink:href="#DejaVuSans-30"/>
       <use x="127.246094" xlink:href="#DejaVuSans-2e"/>
       <use x="159.033203" xlink:href="#DejaVuSans-30"/>
      </g>
     </g>
    </g>
    <g id="xtick_13">
     <g id="line2d_31">
      <path clip-path="url(#pe51ef06d14)" d="M 197.139021 307.584 
L 197.139021 247.104 
" style="fill:none;stroke:#b0b0b0;stroke-linecap:square;stroke-width:0.8;"/>
     </g>
     <g id="line2d_32">
      <g>
       <use style="stroke:#000000;stroke-width:0.8;" x="197.139021" xlink:href="#mbd28ddd8fe" y="307.584"/>
      </g>
     </g>
     <g id="text_24">
      <!-- 42.5 -->
      <g transform="translate(186.006208 322.182437)scale(0.1 -0.1)">
       <use xlink:href="#DejaVuSans-34"/>
       <use x="63.623047" xlink:href="#DejaVuSans-32"/>
       <use x="127.246094" xlink:href="#DejaVuSans-2e"/>
       <use x="159.033203" xlink:href="#DejaVuSans-35"/>
      </g>
     </g>
    </g>
    <g id="xtick_14">
     <g id="line2d_33">
      <path clip-path="url(#pe51ef06d14)" d="M 238.241119 307.584 
L 238.241119 247.104 
" style="fill:none;stroke:#b0b0b0;stroke-linecap:square;stroke-width:0.8;"/>
     </g>
     <g id="line2d_34">
      <g>
       <use style="stroke:#000000;stroke-width:0.8;" x="238.241119" xlink:href="#mbd28ddd8fe" y="307.584"/>
      </g>
     </g>
     <g id="text_25">
      <!-- 45.0 -->
      <g transform="translate(227.108306 322.182437)scale(0.1 -0.1)">
       <use xlink:href="#DejaVuSans-34"/>
       <use x="63.623047" xlink:href="#DejaVuSans-35"/>
       <use x="127.246094" xlink:href="#DejaVuSans-2e"/>
       <use x="159.033203" xlink:href="#DejaVuSans-30"/>
      </g>
     </g>
    </g>
    <g id="xtick_15">
     <g id="line2d_35">
      <path clip-path="url(#pe51ef06d14)" d="M 279.343217 307.584 
L 279.343217 247.104 
" style="fill:none;stroke:#b0b0b0;stroke-linecap:square;stroke-width:0.8;"/>
     </g>
     <g id="line2d_36">
      <g>
       <use style="stroke:#000000;stroke-width:0.8;" x="279.343217" xlink:href="#mbd28ddd8fe" y="307.584"/>
      </g>
     </g>
     <g id="text_26">
      <!-- 47.5 -->
      <g transform="translate(268.210404 322.182437)scale(0.1 -0.1)">
       <use xlink:href="#DejaVuSans-34"/>
       <use x="63.623047" xlink:href="#DejaVuSans-37"/>
       <use x="127.246094" xlink:href="#DejaVuSans-2e"/>
       <use x="159.033203" xlink:href="#DejaVuSans-35"/>
      </g>
     </g>
    </g>
    <g id="xtick_16">
     <g id="line2d_37">
      <path clip-path="url(#pe51ef06d14)" d="M 320.445315 307.584 
L 320.445315 247.104 
" style="fill:none;stroke:#b0b0b0;stroke-linecap:square;stroke-width:0.8;"/>
     </g>
     <g id="line2d_38">
      <g>
       <use style="stroke:#000000;stroke-width:0.8;" x="320.445315" xlink:href="#mbd28ddd8fe" y="307.584"/>
      </g>
     </g>
     <g id="text_27">
      <!-- 50.0 -->
      <g transform="translate(309.312502 322.182437)scale(0.1 -0.1)">
       <use xlink:href="#DejaVuSans-35"/>
       <use x="63.623047" xlink:href="#DejaVuSans-30"/>
       <use x="127.246094" xlink:href="#DejaVuSans-2e"/>
       <use x="159.033203" xlink:href="#DejaVuSans-30"/>
      </g>
     </g>
    </g>
    <g id="xtick_17">
     <g id="line2d_39">
      <path clip-path="url(#pe51ef06d14)" d="M 361.547413 307.584 
L 361.547413 247.104 
" style="fill:none;stroke:#b0b0b0;stroke-linecap:square;stroke-width:0.8;"/>
     </g>
     <g id="line2d_40">
      <g>
       <use style="stroke:#000000;stroke-width:0.8;" x="361.547413" xlink:href="#mbd28ddd8fe" y="307.584"/>
      </g>
     </g>
     <g id="text_28">
      <!-- 52.5 -->
      <g transform="translate(350.4146 322.182437)scale(0.1 -0.1)">
       <use xlink:href="#DejaVuSans-35"/>
       <use x="63.623047" xlink:href="#DejaVuSans-32"/>
       <use x="127.246094" xlink:href="#DejaVuSans-2e"/>
       <use x="159.033203" xlink:href="#DejaVuSans-35"/>
      </g>
     </g>
    </g>
    <g id="xtick_18">
     <g id="line2d_41">
      <path clip-path="url(#pe51ef06d14)" d="M 402.64951 307.584 
L 402.64951 247.104 
" style="fill:none;stroke:#b0b0b0;stroke-linecap:square;stroke-width:0.8;"/>
     </g>
     <g id="line2d_42">
      <g>
       <use style="stroke:#000000;stroke-width:0.8;" x="402.64951" xlink:href="#mbd28ddd8fe" y="307.584"/>
      </g>
     </g>
     <g id="text_29">
      <!-- 55.0 -->
      <g transform="translate(391.516698 322.182437)scale(0.1 -0.1)">
       <use xlink:href="#DejaVuSans-35"/>
       <use x="63.623047" xlink:href="#DejaVuSans-35"/>
       <use x="127.246094" xlink:href="#DejaVuSans-2e"/>
       <use x="159.033203" xlink:href="#DejaVuSans-30"/>
      </g>
     </g>
    </g>
    <g id="text_30">
     <!-- Energy (keV) -->
     <defs>
      <path d="M 9.8125 72.90625 
L 55.90625 72.90625 
L 55.90625 64.59375 
L 19.671875 64.59375 
L 19.671875 43.015625 
L 54.390625 43.015625 
L 54.390625 34.71875 
L 19.671875 34.71875 
L 19.671875 8.296875 
L 56.78125 8.296875 
L 56.78125 0 
L 9.8125 0 
z
" id="DejaVuSans-45"/>
      <path d="M 54.890625 33.015625 
L 54.890625 0 
L 45.90625 0 
L 45.90625 32.71875 
Q 45.90625 40.484375 42.875 44.328125 
Q 39.84375 48.1875 33.796875 48.1875 
Q 26.515625 48.1875 22.3125 43.546875 
Q 18.109375 38.921875 18.109375 30.90625 
L 18.109375 0 
L 9.078125 0 
L 9.078125 54.6875 
L 18.109375 54.6875 
L 18.109375 46.1875 
Q 21.34375 51.125 25.703125 53.5625 
Q 30.078125 56 35.796875 56 
Q 45.21875 56 50.046875 50.171875 
Q 54.890625 44.34375 54.890625 33.015625 
z
" id="DejaVuSans-6e"/>
      <path d="M 56.203125 29.59375 
L 56.203125 25.203125 
L 14.890625 25.203125 
Q 15.484375 15.921875 20.484375 11.0625 
Q 25.484375 6.203125 34.421875 6.203125 
Q 39.59375 6.203125 44.453125 7.46875 
Q 49.3125 8.734375 54.109375 11.28125 
L 54.109375 2.78125 
Q 49.265625 0.734375 44.1875 -0.34375 
Q 39.109375 -1.421875 33.890625 -1.421875 
Q 20.796875 -1.421875 13.15625 6.1875 
Q 5.515625 13.8125 5.515625 26.8125 
Q 5.515625 40.234375 12.765625 48.109375 
Q 20.015625 56 32.328125 56 
Q 43.359375 56 49.78125 48.890625 
Q 56.203125 41.796875 56.203125 29.59375 
z
M 47.21875 32.234375 
Q 47.125 39.59375 43.09375 43.984375 
Q 39.0625 48.390625 32.421875 48.390625 
Q 24.90625 48.390625 20.390625 44.140625 
Q 15.875 39.890625 15.1875 32.171875 
z
" id="DejaVuSans-65"/>
      <path d="M 41.109375 46.296875 
Q 39.59375 47.171875 37.8125 47.578125 
Q 36.03125 48 33.890625 48 
Q 26.265625 48 22.1875 43.046875 
Q 18.109375 38.09375 18.109375 28.8125 
L 18.109375 0 
L 9.078125 0 
L 9.078125 54.6875 
L 18.109375 54.6875 
L 18.109375 46.1875 
Q 20.953125 51.171875 25.484375 53.578125 
Q 30.03125 56 36.53125 56 
Q 37.453125 56 38.578125 55.875 
Q 39.703125 55.765625 41.0625 55.515625 
z
" id="DejaVuSans-72"/>
      <path d="M 45.40625 27.984375 
Q 45.40625 37.75 41.375 43.109375 
Q 37.359375 48.484375 30.078125 48.484375 
Q 22.859375 48.484375 18.828125 43.109375 
Q 14.796875 37.75 14.796875 27.984375 
Q 14.796875 18.265625 18.828125 12.890625 
Q 22.859375 7.515625 30.078125 7.515625 
Q 37.359375 7.515625 41.375 12.890625 
Q 45.40625 18.265625 45.40625 27.984375 
z
M 54.390625 6.78125 
Q 54.390625 -7.171875 48.1875 -13.984375 
Q 42 -20.796875 29.203125 -20.796875 
Q 24.46875 -20.796875 20.265625 -20.09375 
Q 16.0625 -19.390625 12.109375 -17.921875 
L 12.109375 -9.1875 
Q 16.0625 -11.328125 19.921875 -12.34375 
Q 23.78125 -13.375 27.78125 -13.375 
Q 36.625 -13.375 41.015625 -8.765625 
Q 45.40625 -4.15625 45.40625 5.171875 
L 45.40625 9.625 
Q 42.625 4.78125 38.28125 2.390625 
Q 33.9375 0 27.875 0 
Q 17.828125 0 11.671875 7.65625 
Q 5.515625 15.328125 5.515625 27.984375 
Q 5.515625 40.671875 11.671875 48.328125 
Q 17.828125 56 27.875 56 
Q 33.9375 56 38.28125 53.609375 
Q 42.625 51.21875 45.40625 46.390625 
L 45.40625 54.6875 
L 54.390625 54.6875 
z
" id="DejaVuSans-67"/>
      <path d="M 32.171875 -5.078125 
Q 28.375 -14.84375 24.75 -17.8125 
Q 21.140625 -20.796875 15.09375 -20.796875 
L 7.90625 -20.796875 
L 7.90625 -13.28125 
L 13.1875 -13.28125 
Q 16.890625 -13.28125 18.9375 -11.515625 
Q 21 -9.765625 23.484375 -3.21875 
L 25.09375 0.875 
L 2.984375 54.6875 
L 12.5 54.6875 
L 29.59375 11.921875 
L 46.6875 54.6875 
L 56.203125 54.6875 
z
" id="DejaVuSans-79"/>
      <path id="DejaVuSans-20"/>
      <path d="M 31 75.875 
Q 24.46875 64.65625 21.28125 53.65625 
Q 18.109375 42.671875 18.109375 31.390625 
Q 18.109375 20.125 21.3125 9.0625 
Q 24.515625 -2 31 -13.1875 
L 23.1875 -13.1875 
Q 15.875 -1.703125 12.234375 9.375 
Q 8.59375 20.453125 8.59375 31.390625 
Q 8.59375 42.28125 12.203125 53.3125 
Q 15.828125 64.359375 23.1875 75.875 
z
" id="DejaVuSans-28"/>
      <path d="M 9.078125 75.984375 
L 18.109375 75.984375 
L 18.109375 31.109375 
L 44.921875 54.6875 
L 56.390625 54.6875 
L 27.390625 29.109375 
L 57.625 0 
L 45.90625 0 
L 18.109375 26.703125 
L 18.109375 0 
L 9.078125 0 
z
" id="DejaVuSans-6b"/>
      <path d="M 28.609375 0 
L 0.78125 72.90625 
L 11.078125 72.90625 
L 34.1875 11.53125 
L 57.328125 72.90625 
L 67.578125 72.90625 
L 39.796875 0 
z
" id="DejaVuSans-56"/>
      <path d="M 8.015625 75.875 
L 15.828125 75.875 
Q 23.140625 64.359375 26.78125 53.3125 
Q 30.421875 42.28125 30.421875 31.390625 
Q 30.421875 20.453125 26.78125 9.375 
Q 23.140625 -1.703125 15.828125 -13.1875 
L 8.015625 -13.1875 
Q 14.5 -2 17.703125 9.0625 
Q 20.90625 20.125 20.90625 31.390625 
Q 20.90625 42.671875 17.703125 53.65625 
Q 14.5 64.65625 8.015625 75.875 
z
" id="DejaVuSans-29"/>
     </defs>
     <g transform="translate(203.686562 335.860562)scale(0.1 -0.1)">
      <use xlink:href="#DejaVuSans-45"/>
      <use x="63.183594" xlink:href="#DejaVuSans-6e"/>
      <use x="126.5625" xlink:href="#DejaVuSans-65"/>
      <use x="188.085938" xlink:href="#DejaVuSans-72"/>
      <use x="229.183594" xlink:href="#DejaVuSans-67"/>
      <use x="292.660156" xlink:href="#DejaVuSans-79"/>
      <use x="351.839844" xlink:href="#DejaVuSans-20"/>
      <use x="383.626953" xlink:href="#DejaVuSans-28"/>
      <use x="422.640625" xlink:href="#DejaVuSans-6b"/>
      <use x="480.503906" xlink:href="#DejaVuSans-65"/>
      <use x="542.027344" xlink:href="#DejaVuSans-56"/>
      <use x="610.435547" xlink:href="#DejaVuSans-29"/>
     </g>
    </g>
   </g>
   <g id="matplotlib.axis_4">
    <g id="ytick_10">
     <g id="line2d_43">
      <path clip-path="url(#pe51ef06d14)" d="M 57.6 297.504 
L 414.72 297.504 
" style="fill:none;stroke:#b0b0b0;stroke-linecap:square;stroke-width:0.8;"/>
     </g>
     <g id="line2d_44">
      <g>
       <use style="stroke:#000000;stroke-width:0.8;" x="57.6" xlink:href="#m58b35734f6" y="297.504"/>
      </g>
     </g>
     <g id="text_31">
      <!-- −0.2 -->
      <defs>
       <path d="M 10.59375 35.5 
L 73.1875 35.5 
L 73.1875 27.203125 
L 10.59375 27.203125 
z
" id="DejaVuSans-2212"/>
      </defs>
      <g transform="translate(26.317187 301.303219)scale(0.1 -0.1)">
       <use xlink:href="#DejaVuSans-2212"/>
       <use x="83.789062" xlink:href="#DejaVuSans-30"/>
       <use x="147.412109" xlink:href="#DejaVuSans-2e"/>
       <use x="179.199219" xlink:href="#DejaVuSans-32"/>
      </g>
     </g>
    </g>
    <g id="ytick_11">
     <g id="line2d_45">
      <path clip-path="url(#pe51ef06d14)" d="M 57.6 277.344 
L 414.72 277.344 
" style="fill:none;stroke:#b0b0b0;stroke-linecap:square;stroke-width:0.8;"/>
     </g>
     <g id="line2d_46">
      <g>
       <use style="stroke:#000000;stroke-width:0.8;" x="57.6" xlink:href="#m58b35734f6" y="277.344"/>
      </g>
     </g>
     <g id="text_32">
      <!-- 0.0 -->
      <g transform="translate(34.696875 281.143219)scale(0.1 -0.1)">
       <use xlink:href="#DejaVuSans-30"/>
       <use x="63.623047" xlink:href="#DejaVuSans-2e"/>
       <use x="95.410156" xlink:href="#DejaVuSans-30"/>
      </g>
     </g>
    </g>
    <g id="ytick_12">
     <g id="line2d_47">
      <path clip-path="url(#pe51ef06d14)" d="M 57.6 257.184 
L 414.72 257.184 
" style="fill:none;stroke:#b0b0b0;stroke-linecap:square;stroke-width:0.8;"/>
     </g>
     <g id="line2d_48">
      <g>
       <use style="stroke:#000000;stroke-width:0.8;" x="57.6" xlink:href="#m58b35734f6" y="257.184"/>
      </g>
     </g>
     <g id="text_33">
      <!-- 0.2 -->
      <g transform="translate(34.696875 260.983219)scale(0.1 -0.1)">
       <use xlink:href="#DejaVuSans-30"/>
       <use x="63.623047" xlink:href="#DejaVuSans-2e"/>
       <use x="95.410156" xlink:href="#DejaVuSans-32"/>
      </g>
     </g>
    </g>
    <g id="text_34">
     <!-- 1 - MC/Data -->
     <defs>
      <path d="M 4.890625 31.390625 
L 31.203125 31.390625 
L 31.203125 23.390625 
L 4.890625 23.390625 
z
" id="DejaVuSans-2d"/>
      <path d="M 25.390625 72.90625 
L 33.6875 72.90625 
L 8.296875 -9.28125 
L 0 -9.28125 
z
" id="DejaVuSans-2f"/>
     </defs>
     <g transform="translate(20.2375 306.935406)rotate(-90)scale(0.1 -0.1)">
      <use xlink:href="#DejaVuSans-31"/>
      <use x="63.623047" xlink:href="#DejaVuSans-20"/>
      <use x="95.410156" xlink:href="#DejaVuSans-2d"/>
      <use x="131.494141" xlink:href="#DejaVuSans-20"/>
      <use x="163.28125" xlink:href="#DejaVuSans-4d"/>
      <use x="249.560547" xlink:href="#DejaVuSans-43"/>
      <use x="319.384766" xlink:href="#DejaVuSans-2f"/>
      <use x="353.076172" xlink:href="#DejaVuSans-44"/>
      <use x="430.078125" xlink:href="#DejaVuSans-61"/>
      <use x="491.357422" xlink:href="#DejaVuSans-74"/>
      <use x="530.566406" xlink:href="#DejaVuSans-61"/>
     </g>
    </g>
   </g>
   <g id="LineCollection_1">
    <path clip-path="url(#pe51ef06d14)" d="M 73.832727 270.703265 
L 73.832727 269.389799 
" style="fill:none;stroke:#000000;stroke-width:1.5;"/>
    <path clip-path="url(#pe51ef06d14)" d="M 77.994965 275.281727 
L 77.994965 273.926007 
" style="fill:none;stroke:#000000;stroke-width:1.5;"/>
    <path clip-path="url(#pe51ef06d14)" d="M 82.157203 268.608446 
L 82.157203 267.353025 
" style="fill:none;stroke:#000000;stroke-width:1.5;"/>
    <path clip-path="url(#pe51ef06d14)" d="M 86.319441 277.831293 
L 86.319441 276.512156 
" style="fill:none;stroke:#000000;stroke-width:1.5;"/>
    <path clip-path="url(#pe51ef06d14)" d="M 90.481678 265.856415 
L 90.481678 264.600808 
" style="fill:none;stroke:#000000;stroke-width:1.5;"/>
    <path clip-path="url(#pe51ef06d14)" d="M 94.643916 263.109496 
L 94.643916 261.936768 
" style="fill:none;stroke:#000000;stroke-width:1.5;"/>
    <path clip-path="url(#pe51ef06d14)" d="M 98.806154 270.065918 
L 98.806154 268.873578 
" style="fill:none;stroke:#000000;stroke-width:1.5;"/>
    <path clip-path="url(#pe51ef06d14)" d="M 102.968392 272.160396 
L 102.968392 270.920455 
" style="fill:none;stroke:#000000;stroke-width:1.5;"/>
    <path clip-path="url(#pe51ef06d14)" d="M 107.130629 273.716687 
L 107.130629 272.53419 
" style="fill:none;stroke:#000000;stroke-width:1.5;"/>
    <path clip-path="url(#pe51ef06d14)" d="M 111.292867 271.080651 
L 111.292867 269.90423 
" style="fill:none;stroke:#000000;stroke-width:1.5;"/>
    <path clip-path="url(#pe51ef06d14)" d="M 115.455105 276.864067 
L 115.455105 275.65622 
" style="fill:none;stroke:#000000;stroke-width:1.5;"/>
    <path clip-path="url(#pe51ef06d14)" d="M 119.617343 275.150153 
L 119.617343 273.984297 
" style="fill:none;stroke:#000000;stroke-width:1.5;"/>
    <path clip-path="url(#pe51ef06d14)" d="M 123.77958 268.761822 
L 123.77958 267.607879 
" style="fill:none;stroke:#000000;stroke-width:1.5;"/>
    <path clip-path="url(#pe51ef06d14)" d="M 127.941818 279.147928 
L 127.941818 277.947503 
" style="fill:none;stroke:#000000;stroke-width:1.5;"/>
    <path clip-path="url(#pe51ef06d14)" d="M 132.104056 282.078558 
L 132.104056 280.932314 
" style="fill:none;stroke:#000000;stroke-width:1.5;"/>
    <path clip-path="url(#pe51ef06d14)" d="M 136.266294 279.712683 
L 136.266294 278.615442 
" style="fill:none;stroke:#000000;stroke-width:1.5;"/>
    <path clip-path="url(#pe51ef06d14)" d="M 140.428531 287.172427 
L 140.428531 286.092313 
" style="fill:none;stroke:#000000;stroke-width:1.5;"/>
    <path clip-path="url(#pe51ef06d14)" d="M 144.590769 281.151165 
L 144.590769 280.169364 
" style="fill:none;stroke:#000000;stroke-width:1.5;"/>
    <path clip-path="url(#pe51ef06d14)" d="M 148.753007 286.563535 
L 148.753007 285.630821 
" style="fill:none;stroke:#000000;stroke-width:1.5;"/>
    <path clip-path="url(#pe51ef06d14)" d="M 152.915245 279.579866 
L 152.915245 278.762942 
" style="fill:none;stroke:#000000;stroke-width:1.5;"/>
    <path clip-path="url(#pe51ef06d14)" d="M 157.077483 291.94443 
L 157.077483 291.158813 
" style="fill:none;stroke:#000000;stroke-width:1.5;"/>
    <path clip-path="url(#pe51ef06d14)" d="M 161.23972 285.451299 
L 161.23972 284.758763 
" style="fill:none;stroke:#000000;stroke-width:1.5;"/>
    <path clip-path="url(#pe51ef06d14)" d="M 165.401958 281.396473 
L 165.401958 280.777685 
" style="fill:none;stroke:#000000;stroke-width:1.5;"/>
    <path clip-path="url(#pe51ef06d14)" d="M 169.564196 283.042982 
L 169.564196 282.46231 
" style="fill:none;stroke:#000000;stroke-width:1.5;"/>
    <path clip-path="url(#pe51ef06d14)" d="M 173.726434 286.426867 
L 173.726434 285.851977 
" style="fill:none;stroke:#000000;stroke-width:1.5;"/>
    <path clip-path="url(#pe51ef06d14)" d="M 177.888671 278.486124 
L 177.888671 277.959087 
" style="fill:none;stroke:#000000;stroke-width:1.5;"/>
    <path clip-path="url(#pe51ef06d14)" d="M 182.050909 277.59334 
L 182.050909 277.09466 
" style="fill:none;stroke:#000000;stroke-width:1.5;"/>
    <path clip-path="url(#pe51ef06d14)" d="M 186.213147 277.214353 
L 186.213147 276.696032 
" style="fill:none;stroke:#000000;stroke-width:1.5;"/>
    <path clip-path="url(#pe51ef06d14)" d="M 190.375385 275.068008 
L 190.375385 274.558783 
" style="fill:none;stroke:#000000;stroke-width:1.5;"/>
    <path clip-path="url(#pe51ef06d14)" d="M 194.537622 270.669718 
L 194.537622 270.154099 
" style="fill:none;stroke:#000000;stroke-width:1.5;"/>
    <path clip-path="url(#pe51ef06d14)" d="M 198.69986 277.12757 
L 198.69986 276.555853 
" style="fill:none;stroke:#000000;stroke-width:1.5;"/>
    <path clip-path="url(#pe51ef06d14)" d="M 202.862098 275.007669 
L 202.862098 274.408853 
" style="fill:none;stroke:#000000;stroke-width:1.5;"/>
    <path clip-path="url(#pe51ef06d14)" d="M 207.024336 275.075274 
L 207.024336 274.411089 
" style="fill:none;stroke:#000000;stroke-width:1.5;"/>
    <path clip-path="url(#pe51ef06d14)" d="M 211.186573 266.21071 
L 211.186573 265.501489 
" style="fill:none;stroke:#000000;stroke-width:1.5;"/>
    <path clip-path="url(#pe51ef06d14)" d="M 215.348811 277.850725 
L 215.348811 276.978709 
" style="fill:none;stroke:#000000;stroke-width:1.5;"/>
    <path clip-path="url(#pe51ef06d14)" d="M 219.511049 272.767505 
L 219.511049 271.781247 
" style="fill:none;stroke:#000000;stroke-width:1.5;"/>
    <path clip-path="url(#pe51ef06d14)" d="M 223.673287 268.573996 
L 223.673287 267.492473 
" style="fill:none;stroke:#000000;stroke-width:1.5;"/>
    <path clip-path="url(#pe51ef06d14)" d="M 227.835524 279.04117 
L 227.835524 277.649737 
" style="fill:none;stroke:#000000;stroke-width:1.5;"/>
    <path clip-path="url(#pe51ef06d14)" d="M 231.997762 265.572489 
L 231.997762 264.033103 
" style="fill:none;stroke:#000000;stroke-width:1.5;"/>
    <path clip-path="url(#pe51ef06d14)" d="M 236.16 271.265039 
L 236.16 269.466193 
" style="fill:none;stroke:#000000;stroke-width:1.5;"/>
    <path clip-path="url(#pe51ef06d14)" d="M 240.322238 266.855 
L 240.322238 264.95273 
" style="fill:none;stroke:#000000;stroke-width:1.5;"/>
    <path clip-path="url(#pe51ef06d14)" d="M 244.484476 271.231454 
L 244.484476 269.283388 
" style="fill:none;stroke:#000000;stroke-width:1.5;"/>
    <path clip-path="url(#pe51ef06d14)" d="M 248.646713 282.635577 
L 248.646713 280.594417 
" style="fill:none;stroke:#000000;stroke-width:1.5;"/>
    <path clip-path="url(#pe51ef06d14)" d="M 252.808951 276.592693 
L 252.808951 274.797463 
" style="fill:none;stroke:#000000;stroke-width:1.5;"/>
    <path clip-path="url(#pe51ef06d14)" d="M 256.971189 280.964241 
L 256.971189 279.262911 
" style="fill:none;stroke:#000000;stroke-width:1.5;"/>
    <path clip-path="url(#pe51ef06d14)" d="M 261.133427 283.038421 
L 261.133427 281.427507 
" style="fill:none;stroke:#000000;stroke-width:1.5;"/>
    <path clip-path="url(#pe51ef06d14)" d="M 265.295664 277.629213 
L 265.295664 276.174773 
" style="fill:none;stroke:#000000;stroke-width:1.5;"/>
    <path clip-path="url(#pe51ef06d14)" d="M 269.457902 277.06844 
L 269.457902 275.695833 
" style="fill:none;stroke:#000000;stroke-width:1.5;"/>
    <path clip-path="url(#pe51ef06d14)" d="M 273.62014 276.564735 
L 273.62014 275.255246 
" style="fill:none;stroke:#000000;stroke-width:1.5;"/>
    <path clip-path="url(#pe51ef06d14)" d="M 277.782378 278.689817 
L 277.782378 277.380236 
" style="fill:none;stroke:#000000;stroke-width:1.5;"/>
    <path clip-path="url(#pe51ef06d14)" d="M 281.944615 274.792747 
L 281.944615 273.588275 
" style="fill:none;stroke:#000000;stroke-width:1.5;"/>
    <path clip-path="url(#pe51ef06d14)" d="M 286.106853 268.157779 
L 286.106853 266.967052 
" style="fill:none;stroke:#000000;stroke-width:1.5;"/>
    <path clip-path="url(#pe51ef06d14)" d="M 290.269091 282.371977 
L 290.269091 281.046772 
" style="fill:none;stroke:#000000;stroke-width:1.5;"/>
    <path clip-path="url(#pe51ef06d14)" d="M 294.431329 274.469071 
L 294.431329 273.144274 
" style="fill:none;stroke:#000000;stroke-width:1.5;"/>
    <path clip-path="url(#pe51ef06d14)" d="M 298.593566 269.782487 
L 298.593566 268.427692 
" style="fill:none;stroke:#000000;stroke-width:1.5;"/>
    <path clip-path="url(#pe51ef06d14)" d="M 302.755804 269.345534 
L 302.755804 267.869039 
" style="fill:none;stroke:#000000;stroke-width:1.5;"/>
    <path clip-path="url(#pe51ef06d14)" d="M 306.918042 270.582496 
L 306.918042 268.978725 
" style="fill:none;stroke:#000000;stroke-width:1.5;"/>
    <path clip-path="url(#pe51ef06d14)" d="M 311.08028 265.943634 
L 311.08028 264.204091 
" style="fill:none;stroke:#000000;stroke-width:1.5;"/>
    <path clip-path="url(#pe51ef06d14)" d="M 315.242517 269.732159 
L 315.242517 267.674649 
" style="fill:none;stroke:#000000;stroke-width:1.5;"/>
    <path clip-path="url(#pe51ef06d14)" d="M 319.404755 267.655244 
L 319.404755 265.491513 
" style="fill:none;stroke:#000000;stroke-width:1.5;"/>
    <path clip-path="url(#pe51ef06d14)" d="M 323.566993 271.319214 
L 323.566993 268.769849 
" style="fill:none;stroke:#000000;stroke-width:1.5;"/>
    <path clip-path="url(#pe51ef06d14)" d="M 327.729231 263.103453 
L 327.729231 260.148841 
" style="fill:none;stroke:#000000;stroke-width:1.5;"/>
    <path clip-path="url(#pe51ef06d14)" d="M 331.891469 271.954912 
L 331.891469 268.53471 
" style="fill:none;stroke:#000000;stroke-width:1.5;"/>
    <path clip-path="url(#pe51ef06d14)" d="M 336.053706 255.151367 
L 336.053706 251.445388 
" style="fill:none;stroke:#000000;stroke-width:1.5;"/>
    <path clip-path="url(#pe51ef06d14)" d="M 340.215944 239.892734 
L 340.215944 236.060889 
" style="fill:none;stroke:#000000;stroke-width:1.5;"/>
    <path clip-path="url(#pe51ef06d14)" d="M 344.378182 245.125988 
L 344.378182 240.566709 
" style="fill:none;stroke:#000000;stroke-width:1.5;"/>
    <path clip-path="url(#pe51ef06d14)" d="M 348.54042 223.468833 
L 348.54042 219.591727 
" style="fill:none;stroke:#000000;stroke-width:1.5;"/>
    <path clip-path="url(#pe51ef06d14)" d="M 352.702657 244.72813 
L 352.702657 239.235567 
" style="fill:none;stroke:#000000;stroke-width:1.5;"/>
    <path clip-path="url(#pe51ef06d14)" d="M 356.864895 176.544 
L 356.864895 176.544 
" style="fill:none;stroke:#000000;stroke-width:1.5;"/>
    <path clip-path="url(#pe51ef06d14)" d="M 361.027133 225.822036 
L 361.027133 220.816368 
" style="fill:none;stroke:#000000;stroke-width:1.5;"/>
    <path clip-path="url(#pe51ef06d14)" d="M 365.189371 176.544 
L 365.189371 176.544 
" style="fill:none;stroke:#000000;stroke-width:1.5;"/>
    <path clip-path="url(#pe51ef06d14)" d="M 369.351608 176.544 
L 369.351608 176.544 
" style="fill:none;stroke:#000000;stroke-width:1.5;"/>
    <path clip-path="url(#pe51ef06d14)" d="M 373.513846 176.544 
L 373.513846 176.544 
" style="fill:none;stroke:#000000;stroke-width:1.5;"/>
    <path clip-path="url(#pe51ef06d14)" d="M 377.676084 176.544 
L 377.676084 176.544 
" style="fill:none;stroke:#000000;stroke-width:1.5;"/>
    <path clip-path="url(#pe51ef06d14)" d="M 381.838322 176.544 
L 381.838322 176.544 
" style="fill:none;stroke:#000000;stroke-width:1.5;"/>
    <path clip-path="url(#pe51ef06d14)" d="M 386.000559 176.544 
L 386.000559 176.544 
" style="fill:none;stroke:#000000;stroke-width:1.5;"/>
    <path clip-path="url(#pe51ef06d14)" d="M 390.162797 176.544 
L 390.162797 176.544 
" style="fill:none;stroke:#000000;stroke-width:1.5;"/>
    <path clip-path="url(#pe51ef06d14)" d="M 394.325035 176.544 
L 394.325035 176.544 
" style="fill:none;stroke:#000000;stroke-width:1.5;"/>
    <path clip-path="url(#pe51ef06d14)" d="M 398.487273 176.544 
L 398.487273 176.544 
" style="fill:none;stroke:#000000;stroke-width:1.5;"/>
   </g>
   <g id="line2d_49">
    <path clip-path="url(#pe51ef06d14)" d="M 57.6 277.344 
L 414.72 277.344 
" style="fill:none;stroke:#000000;stroke-dasharray:5.55,2.4;stroke-dashoffset:0;stroke-width:1.5;"/>
   </g>
   <g id="line2d_50">
    <path clip-path="url(#pe51ef06d14)" d="M 73.832727 272.598719 
L 77.994965 271.115575 
L 82.157203 270.048564 
L 86.319441 269.36727 
L 90.481678 269.041275 
L 94.643916 269.040163 
L 98.806154 269.333518 
L 102.968392 269.89092 
L 107.130629 270.681955 
L 111.292867 271.676205 
L 115.455105 272.843252 
L 119.617343 274.105826 
L 123.77958 276.100656 
L 127.941818 277.498588 
L 132.104056 279.411785 
L 136.266294 280.967702 
L 140.428531 281.882202 
L 144.590769 282.827298 
L 148.753007 283.661673 
L 152.915245 284.454686 
L 157.077483 284.132484 
L 161.23972 284.041286 
L 165.401958 283.516558 
L 169.564196 282.576451 
L 173.726434 281.072375 
L 177.888671 280.025837 
L 182.050909 278.863717 
L 186.213147 277.467997 
L 190.375385 276.596919 
L 194.537622 275.593855 
L 198.69986 274.332746 
L 202.862098 273.715201 
L 207.024336 272.29503 
L 211.186573 271.437158 
L 215.348811 270.75297 
L 219.511049 270.743748 
L 223.673287 271.007867 
L 227.835524 271.460997 
L 231.997762 272.099806 
L 236.16 272.594809 
L 240.322238 273.06472 
L 244.484476 274.347005 
L 248.646713 274.53123 
L 252.808951 275.435104 
L 256.971189 275.807688 
L 261.133427 276.781664 
L 265.295664 277.165393 
L 269.457902 277.240693 
L 273.62014 277.557182 
L 277.782378 276.794574 
L 281.944615 275.819811 
L 286.106853 274.704194 
L 290.269091 272.862579 
L 294.431329 272.801326 
L 298.593566 272.771464 
L 302.755804 271.971275 
L 306.918042 272.097753 
L 311.08028 269.683363 
L 315.242517 270.596631 
L 319.404755 266.631463 
L 323.566993 265.012989 
L 327.729231 261.387003 
L 331.891469 255.689602 
L 336.053706 249.865263 
L 340.215944 242.753926 
L 344.378182 234.691109 
L 348.54042 226.197305 
L 352.702657 217.707165 
L 356.864895 209.035224 
L 361.027133 200.123096 
L 365.189371 191.849803 
L 369.351608 184.506531 
L 373.513846 178.384466 
L 377.676084 173.774791 
L 381.838322 170.968694 
L 386.000559 170.257358 
L 390.162797 171.931969 
L 394.325035 176.283713 
L 398.487273 183.603774 
" style="fill:none;stroke:#000000;stroke-linecap:square;stroke-width:1.5;"/>
   </g>
   <g id="line2d_51">
    <defs>
     <path d="M -3 3 
L 3 -3 
M -3 -3 
L 3 3 
" id="mb5efc8a4cf" style="stroke:#000000;"/>
    </defs>
    <g clip-path="url(#pe51ef06d14)">
     <use style="stroke:#000000;" x="73.832727" xlink:href="#mb5efc8a4cf" y="270.046532"/>
     <use style="stroke:#000000;" x="77.994965" xlink:href="#mb5efc8a4cf" y="274.603867"/>
     <use style="stroke:#000000;" x="82.157203" xlink:href="#mb5efc8a4cf" y="267.980735"/>
     <use style="stroke:#000000;" x="86.319441" xlink:href="#mb5efc8a4cf" y="277.171725"/>
     <use style="stroke:#000000;" x="90.481678" xlink:href="#mb5efc8a4cf" y="265.228611"/>
     <use style="stroke:#000000;" x="94.643916" xlink:href="#mb5efc8a4cf" y="262.523132"/>
     <use style="stroke:#000000;" x="98.806154" xlink:href="#mb5efc8a4cf" y="269.469748"/>
     <use style="stroke:#000000;" x="102.968392" xlink:href="#mb5efc8a4cf" y="271.540425"/>
     <use style="stroke:#000000;" x="107.130629" xlink:href="#mb5efc8a4cf" y="273.125438"/>
     <use style="stroke:#000000;" x="111.292867" xlink:href="#mb5efc8a4cf" y="270.49244"/>
     <use style="stroke:#000000;" x="115.455105" xlink:href="#mb5efc8a4cf" y="276.260143"/>
     <use style="stroke:#000000;" x="119.617343" xlink:href="#mb5efc8a4cf" y="274.567225"/>
     <use style="stroke:#000000;" x="123.77958" xlink:href="#mb5efc8a4cf" y="268.18485"/>
     <use style="stroke:#000000;" x="127.941818" xlink:href="#mb5efc8a4cf" y="278.547715"/>
     <use style="stroke:#000000;" x="132.104056" xlink:href="#mb5efc8a4cf" y="281.505436"/>
     <use style="stroke:#000000;" x="136.266294" xlink:href="#mb5efc8a4cf" y="279.164063"/>
     <use style="stroke:#000000;" x="140.428531" xlink:href="#mb5efc8a4cf" y="286.63237"/>
     <use style="stroke:#000000;" x="144.590769" xlink:href="#mb5efc8a4cf" y="280.660264"/>
     <use style="stroke:#000000;" x="148.753007" xlink:href="#mb5efc8a4cf" y="286.097178"/>
     <use style="stroke:#000000;" x="152.915245" xlink:href="#mb5efc8a4cf" y="279.171404"/>
     <use style="stroke:#000000;" x="157.077483" xlink:href="#mb5efc8a4cf" y="291.551622"/>
     <use style="stroke:#000000;" x="161.23972" xlink:href="#mb5efc8a4cf" y="285.105031"/>
     <use style="stroke:#000000;" x="165.401958" xlink:href="#mb5efc8a4cf" y="281.087079"/>
     <use style="stroke:#000000;" x="169.564196" xlink:href="#mb5efc8a4cf" y="282.752646"/>
     <use style="stroke:#000000;" x="173.726434" xlink:href="#mb5efc8a4cf" y="286.139422"/>
     <use style="stroke:#000000;" x="177.888671" xlink:href="#mb5efc8a4cf" y="278.222606"/>
     <use style="stroke:#000000;" x="182.050909" xlink:href="#mb5efc8a4cf" y="277.344"/>
     <use style="stroke:#000000;" x="186.213147" xlink:href="#mb5efc8a4cf" y="276.955192"/>
     <use style="stroke:#000000;" x="190.375385" xlink:href="#mb5efc8a4cf" y="274.813396"/>
     <use style="stroke:#000000;" x="194.537622" xlink:href="#mb5efc8a4cf" y="270.411908"/>
     <use style="stroke:#000000;" x="198.69986" xlink:href="#mb5efc8a4cf" y="276.841712"/>
     <use style="stroke:#000000;" x="202.862098" xlink:href="#mb5efc8a4cf" y="274.708261"/>
     <use style="stroke:#000000;" x="207.024336" xlink:href="#mb5efc8a4cf" y="274.743181"/>
     <use style="stroke:#000000;" x="211.186573" xlink:href="#mb5efc8a4cf" y="265.8561"/>
     <use style="stroke:#000000;" x="215.348811" xlink:href="#mb5efc8a4cf" y="277.414717"/>
     <use style="stroke:#000000;" x="219.511049" xlink:href="#mb5efc8a4cf" y="272.274376"/>
     <use style="stroke:#000000;" x="223.673287" xlink:href="#mb5efc8a4cf" y="268.033234"/>
     <use style="stroke:#000000;" x="227.835524" xlink:href="#mb5efc8a4cf" y="278.345453"/>
     <use style="stroke:#000000;" x="231.997762" xlink:href="#mb5efc8a4cf" y="264.802796"/>
     <use style="stroke:#000000;" x="236.16" xlink:href="#mb5efc8a4cf" y="270.365616"/>
     <use style="stroke:#000000;" x="240.322238" xlink:href="#mb5efc8a4cf" y="265.903865"/>
     <use style="stroke:#000000;" x="244.484476" xlink:href="#mb5efc8a4cf" y="270.257421"/>
     <use style="stroke:#000000;" x="248.646713" xlink:href="#mb5efc8a4cf" y="281.614997"/>
     <use style="stroke:#000000;" x="252.808951" xlink:href="#mb5efc8a4cf" y="275.695078"/>
     <use style="stroke:#000000;" x="256.971189" xlink:href="#mb5efc8a4cf" y="280.113576"/>
     <use style="stroke:#000000;" x="261.133427" xlink:href="#mb5efc8a4cf" y="282.232964"/>
     <use style="stroke:#000000;" x="265.295664" xlink:href="#mb5efc8a4cf" y="276.901993"/>
     <use style="stroke:#000000;" x="269.457902" xlink:href="#mb5efc8a4cf" y="276.382137"/>
     <use style="stroke:#000000;" x="273.62014" xlink:href="#mb5efc8a4cf" y="275.909991"/>
     <use style="stroke:#000000;" x="277.782378" xlink:href="#mb5efc8a4cf" y="278.035027"/>
     <use style="stroke:#000000;" x="281.944615" xlink:href="#mb5efc8a4cf" y="274.190511"/>
     <use style="stroke:#000000;" x="286.106853" xlink:href="#mb5efc8a4cf" y="267.562415"/>
     <use style="stroke:#000000;" x="290.269091" xlink:href="#mb5efc8a4cf" y="281.709375"/>
     <use style="stroke:#000000;" x="294.431329" xlink:href="#mb5efc8a4cf" y="273.806673"/>
     <use style="stroke:#000000;" x="298.593566" xlink:href="#mb5efc8a4cf" y="269.105089"/>
     <use style="stroke:#000000;" x="302.755804" xlink:href="#mb5efc8a4cf" y="268.607287"/>
     <use style="stroke:#000000;" x="306.918042" xlink:href="#mb5efc8a4cf" y="269.78061"/>
     <use style="stroke:#000000;" x="311.08028" xlink:href="#mb5efc8a4cf" y="265.073863"/>
     <use style="stroke:#000000;" x="315.242517" xlink:href="#mb5efc8a4cf" y="268.703404"/>
     <use style="stroke:#000000;" x="319.404755" xlink:href="#mb5efc8a4cf" y="266.573378"/>
     <use style="stroke:#000000;" x="323.566993" xlink:href="#mb5efc8a4cf" y="270.044531"/>
     <use style="stroke:#000000;" x="327.729231" xlink:href="#mb5efc8a4cf" y="261.626147"/>
     <use style="stroke:#000000;" x="331.891469" xlink:href="#mb5efc8a4cf" y="270.244811"/>
     <use style="stroke:#000000;" x="336.053706" xlink:href="#mb5efc8a4cf" y="253.298378"/>
     <use style="stroke:#000000;" x="340.215944" xlink:href="#mb5efc8a4cf" y="237.976812"/>
     <use style="stroke:#000000;" x="344.378182" xlink:href="#mb5efc8a4cf" y="242.846348"/>
     <use style="stroke:#000000;" x="348.54042" xlink:href="#mb5efc8a4cf" y="221.53028"/>
     <use style="stroke:#000000;" x="352.702657" xlink:href="#mb5efc8a4cf" y="241.981848"/>
     <use style="stroke:#000000;" x="356.864895" xlink:href="#mb5efc8a4cf" y="176.544"/>
     <use style="stroke:#000000;" x="361.027133" xlink:href="#mb5efc8a4cf" y="223.319202"/>
     <use style="stroke:#000000;" x="365.189371" xlink:href="#mb5efc8a4cf" y="176.544"/>
     <use style="stroke:#000000;" x="369.351608" xlink:href="#mb5efc8a4cf" y="176.544"/>
     <use style="stroke:#000000;" x="373.513846" xlink:href="#mb5efc8a4cf" y="176.544"/>
     <use style="stroke:#000000;" x="377.676084" xlink:href="#mb5efc8a4cf" y="176.544"/>
     <use style="stroke:#000000;" x="381.838322" xlink:href="#mb5efc8a4cf" y="176.544"/>
     <use style="stroke:#000000;" x="386.000559" xlink:href="#mb5efc8a4cf" y="176.544"/>
     <use style="stroke:#000000;" x="390.162797" xlink:href="#mb5efc8a4cf" y="176.544"/>
     <use style="stroke:#000000;" x="394.325035" xlink:href="#mb5efc8a4cf" y="176.544"/>
     <use style="stroke:#000000;" x="398.487273" xlink:href="#mb5efc8a4cf" y="176.544"/>
    </g>
   </g>
   <g id="patch_9">
    <path d="M 57.6 307.584 
L 57.6 247.104 
" style="fill:none;stroke:#000000;stroke-linecap:square;stroke-linejoin:miter;stroke-width:0.8;"/>
   </g>
   <g id="patch_10">
    <path d="M 414.72 307.584 
L 414.72 247.104 
" style="fill:none;stroke:#000000;stroke-linecap:square;stroke-linejoin:miter;stroke-width:0.8;"/>
   </g>
   <g id="patch_11">
    <path d="M 57.6 307.584 
L 414.72 307.584 
" style="fill:none;stroke:#000000;stroke-linecap:square;stroke-linejoin:miter;stroke-width:0.8;"/>
   </g>
   <g id="patch_12">
    <path d="M 57.6 247.104 
L 414.72 247.104 
" style="fill:none;stroke:#000000;stroke-linecap:square;stroke-linejoin:miter;stroke-width:0.8;"/>
   </g>
  </g>
 </g>
 <defs>
  <clipPath id="pf962e72752">
   <rect height="181.44" width="357.12" x="57.6" y="41.472"/>
  </clipPath>
  <clipPath id="pe51ef06d14">
   <rect height="60.48" width="357.12" x="57.6" y="247.104"/>
  </clipPath>
 </defs>
</svg>
