<?xml version="1.0" encoding="utf-8" standalone="no"?>
<!DOCTYPE svg PUBLIC "-//W3C//DTD SVG 1.1//EN"
  "http://www.w3.org/Graphics/SVG/1.1/DTD/svg11.dtd">
<!-- Created with matplotlib (http://matplotlib.org/) -->
<svg height="345.6pt" version="1.1" viewBox="0 0 460.8 345.6" width="460.8pt" xmlns="http://www.w3.org/2000/svg" xmlns:xlink="http://www.w3.org/1999/xlink">
 <defs>
  <style type="text/css">
*{stroke-linecap:butt;stroke-linejoin:round;}
  </style>
 </defs>
 <g id="figure_1">
  <g id="patch_1">
   <path d="M 0 345.6 
L 460.8 345.6 
L 460.8 0 
L 0 0 
z
" style="fill:#ffffff;"/>
  </g>
  <g id="axes_1">
   <g id="patch_2">
    <path d="M 57.6 222.912 
L 414.72 222.912 
L 414.72 41.472 
L 57.6 41.472 
z
" style="fill:#ffffff;"/>
   </g>
   <g id="matplotlib.axis_1">
    <g id="xtick_1">
     <g id="line2d_1">
      <defs>
       <path d="M 0 0 
L 0 3.5 
" id="m1c235b0d40" style="stroke:#000000;stroke-width:0.8;"/>
      </defs>
      <g>
       <use style="stroke:#000000;stroke-width:0.8;" x="73.832727" xlink:href="#m1c235b0d40" y="222.912"/>
      </g>
     </g>
     <g id="text_1">
      <!-- 20 -->
      <defs>
       <path d="M 19.1875 8.296875 
L 53.609375 8.296875 
L 53.609375 0 
L 7.328125 0 
L 7.328125 8.296875 
Q 12.9375 14.109375 22.625 23.890625 
Q 32.328125 33.6875 34.8125 36.53125 
Q 39.546875 41.84375 41.421875 45.53125 
Q 43.3125 49.21875 43.3125 52.78125 
Q 43.3125 58.59375 39.234375 62.25 
Q 35.15625 65.921875 28.609375 65.921875 
Q 23.96875 65.921875 18.8125 64.3125 
Q 13.671875 62.703125 7.8125 59.421875 
L 7.8125 69.390625 
Q 13.765625 71.78125 18.9375 73 
Q 24.125 74.21875 28.421875 74.21875 
Q 39.75 74.21875 46.484375 68.546875 
Q 53.21875 62.890625 53.21875 53.421875 
Q 53.21875 48.921875 51.53125 44.890625 
Q 49.859375 40.875 45.40625 35.40625 
Q 44.1875 33.984375 37.640625 27.21875 
Q 31.109375 20.453125 19.1875 8.296875 
z
" id="DejaVuSans-32"/>
       <path d="M 31.78125 66.40625 
Q 24.171875 66.40625 20.328125 58.90625 
Q 16.5 51.421875 16.5 36.375 
Q 16.5 21.390625 20.328125 13.890625 
Q 24.171875 6.390625 31.78125 6.390625 
Q 39.453125 6.390625 43.28125 13.890625 
Q 47.125 21.390625 47.125 36.375 
Q 47.125 51.421875 43.28125 58.90625 
Q 39.453125 66.40625 31.78125 66.40625 
z
M 31.78125 74.21875 
Q 44.046875 74.21875 50.515625 64.515625 
Q 56.984375 54.828125 56.984375 36.375 
Q 56.984375 17.96875 50.515625 8.265625 
Q 44.046875 -1.421875 31.78125 -1.421875 
Q 19.53125 -1.421875 13.0625 8.265625 
Q 6.59375 17.96875 6.59375 36.375 
Q 6.59375 54.828125 13.0625 64.515625 
Q 19.53125 74.21875 31.78125 74.21875 
z
" id="DejaVuSans-30"/>
      </defs>
      <g transform="translate(67.470227 237.510437)scale(0.1 -0.1)">
       <use xlink:href="#DejaVuSans-32"/>
       <use x="63.623047" xlink:href="#DejaVuSans-30"/>
      </g>
     </g>
    </g>
    <g id="xtick_2">
     <g id="line2d_2">
      <g>
       <use style="stroke:#000000;stroke-width:0.8;" x="120.806553" xlink:href="#m1c235b0d40" y="222.912"/>
      </g>
     </g>
     <g id="text_2">
      <!-- 25 -->
      <defs>
       <path d="M 10.796875 72.90625 
L 49.515625 72.90625 
L 49.515625 64.59375 
L 19.828125 64.59375 
L 19.828125 46.734375 
Q 21.96875 47.46875 24.109375 47.828125 
Q 26.265625 48.1875 28.421875 48.1875 
Q 40.625 48.1875 47.75 41.5 
Q 54.890625 34.8125 54.890625 23.390625 
Q 54.890625 11.625 47.5625 5.09375 
Q 40.234375 -1.421875 26.90625 -1.421875 
Q 22.3125 -1.421875 17.546875 -0.640625 
Q 12.796875 0.140625 7.71875 1.703125 
L 7.71875 11.625 
Q 12.109375 9.234375 16.796875 8.0625 
Q 21.484375 6.890625 26.703125 6.890625 
Q 35.15625 6.890625 40.078125 11.328125 
Q 45.015625 15.765625 45.015625 23.390625 
Q 45.015625 31 40.078125 35.4375 
Q 35.15625 39.890625 26.703125 39.890625 
Q 22.75 39.890625 18.8125 39.015625 
Q 14.890625 38.140625 10.796875 36.28125 
z
" id="DejaVuSans-35"/>
      </defs>
      <g transform="translate(114.444053 237.510437)scale(0.1 -0.1)">
       <use xlink:href="#DejaVuSans-32"/>
       <use x="63.623047" xlink:href="#DejaVuSans-35"/>
      </g>
     </g>
    </g>
    <g id="xtick_3">
     <g id="line2d_3">
      <g>
       <use style="stroke:#000000;stroke-width:0.8;" x="167.78038" xlink:href="#m1c235b0d40" y="222.912"/>
      </g>
     </g>
     <g id="text_3">
      <!-- 30 -->
      <defs>
       <path d="M 40.578125 39.3125 
Q 47.65625 37.796875 51.625 33 
Q 55.609375 28.21875 55.609375 21.1875 
Q 55.609375 10.40625 48.1875 4.484375 
Q 40.765625 -1.421875 27.09375 -1.421875 
Q 22.515625 -1.421875 17.65625 -0.515625 
Q 12.796875 0.390625 7.625 2.203125 
L 7.625 11.71875 
Q 11.71875 9.328125 16.59375 8.109375 
Q 21.484375 6.890625 26.8125 6.890625 
Q 36.078125 6.890625 40.9375 10.546875 
Q 45.796875 14.203125 45.796875 21.1875 
Q 45.796875 27.640625 41.28125 31.265625 
Q 36.765625 34.90625 28.71875 34.90625 
L 20.21875 34.90625 
L 20.21875 43.015625 
L 29.109375 43.015625 
Q 36.375 43.015625 40.234375 45.921875 
Q 44.09375 48.828125 44.09375 54.296875 
Q 44.09375 59.90625 40.109375 62.90625 
Q 36.140625 65.921875 28.71875 65.921875 
Q 24.65625 65.921875 20.015625 65.03125 
Q 15.375 64.15625 9.8125 62.3125 
L 9.8125 71.09375 
Q 15.4375 72.65625 20.34375 73.4375 
Q 25.25 74.21875 29.59375 74.21875 
Q 40.828125 74.21875 47.359375 69.109375 
Q 53.90625 64.015625 53.90625 55.328125 
Q 53.90625 49.265625 50.4375 45.09375 
Q 46.96875 40.921875 40.578125 39.3125 
z
" id="DejaVuSans-33"/>
      </defs>
      <g transform="translate(161.41788 237.510437)scale(0.1 -0.1)">
       <use xlink:href="#DejaVuSans-33"/>
       <use x="63.623047" xlink:href="#DejaVuSans-30"/>
      </g>
     </g>
    </g>
    <g id="xtick_4">
     <g id="line2d_4">
      <g>
       <use style="stroke:#000000;stroke-width:0.8;" x="214.754206" xlink:href="#m1c235b0d40" y="222.912"/>
      </g>
     </g>
     <g id="text_4">
      <!-- 35 -->
      <g transform="translate(208.391706 237.510437)scale(0.1 -0.1)">
       <use xlink:href="#DejaVuSans-33"/>
       <use x="63.623047" xlink:href="#DejaVuSans-35"/>
      </g>
     </g>
    </g>
    <g id="xtick_5">
     <g id="line2d_5">
      <g>
       <use style="stroke:#000000;stroke-width:0.8;" x="261.728032" xlink:href="#m1c235b0d40" y="222.912"/>
      </g>
     </g>
     <g id="text_5">
      <!-- 40 -->
      <defs>
       <path d="M 37.796875 64.3125 
L 12.890625 25.390625 
L 37.796875 25.390625 
z
M 35.203125 72.90625 
L 47.609375 72.90625 
L 47.609375 25.390625 
L 58.015625 25.390625 
L 58.015625 17.1875 
L 47.609375 17.1875 
L 47.609375 0 
L 37.796875 0 
L 37.796875 17.1875 
L 4.890625 17.1875 
L 4.890625 26.703125 
z
" id="DejaVuSans-34"/>
      </defs>
      <g transform="translate(255.365532 237.510437)scale(0.1 -0.1)">
       <use xlink:href="#DejaVuSans-34"/>
       <use x="63.623047" xlink:href="#DejaVuSans-30"/>
      </g>
     </g>
    </g>
    <g id="xtick_6">
     <g id="line2d_6">
      <g>
       <use style="stroke:#000000;stroke-width:0.8;" x="308.701858" xlink:href="#m1c235b0d40" y="222.912"/>
      </g>
     </g>
     <g id="text_6">
      <!-- 45 -->
      <g transform="translate(302.339358 237.510437)scale(0.1 -0.1)">
       <use xlink:href="#DejaVuSans-34"/>
       <use x="63.623047" xlink:href="#DejaVuSans-35"/>
      </g>
     </g>
    </g>
    <g id="xtick_7">
     <g id="line2d_7">
      <g>
       <use style="stroke:#000000;stroke-width:0.8;" x="355.675684" xlink:href="#m1c235b0d40" y="222.912"/>
      </g>
     </g>
     <g id="text_7">
      <!-- 50 -->
      <g transform="translate(349.313184 237.510437)scale(0.1 -0.1)">
       <use xlink:href="#DejaVuSans-35"/>
       <use x="63.623047" xlink:href="#DejaVuSans-30"/>
      </g>
     </g>
    </g>
    <g id="xtick_8">
     <g id="line2d_8">
      <g>
       <use style="stroke:#000000;stroke-width:0.8;" x="402.64951" xlink:href="#m1c235b0d40" y="222.912"/>
      </g>
     </g>
     <g id="text_8">
      <!-- 55 -->
      <g transform="translate(396.28701 237.510437)scale(0.1 -0.1)">
       <use xlink:href="#DejaVuSans-35"/>
       <use x="63.623047" xlink:href="#DejaVuSans-35"/>
      </g>
     </g>
    </g>
   </g>
   <g id="matplotlib.axis_2">
    <g id="ytick_1">
     <g id="line2d_9">
      <defs>
       <path d="M 0 0 
L -3.5 0 
" id="m32ac814e22" style="stroke:#000000;stroke-width:0.8;"/>
      </defs>
      <g>
       <use style="stroke:#000000;stroke-width:0.8;" x="57.6" xlink:href="#m32ac814e22" y="214.664727"/>
      </g>
     </g>
     <g id="text_9">
      <!-- 0 -->
      <g transform="translate(44.2375 218.463946)scale(0.1 -0.1)">
       <use xlink:href="#DejaVuSans-30"/>
      </g>
     </g>
    </g>
    <g id="ytick_2">
     <g id="line2d_10">
      <g>
       <use style="stroke:#000000;stroke-width:0.8;" x="57.6" xlink:href="#m32ac814e22" y="191.114884"/>
      </g>
     </g>
     <g id="text_10">
      <!-- 10000 -->
      <defs>
       <path d="M 12.40625 8.296875 
L 28.515625 8.296875 
L 28.515625 63.921875 
L 10.984375 60.40625 
L 10.984375 69.390625 
L 28.421875 72.90625 
L 38.28125 72.90625 
L 38.28125 8.296875 
L 54.390625 8.296875 
L 54.390625 0 
L 12.40625 0 
z
" id="DejaVuSans-31"/>
      </defs>
      <g transform="translate(18.7875 194.914103)scale(0.1 -0.1)">
       <use xlink:href="#DejaVuSans-31"/>
       <use x="63.623047" xlink:href="#DejaVuSans-30"/>
       <use x="127.246094" xlink:href="#DejaVuSans-30"/>
       <use x="190.869141" xlink:href="#DejaVuSans-30"/>
       <use x="254.492188" xlink:href="#DejaVuSans-30"/>
      </g>
     </g>
    </g>
    <g id="ytick_3">
     <g id="line2d_11">
      <g>
       <use style="stroke:#000000;stroke-width:0.8;" x="57.6" xlink:href="#m32ac814e22" y="167.565042"/>
      </g>
     </g>
     <g id="text_11">
      <!-- 20000 -->
      <g transform="translate(18.7875 171.36426)scale(0.1 -0.1)">
       <use xlink:href="#DejaVuSans-32"/>
       <use x="63.623047" xlink:href="#DejaVuSans-30"/>
       <use x="127.246094" xlink:href="#DejaVuSans-30"/>
       <use x="190.869141" xlink:href="#DejaVuSans-30"/>
       <use x="254.492188" xlink:href="#DejaVuSans-30"/>
      </g>
     </g>
    </g>
    <g id="ytick_4">
     <g id="line2d_12">
      <g>
       <use style="stroke:#000000;stroke-width:0.8;" x="57.6" xlink:href="#m32ac814e22" y="144.015199"/>
      </g>
     </g>
     <g id="text_12">
      <!-- 30000 -->
      <g transform="translate(18.7875 147.814417)scale(0.1 -0.1)">
       <use xlink:href="#DejaVuSans-33"/>
       <use x="63.623047" xlink:href="#DejaVuSans-30"/>
       <use x="127.246094" xlink:href="#DejaVuSans-30"/>
       <use x="190.869141" xlink:href="#DejaVuSans-30"/>
       <use x="254.492188" xlink:href="#DejaVuSans-30"/>
      </g>
     </g>
    </g>
    <g id="ytick_5">
     <g id="line2d_13">
      <g>
       <use style="stroke:#000000;stroke-width:0.8;" x="57.6" xlink:href="#m32ac814e22" y="120.465356"/>
      </g>
     </g>
     <g id="text_13">
      <!-- 40000 -->
      <g transform="translate(18.7875 124.264574)scale(0.1 -0.1)">
       <use xlink:href="#DejaVuSans-34"/>
       <use x="63.623047" xlink:href="#DejaVuSans-30"/>
       <use x="127.246094" xlink:href="#DejaVuSans-30"/>
       <use x="190.869141" xlink:href="#DejaVuSans-30"/>
       <use x="254.492188" xlink:href="#DejaVuSans-30"/>
      </g>
     </g>
    </g>
    <g id="ytick_6">
     <g id="line2d_14">
      <g>
       <use style="stroke:#000000;stroke-width:0.8;" x="57.6" xlink:href="#m32ac814e22" y="96.915513"/>
      </g>
     </g>
     <g id="text_14">
      <!-- 50000 -->
      <g transform="translate(18.7875 100.714732)scale(0.1 -0.1)">
       <use xlink:href="#DejaVuSans-35"/>
       <use x="63.623047" xlink:href="#DejaVuSans-30"/>
       <use x="127.246094" xlink:href="#DejaVuSans-30"/>
       <use x="190.869141" xlink:href="#DejaVuSans-30"/>
       <use x="254.492188" xlink:href="#DejaVuSans-30"/>
      </g>
     </g>
    </g>
    <g id="ytick_7">
     <g id="line2d_15">
      <g>
       <use style="stroke:#000000;stroke-width:0.8;" x="57.6" xlink:href="#m32ac814e22" y="73.36567"/>
      </g>
     </g>
     <g id="text_15">
      <!-- 60000 -->
      <defs>
       <path d="M 33.015625 40.375 
Q 26.375 40.375 22.484375 35.828125 
Q 18.609375 31.296875 18.609375 23.390625 
Q 18.609375 15.53125 22.484375 10.953125 
Q 26.375 6.390625 33.015625 6.390625 
Q 39.65625 6.390625 43.53125 10.953125 
Q 47.40625 15.53125 47.40625 23.390625 
Q 47.40625 31.296875 43.53125 35.828125 
Q 39.65625 40.375 33.015625 40.375 
z
M 52.59375 71.296875 
L 52.59375 62.3125 
Q 48.875 64.0625 45.09375 64.984375 
Q 41.3125 65.921875 37.59375 65.921875 
Q 27.828125 65.921875 22.671875 59.328125 
Q 17.53125 52.734375 16.796875 39.40625 
Q 19.671875 43.65625 24.015625 45.921875 
Q 28.375 48.1875 33.59375 48.1875 
Q 44.578125 48.1875 50.953125 41.515625 
Q 57.328125 34.859375 57.328125 23.390625 
Q 57.328125 12.15625 50.6875 5.359375 
Q 44.046875 -1.421875 33.015625 -1.421875 
Q 20.359375 -1.421875 13.671875 8.265625 
Q 6.984375 17.96875 6.984375 36.375 
Q 6.984375 53.65625 15.1875 63.9375 
Q 23.390625 74.21875 37.203125 74.21875 
Q 40.921875 74.21875 44.703125 73.484375 
Q 48.484375 72.75 52.59375 71.296875 
z
" id="DejaVuSans-36"/>
      </defs>
      <g transform="translate(18.7875 77.164889)scale(0.1 -0.1)">
       <use xlink:href="#DejaVuSans-36"/>
       <use x="63.623047" xlink:href="#DejaVuSans-30"/>
       <use x="127.246094" xlink:href="#DejaVuSans-30"/>
       <use x="190.869141" xlink:href="#DejaVuSans-30"/>
       <use x="254.492188" xlink:href="#DejaVuSans-30"/>
      </g>
     </g>
    </g>
    <g id="ytick_8">
     <g id="line2d_16">
      <g>
       <use style="stroke:#000000;stroke-width:0.8;" x="57.6" xlink:href="#m32ac814e22" y="49.815827"/>
      </g>
     </g>
     <g id="text_16">
      <!-- 70000 -->
      <defs>
       <path d="M 8.203125 72.90625 
L 55.078125 72.90625 
L 55.078125 68.703125 
L 28.609375 0 
L 18.3125 0 
L 43.21875 64.59375 
L 8.203125 64.59375 
z
" id="DejaVuSans-37"/>
      </defs>
      <g transform="translate(18.7875 53.615046)scale(0.1 -0.1)">
       <use xlink:href="#DejaVuSans-37"/>
       <use x="63.623047" xlink:href="#DejaVuSans-30"/>
       <use x="127.246094" xlink:href="#DejaVuSans-30"/>
       <use x="190.869141" xlink:href="#DejaVuSans-30"/>
       <use x="254.492188" xlink:href="#DejaVuSans-30"/>
      </g>
     </g>
    </g>
   </g>
   <g id="line2d_17">
    <path clip-path="url(#p3f1ed498f4)" d="M 73.832727 193.128396 
L 77.994965 193.128396 
L 77.994965 191.694211 
L 86.319441 191.738955 
L 86.319441 191.011265 
L 90.481678 191.011265 
L 90.481678 190.27651 
L 94.643916 190.27651 
L 94.643916 189.960942 
L 98.806154 189.960942 
L 98.806154 188.957719 
L 102.968392 188.957719 
L 102.968392 188.514982 
L 107.130629 188.514982 
L 107.130629 188.140539 
L 111.292867 188.140539 
L 111.292867 186.53915 
L 115.455105 186.53915 
L 115.455105 186.652189 
L 119.617343 186.652189 
L 119.617343 184.21478 
L 123.77958 184.21478 
L 123.77958 184.563318 
L 127.941818 184.563318 
L 127.941818 185.135579 
L 136.266294 185.175614 
L 136.266294 186.49205 
L 140.428531 186.49205 
L 140.428531 186.988952 
L 144.590769 186.988952 
L 144.590769 189.701894 
L 148.753007 189.701894 
L 148.753007 188.856454 
L 152.915245 188.856454 
L 152.915245 190.109306 
L 157.077483 190.109306 
L 157.077483 191.715405 
L 161.23972 191.715405 
L 161.23972 189.066048 
L 165.401958 189.066048 
L 165.401958 192.238212 
L 169.564196 192.238212 
L 169.564196 191.771925 
L 173.726434 191.771925 
L 173.726434 192.384221 
L 177.888671 192.384221 
L 177.888671 190.464909 
L 182.050909 190.464909 
L 182.050909 191.965034 
L 186.213147 191.965034 
L 186.213147 192.916447 
L 190.375385 192.916447 
L 190.375385 192.55378 
L 194.537622 192.55378 
L 194.537622 193.945576 
L 198.69986 193.945576 
L 198.69986 192.697434 
L 207.024336 192.751598 
L 207.024336 192.874058 
L 211.186573 192.874058 
L 211.186573 191.581171 
L 215.348811 191.581171 
L 215.348811 192.071008 
L 219.511049 192.071008 
L 219.511049 189.48759 
L 223.673287 189.48759 
L 223.673287 187.203255 
L 227.835524 187.203255 
L 227.835524 186.395496 
L 236.16 186.364881 
L 236.16 186.058733 
L 240.322238 186.058733 
L 240.322238 183.962797 
L 244.484476 183.962797 
L 244.484476 183.480025 
L 248.646713 183.480025 
L 248.646713 181.765597 
L 252.808951 181.765597 
L 252.808951 176.445687 
L 256.971189 176.445687 
L 256.971189 163.088216 
L 261.133427 163.088216 
L 261.133427 145.687237 
L 265.295664 145.687237 
L 265.295664 116.716221 
L 269.457902 116.716221 
L 269.457902 93.842258 
L 273.62014 93.842258 
L 273.62014 60.281377 
L 277.782378 60.281377 
L 277.782378 49.719273 
L 281.944615 49.719273 
L 281.944615 60.229568 
L 286.106853 60.229568 
L 286.106853 93.154603 
L 290.269091 93.154603 
L 290.269091 118.058562 
L 294.431329 118.058562 
L 294.431329 153.432781 
L 298.593566 153.432781 
L 298.593566 177.606695 
L 302.755804 177.606695 
L 302.755804 194.852244 
L 306.918042 194.852244 
L 306.918042 201.432071 
L 311.08028 201.432071 
L 311.08028 204.187402 
L 315.242517 204.187402 
L 315.242517 202.889806 
L 319.404755 202.889806 
L 319.404755 199.776517 
L 323.566993 199.776517 
L 323.566993 195.740074 
L 327.729231 195.740074 
L 327.729231 189.779608 
L 331.891469 189.779608 
L 331.891469 187.561213 
L 336.053706 187.561213 
L 336.053706 187.98982 
L 340.215944 187.98982 
L 340.215944 190.742797 
L 344.378182 190.742797 
L 344.378182 195.652939 
L 348.54042 195.652939 
L 348.54042 199.99082 
L 352.702657 199.99082 
L 352.702657 205.049326 
L 356.864895 205.049326 
L 356.864895 208.819656 
L 361.027133 208.819656 
L 361.027133 210.811973 
L 365.189371 210.811973 
L 365.189371 212.415717 
L 369.351608 212.415717 
L 369.351608 213.190507 
L 373.513846 213.190507 
L 373.513846 213.529625 
L 377.676084 213.529625 
L 377.676084 213.922907 
L 394.325035 214.017107 
L 394.325035 214.068916 
L 398.487273 214.068916 
L 398.487273 214.163116 
" style="fill:none;stroke:#1f77b4;stroke-linecap:square;stroke-width:1.5;"/>
   </g>
   <g id="line2d_18">
    <path clip-path="url(#p3f1ed498f4)" d="M 73.832727 206.94579 
L 77.994965 206.94579 
L 77.994965 205.147202 
L 82.157203 205.147202 
L 82.157203 203.423556 
L 86.319441 203.423556 
L 86.319441 206.870848 
L 90.481678 206.870848 
L 90.481678 205.446967 
L 94.643916 205.446967 
L 94.643916 205.147202 
L 98.806154 205.147202 
L 98.806154 206.046496 
L 102.968392 206.046496 
L 102.968392 205.446967 
L 107.130629 205.446967 
L 107.130629 206.496143 
L 115.455105 206.571084 
L 115.455105 205.222143 
L 119.617343 205.222143 
L 119.617343 207.845083 
L 123.77958 207.845083 
L 123.77958 206.34626 
L 127.941818 206.34626 
L 127.941818 205.821672 
L 132.104056 205.821672 
L 132.104056 206.046496 
L 136.266294 206.046496 
L 136.266294 205.521908 
L 140.428531 205.521908 
L 140.428531 205.971555 
L 148.753007 205.896614 
L 148.753007 205.521908 
L 152.915245 205.521908 
L 152.915245 203.648379 
L 157.077483 203.648379 
L 157.077483 204.847438 
L 161.23972 204.847438 
L 161.23972 204.098026 
L 165.401958 204.098026 
L 165.401958 203.273674 
L 169.564196 203.273674 
L 169.564196 203.798262 
L 173.726434 203.798262 
L 173.726434 204.023085 
L 177.888671 204.023085 
L 177.888671 204.622614 
L 182.050909 204.622614 
L 182.050909 203.04885 
L 186.213147 203.04885 
L 186.213147 202.524262 
L 194.537622 202.599203 
L 194.537622 199.75144 
L 198.69986 199.75144 
L 198.69986 200.350969 
L 202.862098 200.350969 
L 202.862098 199.451675 
L 207.024336 199.451675 
L 207.024336 197.1285 
L 211.186573 197.1285 
L 211.186573 195.779559 
L 215.348811 195.779559 
L 215.348811 194.430619 
L 219.511049 194.430619 
L 219.511049 193.756149 
L 223.673287 193.756149 
L 223.673287 191.88262 
L 227.835524 191.88262 
L 227.835524 188.959915 
L 231.997762 188.959915 
L 231.997762 186.861563 
L 236.16 186.861563 
L 236.16 185.662505 
L 240.322238 185.662505 
L 240.322238 186.861563 
L 244.484476 186.861563 
L 244.484476 183.33933 
L 248.646713 183.33933 
L 248.646713 177.568862 
L 252.808951 177.568862 
L 252.808951 166.102867 
L 256.971189 166.102867 
L 256.971189 149.615816 
L 261.133427 149.615816 
L 261.133427 123.161592 
L 265.295664 123.161592 
L 265.295664 93.784664 
L 269.457902 93.784664 
L 269.457902 74.974438 
L 273.62014 74.974438 
L 273.62014 49.719273 
L 277.782378 49.719273 
L 277.782378 58.937033 
L 281.944615 58.937033 
L 281.944615 70.253146 
L 286.106853 70.253146 
L 286.106853 96.10784 
L 290.269091 96.10784 
L 290.269091 134.327823 
L 294.431329 134.327823 
L 294.431329 162.205928 
L 298.593566 162.205928 
L 298.593566 186.112152 
L 302.755804 186.112152 
L 302.755804 197.877911 
L 306.918042 197.877911 
L 306.918042 203.648379 
L 311.08028 203.648379 
L 311.08028 202.674144 
L 315.242517 202.674144 
L 315.242517 203.573438 
L 319.404755 203.573438 
L 319.404755 198.477441 
L 323.566993 198.477441 
L 323.566993 191.88262 
L 327.729231 191.88262 
L 327.729231 189.784268 
L 331.891469 189.784268 
L 331.891469 190.158974 
L 336.053706 190.158974 
L 336.053706 188.884974 
L 340.215944 188.884974 
L 340.215944 193.906031 
L 344.378182 193.906031 
L 344.378182 197.877911 
L 348.54042 197.877911 
L 348.54042 201.624968 
L 352.702657 201.624968 
L 352.702657 207.320495 
L 356.864895 207.320495 
L 356.864895 210.767788 
L 361.027133 210.767788 
L 361.027133 212.341552 
L 365.189371 212.341552 
L 365.189371 213.54061 
L 369.351608 213.54061 
L 369.351608 214.514845 
L 377.676084 214.514845 
L 377.676084 214.664727 
L 398.487273 214.664727 
L 398.487273 214.664727 
" style="fill:none;stroke:#2ca02c;stroke-linecap:square;stroke-width:1.5;"/>
   </g>
   <g id="patch_3">
    <path d="M 57.6 222.912 
L 57.6 41.472 
" style="fill:none;stroke:#000000;stroke-linecap:square;stroke-linejoin:miter;stroke-width:0.8;"/>
   </g>
   <g id="patch_4">
    <path d="M 414.72 222.912 
L 414.72 41.472 
" style="fill:none;stroke:#000000;stroke-linecap:square;stroke-linejoin:miter;stroke-width:0.8;"/>
   </g>
   <g id="patch_5">
    <path d="M 57.6 222.912 
L 414.72 222.912 
" style="fill:none;stroke:#000000;stroke-linecap:square;stroke-linejoin:miter;stroke-width:0.8;"/>
   </g>
   <g id="patch_6">
    <path d="M 57.6 41.472 
L 414.72 41.472 
" style="fill:none;stroke:#000000;stroke-linecap:square;stroke-linejoin:miter;stroke-width:0.8;"/>
   </g>
   <g id="legend_1">
    <g id="patch_7">
     <path d="M 351.843438 78.82825 
L 407.72 78.82825 
Q 409.72 78.82825 409.72 76.82825 
L 409.72 48.472 
Q 409.72 46.472 407.72 46.472 
L 351.843438 46.472 
Q 349.843438 46.472 349.843438 48.472 
L 349.843438 76.82825 
Q 349.843438 78.82825 351.843438 78.82825 
z
" style="fill:#ffffff;opacity:0.8;stroke:#cccccc;stroke-linejoin:miter;"/>
    </g>
    <g id="line2d_19">
     <path d="M 353.843438 54.570437 
L 373.843438 54.570437 
" style="fill:none;stroke:#1f77b4;stroke-linecap:square;stroke-width:1.5;"/>
    </g>
    <g id="line2d_20"/>
    <g id="text_17">
     <!-- Data -->
     <defs>
      <path d="M 19.671875 64.796875 
L 19.671875 8.109375 
L 31.59375 8.109375 
Q 46.6875 8.109375 53.6875 14.9375 
Q 60.6875 21.78125 60.6875 36.53125 
Q 60.6875 51.171875 53.6875 57.984375 
Q 46.6875 64.796875 31.59375 64.796875 
z
M 9.8125 72.90625 
L 30.078125 72.90625 
Q 51.265625 72.90625 61.171875 64.09375 
Q 71.09375 55.28125 71.09375 36.53125 
Q 71.09375 17.671875 61.125 8.828125 
Q 51.171875 0 30.078125 0 
L 9.8125 0 
z
" id="DejaVuSans-44"/>
      <path d="M 34.28125 27.484375 
Q 23.390625 27.484375 19.1875 25 
Q 14.984375 22.515625 14.984375 16.5 
Q 14.984375 11.71875 18.140625 8.90625 
Q 21.296875 6.109375 26.703125 6.109375 
Q 34.1875 6.109375 38.703125 11.40625 
Q 43.21875 16.703125 43.21875 25.484375 
L 43.21875 27.484375 
z
M 52.203125 31.203125 
L 52.203125 0 
L 43.21875 0 
L 43.21875 8.296875 
Q 40.140625 3.328125 35.546875 0.953125 
Q 30.953125 -1.421875 24.3125 -1.421875 
Q 15.921875 -1.421875 10.953125 3.296875 
Q 6 8.015625 6 15.921875 
Q 6 25.140625 12.171875 29.828125 
Q 18.359375 34.515625 30.609375 34.515625 
L 43.21875 34.515625 
L 43.21875 35.40625 
Q 43.21875 41.609375 39.140625 45 
Q 35.0625 48.390625 27.6875 48.390625 
Q 23 48.390625 18.546875 47.265625 
Q 14.109375 46.140625 10.015625 43.890625 
L 10.015625 52.203125 
Q 14.9375 54.109375 19.578125 55.046875 
Q 24.21875 56 28.609375 56 
Q 40.484375 56 46.34375 49.84375 
Q 52.203125 43.703125 52.203125 31.203125 
z
" id="DejaVuSans-61"/>
      <path d="M 18.3125 70.21875 
L 18.3125 54.6875 
L 36.8125 54.6875 
L 36.8125 47.703125 
L 18.3125 47.703125 
L 18.3125 18.015625 
Q 18.3125 11.328125 20.140625 9.421875 
Q 21.96875 7.515625 27.59375 7.515625 
L 36.8125 7.515625 
L 36.8125 0 
L 27.59375 0 
Q 17.1875 0 13.234375 3.875 
Q 9.28125 7.765625 9.28125 18.015625 
L 9.28125 47.703125 
L 2.6875 47.703125 
L 2.6875 54.6875 
L 9.28125 54.6875 
L 9.28125 70.21875 
z
" id="DejaVuSans-74"/>
     </defs>
     <g transform="translate(381.843438 58.070437)scale(0.1 -0.1)">
      <use xlink:href="#DejaVuSans-44"/>
      <use x="77.001953" xlink:href="#DejaVuSans-61"/>
      <use x="138.28125" xlink:href="#DejaVuSans-74"/>
      <use x="177.490234" xlink:href="#DejaVuSans-61"/>
     </g>
    </g>
    <g id="line2d_21">
     <path d="M 353.843438 69.248562 
L 373.843438 69.248562 
" style="fill:none;stroke:#2ca02c;stroke-linecap:square;stroke-width:1.5;"/>
    </g>
    <g id="line2d_22"/>
    <g id="text_18">
     <!-- MC -->
     <defs>
      <path d="M 9.8125 72.90625 
L 24.515625 72.90625 
L 43.109375 23.296875 
L 61.8125 72.90625 
L 76.515625 72.90625 
L 76.515625 0 
L 66.890625 0 
L 66.890625 64.015625 
L 48.09375 14.015625 
L 38.1875 14.015625 
L 19.390625 64.015625 
L 19.390625 0 
L 9.8125 0 
z
" id="DejaVuSans-4d"/>
      <path d="M 64.40625 67.28125 
L 64.40625 56.890625 
Q 59.421875 61.53125 53.78125 63.8125 
Q 48.140625 66.109375 41.796875 66.109375 
Q 29.296875 66.109375 22.65625 58.46875 
Q 16.015625 50.828125 16.015625 36.375 
Q 16.015625 21.96875 22.65625 14.328125 
Q 29.296875 6.6875 41.796875 6.6875 
Q 48.140625 6.6875 53.78125 8.984375 
Q 59.421875 11.28125 64.40625 15.921875 
L 64.40625 5.609375 
Q 59.234375 2.09375 53.4375 0.328125 
Q 47.65625 -1.421875 41.21875 -1.421875 
Q 24.65625 -1.421875 15.125 8.703125 
Q 5.609375 18.84375 5.609375 36.375 
Q 5.609375 53.953125 15.125 64.078125 
Q 24.65625 74.21875 41.21875 74.21875 
Q 47.75 74.21875 53.53125 72.484375 
Q 59.328125 70.75 64.40625 67.28125 
z
" id="DejaVuSans-43"/>
     </defs>
     <g transform="translate(381.843438 72.748562)scale(0.1 -0.1)">
      <use xlink:href="#DejaVuSans-4d"/>
      <use x="86.279297" xlink:href="#DejaVuSans-43"/>
     </g>
    </g>
   </g>
  </g>
  <g id="axes_2">
   <g id="patch_8">
    <path d="M 57.6 307.584 
L 414.72 307.584 
L 414.72 247.104 
L 57.6 247.104 
z
" style="fill:#ffffff;"/>
   </g>
   <g id="matplotlib.axis_3">
    <g id="xtick_9">
     <g id="line2d_23">
      <path clip-path="url(#pb4e960c989)" d="M 73.832727 307.584 
L 73.832727 247.104 
" style="fill:none;stroke:#b0b0b0;stroke-linecap:square;stroke-width:0.8;"/>
     </g>
     <g id="line2d_24">
      <g>
       <use style="stroke:#000000;stroke-width:0.8;" x="73.832727" xlink:href="#m1c235b0d40" y="307.584"/>
      </g>
     </g>
     <g id="text_19">
      <!-- 20 -->
      <g transform="translate(67.470227 322.182437)scale(0.1 -0.1)">
       <use xlink:href="#DejaVuSans-32"/>
       <use x="63.623047" xlink:href="#DejaVuSans-30"/>
      </g>
     </g>
    </g>
    <g id="xtick_10">
     <g id="line2d_25">
      <path clip-path="url(#pb4e960c989)" d="M 120.806553 307.584 
L 120.806553 247.104 
" style="fill:none;stroke:#b0b0b0;stroke-linecap:square;stroke-width:0.8;"/>
     </g>
     <g id="line2d_26">
      <g>
       <use style="stroke:#000000;stroke-width:0.8;" x="120.806553" xlink:href="#m1c235b0d40" y="307.584"/>
      </g>
     </g>
     <g id="text_20">
      <!-- 25 -->
      <g transform="translate(114.444053 322.182437)scale(0.1 -0.1)">
       <use xlink:href="#DejaVuSans-32"/>
       <use x="63.623047" xlink:href="#DejaVuSans-35"/>
      </g>
     </g>
    </g>
    <g id="xtick_11">
     <g id="line2d_27">
      <path clip-path="url(#pb4e960c989)" d="M 167.78038 307.584 
L 167.78038 247.104 
" style="fill:none;stroke:#b0b0b0;stroke-linecap:square;stroke-width:0.8;"/>
     </g>
     <g id="line2d_28">
      <g>
       <use style="stroke:#000000;stroke-width:0.8;" x="167.78038" xlink:href="#m1c235b0d40" y="307.584"/>
      </g>
     </g>
     <g id="text_21">
      <!-- 30 -->
      <g transform="translate(161.41788 322.182437)scale(0.1 -0.1)">
       <use xlink:href="#DejaVuSans-33"/>
       <use x="63.623047" xlink:href="#DejaVuSans-30"/>
      </g>
     </g>
    </g>
    <g id="xtick_12">
     <g id="line2d_29">
      <path clip-path="url(#pb4e960c989)" d="M 214.754206 307.584 
L 214.754206 247.104 
" style="fill:none;stroke:#b0b0b0;stroke-linecap:square;stroke-width:0.8;"/>
     </g>
     <g id="line2d_30">
      <g>
       <use style="stroke:#000000;stroke-width:0.8;" x="214.754206" xlink:href="#m1c235b0d40" y="307.584"/>
      </g>
     </g>
     <g id="text_22">
      <!-- 35 -->
      <g transform="translate(208.391706 322.182437)scale(0.1 -0.1)">
       <use xlink:href="#DejaVuSans-33"/>
       <use x="63.623047" xlink:href="#DejaVuSans-35"/>
      </g>
     </g>
    </g>
    <g id="xtick_13">
     <g id="line2d_31">
      <path clip-path="url(#pb4e960c989)" d="M 261.728032 307.584 
L 261.728032 247.104 
" style="fill:none;stroke:#b0b0b0;stroke-linecap:square;stroke-width:0.8;"/>
     </g>
     <g id="line2d_32">
      <g>
       <use style="stroke:#000000;stroke-width:0.8;" x="261.728032" xlink:href="#m1c235b0d40" y="307.584"/>
      </g>
     </g>
     <g id="text_23">
      <!-- 40 -->
      <g transform="translate(255.365532 322.182437)scale(0.1 -0.1)">
       <use xlink:href="#DejaVuSans-34"/>
       <use x="63.623047" xlink:href="#DejaVuSans-30"/>
      </g>
     </g>
    </g>
    <g id="xtick_14">
     <g id="line2d_33">
      <path clip-path="url(#pb4e960c989)" d="M 308.701858 307.584 
L 308.701858 247.104 
" style="fill:none;stroke:#b0b0b0;stroke-linecap:square;stroke-width:0.8;"/>
     </g>
     <g id="line2d_34">
      <g>
       <use style="stroke:#000000;stroke-width:0.8;" x="308.701858" xlink:href="#m1c235b0d40" y="307.584"/>
      </g>
     </g>
     <g id="text_24">
      <!-- 45 -->
      <g transform="translate(302.339358 322.182437)scale(0.1 -0.1)">
       <use xlink:href="#DejaVuSans-34"/>
       <use x="63.623047" xlink:href="#DejaVuSans-35"/>
      </g>
     </g>
    </g>
    <g id="xtick_15">
     <g id="line2d_35">
      <path clip-path="url(#pb4e960c989)" d="M 355.675684 307.584 
L 355.675684 247.104 
" style="fill:none;stroke:#b0b0b0;stroke-linecap:square;stroke-width:0.8;"/>
     </g>
     <g id="line2d_36">
      <g>
       <use style="stroke:#000000;stroke-width:0.8;" x="355.675684" xlink:href="#m1c235b0d40" y="307.584"/>
      </g>
     </g>
     <g id="text_25">
      <!-- 50 -->
      <g transform="translate(349.313184 322.182437)scale(0.1 -0.1)">
       <use xlink:href="#DejaVuSans-35"/>
       <use x="63.623047" xlink:href="#DejaVuSans-30"/>
      </g>
     </g>
    </g>
    <g id="xtick_16">
     <g id="line2d_37">
      <path clip-path="url(#pb4e960c989)" d="M 402.64951 307.584 
L 402.64951 247.104 
" style="fill:none;stroke:#b0b0b0;stroke-linecap:square;stroke-width:0.8;"/>
     </g>
     <g id="line2d_38">
      <g>
       <use style="stroke:#000000;stroke-width:0.8;" x="402.64951" xlink:href="#m1c235b0d40" y="307.584"/>
      </g>
     </g>
     <g id="text_26">
      <!-- 55 -->
      <g transform="translate(396.28701 322.182437)scale(0.1 -0.1)">
       <use xlink:href="#DejaVuSans-35"/>
       <use x="63.623047" xlink:href="#DejaVuSans-35"/>
      </g>
     </g>
    </g>
    <g id="text_27">
     <!-- Energy (keV) -->
     <defs>
      <path d="M 9.8125 72.90625 
L 55.90625 72.90625 
L 55.90625 64.59375 
L 19.671875 64.59375 
L 19.671875 43.015625 
L 54.390625 43.015625 
L 54.390625 34.71875 
L 19.671875 34.71875 
L 19.671875 8.296875 
L 56.78125 8.296875 
L 56.78125 0 
L 9.8125 0 
z
" id="DejaVuSans-45"/>
      <path d="M 54.890625 33.015625 
L 54.890625 0 
L 45.90625 0 
L 45.90625 32.71875 
Q 45.90625 40.484375 42.875 44.328125 
Q 39.84375 48.1875 33.796875 48.1875 
Q 26.515625 48.1875 22.3125 43.546875 
Q 18.109375 38.921875 18.109375 30.90625 
L 18.109375 0 
L 9.078125 0 
L 9.078125 54.6875 
L 18.109375 54.6875 
L 18.109375 46.1875 
Q 21.34375 51.125 25.703125 53.5625 
Q 30.078125 56 35.796875 56 
Q 45.21875 56 50.046875 50.171875 
Q 54.890625 44.34375 54.890625 33.015625 
z
" id="DejaVuSans-6e"/>
      <path d="M 56.203125 29.59375 
L 56.203125 25.203125 
L 14.890625 25.203125 
Q 15.484375 15.921875 20.484375 11.0625 
Q 25.484375 6.203125 34.421875 6.203125 
Q 39.59375 6.203125 44.453125 7.46875 
Q 49.3125 8.734375 54.109375 11.28125 
L 54.109375 2.78125 
Q 49.265625 0.734375 44.1875 -0.34375 
Q 39.109375 -1.421875 33.890625 -1.421875 
Q 20.796875 -1.421875 13.15625 6.1875 
Q 5.515625 13.8125 5.515625 26.8125 
Q 5.515625 40.234375 12.765625 48.109375 
Q 20.015625 56 32.328125 56 
Q 43.359375 56 49.78125 48.890625 
Q 56.203125 41.796875 56.203125 29.59375 
z
M 47.21875 32.234375 
Q 47.125 39.59375 43.09375 43.984375 
Q 39.0625 48.390625 32.421875 48.390625 
Q 24.90625 48.390625 20.390625 44.140625 
Q 15.875 39.890625 15.1875 32.171875 
z
" id="DejaVuSans-65"/>
      <path d="M 41.109375 46.296875 
Q 39.59375 47.171875 37.8125 47.578125 
Q 36.03125 48 33.890625 48 
Q 26.265625 48 22.1875 43.046875 
Q 18.109375 38.09375 18.109375 28.8125 
L 18.109375 0 
L 9.078125 0 
L 9.078125 54.6875 
L 18.109375 54.6875 
L 18.109375 46.1875 
Q 20.953125 51.171875 25.484375 53.578125 
Q 30.03125 56 36.53125 56 
Q 37.453125 56 38.578125 55.875 
Q 39.703125 55.765625 41.0625 55.515625 
z
" id="DejaVuSans-72"/>
      <path d="M 45.40625 27.984375 
Q 45.40625 37.75 41.375 43.109375 
Q 37.359375 48.484375 30.078125 48.484375 
Q 22.859375 48.484375 18.828125 43.109375 
Q 14.796875 37.75 14.796875 27.984375 
Q 14.796875 18.265625 18.828125 12.890625 
Q 22.859375 7.515625 30.078125 7.515625 
Q 37.359375 7.515625 41.375 12.890625 
Q 45.40625 18.265625 45.40625 27.984375 
z
M 54.390625 6.78125 
Q 54.390625 -7.171875 48.1875 -13.984375 
Q 42 -20.796875 29.203125 -20.796875 
Q 24.46875 -20.796875 20.265625 -20.09375 
Q 16.0625 -19.390625 12.109375 -17.921875 
L 12.109375 -9.1875 
Q 16.0625 -11.328125 19.921875 -12.34375 
Q 23.78125 -13.375 27.78125 -13.375 
Q 36.625 -13.375 41.015625 -8.765625 
Q 45.40625 -4.15625 45.40625 5.171875 
L 45.40625 9.625 
Q 42.625 4.78125 38.28125 2.390625 
Q 33.9375 0 27.875 0 
Q 17.828125 0 11.671875 7.65625 
Q 5.515625 15.328125 5.515625 27.984375 
Q 5.515625 40.671875 11.671875 48.328125 
Q 17.828125 56 27.875 56 
Q 33.9375 56 38.28125 53.609375 
Q 42.625 51.21875 45.40625 46.390625 
L 45.40625 54.6875 
L 54.390625 54.6875 
z
" id="DejaVuSans-67"/>
      <path d="M 32.171875 -5.078125 
Q 28.375 -14.84375 24.75 -17.8125 
Q 21.140625 -20.796875 15.09375 -20.796875 
L 7.90625 -20.796875 
L 7.90625 -13.28125 
L 13.1875 -13.28125 
Q 16.890625 -13.28125 18.9375 -11.515625 
Q 21 -9.765625 23.484375 -3.21875 
L 25.09375 0.875 
L 2.984375 54.6875 
L 12.5 54.6875 
L 29.59375 11.921875 
L 46.6875 54.6875 
L 56.203125 54.6875 
z
" id="DejaVuSans-79"/>
      <path id="DejaVuSans-20"/>
      <path d="M 31 75.875 
Q 24.46875 64.65625 21.28125 53.65625 
Q 18.109375 42.671875 18.109375 31.390625 
Q 18.109375 20.125 21.3125 9.0625 
Q 24.515625 -2 31 -13.1875 
L 23.1875 -13.1875 
Q 15.875 -1.703125 12.234375 9.375 
Q 8.59375 20.453125 8.59375 31.390625 
Q 8.59375 42.28125 12.203125 53.3125 
Q 15.828125 64.359375 23.1875 75.875 
z
" id="DejaVuSans-28"/>
      <path d="M 9.078125 75.984375 
L 18.109375 75.984375 
L 18.109375 31.109375 
L 44.921875 54.6875 
L 56.390625 54.6875 
L 27.390625 29.109375 
L 57.625 0 
L 45.90625 0 
L 18.109375 26.703125 
L 18.109375 0 
L 9.078125 0 
z
" id="DejaVuSans-6b"/>
      <path d="M 28.609375 0 
L 0.78125 72.90625 
L 11.078125 72.90625 
L 34.1875 11.53125 
L 57.328125 72.90625 
L 67.578125 72.90625 
L 39.796875 0 
z
" id="DejaVuSans-56"/>
      <path d="M 8.015625 75.875 
L 15.828125 75.875 
Q 23.140625 64.359375 26.78125 53.3125 
Q 30.421875 42.28125 30.421875 31.390625 
Q 30.421875 20.453125 26.78125 9.375 
Q 23.140625 -1.703125 15.828125 -13.1875 
L 8.015625 -13.1875 
Q 14.5 -2 17.703125 9.0625 
Q 20.90625 20.125 20.90625 31.390625 
Q 20.90625 42.671875 17.703125 53.65625 
Q 14.5 64.65625 8.015625 75.875 
z
" id="DejaVuSans-29"/>
     </defs>
     <g transform="translate(203.686562 335.860562)scale(0.1 -0.1)">
      <use xlink:href="#DejaVuSans-45"/>
      <use x="63.183594" xlink:href="#DejaVuSans-6e"/>
      <use x="126.5625" xlink:href="#DejaVuSans-65"/>
      <use x="188.085938" xlink:href="#DejaVuSans-72"/>
      <use x="229.183594" xlink:href="#DejaVuSans-67"/>
      <use x="292.660156" xlink:href="#DejaVuSans-79"/>
      <use x="351.839844" xlink:href="#DejaVuSans-20"/>
      <use x="383.626953" xlink:href="#DejaVuSans-28"/>
      <use x="422.640625" xlink:href="#DejaVuSans-6b"/>
      <use x="480.503906" xlink:href="#DejaVuSans-65"/>
      <use x="542.027344" xlink:href="#DejaVuSans-56"/>
      <use x="610.435547" xlink:href="#DejaVuSans-29"/>
     </g>
    </g>
   </g>
   <g id="matplotlib.axis_4">
    <g id="ytick_9">
     <g id="line2d_39">
      <path clip-path="url(#pb4e960c989)" d="M 57.6 297.504 
L 414.72 297.504 
" style="fill:none;stroke:#b0b0b0;stroke-linecap:square;stroke-width:0.8;"/>
     </g>
     <g id="line2d_40">
      <g>
       <use style="stroke:#000000;stroke-width:0.8;" x="57.6" xlink:href="#m32ac814e22" y="297.504"/>
      </g>
     </g>
     <g id="text_28">
      <!-- −0.2 -->
      <defs>
       <path d="M 10.59375 35.5 
L 73.1875 35.5 
L 73.1875 27.203125 
L 10.59375 27.203125 
z
" id="DejaVuSans-2212"/>
       <path d="M 10.6875 12.40625 
L 21 12.40625 
L 21 0 
L 10.6875 0 
z
" id="DejaVuSans-2e"/>
      </defs>
      <g transform="translate(26.317187 301.303219)scale(0.1 -0.1)">
       <use xlink:href="#DejaVuSans-2212"/>
       <use x="83.789062" xlink:href="#DejaVuSans-30"/>
       <use x="147.412109" xlink:href="#DejaVuSans-2e"/>
       <use x="179.199219" xlink:href="#DejaVuSans-32"/>
      </g>
     </g>
    </g>
    <g id="ytick_10">
     <g id="line2d_41">
      <path clip-path="url(#pb4e960c989)" d="M 57.6 277.344 
L 414.72 277.344 
" style="fill:none;stroke:#b0b0b0;stroke-linecap:square;stroke-width:0.8;"/>
     </g>
     <g id="line2d_42">
      <g>
       <use style="stroke:#000000;stroke-width:0.8;" x="57.6" xlink:href="#m32ac814e22" y="277.344"/>
      </g>
     </g>
     <g id="text_29">
      <!-- 0.0 -->
      <g transform="translate(34.696875 281.143219)scale(0.1 -0.1)">
       <use xlink:href="#DejaVuSans-30"/>
       <use x="63.623047" xlink:href="#DejaVuSans-2e"/>
       <use x="95.410156" xlink:href="#DejaVuSans-30"/>
      </g>
     </g>
    </g>
    <g id="ytick_11">
     <g id="line2d_43">
      <path clip-path="url(#pb4e960c989)" d="M 57.6 257.184 
L 414.72 257.184 
" style="fill:none;stroke:#b0b0b0;stroke-linecap:square;stroke-width:0.8;"/>
     </g>
     <g id="line2d_44">
      <g>
       <use style="stroke:#000000;stroke-width:0.8;" x="57.6" xlink:href="#m32ac814e22" y="257.184"/>
      </g>
     </g>
     <g id="text_30">
      <!-- 0.2 -->
      <g transform="translate(34.696875 260.983219)scale(0.1 -0.1)">
       <use xlink:href="#DejaVuSans-30"/>
       <use x="63.623047" xlink:href="#DejaVuSans-2e"/>
       <use x="95.410156" xlink:href="#DejaVuSans-32"/>
      </g>
     </g>
    </g>
    <g id="text_31">
     <!-- (Data - MC)/(Data + MC) -->
     <defs>
      <path d="M 4.890625 31.390625 
L 31.203125 31.390625 
L 31.203125 23.390625 
L 4.890625 23.390625 
z
" id="DejaVuSans-2d"/>
      <path d="M 25.390625 72.90625 
L 33.6875 72.90625 
L 8.296875 -9.28125 
L 0 -9.28125 
z
" id="DejaVuSans-2f"/>
      <path d="M 46 62.703125 
L 46 35.5 
L 73.1875 35.5 
L 73.1875 27.203125 
L 46 27.203125 
L 46 0 
L 37.796875 0 
L 37.796875 27.203125 
L 10.59375 27.203125 
L 10.59375 35.5 
L 37.796875 35.5 
L 37.796875 62.703125 
z
" id="DejaVuSans-2b"/>
     </defs>
     <g transform="translate(20.2375 338.669)rotate(-90)scale(0.1 -0.1)">
      <use xlink:href="#DejaVuSans-28"/>
      <use x="39.013672" xlink:href="#DejaVuSans-44"/>
      <use x="116.015625" xlink:href="#DejaVuSans-61"/>
      <use x="177.294922" xlink:href="#DejaVuSans-74"/>
      <use x="216.503906" xlink:href="#DejaVuSans-61"/>
      <use x="277.783203" xlink:href="#DejaVuSans-20"/>
      <use x="309.570312" xlink:href="#DejaVuSans-2d"/>
      <use x="345.654297" xlink:href="#DejaVuSans-20"/>
      <use x="377.441406" xlink:href="#DejaVuSans-4d"/>
      <use x="463.720703" xlink:href="#DejaVuSans-43"/>
      <use x="533.544922" xlink:href="#DejaVuSans-29"/>
      <use x="572.558594" xlink:href="#DejaVuSans-2f"/>
      <use x="606.25" xlink:href="#DejaVuSans-28"/>
      <use x="645.263672" xlink:href="#DejaVuSans-44"/>
      <use x="722.265625" xlink:href="#DejaVuSans-61"/>
      <use x="783.544922" xlink:href="#DejaVuSans-74"/>
      <use x="822.753906" xlink:href="#DejaVuSans-61"/>
      <use x="884.033203" xlink:href="#DejaVuSans-20"/>
      <use x="915.820312" xlink:href="#DejaVuSans-2b"/>
      <use x="999.609375" xlink:href="#DejaVuSans-20"/>
      <use x="1031.396484" xlink:href="#DejaVuSans-4d"/>
      <use x="1117.675781" xlink:href="#DejaVuSans-43"/>
      <use x="1187.5" xlink:href="#DejaVuSans-29"/>
     </g>
    </g>
   </g>
   <g id="LineCollection_1">
    <path clip-path="url(#pb4e960c989)" d="M 73.832727 230.14518 
L 73.832727 229.326244 
" style="fill:none;stroke:#000000;stroke-width:1.5;"/>
    <path clip-path="url(#pb4e960c989)" d="M 77.994965 236.026482 
L 77.994965 235.180859 
" style="fill:none;stroke:#000000;stroke-width:1.5;"/>
    <path clip-path="url(#pb4e960c989)" d="M 82.157203 243.322929 
L 82.157203 242.420785 
" style="fill:none;stroke:#000000;stroke-width:1.5;"/>
    <path clip-path="url(#pb4e960c989)" d="M 86.319441 226.883339 
L 86.319441 226.133362 
" style="fill:none;stroke:#000000;stroke-width:1.5;"/>
    <path clip-path="url(#pb4e960c989)" d="M 90.481678 232.235062 
L 90.481678 231.446389 
" style="fill:none;stroke:#000000;stroke-width:1.5;"/>
    <path clip-path="url(#pb4e960c989)" d="M 94.643916 233.007551 
L 94.643916 232.217187 
" style="fill:none;stroke:#000000;stroke-width:1.5;"/>
    <path clip-path="url(#pb4e960c989)" d="M 98.806154 227.523676 
L 98.806154 226.79802 
" style="fill:none;stroke:#000000;stroke-width:1.5;"/>
    <path clip-path="url(#pb4e960c989)" d="M 102.968392 229.455262 
L 102.968392 228.717927 
" style="fill:none;stroke:#000000;stroke-width:1.5;"/>
    <path clip-path="url(#pb4e960c989)" d="M 107.130629 224.353674 
L 107.130629 223.669756 
" style="fill:none;stroke:#000000;stroke-width:1.5;"/>
    <path clip-path="url(#pb4e960c989)" d="M 111.292867 221.914184 
L 111.292867 221.273961 
" style="fill:none;stroke:#000000;stroke-width:1.5;"/>
    <path clip-path="url(#pb4e960c989)" d="M 115.455105 227.716676 
L 115.455105 227.019634 
" style="fill:none;stroke:#000000;stroke-width:1.5;"/>
    <path clip-path="url(#pb4e960c989)" d="M 119.617343 213.698113 
L 119.617343 213.16801 
" style="fill:none;stroke:#000000;stroke-width:1.5;"/>
    <path clip-path="url(#pb4e960c989)" d="M 123.77958 220.495847 
L 123.77958 219.890869 
" style="fill:none;stroke:#000000;stroke-width:1.5;"/>
    <path clip-path="url(#pb4e960c989)" d="M 127.941818 223.322954 
L 127.941818 222.684384 
" style="fill:none;stroke:#000000;stroke-width:1.5;"/>
    <path clip-path="url(#pb4e960c989)" d="M 132.104056 222.452485 
L 132.104056 221.821897 
" style="fill:none;stroke:#000000;stroke-width:1.5;"/>
    <path clip-path="url(#pb4e960c989)" d="M 136.266294 226.279782 
L 136.266294 225.597867 
" style="fill:none;stroke:#000000;stroke-width:1.5;"/>
    <path clip-path="url(#pb4e960c989)" d="M 140.428531 225.07017 
L 140.428531 224.393649 
" style="fill:none;stroke:#000000;stroke-width:1.5;"/>
    <path clip-path="url(#pb4e960c989)" d="M 144.590769 229.325136 
L 144.590769 228.571763 
" style="fill:none;stroke:#000000;stroke-width:1.5;"/>
    <path clip-path="url(#pb4e960c989)" d="M 148.753007 229.652314 
L 148.753007 228.908349 
" style="fill:none;stroke:#000000;stroke-width:1.5;"/>
    <path clip-path="url(#pb4e960c989)" d="M 152.915245 239.400293 
L 152.915245 238.556152 
" style="fill:none;stroke:#000000;stroke-width:1.5;"/>
    <path clip-path="url(#pb4e960c989)" d="M 157.077483 237.374447 
L 157.077483 236.517353 
" style="fill:none;stroke:#000000;stroke-width:1.5;"/>
    <path clip-path="url(#pb4e960c989)" d="M 161.23972 235.846828 
L 161.23972 235.047036 
" style="fill:none;stroke:#000000;stroke-width:1.5;"/>
    <path clip-path="url(#pb4e960c989)" d="M 165.401958 244.91208 
L 165.401958 243.989137 
" style="fill:none;stroke:#000000;stroke-width:1.5;"/>
    <path clip-path="url(#pb4e960c989)" d="M 169.564196 241.881512 
L 169.564196 240.988892 
" style="fill:none;stroke:#000000;stroke-width:1.5;"/>
    <path clip-path="url(#pb4e960c989)" d="M 173.726434 242.161889 
L 173.726434 241.255094 
" style="fill:none;stroke:#000000;stroke-width:1.5;"/>
    <path clip-path="url(#pb4e960c989)" d="M 177.888671 236.079316 
L 177.888671 235.254933 
" style="fill:none;stroke:#000000;stroke-width:1.5;"/>
    <path clip-path="url(#pb4e960c989)" d="M 182.050909 245.245726 
L 182.050909 244.326137 
" style="fill:none;stroke:#000000;stroke-width:1.5;"/>
    <path clip-path="url(#pb4e960c989)" d="M 186.213147 249.248447 
L 186.213147 248.283838 
" style="fill:none;stroke:#000000;stroke-width:1.5;"/>
    <path clip-path="url(#pb4e960c989)" d="M 190.375385 248.191257 
L 190.375385 247.240849 
" style="fill:none;stroke:#000000;stroke-width:1.5;"/>
    <path clip-path="url(#pb4e960c989)" d="M 194.537622 261.442951 
L 194.537622 260.396827 
" style="fill:none;stroke:#000000;stroke-width:1.5;"/>
    <path clip-path="url(#pb4e960c989)" d="M 198.69986 256.578725 
L 198.69986 255.581492 
" style="fill:none;stroke:#000000;stroke-width:1.5;"/>
    <path clip-path="url(#pb4e960c989)" d="M 202.862098 259.658321 
L 202.862098 258.647388 
" style="fill:none;stroke:#000000;stroke-width:1.5;"/>
    <path clip-path="url(#pb4e960c989)" d="M 207.024336 266.957123 
L 207.024336 265.921488 
" style="fill:none;stroke:#000000;stroke-width:1.5;"/>
    <path clip-path="url(#pb4e960c989)" d="M 211.186573 267.76433 
L 211.186573 266.756389 
" style="fill:none;stroke:#000000;stroke-width:1.5;"/>
    <path clip-path="url(#pb4e960c989)" d="M 215.348811 272.303388 
L 215.348811 271.277405 
" style="fill:none;stroke:#000000;stroke-width:1.5;"/>
    <path clip-path="url(#pb4e960c989)" d="M 219.511049 268.490945 
L 219.511049 267.524428 
" style="fill:none;stroke:#000000;stroke-width:1.5;"/>
    <path clip-path="url(#pb4e960c989)" d="M 223.673287 268.418813 
L 223.673287 267.493457 
" style="fill:none;stroke:#000000;stroke-width:1.5;"/>
    <path clip-path="url(#pb4e960c989)" d="M 227.835524 273.013753 
L 227.835524 272.09581 
" style="fill:none;stroke:#000000;stroke-width:1.5;"/>
    <path clip-path="url(#pb4e960c989)" d="M 231.997762 276.911339 
L 231.997762 275.991888 
" style="fill:none;stroke:#000000;stroke-width:1.5;"/>
    <path clip-path="url(#pb4e960c989)" d="M 236.16 278.494573 
L 236.16 277.580027 
" style="fill:none;stroke:#000000;stroke-width:1.5;"/>
    <path clip-path="url(#pb4e960c989)" d="M 240.322238 272.789963 
L 240.322238 271.909312 
" style="fill:none;stroke:#000000;stroke-width:1.5;"/>
    <path clip-path="url(#pb4e960c989)" d="M 244.484476 278.008854 
L 244.484476 277.1329 
" style="fill:none;stroke:#000000;stroke-width:1.5;"/>
    <path clip-path="url(#pb4e960c989)" d="M 248.646713 283.812612 
L 248.646713 282.962849 
" style="fill:none;stroke:#000000;stroke-width:1.5;"/>
    <path clip-path="url(#pb4e960c989)" d="M 252.808951 289.747667 
L 252.808951 288.967654 
" style="fill:none;stroke:#000000;stroke-width:1.5;"/>
    <path clip-path="url(#pb4e960c989)" d="M 256.971189 289.32429 
L 256.971189 288.652252 
" style="fill:none;stroke:#000000;stroke-width:1.5;"/>
    <path clip-path="url(#pb4e960c989)" d="M 261.133427 291.781343 
L 261.133427 291.203967 
" style="fill:none;stroke:#000000;stroke-width:1.5;"/>
    <path clip-path="url(#pb4e960c989)" d="M 265.295664 288.151483 
L 265.295664 287.662651 
" style="fill:none;stroke:#000000;stroke-width:1.5;"/>
    <path clip-path="url(#pb4e960c989)" d="M 269.457902 284.865855 
L 269.457902 284.423168 
" style="fill:none;stroke:#000000;stroke-width:1.5;"/>
    <path clip-path="url(#pb4e960c989)" d="M 273.62014 280.874686 
L 273.62014 280.481426 
" style="fill:none;stroke:#000000;stroke-width:1.5;"/>
    <path clip-path="url(#pb4e960c989)" d="M 277.782378 274.636782 
L 277.782378 274.25622 
" style="fill:none;stroke:#000000;stroke-width:1.5;"/>
    <path clip-path="url(#pb4e960c989)" d="M 281.944615 274.159671 
L 281.944615 273.76649 
" style="fill:none;stroke:#000000;stroke-width:1.5;"/>
    <path clip-path="url(#pb4e960c989)" d="M 286.106853 276.325833 
L 286.106853 275.88214 
" style="fill:none;stroke:#000000;stroke-width:1.5;"/>
    <path clip-path="url(#pb4e960c989)" d="M 290.269091 268.32255 
L 290.269091 267.829076 
" style="fill:none;stroke:#000000;stroke-width:1.5;"/>
    <path clip-path="url(#pb4e960c989)" d="M 294.431329 269.876291 
L 294.431329 269.25489 
" style="fill:none;stroke:#000000;stroke-width:1.5;"/>
    <path clip-path="url(#pb4e960c989)" d="M 298.593566 264.671775 
L 298.593566 263.881728 
" style="fill:none;stroke:#000000;stroke-width:1.5;"/>
    <path clip-path="url(#pb4e960c989)" d="M 302.755804 269.556585 
L 302.755804 268.465127 
" style="fill:none;stroke:#000000;stroke-width:1.5;"/>
    <path clip-path="url(#pb4e960c989)" d="M 306.918042 268.797831 
L 306.918042 267.464347 
" style="fill:none;stroke:#000000;stroke-width:1.5;"/>
    <path clip-path="url(#pb4e960c989)" d="M 311.08028 284.885263 
L 311.08028 283.380893 
" style="fill:none;stroke:#000000;stroke-width:1.5;"/>
    <path clip-path="url(#pb4e960c989)" d="M 315.242517 275.042503 
L 315.242517 273.61825 
" style="fill:none;stroke:#000000;stroke-width:1.5;"/>
    <path clip-path="url(#pb4e960c989)" d="M 319.404755 282.190597 
L 319.404755 280.925063 
" style="fill:none;stroke:#000000;stroke-width:1.5;"/>
    <path clip-path="url(#pb4e960c989)" d="M 323.566993 287.224397 
L 323.566993 286.109564 
" style="fill:none;stroke:#000000;stroke-width:1.5;"/>
    <path clip-path="url(#pb4e960c989)" d="M 327.729231 277.824854 
L 327.729231 276.84427 
" style="fill:none;stroke:#000000;stroke-width:1.5;"/>
    <path clip-path="url(#pb4e960c989)" d="M 331.891469 272.738825 
L 331.891469 271.801608 
" style="fill:none;stroke:#000000;stroke-width:1.5;"/>
    <path clip-path="url(#pb4e960c989)" d="M 336.053706 276.097239 
L 336.053706 275.150399 
" style="fill:none;stroke:#000000;stroke-width:1.5;"/>
    <path clip-path="url(#pb4e960c989)" d="M 340.215944 270.705267 
L 340.215944 269.71015 
" style="fill:none;stroke:#000000;stroke-width:1.5;"/>
    <path clip-path="url(#pb4e960c989)" d="M 344.378182 271.637798 
L 344.378182 270.520261 
" style="fill:none;stroke:#000000;stroke-width:1.5;"/>
    <path clip-path="url(#pb4e960c989)" d="M 348.54042 272.036551 
L 348.54042 270.764018 
" style="fill:none;stroke:#000000;stroke-width:1.5;"/>
    <path clip-path="url(#pb4e960c989)" d="M 352.702657 264.619859 
L 352.702657 263.070644 
" style="fill:none;stroke:#000000;stroke-width:1.5;"/>
    <path clip-path="url(#pb4e960c989)" d="M 356.864895 258.157993 
L 356.864895 256.215605 
" style="fill:none;stroke:#000000;stroke-width:1.5;"/>
    <path clip-path="url(#pb4e960c989)" d="M 361.027133 253.548714 
L 361.027133 251.209459 
" style="fill:none;stroke:#000000;stroke-width:1.5;"/>
    <path clip-path="url(#pb4e960c989)" d="M 365.189371 245.178073 
L 365.189371 242.279019 
" style="fill:none;stroke:#000000;stroke-width:1.5;"/>
    <path clip-path="url(#pb4e960c989)" d="M 369.351608 195.82388 
L 369.351608 194.473926 
" style="fill:none;stroke:#000000;stroke-width:1.5;"/>
    <path clip-path="url(#pb4e960c989)" d="M 373.513846 201.005028 
L 373.513846 199.112743 
" style="fill:none;stroke:#000000;stroke-width:1.5;"/>
    <path clip-path="url(#pb4e960c989)" d="M 377.676084 176.544 
L 377.676084 176.544 
" style="fill:none;stroke:#000000;stroke-width:1.5;"/>
    <path clip-path="url(#pb4e960c989)" d="M 381.838322 176.544 
L 381.838322 176.544 
" style="fill:none;stroke:#000000;stroke-width:1.5;"/>
    <path clip-path="url(#pb4e960c989)" d="M 386.000559 198.365006 
L 386.000559 196.136316 
" style="fill:none;stroke:#000000;stroke-width:1.5;"/>
    <path clip-path="url(#pb4e960c989)" d="M 390.162797 176.544 
L 390.162797 176.544 
" style="fill:none;stroke:#000000;stroke-width:1.5;"/>
    <path clip-path="url(#pb4e960c989)" d="M 394.325035 176.544 
L 394.325035 176.544 
" style="fill:none;stroke:#000000;stroke-width:1.5;"/>
    <path clip-path="url(#pb4e960c989)" d="M 398.487273 176.544 
L 398.487273 176.544 
" style="fill:none;stroke:#000000;stroke-width:1.5;"/>
   </g>
   <g id="line2d_45">
    <path clip-path="url(#pb4e960c989)" d="M 57.6 277.344 
L 414.72 277.344 
" style="fill:none;stroke:#000000;stroke-dasharray:5.55,2.4;stroke-dashoffset:0;stroke-width:1.5;"/>
   </g>
   <g id="line2d_46">
    <path clip-path="url(#pb4e960c989)" d="M 73.832727 234.409401 
L 77.994965 234.254468 
L 82.157203 233.657112 
L 86.319441 232.699265 
L 90.481678 231.462853 
L 94.643916 230.029807 
L 98.806154 228.482055 
L 102.968392 226.901525 
L 107.130629 225.370147 
L 111.292867 223.96985 
L 115.455105 222.782562 
L 119.617343 222.126237 
L 123.77958 221.779537 
L 127.941818 223.02222 
L 132.104056 223.688936 
L 136.266294 225.488215 
L 140.428531 227.124255 
L 144.590769 228.622511 
L 148.753007 230.808668 
L 152.915245 232.223442 
L 157.077483 234.273605 
L 161.23972 236.8941 
L 165.401958 238.270865 
L 169.564196 240.231081 
L 173.726434 242.317389 
L 177.888671 244.755207 
L 182.050909 247.447609 
L 186.213147 249.674111 
L 190.375385 251.923366 
L 194.537622 254.097274 
L 198.69986 257.353904 
L 202.862098 260.053637 
L 207.024336 262.187952 
L 211.186573 264.687391 
L 215.348811 267.189063 
L 219.511049 269.55741 
L 223.673287 271.495718 
L 227.835524 273.852547 
L 231.997762 276.274328 
L 236.16 278.329971 
L 240.322238 280.646894 
L 244.484476 281.84439 
L 248.646713 283.046731 
L 252.808951 283.902777 
L 256.971189 284.499137 
L 261.133427 284.466564 
L 265.295664 283.695932 
L 269.457902 281.419743 
L 273.62014 279.994678 
L 277.782378 278.220986 
L 281.944615 276.373704 
L 286.106853 274.805471 
L 290.269091 273.730104 
L 294.431329 272.753485 
L 298.593566 272.719816 
L 302.755804 272.787267 
L 306.918042 273.321651 
L 311.08028 274.376458 
L 315.242517 275.626973 
L 319.404755 276.65545 
L 323.566993 277.263675 
L 327.729231 279.791928 
L 331.891469 280.060448 
L 336.053706 279.231307 
L 340.215944 276.06528 
L 344.378182 269.148473 
L 348.54042 262.448571 
L 352.702657 254.055565 
L 356.864895 245.761824 
L 361.027133 235.72484 
L 365.189371 225.503325 
L 369.351608 215.401602 
L 373.513846 205.723994 
L 377.676084 196.774827 
L 381.838322 188.858424 
L 386.000559 182.279107 
L 390.162797 177.341203 
L 394.325035 174.349033 
L 398.487273 173.606923 
" style="fill:none;stroke:#000000;stroke-linecap:square;stroke-width:1.5;"/>
   </g>
   <g id="line2d_47">
    <defs>
     <path d="M -3 3 
L 3 -3 
M -3 -3 
L 3 3 
" id="m02e54452f2" style="stroke:#000000;"/>
    </defs>
    <g clip-path="url(#pb4e960c989)">
     <use style="stroke:#000000;" x="73.832727" xlink:href="#m02e54452f2" y="229.735712"/>
     <use style="stroke:#000000;" x="77.994965" xlink:href="#m02e54452f2" y="235.603671"/>
     <use style="stroke:#000000;" x="82.157203" xlink:href="#m02e54452f2" y="242.871857"/>
     <use style="stroke:#000000;" x="86.319441" xlink:href="#m02e54452f2" y="226.508351"/>
     <use style="stroke:#000000;" x="90.481678" xlink:href="#m02e54452f2" y="231.840725"/>
     <use style="stroke:#000000;" x="94.643916" xlink:href="#m02e54452f2" y="232.612369"/>
     <use style="stroke:#000000;" x="98.806154" xlink:href="#m02e54452f2" y="227.160848"/>
     <use style="stroke:#000000;" x="102.968392" xlink:href="#m02e54452f2" y="229.086594"/>
     <use style="stroke:#000000;" x="107.130629" xlink:href="#m02e54452f2" y="224.011715"/>
     <use style="stroke:#000000;" x="111.292867" xlink:href="#m02e54452f2" y="221.594072"/>
     <use style="stroke:#000000;" x="115.455105" xlink:href="#m02e54452f2" y="227.368155"/>
     <use style="stroke:#000000;" x="119.617343" xlink:href="#m02e54452f2" y="213.433061"/>
     <use style="stroke:#000000;" x="123.77958" xlink:href="#m02e54452f2" y="220.193358"/>
     <use style="stroke:#000000;" x="127.941818" xlink:href="#m02e54452f2" y="223.003669"/>
     <use style="stroke:#000000;" x="132.104056" xlink:href="#m02e54452f2" y="222.137191"/>
     <use style="stroke:#000000;" x="136.266294" xlink:href="#m02e54452f2" y="225.938824"/>
     <use style="stroke:#000000;" x="140.428531" xlink:href="#m02e54452f2" y="224.73191"/>
     <use style="stroke:#000000;" x="144.590769" xlink:href="#m02e54452f2" y="228.94845"/>
     <use style="stroke:#000000;" x="148.753007" xlink:href="#m02e54452f2" y="229.280332"/>
     <use style="stroke:#000000;" x="152.915245" xlink:href="#m02e54452f2" y="238.978222"/>
     <use style="stroke:#000000;" x="157.077483" xlink:href="#m02e54452f2" y="236.9459"/>
     <use style="stroke:#000000;" x="161.23972" xlink:href="#m02e54452f2" y="235.446932"/>
     <use style="stroke:#000000;" x="165.401958" xlink:href="#m02e54452f2" y="244.450608"/>
     <use style="stroke:#000000;" x="169.564196" xlink:href="#m02e54452f2" y="241.435202"/>
     <use style="stroke:#000000;" x="173.726434" xlink:href="#m02e54452f2" y="241.708492"/>
     <use style="stroke:#000000;" x="177.888671" xlink:href="#m02e54452f2" y="235.667125"/>
     <use style="stroke:#000000;" x="182.050909" xlink:href="#m02e54452f2" y="244.785931"/>
     <use style="stroke:#000000;" x="186.213147" xlink:href="#m02e54452f2" y="248.766142"/>
     <use style="stroke:#000000;" x="190.375385" xlink:href="#m02e54452f2" y="247.716053"/>
     <use style="stroke:#000000;" x="194.537622" xlink:href="#m02e54452f2" y="260.919889"/>
     <use style="stroke:#000000;" x="198.69986" xlink:href="#m02e54452f2" y="256.080108"/>
     <use style="stroke:#000000;" x="202.862098" xlink:href="#m02e54452f2" y="259.152855"/>
     <use style="stroke:#000000;" x="207.024336" xlink:href="#m02e54452f2" y="266.439306"/>
     <use style="stroke:#000000;" x="211.186573" xlink:href="#m02e54452f2" y="267.26036"/>
     <use style="stroke:#000000;" x="215.348811" xlink:href="#m02e54452f2" y="271.790397"/>
     <use style="stroke:#000000;" x="219.511049" xlink:href="#m02e54452f2" y="268.007687"/>
     <use style="stroke:#000000;" x="223.673287" xlink:href="#m02e54452f2" y="267.956135"/>
     <use style="stroke:#000000;" x="227.835524" xlink:href="#m02e54452f2" y="272.554781"/>
     <use style="stroke:#000000;" x="231.997762" xlink:href="#m02e54452f2" y="276.451613"/>
     <use style="stroke:#000000;" x="236.16" xlink:href="#m02e54452f2" y="278.0373"/>
     <use style="stroke:#000000;" x="240.322238" xlink:href="#m02e54452f2" y="272.349638"/>
     <use style="stroke:#000000;" x="244.484476" xlink:href="#m02e54452f2" y="277.570877"/>
     <use style="stroke:#000000;" x="248.646713" xlink:href="#m02e54452f2" y="283.38773"/>
     <use style="stroke:#000000;" x="252.808951" xlink:href="#m02e54452f2" y="289.357661"/>
     <use style="stroke:#000000;" x="256.971189" xlink:href="#m02e54452f2" y="288.988271"/>
     <use style="stroke:#000000;" x="261.133427" xlink:href="#m02e54452f2" y="291.492655"/>
     <use style="stroke:#000000;" x="265.295664" xlink:href="#m02e54452f2" y="287.907067"/>
     <use style="stroke:#000000;" x="269.457902" xlink:href="#m02e54452f2" y="284.644511"/>
     <use style="stroke:#000000;" x="273.62014" xlink:href="#m02e54452f2" y="280.678056"/>
     <use style="stroke:#000000;" x="277.782378" xlink:href="#m02e54452f2" y="274.446501"/>
     <use style="stroke:#000000;" x="281.944615" xlink:href="#m02e54452f2" y="273.963081"/>
     <use style="stroke:#000000;" x="286.106853" xlink:href="#m02e54452f2" y="276.103987"/>
     <use style="stroke:#000000;" x="290.269091" xlink:href="#m02e54452f2" y="268.075813"/>
     <use style="stroke:#000000;" x="294.431329" xlink:href="#m02e54452f2" y="269.56559"/>
     <use style="stroke:#000000;" x="298.593566" xlink:href="#m02e54452f2" y="264.276752"/>
     <use style="stroke:#000000;" x="302.755804" xlink:href="#m02e54452f2" y="269.010856"/>
     <use style="stroke:#000000;" x="306.918042" xlink:href="#m02e54452f2" y="268.131089"/>
     <use style="stroke:#000000;" x="311.08028" xlink:href="#m02e54452f2" y="284.133078"/>
     <use style="stroke:#000000;" x="315.242517" xlink:href="#m02e54452f2" y="274.330377"/>
     <use style="stroke:#000000;" x="319.404755" xlink:href="#m02e54452f2" y="281.55783"/>
     <use style="stroke:#000000;" x="323.566993" xlink:href="#m02e54452f2" y="286.66698"/>
     <use style="stroke:#000000;" x="327.729231" xlink:href="#m02e54452f2" y="277.334562"/>
     <use style="stroke:#000000;" x="331.891469" xlink:href="#m02e54452f2" y="272.270216"/>
     <use style="stroke:#000000;" x="336.053706" xlink:href="#m02e54452f2" y="275.623819"/>
     <use style="stroke:#000000;" x="340.215944" xlink:href="#m02e54452f2" y="270.207708"/>
     <use style="stroke:#000000;" x="344.378182" xlink:href="#m02e54452f2" y="271.079029"/>
     <use style="stroke:#000000;" x="348.54042" xlink:href="#m02e54452f2" y="271.400284"/>
     <use style="stroke:#000000;" x="352.702657" xlink:href="#m02e54452f2" y="263.845251"/>
     <use style="stroke:#000000;" x="356.864895" xlink:href="#m02e54452f2" y="257.186799"/>
     <use style="stroke:#000000;" x="361.027133" xlink:href="#m02e54452f2" y="252.379086"/>
     <use style="stroke:#000000;" x="365.189371" xlink:href="#m02e54452f2" y="243.728546"/>
     <use style="stroke:#000000;" x="369.351608" xlink:href="#m02e54452f2" y="195.148903"/>
     <use style="stroke:#000000;" x="373.513846" xlink:href="#m02e54452f2" y="200.058886"/>
     <use style="stroke:#000000;" x="377.676084" xlink:href="#m02e54452f2" y="176.544"/>
     <use style="stroke:#000000;" x="381.838322" xlink:href="#m02e54452f2" y="176.544"/>
     <use style="stroke:#000000;" x="386.000559" xlink:href="#m02e54452f2" y="197.250661"/>
     <use style="stroke:#000000;" x="390.162797" xlink:href="#m02e54452f2" y="176.544"/>
     <use style="stroke:#000000;" x="394.325035" xlink:href="#m02e54452f2" y="176.544"/>
     <use style="stroke:#000000;" x="398.487273" xlink:href="#m02e54452f2" y="176.544"/>
    </g>
   </g>
   <g id="patch_9">
    <path d="M 57.6 307.584 
L 57.6 247.104 
" style="fill:none;stroke:#000000;stroke-linecap:square;stroke-linejoin:miter;stroke-width:0.8;"/>
   </g>
   <g id="patch_10">
    <path d="M 414.72 307.584 
L 414.72 247.104 
" style="fill:none;stroke:#000000;stroke-linecap:square;stroke-linejoin:miter;stroke-width:0.8;"/>
   </g>
   <g id="patch_11">
    <path d="M 57.6 307.584 
L 414.72 307.584 
" style="fill:none;stroke:#000000;stroke-linecap:square;stroke-linejoin:miter;stroke-width:0.8;"/>
   </g>
   <g id="patch_12">
    <path d="M 57.6 247.104 
L 414.72 247.104 
" style="fill:none;stroke:#000000;stroke-linecap:square;stroke-linejoin:miter;stroke-width:0.8;"/>
   </g>
  </g>
 </g>
 <defs>
  <clipPath id="p3f1ed498f4">
   <rect height="181.44" width="357.12" x="57.6" y="41.472"/>
  </clipPath>
  <clipPath id="pb4e960c989">
   <rect height="60.48" width="357.12" x="57.6" y="247.104"/>
  </clipPath>
 </defs>
</svg>
