<?xml version="1.0" encoding="utf-8" standalone="no"?>
<!DOCTYPE svg PUBLIC "-//W3C//DTD SVG 1.1//EN"
  "http://www.w3.org/Graphics/SVG/1.1/DTD/svg11.dtd">
<!-- Created with matplotlib (http://matplotlib.org/) -->
<svg height="345.6pt" version="1.1" viewBox="0 0 460.8 345.6" width="460.8pt" xmlns="http://www.w3.org/2000/svg" xmlns:xlink="http://www.w3.org/1999/xlink">
 <defs>
  <style type="text/css">
*{stroke-linecap:butt;stroke-linejoin:round;}
  </style>
 </defs>
 <g id="figure_1">
  <g id="patch_1">
   <path d="M 0 345.6 
L 460.8 345.6 
L 460.8 0 
L 0 0 
z
" style="fill:#ffffff;"/>
  </g>
  <g id="axes_1">
   <g id="patch_2">
    <path d="M 57.6 222.912 
L 414.72 222.912 
L 414.72 41.472 
L 57.6 41.472 
z
" style="fill:#ffffff;"/>
   </g>
   <g id="matplotlib.axis_1">
    <g id="xtick_1">
     <g id="line2d_1">
      <defs>
       <path d="M 0 0 
L 0 3.5 
" id="md2ebb6f4d3" style="stroke:#000000;stroke-width:0.8;"/>
      </defs>
      <g>
       <use style="stroke:#000000;stroke-width:0.8;" x="110.367925" xlink:href="#md2ebb6f4d3" y="222.912"/>
      </g>
     </g>
     <g id="text_1">
      <!-- 24 -->
      <defs>
       <path d="M 19.1875 8.296875 
L 53.609375 8.296875 
L 53.609375 0 
L 7.328125 0 
L 7.328125 8.296875 
Q 12.9375 14.109375 22.625 23.890625 
Q 32.328125 33.6875 34.8125 36.53125 
Q 39.546875 41.84375 41.421875 45.53125 
Q 43.3125 49.21875 43.3125 52.78125 
Q 43.3125 58.59375 39.234375 62.25 
Q 35.15625 65.921875 28.609375 65.921875 
Q 23.96875 65.921875 18.8125 64.3125 
Q 13.671875 62.703125 7.8125 59.421875 
L 7.8125 69.390625 
Q 13.765625 71.78125 18.9375 73 
Q 24.125 74.21875 28.421875 74.21875 
Q 39.75 74.21875 46.484375 68.546875 
Q 53.21875 62.890625 53.21875 53.421875 
Q 53.21875 48.921875 51.53125 44.890625 
Q 49.859375 40.875 45.40625 35.40625 
Q 44.1875 33.984375 37.640625 27.21875 
Q 31.109375 20.453125 19.1875 8.296875 
z
" id="DejaVuSans-32"/>
       <path d="M 37.796875 64.3125 
L 12.890625 25.390625 
L 37.796875 25.390625 
z
M 35.203125 72.90625 
L 47.609375 72.90625 
L 47.609375 25.390625 
L 58.015625 25.390625 
L 58.015625 17.1875 
L 47.609375 17.1875 
L 47.609375 0 
L 37.796875 0 
L 37.796875 17.1875 
L 4.890625 17.1875 
L 4.890625 26.703125 
z
" id="DejaVuSans-34"/>
      </defs>
      <g transform="translate(104.005425 237.510437)scale(0.1 -0.1)">
       <use xlink:href="#DejaVuSans-32"/>
       <use x="63.623047" xlink:href="#DejaVuSans-34"/>
      </g>
     </g>
    </g>
    <g id="xtick_2">
     <g id="line2d_2">
      <g>
       <use style="stroke:#000000;stroke-width:0.8;" x="183.438322" xlink:href="#md2ebb6f4d3" y="222.912"/>
      </g>
     </g>
     <g id="text_2">
      <!-- 26 -->
      <defs>
       <path d="M 33.015625 40.375 
Q 26.375 40.375 22.484375 35.828125 
Q 18.609375 31.296875 18.609375 23.390625 
Q 18.609375 15.53125 22.484375 10.953125 
Q 26.375 6.390625 33.015625 6.390625 
Q 39.65625 6.390625 43.53125 10.953125 
Q 47.40625 15.53125 47.40625 23.390625 
Q 47.40625 31.296875 43.53125 35.828125 
Q 39.65625 40.375 33.015625 40.375 
z
M 52.59375 71.296875 
L 52.59375 62.3125 
Q 48.875 64.0625 45.09375 64.984375 
Q 41.3125 65.921875 37.59375 65.921875 
Q 27.828125 65.921875 22.671875 59.328125 
Q 17.53125 52.734375 16.796875 39.40625 
Q 19.671875 43.65625 24.015625 45.921875 
Q 28.375 48.1875 33.59375 48.1875 
Q 44.578125 48.1875 50.953125 41.515625 
Q 57.328125 34.859375 57.328125 23.390625 
Q 57.328125 12.15625 50.6875 5.359375 
Q 44.046875 -1.421875 33.015625 -1.421875 
Q 20.359375 -1.421875 13.671875 8.265625 
Q 6.984375 17.96875 6.984375 36.375 
Q 6.984375 53.65625 15.1875 63.9375 
Q 23.390625 74.21875 37.203125 74.21875 
Q 40.921875 74.21875 44.703125 73.484375 
Q 48.484375 72.75 52.59375 71.296875 
z
" id="DejaVuSans-36"/>
      </defs>
      <g transform="translate(177.075822 237.510437)scale(0.1 -0.1)">
       <use xlink:href="#DejaVuSans-32"/>
       <use x="63.623047" xlink:href="#DejaVuSans-36"/>
      </g>
     </g>
    </g>
    <g id="xtick_3">
     <g id="line2d_3">
      <g>
       <use style="stroke:#000000;stroke-width:0.8;" x="256.508718" xlink:href="#md2ebb6f4d3" y="222.912"/>
      </g>
     </g>
     <g id="text_3">
      <!-- 28 -->
      <defs>
       <path d="M 31.78125 34.625 
Q 24.75 34.625 20.71875 30.859375 
Q 16.703125 27.09375 16.703125 20.515625 
Q 16.703125 13.921875 20.71875 10.15625 
Q 24.75 6.390625 31.78125 6.390625 
Q 38.8125 6.390625 42.859375 10.171875 
Q 46.921875 13.96875 46.921875 20.515625 
Q 46.921875 27.09375 42.890625 30.859375 
Q 38.875 34.625 31.78125 34.625 
z
M 21.921875 38.8125 
Q 15.578125 40.375 12.03125 44.71875 
Q 8.5 49.078125 8.5 55.328125 
Q 8.5 64.0625 14.71875 69.140625 
Q 20.953125 74.21875 31.78125 74.21875 
Q 42.671875 74.21875 48.875 69.140625 
Q 55.078125 64.0625 55.078125 55.328125 
Q 55.078125 49.078125 51.53125 44.71875 
Q 48 40.375 41.703125 38.8125 
Q 48.828125 37.15625 52.796875 32.3125 
Q 56.78125 27.484375 56.78125 20.515625 
Q 56.78125 9.90625 50.3125 4.234375 
Q 43.84375 -1.421875 31.78125 -1.421875 
Q 19.734375 -1.421875 13.25 4.234375 
Q 6.78125 9.90625 6.78125 20.515625 
Q 6.78125 27.484375 10.78125 32.3125 
Q 14.796875 37.15625 21.921875 38.8125 
z
M 18.3125 54.390625 
Q 18.3125 48.734375 21.84375 45.5625 
Q 25.390625 42.390625 31.78125 42.390625 
Q 38.140625 42.390625 41.71875 45.5625 
Q 45.3125 48.734375 45.3125 54.390625 
Q 45.3125 60.0625 41.71875 63.234375 
Q 38.140625 66.40625 31.78125 66.40625 
Q 25.390625 66.40625 21.84375 63.234375 
Q 18.3125 60.0625 18.3125 54.390625 
z
" id="DejaVuSans-38"/>
      </defs>
      <g transform="translate(250.146218 237.510437)scale(0.1 -0.1)">
       <use xlink:href="#DejaVuSans-32"/>
       <use x="63.623047" xlink:href="#DejaVuSans-38"/>
      </g>
     </g>
    </g>
    <g id="xtick_4">
     <g id="line2d_4">
      <g>
       <use style="stroke:#000000;stroke-width:0.8;" x="329.579114" xlink:href="#md2ebb6f4d3" y="222.912"/>
      </g>
     </g>
     <g id="text_4">
      <!-- 30 -->
      <defs>
       <path d="M 40.578125 39.3125 
Q 47.65625 37.796875 51.625 33 
Q 55.609375 28.21875 55.609375 21.1875 
Q 55.609375 10.40625 48.1875 4.484375 
Q 40.765625 -1.421875 27.09375 -1.421875 
Q 22.515625 -1.421875 17.65625 -0.515625 
Q 12.796875 0.390625 7.625 2.203125 
L 7.625 11.71875 
Q 11.71875 9.328125 16.59375 8.109375 
Q 21.484375 6.890625 26.8125 6.890625 
Q 36.078125 6.890625 40.9375 10.546875 
Q 45.796875 14.203125 45.796875 21.1875 
Q 45.796875 27.640625 41.28125 31.265625 
Q 36.765625 34.90625 28.71875 34.90625 
L 20.21875 34.90625 
L 20.21875 43.015625 
L 29.109375 43.015625 
Q 36.375 43.015625 40.234375 45.921875 
Q 44.09375 48.828125 44.09375 54.296875 
Q 44.09375 59.90625 40.109375 62.90625 
Q 36.140625 65.921875 28.71875 65.921875 
Q 24.65625 65.921875 20.015625 65.03125 
Q 15.375 64.15625 9.8125 62.3125 
L 9.8125 71.09375 
Q 15.4375 72.65625 20.34375 73.4375 
Q 25.25 74.21875 29.59375 74.21875 
Q 40.828125 74.21875 47.359375 69.109375 
Q 53.90625 64.015625 53.90625 55.328125 
Q 53.90625 49.265625 50.4375 45.09375 
Q 46.96875 40.921875 40.578125 39.3125 
z
" id="DejaVuSans-33"/>
       <path d="M 31.78125 66.40625 
Q 24.171875 66.40625 20.328125 58.90625 
Q 16.5 51.421875 16.5 36.375 
Q 16.5 21.390625 20.328125 13.890625 
Q 24.171875 6.390625 31.78125 6.390625 
Q 39.453125 6.390625 43.28125 13.890625 
Q 47.125 21.390625 47.125 36.375 
Q 47.125 51.421875 43.28125 58.90625 
Q 39.453125 66.40625 31.78125 66.40625 
z
M 31.78125 74.21875 
Q 44.046875 74.21875 50.515625 64.515625 
Q 56.984375 54.828125 56.984375 36.375 
Q 56.984375 17.96875 50.515625 8.265625 
Q 44.046875 -1.421875 31.78125 -1.421875 
Q 19.53125 -1.421875 13.0625 8.265625 
Q 6.59375 17.96875 6.59375 36.375 
Q 6.59375 54.828125 13.0625 64.515625 
Q 19.53125 74.21875 31.78125 74.21875 
z
" id="DejaVuSans-30"/>
      </defs>
      <g transform="translate(323.216614 237.510437)scale(0.1 -0.1)">
       <use xlink:href="#DejaVuSans-33"/>
       <use x="63.623047" xlink:href="#DejaVuSans-30"/>
      </g>
     </g>
    </g>
    <g id="xtick_5">
     <g id="line2d_5">
      <g>
       <use style="stroke:#000000;stroke-width:0.8;" x="402.64951" xlink:href="#md2ebb6f4d3" y="222.912"/>
      </g>
     </g>
     <g id="text_5">
      <!-- 32 -->
      <g transform="translate(396.28701 237.510437)scale(0.1 -0.1)">
       <use xlink:href="#DejaVuSans-33"/>
       <use x="63.623047" xlink:href="#DejaVuSans-32"/>
      </g>
     </g>
    </g>
   </g>
   <g id="matplotlib.axis_2">
    <g id="ytick_1">
     <g id="line2d_6">
      <defs>
       <path d="M 0 0 
L -3.5 0 
" id="m9eb02aa58a" style="stroke:#000000;stroke-width:0.8;"/>
      </defs>
      <g>
       <use style="stroke:#000000;stroke-width:0.8;" x="57.6" xlink:href="#m9eb02aa58a" y="218.970354"/>
      </g>
     </g>
     <g id="text_6">
      <!-- 0 -->
      <g transform="translate(44.2375 222.769573)scale(0.1 -0.1)">
       <use xlink:href="#DejaVuSans-30"/>
      </g>
     </g>
    </g>
    <g id="ytick_2">
     <g id="line2d_7">
      <g>
       <use style="stroke:#000000;stroke-width:0.8;" x="57.6" xlink:href="#m9eb02aa58a" y="189.491806"/>
      </g>
     </g>
     <g id="text_7">
      <!-- 2000 -->
      <g transform="translate(25.15 193.291025)scale(0.1 -0.1)">
       <use xlink:href="#DejaVuSans-32"/>
       <use x="63.623047" xlink:href="#DejaVuSans-30"/>
       <use x="127.246094" xlink:href="#DejaVuSans-30"/>
       <use x="190.869141" xlink:href="#DejaVuSans-30"/>
      </g>
     </g>
    </g>
    <g id="ytick_3">
     <g id="line2d_8">
      <g>
       <use style="stroke:#000000;stroke-width:0.8;" x="57.6" xlink:href="#m9eb02aa58a" y="160.013259"/>
      </g>
     </g>
     <g id="text_8">
      <!-- 4000 -->
      <g transform="translate(25.15 163.812478)scale(0.1 -0.1)">
       <use xlink:href="#DejaVuSans-34"/>
       <use x="63.623047" xlink:href="#DejaVuSans-30"/>
       <use x="127.246094" xlink:href="#DejaVuSans-30"/>
       <use x="190.869141" xlink:href="#DejaVuSans-30"/>
      </g>
     </g>
    </g>
    <g id="ytick_4">
     <g id="line2d_9">
      <g>
       <use style="stroke:#000000;stroke-width:0.8;" x="57.6" xlink:href="#m9eb02aa58a" y="130.534711"/>
      </g>
     </g>
     <g id="text_9">
      <!-- 6000 -->
      <g transform="translate(25.15 134.33393)scale(0.1 -0.1)">
       <use xlink:href="#DejaVuSans-36"/>
       <use x="63.623047" xlink:href="#DejaVuSans-30"/>
       <use x="127.246094" xlink:href="#DejaVuSans-30"/>
       <use x="190.869141" xlink:href="#DejaVuSans-30"/>
      </g>
     </g>
    </g>
    <g id="ytick_5">
     <g id="line2d_10">
      <g>
       <use style="stroke:#000000;stroke-width:0.8;" x="57.6" xlink:href="#m9eb02aa58a" y="101.056163"/>
      </g>
     </g>
     <g id="text_10">
      <!-- 8000 -->
      <g transform="translate(25.15 104.855382)scale(0.1 -0.1)">
       <use xlink:href="#DejaVuSans-38"/>
       <use x="63.623047" xlink:href="#DejaVuSans-30"/>
       <use x="127.246094" xlink:href="#DejaVuSans-30"/>
       <use x="190.869141" xlink:href="#DejaVuSans-30"/>
      </g>
     </g>
    </g>
    <g id="ytick_6">
     <g id="line2d_11">
      <g>
       <use style="stroke:#000000;stroke-width:0.8;" x="57.6" xlink:href="#m9eb02aa58a" y="71.577616"/>
      </g>
     </g>
     <g id="text_11">
      <!-- 10000 -->
      <defs>
       <path d="M 12.40625 8.296875 
L 28.515625 8.296875 
L 28.515625 63.921875 
L 10.984375 60.40625 
L 10.984375 69.390625 
L 28.421875 72.90625 
L 38.28125 72.90625 
L 38.28125 8.296875 
L 54.390625 8.296875 
L 54.390625 0 
L 12.40625 0 
z
" id="DejaVuSans-31"/>
      </defs>
      <g transform="translate(18.7875 75.376835)scale(0.1 -0.1)">
       <use xlink:href="#DejaVuSans-31"/>
       <use x="63.623047" xlink:href="#DejaVuSans-30"/>
       <use x="127.246094" xlink:href="#DejaVuSans-30"/>
       <use x="190.869141" xlink:href="#DejaVuSans-30"/>
       <use x="254.492188" xlink:href="#DejaVuSans-30"/>
      </g>
     </g>
    </g>
    <g id="ytick_7">
     <g id="line2d_12">
      <g>
       <use style="stroke:#000000;stroke-width:0.8;" x="57.6" xlink:href="#m9eb02aa58a" y="42.099068"/>
      </g>
     </g>
     <g id="text_12">
      <!-- 12000 -->
      <g transform="translate(18.7875 45.898287)scale(0.1 -0.1)">
       <use xlink:href="#DejaVuSans-31"/>
       <use x="63.623047" xlink:href="#DejaVuSans-32"/>
       <use x="127.246094" xlink:href="#DejaVuSans-30"/>
       <use x="190.869141" xlink:href="#DejaVuSans-30"/>
       <use x="254.492188" xlink:href="#DejaVuSans-30"/>
      </g>
     </g>
    </g>
   </g>
   <g id="line2d_13">
    <path clip-path="url(#p2a27256222)" d="M 73.832727 168.827344 
L 77.994965 168.827344 
L 77.994965 168.414645 
L 82.157203 168.414645 
L 82.157203 170.124401 
L 86.319441 170.124401 
L 86.319441 157.34545 
L 90.481678 157.34545 
L 90.481678 151.140216 
L 94.643916 151.140216 
L 94.643916 152.805754 
L 98.806154 152.805754 
L 98.806154 139.08349 
L 102.968392 139.08349 
L 102.968392 145.78986 
L 107.130629 145.78986 
L 107.130629 133.571002 
L 111.292867 133.571002 
L 111.292867 119.657127 
L 115.455105 119.657127 
L 115.455105 113.068672 
L 119.617343 113.068672 
L 119.617343 128.485952 
L 123.77958 128.485952 
L 123.77958 97.607173 
L 127.941818 97.607173 
L 127.941818 82.101457 
L 132.104056 82.101457 
L 132.104056 120.173002 
L 136.266294 120.173002 
L 136.266294 72.90415 
L 140.428531 72.90415 
L 140.428531 74.554949 
L 144.590769 74.554949 
L 144.590769 92.463167 
L 148.753007 92.463167 
L 148.753007 73.081022 
L 152.915245 73.081022 
L 152.915245 60.950599 
L 157.077483 60.950599 
L 157.077483 82.175154 
L 161.23972 82.175154 
L 161.23972 53.02087 
L 165.401958 53.02087 
L 165.401958 80.067438 
L 169.564196 80.067438 
L 169.564196 55.143325 
L 173.726434 55.143325 
L 173.726434 68.202322 
L 177.888671 68.202322 
L 177.888671 71.946098 
L 182.050909 71.946098 
L 182.050909 49.719273 
L 186.213147 49.719273 
L 186.213147 76.530012 
L 190.375385 76.530012 
L 190.375385 70.590084 
L 194.537622 70.590084 
L 194.537622 56.351946 
L 198.69986 56.351946 
L 198.69986 84.238652 
L 202.862098 84.238652 
L 202.862098 83.840692 
L 207.024336 83.840692 
L 207.024336 73.5232 
L 211.186573 73.5232 
L 211.186573 96.767035 
L 215.348811 96.767035 
L 215.348811 92.772692 
L 219.511049 92.772692 
L 219.511049 94.600362 
L 223.673287 94.600362 
L 223.673287 106.40652 
L 227.835524 106.40652 
L 227.835524 120.836269 
L 231.997762 120.836269 
L 231.997762 100.466593 
L 236.16 100.466593 
L 236.16 119.848738 
L 240.322238 119.848738 
L 240.322238 143.814797 
L 244.484476 143.814797 
L 244.484476 119.878216 
L 248.646713 119.878216 
L 248.646713 136.415681 
L 252.808951 136.415681 
L 252.808951 141.485992 
L 256.971189 141.485992 
L 256.971189 138.46444 
L 261.133427 138.46444 
L 261.133427 156.32844 
L 265.295664 156.32844 
L 265.295664 153.29215 
L 269.457902 153.29215 
L 269.457902 153.071061 
L 273.62014 153.071061 
L 273.62014 168.635734 
L 277.782378 168.635734 
L 277.782378 160.249087 
L 281.944615 160.249087 
L 281.944615 166.292189 
L 286.106853 166.292189 
L 286.106853 180.943028 
L 290.269091 180.943028 
L 290.269091 164.700348 
L 294.431329 164.700348 
L 294.431329 183.360268 
L 298.593566 183.360268 
L 298.593566 183.861404 
L 302.755804 183.861404 
L 302.755804 173.779741 
L 306.918042 173.779741 
L 306.918042 188.238968 
L 311.08028 188.238968 
L 311.08028 192.528097 
L 315.242517 192.528097 
L 315.242517 180.397674 
L 319.404755 180.397674 
L 319.404755 191.511087 
L 323.566993 191.511087 
L 323.566993 193.987285 
L 327.729231 193.987285 
L 327.729231 188.00314 
L 331.891469 188.00314 
L 331.891469 198.836506 
L 336.053706 198.836506 
L 336.053706 199.77982 
L 340.215944 199.77982 
L 340.215944 195.269602 
L 344.378182 195.269602 
L 344.378182 200.752612 
L 348.54042 200.752612 
L 348.54042 202.875067 
L 352.702657 202.875067 
L 352.702657 200.796829 
L 356.864895 200.796829 
L 356.864895 205.705008 
L 361.027133 205.705008 
L 361.027133 206.692539 
L 365.189371 206.692539 
L 365.189371 207.69481 
L 369.351608 207.69481 
L 369.351608 205.351265 
L 373.513846 205.351265 
L 373.513846 210.627925 
L 377.676084 210.627925 
L 377.676084 210.362618 
L 381.838322 210.362618 
L 381.838322 206.648321 
L 386.000559 206.648321 
L 386.000559 213.36943 
L 394.325035 213.310473 
L 394.325035 210.436315 
L 398.487273 210.436315 
L 398.487273 214.312744 
L 398.487273 214.312744 
" style="fill:none;stroke:#1f77b4;stroke-linecap:square;stroke-width:1.5;"/>
   </g>
   <g id="line2d_14">
    <path clip-path="url(#p2a27256222)" d="M 73.832727 168.234979 
L 77.994965 168.234979 
L 77.994965 167.480384 
L 82.157203 167.480384 
L 82.157203 162.486745 
L 90.481678 162.375775 
L 90.481678 156.161469 
L 94.643916 156.161469 
L 94.643916 149.836192 
L 98.806154 149.836192 
L 98.806154 145.685923 
L 102.968392 145.685923 
L 102.968392 141.002999 
L 107.130629 141.002999 
L 107.130629 132.103224 
L 111.292867 132.103224 
L 111.292867 129.306786 
L 115.455105 129.306786 
L 115.455105 121.760842 
L 119.617343 121.760842 
L 119.617343 112.039891 
L 123.77958 112.039891 
L 123.77958 108.644216 
L 127.941818 108.644216 
L 127.941818 101.098273 
L 132.104056 101.098273 
L 132.104056 95.327845 
L 136.266294 95.327845 
L 136.266294 88.847211 
L 140.428531 88.847211 
L 140.428531 76.352016 
L 144.590769 76.352016 
L 144.590769 75.752779 
L 148.753007 75.752779 
L 148.753007 68.428775 
L 152.915245 68.428775 
L 152.915245 65.321621 
L 157.077483 65.321621 
L 157.077483 61.970334 
L 161.23972 61.970334 
L 161.23972 55.201179 
L 165.401958 55.201179 
L 165.401958 53.647602 
L 169.564196 53.647602 
L 169.564196 52.62668 
L 173.726434 52.62668 
L 173.726434 50.762388 
L 177.888671 50.762388 
L 177.888671 52.094026 
L 182.050909 52.094026 
L 182.050909 49.719273 
L 186.213147 49.719273 
L 186.213147 53.980512 
L 190.375385 53.980512 
L 190.375385 59.728745 
L 194.537622 59.728745 
L 194.537622 58.907569 
L 198.69986 58.907569 
L 198.69986 66.209379 
L 202.862098 66.209379 
L 202.862098 67.385659 
L 207.024336 67.385659 
L 207.024336 75.686197 
L 211.186573 75.686197 
L 211.186573 81.367849 
L 215.348811 81.367849 
L 215.348811 91.909976 
L 219.511049 91.909976 
L 219.511049 97.391883 
L 223.673287 97.391883 
L 223.673287 101.852867 
L 227.835524 101.852867 
L 227.835524 110.353151 
L 231.997762 110.353151 
L 231.997762 118.587107 
L 236.16 118.587107 
L 236.16 125.955499 
L 240.322238 125.955499 
L 240.322238 129.573114 
L 244.484476 129.573114 
L 244.484476 138.783604 
L 248.646713 138.783604 
L 248.646713 144.598419 
L 252.808951 144.598419 
L 252.808951 147.195112 
L 256.971189 147.195112 
L 256.971189 151.323187 
L 261.133427 151.323187 
L 261.133427 159.401786 
L 265.295664 159.401786 
L 265.295664 161.088526 
L 269.457902 161.088526 
L 269.457902 166.037777 
L 273.62014 166.037777 
L 273.62014 167.857682 
L 277.782378 167.857682 
L 277.782378 171.519684 
L 281.944615 171.519684 
L 281.944615 173.605915 
L 286.106853 173.605915 
L 286.106853 175.847504 
L 290.269091 175.847504 
L 290.269091 177.600827 
L 294.431329 177.600827 
L 294.431329 181.040889 
L 298.593566 181.040889 
L 298.593566 181.506962 
L 302.755804 181.506962 
L 302.755804 183.393448 
L 306.918042 183.393448 
L 306.918042 184.103655 
L 311.08028 184.103655 
L 311.08028 184.63631 
L 315.242517 184.63631 
L 315.242517 185.013607 
L 319.404755 185.013607 
L 319.404755 188.520251 
L 323.566993 188.520251 
L 323.566993 190.917198 
L 327.729231 190.917198 
L 327.729231 191.20572 
L 331.891469 191.20572 
L 331.891469 192.737102 
L 336.053706 192.737102 
L 336.053706 194.290679 
L 340.215944 194.290679 
L 340.215944 195.977419 
L 344.378182 195.977419 
L 344.378182 197.264669 
L 348.54042 197.264669 
L 348.54042 198.574112 
L 352.702657 198.574112 
L 352.702657 200.549374 
L 356.864895 200.549374 
L 356.864895 202.901932 
L 361.027133 202.901932 
L 361.027133 204.189182 
L 365.189371 204.189182 
L 365.189371 204.411121 
L 369.351608 204.411121 
L 369.351608 206.963426 
L 373.513846 206.963426 
L 373.513846 208.073123 
L 377.676084 208.073123 
L 377.676084 210.3591 
L 381.838322 210.3591 
L 381.838322 211.269053 
L 386.000559 211.269053 
L 386.000559 211.823901 
L 390.162797 211.823901 
L 390.162797 212.977987 
L 394.325035 212.977987 
L 394.325035 214.198654 
L 398.487273 214.198654 
L 398.487273 214.664727 
L 398.487273 214.664727 
" style="fill:none;stroke:#2ca02c;stroke-linecap:square;stroke-width:1.5;"/>
   </g>
   <g id="patch_3">
    <path d="M 57.6 222.912 
L 57.6 41.472 
" style="fill:none;stroke:#000000;stroke-linecap:square;stroke-linejoin:miter;stroke-width:0.8;"/>
   </g>
   <g id="patch_4">
    <path d="M 414.72 222.912 
L 414.72 41.472 
" style="fill:none;stroke:#000000;stroke-linecap:square;stroke-linejoin:miter;stroke-width:0.8;"/>
   </g>
   <g id="patch_5">
    <path d="M 57.6 222.912 
L 414.72 222.912 
" style="fill:none;stroke:#000000;stroke-linecap:square;stroke-linejoin:miter;stroke-width:0.8;"/>
   </g>
   <g id="patch_6">
    <path d="M 57.6 41.472 
L 414.72 41.472 
" style="fill:none;stroke:#000000;stroke-linecap:square;stroke-linejoin:miter;stroke-width:0.8;"/>
   </g>
   <g id="legend_1">
    <g id="patch_7">
     <path d="M 351.843438 78.82825 
L 407.72 78.82825 
Q 409.72 78.82825 409.72 76.82825 
L 409.72 48.472 
Q 409.72 46.472 407.72 46.472 
L 351.843438 46.472 
Q 349.843438 46.472 349.843438 48.472 
L 349.843438 76.82825 
Q 349.843438 78.82825 351.843438 78.82825 
z
" style="fill:#ffffff;opacity:0.8;stroke:#cccccc;stroke-linejoin:miter;"/>
    </g>
    <g id="line2d_15">
     <path d="M 353.843438 54.570437 
L 373.843438 54.570437 
" style="fill:none;stroke:#1f77b4;stroke-linecap:square;stroke-width:1.5;"/>
    </g>
    <g id="line2d_16"/>
    <g id="text_13">
     <!-- Data -->
     <defs>
      <path d="M 19.671875 64.796875 
L 19.671875 8.109375 
L 31.59375 8.109375 
Q 46.6875 8.109375 53.6875 14.9375 
Q 60.6875 21.78125 60.6875 36.53125 
Q 60.6875 51.171875 53.6875 57.984375 
Q 46.6875 64.796875 31.59375 64.796875 
z
M 9.8125 72.90625 
L 30.078125 72.90625 
Q 51.265625 72.90625 61.171875 64.09375 
Q 71.09375 55.28125 71.09375 36.53125 
Q 71.09375 17.671875 61.125 8.828125 
Q 51.171875 0 30.078125 0 
L 9.8125 0 
z
" id="DejaVuSans-44"/>
      <path d="M 34.28125 27.484375 
Q 23.390625 27.484375 19.1875 25 
Q 14.984375 22.515625 14.984375 16.5 
Q 14.984375 11.71875 18.140625 8.90625 
Q 21.296875 6.109375 26.703125 6.109375 
Q 34.1875 6.109375 38.703125 11.40625 
Q 43.21875 16.703125 43.21875 25.484375 
L 43.21875 27.484375 
z
M 52.203125 31.203125 
L 52.203125 0 
L 43.21875 0 
L 43.21875 8.296875 
Q 40.140625 3.328125 35.546875 0.953125 
Q 30.953125 -1.421875 24.3125 -1.421875 
Q 15.921875 -1.421875 10.953125 3.296875 
Q 6 8.015625 6 15.921875 
Q 6 25.140625 12.171875 29.828125 
Q 18.359375 34.515625 30.609375 34.515625 
L 43.21875 34.515625 
L 43.21875 35.40625 
Q 43.21875 41.609375 39.140625 45 
Q 35.0625 48.390625 27.6875 48.390625 
Q 23 48.390625 18.546875 47.265625 
Q 14.109375 46.140625 10.015625 43.890625 
L 10.015625 52.203125 
Q 14.9375 54.109375 19.578125 55.046875 
Q 24.21875 56 28.609375 56 
Q 40.484375 56 46.34375 49.84375 
Q 52.203125 43.703125 52.203125 31.203125 
z
" id="DejaVuSans-61"/>
      <path d="M 18.3125 70.21875 
L 18.3125 54.6875 
L 36.8125 54.6875 
L 36.8125 47.703125 
L 18.3125 47.703125 
L 18.3125 18.015625 
Q 18.3125 11.328125 20.140625 9.421875 
Q 21.96875 7.515625 27.59375 7.515625 
L 36.8125 7.515625 
L 36.8125 0 
L 27.59375 0 
Q 17.1875 0 13.234375 3.875 
Q 9.28125 7.765625 9.28125 18.015625 
L 9.28125 47.703125 
L 2.6875 47.703125 
L 2.6875 54.6875 
L 9.28125 54.6875 
L 9.28125 70.21875 
z
" id="DejaVuSans-74"/>
     </defs>
     <g transform="translate(381.843438 58.070437)scale(0.1 -0.1)">
      <use xlink:href="#DejaVuSans-44"/>
      <use x="77.001953" xlink:href="#DejaVuSans-61"/>
      <use x="138.28125" xlink:href="#DejaVuSans-74"/>
      <use x="177.490234" xlink:href="#DejaVuSans-61"/>
     </g>
    </g>
    <g id="line2d_17">
     <path d="M 353.843438 69.248562 
L 373.843438 69.248562 
" style="fill:none;stroke:#2ca02c;stroke-linecap:square;stroke-width:1.5;"/>
    </g>
    <g id="line2d_18"/>
    <g id="text_14">
     <!-- MC -->
     <defs>
      <path d="M 9.8125 72.90625 
L 24.515625 72.90625 
L 43.109375 23.296875 
L 61.8125 72.90625 
L 76.515625 72.90625 
L 76.515625 0 
L 66.890625 0 
L 66.890625 64.015625 
L 48.09375 14.015625 
L 38.1875 14.015625 
L 19.390625 64.015625 
L 19.390625 0 
L 9.8125 0 
z
" id="DejaVuSans-4d"/>
      <path d="M 64.40625 67.28125 
L 64.40625 56.890625 
Q 59.421875 61.53125 53.78125 63.8125 
Q 48.140625 66.109375 41.796875 66.109375 
Q 29.296875 66.109375 22.65625 58.46875 
Q 16.015625 50.828125 16.015625 36.375 
Q 16.015625 21.96875 22.65625 14.328125 
Q 29.296875 6.6875 41.796875 6.6875 
Q 48.140625 6.6875 53.78125 8.984375 
Q 59.421875 11.28125 64.40625 15.921875 
L 64.40625 5.609375 
Q 59.234375 2.09375 53.4375 0.328125 
Q 47.65625 -1.421875 41.21875 -1.421875 
Q 24.65625 -1.421875 15.125 8.703125 
Q 5.609375 18.84375 5.609375 36.375 
Q 5.609375 53.953125 15.125 64.078125 
Q 24.65625 74.21875 41.21875 74.21875 
Q 47.75 74.21875 53.53125 72.484375 
Q 59.328125 70.75 64.40625 67.28125 
z
" id="DejaVuSans-43"/>
     </defs>
     <g transform="translate(381.843438 72.748562)scale(0.1 -0.1)">
      <use xlink:href="#DejaVuSans-4d"/>
      <use x="86.279297" xlink:href="#DejaVuSans-43"/>
     </g>
    </g>
   </g>
  </g>
  <g id="axes_2">
   <g id="patch_8">
    <path d="M 57.6 307.584 
L 414.72 307.584 
L 414.72 247.104 
L 57.6 247.104 
z
" style="fill:#ffffff;"/>
   </g>
   <g id="matplotlib.axis_3">
    <g id="xtick_6">
     <g id="line2d_19">
      <path clip-path="url(#pa93766b1fb)" d="M 110.367925 307.584 
L 110.367925 247.104 
" style="fill:none;stroke:#b0b0b0;stroke-linecap:square;stroke-width:0.8;"/>
     </g>
     <g id="line2d_20">
      <g>
       <use style="stroke:#000000;stroke-width:0.8;" x="110.367925" xlink:href="#md2ebb6f4d3" y="307.584"/>
      </g>
     </g>
     <g id="text_15">
      <!-- 24 -->
      <g transform="translate(104.005425 322.182437)scale(0.1 -0.1)">
       <use xlink:href="#DejaVuSans-32"/>
       <use x="63.623047" xlink:href="#DejaVuSans-34"/>
      </g>
     </g>
    </g>
    <g id="xtick_7">
     <g id="line2d_21">
      <path clip-path="url(#pa93766b1fb)" d="M 183.438322 307.584 
L 183.438322 247.104 
" style="fill:none;stroke:#b0b0b0;stroke-linecap:square;stroke-width:0.8;"/>
     </g>
     <g id="line2d_22">
      <g>
       <use style="stroke:#000000;stroke-width:0.8;" x="183.438322" xlink:href="#md2ebb6f4d3" y="307.584"/>
      </g>
     </g>
     <g id="text_16">
      <!-- 26 -->
      <g transform="translate(177.075822 322.182437)scale(0.1 -0.1)">
       <use xlink:href="#DejaVuSans-32"/>
       <use x="63.623047" xlink:href="#DejaVuSans-36"/>
      </g>
     </g>
    </g>
    <g id="xtick_8">
     <g id="line2d_23">
      <path clip-path="url(#pa93766b1fb)" d="M 256.508718 307.584 
L 256.508718 247.104 
" style="fill:none;stroke:#b0b0b0;stroke-linecap:square;stroke-width:0.8;"/>
     </g>
     <g id="line2d_24">
      <g>
       <use style="stroke:#000000;stroke-width:0.8;" x="256.508718" xlink:href="#md2ebb6f4d3" y="307.584"/>
      </g>
     </g>
     <g id="text_17">
      <!-- 28 -->
      <g transform="translate(250.146218 322.182437)scale(0.1 -0.1)">
       <use xlink:href="#DejaVuSans-32"/>
       <use x="63.623047" xlink:href="#DejaVuSans-38"/>
      </g>
     </g>
    </g>
    <g id="xtick_9">
     <g id="line2d_25">
      <path clip-path="url(#pa93766b1fb)" d="M 329.579114 307.584 
L 329.579114 247.104 
" style="fill:none;stroke:#b0b0b0;stroke-linecap:square;stroke-width:0.8;"/>
     </g>
     <g id="line2d_26">
      <g>
       <use style="stroke:#000000;stroke-width:0.8;" x="329.579114" xlink:href="#md2ebb6f4d3" y="307.584"/>
      </g>
     </g>
     <g id="text_18">
      <!-- 30 -->
      <g transform="translate(323.216614 322.182437)scale(0.1 -0.1)">
       <use xlink:href="#DejaVuSans-33"/>
       <use x="63.623047" xlink:href="#DejaVuSans-30"/>
      </g>
     </g>
    </g>
    <g id="xtick_10">
     <g id="line2d_27">
      <path clip-path="url(#pa93766b1fb)" d="M 402.64951 307.584 
L 402.64951 247.104 
" style="fill:none;stroke:#b0b0b0;stroke-linecap:square;stroke-width:0.8;"/>
     </g>
     <g id="line2d_28">
      <g>
       <use style="stroke:#000000;stroke-width:0.8;" x="402.64951" xlink:href="#md2ebb6f4d3" y="307.584"/>
      </g>
     </g>
     <g id="text_19">
      <!-- 32 -->
      <g transform="translate(396.28701 322.182437)scale(0.1 -0.1)">
       <use xlink:href="#DejaVuSans-33"/>
       <use x="63.623047" xlink:href="#DejaVuSans-32"/>
      </g>
     </g>
    </g>
    <g id="text_20">
     <!-- Energy (keV) -->
     <defs>
      <path d="M 9.8125 72.90625 
L 55.90625 72.90625 
L 55.90625 64.59375 
L 19.671875 64.59375 
L 19.671875 43.015625 
L 54.390625 43.015625 
L 54.390625 34.71875 
L 19.671875 34.71875 
L 19.671875 8.296875 
L 56.78125 8.296875 
L 56.78125 0 
L 9.8125 0 
z
" id="DejaVuSans-45"/>
      <path d="M 54.890625 33.015625 
L 54.890625 0 
L 45.90625 0 
L 45.90625 32.71875 
Q 45.90625 40.484375 42.875 44.328125 
Q 39.84375 48.1875 33.796875 48.1875 
Q 26.515625 48.1875 22.3125 43.546875 
Q 18.109375 38.921875 18.109375 30.90625 
L 18.109375 0 
L 9.078125 0 
L 9.078125 54.6875 
L 18.109375 54.6875 
L 18.109375 46.1875 
Q 21.34375 51.125 25.703125 53.5625 
Q 30.078125 56 35.796875 56 
Q 45.21875 56 50.046875 50.171875 
Q 54.890625 44.34375 54.890625 33.015625 
z
" id="DejaVuSans-6e"/>
      <path d="M 56.203125 29.59375 
L 56.203125 25.203125 
L 14.890625 25.203125 
Q 15.484375 15.921875 20.484375 11.0625 
Q 25.484375 6.203125 34.421875 6.203125 
Q 39.59375 6.203125 44.453125 7.46875 
Q 49.3125 8.734375 54.109375 11.28125 
L 54.109375 2.78125 
Q 49.265625 0.734375 44.1875 -0.34375 
Q 39.109375 -1.421875 33.890625 -1.421875 
Q 20.796875 -1.421875 13.15625 6.1875 
Q 5.515625 13.8125 5.515625 26.8125 
Q 5.515625 40.234375 12.765625 48.109375 
Q 20.015625 56 32.328125 56 
Q 43.359375 56 49.78125 48.890625 
Q 56.203125 41.796875 56.203125 29.59375 
z
M 47.21875 32.234375 
Q 47.125 39.59375 43.09375 43.984375 
Q 39.0625 48.390625 32.421875 48.390625 
Q 24.90625 48.390625 20.390625 44.140625 
Q 15.875 39.890625 15.1875 32.171875 
z
" id="DejaVuSans-65"/>
      <path d="M 41.109375 46.296875 
Q 39.59375 47.171875 37.8125 47.578125 
Q 36.03125 48 33.890625 48 
Q 26.265625 48 22.1875 43.046875 
Q 18.109375 38.09375 18.109375 28.8125 
L 18.109375 0 
L 9.078125 0 
L 9.078125 54.6875 
L 18.109375 54.6875 
L 18.109375 46.1875 
Q 20.953125 51.171875 25.484375 53.578125 
Q 30.03125 56 36.53125 56 
Q 37.453125 56 38.578125 55.875 
Q 39.703125 55.765625 41.0625 55.515625 
z
" id="DejaVuSans-72"/>
      <path d="M 45.40625 27.984375 
Q 45.40625 37.75 41.375 43.109375 
Q 37.359375 48.484375 30.078125 48.484375 
Q 22.859375 48.484375 18.828125 43.109375 
Q 14.796875 37.75 14.796875 27.984375 
Q 14.796875 18.265625 18.828125 12.890625 
Q 22.859375 7.515625 30.078125 7.515625 
Q 37.359375 7.515625 41.375 12.890625 
Q 45.40625 18.265625 45.40625 27.984375 
z
M 54.390625 6.78125 
Q 54.390625 -7.171875 48.1875 -13.984375 
Q 42 -20.796875 29.203125 -20.796875 
Q 24.46875 -20.796875 20.265625 -20.09375 
Q 16.0625 -19.390625 12.109375 -17.921875 
L 12.109375 -9.1875 
Q 16.0625 -11.328125 19.921875 -12.34375 
Q 23.78125 -13.375 27.78125 -13.375 
Q 36.625 -13.375 41.015625 -8.765625 
Q 45.40625 -4.15625 45.40625 5.171875 
L 45.40625 9.625 
Q 42.625 4.78125 38.28125 2.390625 
Q 33.9375 0 27.875 0 
Q 17.828125 0 11.671875 7.65625 
Q 5.515625 15.328125 5.515625 27.984375 
Q 5.515625 40.671875 11.671875 48.328125 
Q 17.828125 56 27.875 56 
Q 33.9375 56 38.28125 53.609375 
Q 42.625 51.21875 45.40625 46.390625 
L 45.40625 54.6875 
L 54.390625 54.6875 
z
" id="DejaVuSans-67"/>
      <path d="M 32.171875 -5.078125 
Q 28.375 -14.84375 24.75 -17.8125 
Q 21.140625 -20.796875 15.09375 -20.796875 
L 7.90625 -20.796875 
L 7.90625 -13.28125 
L 13.1875 -13.28125 
Q 16.890625 -13.28125 18.9375 -11.515625 
Q 21 -9.765625 23.484375 -3.21875 
L 25.09375 0.875 
L 2.984375 54.6875 
L 12.5 54.6875 
L 29.59375 11.921875 
L 46.6875 54.6875 
L 56.203125 54.6875 
z
" id="DejaVuSans-79"/>
      <path id="DejaVuSans-20"/>
      <path d="M 31 75.875 
Q 24.46875 64.65625 21.28125 53.65625 
Q 18.109375 42.671875 18.109375 31.390625 
Q 18.109375 20.125 21.3125 9.0625 
Q 24.515625 -2 31 -13.1875 
L 23.1875 -13.1875 
Q 15.875 -1.703125 12.234375 9.375 
Q 8.59375 20.453125 8.59375 31.390625 
Q 8.59375 42.28125 12.203125 53.3125 
Q 15.828125 64.359375 23.1875 75.875 
z
" id="DejaVuSans-28"/>
      <path d="M 9.078125 75.984375 
L 18.109375 75.984375 
L 18.109375 31.109375 
L 44.921875 54.6875 
L 56.390625 54.6875 
L 27.390625 29.109375 
L 57.625 0 
L 45.90625 0 
L 18.109375 26.703125 
L 18.109375 0 
L 9.078125 0 
z
" id="DejaVuSans-6b"/>
      <path d="M 28.609375 0 
L 0.78125 72.90625 
L 11.078125 72.90625 
L 34.1875 11.53125 
L 57.328125 72.90625 
L 67.578125 72.90625 
L 39.796875 0 
z
" id="DejaVuSans-56"/>
      <path d="M 8.015625 75.875 
L 15.828125 75.875 
Q 23.140625 64.359375 26.78125 53.3125 
Q 30.421875 42.28125 30.421875 31.390625 
Q 30.421875 20.453125 26.78125 9.375 
Q 23.140625 -1.703125 15.828125 -13.1875 
L 8.015625 -13.1875 
Q 14.5 -2 17.703125 9.0625 
Q 20.90625 20.125 20.90625 31.390625 
Q 20.90625 42.671875 17.703125 53.65625 
Q 14.5 64.65625 8.015625 75.875 
z
" id="DejaVuSans-29"/>
     </defs>
     <g transform="translate(203.686562 335.860562)scale(0.1 -0.1)">
      <use xlink:href="#DejaVuSans-45"/>
      <use x="63.183594" xlink:href="#DejaVuSans-6e"/>
      <use x="126.5625" xlink:href="#DejaVuSans-65"/>
      <use x="188.085938" xlink:href="#DejaVuSans-72"/>
      <use x="229.183594" xlink:href="#DejaVuSans-67"/>
      <use x="292.660156" xlink:href="#DejaVuSans-79"/>
      <use x="351.839844" xlink:href="#DejaVuSans-20"/>
      <use x="383.626953" xlink:href="#DejaVuSans-28"/>
      <use x="422.640625" xlink:href="#DejaVuSans-6b"/>
      <use x="480.503906" xlink:href="#DejaVuSans-65"/>
      <use x="542.027344" xlink:href="#DejaVuSans-56"/>
      <use x="610.435547" xlink:href="#DejaVuSans-29"/>
     </g>
    </g>
   </g>
   <g id="matplotlib.axis_4">
    <g id="ytick_8">
     <g id="line2d_29">
      <path clip-path="url(#pa93766b1fb)" d="M 57.6 297.504 
L 414.72 297.504 
" style="fill:none;stroke:#b0b0b0;stroke-linecap:square;stroke-width:0.8;"/>
     </g>
     <g id="line2d_30">
      <g>
       <use style="stroke:#000000;stroke-width:0.8;" x="57.6" xlink:href="#m9eb02aa58a" y="297.504"/>
      </g>
     </g>
     <g id="text_21">
      <!-- −0.2 -->
      <defs>
       <path d="M 10.59375 35.5 
L 73.1875 35.5 
L 73.1875 27.203125 
L 10.59375 27.203125 
z
" id="DejaVuSans-2212"/>
       <path d="M 10.6875 12.40625 
L 21 12.40625 
L 21 0 
L 10.6875 0 
z
" id="DejaVuSans-2e"/>
      </defs>
      <g transform="translate(26.317187 301.303219)scale(0.1 -0.1)">
       <use xlink:href="#DejaVuSans-2212"/>
       <use x="83.789062" xlink:href="#DejaVuSans-30"/>
       <use x="147.412109" xlink:href="#DejaVuSans-2e"/>
       <use x="179.199219" xlink:href="#DejaVuSans-32"/>
      </g>
     </g>
    </g>
    <g id="ytick_9">
     <g id="line2d_31">
      <path clip-path="url(#pa93766b1fb)" d="M 57.6 277.344 
L 414.72 277.344 
" style="fill:none;stroke:#b0b0b0;stroke-linecap:square;stroke-width:0.8;"/>
     </g>
     <g id="line2d_32">
      <g>
       <use style="stroke:#000000;stroke-width:0.8;" x="57.6" xlink:href="#m9eb02aa58a" y="277.344"/>
      </g>
     </g>
     <g id="text_22">
      <!-- 0.0 -->
      <g transform="translate(34.696875 281.143219)scale(0.1 -0.1)">
       <use xlink:href="#DejaVuSans-30"/>
       <use x="63.623047" xlink:href="#DejaVuSans-2e"/>
       <use x="95.410156" xlink:href="#DejaVuSans-30"/>
      </g>
     </g>
    </g>
    <g id="ytick_10">
     <g id="line2d_33">
      <path clip-path="url(#pa93766b1fb)" d="M 57.6 257.184 
L 414.72 257.184 
" style="fill:none;stroke:#b0b0b0;stroke-linecap:square;stroke-width:0.8;"/>
     </g>
     <g id="line2d_34">
      <g>
       <use style="stroke:#000000;stroke-width:0.8;" x="57.6" xlink:href="#m9eb02aa58a" y="257.184"/>
      </g>
     </g>
     <g id="text_23">
      <!-- 0.2 -->
      <g transform="translate(34.696875 260.983219)scale(0.1 -0.1)">
       <use xlink:href="#DejaVuSans-30"/>
       <use x="63.623047" xlink:href="#DejaVuSans-2e"/>
       <use x="95.410156" xlink:href="#DejaVuSans-32"/>
      </g>
     </g>
    </g>
    <g id="text_24">
     <!-- (Data - MC)/(Data + MC) -->
     <defs>
      <path d="M 4.890625 31.390625 
L 31.203125 31.390625 
L 31.203125 23.390625 
L 4.890625 23.390625 
z
" id="DejaVuSans-2d"/>
      <path d="M 25.390625 72.90625 
L 33.6875 72.90625 
L 8.296875 -9.28125 
L 0 -9.28125 
z
" id="DejaVuSans-2f"/>
      <path d="M 46 62.703125 
L 46 35.5 
L 73.1875 35.5 
L 73.1875 27.203125 
L 46 27.203125 
L 46 0 
L 37.796875 0 
L 37.796875 27.203125 
L 10.59375 27.203125 
L 10.59375 35.5 
L 37.796875 35.5 
L 37.796875 62.703125 
z
" id="DejaVuSans-2b"/>
     </defs>
     <g transform="translate(20.2375 338.669)rotate(-90)scale(0.1 -0.1)">
      <use xlink:href="#DejaVuSans-28"/>
      <use x="39.013672" xlink:href="#DejaVuSans-44"/>
      <use x="116.015625" xlink:href="#DejaVuSans-61"/>
      <use x="177.294922" xlink:href="#DejaVuSans-74"/>
      <use x="216.503906" xlink:href="#DejaVuSans-61"/>
      <use x="277.783203" xlink:href="#DejaVuSans-20"/>
      <use x="309.570312" xlink:href="#DejaVuSans-2d"/>
      <use x="345.654297" xlink:href="#DejaVuSans-20"/>
      <use x="377.441406" xlink:href="#DejaVuSans-4d"/>
      <use x="463.720703" xlink:href="#DejaVuSans-43"/>
      <use x="533.544922" xlink:href="#DejaVuSans-29"/>
      <use x="572.558594" xlink:href="#DejaVuSans-2f"/>
      <use x="606.25" xlink:href="#DejaVuSans-28"/>
      <use x="645.263672" xlink:href="#DejaVuSans-44"/>
      <use x="722.265625" xlink:href="#DejaVuSans-61"/>
      <use x="783.544922" xlink:href="#DejaVuSans-74"/>
      <use x="822.753906" xlink:href="#DejaVuSans-61"/>
      <use x="884.033203" xlink:href="#DejaVuSans-20"/>
      <use x="915.820312" xlink:href="#DejaVuSans-2b"/>
      <use x="999.609375" xlink:href="#DejaVuSans-20"/>
      <use x="1031.396484" xlink:href="#DejaVuSans-4d"/>
      <use x="1117.675781" xlink:href="#DejaVuSans-43"/>
      <use x="1187.5" xlink:href="#DejaVuSans-29"/>
     </g>
    </g>
   </g>
   <g id="LineCollection_1">
    <path clip-path="url(#pa93766b1fb)" d="M 73.832727 278.799974 
L 73.832727 277.071836 
" style="fill:none;stroke:#000000;stroke-width:1.5;"/>
    <path clip-path="url(#pa93766b1fb)" d="M 77.994965 279.127348 
L 77.994965 277.406363 
" style="fill:none;stroke:#000000;stroke-width:1.5;"/>
    <path clip-path="url(#pa93766b1fb)" d="M 82.157203 285.524101 
L 82.157203 283.782315 
" style="fill:none;stroke:#000000;stroke-width:1.5;"/>
    <path clip-path="url(#pa93766b1fb)" d="M 86.319441 273.832929 
L 86.319441 272.276844 
" style="fill:none;stroke:#000000;stroke-width:1.5;"/>
    <path clip-path="url(#pa93766b1fb)" d="M 90.481678 274.211491 
L 90.481678 272.727794 
" style="fill:none;stroke:#000000;stroke-width:1.5;"/>
    <path clip-path="url(#pa93766b1fb)" d="M 94.643916 280.308253 
L 94.643916 278.8045 
" style="fill:none;stroke:#000000;stroke-width:1.5;"/>
    <path clip-path="url(#pa93766b1fb)" d="M 98.806154 273.682345 
L 98.806154 272.315708 
" style="fill:none;stroke:#000000;stroke-width:1.5;"/>
    <path clip-path="url(#pa93766b1fb)" d="M 102.968392 281.250895 
L 102.968392 279.821787 
" style="fill:none;stroke:#000000;stroke-width:1.5;"/>
    <path clip-path="url(#pa93766b1fb)" d="M 107.130629 278.864934 
L 107.130629 277.540776 
" style="fill:none;stroke:#000000;stroke-width:1.5;"/>
    <path clip-path="url(#pa93766b1fb)" d="M 111.292867 272.809278 
L 111.292867 271.584489 
" style="fill:none;stroke:#000000;stroke-width:1.5;"/>
    <path clip-path="url(#pa93766b1fb)" d="M 115.455105 273.623751 
L 115.455105 272.43675 
" style="fill:none;stroke:#000000;stroke-width:1.5;"/>
    <path clip-path="url(#pa93766b1fb)" d="M 119.617343 286.380145 
L 119.617343 285.102568 
" style="fill:none;stroke:#000000;stroke-width:1.5;"/>
    <path clip-path="url(#pa93766b1fb)" d="M 123.77958 273.096329 
L 123.77958 271.988001 
" style="fill:none;stroke:#000000;stroke-width:1.5;"/>
    <path clip-path="url(#pa93766b1fb)" d="M 127.941818 270.347144 
L 127.941818 269.306926 
" style="fill:none;stroke:#000000;stroke-width:1.5;"/>
    <path clip-path="url(#pa93766b1fb)" d="M 132.104056 289.210653 
L 132.104056 287.99482 
" style="fill:none;stroke:#000000;stroke-width:1.5;"/>
    <path clip-path="url(#pa93766b1fb)" d="M 136.266294 272.029905 
L 136.266294 271.020713 
" style="fill:none;stroke:#000000;stroke-width:1.5;"/>
    <path clip-path="url(#pa93766b1fb)" d="M 140.428531 277.222058 
L 140.428531 276.20376 
" style="fill:none;stroke:#000000;stroke-width:1.5;"/>
    <path clip-path="url(#pa93766b1fb)" d="M 144.590769 284.130838 
L 144.590769 283.046984 
" style="fill:none;stroke:#000000;stroke-width:1.5;"/>
    <path clip-path="url(#pa93766b1fb)" d="M 148.753007 279.432441 
L 148.753007 278.41951 
" style="fill:none;stroke:#000000;stroke-width:1.5;"/>
    <path clip-path="url(#pa93766b1fb)" d="M 152.915245 276.416984 
L 152.915245 275.44366 
" style="fill:none;stroke:#000000;stroke-width:1.5;"/>
    <path clip-path="url(#pa93766b1fb)" d="M 157.077483 284.796879 
L 157.077483 283.755511 
" style="fill:none;stroke:#000000;stroke-width:1.5;"/>
    <path clip-path="url(#pa93766b1fb)" d="M 161.23972 277.152411 
L 161.23972 276.202481 
" style="fill:none;stroke:#000000;stroke-width:1.5;"/>
    <path clip-path="url(#pa93766b1fb)" d="M 165.401958 286.613021 
L 165.401958 285.582504 
" style="fill:none;stroke:#000000;stroke-width:1.5;"/>
    <path clip-path="url(#pa93766b1fb)" d="M 169.564196 278.590348 
L 169.564196 277.634298 
" style="fill:none;stroke:#000000;stroke-width:1.5;"/>
    <path clip-path="url(#pa93766b1fb)" d="M 173.726434 283.352052 
L 173.726434 282.358378 
" style="fill:none;stroke:#000000;stroke-width:1.5;"/>
    <path clip-path="url(#pa93766b1fb)" d="M 177.888671 284.221526 
L 177.888671 283.2163 
" style="fill:none;stroke:#000000;stroke-width:1.5;"/>
    <path clip-path="url(#pa93766b1fb)" d="M 182.050909 277.81433 
L 182.050909 276.87367 
" style="fill:none;stroke:#000000;stroke-width:1.5;"/>
    <path clip-path="url(#pa93766b1fb)" d="M 186.213147 285.247443 
L 186.213147 284.227586 
" style="fill:none;stroke:#000000;stroke-width:1.5;"/>
    <path clip-path="url(#pa93766b1fb)" d="M 190.375385 281.404683 
L 190.375385 280.401296 
" style="fill:none;stroke:#000000;stroke-width:1.5;"/>
    <path clip-path="url(#pa93766b1fb)" d="M 194.537622 277.025464 
L 194.537622 276.065872 
" style="fill:none;stroke:#000000;stroke-width:1.5;"/>
    <path clip-path="url(#pa93766b1fb)" d="M 198.69986 284.190457 
L 198.69986 283.140305 
" style="fill:none;stroke:#000000;stroke-width:1.5;"/>
    <path clip-path="url(#pa93766b1fb)" d="M 202.862098 283.653725 
L 202.862098 282.604448 
" style="fill:none;stroke:#000000;stroke-width:1.5;"/>
    <path clip-path="url(#pa93766b1fb)" d="M 207.024336 277.0962 
L 207.024336 276.081537 
" style="fill:none;stroke:#000000;stroke-width:1.5;"/>
    <path clip-path="url(#pa93766b1fb)" d="M 211.186573 283.870175 
L 211.186573 282.76704 
" style="fill:none;stroke:#000000;stroke-width:1.5;"/>
    <path clip-path="url(#pa93766b1fb)" d="M 215.348811 278.232047 
L 215.348811 277.142696 
" style="fill:none;stroke:#000000;stroke-width:1.5;"/>
    <path clip-path="url(#pa93766b1fb)" d="M 219.511049 276.748516 
L 219.511049 275.651319 
" style="fill:none;stroke:#000000;stroke-width:1.5;"/>
    <path clip-path="url(#pa93766b1fb)" d="M 223.673287 279.918956 
L 223.673287 278.765958 
" style="fill:none;stroke:#000000;stroke-width:1.5;"/>
    <path clip-path="url(#pa93766b1fb)" d="M 227.835524 283.071049 
L 227.835524 281.838879 
" style="fill:none;stroke:#000000;stroke-width:1.5;"/>
    <path clip-path="url(#pa93766b1fb)" d="M 231.997762 269.557527 
L 231.997762 268.44106 
" style="fill:none;stroke:#000000;stroke-width:1.5;"/>
    <path clip-path="url(#pa93766b1fb)" d="M 236.16 274.754195 
L 236.16 273.52626 
" style="fill:none;stroke:#000000;stroke-width:1.5;"/>
    <path clip-path="url(#pa93766b1fb)" d="M 240.322238 286.768542 
L 240.322238 285.367495 
" style="fill:none;stroke:#000000;stroke-width:1.5;"/>
    <path clip-path="url(#pa93766b1fb)" d="M 244.484476 267.322243 
L 244.484476 266.106554 
" style="fill:none;stroke:#000000;stroke-width:1.5;"/>
    <path clip-path="url(#pa93766b1fb)" d="M 248.646713 272.75952 
L 248.646713 271.416305 
" style="fill:none;stroke:#000000;stroke-width:1.5;"/>
    <path clip-path="url(#pa93766b1fb)" d="M 252.808951 274.182546 
L 252.808951 272.794334 
" style="fill:none;stroke:#000000;stroke-width:1.5;"/>
    <path clip-path="url(#pa93766b1fb)" d="M 256.971189 269.272016 
L 256.971189 267.918384 
" style="fill:none;stroke:#000000;stroke-width:1.5;"/>
    <path clip-path="url(#pa93766b1fb)" d="M 261.133427 275.581697 
L 261.133427 274.036473 
" style="fill:none;stroke:#000000;stroke-width:1.5;"/>
    <path clip-path="url(#pa93766b1fb)" d="M 265.295664 271.735747 
L 265.295664 270.23172 
" style="fill:none;stroke:#000000;stroke-width:1.5;"/>
    <path clip-path="url(#pa93766b1fb)" d="M 269.457902 267.089665 
L 269.457902 265.600111 
" style="fill:none;stroke:#000000;stroke-width:1.5;"/>
    <path clip-path="url(#pa93766b1fb)" d="M 273.62014 278.97949 
L 273.62014 277.254686 
" style="fill:none;stroke:#000000;stroke-width:1.5;"/>
    <path clip-path="url(#pa93766b1fb)" d="M 277.782378 267.433152 
L 277.782378 265.854163 
" style="fill:none;stroke:#000000;stroke-width:1.5;"/>
    <path clip-path="url(#pa93766b1fb)" d="M 281.944615 270.662938 
L 281.944615 268.986221 
" style="fill:none;stroke:#000000;stroke-width:1.5;"/>
    <path clip-path="url(#pa93766b1fb)" d="M 286.106853 284.661697 
L 286.106853 282.685024 
" style="fill:none;stroke:#000000;stroke-width:1.5;"/>
    <path clip-path="url(#pa93766b1fb)" d="M 290.269091 264.562926 
L 290.269091 262.931962 
" style="fill:none;stroke:#000000;stroke-width:1.5;"/>
    <path clip-path="url(#pa93766b1fb)" d="M 294.431329 281.547506 
L 294.431329 279.498799 
" style="fill:none;stroke:#000000;stroke-width:1.5;"/>
    <path clip-path="url(#pa93766b1fb)" d="M 298.593566 281.645801 
L 298.593566 279.582644 
" style="fill:none;stroke:#000000;stroke-width:1.5;"/>
    <path clip-path="url(#pa93766b1fb)" d="M 302.755804 266.243159 
L 302.755804 264.448518 
" style="fill:none;stroke:#000000;stroke-width:1.5;"/>
    <path clip-path="url(#pa93766b1fb)" d="M 306.918042 284.797828 
L 306.918042 282.599067 
" style="fill:none;stroke:#000000;stroke-width:1.5;"/>
    <path clip-path="url(#pa93766b1fb)" d="M 311.08028 291.602715 
L 311.08028 289.262993 
" style="fill:none;stroke:#000000;stroke-width:1.5;"/>
    <path clip-path="url(#pa93766b1fb)" d="M 315.242517 271.910085 
L 315.242517 269.947647 
" style="fill:none;stroke:#000000;stroke-width:1.5;"/>
    <path clip-path="url(#pa93766b1fb)" d="M 319.404755 283.714567 
L 319.404755 281.385435 
" style="fill:none;stroke:#000000;stroke-width:1.5;"/>
    <path clip-path="url(#pa93766b1fb)" d="M 323.566993 284.399048 
L 323.566993 281.95889 
" style="fill:none;stroke:#000000;stroke-width:1.5;"/>
    <path clip-path="url(#pa93766b1fb)" d="M 327.729231 272.94378 
L 327.729231 270.751206 
" style="fill:none;stroke:#000000;stroke-width:1.5;"/>
    <path clip-path="url(#pa93766b1fb)" d="M 331.891469 291.943891 
L 331.891469 289.263771 
" style="fill:none;stroke:#000000;stroke-width:1.5;"/>
    <path clip-path="url(#pa93766b1fb)" d="M 336.053706 291.331229 
L 336.053706 288.581422 
" style="fill:none;stroke:#000000;stroke-width:1.5;"/>
    <path clip-path="url(#pa93766b1fb)" d="M 340.215944 277.072572 
L 340.215944 274.559426 
" style="fill:none;stroke:#000000;stroke-width:1.5;"/>
    <path clip-path="url(#pa93766b1fb)" d="M 344.378182 287.57311 
L 344.378182 284.727839 
" style="fill:none;stroke:#000000;stroke-width:1.5;"/>
    <path clip-path="url(#pa93766b1fb)" d="M 348.54042 290.72845 
L 348.54042 287.720477 
" style="fill:none;stroke:#000000;stroke-width:1.5;"/>
    <path clip-path="url(#pa93766b1fb)" d="M 352.702657 279.460875 
L 352.702657 276.590365 
" style="fill:none;stroke:#000000;stroke-width:1.5;"/>
    <path clip-path="url(#pa93766b1fb)" d="M 356.864895 288.640902 
L 356.864895 285.311583 
" style="fill:none;stroke:#000000;stroke-width:1.5;"/>
    <path clip-path="url(#pa93766b1fb)" d="M 361.027133 288.400804 
L 361.027133 284.938183 
" style="fill:none;stroke:#000000;stroke-width:1.5;"/>
    <path clip-path="url(#pa93766b1fb)" d="M 365.189371 291.948801 
L 365.189371 288.363246 
" style="fill:none;stroke:#000000;stroke-width:1.5;"/>
    <path clip-path="url(#pa93766b1fb)" d="M 369.351608 272.654038 
L 369.351608 269.351086 
" style="fill:none;stroke:#000000;stroke-width:1.5;"/>
    <path clip-path="url(#pa93766b1fb)" d="M 373.513846 292.810176 
L 373.513846 288.647945 
" style="fill:none;stroke:#000000;stroke-width:1.5;"/>
    <path clip-path="url(#pa93766b1fb)" d="M 377.676084 279.450159 
L 377.676084 275.279025 
" style="fill:none;stroke:#000000;stroke-width:1.5;"/>
    <path clip-path="url(#pa93766b1fb)" d="M 381.838322 255.732946 
L 381.838322 252.43236 
" style="fill:none;stroke:#000000;stroke-width:1.5;"/>
    <path clip-path="url(#pa93766b1fb)" d="M 386.000559 292.112742 
L 386.000559 287.017822 
" style="fill:none;stroke:#000000;stroke-width:1.5;"/>
    <path clip-path="url(#pa93766b1fb)" d="M 390.162797 282.790104 
L 390.162797 277.650364 
" style="fill:none;stroke:#000000;stroke-width:1.5;"/>
    <path clip-path="url(#pa93766b1fb)" d="M 394.325035 250.76881 
L 394.325035 246.914639 
" style="fill:none;stroke:#000000;stroke-width:1.5;"/>
    <path clip-path="url(#pa93766b1fb)" d="M 398.487273 276.216462 
L 398.487273 270.554764 
" style="fill:none;stroke:#000000;stroke-width:1.5;"/>
   </g>
   <g id="line2d_35">
    <path clip-path="url(#pa93766b1fb)" d="M 57.6 277.344 
L 414.72 277.344 
" style="fill:none;stroke:#000000;stroke-dasharray:5.55,2.4;stroke-dashoffset:0;stroke-width:1.5;"/>
   </g>
   <g id="line2d_36">
    <path clip-path="url(#pa93766b1fb)" d="M 73.832727 279.051548 
L 77.994965 278.478699 
L 82.157203 277.962321 
L 86.319441 277.505202 
L 90.481678 277.11013 
L 94.643916 276.779893 
L 98.806154 276.517278 
L 102.968392 276.325072 
L 107.130629 276.206063 
L 111.292867 276.163039 
L 115.455105 276.198788 
L 119.617343 276.545855 
L 123.77958 276.373701 
L 127.941818 277.510783 
L 132.104056 277.589395 
L 136.266294 277.642924 
L 140.428531 278.598149 
L 144.590769 278.541925 
L 148.753007 279.363934 
L 152.915245 280.328702 
L 157.077483 280.239059 
L 161.23972 280.140802 
L 165.401958 281.418413 
L 169.564196 281.234057 
L 173.726434 280.967359 
L 177.888671 282.013517 
L 182.050909 281.512806 
L 186.213147 280.971911 
L 190.375385 281.735469 
L 194.537622 281.54466 
L 198.69986 280.202576 
L 202.862098 280.75462 
L 207.024336 280.059485 
L 211.186573 279.813442 
L 215.348811 279.210517 
L 219.511049 278.367288 
L 223.673287 277.897345 
L 227.835524 277.13303 
L 231.997762 276.057128 
L 236.16 275.635533 
L 240.322238 274.523058 
L 244.484476 273.140476 
L 248.646713 273.404762 
L 252.808951 272.083561 
L 256.971189 271.645315 
L 261.133427 272.076316 
L 265.295664 271.19397 
L 269.457902 270.61987 
L 273.62014 272.120818 
L 277.782378 271.937071 
L 281.944615 272.253718 
L 286.106853 274.520207 
L 290.269091 274.299184 
L 294.431329 274.807757 
L 298.593566 276.545527 
L 302.755804 277.131576 
L 306.918042 278.103297 
L 311.08028 279.624437 
L 315.242517 279.956506 
L 319.404755 281.178247 
L 323.566993 281.345858 
L 327.729231 282.696112 
L 331.891469 283.466001 
L 336.053706 283.587395 
L 340.215944 285.738905 
L 344.378182 284.993284 
L 348.54042 283.662415 
L 352.702657 285.117975 
L 356.864895 284.852444 
L 361.027133 283.906468 
L 365.189371 282.684162 
L 369.351608 281.206924 
L 373.513846 279.496154 
L 377.676084 277.573249 
L 381.838322 275.45961 
L 386.000559 273.176634 
L 390.162797 270.745721 
L 394.325035 268.188269 
L 398.487273 265.525677 
" style="fill:none;stroke:#000000;stroke-linecap:square;stroke-width:1.5;"/>
   </g>
   <g id="line2d_37">
    <defs>
     <path d="M -3 3 
L 3 -3 
M -3 -3 
L 3 3 
" id="m0fcac0a0f5" style="stroke:#000000;"/>
    </defs>
    <g clip-path="url(#pa93766b1fb)">
     <use style="stroke:#000000;" x="73.832727" xlink:href="#m0fcac0a0f5" y="277.935905"/>
     <use style="stroke:#000000;" x="77.994965" xlink:href="#m0fcac0a0f5" y="278.266856"/>
     <use style="stroke:#000000;" x="82.157203" xlink:href="#m0fcac0a0f5" y="284.653208"/>
     <use style="stroke:#000000;" x="86.319441" xlink:href="#m0fcac0a0f5" y="273.054887"/>
     <use style="stroke:#000000;" x="90.481678" xlink:href="#m0fcac0a0f5" y="273.469643"/>
     <use style="stroke:#000000;" x="94.643916" xlink:href="#m0fcac0a0f5" y="279.556377"/>
     <use style="stroke:#000000;" x="98.806154" xlink:href="#m0fcac0a0f5" y="272.999026"/>
     <use style="stroke:#000000;" x="102.968392" xlink:href="#m0fcac0a0f5" y="280.536341"/>
     <use style="stroke:#000000;" x="107.130629" xlink:href="#m0fcac0a0f5" y="278.202855"/>
     <use style="stroke:#000000;" x="111.292867" xlink:href="#m0fcac0a0f5" y="272.196883"/>
     <use style="stroke:#000000;" x="115.455105" xlink:href="#m0fcac0a0f5" y="273.030251"/>
     <use style="stroke:#000000;" x="119.617343" xlink:href="#m0fcac0a0f5" y="285.741356"/>
     <use style="stroke:#000000;" x="123.77958" xlink:href="#m0fcac0a0f5" y="272.542165"/>
     <use style="stroke:#000000;" x="127.941818" xlink:href="#m0fcac0a0f5" y="269.827035"/>
     <use style="stroke:#000000;" x="132.104056" xlink:href="#m0fcac0a0f5" y="288.602736"/>
     <use style="stroke:#000000;" x="136.266294" xlink:href="#m0fcac0a0f5" y="271.525309"/>
     <use style="stroke:#000000;" x="140.428531" xlink:href="#m0fcac0a0f5" y="276.712909"/>
     <use style="stroke:#000000;" x="144.590769" xlink:href="#m0fcac0a0f5" y="283.588911"/>
     <use style="stroke:#000000;" x="148.753007" xlink:href="#m0fcac0a0f5" y="278.925976"/>
     <use style="stroke:#000000;" x="152.915245" xlink:href="#m0fcac0a0f5" y="275.930322"/>
     <use style="stroke:#000000;" x="157.077483" xlink:href="#m0fcac0a0f5" y="284.276195"/>
     <use style="stroke:#000000;" x="161.23972" xlink:href="#m0fcac0a0f5" y="276.677446"/>
     <use style="stroke:#000000;" x="165.401958" xlink:href="#m0fcac0a0f5" y="286.097763"/>
     <use style="stroke:#000000;" x="169.564196" xlink:href="#m0fcac0a0f5" y="278.112323"/>
     <use style="stroke:#000000;" x="173.726434" xlink:href="#m0fcac0a0f5" y="282.855215"/>
     <use style="stroke:#000000;" x="177.888671" xlink:href="#m0fcac0a0f5" y="283.718913"/>
     <use style="stroke:#000000;" x="182.050909" xlink:href="#m0fcac0a0f5" y="277.344"/>
     <use style="stroke:#000000;" x="186.213147" xlink:href="#m0fcac0a0f5" y="284.737515"/>
     <use style="stroke:#000000;" x="190.375385" xlink:href="#m0fcac0a0f5" y="280.902989"/>
     <use style="stroke:#000000;" x="194.537622" xlink:href="#m0fcac0a0f5" y="276.545668"/>
     <use style="stroke:#000000;" x="198.69986" xlink:href="#m0fcac0a0f5" y="283.665381"/>
     <use style="stroke:#000000;" x="202.862098" xlink:href="#m0fcac0a0f5" y="283.129086"/>
     <use style="stroke:#000000;" x="207.024336" xlink:href="#m0fcac0a0f5" y="276.588868"/>
     <use style="stroke:#000000;" x="211.186573" xlink:href="#m0fcac0a0f5" y="283.318608"/>
     <use style="stroke:#000000;" x="215.348811" xlink:href="#m0fcac0a0f5" y="277.687372"/>
     <use style="stroke:#000000;" x="219.511049" xlink:href="#m0fcac0a0f5" y="276.199918"/>
     <use style="stroke:#000000;" x="223.673287" xlink:href="#m0fcac0a0f5" y="279.342457"/>
     <use style="stroke:#000000;" x="227.835524" xlink:href="#m0fcac0a0f5" y="282.454964"/>
     <use style="stroke:#000000;" x="231.997762" xlink:href="#m0fcac0a0f5" y="268.999293"/>
     <use style="stroke:#000000;" x="236.16" xlink:href="#m0fcac0a0f5" y="274.140227"/>
     <use style="stroke:#000000;" x="240.322238" xlink:href="#m0fcac0a0f5" y="286.068019"/>
     <use style="stroke:#000000;" x="244.484476" xlink:href="#m0fcac0a0f5" y="266.714399"/>
     <use style="stroke:#000000;" x="248.646713" xlink:href="#m0fcac0a0f5" y="272.087912"/>
     <use style="stroke:#000000;" x="252.808951" xlink:href="#m0fcac0a0f5" y="273.48844"/>
     <use style="stroke:#000000;" x="256.971189" xlink:href="#m0fcac0a0f5" y="268.5952"/>
     <use style="stroke:#000000;" x="261.133427" xlink:href="#m0fcac0a0f5" y="274.809085"/>
     <use style="stroke:#000000;" x="265.295664" xlink:href="#m0fcac0a0f5" y="270.983734"/>
     <use style="stroke:#000000;" x="269.457902" xlink:href="#m0fcac0a0f5" y="266.344888"/>
     <use style="stroke:#000000;" x="273.62014" xlink:href="#m0fcac0a0f5" y="278.117088"/>
     <use style="stroke:#000000;" x="277.782378" xlink:href="#m0fcac0a0f5" y="266.643657"/>
     <use style="stroke:#000000;" x="281.944615" xlink:href="#m0fcac0a0f5" y="269.824579"/>
     <use style="stroke:#000000;" x="286.106853" xlink:href="#m0fcac0a0f5" y="283.673361"/>
     <use style="stroke:#000000;" x="290.269091" xlink:href="#m0fcac0a0f5" y="263.747444"/>
     <use style="stroke:#000000;" x="294.431329" xlink:href="#m0fcac0a0f5" y="280.523152"/>
     <use style="stroke:#000000;" x="298.593566" xlink:href="#m0fcac0a0f5" y="280.614222"/>
     <use style="stroke:#000000;" x="302.755804" xlink:href="#m0fcac0a0f5" y="265.345838"/>
     <use style="stroke:#000000;" x="306.918042" xlink:href="#m0fcac0a0f5" y="283.698447"/>
     <use style="stroke:#000000;" x="311.08028" xlink:href="#m0fcac0a0f5" y="290.432854"/>
     <use style="stroke:#000000;" x="315.242517" xlink:href="#m0fcac0a0f5" y="270.928866"/>
     <use style="stroke:#000000;" x="319.404755" xlink:href="#m0fcac0a0f5" y="282.550001"/>
     <use style="stroke:#000000;" x="323.566993" xlink:href="#m0fcac0a0f5" y="283.178969"/>
     <use style="stroke:#000000;" x="327.729231" xlink:href="#m0fcac0a0f5" y="271.847493"/>
     <use style="stroke:#000000;" x="331.891469" xlink:href="#m0fcac0a0f5" y="290.603831"/>
     <use style="stroke:#000000;" x="336.053706" xlink:href="#m0fcac0a0f5" y="289.956326"/>
     <use style="stroke:#000000;" x="340.215944" xlink:href="#m0fcac0a0f5" y="275.815999"/>
     <use style="stroke:#000000;" x="344.378182" xlink:href="#m0fcac0a0f5" y="286.150475"/>
     <use style="stroke:#000000;" x="348.54042" xlink:href="#m0fcac0a0f5" y="289.224464"/>
     <use style="stroke:#000000;" x="352.702657" xlink:href="#m0fcac0a0f5" y="278.02562"/>
     <use style="stroke:#000000;" x="356.864895" xlink:href="#m0fcac0a0f5" y="286.976243"/>
     <use style="stroke:#000000;" x="361.027133" xlink:href="#m0fcac0a0f5" y="286.669493"/>
     <use style="stroke:#000000;" x="365.189371" xlink:href="#m0fcac0a0f5" y="290.156024"/>
     <use style="stroke:#000000;" x="369.351608" xlink:href="#m0fcac0a0f5" y="271.002562"/>
     <use style="stroke:#000000;" x="373.513846" xlink:href="#m0fcac0a0f5" y="290.72906"/>
     <use style="stroke:#000000;" x="377.676084" xlink:href="#m0fcac0a0f5" y="277.364592"/>
     <use style="stroke:#000000;" x="381.838322" xlink:href="#m0fcac0a0f5" y="254.082653"/>
     <use style="stroke:#000000;" x="386.000559" xlink:href="#m0fcac0a0f5" y="289.565282"/>
     <use style="stroke:#000000;" x="390.162797" xlink:href="#m0fcac0a0f5" y="280.220234"/>
     <use style="stroke:#000000;" x="394.325035" xlink:href="#m0fcac0a0f5" y="248.841724"/>
     <use style="stroke:#000000;" x="398.487273" xlink:href="#m0fcac0a0f5" y="273.385613"/>
    </g>
   </g>
   <g id="patch_9">
    <path d="M 57.6 307.584 
L 57.6 247.104 
" style="fill:none;stroke:#000000;stroke-linecap:square;stroke-linejoin:miter;stroke-width:0.8;"/>
   </g>
   <g id="patch_10">
    <path d="M 414.72 307.584 
L 414.72 247.104 
" style="fill:none;stroke:#000000;stroke-linecap:square;stroke-linejoin:miter;stroke-width:0.8;"/>
   </g>
   <g id="patch_11">
    <path d="M 57.6 307.584 
L 414.72 307.584 
" style="fill:none;stroke:#000000;stroke-linecap:square;stroke-linejoin:miter;stroke-width:0.8;"/>
   </g>
   <g id="patch_12">
    <path d="M 57.6 247.104 
L 414.72 247.104 
" style="fill:none;stroke:#000000;stroke-linecap:square;stroke-linejoin:miter;stroke-width:0.8;"/>
   </g>
  </g>
 </g>
 <defs>
  <clipPath id="p2a27256222">
   <rect height="181.44" width="357.12" x="57.6" y="41.472"/>
  </clipPath>
  <clipPath id="pa93766b1fb">
   <rect height="60.48" width="357.12" x="57.6" y="247.104"/>
  </clipPath>
 </defs>
</svg>
