<?xml version="1.0" encoding="utf-8" standalone="no"?>
<!DOCTYPE svg PUBLIC "-//W3C//DTD SVG 1.1//EN"
  "http://www.w3.org/Graphics/SVG/1.1/DTD/svg11.dtd">
<!-- Created with matplotlib (http://matplotlib.org/) -->
<svg height="345.6pt" version="1.1" viewBox="0 0 460.8 345.6" width="460.8pt" xmlns="http://www.w3.org/2000/svg" xmlns:xlink="http://www.w3.org/1999/xlink">
 <defs>
  <style type="text/css">
*{stroke-linecap:butt;stroke-linejoin:round;}
  </style>
 </defs>
 <g id="figure_1">
  <g id="patch_1">
   <path d="M 0 345.6 
L 460.8 345.6 
L 460.8 0 
L 0 0 
z
" style="fill:#ffffff;"/>
  </g>
  <g id="axes_1">
   <g id="patch_2">
    <path d="M 57.6 307.584 
L 414.72 307.584 
L 414.72 41.472 
L 57.6 41.472 
z
" style="fill:#ffffff;"/>
   </g>
   <g id="matplotlib.axis_1">
    <g id="xtick_1">
     <g id="line2d_1">
      <defs>
       <path d="M 0 0 
L 0 3.5 
" id="mdbdb5f1e21" style="stroke:#000000;stroke-width:0.8;"/>
      </defs>
      <g>
       <use style="stroke:#000000;stroke-width:0.8;" x="86.516364" xlink:href="#mdbdb5f1e21" y="307.584"/>
      </g>
     </g>
     <g id="text_1">
      <!-- 20 -->
      <defs>
       <path d="M 19.1875 8.296875 
L 53.609375 8.296875 
L 53.609375 0 
L 7.328125 0 
L 7.328125 8.296875 
Q 12.9375 14.109375 22.625 23.890625 
Q 32.328125 33.6875 34.8125 36.53125 
Q 39.546875 41.84375 41.421875 45.53125 
Q 43.3125 49.21875 43.3125 52.78125 
Q 43.3125 58.59375 39.234375 62.25 
Q 35.15625 65.921875 28.609375 65.921875 
Q 23.96875 65.921875 18.8125 64.3125 
Q 13.671875 62.703125 7.8125 59.421875 
L 7.8125 69.390625 
Q 13.765625 71.78125 18.9375 73 
Q 24.125 74.21875 28.421875 74.21875 
Q 39.75 74.21875 46.484375 68.546875 
Q 53.21875 62.890625 53.21875 53.421875 
Q 53.21875 48.921875 51.53125 44.890625 
Q 49.859375 40.875 45.40625 35.40625 
Q 44.1875 33.984375 37.640625 27.21875 
Q 31.109375 20.453125 19.1875 8.296875 
z
" id="DejaVuSans-32"/>
       <path d="M 31.78125 66.40625 
Q 24.171875 66.40625 20.328125 58.90625 
Q 16.5 51.421875 16.5 36.375 
Q 16.5 21.390625 20.328125 13.890625 
Q 24.171875 6.390625 31.78125 6.390625 
Q 39.453125 6.390625 43.28125 13.890625 
Q 47.125 21.390625 47.125 36.375 
Q 47.125 51.421875 43.28125 58.90625 
Q 39.453125 66.40625 31.78125 66.40625 
z
M 31.78125 74.21875 
Q 44.046875 74.21875 50.515625 64.515625 
Q 56.984375 54.828125 56.984375 36.375 
Q 56.984375 17.96875 50.515625 8.265625 
Q 44.046875 -1.421875 31.78125 -1.421875 
Q 19.53125 -1.421875 13.0625 8.265625 
Q 6.59375 17.96875 6.59375 36.375 
Q 6.59375 54.828125 13.0625 64.515625 
Q 19.53125 74.21875 31.78125 74.21875 
z
" id="DejaVuSans-30"/>
      </defs>
      <g transform="translate(80.153864 322.182437)scale(0.1 -0.1)">
       <use xlink:href="#DejaVuSans-32"/>
       <use x="63.623047" xlink:href="#DejaVuSans-30"/>
      </g>
     </g>
    </g>
    <g id="xtick_2">
     <g id="line2d_2">
      <g>
       <use style="stroke:#000000;stroke-width:0.8;" x="156.101818" xlink:href="#mdbdb5f1e21" y="307.584"/>
      </g>
     </g>
     <g id="text_2">
      <!-- 30 -->
      <defs>
       <path d="M 40.578125 39.3125 
Q 47.65625 37.796875 51.625 33 
Q 55.609375 28.21875 55.609375 21.1875 
Q 55.609375 10.40625 48.1875 4.484375 
Q 40.765625 -1.421875 27.09375 -1.421875 
Q 22.515625 -1.421875 17.65625 -0.515625 
Q 12.796875 0.390625 7.625 2.203125 
L 7.625 11.71875 
Q 11.71875 9.328125 16.59375 8.109375 
Q 21.484375 6.890625 26.8125 6.890625 
Q 36.078125 6.890625 40.9375 10.546875 
Q 45.796875 14.203125 45.796875 21.1875 
Q 45.796875 27.640625 41.28125 31.265625 
Q 36.765625 34.90625 28.71875 34.90625 
L 20.21875 34.90625 
L 20.21875 43.015625 
L 29.109375 43.015625 
Q 36.375 43.015625 40.234375 45.921875 
Q 44.09375 48.828125 44.09375 54.296875 
Q 44.09375 59.90625 40.109375 62.90625 
Q 36.140625 65.921875 28.71875 65.921875 
Q 24.65625 65.921875 20.015625 65.03125 
Q 15.375 64.15625 9.8125 62.3125 
L 9.8125 71.09375 
Q 15.4375 72.65625 20.34375 73.4375 
Q 25.25 74.21875 29.59375 74.21875 
Q 40.828125 74.21875 47.359375 69.109375 
Q 53.90625 64.015625 53.90625 55.328125 
Q 53.90625 49.265625 50.4375 45.09375 
Q 46.96875 40.921875 40.578125 39.3125 
z
" id="DejaVuSans-33"/>
      </defs>
      <g transform="translate(149.739318 322.182437)scale(0.1 -0.1)">
       <use xlink:href="#DejaVuSans-33"/>
       <use x="63.623047" xlink:href="#DejaVuSans-30"/>
      </g>
     </g>
    </g>
    <g id="xtick_3">
     <g id="line2d_3">
      <g>
       <use style="stroke:#000000;stroke-width:0.8;" x="225.687273" xlink:href="#mdbdb5f1e21" y="307.584"/>
      </g>
     </g>
     <g id="text_3">
      <!-- 40 -->
      <defs>
       <path d="M 37.796875 64.3125 
L 12.890625 25.390625 
L 37.796875 25.390625 
z
M 35.203125 72.90625 
L 47.609375 72.90625 
L 47.609375 25.390625 
L 58.015625 25.390625 
L 58.015625 17.1875 
L 47.609375 17.1875 
L 47.609375 0 
L 37.796875 0 
L 37.796875 17.1875 
L 4.890625 17.1875 
L 4.890625 26.703125 
z
" id="DejaVuSans-34"/>
      </defs>
      <g transform="translate(219.324773 322.182437)scale(0.1 -0.1)">
       <use xlink:href="#DejaVuSans-34"/>
       <use x="63.623047" xlink:href="#DejaVuSans-30"/>
      </g>
     </g>
    </g>
    <g id="xtick_4">
     <g id="line2d_4">
      <g>
       <use style="stroke:#000000;stroke-width:0.8;" x="295.272727" xlink:href="#mdbdb5f1e21" y="307.584"/>
      </g>
     </g>
     <g id="text_4">
      <!-- 50 -->
      <defs>
       <path d="M 10.796875 72.90625 
L 49.515625 72.90625 
L 49.515625 64.59375 
L 19.828125 64.59375 
L 19.828125 46.734375 
Q 21.96875 47.46875 24.109375 47.828125 
Q 26.265625 48.1875 28.421875 48.1875 
Q 40.625 48.1875 47.75 41.5 
Q 54.890625 34.8125 54.890625 23.390625 
Q 54.890625 11.625 47.5625 5.09375 
Q 40.234375 -1.421875 26.90625 -1.421875 
Q 22.3125 -1.421875 17.546875 -0.640625 
Q 12.796875 0.140625 7.71875 1.703125 
L 7.71875 11.625 
Q 12.109375 9.234375 16.796875 8.0625 
Q 21.484375 6.890625 26.703125 6.890625 
Q 35.15625 6.890625 40.078125 11.328125 
Q 45.015625 15.765625 45.015625 23.390625 
Q 45.015625 31 40.078125 35.4375 
Q 35.15625 39.890625 26.703125 39.890625 
Q 22.75 39.890625 18.8125 39.015625 
Q 14.890625 38.140625 10.796875 36.28125 
z
" id="DejaVuSans-35"/>
      </defs>
      <g transform="translate(288.910227 322.182437)scale(0.1 -0.1)">
       <use xlink:href="#DejaVuSans-35"/>
       <use x="63.623047" xlink:href="#DejaVuSans-30"/>
      </g>
     </g>
    </g>
    <g id="xtick_5">
     <g id="line2d_5">
      <g>
       <use style="stroke:#000000;stroke-width:0.8;" x="364.858182" xlink:href="#mdbdb5f1e21" y="307.584"/>
      </g>
     </g>
     <g id="text_5">
      <!-- 60 -->
      <defs>
       <path d="M 33.015625 40.375 
Q 26.375 40.375 22.484375 35.828125 
Q 18.609375 31.296875 18.609375 23.390625 
Q 18.609375 15.53125 22.484375 10.953125 
Q 26.375 6.390625 33.015625 6.390625 
Q 39.65625 6.390625 43.53125 10.953125 
Q 47.40625 15.53125 47.40625 23.390625 
Q 47.40625 31.296875 43.53125 35.828125 
Q 39.65625 40.375 33.015625 40.375 
z
M 52.59375 71.296875 
L 52.59375 62.3125 
Q 48.875 64.0625 45.09375 64.984375 
Q 41.3125 65.921875 37.59375 65.921875 
Q 27.828125 65.921875 22.671875 59.328125 
Q 17.53125 52.734375 16.796875 39.40625 
Q 19.671875 43.65625 24.015625 45.921875 
Q 28.375 48.1875 33.59375 48.1875 
Q 44.578125 48.1875 50.953125 41.515625 
Q 57.328125 34.859375 57.328125 23.390625 
Q 57.328125 12.15625 50.6875 5.359375 
Q 44.046875 -1.421875 33.015625 -1.421875 
Q 20.359375 -1.421875 13.671875 8.265625 
Q 6.984375 17.96875 6.984375 36.375 
Q 6.984375 53.65625 15.1875 63.9375 
Q 23.390625 74.21875 37.203125 74.21875 
Q 40.921875 74.21875 44.703125 73.484375 
Q 48.484375 72.75 52.59375 71.296875 
z
" id="DejaVuSans-36"/>
      </defs>
      <g transform="translate(358.495682 322.182437)scale(0.1 -0.1)">
       <use xlink:href="#DejaVuSans-36"/>
       <use x="63.623047" xlink:href="#DejaVuSans-30"/>
      </g>
     </g>
    </g>
    <g id="text_6">
     <!-- Energy (keV) -->
     <defs>
      <path d="M 9.8125 72.90625 
L 55.90625 72.90625 
L 55.90625 64.59375 
L 19.671875 64.59375 
L 19.671875 43.015625 
L 54.390625 43.015625 
L 54.390625 34.71875 
L 19.671875 34.71875 
L 19.671875 8.296875 
L 56.78125 8.296875 
L 56.78125 0 
L 9.8125 0 
z
" id="DejaVuSans-45"/>
      <path d="M 54.890625 33.015625 
L 54.890625 0 
L 45.90625 0 
L 45.90625 32.71875 
Q 45.90625 40.484375 42.875 44.328125 
Q 39.84375 48.1875 33.796875 48.1875 
Q 26.515625 48.1875 22.3125 43.546875 
Q 18.109375 38.921875 18.109375 30.90625 
L 18.109375 0 
L 9.078125 0 
L 9.078125 54.6875 
L 18.109375 54.6875 
L 18.109375 46.1875 
Q 21.34375 51.125 25.703125 53.5625 
Q 30.078125 56 35.796875 56 
Q 45.21875 56 50.046875 50.171875 
Q 54.890625 44.34375 54.890625 33.015625 
z
" id="DejaVuSans-6e"/>
      <path d="M 56.203125 29.59375 
L 56.203125 25.203125 
L 14.890625 25.203125 
Q 15.484375 15.921875 20.484375 11.0625 
Q 25.484375 6.203125 34.421875 6.203125 
Q 39.59375 6.203125 44.453125 7.46875 
Q 49.3125 8.734375 54.109375 11.28125 
L 54.109375 2.78125 
Q 49.265625 0.734375 44.1875 -0.34375 
Q 39.109375 -1.421875 33.890625 -1.421875 
Q 20.796875 -1.421875 13.15625 6.1875 
Q 5.515625 13.8125 5.515625 26.8125 
Q 5.515625 40.234375 12.765625 48.109375 
Q 20.015625 56 32.328125 56 
Q 43.359375 56 49.78125 48.890625 
Q 56.203125 41.796875 56.203125 29.59375 
z
M 47.21875 32.234375 
Q 47.125 39.59375 43.09375 43.984375 
Q 39.0625 48.390625 32.421875 48.390625 
Q 24.90625 48.390625 20.390625 44.140625 
Q 15.875 39.890625 15.1875 32.171875 
z
" id="DejaVuSans-65"/>
      <path d="M 41.109375 46.296875 
Q 39.59375 47.171875 37.8125 47.578125 
Q 36.03125 48 33.890625 48 
Q 26.265625 48 22.1875 43.046875 
Q 18.109375 38.09375 18.109375 28.8125 
L 18.109375 0 
L 9.078125 0 
L 9.078125 54.6875 
L 18.109375 54.6875 
L 18.109375 46.1875 
Q 20.953125 51.171875 25.484375 53.578125 
Q 30.03125 56 36.53125 56 
Q 37.453125 56 38.578125 55.875 
Q 39.703125 55.765625 41.0625 55.515625 
z
" id="DejaVuSans-72"/>
      <path d="M 45.40625 27.984375 
Q 45.40625 37.75 41.375 43.109375 
Q 37.359375 48.484375 30.078125 48.484375 
Q 22.859375 48.484375 18.828125 43.109375 
Q 14.796875 37.75 14.796875 27.984375 
Q 14.796875 18.265625 18.828125 12.890625 
Q 22.859375 7.515625 30.078125 7.515625 
Q 37.359375 7.515625 41.375 12.890625 
Q 45.40625 18.265625 45.40625 27.984375 
z
M 54.390625 6.78125 
Q 54.390625 -7.171875 48.1875 -13.984375 
Q 42 -20.796875 29.203125 -20.796875 
Q 24.46875 -20.796875 20.265625 -20.09375 
Q 16.0625 -19.390625 12.109375 -17.921875 
L 12.109375 -9.1875 
Q 16.0625 -11.328125 19.921875 -12.34375 
Q 23.78125 -13.375 27.78125 -13.375 
Q 36.625 -13.375 41.015625 -8.765625 
Q 45.40625 -4.15625 45.40625 5.171875 
L 45.40625 9.625 
Q 42.625 4.78125 38.28125 2.390625 
Q 33.9375 0 27.875 0 
Q 17.828125 0 11.671875 7.65625 
Q 5.515625 15.328125 5.515625 27.984375 
Q 5.515625 40.671875 11.671875 48.328125 
Q 17.828125 56 27.875 56 
Q 33.9375 56 38.28125 53.609375 
Q 42.625 51.21875 45.40625 46.390625 
L 45.40625 54.6875 
L 54.390625 54.6875 
z
" id="DejaVuSans-67"/>
      <path d="M 32.171875 -5.078125 
Q 28.375 -14.84375 24.75 -17.8125 
Q 21.140625 -20.796875 15.09375 -20.796875 
L 7.90625 -20.796875 
L 7.90625 -13.28125 
L 13.1875 -13.28125 
Q 16.890625 -13.28125 18.9375 -11.515625 
Q 21 -9.765625 23.484375 -3.21875 
L 25.09375 0.875 
L 2.984375 54.6875 
L 12.5 54.6875 
L 29.59375 11.921875 
L 46.6875 54.6875 
L 56.203125 54.6875 
z
" id="DejaVuSans-79"/>
      <path id="DejaVuSans-20"/>
      <path d="M 31 75.875 
Q 24.46875 64.65625 21.28125 53.65625 
Q 18.109375 42.671875 18.109375 31.390625 
Q 18.109375 20.125 21.3125 9.0625 
Q 24.515625 -2 31 -13.1875 
L 23.1875 -13.1875 
Q 15.875 -1.703125 12.234375 9.375 
Q 8.59375 20.453125 8.59375 31.390625 
Q 8.59375 42.28125 12.203125 53.3125 
Q 15.828125 64.359375 23.1875 75.875 
z
" id="DejaVuSans-28"/>
      <path d="M 9.078125 75.984375 
L 18.109375 75.984375 
L 18.109375 31.109375 
L 44.921875 54.6875 
L 56.390625 54.6875 
L 27.390625 29.109375 
L 57.625 0 
L 45.90625 0 
L 18.109375 26.703125 
L 18.109375 0 
L 9.078125 0 
z
" id="DejaVuSans-6b"/>
      <path d="M 28.609375 0 
L 0.78125 72.90625 
L 11.078125 72.90625 
L 34.1875 11.53125 
L 57.328125 72.90625 
L 67.578125 72.90625 
L 39.796875 0 
z
" id="DejaVuSans-56"/>
      <path d="M 8.015625 75.875 
L 15.828125 75.875 
Q 23.140625 64.359375 26.78125 53.3125 
Q 30.421875 42.28125 30.421875 31.390625 
Q 30.421875 20.453125 26.78125 9.375 
Q 23.140625 -1.703125 15.828125 -13.1875 
L 8.015625 -13.1875 
Q 14.5 -2 17.703125 9.0625 
Q 20.90625 20.125 20.90625 31.390625 
Q 20.90625 42.671875 17.703125 53.65625 
Q 14.5 64.65625 8.015625 75.875 
z
" id="DejaVuSans-29"/>
     </defs>
     <g transform="translate(203.686562 335.860562)scale(0.1 -0.1)">
      <use xlink:href="#DejaVuSans-45"/>
      <use x="63.183594" xlink:href="#DejaVuSans-6e"/>
      <use x="126.5625" xlink:href="#DejaVuSans-65"/>
      <use x="188.085938" xlink:href="#DejaVuSans-72"/>
      <use x="229.183594" xlink:href="#DejaVuSans-67"/>
      <use x="292.660156" xlink:href="#DejaVuSans-79"/>
      <use x="351.839844" xlink:href="#DejaVuSans-20"/>
      <use x="383.626953" xlink:href="#DejaVuSans-28"/>
      <use x="422.640625" xlink:href="#DejaVuSans-6b"/>
      <use x="480.503906" xlink:href="#DejaVuSans-65"/>
      <use x="542.027344" xlink:href="#DejaVuSans-56"/>
      <use x="610.435547" xlink:href="#DejaVuSans-29"/>
     </g>
    </g>
   </g>
   <g id="matplotlib.axis_2">
    <g id="ytick_1">
     <g id="line2d_6">
      <defs>
       <path d="M 0 0 
L -3.5 0 
" id="m317515b3f7" style="stroke:#000000;stroke-width:0.8;"/>
      </defs>
      <g>
       <use style="stroke:#000000;stroke-width:0.8;" x="57.6" xlink:href="#m317515b3f7" y="295.493557"/>
      </g>
     </g>
     <g id="text_7">
      <!-- 0 -->
      <g transform="translate(44.2375 299.292776)scale(0.1 -0.1)">
       <use xlink:href="#DejaVuSans-30"/>
      </g>
     </g>
    </g>
    <g id="ytick_2">
     <g id="line2d_7">
      <g>
       <use style="stroke:#000000;stroke-width:0.8;" x="57.6" xlink:href="#m317515b3f7" y="255.800313"/>
      </g>
     </g>
     <g id="text_8">
      <!-- 50000 -->
      <g transform="translate(18.7875 259.599532)scale(0.1 -0.1)">
       <use xlink:href="#DejaVuSans-35"/>
       <use x="63.623047" xlink:href="#DejaVuSans-30"/>
       <use x="127.246094" xlink:href="#DejaVuSans-30"/>
       <use x="190.869141" xlink:href="#DejaVuSans-30"/>
       <use x="254.492188" xlink:href="#DejaVuSans-30"/>
      </g>
     </g>
    </g>
    <g id="ytick_3">
     <g id="line2d_8">
      <g>
       <use style="stroke:#000000;stroke-width:0.8;" x="57.6" xlink:href="#m317515b3f7" y="216.10707"/>
      </g>
     </g>
     <g id="text_9">
      <!-- 100000 -->
      <defs>
       <path d="M 12.40625 8.296875 
L 28.515625 8.296875 
L 28.515625 63.921875 
L 10.984375 60.40625 
L 10.984375 69.390625 
L 28.421875 72.90625 
L 38.28125 72.90625 
L 38.28125 8.296875 
L 54.390625 8.296875 
L 54.390625 0 
L 12.40625 0 
z
" id="DejaVuSans-31"/>
      </defs>
      <g transform="translate(12.425 219.906288)scale(0.1 -0.1)">
       <use xlink:href="#DejaVuSans-31"/>
       <use x="63.623047" xlink:href="#DejaVuSans-30"/>
       <use x="127.246094" xlink:href="#DejaVuSans-30"/>
       <use x="190.869141" xlink:href="#DejaVuSans-30"/>
       <use x="254.492188" xlink:href="#DejaVuSans-30"/>
       <use x="318.115234" xlink:href="#DejaVuSans-30"/>
      </g>
     </g>
    </g>
    <g id="ytick_4">
     <g id="line2d_9">
      <g>
       <use style="stroke:#000000;stroke-width:0.8;" x="57.6" xlink:href="#m317515b3f7" y="176.413826"/>
      </g>
     </g>
     <g id="text_10">
      <!-- 150000 -->
      <g transform="translate(12.425 180.213045)scale(0.1 -0.1)">
       <use xlink:href="#DejaVuSans-31"/>
       <use x="63.623047" xlink:href="#DejaVuSans-35"/>
       <use x="127.246094" xlink:href="#DejaVuSans-30"/>
       <use x="190.869141" xlink:href="#DejaVuSans-30"/>
       <use x="254.492188" xlink:href="#DejaVuSans-30"/>
       <use x="318.115234" xlink:href="#DejaVuSans-30"/>
      </g>
     </g>
    </g>
    <g id="ytick_5">
     <g id="line2d_10">
      <g>
       <use style="stroke:#000000;stroke-width:0.8;" x="57.6" xlink:href="#m317515b3f7" y="136.720582"/>
      </g>
     </g>
     <g id="text_11">
      <!-- 200000 -->
      <g transform="translate(12.425 140.519801)scale(0.1 -0.1)">
       <use xlink:href="#DejaVuSans-32"/>
       <use x="63.623047" xlink:href="#DejaVuSans-30"/>
       <use x="127.246094" xlink:href="#DejaVuSans-30"/>
       <use x="190.869141" xlink:href="#DejaVuSans-30"/>
       <use x="254.492188" xlink:href="#DejaVuSans-30"/>
       <use x="318.115234" xlink:href="#DejaVuSans-30"/>
      </g>
     </g>
    </g>
    <g id="ytick_6">
     <g id="line2d_11">
      <g>
       <use style="stroke:#000000;stroke-width:0.8;" x="57.6" xlink:href="#m317515b3f7" y="97.027339"/>
      </g>
     </g>
     <g id="text_12">
      <!-- 250000 -->
      <g transform="translate(12.425 100.826557)scale(0.1 -0.1)">
       <use xlink:href="#DejaVuSans-32"/>
       <use x="63.623047" xlink:href="#DejaVuSans-35"/>
       <use x="127.246094" xlink:href="#DejaVuSans-30"/>
       <use x="190.869141" xlink:href="#DejaVuSans-30"/>
       <use x="254.492188" xlink:href="#DejaVuSans-30"/>
       <use x="318.115234" xlink:href="#DejaVuSans-30"/>
      </g>
     </g>
    </g>
    <g id="ytick_7">
     <g id="line2d_12">
      <g>
       <use style="stroke:#000000;stroke-width:0.8;" x="57.6" xlink:href="#m317515b3f7" y="57.334095"/>
      </g>
     </g>
     <g id="text_13">
      <!-- 300000 -->
      <g transform="translate(12.425 61.133314)scale(0.1 -0.1)">
       <use xlink:href="#DejaVuSans-33"/>
       <use x="63.623047" xlink:href="#DejaVuSans-30"/>
       <use x="127.246094" xlink:href="#DejaVuSans-30"/>
       <use x="190.869141" xlink:href="#DejaVuSans-30"/>
       <use x="254.492188" xlink:href="#DejaVuSans-30"/>
       <use x="318.115234" xlink:href="#DejaVuSans-30"/>
      </g>
     </g>
    </g>
    <g id="text_14">
     <!-- Counts -->
     <defs>
      <path d="M 64.40625 67.28125 
L 64.40625 56.890625 
Q 59.421875 61.53125 53.78125 63.8125 
Q 48.140625 66.109375 41.796875 66.109375 
Q 29.296875 66.109375 22.65625 58.46875 
Q 16.015625 50.828125 16.015625 36.375 
Q 16.015625 21.96875 22.65625 14.328125 
Q 29.296875 6.6875 41.796875 6.6875 
Q 48.140625 6.6875 53.78125 8.984375 
Q 59.421875 11.28125 64.40625 15.921875 
L 64.40625 5.609375 
Q 59.234375 2.09375 53.4375 0.328125 
Q 47.65625 -1.421875 41.21875 -1.421875 
Q 24.65625 -1.421875 15.125 8.703125 
Q 5.609375 18.84375 5.609375 36.375 
Q 5.609375 53.953125 15.125 64.078125 
Q 24.65625 74.21875 41.21875 74.21875 
Q 47.75 74.21875 53.53125 72.484375 
Q 59.328125 70.75 64.40625 67.28125 
z
" id="DejaVuSans-43"/>
      <path d="M 30.609375 48.390625 
Q 23.390625 48.390625 19.1875 42.75 
Q 14.984375 37.109375 14.984375 27.296875 
Q 14.984375 17.484375 19.15625 11.84375 
Q 23.34375 6.203125 30.609375 6.203125 
Q 37.796875 6.203125 41.984375 11.859375 
Q 46.1875 17.53125 46.1875 27.296875 
Q 46.1875 37.015625 41.984375 42.703125 
Q 37.796875 48.390625 30.609375 48.390625 
z
M 30.609375 56 
Q 42.328125 56 49.015625 48.375 
Q 55.71875 40.765625 55.71875 27.296875 
Q 55.71875 13.875 49.015625 6.21875 
Q 42.328125 -1.421875 30.609375 -1.421875 
Q 18.84375 -1.421875 12.171875 6.21875 
Q 5.515625 13.875 5.515625 27.296875 
Q 5.515625 40.765625 12.171875 48.375 
Q 18.84375 56 30.609375 56 
z
" id="DejaVuSans-6f"/>
      <path d="M 8.5 21.578125 
L 8.5 54.6875 
L 17.484375 54.6875 
L 17.484375 21.921875 
Q 17.484375 14.15625 20.5 10.265625 
Q 23.53125 6.390625 29.59375 6.390625 
Q 36.859375 6.390625 41.078125 11.03125 
Q 45.3125 15.671875 45.3125 23.6875 
L 45.3125 54.6875 
L 54.296875 54.6875 
L 54.296875 0 
L 45.3125 0 
L 45.3125 8.40625 
Q 42.046875 3.421875 37.71875 1 
Q 33.40625 -1.421875 27.6875 -1.421875 
Q 18.265625 -1.421875 13.375 4.4375 
Q 8.5 10.296875 8.5 21.578125 
z
M 31.109375 56 
z
" id="DejaVuSans-75"/>
      <path d="M 18.3125 70.21875 
L 18.3125 54.6875 
L 36.8125 54.6875 
L 36.8125 47.703125 
L 18.3125 47.703125 
L 18.3125 18.015625 
Q 18.3125 11.328125 20.140625 9.421875 
Q 21.96875 7.515625 27.59375 7.515625 
L 36.8125 7.515625 
L 36.8125 0 
L 27.59375 0 
Q 17.1875 0 13.234375 3.875 
Q 9.28125 7.765625 9.28125 18.015625 
L 9.28125 47.703125 
L 2.6875 47.703125 
L 2.6875 54.6875 
L 9.28125 54.6875 
L 9.28125 70.21875 
z
" id="DejaVuSans-74"/>
      <path d="M 44.28125 53.078125 
L 44.28125 44.578125 
Q 40.484375 46.53125 36.375 47.5 
Q 32.28125 48.484375 27.875 48.484375 
Q 21.1875 48.484375 17.84375 46.4375 
Q 14.5 44.390625 14.5 40.28125 
Q 14.5 37.15625 16.890625 35.375 
Q 19.28125 33.59375 26.515625 31.984375 
L 29.59375 31.296875 
Q 39.15625 29.25 43.1875 25.515625 
Q 47.21875 21.78125 47.21875 15.09375 
Q 47.21875 7.46875 41.1875 3.015625 
Q 35.15625 -1.421875 24.609375 -1.421875 
Q 20.21875 -1.421875 15.453125 -0.5625 
Q 10.6875 0.296875 5.421875 2 
L 5.421875 11.28125 
Q 10.40625 8.6875 15.234375 7.390625 
Q 20.0625 6.109375 24.8125 6.109375 
Q 31.15625 6.109375 34.5625 8.28125 
Q 37.984375 10.453125 37.984375 14.40625 
Q 37.984375 18.0625 35.515625 20.015625 
Q 33.0625 21.96875 24.703125 23.78125 
L 21.578125 24.515625 
Q 13.234375 26.265625 9.515625 29.90625 
Q 5.8125 33.546875 5.8125 39.890625 
Q 5.8125 47.609375 11.28125 51.796875 
Q 16.75 56 26.8125 56 
Q 31.78125 56 36.171875 55.265625 
Q 40.578125 54.546875 44.28125 53.078125 
z
" id="DejaVuSans-73"/>
     </defs>
     <g transform="translate(6.345312 191.981125)rotate(-90)scale(0.1 -0.1)">
      <use xlink:href="#DejaVuSans-43"/>
      <use x="69.824219" xlink:href="#DejaVuSans-6f"/>
      <use x="131.005859" xlink:href="#DejaVuSans-75"/>
      <use x="194.384766" xlink:href="#DejaVuSans-6e"/>
      <use x="257.763672" xlink:href="#DejaVuSans-74"/>
      <use x="296.972656" xlink:href="#DejaVuSans-73"/>
     </g>
    </g>
   </g>
   <g id="line2d_13">
    <path clip-path="url(#p5fae0ae48f)" d="M 73.832727 295.488 
L 88.96 295.403056 
L 88.96 295.341135 
L 92.450909 295.252222 
L 92.450909 295.187919 
L 94.778182 295.07916 
L 94.778182 294.909273 
L 95.941818 294.909273 
L 95.941818 294.794162 
L 97.105455 294.794162 
L 97.105455 294.614749 
L 98.269091 294.614749 
L 98.269091 294.279738 
L 99.432727 294.279738 
L 99.432727 293.887568 
L 100.596364 293.887568 
L 100.596364 293.49143 
L 101.76 293.49143 
L 101.76 292.968273 
L 102.923636 292.968273 
L 102.923636 292.377637 
L 104.087273 292.377637 
L 104.087273 291.940218 
L 105.250909 291.940218 
L 105.250909 291.513119 
L 106.414545 291.513119 
L 106.414545 291.187634 
L 107.578182 291.187634 
L 107.578182 291.020128 
L 108.741818 291.020128 
L 108.741818 290.775618 
L 109.905455 290.775618 
L 109.905455 290.222294 
L 111.069091 290.222294 
L 111.069091 290.038912 
L 112.232727 290.038912 
L 112.232727 289.757883 
L 113.396364 289.757883 
L 113.396364 289.537189 
L 114.56 289.537189 
L 114.56 288.68299 
L 116.887273 288.621863 
L 116.887273 288.032021 
L 118.050909 288.032021 
L 118.050909 287.340565 
L 119.214545 287.340565 
L 119.214545 286.978562 
L 120.378182 286.978562 
L 120.378182 286.83011 
L 121.541818 286.83011 
L 121.541818 286.098166 
L 122.705455 286.098166 
L 122.705455 285.902082 
L 123.869091 285.902082 
L 123.869091 285.645663 
L 125.032727 285.645663 
L 125.032727 285.510706 
L 127.36 285.434495 
L 127.36 285.378131 
L 132.014545 285.278898 
L 132.014545 285.845717 
L 136.669091 285.872709 
L 136.669091 286.669749 
L 137.832727 286.669749 
L 137.832727 287.484254 
L 138.996364 287.484254 
L 138.996364 287.352473 
L 140.16 287.352473 
L 140.16 288.154276 
L 141.323636 288.154276 
L 141.323636 288.510722 
L 142.487273 288.510722 
L 142.487273 288.964018 
L 143.650909 288.964018 
L 143.650909 289.39985 
L 144.814545 289.39985 
L 144.814545 289.957937 
L 145.978182 289.957937 
L 145.978182 290.072254 
L 147.141818 290.072254 
L 147.141818 290.551748 
L 148.305455 290.551748 
L 148.305455 290.238965 
L 149.469091 290.238965 
L 149.469091 290.412028 
L 150.632727 290.412028 
L 150.632727 290.266751 
L 152.96 290.312795 
L 152.96 290.475537 
L 154.123636 290.475537 
L 154.123636 289.995249 
L 155.287273 289.995249 
L 155.287273 290.181013 
L 156.450909 290.181013 
L 156.450909 289.846796 
L 159.941818 289.947617 
L 159.941818 290.352488 
L 161.105455 290.352488 
L 161.105455 289.805515 
L 162.269091 289.805515 
L 162.269091 290.130206 
L 164.596364 290.149259 
L 164.596364 290.729574 
L 165.76 290.729574 
L 165.76 290.585091 
L 166.923636 290.585091 
L 166.923636 290.318352 
L 168.087273 290.318352 
L 168.087273 290.607319 
L 169.250909 290.607319 
L 169.250909 290.965352 
L 170.414545 290.965352 
L 170.414545 290.663683 
L 171.578182 290.663683 
L 171.578182 290.513643 
L 172.741818 290.513643 
L 172.741818 290.855005 
L 173.905455 290.855005 
L 173.905455 290.632722 
L 175.069091 290.632722 
L 175.069091 290.796259 
L 178.56 290.701789 
L 178.56 290.411234 
L 179.723636 290.411234 
L 179.723636 290.83754 
L 180.887273 290.83754 
L 180.887273 290.277071 
L 185.541818 290.223088 
L 185.541818 289.997631 
L 186.705455 289.997631 
L 186.705455 289.834888 
L 189.032727 289.914275 
L 189.032727 289.426842 
L 190.196364 289.426842 
L 190.196364 290.038912 
L 191.36 290.038912 
L 191.36 289.795989 
L 192.523636 289.795989 
L 192.523636 289.530838 
L 194.850909 289.545921 
L 194.850909 290.068285 
L 196.014545 290.068285 
L 196.014545 289.788844 
L 197.178182 289.788844 
L 197.178182 289.601492 
L 198.341818 289.601492 
L 198.341818 290.192921 
L 199.505455 290.192921 
L 199.505455 289.997631 
L 200.669091 289.997631 
L 200.669091 289.750739 
L 201.832727 289.750739 
L 201.832727 290.588266 
L 202.996364 290.588266 
L 202.996364 290.446164 
L 204.16 290.446164 
L 204.16 289.638804 
L 205.323636 289.638804 
L 205.323636 290.955032 
L 206.487273 290.955032 
L 206.487273 289.958731 
L 207.650909 289.958731 
L 207.650909 290.377098 
L 208.814545 290.377098 
L 208.814545 290.778 
L 209.978182 290.778 
L 209.978182 289.43875 
L 211.141818 289.43875 
L 211.141818 290.818487 
L 212.305455 290.818487 
L 212.305455 290.372335 
L 213.469091 290.372335 
L 213.469091 289.726923 
L 214.632727 289.726923 
L 214.632727 290.680354 
L 215.796364 290.680354 
L 215.796364 290.115916 
L 216.96 290.115916 
L 216.96 289.754708 
L 218.123636 289.754708 
L 218.123636 290.284216 
L 219.287273 290.284216 
L 219.287273 290.485064 
L 220.450909 290.485064 
L 220.450909 289.969845 
L 221.614545 289.969845 
L 221.614545 289.715809 
L 222.778182 289.715809 
L 222.778182 290.068285 
L 225.105455 290.007951 
L 225.105455 289.950793 
L 226.269091 289.950793 
L 226.269091 290.131794 
L 227.432727 290.131794 
L 227.432727 289.859498 
L 228.596364 289.859498 
L 228.596364 289.722159 
L 229.76 289.722159 
L 229.76 290.28501 
L 230.923636 290.28501 
L 230.923636 289.392706 
L 232.087273 289.392706 
L 232.087273 290.013508 
L 233.250909 290.013508 
L 233.250909 290.149259 
L 234.414545 290.149259 
L 234.414545 289.411758 
L 235.578182 289.411758 
L 235.578182 289.856323 
L 237.905455 289.889665 
L 237.905455 289.051344 
L 239.069091 289.051344 
L 239.069091 290.346137 
L 240.232727 290.346137 
L 240.232727 289.632453 
L 241.396364 289.632453 
L 241.396364 289.033879 
L 242.56 289.033879 
L 242.56 290.07146 
L 243.723636 290.07146 
L 243.723636 288.91083 
L 244.887273 288.91083 
L 244.887273 289.065633 
L 246.050909 289.065633 
L 246.050909 289.531632 
L 247.214545 289.531632 
L 247.214545 288.528187 
L 248.378182 288.528187 
L 248.378182 289.278389 
L 250.705455 289.345867 
L 250.705455 288.561529 
L 251.869091 288.561529 
L 251.869091 288.852084 
L 253.032727 288.852084 
L 253.032727 289.129936 
L 254.196364 289.129936 
L 254.196364 288.324163 
L 256.523636 288.381322 
L 256.523636 288.640915 
L 257.687273 288.640915 
L 257.687273 287.747024 
L 258.850909 287.747024 
L 258.850909 288.565498 
L 260.014545 288.565498 
L 260.014545 287.897858 
L 261.178182 287.897858 
L 261.178182 287.220691 
L 262.341818 287.220691 
L 262.341818 287.902621 
L 264.669091 287.912148 
L 264.669091 286.460963 
L 265.832727 286.460963 
L 265.832727 288.055837 
L 266.996364 288.055837 
L 266.996364 287.396135 
L 268.16 287.396135 
L 268.16 287.110344 
L 269.323636 287.110344 
L 269.323636 287.621593 
L 270.487273 287.621593 
L 270.487273 286.743578 
L 271.650909 286.743578 
L 271.650909 287.728765 
L 272.814545 287.728765 
L 272.814545 286.759456 
L 273.978182 286.759456 
L 273.978182 287.459645 
L 275.141818 287.459645 
L 275.141818 286.976181 
L 276.305455 286.976181 
L 276.305455 286.171202 
L 277.469091 286.171202 
L 277.469091 287.631119 
L 278.632727 287.631119 
L 278.632727 286.031482 
L 279.796364 286.031482 
L 279.796364 286.824553 
L 280.96 286.824553 
L 280.96 286.530029 
L 282.123636 286.530029 
L 282.123636 285.331293 
L 283.287273 285.331293 
L 283.287273 286.734846 
L 284.450909 286.734846 
L 284.450909 285.39242 
L 285.614545 285.39242 
L 285.614545 284.038087 
L 286.778182 284.038087 
L 286.778182 285.721874 
L 287.941818 285.721874 
L 287.941818 283.943617 
L 289.105455 283.943617 
L 289.105455 283.740388 
L 290.269091 283.740388 
L 290.269091 283.484763 
L 291.432727 283.484763 
L 291.432727 282.190763 
L 292.596364 282.190763 
L 292.596364 282.855228 
L 293.76 282.855228 
L 293.76 280.913435 
L 294.923636 280.913435 
L 294.923636 280.422032 
L 296.087273 280.422032 
L 296.087273 282.214579 
L 297.250909 282.214579 
L 297.250909 277.7348 
L 298.414545 277.7348 
L 298.414545 279.438434 
L 299.578182 279.438434 
L 299.578182 279.58133 
L 300.741818 279.58133 
L 300.741818 276.540033 
L 301.905455 276.540033 
L 301.905455 279.844099 
L 303.069091 279.844099 
L 303.069091 277.185445 
L 304.232727 277.185445 
L 304.232727 277.803072 
L 305.396364 277.803072 
L 305.396364 279.111362 
L 306.56 279.111362 
L 306.56 276.010525 
L 307.723636 276.010525 
L 307.723636 278.764443 
L 308.887273 278.764443 
L 308.887273 279.112949 
L 310.050909 279.112949 
L 310.050909 277.10844 
L 311.214545 277.10844 
L 311.214545 278.83589 
L 312.378182 278.83589 
L 312.378182 278.53184 
L 313.541818 278.53184 
L 313.541818 277.873726 
L 314.705455 277.873726 
L 314.705455 279.346346 
L 315.869091 279.346346 
L 315.869091 278.352427 
L 317.032727 278.352427 
L 317.032727 278.76603 
L 318.196364 278.76603 
L 318.196364 280.076701 
L 319.36 280.076701 
L 319.36 279.247906 
L 320.523636 279.247906 
L 320.523636 278.634249 
L 321.687273 278.634249 
L 321.687273 279.925073 
L 322.850909 279.925073 
L 322.850909 279.547193 
L 324.014545 279.547193 
L 324.014545 278.260338 
L 325.178182 278.260338 
L 325.178182 279.045471 
L 326.341818 279.045471 
L 326.341818 279.779796 
L 327.505455 279.779796 
L 327.505455 278.218264 
L 328.669091 278.218264 
L 328.669091 278.953382 
L 330.996364 279.023243 
L 330.996364 278.29765 
L 332.16 278.29765 
L 332.16 277.918976 
L 333.323636 277.918976 
L 333.323636 279.147085 
L 334.487273 279.147085 
L 334.487273 277.816568 
L 335.650909 277.816568 
L 335.650909 275.446087 
L 336.814545 275.446087 
L 336.814545 280.092579 
L 337.978182 280.092579 
L 337.978182 275.56993 
L 339.141818 275.56993 
L 339.141818 275.03169 
L 340.305455 275.03169 
L 340.305455 278.061872 
L 341.469091 278.061872 
L 341.469091 275.11187 
L 342.632727 275.11187 
L 342.632727 274.582362 
L 343.796364 274.582362 
L 343.796364 274.804645 
L 344.96 274.804645 
L 344.96 271.523601 
L 346.123636 271.523601 
L 346.123636 270.889303 
L 347.287273 270.889303 
L 347.287273 268.635521 
L 348.450909 268.635521 
L 348.450909 260.194355 
L 349.614545 260.194355 
L 349.614545 255.713782 
L 350.778182 255.713782 
L 350.778182 242.946847 
L 351.941818 242.946847 
L 351.941818 232.132026 
L 353.105455 232.132026 
L 353.105455 208.910685 
L 354.269091 208.910685 
L 354.269091 191.968814 
L 355.432727 191.968814 
L 355.432727 165.996731 
L 356.596364 165.996731 
L 356.596364 120.181995 
L 357.76 120.181995 
L 357.76 129.087572 
L 358.923636 129.087572 
L 358.923636 89.720606 
L 360.087273 89.720606 
L 360.087273 53.568 
L 361.250909 53.568 
L 361.250909 102.997996 
L 362.414545 102.997996 
L 362.414545 73.189958 
L 363.578182 73.189958 
L 363.578182 91.140831 
L 364.741818 91.140831 
L 364.741818 123.477329 
L 365.905455 123.477329 
L 365.905455 144.409164 
L 367.069091 144.409164 
L 367.069091 171.418034 
L 368.232727 171.418034 
L 368.232727 204.750039 
L 369.396364 204.750039 
L 369.396364 229.320157 
L 370.56 229.320157 
L 370.56 249.829656 
L 371.723636 249.829656 
L 371.723636 261.862266 
L 372.887273 261.862266 
L 372.887273 275.487368 
L 374.050909 275.487368 
L 374.050909 283.291854 
L 375.214545 283.291854 
L 375.214545 287.92088 
L 376.378182 287.92088 
L 376.378182 291.418649 
L 377.541818 291.418649 
L 377.541818 293.342183 
L 378.705455 293.342183 
L 378.705455 294.350392 
L 379.869091 294.350392 
L 379.869091 294.902922 
L 381.032727 294.902922 
L 381.032727 295.193476 
L 382.196364 295.193476 
L 382.196364 295.320495 
L 384.523636 295.411789 
L 384.523636 295.434811 
L 398.487273 295.476886 
L 398.487273 295.482443 
" style="fill:none;stroke:#1f77b4;stroke-linecap:square;stroke-width:1.5;"/>
   </g>
   <g id="patch_3">
    <path d="M 57.6 307.584 
L 57.6 41.472 
" style="fill:none;stroke:#000000;stroke-linecap:square;stroke-linejoin:miter;stroke-width:0.8;"/>
   </g>
   <g id="patch_4">
    <path d="M 57.6 307.584 
L 414.72 307.584 
" style="fill:none;stroke:#000000;stroke-linecap:square;stroke-linejoin:miter;stroke-width:0.8;"/>
   </g>
  </g>
 </g>
 <defs>
  <clipPath id="p5fae0ae48f">
   <rect height="266.112" width="357.12" x="57.6" y="41.472"/>
  </clipPath>
 </defs>
</svg>
