<?xml version="1.0" encoding="utf-8" standalone="no"?>
<!DOCTYPE svg PUBLIC "-//W3C//DTD SVG 1.1//EN"
  "http://www.w3.org/Graphics/SVG/1.1/DTD/svg11.dtd">
<!-- Created with matplotlib (http://matplotlib.org/) -->
<svg height="345.6pt" version="1.1" viewBox="0 0 460.8 345.6" width="460.8pt" xmlns="http://www.w3.org/2000/svg" xmlns:xlink="http://www.w3.org/1999/xlink">
 <defs>
  <style type="text/css">
*{stroke-linecap:butt;stroke-linejoin:round;}
  </style>
 </defs>
 <g id="figure_1">
  <g id="patch_1">
   <path d="M 0 345.6 
L 460.8 345.6 
L 460.8 0 
L 0 0 
z
" style="fill:#ffffff;"/>
  </g>
  <g id="axes_1">
   <g id="patch_2">
    <path d="M 47.28125 309.8725 
L 447.48 309.8725 
L 447.48 13.32 
L 47.28125 13.32 
z
" style="fill:#ffffff;"/>
   </g>
   <g id="matplotlib.axis_1">
    <g id="xtick_1">
     <g id="line2d_1">
      <defs>
       <path d="M 0 0 
L 0 3.5 
" id="md33e7fc8fe" style="stroke:#000000;stroke-width:0.8;"/>
      </defs>
      <g>
       <use style="stroke:#000000;stroke-width:0.8;" x="394.610213" xlink:href="#md33e7fc8fe" y="309.8725"/>
      </g>
     </g>
     <g id="text_1">
      <!-- 2000 -->
      <defs>
       <path d="M 19.1875 8.296875 
L 53.609375 8.296875 
L 53.609375 0 
L 7.328125 0 
L 7.328125 8.296875 
Q 12.9375 14.109375 22.625 23.890625 
Q 32.328125 33.6875 34.8125 36.53125 
Q 39.546875 41.84375 41.421875 45.53125 
Q 43.3125 49.21875 43.3125 52.78125 
Q 43.3125 58.59375 39.234375 62.25 
Q 35.15625 65.921875 28.609375 65.921875 
Q 23.96875 65.921875 18.8125 64.3125 
Q 13.671875 62.703125 7.8125 59.421875 
L 7.8125 69.390625 
Q 13.765625 71.78125 18.9375 73 
Q 24.125 74.21875 28.421875 74.21875 
Q 39.75 74.21875 46.484375 68.546875 
Q 53.21875 62.890625 53.21875 53.421875 
Q 53.21875 48.921875 51.53125 44.890625 
Q 49.859375 40.875 45.40625 35.40625 
Q 44.1875 33.984375 37.640625 27.21875 
Q 31.109375 20.453125 19.1875 8.296875 
z
" id="DejaVuSans-32"/>
       <path d="M 31.78125 66.40625 
Q 24.171875 66.40625 20.328125 58.90625 
Q 16.5 51.421875 16.5 36.375 
Q 16.5 21.390625 20.328125 13.890625 
Q 24.171875 6.390625 31.78125 6.390625 
Q 39.453125 6.390625 43.28125 13.890625 
Q 47.125 21.390625 47.125 36.375 
Q 47.125 51.421875 43.28125 58.90625 
Q 39.453125 66.40625 31.78125 66.40625 
z
M 31.78125 74.21875 
Q 44.046875 74.21875 50.515625 64.515625 
Q 56.984375 54.828125 56.984375 36.375 
Q 56.984375 17.96875 50.515625 8.265625 
Q 44.046875 -1.421875 31.78125 -1.421875 
Q 19.53125 -1.421875 13.0625 8.265625 
Q 6.59375 17.96875 6.59375 36.375 
Q 6.59375 54.828125 13.0625 64.515625 
Q 19.53125 74.21875 31.78125 74.21875 
z
" id="DejaVuSans-30"/>
      </defs>
      <g transform="translate(381.885213 324.470937)scale(0.1 -0.1)">
       <use xlink:href="#DejaVuSans-32"/>
       <use x="63.623047" xlink:href="#DejaVuSans-30"/>
       <use x="127.246094" xlink:href="#DejaVuSans-30"/>
       <use x="190.869141" xlink:href="#DejaVuSans-30"/>
      </g>
     </g>
    </g>
    <g id="text_2">
     <!-- THL -->
     <defs>
      <path d="M -0.296875 72.90625 
L 61.375 72.90625 
L 61.375 64.59375 
L 35.5 64.59375 
L 35.5 0 
L 25.59375 0 
L 25.59375 64.59375 
L -0.296875 64.59375 
z
" id="DejaVuSans-54"/>
      <path d="M 9.8125 72.90625 
L 19.671875 72.90625 
L 19.671875 43.015625 
L 55.515625 43.015625 
L 55.515625 72.90625 
L 65.375 72.90625 
L 65.375 0 
L 55.515625 0 
L 55.515625 34.71875 
L 19.671875 34.71875 
L 19.671875 0 
L 9.8125 0 
z
" id="DejaVuSans-48"/>
      <path d="M 9.8125 72.90625 
L 19.671875 72.90625 
L 19.671875 8.296875 
L 55.171875 8.296875 
L 55.171875 0 
L 9.8125 0 
z
" id="DejaVuSans-4c"/>
     </defs>
     <g transform="translate(237.780625 338.149062)scale(0.1 -0.1)">
      <use xlink:href="#DejaVuSans-54"/>
      <use x="61.083984" xlink:href="#DejaVuSans-48"/>
      <use x="136.279297" xlink:href="#DejaVuSans-4c"/>
     </g>
    </g>
   </g>
   <g id="matplotlib.axis_2">
    <g id="ytick_1">
     <g id="line2d_2">
      <defs>
       <path d="M 0 0 
L -3.5 0 
" id="m26afa25f87" style="stroke:#000000;stroke-width:0.8;"/>
      </defs>
      <g>
       <use style="stroke:#000000;stroke-width:0.8;" x="47.28125" xlink:href="#m26afa25f87" y="243.317485"/>
      </g>
     </g>
     <g id="text_3">
      <!-- 500 -->
      <defs>
       <path d="M 10.796875 72.90625 
L 49.515625 72.90625 
L 49.515625 64.59375 
L 19.828125 64.59375 
L 19.828125 46.734375 
Q 21.96875 47.46875 24.109375 47.828125 
Q 26.265625 48.1875 28.421875 48.1875 
Q 40.625 48.1875 47.75 41.5 
Q 54.890625 34.8125 54.890625 23.390625 
Q 54.890625 11.625 47.5625 5.09375 
Q 40.234375 -1.421875 26.90625 -1.421875 
Q 22.3125 -1.421875 17.546875 -0.640625 
Q 12.796875 0.140625 7.71875 1.703125 
L 7.71875 11.625 
Q 12.109375 9.234375 16.796875 8.0625 
Q 21.484375 6.890625 26.703125 6.890625 
Q 35.15625 6.890625 40.078125 11.328125 
Q 45.015625 15.765625 45.015625 23.390625 
Q 45.015625 31 40.078125 35.4375 
Q 35.15625 39.890625 26.703125 39.890625 
Q 22.75 39.890625 18.8125 39.015625 
Q 14.890625 38.140625 10.796875 36.28125 
z
" id="DejaVuSans-35"/>
      </defs>
      <g transform="translate(21.19375 247.116704)scale(0.1 -0.1)">
       <use xlink:href="#DejaVuSans-35"/>
       <use x="63.623047" xlink:href="#DejaVuSans-30"/>
       <use x="127.246094" xlink:href="#DejaVuSans-30"/>
      </g>
     </g>
    </g>
    <g id="ytick_2">
     <g id="line2d_3">
      <g>
       <use style="stroke:#000000;stroke-width:0.8;" x="47.28125" xlink:href="#m26afa25f87" y="65.374443"/>
      </g>
     </g>
     <g id="text_4">
      <!-- 1000 -->
      <defs>
       <path d="M 12.40625 8.296875 
L 28.515625 8.296875 
L 28.515625 63.921875 
L 10.984375 60.40625 
L 10.984375 69.390625 
L 28.421875 72.90625 
L 38.28125 72.90625 
L 38.28125 8.296875 
L 54.390625 8.296875 
L 54.390625 0 
L 12.40625 0 
z
" id="DejaVuSans-31"/>
      </defs>
      <g transform="translate(14.83125 69.173662)scale(0.1 -0.1)">
       <use xlink:href="#DejaVuSans-31"/>
       <use x="63.623047" xlink:href="#DejaVuSans-30"/>
       <use x="127.246094" xlink:href="#DejaVuSans-30"/>
       <use x="190.869141" xlink:href="#DejaVuSans-30"/>
      </g>
     </g>
    </g>
    <g id="text_5">
     <!-- V_ThA -->
     <defs>
      <path d="M 28.609375 0 
L 0.78125 72.90625 
L 11.078125 72.90625 
L 34.1875 11.53125 
L 57.328125 72.90625 
L 67.578125 72.90625 
L 39.796875 0 
z
" id="DejaVuSans-56"/>
      <path d="M 50.984375 -16.609375 
L 50.984375 -23.578125 
L -0.984375 -23.578125 
L -0.984375 -16.609375 
z
" id="DejaVuSans-5f"/>
      <path d="M 54.890625 33.015625 
L 54.890625 0 
L 45.90625 0 
L 45.90625 32.71875 
Q 45.90625 40.484375 42.875 44.328125 
Q 39.84375 48.1875 33.796875 48.1875 
Q 26.515625 48.1875 22.3125 43.546875 
Q 18.109375 38.921875 18.109375 30.90625 
L 18.109375 0 
L 9.078125 0 
L 9.078125 75.984375 
L 18.109375 75.984375 
L 18.109375 46.1875 
Q 21.34375 51.125 25.703125 53.5625 
Q 30.078125 56 35.796875 56 
Q 45.21875 56 50.046875 50.171875 
Q 54.890625 44.34375 54.890625 33.015625 
z
" id="DejaVuSans-68"/>
      <path d="M 34.1875 63.1875 
L 20.796875 26.90625 
L 47.609375 26.90625 
z
M 28.609375 72.90625 
L 39.796875 72.90625 
L 67.578125 0 
L 57.328125 0 
L 50.6875 18.703125 
L 17.828125 18.703125 
L 11.1875 0 
L 0.78125 0 
z
" id="DejaVuSans-41"/>
     </defs>
     <g transform="translate(8.473438 177.159531)rotate(-90)scale(0.1 -0.1)">
      <use xlink:href="#DejaVuSans-56"/>
      <use x="68.408203" xlink:href="#DejaVuSans-5f"/>
      <use x="118.408203" xlink:href="#DejaVuSans-54"/>
      <use x="179.492188" xlink:href="#DejaVuSans-68"/>
      <use x="242.871094" xlink:href="#DejaVuSans-41"/>
     </g>
    </g>
   </g>
   <g id="line2d_4">
    <path clip-path="url(#p7e530bfdac)" d="M 91.150557 346.6 
L 91.235683 319.477107 
L 91.328125 346.6 
M 250.137646 346.6 
L 250.220083 320.900651 
L 250.301033 346.6 
M 409.144051 346.6 
L 409.204484 328.730145 
L 409.265152 346.6 
L 409.265152 346.6 
" style="fill:none;stroke:#1f77b4;stroke-linecap:square;stroke-width:1.5;"/>
   </g>
   <g id="line2d_5">
    <path clip-path="url(#p7e530bfdac)" d="M 0 0 
" style="fill:none;stroke:#ff7f0e;stroke-linecap:square;stroke-width:1.5;"/>
   </g>
   <g id="line2d_6">
    <path clip-path="url(#p7e530bfdac)" d="M 0 0 
" style="fill:none;stroke:#2ca02c;stroke-linecap:square;stroke-width:1.5;"/>
   </g>
   <g id="line2d_7">
    <path clip-path="url(#p7e530bfdac)" d="M -1 298.384226 
L -0.98769 298.835714 
L -0.677173 301.326917 
L -0.366657 281.753182 
L -0.05614 294.209195 
L 0.254376 293.141537 
L 0.564892 296.344511 
L 0.875409 291.362106 
L 1.185925 293.497423 
L 1.496442 303.462233 
L 1.806958 302.038689 
L 2.117474 287.091473 
L 2.427991 296.344511 
L 2.738507 294.920967 
L 3.049024 290.650334 
L 3.35954 288.870904 
L 3.670056 293.853309 
L 3.980573 291.362106 
L 4.291089 291.00622 
L 4.601606 308.088752 
L 4.912122 289.938562 
L 6.154188 286.023815 
L 6.775221 302.038689 
L 7.085737 287.803245 
L 7.396253 287.447359 
L 7.70677 285.667929 
L 8.017286 292.78565 
L 8.327803 293.497423 
L 8.638319 284.244384 
L 8.948835 278.550207 
L 9.259352 287.447359 
L 9.569868 283.176726 
L 9.880385 286.023815 
L 10.190901 280.329638 
L 10.501417 278.906093 
L 10.811934 276.414891 
L 11.12245 278.194321 
L 11.432967 278.906093 
L 11.743483 279.261979 
L 12.053999 278.194321 
L 12.364516 278.194321 
L 12.675032 274.279574 
L 12.985549 278.194321 
L 13.296065 275.703118 
L 13.606581 265.738308 
L 13.917098 274.991346 
L 14.227614 276.414891 
L 14.538131 279.261979 
L 15.159163 273.567802 
L 15.46968 274.63546 
L 15.780196 277.838435 
L 16.090713 277.838435 
L 16.401229 268.941283 
L 16.711746 270.364827 
L 17.022262 270.364827 
L 17.332778 271.788372 
L 17.643295 268.941283 
L 17.953811 263.602992 
L 18.264328 271.432485 
L 18.574844 270.364827 
L 18.88536 266.094194 
L 19.195877 268.941283 
L 19.506393 263.247106 
L 19.81691 271.076599 
L 20.127426 267.517739 
L 20.437942 268.585397 
L 20.748459 268.585397 
L 21.058975 263.247106 
L 21.369492 264.314764 
L 21.680008 281.753182 
L 21.990524 277.838435 
L 22.301041 266.805966 
L 22.611557 267.161852 
L 22.922074 263.602992 
L 23.23259 253.638181 
L 23.543106 263.602992 
L 23.853623 264.314764 
L 24.164139 264.314764 
L 24.785172 256.841156 
L 25.095689 261.823561 
L 25.406205 260.755903 
L 25.716721 261.111789 
L 26.027238 270.720713 
L 26.337754 265.382422 
L 26.648271 269.297169 
L 26.958787 264.314764 
L 27.269303 256.48527 
L 27.57982 260.755903 
L 27.890336 259.332359 
L 28.200853 259.332359 
L 28.511369 245.096915 
L 28.821885 254.705839 
L 29.442918 258.2647 
L 29.753435 254.349953 
L 30.063951 253.994067 
L 30.374467 256.841156 
L 30.684984 272.500144 
L 30.9955 254.349953 
L 31.306017 253.282295 
L 31.616533 257.197042 
L 32.237566 255.773498 
L 32.858599 248.655776 
L 33.169115 260.755903 
L 33.479631 256.841156 
L 33.790148 254.349953 
L 34.100664 261.111789 
L 34.411181 251.858751 
L 34.721697 253.282295 
L 35.032214 251.858751 
L 35.34273 264.67065 
L 35.653246 247.232232 
L 35.963763 246.52046 
L 36.274279 251.858751 
L 36.584796 246.52046 
L 36.895312 248.29989 
L 37.205828 246.164573 
L 37.516345 249.723434 
L 37.826861 234.064447 
L 38.137378 247.232232 
L 38.447894 249.723434 
L 38.75841 256.129384 
L 39.068927 244.385143 
L 39.379443 245.096915 
L 39.68996 243.317485 
L 40.000476 245.452801 
L 40.310992 231.217358 
L 40.621509 243.317485 
L 40.932025 239.758624 
L 41.242542 243.317485 
L 41.863574 237.623307 
L 42.484607 244.029257 
L 42.795124 226.234953 
L 43.10564 244.741029 
L 43.416157 246.876346 
L 43.726673 242.605713 
L 44.037189 241.182168 
L 44.347706 252.926409 
L 44.658222 236.911535 
L 45.279255 235.132105 
L 45.589771 226.590839 
L 45.900288 236.199763 
L 46.210804 235.132105 
L 46.521321 240.826282 
L 46.831837 229.793814 
L 47.142353 235.843877 
L 47.45287 231.573244 
L 47.763386 237.623307 
L 48.384419 230.1497 
L 48.694935 234.064447 
L 49.005452 232.285016 
L 49.315968 232.640902 
L 49.626485 218.405459 
L 50.247517 235.843877 
L 50.558034 218.049573 
L 50.86855 230.861472 
L 51.179067 225.167295 
L 51.489583 231.573244 
L 51.800099 235.132105 
L 52.421132 218.049573 
L 52.731649 229.082041 
L 53.042165 247.588118 
L 53.352682 229.437928 
L 53.663198 230.861472 
L 53.973714 226.946725 
L 54.284231 227.302611 
L 54.594747 225.167295 
L 54.905264 221.608434 
L 55.21578 225.167295 
L 55.526296 215.55837 
L 55.836813 226.590839 
L 56.147329 226.590839 
L 56.457846 221.608434 
L 56.768362 214.490712 
L 57.078878 225.167295 
L 57.389395 224.455522 
L 57.699911 221.608434 
L 58.010428 226.234953 
L 58.63146 224.455522 
L 58.941977 236.199763 
L 59.252493 223.031978 
L 59.56301 218.405459 
L 59.873526 222.320206 
L 60.184042 205.949446 
L 60.805075 228.370269 
L 61.115592 221.96432 
L 61.426108 218.761345 
L 61.736625 221.96432 
L 62.047141 219.473117 
L 62.357657 209.508307 
L 62.668174 215.55837 
L 62.97869 203.102357 
L 63.289207 216.981915 
L 63.599723 215.55837 
L 63.910239 220.540775 
L 64.220756 229.793814 
L 64.531272 214.846598 
L 64.841789 213.067168 
L 65.462821 218.761345 
L 65.773338 203.814129 
L 66.083854 208.084762 
L 66.394371 217.337801 
L 66.704887 211.287737 
L 67.015403 216.626028 
L 67.32592 207.37299 
L 67.636436 212.355395 
L 67.946953 202.034699 
L 68.257469 215.55837 
L 68.567985 209.508307 
L 68.878502 211.643623 
L 69.189018 207.37299 
L 69.499535 208.796535 
L 69.810051 223.031978 
L 70.120567 193.493433 
L 70.431084 208.796535 
L 70.7416 199.18761 
L 71.052117 210.220079 
L 71.362633 208.796535 
L 71.67315 209.864193 
L 71.983666 215.55837 
L 72.294182 211.287737 
L 72.604699 216.626028 
L 72.915215 205.237674 
L 73.225732 206.661218 
L 73.536248 202.034699 
L 73.846764 209.152421 
L 74.157281 200.967041 
L 74.467797 205.237674 
L 74.778314 196.340522 
L 75.08883 191.358117 
L 75.399346 202.034699 
L 75.709863 205.949446 
L 76.020379 218.049573 
L 76.641412 200.611155 
L 76.951928 199.899383 
L 77.572961 201.322927 
L 77.883478 200.611155 
L 78.193994 203.814129 
L 78.50451 197.40818 
L 78.815027 198.475838 
L 79.125543 216.981915 
L 79.43606 197.764066 
L 79.746576 197.052294 
L 80.057093 195.272863 
L 80.367609 186.375711 
L 80.988642 201.322927 
L 81.609675 194.205205 
L 81.920191 196.340522 
L 82.230707 195.984636 
L 82.541224 210.575965 
L 82.85174 198.119952 
L 83.162257 194.561091 
L 83.472773 192.781661 
L 83.783289 192.069889 
L 84.093806 197.40818 
L 84.404322 191.714003 
L 84.714839 193.493433 
L 85.025355 183.884509 
L 85.335871 200.967041 
L 85.956904 184.952167 
L 86.267421 195.62875 
L 86.577937 189.934572 
L 86.888453 188.155142 
L 87.19897 189.2228 
L 87.509486 191.00223 
L 87.820003 175.699129 
L 88.130519 191.00223 
L 88.441035 191.358117 
L 88.751552 190.646344 
L 89.062068 187.44337 
L 89.372585 201.322927 
L 89.993618 172.85204 
L 90.304134 191.358117 
L 90.61465 189.578686 
L 90.925167 184.952167 
L 91.235683 187.799256 
L 91.235683 187.799256 
" style="fill:none;stroke:#d62728;stroke-linecap:square;stroke-width:1.5;"/>
   </g>
   <g id="line2d_8">
    <path clip-path="url(#p7e530bfdac)" d="M -1 296.282166 
L 91.235683 183.735532 
L 91.235683 183.735532 
" style="fill:none;stroke:#9467bd;stroke-linecap:square;stroke-width:1.5;"/>
   </g>
   <g id="line2d_9">
    <path clip-path="url(#p7e530bfdac)" d="M 47.28125 321.186467 
L 447.48 321.186467 
" style="fill:none;stroke:#000000;stroke-dasharray:3.33,1.44;stroke-dashoffset:0;stroke-width:0.9;"/>
   </g>
   <g id="line2d_10">
    <path clip-path="url(#p7e530bfdac)" d="M 91.5462 289.582676 
L 91.856716 300.259258 
L 92.167232 289.22679 
L 92.477749 290.294448 
L 92.788265 292.073878 
L 93.098782 277.126663 
L 93.409298 291.717992 
L 93.719814 292.78565 
L 94.030331 291.00622 
L 94.340847 290.650334 
L 94.651364 278.906093 
L 95.272396 292.429764 
L 95.582913 292.429764 
L 95.893429 288.159131 
L 96.203946 285.667929 
L 96.514462 284.956157 
L 96.824978 271.076599 
L 97.446011 288.870904 
L 97.756528 281.397296 
L 98.067044 285.312043 
L 98.377561 283.888498 
L 98.688077 280.329638 
L 99.30911 284.956157 
L 99.619626 284.600271 
L 99.930143 280.685524 
L 100.240659 281.04141 
L 100.551175 283.532612 
L 100.861692 281.04141 
L 101.172208 281.397296 
L 101.482725 279.973751 
L 101.793241 276.770777 
L 102.103757 279.261979 
L 102.414274 274.63546 
L 102.72479 281.04141 
L 103.035307 277.126663 
L 103.345823 283.176726 
L 103.656339 273.211916 
L 103.966856 273.567802 
L 104.587889 276.059005 
L 104.898405 279.973751 
L 105.208921 278.550207 
L 105.519438 276.414891 
L 105.829954 271.076599 
L 106.140471 274.991346 
L 106.450987 273.567802 
L 106.761503 274.279574 
L 107.07202 272.144258 
L 107.382536 272.144258 
L 107.693053 267.161852 
L 108.314086 272.144258 
L 108.624602 268.585397 
L 108.935118 282.464954 
L 109.245635 266.45008 
L 109.556151 278.906093 
L 109.866668 278.906093 
L 110.4877 265.026536 
L 110.798217 269.297169 
L 111.108733 269.297169 
L 111.41925 264.314764 
L 111.729766 252.570523 
L 112.350799 271.076599 
L 112.661315 258.2647 
L 112.971832 252.214637 
L 113.282348 265.738308 
L 113.592864 265.026536 
L 113.903381 263.958878 
L 114.213897 262.179447 
L 114.524414 247.588118 
L 114.83493 260.044131 
L 115.145446 260.755903 
L 115.455963 277.126663 
L 115.766479 258.620586 
L 116.076996 260.755903 
L 116.387512 258.620586 
L 116.698029 261.467675 
L 117.008545 260.400017 
L 117.319061 257.908814 
L 117.629578 250.435206 
L 117.940094 257.197042 
L 118.250611 260.755903 
L 118.561127 258.620586 
L 118.871643 249.723434 
L 119.18216 257.197042 
L 119.492676 259.332359 
L 119.803193 255.417612 
L 120.113709 253.638181 
L 120.424225 240.11451 
L 120.734742 258.620586 
L 121.045258 255.417612 
L 121.355775 255.417612 
L 121.666291 250.791093 
L 121.976807 252.214637 
L 122.287324 254.705839 
L 122.59784 254.349953 
L 122.908357 267.161852 
L 123.218873 247.588118 
L 123.529389 244.385143 
L 123.839906 251.858751 
L 124.150422 249.723434 
L 124.460939 253.282295 
L 124.771455 235.843877 
L 125.081971 250.07932 
L 125.392488 243.673371 
L 125.703004 246.164573 
L 126.013521 241.89394 
L 126.324037 241.538054 
L 126.634554 246.876346 
L 126.94507 246.52046 
L 127.255586 244.385143 
L 127.566103 230.861472 
L 127.876619 244.385143 
L 128.187136 245.452801 
L 128.497652 231.217358 
L 128.808168 237.979194 
L 129.118685 239.402738 
L 129.429201 245.452801 
L 129.739718 238.33508 
L 130.050234 228.370269 
L 130.36075 240.826282 
L 130.671267 242.961599 
L 130.981783 236.555649 
L 131.602816 245.096915 
L 131.913332 237.267421 
L 132.223849 244.385143 
L 132.534365 243.317485 
L 132.844882 237.267421 
L 133.155398 238.690966 
L 133.465914 235.843877 
L 133.776431 238.690966 
L 134.086947 236.555649 
L 134.397464 238.690966 
L 134.70798 236.199763 
L 135.018497 228.370269 
L 135.329013 234.420333 
L 135.639529 236.199763 
L 135.950046 232.996788 
L 136.260562 246.164573 
L 136.571079 235.132105 
L 136.881595 238.33508 
L 137.192111 220.540775 
L 137.502628 231.217358 
L 137.813144 246.876346 
L 138.123661 235.132105 
L 138.434177 231.573244 
L 138.744693 232.640902 
L 139.05521 232.640902 
L 139.365726 236.199763 
L 139.676243 229.437928 
L 139.986759 231.92913 
L 140.297275 230.861472 
L 140.607792 236.199763 
L 140.918308 232.640902 
L 141.228825 240.470396 
L 141.849857 228.370269 
L 142.160374 223.031978 
L 142.47089 224.455522 
L 142.781407 229.793814 
L 143.091923 237.267421 
L 143.402439 229.793814 
L 143.712956 244.029257 
L 144.023472 223.387864 
L 144.333989 227.302611 
L 144.644505 223.74375 
L 144.955022 229.082041 
L 145.265538 226.234953 
L 145.576054 227.658497 
L 145.886571 240.470396 
L 146.197087 230.1497 
L 146.507604 224.455522 
L 146.81812 225.167295 
L 147.128636 219.473117 
L 147.439153 237.623307 
L 147.749669 221.608434 
L 148.060186 216.981915 
L 148.681218 225.167295 
L 148.991735 220.540775 
L 149.302251 222.676092 
L 149.612768 230.861472 
L 149.923284 221.96432 
L 150.2338 221.252548 
L 150.544317 218.405459 
L 150.854833 220.896662 
L 151.16535 205.949446 
L 151.475866 214.846598 
L 151.786382 218.761345 
L 152.096899 212.355395 
L 152.407415 216.270142 
L 152.717932 202.034699 
L 153.028448 205.237674 
L 153.649481 220.184889 
L 153.959997 205.59356 
L 154.270514 213.77894 
L 154.58103 214.134826 
L 154.891547 215.914256 
L 155.202063 216.270142 
L 155.512579 213.067168 
L 155.823096 208.084762 
L 156.133612 207.017104 
L 156.444129 214.134826 
L 156.754645 210.575965 
L 157.065161 228.370269 
L 157.375678 213.423054 
L 157.686194 211.643623 
L 157.996711 196.696408 
L 158.307227 219.117231 
L 158.617743 200.967041 
L 158.92826 223.031978 
L 159.238776 209.152421 
L 159.549293 209.508307 
L 159.859809 200.611155 
L 160.170325 209.508307 
L 160.480842 206.661218 
L 160.791358 223.74375 
L 161.101875 193.493433 
L 161.412391 202.390585 
L 161.722907 192.069889 
L 162.033424 206.661218 
L 162.34394 192.425775 
L 162.654457 210.220079 
L 162.964973 205.949446 
L 163.27549 207.017104 
L 163.896522 200.255269 
L 164.207039 201.678813 
L 164.517555 189.934572 
L 165.138588 214.134826 
L 165.449104 216.270142 
L 165.759621 195.272863 
L 166.070137 203.458243 
L 166.380654 202.390585 
L 166.69117 202.390585 
L 167.001686 194.561091 
L 167.312203 197.40818 
L 167.622719 202.390585 
L 167.933236 198.119952 
L 168.243752 199.18761 
L 168.554268 198.119952 
L 168.864785 200.611155 
L 169.175301 198.119952 
L 169.485818 199.543496 
L 169.796334 194.205205 
L 170.10685 203.102357 
L 170.727883 195.984636 
L 171.0384 197.764066 
L 171.348916 196.696408 
L 171.659433 192.781661 
L 171.969949 195.984636 
L 172.280465 190.646344 
L 172.901498 194.916977 
L 173.212015 195.984636 
L 173.522531 189.934572 
L 173.833047 190.290458 
L 174.143564 192.069889 
L 174.45408 191.358117 
L 174.764597 198.475838 
L 175.075113 195.62875 
L 175.385629 187.44337 
L 175.696146 189.934572 
L 176.006662 176.410901 
L 176.317179 189.578686 
L 176.627695 179.969762 
L 176.938211 187.44337 
L 177.248728 186.731597 
L 177.559244 200.967041 
L 177.869761 189.578686 
L 178.180277 187.44337 
L 178.490793 191.714003 
L 178.80131 186.019825 
L 179.111826 190.646344 
L 179.422343 173.207926 
L 179.732859 184.240395 
L 180.043375 186.375711 
L 180.353892 181.03742 
L 180.664408 182.105078 
L 180.974925 176.410901 
L 181.285441 183.172737 
L 181.595958 186.375711 
L 181.906474 183.172737 
L 182.21699 183.884509 
L 182.527507 182.105078 
L 182.838023 171.428496 
L 183.459056 195.62875 
L 183.769572 180.681534 
L 184.080089 181.393306 
L 184.390605 184.240395 
L 184.701122 183.172737 
L 185.011638 178.190331 
L 185.322154 179.25799 
L 185.632671 182.105078 
L 185.943187 191.358117 
L 186.253704 179.613876 
L 186.56422 178.190331 
L 186.874736 178.190331 
L 187.495769 171.07261 
L 187.806286 163.599002 
L 188.116802 181.03742 
L 188.427318 178.190331 
L 188.737835 173.919698 
L 189.048351 176.766787 
L 189.358868 174.987357 
L 189.669384 179.25799 
L 189.979901 176.766787 
L 190.600933 168.937293 
L 191.221966 171.428496 
L 191.842999 177.834445 
L 192.153515 172.140268 
L 192.774548 166.801977 
L 193.085065 173.207926 
L 193.395581 174.987357 
L 193.706097 169.649065 
L 194.016614 169.293179 
L 194.32713 171.784382 
L 194.637647 186.019825 
L 194.948163 156.48128 
L 195.258679 171.07261 
L 195.569196 167.513749 
L 195.879712 176.766787 
L 196.190229 181.749192 
L 196.500745 166.801977 
L 196.811261 164.310774 
L 197.121778 183.528623 
L 197.432294 167.513749 
L 197.742811 172.85204 
L 198.053327 171.428496 
L 198.363843 166.801977 
L 198.67436 155.769508 
L 198.984876 165.378432 
L 199.295393 166.801977 
L 199.605909 159.684255 
L 199.916426 166.446091 
L 200.226942 163.954888 
L 200.537458 152.922419 
L 200.847975 175.343243 
L 201.469008 156.48128 
L 201.779524 174.275584 
L 202.09004 152.922419 
L 202.400557 163.599002 
L 202.711073 162.88723 
L 203.02159 156.837166 
L 203.642622 163.243116 
L 203.953139 159.328369 
L 204.263655 177.122673 
L 204.574172 160.396027 
L 204.884688 160.040141 
L 205.195204 153.990078 
L 205.505721 160.751913 
L 205.816237 176.410901 
L 206.126754 155.413622 
L 206.43727 144.73704 
L 207.058303 159.328369 
L 207.368819 152.210647 
L 207.679336 155.057736 
L 207.989852 169.293179 
L 208.300369 153.990078 
L 208.610885 155.057736 
L 208.921401 158.260711 
L 209.231918 156.125394 
L 209.542434 147.584128 
L 209.852951 151.142989 
L 210.163467 151.498875 
L 210.473983 166.801977 
L 210.7845 154.70185 
L 211.095016 150.787103 
L 211.405533 137.263432 
L 211.716049 151.498875 
L 212.026565 149.363559 
L 212.337082 152.566533 
L 212.647598 147.940014 
L 212.958115 151.854761 
L 213.268631 150.787103 
L 213.579147 146.160584 
L 213.889664 149.363559 
L 214.20018 151.142989 
L 214.510697 161.463685 
L 214.821213 149.719445 
L 215.131729 152.922419 
L 215.442246 146.160584 
L 215.752762 149.363559 
L 216.063279 157.193052 
L 216.373795 146.872356 
L 216.684311 149.363559 
L 216.994828 145.092926 
L 217.305344 142.957609 
L 217.615861 147.940014 
L 217.926377 157.193052 
L 218.236894 152.566533 
L 218.54741 143.669381 
L 218.857926 144.025267 
L 219.168443 146.160584 
L 219.478959 150.787103 
L 219.789476 143.313495 
L 220.099992 143.669381 
L 220.410508 143.313495 
L 220.721025 140.11052 
L 221.342058 139.398748 
L 221.652574 130.501596 
L 222.273607 143.669381 
L 222.584123 139.754634 
L 222.89464 142.957609 
L 223.205156 136.55166 
L 223.515672 153.990078 
L 223.826189 137.263432 
L 224.136705 142.245837 
L 224.447222 135.839887 
L 224.757738 137.263432 
L 225.068254 134.060457 
L 225.378771 138.33109 
L 225.689287 135.839887 
L 225.999804 147.228242 
L 226.31032 135.839887 
L 226.620837 138.33109 
L 226.931353 132.992799 
L 227.241869 134.060457 
L 227.552386 130.857482 
L 227.862902 134.416343 
L 228.173419 134.416343 
L 228.483935 134.060457 
L 228.794451 135.484001 
L 229.104968 134.416343 
L 229.415484 129.433938 
L 229.726001 131.569254 
L 230.036517 135.484001 
L 230.347033 127.654507 
L 230.65755 131.92514 
L 230.968066 140.466407 
L 231.278583 140.466407 
L 231.899615 128.722166 
L 232.210132 129.789824 
L 232.520648 129.433938 
L 232.831165 124.807419 
L 233.141681 128.722166 
L 233.452197 127.298621 
L 233.762714 141.889951 
L 234.07323 129.789824 
L 234.383747 126.230963 
L 234.694263 126.230963 
L 235.004779 119.825014 
L 235.315296 136.55166 
L 235.625812 124.451533 
L 235.936329 126.942735 
L 236.246845 120.536786 
L 236.557362 142.601723 
L 236.867878 128.36628 
L 237.178394 128.36628 
L 237.488911 123.383874 
L 237.799427 128.722166 
L 238.109944 120.536786 
L 238.42046 128.36628 
L 238.730976 130.14571 
L 239.041493 121.96033 
L 239.352009 121.604444 
L 239.662526 123.383874 
L 239.973042 123.739761 
L 240.283558 122.316216 
L 240.594075 119.469128 
L 240.904591 121.96033 
L 241.215108 136.55166 
L 241.525624 119.113241 
L 241.83614 130.857482 
L 242.146657 117.333811 
L 242.457173 118.401469 
L 242.76769 118.401469 
L 243.078206 116.266153 
L 243.388722 102.742482 
L 243.699239 117.333811 
L 244.009755 118.757355 
L 244.320272 114.486722 
L 244.941305 118.757355 
L 245.251821 111.283748 
L 245.562337 119.825014 
L 245.872854 118.757355 
L 246.18337 118.757355 
L 246.804403 108.436659 
L 247.114919 111.283748 
L 247.425436 110.571975 
L 247.735952 116.622039 
L 248.046469 107.724887 
L 248.356985 113.419064 
L 248.667501 112.351406 
L 248.978018 107.369001 
L 249.288534 112.707292 
L 249.599051 101.318937 
L 249.909567 111.639634 
L 250.220083 108.080773 
L 250.220083 108.080773 
" style="fill:none;stroke:#8c564b;stroke-linecap:square;stroke-width:1.5;"/>
   </g>
   <g id="line2d_11">
    <path clip-path="url(#p7e530bfdac)" d="M 91.5462 287.037004 
L 250.220083 108.852575 
L 250.220083 108.852575 
" style="fill:none;stroke:#e377c2;stroke-linecap:square;stroke-width:1.5;"/>
   </g>
   <g id="line2d_12">
    <path clip-path="url(#p7e530bfdac)" d="M 47.28125 234.328647 
L 447.48 234.328647 
" style="fill:none;stroke:#000000;stroke-dasharray:3.33,1.44;stroke-dashoffset:0;stroke-width:0.9;"/>
   </g>
   <g id="line2d_13">
    <path clip-path="url(#p7e530bfdac)" d="M 250.5306 208.440649 
L 250.841116 210.220079 
L 251.151633 210.931851 
L 251.462149 191.00223 
L 251.772665 207.37299 
L 252.393698 198.475838 
L 252.704215 191.714003 
L 253.014731 204.525902 
L 253.325247 205.949446 
L 253.635764 204.881788 
L 253.94628 204.881788 
L 254.256797 207.37299 
L 254.567313 198.119952 
L 254.87783 192.781661 
L 255.188346 204.881788 
L 255.498862 200.611155 
L 255.809379 203.458243 
L 256.119895 197.764066 
L 256.430412 204.881788 
L 256.740928 201.678813 
L 257.051444 204.525902 
L 257.361961 194.561091 
L 257.672477 203.458243 
L 257.982994 201.322927 
L 258.29351 200.611155 
L 258.604026 200.255269 
L 258.914543 195.984636 
L 259.225059 196.340522 
L 259.535576 196.340522 
L 259.846092 183.172737 
L 260.156608 214.134826 
L 260.467125 197.052294 
L 260.777641 195.272863 
L 261.088158 192.425775 
L 261.398674 193.137547 
L 261.70919 192.781661 
L 262.019707 194.205205 
L 262.330223 188.866914 
L 262.64074 207.37299 
L 262.951256 195.984636 
L 263.261773 192.069889 
L 263.572289 194.561091 
L 263.882805 193.493433 
L 264.193322 194.916977 
L 264.503838 189.578686 
L 264.814355 191.714003 
L 265.124871 188.155142 
L 265.435387 190.290458 
L 265.745904 191.00223 
L 266.05642 190.646344 
L 266.366937 186.731597 
L 266.677453 196.696408 
L 266.987969 186.731597 
L 267.298486 186.019825 
L 267.609002 177.834445 
L 267.919519 201.322927 
L 268.230035 183.172737 
L 268.540551 187.087484 
L 268.851068 185.308053 
L 269.161584 187.44337 
L 269.472101 191.358117 
L 269.782617 171.784382 
L 270.093133 179.25799 
L 270.40365 170.716724 
L 270.714166 183.884509 
L 271.024683 181.03742 
L 271.335199 184.596281 
L 271.645715 184.596281 
L 271.956232 183.172737 
L 272.266748 171.428496 
L 272.577265 182.105078 
L 272.887781 183.528623 
L 273.508814 179.613876 
L 273.81933 185.308053 
L 274.129847 180.681534 
L 274.440363 185.308053 
L 274.75088 184.596281 
L 275.682429 177.478559 
L 275.992945 178.902104 
L 276.303462 183.172737 
L 277.545527 172.85204 
L 277.856044 167.869635 
L 278.16656 178.546218 
L 278.477076 173.207926 
L 278.787593 190.646344 
L 279.098109 176.410901 
L 279.408626 173.563812 
L 279.719142 178.902104 
L 280.029658 171.784382 
L 280.340175 176.766787 
L 280.650691 172.496154 
L 281.271724 174.631471 
L 281.582241 173.207926 
L 281.892757 181.393306 
L 282.203273 173.563812 
L 282.51379 168.937293 
L 282.824306 172.140268 
L 283.134823 169.649065 
L 283.445339 172.85204 
L 283.755855 167.157863 
L 284.066372 168.937293 
L 284.376888 183.528623 
L 284.687405 170.716724 
L 284.997921 173.207926 
L 285.308437 168.225521 
L 285.618954 159.684255 
L 285.92947 170.004951 
L 286.239987 165.022546 
L 286.550503 168.937293 
L 286.861019 167.869635 
L 287.171536 166.090205 
L 287.482052 166.090205 
L 287.792569 167.513749 
L 288.103085 167.513749 
L 288.413601 161.107799 
L 288.724118 168.581407 
L 289.034634 168.581407 
L 289.345151 169.293179 
L 289.655667 165.022546 
L 289.966183 167.513749 
L 290.2767 158.972483 
L 290.587216 160.396027 
L 290.897733 156.125394 
L 291.208249 162.175458 
L 291.518766 159.684255 
L 291.829282 160.751913 
L 292.139798 163.243116 
L 292.450315 159.684255 
L 292.760831 157.548939 
L 293.071348 160.396027 
L 293.381864 161.107799 
L 293.69238 160.751913 
L 294.002897 161.107799 
L 294.313413 157.548939 
L 294.62393 159.328369 
L 294.934446 156.837166 
L 295.244962 158.260711 
L 295.555479 156.48128 
L 295.865995 159.684255 
L 296.176512 156.125394 
L 296.487028 162.175458 
L 296.797544 155.413622 
L 297.108061 151.142989 
L 297.418577 153.634192 
L 298.03961 166.090205 
L 298.350126 150.787103 
L 298.660643 165.378432 
L 299.281676 151.498875 
L 299.592192 151.854761 
L 299.902709 168.937293 
L 300.213225 147.940014 
L 300.523741 150.431217 
L 300.834258 150.431217 
L 301.144774 150.787103 
L 301.455291 164.310774 
L 302.076323 149.007673 
L 302.38684 149.363559 
L 302.697356 150.431217 
L 303.007873 137.975204 
L 303.318389 148.651786 
L 303.628905 153.634192 
L 303.939422 148.651786 
L 304.249938 164.310774 
L 304.560455 157.904825 
L 304.870971 145.804698 
L 305.181487 149.007673 
L 305.492004 149.007673 
L 305.80252 143.669381 
L 306.113037 150.075331 
L 306.423553 146.160584 
L 306.734069 143.669381 
L 307.044586 145.448812 
L 307.355102 145.804698 
L 307.665619 147.228242 
L 307.976135 146.51647 
L 308.597168 144.381153 
L 308.907684 137.975204 
L 309.528717 133.704571 
L 309.839234 148.2959 
L 310.14975 146.160584 
L 310.460266 150.787103 
L 310.770783 138.686976 
L 311.081299 139.754634 
L 311.391816 135.128115 
L 311.702332 139.042862 
L 312.012848 132.281027 
L 312.323365 137.975204 
L 312.944398 137.263432 
L 313.254914 126.586849 
L 313.56543 139.042862 
L 313.875947 136.907546 
L 314.186463 135.839887 
L 314.49698 136.195773 
L 314.807496 134.772229 
L 315.118012 137.975204 
L 315.428529 138.686976 
L 315.739045 136.907546 
L 316.049562 138.33109 
L 316.360078 137.975204 
L 316.670594 137.975204 
L 316.981111 135.484001 
L 317.291627 137.975204 
L 317.602144 133.348685 
L 317.91266 135.839887 
L 318.223177 119.825014 
L 318.533693 129.433938 
L 318.844209 119.825014 
L 319.154726 135.484001 
L 319.465242 131.569254 
L 319.775759 130.14571 
L 320.086275 119.825014 
L 320.396791 130.857482 
L 320.707308 129.433938 
L 321.017824 129.078052 
L 321.328341 134.060457 
L 321.638857 130.501596 
L 321.949373 131.569254 
L 322.25989 127.298621 
L 322.570406 144.73704 
L 323.191439 114.486722 
L 323.501955 126.942735 
L 323.812472 126.942735 
L 324.122988 127.654507 
L 324.433505 139.398748 
L 324.744021 127.654507 
L 325.054537 127.654507 
L 325.365054 143.669381 
L 325.67557 126.586849 
L 325.986087 119.825014 
L 326.296603 121.248558 
L 326.607119 135.484001 
L 326.917636 123.739761 
L 327.228152 128.36628 
L 327.538669 125.163305 
L 327.849185 123.383874 
L 328.159702 122.316216 
L 328.470218 119.825014 
L 328.780734 123.383874 
L 329.091251 110.571975 
L 329.401767 121.248558 
L 329.712284 110.571975 
L 330.0228 117.689697 
L 330.333316 105.233684 
L 330.643833 118.045583 
L 330.954349 116.977925 
L 331.264866 135.128115 
L 331.575382 118.401469 
L 331.885898 119.113241 
L 332.196415 136.195773 
L 332.506931 115.198495 
L 332.817448 119.825014 
L 333.127964 128.010394 
L 333.43848 114.486722 
L 333.748997 115.198495 
L 334.059513 117.333811 
L 334.37003 111.283748 
L 334.680546 113.77495 
L 334.991062 113.419064 
L 335.301579 131.92514 
L 335.612095 113.419064 
L 335.922612 117.689697 
L 336.233128 116.977925 
L 336.543645 109.148431 
L 336.854161 114.130836 
L 337.164677 113.063178 
L 337.475194 113.063178 
L 337.78571 114.486722 
L 338.406743 109.504317 
L 338.717259 109.860203 
L 339.027776 103.454254 
L 339.338292 109.504317 
L 339.648809 109.860203 
L 339.959325 110.927862 
L 340.269841 108.080773 
L 340.580358 122.672102 
L 340.890874 107.369001 
L 341.201391 105.58957 
L 341.511907 109.148431 
L 341.822423 109.504317 
L 342.13294 108.080773 
L 342.443456 107.369001 
L 342.753973 100.963051 
L 343.375005 108.080773 
L 343.685522 89.930583 
L 343.996038 108.436659 
L 344.306555 109.148431 
L 344.617071 93.133557 
L 344.927587 107.369001 
L 345.238104 103.098368 
L 345.54862 102.030709 
L 345.859137 101.674823 
L 346.169653 102.386596 
L 346.48017 104.877798 
L 346.790686 111.99552 
L 347.101202 98.827735 
L 347.411719 106.301342 
L 347.722235 102.742482 
L 348.032752 97.40419 
L 348.343268 102.030709 
L 348.653784 102.030709 
L 348.964301 101.318937 
L 349.274817 89.574696 
L 349.585334 98.115962 
L 349.89585 99.183621 
L 350.206366 115.198495 
L 350.827399 89.21881 
L 351.137916 98.115962 
L 351.448432 97.40419 
L 351.758948 99.895393 
L 352.379981 94.557102 
L 352.690498 100.607165 
L 353.001014 96.336532 
L 353.31153 96.336532 
L 353.622047 98.471849 
L 353.932563 81.03343 
L 354.24308 92.065899 
L 354.553596 95.980646 
L 354.864113 97.048304 
L 355.174629 94.201216 
L 355.485145 95.980646 
L 355.795662 94.557102 
L 356.106178 91.354127 
L 356.416695 91.710013 
L 356.727211 84.948177 
L 357.037727 103.81014 
L 357.348244 94.557102 
L 357.65876 108.080773 
L 357.969277 107.369001 
L 358.279793 90.998241 
L 358.590309 91.354127 
L 358.900826 86.015836 
L 359.211342 84.948177 
L 359.521859 88.862924 
L 359.832375 89.574696 
L 360.142891 84.592291 
L 360.453408 88.151152 
L 360.763924 87.083494 
L 361.074441 87.795266 
L 361.384957 86.371722 
L 361.695473 90.286469 
L 362.00599 88.151152 
L 362.316506 87.795266 
L 362.627023 86.015836 
L 362.937539 82.101089 
L 363.248055 82.456975 
L 363.558572 88.507038 
L 363.869088 80.321658 
L 364.179605 94.201216 
L 364.490121 82.101089 
L 364.800638 80.321658 
L 365.111154 77.118684 
L 365.42167 86.371722 
L 365.732187 69.645076 
L 366.042703 81.03343 
L 366.35322 98.827735 
L 366.663736 72.492164 
L 366.974252 80.321658 
L 367.284769 91.354127 
L 367.595285 72.136278 
L 367.905802 79.965772 
L 368.216318 81.745203 
L 368.526834 81.745203 
L 368.837351 82.456975 
L 369.147867 82.101089 
L 369.458384 79.254 
L 369.7689 80.321658 
L 370.079416 78.186342 
L 370.389933 81.03343 
L 370.700449 73.915709 
L 371.010966 83.524633 
L 371.321482 74.627481 
L 371.631998 79.609886 
L 372.253031 74.271595 
L 372.563548 73.559823 
L 372.874064 75.339253 
L 373.184581 73.915709 
L 373.495097 73.915709 
L 373.805613 76.051025 
L 374.11613 74.271595 
L 374.426646 70.000962 
L 374.737163 75.339253 
L 375.047679 76.051025 
L 375.358195 84.948177 
L 375.668712 66.442101 
L 375.979228 73.559823 
L 376.289745 68.933304 
L 376.600261 72.492164 
L 376.910777 80.321658 
L 377.221294 68.933304 
L 377.53181 64.662671 
L 377.842327 78.542228 
L 378.152843 71.06862 
L 378.463359 53.630202 
L 378.773876 73.203937 
L 379.084392 66.442101 
L 379.394909 65.018557 
L 379.705425 77.118684 
L 380.015941 65.730329 
L 380.326458 77.830456 
L 380.636974 67.153873 
L 380.947491 63.950898 
L 381.258007 62.88324 
L 381.568523 65.730329 
L 381.87904 56.833177 
L 382.189556 63.239126 
L 382.500073 65.374443 
L 382.810589 66.086215 
L 383.121106 62.88324 
L 383.431622 54.69786 
L 383.742138 60.392038 
L 384.052655 68.933304 
L 384.363171 72.492164 
L 384.673688 58.968493 
L 384.984204 61.459696 
L 385.29472 57.544949 
L 385.605237 60.036151 
L 385.915753 58.968493 
L 386.22627 61.459696 
L 386.536786 60.392038 
L 386.847302 77.830456 
L 387.157819 50.783113 
L 388.089368 62.171468 
L 388.399884 43.309506 
L 388.710401 58.256721 
L 389.020917 57.544949 
L 389.331434 56.477291 
L 389.64195 64.662671 
L 389.952466 54.69786 
L 390.573499 50.071341 
L 390.884016 56.477291 
L 391.194532 52.91843 
L 391.505049 53.274316 
L 391.815565 57.900835 
L 392.126081 66.797987 
L 392.436598 47.580139 
L 392.747114 49.359569 
L 393.057631 63.950898 
L 393.368147 46.51248 
L 393.98918 66.086215 
L 394.299696 52.206658 
L 394.610213 50.427227 
L 394.920729 67.509759 
L 395.231245 50.071341 
L 395.541762 47.224252 
L 395.852278 54.341974 
L 396.162795 64.662671 
L 396.473311 51.494885 
L 396.783827 50.783113 
L 397.094344 49.715455 
L 397.40486 46.51248 
L 397.715377 51.850772 
L 398.025893 37.615328 
L 398.336409 46.868366 
L 398.646926 51.138999 
L 398.957442 41.885961 
L 399.267959 44.377164 
L 399.578475 57.189063 
L 399.888991 43.665392 
L 400.199508 49.003683 
L 400.820541 40.818303 
L 401.131057 59.680265 
L 401.441574 30.497607 
L 401.75209 38.682986 
L 402.062606 41.174189 
L 402.373123 41.530075 
L 402.683639 46.156594 
L 402.994156 52.562544 
L 403.304672 40.818303 
L 403.615188 51.850772 
L 403.925705 39.750645 
L 404.236221 45.444822 
L 404.546738 41.530075 
L 404.857254 39.038873 
L 405.478287 38.3271 
L 405.788803 40.106531 
L 406.09932 37.615328 
L 406.409836 39.394759 
L 406.720352 35.124126 
L 407.030869 40.462417 
L 407.341385 39.038873 
L 407.651902 36.54767 
L 407.962418 50.783113 
L 408.272934 36.191784 
L 408.583451 38.3271 
L 408.893967 36.191784 
L 409.204484 36.903556 
L 409.204484 36.903556 
" style="fill:none;stroke:#7f7f7f;stroke-linecap:square;stroke-width:1.5;"/>
   </g>
   <g id="line2d_14">
    <path clip-path="url(#p7e530bfdac)" d="M 250.5306 206.124349 
L 409.204484 36.527077 
L 409.204484 36.527077 
" style="fill:none;stroke:#bcbd22;stroke-linecap:square;stroke-width:1.5;"/>
   </g>
   <g id="line2d_15">
    <path clip-path="url(#p7e530bfdac)" d="M 47.28125 156.746255 
L 447.48 156.746255 
" style="fill:none;stroke:#000000;stroke-dasharray:3.33,1.44;stroke-dashoffset:0;stroke-width:0.9;"/>
   </g>
   <g id="line2d_16">
    <path clip-path="url(#p7e530bfdac)" d="M 409.515 129.433938 
L 409.825517 130.501596 
L 410.136033 143.669381 
L 410.446549 131.92514 
L 410.757066 132.281027 
L 411.067582 128.722166 
L 411.378099 132.636913 
L 411.688615 145.804698 
L 411.999131 132.992799 
L 412.309648 126.942735 
L 412.620164 141.534065 
L 412.930681 145.448812 
L 413.241197 125.875077 
L 413.551713 125.519191 
L 413.86223 129.433938 
L 414.172746 128.010394 
L 414.483263 124.807419 
L 414.793779 125.163305 
L 415.104295 126.942735 
L 415.414812 126.230963 
L 415.725328 128.722166 
L 416.035845 116.622039 
L 416.346361 119.825014 
L 416.656877 124.451533 
L 416.967394 119.113241 
L 417.27791 122.316216 
L 417.588427 122.672102 
L 417.898943 124.095647 
L 418.209459 124.095647 
L 418.830492 116.622039 
L 419.141009 123.027988 
L 419.451525 122.316216 
L 419.762042 120.1809 
L 420.072558 119.113241 
L 420.383074 108.080773 
L 420.693591 120.892672 
L 421.004107 119.113241 
L 421.314624 115.198495 
L 421.62514 134.060457 
L 421.935656 131.213368 
L 422.246173 122.316216 
L 422.556689 104.877798 
L 422.867206 124.807419 
L 423.177722 115.554381 
L 423.488238 102.386596 
L 423.798755 114.486722 
L 424.419788 118.401469 
L 424.730304 110.927862 
L 425.04082 118.401469 
L 425.351337 116.266153 
L 425.661853 117.689697 
L 425.97237 105.233684 
L 426.282886 117.333811 
L 426.593402 114.842608 
L 426.903919 125.163305 
L 427.214435 109.860203 
L 427.524952 108.436659 
L 427.835468 110.571975 
L 428.145985 108.792545 
L 428.456501 99.895393 
L 428.767017 113.419064 
L 429.077534 108.080773 
L 429.38805 108.436659 
L 429.698567 113.063178 
L 430.009083 103.81014 
L 430.319599 109.860203 
L 430.630116 105.58957 
L 430.940632 109.860203 
L 431.251149 109.148431 
L 431.561665 103.098368 
L 431.872181 108.080773 
L 432.182698 107.724887 
L 432.493214 110.927862 
L 432.803731 101.674823 
L 433.114247 120.892672 
L 433.424763 101.674823 
L 434.045796 108.436659 
L 434.356313 105.58957 
L 434.666829 103.81014 
L 434.977345 98.827735 
L 435.287862 105.58957 
L 435.598378 103.098368 
L 435.908895 102.030709 
L 436.219411 109.504317 
L 436.529927 107.013115 
L 436.840444 99.539507 
L 437.15096 105.58957 
L 437.461477 102.030709 
L 437.771993 101.318937 
L 438.08251 97.40419 
L 438.393026 100.963051 
L 438.703542 96.336532 
L 439.014059 97.40419 
L 439.324575 94.912988 
L 439.635092 99.183621 
L 439.945608 95.980646 
L 440.256124 102.386596 
L 440.566641 93.133557 
L 440.877157 92.065899 
L 441.49819 114.486722 
L 441.808706 90.998241 
L 442.119223 95.268874 
L 442.429739 94.557102 
L 442.740256 99.895393 
L 443.050772 92.777671 
L 443.671805 96.692418 
L 443.982321 92.421785 
L 444.292838 96.692418 
L 444.603354 92.777671 
L 444.91387 94.201216 
L 445.224387 94.201216 
L 445.534903 94.912988 
L 445.84542 92.777671 
L 446.155936 84.948177 
L 446.466453 87.083494 
L 446.776969 78.186342 
L 447.087485 83.168747 
L 447.398002 95.62476 
L 448.019035 88.151152 
L 448.329551 88.507038 
L 448.640067 87.795266 
L 448.950584 88.507038 
L 449.2611 99.183621 
L 449.571617 77.830456 
L 449.882133 83.880519 
L 450.192649 85.304063 
L 450.503166 88.862924 
L 450.813682 88.151152 
L 451.124199 93.845329 
L 451.434715 87.795266 
L 451.745231 86.371722 
L 452.055748 89.574696 
L 452.366264 103.454254 
L 452.676781 87.083494 
L 452.987297 85.65995 
L 453.297813 88.862924 
L 453.60833 84.592291 
L 453.918846 83.168747 
L 454.229363 84.592291 
L 454.850395 96.336532 
L 455.160912 81.745203 
L 455.471428 81.745203 
L 455.781945 81.389317 
L 456.092461 81.745203 
L 456.402978 81.389317 
L 456.713494 78.542228 
L 457.02401 82.101089 
L 457.334527 70.712734 
L 457.645043 77.47457 
L 458.266076 81.389317 
L 458.576592 73.559823 
L 458.887109 75.695139 
L 459.197625 79.609886 
L 459.508142 74.983367 
L 459.818658 76.051025 
L 460.129174 77.830456 
L 460.439691 76.406911 
L 460.750207 73.203937 
L 461.060724 74.271595 
L 461.37124 72.136278 
L 461.8 74.322269 
L 461.8 74.322269 
" style="fill:none;stroke:#17becf;stroke-linecap:square;stroke-width:1.5;"/>
   </g>
   <g id="line2d_17">
    <path clip-path="url(#p7e530bfdac)" d="M 409.515 131.885809 
L 461.8 75.62772 
L 461.8 75.62772 
" style="fill:none;stroke:#1f77b4;stroke-linecap:square;stroke-width:1.5;"/>
   </g>
   <g id="line2d_18">
    <path clip-path="url(#p7e530bfdac)" d="M 47.28125 84.21508 
L 447.48 84.21508 
" style="fill:none;stroke:#000000;stroke-dasharray:3.33,1.44;stroke-dashoffset:0;stroke-width:0.9;"/>
   </g>
   <g id="line2d_19">
    <path clip-path="url(#p7e530bfdac)" d="M 0 0 
" style="fill:none;stroke:#ff7f0e;stroke-linecap:square;stroke-width:1.5;"/>
   </g>
   <g id="line2d_20">
    <path clip-path="url(#p7e530bfdac)" d="M 0 0 
" style="fill:none;stroke:#2ca02c;stroke-linecap:square;stroke-width:1.5;"/>
   </g>
   <g id="line2d_21">
    <path clip-path="url(#p7e530bfdac)" d="M 47.28125 9.414157 
L 447.48 9.414157 
" style="fill:none;stroke:#000000;stroke-dasharray:3.33,1.44;stroke-dashoffset:0;stroke-width:0.9;"/>
   </g>
   <g id="line2d_22">
    <path clip-path="url(#p7e530bfdac)" d="M 0 0 
" style="fill:none;stroke:#d62728;stroke-linecap:square;stroke-width:1.5;"/>
   </g>
   <g id="line2d_23">
    <path clip-path="url(#p7e530bfdac)" d="M 0 0 
" style="fill:none;stroke:#9467bd;stroke-linecap:square;stroke-width:1.5;"/>
   </g>
   <g id="line2d_24">
    <path clip-path="url(#p7e530bfdac)" style="fill:none;stroke:#000000;stroke-dasharray:3.33,1.44;stroke-dashoffset:0;stroke-width:0.9;"/>
   </g>
   <g id="line2d_25">
    <path clip-path="url(#p7e530bfdac)" d="M 0 0 
" style="fill:none;stroke:#8c564b;stroke-linecap:square;stroke-width:1.5;"/>
   </g>
   <g id="line2d_26">
    <path clip-path="url(#p7e530bfdac)" d="M 0 0 
" style="fill:none;stroke:#e377c2;stroke-linecap:square;stroke-width:1.5;"/>
   </g>
   <g id="line2d_27">
    <path clip-path="url(#p7e530bfdac)" style="fill:none;stroke:#000000;stroke-dasharray:3.33,1.44;stroke-dashoffset:0;stroke-width:0.9;"/>
   </g>
   <g id="line2d_28">
    <path clip-path="url(#p7e530bfdac)" d="M 0 0 
" style="fill:none;stroke:#7f7f7f;stroke-linecap:square;stroke-width:1.5;"/>
   </g>
   <g id="line2d_29">
    <path clip-path="url(#p7e530bfdac)" d="M 0 0 
" style="fill:none;stroke:#bcbd22;stroke-linecap:square;stroke-width:1.5;"/>
   </g>
   <g id="line2d_30">
    <path clip-path="url(#p7e530bfdac)" style="fill:none;stroke:#000000;stroke-dasharray:3.33,1.44;stroke-dashoffset:0;stroke-width:0.9;"/>
   </g>
   <g id="line2d_31">
    <path clip-path="url(#p7e530bfdac)" d="M 0 0 
" style="fill:none;stroke:#17becf;stroke-linecap:square;stroke-width:1.5;"/>
   </g>
   <g id="line2d_32">
    <path clip-path="url(#p7e530bfdac)" d="M 0 0 
" style="fill:none;stroke:#1f77b4;stroke-linecap:square;stroke-width:1.5;"/>
   </g>
   <g id="line2d_33">
    <path clip-path="url(#p7e530bfdac)" style="fill:none;stroke:#000000;stroke-dasharray:3.33,1.44;stroke-dashoffset:0;stroke-width:0.9;"/>
   </g>
   <g id="line2d_34">
    <path clip-path="url(#p7e530bfdac)" d="M 0 0 
" style="fill:none;stroke:#ff7f0e;stroke-linecap:square;stroke-width:1.5;"/>
   </g>
   <g id="line2d_35">
    <path clip-path="url(#p7e530bfdac)" d="M 0 0 
" style="fill:none;stroke:#2ca02c;stroke-linecap:square;stroke-width:1.5;"/>
   </g>
   <g id="line2d_36">
    <path clip-path="url(#p7e530bfdac)" style="fill:none;stroke:#000000;stroke-dasharray:3.33,1.44;stroke-dashoffset:0;stroke-width:0.9;"/>
   </g>
   <g id="line2d_37">
    <path clip-path="url(#p7e530bfdac)" d="M 0 0 
" style="fill:none;stroke:#d62728;stroke-linecap:square;stroke-width:1.5;"/>
   </g>
   <g id="line2d_38">
    <path clip-path="url(#p7e530bfdac)" d="M 0 0 
" style="fill:none;stroke:#9467bd;stroke-linecap:square;stroke-width:1.5;"/>
   </g>
   <g id="line2d_39">
    <path clip-path="url(#p7e530bfdac)" style="fill:none;stroke:#000000;stroke-dasharray:3.33,1.44;stroke-dashoffset:0;stroke-width:0.9;"/>
   </g>
   <g id="line2d_40">
    <path clip-path="url(#p7e530bfdac)" d="M 0 0 
" style="fill:none;stroke:#8c564b;stroke-linecap:square;stroke-width:1.5;"/>
   </g>
   <g id="line2d_41">
    <path clip-path="url(#p7e530bfdac)" d="M 0 0 
" style="fill:none;stroke:#e377c2;stroke-linecap:square;stroke-width:1.5;"/>
   </g>
   <g id="line2d_42">
    <path clip-path="url(#p7e530bfdac)" style="fill:none;stroke:#000000;stroke-dasharray:3.33,1.44;stroke-dashoffset:0;stroke-width:0.9;"/>
   </g>
   <g id="line2d_43">
    <path clip-path="url(#p7e530bfdac)" d="M 0 0 
" style="fill:none;stroke:#7f7f7f;stroke-linecap:square;stroke-width:1.5;"/>
   </g>
   <g id="line2d_44">
    <path clip-path="url(#p7e530bfdac)" d="M 0 0 
" style="fill:none;stroke:#bcbd22;stroke-linecap:square;stroke-width:1.5;"/>
   </g>
   <g id="line2d_45">
    <path clip-path="url(#p7e530bfdac)" style="fill:none;stroke:#000000;stroke-dasharray:3.33,1.44;stroke-dashoffset:0;stroke-width:0.9;"/>
   </g>
   <g id="line2d_46">
    <path clip-path="url(#p7e530bfdac)" d="M 0 0 
" style="fill:none;stroke:#17becf;stroke-linecap:square;stroke-width:1.5;"/>
   </g>
   <g id="line2d_47">
    <path clip-path="url(#p7e530bfdac)" d="M 0 0 
" style="fill:none;stroke:#1f77b4;stroke-linecap:square;stroke-width:1.5;"/>
   </g>
   <g id="line2d_48">
    <path clip-path="url(#p7e530bfdac)" style="fill:none;stroke:#000000;stroke-dasharray:3.33,1.44;stroke-dashoffset:0;stroke-width:0.9;"/>
   </g>
   <g id="patch_3">
    <path d="M 47.28125 346.6 
L 47.28125 -1 
" style="fill:none;stroke:#000000;stroke-linecap:square;stroke-linejoin:miter;stroke-width:0.8;"/>
   </g>
   <g id="patch_4">
    <path d="M -1 309.8725 
L 461.8 309.8725 
" style="fill:none;stroke:#000000;stroke-linecap:square;stroke-linejoin:miter;stroke-width:0.8;"/>
   </g>
  </g>
 </g>
 <defs>
  <clipPath id="p7e530bfdac">
   <rect height="296.5525" width="400.19875" x="47.28125" y="13.32"/>
  </clipPath>
 </defs>
</svg>
