<?xml version="1.0" encoding="utf-8" standalone="no"?>
<!DOCTYPE svg PUBLIC "-//W3C//DTD SVG 1.1//EN"
  "http://www.w3.org/Graphics/SVG/1.1/DTD/svg11.dtd">
<!-- Created with matplotlib (http://matplotlib.org/) -->
<svg height="288pt" version="1.1" viewBox="0 0 432 288" width="432pt" xmlns="http://www.w3.org/2000/svg" xmlns:xlink="http://www.w3.org/1999/xlink">
 <defs>
  <style type="text/css">
*{stroke-linecap:butt;stroke-linejoin:round;}
  </style>
 </defs>
 <g id="figure_1">
  <g id="patch_1">
   <path d="M 0 288 
L 432 288 
L 432 0 
L 0 0 
z
" style="fill:#ffffff;"/>
  </g>
  <g id="axes_1">
   <g id="patch_2">
    <path d="M 54 252 
L 388.8 252 
L 388.8 34.56 
L 54 34.56 
z
" style="fill:#ffffff;"/>
   </g>
   <g id="matplotlib.axis_1">
    <g id="xtick_1">
     <g id="line2d_1">
      <defs>
       <path d="M 0 0 
L 0 3.5 
" id="m2cc4abea4e" style="stroke:#000000;stroke-width:0.8;"/>
      </defs>
      <g>
       <use style="stroke:#000000;stroke-width:0.8;" x="78.646172" xlink:href="#m2cc4abea4e" y="252"/>
      </g>
     </g>
     <g id="text_1">
      <!-- 10 -->
      <defs>
       <path d="M 12.40625 8.296875 
L 28.515625 8.296875 
L 28.515625 63.921875 
L 10.984375 60.40625 
L 10.984375 69.390625 
L 28.421875 72.90625 
L 38.28125 72.90625 
L 38.28125 8.296875 
L 54.390625 8.296875 
L 54.390625 0 
L 12.40625 0 
z
" id="DejaVuSans-31"/>
       <path d="M 31.78125 66.40625 
Q 24.171875 66.40625 20.328125 58.90625 
Q 16.5 51.421875 16.5 36.375 
Q 16.5 21.390625 20.328125 13.890625 
Q 24.171875 6.390625 31.78125 6.390625 
Q 39.453125 6.390625 43.28125 13.890625 
Q 47.125 21.390625 47.125 36.375 
Q 47.125 51.421875 43.28125 58.90625 
Q 39.453125 66.40625 31.78125 66.40625 
z
M 31.78125 74.21875 
Q 44.046875 74.21875 50.515625 64.515625 
Q 56.984375 54.828125 56.984375 36.375 
Q 56.984375 17.96875 50.515625 8.265625 
Q 44.046875 -1.421875 31.78125 -1.421875 
Q 19.53125 -1.421875 13.0625 8.265625 
Q 6.59375 17.96875 6.59375 36.375 
Q 6.59375 54.828125 13.0625 64.515625 
Q 19.53125 74.21875 31.78125 74.21875 
z
" id="DejaVuSans-30"/>
      </defs>
      <g transform="translate(72.283672 266.598437)scale(0.1 -0.1)">
       <use xlink:href="#DejaVuSans-31"/>
       <use x="63.623047" xlink:href="#DejaVuSans-30"/>
      </g>
     </g>
    </g>
    <g id="xtick_2">
     <g id="line2d_2">
      <g>
       <use style="stroke:#000000;stroke-width:0.8;" x="132.456346" xlink:href="#m2cc4abea4e" y="252"/>
      </g>
     </g>
     <g id="text_2">
      <!-- 20 -->
      <defs>
       <path d="M 19.1875 8.296875 
L 53.609375 8.296875 
L 53.609375 0 
L 7.328125 0 
L 7.328125 8.296875 
Q 12.9375 14.109375 22.625 23.890625 
Q 32.328125 33.6875 34.8125 36.53125 
Q 39.546875 41.84375 41.421875 45.53125 
Q 43.3125 49.21875 43.3125 52.78125 
Q 43.3125 58.59375 39.234375 62.25 
Q 35.15625 65.921875 28.609375 65.921875 
Q 23.96875 65.921875 18.8125 64.3125 
Q 13.671875 62.703125 7.8125 59.421875 
L 7.8125 69.390625 
Q 13.765625 71.78125 18.9375 73 
Q 24.125 74.21875 28.421875 74.21875 
Q 39.75 74.21875 46.484375 68.546875 
Q 53.21875 62.890625 53.21875 53.421875 
Q 53.21875 48.921875 51.53125 44.890625 
Q 49.859375 40.875 45.40625 35.40625 
Q 44.1875 33.984375 37.640625 27.21875 
Q 31.109375 20.453125 19.1875 8.296875 
z
" id="DejaVuSans-32"/>
      </defs>
      <g transform="translate(126.093846 266.598437)scale(0.1 -0.1)">
       <use xlink:href="#DejaVuSans-32"/>
       <use x="63.623047" xlink:href="#DejaVuSans-30"/>
      </g>
     </g>
    </g>
    <g id="xtick_3">
     <g id="line2d_3">
      <g>
       <use style="stroke:#000000;stroke-width:0.8;" x="186.266519" xlink:href="#m2cc4abea4e" y="252"/>
      </g>
     </g>
     <g id="text_3">
      <!-- 30 -->
      <defs>
       <path d="M 40.578125 39.3125 
Q 47.65625 37.796875 51.625 33 
Q 55.609375 28.21875 55.609375 21.1875 
Q 55.609375 10.40625 48.1875 4.484375 
Q 40.765625 -1.421875 27.09375 -1.421875 
Q 22.515625 -1.421875 17.65625 -0.515625 
Q 12.796875 0.390625 7.625 2.203125 
L 7.625 11.71875 
Q 11.71875 9.328125 16.59375 8.109375 
Q 21.484375 6.890625 26.8125 6.890625 
Q 36.078125 6.890625 40.9375 10.546875 
Q 45.796875 14.203125 45.796875 21.1875 
Q 45.796875 27.640625 41.28125 31.265625 
Q 36.765625 34.90625 28.71875 34.90625 
L 20.21875 34.90625 
L 20.21875 43.015625 
L 29.109375 43.015625 
Q 36.375 43.015625 40.234375 45.921875 
Q 44.09375 48.828125 44.09375 54.296875 
Q 44.09375 59.90625 40.109375 62.90625 
Q 36.140625 65.921875 28.71875 65.921875 
Q 24.65625 65.921875 20.015625 65.03125 
Q 15.375 64.15625 9.8125 62.3125 
L 9.8125 71.09375 
Q 15.4375 72.65625 20.34375 73.4375 
Q 25.25 74.21875 29.59375 74.21875 
Q 40.828125 74.21875 47.359375 69.109375 
Q 53.90625 64.015625 53.90625 55.328125 
Q 53.90625 49.265625 50.4375 45.09375 
Q 46.96875 40.921875 40.578125 39.3125 
z
" id="DejaVuSans-33"/>
      </defs>
      <g transform="translate(179.904019 266.598437)scale(0.1 -0.1)">
       <use xlink:href="#DejaVuSans-33"/>
       <use x="63.623047" xlink:href="#DejaVuSans-30"/>
      </g>
     </g>
    </g>
    <g id="xtick_4">
     <g id="line2d_4">
      <g>
       <use style="stroke:#000000;stroke-width:0.8;" x="240.076693" xlink:href="#m2cc4abea4e" y="252"/>
      </g>
     </g>
     <g id="text_4">
      <!-- 40 -->
      <defs>
       <path d="M 37.796875 64.3125 
L 12.890625 25.390625 
L 37.796875 25.390625 
z
M 35.203125 72.90625 
L 47.609375 72.90625 
L 47.609375 25.390625 
L 58.015625 25.390625 
L 58.015625 17.1875 
L 47.609375 17.1875 
L 47.609375 0 
L 37.796875 0 
L 37.796875 17.1875 
L 4.890625 17.1875 
L 4.890625 26.703125 
z
" id="DejaVuSans-34"/>
      </defs>
      <g transform="translate(233.714193 266.598437)scale(0.1 -0.1)">
       <use xlink:href="#DejaVuSans-34"/>
       <use x="63.623047" xlink:href="#DejaVuSans-30"/>
      </g>
     </g>
    </g>
    <g id="xtick_5">
     <g id="line2d_5">
      <g>
       <use style="stroke:#000000;stroke-width:0.8;" x="293.886866" xlink:href="#m2cc4abea4e" y="252"/>
      </g>
     </g>
     <g id="text_5">
      <!-- 50 -->
      <defs>
       <path d="M 10.796875 72.90625 
L 49.515625 72.90625 
L 49.515625 64.59375 
L 19.828125 64.59375 
L 19.828125 46.734375 
Q 21.96875 47.46875 24.109375 47.828125 
Q 26.265625 48.1875 28.421875 48.1875 
Q 40.625 48.1875 47.75 41.5 
Q 54.890625 34.8125 54.890625 23.390625 
Q 54.890625 11.625 47.5625 5.09375 
Q 40.234375 -1.421875 26.90625 -1.421875 
Q 22.3125 -1.421875 17.546875 -0.640625 
Q 12.796875 0.140625 7.71875 1.703125 
L 7.71875 11.625 
Q 12.109375 9.234375 16.796875 8.0625 
Q 21.484375 6.890625 26.703125 6.890625 
Q 35.15625 6.890625 40.078125 11.328125 
Q 45.015625 15.765625 45.015625 23.390625 
Q 45.015625 31 40.078125 35.4375 
Q 35.15625 39.890625 26.703125 39.890625 
Q 22.75 39.890625 18.8125 39.015625 
Q 14.890625 38.140625 10.796875 36.28125 
z
" id="DejaVuSans-35"/>
      </defs>
      <g transform="translate(287.524366 266.598437)scale(0.1 -0.1)">
       <use xlink:href="#DejaVuSans-35"/>
       <use x="63.623047" xlink:href="#DejaVuSans-30"/>
      </g>
     </g>
    </g>
    <g id="xtick_6">
     <g id="line2d_6">
      <g>
       <use style="stroke:#000000;stroke-width:0.8;" x="347.69704" xlink:href="#m2cc4abea4e" y="252"/>
      </g>
     </g>
     <g id="text_6">
      <!-- 60 -->
      <defs>
       <path d="M 33.015625 40.375 
Q 26.375 40.375 22.484375 35.828125 
Q 18.609375 31.296875 18.609375 23.390625 
Q 18.609375 15.53125 22.484375 10.953125 
Q 26.375 6.390625 33.015625 6.390625 
Q 39.65625 6.390625 43.53125 10.953125 
Q 47.40625 15.53125 47.40625 23.390625 
Q 47.40625 31.296875 43.53125 35.828125 
Q 39.65625 40.375 33.015625 40.375 
z
M 52.59375 71.296875 
L 52.59375 62.3125 
Q 48.875 64.0625 45.09375 64.984375 
Q 41.3125 65.921875 37.59375 65.921875 
Q 27.828125 65.921875 22.671875 59.328125 
Q 17.53125 52.734375 16.796875 39.40625 
Q 19.671875 43.65625 24.015625 45.921875 
Q 28.375 48.1875 33.59375 48.1875 
Q 44.578125 48.1875 50.953125 41.515625 
Q 57.328125 34.859375 57.328125 23.390625 
Q 57.328125 12.15625 50.6875 5.359375 
Q 44.046875 -1.421875 33.015625 -1.421875 
Q 20.359375 -1.421875 13.671875 8.265625 
Q 6.984375 17.96875 6.984375 36.375 
Q 6.984375 53.65625 15.1875 63.9375 
Q 23.390625 74.21875 37.203125 74.21875 
Q 40.921875 74.21875 44.703125 73.484375 
Q 48.484375 72.75 52.59375 71.296875 
z
" id="DejaVuSans-36"/>
      </defs>
      <g transform="translate(341.33454 266.598437)scale(0.1 -0.1)">
       <use xlink:href="#DejaVuSans-36"/>
       <use x="63.623047" xlink:href="#DejaVuSans-30"/>
      </g>
     </g>
    </g>
    <g id="text_7">
     <!-- Energy (keV) -->
     <defs>
      <path d="M 9.8125 72.90625 
L 55.90625 72.90625 
L 55.90625 64.59375 
L 19.671875 64.59375 
L 19.671875 43.015625 
L 54.390625 43.015625 
L 54.390625 34.71875 
L 19.671875 34.71875 
L 19.671875 8.296875 
L 56.78125 8.296875 
L 56.78125 0 
L 9.8125 0 
z
" id="DejaVuSans-45"/>
      <path d="M 54.890625 33.015625 
L 54.890625 0 
L 45.90625 0 
L 45.90625 32.71875 
Q 45.90625 40.484375 42.875 44.328125 
Q 39.84375 48.1875 33.796875 48.1875 
Q 26.515625 48.1875 22.3125 43.546875 
Q 18.109375 38.921875 18.109375 30.90625 
L 18.109375 0 
L 9.078125 0 
L 9.078125 54.6875 
L 18.109375 54.6875 
L 18.109375 46.1875 
Q 21.34375 51.125 25.703125 53.5625 
Q 30.078125 56 35.796875 56 
Q 45.21875 56 50.046875 50.171875 
Q 54.890625 44.34375 54.890625 33.015625 
z
" id="DejaVuSans-6e"/>
      <path d="M 56.203125 29.59375 
L 56.203125 25.203125 
L 14.890625 25.203125 
Q 15.484375 15.921875 20.484375 11.0625 
Q 25.484375 6.203125 34.421875 6.203125 
Q 39.59375 6.203125 44.453125 7.46875 
Q 49.3125 8.734375 54.109375 11.28125 
L 54.109375 2.78125 
Q 49.265625 0.734375 44.1875 -0.34375 
Q 39.109375 -1.421875 33.890625 -1.421875 
Q 20.796875 -1.421875 13.15625 6.1875 
Q 5.515625 13.8125 5.515625 26.8125 
Q 5.515625 40.234375 12.765625 48.109375 
Q 20.015625 56 32.328125 56 
Q 43.359375 56 49.78125 48.890625 
Q 56.203125 41.796875 56.203125 29.59375 
z
M 47.21875 32.234375 
Q 47.125 39.59375 43.09375 43.984375 
Q 39.0625 48.390625 32.421875 48.390625 
Q 24.90625 48.390625 20.390625 44.140625 
Q 15.875 39.890625 15.1875 32.171875 
z
" id="DejaVuSans-65"/>
      <path d="M 41.109375 46.296875 
Q 39.59375 47.171875 37.8125 47.578125 
Q 36.03125 48 33.890625 48 
Q 26.265625 48 22.1875 43.046875 
Q 18.109375 38.09375 18.109375 28.8125 
L 18.109375 0 
L 9.078125 0 
L 9.078125 54.6875 
L 18.109375 54.6875 
L 18.109375 46.1875 
Q 20.953125 51.171875 25.484375 53.578125 
Q 30.03125 56 36.53125 56 
Q 37.453125 56 38.578125 55.875 
Q 39.703125 55.765625 41.0625 55.515625 
z
" id="DejaVuSans-72"/>
      <path d="M 45.40625 27.984375 
Q 45.40625 37.75 41.375 43.109375 
Q 37.359375 48.484375 30.078125 48.484375 
Q 22.859375 48.484375 18.828125 43.109375 
Q 14.796875 37.75 14.796875 27.984375 
Q 14.796875 18.265625 18.828125 12.890625 
Q 22.859375 7.515625 30.078125 7.515625 
Q 37.359375 7.515625 41.375 12.890625 
Q 45.40625 18.265625 45.40625 27.984375 
z
M 54.390625 6.78125 
Q 54.390625 -7.171875 48.1875 -13.984375 
Q 42 -20.796875 29.203125 -20.796875 
Q 24.46875 -20.796875 20.265625 -20.09375 
Q 16.0625 -19.390625 12.109375 -17.921875 
L 12.109375 -9.1875 
Q 16.0625 -11.328125 19.921875 -12.34375 
Q 23.78125 -13.375 27.78125 -13.375 
Q 36.625 -13.375 41.015625 -8.765625 
Q 45.40625 -4.15625 45.40625 5.171875 
L 45.40625 9.625 
Q 42.625 4.78125 38.28125 2.390625 
Q 33.9375 0 27.875 0 
Q 17.828125 0 11.671875 7.65625 
Q 5.515625 15.328125 5.515625 27.984375 
Q 5.515625 40.671875 11.671875 48.328125 
Q 17.828125 56 27.875 56 
Q 33.9375 56 38.28125 53.609375 
Q 42.625 51.21875 45.40625 46.390625 
L 45.40625 54.6875 
L 54.390625 54.6875 
z
" id="DejaVuSans-67"/>
      <path d="M 32.171875 -5.078125 
Q 28.375 -14.84375 24.75 -17.8125 
Q 21.140625 -20.796875 15.09375 -20.796875 
L 7.90625 -20.796875 
L 7.90625 -13.28125 
L 13.1875 -13.28125 
Q 16.890625 -13.28125 18.9375 -11.515625 
Q 21 -9.765625 23.484375 -3.21875 
L 25.09375 0.875 
L 2.984375 54.6875 
L 12.5 54.6875 
L 29.59375 11.921875 
L 46.6875 54.6875 
L 56.203125 54.6875 
z
" id="DejaVuSans-79"/>
      <path id="DejaVuSans-20"/>
      <path d="M 31 75.875 
Q 24.46875 64.65625 21.28125 53.65625 
Q 18.109375 42.671875 18.109375 31.390625 
Q 18.109375 20.125 21.3125 9.0625 
Q 24.515625 -2 31 -13.1875 
L 23.1875 -13.1875 
Q 15.875 -1.703125 12.234375 9.375 
Q 8.59375 20.453125 8.59375 31.390625 
Q 8.59375 42.28125 12.203125 53.3125 
Q 15.828125 64.359375 23.1875 75.875 
z
" id="DejaVuSans-28"/>
      <path d="M 9.078125 75.984375 
L 18.109375 75.984375 
L 18.109375 31.109375 
L 44.921875 54.6875 
L 56.390625 54.6875 
L 27.390625 29.109375 
L 57.625 0 
L 45.90625 0 
L 18.109375 26.703125 
L 18.109375 0 
L 9.078125 0 
z
" id="DejaVuSans-6b"/>
      <path d="M 28.609375 0 
L 0.78125 72.90625 
L 11.078125 72.90625 
L 34.1875 11.53125 
L 57.328125 72.90625 
L 67.578125 72.90625 
L 39.796875 0 
z
" id="DejaVuSans-56"/>
      <path d="M 8.015625 75.875 
L 15.828125 75.875 
Q 23.140625 64.359375 26.78125 53.3125 
Q 30.421875 42.28125 30.421875 31.390625 
Q 30.421875 20.453125 26.78125 9.375 
Q 23.140625 -1.703125 15.828125 -13.1875 
L 8.015625 -13.1875 
Q 14.5 -2 17.703125 9.0625 
Q 20.90625 20.125 20.90625 31.390625 
Q 20.90625 42.671875 17.703125 53.65625 
Q 14.5 64.65625 8.015625 75.875 
z
" id="DejaVuSans-29"/>
     </defs>
     <g transform="translate(188.926562 280.276563)scale(0.1 -0.1)">
      <use xlink:href="#DejaVuSans-45"/>
      <use x="63.183594" xlink:href="#DejaVuSans-6e"/>
      <use x="126.5625" xlink:href="#DejaVuSans-65"/>
      <use x="188.085938" xlink:href="#DejaVuSans-72"/>
      <use x="229.183594" xlink:href="#DejaVuSans-67"/>
      <use x="292.660156" xlink:href="#DejaVuSans-79"/>
      <use x="351.839844" xlink:href="#DejaVuSans-20"/>
      <use x="383.626953" xlink:href="#DejaVuSans-28"/>
      <use x="422.640625" xlink:href="#DejaVuSans-6b"/>
      <use x="480.503906" xlink:href="#DejaVuSans-65"/>
      <use x="542.027344" xlink:href="#DejaVuSans-56"/>
      <use x="610.435547" xlink:href="#DejaVuSans-29"/>
     </g>
    </g>
   </g>
   <g id="matplotlib.axis_2">
    <g id="ytick_1">
     <g id="line2d_7">
      <defs>
       <path d="M 0 0 
L -3.5 0 
" id="mbecf90dff7" style="stroke:#000000;stroke-width:0.8;"/>
      </defs>
      <g>
       <use style="stroke:#000000;stroke-width:0.8;" x="54" xlink:href="#mbecf90dff7" y="242.163275"/>
      </g>
     </g>
     <g id="text_8">
      <!-- 0 -->
      <g transform="translate(40.6375 245.962494)scale(0.1 -0.1)">
       <use xlink:href="#DejaVuSans-30"/>
      </g>
     </g>
    </g>
    <g id="ytick_2">
     <g id="line2d_8">
      <g>
       <use style="stroke:#000000;stroke-width:0.8;" x="54" xlink:href="#mbecf90dff7" y="213.025862"/>
      </g>
     </g>
     <g id="text_9">
      <!-- 200000 -->
      <g transform="translate(8.825 216.82508)scale(0.1 -0.1)">
       <use xlink:href="#DejaVuSans-32"/>
       <use x="63.623047" xlink:href="#DejaVuSans-30"/>
       <use x="127.246094" xlink:href="#DejaVuSans-30"/>
       <use x="190.869141" xlink:href="#DejaVuSans-30"/>
       <use x="254.492188" xlink:href="#DejaVuSans-30"/>
       <use x="318.115234" xlink:href="#DejaVuSans-30"/>
      </g>
     </g>
    </g>
    <g id="ytick_3">
     <g id="line2d_9">
      <g>
       <use style="stroke:#000000;stroke-width:0.8;" x="54" xlink:href="#mbecf90dff7" y="183.888449"/>
      </g>
     </g>
     <g id="text_10">
      <!-- 400000 -->
      <g transform="translate(8.825 187.687667)scale(0.1 -0.1)">
       <use xlink:href="#DejaVuSans-34"/>
       <use x="63.623047" xlink:href="#DejaVuSans-30"/>
       <use x="127.246094" xlink:href="#DejaVuSans-30"/>
       <use x="190.869141" xlink:href="#DejaVuSans-30"/>
       <use x="254.492188" xlink:href="#DejaVuSans-30"/>
       <use x="318.115234" xlink:href="#DejaVuSans-30"/>
      </g>
     </g>
    </g>
    <g id="ytick_4">
     <g id="line2d_10">
      <g>
       <use style="stroke:#000000;stroke-width:0.8;" x="54" xlink:href="#mbecf90dff7" y="154.751035"/>
      </g>
     </g>
     <g id="text_11">
      <!-- 600000 -->
      <g transform="translate(8.825 158.550254)scale(0.1 -0.1)">
       <use xlink:href="#DejaVuSans-36"/>
       <use x="63.623047" xlink:href="#DejaVuSans-30"/>
       <use x="127.246094" xlink:href="#DejaVuSans-30"/>
       <use x="190.869141" xlink:href="#DejaVuSans-30"/>
       <use x="254.492188" xlink:href="#DejaVuSans-30"/>
       <use x="318.115234" xlink:href="#DejaVuSans-30"/>
      </g>
     </g>
    </g>
    <g id="ytick_5">
     <g id="line2d_11">
      <g>
       <use style="stroke:#000000;stroke-width:0.8;" x="54" xlink:href="#mbecf90dff7" y="125.613622"/>
      </g>
     </g>
     <g id="text_12">
      <!-- 800000 -->
      <defs>
       <path d="M 31.78125 34.625 
Q 24.75 34.625 20.71875 30.859375 
Q 16.703125 27.09375 16.703125 20.515625 
Q 16.703125 13.921875 20.71875 10.15625 
Q 24.75 6.390625 31.78125 6.390625 
Q 38.8125 6.390625 42.859375 10.171875 
Q 46.921875 13.96875 46.921875 20.515625 
Q 46.921875 27.09375 42.890625 30.859375 
Q 38.875 34.625 31.78125 34.625 
z
M 21.921875 38.8125 
Q 15.578125 40.375 12.03125 44.71875 
Q 8.5 49.078125 8.5 55.328125 
Q 8.5 64.0625 14.71875 69.140625 
Q 20.953125 74.21875 31.78125 74.21875 
Q 42.671875 74.21875 48.875 69.140625 
Q 55.078125 64.0625 55.078125 55.328125 
Q 55.078125 49.078125 51.53125 44.71875 
Q 48 40.375 41.703125 38.8125 
Q 48.828125 37.15625 52.796875 32.3125 
Q 56.78125 27.484375 56.78125 20.515625 
Q 56.78125 9.90625 50.3125 4.234375 
Q 43.84375 -1.421875 31.78125 -1.421875 
Q 19.734375 -1.421875 13.25 4.234375 
Q 6.78125 9.90625 6.78125 20.515625 
Q 6.78125 27.484375 10.78125 32.3125 
Q 14.796875 37.15625 21.921875 38.8125 
z
M 18.3125 54.390625 
Q 18.3125 48.734375 21.84375 45.5625 
Q 25.390625 42.390625 31.78125 42.390625 
Q 38.140625 42.390625 41.71875 45.5625 
Q 45.3125 48.734375 45.3125 54.390625 
Q 45.3125 60.0625 41.71875 63.234375 
Q 38.140625 66.40625 31.78125 66.40625 
Q 25.390625 66.40625 21.84375 63.234375 
Q 18.3125 60.0625 18.3125 54.390625 
z
" id="DejaVuSans-38"/>
      </defs>
      <g transform="translate(8.825 129.412841)scale(0.1 -0.1)">
       <use xlink:href="#DejaVuSans-38"/>
       <use x="63.623047" xlink:href="#DejaVuSans-30"/>
       <use x="127.246094" xlink:href="#DejaVuSans-30"/>
       <use x="190.869141" xlink:href="#DejaVuSans-30"/>
       <use x="254.492188" xlink:href="#DejaVuSans-30"/>
       <use x="318.115234" xlink:href="#DejaVuSans-30"/>
      </g>
     </g>
    </g>
    <g id="ytick_6">
     <g id="line2d_12">
      <g>
       <use style="stroke:#000000;stroke-width:0.8;" x="54" xlink:href="#mbecf90dff7" y="96.476209"/>
      </g>
     </g>
     <g id="text_13">
      <!-- 1000000 -->
      <g transform="translate(2.4625 100.275428)scale(0.1 -0.1)">
       <use xlink:href="#DejaVuSans-31"/>
       <use x="63.623047" xlink:href="#DejaVuSans-30"/>
       <use x="127.246094" xlink:href="#DejaVuSans-30"/>
       <use x="190.869141" xlink:href="#DejaVuSans-30"/>
       <use x="254.492188" xlink:href="#DejaVuSans-30"/>
       <use x="318.115234" xlink:href="#DejaVuSans-30"/>
       <use x="381.738281" xlink:href="#DejaVuSans-30"/>
      </g>
     </g>
    </g>
    <g id="ytick_7">
     <g id="line2d_13">
      <g>
       <use style="stroke:#000000;stroke-width:0.8;" x="54" xlink:href="#mbecf90dff7" y="67.338796"/>
      </g>
     </g>
     <g id="text_14">
      <!-- 1200000 -->
      <g transform="translate(2.4625 71.138015)scale(0.1 -0.1)">
       <use xlink:href="#DejaVuSans-31"/>
       <use x="63.623047" xlink:href="#DejaVuSans-32"/>
       <use x="127.246094" xlink:href="#DejaVuSans-30"/>
       <use x="190.869141" xlink:href="#DejaVuSans-30"/>
       <use x="254.492188" xlink:href="#DejaVuSans-30"/>
       <use x="318.115234" xlink:href="#DejaVuSans-30"/>
       <use x="381.738281" xlink:href="#DejaVuSans-30"/>
      </g>
     </g>
    </g>
    <g id="ytick_8">
     <g id="line2d_14">
      <g>
       <use style="stroke:#000000;stroke-width:0.8;" x="54" xlink:href="#mbecf90dff7" y="38.201383"/>
      </g>
     </g>
     <g id="text_15">
      <!-- 1400000 -->
      <g transform="translate(2.4625 42.000601)scale(0.1 -0.1)">
       <use xlink:href="#DejaVuSans-31"/>
       <use x="63.623047" xlink:href="#DejaVuSans-34"/>
       <use x="127.246094" xlink:href="#DejaVuSans-30"/>
       <use x="190.869141" xlink:href="#DejaVuSans-30"/>
       <use x="254.492188" xlink:href="#DejaVuSans-30"/>
       <use x="318.115234" xlink:href="#DejaVuSans-30"/>
       <use x="381.738281" xlink:href="#DejaVuSans-30"/>
      </g>
     </g>
    </g>
    <g id="text_16">
     <!-- Counts -->
     <defs>
      <path d="M 64.40625 67.28125 
L 64.40625 56.890625 
Q 59.421875 61.53125 53.78125 63.8125 
Q 48.140625 66.109375 41.796875 66.109375 
Q 29.296875 66.109375 22.65625 58.46875 
Q 16.015625 50.828125 16.015625 36.375 
Q 16.015625 21.96875 22.65625 14.328125 
Q 29.296875 6.6875 41.796875 6.6875 
Q 48.140625 6.6875 53.78125 8.984375 
Q 59.421875 11.28125 64.40625 15.921875 
L 64.40625 5.609375 
Q 59.234375 2.09375 53.4375 0.328125 
Q 47.65625 -1.421875 41.21875 -1.421875 
Q 24.65625 -1.421875 15.125 8.703125 
Q 5.609375 18.84375 5.609375 36.375 
Q 5.609375 53.953125 15.125 64.078125 
Q 24.65625 74.21875 41.21875 74.21875 
Q 47.75 74.21875 53.53125 72.484375 
Q 59.328125 70.75 64.40625 67.28125 
z
" id="DejaVuSans-43"/>
      <path d="M 30.609375 48.390625 
Q 23.390625 48.390625 19.1875 42.75 
Q 14.984375 37.109375 14.984375 27.296875 
Q 14.984375 17.484375 19.15625 11.84375 
Q 23.34375 6.203125 30.609375 6.203125 
Q 37.796875 6.203125 41.984375 11.859375 
Q 46.1875 17.53125 46.1875 27.296875 
Q 46.1875 37.015625 41.984375 42.703125 
Q 37.796875 48.390625 30.609375 48.390625 
z
M 30.609375 56 
Q 42.328125 56 49.015625 48.375 
Q 55.71875 40.765625 55.71875 27.296875 
Q 55.71875 13.875 49.015625 6.21875 
Q 42.328125 -1.421875 30.609375 -1.421875 
Q 18.84375 -1.421875 12.171875 6.21875 
Q 5.515625 13.875 5.515625 27.296875 
Q 5.515625 40.765625 12.171875 48.375 
Q 18.84375 56 30.609375 56 
z
" id="DejaVuSans-6f"/>
      <path d="M 8.5 21.578125 
L 8.5 54.6875 
L 17.484375 54.6875 
L 17.484375 21.921875 
Q 17.484375 14.15625 20.5 10.265625 
Q 23.53125 6.390625 29.59375 6.390625 
Q 36.859375 6.390625 41.078125 11.03125 
Q 45.3125 15.671875 45.3125 23.6875 
L 45.3125 54.6875 
L 54.296875 54.6875 
L 54.296875 0 
L 45.3125 0 
L 45.3125 8.40625 
Q 42.046875 3.421875 37.71875 1 
Q 33.40625 -1.421875 27.6875 -1.421875 
Q 18.265625 -1.421875 13.375 4.4375 
Q 8.5 10.296875 8.5 21.578125 
z
M 31.109375 56 
z
" id="DejaVuSans-75"/>
      <path d="M 18.3125 70.21875 
L 18.3125 54.6875 
L 36.8125 54.6875 
L 36.8125 47.703125 
L 18.3125 47.703125 
L 18.3125 18.015625 
Q 18.3125 11.328125 20.140625 9.421875 
Q 21.96875 7.515625 27.59375 7.515625 
L 36.8125 7.515625 
L 36.8125 0 
L 27.59375 0 
Q 17.1875 0 13.234375 3.875 
Q 9.28125 7.765625 9.28125 18.015625 
L 9.28125 47.703125 
L 2.6875 47.703125 
L 2.6875 54.6875 
L 9.28125 54.6875 
L 9.28125 70.21875 
z
" id="DejaVuSans-74"/>
      <path d="M 44.28125 53.078125 
L 44.28125 44.578125 
Q 40.484375 46.53125 36.375 47.5 
Q 32.28125 48.484375 27.875 48.484375 
Q 21.1875 48.484375 17.84375 46.4375 
Q 14.5 44.390625 14.5 40.28125 
Q 14.5 37.15625 16.890625 35.375 
Q 19.28125 33.59375 26.515625 31.984375 
L 29.59375 31.296875 
Q 39.15625 29.25 43.1875 25.515625 
Q 47.21875 21.78125 47.21875 15.09375 
Q 47.21875 7.46875 41.1875 3.015625 
Q 35.15625 -1.421875 24.609375 -1.421875 
Q 20.21875 -1.421875 15.453125 -0.5625 
Q 10.6875 0.296875 5.421875 2 
L 5.421875 11.28125 
Q 10.40625 8.6875 15.234375 7.390625 
Q 20.0625 6.109375 24.8125 6.109375 
Q 31.15625 6.109375 34.5625 8.28125 
Q 37.984375 10.453125 37.984375 14.40625 
Q 37.984375 18.0625 35.515625 20.015625 
Q 33.0625 21.96875 24.703125 23.78125 
L 21.578125 24.515625 
Q 13.234375 26.265625 9.515625 29.90625 
Q 5.8125 33.546875 5.8125 39.890625 
Q 5.8125 47.609375 11.28125 51.796875 
Q 16.75 56 26.8125 56 
Q 31.78125 56 36.171875 55.265625 
Q 40.578125 54.546875 44.28125 53.078125 
z
" id="DejaVuSans-73"/>
     </defs>
     <g transform="translate(-3.617188 160.733125)rotate(-90)scale(0.1 -0.1)">
      <use xlink:href="#DejaVuSans-43"/>
      <use x="69.824219" xlink:href="#DejaVuSans-6f"/>
      <use x="131.005859" xlink:href="#DejaVuSans-75"/>
      <use x="194.384766" xlink:href="#DejaVuSans-6e"/>
      <use x="257.763672" xlink:href="#DejaVuSans-74"/>
      <use x="296.972656" xlink:href="#DejaVuSans-73"/>
     </g>
    </g>
   </g>
   <g id="line2d_15">
    <path clip-path="url(#p15fa6cfa34)" d="M 69.218182 242.039441 
L 70.23612 242.039441 
L 70.23612 241.812169 
L 71.254059 241.812169 
L 71.254059 241.60777 
L 72.271998 241.60777 
L 72.271998 241.430178 
L 74.307875 241.408762 
L 74.307875 240.890116 
L 75.325813 240.890116 
L 75.325813 239.473455 
L 76.343752 239.473455 
L 76.343752 237.879784 
L 77.36169 237.879784 
L 77.36169 234.464151 
L 78.379629 234.464151 
L 78.379629 231.550409 
L 79.397568 231.550409 
L 79.397568 228.978741 
L 80.415506 228.978741 
L 80.415506 226.03222 
L 81.433445 226.03222 
L 81.433445 221.13189 
L 82.451383 221.13189 
L 82.451383 217.038375 
L 83.469322 217.038375 
L 83.469322 209.73246 
L 84.487261 209.73246 
L 84.487261 202.092193 
L 85.505199 202.092193 
L 85.505199 192.779293 
L 86.523138 192.779293 
L 86.523138 183.196872 
L 87.541076 183.196872 
L 87.541076 173.460168 
L 88.559015 173.460168 
L 88.559015 162.825595 
L 89.576953 162.825595 
L 89.576953 151.642365 
L 90.594892 151.642365 
L 90.594892 145.136126 
L 91.612831 145.136126 
L 91.612831 137.015238 
L 92.630769 137.015238 
L 92.630769 131.608791 
L 93.648708 131.608791 
L 93.648708 121.700468 
L 94.666646 121.700468 
L 94.666646 117.336412 
L 95.684585 117.336412 
L 95.684585 113.596479 
L 96.702524 113.596479 
L 96.702524 107.702854 
L 97.720462 107.702854 
L 97.720462 100.281555 
L 98.738401 100.281555 
L 98.738401 97.781565 
L 99.756339 97.781565 
L 99.756339 91.768477 
L 100.774278 91.768477 
L 100.774278 86.249268 
L 101.792216 86.249268 
L 101.792216 79.02013 
L 102.810155 79.02013 
L 102.810155 80.808585 
L 103.828094 80.808585 
L 103.828094 74.617467 
L 104.846032 74.617467 
L 104.846032 80.843987 
L 105.863971 80.843987 
L 105.863971 76.140917 
L 106.881909 76.140917 
L 106.881909 83.466354 
L 107.899848 83.466354 
L 107.899848 87.956721 
L 108.917787 87.956721 
L 108.917787 93.756814 
L 109.935725 93.756814 
L 109.935725 97.229411 
L 110.953664 97.229411 
L 110.953664 100.305302 
L 111.971602 100.305302 
L 111.971602 115.588749 
L 114.007479 115.628813 
L 114.007479 127.703649 
L 115.025418 127.703649 
L 115.025418 132.402639 
L 116.043357 132.402639 
L 116.043357 142.059507 
L 117.061295 142.059507 
L 117.061295 149.342986 
L 118.079234 149.342986 
L 118.079234 157.59339 
L 119.097172 157.59339 
L 119.097172 160.67234 
L 120.115111 160.67234 
L 120.115111 160.871932 
L 121.13305 160.871932 
L 121.13305 176.880027 
L 122.150988 176.880027 
L 122.150988 185.763878 
L 123.168927 185.763878 
L 123.168927 190.602437 
L 124.186865 190.602437 
L 124.186865 196.616253 
L 125.204804 196.616253 
L 125.204804 202.513811 
L 126.222742 202.513811 
L 126.222742 203.436739 
L 127.240681 203.436739 
L 127.240681 205.294103 
L 128.25862 205.294103 
L 128.25862 208.62247 
L 129.276558 208.62247 
L 129.276558 207.824251 
L 130.294497 207.824251 
L 130.294497 207.442842 
L 131.312435 207.442842 
L 131.312435 204.535365 
L 133.348313 204.458734 
L 133.348313 201.372208 
L 134.366251 201.372208 
L 134.366251 198.808115 
L 135.38419 198.808115 
L 135.38419 198.053602 
L 137.420067 198.129942 
L 137.420067 198.366975 
L 138.438005 198.366975 
L 138.438005 198.539177 
L 139.455944 198.539177 
L 139.455944 199.195643 
L 140.473883 199.195643 
L 140.473883 202.458742 
L 141.491821 202.458742 
L 141.491821 203.779541 
L 142.50976 203.779541 
L 142.50976 205.556049 
L 143.527698 205.556049 
L 143.527698 205.891129 
L 144.545637 205.891129 
L 144.545637 210.217452 
L 145.563576 210.217452 
L 145.563576 210.555155 
L 146.581514 210.555155 
L 146.581514 212.498329 
L 147.599453 212.498329 
L 147.599453 214.655809 
L 148.617391 214.655809 
L 148.617391 216.345633 
L 149.63533 216.345633 
L 149.63533 213.403628 
L 150.653268 213.403628 
L 150.653268 218.795798 
L 151.671207 218.795798 
L 151.671207 219.412637 
L 152.689146 219.412637 
L 152.689146 215.98564 
L 153.707084 215.98564 
L 153.707084 219.296816 
L 154.725023 219.296816 
L 154.725023 218.668759 
L 156.7609 218.569255 
L 156.7609 217.485343 
L 157.778839 217.485343 
L 157.778839 219.438278 
L 158.796777 219.438278 
L 158.796777 217.768121 
L 159.814716 217.768121 
L 159.814716 219.139328 
L 160.832654 219.139328 
L 160.832654 216.247585 
L 161.850593 216.247585 
L 161.850593 215.65158 
L 162.868531 215.65158 
L 162.868531 215.031098 
L 163.88647 215.031098 
L 163.88647 216.383949 
L 164.904409 216.383949 
L 164.904409 213.808347 
L 165.922347 213.808347 
L 165.922347 212.271785 
L 166.940286 212.271785 
L 166.940286 215.196745 
L 167.958224 215.196745 
L 167.958224 214.18014 
L 168.976163 214.18014 
L 168.976163 212.729971 
L 169.994102 212.729971 
L 169.994102 214.312424 
L 171.01204 214.312424 
L 171.01204 216.22311 
L 173.047917 216.289835 
L 173.047917 217.53342 
L 174.065856 217.53342 
L 174.065856 218.642681 
L 175.083794 218.642681 
L 175.083794 219.884372 
L 176.101733 219.884372 
L 176.101733 221.267379 
L 177.119672 221.267379 
L 177.119672 222.916994 
L 178.13761 222.916994 
L 178.13761 224.192775 
L 179.155549 224.192775 
L 179.155549 225.161303 
L 180.173487 225.161303 
L 180.173487 226.578838 
L 181.191426 226.578838 
L 181.191426 226.192185 
L 182.209365 226.192185 
L 182.209365 229.028566 
L 183.227303 229.028566 
L 183.227303 227.193492 
L 184.245242 227.193492 
L 184.245242 229.689548 
L 185.26318 229.689548 
L 185.26318 229.951494 
L 186.281119 229.951494 
L 186.281119 228.514291 
L 187.299057 228.514291 
L 187.299057 230.565273 
L 189.334935 230.570518 
L 189.334935 231.257724 
L 190.352873 231.257724 
L 190.352873 225.301017 
L 191.370812 225.301017 
L 191.370812 226.786879 
L 192.38875 226.786879 
L 192.38875 229.450767 
L 193.406689 229.450767 
L 193.406689 226.908382 
L 194.424628 226.908382 
L 194.424628 229.039493 
L 195.442566 229.039493 
L 195.442566 228.308289 
L 196.460505 228.308289 
L 196.460505 227.482535 
L 197.478443 227.482535 
L 197.478443 227.196697 
L 198.496382 227.196697 
L 198.496382 229.117435 
L 199.51432 229.117435 
L 199.51432 228.762979 
L 200.532259 228.762979 
L 200.532259 230.782493 
L 201.550198 230.782493 
L 201.550198 230.663321 
L 202.568136 230.663321 
L 202.568136 231.277392 
L 203.586075 231.277392 
L 203.586075 231.685461 
L 204.604013 231.685461 
L 204.604013 231.98106 
L 205.621952 231.98106 
L 205.621952 231.487618 
L 206.639891 231.487618 
L 206.639891 232.030739 
L 208.675768 232.084789 
L 208.675768 233.248392 
L 209.693706 233.248392 
L 209.693706 231.905157 
L 210.711645 231.905157 
L 210.711645 233.194779 
L 212.747522 233.103725 
L 212.747522 232.166665 
L 213.765461 232.166665 
L 213.765461 233.46532 
L 214.783399 233.46532 
L 214.783399 232.709787 
L 215.801338 232.709787 
L 215.801338 233.490232 
L 216.819276 233.490232 
L 216.819276 232.765876 
L 217.837215 232.765876 
L 217.837215 233.23426 
L 218.855154 233.23426 
L 218.855154 233.840464 
L 219.873092 233.840464 
L 219.873092 233.119459 
L 220.891031 233.119459 
L 220.891031 232.930211 
L 221.908969 232.930211 
L 221.908969 234.050108 
L 222.926908 234.050108 
L 222.926908 232.322551 
L 223.944846 232.322551 
L 223.944846 234.030877 
L 224.962785 234.030877 
L 224.962785 232.839303 
L 225.980724 232.839303 
L 225.980724 233.515873 
L 226.998662 233.515873 
L 226.998662 233.112175 
L 228.016601 233.112175 
L 228.016601 233.297634 
L 229.034539 233.297634 
L 229.034539 232.330563 
L 230.052478 232.330563 
L 230.052478 233.636939 
L 231.070417 233.636939 
L 231.070417 232.956289 
L 233.106294 232.870334 
L 233.106294 233.405297 
L 234.124232 233.405297 
L 234.124232 231.527391 
L 235.142171 231.527391 
L 235.142171 233.802148 
L 236.160109 233.802148 
L 236.160109 231.315999 
L 237.178048 231.315999 
L 237.178048 232.843236 
L 238.195987 232.843236 
L 238.195987 232.042977 
L 239.213925 232.042977 
L 239.213925 231.928176 
L 240.231864 231.928176 
L 240.231864 231.53249 
L 241.249802 231.53249 
L 241.249802 232.111596 
L 242.267741 232.111596 
L 242.267741 231.915355 
L 243.28568 231.915355 
L 243.28568 231.615823 
L 244.303618 231.615823 
L 244.303618 230.978733 
L 245.321557 230.978733 
L 245.321557 231.825466 
L 246.339495 231.825466 
L 246.339495 230.841205 
L 248.375372 230.879083 
L 248.375372 231.375585 
L 249.393311 231.375585 
L 249.393311 230.649043 
L 250.41125 230.649043 
L 250.41125 230.080718 
L 251.429188 230.080718 
L 251.429188 231.2315 
L 252.447127 231.2315 
L 252.447127 229.59558 
L 253.465065 229.59558 
L 253.465065 231.43823 
L 254.483004 231.43823 
L 254.483004 229.702369 
L 255.500943 229.702369 
L 255.500943 230.953092 
L 256.518881 230.953092 
L 256.518881 228.798818 
L 257.53682 228.798818 
L 257.53682 231.1572 
L 258.554758 231.1572 
L 258.554758 228.381278 
L 259.572697 228.381278 
L 259.572697 230.367867 
L 260.590635 230.367867 
L 260.590635 228.4346 
L 262.626513 228.40488 
L 262.626513 229.181683 
L 263.644451 229.181683 
L 263.644451 226.604916 
L 264.66239 226.604916 
L 264.66239 228.866853 
L 265.680328 228.866853 
L 265.680328 225.865554 
L 266.698267 225.865554 
L 266.698267 227.009052 
L 267.716206 227.009052 
L 267.716206 226.012407 
L 268.734144 226.012407 
L 268.734144 224.882166 
L 269.752083 224.882166 
L 269.752083 226.074469 
L 270.770021 226.074469 
L 270.770021 223.153881 
L 271.78796 223.153881 
L 271.78796 223.450645 
L 272.805898 223.450645 
L 272.805898 221.057444 
L 273.823837 221.057444 
L 273.823837 223.577393 
L 274.841776 223.577393 
L 274.841776 220.102902 
L 275.859714 220.102902 
L 275.859714 221.617902 
L 276.877653 221.617902 
L 276.877653 219.835858 
L 277.895591 219.835858 
L 277.895591 220.75223 
L 278.91353 220.75223 
L 278.91353 219.105529 
L 279.931469 219.105529 
L 279.931469 218.924585 
L 280.949407 218.924585 
L 280.949407 220.076533 
L 281.967346 220.076533 
L 281.967346 218.169926 
L 282.985284 218.169926 
L 282.985284 220.014616 
L 284.003223 220.014616 
L 284.003223 217.513023 
L 285.021161 217.513023 
L 285.021161 220.007623 
L 286.0391 220.007623 
L 286.0391 218.855093 
L 287.057039 218.855093 
L 287.057039 219.156082 
L 288.074977 219.156082 
L 288.074977 218.985483 
L 289.092916 218.985483 
L 289.092916 219.367474 
L 290.110854 219.367474 
L 290.110854 221.211289 
L 291.128793 221.211289 
L 291.128793 218.402589 
L 292.146732 218.402589 
L 292.146732 220.296666 
L 293.16467 220.296666 
L 293.16467 220.954298 
L 294.182609 220.954298 
L 294.182609 219.282393 
L 295.200547 219.282393 
L 295.200547 223.426753 
L 296.218486 223.426753 
L 296.218486 219.315172 
L 297.236424 219.315172 
L 297.236424 221.500915 
L 298.254363 221.500915 
L 298.254363 219.340522 
L 299.272302 219.340522 
L 299.272302 222.352893 
L 300.29024 222.352893 
L 300.29024 218.786765 
L 301.308179 218.786765 
L 301.308179 223.358425 
L 302.326117 223.358425 
L 302.326117 218.792301 
L 303.344056 218.792301 
L 303.344056 222.550445 
L 304.361995 222.550445 
L 304.361995 219.005005 
L 305.379933 219.005005 
L 305.379933 220.370529 
L 306.397872 220.370529 
L 306.397872 221.668601 
L 307.41581 221.668601 
L 307.41581 219.708527 
L 308.433749 219.708527 
L 308.433749 222.681563 
L 309.451687 222.681563 
L 309.451687 221.369797 
L 310.469626 221.369797 
L 310.469626 220.038072 
L 311.487565 220.038072 
L 311.487565 221.228626 
L 312.505503 221.228626 
L 312.505503 220.768984 
L 313.523442 220.768984 
L 313.523442 219.903602 
L 314.54138 219.903602 
L 314.54138 218.731696 
L 315.559319 218.731696 
L 315.559319 222.409711 
L 316.577258 222.409711 
L 316.577258 217.203438 
L 317.595196 217.203438 
L 317.595196 218.885395 
L 318.613135 218.885395 
L 318.613135 216.76492 
L 319.631073 216.76492 
L 319.631073 214.115747 
L 320.649012 214.115747 
L 320.649012 212.023243 
L 321.66695 212.023243 
L 321.66695 208.584154 
L 322.684889 208.584154 
L 322.684889 198.465022 
L 323.702828 198.465022 
L 323.702828 196.466633 
L 324.720766 196.466633 
L 324.720766 186.773489 
L 325.738705 186.773489 
L 325.738705 175.289852 
L 326.756643 175.289852 
L 326.756643 165.884295 
L 327.774582 165.884295 
L 327.774582 155.171634 
L 328.792521 155.171634 
L 328.792521 132.272541 
L 329.810459 132.272541 
L 329.810459 126.12207 
L 330.828398 126.12207 
L 330.828398 100.414859 
L 331.846336 100.414859 
L 331.846336 97.057209 
L 332.864275 97.057209 
L 332.864275 61.768305 
L 333.882213 61.768305 
L 333.882213 74.205464 
L 334.900152 74.205464 
L 334.900152 48.836684 
L 335.918091 48.836684 
L 335.918091 57.520944 
L 336.936029 57.520944 
L 336.936029 44.443636 
L 337.953968 44.443636 
L 337.953968 56.094668 
L 338.971906 56.094668 
L 338.971906 68.736226 
L 339.989845 68.736226 
L 339.989845 53.567435 
L 341.007784 53.567435 
L 341.007784 89.64232 
L 342.025722 89.64232 
L 342.025722 90.506099 
L 343.043661 90.506099 
L 343.043661 111.386697 
L 344.061599 111.386697 
L 344.061599 130.49443 
L 345.079538 130.49443 
L 345.079538 139.319861 
L 346.097476 139.319861 
L 346.097476 163.80738 
L 347.115415 163.80738 
L 347.115415 171.014374 
L 348.133354 171.014374 
L 348.133354 187.383481 
L 349.151292 187.383481 
L 349.151292 196.29953 
L 350.169231 196.29953 
L 350.169231 207.970958 
L 351.187169 207.970958 
L 351.187169 214.231568 
L 352.205108 214.231568 
L 352.205108 223.064575 
L 353.223047 223.064575 
L 353.223047 224.180101 
L 354.240985 224.180101 
L 354.240985 232.094405 
L 355.258924 232.094405 
L 355.258924 232.57896 
L 356.276862 232.57896 
L 356.276862 236.349487 
L 357.294801 236.349487 
L 357.294801 237.801987 
L 358.312739 237.801987 
L 358.312739 238.220254 
L 359.330678 238.220254 
L 359.330678 240.310864 
L 360.348617 240.310864 
L 360.348617 239.976366 
L 361.366555 239.976366 
L 361.366555 241.313919 
L 363.402432 241.239182 
L 363.402432 241.580527 
L 364.420371 241.580527 
L 364.420371 241.801534 
L 366.456248 241.890986 
L 366.456248 241.9395 
L 369.510064 242.032885 
L 369.510064 242.077902 
L 373.581818 242.106166 
L 373.581818 242.116364 
" style="fill:none;stroke:#1f77b4;stroke-linecap:square;stroke-width:1.5;"/>
   </g>
   <g id="patch_3">
    <path d="M 54 252 
L 54 34.56 
" style="fill:none;stroke:#000000;stroke-linecap:square;stroke-linejoin:miter;stroke-width:0.8;"/>
   </g>
   <g id="patch_4">
    <path d="M 54 252 
L 388.8 252 
" style="fill:none;stroke:#000000;stroke-linecap:square;stroke-linejoin:miter;stroke-width:0.8;"/>
   </g>
  </g>
 </g>
 <defs>
  <clipPath id="p15fa6cfa34">
   <rect height="217.44" width="334.8" x="54" y="34.56"/>
  </clipPath>
 </defs>
</svg>
