<?xml version="1.0" encoding="UTF-8" standalone="no"?>
<svg
   xmlns:dc="http://purl.org/dc/elements/1.1/"
   xmlns:cc="http://creativecommons.org/ns#"
   xmlns:rdf="http://www.w3.org/1999/02/22-rdf-syntax-ns#"
   xmlns:svg="http://www.w3.org/2000/svg"
   xmlns="http://www.w3.org/2000/svg"
   viewBox="0 0 480 480"
   height="480"
   width="480"
   xml:space="preserve"
   id="svg2"
   version="1.1"><metadata
     id="metadata8"><rdf:RDF><cc:Work
         rdf:about=""><dc:format>image/svg+xml</dc:format><dc:type
           rdf:resource="http://purl.org/dc/dcmitype/StillImage" /></cc:Work></rdf:RDF></metadata><defs
     id="defs6"><clipPath
       id="clipPath94"
       clipPathUnits="userSpaceOnUse"><path
         id="path92"
         d="M -1016,-351 H 1660 V 1068 H -1016 Z" /></clipPath><clipPath
       id="clipPath104"
       clipPathUnits="userSpaceOnUse"><path
         id="path102"
         d="M 50.51,139.87532 H 346.68 V 333.12 H 50.51 Z" /></clipPath><clipPath
       id="clipPath116"
       clipPathUnits="userSpaceOnUse"><path
         id="path114"
         d="m -3.5,-3.5 h 7 v 7 h -7 z" /></clipPath><clipPath
       id="clipPath128"
       clipPathUnits="userSpaceOnUse"><path
         id="path126"
         d="m -3.5,-3.5 h 7 v 7 h -7 z" /></clipPath><clipPath
       id="clipPath140"
       clipPathUnits="userSpaceOnUse"><path
         id="path138"
         d="m -3.5,-3.5 h 7 v 7 h -7 z" /></clipPath><clipPath
       id="clipPath152"
       clipPathUnits="userSpaceOnUse"><path
         id="path150"
         d="m -3.5,-3.5 h 7 v 7 h -7 z" /></clipPath><clipPath
       id="clipPath164"
       clipPathUnits="userSpaceOnUse"><path
         id="path162"
         d="m -3.5,-3.5 h 7 v 7 h -7 z" /></clipPath><clipPath
       id="clipPath176"
       clipPathUnits="userSpaceOnUse"><path
         id="path174"
         d="m -3.5,-3.5 h 7 v 7 h -7 z" /></clipPath><clipPath
       id="clipPath188"
       clipPathUnits="userSpaceOnUse"><path
         id="path186"
         d="m -3.5,-3.5 h 7 v 7 h -7 z" /></clipPath><clipPath
       id="clipPath200"
       clipPathUnits="userSpaceOnUse"><path
         id="path198"
         d="m -3.5,-3.5 h 7 v 7 h -7 z" /></clipPath><clipPath
       id="clipPath210"
       clipPathUnits="userSpaceOnUse"><path
         id="path208"
         d="M 50.51,139.87532 H 346.68 V 333.12 H 50.51 Z" /></clipPath><clipPath
       id="clipPath222"
       clipPathUnits="userSpaceOnUse"><path
         id="path220"
         d="m -3.5,-3.5 h 7 v 7 h -7 z" /></clipPath><clipPath
       id="clipPath234"
       clipPathUnits="userSpaceOnUse"><path
         id="path232"
         d="m -3.5,-3.5 h 7 v 7 h -7 z" /></clipPath><clipPath
       id="clipPath246"
       clipPathUnits="userSpaceOnUse"><path
         id="path244"
         d="m -3.5,-3.5 h 7 v 7 h -7 z" /></clipPath><clipPath
       id="clipPath258"
       clipPathUnits="userSpaceOnUse"><path
         id="path256"
         d="m -3.5,-3.5 h 7 v 7 h -7 z" /></clipPath><clipPath
       id="clipPath270"
       clipPathUnits="userSpaceOnUse"><path
         id="path268"
         d="m -3.5,-3.5 h 7 v 7 h -7 z" /></clipPath><clipPath
       id="clipPath282"
       clipPathUnits="userSpaceOnUse"><path
         id="path280"
         d="m -3.5,-3.5 h 7 v 7 h -7 z" /></clipPath><clipPath
       id="clipPath294"
       clipPathUnits="userSpaceOnUse"><path
         id="path292"
         d="m -3.5,-3.5 h 7 v 7 h -7 z" /></clipPath><clipPath
       id="clipPath306"
       clipPathUnits="userSpaceOnUse"><path
         id="path304"
         d="m -3.5,-3.5 h 7 v 7 h -7 z" /></clipPath><clipPath
       id="clipPath404"
       clipPathUnits="userSpaceOnUse"><path
         id="path402"
         d="M -1016,-351 H 1660 V 1068 H -1016 Z" /></clipPath><clipPath
       id="clipPath416"
       clipPathUnits="userSpaceOnUse"><path
         id="path414"
         d="M -1021,-463 H 1794 V 1233 H -1021 Z" /></clipPath><clipPath
       id="clipPath428"
       clipPathUnits="userSpaceOnUse"><path
         id="path426"
         d="M -1016,-351 H 1660 V 1068 H -1016 Z" /></clipPath><clipPath
       id="clipPath440"
       clipPathUnits="userSpaceOnUse"><path
         id="path438"
         d="M -1016,-351 H 1660 V 1068 H -1016 Z" /></clipPath><clipPath
       id="clipPath450"
       clipPathUnits="userSpaceOnUse"><path
         id="path448"
         d="m 50.51,43.688 h 296.17 v 64.41489 H 50.51 Z" /></clipPath><clipPath
       id="clipPath462"
       clipPathUnits="userSpaceOnUse"><path
         id="path460"
         d="m -3.5,-3.5 h 7 v 7 h -7 z" /></clipPath><clipPath
       id="clipPath474"
       clipPathUnits="userSpaceOnUse"><path
         id="path472"
         d="m -3.5,-3.5 h 7 v 7 h -7 z" /></clipPath><clipPath
       id="clipPath486"
       clipPathUnits="userSpaceOnUse"><path
         id="path484"
         d="m -3.5,-3.5 h 7 v 7 h -7 z" /></clipPath><clipPath
       id="clipPath498"
       clipPathUnits="userSpaceOnUse"><path
         id="path496"
         d="m -3.5,-3.5 h 7 v 7 h -7 z" /></clipPath><clipPath
       id="clipPath510"
       clipPathUnits="userSpaceOnUse"><path
         id="path508"
         d="m -3.5,-3.5 h 7 v 7 h -7 z" /></clipPath><clipPath
       id="clipPath522"
       clipPathUnits="userSpaceOnUse"><path
         id="path520"
         d="m -3.5,-3.5 h 7 v 7 h -7 z" /></clipPath><clipPath
       id="clipPath534"
       clipPathUnits="userSpaceOnUse"><path
         id="path532"
         d="m -3.5,-3.5 h 7 v 7 h -7 z" /></clipPath><clipPath
       id="clipPath546"
       clipPathUnits="userSpaceOnUse"><path
         id="path544"
         d="m -3.5,-3.5 h 7 v 7 h -7 z" /></clipPath><clipPath
       id="clipPath556"
       clipPathUnits="userSpaceOnUse"><path
         id="path554"
         d="m 50.51,43.688 h 296.17 v 64.41489 H 50.51 Z" /></clipPath></defs><g
     transform="matrix(1.3333333,0,0,-1.3333333,0,480)"
     id="g10"><path
       id="path12"
       style="fill:#ffffff;fill-opacity:1;fill-rule:nonzero;stroke:none"
       d="M 0,0 H 360 V 360 H 0 Z" /><path
       id="path14"
       style="fill:#ffffff;fill-opacity:1;fill-rule:nonzero;stroke:none"
       d="M 50.51,139.87532 H 346.68 V 333.12 H 50.51 Z" /><path
       id="path16"
       style="fill:#000000;fill-opacity:1;fill-rule:nonzero;stroke:#000000;stroke-width:0.80000001;stroke-linecap:butt;stroke-linejoin:round;stroke-miterlimit:10;stroke-dasharray:none;stroke-opacity:1"
       d="m 94.74627,139.87532 v -3.5" /><path
       id="path18"
       style="fill:#000000;fill-opacity:1;fill-rule:nonzero;stroke:#000000;stroke-width:0.80000001;stroke-linecap:butt;stroke-linejoin:round;stroke-miterlimit:10;stroke-dasharray:none;stroke-opacity:1"
       d="m 150.19082,139.87532 v -3.5" /><path
       id="path20"
       style="fill:#000000;fill-opacity:1;fill-rule:nonzero;stroke:#000000;stroke-width:0.80000001;stroke-linecap:butt;stroke-linejoin:round;stroke-miterlimit:10;stroke-dasharray:none;stroke-opacity:1"
       d="m 205.63537,139.87532 v -3.5" /><path
       id="path22"
       style="fill:#000000;fill-opacity:1;fill-rule:nonzero;stroke:#000000;stroke-width:0.80000001;stroke-linecap:butt;stroke-linejoin:round;stroke-miterlimit:10;stroke-dasharray:none;stroke-opacity:1"
       d="m 261.07993,139.87532 v -3.5" /><path
       id="path24"
       style="fill:#000000;fill-opacity:1;fill-rule:nonzero;stroke:#000000;stroke-width:0.80000001;stroke-linecap:butt;stroke-linejoin:round;stroke-miterlimit:10;stroke-dasharray:none;stroke-opacity:1"
       d="m 316.52448,139.87532 v -3.5" /><path
       id="path26"
       style="fill:#000000;fill-opacity:1;fill-rule:nonzero;stroke:#000000;stroke-width:0.80000001;stroke-linecap:butt;stroke-linejoin:round;stroke-miterlimit:10;stroke-dasharray:none;stroke-opacity:1"
       d="m 50.51,160.22584 h -3.5" /><text
       id="text30"
       style="font-variant:normal;font-weight:normal;font-size:10px;font-family:'DejaVu Sans';-inkscape-font-specification:DejaVuSans;writing-mode:lr-tb;fill:#000000;fill-opacity:1;fill-rule:nonzero;stroke:none"
       transform="matrix(1,0,0,-1,27.60375,156.42896)"><tspan
         id="tspan28"
         y="0"
         x="0 6.3600001 9.54">0.4</tspan></text>
<path
       id="path32"
       style="fill:#000000;fill-opacity:1;fill-rule:nonzero;stroke:#000000;stroke-width:0.80000001;stroke-linecap:butt;stroke-linejoin:round;stroke-miterlimit:10;stroke-dasharray:none;stroke-opacity:1"
       d="m 50.51,181.80099 h -3.5" /><text
       id="text36"
       style="font-variant:normal;font-weight:normal;font-size:10px;font-family:'DejaVu Sans';-inkscape-font-specification:DejaVuSans;writing-mode:lr-tb;fill:#000000;fill-opacity:1;fill-rule:nonzero;stroke:none"
       transform="matrix(1,0,0,-1,27.60375,178.00412)"><tspan
         id="tspan34"
         y="0"
         x="0 6.3600001 9.54">0.6</tspan></text>
<path
       id="path38"
       style="fill:#000000;fill-opacity:1;fill-rule:nonzero;stroke:#000000;stroke-width:0.80000001;stroke-linecap:butt;stroke-linejoin:round;stroke-miterlimit:10;stroke-dasharray:none;stroke-opacity:1"
       d="m 50.51,203.37615 h -3.5" /><text
       id="text42"
       style="font-variant:normal;font-weight:normal;font-size:10px;font-family:'DejaVu Sans';-inkscape-font-specification:DejaVuSans;writing-mode:lr-tb;fill:#000000;fill-opacity:1;fill-rule:nonzero;stroke:none"
       transform="matrix(1,0,0,-1,27.60375,199.57927)"><tspan
         id="tspan40"
         y="0"
         x="0 6.3600001 9.54">0.8</tspan></text>
<path
       id="path44"
       style="fill:#000000;fill-opacity:1;fill-rule:nonzero;stroke:#000000;stroke-width:0.80000001;stroke-linecap:butt;stroke-linejoin:round;stroke-miterlimit:10;stroke-dasharray:none;stroke-opacity:1"
       d="m 50.51,224.9513 h -3.5" /><text
       id="text48"
       style="font-variant:normal;font-weight:normal;font-size:10px;font-family:'DejaVu Sans';-inkscape-font-specification:DejaVuSans;writing-mode:lr-tb;fill:#000000;fill-opacity:1;fill-rule:nonzero;stroke:none"
       transform="matrix(1,0,0,-1,27.60375,221.15443)"><tspan
         id="tspan46"
         y="0"
         x="0 6.3600001 9.54">1.0</tspan></text>
<path
       id="path50"
       style="fill:#000000;fill-opacity:1;fill-rule:nonzero;stroke:#000000;stroke-width:0.80000001;stroke-linecap:butt;stroke-linejoin:round;stroke-miterlimit:10;stroke-dasharray:none;stroke-opacity:1"
       d="m 50.51,246.52646 h -3.5" /><text
       id="text54"
       style="font-variant:normal;font-weight:normal;font-size:10px;font-family:'DejaVu Sans';-inkscape-font-specification:DejaVuSans;writing-mode:lr-tb;fill:#000000;fill-opacity:1;fill-rule:nonzero;stroke:none"
       transform="matrix(1,0,0,-1,27.60375,242.72958)"><tspan
         id="tspan52"
         y="0"
         x="0 6.3600001 9.54">1.2</tspan></text>
<path
       id="path56"
       style="fill:#000000;fill-opacity:1;fill-rule:nonzero;stroke:#000000;stroke-width:0.80000001;stroke-linecap:butt;stroke-linejoin:round;stroke-miterlimit:10;stroke-dasharray:none;stroke-opacity:1"
       d="m 50.51,268.10161 h -3.5" /><text
       id="text60"
       style="font-variant:normal;font-weight:normal;font-size:10px;font-family:'DejaVu Sans';-inkscape-font-specification:DejaVuSans;writing-mode:lr-tb;fill:#000000;fill-opacity:1;fill-rule:nonzero;stroke:none"
       transform="matrix(1,0,0,-1,27.60375,264.30474)"><tspan
         id="tspan58"
         y="0"
         x="0 6.3600001 9.54">1.4</tspan></text>
<path
       id="path62"
       style="fill:#000000;fill-opacity:1;fill-rule:nonzero;stroke:#000000;stroke-width:0.80000001;stroke-linecap:butt;stroke-linejoin:round;stroke-miterlimit:10;stroke-dasharray:none;stroke-opacity:1"
       d="m 50.51,289.67677 h -3.5" /><text
       id="text66"
       style="font-variant:normal;font-weight:normal;font-size:10px;font-family:'DejaVu Sans';-inkscape-font-specification:DejaVuSans;writing-mode:lr-tb;fill:#000000;fill-opacity:1;fill-rule:nonzero;stroke:none"
       transform="matrix(1,0,0,-1,27.60375,285.87989)"><tspan
         id="tspan64"
         y="0"
         x="0 6.3600001 9.54">1.6</tspan></text>
<path
       id="path68"
       style="fill:#000000;fill-opacity:1;fill-rule:nonzero;stroke:#000000;stroke-width:0.80000001;stroke-linecap:butt;stroke-linejoin:round;stroke-miterlimit:10;stroke-dasharray:none;stroke-opacity:1"
       d="m 50.51,311.25192 h -3.5" /><text
       id="text72"
       style="font-variant:normal;font-weight:normal;font-size:10px;font-family:'DejaVu Sans';-inkscape-font-specification:DejaVuSans;writing-mode:lr-tb;fill:#000000;fill-opacity:1;fill-rule:nonzero;stroke:none"
       transform="matrix(1,0,0,-1,27.60375,307.45505)"><tspan
         id="tspan70"
         y="0"
         x="0 6.3600001 9.54">1.8</tspan></text>
<path
       id="path74"
       style="fill:#000000;fill-opacity:1;fill-rule:nonzero;stroke:#000000;stroke-width:0.80000001;stroke-linecap:butt;stroke-linejoin:round;stroke-miterlimit:10;stroke-dasharray:none;stroke-opacity:1"
       d="m 50.51,332.82708 h -3.5" /><text
       id="text78"
       style="font-variant:normal;font-weight:normal;font-size:10px;font-family:'DejaVu Sans';-inkscape-font-specification:DejaVuSans;writing-mode:lr-tb;fill:#000000;fill-opacity:1;fill-rule:nonzero;stroke:none"
       transform="matrix(1,0,0,-1,27.60375,329.0302)"><tspan
         id="tspan76"
         y="0"
         x="0 6.3600001 9.54">2.0</tspan></text>
<g
       transform="rotate(90,-102.48602,124.01164)"
       id="g80"><text
         id="text84"
         style="font-variant:normal;font-weight:normal;font-size:7px;font-family:'DejaVu Sans';-inkscape-font-specification:DejaVuSans;writing-mode:lr-tb;fill:#000000;fill-opacity:1;fill-rule:nonzero;stroke:none"
         transform="matrix(1,0,0,-1,6.3378906,-1.109375)"><tspan
           id="tspan82"
           y="0"
           x="0 4.2758789 8.5585938">ToT</tspan></text>
<g
         transform="matrix(0.01,0,0,0.01,0,0.53125)"
         id="g86"><g
           id="g88"><g
             clip-path="url(#clipPath94)"
             id="g90"><path
               id="path96"
               style="fill:#000000;fill-opacity:1;fill-rule:nonzero;stroke:none"
               d="m 347,476 c -50,0 -92,-18 -125,-54 -36,-38 -59,-87 -71,-149 -13,-66 -9,-117 12,-155 20,-38 55,-56 104,-56 47,0 88,19 124,57 35,37 59,88 72,154 11,59 7,109 -13,149 -19,36 -53,54 -103,54 m 14,71 H 659 L 642,457 H 541 C 566,406 572,345 559,273 541,183 505,113 451,63 396,12 329,-13 251,-13 173,-13 116,12 82,63 47,113 39,183 57,273 c 17,90 53,160 107,211 45,42 111,63 197,63" /></g></g></g></g><g
       id="g98"><g
         clip-path="url(#clipPath104)"
         id="g100"><path
           id="path106"
           style="fill:none;stroke:#1f77b4;stroke-width:1.5;stroke-linecap:square;stroke-linejoin:round;stroke-miterlimit:10;stroke-dasharray:none;stroke-opacity:1"
           d="m 63.972273,169.50772 18.517078,-11.19215 27.922209,-9.65641 25.48871,11.16097 61.11064,7.06642 55.33651,10.15106 53.28082,5.60732 27.58949,-7.89572" /><g
           transform="translate(63.972273,169.50772)"
           id="g108"><g
             id="g110"><g
               clip-path="url(#clipPath116)"
               id="g112"><path
                 id="path118"
                 style="fill:#1f77b4;fill-opacity:1;fill-rule:nonzero;stroke:#1f77b4;stroke-width:1;stroke-linecap:butt;stroke-linejoin:round;stroke-miterlimit:10;stroke-dasharray:none;stroke-opacity:1"
                 d="M -3,-3 3,3 M -3,3 3,-3" /></g></g><g
             transform="translate(18.517078,-11.192152)"
             id="g120"><g
               id="g122"><g
                 clip-path="url(#clipPath128)"
                 id="g124"><path
                   id="path130"
                   style="fill:#1f77b4;fill-opacity:1;fill-rule:nonzero;stroke:#1f77b4;stroke-width:1;stroke-linecap:butt;stroke-linejoin:round;stroke-miterlimit:10;stroke-dasharray:none;stroke-opacity:1"
                   d="M -3,-3 3,3 M -3,3 3,-3" /></g></g><g
               transform="translate(27.922209,-9.6564023)"
               id="g132"><g
                 id="g134"><g
                   clip-path="url(#clipPath140)"
                   id="g136"><path
                     id="path142"
                     style="fill:#1f77b4;fill-opacity:1;fill-rule:nonzero;stroke:#1f77b4;stroke-width:1;stroke-linecap:butt;stroke-linejoin:round;stroke-miterlimit:10;stroke-dasharray:none;stroke-opacity:1"
                     d="M -3,-3 3,3 M -3,3 3,-3" /></g></g><g
                 transform="translate(25.488714,11.160967)"
                 id="g144"><g
                   id="g146"><g
                     clip-path="url(#clipPath152)"
                     id="g148"><path
                       id="path154"
                       style="fill:#1f77b4;fill-opacity:1;fill-rule:nonzero;stroke:#1f77b4;stroke-width:1;stroke-linecap:butt;stroke-linejoin:round;stroke-miterlimit:10;stroke-dasharray:none;stroke-opacity:1"
                       d="M -3,-3 3,3 M -3,3 3,-3" /></g></g><g
                   transform="translate(61.110638,7.0664152)"
                   id="g156"><g
                     id="g158"><g
                       clip-path="url(#clipPath164)"
                       id="g160"><path
                         id="path166"
                         style="fill:#1f77b4;fill-opacity:1;fill-rule:nonzero;stroke:#1f77b4;stroke-width:1;stroke-linecap:butt;stroke-linejoin:round;stroke-miterlimit:10;stroke-dasharray:none;stroke-opacity:1"
                         d="M -3,-3 3,3 M -3,3 3,-3" /></g></g><g
                     transform="translate(55.336505,10.151063)"
                     id="g168"><g
                       id="g170"><g
                         clip-path="url(#clipPath176)"
                         id="g172"><path
                           id="path178"
                           style="fill:#1f77b4;fill-opacity:1;fill-rule:nonzero;stroke:#1f77b4;stroke-width:1;stroke-linecap:butt;stroke-linejoin:round;stroke-miterlimit:10;stroke-dasharray:none;stroke-opacity:1"
                           d="M -3,-3 3,3 M -3,3 3,-3" /></g></g><g
                       transform="translate(53.28082,5.6073219)"
                       id="g180"><g
                         id="g182"><g
                           clip-path="url(#clipPath188)"
                           id="g184"><path
                             id="path190"
                             style="fill:#1f77b4;fill-opacity:1;fill-rule:nonzero;stroke:#1f77b4;stroke-width:1;stroke-linecap:butt;stroke-linejoin:round;stroke-miterlimit:10;stroke-dasharray:none;stroke-opacity:1"
                             d="M -3,-3 3,3 M -3,3 3,-3" /></g></g><g
                         transform="translate(27.589491,-7.8957197)"
                         id="g192"><g
                           id="g194"><g
                             clip-path="url(#clipPath200)"
                             id="g196"><path
                               id="path202"
                               style="fill:#1f77b4;fill-opacity:1;fill-rule:nonzero;stroke:#1f77b4;stroke-width:1;stroke-linecap:butt;stroke-linejoin:round;stroke-miterlimit:10;stroke-dasharray:none;stroke-opacity:1"
                               d="M -3,-3 3,3 M -3,3 3,-3" /></g></g></g></g></g></g></g></g></g></g></g></g><g
       id="g204"><g
         clip-path="url(#clipPath210)"
         id="g206"><path
           id="path212"
           style="fill:none;stroke:#ff7f0e;stroke-width:1.5;stroke-linecap:square;stroke-linejoin:round;stroke-miterlimit:10;stroke-dasharray:none;stroke-opacity:1"
           d="m 63.972273,205.28774 18.517078,-34.1349 27.922209,-21.53878 25.48871,39.26727 61.11064,82.29423 55.33651,52.74707 53.28082,-54.81127 27.58949,55.22479" /><g
           transform="translate(63.972273,205.28775)"
           id="g214"><g
             id="g216"><g
               clip-path="url(#clipPath222)"
               id="g218"><path
                 id="path224"
                 style="fill:#ff7f0e;fill-opacity:1;fill-rule:nonzero;stroke:#ff7f0e;stroke-width:1;stroke-linecap:butt;stroke-linejoin:round;stroke-miterlimit:10;stroke-dasharray:none;stroke-opacity:1"
                 d="M -3,-3 3,3 M -3,3 3,-3" /></g></g><g
             transform="translate(18.517078,-34.134903)"
             id="g226"><g
               id="g228"><g
                 clip-path="url(#clipPath234)"
                 id="g230"><path
                   id="path236"
                   style="fill:#ff7f0e;fill-opacity:1;fill-rule:nonzero;stroke:#ff7f0e;stroke-width:1;stroke-linecap:butt;stroke-linejoin:round;stroke-miterlimit:10;stroke-dasharray:none;stroke-opacity:1"
                   d="M -3,-3 3,3 M -3,3 3,-3" /></g></g><g
               transform="translate(27.922209,-21.538781)"
               id="g238"><g
                 id="g240"><g
                   clip-path="url(#clipPath246)"
                   id="g242"><path
                     id="path248"
                     style="fill:#ff7f0e;fill-opacity:1;fill-rule:nonzero;stroke:#ff7f0e;stroke-width:1;stroke-linecap:butt;stroke-linejoin:round;stroke-miterlimit:10;stroke-dasharray:none;stroke-opacity:1"
                     d="M -3,-3 3,3 M -3,3 3,-3" /></g></g><g
                 transform="translate(25.488714,39.267267)"
                 id="g250"><g
                   id="g252"><g
                     clip-path="url(#clipPath258)"
                     id="g254"><path
                       id="path260"
                       style="fill:#ff7f0e;fill-opacity:1;fill-rule:nonzero;stroke:#ff7f0e;stroke-width:1;stroke-linecap:butt;stroke-linejoin:round;stroke-miterlimit:10;stroke-dasharray:none;stroke-opacity:1"
                       d="M -3,-3 3,3 M -3,3 3,-3" /></g></g><g
                   transform="translate(61.110638,82.294234)"
                   id="g262"><g
                     id="g264"><g
                       clip-path="url(#clipPath270)"
                       id="g266"><path
                         id="path272"
                         style="fill:#ff7f0e;fill-opacity:1;fill-rule:nonzero;stroke:#ff7f0e;stroke-width:1;stroke-linecap:butt;stroke-linejoin:round;stroke-miterlimit:10;stroke-dasharray:none;stroke-opacity:1"
                         d="M -3,-3 3,3 M -3,3 3,-3" /></g></g><g
                     transform="translate(55.336505,52.747068)"
                     id="g274"><g
                       id="g276"><g
                         clip-path="url(#clipPath282)"
                         id="g278"><path
                           id="path284"
                           style="fill:#ff7f0e;fill-opacity:1;fill-rule:nonzero;stroke:#ff7f0e;stroke-width:1;stroke-linecap:butt;stroke-linejoin:round;stroke-miterlimit:10;stroke-dasharray:none;stroke-opacity:1"
                           d="M -3,-3 3,3 M -3,3 3,-3" /></g></g><g
                       transform="translate(53.28082,-54.811267)"
                       id="g286"><g
                         id="g288"><g
                           clip-path="url(#clipPath294)"
                           id="g290"><path
                             id="path296"
                             style="fill:#ff7f0e;fill-opacity:1;fill-rule:nonzero;stroke:#ff7f0e;stroke-width:1;stroke-linecap:butt;stroke-linejoin:round;stroke-miterlimit:10;stroke-dasharray:none;stroke-opacity:1"
                             d="M -3,-3 3,3 M -3,3 3,-3" /></g></g><g
                         transform="translate(27.589491,55.224786)"
                         id="g298"><g
                           id="g300"><g
                             clip-path="url(#clipPath306)"
                             id="g302"><path
                               id="path308"
                               style="fill:#ff7f0e;fill-opacity:1;fill-rule:nonzero;stroke:#ff7f0e;stroke-width:1;stroke-linecap:butt;stroke-linejoin:round;stroke-miterlimit:10;stroke-dasharray:none;stroke-opacity:1"
                               d="M -3,-3 3,3 M -3,3 3,-3" /></g></g></g></g></g></g></g></g></g></g></g></g><g
       id="g310"><path
         id="path312"
         style="fill:none;stroke:#000000;stroke-width:0.80000001;stroke-linecap:square;stroke-linejoin:miter;stroke-miterlimit:10;stroke-dasharray:none;stroke-opacity:1"
         d="M 50.51,139.87532 V 333.12" /><path
         id="path314"
         style="fill:none;stroke:#000000;stroke-width:0.80000001;stroke-linecap:square;stroke-linejoin:miter;stroke-miterlimit:10;stroke-dasharray:none;stroke-opacity:1"
         d="M 346.68,139.87532 V 333.12" /><path
         id="path316"
         style="fill:none;stroke:#000000;stroke-width:0.80000001;stroke-linecap:square;stroke-linejoin:miter;stroke-miterlimit:10;stroke-dasharray:none;stroke-opacity:1"
         d="M 50.51,139.87532 H 346.68" /><path
         id="path318"
         style="fill:none;stroke:#000000;stroke-width:0.80000001;stroke-linecap:square;stroke-linejoin:miter;stroke-miterlimit:10;stroke-dasharray:none;stroke-opacity:1"
         d="M 50.51,333.12 H 346.68" /><text
         id="text322"
         style="font-variant:normal;font-weight:normal;font-size:12px;font-family:'DejaVu Sans';-inkscape-font-specification:DejaVuSans;writing-mode:lr-tb;fill:#000000;fill-opacity:1;fill-rule:nonzero;stroke:none"
         transform="matrix(1,0,0,-1,173.64187,339.12)"><tspan
           id="tspan320"
           y="0"
           x="0 7.2360001 10.572 17.676001 25.056 28.392 32.208 42.264">Pixel #1</tspan></text>
<path
         id="path324"
         style="fill:#ffffff;fill-opacity:1;fill-rule:nonzero;stroke:none"
         d="m 50.51,43.688 h 296.17 v 64.41489 H 50.51 Z" /><path
         id="path326"
         style="fill:#000000;fill-opacity:1;fill-rule:nonzero;stroke:#000000;stroke-width:0.80000001;stroke-linecap:butt;stroke-linejoin:round;stroke-miterlimit:10;stroke-dasharray:none;stroke-opacity:1"
         d="m 94.74627,43.688 v -3.5" /><text
         id="text330"
         style="font-variant:normal;font-weight:normal;font-size:10px;font-family:'DejaVu Sans';-inkscape-font-specification:DejaVuSans;writing-mode:lr-tb;fill:#000000;fill-opacity:1;fill-rule:nonzero;stroke:none"
         transform="matrix(1,0,0,-1,85.207207,29.09425)"><tspan
           id="tspan328"
           y="0"
           x="0 6.3600001 12.72">100</tspan></text>
<path
         id="path332"
         style="fill:#000000;fill-opacity:1;fill-rule:nonzero;stroke:#000000;stroke-width:0.80000001;stroke-linecap:butt;stroke-linejoin:round;stroke-miterlimit:10;stroke-dasharray:none;stroke-opacity:1"
         d="m 150.19082,43.688 v -3.5" /><text
         id="text336"
         style="font-variant:normal;font-weight:normal;font-size:10px;font-family:'DejaVu Sans';-inkscape-font-specification:DejaVuSans;writing-mode:lr-tb;fill:#000000;fill-opacity:1;fill-rule:nonzero;stroke:none"
         transform="matrix(1,0,0,-1,140.65176,29.09425)"><tspan
           id="tspan334"
           y="0"
           x="0 6.3600001 12.72">200</tspan></text>
<path
         id="path338"
         style="fill:#000000;fill-opacity:1;fill-rule:nonzero;stroke:#000000;stroke-width:0.80000001;stroke-linecap:butt;stroke-linejoin:round;stroke-miterlimit:10;stroke-dasharray:none;stroke-opacity:1"
         d="m 205.63537,43.688 v -3.5" /><text
         id="text342"
         style="font-variant:normal;font-weight:normal;font-size:10px;font-family:'DejaVu Sans';-inkscape-font-specification:DejaVuSans;writing-mode:lr-tb;fill:#000000;fill-opacity:1;fill-rule:nonzero;stroke:none"
         transform="matrix(1,0,0,-1,196.09631,29.09425)"><tspan
           id="tspan340"
           y="0"
           x="0 6.3600001 12.72">300</tspan></text>
<path
         id="path344"
         style="fill:#000000;fill-opacity:1;fill-rule:nonzero;stroke:#000000;stroke-width:0.80000001;stroke-linecap:butt;stroke-linejoin:round;stroke-miterlimit:10;stroke-dasharray:none;stroke-opacity:1"
         d="m 261.07993,43.688 v -3.5" /><text
         id="text348"
         style="font-variant:normal;font-weight:normal;font-size:10px;font-family:'DejaVu Sans';-inkscape-font-specification:DejaVuSans;writing-mode:lr-tb;fill:#000000;fill-opacity:1;fill-rule:nonzero;stroke:none"
         transform="matrix(1,0,0,-1,251.54087,29.09425)"><tspan
           id="tspan346"
           y="0"
           x="0 6.3600001 12.72">400</tspan></text>
<path
         id="path350"
         style="fill:#000000;fill-opacity:1;fill-rule:nonzero;stroke:#000000;stroke-width:0.80000001;stroke-linecap:butt;stroke-linejoin:round;stroke-miterlimit:10;stroke-dasharray:none;stroke-opacity:1"
         d="m 316.52448,43.688 v -3.5" /><text
         id="text354"
         style="font-variant:normal;font-weight:normal;font-size:10px;font-family:'DejaVu Sans';-inkscape-font-specification:DejaVuSans;writing-mode:lr-tb;fill:#000000;fill-opacity:1;fill-rule:nonzero;stroke:none"
         transform="matrix(1,0,0,-1,306.98542,29.09425)"><tspan
           id="tspan352"
           y="0"
           x="0 6.3600001 12.72">500</tspan></text>
<g
         transform="translate(179.095,15.09425)"
         id="g356"><text
           id="text360"
           style="font-variant:normal;font-weight:normal;font-size:10px;font-family:'DejaVu Sans';-inkscape-font-specification:DejaVuSans;writing-mode:lr-tb;fill:#000000;fill-opacity:1;fill-rule:nonzero;stroke:none"
           transform="matrix(1,0,0,-1,0,0.703125)"><tspan
             id="tspan358"
             y="0"
             x="0 6.1083984 12.226562">ToT</tspan></text>
<text
           id="text364"
           style="font-variant:normal;font-weight:normal;font-size:7px;font-family:'DejaVu Sans';-inkscape-font-specification:DejaVuSans;writing-mode:lr-tb;fill:#000000;fill-opacity:1;fill-rule:nonzero;stroke:none"
           transform="matrix(1,0,0,-1,18.430664,-0.9375)"><tspan
             id="tspan362"
             y="0"
             x="0 4.2827148 6.7470703 9.2114258 12.858398 17.165039">offset</tspan></text>
</g><path
         id="path366"
         style="fill:#000000;fill-opacity:1;fill-rule:nonzero;stroke:#000000;stroke-width:0.80000001;stroke-linecap:butt;stroke-linejoin:round;stroke-miterlimit:10;stroke-dasharray:none;stroke-opacity:1"
         d="m 50.51,44.133943 h -3.5" /><text
         id="text370"
         style="font-variant:normal;font-weight:normal;font-size:10px;font-family:'DejaVu Sans';-inkscape-font-specification:DejaVuSans;writing-mode:lr-tb;fill:#000000;fill-opacity:1;fill-rule:nonzero;stroke:none"
         transform="matrix(1,0,0,-1,27.60375,40.337068)"><tspan
           id="tspan368"
           y="0"
           x="0 6.3600001 9.54">0.0</tspan></text>
<path
         id="path372"
         style="fill:#000000;fill-opacity:1;fill-rule:nonzero;stroke:#000000;stroke-width:0.80000001;stroke-linecap:butt;stroke-linejoin:round;stroke-miterlimit:10;stroke-dasharray:none;stroke-opacity:1"
         d="m 50.51,86.421714 h -3.5" /><text
         id="text376"
         style="font-variant:normal;font-weight:normal;font-size:10px;font-family:'DejaVu Sans';-inkscape-font-specification:DejaVuSans;writing-mode:lr-tb;fill:#000000;fill-opacity:1;fill-rule:nonzero;stroke:none"
         transform="matrix(1,0,0,-1,27.60375,82.624839)"><tspan
           id="tspan374"
           y="0"
           x="0 6.3600001 9.54">0.5</tspan></text>
<g
         transform="rotate(90,-2.8958487,23.499599)"
         id="g378"><text
           id="text382"
           style="font-variant:normal;font-weight:normal;font-size:10px;font-family:'DejaVu Sans';-inkscape-font-specification:DejaVuSans;writing-mode:lr-tb;fill:#000000;fill-opacity:1;fill-rule:nonzero;stroke:none"
           transform="matrix(1,0,0,-1,0,0.40625)"><tspan
             id="tspan380"
             y="0"
             x="0">(</tspan></text>
<text
           id="text386"
           style="font-variant:normal;font-weight:normal;font-size:7px;font-family:'DejaVu Sans';-inkscape-font-specification:DejaVuSans;writing-mode:lr-tb;fill:#000000;fill-opacity:1;fill-rule:nonzero;stroke:none"
           transform="matrix(1,0,0,-1,10.239258,-1.234375)"><tspan
             id="tspan384"
             y="0"
             x="0 4.2758789 8.5585938 31.721191 35.99707 40.279785 44.555664 48.144531 51.022461 55.329102 59.618652">ToTToT,real</tspan></text>
<text
           id="text390"
           style="font-variant:normal;font-weight:normal;font-size:10px;font-family:'DejaVu Sans';-inkscape-font-specification:DejaVuSans;writing-mode:lr-tb;fill:#000000;fill-opacity:1;fill-rule:nonzero;stroke:none"
           transform="matrix(1,0,0,-1,72.076172,0.40625)"><tspan
             id="tspan388"
             y="0"
             x="0 3.9013672">)/</tspan></text>
<text
           id="text394"
           style="font-variant:normal;font-weight:normal;font-size:7px;font-family:'DejaVu Sans';-inkscape-font-specification:DejaVuSans;writing-mode:lr-tb;fill:#000000;fill-opacity:1;fill-rule:nonzero;stroke:none"
           transform="matrix(1,0,0,-1,85.68457,-1.234375)"><tspan
             id="tspan392"
             y="0"
             x="0 4.2758789 8.5585938">ToT</tspan></text>
<g
           transform="matrix(0.01,0,0,0.01,3.9013672,0.40625)"
           id="g396"><g
             id="g398"><g
               clip-path="url(#clipPath404)"
               id="g400"><path
                 id="path406"
                 style="fill:#000000;fill-opacity:1;fill-rule:nonzero;stroke:none"
                 d="m 347,476 c -50,0 -92,-18 -125,-54 -36,-38 -59,-87 -71,-149 -13,-66 -9,-117 12,-155 20,-38 55,-56 104,-56 47,0 88,19 124,57 35,37 59,88 72,154 11,59 7,109 -13,149 -19,36 -53,54 -103,54 m 14,71 H 659 L 642,457 H 541 C 566,406 572,345 559,273 541,183 505,113 451,63 396,12 329,-13 251,-13 173,-13 116,12 82,63 47,113 39,183 57,273 c 17,90 53,160 107,211 45,42 111,63 197,63" /></g></g></g><g
           transform="matrix(0.01,0,0,0.01,25.29541,0.40625)"
           id="g408"><g
             id="g410"><g
               clip-path="url(#clipPath416)"
               id="g412"><path
                 id="path418"
                 style="fill:#000000;fill-opacity:1;fill-rule:nonzero;stroke:none"
                 d="M 106,355 H 732 V 272 H 106 v 83" /></g></g></g><g
           transform="matrix(0.01,0,0,0.01,35.622559,0.40625)"
           id="g420"><g
             id="g422"><g
               clip-path="url(#clipPath428)"
               id="g424"><path
                 id="path430"
                 style="fill:#000000;fill-opacity:1;fill-rule:nonzero;stroke:none"
                 d="m 347,476 c -50,0 -92,-18 -125,-54 -36,-38 -59,-87 -71,-149 -13,-66 -9,-117 12,-155 20,-38 55,-56 104,-56 47,0 88,19 124,57 35,37 59,88 72,154 11,59 7,109 -13,149 -19,36 -53,54 -103,54 m 14,71 H 659 L 642,457 H 541 C 566,406 572,345 559,273 541,183 505,113 451,63 396,12 329,-13 251,-13 173,-13 116,12 82,63 47,113 39,183 57,273 c 17,90 53,160 107,211 45,42 111,63 197,63" /></g></g></g><g
           transform="matrix(0.01,0,0,0.01,79.34668,0.40625)"
           id="g432"><g
             id="g434"><g
               clip-path="url(#clipPath440)"
               id="g436"><path
                 id="path442"
                 style="fill:#000000;fill-opacity:1;fill-rule:nonzero;stroke:none"
                 d="m 347,476 c -50,0 -92,-18 -125,-54 -36,-38 -59,-87 -71,-149 -13,-66 -9,-117 12,-155 20,-38 55,-56 104,-56 47,0 88,19 124,57 35,37 59,88 72,154 11,59 7,109 -13,149 -19,36 -53,54 -103,54 m 14,71 H 659 L 642,457 H 541 C 566,406 572,345 559,273 541,183 505,113 451,63 396,12 329,-13 251,-13 173,-13 116,12 82,63 47,113 39,183 57,273 c 17,90 53,160 107,211 45,42 111,63 197,63" /></g></g></g></g></g><g
       id="g444"><g
         clip-path="url(#clipPath450)"
         id="g446"><path
           id="path452"
           style="fill:none;stroke:#1f77b4;stroke-width:1.5;stroke-linecap:square;stroke-linejoin:round;stroke-miterlimit:10;stroke-dasharray:none;stroke-opacity:1"
           d="M 63.972273,78.438885 82.489351,64.211113 110.41156,46.61595 l 25.48871,31.747349 61.11064,23.008141 55.33651,2.82078 53.28082,-11.958136 27.58949,12.940856" /><g
           transform="translate(63.972273,78.438885)"
           id="g454"><g
             id="g456"><g
               clip-path="url(#clipPath462)"
               id="g458"><path
                 id="path464"
                 style="fill:#1f77b4;fill-opacity:1;fill-rule:nonzero;stroke:#1f77b4;stroke-width:1;stroke-linecap:butt;stroke-linejoin:round;stroke-miterlimit:10;stroke-dasharray:none;stroke-opacity:1"
                 d="M -3,-3 3,3 M -3,3 3,-3" /></g></g><g
             transform="translate(18.517078,-14.227772)"
             id="g466"><g
               id="g468"><g
                 clip-path="url(#clipPath474)"
                 id="g470"><path
                   id="path476"
                   style="fill:#1f77b4;fill-opacity:1;fill-rule:nonzero;stroke:#1f77b4;stroke-width:1;stroke-linecap:butt;stroke-linejoin:round;stroke-miterlimit:10;stroke-dasharray:none;stroke-opacity:1"
                   d="M -3,-3 3,3 M -3,3 3,-3" /></g></g><g
               transform="translate(27.922209,-17.595164)"
               id="g478"><g
                 id="g480"><g
                   clip-path="url(#clipPath486)"
                   id="g482"><path
                     id="path488"
                     style="fill:#1f77b4;fill-opacity:1;fill-rule:nonzero;stroke:#1f77b4;stroke-width:1;stroke-linecap:butt;stroke-linejoin:round;stroke-miterlimit:10;stroke-dasharray:none;stroke-opacity:1"
                     d="M -3,-3 3,3 M -3,3 3,-3" /></g></g><g
                 transform="translate(25.488714,31.74735)"
                 id="g490"><g
                   id="g492"><g
                     clip-path="url(#clipPath498)"
                     id="g494"><path
                       id="path500"
                       style="fill:#1f77b4;fill-opacity:1;fill-rule:nonzero;stroke:#1f77b4;stroke-width:1;stroke-linecap:butt;stroke-linejoin:round;stroke-miterlimit:10;stroke-dasharray:none;stroke-opacity:1"
                       d="M -3,-3 3,3 M -3,3 3,-3" /></g></g><g
                   transform="translate(61.110638,23.008137)"
                   id="g502"><g
                     id="g504"><g
                       clip-path="url(#clipPath510)"
                       id="g506"><path
                         id="path512"
                         style="fill:#1f77b4;fill-opacity:1;fill-rule:nonzero;stroke:#1f77b4;stroke-width:1;stroke-linecap:butt;stroke-linejoin:round;stroke-miterlimit:10;stroke-dasharray:none;stroke-opacity:1"
                         d="M -3,-3 3,3 M -3,3 3,-3" /></g></g><g
                     transform="translate(55.336505,2.82078)"
                     id="g514"><g
                       id="g516"><g
                         clip-path="url(#clipPath522)"
                         id="g518"><path
                           id="path524"
                           style="fill:#1f77b4;fill-opacity:1;fill-rule:nonzero;stroke:#1f77b4;stroke-width:1;stroke-linecap:butt;stroke-linejoin:round;stroke-miterlimit:10;stroke-dasharray:none;stroke-opacity:1"
                           d="M -3,-3 3,3 M -3,3 3,-3" /></g></g><g
                       transform="translate(53.28082,-11.958133)"
                       id="g526"><g
                         id="g528"><g
                           clip-path="url(#clipPath534)"
                           id="g530"><path
                             id="path536"
                             style="fill:#1f77b4;fill-opacity:1;fill-rule:nonzero;stroke:#1f77b4;stroke-width:1;stroke-linecap:butt;stroke-linejoin:round;stroke-miterlimit:10;stroke-dasharray:none;stroke-opacity:1"
                             d="M -3,-3 3,3 M -3,3 3,-3" /></g></g><g
                         transform="translate(27.589491,12.940861)"
                         id="g538"><g
                           id="g540"><g
                             clip-path="url(#clipPath546)"
                             id="g542"><path
                               id="path548"
                               style="fill:#1f77b4;fill-opacity:1;fill-rule:nonzero;stroke:#1f77b4;stroke-width:1;stroke-linecap:butt;stroke-linejoin:round;stroke-miterlimit:10;stroke-dasharray:none;stroke-opacity:1"
                               d="M -3,-3 3,3 M -3,3 3,-3" /></g></g></g></g></g></g></g></g></g></g></g></g><g
       id="g550"><g
         clip-path="url(#clipPath556)"
         id="g552"><path
           id="path558"
           style="fill:none;stroke:#000000;stroke-width:0.89999998;stroke-linecap:butt;stroke-linejoin:round;stroke-miterlimit:10;stroke-dasharray:3.33, 1.44;stroke-dashoffset:0;stroke-opacity:0.5"
           d="M 50.51,44.133943 H 346.68" /></g></g><g
       id="g560"><path
         id="path562"
         style="fill:none;stroke:#000000;stroke-width:0.80000001;stroke-linecap:square;stroke-linejoin:miter;stroke-miterlimit:10;stroke-dasharray:none;stroke-opacity:1"
         d="m 50.51,43.688 v 64.41489" /><path
         id="path564"
         style="fill:none;stroke:#000000;stroke-width:0.80000001;stroke-linecap:square;stroke-linejoin:miter;stroke-miterlimit:10;stroke-dasharray:none;stroke-opacity:1"
         d="m 346.68,43.688 v 64.41489" /><path
         id="path566"
         style="fill:none;stroke:#000000;stroke-width:0.80000001;stroke-linecap:square;stroke-linejoin:miter;stroke-miterlimit:10;stroke-dasharray:none;stroke-opacity:1"
         d="M 50.51,43.688 H 346.68" /><path
         id="path568"
         style="fill:none;stroke:#000000;stroke-width:0.80000001;stroke-linecap:square;stroke-linejoin:miter;stroke-miterlimit:10;stroke-dasharray:none;stroke-opacity:1"
         d="M 50.51,108.10289 H 346.68" /></g></g></svg>