<?xml version="1.0" encoding="UTF-8" standalone="no"?>
<svg
   xmlns:dc="http://purl.org/dc/elements/1.1/"
   xmlns:cc="http://creativecommons.org/ns#"
   xmlns:rdf="http://www.w3.org/1999/02/22-rdf-syntax-ns#"
   xmlns:svg="http://www.w3.org/2000/svg"
   xmlns="http://www.w3.org/2000/svg"
   viewBox="0 0 1248 480"
   height="480"
   width="1248"
   xml:space="preserve"
   id="svg2"
   version="1.1"><metadata
     id="metadata8"><rdf:RDF><cc:Work
         rdf:about=""><dc:format>image/svg+xml</dc:format><dc:type
           rdf:resource="http://purl.org/dc/dcmitype/StillImage" /></cc:Work></rdf:RDF></metadata><defs
     id="defs6"><clipPath
       id="clipPath126"
       clipPathUnits="userSpaceOnUse"><path
         id="path124"
         d="M 57.26,41.96 H 454.45586 V 346.68 H 57.26 Z" /></clipPath><clipPath
       id="clipPath136"
       clipPathUnits="userSpaceOnUse"><path
         id="path134"
         d="M 57.26,41.96 H 454.45586 V 346.68 H 57.26 Z" /></clipPath><clipPath
       id="clipPath238"
       clipPathUnits="userSpaceOnUse"><path
         id="path236"
         d="M 518.84832,41.96 H 916.04418 V 346.68 H 518.84832 Z" /></clipPath><clipPath
       id="clipPath248"
       clipPathUnits="userSpaceOnUse"><path
         id="path246"
         d="M 518.84832,41.96 H 916.04418 V 346.68 H 518.84832 Z" /></clipPath></defs><g
     transform="matrix(1.3333333,0,0,-1.3333333,0,480)"
     id="g10"><path
       id="path12"
       style="fill:#ffffff;fill-opacity:1;fill-rule:nonzero;stroke:none"
       d="M 0,0 H 936 V 360 H 0 Z" /><path
       id="path14"
       style="fill:#ffffff;fill-opacity:1;fill-rule:nonzero;stroke:none"
       d="M 57.26,41.96 H 454.45586 V 346.68 H 57.26 Z" /><path
       id="path16"
       style="fill:#000000;fill-opacity:1;fill-rule:nonzero;stroke:#000000;stroke-width:0.80000001;stroke-linecap:butt;stroke-linejoin:round;stroke-miterlimit:10;stroke-dasharray:none;stroke-opacity:1"
       d="m 74.743992,41.96 v -3.5" /><text
       id="text20"
       style="font-variant:normal;font-weight:normal;font-size:10px;font-family:'DejaVu Sans';-inkscape-font-specification:DejaVuSans;writing-mode:lr-tb;fill:#000000;fill-opacity:1;fill-rule:nonzero;stroke:none"
       transform="matrix(1,0,0,-1,71.564305,27.36625)"><tspan
         id="tspan18"
         y="0"
         x="0">0</tspan></text>
<path
       id="path22"
       style="fill:#000000;fill-opacity:1;fill-rule:nonzero;stroke:#000000;stroke-width:0.80000001;stroke-linecap:butt;stroke-linejoin:round;stroke-miterlimit:10;stroke-dasharray:none;stroke-opacity:1"
       d="m 121.37791,41.96 v -3.5" /><text
       id="text26"
       style="font-variant:normal;font-weight:normal;font-size:10px;font-family:'DejaVu Sans';-inkscape-font-specification:DejaVuSans;writing-mode:lr-tb;fill:#000000;fill-opacity:1;fill-rule:nonzero;stroke:none"
       transform="matrix(1,0,0,-1,111.83885,27.36625)"><tspan
         id="tspan24"
         y="0"
         x="0 6.3600001 12.72">100</tspan></text>
<path
       id="path28"
       style="fill:#000000;fill-opacity:1;fill-rule:nonzero;stroke:#000000;stroke-width:0.80000001;stroke-linecap:butt;stroke-linejoin:round;stroke-miterlimit:10;stroke-dasharray:none;stroke-opacity:1"
       d="m 168.01183,41.96 v -3.5" /><text
       id="text32"
       style="font-variant:normal;font-weight:normal;font-size:10px;font-family:'DejaVu Sans';-inkscape-font-specification:DejaVuSans;writing-mode:lr-tb;fill:#000000;fill-opacity:1;fill-rule:nonzero;stroke:none"
       transform="matrix(1,0,0,-1,158.47277,27.36625)"><tspan
         id="tspan30"
         y="0"
         x="0 6.3600001 12.72">200</tspan></text>
<path
       id="path34"
       style="fill:#000000;fill-opacity:1;fill-rule:nonzero;stroke:#000000;stroke-width:0.80000001;stroke-linecap:butt;stroke-linejoin:round;stroke-miterlimit:10;stroke-dasharray:none;stroke-opacity:1"
       d="m 214.64575,41.96 v -3.5" /><text
       id="text38"
       style="font-variant:normal;font-weight:normal;font-size:10px;font-family:'DejaVu Sans';-inkscape-font-specification:DejaVuSans;writing-mode:lr-tb;fill:#000000;fill-opacity:1;fill-rule:nonzero;stroke:none"
       transform="matrix(1,0,0,-1,205.10669,27.36625)"><tspan
         id="tspan36"
         y="0"
         x="0 6.3600001 12.72">300</tspan></text>
<path
       id="path40"
       style="fill:#000000;fill-opacity:1;fill-rule:nonzero;stroke:#000000;stroke-width:0.80000001;stroke-linecap:butt;stroke-linejoin:round;stroke-miterlimit:10;stroke-dasharray:none;stroke-opacity:1"
       d="m 261.27967,41.96 v -3.5" /><text
       id="text44"
       style="font-variant:normal;font-weight:normal;font-size:10px;font-family:'DejaVu Sans';-inkscape-font-specification:DejaVuSans;writing-mode:lr-tb;fill:#000000;fill-opacity:1;fill-rule:nonzero;stroke:none"
       transform="matrix(1,0,0,-1,251.74061,27.36625)"><tspan
         id="tspan42"
         y="0"
         x="0 6.3600001 12.72">400</tspan></text>
<path
       id="path46"
       style="fill:#000000;fill-opacity:1;fill-rule:nonzero;stroke:#000000;stroke-width:0.80000001;stroke-linecap:butt;stroke-linejoin:round;stroke-miterlimit:10;stroke-dasharray:none;stroke-opacity:1"
       d="m 307.91359,41.96 v -3.5" /><text
       id="text50"
       style="font-variant:normal;font-weight:normal;font-size:10px;font-family:'DejaVu Sans';-inkscape-font-specification:DejaVuSans;writing-mode:lr-tb;fill:#000000;fill-opacity:1;fill-rule:nonzero;stroke:none"
       transform="matrix(1,0,0,-1,298.37452,27.36625)"><tspan
         id="tspan48"
         y="0"
         x="0 6.3600001 12.72">500</tspan></text>
<path
       id="path52"
       style="fill:#000000;fill-opacity:1;fill-rule:nonzero;stroke:#000000;stroke-width:0.80000001;stroke-linecap:butt;stroke-linejoin:round;stroke-miterlimit:10;stroke-dasharray:none;stroke-opacity:1"
       d="m 354.5475,41.96 v -3.5" /><text
       id="text56"
       style="font-variant:normal;font-weight:normal;font-size:10px;font-family:'DejaVu Sans';-inkscape-font-specification:DejaVuSans;writing-mode:lr-tb;fill:#000000;fill-opacity:1;fill-rule:nonzero;stroke:none"
       transform="matrix(1,0,0,-1,345.00844,27.36625)"><tspan
         id="tspan54"
         y="0"
         x="0 6.3600001 12.72">600</tspan></text>
<path
       id="path58"
       style="fill:#000000;fill-opacity:1;fill-rule:nonzero;stroke:#000000;stroke-width:0.80000001;stroke-linecap:butt;stroke-linejoin:round;stroke-miterlimit:10;stroke-dasharray:none;stroke-opacity:1"
       d="m 401.18142,41.96 v -3.5" /><text
       id="text62"
       style="font-variant:normal;font-weight:normal;font-size:10px;font-family:'DejaVu Sans';-inkscape-font-specification:DejaVuSans;writing-mode:lr-tb;fill:#000000;fill-opacity:1;fill-rule:nonzero;stroke:none"
       transform="matrix(1,0,0,-1,391.64236,27.36625)"><tspan
         id="tspan60"
         y="0"
         x="0 6.3600001 12.72">700</tspan></text>
<path
       id="path64"
       style="fill:#000000;fill-opacity:1;fill-rule:nonzero;stroke:#000000;stroke-width:0.80000001;stroke-linecap:butt;stroke-linejoin:round;stroke-miterlimit:10;stroke-dasharray:none;stroke-opacity:1"
       d="m 447.81534,41.96 v -3.5" /><text
       id="text68"
       style="font-variant:normal;font-weight:normal;font-size:10px;font-family:'DejaVu Sans';-inkscape-font-specification:DejaVuSans;writing-mode:lr-tb;fill:#000000;fill-opacity:1;fill-rule:nonzero;stroke:none"
       transform="matrix(1,0,0,-1,438.27628,27.36625)"><tspan
         id="tspan66"
         y="0"
         x="0 6.3600001 12.72">800</tspan></text>
<text
       id="text72"
       style="font-variant:normal;font-weight:normal;font-size:10px;font-family:'DejaVu Sans';-inkscape-font-specification:DejaVuSans;writing-mode:lr-tb;fill:#000000;fill-opacity:1;fill-rule:nonzero;stroke:none"
       transform="matrix(1,0,0,-1,235.35012,13.694375)"><tspan
         id="tspan70"
         y="0"
         x="0 6.1100001 8.8900003 18.629999 24.780001 27.959999 31.860001 37.07">Time (s)</tspan></text>
<path
       id="path74"
       style="fill:#000000;fill-opacity:1;fill-rule:nonzero;stroke:#000000;stroke-width:0.80000001;stroke-linecap:butt;stroke-linejoin:round;stroke-miterlimit:10;stroke-dasharray:none;stroke-opacity:1"
       d="m 57.26,78.053245 h -3.5" /><text
       id="text78"
       style="font-variant:normal;font-weight:normal;font-size:10px;font-family:'DejaVu Sans';-inkscape-font-specification:DejaVuSans;writing-mode:lr-tb;fill:#000000;fill-opacity:1;fill-rule:nonzero;stroke:none"
       transform="matrix(1,0,0,-1,24.8225,74.25637)"><tspan
         id="tspan76"
         y="0"
         x="0 6.3600001 12.72 19.08">1500</tspan></text>
<path
       id="path80"
       style="fill:#000000;fill-opacity:1;fill-rule:nonzero;stroke:#000000;stroke-width:0.80000001;stroke-linecap:butt;stroke-linejoin:round;stroke-miterlimit:10;stroke-dasharray:none;stroke-opacity:1"
       d="m 57.26,118.49386 h -3.5" /><text
       id="text84"
       style="font-variant:normal;font-weight:normal;font-size:10px;font-family:'DejaVu Sans';-inkscape-font-specification:DejaVuSans;writing-mode:lr-tb;fill:#000000;fill-opacity:1;fill-rule:nonzero;stroke:none"
       transform="matrix(1,0,0,-1,24.8225,114.69698)"><tspan
         id="tspan82"
         y="0"
         x="0 6.3600001 12.72 19.08">1520</tspan></text>
<path
       id="path86"
       style="fill:#000000;fill-opacity:1;fill-rule:nonzero;stroke:#000000;stroke-width:0.80000001;stroke-linecap:butt;stroke-linejoin:round;stroke-miterlimit:10;stroke-dasharray:none;stroke-opacity:1"
       d="m 57.26,158.93447 h -3.5" /><text
       id="text90"
       style="font-variant:normal;font-weight:normal;font-size:10px;font-family:'DejaVu Sans';-inkscape-font-specification:DejaVuSans;writing-mode:lr-tb;fill:#000000;fill-opacity:1;fill-rule:nonzero;stroke:none"
       transform="matrix(1,0,0,-1,24.8225,155.13759)"><tspan
         id="tspan88"
         y="0"
         x="0 6.3600001 12.72 19.08">1540</tspan></text>
<path
       id="path92"
       style="fill:#000000;fill-opacity:1;fill-rule:nonzero;stroke:#000000;stroke-width:0.80000001;stroke-linecap:butt;stroke-linejoin:round;stroke-miterlimit:10;stroke-dasharray:none;stroke-opacity:1"
       d="m 57.26,199.37508 h -3.5" /><text
       id="text96"
       style="font-variant:normal;font-weight:normal;font-size:10px;font-family:'DejaVu Sans';-inkscape-font-specification:DejaVuSans;writing-mode:lr-tb;fill:#000000;fill-opacity:1;fill-rule:nonzero;stroke:none"
       transform="matrix(1,0,0,-1,24.8225,195.5782)"><tspan
         id="tspan94"
         y="0"
         x="0 6.3600001 12.72 19.08">1560</tspan></text>
<path
       id="path98"
       style="fill:#000000;fill-opacity:1;fill-rule:nonzero;stroke:#000000;stroke-width:0.80000001;stroke-linecap:butt;stroke-linejoin:round;stroke-miterlimit:10;stroke-dasharray:none;stroke-opacity:1"
       d="m 57.26,239.81569 h -3.5" /><text
       id="text102"
       style="font-variant:normal;font-weight:normal;font-size:10px;font-family:'DejaVu Sans';-inkscape-font-specification:DejaVuSans;writing-mode:lr-tb;fill:#000000;fill-opacity:1;fill-rule:nonzero;stroke:none"
       transform="matrix(1,0,0,-1,24.8225,236.01881)"><tspan
         id="tspan100"
         y="0"
         x="0 6.3600001 12.72 19.08">1580</tspan></text>
<path
       id="path104"
       style="fill:#000000;fill-opacity:1;fill-rule:nonzero;stroke:#000000;stroke-width:0.80000001;stroke-linecap:butt;stroke-linejoin:round;stroke-miterlimit:10;stroke-dasharray:none;stroke-opacity:1"
       d="m 57.26,280.2563 h -3.5" /><text
       id="text108"
       style="font-variant:normal;font-weight:normal;font-size:10px;font-family:'DejaVu Sans';-inkscape-font-specification:DejaVuSans;writing-mode:lr-tb;fill:#000000;fill-opacity:1;fill-rule:nonzero;stroke:none"
       transform="matrix(1,0,0,-1,24.8225,276.45942)"><tspan
         id="tspan106"
         y="0"
         x="0 6.3600001 12.72 19.08">1600</tspan></text>
<path
       id="path110"
       style="fill:#000000;fill-opacity:1;fill-rule:nonzero;stroke:#000000;stroke-width:0.80000001;stroke-linecap:butt;stroke-linejoin:round;stroke-miterlimit:10;stroke-dasharray:none;stroke-opacity:1"
       d="m 57.26,320.69691 h -3.5" /><text
       id="text114"
       style="font-variant:normal;font-weight:normal;font-size:10px;font-family:'DejaVu Sans';-inkscape-font-specification:DejaVuSans;writing-mode:lr-tb;fill:#000000;fill-opacity:1;fill-rule:nonzero;stroke:none"
       transform="matrix(1,0,0,-1,24.8225,316.90003)"><tspan
         id="tspan112"
         y="0"
         x="0 6.3600001 12.72 19.08">1620</tspan></text>
<text
       id="text118"
       style="font-variant:normal;font-weight:normal;font-size:10px;font-family:'DejaVu Sans';-inkscape-font-specification:DejaVuSans;writing-mode:lr-tb;fill:#000000;fill-opacity:1;fill-rule:nonzero;stroke:none"
       transform="matrix(0,1,1,0,18.744375,145.42156)"><tspan
         id="tspan116"
         y="0"
         x="0 6.1100001 12.26 22 28.35 34.5 38.610001 44.740002 48.66 55 59.110001 65.260002 68.440002 72.339996 79.18 86.879997 93.860001">Temperature (ADC)</tspan></text>
<g
       id="g120"><g
         clip-path="url(#clipPath126)"
         id="g122"><path
           id="path128"
           style="fill:none;stroke:#1f77b4;stroke-width:1.5;stroke-linecap:square;stroke-linejoin:round;stroke-miterlimit:10;stroke-dasharray:none;stroke-opacity:1"
           d="m 75.314357,198.76847 0.327414,69.35564 0.1787,-56.61685 0.171109,-18.19828 h 0.163762 l 0.163819,10.11016 0.163794,-20.22031 0.163576,36.39655 0.163698,8.08812 0.163825,-133.454011 0.163766,90.991371 0.15626,4.04406 0.156255,8.08813 0.320089,-28.30843 0.156316,26.28639 0.163888,-14.15421 0.163532,36.39655 0.483856,-30.33046 0.25323,-8.08812 0.163603,-54.59482 0.163805,50.55076 0.163716,10.11015 0.156274,-10.11015 0.320066,22.24234 0.163649,-8.08813 0.163885,68.74904 0.163781,-86.94731 0.163641,16.17624 0.163828,-6.06609 0.156244,-56.61685 0.163611,84.92528 0.163811,-52.57279 0.163795,-2.02203 0.163899,4.04406 0.163515,-72.793103 0.156329,82.903253 0.163748,-26.2864 0.156387,62.68295 0.16373,-20.22031 0.163776,50.55077 0.312528,-72.7931 0.156271,22.24233 0.156231,4.04406 0.156395,-12.13218 h 0.171313 l 0.163664,-86.947312 0.163697,14.154212 0.334945,88.96934 h 0.171129 l 0.156355,2.02203 0.16377,-24.26436 0.156262,93.0134 0.156379,-62.68294 0.163656,-14.15422 0.16376,38.41858 0.171283,-20.2203 0.163698,-42.46264 0.156392,-4.04406 0.163627,18.19827 0.163779,-14.15421 0.16376,4.04406 0.164192,22.24233 0.156071,2.02203 0.163494,-28.30842 0.156416,18.19827 0.163651,-20.2203 0.16368,10.11015 0.163886,-62.68295 0.163734,78.85919 0.16362,-24.26436 0.156255,22.24233 0.163909,-18.19827 0.163702,14.15421 0.163773,-14.15421 0.327466,44.48467 0.156228,-48.52873 0.334922,8.08812 0.15649,-2.02203 0.163694,-20.22031 0.327495,32.35249 0.156205,4.04406 0.171127,-12.13218 0.163802,-2.02203 0.156246,-24.26437 0.327505,36.39655 0.163753,-8.08812 0.163813,22.24234 0.163655,-115.255744 0.156402,82.903254 h 0.163876 l 0.171044,16.17624 0.156301,-48.52873 0.171036,22.24234 0.171272,-20.22031 0.178695,32.35249 0.163644,-20.22031 0.163783,105.14559 0.163776,-72.7931 0.163679,40.44061 0.163758,-48.52873 0.163747,16.17624 0.16381,-40.44061 0.334943,80.88122 0.334813,-40.44061 0.163763,8.08812 0.163663,-20.2203 0.163913,18.19827 h 0.1712 l 0.163912,-12.13218 0.163629,4.04406 0.163706,28.30843 0.163714,-24.26437 0.171396,46.50671 0.171039,-70.77107 0.156316,6.06609 0.163937,-10.11015 h 0.163647 l 0.163852,10.11015 0.163735,-8.08812 0.163695,-2.02203 0.163705,16.17624 0.156155,4.04406 0.320058,-48.52873 0.163723,34.37452 0.163899,2.02203 0.163586,36.39655 0.163878,-20.22031 0.156144,52.5728 0.1563,-90.99138 0.163778,48.52873 0.16381,-46.5067 0.156412,24.26437 0.156226,-10.11015 0.163814,20.2203 0.171069,-42.46264 0.163667,14.15422 0.163787,95.03543 0.312556,-99.0795 0.32771,20.22031 0.1635,-28.30843 0.16379,28.30843 0.16368,-2.02203 h 0.1638 l 0.15638,-2.02203 0.16359,12.13218 0.1564,-10.11015 0.1637,-30.33046 0.16372,10.11015 0.15619,28.30843 0.16394,-10.11015 0.16385,32.35249 0.15623,-107.167621 0.16376,66.727011 0.16364,14.15421 0.15632,-14.15421 0.16384,12.13218 0.16364,72.7931 0.32746,-78.85919 0.16384,16.17624 0.16369,-32.35249 0.16382,-4.04406 0.16375,-58.638883 0.16383,97.057463 0.16362,-36.39655 0.16376,20.22031 h 0.16377 l 0.15625,12.13218 0.16373,52.57279 0.16381,-20.2203 0.16367,-46.5067 0.16388,-6.06609 0.16373,18.19827 0.16368,-18.19827 0.16364,20.2203 0.16386,52.57279 0.16373,-64.70497 0.16372,12.13218 0.1713,-36.39655 0.15627,24.26437 0.16379,-22.24234 0.16355,4.04406 0.16387,16.17625 0.17123,84.92528 0.16367,-93.0134 0.17117,16.17624 0.15629,-32.35249 0.16385,6.06609 0.33503,40.44061 0.17103,-88.96934 0.16369,66.72701 0.16375,8.08812 0.1638,20.2203 0.32005,-30.33045 0.16378,2.02203 0.16374,-20.22031 0.15631,18.19828 0.34977,-60.66092 0.16375,58.63889 0.16376,8.08812 0.16369,30.33046 0.17121,-28.30843 0.16389,20.2203 0.1636,40.44061 0.32757,-175.916651 0.32743,129.409951 0.15626,-26.28639 0.16374,14.15421 0.17121,-36.39655 0.16378,48.52873 0.17113,-30.33045 0.1637,34.37451 0.17123,-16.17624 0.16375,-60.66092 0.17128,64.70498 0.1638,-82.903251 0.17101,-16.176244 0.32765,165.806505 0.33492,-82.90325 0.16359,2.02203 0.15641,4.04406 0.17119,8.08812 0.17132,-22.24234 0.15608,16.17625 0.17147,58.63888 0.17102,-127.38792 0.17112,72.7931 0.16374,-4.04406 0.16375,-30.33046 0.16386,16.17625 0.17107,-12.13219 0.1713,10.11015 0.16379,-8.08812 0.16363,32.35249 0.16367,-30.33046 0.32765,30.33046 0.16365,-18.19827 0.15629,82.90325 0.17122,-95.03544 0.32003,30.33046 0.16384,-28.30843 0.16368,82.90325 0.32742,-127.38792 0.16394,64.70498 0.16372,16.17624 0.16367,-20.2203 0.16364,22.24233 0.15646,-14.15421 0.15627,8.08812 0.32743,-38.41858 0.16378,16.17625 0.31994,74.81512 0.16387,-74.81512 0.16383,-16.17625 0.16356,-2.02203 0.16377,82.90325 0.16375,-44.48467 0.16392,26.2864 0.16358,-34.37452 h 0.1637 l 0.16384,-76.837161 0.1563,133.454011 0.32744,-68.74903 0.15641,-74.815134 h 0.16364 l 0.48388,84.925284 0.16362,2.02203 0.15632,68.74904 0.32002,-137.49808 0.16378,86.94731 0.16382,-14.15421 0.16366,-24.26437 0.15643,4.04407 0.1563,-2.02204 0.16376,40.44061 0.16361,-10.11015 0.16374,26.2864 0.15638,-36.39655 0.16382,22.24233 0.16362,-32.35248 h 0.15629 l 0.16374,10.11015 0.15642,20.2203 0.16356,-38.41857 0.16381,24.26436 0.16372,-16.17624 0.16378,-4.04406 0.17125,34.37451 0.1562,-12.13218 0.16375,8.08812 0.16382,-68.74903 0.15625,58.63888 0.16381,-14.15421 0.16362,22.24233 0.16375,-14.15421 0.16373,-86.947313 0.1638,82.903253 0.16369,6.06609 0.16378,12.13218 0.16378,2.02203 0.16368,-6.06609 0.15632,16.17625 0.17121,6.06609 h 0.17121 l 0.33499,-40.44061 0.16366,18.19827 0.16373,2.02203 0.15626,-6.06609 0.32756,46.5067 0.32011,-38.41858 0.16369,20.22031 0.17127,-12.13219 0.17111,-4.04406 0.33487,16.17625 0.16374,-8.08812 0.1638,2.02203 0.16373,-18.19828 0.16375,40.44061 h 0.16383 l 0.16369,-50.55076 0.17123,20.2203 0.16362,4.04407 0.16372,-14.15422 0.3278,40.44061 0.48359,-84.92528 0.16382,50.55076 0.17106,10.11016 0.17123,-4.04407 0.16371,22.24234 0.16371,-10.11015 0.1638,-30.33046 0.16375,30.33046 0.16371,-62.68295 0.16379,66.72701 0.16372,-10.11015 0.17128,-48.52874 0.16373,42.46264 0.16367,10.11016 0.15631,-84.92528 0.16382,78.85919 0.16369,6.06609 0.17117,-10.11016 0.17126,-58.63888 0.33483,95.03543 0.16372,-26.28639 0.32001,24.26436 0.16382,-10.11015 0.16373,-32.35249 0.17123,-6.06609 0.15634,-40.44061 0.17114,58.63889 0.17118,-46.50671 0.15647,70.77107 0.17105,-32.35249 0.16377,28.30843 0.17118,54.59483 0.1711,-133.45402 0.1638,48.52873 0.17117,-34.37451 0.16377,115.25573 0.17127,-76.83716 0.17106,4.04407 0.1564,10.11015 h 0.33493 l 0.17113,50.55076 0.17123,-10.11015 0.15624,32.35249 0.15619,-113.23371 0.17129,58.63888 0.17121,-32.35249 0.16377,-4.04406 0.15634,36.39655 h 0.1711 l 0.17132,-10.11015 0.17127,10.11015 0.32742,-34.37452 0.17113,97.05747 0.17109,-72.7931 h 0.17125 l 0.15626,-6.06609 0.32752,18.19827 0.33501,-60.66091 0.33485,90.99137 0.16373,-97.05746 0.17117,109.18964 0.16372,-145.58619 0.17124,161.76244 0.16373,-62.68295 0.17131,-2.02203 0.33485,-22.24233 0.33514,24.26436 0.3348,-34.37452 0.17115,97.05747 0.16399,-90.99138 0.17094,103.12356 0.16373,-113.23371 0.16375,12.13219 0.17865,36.39654 0.17117,-30.33045 0.16373,22.24233 0.15635,-12.13218 0.16388,14.15421 0.17113,-24.26436 0.15621,-4.04406 0.17123,-48.52874 0.16376,62.68295 0.16376,4.04406 0.17108,-2.02203 0.17129,-4.04406 h 0.17128 l 0.17104,-6.06609 0.33496,36.39655 0.17117,-38.41858 0.34241,24.26436 0.17858,-2.02203 0.16378,56.61686 0.16372,-52.5728 0.16378,4.04406 0.17121,-8.08812 0.16363,8.08812 0.16376,-22.24233 0.32746,30.33046 0.1711,-26.2864 0.17119,-56.61685 0.32009,60.66091 0.17132,-28.30843 0.3347,44.48468 0.17122,-14.15422 0.1711,18.19828 0.17138,-88.96935 0.17097,66.72701 0.17123,10.11015 0.17124,-6.06609 0.16368,-14.15421 0.16381,22.24233 h 0.17132 l 0.16346,14.15422 0.17137,-40.44061 0.1711,95.03543 0.17123,-74.81513 h 0.17115 l 0.34226,18.19828 0.16384,44.48467 0.16361,-26.2864 0.15637,-46.5067 0.17123,-10.11015 0.17109,60.66091 0.16376,-40.44061 0.18613,12.13219 0.16377,-105.14559 0.17115,78.85919 0.17116,8.08812 0.17117,-68.74904 0.16379,80.88122 0.1712,-10.11015 0.16363,-40.44061 0.16378,64.70498 0.17115,-22.24234 0.16382,18.19828 0.17117,-4.04406 0.17117,6.06609 0.17114,-32.35249 0.17129,34.37452 0.17106,-78.85919 0.16381,56.61685 h 0.16373 l 0.17107,-6.06609 0.17125,16.17624 0.17117,-20.2203 0.1712,2.02203 0.3423,97.05746 0.34248,-95.03543 0.17112,44.48467 0.16375,-36.39655 0.17107,10.11015 0.17133,-8.08812 0.17113,-40.44061 0.16373,117.27777 0.6623,-165.8065 0.16382,115.25574 0.17118,-32.35249 0.17109,62.68295 0.16383,-36.39655 0.17109,-8.08812 0.16382,46.5067 0.16365,-58.63889 0.15631,72.7931 0.17136,-123.34386 0.1636,24.26437 0.17123,99.07949 0.16375,-72.7931 0.17108,80.88122 0.1713,-66.727 0.17114,6.06609 0.16378,40.44061 0.16369,-78.85919 0.17103,44.48467 0.16382,-24.26437 0.16373,-4.04406 0.16377,-80.88122 0.3424,99.0795 0.17121,-30.33046 0.34231,50.55076 0.3349,-86.94731 0.17114,68.74904 0.1711,-18.19828 0.16378,12.13219 0.17108,-68.74904 0.16382,64.70497 0.17125,18.19828 0.1711,-8.08812 0.16379,8.08812 0.16375,-26.2864 0.1711,40.44061 0.17122,-24.26436 0.17121,2.02203 0.17118,-14.15422 0.17112,40.44061 0.16383,-95.03543 0.17117,68.74904 0.16375,8.08812 0.17117,-14.15421 0.16368,24.26436 0.32749,-40.44061 0.16368,14.15422 0.16381,-16.17625 0.16371,30.33046 0.17117,4.04406 0.1712,-24.26437 0.17117,-54.59482 0.17125,80.88122 0.17112,-2.02203 0.16383,12.13218 0.17106,-48.52873 0.17137,6.06609 0.17104,10.11015 0.1713,-16.17624 0.17852,36.39655 0.17134,-76.83716 0.16367,99.0795 0.16363,-14.15422 0.17139,-40.44061 0.17846,40.44061 0.36495,-48.52873 0.17852,20.2203 0.1786,-18.19827 0.1786,48.52873 0.16385,-40.44061 0.16364,40.44061 0.1637,-34.37452 0.17121,18.19828 0.17132,-4.04406 0.17099,-86.94731 0.16377,58.63888 0.16372,8.08812 0.1639,26.2864 0.17106,2.02203 0.17119,-22.24234 0.16377,16.17625 0.1711,-18.19828 0.17124,34.37452 0.17109,-20.2203 0.16388,20.2203 0.17109,50.55077 0.1712,-78.8592 h 0.16371 l 0.17128,88.96935 0.17857,-135.47605 0.32005,52.5728 0.31998,-10.11016 0.16382,-78.85919 0.16377,171.8726 0.17114,-84.92528 0.16372,8.08812 0.17123,-28.30843 0.17108,48.52873 0.16381,-30.33045 0.15629,20.2203 0.17114,46.5067 0.3275,-129.40995 0.16376,80.88122 0.1563,-18.19827 0.15631,60.66091 0.16372,-80.88122 0.17122,18.19827 0.15621,4.04407 0.17125,8.08812 0.16369,16.17624 0.17116,-36.39655 0.17115,6.06609 0.1637,-12.13218 h 0.17126 l 0.34233,84.92528 0.17116,-70.77107 0.17123,-6.06609 0.15631,8.08813 0.16375,-18.19828 0.16373,103.12356 0.17119,-80.88122 0.17111,14.15421 0.17123,-18.19827 h 0.17116 l 0.1563,32.35248 0.15633,-36.39655 h 0.16364 l 0.16395,10.11016 0.1636,-4.04406 0.17119,24.26436 0.16369,-24.26436 0.15642,-6.0661 0.17108,4.04407 0.1637,-2.02204 0.15629,70.77107 0.1712,-70.77107 0.17119,70.77107 0.32751,-70.77107 0.17128,22.24234 0.16373,-26.2864 0.17109,36.39655 0.33498,-42.46264 0.15627,4.04406 0.33487,16.17625 0.32749,-18.19828 0.16376,14.15422 0.17116,-6.0661 0.17117,22.24234 0.17118,-20.2203 0.1712,12.13218 0.16371,58.63888 0.32735,-62.68294 0.17126,-24.26437 0.16381,34.37452 0.16371,-20.22031 h 0.17117 l 0.16379,70.77107 0.16373,-50.55076 0.17107,-4.04406 0.17122,30.33046 0.17111,-28.30843 h 0.17127 l 0.17125,-107.16762 0.17117,78.85919 0.34233,30.33046 0.17122,-14.15421 0.17114,-54.59483 0.17121,82.90325 0.16371,-22.24233 0.15627,32.35249 0.17112,-46.50671 h 0.17128 l 0.16375,2.02203 0.17106,-50.55076 0.17122,8.08812 0.33489,78.85919 0.1638,-54.59482 0.16385,38.41858 0.17108,-54.59482 0.16371,36.39655 0.34236,18.19827 0.17116,-18.19827 0.1712,84.92528 0.17123,-113.23371 0.16368,26.28639 0.17119,-2.02203 0.1712,42.46265 0.17122,-38.41858 0.17113,20.2203 0.17113,-36.39655 0.17135,28.30843 0.16364,-14.15422 0.16377,-50.55076 0.17101,86.94731 0.17127,-22.24233 0.16381,14.15421 0.34225,-24.26436 0.17124,-50.55077 0.17119,101.10153 0.17119,-48.52873 0.16372,-12.13219 0.15636,12.13219 0.16366,80.88122 0.15624,-115.25574 0.1712,40.44061 0.16381,-24.26437 0.17111,2.02203 0.3275,36.39655 0.16381,-4.04406 0.17108,70.77107 0.17115,-90.99137 0.16374,20.2203 0.16368,-64.70498 0.3424,62.68295 0.17126,-4.04406 0.17117,-2.02203 0.16373,26.2864 0.16368,-38.41858 0.1638,-2.02204 0.15627,2.02204 0.16372,36.39654 0.31996,-44.48467 0.16379,34.37452 0.16377,-6.06609 0.17117,-38.41858 0.17121,72.7931 0.1637,-70.77107 0.16385,38.41858 0.17854,-12.13218 0.17118,4.04406 0.16376,68.74904 0.16372,-62.68295 0.17865,-14.15421 0.18619,2.02203 0.20097,-16.17625 0.18594,-50.55076 0.17138,50.55076 0.17107,-8.08812 0.16377,-48.52873 0.17119,70.77107 0.17134,-26.2864 0.17095,60.66092 0.15641,-46.50671 0.17114,-8.08812 0.17127,30.33046 0.17109,-20.22031 0.16376,10.11016 0.17112,-32.35249 0.17115,64.70498 0.17125,-14.15422 0.17115,12.13218 0.17121,-22.24233 0.16371,-66.72701 0.17129,78.85919 0.32745,-42.46264 0.16366,20.22031 0.16371,-2.02203 0.16369,-52.5728 0.17122,58.63889 0.16381,12.13218 0.16359,-6.06609 0.16375,48.52873 0.18609,2.02203 0.1787,-80.88122 0.18595,105.14559 0.19378,-135.47605 0.18591,34.37452 0.17866,109.18965 0.17127,-66.72701 0.34231,-36.39655 0.17114,14.15422 0.17116,-50.55077 0.1712,74.81513 0.17109,-36.39655 0.34989,80.88123 0.17113,-70.77107 0.16369,14.15421 0.1713,2.02203 0.1712,-34.37452 0.1711,32.35249 0.16378,-68.74904 0.17109,70.77107 0.17125,-48.52873 0.17114,113.23371 0.17121,-78.85919 0.33499,-10.11016 0.17113,30.33046 0.17131,-99.07949 0.17117,72.7931 0.16372,18.19827 0.16365,2.02203 0.1637,-70.77107 0.17118,36.39655 0.17117,-2.02203 0.17122,66.72701 0.17111,-30.33046 0.17119,-8.08812 0.17118,24.26437 0.17119,-88.96935 0.17127,143.56417 h 0.16369 l 0.17116,-78.85919 0.17113,68.74904 0.1638,-66.72701 0.1711,68.74904 0.17118,-76.83716 0.16384,-2.02203 0.17119,-22.24234 0.17856,42.46264 0.17878,-18.19827 0.16377,6.06609 0.17111,-4.04406 0.16387,12.13218 0.17102,-80.88122 0.16373,64.70498 0.17126,12.13218 0.32736,-62.68295 0.17131,48.52874 0.17112,-14.15422 0.17119,22.24234 0.17121,6.06609 0.16368,-6.06609 0.17117,12.13218 h 0.1712 l 0.34237,14.15422 0.17109,-48.52874 0.17131,105.14559 0.17115,-99.0795 0.17114,16.17625 0.17128,2.02203 0.17134,22.24233 0.16362,-26.28639 0.3349,42.46264 0.17123,-42.46264 0.17104,-4.04406 0.33494,32.35249 0.17119,40.44061 0.1712,-62.68295 0.1637,-4.04406 0.32753,-18.19828 0.16379,8.08813 0.17098,26.28639 0.1638,-2.02203 0.17119,-38.41858 0.16371,62.68295 0.17117,-20.22031 0.17115,4.04406 0.17116,-20.2203 0.17126,12.13218 0.16362,-4.04406 0.16372,-14.15421 0.34244,-6.06609 0.17118,-16.17625 0.17112,28.30843 0.17118,80.88122 0.16372,-145.5862 0.1713,74.81513 0.16363,-14.15421 0.17126,8.08812 0.17115,-107.16762 0.17116,113.23371 0.16372,-6.06609 0.1712,20.22031 0.17124,34.37451 0.17113,-68.74903 0.17118,6.06609 0.16384,-8.08812 0.33482,28.30842 0.1711,-24.26436 h 0.17122 l 0.17115,32.35249 0.17134,-4.04407 0.17108,60.66092 0.16366,-105.14559 0.17109,22.24234 0.17124,-50.55076 0.335,82.90325 0.17124,-14.15422 0.16375,-24.26436 0.17115,2.02203 0.17116,-10.11016 0.34258,-74.81512 0.17111,30.33045 0.32748,127.38793 0.34975,-159.74041 0.18598,103.12355 h 0.17128 l 0.16359,-70.77107 0.34241,101.10153 0.17111,-99.0795 0.17121,50.55077 0.16374,-86.94731 0.17119,82.90325 0.17109,14.15421 0.17108,-2.02203 0.33507,-26.2864 0.16379,38.41858 0.17123,-6.06609 0.17113,-54.59482 0.17123,38.41858 0.17116,6.06609 0.34235,-6.06609 0.17115,-24.26437 0.1712,24.26437 0.1712,8.08812 0.17125,-12.13218 0.16378,-84.92529 0.16366,32.35249 0.17114,72.7931 0.17118,-10.11015 0.33489,32.35249 0.17131,-2.02203 0.17109,-80.88123 0.17121,46.50671 0.17111,-10.11016 0.17128,95.03544 0.17111,-84.92528 h 0.17129 l 0.17113,-34.37452 0.16377,44.48467 0.17119,10.11015 0.51358,-38.41858 0.18605,82.90325 0.17112,8.08813 0.16384,-74.81513 0.16373,8.08812 0.17117,-18.19828 0.17118,28.30843 0.17126,-52.57279 0.17113,20.2203 0.16369,38.41858 0.17124,-10.11015 0.17122,-28.30843 0.34972,26.2864 0.17119,-28.30843 0.34233,40.44061 0.1639,50.55077 0.17105,-88.96935 0.17127,36.39655 0.3349,-32.35249 0.16388,32.35249 0.17847,6.06609 h 0.17125 l 0.17111,-6.06609 0.17122,18.19828 0.1712,4.04406 0.17862,-58.63889 0.17118,50.55077 0.17112,-44.48468 0.16378,50.55077 0.17117,-42.46264 0.16377,-4.04406 h 0.17116 l 0.17119,-6.0661 0.17872,-2.02203 0.16372,32.35249 0.16366,-24.26436 0.17875,-8.08813 0.33485,28.30843 0.16373,-24.26437 0.16375,38.41858 0.16379,-26.28639 0.1712,-2.02203 0.16362,-6.06609 0.33494,20.2203 0.17115,-12.13218 0.17117,10.11015 0.17859,-76.83716 0.17127,76.83716 0.17109,18.19827 0.18606,-40.44061 0.1862,4.04407 0.17866,16.17624 0.18613,-6.06609 0.17854,-10.11015 0.18611,-4.04407 0.18589,20.22031 0.16381,-14.15421 0.17863,30.33045 0.16374,-38.41858 0.16371,78.85919 0.16376,-42.46264 0.17128,-10.11015 h 0.17856 l 0.17881,20.22031 0.16354,-34.37452 0.17116,70.77107 0.1638,18.19827 0.16365,-64.70498 0.32753,6.06609 0.1639,60.66092 0.17108,-78.85919 0.17858,18.19827 0.17115,-36.39654 0.16381,24.26436 0.1712,4.04406 0.1637,-10.11015 0.17113,-2.02203 0.1638,-12.13218 0.17126,30.33045 0.17856,-18.19827 0.1638,30.33046 0.1637,-46.5067 0.17853,4.04406 0.17866,8.08812 0.16371,-10.11015 0.17866,10.11015 0.17116,24.26436 h 0.17861 l 0.17118,-34.37451 0.17118,18.19827 0.17866,-10.11015 0.17117,6.06609 0.16376,-74.81513 0.17119,26.2864 0.17878,-14.15422 0.16357,70.77107 0.17117,-16.17624 0.16375,12.13218 h 0.16378 l 0.17118,-6.06609 0.17116,26.2864 0.17874,-34.37452 0.17849,12.13218 0.51355,-62.68295 0.1787,64.70498 0.17856,6.06609 0.17113,-14.15421 0.17123,78.85919 0.50606,-105.14559 0.17854,4.04406 0.17866,10.11016 h 0.17871 l 0.17866,-76.83716 0.17117,95.03543 0.34223,-30.33046 0.17874,-64.70497 0.16366,84.92528 0.17869,-10.11016 0.16361,38.41858 0.17133,-18.19827 0.17849,10.11015 0.16378,-22.24233 0.17874,78.85919 0.17856,-80.88122 0.16373,12.13218 0.17871,-72.7931 0.17857,70.77107 0.17849,-22.24234 0.17118,12.13219 0.17122,-6.0661 0.17873,14.15422 0.17874,2.02203 0.16347,64.70498 0.17878,16.17624 0.17849,-161.76244 0.17113,137.49807 0.3424,-107.16761 0.17116,58.63888 0.17113,-4.04406 0.17868,28.30843 0.17112,-62.68295 0.35003,44.48467 0.17104,-10.11015 0.34989,-93.0134 0.17859,84.92528 0.17121,-18.19828 0.17852,10.11016 0.18003,93.0134 0.37077,-121.32183 0.18606,30.33046 0.19358,-6.0661 0.1712,93.01341 0.36477,-125.36589 0.201,-20.22031 0.17861,68.74904 0.17117,4.04406 0.17125,-18.19827 0.19338,24.26436 h 0.17867 l 0.17127,8.08812 0.17855,16.17625 0.1787,-42.46264 0.17124,76.83716 0.17856,-86.94732 0.17113,-8.08812 0.17114,78.85919 0.17873,-115.25574 0.17119,68.74904 0.1711,-26.2864 0.17874,16.17625 0.17094,4.04406 0.17121,44.48467 0.17867,-123.34386 0.34981,76.83716 0.17864,-16.17625 0.17863,10.11016 0.17126,-6.06609 0.17875,-66.72701 0.1785,86.94731 0.17875,-10.11015 0.17101,6.06609 0.16376,-26.2864 0.35731,14.15422 0.17875,22.24233 0.17854,-18.19827 0.17106,24.26436 0.17883,-14.15421 0.17108,10.11015 0.17856,-10.11015 0.17114,-2.02203 0.34237,-20.22031 0.16369,14.15422 h 0.17863 l 0.17115,-6.06609 0.17125,2.02203 0.1787,6.06609 0.1785,-10.11015 0.17874,-60.66092 0.17107,50.55076 0.17866,-2.02203 0.17854,30.33046 0.16382,6.06609 0.17858,-38.41858 0.16374,82.90325 0.17875,-90.99137 0.17104,22.24234 0.17118,-8.08813 0.17878,30.33046 0.1859,4.04406 0.17125,26.2864 0.17859,-52.57279 0.17878,14.15421 0.17853,-6.06609 0.17852,4.04406 0.17128,-46.5067 0.17857,50.55076 0.17882,-28.30843 0.35721,56.61686 0.35718,-50.55077 0.17858,-6.06609 0.17879,99.0795 0.17114,-101.10153 0.17102,36.39655 0.17113,-8.08812 0.17867,18.19827 0.17124,-36.39655 0.16381,2.02204 0.16361,18.19827 0.17121,-12.13218 0.3274,54.59482 0.16375,-72.7931 0.5062,44.48467 0.17106,-8.08812 0.17124,-16.17624 0.16369,8.08812 0.17118,-4.04406 0.16395,-8.08812 0.17101,24.26436 0.16377,-24.26436 0.16376,8.08812 0.16382,-12.13218 0.17114,8.08812 0.17108,-6.06609 0.17125,28.30842 0.17123,-20.2203 0.17111,20.2203 0.17121,-20.2203 0.17118,6.06609 0.16376,-10.11015 0.17119,24.26436 0.17122,-2.02203 0.16367,-6.06609 0.17126,6.06609 0.17109,-86.94731 0.1712,60.66092 0.17861,-48.52874 0.17114,86.94732 0.17127,-38.41858 0.17858,-2.02203 0.18609,10.11015 0.17129,-52.5728 0.34237,64.70498 0.17113,-26.2864 0.16387,6.0661 0.17101,-8.08813 0.17122,30.33046 0.17117,-4.04406 0.17116,-16.17624 0.33497,90.99137 0.17125,-86.94731 0.16359,14.15421 0.16388,-34.37452 0.33484,32.35249 0.16369,70.77107 0.16369,-84.92528 0.16378,22.24233 0.17124,-8.08812 0.16377,-2.02203 0.34984,12.13218 0.16371,-16.17624 0.17118,52.57279 0.34977,-131.43198 0.34229,159.74041 0.33503,-153.67432 0.17126,82.90325 0.17109,10.11015 0.17118,58.63889 0.1637,-93.0134 0.17134,44.48467 0.17103,-34.37452 0.16374,-6.06609 0.17124,-32.35249 0.17137,48.52873 0.17089,-24.26437 0.17126,22.24234 0.17119,6.06609 0.16367,22.24234 0.32752,-74.81513 0.33504,44.48467 0.1711,-68.74904 0.16374,80.88122 0.34235,-20.2203 0.17119,-2.02203 0.17868,82.90325 0.17123,-68.74904 0.17116,-14.15421 0.17111,-4.04406 0.1712,12.13218 0.16372,76.83716 0.16371,-131.43199 0.16396,40.44062 0.17106,4.04406 h 0.51354 l 0.17115,8.08812 0.17133,-34.37452 0.17114,50.55076 0.1711,-2.02203 0.33484,-12.13218 h 0.17125 l 0.17131,22.24233 0.17129,44.48468 0.17842,-88.96935 0.3274,44.48467 0.1712,-42.46264 0.17124,34.37452 0.17121,-12.13218 0.34975,12.13218 0.17868,-28.30842 0.17124,18.19827 0.33492,-38.41858 0.17117,48.52873 0.16368,-16.17624 0.1637,6.06609 0.17128,-10.11015 0.17108,2.02203 0.17123,-4.04406 0.17119,-16.17625 0.17111,18.19828 0.17121,-4.04406 0.1712,-38.41858 0.17117,38.41858 0.17114,-88.96935 0.16394,149.63026 0.1711,-68.74904 0.16368,40.44061 0.17858,-16.17624 0.17122,-26.2864 0.17883,24.26437 0.17093,-8.08812 0.17875,-18.19828 0.50609,48.52874 h 0.17106 l 0.16382,-38.41858 0.17123,-4.04407 0.16373,10.11016 0.1786,-20.22031 0.35723,36.39655 0.1712,54.59483 0.1637,-137.49808 0.17122,62.68295 0.17862,4.04406 0.17122,12.13218 0.16368,-74.81513 0.17117,26.2864 0.17114,56.61685 0.17866,-70.77107 0.17118,52.5728 0.17864,8.08812 0.16371,-8.08812 0.1786,-18.19828 0.17855,14.15422 h 0.1712 l 0.17121,8.08812 0.35719,50.55076 0.3424,-115.25574 0.17874,40.44061 0.17857,93.01341 0.33479,-135.47605 0.1713,60.66092 0.17857,16.17624 0.17119,-8.08812 0.17862,-90.99137 0.16377,88.96934 0.1786,8.08812 0.16378,-36.39655 0.17865,60.66092 0.36474,-54.59483 0.17864,34.37452 0.16356,-28.30843 0.17126,20.22031 0.1786,-18.19827 0.16377,-34.37452 0.17863,50.55076 0.16365,-10.11015 0.32757,36.39655 0.16371,-34.37452 0.16373,-2.02203 0.1713,-14.15422 0.32743,93.01341 0.17861,4.04406 0.17122,-99.0795 0.1711,-34.37452 0.17877,88.96935 0.16371,-24.26437 0.17115,32.35249 0.17124,-38.41858 0.16367,-8.08812 0.17889,-86.94731 0.19329,82.90325 0.34978,6.06609 0.16377,14.15421 0.16378,-18.19827 0.34985,12.13218 0.17854,-101.10153 0.16385,86.94732 h 0.17114 l 0.18602,-8.08813 0.17123,8.08813 0.17109,24.26436 0.17874,-28.30843 0.17857,-4.04406 0.17874,12.13219 0.1711,2.02203 0.17118,-2.02203 0.16377,18.19827 0.1785,-6.06609 0.17872,18.19827 0.1786,-18.19827 0.1637,8.08812 0.17878,-66.72701 0.16352,62.68295 0.16383,-36.39655 0.17874,52.5728 0.17845,-125.3659 0.17869,12.13219 0.17127,64.70497 0.17847,12.13219 0.17863,-20.22031 0.16384,107.16762 0.17863,-167.82853 0.17864,93.0134 0.17853,-10.11015 0.1786,22.24233 0.16378,-109.18965 0.1637,115.25574 0.16378,-24.26436 0.16375,24.26436 0.17851,-20.2203 0.34989,-10.11015 0.17119,86.94731 0.16382,-74.81513 0.19353,8.08812 0.34229,-68.74904 0.35728,70.77107 0.18613,-6.06609 0.19356,-18.19827 0.37222,32.35248 0.17854,-42.46264 0.18611,26.2864 0.17867,-64.70498 0.17858,64.70498 0.16378,14.15421 0.18607,-10.11015 0.17868,-20.2203 0.17119,16.17624 0.1786,-10.11015 0.16376,12.13218 0.16368,2.02203 0.17116,62.68295 0.17871,-123.34387 0.3424,54.59483 0.1786,-22.24234 0.16372,30.33046 0.16378,-26.2864 0.17114,44.48468 0.17121,-32.35249 0.1786,-8.08812 0.17878,38.41858 0.17114,-48.52874 0.17861,24.26437 0.17114,-2.02203 0.17851,-8.08812 0.17862,6.06609 h 0.16382 l 0.17877,-95.03544 0.16361,105.14559 0.17852,-8.08812 0.17125,6.06609 0.17865,-99.07949 0.17117,93.0134 0.17116,20.2203 0.16377,-32.35248 0.34972,18.19827 0.17877,-16.17624 0.1637,36.39655 0.17885,-40.44062 0.17848,28.30843 0.3422,-20.2203 0.17879,42.46264 0.1785,-44.48467 0.16376,10.11015 0.17133,-60.66092 0.17849,58.63889 0.16372,12.13218 0.35002,-20.2203 0.17855,-6.0661 0.17115,12.13219 0.17854,-6.06609 0.17868,20.2203 0.17858,-22.24233 0.16382,10.11015 0.17859,24.26436 0.3423,-46.5067 0.16381,20.22031 0.34982,-20.22031 0.16373,-22.24233 0.16368,34.37452 0.16376,8.08812 h 0.17112 l 0.17129,-56.61686 0.17872,72.7931 0.17859,-14.15421 0.16366,20.2203 0.17865,-20.2203 0.17854,8.08812 0.1713,-113.23371 0.17117,137.49808 0.16379,-26.2864 0.17871,-64.70498 0.35713,84.92529 0.16372,-32.35249 0.3498,-10.11016 0.17125,24.26437 0.17857,-36.39655 0.1787,4.04406 0.17107,-40.44061 0.17888,68.74904 0.17855,8.08812 0.17844,-8.08812 0.17881,-26.2864 0.17846,14.15422 0.34991,66.727 0.18606,-56.61685 0.17868,8.08812 0.521,-20.2203 0.35743,90.99137 0.17868,-151.65229 0.16358,70.77107 0.17124,-4.04406 0.1637,4.04406 0.17862,-62.68295 0.17877,74.81513 0.17106,-103.12355 0.16376,115.25573 0.1786,-82.90325 0.17862,82.90325 0.1788,-26.28639 0.17107,-4.04406 0.17868,12.13218 0.16368,-14.15421 0.17137,-2.02203 0.17847,4.04406 0.17857,20.2203 0.17118,-32.35249 0.34985,22.24234 0.1786,2.02203 0.1712,-20.22031 0.17117,20.22031 0.34234,-14.15421 0.17121,38.41858 0.17863,-18.19828 0.1787,2.02203 0.16364,-34.37452 0.33492,30.33046 0.17114,-30.33046 0.16389,12.13219 0.1785,28.30842 0.17125,-12.13218 0.16366,10.11015 0.34238,-28.30842 0.17118,10.11015 0.17124,-20.22031 0.51349,44.48467 0.17119,-2.02203 0.17863,-4.04406 0.17862,-68.74903 0.17874,52.57279 0.17851,4.04406 0.17862,-8.08812 0.17113,82.90325 0.17125,-72.7931 0.17874,68.74904 0.35711,-93.01341 0.17876,22.24234 0.17101,-4.04406 0.17128,14.15421 0.1711,-48.52873 0.17869,111.21168 0.17116,-58.63889 0.17862,2.02203 0.17858,-16.17624 0.17874,12.13218 0.17877,-2.02203 0.17843,-22.24233 0.17119,-2.02203 0.17117,26.28639 0.17122,-16.17624 0.17114,22.24233 0.1788,-14.15421 0.17847,-72.7931 0.17884,68.74904 0.17857,-22.24234 0.1785,26.2864 0.17873,8.08812 0.1786,-44.48467 0.17858,34.37452 0.17125,-64.70498 0.17113,54.59483 0.17863,-8.08812 0.17853,16.17624 0.17875,-14.15421 0.17857,28.30842 0.17869,54.59483 0.17842,-159.74041 0.34249,161.76244 0.17118,-62.68295 0.17857,-10.11015 0.17884,-22.24234 0.17858,44.48468 0.17102,-50.55077 0.17127,34.37452 0.17862,-66.72701 0.17118,74.81513 0.20089,10.11016 0.17129,-16.17625 0.17863,12.13218 0.1786,-34.37451 0.17106,8.08812 0.17874,38.41858 0.34987,-99.0795 0.3497,80.88122 0.17863,-60.66091 0.17864,50.55076 0.17115,-14.15421 0.16378,14.15421 0.17119,4.04406 0.34237,-28.30843 0.35728,28.30843 0.1711,-50.55076 0.17134,60.66091 0.171,-78.85919 0.17878,62.68295 0.17864,-20.22031 0.17854,70.77107 0.17864,-117.27777 0.17116,68.74904 0.17118,-36.39655 0.17865,24.26437 0.17125,-16.17625 0.17108,90.99138 0.1787,-70.77107 0.36473,8.08812 h 0.17859 l 0.17857,70.77107 0.17859,-74.81513 0.17115,-22.24234 0.17124,-4.04406 0.17859,20.22031 0.17861,-18.19828 0.17119,28.30843 0.52848,-10.11015 0.17858,18.19827 0.17138,-8.08812 0.17103,-24.26437 0.17861,2.02203 0.34994,78.8592 0.17851,-38.41858 0.17862,-14.15422 0.1787,-34.37452 0.35729,26.2864 0.17875,74.81513 0.17849,-70.77107 0.18604,-18.19827 0.17857,2.02203 0.17129,14.15421 0.1786,-8.08812 0.17879,24.26436 0.17112,-30.33045 0.17119,36.39655 0.1711,-34.37452 0.17114,2.02203 0.17123,-70.77107 0.17116,70.77107 0.17882,-14.15422 0.17091,26.2864 0.17126,-14.15421 0.17862,60.66091 0.34991,-68.74904 0.17124,8.08813 0.17122,14.15421 0.17103,-8.08812 0.17115,64.70498 0.1787,-86.94732 0.1861,32.35249 0.34993,-26.2864 0.17099,18.19828 0.35732,-20.22031 0.17866,-70.77106 0.17855,107.16761 0.1786,-44.48467 0.17124,103.12356 0.17123,-74.81513 0.34242,30.33046 0.17861,-44.48467 0.17842,18.19827 0.17128,6.06609 0.17862,-6.06609 0.17858,-62.68295 0.1713,60.66092 0.17857,18.19827 0.17859,52.5728 0.18616,-48.52873 0.17119,56.61685 0.17117,-103.12356 0.17118,-2.02203 0.186,-20.2203 0.17114,-44.48467 0.17133,103.12355 0.17854,6.06609 0.17858,-18.19827 0.17143,46.5067 0.17841,-56.61685 0.1712,24.26436 0.17874,-42.46264 0.1712,42.46264 0.17853,-46.5067 0.17877,74.81513 0.17848,-38.41858 0.1786,-4.04406 0.17117,10.11015 0.17873,-16.17624 0.17107,14.15421 0.17865,4.04406 0.34983,-40.44061 0.17118,12.13219 0.17851,-4.04407 0.17878,-46.5067 0.17105,93.01341 0.17128,-32.35249 0.1712,2.02203 0.17119,-70.77107 0.1711,88.96934 0.35728,-30.33045 0.17859,-72.7931 0.17124,99.07949 0.17863,10.11015 0.18605,-24.26436 0.17868,28.30843 0.17123,-42.46265 0.17853,46.50671 0.17865,-52.5728 0.17866,82.90325 0.34985,-70.77106 0.17847,4.04406 0.17864,-14.15422 h 0.17865 l 0.1711,28.30843 0.17133,-42.46264 0.34983,66.72701 0.35717,-58.63889 0.17863,28.30843 0.17859,-12.13218 h 0.17868 l 0.1787,-16.17625 0.17118,-74.81513 0.1711,90.99138 0.17122,18.19827 0.1786,-34.37452 0.17863,-62.68294 0.17861,70.77106 0.17865,-6.06609 0.17858,28.30843 0.17119,-6.06609 0.17862,12.13218 0.17873,-18.19827 0.17857,18.19827 0.17862,-70.77107 0.17115,56.61686 0.17861,-4.04406 h 0.1787 l 0.17122,-6.06609 0.17115,2.02203 0.1712,-16.17625 0.17862,24.26437 0.17862,-2.02203 0.17857,8.08812 0.17867,-10.11015 0.17866,12.13218 0.17119,-64.70498 0.1713,44.48467 0.17102,-4.04406 0.17881,26.2864 0.17845,-2.02203 0.17863,-107.16762 0.17858,159.74041 0.17866,-129.40995 0.18601,84.92528 0.17113,-36.39655 0.19369,10.11016 0.18606,2.02203 0.17858,14.15421 0.1938,-18.19828 0.20063,56.61686 0.20103,-32.35249 0.201,-70.77107 0.20099,40.44061 0.19366,-74.81513 0.19348,42.46264 0.17113,113.23371 0.17871,-82.90325 0.35726,28.30843 0.17861,4.04406 0.17112,-20.2203 0.17869,2.02203 0.17124,-60.66092 0.17105,50.55076 0.17865,18.19828 0.1786,4.04406 h 0.17864 l 0.17119,-46.5067 0.1712,84.92528 0.17868,-115.25574 0.17856,70.77107 0.17129,-14.15422 0.1712,28.30843 0.17115,4.04406 0.17856,-32.35249 0.17868,24.26437 0.18613,-62.68295 0.17855,127.38793 0.17122,-82.90325 0.52836,22.24233 0.17864,-30.33046 0.17125,4.04406 0.17863,-68.74903 0.34968,111.21168 0.17876,-38.41858 0.17852,18.19827 0.17854,4.04406 0.17884,-97.05746 0.17855,70.77106 0.3573,-10.11015 0.17849,24.26437 h 0.17869 l 0.17123,2.02203 0.17869,40.44061 0.17872,-46.5067 0.17854,56.61685 0.35727,-50.55076 0.17111,-8.08812 0.17122,14.15421 0.1786,-72.7931 0.17868,70.77107 0.17113,12.13218 0.17114,-32.35249 0.17116,2.02204 0.17142,10.11015 0.17105,46.5067 0.17868,-38.41858 0.17119,2.02203 0.35734,-18.19827 0.17121,18.19827 0.17111,2.02203 0.17108,-2.02203 0.17881,48.52873 0.17112,-42.46264 0.17109,-2.02203 0.17111,2.02203 0.1788,50.55077 0.17123,-54.59483 0.17854,-8.08812 0.1786,4.04406 0.18607,-6.06609 h 0.17855 l 0.17865,-24.26437 0.17868,26.2864 0.17859,46.5067 0.34239,-151.65229 0.17131,163.78447 0.18595,-121.32183 0.17122,52.5728 0.17117,-68.74904 0.17112,16.17624 0.18626,62.68295 0.1785,-26.2864 0.1786,30.33046 0.17862,-2.02203 0.18611,68.74904 0.17858,-82.90325 0.17864,12.13218 h 0.17134 l 0.17105,2.02203 0.17118,-14.15421 0.1861,-46.50671 0.17861,99.0795 0.17123,-68.74904 0.17862,10.11015 0.17113,26.2864 0.17858,-24.26437 0.17879,-2.02203 0.17107,30.33046 0.17124,-8.08812 h 0.17115 l 0.17864,-10.11015 h 0.17864 l 0.17105,-6.06609 0.1788,-18.19828 0.17854,-34.37452 0.35726,70.77107 0.1786,-36.39655 0.1786,36.39655 0.17868,12.13218 0.17109,-24.26436 0.18616,-2.02203 0.17868,-80.88122 0.17853,16.17624 0.18617,56.61685 0.19342,22.24234 0.19359,-95.03543 0.17122,74.81513 0.35729,20.2203 0.1861,-14.15421 0.1786,6.06609 0.17121,-28.30843 0.17861,54.59483 0.18613,-20.22031 0.1711,6.06609 0.34992,-22.24233 0.1785,-32.35249 0.17862,52.57279 0.17869,-109.18965 0.17869,101.10153 0.17861,-14.15421 0.17108,30.33045 0.17115,-97.05746 0.1787,56.61685 0.18605,22.24234 0.17864,74.81513 0.17856,-88.96935 0.17873,10.11016 0.17859,-4.04406 0.17122,-16.17625 0.18602,90.99138 0.17864,-72.7931 h 0.17873 l 0.186,16.17624 0.17866,-6.06609 0.17122,2.02203 0.17855,-12.13218 0.17115,2.02203 0.17866,-80.88122 0.3648,121.32183 0.17856,-50.55077 0.1786,-14.15421 0.36477,36.39655 0.17113,-80.88122 0.17861,66.72701 0.18602,-78.85919 0.17875,90.99137 0.18605,-6.06609 0.17858,-32.35249 0.17871,36.39655 0.18603,-8.08812 0.17854,8.08812 0.17862,-8.08812 0.17863,66.727 0.18608,-74.81512 0.1786,34.37451 0.18617,-20.2203 0.18594,70.77107 0.18616,-64.70498 0.34978,-14.15421 h 0.18613 l 0.17113,26.28639 0.17865,-48.52873 0.18602,16.17625 0.1863,-8.08813 0.17841,-70.77106 0.18616,113.2337 0.35711,-52.57279 0.36481,113.23371 0.17862,-56.61685 0.1786,-117.27777 0.17869,111.21167 0.18612,-10.11015 0.17855,-2.02203 0.1713,-103.12356 0.17849,82.90326 0.1786,14.15421 0.18613,-30.33046 0.1861,88.96934 0.18627,-56.61685 0.17842,18.19827 0.17861,32.35249 0.18618,-68.74904 0.18598,-2.02203 v 0" /></g></g><g
       id="g130"><g
         clip-path="url(#clipPath136)"
         id="g132"><path
           id="path138"
           style="fill:none;stroke:#ff7f0e;stroke-width:1.5;stroke-linecap:square;stroke-linejoin:round;stroke-miterlimit:10;stroke-dasharray:none;stroke-opacity:1"
           d="m 91.644295,176.16924 0.171044,-0.1284 0.327337,-0.96046 0.349967,-0.14154 0.163644,-0.52573 0.163783,-0.091 0.327455,-0.40441 0.163758,0.38419 0.327557,-0.23254 0.334943,-0.34374 0.171167,-0.18198 0.163646,-0.46507 0.163763,-0.1011 0.163663,-0.24265 0.499025,-0.1011 0.327335,0.33364 0.163714,-0.5965 0.171396,-0.2022 0.171039,0.0506 0.4839,-0.54595 0.163852,-0.36397 0.32743,-0.0708 0.31986,-0.1011 0.320058,-0.47518 0.163723,-0.38418 h 0.163899 l 0.163586,0.78859 0.320022,0.21231 0.6403,-0.77848 0.156226,0.0303 0.163814,0.21231 0.171069,-0.44484 0.327454,-0.0607 0.312556,0.49539 0.16371,-0.0404 1.13874,-1.3952 0.1564,0.0809 0.1637,-0.29319 0.48385,-0.0607 0.16385,0.34374 0.15623,0.0101 0.16376,-0.42462 0.16364,-0.11121 0.15632,0.11121 0.16384,-0.0809 0.65494,0.39429 0.32751,-0.23253 0.32758,0.48529 0.16362,-0.0404 0.32753,-0.56616 0.15625,0.3033 0.65509,0.35386 0.16373,-0.38419 0.16368,0.23253 0.3275,-0.0505 0.49875,-1.01101 0.48361,-0.26287 0.16387,0.7886 0.17123,-0.0202 0.16367,-0.31342 0.17117,0.0404 0.15629,0.21231 0.16385,-0.0202 0.17103,0.10111 0.164,-0.0708 0.17103,0.23254 0.16369,-0.34375 0.16375,0.15166 0.1638,-0.23254 0.15621,0.12132 0.16384,-0.12132 0.16378,0.0809 0.32005,-0.29319 0.34977,-0.26287 0.32751,-0.24264 0.49879,-0.0202 0.32737,-0.4954 0.49123,-0.32352 0.15626,-0.42463 0.49873,0.1921 0.84109,0.70771 0.1638,0.27297 0.66232,-0.0708 0.17126,-0.19209 0.16359,0.39429 0.15641,0.0101 0.49859,0.52573 0.17147,0.0404 0.34214,0.55606 0.16374,-0.25275 0.32761,0.3033 0.50616,0.72793 0.65495,0.48529 0.49116,0.51562 0.32003,0.0101 0.16384,0.16176 0.16368,-0.0202 0.32742,0.86947 0.16394,0.0202 0.16372,0.24264 0.32731,-0.29319 0.15646,0.0607 0.15627,-0.0607 0.16363,0.0708 0.1638,0.28309 0.16378,-0.12133 0.15636,0.56617 0.81861,0.57628 0.16375,-0.13143 0.16392,0.0404 0.32728,0.62683 0.32014,0.16176 0.48385,-0.42462 0.49121,0.72793 0.15631,0.64705 0.16362,-0.0404 0.15632,0.12132 0.16375,-0.47518 0.15627,0.56617 0.16378,0.1011 0.48391,0.76837 0.1563,0.1011 0.32737,1.21322 0.16374,0.53584 0.15638,-0.13143 0.32744,0.42462 0.15629,0.12133 0.81125,1.98159 0.16378,0.11121 0.32745,0.66727 0.16375,0.12132 0.16382,-0.11121 0.15625,0.41451 0.32743,1.14245 0.16375,-0.091 0.655,1.28399 0.16378,-0.15165 0.49121,1.28399 0.17121,0.16176 0.49865,1.50641 0.16373,-0.21231 0.15626,-0.0202 0.16377,0.62683 0.16379,0.16176 0.16365,0.65716 0.15646,0.0505 0.33496,0.54595 0.17111,-0.12132 0.16371,0.62683 0.3349,0.49539 0.32753,0.54595 0.16375,0.0404 0.82609,1.3952 0.15639,0.14155 0.17141,0.33363 h 0.16353 l 0.98988,1.76928 0.32751,0.93013 0.82625,1.20311 0.16373,-0.0303 0.31998,0.52573 0.32751,-0.1921 0.51353,1.27388 0.16373,-0.36396 0.64755,0.73804 0.16373,0.67738 0.17123,0.0101 0.32748,0.4954 0.32765,1.76927 0.6771,1.84005 0.1638,0.1011 0.17117,0.26287 0.33504,0.87958 0.17106,0.24264 0.1564,0.42463 0.1711,-0.12132 0.33496,0.4044 0.17123,-0.17187 0.48372,0.25276 0.49132,1.03123 0.1711,0.21231 0.49863,0.9908 0.34251,0.17187 0.34234,0.33364 0.15626,0.55606 0.32752,0.4044 0.16366,0.34375 0.5062,1.70861 0.3349,0.60661 0.33496,0.43474 0.16373,-0.0708 0.34254,0.75826 0.16362,0.14154 0.17118,-0.091 0.16396,-0.23253 0.50595,0.95035 0.33493,0.30331 0.16373,0.48528 0.16375,0.091 0.17865,0.51562 0.3349,-0.0809 0.15635,0.45496 0.16388,0.13143 0.32734,0.80881 0.17123,0.11121 0.4986,0.77848 0.34257,0.35386 0.34234,-0.35386 0.50605,0.95036 0.34977,0.50551 0.16378,-0.1011 0.49871,0.52572 0.16363,-0.19209 0.32759,0.64705 0.16363,0.21231 0.1711,0.4954 0.17119,0.15165 0.15631,0.30331 0.3351,0.82903 0.17105,0.12132 0.33487,0.56617 0.34248,0.37408 0.51344,0.44484 0.16368,0.0101 0.33513,0.43474 0.33483,0.81892 0.1711,0.38419 0.17123,-0.24265 0.34225,0.4954 0.17116,-0.0404 0.48382,0.95036 0.17123,-0.26287 0.17109,0.30331 0.16376,-0.10111 0.3499,0.61672 0.34231,0.091 0.17117,-0.0809 0.16379,-0.33363 0.1712,0.33363 0.16363,-0.0505 0.33493,0.52573 0.16382,0.19209 0.17117,0.0202 0.34231,0.25276 0.17129,-0.25276 0.17106,0.12133 0.16381,-0.32353 0.67722,0.57628 h 0.1712 l 0.8559,1.51652 0.16375,-0.18198 0.17107,0.99079 0.17133,-0.49539 0.17113,-0.0607 0.49117,0.36396 0.16372,-0.29319 0.33496,0.67738 0.17118,0.28308 0.17109,-0.34374 0.16383,0.35385 0.17109,-0.31341 0.48378,0.8998 0.17136,-0.15165 0.33483,0.25275 0.16375,0.34375 0.34238,0.23253 0.33492,0.5965 0.33472,0.27297 0.66264,0.38419 0.34229,0.46507 0.84835,0.28308 0.33488,0.15165 0.17108,0.0101 0.16382,0.28309 0.50614,0.091 0.33485,0.76837 0.68473,0.38419 0.16383,0.41451 0.17117,-0.0303 0.16375,0.76837 0.82602,0.65717 0.16381,0.0607 0.16371,-0.10111 0.17117,0.12133 0.1712,-0.30331 0.34242,0.14154 0.33495,-0.0505 0.17106,-0.26286 0.17137,-0.0202 0.34234,0.33363 1.02701,1.20311 0.36495,0.7987 0.17852,0.17188 0.3572,0.53583 0.32749,0.21232 0.1637,-0.45496 0.17121,-0.091 0.50608,0.60661 0.16372,-0.18198 0.50615,0.61671 0.33487,0.1921 0.17124,-0.11121 0.33497,-0.89981 0.34229,0.22243 0.16371,-0.0404 0.17128,0.1011 0.17857,-0.13144 0.15638,0.25276 0.16367,-0.28309 0.16376,-0.0303 0.15622,0.10111 0.32759,1.22332 0.17114,-0.091 0.33495,0.0202 0.17108,-0.0505 0.16381,0.091 0.15629,-0.32352 0.17114,0.11121 0.15625,-0.32352 0.17125,0.0404 0.16376,0.35385 0.1563,-0.25275 0.15631,0.18198 0.16372,-0.3033 0.17122,-0.0101 0.15621,-0.2932 0.17125,0.0101 0.16369,0.16176 0.17116,-0.12132 0.17115,0.0607 0.33496,0.7987 0.17116,0.18199 0.17117,-0.1011 0.34239,0.0505 0.15631,-0.0101 0.16375,0.14154 0.16373,0.75826 0.17119,-0.0404 0.17111,0.15165 0.17123,-0.23253 0.32746,0.33363 0.31997,0.0101 0.32755,0.16177 0.33488,-0.1921 0.3275,0.21232 0.1637,-0.21232 0.15629,0.43474 0.1712,0.0607 0.17119,-0.17187 0.17111,0.26286 0.1564,-0.21231 0.5061,0.26286 0.1637,0.4954 0.49129,0.0404 0.17113,0.26286 0.32749,-0.52572 0.33492,-0.46507 0.17117,0.091 0.17118,-0.091 0.1712,0.29319 0.16371,-0.12132 0.15625,0.22243 0.34236,-0.27298 0.16381,0.1011 0.16371,-0.26286 0.66976,0.80881 0.17122,-0.4044 0.17111,0.19209 0.34252,-0.2022 0.34235,-0.0708 0.84843,0.67738 0.15627,0.35386 0.17112,-0.13143 0.17128,0.48528 0.16375,-0.36396 0.17106,-0.091 0.17122,0.35385 0.17124,-0.23253 0.32745,0.0708 0.16385,-0.3943 0.17108,0.0303 0.16371,0.28308 0.17123,-0.0404 0.17113,0.22242 0.34236,0.86948 0.17123,-0.33364 0.16368,0.1011 0.17119,-0.11121 0.1712,0.19209 0.17122,-0.39429 0.17113,0.11121 0.17113,-0.23253 0.33499,0.13143 0.16377,0.32352 0.17101,-0.1011 0.17127,0.14154 0.16381,-0.65716 0.51349,0.32353 0.34238,-0.48529 0.16372,-0.0202 0.32002,0.47518 0.32744,0.22242 0.16381,-0.5965 0.33486,0.98069 0.16375,0.0708 0.16381,0.50551 0.17108,-0.34375 0.17115,0.40441 0.66982,-0.13144 0.66984,0.27298 0.1638,-0.42463 0.48372,0.0809 0.65496,-0.85936 0.49876,0.11121 0.51348,0.32353 0.16372,0.0101 0.17865,0.51561 0.38716,-0.0101 0.18594,0.091 0.17138,0.23253 0.17107,0.0303 0.33496,0.38419 0.34229,0.0202 0.15641,-0.24265 0.17114,0.0506 0.34236,0.51562 0.50603,-0.0404 0.17125,-0.33363 0.34236,0.11121 0.16371,-0.28309 0.33489,0.24265 0.16385,0.62683 0.32737,0.21231 0.33491,0.0404 0.16381,0.27297 0.51343,-0.41451 0.1787,0.49539 0.18595,-0.23253 0.19378,0.13143 0.36457,0.62683 0.17127,-0.51561 0.17117,-0.0506 0.34228,0.2932 0.17116,0.54595 0.34229,0.0202 0.1862,-0.0809 0.16369,0.0708 0.17113,-0.27298 0.50619,0.42463 0.1711,-0.0202 0.16378,0.47518 0.17109,-0.15166 0.17125,0.14155 0.17114,-0.25276 0.17121,0.11121 0.16365,0.48529 0.51378,-0.14154 0.17117,-0.0607 0.66225,-0.7987 0.17117,0.44484 0.17122,0.0101 0.17111,-0.81892 0.34237,0.34375 0.17119,-0.16177 0.33496,0.45496 0.17116,-0.34374 0.17113,-0.0708 0.1638,-0.85936 0.34228,-0.0101 0.33503,0.37408 0.17856,-0.15166 0.34255,0.10111 0.17111,-0.36397 0.49862,0.11121 0.33493,-0.3033 0.16369,0.0607 0.34243,-0.17187 0.3424,-0.86948 0.16368,0.18199 0.17117,-0.0607 0.34248,0.22243 0.51349,-0.51562 0.17115,-0.0607 0.34242,0.81892 0.17134,0.0708 0.16362,-0.0607 0.17102,0.40441 0.33511,0.27297 0.34235,-0.21231 0.33482,0.73804 0.66243,0.091 0.33477,-0.50551 0.1638,0.0708 0.17119,0.35386 0.16371,-0.18198 0.17117,0.0303 0.17115,0.16176 0.17116,-0.0809 0.17126,0.0505 0.32734,0.74815 0.17132,-0.15165 0.17112,0.0607 0.3423,-0.63694 0.17118,0.21231 0.16372,-0.28308 0.33493,0.58639 0.17126,-0.26287 0.17115,0.091 0.17116,-0.13144 0.16372,0.23254 0.1712,-0.0607 0.17124,0.44484 0.17113,-0.14154 0.17118,0.0202 0.16384,-0.21231 0.16364,-0.41452 0.5135,-0.16176 0.34249,-0.0607 0.17108,0.34374 0.16366,-0.13143 0.17109,0.30331 0.17124,-0.3943 0.66999,0.0202 0.17115,0.3943 0.17116,0.0809 0.1711,-0.3943 0.17148,-0.0202 0.17111,0.42463 0.32748,0.11121 0.34975,-0.24264 0.18598,-0.0708 0.17128,-0.21231 0.16359,0.33364 0.34241,-0.75827 0.34232,-0.15165 0.16374,0.0708 0.17119,-0.32352 0.34217,0.23253 0.16398,0.11121 0.67724,0.8897 0.17123,0.0708 0.17116,0.77848 0.5135,0.2022 0.3424,0.46507 0.33503,0.16176 0.16366,-0.0708 0.17114,0.11121 0.17118,-0.0404 0.16375,0.11121 0.34245,-0.33363 0.17109,0.11121 0.17121,-0.46507 0.5135,0.31342 0.17129,-0.17187 0.17113,0.0505 0.33496,-0.34375 0.51358,-0.87958 0.18605,-0.0708 0.17112,-0.35386 0.49874,0.13143 0.17118,0.23254 0.34239,-0.0303 0.16369,-0.13144 0.17124,0.0101 0.17122,-0.47518 0.52091,-0.1011 0.34233,0.46506 0.1639,0.091 0.34232,-0.15165 0.17113,0.0708 0.16377,-0.0708 0.16388,-0.85936 0.17847,0.34374 0.34236,-0.23253 0.17122,-0.47518 0.1712,0.48529 0.17862,-0.13143 0.17118,0.091 0.50607,-0.31341 0.16377,0.37407 0.34235,0.0202 0.17872,-0.43473 0.32738,-0.0303 0.34235,-0.35385 0.17125,-0.41452 0.16373,0.12133 0.16375,0.33363 0.16379,0.66727 0.1712,-0.43474 0.16362,0.13144 0.50609,-0.23254 0.17117,0.1011 0.52095,1.05146 0.18606,0.0506 0.36486,-0.56617 0.36467,-0.0505 0.18611,-0.16176 0.3497,0.57628 0.17863,-0.17188 0.32745,0.0809 0.33504,0.83914 h 0.17856 l 0.34235,-0.4954 0.17116,0.13143 0.32745,-0.14154 0.32753,0.3943 0.51356,0.33363 0.17115,0.51562 0.33501,-0.16176 0.49863,0.87958 0.34982,-0.13143 0.1638,-0.0607 0.1637,0.0809 0.17853,-0.52573 0.34237,0.13143 h 0.17866 l 0.17116,-0.42462 0.17861,-0.0303 0.17118,-0.36397 0.17118,0.24264 0.34983,-0.0809 0.33495,-0.15165 0.17878,0.0809 0.33474,-0.57628 0.49871,0.34375 0.17116,-0.0202 0.35723,0.31341 0.34974,-0.2022 0.34251,0.1011 0.17856,-0.0505 0.17113,0.12132 0.17123,-0.0506 0.33502,-0.86947 0.70695,0.0404 0.17866,0.22242 0.33481,-0.41451 0.52099,-0.36397 0.17869,0.32353 0.16361,-0.1921 0.17133,0.1011 0.17849,-0.18198 0.16378,0.0506 0.17874,-0.16176 1.04924,0.43474 0.17122,-0.0708 0.17873,0.34374 0.52099,-0.0506 0.17849,0.14154 0.85582,-0.0505 0.17868,0.5965 0.34984,-0.31341 1.04204,0.44484 0.17852,-0.0607 0.18003,0.13143 0.19223,-0.14154 0.17854,0.091 0.18606,-0.36396 0.36478,-0.20221 0.17864,0.0505 0.18613,-0.15165 0.201,0.12132 0.52103,-0.84925 0.37205,-0.0607 0.17127,-0.37408 0.17855,0.0506 0.1787,-0.47518 0.17124,0.0101 0.17856,-0.35386 0.17113,0.0607 0.52106,-0.13143 0.1711,-0.38418 0.87074,-0.32353 0.35727,0.15165 0.17863,-0.16176 0.17126,0.1011 0.17875,0.46507 0.1785,-0.0607 0.17875,0.0607 0.17101,-0.14154 0.52107,1.27388 0.17875,-0.091 0.3496,0.1011 0.69961,0.0404 0.17115,0.24264 h 0.17122 l 0.16369,-0.27297 0.34978,0.85936 0.17125,-0.0809 0.3572,-0.68749 0.17874,-0.0809 0.17107,0.33363 0.17866,0.0708 0.34236,0.32353 0.17858,0.0202 0.16374,0.24264 0.34979,-0.0101 0.17118,0.15165 0.17878,0.50551 0.35715,0.25276 0.35737,-0.45496 0.17853,-0.0607 0.3498,-0.57628 0.35739,0.0202 0.53579,0.82903 0.53597,0.0404 0.17114,0.38419 0.34215,-1.07168 0.17867,0.35386 0.17124,-0.33364 0.16381,-0.0404 0.16361,0.20221 0.17121,-0.0506 0.3274,-0.29319 0.32747,0.25275 0.34248,-0.091 0.17106,0.40441 0.17124,0.77848 0.16369,-0.091 0.33513,0.32352 0.17101,-0.5055 0.16377,0.0404 0.49872,0.46506 0.17108,-0.45495 0.17125,0.0101 0.51355,0.4044 0.17118,-0.0303 0.16376,0.091 0.50608,-0.28308 0.17126,-0.29319 0.17109,0.0101 0.34981,-0.54595 0.17114,0.0809 0.17127,-0.75826 0.17858,0.56617 0.18609,-0.12133 0.34236,0.26287 0.34243,-0.30331 0.16387,0.37408 0.68456,0.32352 0.33497,0.54595 0.49872,-0.26286 0.33484,0.24264 0.16369,0.37408 0.16369,-0.42463 0.49879,-0.13143 0.34984,-0.64705 0.16371,0.0607 0.17118,-0.24264 0.52101,0.11121 0.50608,-0.091 0.17126,0.0607 0.34227,0.87958 0.1637,0.15165 0.34237,-0.53583 0.16374,0.47517 0.34261,-0.42462 0.17089,0.0303 0.17126,0.15165 0.17119,-0.0404 0.32746,-0.71782 0.16373,0.1011 0.17123,-0.15165 0.33491,0.22242 0.33504,0.16176 0.34224,0.0404 0.34991,-0.5055 0.34227,0.18198 0.1712,-0.34375 0.16372,0.27298 0.49873,-0.34375 0.68469,0.98069 0.17133,-0.36397 0.17114,-0.0809 0.50594,0.40441 0.17125,-0.13144 0.17131,-0.52572 1.01955,-0.10111 0.17121,0.0202 0.1786,-0.42462 0.34983,-0.0303 0.34231,-0.22243 0.33502,-0.0809 0.66974,-0.33363 0.34242,-0.0404 0.17111,0.47517 0.17121,0.0809 0.1712,0.36396 0.17117,-0.4044 0.17114,0.1011 0.16394,-0.0708 0.1711,0.14154 0.51348,-0.75826 0.17883,0.0303 0.17093,-0.1011 0.17875,0.47517 0.17112,-0.51562 0.50603,-0.18198 0.16382,-0.88969 0.17123,0.12132 0.16373,-0.0708 0.1786,0.22242 0.35723,-0.0303 0.1712,-0.44484 0.1637,0.41451 0.52106,-0.18198 0.33485,-0.50551 0.17114,0.0505 0.17866,-0.24264 h 0.17118 l 0.17864,0.39429 0.16371,-0.1011 0.1786,-0.52572 0.69975,0.0202 0.1784,-0.36397 h 0.16382 l 0.35732,-0.16176 0.17857,0.0708 0.33479,0.55606 0.34987,-0.30331 0.17119,-0.0505 0.17862,-0.27297 0.34237,0.18198 0.16378,0.24264 0.17865,-0.0404 0.186,0.26287 0.17874,0.0506 0.17864,-0.13143 0.33482,0.0607 0.1786,-0.42463 0.3424,-0.0303 0.16365,-0.43474 0.16385,0.0303 0.16372,-0.39429 0.16371,0.29319 0.16373,-0.4044 1.53329,0.27297 0.5138,0.0202 0.19329,-0.38419 0.17121,0.11122 0.34234,-0.46507 0.16378,0.15165 0.86338,-0.34374 0.35725,0.0506 0.34983,0.2022 0.86336,-0.31341 0.35722,-0.14155 0.1786,0.0303 0.1637,0.22243 0.17878,-0.25276 0.16352,0.55606 0.16383,-0.26286 0.17874,0.18198 0.35714,-0.12132 0.17127,-0.43474 0.3571,0.17188 0.34247,-0.2932 0.17864,0.1011 0.52091,-0.4044 0.1637,0.11121 0.85593,-0.75826 0.17119,0.37407 0.35735,-0.091 0.17861,0.0708 0.16368,0.62683 0.1787,0.21231 0.17858,-0.0303 0.18613,0.2932 0.37239,-0.091 0.19339,0.19209 0.17854,0.50551 0.18611,-0.32353 h 0.35725 l 0.16378,-0.16176 0.18607,-0.57628 0.17868,0.0202 0.17119,-0.14154 0.1786,0.23253 0.16376,-0.64705 0.16368,0.091 0.17116,0.31342 0.52111,-0.1011 0.1786,0.38418 0.3275,-0.0202 0.17114,0.0404 0.17121,-0.2022 0.1786,-0.0303 0.17878,0.13143 0.17114,-0.14154 0.17861,0.1011 0.34965,-0.0303 0.17862,0.38419 0.34259,0.14154 0.34213,-0.28308 0.17125,0.0708 0.17865,-0.0708 0.17117,0.0607 0.17116,-0.11122 0.33496,-0.61672 0.3573,0.36397 0.52103,-0.51562 0.3422,0.25276 0.17879,0.57628 0.1785,0.14154 0.16376,-0.22243 0.51354,0.0404 0.17125,0.41451 0.17877,0.0202 0.17855,0.86947 0.17115,0.15166 0.17854,-0.0303 0.35726,0.18198 0.34241,-0.0809 0.17123,0.48528 0.5136,0.32353 0.33483,0.0809 0.32744,-0.22242 0.17112,0.0202 0.17129,0.27297 0.35731,0.25276 0.16366,-0.44485 0.35719,0.87958 0.34247,0.30331 0.16379,0.0202 0.17871,-0.34375 0.17843,0.17187 0.52111,-0.0708 0.17111,0.43474 h 0.17125 l 0.17857,0.3943 0.1787,-0.52573 0.17107,0.12132 0.17888,0.40441 0.17855,0.12132 0.17844,-0.36397 0.17881,-0.1011 0.3572,0.0506 0.17117,0.34375 0.18606,-0.23254 0.35735,0.14155 0.34233,0.23253 0.17869,-0.15165 0.35742,0.26286 0.16358,0.27297 0.33494,-0.46506 0.17862,0.0506 0.17877,-0.15165 0.69204,0.0506 0.1788,-0.36397 0.34975,0.27298 0.16368,0.0505 0.17137,-0.091 0.17847,0.0607 0.34975,-0.31342 0.17871,-0.0505 0.17114,0.34375 0.1786,-0.43474 0.1712,0.15165 0.34242,-0.17187 0.17109,-0.0607 0.17121,0.36396 0.17863,0.0101 0.1787,0.50551 0.33485,0.0404 0.33485,0.84925 0.6773,-0.33363 1.19829,-0.0101 0.17119,-0.25275 0.17863,0.13143 0.53587,0.7987 0.34975,-0.22242 0.17125,0.0607 0.17874,0.46506 0.35711,0.0404 0.17876,-0.1011 0.34229,0.0708 h 0.34979 l 0.17116,0.25275 0.3572,0.0202 0.17874,-0.26286 0.17877,0.2022 0.52079,-0.0101 0.17122,0.56617 0.17114,0.0505 0.71468,-0.20221 0.1785,0.84926 0.17873,-0.27298 0.1786,0.0202 0.17858,0.26287 0.17125,0.0404 0.34976,-0.13143 0.17853,-0.0303 0.17875,-0.36396 0.35726,0.0607 0.34968,0.83914 0.34241,0.18199 0.17857,-0.0809 0.35742,0.24265 0.17102,-0.0809 0.17127,-0.57628 0.3498,0.0708 0.55081,0.97057 0.1786,-0.28308 0.17106,-0.51562 0.17874,0.14154 0.17858,-0.43473 0.34249,0.21231 0.53577,0.95036 0.17115,-0.0303 0.16378,0.17188 0.34236,-0.16177 0.1712,0.26287 0.35728,0.0708 0.34244,0.14154 0.171,-0.0101 0.35742,0.19209 0.35718,-0.23253 0.17116,-0.0101 0.17118,-0.34374 0.3499,0.2022 0.17108,-0.15165 0.1787,-0.41452 0.18611,0.0202 0.17862,0.13143 0.17859,-0.0708 0.17857,-0.47518 0.34974,0.33364 0.17124,-0.1011 0.17859,0.1011 0.17861,-0.16176 0.17119,0.14154 0.17121,-0.0505 0.35727,0.54595 0.34996,-0.16177 0.34964,-0.41451 0.17868,-0.0404 0.52839,0.22242 0.1787,-0.0202 0.17864,-0.52573 0.17865,-0.0202 0.35724,-0.56617 0.18604,-0.0404 0.17857,-0.52572 0.52868,-0.0404 0.17112,-0.82903 0.51343,-0.4044 0.34239,-0.11122 0.34973,0.10111 0.17126,-0.38419 0.17862,-0.0202 0.34991,-0.23253 0.17124,0.25275 0.6921,-0.3033 0.1861,0.15165 0.17864,-0.0708 0.17129,0.31341 0.17099,-0.28308 0.71453,-0.13144 0.1786,-0.87958 0.17124,0.71782 0.34231,-0.78859 0.34995,-0.26286 0.17842,0.0404 0.17128,-0.11121 0.3572,0.21231 0.1713,0.33363 0.71451,-1.55696 0.17117,0.35386 0.52832,-0.26287 0.17133,0.36397 0.17854,-0.0101 0.52842,-0.3943 0.34994,0.0101 0.1712,-0.0404 0.17853,-0.2022 0.17877,0.29319 0.17848,-0.36396 0.1786,-0.0708 0.17117,0.11121 0.17873,-0.0505 0.17107,0.36396 0.17865,-0.11121 0.17861,0.11121 0.17122,-0.55606 0.17118,0.66727 0.17851,-0.091 0.52111,0.32353 0.1712,-0.44485 0.17119,-0.0708 0.1711,-0.43474 0.1787,-0.0708 0.17858,0.1011 0.17859,-0.44484 0.17124,0.0202 0.17863,0.15165 0.18605,-0.31342 0.88575,-0.22242 0.17851,0.0202 0.17134,0.13143 0.17847,-0.0607 0.35729,0.54595 0.1711,-0.0809 0.17133,-0.35386 0.17128,-0.091 0.17855,-0.38418 0.35717,0.28308 0.17863,-0.091 0.17859,-0.45496 0.17868,-0.0506 0.34988,0.34375 0.34232,0.0101 0.1786,-0.16177 0.17863,0.0809 0.17861,-0.091 0.17865,0.0708 0.70712,0.99079 0.35719,0.36397 0.34976,-0.35386 0.34992,0.1011 0.17115,-0.16176 0.52844,-0.0202 0.17857,-0.56617 0.17867,0.33364 0.69217,-0.82904 0.17881,0.45496 0.17845,-0.21231 0.17863,0.16176 0.17858,-0.36397 0.17866,0.35386 0.35714,-0.3033 0.37975,0.0607 0.17858,-0.11122 0.1938,-0.31341 0.20063,0.4954 0.40203,-0.34375 0.58813,-1.02112 0.52843,0.55605 0.17867,0.41452 0.52842,-0.42462 0.17124,-0.56617 0.5283,-0.15166 0.17864,-0.0506 0.17119,0.24265 0.87093,-1.26377 0.17115,-0.0202 0.17856,-0.51562 0.17868,-0.0505 0.70709,0.5965 0.17862,-0.2932 0.35719,0.17188 0.17125,0.41451 0.52831,-0.32352 0.17876,0.47517 0.17852,-0.56616 0.71451,-0.54595 0.17872,-0.27298 0.35718,0.16177 0.17123,-0.20221 0.53595,-0.0303 0.17866,0.42463 0.17861,-0.0809 0.34233,0.18198 0.1786,-0.15165 0.52095,0.11121 0.17116,-0.38419 0.17142,-0.0505 0.34973,0.72793 0.3497,-0.17187 0.35004,0.23254 0.17111,0.0505 0.17108,-0.31342 h 0.34993 l 0.17109,-0.22242 0.17111,0.0506 0.1788,-0.0809 0.17123,0.31341 0.17854,-0.0101 0.1786,0.34375 0.18607,-0.0303 0.3572,0.23253 0.17868,0.4954 0.34981,0.0809 0.34248,-0.0506 0.69946,0.22242 0.18626,-0.4954 0.1785,0.0809 0.1786,0.46506 0.17862,-0.44484 0.36469,0.80881 0.17864,0.24264 0.17134,-0.39429 0.34223,0.18198 0.1861,0.11121 0.17861,-0.68749 0.17123,-0.11121 0.17862,0.31341 0.17113,-0.0404 0.35737,1.06157 0.17107,-0.19209 0.17124,0.38418 0.34979,-0.14154 v 0" /></g></g><g
       id="g140"><path
         id="path142"
         style="fill:none;stroke:#000000;stroke-width:0.80000001;stroke-linecap:square;stroke-linejoin:miter;stroke-miterlimit:10;stroke-dasharray:none;stroke-opacity:1"
         d="M 57.26,41.96 V 346.68" /><path
         id="path144"
         style="fill:none;stroke:#000000;stroke-width:0.80000001;stroke-linecap:square;stroke-linejoin:miter;stroke-miterlimit:10;stroke-dasharray:none;stroke-opacity:1"
         d="M 454.45586,41.96 V 346.68" /><path
         id="path146"
         style="fill:none;stroke:#000000;stroke-width:0.80000001;stroke-linecap:square;stroke-linejoin:miter;stroke-miterlimit:10;stroke-dasharray:none;stroke-opacity:1"
         d="M 57.26,41.96 H 454.45586" /><path
         id="path148"
         style="fill:none;stroke:#000000;stroke-width:0.80000001;stroke-linecap:square;stroke-linejoin:miter;stroke-miterlimit:10;stroke-dasharray:none;stroke-opacity:1"
         d="M 57.26,346.68 H 454.45586" /><path
         id="path150"
         style="fill:#ffffff;fill-opacity:1;fill-rule:nonzero;stroke:none"
         d="M 518.84832,41.96 H 916.04418 V 346.68 H 518.84832 Z" /><path
         id="path152"
         style="fill:#000000;fill-opacity:1;fill-rule:nonzero;stroke:#000000;stroke-width:0.80000001;stroke-linecap:butt;stroke-linejoin:round;stroke-miterlimit:10;stroke-dasharray:none;stroke-opacity:1"
         d="m 577.39237,41.96 v -3.5" /><text
         id="text156"
         style="font-variant:normal;font-weight:normal;font-size:10px;font-family:'DejaVu Sans';-inkscape-font-specification:DejaVuSans;writing-mode:lr-tb;fill:#000000;fill-opacity:1;fill-rule:nonzero;stroke:none"
         transform="matrix(1,0,0,-1,563.07987,27.36625)"><tspan
           id="tspan154"
           y="0"
           x="0 6.3600001 9.54 15.9 22.26">1.000</tspan></text>
<path
         id="path158"
         style="fill:#000000;fill-opacity:1;fill-rule:nonzero;stroke:#000000;stroke-width:0.80000001;stroke-linecap:butt;stroke-linejoin:round;stroke-miterlimit:10;stroke-dasharray:none;stroke-opacity:1"
         d="m 643.90265,41.96 v -3.5" /><text
         id="text162"
         style="font-variant:normal;font-weight:normal;font-size:10px;font-family:'DejaVu Sans';-inkscape-font-specification:DejaVuSans;writing-mode:lr-tb;fill:#000000;fill-opacity:1;fill-rule:nonzero;stroke:none"
         transform="matrix(1,0,0,-1,629.59015,27.36625)"><tspan
           id="tspan160"
           y="0"
           x="0 6.3600001 9.54 15.9 22.26">1.005</tspan></text>
<path
         id="path164"
         style="fill:#000000;fill-opacity:1;fill-rule:nonzero;stroke:#000000;stroke-width:0.80000001;stroke-linecap:butt;stroke-linejoin:round;stroke-miterlimit:10;stroke-dasharray:none;stroke-opacity:1"
         d="m 710.41293,41.96 v -3.5" /><text
         id="text168"
         style="font-variant:normal;font-weight:normal;font-size:10px;font-family:'DejaVu Sans';-inkscape-font-specification:DejaVuSans;writing-mode:lr-tb;fill:#000000;fill-opacity:1;fill-rule:nonzero;stroke:none"
         transform="matrix(1,0,0,-1,696.10043,27.36625)"><tspan
           id="tspan166"
           y="0"
           x="0 6.3600001 9.54 15.9 22.26">1.010</tspan></text>
<path
         id="path170"
         style="fill:#000000;fill-opacity:1;fill-rule:nonzero;stroke:#000000;stroke-width:0.80000001;stroke-linecap:butt;stroke-linejoin:round;stroke-miterlimit:10;stroke-dasharray:none;stroke-opacity:1"
         d="m 776.92321,41.96 v -3.5" /><text
         id="text174"
         style="font-variant:normal;font-weight:normal;font-size:10px;font-family:'DejaVu Sans';-inkscape-font-specification:DejaVuSans;writing-mode:lr-tb;fill:#000000;fill-opacity:1;fill-rule:nonzero;stroke:none"
         transform="matrix(1,0,0,-1,762.61071,27.36625)"><tspan
           id="tspan172"
           y="0"
           x="0 6.3600001 9.54 15.9 22.26">1.015</tspan></text>
<path
         id="path176"
         style="fill:#000000;fill-opacity:1;fill-rule:nonzero;stroke:#000000;stroke-width:0.80000001;stroke-linecap:butt;stroke-linejoin:round;stroke-miterlimit:10;stroke-dasharray:none;stroke-opacity:1"
         d="m 843.43349,41.96 v -3.5" /><text
         id="text180"
         style="font-variant:normal;font-weight:normal;font-size:10px;font-family:'DejaVu Sans';-inkscape-font-specification:DejaVuSans;writing-mode:lr-tb;fill:#000000;fill-opacity:1;fill-rule:nonzero;stroke:none"
         transform="matrix(1,0,0,-1,829.12099,27.36625)"><tspan
           id="tspan178"
           y="0"
           x="0 6.3600001 9.54 15.9 22.26">1.020</tspan></text>
<path
         id="path182"
         style="fill:#000000;fill-opacity:1;fill-rule:nonzero;stroke:#000000;stroke-width:0.80000001;stroke-linecap:butt;stroke-linejoin:round;stroke-miterlimit:10;stroke-dasharray:none;stroke-opacity:1"
         d="m 909.94377,41.96 v -3.5" /><text
         id="text186"
         style="font-variant:normal;font-weight:normal;font-size:10px;font-family:'DejaVu Sans';-inkscape-font-specification:DejaVuSans;writing-mode:lr-tb;fill:#000000;fill-opacity:1;fill-rule:nonzero;stroke:none"
         transform="matrix(1,0,0,-1,895.63127,27.36625)"><tspan
           id="tspan184"
           y="0"
           x="0 6.3600001 9.54 15.9 22.26">1.025</tspan></text>
<text
         id="text190"
         style="font-variant:normal;font-weight:normal;font-size:10px;font-family:'DejaVu Sans';-inkscape-font-specification:DejaVuSans;writing-mode:lr-tb;fill:#000000;fill-opacity:1;fill-rule:nonzero;stroke:none"
         transform="matrix(1,0,0,-1,651.43062,13.694375)"><tspan
           id="tspan188"
           y="0"
           x="0 6.1100001 12.26 22 28.35 34.5 38.610001 44.740002 48.66 55 59.110001 65.260002 68.440002 72.339996 78.68 84.800003 88.910004 98.650002 104.78 107.56 110.34 115.59 121.74 128.09">Temperature (normalized)</tspan></text>
<path
         id="path192"
         style="fill:#000000;fill-opacity:1;fill-rule:nonzero;stroke:#000000;stroke-width:0.80000001;stroke-linecap:butt;stroke-linejoin:round;stroke-miterlimit:10;stroke-dasharray:none;stroke-opacity:1"
         d="m 518.84832,86.873719 h -3.5" /><text
         id="text196"
         style="font-variant:normal;font-weight:normal;font-size:10px;font-family:'DejaVu Sans';-inkscape-font-specification:DejaVuSans;writing-mode:lr-tb;fill:#000000;fill-opacity:1;fill-rule:nonzero;stroke:none"
         transform="matrix(1,0,0,-1,483.22332,83.076844)"><tspan
           id="tspan194"
           y="0"
           x="0 6.3600001 9.54 15.9 22.26">1.000</tspan></text>
<path
         id="path198"
         style="fill:#000000;fill-opacity:1;fill-rule:nonzero;stroke:#000000;stroke-width:0.80000001;stroke-linecap:butt;stroke-linejoin:round;stroke-miterlimit:10;stroke-dasharray:none;stroke-opacity:1"
         d="m 518.84832,137.89895 h -3.5" /><text
         id="text202"
         style="font-variant:normal;font-weight:normal;font-size:10px;font-family:'DejaVu Sans';-inkscape-font-specification:DejaVuSans;writing-mode:lr-tb;fill:#000000;fill-opacity:1;fill-rule:nonzero;stroke:none"
         transform="matrix(1,0,0,-1,483.22332,134.10208)"><tspan
           id="tspan200"
           y="0"
           x="0 6.3600001 9.54 15.9 22.26">1.005</tspan></text>
<path
         id="path204"
         style="fill:#000000;fill-opacity:1;fill-rule:nonzero;stroke:#000000;stroke-width:0.80000001;stroke-linecap:butt;stroke-linejoin:round;stroke-miterlimit:10;stroke-dasharray:none;stroke-opacity:1"
         d="m 518.84832,188.92419 h -3.5" /><text
         id="text208"
         style="font-variant:normal;font-weight:normal;font-size:10px;font-family:'DejaVu Sans';-inkscape-font-specification:DejaVuSans;writing-mode:lr-tb;fill:#000000;fill-opacity:1;fill-rule:nonzero;stroke:none"
         transform="matrix(1,0,0,-1,483.22332,185.12732)"><tspan
           id="tspan206"
           y="0"
           x="0 6.3600001 9.54 15.9 22.26">1.010</tspan></text>
<path
         id="path210"
         style="fill:#000000;fill-opacity:1;fill-rule:nonzero;stroke:#000000;stroke-width:0.80000001;stroke-linecap:butt;stroke-linejoin:round;stroke-miterlimit:10;stroke-dasharray:none;stroke-opacity:1"
         d="m 518.84832,239.94943 h -3.5" /><text
         id="text214"
         style="font-variant:normal;font-weight:normal;font-size:10px;font-family:'DejaVu Sans';-inkscape-font-specification:DejaVuSans;writing-mode:lr-tb;fill:#000000;fill-opacity:1;fill-rule:nonzero;stroke:none"
         transform="matrix(1,0,0,-1,483.22332,236.15255)"><tspan
           id="tspan212"
           y="0"
           x="0 6.3600001 9.54 15.9 22.26">1.015</tspan></text>
<path
         id="path216"
         style="fill:#000000;fill-opacity:1;fill-rule:nonzero;stroke:#000000;stroke-width:0.80000001;stroke-linecap:butt;stroke-linejoin:round;stroke-miterlimit:10;stroke-dasharray:none;stroke-opacity:1"
         d="m 518.84832,290.97467 h -3.5" /><text
         id="text220"
         style="font-variant:normal;font-weight:normal;font-size:10px;font-family:'DejaVu Sans';-inkscape-font-specification:DejaVuSans;writing-mode:lr-tb;fill:#000000;fill-opacity:1;fill-rule:nonzero;stroke:none"
         transform="matrix(1,0,0,-1,483.22332,287.17779)"><tspan
           id="tspan218"
           y="0"
           x="0 6.3600001 9.54 15.9 22.26">1.020</tspan></text>
<path
         id="path222"
         style="fill:#000000;fill-opacity:1;fill-rule:nonzero;stroke:#000000;stroke-width:0.80000001;stroke-linecap:butt;stroke-linejoin:round;stroke-miterlimit:10;stroke-dasharray:none;stroke-opacity:1"
         d="m 518.84832,341.9999 h -3.5" /><text
         id="text226"
         style="font-variant:normal;font-weight:normal;font-size:10px;font-family:'DejaVu Sans';-inkscape-font-specification:DejaVuSans;writing-mode:lr-tb;fill:#000000;fill-opacity:1;fill-rule:nonzero;stroke:none"
         transform="matrix(1,0,0,-1,483.22332,338.20303)"><tspan
           id="tspan224"
           y="0"
           x="0 6.3600001 9.54 15.9 22.26">1.025</tspan></text>
<text
         id="text230"
         style="font-variant:normal;font-weight:normal;font-size:10px;font-family:'DejaVu Sans';-inkscape-font-specification:DejaVuSans;writing-mode:lr-tb;fill:#000000;fill-opacity:1;fill-rule:nonzero;stroke:none"
         transform="matrix(0,1,1,0,477.14519,128.30437)"><tspan
           id="tspan228"
           y="0"
           x="0 6.1100001 12.26 22 28.35 34.5 38.610001 44.740002 48.66 55 59.110001 65.260002 68.440002 72.339996 78.68 84.800003 88.910004 98.650002 104.78 107.56 110.34 115.59 121.74 128.09">Temperature (normalized)</tspan></text>
</g><g
       id="g232"><g
         clip-path="url(#clipPath238)"
         id="g234"><path
           id="path240"
           style="fill:none;stroke:#1f77b4;stroke-width:1.5;stroke-linecap:square;stroke-linejoin:round;stroke-miterlimit:10;stroke-dasharray:none;stroke-opacity:1"
           d="m 577.39237,86.873719 -40.4897,-31.06281 361.08715,277.018181 -38.22619,-29.3263" /></g></g><g
       id="g242"><g
         clip-path="url(#clipPath248)"
         id="g244"><path
           id="path250"
           style="fill:none;stroke:#ff7f0e;stroke-width:1.5;stroke-linecap:square;stroke-linejoin:round;stroke-miterlimit:10;stroke-dasharray:none;stroke-opacity:1"
           d="M 536.90267,55.810924 897.98982,332.82909" /></g></g><g
       id="g252"><path
         id="path254"
         style="fill:none;stroke:#000000;stroke-width:0.80000001;stroke-linecap:square;stroke-linejoin:miter;stroke-miterlimit:10;stroke-dasharray:none;stroke-opacity:1"
         d="M 518.84832,41.96 V 346.68" /><path
         id="path256"
         style="fill:none;stroke:#000000;stroke-width:0.80000001;stroke-linecap:square;stroke-linejoin:miter;stroke-miterlimit:10;stroke-dasharray:none;stroke-opacity:1"
         d="M 916.04418,41.96 V 346.68" /><path
         id="path258"
         style="fill:none;stroke:#000000;stroke-width:0.80000001;stroke-linecap:square;stroke-linejoin:miter;stroke-miterlimit:10;stroke-dasharray:none;stroke-opacity:1"
         d="M 518.84832,41.96 H 916.04418" /><path
         id="path260"
         style="fill:none;stroke:#000000;stroke-width:0.80000001;stroke-linecap:square;stroke-linejoin:miter;stroke-miterlimit:10;stroke-dasharray:none;stroke-opacity:1"
         d="M 518.84832,346.68 H 916.04418" /></g></g></svg>