<?xml version="1.0" encoding="utf-8" standalone="no"?>
<!DOCTYPE svg PUBLIC "-//W3C//DTD SVG 1.1//EN"
  "http://www.w3.org/Graphics/SVG/1.1/DTD/svg11.dtd">
<!-- Created with matplotlib (http://matplotlib.org/) -->
<svg height="345.6pt" version="1.1" viewBox="0 0 460.8 345.6" width="460.8pt" xmlns="http://www.w3.org/2000/svg" xmlns:xlink="http://www.w3.org/1999/xlink">
 <defs>
  <style type="text/css">
*{stroke-linecap:butt;stroke-linejoin:round;}
  </style>
 </defs>
 <g id="figure_1">
  <g id="patch_1">
   <path d="M 0 345.6 
L 460.8 345.6 
L 460.8 0 
L 0 0 
z
" style="fill:#ffffff;"/>
  </g>
  <g id="axes_1">
   <g id="patch_2">
    <path d="M 56 303.64 
L 447.48 303.64 
L 447.48 13.32 
L 56 13.32 
z
" style="fill:#ffffff;"/>
   </g>
   <g id="matplotlib.axis_1">
    <g id="xtick_1">
     <g id="line2d_1">
      <defs>
       <path d="M 0 0 
L 0 3.5 
" id="mcaa34b583e" style="stroke:#000000;stroke-width:0.8;"/>
      </defs>
      <g>
       <use style="stroke:#000000;stroke-width:0.8;" x="121.106169" xlink:href="#mcaa34b583e" y="303.64"/>
      </g>
     </g>
     <g id="text_1">
      <!-- 100 -->
      <defs>
       <path d="M 12.40625 8.296875 
L 28.515625 8.296875 
L 28.515625 63.921875 
L 10.984375 60.40625 
L 10.984375 69.390625 
L 28.421875 72.90625 
L 38.28125 72.90625 
L 38.28125 8.296875 
L 54.390625 8.296875 
L 54.390625 0 
L 12.40625 0 
z
" id="DejaVuSans-31"/>
       <path d="M 31.78125 66.40625 
Q 24.171875 66.40625 20.328125 58.90625 
Q 16.5 51.421875 16.5 36.375 
Q 16.5 21.390625 20.328125 13.890625 
Q 24.171875 6.390625 31.78125 6.390625 
Q 39.453125 6.390625 43.28125 13.890625 
Q 47.125 21.390625 47.125 36.375 
Q 47.125 51.421875 43.28125 58.90625 
Q 39.453125 66.40625 31.78125 66.40625 
z
M 31.78125 74.21875 
Q 44.046875 74.21875 50.515625 64.515625 
Q 56.984375 54.828125 56.984375 36.375 
Q 56.984375 17.96875 50.515625 8.265625 
Q 44.046875 -1.421875 31.78125 -1.421875 
Q 19.53125 -1.421875 13.0625 8.265625 
Q 6.59375 17.96875 6.59375 36.375 
Q 6.59375 54.828125 13.0625 64.515625 
Q 19.53125 74.21875 31.78125 74.21875 
z
" id="DejaVuSans-30"/>
      </defs>
      <g transform="translate(111.562419 318.238437)scale(0.1 -0.1)">
       <use xlink:href="#DejaVuSans-31"/>
       <use x="63.623047" xlink:href="#DejaVuSans-30"/>
       <use x="127.246094" xlink:href="#DejaVuSans-30"/>
      </g>
     </g>
    </g>
    <g id="xtick_2">
     <g id="line2d_2">
      <g>
       <use style="stroke:#000000;stroke-width:0.8;" x="191.174025" xlink:href="#mcaa34b583e" y="303.64"/>
      </g>
     </g>
     <g id="text_2">
      <!-- 200 -->
      <defs>
       <path d="M 19.1875 8.296875 
L 53.609375 8.296875 
L 53.609375 0 
L 7.328125 0 
L 7.328125 8.296875 
Q 12.9375 14.109375 22.625 23.890625 
Q 32.328125 33.6875 34.8125 36.53125 
Q 39.546875 41.84375 41.421875 45.53125 
Q 43.3125 49.21875 43.3125 52.78125 
Q 43.3125 58.59375 39.234375 62.25 
Q 35.15625 65.921875 28.609375 65.921875 
Q 23.96875 65.921875 18.8125 64.3125 
Q 13.671875 62.703125 7.8125 59.421875 
L 7.8125 69.390625 
Q 13.765625 71.78125 18.9375 73 
Q 24.125 74.21875 28.421875 74.21875 
Q 39.75 74.21875 46.484375 68.546875 
Q 53.21875 62.890625 53.21875 53.421875 
Q 53.21875 48.921875 51.53125 44.890625 
Q 49.859375 40.875 45.40625 35.40625 
Q 44.1875 33.984375 37.640625 27.21875 
Q 31.109375 20.453125 19.1875 8.296875 
z
" id="DejaVuSans-32"/>
      </defs>
      <g transform="translate(181.630275 318.238437)scale(0.1 -0.1)">
       <use xlink:href="#DejaVuSans-32"/>
       <use x="63.623047" xlink:href="#DejaVuSans-30"/>
       <use x="127.246094" xlink:href="#DejaVuSans-30"/>
      </g>
     </g>
    </g>
    <g id="xtick_3">
     <g id="line2d_3">
      <g>
       <use style="stroke:#000000;stroke-width:0.8;" x="261.241881" xlink:href="#mcaa34b583e" y="303.64"/>
      </g>
     </g>
     <g id="text_3">
      <!-- 300 -->
      <defs>
       <path d="M 40.578125 39.3125 
Q 47.65625 37.796875 51.625 33 
Q 55.609375 28.21875 55.609375 21.1875 
Q 55.609375 10.40625 48.1875 4.484375 
Q 40.765625 -1.421875 27.09375 -1.421875 
Q 22.515625 -1.421875 17.65625 -0.515625 
Q 12.796875 0.390625 7.625 2.203125 
L 7.625 11.71875 
Q 11.71875 9.328125 16.59375 8.109375 
Q 21.484375 6.890625 26.8125 6.890625 
Q 36.078125 6.890625 40.9375 10.546875 
Q 45.796875 14.203125 45.796875 21.1875 
Q 45.796875 27.640625 41.28125 31.265625 
Q 36.765625 34.90625 28.71875 34.90625 
L 20.21875 34.90625 
L 20.21875 43.015625 
L 29.109375 43.015625 
Q 36.375 43.015625 40.234375 45.921875 
Q 44.09375 48.828125 44.09375 54.296875 
Q 44.09375 59.90625 40.109375 62.90625 
Q 36.140625 65.921875 28.71875 65.921875 
Q 24.65625 65.921875 20.015625 65.03125 
Q 15.375 64.15625 9.8125 62.3125 
L 9.8125 71.09375 
Q 15.4375 72.65625 20.34375 73.4375 
Q 25.25 74.21875 29.59375 74.21875 
Q 40.828125 74.21875 47.359375 69.109375 
Q 53.90625 64.015625 53.90625 55.328125 
Q 53.90625 49.265625 50.4375 45.09375 
Q 46.96875 40.921875 40.578125 39.3125 
z
" id="DejaVuSans-33"/>
      </defs>
      <g transform="translate(251.698131 318.238437)scale(0.1 -0.1)">
       <use xlink:href="#DejaVuSans-33"/>
       <use x="63.623047" xlink:href="#DejaVuSans-30"/>
       <use x="127.246094" xlink:href="#DejaVuSans-30"/>
      </g>
     </g>
    </g>
    <g id="xtick_4">
     <g id="line2d_4">
      <g>
       <use style="stroke:#000000;stroke-width:0.8;" x="331.309737" xlink:href="#mcaa34b583e" y="303.64"/>
      </g>
     </g>
     <g id="text_4">
      <!-- 400 -->
      <defs>
       <path d="M 37.796875 64.3125 
L 12.890625 25.390625 
L 37.796875 25.390625 
z
M 35.203125 72.90625 
L 47.609375 72.90625 
L 47.609375 25.390625 
L 58.015625 25.390625 
L 58.015625 17.1875 
L 47.609375 17.1875 
L 47.609375 0 
L 37.796875 0 
L 37.796875 17.1875 
L 4.890625 17.1875 
L 4.890625 26.703125 
z
" id="DejaVuSans-34"/>
      </defs>
      <g transform="translate(321.765987 318.238437)scale(0.1 -0.1)">
       <use xlink:href="#DejaVuSans-34"/>
       <use x="63.623047" xlink:href="#DejaVuSans-30"/>
       <use x="127.246094" xlink:href="#DejaVuSans-30"/>
      </g>
     </g>
    </g>
    <g id="xtick_5">
     <g id="line2d_5">
      <g>
       <use style="stroke:#000000;stroke-width:0.8;" x="401.377593" xlink:href="#mcaa34b583e" y="303.64"/>
      </g>
     </g>
     <g id="text_5">
      <!-- 500 -->
      <defs>
       <path d="M 10.796875 72.90625 
L 49.515625 72.90625 
L 49.515625 64.59375 
L 19.828125 64.59375 
L 19.828125 46.734375 
Q 21.96875 47.46875 24.109375 47.828125 
Q 26.265625 48.1875 28.421875 48.1875 
Q 40.625 48.1875 47.75 41.5 
Q 54.890625 34.8125 54.890625 23.390625 
Q 54.890625 11.625 47.5625 5.09375 
Q 40.234375 -1.421875 26.90625 -1.421875 
Q 22.3125 -1.421875 17.546875 -0.640625 
Q 12.796875 0.140625 7.71875 1.703125 
L 7.71875 11.625 
Q 12.109375 9.234375 16.796875 8.0625 
Q 21.484375 6.890625 26.703125 6.890625 
Q 35.15625 6.890625 40.078125 11.328125 
Q 45.015625 15.765625 45.015625 23.390625 
Q 45.015625 31 40.078125 35.4375 
Q 35.15625 39.890625 26.703125 39.890625 
Q 22.75 39.890625 18.8125 39.015625 
Q 14.890625 38.140625 10.796875 36.28125 
z
" id="DejaVuSans-35"/>
      </defs>
      <g transform="translate(391.833843 318.238437)scale(0.1 -0.1)">
       <use xlink:href="#DejaVuSans-35"/>
       <use x="63.623047" xlink:href="#DejaVuSans-30"/>
       <use x="127.246094" xlink:href="#DejaVuSans-30"/>
      </g>
     </g>
    </g>
    <g id="text_6">
     <!-- Offset (ToT) -->
     <defs>
      <path d="M 39.40625 66.21875 
Q 28.65625 66.21875 22.328125 58.203125 
Q 16.015625 50.203125 16.015625 36.375 
Q 16.015625 22.609375 22.328125 14.59375 
Q 28.65625 6.59375 39.40625 6.59375 
Q 50.140625 6.59375 56.421875 14.59375 
Q 62.703125 22.609375 62.703125 36.375 
Q 62.703125 50.203125 56.421875 58.203125 
Q 50.140625 66.21875 39.40625 66.21875 
z
M 39.40625 74.21875 
Q 54.734375 74.21875 63.90625 63.9375 
Q 73.09375 53.65625 73.09375 36.375 
Q 73.09375 19.140625 63.90625 8.859375 
Q 54.734375 -1.421875 39.40625 -1.421875 
Q 24.03125 -1.421875 14.8125 8.828125 
Q 5.609375 19.09375 5.609375 36.375 
Q 5.609375 53.65625 14.8125 63.9375 
Q 24.03125 74.21875 39.40625 74.21875 
z
" id="DejaVuSans-4f"/>
      <path d="M 37.109375 75.984375 
L 37.109375 68.5 
L 28.515625 68.5 
Q 23.6875 68.5 21.796875 66.546875 
Q 19.921875 64.59375 19.921875 59.515625 
L 19.921875 54.6875 
L 34.71875 54.6875 
L 34.71875 47.703125 
L 19.921875 47.703125 
L 19.921875 0 
L 10.890625 0 
L 10.890625 47.703125 
L 2.296875 47.703125 
L 2.296875 54.6875 
L 10.890625 54.6875 
L 10.890625 58.5 
Q 10.890625 67.625 15.140625 71.796875 
Q 19.390625 75.984375 28.609375 75.984375 
z
" id="DejaVuSans-66"/>
      <path d="M 44.28125 53.078125 
L 44.28125 44.578125 
Q 40.484375 46.53125 36.375 47.5 
Q 32.28125 48.484375 27.875 48.484375 
Q 21.1875 48.484375 17.84375 46.4375 
Q 14.5 44.390625 14.5 40.28125 
Q 14.5 37.15625 16.890625 35.375 
Q 19.28125 33.59375 26.515625 31.984375 
L 29.59375 31.296875 
Q 39.15625 29.25 43.1875 25.515625 
Q 47.21875 21.78125 47.21875 15.09375 
Q 47.21875 7.46875 41.1875 3.015625 
Q 35.15625 -1.421875 24.609375 -1.421875 
Q 20.21875 -1.421875 15.453125 -0.5625 
Q 10.6875 0.296875 5.421875 2 
L 5.421875 11.28125 
Q 10.40625 8.6875 15.234375 7.390625 
Q 20.0625 6.109375 24.8125 6.109375 
Q 31.15625 6.109375 34.5625 8.28125 
Q 37.984375 10.453125 37.984375 14.40625 
Q 37.984375 18.0625 35.515625 20.015625 
Q 33.0625 21.96875 24.703125 23.78125 
L 21.578125 24.515625 
Q 13.234375 26.265625 9.515625 29.90625 
Q 5.8125 33.546875 5.8125 39.890625 
Q 5.8125 47.609375 11.28125 51.796875 
Q 16.75 56 26.8125 56 
Q 31.78125 56 36.171875 55.265625 
Q 40.578125 54.546875 44.28125 53.078125 
z
" id="DejaVuSans-73"/>
      <path d="M 56.203125 29.59375 
L 56.203125 25.203125 
L 14.890625 25.203125 
Q 15.484375 15.921875 20.484375 11.0625 
Q 25.484375 6.203125 34.421875 6.203125 
Q 39.59375 6.203125 44.453125 7.46875 
Q 49.3125 8.734375 54.109375 11.28125 
L 54.109375 2.78125 
Q 49.265625 0.734375 44.1875 -0.34375 
Q 39.109375 -1.421875 33.890625 -1.421875 
Q 20.796875 -1.421875 13.15625 6.1875 
Q 5.515625 13.8125 5.515625 26.8125 
Q 5.515625 40.234375 12.765625 48.109375 
Q 20.015625 56 32.328125 56 
Q 43.359375 56 49.78125 48.890625 
Q 56.203125 41.796875 56.203125 29.59375 
z
M 47.21875 32.234375 
Q 47.125 39.59375 43.09375 43.984375 
Q 39.0625 48.390625 32.421875 48.390625 
Q 24.90625 48.390625 20.390625 44.140625 
Q 15.875 39.890625 15.1875 32.171875 
z
" id="DejaVuSans-65"/>
      <path d="M 18.3125 70.21875 
L 18.3125 54.6875 
L 36.8125 54.6875 
L 36.8125 47.703125 
L 18.3125 47.703125 
L 18.3125 18.015625 
Q 18.3125 11.328125 20.140625 9.421875 
Q 21.96875 7.515625 27.59375 7.515625 
L 36.8125 7.515625 
L 36.8125 0 
L 27.59375 0 
Q 17.1875 0 13.234375 3.875 
Q 9.28125 7.765625 9.28125 18.015625 
L 9.28125 47.703125 
L 2.6875 47.703125 
L 2.6875 54.6875 
L 9.28125 54.6875 
L 9.28125 70.21875 
z
" id="DejaVuSans-74"/>
      <path id="DejaVuSans-20"/>
      <path d="M 31 75.875 
Q 24.46875 64.65625 21.28125 53.65625 
Q 18.109375 42.671875 18.109375 31.390625 
Q 18.109375 20.125 21.3125 9.0625 
Q 24.515625 -2 31 -13.1875 
L 23.1875 -13.1875 
Q 15.875 -1.703125 12.234375 9.375 
Q 8.59375 20.453125 8.59375 31.390625 
Q 8.59375 42.28125 12.203125 53.3125 
Q 15.828125 64.359375 23.1875 75.875 
z
" id="DejaVuSans-28"/>
      <path d="M -0.296875 72.90625 
L 61.375 72.90625 
L 61.375 64.59375 
L 35.5 64.59375 
L 35.5 0 
L 25.59375 0 
L 25.59375 64.59375 
L -0.296875 64.59375 
z
" id="DejaVuSans-54"/>
      <path d="M 30.609375 48.390625 
Q 23.390625 48.390625 19.1875 42.75 
Q 14.984375 37.109375 14.984375 27.296875 
Q 14.984375 17.484375 19.15625 11.84375 
Q 23.34375 6.203125 30.609375 6.203125 
Q 37.796875 6.203125 41.984375 11.859375 
Q 46.1875 17.53125 46.1875 27.296875 
Q 46.1875 37.015625 41.984375 42.703125 
Q 37.796875 48.390625 30.609375 48.390625 
z
M 30.609375 56 
Q 42.328125 56 49.015625 48.375 
Q 55.71875 40.765625 55.71875 27.296875 
Q 55.71875 13.875 49.015625 6.21875 
Q 42.328125 -1.421875 30.609375 -1.421875 
Q 18.84375 -1.421875 12.171875 6.21875 
Q 5.515625 13.875 5.515625 27.296875 
Q 5.515625 40.765625 12.171875 48.375 
Q 18.84375 56 30.609375 56 
z
" id="DejaVuSans-6f"/>
      <path d="M 8.015625 75.875 
L 15.828125 75.875 
Q 23.140625 64.359375 26.78125 53.3125 
Q 30.421875 42.28125 30.421875 31.390625 
Q 30.421875 20.453125 26.78125 9.375 
Q 23.140625 -1.703125 15.828125 -13.1875 
L 8.015625 -13.1875 
Q 14.5 -2 17.703125 9.0625 
Q 20.90625 20.125 20.90625 31.390625 
Q 20.90625 42.671875 17.703125 53.65625 
Q 14.5 64.65625 8.015625 75.875 
z
" id="DejaVuSans-29"/>
     </defs>
     <g transform="translate(221.997813 331.916562)scale(0.1 -0.1)">
      <use xlink:href="#DejaVuSans-4f"/>
      <use x="78.710938" xlink:href="#DejaVuSans-66"/>
      <use x="113.916016" xlink:href="#DejaVuSans-66"/>
      <use x="149.121094" xlink:href="#DejaVuSans-73"/>
      <use x="201.220703" xlink:href="#DejaVuSans-65"/>
      <use x="262.744141" xlink:href="#DejaVuSans-74"/>
      <use x="301.953125" xlink:href="#DejaVuSans-20"/>
      <use x="333.740234" xlink:href="#DejaVuSans-28"/>
      <use x="372.753906" xlink:href="#DejaVuSans-54"/>
      <use x="433.572266" xlink:href="#DejaVuSans-6f"/>
      <use x="494.753906" xlink:href="#DejaVuSans-54"/>
      <use x="555.837891" xlink:href="#DejaVuSans-29"/>
     </g>
    </g>
   </g>
   <g id="matplotlib.axis_2">
    <g id="ytick_1">
     <g id="line2d_6">
      <defs>
       <path d="M 0 0 
L -3.5 0 
" id="mbfc3927eae" style="stroke:#000000;stroke-width:0.8;"/>
      </defs>
      <g>
       <use style="stroke:#000000;stroke-width:0.8;" x="56" xlink:href="#mbfc3927eae" y="278.767345"/>
      </g>
     </g>
     <g id="text_7">
      <!-- −0.2 -->
      <defs>
       <path d="M 10.59375 35.5 
L 73.1875 35.5 
L 73.1875 27.203125 
L 10.59375 27.203125 
z
" id="DejaVuSans-2212"/>
       <path d="M 10.6875 12.40625 
L 21 12.40625 
L 21 0 
L 10.6875 0 
z
" id="DejaVuSans-2e"/>
      </defs>
      <g transform="translate(24.717188 282.566564)scale(0.1 -0.1)">
       <use xlink:href="#DejaVuSans-2212"/>
       <use x="83.789062" xlink:href="#DejaVuSans-30"/>
       <use x="147.412109" xlink:href="#DejaVuSans-2e"/>
       <use x="179.199219" xlink:href="#DejaVuSans-32"/>
      </g>
     </g>
    </g>
    <g id="ytick_2">
     <g id="line2d_7">
      <g>
       <use style="stroke:#000000;stroke-width:0.8;" x="56" xlink:href="#mbfc3927eae" y="244.090219"/>
      </g>
     </g>
     <g id="text_8">
      <!-- 0.0 -->
      <g transform="translate(33.096875 247.889438)scale(0.1 -0.1)">
       <use xlink:href="#DejaVuSans-30"/>
       <use x="63.623047" xlink:href="#DejaVuSans-2e"/>
       <use x="95.410156" xlink:href="#DejaVuSans-30"/>
      </g>
     </g>
    </g>
    <g id="ytick_3">
     <g id="line2d_8">
      <g>
       <use style="stroke:#000000;stroke-width:0.8;" x="56" xlink:href="#mbfc3927eae" y="209.413093"/>
      </g>
     </g>
     <g id="text_9">
      <!-- 0.2 -->
      <g transform="translate(33.096875 213.212312)scale(0.1 -0.1)">
       <use xlink:href="#DejaVuSans-30"/>
       <use x="63.623047" xlink:href="#DejaVuSans-2e"/>
       <use x="95.410156" xlink:href="#DejaVuSans-32"/>
      </g>
     </g>
    </g>
    <g id="ytick_4">
     <g id="line2d_9">
      <g>
       <use style="stroke:#000000;stroke-width:0.8;" x="56" xlink:href="#mbfc3927eae" y="174.735967"/>
      </g>
     </g>
     <g id="text_10">
      <!-- 0.4 -->
      <g transform="translate(33.096875 178.535186)scale(0.1 -0.1)">
       <use xlink:href="#DejaVuSans-30"/>
       <use x="63.623047" xlink:href="#DejaVuSans-2e"/>
       <use x="95.410156" xlink:href="#DejaVuSans-34"/>
      </g>
     </g>
    </g>
    <g id="ytick_5">
     <g id="line2d_10">
      <g>
       <use style="stroke:#000000;stroke-width:0.8;" x="56" xlink:href="#mbfc3927eae" y="140.058841"/>
      </g>
     </g>
     <g id="text_11">
      <!-- 0.6 -->
      <defs>
       <path d="M 33.015625 40.375 
Q 26.375 40.375 22.484375 35.828125 
Q 18.609375 31.296875 18.609375 23.390625 
Q 18.609375 15.53125 22.484375 10.953125 
Q 26.375 6.390625 33.015625 6.390625 
Q 39.65625 6.390625 43.53125 10.953125 
Q 47.40625 15.53125 47.40625 23.390625 
Q 47.40625 31.296875 43.53125 35.828125 
Q 39.65625 40.375 33.015625 40.375 
z
M 52.59375 71.296875 
L 52.59375 62.3125 
Q 48.875 64.0625 45.09375 64.984375 
Q 41.3125 65.921875 37.59375 65.921875 
Q 27.828125 65.921875 22.671875 59.328125 
Q 17.53125 52.734375 16.796875 39.40625 
Q 19.671875 43.65625 24.015625 45.921875 
Q 28.375 48.1875 33.59375 48.1875 
Q 44.578125 48.1875 50.953125 41.515625 
Q 57.328125 34.859375 57.328125 23.390625 
Q 57.328125 12.15625 50.6875 5.359375 
Q 44.046875 -1.421875 33.015625 -1.421875 
Q 20.359375 -1.421875 13.671875 8.265625 
Q 6.984375 17.96875 6.984375 36.375 
Q 6.984375 53.65625 15.1875 63.9375 
Q 23.390625 74.21875 37.203125 74.21875 
Q 40.921875 74.21875 44.703125 73.484375 
Q 48.484375 72.75 52.59375 71.296875 
z
" id="DejaVuSans-36"/>
      </defs>
      <g transform="translate(33.096875 143.85806)scale(0.1 -0.1)">
       <use xlink:href="#DejaVuSans-30"/>
       <use x="63.623047" xlink:href="#DejaVuSans-2e"/>
       <use x="95.410156" xlink:href="#DejaVuSans-36"/>
      </g>
     </g>
    </g>
    <g id="ytick_6">
     <g id="line2d_11">
      <g>
       <use style="stroke:#000000;stroke-width:0.8;" x="56" xlink:href="#mbfc3927eae" y="105.381715"/>
      </g>
     </g>
     <g id="text_12">
      <!-- 0.8 -->
      <defs>
       <path d="M 31.78125 34.625 
Q 24.75 34.625 20.71875 30.859375 
Q 16.703125 27.09375 16.703125 20.515625 
Q 16.703125 13.921875 20.71875 10.15625 
Q 24.75 6.390625 31.78125 6.390625 
Q 38.8125 6.390625 42.859375 10.171875 
Q 46.921875 13.96875 46.921875 20.515625 
Q 46.921875 27.09375 42.890625 30.859375 
Q 38.875 34.625 31.78125 34.625 
z
M 21.921875 38.8125 
Q 15.578125 40.375 12.03125 44.71875 
Q 8.5 49.078125 8.5 55.328125 
Q 8.5 64.0625 14.71875 69.140625 
Q 20.953125 74.21875 31.78125 74.21875 
Q 42.671875 74.21875 48.875 69.140625 
Q 55.078125 64.0625 55.078125 55.328125 
Q 55.078125 49.078125 51.53125 44.71875 
Q 48 40.375 41.703125 38.8125 
Q 48.828125 37.15625 52.796875 32.3125 
Q 56.78125 27.484375 56.78125 20.515625 
Q 56.78125 9.90625 50.3125 4.234375 
Q 43.84375 -1.421875 31.78125 -1.421875 
Q 19.734375 -1.421875 13.25 4.234375 
Q 6.78125 9.90625 6.78125 20.515625 
Q 6.78125 27.484375 10.78125 32.3125 
Q 14.796875 37.15625 21.921875 38.8125 
z
M 18.3125 54.390625 
Q 18.3125 48.734375 21.84375 45.5625 
Q 25.390625 42.390625 31.78125 42.390625 
Q 38.140625 42.390625 41.71875 45.5625 
Q 45.3125 48.734375 45.3125 54.390625 
Q 45.3125 60.0625 41.71875 63.234375 
Q 38.140625 66.40625 31.78125 66.40625 
Q 25.390625 66.40625 21.84375 63.234375 
Q 18.3125 60.0625 18.3125 54.390625 
z
" id="DejaVuSans-38"/>
      </defs>
      <g transform="translate(33.096875 109.180934)scale(0.1 -0.1)">
       <use xlink:href="#DejaVuSans-30"/>
       <use x="63.623047" xlink:href="#DejaVuSans-2e"/>
       <use x="95.410156" xlink:href="#DejaVuSans-38"/>
      </g>
     </g>
    </g>
    <g id="ytick_7">
     <g id="line2d_12">
      <g>
       <use style="stroke:#000000;stroke-width:0.8;" x="56" xlink:href="#mbfc3927eae" y="70.70459"/>
      </g>
     </g>
     <g id="text_13">
      <!-- 1.0 -->
      <g transform="translate(33.096875 74.503808)scale(0.1 -0.1)">
       <use xlink:href="#DejaVuSans-31"/>
       <use x="63.623047" xlink:href="#DejaVuSans-2e"/>
       <use x="95.410156" xlink:href="#DejaVuSans-30"/>
      </g>
     </g>
    </g>
    <g id="ytick_8">
     <g id="line2d_13">
      <g>
       <use style="stroke:#000000;stroke-width:0.8;" x="56" xlink:href="#mbfc3927eae" y="36.027464"/>
      </g>
     </g>
     <g id="text_14">
      <!-- 1.2 -->
      <g transform="translate(33.096875 39.826682)scale(0.1 -0.1)">
       <use xlink:href="#DejaVuSans-31"/>
       <use x="63.623047" xlink:href="#DejaVuSans-2e"/>
       <use x="95.410156" xlink:href="#DejaVuSans-32"/>
      </g>
     </g>
    </g>
    <g id="text_15">
     <!-- Slope (ToT/DAC) -->
     <defs>
      <path d="M 53.515625 70.515625 
L 53.515625 60.890625 
Q 47.90625 63.578125 42.921875 64.890625 
Q 37.9375 66.21875 33.296875 66.21875 
Q 25.25 66.21875 20.875 63.09375 
Q 16.5 59.96875 16.5 54.203125 
Q 16.5 49.359375 19.40625 46.890625 
Q 22.3125 44.4375 30.421875 42.921875 
L 36.375 41.703125 
Q 47.40625 39.59375 52.65625 34.296875 
Q 57.90625 29 57.90625 20.125 
Q 57.90625 9.515625 50.796875 4.046875 
Q 43.703125 -1.421875 29.984375 -1.421875 
Q 24.8125 -1.421875 18.96875 -0.25 
Q 13.140625 0.921875 6.890625 3.21875 
L 6.890625 13.375 
Q 12.890625 10.015625 18.65625 8.296875 
Q 24.421875 6.59375 29.984375 6.59375 
Q 38.421875 6.59375 43.015625 9.90625 
Q 47.609375 13.234375 47.609375 19.390625 
Q 47.609375 24.75 44.3125 27.78125 
Q 41.015625 30.8125 33.5 32.328125 
L 27.484375 33.5 
Q 16.453125 35.6875 11.515625 40.375 
Q 6.59375 45.0625 6.59375 53.421875 
Q 6.59375 63.09375 13.40625 68.65625 
Q 20.21875 74.21875 32.171875 74.21875 
Q 37.3125 74.21875 42.625 73.28125 
Q 47.953125 72.359375 53.515625 70.515625 
z
" id="DejaVuSans-53"/>
      <path d="M 9.421875 75.984375 
L 18.40625 75.984375 
L 18.40625 0 
L 9.421875 0 
z
" id="DejaVuSans-6c"/>
      <path d="M 18.109375 8.203125 
L 18.109375 -20.796875 
L 9.078125 -20.796875 
L 9.078125 54.6875 
L 18.109375 54.6875 
L 18.109375 46.390625 
Q 20.953125 51.265625 25.265625 53.625 
Q 29.59375 56 35.59375 56 
Q 45.5625 56 51.78125 48.09375 
Q 58.015625 40.1875 58.015625 27.296875 
Q 58.015625 14.40625 51.78125 6.484375 
Q 45.5625 -1.421875 35.59375 -1.421875 
Q 29.59375 -1.421875 25.265625 0.953125 
Q 20.953125 3.328125 18.109375 8.203125 
z
M 48.6875 27.296875 
Q 48.6875 37.203125 44.609375 42.84375 
Q 40.53125 48.484375 33.40625 48.484375 
Q 26.265625 48.484375 22.1875 42.84375 
Q 18.109375 37.203125 18.109375 27.296875 
Q 18.109375 17.390625 22.1875 11.75 
Q 26.265625 6.109375 33.40625 6.109375 
Q 40.53125 6.109375 44.609375 11.75 
Q 48.6875 17.390625 48.6875 27.296875 
z
" id="DejaVuSans-70"/>
      <path d="M 25.390625 72.90625 
L 33.6875 72.90625 
L 8.296875 -9.28125 
L 0 -9.28125 
z
" id="DejaVuSans-2f"/>
      <path d="M 19.671875 64.796875 
L 19.671875 8.109375 
L 31.59375 8.109375 
Q 46.6875 8.109375 53.6875 14.9375 
Q 60.6875 21.78125 60.6875 36.53125 
Q 60.6875 51.171875 53.6875 57.984375 
Q 46.6875 64.796875 31.59375 64.796875 
z
M 9.8125 72.90625 
L 30.078125 72.90625 
Q 51.265625 72.90625 61.171875 64.09375 
Q 71.09375 55.28125 71.09375 36.53125 
Q 71.09375 17.671875 61.125 8.828125 
Q 51.171875 0 30.078125 0 
L 9.8125 0 
z
" id="DejaVuSans-44"/>
      <path d="M 34.1875 63.1875 
L 20.796875 26.90625 
L 47.609375 26.90625 
z
M 28.609375 72.90625 
L 39.796875 72.90625 
L 67.578125 0 
L 57.328125 0 
L 50.6875 18.703125 
L 17.828125 18.703125 
L 11.1875 0 
L 0.78125 0 
z
" id="DejaVuSans-41"/>
      <path d="M 64.40625 67.28125 
L 64.40625 56.890625 
Q 59.421875 61.53125 53.78125 63.8125 
Q 48.140625 66.109375 41.796875 66.109375 
Q 29.296875 66.109375 22.65625 58.46875 
Q 16.015625 50.828125 16.015625 36.375 
Q 16.015625 21.96875 22.65625 14.328125 
Q 29.296875 6.6875 41.796875 6.6875 
Q 48.140625 6.6875 53.78125 8.984375 
Q 59.421875 11.28125 64.40625 15.921875 
L 64.40625 5.609375 
Q 59.234375 2.09375 53.4375 0.328125 
Q 47.65625 -1.421875 41.21875 -1.421875 
Q 24.65625 -1.421875 15.125 8.703125 
Q 5.609375 18.84375 5.609375 36.375 
Q 5.609375 53.953125 15.125 64.078125 
Q 24.65625 74.21875 41.21875 74.21875 
Q 47.75 74.21875 53.53125 72.484375 
Q 59.328125 70.75 64.40625 67.28125 
z
" id="DejaVuSans-43"/>
     </defs>
     <g transform="translate(18.6375 199.4425)rotate(-90)scale(0.1 -0.1)">
      <use xlink:href="#DejaVuSans-53"/>
      <use x="63.476562" xlink:href="#DejaVuSans-6c"/>
      <use x="91.259766" xlink:href="#DejaVuSans-6f"/>
      <use x="152.441406" xlink:href="#DejaVuSans-70"/>
      <use x="215.917969" xlink:href="#DejaVuSans-65"/>
      <use x="277.441406" xlink:href="#DejaVuSans-20"/>
      <use x="309.228516" xlink:href="#DejaVuSans-28"/>
      <use x="348.242188" xlink:href="#DejaVuSans-54"/>
      <use x="409.060547" xlink:href="#DejaVuSans-6f"/>
      <use x="470.242188" xlink:href="#DejaVuSans-54"/>
      <use x="531.326172" xlink:href="#DejaVuSans-2f"/>
      <use x="565.017578" xlink:href="#DejaVuSans-44"/>
      <use x="642.003906" xlink:href="#DejaVuSans-41"/>
      <use x="710.396484" xlink:href="#DejaVuSans-43"/>
      <use x="780.220703" xlink:href="#DejaVuSans-29"/>
     </g>
    </g>
   </g>
   <g id="LineCollection_1">
    <path clip-path="url(#pb9ff404a55)" d="M 85.664382 261.858536 
L 85.664382 261.858536 
" style="fill:none;stroke:#1f77b4;stroke-width:1.5;"/>
    <path clip-path="url(#pb9ff404a55)" d="M 106.407813 254.642633 
L 106.407813 254.642633 
" style="fill:none;stroke:#1f77b4;stroke-width:1.5;"/>
    <path clip-path="url(#pb9ff404a55)" d="M 138.489614 248.789756 
L 138.489614 248.789756 
" style="fill:none;stroke:#1f77b4;stroke-width:1.5;"/>
    <path clip-path="url(#pb9ff404a55)" d="M 168.295302 243.339403 
L 168.295302 243.339403 
" style="fill:none;stroke:#1f77b4;stroke-width:1.5;"/>
    <path clip-path="url(#pb9ff404a55)" d="M 238.795954 234.15059 
L 238.795954 234.15059 
" style="fill:none;stroke:#1f77b4;stroke-width:1.5;"/>
    <path clip-path="url(#pb9ff404a55)" d="M 301.899902 229.270419 
L 301.899902 229.270419 
" style="fill:none;stroke:#1f77b4;stroke-width:1.5;"/>
    <path clip-path="url(#pb9ff404a55)" d="M 363.644976 236.529937 
L 363.644976 236.529937 
" style="fill:none;stroke:#1f77b4;stroke-width:1.5;"/>
    <path clip-path="url(#pb9ff404a55)" d="M 396.045933 233.967992 
L 396.045933 233.967992 
" style="fill:none;stroke:#1f77b4;stroke-width:1.5;"/>
   </g>
   <g id="LineCollection_2">
    <path clip-path="url(#pb9ff404a55)" d="M 85.664382 261.858536 
L 85.664382 261.858536 
" style="fill:none;stroke:#1f77b4;stroke-width:1.5;"/>
    <path clip-path="url(#pb9ff404a55)" d="M 106.407813 254.642633 
L 106.407813 254.642633 
" style="fill:none;stroke:#1f77b4;stroke-width:1.5;"/>
    <path clip-path="url(#pb9ff404a55)" d="M 138.489614 248.789756 
L 138.489614 248.789756 
" style="fill:none;stroke:#1f77b4;stroke-width:1.5;"/>
    <path clip-path="url(#pb9ff404a55)" d="M 168.295302 243.339403 
L 168.295302 243.339403 
" style="fill:none;stroke:#1f77b4;stroke-width:1.5;"/>
    <path clip-path="url(#pb9ff404a55)" d="M 238.795954 234.15059 
L 238.795954 234.15059 
" style="fill:none;stroke:#1f77b4;stroke-width:1.5;"/>
    <path clip-path="url(#pb9ff404a55)" d="M 301.899902 229.270419 
L 301.899902 229.270419 
" style="fill:none;stroke:#1f77b4;stroke-width:1.5;"/>
    <path clip-path="url(#pb9ff404a55)" d="M 363.644976 236.529937 
L 363.644976 236.529937 
" style="fill:none;stroke:#1f77b4;stroke-width:1.5;"/>
    <path clip-path="url(#pb9ff404a55)" d="M 396.045933 233.967992 
L 396.045933 233.967992 
" style="fill:none;stroke:#1f77b4;stroke-width:1.5;"/>
   </g>
   <g id="LineCollection_3">
    <path clip-path="url(#pb9ff404a55)" d="M 82.21564 256.406413 
L 82.21564 256.406413 
" style="fill:none;stroke:#aec7e8;stroke-width:1.5;"/>
    <path clip-path="url(#pb9ff404a55)" d="M 105.616531 247.756474 
L 105.616531 247.756474 
" style="fill:none;stroke:#aec7e8;stroke-width:1.5;"/>
    <path clip-path="url(#pb9ff404a55)" d="M 140.903123 243.436485 
L 140.903123 243.436485 
" style="fill:none;stroke:#aec7e8;stroke-width:1.5;"/>
    <path clip-path="url(#pb9ff404a55)" d="M 173.114395 236.033691 
L 173.114395 236.033691 
" style="fill:none;stroke:#aec7e8;stroke-width:1.5;"/>
    <path clip-path="url(#pb9ff404a55)" d="M 250.342746 226.430616 
L 250.342746 226.430616 
" style="fill:none;stroke:#aec7e8;stroke-width:1.5;"/>
    <path clip-path="url(#pb9ff404a55)" d="M 320.274057 218.252183 
L 320.274057 218.252183 
" style="fill:none;stroke:#aec7e8;stroke-width:1.5;"/>
    <path clip-path="url(#pb9ff404a55)" d="M 387.607504 220.481288 
L 387.607504 220.481288 
" style="fill:none;stroke:#aec7e8;stroke-width:1.5;"/>
    <path clip-path="url(#pb9ff404a55)" d="M 422.473625 213.370865 
L 422.473625 213.370865 
" style="fill:none;stroke:#aec7e8;stroke-width:1.5;"/>
   </g>
   <g id="LineCollection_4">
    <path clip-path="url(#pb9ff404a55)" d="M 82.21564 256.406413 
L 82.21564 256.406413 
" style="fill:none;stroke:#aec7e8;stroke-width:1.5;"/>
    <path clip-path="url(#pb9ff404a55)" d="M 105.616531 247.756474 
L 105.616531 247.756474 
" style="fill:none;stroke:#aec7e8;stroke-width:1.5;"/>
    <path clip-path="url(#pb9ff404a55)" d="M 140.903123 243.436485 
L 140.903123 243.436485 
" style="fill:none;stroke:#aec7e8;stroke-width:1.5;"/>
    <path clip-path="url(#pb9ff404a55)" d="M 173.114395 236.033691 
L 173.114395 236.033691 
" style="fill:none;stroke:#aec7e8;stroke-width:1.5;"/>
    <path clip-path="url(#pb9ff404a55)" d="M 250.342746 226.430616 
L 250.342746 226.430616 
" style="fill:none;stroke:#aec7e8;stroke-width:1.5;"/>
    <path clip-path="url(#pb9ff404a55)" d="M 320.274057 218.252183 
L 320.274057 218.252183 
" style="fill:none;stroke:#aec7e8;stroke-width:1.5;"/>
    <path clip-path="url(#pb9ff404a55)" d="M 387.607504 220.481288 
L 387.607504 220.481288 
" style="fill:none;stroke:#aec7e8;stroke-width:1.5;"/>
    <path clip-path="url(#pb9ff404a55)" d="M 422.473625 213.370865 
L 422.473625 213.370865 
" style="fill:none;stroke:#aec7e8;stroke-width:1.5;"/>
   </g>
   <g id="LineCollection_5">
    <path clip-path="url(#pb9ff404a55)" d="M 79.727474 283.710012 
L 79.727474 283.710012 
" style="fill:none;stroke:#ff7f0e;stroke-width:1.5;"/>
    <path clip-path="url(#pb9ff404a55)" d="M 105.176445 264.417074 
L 105.176445 264.417074 
" style="fill:none;stroke:#ff7f0e;stroke-width:1.5;"/>
    <path clip-path="url(#pb9ff404a55)" d="M 141.099192 250.365644 
L 141.099192 250.365644 
" style="fill:none;stroke:#ff7f0e;stroke-width:1.5;"/>
    <path clip-path="url(#pb9ff404a55)" d="M 171.597023 232.841882 
L 171.597023 232.841882 
" style="fill:none;stroke:#ff7f0e;stroke-width:1.5;"/>
    <path clip-path="url(#pb9ff404a55)" d="M 239.408076 191.370004 
L 239.408076 191.370004 
" style="fill:none;stroke:#ff7f0e;stroke-width:1.5;"/>
    <path clip-path="url(#pb9ff404a55)" d="M 297.222106 151.299957 
L 297.222106 151.299957 
" style="fill:none;stroke:#ff7f0e;stroke-width:1.5;"/>
    <path clip-path="url(#pb9ff404a55)" d="M 349.771708 106.023026 
L 349.771708 106.023026 
" style="fill:none;stroke:#ff7f0e;stroke-width:1.5;"/>
    <path clip-path="url(#pb9ff404a55)" d="M 375.482257 103.981767 
L 375.482257 103.981767 
" style="fill:none;stroke:#ff7f0e;stroke-width:1.5;"/>
   </g>
   <g id="LineCollection_6">
    <path clip-path="url(#pb9ff404a55)" d="M 79.727474 283.710012 
L 79.727474 283.710012 
" style="fill:none;stroke:#ff7f0e;stroke-width:1.5;"/>
    <path clip-path="url(#pb9ff404a55)" d="M 105.176445 264.417074 
L 105.176445 264.417074 
" style="fill:none;stroke:#ff7f0e;stroke-width:1.5;"/>
    <path clip-path="url(#pb9ff404a55)" d="M 141.099192 250.365644 
L 141.099192 250.365644 
" style="fill:none;stroke:#ff7f0e;stroke-width:1.5;"/>
    <path clip-path="url(#pb9ff404a55)" d="M 171.597023 232.841882 
L 171.597023 232.841882 
" style="fill:none;stroke:#ff7f0e;stroke-width:1.5;"/>
    <path clip-path="url(#pb9ff404a55)" d="M 239.408076 191.370004 
L 239.408076 191.370004 
" style="fill:none;stroke:#ff7f0e;stroke-width:1.5;"/>
    <path clip-path="url(#pb9ff404a55)" d="M 297.222106 151.299957 
L 297.222106 151.299957 
" style="fill:none;stroke:#ff7f0e;stroke-width:1.5;"/>
    <path clip-path="url(#pb9ff404a55)" d="M 349.771708 106.023026 
L 349.771708 106.023026 
" style="fill:none;stroke:#ff7f0e;stroke-width:1.5;"/>
    <path clip-path="url(#pb9ff404a55)" d="M 375.482257 103.981767 
L 375.482257 103.981767 
" style="fill:none;stroke:#ff7f0e;stroke-width:1.5;"/>
   </g>
   <g id="LineCollection_7">
    <path clip-path="url(#pb9ff404a55)" d="M 73.794545 259.101463 
L 73.794545 259.101463 
" style="fill:none;stroke:#2ca02c;stroke-width:1.5;"/>
    <path clip-path="url(#pb9ff404a55)" d="M 101.933448 248.237175 
L 101.933448 248.237175 
" style="fill:none;stroke:#2ca02c;stroke-width:1.5;"/>
    <path clip-path="url(#pb9ff404a55)" d="M 137.784408 237.225886 
L 137.784408 237.225886 
" style="fill:none;stroke:#2ca02c;stroke-width:1.5;"/>
    <path clip-path="url(#pb9ff404a55)" d="M 168.052067 223.104068 
L 168.052067 223.104068 
" style="fill:none;stroke:#2ca02c;stroke-width:1.5;"/>
    <path clip-path="url(#pb9ff404a55)" d="M 234.833481 183.671942 
L 234.833481 183.671942 
" style="fill:none;stroke:#2ca02c;stroke-width:1.5;"/>
    <path clip-path="url(#pb9ff404a55)" d="M 291.771083 144.660533 
L 291.771083 144.660533 
" style="fill:none;stroke:#2ca02c;stroke-width:1.5;"/>
    <path clip-path="url(#pb9ff404a55)" d="M 343.272315 101.254915 
L 343.272315 101.254915 
" style="fill:none;stroke:#2ca02c;stroke-width:1.5;"/>
    <path clip-path="url(#pb9ff404a55)" d="M 368.89799 101.177244 
L 368.89799 101.177244 
" style="fill:none;stroke:#2ca02c;stroke-width:1.5;"/>
   </g>
   <g id="LineCollection_8">
    <path clip-path="url(#pb9ff404a55)" d="M 73.794545 259.101463 
L 73.794545 259.101463 
" style="fill:none;stroke:#2ca02c;stroke-width:1.5;"/>
    <path clip-path="url(#pb9ff404a55)" d="M 101.933448 248.237175 
L 101.933448 248.237175 
" style="fill:none;stroke:#2ca02c;stroke-width:1.5;"/>
    <path clip-path="url(#pb9ff404a55)" d="M 137.784408 237.225886 
L 137.784408 237.225886 
" style="fill:none;stroke:#2ca02c;stroke-width:1.5;"/>
    <path clip-path="url(#pb9ff404a55)" d="M 168.052067 223.104068 
L 168.052067 223.104068 
" style="fill:none;stroke:#2ca02c;stroke-width:1.5;"/>
    <path clip-path="url(#pb9ff404a55)" d="M 234.833481 183.671942 
L 234.833481 183.671942 
" style="fill:none;stroke:#2ca02c;stroke-width:1.5;"/>
    <path clip-path="url(#pb9ff404a55)" d="M 291.771083 144.660533 
L 291.771083 144.660533 
" style="fill:none;stroke:#2ca02c;stroke-width:1.5;"/>
    <path clip-path="url(#pb9ff404a55)" d="M 343.272315 101.254915 
L 343.272315 101.254915 
" style="fill:none;stroke:#2ca02c;stroke-width:1.5;"/>
    <path clip-path="url(#pb9ff404a55)" d="M 368.89799 101.177244 
L 368.89799 101.177244 
" style="fill:none;stroke:#2ca02c;stroke-width:1.5;"/>
   </g>
   <g id="LineCollection_9">
    <path clip-path="url(#pb9ff404a55)" d="M 82.230793 266.892982 
L 82.230793 266.892982 
" style="fill:none;stroke:#98df8a;stroke-width:1.5;"/>
    <path clip-path="url(#pb9ff404a55)" d="M 107.22981 251.865661 
L 107.22981 251.865661 
" style="fill:none;stroke:#98df8a;stroke-width:1.5;"/>
    <path clip-path="url(#pb9ff404a55)" d="M 144.67634 248.060564 
L 144.67634 248.060564 
" style="fill:none;stroke:#98df8a;stroke-width:1.5;"/>
    <path clip-path="url(#pb9ff404a55)" d="M 175.947255 221.815986 
L 175.947255 221.815986 
" style="fill:none;stroke:#98df8a;stroke-width:1.5;"/>
    <path clip-path="url(#pb9ff404a55)" d="M 246.05274 171.774853 
L 246.05274 171.774853 
" style="fill:none;stroke:#98df8a;stroke-width:1.5;"/>
    <path clip-path="url(#pb9ff404a55)" d="M 306.181674 130.502146 
L 306.181674 130.502146 
" style="fill:none;stroke:#98df8a;stroke-width:1.5;"/>
    <path clip-path="url(#pb9ff404a55)" d="M 359.687323 72.701891 
L 359.687323 72.701891 
" style="fill:none;stroke:#98df8a;stroke-width:1.5;"/>
    <path clip-path="url(#pb9ff404a55)" d="M 385.921306 78.191206 
L 385.921306 78.191206 
" style="fill:none;stroke:#98df8a;stroke-width:1.5;"/>
   </g>
   <g id="LineCollection_10">
    <path clip-path="url(#pb9ff404a55)" d="M 82.230793 266.892982 
L 82.230793 266.892982 
" style="fill:none;stroke:#98df8a;stroke-width:1.5;"/>
    <path clip-path="url(#pb9ff404a55)" d="M 107.22981 251.865661 
L 107.22981 251.865661 
" style="fill:none;stroke:#98df8a;stroke-width:1.5;"/>
    <path clip-path="url(#pb9ff404a55)" d="M 144.67634 248.060564 
L 144.67634 248.060564 
" style="fill:none;stroke:#98df8a;stroke-width:1.5;"/>
    <path clip-path="url(#pb9ff404a55)" d="M 175.947255 221.815986 
L 175.947255 221.815986 
" style="fill:none;stroke:#98df8a;stroke-width:1.5;"/>
    <path clip-path="url(#pb9ff404a55)" d="M 246.05274 171.774853 
L 246.05274 171.774853 
" style="fill:none;stroke:#98df8a;stroke-width:1.5;"/>
    <path clip-path="url(#pb9ff404a55)" d="M 306.181674 130.502146 
L 306.181674 130.502146 
" style="fill:none;stroke:#98df8a;stroke-width:1.5;"/>
    <path clip-path="url(#pb9ff404a55)" d="M 359.687323 72.701891 
L 359.687323 72.701891 
" style="fill:none;stroke:#98df8a;stroke-width:1.5;"/>
    <path clip-path="url(#pb9ff404a55)" d="M 385.921306 78.191206 
L 385.921306 78.191206 
" style="fill:none;stroke:#98df8a;stroke-width:1.5;"/>
   </g>
   <g id="LineCollection_11">
    <path clip-path="url(#pb9ff404a55)" d="M 78.874899 269.050778 
L 78.874899 269.050778 
" style="fill:none;stroke:#d62728;stroke-width:1.5;"/>
    <path clip-path="url(#pb9ff404a55)" d="M 104.068179 256.966476 
L 104.068179 256.966476 
" style="fill:none;stroke:#d62728;stroke-width:1.5;"/>
    <path clip-path="url(#pb9ff404a55)" d="M 137.623947 243.677262 
L 137.623947 243.677262 
" style="fill:none;stroke:#d62728;stroke-width:1.5;"/>
    <path clip-path="url(#pb9ff404a55)" d="M 166.474337 232.065413 
L 166.474337 232.065413 
" style="fill:none;stroke:#d62728;stroke-width:1.5;"/>
    <path clip-path="url(#pb9ff404a55)" d="M 230.327634 196.122364 
L 230.327634 196.122364 
" style="fill:none;stroke:#d62728;stroke-width:1.5;"/>
    <path clip-path="url(#pb9ff404a55)" d="M 285.172227 162.105885 
L 285.172227 162.105885 
" style="fill:none;stroke:#d62728;stroke-width:1.5;"/>
    <path clip-path="url(#pb9ff404a55)" d="M 334.379057 120.535887 
L 334.379057 120.535887 
" style="fill:none;stroke:#d62728;stroke-width:1.5;"/>
    <path clip-path="url(#pb9ff404a55)" d="M 358.942424 118.272302 
L 358.942424 118.272302 
" style="fill:none;stroke:#d62728;stroke-width:1.5;"/>
   </g>
   <g id="LineCollection_12">
    <path clip-path="url(#pb9ff404a55)" d="M 78.874899 269.050778 
L 78.874899 269.050778 
" style="fill:none;stroke:#d62728;stroke-width:1.5;"/>
    <path clip-path="url(#pb9ff404a55)" d="M 104.068179 256.966476 
L 104.068179 256.966476 
" style="fill:none;stroke:#d62728;stroke-width:1.5;"/>
    <path clip-path="url(#pb9ff404a55)" d="M 137.623947 243.677262 
L 137.623947 243.677262 
" style="fill:none;stroke:#d62728;stroke-width:1.5;"/>
    <path clip-path="url(#pb9ff404a55)" d="M 166.474337 232.065413 
L 166.474337 232.065413 
" style="fill:none;stroke:#d62728;stroke-width:1.5;"/>
    <path clip-path="url(#pb9ff404a55)" d="M 230.327634 196.122364 
L 230.327634 196.122364 
" style="fill:none;stroke:#d62728;stroke-width:1.5;"/>
    <path clip-path="url(#pb9ff404a55)" d="M 285.172227 162.105885 
L 285.172227 162.105885 
" style="fill:none;stroke:#d62728;stroke-width:1.5;"/>
    <path clip-path="url(#pb9ff404a55)" d="M 334.379057 120.535887 
L 334.379057 120.535887 
" style="fill:none;stroke:#d62728;stroke-width:1.5;"/>
    <path clip-path="url(#pb9ff404a55)" d="M 358.942424 118.272302 
L 358.942424 118.272302 
" style="fill:none;stroke:#d62728;stroke-width:1.5;"/>
   </g>
   <g id="LineCollection_13">
    <path clip-path="url(#pb9ff404a55)" d="M 81.837359 283.160044 
L 81.837359 283.160044 
" style="fill:none;stroke:#9467bd;stroke-width:1.5;"/>
    <path clip-path="url(#pb9ff404a55)" d="M 105.451236 266.359462 
L 105.451236 266.359462 
" style="fill:none;stroke:#9467bd;stroke-width:1.5;"/>
    <path clip-path="url(#pb9ff404a55)" d="M 139.318263 252.53362 
L 139.318263 252.53362 
" style="fill:none;stroke:#9467bd;stroke-width:1.5;"/>
    <path clip-path="url(#pb9ff404a55)" d="M 168.546115 235.948004 
L 168.546115 235.948004 
" style="fill:none;stroke:#9467bd;stroke-width:1.5;"/>
    <path clip-path="url(#pb9ff404a55)" d="M 233.548948 197.084753 
L 233.548948 197.084753 
" style="fill:none;stroke:#9467bd;stroke-width:1.5;"/>
    <path clip-path="url(#pb9ff404a55)" d="M 288.880342 156.481666 
L 288.880342 156.481666 
" style="fill:none;stroke:#9467bd;stroke-width:1.5;"/>
    <path clip-path="url(#pb9ff404a55)" d="M 338.759008 112.375802 
L 338.759008 112.375802 
" style="fill:none;stroke:#9467bd;stroke-width:1.5;"/>
    <path clip-path="url(#pb9ff404a55)" d="M 363.269353 112.067601 
L 363.269353 112.067601 
" style="fill:none;stroke:#9467bd;stroke-width:1.5;"/>
   </g>
   <g id="LineCollection_14">
    <path clip-path="url(#pb9ff404a55)" d="M 81.837359 283.160044 
L 81.837359 283.160044 
" style="fill:none;stroke:#9467bd;stroke-width:1.5;"/>
    <path clip-path="url(#pb9ff404a55)" d="M 105.451236 266.359462 
L 105.451236 266.359462 
" style="fill:none;stroke:#9467bd;stroke-width:1.5;"/>
    <path clip-path="url(#pb9ff404a55)" d="M 139.318263 252.53362 
L 139.318263 252.53362 
" style="fill:none;stroke:#9467bd;stroke-width:1.5;"/>
    <path clip-path="url(#pb9ff404a55)" d="M 168.546115 235.948004 
L 168.546115 235.948004 
" style="fill:none;stroke:#9467bd;stroke-width:1.5;"/>
    <path clip-path="url(#pb9ff404a55)" d="M 233.548948 197.084753 
L 233.548948 197.084753 
" style="fill:none;stroke:#9467bd;stroke-width:1.5;"/>
    <path clip-path="url(#pb9ff404a55)" d="M 288.880342 156.481666 
L 288.880342 156.481666 
" style="fill:none;stroke:#9467bd;stroke-width:1.5;"/>
    <path clip-path="url(#pb9ff404a55)" d="M 338.759008 112.375802 
L 338.759008 112.375802 
" style="fill:none;stroke:#9467bd;stroke-width:1.5;"/>
    <path clip-path="url(#pb9ff404a55)" d="M 363.269353 112.067601 
L 363.269353 112.067601 
" style="fill:none;stroke:#9467bd;stroke-width:1.5;"/>
   </g>
   <g id="LineCollection_15">
    <path clip-path="url(#pb9ff404a55)" d="M 83.829789 276.183942 
L 83.829789 276.183942 
" style="fill:none;stroke:#c5b0d5;stroke-width:1.5;"/>
    <path clip-path="url(#pb9ff404a55)" d="M 109.165885 260.275191 
L 109.165885 260.275191 
" style="fill:none;stroke:#c5b0d5;stroke-width:1.5;"/>
    <path clip-path="url(#pb9ff404a55)" d="M 145.439814 245.464513 
L 145.439814 245.464513 
" style="fill:none;stroke:#c5b0d5;stroke-width:1.5;"/>
    <path clip-path="url(#pb9ff404a55)" d="M 176.725546 221.924805 
L 176.725546 221.924805 
" style="fill:none;stroke:#c5b0d5;stroke-width:1.5;"/>
    <path clip-path="url(#pb9ff404a55)" d="M 247.041168 179.530629 
L 247.041168 179.530629 
" style="fill:none;stroke:#c5b0d5;stroke-width:1.5;"/>
    <path clip-path="url(#pb9ff404a55)" d="M 306.578024 131.187042 
L 306.578024 131.187042 
" style="fill:none;stroke:#c5b0d5;stroke-width:1.5;"/>
    <path clip-path="url(#pb9ff404a55)" d="M 360.049015 81.669008 
L 360.049015 81.669008 
" style="fill:none;stroke:#c5b0d5;stroke-width:1.5;"/>
    <path clip-path="url(#pb9ff404a55)" d="M 385.842089 74.637952 
L 385.842089 74.637952 
" style="fill:none;stroke:#c5b0d5;stroke-width:1.5;"/>
   </g>
   <g id="LineCollection_16">
    <path clip-path="url(#pb9ff404a55)" d="M 83.829789 276.183942 
L 83.829789 276.183942 
" style="fill:none;stroke:#c5b0d5;stroke-width:1.5;"/>
    <path clip-path="url(#pb9ff404a55)" d="M 109.165885 260.275191 
L 109.165885 260.275191 
" style="fill:none;stroke:#c5b0d5;stroke-width:1.5;"/>
    <path clip-path="url(#pb9ff404a55)" d="M 145.439814 245.464513 
L 145.439814 245.464513 
" style="fill:none;stroke:#c5b0d5;stroke-width:1.5;"/>
    <path clip-path="url(#pb9ff404a55)" d="M 176.725546 221.924805 
L 176.725546 221.924805 
" style="fill:none;stroke:#c5b0d5;stroke-width:1.5;"/>
    <path clip-path="url(#pb9ff404a55)" d="M 247.041168 179.530629 
L 247.041168 179.530629 
" style="fill:none;stroke:#c5b0d5;stroke-width:1.5;"/>
    <path clip-path="url(#pb9ff404a55)" d="M 306.578024 131.187042 
L 306.578024 131.187042 
" style="fill:none;stroke:#c5b0d5;stroke-width:1.5;"/>
    <path clip-path="url(#pb9ff404a55)" d="M 360.049015 81.669008 
L 360.049015 81.669008 
" style="fill:none;stroke:#c5b0d5;stroke-width:1.5;"/>
    <path clip-path="url(#pb9ff404a55)" d="M 385.842089 74.637952 
L 385.842089 74.637952 
" style="fill:none;stroke:#c5b0d5;stroke-width:1.5;"/>
   </g>
   <g id="LineCollection_17">
    <path clip-path="url(#pb9ff404a55)" d="M 85.501714 287.851763 
L 85.501714 287.851763 
" style="fill:none;stroke:#8c564b;stroke-width:1.5;"/>
    <path clip-path="url(#pb9ff404a55)" d="M 108.662515 268.494475 
L 108.662515 268.494475 
" style="fill:none;stroke:#8c564b;stroke-width:1.5;"/>
    <path clip-path="url(#pb9ff404a55)" d="M 143.313878 253.094244 
L 143.313878 253.094244 
" style="fill:none;stroke:#8c564b;stroke-width:1.5;"/>
    <path clip-path="url(#pb9ff404a55)" d="M 173.549703 234.009974 
L 173.549703 234.009974 
" style="fill:none;stroke:#8c564b;stroke-width:1.5;"/>
    <path clip-path="url(#pb9ff404a55)" d="M 241.093617 190.751667 
L 241.093617 190.751667 
" style="fill:none;stroke:#8c564b;stroke-width:1.5;"/>
    <path clip-path="url(#pb9ff404a55)" d="M 298.156745 146.740718 
L 298.156745 146.740718 
" style="fill:none;stroke:#8c564b;stroke-width:1.5;"/>
    <path clip-path="url(#pb9ff404a55)" d="M 349.082743 98.612597 
L 349.082743 98.612597 
" style="fill:none;stroke:#8c564b;stroke-width:1.5;"/>
    <path clip-path="url(#pb9ff404a55)" d="M 373.634889 94.245401 
L 373.634889 94.245401 
" style="fill:none;stroke:#8c564b;stroke-width:1.5;"/>
   </g>
   <g id="LineCollection_18">
    <path clip-path="url(#pb9ff404a55)" d="M 85.501714 287.851763 
L 85.501714 287.851763 
" style="fill:none;stroke:#8c564b;stroke-width:1.5;"/>
    <path clip-path="url(#pb9ff404a55)" d="M 108.662515 268.494475 
L 108.662515 268.494475 
" style="fill:none;stroke:#8c564b;stroke-width:1.5;"/>
    <path clip-path="url(#pb9ff404a55)" d="M 143.313878 253.094244 
L 143.313878 253.094244 
" style="fill:none;stroke:#8c564b;stroke-width:1.5;"/>
    <path clip-path="url(#pb9ff404a55)" d="M 173.549703 234.009974 
L 173.549703 234.009974 
" style="fill:none;stroke:#8c564b;stroke-width:1.5;"/>
    <path clip-path="url(#pb9ff404a55)" d="M 241.093617 190.751667 
L 241.093617 190.751667 
" style="fill:none;stroke:#8c564b;stroke-width:1.5;"/>
    <path clip-path="url(#pb9ff404a55)" d="M 298.156745 146.740718 
L 298.156745 146.740718 
" style="fill:none;stroke:#8c564b;stroke-width:1.5;"/>
    <path clip-path="url(#pb9ff404a55)" d="M 349.082743 98.612597 
L 349.082743 98.612597 
" style="fill:none;stroke:#8c564b;stroke-width:1.5;"/>
    <path clip-path="url(#pb9ff404a55)" d="M 373.634889 94.245401 
L 373.634889 94.245401 
" style="fill:none;stroke:#8c564b;stroke-width:1.5;"/>
   </g>
   <g id="LineCollection_19">
    <path clip-path="url(#pb9ff404a55)" d="M 82.355185 265.548249 
L 82.355185 265.548249 
" style="fill:none;stroke:#e377c2;stroke-width:1.5;"/>
    <path clip-path="url(#pb9ff404a55)" d="M 107.459111 253.198967 
L 107.459111 253.198967 
" style="fill:none;stroke:#e377c2;stroke-width:1.5;"/>
    <path clip-path="url(#pb9ff404a55)" d="M 142.529823 241.45214 
L 142.529823 241.45214 
" style="fill:none;stroke:#e377c2;stroke-width:1.5;"/>
    <path clip-path="url(#pb9ff404a55)" d="M 172.36275 224.048201 
L 172.36275 224.048201 
" style="fill:none;stroke:#e377c2;stroke-width:1.5;"/>
    <path clip-path="url(#pb9ff404a55)" d="M 239.793727 182.9034 
L 239.793727 182.9034 
" style="fill:none;stroke:#e377c2;stroke-width:1.5;"/>
    <path clip-path="url(#pb9ff404a55)" d="M 297.065115 138.950752 
L 297.065115 138.950752 
" style="fill:none;stroke:#e377c2;stroke-width:1.5;"/>
    <path clip-path="url(#pb9ff404a55)" d="M 348.990929 91.082659 
L 348.990929 91.082659 
" style="fill:none;stroke:#e377c2;stroke-width:1.5;"/>
    <path clip-path="url(#pb9ff404a55)" d="M 374.695346 91.112683 
L 374.695346 91.112683 
" style="fill:none;stroke:#e377c2;stroke-width:1.5;"/>
   </g>
   <g id="LineCollection_20">
    <path clip-path="url(#pb9ff404a55)" d="M 82.355185 265.548249 
L 82.355185 265.548249 
" style="fill:none;stroke:#e377c2;stroke-width:1.5;"/>
    <path clip-path="url(#pb9ff404a55)" d="M 107.459111 253.198967 
L 107.459111 253.198967 
" style="fill:none;stroke:#e377c2;stroke-width:1.5;"/>
    <path clip-path="url(#pb9ff404a55)" d="M 142.529823 241.45214 
L 142.529823 241.45214 
" style="fill:none;stroke:#e377c2;stroke-width:1.5;"/>
    <path clip-path="url(#pb9ff404a55)" d="M 172.36275 224.048201 
L 172.36275 224.048201 
" style="fill:none;stroke:#e377c2;stroke-width:1.5;"/>
    <path clip-path="url(#pb9ff404a55)" d="M 239.793727 182.9034 
L 239.793727 182.9034 
" style="fill:none;stroke:#e377c2;stroke-width:1.5;"/>
    <path clip-path="url(#pb9ff404a55)" d="M 297.065115 138.950752 
L 297.065115 138.950752 
" style="fill:none;stroke:#e377c2;stroke-width:1.5;"/>
    <path clip-path="url(#pb9ff404a55)" d="M 348.990929 91.082659 
L 348.990929 91.082659 
" style="fill:none;stroke:#e377c2;stroke-width:1.5;"/>
    <path clip-path="url(#pb9ff404a55)" d="M 374.695346 91.112683 
L 374.695346 91.112683 
" style="fill:none;stroke:#e377c2;stroke-width:1.5;"/>
   </g>
   <g id="LineCollection_21">
    <path clip-path="url(#pb9ff404a55)" d="M 80.085002 272.835124 
L 80.085002 272.835124 
" style="fill:none;stroke:#f7b6d2;stroke-width:1.5;"/>
    <path clip-path="url(#pb9ff404a55)" d="M 106.071223 256.571523 
L 106.071223 256.571523 
" style="fill:none;stroke:#f7b6d2;stroke-width:1.5;"/>
    <path clip-path="url(#pb9ff404a55)" d="M 142.460945 242.483802 
L 142.460945 242.483802 
" style="fill:none;stroke:#f7b6d2;stroke-width:1.5;"/>
    <path clip-path="url(#pb9ff404a55)" d="M 173.667899 223.743298 
L 173.667899 223.743298 
" style="fill:none;stroke:#f7b6d2;stroke-width:1.5;"/>
    <path clip-path="url(#pb9ff404a55)" d="M 243.380094 180.804463 
L 243.380094 180.804463 
" style="fill:none;stroke:#f7b6d2;stroke-width:1.5;"/>
    <path clip-path="url(#pb9ff404a55)" d="M 302.526115 133.174152 
L 302.526115 133.174152 
" style="fill:none;stroke:#f7b6d2;stroke-width:1.5;"/>
    <path clip-path="url(#pb9ff404a55)" d="M 355.597531 78.615472 
L 355.597531 78.615472 
" style="fill:none;stroke:#f7b6d2;stroke-width:1.5;"/>
    <path clip-path="url(#pb9ff404a55)" d="M 382.237384 84.204111 
L 382.237384 84.204111 
" style="fill:none;stroke:#f7b6d2;stroke-width:1.5;"/>
   </g>
   <g id="LineCollection_22">
    <path clip-path="url(#pb9ff404a55)" d="M 80.085002 272.835124 
L 80.085002 272.835124 
" style="fill:none;stroke:#f7b6d2;stroke-width:1.5;"/>
    <path clip-path="url(#pb9ff404a55)" d="M 106.071223 256.571523 
L 106.071223 256.571523 
" style="fill:none;stroke:#f7b6d2;stroke-width:1.5;"/>
    <path clip-path="url(#pb9ff404a55)" d="M 142.460945 242.483802 
L 142.460945 242.483802 
" style="fill:none;stroke:#f7b6d2;stroke-width:1.5;"/>
    <path clip-path="url(#pb9ff404a55)" d="M 173.667899 223.743298 
L 173.667899 223.743298 
" style="fill:none;stroke:#f7b6d2;stroke-width:1.5;"/>
    <path clip-path="url(#pb9ff404a55)" d="M 243.380094 180.804463 
L 243.380094 180.804463 
" style="fill:none;stroke:#f7b6d2;stroke-width:1.5;"/>
    <path clip-path="url(#pb9ff404a55)" d="M 302.526115 133.174152 
L 302.526115 133.174152 
" style="fill:none;stroke:#f7b6d2;stroke-width:1.5;"/>
    <path clip-path="url(#pb9ff404a55)" d="M 355.597531 78.615472 
L 355.597531 78.615472 
" style="fill:none;stroke:#f7b6d2;stroke-width:1.5;"/>
    <path clip-path="url(#pb9ff404a55)" d="M 382.237384 84.204111 
L 382.237384 84.204111 
" style="fill:none;stroke:#f7b6d2;stroke-width:1.5;"/>
   </g>
   <g id="LineCollection_23">
    <path clip-path="url(#pb9ff404a55)" d="M 78.357217 277.082433 
L 78.357217 277.082433 
" style="fill:none;stroke:#7f7f7f;stroke-width:1.5;"/>
    <path clip-path="url(#pb9ff404a55)" d="M 105.279338 257.337632 
L 105.279338 257.337632 
" style="fill:none;stroke:#7f7f7f;stroke-width:1.5;"/>
    <path clip-path="url(#pb9ff404a55)" d="M 141.456643 243.84176 
L 141.456643 243.84176 
" style="fill:none;stroke:#7f7f7f;stroke-width:1.5;"/>
    <path clip-path="url(#pb9ff404a55)" d="M 172.345345 227.764929 
L 172.345345 227.764929 
" style="fill:none;stroke:#7f7f7f;stroke-width:1.5;"/>
    <path clip-path="url(#pb9ff404a55)" d="M 240.814841 184.818801 
L 240.814841 184.818801 
" style="fill:none;stroke:#7f7f7f;stroke-width:1.5;"/>
    <path clip-path="url(#pb9ff404a55)" d="M 299.965271 141.192805 
L 299.965271 141.192805 
" style="fill:none;stroke:#7f7f7f;stroke-width:1.5;"/>
    <path clip-path="url(#pb9ff404a55)" d="M 350.897782 96.551986 
L 350.897782 96.551986 
" style="fill:none;stroke:#7f7f7f;stroke-width:1.5;"/>
    <path clip-path="url(#pb9ff404a55)" d="M 376.35006 93.593989 
L 376.35006 93.593989 
" style="fill:none;stroke:#7f7f7f;stroke-width:1.5;"/>
   </g>
   <g id="LineCollection_24">
    <path clip-path="url(#pb9ff404a55)" d="M 78.357217 277.082433 
L 78.357217 277.082433 
" style="fill:none;stroke:#7f7f7f;stroke-width:1.5;"/>
    <path clip-path="url(#pb9ff404a55)" d="M 105.279338 257.337632 
L 105.279338 257.337632 
" style="fill:none;stroke:#7f7f7f;stroke-width:1.5;"/>
    <path clip-path="url(#pb9ff404a55)" d="M 141.456643 243.84176 
L 141.456643 243.84176 
" style="fill:none;stroke:#7f7f7f;stroke-width:1.5;"/>
    <path clip-path="url(#pb9ff404a55)" d="M 172.345345 227.764929 
L 172.345345 227.764929 
" style="fill:none;stroke:#7f7f7f;stroke-width:1.5;"/>
    <path clip-path="url(#pb9ff404a55)" d="M 240.814841 184.818801 
L 240.814841 184.818801 
" style="fill:none;stroke:#7f7f7f;stroke-width:1.5;"/>
    <path clip-path="url(#pb9ff404a55)" d="M 299.965271 141.192805 
L 299.965271 141.192805 
" style="fill:none;stroke:#7f7f7f;stroke-width:1.5;"/>
    <path clip-path="url(#pb9ff404a55)" d="M 350.897782 96.551986 
L 350.897782 96.551986 
" style="fill:none;stroke:#7f7f7f;stroke-width:1.5;"/>
    <path clip-path="url(#pb9ff404a55)" d="M 376.35006 93.593989 
L 376.35006 93.593989 
" style="fill:none;stroke:#7f7f7f;stroke-width:1.5;"/>
   </g>
   <g id="LineCollection_25">
    <path clip-path="url(#pb9ff404a55)" d="M 82.473976 253.25165 
L 82.473976 253.25165 
" style="fill:none;stroke:#bcbd22;stroke-width:1.5;"/>
    <path clip-path="url(#pb9ff404a55)" d="M 110.903744 242.750485 
L 110.903744 242.750485 
" style="fill:none;stroke:#bcbd22;stroke-width:1.5;"/>
    <path clip-path="url(#pb9ff404a55)" d="M 151.234317 225.043584 
L 151.234317 225.043584 
" style="fill:none;stroke:#bcbd22;stroke-width:1.5;"/>
    <path clip-path="url(#pb9ff404a55)" d="M 186.606141 196.979822 
L 186.606141 196.979822 
" style="fill:none;stroke:#bcbd22;stroke-width:1.5;"/>
    <path clip-path="url(#pb9ff404a55)" d="M 263.188897 147.612405 
L 263.188897 147.612405 
" style="fill:none;stroke:#bcbd22;stroke-width:1.5;"/>
    <path clip-path="url(#pb9ff404a55)" d="M 326.300509 94.08478 
L 326.300509 94.08478 
" style="fill:none;stroke:#bcbd22;stroke-width:1.5;"/>
    <path clip-path="url(#pb9ff404a55)" d="M 382.466186 27.931561 
L 382.466186 27.931561 
" style="fill:none;stroke:#bcbd22;stroke-width:1.5;"/>
    <path clip-path="url(#pb9ff404a55)" d="M 411.045813 29.551763 
L 411.045813 29.551763 
" style="fill:none;stroke:#bcbd22;stroke-width:1.5;"/>
   </g>
   <g id="LineCollection_26">
    <path clip-path="url(#pb9ff404a55)" d="M 82.473976 253.25165 
L 82.473976 253.25165 
" style="fill:none;stroke:#bcbd22;stroke-width:1.5;"/>
    <path clip-path="url(#pb9ff404a55)" d="M 110.903744 242.750485 
L 110.903744 242.750485 
" style="fill:none;stroke:#bcbd22;stroke-width:1.5;"/>
    <path clip-path="url(#pb9ff404a55)" d="M 151.234317 225.043584 
L 151.234317 225.043584 
" style="fill:none;stroke:#bcbd22;stroke-width:1.5;"/>
    <path clip-path="url(#pb9ff404a55)" d="M 186.606141 196.979822 
L 186.606141 196.979822 
" style="fill:none;stroke:#bcbd22;stroke-width:1.5;"/>
    <path clip-path="url(#pb9ff404a55)" d="M 263.188897 147.612405 
L 263.188897 147.612405 
" style="fill:none;stroke:#bcbd22;stroke-width:1.5;"/>
    <path clip-path="url(#pb9ff404a55)" d="M 326.300509 94.08478 
L 326.300509 94.08478 
" style="fill:none;stroke:#bcbd22;stroke-width:1.5;"/>
    <path clip-path="url(#pb9ff404a55)" d="M 382.466186 27.931561 
L 382.466186 27.931561 
" style="fill:none;stroke:#bcbd22;stroke-width:1.5;"/>
    <path clip-path="url(#pb9ff404a55)" d="M 411.045813 29.551763 
L 411.045813 29.551763 
" style="fill:none;stroke:#bcbd22;stroke-width:1.5;"/>
   </g>
   <g id="LineCollection_27">
    <path clip-path="url(#pb9ff404a55)" d="M 76.497778 268.89526 
L 76.497778 268.89526 
" style="fill:none;stroke:#dbdb8d;stroke-width:1.5;"/>
    <path clip-path="url(#pb9ff404a55)" d="M 106.367994 250.87494 
L 106.367994 250.87494 
" style="fill:none;stroke:#dbdb8d;stroke-width:1.5;"/>
    <path clip-path="url(#pb9ff404a55)" d="M 146.311891 230.517035 
L 146.311891 230.517035 
" style="fill:none;stroke:#dbdb8d;stroke-width:1.5;"/>
    <path clip-path="url(#pb9ff404a55)" d="M 180.444996 206.961798 
L 180.444996 206.961798 
" style="fill:none;stroke:#dbdb8d;stroke-width:1.5;"/>
    <path clip-path="url(#pb9ff404a55)" d="M 255.717906 153.221119 
L 255.717906 153.221119 
" style="fill:none;stroke:#dbdb8d;stroke-width:1.5;"/>
    <path clip-path="url(#pb9ff404a55)" d="M 319.225134 102.888968 
L 319.225134 102.888968 
" style="fill:none;stroke:#dbdb8d;stroke-width:1.5;"/>
    <path clip-path="url(#pb9ff404a55)" d="M 375.799184 47.719648 
L 375.799184 47.719648 
" style="fill:none;stroke:#dbdb8d;stroke-width:1.5;"/>
    <path clip-path="url(#pb9ff404a55)" d="M 403.654033 46.679291 
L 403.654033 46.679291 
" style="fill:none;stroke:#dbdb8d;stroke-width:1.5;"/>
   </g>
   <g id="LineCollection_28">
    <path clip-path="url(#pb9ff404a55)" d="M 76.497778 268.89526 
L 76.497778 268.89526 
" style="fill:none;stroke:#dbdb8d;stroke-width:1.5;"/>
    <path clip-path="url(#pb9ff404a55)" d="M 106.367994 250.87494 
L 106.367994 250.87494 
" style="fill:none;stroke:#dbdb8d;stroke-width:1.5;"/>
    <path clip-path="url(#pb9ff404a55)" d="M 146.311891 230.517035 
L 146.311891 230.517035 
" style="fill:none;stroke:#dbdb8d;stroke-width:1.5;"/>
    <path clip-path="url(#pb9ff404a55)" d="M 180.444996 206.961798 
L 180.444996 206.961798 
" style="fill:none;stroke:#dbdb8d;stroke-width:1.5;"/>
    <path clip-path="url(#pb9ff404a55)" d="M 255.717906 153.221119 
L 255.717906 153.221119 
" style="fill:none;stroke:#dbdb8d;stroke-width:1.5;"/>
    <path clip-path="url(#pb9ff404a55)" d="M 319.225134 102.888968 
L 319.225134 102.888968 
" style="fill:none;stroke:#dbdb8d;stroke-width:1.5;"/>
    <path clip-path="url(#pb9ff404a55)" d="M 375.799184 47.719648 
L 375.799184 47.719648 
" style="fill:none;stroke:#dbdb8d;stroke-width:1.5;"/>
    <path clip-path="url(#pb9ff404a55)" d="M 403.654033 46.679291 
L 403.654033 46.679291 
" style="fill:none;stroke:#dbdb8d;stroke-width:1.5;"/>
   </g>
   <g id="LineCollection_29">
    <path clip-path="url(#pb9ff404a55)" d="M 90.62591 279.672661 
L 90.62591 279.672661 
" style="fill:none;stroke:#17becf;stroke-width:1.5;"/>
    <path clip-path="url(#pb9ff404a55)" d="M 110.986855 266.228123 
L 110.986855 266.228123 
" style="fill:none;stroke:#17becf;stroke-width:1.5;"/>
    <path clip-path="url(#pb9ff404a55)" d="M 144.469773 259.94129 
L 144.469773 259.94129 
" style="fill:none;stroke:#17becf;stroke-width:1.5;"/>
    <path clip-path="url(#pb9ff404a55)" d="M 176.082176 254.656611 
L 176.082176 254.656611 
" style="fill:none;stroke:#17becf;stroke-width:1.5;"/>
    <path clip-path="url(#pb9ff404a55)" d="M 251.214292 247.537366 
L 251.214292 247.537366 
" style="fill:none;stroke:#17becf;stroke-width:1.5;"/>
    <path clip-path="url(#pb9ff404a55)" d="M 319.667663 244.695635 
L 319.667663 244.695635 
" style="fill:none;stroke:#17becf;stroke-width:1.5;"/>
    <path clip-path="url(#pb9ff404a55)" d="M 384.341087 242.146814 
L 384.341087 242.146814 
" style="fill:none;stroke:#17becf;stroke-width:1.5;"/>
    <path clip-path="url(#pb9ff404a55)" d="M 417.57349 238.564188 
L 417.57349 238.564188 
" style="fill:none;stroke:#17becf;stroke-width:1.5;"/>
   </g>
   <g id="LineCollection_30">
    <path clip-path="url(#pb9ff404a55)" d="M 90.62591 279.672661 
L 90.62591 279.672661 
" style="fill:none;stroke:#17becf;stroke-width:1.5;"/>
    <path clip-path="url(#pb9ff404a55)" d="M 110.986855 266.228123 
L 110.986855 266.228123 
" style="fill:none;stroke:#17becf;stroke-width:1.5;"/>
    <path clip-path="url(#pb9ff404a55)" d="M 144.469773 259.94129 
L 144.469773 259.94129 
" style="fill:none;stroke:#17becf;stroke-width:1.5;"/>
    <path clip-path="url(#pb9ff404a55)" d="M 176.082176 254.656611 
L 176.082176 254.656611 
" style="fill:none;stroke:#17becf;stroke-width:1.5;"/>
    <path clip-path="url(#pb9ff404a55)" d="M 251.214292 247.537366 
L 251.214292 247.537366 
" style="fill:none;stroke:#17becf;stroke-width:1.5;"/>
    <path clip-path="url(#pb9ff404a55)" d="M 319.667663 244.695635 
L 319.667663 244.695635 
" style="fill:none;stroke:#17becf;stroke-width:1.5;"/>
    <path clip-path="url(#pb9ff404a55)" d="M 384.341087 242.146814 
L 384.341087 242.146814 
" style="fill:none;stroke:#17becf;stroke-width:1.5;"/>
    <path clip-path="url(#pb9ff404a55)" d="M 417.57349 238.564188 
L 417.57349 238.564188 
" style="fill:none;stroke:#17becf;stroke-width:1.5;"/>
   </g>
   <g id="LineCollection_31">
    <path clip-path="url(#pb9ff404a55)" d="M 83.563514 257.359701 
L 83.563514 257.359701 
" style="fill:none;stroke:#9edae5;stroke-width:1.5;"/>
    <path clip-path="url(#pb9ff404a55)" d="M 106.938745 250.98624 
L 106.938745 250.98624 
" style="fill:none;stroke:#9edae5;stroke-width:1.5;"/>
    <path clip-path="url(#pb9ff404a55)" d="M 142.429178 243.958903 
L 142.429178 243.958903 
" style="fill:none;stroke:#9edae5;stroke-width:1.5;"/>
    <path clip-path="url(#pb9ff404a55)" d="M 175.589555 239.826467 
L 175.589555 239.826467 
" style="fill:none;stroke:#9edae5;stroke-width:1.5;"/>
    <path clip-path="url(#pb9ff404a55)" d="M 255.530899 233.385185 
L 255.530899 233.385185 
" style="fill:none;stroke:#9edae5;stroke-width:1.5;"/>
    <path clip-path="url(#pb9ff404a55)" d="M 326.981989 224.112373 
L 326.981989 224.112373 
" style="fill:none;stroke:#9edae5;stroke-width:1.5;"/>
    <path clip-path="url(#pb9ff404a55)" d="M 395.041953 221.65241 
L 395.041953 221.65241 
" style="fill:none;stroke:#9edae5;stroke-width:1.5;"/>
    <path clip-path="url(#pb9ff404a55)" d="M 429.685455 215.29566 
L 429.685455 215.29566 
" style="fill:none;stroke:#9edae5;stroke-width:1.5;"/>
   </g>
   <g id="LineCollection_32">
    <path clip-path="url(#pb9ff404a55)" d="M 83.563514 257.359701 
L 83.563514 257.359701 
" style="fill:none;stroke:#9edae5;stroke-width:1.5;"/>
    <path clip-path="url(#pb9ff404a55)" d="M 106.938745 250.98624 
L 106.938745 250.98624 
" style="fill:none;stroke:#9edae5;stroke-width:1.5;"/>
    <path clip-path="url(#pb9ff404a55)" d="M 142.429178 243.958903 
L 142.429178 243.958903 
" style="fill:none;stroke:#9edae5;stroke-width:1.5;"/>
    <path clip-path="url(#pb9ff404a55)" d="M 175.589555 239.826467 
L 175.589555 239.826467 
" style="fill:none;stroke:#9edae5;stroke-width:1.5;"/>
    <path clip-path="url(#pb9ff404a55)" d="M 255.530899 233.385185 
L 255.530899 233.385185 
" style="fill:none;stroke:#9edae5;stroke-width:1.5;"/>
    <path clip-path="url(#pb9ff404a55)" d="M 326.981989 224.112373 
L 326.981989 224.112373 
" style="fill:none;stroke:#9edae5;stroke-width:1.5;"/>
    <path clip-path="url(#pb9ff404a55)" d="M 395.041953 221.65241 
L 395.041953 221.65241 
" style="fill:none;stroke:#9edae5;stroke-width:1.5;"/>
    <path clip-path="url(#pb9ff404a55)" d="M 429.685455 215.29566 
L 429.685455 215.29566 
" style="fill:none;stroke:#9edae5;stroke-width:1.5;"/>
   </g>
   <g id="line2d_14">
    <path clip-path="url(#pb9ff404a55)" d="M 85.664382 254.307017 
L 106.407813 252.59554 
L 138.489614 249.948568 
L 168.295302 247.489392 
L 238.795954 241.672598 
L 301.899902 236.466084 
L 363.644976 231.371686 
L 396.045933 228.698382 
" style="fill:none;stroke:#1f77b4;stroke-linecap:square;stroke-width:1.5;"/>
   </g>
   <g id="line2d_15">
    <path clip-path="url(#pb9ff404a55)" d="M 82.21564 250.315727 
L 105.616531 247.634116 
L 140.903123 243.59047 
L 173.114395 239.899239 
L 250.342746 231.049302 
L 320.274057 223.035566 
L 387.607504 215.31953 
L 422.473625 211.324068 
" style="fill:none;stroke:#aec7e8;stroke-linecap:square;stroke-width:1.5;"/>
   </g>
   <g id="line2d_16">
    <path clip-path="url(#pb9ff404a55)" d="M 79.727474 286.051374 
L 105.176445 270.069503 
L 141.099192 247.510136 
L 171.597023 228.357598 
L 239.408076 185.772479 
L 297.222106 149.465458 
L 349.771708 116.46448 
L 375.482257 100.318339 
" style="fill:none;stroke:#ff7f0e;stroke-linecap:square;stroke-width:1.5;"/>
   </g>
   <g id="line2d_17">
    <path clip-path="url(#pb9ff404a55)" d="M 73.794545 268.514209 
L 101.933448 252.335828 
L 137.784408 231.723422 
L 168.052067 214.321119 
L 234.833481 175.925338 
L 291.771083 143.189228 
L 343.272315 113.578744 
L 368.89799 98.845336 
" style="fill:none;stroke:#2ca02c;stroke-linecap:square;stroke-width:1.5;"/>
   </g>
   <g id="line2d_18">
    <path clip-path="url(#pb9ff404a55)" d="M 82.230793 277.032719 
L 107.22981 260.198555 
L 144.67634 234.982323 
L 175.947255 213.924707 
L 246.05274 166.716161 
L 306.181674 126.225756 
L 359.687323 90.195425 
L 385.921306 72.529644 
" style="fill:none;stroke:#98df8a;stroke-linecap:square;stroke-width:1.5;"/>
   </g>
   <g id="line2d_19">
    <path clip-path="url(#pb9ff404a55)" d="M 78.874899 274.819497 
L 104.068179 260.629968 
L 137.623947 241.730462 
L 166.474337 225.481151 
L 230.327634 189.517266 
L 285.172227 158.627325 
L 334.379057 130.912722 
L 358.942424 117.077977 
" style="fill:none;stroke:#d62728;stroke-linecap:square;stroke-width:1.5;"/>
   </g>
   <g id="line2d_20">
    <path clip-path="url(#pb9ff404a55)" d="M 81.837359 286.333357 
L 105.451236 271.373205 
L 139.318263 249.917353 
L 168.546115 231.400566 
L 233.548948 190.219178 
L 288.880342 155.164957 
L 338.759008 123.565216 
L 363.269353 108.037122 
" style="fill:none;stroke:#9467bd;stroke-linecap:square;stroke-width:1.5;"/>
   </g>
   <g id="line2d_21">
    <path clip-path="url(#pb9ff404a55)" d="M 83.829789 282.618305 
L 109.165885 265.121105 
L 145.439814 240.070198 
L 176.725546 218.464158 
L 247.041168 169.903934 
L 306.578024 128.787565 
L 360.049015 91.860304 
L 385.842089 74.047514 
" style="fill:none;stroke:#c5b0d5;stroke-linecap:square;stroke-width:1.5;"/>
   </g>
   <g id="line2d_22">
    <path clip-path="url(#pb9ff404a55)" d="M 85.501714 290.443636 
L 108.662515 274.497764 
L 143.313878 250.640807 
L 173.549703 229.823883 
L 241.093617 183.320886 
L 298.156745 144.033756 
L 349.082743 108.971951 
L 373.634889 92.068157 
" style="fill:none;stroke:#8c564b;stroke-linecap:square;stroke-width:1.5;"/>
   </g>
   <g id="line2d_23">
    <path clip-path="url(#pb9ff404a55)" d="M 82.355185 274.057853 
L 107.459111 258.080668 
L 142.529823 235.760205 
L 172.36275 216.773286 
L 239.793727 173.857401 
L 297.065115 137.407502 
L 348.990929 104.359749 
L 374.695346 88.000387 
" style="fill:none;stroke:#e377c2;stroke-linecap:square;stroke-width:1.5;"/>
   </g>
   <g id="line2d_24">
    <path clip-path="url(#pb9ff404a55)" d="M 80.085002 279.542533 
L 106.071223 262.210577 
L 142.460945 237.939826 
L 173.667899 217.125811 
L 243.380094 170.630064 
L 302.526115 131.181609 
L 355.597531 95.784716 
L 382.237384 78.016808 
" style="fill:none;stroke:#f7b6d2;stroke-linecap:square;stroke-width:1.5;"/>
   </g>
   <g id="line2d_25">
    <path clip-path="url(#pb9ff404a55)" d="M 78.357217 280.986788 
L 105.279338 263.827556 
L 141.456643 240.769389 
L 172.345345 221.081995 
L 240.814841 177.441899 
L 299.965271 139.741455 
L 350.897782 107.278828 
L 376.35006 91.056424 
" style="fill:none;stroke:#7f7f7f;stroke-linecap:square;stroke-width:1.5;"/>
   </g>
   <g id="line2d_26">
    <path clip-path="url(#pb9ff404a55)" d="M 82.473976 266.839563 
L 110.903744 246.045533 
L 151.234317 216.547045 
L 186.606141 190.675474 
L 263.188897 134.661503 
L 326.300509 88.500564 
L 382.466186 47.420003 
L 411.045813 26.516364 
" style="fill:none;stroke:#bcbd22;stroke-linecap:square;stroke-width:1.5;"/>
   </g>
   <g id="line2d_27">
    <path clip-path="url(#pb9ff404a55)" d="M 76.497778 275.613609 
L 106.367994 254.210012 
L 146.311891 225.588088 
L 180.444996 201.129904 
L 255.717906 147.192865 
L 319.225134 101.686562 
L 375.799184 61.14825 
L 403.654033 41.18877 
" style="fill:none;stroke:#dbdb8d;stroke-linecap:square;stroke-width:1.5;"/>
   </g>
   <g id="line2d_28">
    <path clip-path="url(#pb9ff404a55)" d="M 90.62591 269.055398 
L 110.986855 266.984409 
L 144.469773 263.578733 
L 176.082176 260.363314 
L 251.214292 252.721339 
L 319.667663 245.758685 
L 384.341087 239.180503 
L 417.57349 235.800308 
" style="fill:none;stroke:#17becf;stroke-linecap:square;stroke-width:1.5;"/>
   </g>
   <g id="line2d_29">
    <path clip-path="url(#pb9ff404a55)" d="M 83.563514 252.94919 
L 106.938745 250.381311 
L 142.429178 246.482522 
L 175.589555 242.8397 
L 255.530899 234.05777 
L 326.981989 226.208535 
L 395.041953 218.73183 
L 429.685455 214.92608 
" style="fill:none;stroke:#9edae5;stroke-linecap:square;stroke-width:1.5;"/>
   </g>
   <g id="line2d_30">
    <defs>
     <path d="M -3 3 
L 3 -3 
M -3 -3 
L 3 3 
" id="me1c1efd79f" style="stroke:#1f77b4;"/>
    </defs>
    <g clip-path="url(#pb9ff404a55)">
     <use style="fill:#1f77b4;stroke:#1f77b4;" x="85.664382" xlink:href="#me1c1efd79f" y="261.858536"/>
     <use style="fill:#1f77b4;stroke:#1f77b4;" x="106.407813" xlink:href="#me1c1efd79f" y="254.642633"/>
     <use style="fill:#1f77b4;stroke:#1f77b4;" x="138.489614" xlink:href="#me1c1efd79f" y="248.789756"/>
     <use style="fill:#1f77b4;stroke:#1f77b4;" x="168.295302" xlink:href="#me1c1efd79f" y="243.339403"/>
     <use style="fill:#1f77b4;stroke:#1f77b4;" x="238.795954" xlink:href="#me1c1efd79f" y="234.15059"/>
     <use style="fill:#1f77b4;stroke:#1f77b4;" x="301.899902" xlink:href="#me1c1efd79f" y="229.270419"/>
     <use style="fill:#1f77b4;stroke:#1f77b4;" x="363.644976" xlink:href="#me1c1efd79f" y="236.529937"/>
     <use style="fill:#1f77b4;stroke:#1f77b4;" x="396.045933" xlink:href="#me1c1efd79f" y="233.967992"/>
    </g>
   </g>
   <g id="line2d_31">
    <defs>
     <path d="M -3 3 
L 3 -3 
M -3 -3 
L 3 3 
" id="ma7ada1dee1" style="stroke:#aec7e8;"/>
    </defs>
    <g clip-path="url(#pb9ff404a55)">
     <use style="fill:#aec7e8;stroke:#aec7e8;" x="82.21564" xlink:href="#ma7ada1dee1" y="256.406413"/>
     <use style="fill:#aec7e8;stroke:#aec7e8;" x="105.616531" xlink:href="#ma7ada1dee1" y="247.756474"/>
     <use style="fill:#aec7e8;stroke:#aec7e8;" x="140.903123" xlink:href="#ma7ada1dee1" y="243.436485"/>
     <use style="fill:#aec7e8;stroke:#aec7e8;" x="173.114395" xlink:href="#ma7ada1dee1" y="236.033691"/>
     <use style="fill:#aec7e8;stroke:#aec7e8;" x="250.342746" xlink:href="#ma7ada1dee1" y="226.430616"/>
     <use style="fill:#aec7e8;stroke:#aec7e8;" x="320.274057" xlink:href="#ma7ada1dee1" y="218.252183"/>
     <use style="fill:#aec7e8;stroke:#aec7e8;" x="387.607504" xlink:href="#ma7ada1dee1" y="220.481288"/>
     <use style="fill:#aec7e8;stroke:#aec7e8;" x="422.473625" xlink:href="#ma7ada1dee1" y="213.370865"/>
    </g>
   </g>
   <g id="line2d_32">
    <defs>
     <path d="M -3 3 
L 3 -3 
M -3 -3 
L 3 3 
" id="m7ca9124f0b" style="stroke:#ff7f0e;"/>
    </defs>
    <g clip-path="url(#pb9ff404a55)">
     <use style="fill:#ff7f0e;stroke:#ff7f0e;" x="79.727474" xlink:href="#m7ca9124f0b" y="283.710012"/>
     <use style="fill:#ff7f0e;stroke:#ff7f0e;" x="105.176445" xlink:href="#m7ca9124f0b" y="264.417074"/>
     <use style="fill:#ff7f0e;stroke:#ff7f0e;" x="141.099192" xlink:href="#m7ca9124f0b" y="250.365644"/>
     <use style="fill:#ff7f0e;stroke:#ff7f0e;" x="171.597023" xlink:href="#m7ca9124f0b" y="232.841882"/>
     <use style="fill:#ff7f0e;stroke:#ff7f0e;" x="239.408076" xlink:href="#m7ca9124f0b" y="191.370004"/>
     <use style="fill:#ff7f0e;stroke:#ff7f0e;" x="297.222106" xlink:href="#m7ca9124f0b" y="151.299957"/>
     <use style="fill:#ff7f0e;stroke:#ff7f0e;" x="349.771708" xlink:href="#m7ca9124f0b" y="106.023026"/>
     <use style="fill:#ff7f0e;stroke:#ff7f0e;" x="375.482257" xlink:href="#m7ca9124f0b" y="103.981767"/>
    </g>
   </g>
   <g id="line2d_33">
    <defs>
     <path d="M -3 3 
L 3 -3 
M -3 -3 
L 3 3 
" id="m1e8868d65c" style="stroke:#2ca02c;"/>
    </defs>
    <g clip-path="url(#pb9ff404a55)">
     <use style="fill:#2ca02c;stroke:#2ca02c;" x="73.794545" xlink:href="#m1e8868d65c" y="259.101463"/>
     <use style="fill:#2ca02c;stroke:#2ca02c;" x="101.933448" xlink:href="#m1e8868d65c" y="248.237175"/>
     <use style="fill:#2ca02c;stroke:#2ca02c;" x="137.784408" xlink:href="#m1e8868d65c" y="237.225886"/>
     <use style="fill:#2ca02c;stroke:#2ca02c;" x="168.052067" xlink:href="#m1e8868d65c" y="223.104068"/>
     <use style="fill:#2ca02c;stroke:#2ca02c;" x="234.833481" xlink:href="#m1e8868d65c" y="183.671942"/>
     <use style="fill:#2ca02c;stroke:#2ca02c;" x="291.771083" xlink:href="#m1e8868d65c" y="144.660533"/>
     <use style="fill:#2ca02c;stroke:#2ca02c;" x="343.272315" xlink:href="#m1e8868d65c" y="101.254915"/>
     <use style="fill:#2ca02c;stroke:#2ca02c;" x="368.89799" xlink:href="#m1e8868d65c" y="101.177244"/>
    </g>
   </g>
   <g id="line2d_34">
    <defs>
     <path d="M -3 3 
L 3 -3 
M -3 -3 
L 3 3 
" id="m49f217793e" style="stroke:#98df8a;"/>
    </defs>
    <g clip-path="url(#pb9ff404a55)">
     <use style="fill:#98df8a;stroke:#98df8a;" x="82.230793" xlink:href="#m49f217793e" y="266.892982"/>
     <use style="fill:#98df8a;stroke:#98df8a;" x="107.22981" xlink:href="#m49f217793e" y="251.865661"/>
     <use style="fill:#98df8a;stroke:#98df8a;" x="144.67634" xlink:href="#m49f217793e" y="248.060564"/>
     <use style="fill:#98df8a;stroke:#98df8a;" x="175.947255" xlink:href="#m49f217793e" y="221.815986"/>
     <use style="fill:#98df8a;stroke:#98df8a;" x="246.05274" xlink:href="#m49f217793e" y="171.774853"/>
     <use style="fill:#98df8a;stroke:#98df8a;" x="306.181674" xlink:href="#m49f217793e" y="130.502146"/>
     <use style="fill:#98df8a;stroke:#98df8a;" x="359.687323" xlink:href="#m49f217793e" y="72.701891"/>
     <use style="fill:#98df8a;stroke:#98df8a;" x="385.921306" xlink:href="#m49f217793e" y="78.191206"/>
    </g>
   </g>
   <g id="line2d_35">
    <defs>
     <path d="M -3 3 
L 3 -3 
M -3 -3 
L 3 3 
" id="m446ae9ca61" style="stroke:#d62728;"/>
    </defs>
    <g clip-path="url(#pb9ff404a55)">
     <use style="fill:#d62728;stroke:#d62728;" x="78.874899" xlink:href="#m446ae9ca61" y="269.050778"/>
     <use style="fill:#d62728;stroke:#d62728;" x="104.068179" xlink:href="#m446ae9ca61" y="256.966476"/>
     <use style="fill:#d62728;stroke:#d62728;" x="137.623947" xlink:href="#m446ae9ca61" y="243.677262"/>
     <use style="fill:#d62728;stroke:#d62728;" x="166.474337" xlink:href="#m446ae9ca61" y="232.065413"/>
     <use style="fill:#d62728;stroke:#d62728;" x="230.327634" xlink:href="#m446ae9ca61" y="196.122364"/>
     <use style="fill:#d62728;stroke:#d62728;" x="285.172227" xlink:href="#m446ae9ca61" y="162.105885"/>
     <use style="fill:#d62728;stroke:#d62728;" x="334.379057" xlink:href="#m446ae9ca61" y="120.535887"/>
     <use style="fill:#d62728;stroke:#d62728;" x="358.942424" xlink:href="#m446ae9ca61" y="118.272302"/>
    </g>
   </g>
   <g id="line2d_36">
    <defs>
     <path d="M -3 3 
L 3 -3 
M -3 -3 
L 3 3 
" id="m16cbf3edd4" style="stroke:#9467bd;"/>
    </defs>
    <g clip-path="url(#pb9ff404a55)">
     <use style="fill:#9467bd;stroke:#9467bd;" x="81.837359" xlink:href="#m16cbf3edd4" y="283.160044"/>
     <use style="fill:#9467bd;stroke:#9467bd;" x="105.451236" xlink:href="#m16cbf3edd4" y="266.359462"/>
     <use style="fill:#9467bd;stroke:#9467bd;" x="139.318263" xlink:href="#m16cbf3edd4" y="252.53362"/>
     <use style="fill:#9467bd;stroke:#9467bd;" x="168.546115" xlink:href="#m16cbf3edd4" y="235.948004"/>
     <use style="fill:#9467bd;stroke:#9467bd;" x="233.548948" xlink:href="#m16cbf3edd4" y="197.084753"/>
     <use style="fill:#9467bd;stroke:#9467bd;" x="288.880342" xlink:href="#m16cbf3edd4" y="156.481666"/>
     <use style="fill:#9467bd;stroke:#9467bd;" x="338.759008" xlink:href="#m16cbf3edd4" y="112.375802"/>
     <use style="fill:#9467bd;stroke:#9467bd;" x="363.269353" xlink:href="#m16cbf3edd4" y="112.067601"/>
    </g>
   </g>
   <g id="line2d_37">
    <defs>
     <path d="M -3 3 
L 3 -3 
M -3 -3 
L 3 3 
" id="m5fcedfa81b" style="stroke:#c5b0d5;"/>
    </defs>
    <g clip-path="url(#pb9ff404a55)">
     <use style="fill:#c5b0d5;stroke:#c5b0d5;" x="83.829789" xlink:href="#m5fcedfa81b" y="276.183942"/>
     <use style="fill:#c5b0d5;stroke:#c5b0d5;" x="109.165885" xlink:href="#m5fcedfa81b" y="260.275191"/>
     <use style="fill:#c5b0d5;stroke:#c5b0d5;" x="145.439814" xlink:href="#m5fcedfa81b" y="245.464513"/>
     <use style="fill:#c5b0d5;stroke:#c5b0d5;" x="176.725546" xlink:href="#m5fcedfa81b" y="221.924805"/>
     <use style="fill:#c5b0d5;stroke:#c5b0d5;" x="247.041168" xlink:href="#m5fcedfa81b" y="179.530629"/>
     <use style="fill:#c5b0d5;stroke:#c5b0d5;" x="306.578024" xlink:href="#m5fcedfa81b" y="131.187042"/>
     <use style="fill:#c5b0d5;stroke:#c5b0d5;" x="360.049015" xlink:href="#m5fcedfa81b" y="81.669008"/>
     <use style="fill:#c5b0d5;stroke:#c5b0d5;" x="385.842089" xlink:href="#m5fcedfa81b" y="74.637952"/>
    </g>
   </g>
   <g id="line2d_38">
    <defs>
     <path d="M -3 3 
L 3 -3 
M -3 -3 
L 3 3 
" id="m6784930248" style="stroke:#8c564b;"/>
    </defs>
    <g clip-path="url(#pb9ff404a55)">
     <use style="fill:#8c564b;stroke:#8c564b;" x="85.501714" xlink:href="#m6784930248" y="287.851763"/>
     <use style="fill:#8c564b;stroke:#8c564b;" x="108.662515" xlink:href="#m6784930248" y="268.494475"/>
     <use style="fill:#8c564b;stroke:#8c564b;" x="143.313878" xlink:href="#m6784930248" y="253.094244"/>
     <use style="fill:#8c564b;stroke:#8c564b;" x="173.549703" xlink:href="#m6784930248" y="234.009974"/>
     <use style="fill:#8c564b;stroke:#8c564b;" x="241.093617" xlink:href="#m6784930248" y="190.751667"/>
     <use style="fill:#8c564b;stroke:#8c564b;" x="298.156745" xlink:href="#m6784930248" y="146.740718"/>
     <use style="fill:#8c564b;stroke:#8c564b;" x="349.082743" xlink:href="#m6784930248" y="98.612597"/>
     <use style="fill:#8c564b;stroke:#8c564b;" x="373.634889" xlink:href="#m6784930248" y="94.245401"/>
    </g>
   </g>
   <g id="line2d_39">
    <defs>
     <path d="M -3 3 
L 3 -3 
M -3 -3 
L 3 3 
" id="mdbd8462239" style="stroke:#e377c2;"/>
    </defs>
    <g clip-path="url(#pb9ff404a55)">
     <use style="fill:#e377c2;stroke:#e377c2;" x="82.355185" xlink:href="#mdbd8462239" y="265.548249"/>
     <use style="fill:#e377c2;stroke:#e377c2;" x="107.459111" xlink:href="#mdbd8462239" y="253.198967"/>
     <use style="fill:#e377c2;stroke:#e377c2;" x="142.529823" xlink:href="#mdbd8462239" y="241.45214"/>
     <use style="fill:#e377c2;stroke:#e377c2;" x="172.36275" xlink:href="#mdbd8462239" y="224.048201"/>
     <use style="fill:#e377c2;stroke:#e377c2;" x="239.793727" xlink:href="#mdbd8462239" y="182.9034"/>
     <use style="fill:#e377c2;stroke:#e377c2;" x="297.065115" xlink:href="#mdbd8462239" y="138.950752"/>
     <use style="fill:#e377c2;stroke:#e377c2;" x="348.990929" xlink:href="#mdbd8462239" y="91.082659"/>
     <use style="fill:#e377c2;stroke:#e377c2;" x="374.695346" xlink:href="#mdbd8462239" y="91.112683"/>
    </g>
   </g>
   <g id="line2d_40">
    <defs>
     <path d="M -3 3 
L 3 -3 
M -3 -3 
L 3 3 
" id="mc480c546a5" style="stroke:#f7b6d2;"/>
    </defs>
    <g clip-path="url(#pb9ff404a55)">
     <use style="fill:#f7b6d2;stroke:#f7b6d2;" x="80.085002" xlink:href="#mc480c546a5" y="272.835124"/>
     <use style="fill:#f7b6d2;stroke:#f7b6d2;" x="106.071223" xlink:href="#mc480c546a5" y="256.571523"/>
     <use style="fill:#f7b6d2;stroke:#f7b6d2;" x="142.460945" xlink:href="#mc480c546a5" y="242.483802"/>
     <use style="fill:#f7b6d2;stroke:#f7b6d2;" x="173.667899" xlink:href="#mc480c546a5" y="223.743298"/>
     <use style="fill:#f7b6d2;stroke:#f7b6d2;" x="243.380094" xlink:href="#mc480c546a5" y="180.804463"/>
     <use style="fill:#f7b6d2;stroke:#f7b6d2;" x="302.526115" xlink:href="#mc480c546a5" y="133.174152"/>
     <use style="fill:#f7b6d2;stroke:#f7b6d2;" x="355.597531" xlink:href="#mc480c546a5" y="78.615472"/>
     <use style="fill:#f7b6d2;stroke:#f7b6d2;" x="382.237384" xlink:href="#mc480c546a5" y="84.204111"/>
    </g>
   </g>
   <g id="line2d_41">
    <defs>
     <path d="M -3 3 
L 3 -3 
M -3 -3 
L 3 3 
" id="m98837d54b9" style="stroke:#7f7f7f;"/>
    </defs>
    <g clip-path="url(#pb9ff404a55)">
     <use style="fill:#7f7f7f;stroke:#7f7f7f;" x="78.357217" xlink:href="#m98837d54b9" y="277.082433"/>
     <use style="fill:#7f7f7f;stroke:#7f7f7f;" x="105.279338" xlink:href="#m98837d54b9" y="257.337632"/>
     <use style="fill:#7f7f7f;stroke:#7f7f7f;" x="141.456643" xlink:href="#m98837d54b9" y="243.84176"/>
     <use style="fill:#7f7f7f;stroke:#7f7f7f;" x="172.345345" xlink:href="#m98837d54b9" y="227.764929"/>
     <use style="fill:#7f7f7f;stroke:#7f7f7f;" x="240.814841" xlink:href="#m98837d54b9" y="184.818801"/>
     <use style="fill:#7f7f7f;stroke:#7f7f7f;" x="299.965271" xlink:href="#m98837d54b9" y="141.192805"/>
     <use style="fill:#7f7f7f;stroke:#7f7f7f;" x="350.897782" xlink:href="#m98837d54b9" y="96.551986"/>
     <use style="fill:#7f7f7f;stroke:#7f7f7f;" x="376.35006" xlink:href="#m98837d54b9" y="93.593989"/>
    </g>
   </g>
   <g id="line2d_42">
    <defs>
     <path d="M -3 3 
L 3 -3 
M -3 -3 
L 3 3 
" id="mc883ffa71c" style="stroke:#bcbd22;"/>
    </defs>
    <g clip-path="url(#pb9ff404a55)">
     <use style="fill:#bcbd22;stroke:#bcbd22;" x="82.473976" xlink:href="#mc883ffa71c" y="253.25165"/>
     <use style="fill:#bcbd22;stroke:#bcbd22;" x="110.903744" xlink:href="#mc883ffa71c" y="242.750485"/>
     <use style="fill:#bcbd22;stroke:#bcbd22;" x="151.234317" xlink:href="#mc883ffa71c" y="225.043584"/>
     <use style="fill:#bcbd22;stroke:#bcbd22;" x="186.606141" xlink:href="#mc883ffa71c" y="196.979822"/>
     <use style="fill:#bcbd22;stroke:#bcbd22;" x="263.188897" xlink:href="#mc883ffa71c" y="147.612405"/>
     <use style="fill:#bcbd22;stroke:#bcbd22;" x="326.300509" xlink:href="#mc883ffa71c" y="94.08478"/>
     <use style="fill:#bcbd22;stroke:#bcbd22;" x="382.466186" xlink:href="#mc883ffa71c" y="27.931561"/>
     <use style="fill:#bcbd22;stroke:#bcbd22;" x="411.045813" xlink:href="#mc883ffa71c" y="29.551763"/>
    </g>
   </g>
   <g id="line2d_43">
    <defs>
     <path d="M -3 3 
L 3 -3 
M -3 -3 
L 3 3 
" id="m88ac3f7647" style="stroke:#dbdb8d;"/>
    </defs>
    <g clip-path="url(#pb9ff404a55)">
     <use style="fill:#dbdb8d;stroke:#dbdb8d;" x="76.497778" xlink:href="#m88ac3f7647" y="268.89526"/>
     <use style="fill:#dbdb8d;stroke:#dbdb8d;" x="106.367994" xlink:href="#m88ac3f7647" y="250.87494"/>
     <use style="fill:#dbdb8d;stroke:#dbdb8d;" x="146.311891" xlink:href="#m88ac3f7647" y="230.517035"/>
     <use style="fill:#dbdb8d;stroke:#dbdb8d;" x="180.444996" xlink:href="#m88ac3f7647" y="206.961798"/>
     <use style="fill:#dbdb8d;stroke:#dbdb8d;" x="255.717906" xlink:href="#m88ac3f7647" y="153.221119"/>
     <use style="fill:#dbdb8d;stroke:#dbdb8d;" x="319.225134" xlink:href="#m88ac3f7647" y="102.888968"/>
     <use style="fill:#dbdb8d;stroke:#dbdb8d;" x="375.799184" xlink:href="#m88ac3f7647" y="47.719648"/>
     <use style="fill:#dbdb8d;stroke:#dbdb8d;" x="403.654033" xlink:href="#m88ac3f7647" y="46.679291"/>
    </g>
   </g>
   <g id="line2d_44">
    <defs>
     <path d="M -3 3 
L 3 -3 
M -3 -3 
L 3 3 
" id="md5caf5ab23" style="stroke:#17becf;"/>
    </defs>
    <g clip-path="url(#pb9ff404a55)">
     <use style="fill:#17becf;stroke:#17becf;" x="90.62591" xlink:href="#md5caf5ab23" y="279.672661"/>
     <use style="fill:#17becf;stroke:#17becf;" x="110.986855" xlink:href="#md5caf5ab23" y="266.228123"/>
     <use style="fill:#17becf;stroke:#17becf;" x="144.469773" xlink:href="#md5caf5ab23" y="259.94129"/>
     <use style="fill:#17becf;stroke:#17becf;" x="176.082176" xlink:href="#md5caf5ab23" y="254.656611"/>
     <use style="fill:#17becf;stroke:#17becf;" x="251.214292" xlink:href="#md5caf5ab23" y="247.537366"/>
     <use style="fill:#17becf;stroke:#17becf;" x="319.667663" xlink:href="#md5caf5ab23" y="244.695635"/>
     <use style="fill:#17becf;stroke:#17becf;" x="384.341087" xlink:href="#md5caf5ab23" y="242.146814"/>
     <use style="fill:#17becf;stroke:#17becf;" x="417.57349" xlink:href="#md5caf5ab23" y="238.564188"/>
    </g>
   </g>
   <g id="line2d_45">
    <defs>
     <path d="M -3 3 
L 3 -3 
M -3 -3 
L 3 3 
" id="m769492a10c" style="stroke:#9edae5;"/>
    </defs>
    <g clip-path="url(#pb9ff404a55)">
     <use style="fill:#9edae5;stroke:#9edae5;" x="83.563514" xlink:href="#m769492a10c" y="257.359701"/>
     <use style="fill:#9edae5;stroke:#9edae5;" x="106.938745" xlink:href="#m769492a10c" y="250.98624"/>
     <use style="fill:#9edae5;stroke:#9edae5;" x="142.429178" xlink:href="#m769492a10c" y="243.958903"/>
     <use style="fill:#9edae5;stroke:#9edae5;" x="175.589555" xlink:href="#m769492a10c" y="239.826467"/>
     <use style="fill:#9edae5;stroke:#9edae5;" x="255.530899" xlink:href="#m769492a10c" y="233.385185"/>
     <use style="fill:#9edae5;stroke:#9edae5;" x="326.981989" xlink:href="#m769492a10c" y="224.112373"/>
     <use style="fill:#9edae5;stroke:#9edae5;" x="395.041953" xlink:href="#m769492a10c" y="221.65241"/>
     <use style="fill:#9edae5;stroke:#9edae5;" x="429.685455" xlink:href="#m769492a10c" y="215.29566"/>
    </g>
   </g>
   <g id="patch_3">
    <path d="M 56 303.64 
L 56 13.32 
" style="fill:none;stroke:#000000;stroke-linecap:square;stroke-linejoin:miter;stroke-width:0.8;"/>
   </g>
   <g id="patch_4">
    <path d="M 447.48 303.64 
L 447.48 13.32 
" style="fill:none;stroke:#000000;stroke-linecap:square;stroke-linejoin:miter;stroke-width:0.8;"/>
   </g>
   <g id="patch_5">
    <path d="M 56 303.64 
L 447.48 303.64 
" style="fill:none;stroke:#000000;stroke-linecap:square;stroke-linejoin:miter;stroke-width:0.8;"/>
   </g>
   <g id="patch_6">
    <path d="M 56 13.32 
L 447.48 13.32 
" style="fill:none;stroke:#000000;stroke-linecap:square;stroke-linejoin:miter;stroke-width:0.8;"/>
   </g>
  </g>
 </g>
 <defs>
  <clipPath id="pb9ff404a55">
   <rect height="290.32" width="391.48" x="56" y="13.32"/>
  </clipPath>
 </defs>
</svg>
